<?xml version="1.0" encoding="utf-8" standalone="no"?>
<!DOCTYPE svg PUBLIC "-//W3C//DTD SVG 1.1//EN"
  "http://www.w3.org/Graphics/SVG/1.1/DTD/svg11.dtd">
<!-- Created with matplotlib (https://matplotlib.org/) -->
<svg height="345.6pt" version="1.1" viewBox="0 0 460.8 345.6" width="460.8pt" xmlns="http://www.w3.org/2000/svg" xmlns:xlink="http://www.w3.org/1999/xlink">
 <metadata>
  <rdf:RDF xmlns:cc="http://creativecommons.org/ns#" xmlns:dc="http://purl.org/dc/elements/1.1/" xmlns:rdf="http://www.w3.org/1999/02/22-rdf-syntax-ns#">
   <cc:Work>
    <dc:type rdf:resource="http://purl.org/dc/dcmitype/StillImage"/>
    <dc:date>2024-09-03T05:55:49.497948</dc:date>
    <dc:format>image/svg+xml</dc:format>
    <dc:creator>
     <cc:Agent>
      <dc:title>Matplotlib v3.3.2, https://matplotlib.org/</dc:title>
     </cc:Agent>
    </dc:creator>
   </cc:Work>
  </rdf:RDF>
 </metadata>
 <defs>
  <style type="text/css">*{stroke-linecap:butt;stroke-linejoin:round;}</style>
 </defs>
 <g id="figure_1">
  <g id="patch_1">
   <path d="M 0 345.6 
L 460.8 345.6 
L 460.8 0 
L 0 0 
z
" style="fill:none;"/>
  </g>
  <g id="axes_1">
   <g id="patch_2">
    <path d="M 44.66 255.638708 
L 450 255.638708 
L 450 25.44 
L 44.66 25.44 
z
" style="fill:none;"/>
   </g>
   <g id="matplotlib.axis_1">
    <g id="xtick_1">
     <g id="line2d_1">
      <path clip-path="url(#pfbd4a77fc9)" d="M 86.459244 255.638708 
L 86.459244 25.44 
" style="fill:none;stroke:#b0b0b0;stroke-linecap:square;stroke-width:0.8;"/>
     </g>
     <g id="line2d_2">
      <defs>
       <path d="M 0 0 
L 0 3.5 
" id="m55a4f1cf5d" style="stroke:#000000;stroke-width:0.8;"/>
      </defs>
      <g>
       <use style="stroke:#000000;stroke-width:0.8;" x="86.459244" xlink:href="#m55a4f1cf5d" y="255.638708"/>
      </g>
     </g>
     <g id="text_1">
      <!-- 2024-08-28 -->
      <g transform="translate(79.113851 319.848351)rotate(-70)scale(0.1 -0.1)">
       <defs>
        <path d="M 19.1875 8.296875 
L 53.609375 8.296875 
L 53.609375 0 
L 7.328125 0 
L 7.328125 8.296875 
Q 12.9375 14.109375 22.625 23.890625 
Q 32.328125 33.6875 34.8125 36.53125 
Q 39.546875 41.84375 41.421875 45.53125 
Q 43.3125 49.21875 43.3125 52.78125 
Q 43.3125 58.59375 39.234375 62.25 
Q 35.15625 65.921875 28.609375 65.921875 
Q 23.96875 65.921875 18.8125 64.3125 
Q 13.671875 62.703125 7.8125 59.421875 
L 7.8125 69.390625 
Q 13.765625 71.78125 18.9375 73 
Q 24.125 74.21875 28.421875 74.21875 
Q 39.75 74.21875 46.484375 68.546875 
Q 53.21875 62.890625 53.21875 53.421875 
Q 53.21875 48.921875 51.53125 44.890625 
Q 49.859375 40.875 45.40625 35.40625 
Q 44.1875 33.984375 37.640625 27.21875 
Q 31.109375 20.453125 19.1875 8.296875 
z
" id="DejaVuSans-50"/>
        <path d="M 31.78125 66.40625 
Q 24.171875 66.40625 20.328125 58.90625 
Q 16.5 51.421875 16.5 36.375 
Q 16.5 21.390625 20.328125 13.890625 
Q 24.171875 6.390625 31.78125 6.390625 
Q 39.453125 6.390625 43.28125 13.890625 
Q 47.125 21.390625 47.125 36.375 
Q 47.125 51.421875 43.28125 58.90625 
Q 39.453125 66.40625 31.78125 66.40625 
z
M 31.78125 74.21875 
Q 44.046875 74.21875 50.515625 64.515625 
Q 56.984375 54.828125 56.984375 36.375 
Q 56.984375 17.96875 50.515625 8.265625 
Q 44.046875 -1.421875 31.78125 -1.421875 
Q 19.53125 -1.421875 13.0625 8.265625 
Q 6.59375 17.96875 6.59375 36.375 
Q 6.59375 54.828125 13.0625 64.515625 
Q 19.53125 74.21875 31.78125 74.21875 
z
" id="DejaVuSans-48"/>
        <path d="M 37.796875 64.3125 
L 12.890625 25.390625 
L 37.796875 25.390625 
z
M 35.203125 72.90625 
L 47.609375 72.90625 
L 47.609375 25.390625 
L 58.015625 25.390625 
L 58.015625 17.1875 
L 47.609375 17.1875 
L 47.609375 0 
L 37.796875 0 
L 37.796875 17.1875 
L 4.890625 17.1875 
L 4.890625 26.703125 
z
" id="DejaVuSans-52"/>
        <path d="M 4.890625 31.390625 
L 31.203125 31.390625 
L 31.203125 23.390625 
L 4.890625 23.390625 
z
" id="DejaVuSans-45"/>
        <path d="M 31.78125 34.625 
Q 24.75 34.625 20.71875 30.859375 
Q 16.703125 27.09375 16.703125 20.515625 
Q 16.703125 13.921875 20.71875 10.15625 
Q 24.75 6.390625 31.78125 6.390625 
Q 38.8125 6.390625 42.859375 10.171875 
Q 46.921875 13.96875 46.921875 20.515625 
Q 46.921875 27.09375 42.890625 30.859375 
Q 38.875 34.625 31.78125 34.625 
z
M 21.921875 38.8125 
Q 15.578125 40.375 12.03125 44.71875 
Q 8.5 49.078125 8.5 55.328125 
Q 8.5 64.0625 14.71875 69.140625 
Q 20.953125 74.21875 31.78125 74.21875 
Q 42.671875 74.21875 48.875 69.140625 
Q 55.078125 64.0625 55.078125 55.328125 
Q 55.078125 49.078125 51.53125 44.71875 
Q 48 40.375 41.703125 38.8125 
Q 48.828125 37.15625 52.796875 32.3125 
Q 56.78125 27.484375 56.78125 20.515625 
Q 56.78125 9.90625 50.3125 4.234375 
Q 43.84375 -1.421875 31.78125 -1.421875 
Q 19.734375 -1.421875 13.25 4.234375 
Q 6.78125 9.90625 6.78125 20.515625 
Q 6.78125 27.484375 10.78125 32.3125 
Q 14.796875 37.15625 21.921875 38.8125 
z
M 18.3125 54.390625 
Q 18.3125 48.734375 21.84375 45.5625 
Q 25.390625 42.390625 31.78125 42.390625 
Q 38.140625 42.390625 41.71875 45.5625 
Q 45.3125 48.734375 45.3125 54.390625 
Q 45.3125 60.0625 41.71875 63.234375 
Q 38.140625 66.40625 31.78125 66.40625 
Q 25.390625 66.40625 21.84375 63.234375 
Q 18.3125 60.0625 18.3125 54.390625 
z
" id="DejaVuSans-56"/>
       </defs>
       <use xlink:href="#DejaVuSans-50"/>
       <use x="63.623047" xlink:href="#DejaVuSans-48"/>
       <use x="127.246094" xlink:href="#DejaVuSans-50"/>
       <use x="190.869141" xlink:href="#DejaVuSans-52"/>
       <use x="254.492188" xlink:href="#DejaVuSans-45"/>
       <use x="290.576172" xlink:href="#DejaVuSans-48"/>
       <use x="354.199219" xlink:href="#DejaVuSans-56"/>
       <use x="417.822266" xlink:href="#DejaVuSans-45"/>
       <use x="453.90625" xlink:href="#DejaVuSans-50"/>
       <use x="517.529297" xlink:href="#DejaVuSans-56"/>
      </g>
     </g>
    </g>
    <g id="xtick_2">
     <g id="line2d_3">
      <path clip-path="url(#pfbd4a77fc9)" d="M 141.709312 255.638708 
L 141.709312 25.44 
" style="fill:none;stroke:#b0b0b0;stroke-linecap:square;stroke-width:0.8;"/>
     </g>
     <g id="line2d_4">
      <g>
       <use style="stroke:#000000;stroke-width:0.8;" x="141.709312" xlink:href="#m55a4f1cf5d" y="255.638708"/>
      </g>
     </g>
     <g id="text_2">
      <!-- 2024-08-29 -->
      <g transform="translate(134.36392 319.848351)rotate(-70)scale(0.1 -0.1)">
       <defs>
        <path d="M 10.984375 1.515625 
L 10.984375 10.5 
Q 14.703125 8.734375 18.5 7.8125 
Q 22.3125 6.890625 25.984375 6.890625 
Q 35.75 6.890625 40.890625 13.453125 
Q 46.046875 20.015625 46.78125 33.40625 
Q 43.953125 29.203125 39.59375 26.953125 
Q 35.25 24.703125 29.984375 24.703125 
Q 19.046875 24.703125 12.671875 31.3125 
Q 6.296875 37.9375 6.296875 49.421875 
Q 6.296875 60.640625 12.9375 67.421875 
Q 19.578125 74.21875 30.609375 74.21875 
Q 43.265625 74.21875 49.921875 64.515625 
Q 56.59375 54.828125 56.59375 36.375 
Q 56.59375 19.140625 48.40625 8.859375 
Q 40.234375 -1.421875 26.421875 -1.421875 
Q 22.703125 -1.421875 18.890625 -0.6875 
Q 15.09375 0.046875 10.984375 1.515625 
z
M 30.609375 32.421875 
Q 37.25 32.421875 41.125 36.953125 
Q 45.015625 41.5 45.015625 49.421875 
Q 45.015625 57.28125 41.125 61.84375 
Q 37.25 66.40625 30.609375 66.40625 
Q 23.96875 66.40625 20.09375 61.84375 
Q 16.21875 57.28125 16.21875 49.421875 
Q 16.21875 41.5 20.09375 36.953125 
Q 23.96875 32.421875 30.609375 32.421875 
z
" id="DejaVuSans-57"/>
       </defs>
       <use xlink:href="#DejaVuSans-50"/>
       <use x="63.623047" xlink:href="#DejaVuSans-48"/>
       <use x="127.246094" xlink:href="#DejaVuSans-50"/>
       <use x="190.869141" xlink:href="#DejaVuSans-52"/>
       <use x="254.492188" xlink:href="#DejaVuSans-45"/>
       <use x="290.576172" xlink:href="#DejaVuSans-48"/>
       <use x="354.199219" xlink:href="#DejaVuSans-56"/>
       <use x="417.822266" xlink:href="#DejaVuSans-45"/>
       <use x="453.90625" xlink:href="#DejaVuSans-50"/>
       <use x="517.529297" xlink:href="#DejaVuSans-57"/>
      </g>
     </g>
    </g>
    <g id="xtick_3">
     <g id="line2d_5">
      <path clip-path="url(#pfbd4a77fc9)" d="M 196.959381 255.638708 
L 196.959381 25.44 
" style="fill:none;stroke:#b0b0b0;stroke-linecap:square;stroke-width:0.8;"/>
     </g>
     <g id="line2d_6">
      <g>
       <use style="stroke:#000000;stroke-width:0.8;" x="196.959381" xlink:href="#m55a4f1cf5d" y="255.638708"/>
      </g>
     </g>
     <g id="text_3">
      <!-- 2024-08-30 -->
      <g transform="translate(189.613988 319.848351)rotate(-70)scale(0.1 -0.1)">
       <defs>
        <path d="M 40.578125 39.3125 
Q 47.65625 37.796875 51.625 33 
Q 55.609375 28.21875 55.609375 21.1875 
Q 55.609375 10.40625 48.1875 4.484375 
Q 40.765625 -1.421875 27.09375 -1.421875 
Q 22.515625 -1.421875 17.65625 -0.515625 
Q 12.796875 0.390625 7.625 2.203125 
L 7.625 11.71875 
Q 11.71875 9.328125 16.59375 8.109375 
Q 21.484375 6.890625 26.8125 6.890625 
Q 36.078125 6.890625 40.9375 10.546875 
Q 45.796875 14.203125 45.796875 21.1875 
Q 45.796875 27.640625 41.28125 31.265625 
Q 36.765625 34.90625 28.71875 34.90625 
L 20.21875 34.90625 
L 20.21875 43.015625 
L 29.109375 43.015625 
Q 36.375 43.015625 40.234375 45.921875 
Q 44.09375 48.828125 44.09375 54.296875 
Q 44.09375 59.90625 40.109375 62.90625 
Q 36.140625 65.921875 28.71875 65.921875 
Q 24.65625 65.921875 20.015625 65.03125 
Q 15.375 64.15625 9.8125 62.3125 
L 9.8125 71.09375 
Q 15.4375 72.65625 20.34375 73.4375 
Q 25.25 74.21875 29.59375 74.21875 
Q 40.828125 74.21875 47.359375 69.109375 
Q 53.90625 64.015625 53.90625 55.328125 
Q 53.90625 49.265625 50.4375 45.09375 
Q 46.96875 40.921875 40.578125 39.3125 
z
" id="DejaVuSans-51"/>
       </defs>
       <use xlink:href="#DejaVuSans-50"/>
       <use x="63.623047" xlink:href="#DejaVuSans-48"/>
       <use x="127.246094" xlink:href="#DejaVuSans-50"/>
       <use x="190.869141" xlink:href="#DejaVuSans-52"/>
       <use x="254.492188" xlink:href="#DejaVuSans-45"/>
       <use x="290.576172" xlink:href="#DejaVuSans-48"/>
       <use x="354.199219" xlink:href="#DejaVuSans-56"/>
       <use x="417.822266" xlink:href="#DejaVuSans-45"/>
       <use x="453.90625" xlink:href="#DejaVuSans-51"/>
       <use x="517.529297" xlink:href="#DejaVuSans-48"/>
      </g>
     </g>
    </g>
    <g id="xtick_4">
     <g id="line2d_7">
      <path clip-path="url(#pfbd4a77fc9)" d="M 252.20945 255.638708 
L 252.20945 25.44 
" style="fill:none;stroke:#b0b0b0;stroke-linecap:square;stroke-width:0.8;"/>
     </g>
     <g id="line2d_8">
      <g>
       <use style="stroke:#000000;stroke-width:0.8;" x="252.20945" xlink:href="#m55a4f1cf5d" y="255.638708"/>
      </g>
     </g>
     <g id="text_4">
      <!-- 2024-08-31 -->
      <g transform="translate(244.864057 319.848351)rotate(-70)scale(0.1 -0.1)">
       <defs>
        <path d="M 12.40625 8.296875 
L 28.515625 8.296875 
L 28.515625 63.921875 
L 10.984375 60.40625 
L 10.984375 69.390625 
L 28.421875 72.90625 
L 38.28125 72.90625 
L 38.28125 8.296875 
L 54.390625 8.296875 
L 54.390625 0 
L 12.40625 0 
z
" id="DejaVuSans-49"/>
       </defs>
       <use xlink:href="#DejaVuSans-50"/>
       <use x="63.623047" xlink:href="#DejaVuSans-48"/>
       <use x="127.246094" xlink:href="#DejaVuSans-50"/>
       <use x="190.869141" xlink:href="#DejaVuSans-52"/>
       <use x="254.492188" xlink:href="#DejaVuSans-45"/>
       <use x="290.576172" xlink:href="#DejaVuSans-48"/>
       <use x="354.199219" xlink:href="#DejaVuSans-56"/>
       <use x="417.822266" xlink:href="#DejaVuSans-45"/>
       <use x="453.90625" xlink:href="#DejaVuSans-51"/>
       <use x="517.529297" xlink:href="#DejaVuSans-49"/>
      </g>
     </g>
    </g>
    <g id="xtick_5">
     <g id="line2d_9">
      <path clip-path="url(#pfbd4a77fc9)" d="M 307.459519 255.638708 
L 307.459519 25.44 
" style="fill:none;stroke:#b0b0b0;stroke-linecap:square;stroke-width:0.8;"/>
     </g>
     <g id="line2d_10">
      <g>
       <use style="stroke:#000000;stroke-width:0.8;" x="307.459519" xlink:href="#m55a4f1cf5d" y="255.638708"/>
      </g>
     </g>
     <g id="text_5">
      <!-- 2024-09-01 -->
      <g transform="translate(300.114126 319.848351)rotate(-70)scale(0.1 -0.1)">
       <use xlink:href="#DejaVuSans-50"/>
       <use x="63.623047" xlink:href="#DejaVuSans-48"/>
       <use x="127.246094" xlink:href="#DejaVuSans-50"/>
       <use x="190.869141" xlink:href="#DejaVuSans-52"/>
       <use x="254.492188" xlink:href="#DejaVuSans-45"/>
       <use x="290.576172" xlink:href="#DejaVuSans-48"/>
       <use x="354.199219" xlink:href="#DejaVuSans-57"/>
       <use x="417.822266" xlink:href="#DejaVuSans-45"/>
       <use x="453.90625" xlink:href="#DejaVuSans-48"/>
       <use x="517.529297" xlink:href="#DejaVuSans-49"/>
      </g>
     </g>
    </g>
    <g id="xtick_6">
     <g id="line2d_11">
      <path clip-path="url(#pfbd4a77fc9)" d="M 362.709588 255.638708 
L 362.709588 25.44 
" style="fill:none;stroke:#b0b0b0;stroke-linecap:square;stroke-width:0.8;"/>
     </g>
     <g id="line2d_12">
      <g>
       <use style="stroke:#000000;stroke-width:0.8;" x="362.709588" xlink:href="#m55a4f1cf5d" y="255.638708"/>
      </g>
     </g>
     <g id="text_6">
      <!-- 2024-09-02 -->
      <g transform="translate(355.364195 319.848351)rotate(-70)scale(0.1 -0.1)">
       <use xlink:href="#DejaVuSans-50"/>
       <use x="63.623047" xlink:href="#DejaVuSans-48"/>
       <use x="127.246094" xlink:href="#DejaVuSans-50"/>
       <use x="190.869141" xlink:href="#DejaVuSans-52"/>
       <use x="254.492188" xlink:href="#DejaVuSans-45"/>
       <use x="290.576172" xlink:href="#DejaVuSans-48"/>
       <use x="354.199219" xlink:href="#DejaVuSans-57"/>
       <use x="417.822266" xlink:href="#DejaVuSans-45"/>
       <use x="453.90625" xlink:href="#DejaVuSans-48"/>
       <use x="517.529297" xlink:href="#DejaVuSans-50"/>
      </g>
     </g>
    </g>
    <g id="xtick_7">
     <g id="line2d_13">
      <path clip-path="url(#pfbd4a77fc9)" d="M 417.959657 255.638708 
L 417.959657 25.44 
" style="fill:none;stroke:#b0b0b0;stroke-linecap:square;stroke-width:0.8;"/>
     </g>
     <g id="line2d_14">
      <g>
       <use style="stroke:#000000;stroke-width:0.8;" x="417.959657" xlink:href="#m55a4f1cf5d" y="255.638708"/>
      </g>
     </g>
     <g id="text_7">
      <!-- 2024-09-03 -->
      <g transform="translate(410.614264 319.848351)rotate(-70)scale(0.1 -0.1)">
       <use xlink:href="#DejaVuSans-50"/>
       <use x="63.623047" xlink:href="#DejaVuSans-48"/>
       <use x="127.246094" xlink:href="#DejaVuSans-50"/>
       <use x="190.869141" xlink:href="#DejaVuSans-52"/>
       <use x="254.492188" xlink:href="#DejaVuSans-45"/>
       <use x="290.576172" xlink:href="#DejaVuSans-48"/>
       <use x="354.199219" xlink:href="#DejaVuSans-57"/>
       <use x="417.822266" xlink:href="#DejaVuSans-45"/>
       <use x="453.90625" xlink:href="#DejaVuSans-48"/>
       <use x="517.529297" xlink:href="#DejaVuSans-51"/>
      </g>
     </g>
    </g>
    <g id="text_8">
     <!-- Date -->
     <g transform="translate(235.379219 332.158083)scale(0.1 -0.1)">
      <defs>
       <path d="M 19.671875 64.796875 
L 19.671875 8.109375 
L 31.59375 8.109375 
Q 46.6875 8.109375 53.6875 14.9375 
Q 60.6875 21.78125 60.6875 36.53125 
Q 60.6875 51.171875 53.6875 57.984375 
Q 46.6875 64.796875 31.59375 64.796875 
z
M 9.8125 72.90625 
L 30.078125 72.90625 
Q 51.265625 72.90625 61.171875 64.09375 
Q 71.09375 55.28125 71.09375 36.53125 
Q 71.09375 17.671875 61.125 8.828125 
Q 51.171875 0 30.078125 0 
L 9.8125 0 
z
" id="DejaVuSans-68"/>
       <path d="M 34.28125 27.484375 
Q 23.390625 27.484375 19.1875 25 
Q 14.984375 22.515625 14.984375 16.5 
Q 14.984375 11.71875 18.140625 8.90625 
Q 21.296875 6.109375 26.703125 6.109375 
Q 34.1875 6.109375 38.703125 11.40625 
Q 43.21875 16.703125 43.21875 25.484375 
L 43.21875 27.484375 
z
M 52.203125 31.203125 
L 52.203125 0 
L 43.21875 0 
L 43.21875 8.296875 
Q 40.140625 3.328125 35.546875 0.953125 
Q 30.953125 -1.421875 24.3125 -1.421875 
Q 15.921875 -1.421875 10.953125 3.296875 
Q 6 8.015625 6 15.921875 
Q 6 25.140625 12.171875 29.828125 
Q 18.359375 34.515625 30.609375 34.515625 
L 43.21875 34.515625 
L 43.21875 35.40625 
Q 43.21875 41.609375 39.140625 45 
Q 35.0625 48.390625 27.6875 48.390625 
Q 23 48.390625 18.546875 47.265625 
Q 14.109375 46.140625 10.015625 43.890625 
L 10.015625 52.203125 
Q 14.9375 54.109375 19.578125 55.046875 
Q 24.21875 56 28.609375 56 
Q 40.484375 56 46.34375 49.84375 
Q 52.203125 43.703125 52.203125 31.203125 
z
" id="DejaVuSans-97"/>
       <path d="M 18.3125 70.21875 
L 18.3125 54.6875 
L 36.8125 54.6875 
L 36.8125 47.703125 
L 18.3125 47.703125 
L 18.3125 18.015625 
Q 18.3125 11.328125 20.140625 9.421875 
Q 21.96875 7.515625 27.59375 7.515625 
L 36.8125 7.515625 
L 36.8125 0 
L 27.59375 0 
Q 17.1875 0 13.234375 3.875 
Q 9.28125 7.765625 9.28125 18.015625 
L 9.28125 47.703125 
L 2.6875 47.703125 
L 2.6875 54.6875 
L 9.28125 54.6875 
L 9.28125 70.21875 
z
" id="DejaVuSans-116"/>
       <path d="M 56.203125 29.59375 
L 56.203125 25.203125 
L 14.890625 25.203125 
Q 15.484375 15.921875 20.484375 11.0625 
Q 25.484375 6.203125 34.421875 6.203125 
Q 39.59375 6.203125 44.453125 7.46875 
Q 49.3125 8.734375 54.109375 11.28125 
L 54.109375 2.78125 
Q 49.265625 0.734375 44.1875 -0.34375 
Q 39.109375 -1.421875 33.890625 -1.421875 
Q 20.796875 -1.421875 13.15625 6.1875 
Q 5.515625 13.8125 5.515625 26.8125 
Q 5.515625 40.234375 12.765625 48.109375 
Q 20.015625 56 32.328125 56 
Q 43.359375 56 49.78125 48.890625 
Q 56.203125 41.796875 56.203125 29.59375 
z
M 47.21875 32.234375 
Q 47.125 39.59375 43.09375 43.984375 
Q 39.0625 48.390625 32.421875 48.390625 
Q 24.90625 48.390625 20.390625 44.140625 
Q 15.875 39.890625 15.1875 32.171875 
z
" id="DejaVuSans-101"/>
      </defs>
      <use xlink:href="#DejaVuSans-68"/>
      <use x="77.001953" xlink:href="#DejaVuSans-97"/>
      <use x="138.28125" xlink:href="#DejaVuSans-116"/>
      <use x="177.490234" xlink:href="#DejaVuSans-101"/>
     </g>
    </g>
   </g>
   <g id="matplotlib.axis_2">
    <g id="ytick_1">
     <g id="line2d_15">
      <path clip-path="url(#pfbd4a77fc9)" d="M 44.66 232.095658 
L 450 232.095658 
" style="fill:none;stroke:#b0b0b0;stroke-linecap:square;stroke-width:0.8;"/>
     </g>
     <g id="line2d_16">
      <defs>
       <path d="M 0 0 
L -3.5 0 
" id="m5a3cbd8466" style="stroke:#000000;stroke-width:0.8;"/>
      </defs>
      <g>
       <use style="stroke:#000000;stroke-width:0.8;" x="44.66" xlink:href="#m5a3cbd8466" y="232.095658"/>
      </g>
     </g>
     <g id="text_9">
      <!-- 60 -->
      <g transform="translate(24.935 235.894877)scale(0.1 -0.1)">
       <defs>
        <path d="M 33.015625 40.375 
Q 26.375 40.375 22.484375 35.828125 
Q 18.609375 31.296875 18.609375 23.390625 
Q 18.609375 15.53125 22.484375 10.953125 
Q 26.375 6.390625 33.015625 6.390625 
Q 39.65625 6.390625 43.53125 10.953125 
Q 47.40625 15.53125 47.40625 23.390625 
Q 47.40625 31.296875 43.53125 35.828125 
Q 39.65625 40.375 33.015625 40.375 
z
M 52.59375 71.296875 
L 52.59375 62.3125 
Q 48.875 64.0625 45.09375 64.984375 
Q 41.3125 65.921875 37.59375 65.921875 
Q 27.828125 65.921875 22.671875 59.328125 
Q 17.53125 52.734375 16.796875 39.40625 
Q 19.671875 43.65625 24.015625 45.921875 
Q 28.375 48.1875 33.59375 48.1875 
Q 44.578125 48.1875 50.953125 41.515625 
Q 57.328125 34.859375 57.328125 23.390625 
Q 57.328125 12.15625 50.6875 5.359375 
Q 44.046875 -1.421875 33.015625 -1.421875 
Q 20.359375 -1.421875 13.671875 8.265625 
Q 6.984375 17.96875 6.984375 36.375 
Q 6.984375 53.65625 15.1875 63.9375 
Q 23.390625 74.21875 37.203125 74.21875 
Q 40.921875 74.21875 44.703125 73.484375 
Q 48.484375 72.75 52.59375 71.296875 
z
" id="DejaVuSans-54"/>
       </defs>
       <use xlink:href="#DejaVuSans-54"/>
       <use x="63.623047" xlink:href="#DejaVuSans-48"/>
      </g>
     </g>
    </g>
    <g id="ytick_2">
     <g id="line2d_17">
      <path clip-path="url(#pfbd4a77fc9)" d="M 44.66 205.936714 
L 450 205.936714 
" style="fill:none;stroke:#b0b0b0;stroke-linecap:square;stroke-width:0.8;"/>
     </g>
     <g id="line2d_18">
      <g>
       <use style="stroke:#000000;stroke-width:0.8;" x="44.66" xlink:href="#m5a3cbd8466" y="205.936714"/>
      </g>
     </g>
     <g id="text_10">
      <!-- 62 -->
      <g transform="translate(24.935 209.735933)scale(0.1 -0.1)">
       <use xlink:href="#DejaVuSans-54"/>
       <use x="63.623047" xlink:href="#DejaVuSans-50"/>
      </g>
     </g>
    </g>
    <g id="ytick_3">
     <g id="line2d_19">
      <path clip-path="url(#pfbd4a77fc9)" d="M 44.66 179.77777 
L 450 179.77777 
" style="fill:none;stroke:#b0b0b0;stroke-linecap:square;stroke-width:0.8;"/>
     </g>
     <g id="line2d_20">
      <g>
       <use style="stroke:#000000;stroke-width:0.8;" x="44.66" xlink:href="#m5a3cbd8466" y="179.77777"/>
      </g>
     </g>
     <g id="text_11">
      <!-- 64 -->
      <g transform="translate(24.935 183.576989)scale(0.1 -0.1)">
       <use xlink:href="#DejaVuSans-54"/>
       <use x="63.623047" xlink:href="#DejaVuSans-52"/>
      </g>
     </g>
    </g>
    <g id="ytick_4">
     <g id="line2d_21">
      <path clip-path="url(#pfbd4a77fc9)" d="M 44.66 153.618826 
L 450 153.618826 
" style="fill:none;stroke:#b0b0b0;stroke-linecap:square;stroke-width:0.8;"/>
     </g>
     <g id="line2d_22">
      <g>
       <use style="stroke:#000000;stroke-width:0.8;" x="44.66" xlink:href="#m5a3cbd8466" y="153.618826"/>
      </g>
     </g>
     <g id="text_12">
      <!-- 66 -->
      <g transform="translate(24.935 157.418045)scale(0.1 -0.1)">
       <use xlink:href="#DejaVuSans-54"/>
       <use x="63.623047" xlink:href="#DejaVuSans-54"/>
      </g>
     </g>
    </g>
    <g id="ytick_5">
     <g id="line2d_23">
      <path clip-path="url(#pfbd4a77fc9)" d="M 44.66 127.459882 
L 450 127.459882 
" style="fill:none;stroke:#b0b0b0;stroke-linecap:square;stroke-width:0.8;"/>
     </g>
     <g id="line2d_24">
      <g>
       <use style="stroke:#000000;stroke-width:0.8;" x="44.66" xlink:href="#m5a3cbd8466" y="127.459882"/>
      </g>
     </g>
     <g id="text_13">
      <!-- 68 -->
      <g transform="translate(24.935 131.259101)scale(0.1 -0.1)">
       <use xlink:href="#DejaVuSans-54"/>
       <use x="63.623047" xlink:href="#DejaVuSans-56"/>
      </g>
     </g>
    </g>
    <g id="ytick_6">
     <g id="line2d_25">
      <path clip-path="url(#pfbd4a77fc9)" d="M 44.66 101.300938 
L 450 101.300938 
" style="fill:none;stroke:#b0b0b0;stroke-linecap:square;stroke-width:0.8;"/>
     </g>
     <g id="line2d_26">
      <g>
       <use style="stroke:#000000;stroke-width:0.8;" x="44.66" xlink:href="#m5a3cbd8466" y="101.300938"/>
      </g>
     </g>
     <g id="text_14">
      <!-- 70 -->
      <g transform="translate(24.935 105.100157)scale(0.1 -0.1)">
       <defs>
        <path d="M 8.203125 72.90625 
L 55.078125 72.90625 
L 55.078125 68.703125 
L 28.609375 0 
L 18.3125 0 
L 43.21875 64.59375 
L 8.203125 64.59375 
z
" id="DejaVuSans-55"/>
       </defs>
       <use xlink:href="#DejaVuSans-55"/>
       <use x="63.623047" xlink:href="#DejaVuSans-48"/>
      </g>
     </g>
    </g>
    <g id="ytick_7">
     <g id="line2d_27">
      <path clip-path="url(#pfbd4a77fc9)" d="M 44.66 75.141994 
L 450 75.141994 
" style="fill:none;stroke:#b0b0b0;stroke-linecap:square;stroke-width:0.8;"/>
     </g>
     <g id="line2d_28">
      <g>
       <use style="stroke:#000000;stroke-width:0.8;" x="44.66" xlink:href="#m5a3cbd8466" y="75.141994"/>
      </g>
     </g>
     <g id="text_15">
      <!-- 72 -->
      <g transform="translate(24.935 78.941213)scale(0.1 -0.1)">
       <use xlink:href="#DejaVuSans-55"/>
       <use x="63.623047" xlink:href="#DejaVuSans-50"/>
      </g>
     </g>
    </g>
    <g id="ytick_8">
     <g id="line2d_29">
      <path clip-path="url(#pfbd4a77fc9)" d="M 44.66 48.98305 
L 450 48.98305 
" style="fill:none;stroke:#b0b0b0;stroke-linecap:square;stroke-width:0.8;"/>
     </g>
     <g id="line2d_30">
      <g>
       <use style="stroke:#000000;stroke-width:0.8;" x="44.66" xlink:href="#m5a3cbd8466" y="48.98305"/>
      </g>
     </g>
     <g id="text_16">
      <!-- 74 -->
      <g transform="translate(24.935 52.782268)scale(0.1 -0.1)">
       <use xlink:href="#DejaVuSans-55"/>
       <use x="63.623047" xlink:href="#DejaVuSans-52"/>
      </g>
     </g>
    </g>
    <g id="text_17">
     <!-- Temperature [F] -->
     <g transform="translate(18.855313 180.575291)rotate(-90)scale(0.1 -0.1)">
      <defs>
       <path d="M -0.296875 72.90625 
L 61.375 72.90625 
L 61.375 64.59375 
L 35.5 64.59375 
L 35.5 0 
L 25.59375 0 
L 25.59375 64.59375 
L -0.296875 64.59375 
z
" id="DejaVuSans-84"/>
       <path d="M 52 44.1875 
Q 55.375 50.25 60.0625 53.125 
Q 64.75 56 71.09375 56 
Q 79.640625 56 84.28125 50.015625 
Q 88.921875 44.046875 88.921875 33.015625 
L 88.921875 0 
L 79.890625 0 
L 79.890625 32.71875 
Q 79.890625 40.578125 77.09375 44.375 
Q 74.3125 48.1875 68.609375 48.1875 
Q 61.625 48.1875 57.5625 43.546875 
Q 53.515625 38.921875 53.515625 30.90625 
L 53.515625 0 
L 44.484375 0 
L 44.484375 32.71875 
Q 44.484375 40.625 41.703125 44.40625 
Q 38.921875 48.1875 33.109375 48.1875 
Q 26.21875 48.1875 22.15625 43.53125 
Q 18.109375 38.875 18.109375 30.90625 
L 18.109375 0 
L 9.078125 0 
L 9.078125 54.6875 
L 18.109375 54.6875 
L 18.109375 46.1875 
Q 21.1875 51.21875 25.484375 53.609375 
Q 29.78125 56 35.6875 56 
Q 41.65625 56 45.828125 52.96875 
Q 50 49.953125 52 44.1875 
z
" id="DejaVuSans-109"/>
       <path d="M 18.109375 8.203125 
L 18.109375 -20.796875 
L 9.078125 -20.796875 
L 9.078125 54.6875 
L 18.109375 54.6875 
L 18.109375 46.390625 
Q 20.953125 51.265625 25.265625 53.625 
Q 29.59375 56 35.59375 56 
Q 45.5625 56 51.78125 48.09375 
Q 58.015625 40.1875 58.015625 27.296875 
Q 58.015625 14.40625 51.78125 6.484375 
Q 45.5625 -1.421875 35.59375 -1.421875 
Q 29.59375 -1.421875 25.265625 0.953125 
Q 20.953125 3.328125 18.109375 8.203125 
z
M 48.6875 27.296875 
Q 48.6875 37.203125 44.609375 42.84375 
Q 40.53125 48.484375 33.40625 48.484375 
Q 26.265625 48.484375 22.1875 42.84375 
Q 18.109375 37.203125 18.109375 27.296875 
Q 18.109375 17.390625 22.1875 11.75 
Q 26.265625 6.109375 33.40625 6.109375 
Q 40.53125 6.109375 44.609375 11.75 
Q 48.6875 17.390625 48.6875 27.296875 
z
" id="DejaVuSans-112"/>
       <path d="M 41.109375 46.296875 
Q 39.59375 47.171875 37.8125 47.578125 
Q 36.03125 48 33.890625 48 
Q 26.265625 48 22.1875 43.046875 
Q 18.109375 38.09375 18.109375 28.8125 
L 18.109375 0 
L 9.078125 0 
L 9.078125 54.6875 
L 18.109375 54.6875 
L 18.109375 46.1875 
Q 20.953125 51.171875 25.484375 53.578125 
Q 30.03125 56 36.53125 56 
Q 37.453125 56 38.578125 55.875 
Q 39.703125 55.765625 41.0625 55.515625 
z
" id="DejaVuSans-114"/>
       <path d="M 8.5 21.578125 
L 8.5 54.6875 
L 17.484375 54.6875 
L 17.484375 21.921875 
Q 17.484375 14.15625 20.5 10.265625 
Q 23.53125 6.390625 29.59375 6.390625 
Q 36.859375 6.390625 41.078125 11.03125 
Q 45.3125 15.671875 45.3125 23.6875 
L 45.3125 54.6875 
L 54.296875 54.6875 
L 54.296875 0 
L 45.3125 0 
L 45.3125 8.40625 
Q 42.046875 3.421875 37.71875 1 
Q 33.40625 -1.421875 27.6875 -1.421875 
Q 18.265625 -1.421875 13.375 4.4375 
Q 8.5 10.296875 8.5 21.578125 
z
M 31.109375 56 
z
" id="DejaVuSans-117"/>
       <path id="DejaVuSans-32"/>
       <path d="M 8.59375 75.984375 
L 29.296875 75.984375 
L 29.296875 69 
L 17.578125 69 
L 17.578125 -6.203125 
L 29.296875 -6.203125 
L 29.296875 -13.1875 
L 8.59375 -13.1875 
z
" id="DejaVuSans-91"/>
       <path d="M 9.8125 72.90625 
L 51.703125 72.90625 
L 51.703125 64.59375 
L 19.671875 64.59375 
L 19.671875 43.109375 
L 48.578125 43.109375 
L 48.578125 34.8125 
L 19.671875 34.8125 
L 19.671875 0 
L 9.8125 0 
z
" id="DejaVuSans-70"/>
       <path d="M 30.421875 75.984375 
L 30.421875 -13.1875 
L 9.71875 -13.1875 
L 9.71875 -6.203125 
L 21.390625 -6.203125 
L 21.390625 69 
L 9.71875 69 
L 9.71875 75.984375 
z
" id="DejaVuSans-93"/>
      </defs>
      <use xlink:href="#DejaVuSans-84"/>
      <use x="44.083984" xlink:href="#DejaVuSans-101"/>
      <use x="105.607422" xlink:href="#DejaVuSans-109"/>
      <use x="203.019531" xlink:href="#DejaVuSans-112"/>
      <use x="266.496094" xlink:href="#DejaVuSans-101"/>
      <use x="328.019531" xlink:href="#DejaVuSans-114"/>
      <use x="369.132812" xlink:href="#DejaVuSans-97"/>
      <use x="430.412109" xlink:href="#DejaVuSans-116"/>
      <use x="469.621094" xlink:href="#DejaVuSans-117"/>
      <use x="533" xlink:href="#DejaVuSans-114"/>
      <use x="571.863281" xlink:href="#DejaVuSans-101"/>
      <use x="633.386719" xlink:href="#DejaVuSans-32"/>
      <use x="665.173828" xlink:href="#DejaVuSans-91"/>
      <use x="704.1875" xlink:href="#DejaVuSans-70"/>
      <use x="761.707031" xlink:href="#DejaVuSans-93"/>
     </g>
    </g>
   </g>
   <g id="line2d_31">
    <path clip-path="url(#pfbd4a77fc9)" d="M 63.084545 115.688357 
L 63.16887 115.688357 
L 63.248339 114.38041 
L 63.328615 115.688357 
L 63.44806 114.38041 
L 63.567612 114.38041 
L 63.607471 115.688357 
L 63.648049 114.38041 
L 63.687868 113.072463 
L 63.72753 114.38041 
L 63.767242 114.38041 
L 63.887908 113.072463 
L 64.04933 113.072463 
L 64.170991 111.764515 
L 64.294153 113.072463 
L 64.333805 113.072463 
L 64.413598 114.38041 
L 64.536434 111.764515 
L 64.576225 114.38041 
L 64.616114 111.764515 
L 64.738329 111.764515 
L 64.860226 109.148621 
L 64.901114 109.148621 
L 64.940728 111.764515 
L 64.98121 107.840674 
L 65.020918 107.840674 
L 65.061672 109.148621 
L 65.101998 107.840674 
L 65.302779 107.840674 
L 65.384295 106.532727 
L 65.466421 107.840674 
L 65.507102 106.532727 
L 65.627292 109.148621 
L 65.667104 109.148621 
L 65.74832 106.532727 
L 65.790221 107.840674 
L 65.871989 106.532727 
L 65.992386 107.840674 
L 66.072407 107.840674 
L 66.153407 109.148621 
L 66.193115 107.840674 
L 66.235531 109.148621 
L 66.35717 109.148621 
L 66.562135 105.224779 
L 66.682454 106.532727 
L 66.722484 106.532727 
L 66.764871 107.840674 
L 66.888995 105.224779 
L 66.970655 105.224779 
L 67.012362 103.916832 
L 67.052133 105.224779 
L 67.092395 105.224779 
L 67.132783 106.532727 
L 67.199594 105.224779 
L 67.363082 105.224779 
L 67.44542 103.916832 
L 67.569789 106.532727 
L 67.611709 105.224779 
L 67.652896 106.532727 
L 67.692568 106.532727 
L 67.734005 109.148621 
L 67.816649 107.840674 
L 67.901205 109.148621 
L 67.990889 109.148621 
L 68.030786 111.764515 
L 68.071428 109.148621 
L 68.232184 109.148621 
L 68.272404 107.840674 
L 68.312099 109.148621 
L 68.351964 109.148621 
L 68.395322 107.840674 
L 68.43559 109.148621 
L 68.477161 109.148621 
L 68.597864 107.840674 
L 68.680584 111.764515 
L 68.801566 107.840674 
L 68.888424 111.764515 
L 68.967739 109.148621 
L 69.007595 111.764515 
L 69.047591 107.840674 
L 69.28997 114.38041 
L 69.372347 109.148621 
L 69.453389 116.996304 
L 69.495139 113.072463 
L 69.615967 107.840674 
L 69.743481 114.38041 
L 69.783162 111.764515 
L 69.866344 116.996304 
L 69.948951 113.072463 
L 69.989822 115.688357 
L 70.074906 116.996304 
L 70.154086 115.688357 
L 70.277794 118.304252 
L 70.318892 116.996304 
L 70.358498 118.304252 
L 70.764021 118.304252 
L 70.885574 119.612199 
L 70.925996 119.612199 
L 71.048618 118.304252 
L 71.129463 119.612199 
L 71.209126 116.996304 
L 71.334253 119.612199 
L 71.455506 114.38041 
L 71.539043 122.228093 
L 71.618896 119.612199 
L 71.742707 119.612199 
L 71.826579 115.688357 
L 71.866253 119.612199 
L 71.906487 118.304252 
L 71.988131 115.688357 
L 72.027954 116.996304 
L 72.108402 115.688357 
L 72.23218 116.996304 
L 72.27242 115.688357 
L 72.312022 116.996304 
L 72.353441 118.304252 
L 72.393567 114.38041 
L 72.433986 118.304252 
L 72.516399 119.612199 
L 72.59874 116.996304 
L 72.638293 118.304252 
L 72.678005 118.304252 
L 72.717561 116.996304 
L 72.799106 119.612199 
L 72.839624 116.996304 
L 72.919195 118.304252 
L 73.122852 118.304252 
L 73.248774 119.612199 
L 73.369718 118.304252 
L 73.496095 119.612199 
L 73.578089 116.996304 
L 73.618547 118.304252 
L 73.73886 118.304252 
L 73.859731 119.612199 
L 74.344598 119.612199 
L 74.466665 122.228093 
L 74.508293 119.612199 
L 74.54791 122.228093 
L 75.245309 122.228093 
L 75.330462 123.53604 
L 75.452189 122.228093 
L 75.572169 123.53604 
L 75.611903 122.228093 
L 75.651457 123.53604 
L 76.461435 123.53604 
L 76.501717 124.843988 
L 76.541596 123.53604 
L 178.645837 124.843988 
L 178.68708 123.53604 
L 179.170277 119.612199 
L 179.210346 123.53604 
L 179.294369 122.228093 
L 179.379362 123.53604 
L 179.420261 119.612199 
L 179.518489 123.53604 
L 179.70967 118.304252 
L 179.835241 114.38041 
L 179.96859 118.304252 
L 180.194552 122.228093 
L 180.404412 122.228093 
L 180.444071 123.53604 
L 180.609546 118.304252 
L 180.653527 118.304252 
L 180.782862 107.840674 
L 180.899108 118.304252 
L 180.938888 115.688357 
L 181.068911 119.612199 
L 181.114619 116.996304 
L 181.196063 118.304252 
L 181.337509 122.228093 
L 181.468032 118.304252 
L 181.597368 119.612199 
L 181.637054 119.612199 
L 181.681384 116.996304 
L 181.762197 118.304252 
L 181.802632 116.996304 
L 181.843379 106.532727 
L 181.882943 118.304252 
L 181.92261 111.764515 
L 182.044621 119.612199 
L 182.084227 115.688357 
L 182.165527 114.38041 
L 182.20576 105.224779 
L 182.288423 109.148621 
L 182.3281 107.840674 
L 182.367735 109.148621 
L 182.588437 122.228093 
L 182.667739 116.996304 
L 182.733944 118.304252 
L 182.858618 116.996304 
L 182.899698 116.996304 
L 182.941693 115.688357 
L 182.98155 116.996304 
L 183.145157 122.228093 
L 183.314558 116.996304 
L 183.396088 116.996304 
L 183.532333 106.532727 
L 183.670562 119.612199 
L 183.713428 116.996304 
L 183.752923 119.612199 
L 183.803679 122.228093 
L 183.928653 116.996304 
L 184.090136 122.228093 
L 184.129694 118.304252 
L 184.170869 119.612199 
L 184.3339 119.612199 
L 184.375164 116.996304 
L 184.41806 118.304252 
L 184.502365 123.53604 
L 184.543183 122.228093 
L 184.663312 118.304252 
L 184.705085 119.612199 
L 184.748227 111.764515 
L 184.832427 114.38041 
L 184.873789 113.072463 
L 184.957229 118.304252 
L 184.997095 115.688357 
L 185.039881 114.38041 
L 185.079427 115.688357 
L 185.199789 116.996304 
L 185.24095 116.996304 
L 185.281779 118.304252 
L 185.321832 116.996304 
L 185.492032 116.996304 
L 185.57217 118.304252 
L 185.613029 115.688357 
L 185.652657 116.996304 
L 185.732383 118.304252 
L 185.77195 116.996304 
L 185.811633 118.304252 
L 185.894002 118.304252 
L 186.012849 119.612199 
L 186.094211 119.612199 
L 186.215817 122.228093 
L 186.295559 122.228093 
L 186.416002 123.53604 
L 187.023982 123.53604 
L 187.146127 124.843988 
L 187.267124 123.53604 
L 187.593762 123.53604 
L 187.633745 118.304252 
L 187.673535 123.53604 
L 187.713333 123.53604 
L 187.835002 122.228093 
L 187.920922 123.53604 
L 187.961896 122.228093 
L 188.003284 123.53604 
L 188.124414 123.53604 
L 188.164822 122.228093 
L 188.204697 123.53604 
L 188.324601 123.53604 
L 188.447127 124.843988 
L 188.488388 123.53604 
L 188.528052 124.843988 
L 189.393045 124.843988 
L 189.436172 126.151935 
L 189.475909 124.843988 
L 189.612574 123.53604 
L 190.116751 123.53604 
L 190.236094 122.228093 
L 190.276442 123.53604 
L 190.320787 122.228093 
L 190.931665 122.228093 
L 190.971321 123.53604 
L 191.011829 122.228093 
L 191.418854 122.228093 
L 191.542955 123.53604 
L 191.661936 122.228093 
L 191.86157 122.228093 
L 191.98182 123.53604 
L 192.104071 122.228093 
L 192.224562 123.53604 
L 192.345609 123.53604 
L 192.425274 122.228093 
L 192.464862 123.53604 
L 192.504544 122.228093 
L 192.584318 122.228093 
L 192.703223 123.53604 
L 192.833531 122.228093 
L 193.274897 122.228093 
L 352.910885 85.605571 
L 353.003112 88.221466 
L 353.195961 88.221466 
L 353.23592 85.605571 
L 353.276899 88.221466 
L 353.448721 88.221466 
L 353.48993 85.605571 
L 353.529711 88.221466 
L 353.94457 88.221466 
L 354.026432 89.529413 
L 354.150538 88.221466 
L 354.317542 88.221466 
L 354.359401 89.529413 
L 354.406838 88.221466 
L 354.494592 88.221466 
L 354.615711 89.529413 
L 354.73905 89.529413 
L 354.779913 88.221466 
L 354.819543 89.529413 
L 355.020126 89.529413 
L 355.140371 88.221466 
L 355.279618 89.529413 
L 356.191319 89.529413 
L 356.231424 90.83736 
L 356.270956 89.529413 
L 356.350205 89.529413 
L 356.390784 90.83736 
L 356.431423 89.529413 
L 356.512228 89.529413 
L 356.594333 90.83736 
L 356.720131 89.529413 
L 356.886728 89.529413 
L 356.966718 90.83736 
L 357.006427 89.529413 
L 357.046305 90.83736 
L 357.81942 90.83736 
L 357.859449 92.145307 
L 357.899132 90.83736 
L 358.106302 90.83736 
L 358.150595 92.145307 
L 358.210363 90.83736 
L 358.6216 90.83736 
L 358.706522 92.145307 
L 358.74766 90.83736 
L 358.788966 92.145307 
L 360.511096 92.145307 
L 360.552707 93.453255 
L 360.594376 92.145307 
L 361.003795 92.145307 
L 361.087089 93.453255 
L 361.213992 92.145307 
L 361.25503 93.453255 
L 361.2946 92.145307 
L 361.376842 92.145307 
L 361.499093 93.453255 
L 362.120266 93.453255 
L 362.311467 94.761202 
L 362.431546 93.453255 
L 363.654616 93.453255 
L 363.694151 92.145307 
L 363.734995 93.453255 
L 364.064817 93.453255 
L 364.104734 92.145307 
L 364.147433 93.453255 
L 364.22847 93.453255 
L 364.349147 92.145307 
L 364.469284 93.453255 
L 365.123792 93.453255 
L 365.163376 94.761202 
L 365.202901 93.453255 
L 366.006181 93.453255 
L 366.046953 92.145307 
L 366.087326 93.453255 
L 366.248231 93.453255 
L 366.301422 92.145307 
L 366.346133 93.453255 
L 366.751832 93.453255 
L 366.792668 92.145307 
L 366.833618 93.453255 
L 368.179177 93.453255 
L 368.218967 94.761202 
L 368.258831 93.453255 
L 368.302048 93.453255 
L 368.423115 94.761202 
L 368.591007 93.453255 
L 368.769021 94.761202 
L 368.890322 93.453255 
L 368.97363 93.453255 
L 369.095008 94.761202 
L 369.135127 94.761202 
L 369.218387 93.453255 
L 369.258208 94.761202 
L 369.29855 93.453255 
L 369.501566 93.453255 
L 369.620723 94.761202 
L 370.373992 94.761202 
L 370.414048 96.069149 
L 370.453745 94.761202 
L 370.989885 94.761202 
L 371.113674 96.069149 
L 371.236945 94.761202 
L 371.35853 96.069149 
L 371.48498 94.761202 
L 371.610457 96.069149 
L 371.695139 96.069149 
L 371.738031 94.761202 
L 371.777972 96.069149 
L 373.092516 96.069149 
L 373.133519 98.685043 
L 373.174916 96.069149 
L 373.254217 96.069149 
L 373.300838 98.685043 
L 373.340655 96.069149 
L 373.923331 96.069149 
L 374.003529 98.685043 
L 374.12834 96.069149 
L 374.423467 96.069149 
L 374.544857 98.685043 
L 374.586898 98.685043 
L 374.706813 96.069149 
L 374.827084 98.685043 
L 374.950907 96.069149 
L 375.072174 98.685043 
L 375.201183 96.069149 
L 375.240936 96.069149 
L 375.320888 98.685043 
L 375.362459 96.069149 
L 375.40348 98.685043 
L 375.44315 98.685043 
L 375.482704 96.069149 
L 375.523844 98.685043 
L 375.606826 98.685043 
L 375.647987 96.069149 
L 375.691907 98.685043 
L 376.912553 98.685043 
L 377.038218 99.992991 
L 377.168679 98.685043 
L 377.290058 98.685043 
L 377.331644 99.992991 
L 377.371865 98.685043 
L 377.813777 98.685043 
L 377.938498 99.992991 
L 377.978114 99.992991 
L 378.099394 98.685043 
L 378.223212 99.992991 
L 379.655875 99.992991 
L 379.776708 101.300938 
L 379.860279 99.992991 
L 379.982104 101.300938 
L 380.062104 99.992991 
L 380.181758 101.300938 
L 381.032319 101.300938 
L 381.15707 99.992991 
L 381.197135 99.992991 
L 381.317856 101.300938 
L 383.031028 101.300938 
L 383.070805 102.608885 
L 383.243481 101.300938 
L 384.594572 101.300938 
L 384.635861 102.608885 
L 384.67878 101.300938 
L 384.764811 102.608885 
L 384.888342 101.300938 
L 385.026605 102.608885 
L 386.190211 102.608885 
L 386.229933 101.300938 
L 386.272892 102.608885 
L 386.520776 102.608885 
L 386.642156 101.300938 
L 386.767443 102.608885 
L 386.849054 102.608885 
L 386.974323 101.300938 
L 387.217278 101.300938 
L 387.256847 102.608885 
L 387.297553 101.300938 
L 387.46184 101.300938 
L 387.587935 102.608885 
L 387.629576 102.608885 
L 387.752338 101.300938 
L 388.115431 101.300938 
L 388.155141 102.608885 
L 388.20057 101.300938 
L 388.243605 101.300938 
L 388.285741 102.608885 
L 388.32763 101.300938 
L 389.743911 101.300938 
L 389.783552 99.992991 
L 389.825571 101.300938 
L 389.86518 101.300938 
L 389.988291 99.992991 
L 390.27703 99.992991 
L 390.359574 98.685043 
L 390.483152 99.992991 
L 390.648993 99.992991 
L 390.740684 98.685043 
L 390.863862 99.992991 
L 390.906117 98.685043 
L 390.945854 99.992991 
L 392.141977 99.992991 
L 392.183585 98.685043 
L 392.223405 99.992991 
L 392.266521 99.992991 
L 392.38635 98.685043 
L 392.439565 98.685043 
L 392.479548 99.992991 
L 392.519648 98.685043 
L 392.724558 98.685043 
L 392.848106 96.069149 
L 393.299464 96.069149 
L 393.379549 94.761202 
L 393.501653 96.069149 
L 394.396571 96.069149 
L 394.517326 94.761202 
L 394.641132 96.069149 
L 394.761452 96.069149 
L 394.882693 94.761202 
L 394.922954 96.069149 
L 394.962845 94.761202 
L 395.044121 94.761202 
L 395.084102 93.453255 
L 395.123708 94.761202 
L 395.163492 94.761202 
L 395.286058 93.453255 
L 395.367486 94.761202 
L 395.407055 93.453255 
L 395.446823 94.761202 
L 395.566634 94.761202 
L 395.649865 93.453255 
L 395.689377 94.761202 
L 395.728981 93.453255 
L 395.768528 93.453255 
L 395.891342 94.761202 
L 396.031122 93.453255 
L 396.195412 93.453255 
L 396.319983 94.761202 
L 396.359676 93.453255 
L 396.399291 94.761202 
L 396.441631 94.761202 
L 396.565224 93.453255 
L 396.608053 93.453255 
L 396.737718 94.761202 
L 396.947657 94.761202 
L 396.98739 93.453255 
L 397.029135 94.761202 
L 397.646129 94.761202 
L 397.769814 93.453255 
L 397.809562 93.453255 
L 397.891503 94.761202 
L 398.015196 93.453255 
L 398.059628 93.453255 
L 398.14662 94.761202 
L 398.186339 93.453255 
L 398.226038 94.761202 
L 398.268383 94.761202 
L 398.311096 93.453255 
L 398.352254 94.761202 
L 398.395767 94.761202 
L 398.437464 93.453255 
L 398.478394 94.761202 
L 398.56167 94.761202 
L 398.688067 93.453255 
L 398.815527 93.453255 
L 398.939641 94.761202 
L 399.020684 94.761202 
L 399.101203 93.453255 
L 399.47723 93.453255 
L 399.522157 94.761202 
L 399.561899 93.453255 
L 399.786819 93.453255 
L 399.82753 94.761202 
L 399.868457 93.453255 
L 400.227044 93.453255 
L 400.266671 90.83736 
L 400.347927 92.145307 
L 400.467766 92.145307 
L 400.589913 93.453255 
L 400.792108 93.453255 
L 400.87215 94.761202 
L 400.993356 92.145307 
L 401.114609 93.453255 
L 401.236516 92.145307 
L 401.276225 93.453255 
L 401.317923 92.145307 
L 401.441161 92.145307 
L 401.563301 93.453255 
L 402.064236 93.453255 
L 402.104043 94.761202 
L 402.1462 93.453255 
L 402.186651 93.453255 
L 402.311162 92.145307 
L 402.433853 93.453255 
L 403.009277 93.453255 
L 403.130699 94.761202 
L 403.253045 94.761202 
L 403.294541 93.453255 
L 403.334204 94.761202 
L 403.859974 94.761202 
L 403.90284 93.453255 
L 403.942551 94.761202 
L 403.982271 94.761202 
L 404.023211 93.453255 
L 404.197483 94.761202 
L 404.699807 94.761202 
L 404.818766 96.069149 
L 404.939424 94.761202 
L 405.145077 94.761202 
L 405.187258 93.453255 
L 405.226922 94.761202 
L 405.759884 94.761202 
L 405.800879 96.069149 
L 405.840551 94.761202 
L 406.43317 94.761202 
L 406.513387 96.069149 
L 406.639243 94.761202 
L 406.7618 94.761202 
L 406.888653 96.069149 
L 407.586135 96.069149 
L 407.667352 94.761202 
L 407.792942 96.069149 
L 407.873707 96.069149 
L 407.915943 94.761202 
L 407.95808 96.069149 
L 409.118807 96.069149 
L 409.160069 98.685043 
L 409.34027 96.069149 
L 409.476513 98.685043 
L 409.516139 96.069149 
L 409.567157 98.685043 
L 409.606952 98.685043 
L 409.647303 96.069149 
L 409.688232 98.685043 
L 409.772824 98.685043 
L 409.812573 96.069149 
L 409.854085 98.685043 
L 409.893685 98.685043 
L 409.933413 96.069149 
L 409.973122 98.685043 
L 410.232939 98.685043 
L 410.276009 96.069149 
L 410.318204 98.685043 
L 410.359303 98.685043 
L 410.3989 96.069149 
L 410.582868 98.685043 
L 411.624648 98.685043 
L 411.772015 99.992991 
L 411.854265 98.685043 
L 411.938084 99.992991 
L 412.021236 98.685043 
L 412.144306 99.992991 
L 412.265456 98.685043 
L 412.404609 99.992991 
L 413.469418 99.992991 
L 413.509006 101.300938 
L 413.548899 99.992991 
L 414.284251 99.992991 
L 414.324065 101.300938 
L 414.365221 99.992991 
L 414.447068 99.992991 
L 414.569418 101.300938 
L 414.60982 99.992991 
L 414.651452 101.300938 
L 414.733408 101.300938 
L 414.860013 99.992991 
L 414.90041 99.992991 
L 415.032595 101.300938 
L 417.345144 101.300938 
L 417.389537 102.608885 
L 417.435542 101.300938 
L 417.604463 101.300938 
L 417.687217 102.608885 
L 417.816776 101.300938 
L 417.861846 102.608885 
L 417.904949 101.300938 
L 417.944587 101.300938 
L 418.066311 102.608885 
L 418.55564 102.608885 
L 418.597963 101.300938 
L 418.639078 102.608885 
L 418.8403 102.608885 
L 418.879925 101.300938 
L 418.919531 102.608885 
L 419.289342 102.608885 
L 419.332255 103.916832 
L 419.374332 102.608885 
L 420.530981 102.608885 
L 420.572472 101.300938 
L 420.613845 102.608885 
L 422.520347 102.608885 
L 422.561198 103.916832 
L 422.7302 102.608885 
L 423.275354 102.608885 
L 423.412652 103.916832 
L 423.53595 102.608885 
L 423.657974 102.608885 
L 423.783094 103.916832 
L 424.326281 103.916832 
L 424.366598 102.608885 
L 424.407569 103.916832 
L 424.987018 103.916832 
L 425.031098 102.608885 
L 425.07077 103.916832 
L 427.024844 103.916832 
L 427.069361 105.224779 
L 427.108908 103.916832 
L 427.312158 103.916832 
L 427.354265 105.224779 
L 427.399012 103.916832 
L 427.723683 103.916832 
L 427.763634 105.224779 
L 427.804101 103.916832 
L 427.84367 103.916832 
L 427.97664 105.224779 
L 428.055847 103.916832 
L 428.0954 105.224779 
L 428.138501 103.916832 
L 428.180006 103.916832 
L 428.301659 105.224779 
L 428.422662 105.224779 
L 428.541989 103.916832 
L 428.625231 103.916832 
L 428.749739 105.224779 
L 428.79171 103.916832 
L 428.831663 105.224779 
L 428.997627 105.224779 
L 429.12131 103.916832 
L 429.161087 103.916832 
L 429.28376 105.224779 
L 429.324565 105.224779 
L 429.364251 103.916832 
L 429.40445 105.224779 
L 429.775192 105.224779 
L 429.817879 103.916832 
L 429.85878 105.224779 
L 431.575455 105.224779 
L 431.575455 105.224779 
" style="fill:none;stroke:#1f77b4;stroke-linecap:square;stroke-width:1.5;"/>
   </g>
   <g id="line2d_32">
    <path clip-path="url(#pfbd4a77fc9)" d="M 63.084545 204.628767 
L 66.806022 204.628767 
L 66.928642 153.618826 
L 71.048618 153.618826 
L 71.169375 168.006245 
L 73.901056 168.006245 
L 74.020813 192.857242 
L 75.452189 192.857242 
L 75.572169 219.016186 
L 76.541596 219.016186 
L 178.588773 35.903578 
L 184.007855 35.903578 
L 184.129694 62.062522 
L 186.457537 62.062522 
L 186.580944 86.913519 
L 188.692681 86.913519 
L 188.813478 153.618826 
L 191.942129 153.618826 
L 192.061885 192.857242 
L 193.274897 192.857242 
L 353.003112 50.290997 
L 354.576031 50.290997 
L 354.657114 101.300938 
L 356.801001 101.300938 
L 356.926493 153.618826 
L 361.457546 153.618826 
L 361.57928 179.77777 
L 366.046953 179.77777 
L 366.169165 192.857242 
L 368.934074 192.857242 
L 369.054812 204.628767 
L 370.739496 204.628767 
L 370.865734 230.787711 
L 372.808901 230.787711 
L 372.928237 245.17513 
L 374.209027 245.17513 
L 374.332335 221.632081 
L 375.240936 221.632081 
L 375.362459 230.787711 
L 377.290058 230.787711 
L 377.371865 219.016186 
L 383.070805 219.016186 
L 383.243481 221.632081 
L 384.499974 221.632081 
L 384.635861 219.016186 
L 386.601925 219.016186 
L 386.725971 204.628767 
L 391.228577 204.628767 
L 391.349865 192.857242 
L 393.785823 192.857242 
L 393.908624 179.77777 
L 395.203049 179.77777 
L 395.32754 174.545981 
L 395.810259 174.545981 
L 395.942147 168.006245 
L 400.507998 168.006245 
L 400.629408 153.618826 
L 407.873707 153.618826 
L 407.997842 174.545981 
L 410.097136 174.545981 
L 410.232939 179.77777 
L 411.730877 179.77777 
L 411.854265 174.545981 
L 412.144306 174.545981 
L 412.265456 179.77777 
L 418.149671 179.77777 
L 418.270527 174.545981 
L 418.96108 174.545981 
L 419.083822 179.77777 
L 421.212401 179.77777 
L 421.333882 192.857242 
L 422.437855 192.857242 
L 422.561198 221.632081 
L 423.618231 221.632081 
L 423.742228 230.787711 
L 424.204267 230.787711 
L 424.326281 245.17513 
L 431.575455 245.17513 
L 431.575455 245.17513 
" style="fill:none;stroke:#ff7f0e;stroke-linecap:square;stroke-width:1.5;"/>
   </g>
   <g id="patch_3">
    <path d="M 44.66 255.638708 
L 44.66 25.44 
" style="fill:none;stroke:#000000;stroke-linecap:square;stroke-linejoin:miter;stroke-width:0.8;"/>
   </g>
   <g id="patch_4">
    <path d="M 450 255.638708 
L 450 25.44 
" style="fill:none;stroke:#000000;stroke-linecap:square;stroke-linejoin:miter;stroke-width:0.8;"/>
   </g>
   <g id="patch_5">
    <path d="M 44.66 255.638708 
L 450 255.638708 
" style="fill:none;stroke:#000000;stroke-linecap:square;stroke-linejoin:miter;stroke-width:0.8;"/>
   </g>
   <g id="patch_6">
    <path d="M 44.66 25.44 
L 450 25.44 
" style="fill:none;stroke:#000000;stroke-linecap:square;stroke-linejoin:miter;stroke-width:0.8;"/>
   </g>
   <g id="text_18">
    <!-- Lake Shoecraft - Water and Air Temperature -->
    <g transform="translate(115.711562 19.44)scale(0.12 -0.12)">
     <defs>
      <path d="M 9.8125 72.90625 
L 19.671875 72.90625 
L 19.671875 8.296875 
L 55.171875 8.296875 
L 55.171875 0 
L 9.8125 0 
z
" id="DejaVuSans-76"/>
      <path d="M 9.078125 75.984375 
L 18.109375 75.984375 
L 18.109375 31.109375 
L 44.921875 54.6875 
L 56.390625 54.6875 
L 27.390625 29.109375 
L 57.625 0 
L 45.90625 0 
L 18.109375 26.703125 
L 18.109375 0 
L 9.078125 0 
z
" id="DejaVuSans-107"/>
      <path d="M 53.515625 70.515625 
L 53.515625 60.890625 
Q 47.90625 63.578125 42.921875 64.890625 
Q 37.9375 66.21875 33.296875 66.21875 
Q 25.25 66.21875 20.875 63.09375 
Q 16.5 59.96875 16.5 54.203125 
Q 16.5 49.359375 19.40625 46.890625 
Q 22.3125 44.4375 30.421875 42.921875 
L 36.375 41.703125 
Q 47.40625 39.59375 52.65625 34.296875 
Q 57.90625 29 57.90625 20.125 
Q 57.90625 9.515625 50.796875 4.046875 
Q 43.703125 -1.421875 29.984375 -1.421875 
Q 24.8125 -1.421875 18.96875 -0.25 
Q 13.140625 0.921875 6.890625 3.21875 
L 6.890625 13.375 
Q 12.890625 10.015625 18.65625 8.296875 
Q 24.421875 6.59375 29.984375 6.59375 
Q 38.421875 6.59375 43.015625 9.90625 
Q 47.609375 13.234375 47.609375 19.390625 
Q 47.609375 24.75 44.3125 27.78125 
Q 41.015625 30.8125 33.5 32.328125 
L 27.484375 33.5 
Q 16.453125 35.6875 11.515625 40.375 
Q 6.59375 45.0625 6.59375 53.421875 
Q 6.59375 63.09375 13.40625 68.65625 
Q 20.21875 74.21875 32.171875 74.21875 
Q 37.3125 74.21875 42.625 73.28125 
Q 47.953125 72.359375 53.515625 70.515625 
z
" id="DejaVuSans-83"/>
      <path d="M 54.890625 33.015625 
L 54.890625 0 
L 45.90625 0 
L 45.90625 32.71875 
Q 45.90625 40.484375 42.875 44.328125 
Q 39.84375 48.1875 33.796875 48.1875 
Q 26.515625 48.1875 22.3125 43.546875 
Q 18.109375 38.921875 18.109375 30.90625 
L 18.109375 0 
L 9.078125 0 
L 9.078125 75.984375 
L 18.109375 75.984375 
L 18.109375 46.1875 
Q 21.34375 51.125 25.703125 53.5625 
Q 30.078125 56 35.796875 56 
Q 45.21875 56 50.046875 50.171875 
Q 54.890625 44.34375 54.890625 33.015625 
z
" id="DejaVuSans-104"/>
      <path d="M 30.609375 48.390625 
Q 23.390625 48.390625 19.1875 42.75 
Q 14.984375 37.109375 14.984375 27.296875 
Q 14.984375 17.484375 19.15625 11.84375 
Q 23.34375 6.203125 30.609375 6.203125 
Q 37.796875 6.203125 41.984375 11.859375 
Q 46.1875 17.53125 46.1875 27.296875 
Q 46.1875 37.015625 41.984375 42.703125 
Q 37.796875 48.390625 30.609375 48.390625 
z
M 30.609375 56 
Q 42.328125 56 49.015625 48.375 
Q 55.71875 40.765625 55.71875 27.296875 
Q 55.71875 13.875 49.015625 6.21875 
Q 42.328125 -1.421875 30.609375 -1.421875 
Q 18.84375 -1.421875 12.171875 6.21875 
Q 5.515625 13.875 5.515625 27.296875 
Q 5.515625 40.765625 12.171875 48.375 
Q 18.84375 56 30.609375 56 
z
" id="DejaVuSans-111"/>
      <path d="M 48.78125 52.59375 
L 48.78125 44.1875 
Q 44.96875 46.296875 41.140625 47.34375 
Q 37.3125 48.390625 33.40625 48.390625 
Q 24.65625 48.390625 19.8125 42.84375 
Q 14.984375 37.3125 14.984375 27.296875 
Q 14.984375 17.28125 19.8125 11.734375 
Q 24.65625 6.203125 33.40625 6.203125 
Q 37.3125 6.203125 41.140625 7.25 
Q 44.96875 8.296875 48.78125 10.40625 
L 48.78125 2.09375 
Q 45.015625 0.34375 40.984375 -0.53125 
Q 36.96875 -1.421875 32.421875 -1.421875 
Q 20.0625 -1.421875 12.78125 6.34375 
Q 5.515625 14.109375 5.515625 27.296875 
Q 5.515625 40.671875 12.859375 48.328125 
Q 20.21875 56 33.015625 56 
Q 37.15625 56 41.109375 55.140625 
Q 45.0625 54.296875 48.78125 52.59375 
z
" id="DejaVuSans-99"/>
      <path d="M 37.109375 75.984375 
L 37.109375 68.5 
L 28.515625 68.5 
Q 23.6875 68.5 21.796875 66.546875 
Q 19.921875 64.59375 19.921875 59.515625 
L 19.921875 54.6875 
L 34.71875 54.6875 
L 34.71875 47.703125 
L 19.921875 47.703125 
L 19.921875 0 
L 10.890625 0 
L 10.890625 47.703125 
L 2.296875 47.703125 
L 2.296875 54.6875 
L 10.890625 54.6875 
L 10.890625 58.5 
Q 10.890625 67.625 15.140625 71.796875 
Q 19.390625 75.984375 28.609375 75.984375 
z
" id="DejaVuSans-102"/>
      <path d="M 3.328125 72.90625 
L 13.28125 72.90625 
L 28.609375 11.28125 
L 43.890625 72.90625 
L 54.984375 72.90625 
L 70.3125 11.28125 
L 85.59375 72.90625 
L 95.609375 72.90625 
L 77.296875 0 
L 64.890625 0 
L 49.515625 63.28125 
L 33.984375 0 
L 21.578125 0 
z
" id="DejaVuSans-87"/>
      <path d="M 54.890625 33.015625 
L 54.890625 0 
L 45.90625 0 
L 45.90625 32.71875 
Q 45.90625 40.484375 42.875 44.328125 
Q 39.84375 48.1875 33.796875 48.1875 
Q 26.515625 48.1875 22.3125 43.546875 
Q 18.109375 38.921875 18.109375 30.90625 
L 18.109375 0 
L 9.078125 0 
L 9.078125 54.6875 
L 18.109375 54.6875 
L 18.109375 46.1875 
Q 21.34375 51.125 25.703125 53.5625 
Q 30.078125 56 35.796875 56 
Q 45.21875 56 50.046875 50.171875 
Q 54.890625 44.34375 54.890625 33.015625 
z
" id="DejaVuSans-110"/>
      <path d="M 45.40625 46.390625 
L 45.40625 75.984375 
L 54.390625 75.984375 
L 54.390625 0 
L 45.40625 0 
L 45.40625 8.203125 
Q 42.578125 3.328125 38.25 0.953125 
Q 33.9375 -1.421875 27.875 -1.421875 
Q 17.96875 -1.421875 11.734375 6.484375 
Q 5.515625 14.40625 5.515625 27.296875 
Q 5.515625 40.1875 11.734375 48.09375 
Q 17.96875 56 27.875 56 
Q 33.9375 56 38.25 53.625 
Q 42.578125 51.265625 45.40625 46.390625 
z
M 14.796875 27.296875 
Q 14.796875 17.390625 18.875 11.75 
Q 22.953125 6.109375 30.078125 6.109375 
Q 37.203125 6.109375 41.296875 11.75 
Q 45.40625 17.390625 45.40625 27.296875 
Q 45.40625 37.203125 41.296875 42.84375 
Q 37.203125 48.484375 30.078125 48.484375 
Q 22.953125 48.484375 18.875 42.84375 
Q 14.796875 37.203125 14.796875 27.296875 
z
" id="DejaVuSans-100"/>
      <path d="M 34.1875 63.1875 
L 20.796875 26.90625 
L 47.609375 26.90625 
z
M 28.609375 72.90625 
L 39.796875 72.90625 
L 67.578125 0 
L 57.328125 0 
L 50.6875 18.703125 
L 17.828125 18.703125 
L 11.1875 0 
L 0.78125 0 
z
" id="DejaVuSans-65"/>
      <path d="M 9.421875 54.6875 
L 18.40625 54.6875 
L 18.40625 0 
L 9.421875 0 
z
M 9.421875 75.984375 
L 18.40625 75.984375 
L 18.40625 64.59375 
L 9.421875 64.59375 
z
" id="DejaVuSans-105"/>
     </defs>
     <use xlink:href="#DejaVuSans-76"/>
     <use x="55.712891" xlink:href="#DejaVuSans-97"/>
     <use x="116.992188" xlink:href="#DejaVuSans-107"/>
     <use x="171.277344" xlink:href="#DejaVuSans-101"/>
     <use x="232.800781" xlink:href="#DejaVuSans-32"/>
     <use x="264.587891" xlink:href="#DejaVuSans-83"/>
     <use x="328.064453" xlink:href="#DejaVuSans-104"/>
     <use x="391.443359" xlink:href="#DejaVuSans-111"/>
     <use x="452.625" xlink:href="#DejaVuSans-101"/>
     <use x="514.148438" xlink:href="#DejaVuSans-99"/>
     <use x="569.128906" xlink:href="#DejaVuSans-114"/>
     <use x="610.242188" xlink:href="#DejaVuSans-97"/>
     <use x="671.521484" xlink:href="#DejaVuSans-102"/>
     <use x="704.976562" xlink:href="#DejaVuSans-116"/>
     <use x="744.185547" xlink:href="#DejaVuSans-32"/>
     <use x="775.972656" xlink:href="#DejaVuSans-45"/>
     <use x="812.056641" xlink:href="#DejaVuSans-32"/>
     <use x="843.84375" xlink:href="#DejaVuSans-87"/>
     <use x="936.345703" xlink:href="#DejaVuSans-97"/>
     <use x="997.625" xlink:href="#DejaVuSans-116"/>
     <use x="1036.833984" xlink:href="#DejaVuSans-101"/>
     <use x="1098.357422" xlink:href="#DejaVuSans-114"/>
     <use x="1139.470703" xlink:href="#DejaVuSans-32"/>
     <use x="1171.257812" xlink:href="#DejaVuSans-97"/>
     <use x="1232.537109" xlink:href="#DejaVuSans-110"/>
     <use x="1295.916016" xlink:href="#DejaVuSans-100"/>
     <use x="1359.392578" xlink:href="#DejaVuSans-32"/>
     <use x="1391.179688" xlink:href="#DejaVuSans-65"/>
     <use x="1459.587891" xlink:href="#DejaVuSans-105"/>
     <use x="1487.371094" xlink:href="#DejaVuSans-114"/>
     <use x="1528.484375" xlink:href="#DejaVuSans-32"/>
     <use x="1560.271484" xlink:href="#DejaVuSans-84"/>
     <use x="1604.355469" xlink:href="#DejaVuSans-101"/>
     <use x="1665.878906" xlink:href="#DejaVuSans-109"/>
     <use x="1763.291016" xlink:href="#DejaVuSans-112"/>
     <use x="1826.767578" xlink:href="#DejaVuSans-101"/>
     <use x="1888.291016" xlink:href="#DejaVuSans-114"/>
     <use x="1929.404297" xlink:href="#DejaVuSans-97"/>
     <use x="1990.683594" xlink:href="#DejaVuSans-116"/>
     <use x="2029.892578" xlink:href="#DejaVuSans-117"/>
     <use x="2093.271484" xlink:href="#DejaVuSans-114"/>
     <use x="2132.134766" xlink:href="#DejaVuSans-101"/>
    </g>
   </g>
   <g id="legend_1">
    <g id="patch_7">
     <path d="M 357.890625 62.79625 
L 443 62.79625 
Q 445 62.79625 445 60.79625 
L 445 32.44 
Q 445 30.44 443 30.44 
L 357.890625 30.44 
Q 355.890625 30.44 355.890625 32.44 
L 355.890625 60.79625 
Q 355.890625 62.79625 357.890625 62.79625 
z
" style="fill:#ffffff;opacity:0.8;stroke:#cccccc;stroke-linejoin:miter;"/>
    </g>
    <g id="line2d_33">
     <path d="M 359.890625 38.538437 
L 379.890625 38.538437 
" style="fill:none;stroke:#1f77b4;stroke-linecap:square;stroke-width:1.5;"/>
    </g>
    <g id="line2d_34"/>
    <g id="text_19">
     <!-- Lake Temp -->
     <g transform="translate(387.890625 42.038437)scale(0.1 -0.1)">
      <use xlink:href="#DejaVuSans-76"/>
      <use x="55.712891" xlink:href="#DejaVuSans-97"/>
      <use x="116.992188" xlink:href="#DejaVuSans-107"/>
      <use x="171.277344" xlink:href="#DejaVuSans-101"/>
      <use x="232.800781" xlink:href="#DejaVuSans-32"/>
      <use x="264.587891" xlink:href="#DejaVuSans-84"/>
      <use x="308.671875" xlink:href="#DejaVuSans-101"/>
      <use x="370.195312" xlink:href="#DejaVuSans-109"/>
      <use x="467.607422" xlink:href="#DejaVuSans-112"/>
     </g>
    </g>
    <g id="line2d_35">
     <path d="M 359.890625 53.216562 
L 379.890625 53.216562 
" style="fill:none;stroke:#ff7f0e;stroke-linecap:square;stroke-width:1.5;"/>
    </g>
    <g id="line2d_36"/>
    <g id="text_20">
     <!-- Air Temp -->
     <g transform="translate(387.890625 56.716562)scale(0.1 -0.1)">
      <use xlink:href="#DejaVuSans-65"/>
      <use x="68.408203" xlink:href="#DejaVuSans-105"/>
      <use x="96.191406" xlink:href="#DejaVuSans-114"/>
      <use x="137.304688" xlink:href="#DejaVuSans-32"/>
      <use x="169.091797" xlink:href="#DejaVuSans-84"/>
      <use x="213.175781" xlink:href="#DejaVuSans-101"/>
      <use x="274.699219" xlink:href="#DejaVuSans-109"/>
      <use x="372.111328" xlink:href="#DejaVuSans-112"/>
     </g>
    </g>
   </g>
  </g>
 </g>
 <defs>
  <clipPath id="pfbd4a77fc9">
   <rect height="230.198708" width="405.34" x="44.66" y="25.44"/>
  </clipPath>
 </defs>
</svg>
