<?xml version="1.0" encoding="utf-8" standalone="no"?>
<!DOCTYPE svg PUBLIC "-//W3C//DTD SVG 1.1//EN"
  "http://www.w3.org/Graphics/SVG/1.1/DTD/svg11.dtd">
<!-- Created with matplotlib (https://matplotlib.org/) -->
<svg height="345.6pt" version="1.1" viewBox="0 0 460.8 345.6" width="460.8pt" xmlns="http://www.w3.org/2000/svg" xmlns:xlink="http://www.w3.org/1999/xlink">
 <metadata>
  <rdf:RDF xmlns:cc="http://creativecommons.org/ns#" xmlns:dc="http://purl.org/dc/elements/1.1/" xmlns:rdf="http://www.w3.org/1999/02/22-rdf-syntax-ns#">
   <cc:Work>
    <dc:type rdf:resource="http://purl.org/dc/dcmitype/StillImage"/>
    <dc:date>2024-09-07T15:58:38.865381</dc:date>
    <dc:format>image/svg+xml</dc:format>
    <dc:creator>
     <cc:Agent>
      <dc:title>Matplotlib v3.3.2, https://matplotlib.org/</dc:title>
     </cc:Agent>
    </dc:creator>
   </cc:Work>
  </rdf:RDF>
 </metadata>
 <defs>
  <style type="text/css">*{stroke-linecap:butt;stroke-linejoin:round;}</style>
 </defs>
 <g id="figure_1">
  <g id="patch_1">
   <path d="M 0 345.6 
L 460.8 345.6 
L 460.8 0 
L 0 0 
z
" style="fill:none;"/>
  </g>
  <g id="axes_1">
   <g id="patch_2">
    <path d="M 44.66 255.638708 
L 450 255.638708 
L 450 25.44 
L 44.66 25.44 
z
" style="fill:none;"/>
   </g>
   <g id="matplotlib.axis_1">
    <g id="xtick_1">
     <g id="line2d_1">
      <path clip-path="url(#p013e9592ac)" d="M 110.376599 255.638708 
L 110.376599 25.44 
" style="fill:none;stroke:#b0b0b0;stroke-linecap:square;stroke-width:0.8;"/>
     </g>
     <g id="line2d_2">
      <defs>
       <path d="M 0 0 
L 0 3.5 
" id="mc6fa44e106" style="stroke:#000000;stroke-width:0.8;"/>
      </defs>
      <g>
       <use style="stroke:#000000;stroke-width:0.8;" x="110.376599" xlink:href="#mc6fa44e106" y="255.638708"/>
      </g>
     </g>
     <g id="text_1">
      <!-- 2024-08-29 -->
      <g transform="translate(103.031206 319.848351)rotate(-70)scale(0.1 -0.1)">
       <defs>
        <path d="M 19.1875 8.296875 
L 53.609375 8.296875 
L 53.609375 0 
L 7.328125 0 
L 7.328125 8.296875 
Q 12.9375 14.109375 22.625 23.890625 
Q 32.328125 33.6875 34.8125 36.53125 
Q 39.546875 41.84375 41.421875 45.53125 
Q 43.3125 49.21875 43.3125 52.78125 
Q 43.3125 58.59375 39.234375 62.25 
Q 35.15625 65.921875 28.609375 65.921875 
Q 23.96875 65.921875 18.8125 64.3125 
Q 13.671875 62.703125 7.8125 59.421875 
L 7.8125 69.390625 
Q 13.765625 71.78125 18.9375 73 
Q 24.125 74.21875 28.421875 74.21875 
Q 39.75 74.21875 46.484375 68.546875 
Q 53.21875 62.890625 53.21875 53.421875 
Q 53.21875 48.921875 51.53125 44.890625 
Q 49.859375 40.875 45.40625 35.40625 
Q 44.1875 33.984375 37.640625 27.21875 
Q 31.109375 20.453125 19.1875 8.296875 
z
" id="DejaVuSans-50"/>
        <path d="M 31.78125 66.40625 
Q 24.171875 66.40625 20.328125 58.90625 
Q 16.5 51.421875 16.5 36.375 
Q 16.5 21.390625 20.328125 13.890625 
Q 24.171875 6.390625 31.78125 6.390625 
Q 39.453125 6.390625 43.28125 13.890625 
Q 47.125 21.390625 47.125 36.375 
Q 47.125 51.421875 43.28125 58.90625 
Q 39.453125 66.40625 31.78125 66.40625 
z
M 31.78125 74.21875 
Q 44.046875 74.21875 50.515625 64.515625 
Q 56.984375 54.828125 56.984375 36.375 
Q 56.984375 17.96875 50.515625 8.265625 
Q 44.046875 -1.421875 31.78125 -1.421875 
Q 19.53125 -1.421875 13.0625 8.265625 
Q 6.59375 17.96875 6.59375 36.375 
Q 6.59375 54.828125 13.0625 64.515625 
Q 19.53125 74.21875 31.78125 74.21875 
z
" id="DejaVuSans-48"/>
        <path d="M 37.796875 64.3125 
L 12.890625 25.390625 
L 37.796875 25.390625 
z
M 35.203125 72.90625 
L 47.609375 72.90625 
L 47.609375 25.390625 
L 58.015625 25.390625 
L 58.015625 17.1875 
L 47.609375 17.1875 
L 47.609375 0 
L 37.796875 0 
L 37.796875 17.1875 
L 4.890625 17.1875 
L 4.890625 26.703125 
z
" id="DejaVuSans-52"/>
        <path d="M 4.890625 31.390625 
L 31.203125 31.390625 
L 31.203125 23.390625 
L 4.890625 23.390625 
z
" id="DejaVuSans-45"/>
        <path d="M 31.78125 34.625 
Q 24.75 34.625 20.71875 30.859375 
Q 16.703125 27.09375 16.703125 20.515625 
Q 16.703125 13.921875 20.71875 10.15625 
Q 24.75 6.390625 31.78125 6.390625 
Q 38.8125 6.390625 42.859375 10.171875 
Q 46.921875 13.96875 46.921875 20.515625 
Q 46.921875 27.09375 42.890625 30.859375 
Q 38.875 34.625 31.78125 34.625 
z
M 21.921875 38.8125 
Q 15.578125 40.375 12.03125 44.71875 
Q 8.5 49.078125 8.5 55.328125 
Q 8.5 64.0625 14.71875 69.140625 
Q 20.953125 74.21875 31.78125 74.21875 
Q 42.671875 74.21875 48.875 69.140625 
Q 55.078125 64.0625 55.078125 55.328125 
Q 55.078125 49.078125 51.53125 44.71875 
Q 48 40.375 41.703125 38.8125 
Q 48.828125 37.15625 52.796875 32.3125 
Q 56.78125 27.484375 56.78125 20.515625 
Q 56.78125 9.90625 50.3125 4.234375 
Q 43.84375 -1.421875 31.78125 -1.421875 
Q 19.734375 -1.421875 13.25 4.234375 
Q 6.78125 9.90625 6.78125 20.515625 
Q 6.78125 27.484375 10.78125 32.3125 
Q 14.796875 37.15625 21.921875 38.8125 
z
M 18.3125 54.390625 
Q 18.3125 48.734375 21.84375 45.5625 
Q 25.390625 42.390625 31.78125 42.390625 
Q 38.140625 42.390625 41.71875 45.5625 
Q 45.3125 48.734375 45.3125 54.390625 
Q 45.3125 60.0625 41.71875 63.234375 
Q 38.140625 66.40625 31.78125 66.40625 
Q 25.390625 66.40625 21.84375 63.234375 
Q 18.3125 60.0625 18.3125 54.390625 
z
" id="DejaVuSans-56"/>
        <path d="M 10.984375 1.515625 
L 10.984375 10.5 
Q 14.703125 8.734375 18.5 7.8125 
Q 22.3125 6.890625 25.984375 6.890625 
Q 35.75 6.890625 40.890625 13.453125 
Q 46.046875 20.015625 46.78125 33.40625 
Q 43.953125 29.203125 39.59375 26.953125 
Q 35.25 24.703125 29.984375 24.703125 
Q 19.046875 24.703125 12.671875 31.3125 
Q 6.296875 37.9375 6.296875 49.421875 
Q 6.296875 60.640625 12.9375 67.421875 
Q 19.578125 74.21875 30.609375 74.21875 
Q 43.265625 74.21875 49.921875 64.515625 
Q 56.59375 54.828125 56.59375 36.375 
Q 56.59375 19.140625 48.40625 8.859375 
Q 40.234375 -1.421875 26.421875 -1.421875 
Q 22.703125 -1.421875 18.890625 -0.6875 
Q 15.09375 0.046875 10.984375 1.515625 
z
M 30.609375 32.421875 
Q 37.25 32.421875 41.125 36.953125 
Q 45.015625 41.5 45.015625 49.421875 
Q 45.015625 57.28125 41.125 61.84375 
Q 37.25 66.40625 30.609375 66.40625 
Q 23.96875 66.40625 20.09375 61.84375 
Q 16.21875 57.28125 16.21875 49.421875 
Q 16.21875 41.5 20.09375 36.953125 
Q 23.96875 32.421875 30.609375 32.421875 
z
" id="DejaVuSans-57"/>
       </defs>
       <use xlink:href="#DejaVuSans-50"/>
       <use x="63.623047" xlink:href="#DejaVuSans-48"/>
       <use x="127.246094" xlink:href="#DejaVuSans-50"/>
       <use x="190.869141" xlink:href="#DejaVuSans-52"/>
       <use x="254.492188" xlink:href="#DejaVuSans-45"/>
       <use x="290.576172" xlink:href="#DejaVuSans-48"/>
       <use x="354.199219" xlink:href="#DejaVuSans-56"/>
       <use x="417.822266" xlink:href="#DejaVuSans-45"/>
       <use x="453.90625" xlink:href="#DejaVuSans-50"/>
       <use x="517.529297" xlink:href="#DejaVuSans-57"/>
      </g>
     </g>
    </g>
    <g id="xtick_2">
     <g id="line2d_3">
      <path clip-path="url(#p013e9592ac)" d="M 176.841387 255.638708 
L 176.841387 25.44 
" style="fill:none;stroke:#b0b0b0;stroke-linecap:square;stroke-width:0.8;"/>
     </g>
     <g id="line2d_4">
      <g>
       <use style="stroke:#000000;stroke-width:0.8;" x="176.841387" xlink:href="#mc6fa44e106" y="255.638708"/>
      </g>
     </g>
     <g id="text_2">
      <!-- 2024-08-31 -->
      <g transform="translate(169.495994 319.848351)rotate(-70)scale(0.1 -0.1)">
       <defs>
        <path d="M 40.578125 39.3125 
Q 47.65625 37.796875 51.625 33 
Q 55.609375 28.21875 55.609375 21.1875 
Q 55.609375 10.40625 48.1875 4.484375 
Q 40.765625 -1.421875 27.09375 -1.421875 
Q 22.515625 -1.421875 17.65625 -0.515625 
Q 12.796875 0.390625 7.625 2.203125 
L 7.625 11.71875 
Q 11.71875 9.328125 16.59375 8.109375 
Q 21.484375 6.890625 26.8125 6.890625 
Q 36.078125 6.890625 40.9375 10.546875 
Q 45.796875 14.203125 45.796875 21.1875 
Q 45.796875 27.640625 41.28125 31.265625 
Q 36.765625 34.90625 28.71875 34.90625 
L 20.21875 34.90625 
L 20.21875 43.015625 
L 29.109375 43.015625 
Q 36.375 43.015625 40.234375 45.921875 
Q 44.09375 48.828125 44.09375 54.296875 
Q 44.09375 59.90625 40.109375 62.90625 
Q 36.140625 65.921875 28.71875 65.921875 
Q 24.65625 65.921875 20.015625 65.03125 
Q 15.375 64.15625 9.8125 62.3125 
L 9.8125 71.09375 
Q 15.4375 72.65625 20.34375 73.4375 
Q 25.25 74.21875 29.59375 74.21875 
Q 40.828125 74.21875 47.359375 69.109375 
Q 53.90625 64.015625 53.90625 55.328125 
Q 53.90625 49.265625 50.4375 45.09375 
Q 46.96875 40.921875 40.578125 39.3125 
z
" id="DejaVuSans-51"/>
        <path d="M 12.40625 8.296875 
L 28.515625 8.296875 
L 28.515625 63.921875 
L 10.984375 60.40625 
L 10.984375 69.390625 
L 28.421875 72.90625 
L 38.28125 72.90625 
L 38.28125 8.296875 
L 54.390625 8.296875 
L 54.390625 0 
L 12.40625 0 
z
" id="DejaVuSans-49"/>
       </defs>
       <use xlink:href="#DejaVuSans-50"/>
       <use x="63.623047" xlink:href="#DejaVuSans-48"/>
       <use x="127.246094" xlink:href="#DejaVuSans-50"/>
       <use x="190.869141" xlink:href="#DejaVuSans-52"/>
       <use x="254.492188" xlink:href="#DejaVuSans-45"/>
       <use x="290.576172" xlink:href="#DejaVuSans-48"/>
       <use x="354.199219" xlink:href="#DejaVuSans-56"/>
       <use x="417.822266" xlink:href="#DejaVuSans-45"/>
       <use x="453.90625" xlink:href="#DejaVuSans-51"/>
       <use x="517.529297" xlink:href="#DejaVuSans-49"/>
      </g>
     </g>
    </g>
    <g id="xtick_3">
     <g id="line2d_5">
      <path clip-path="url(#p013e9592ac)" d="M 210.073781 255.638708 
L 210.073781 25.44 
" style="fill:none;stroke:#b0b0b0;stroke-linecap:square;stroke-width:0.8;"/>
     </g>
     <g id="line2d_6">
      <g>
       <use style="stroke:#000000;stroke-width:0.8;" x="210.073781" xlink:href="#mc6fa44e106" y="255.638708"/>
      </g>
     </g>
     <g id="text_3">
      <!-- 2024-09-01 -->
      <g transform="translate(202.728388 319.848351)rotate(-70)scale(0.1 -0.1)">
       <use xlink:href="#DejaVuSans-50"/>
       <use x="63.623047" xlink:href="#DejaVuSans-48"/>
       <use x="127.246094" xlink:href="#DejaVuSans-50"/>
       <use x="190.869141" xlink:href="#DejaVuSans-52"/>
       <use x="254.492188" xlink:href="#DejaVuSans-45"/>
       <use x="290.576172" xlink:href="#DejaVuSans-48"/>
       <use x="354.199219" xlink:href="#DejaVuSans-57"/>
       <use x="417.822266" xlink:href="#DejaVuSans-45"/>
       <use x="453.90625" xlink:href="#DejaVuSans-48"/>
       <use x="517.529297" xlink:href="#DejaVuSans-49"/>
      </g>
     </g>
    </g>
    <g id="xtick_4">
     <g id="line2d_7">
      <path clip-path="url(#p013e9592ac)" d="M 276.538569 255.638708 
L 276.538569 25.44 
" style="fill:none;stroke:#b0b0b0;stroke-linecap:square;stroke-width:0.8;"/>
     </g>
     <g id="line2d_8">
      <g>
       <use style="stroke:#000000;stroke-width:0.8;" x="276.538569" xlink:href="#mc6fa44e106" y="255.638708"/>
      </g>
     </g>
     <g id="text_4">
      <!-- 2024-09-03 -->
      <g transform="translate(269.193176 319.848351)rotate(-70)scale(0.1 -0.1)">
       <use xlink:href="#DejaVuSans-50"/>
       <use x="63.623047" xlink:href="#DejaVuSans-48"/>
       <use x="127.246094" xlink:href="#DejaVuSans-50"/>
       <use x="190.869141" xlink:href="#DejaVuSans-52"/>
       <use x="254.492188" xlink:href="#DejaVuSans-45"/>
       <use x="290.576172" xlink:href="#DejaVuSans-48"/>
       <use x="354.199219" xlink:href="#DejaVuSans-57"/>
       <use x="417.822266" xlink:href="#DejaVuSans-45"/>
       <use x="453.90625" xlink:href="#DejaVuSans-48"/>
       <use x="517.529297" xlink:href="#DejaVuSans-51"/>
      </g>
     </g>
    </g>
    <g id="xtick_5">
     <g id="line2d_9">
      <path clip-path="url(#p013e9592ac)" d="M 343.003357 255.638708 
L 343.003357 25.44 
" style="fill:none;stroke:#b0b0b0;stroke-linecap:square;stroke-width:0.8;"/>
     </g>
     <g id="line2d_10">
      <g>
       <use style="stroke:#000000;stroke-width:0.8;" x="343.003357" xlink:href="#mc6fa44e106" y="255.638708"/>
      </g>
     </g>
     <g id="text_5">
      <!-- 2024-09-05 -->
      <g transform="translate(335.657964 319.848351)rotate(-70)scale(0.1 -0.1)">
       <defs>
        <path d="M 10.796875 72.90625 
L 49.515625 72.90625 
L 49.515625 64.59375 
L 19.828125 64.59375 
L 19.828125 46.734375 
Q 21.96875 47.46875 24.109375 47.828125 
Q 26.265625 48.1875 28.421875 48.1875 
Q 40.625 48.1875 47.75 41.5 
Q 54.890625 34.8125 54.890625 23.390625 
Q 54.890625 11.625 47.5625 5.09375 
Q 40.234375 -1.421875 26.90625 -1.421875 
Q 22.3125 -1.421875 17.546875 -0.640625 
Q 12.796875 0.140625 7.71875 1.703125 
L 7.71875 11.625 
Q 12.109375 9.234375 16.796875 8.0625 
Q 21.484375 6.890625 26.703125 6.890625 
Q 35.15625 6.890625 40.078125 11.328125 
Q 45.015625 15.765625 45.015625 23.390625 
Q 45.015625 31 40.078125 35.4375 
Q 35.15625 39.890625 26.703125 39.890625 
Q 22.75 39.890625 18.8125 39.015625 
Q 14.890625 38.140625 10.796875 36.28125 
z
" id="DejaVuSans-53"/>
       </defs>
       <use xlink:href="#DejaVuSans-50"/>
       <use x="63.623047" xlink:href="#DejaVuSans-48"/>
       <use x="127.246094" xlink:href="#DejaVuSans-50"/>
       <use x="190.869141" xlink:href="#DejaVuSans-52"/>
       <use x="254.492188" xlink:href="#DejaVuSans-45"/>
       <use x="290.576172" xlink:href="#DejaVuSans-48"/>
       <use x="354.199219" xlink:href="#DejaVuSans-57"/>
       <use x="417.822266" xlink:href="#DejaVuSans-45"/>
       <use x="453.90625" xlink:href="#DejaVuSans-48"/>
       <use x="517.529297" xlink:href="#DejaVuSans-53"/>
      </g>
     </g>
    </g>
    <g id="xtick_6">
     <g id="line2d_11">
      <path clip-path="url(#p013e9592ac)" d="M 409.468145 255.638708 
L 409.468145 25.44 
" style="fill:none;stroke:#b0b0b0;stroke-linecap:square;stroke-width:0.8;"/>
     </g>
     <g id="line2d_12">
      <g>
       <use style="stroke:#000000;stroke-width:0.8;" x="409.468145" xlink:href="#mc6fa44e106" y="255.638708"/>
      </g>
     </g>
     <g id="text_6">
      <!-- 2024-09-07 -->
      <g transform="translate(402.122752 319.848351)rotate(-70)scale(0.1 -0.1)">
       <defs>
        <path d="M 8.203125 72.90625 
L 55.078125 72.90625 
L 55.078125 68.703125 
L 28.609375 0 
L 18.3125 0 
L 43.21875 64.59375 
L 8.203125 64.59375 
z
" id="DejaVuSans-55"/>
       </defs>
       <use xlink:href="#DejaVuSans-50"/>
       <use x="63.623047" xlink:href="#DejaVuSans-48"/>
       <use x="127.246094" xlink:href="#DejaVuSans-50"/>
       <use x="190.869141" xlink:href="#DejaVuSans-52"/>
       <use x="254.492188" xlink:href="#DejaVuSans-45"/>
       <use x="290.576172" xlink:href="#DejaVuSans-48"/>
       <use x="354.199219" xlink:href="#DejaVuSans-57"/>
       <use x="417.822266" xlink:href="#DejaVuSans-45"/>
       <use x="453.90625" xlink:href="#DejaVuSans-48"/>
       <use x="517.529297" xlink:href="#DejaVuSans-55"/>
      </g>
     </g>
    </g>
    <g id="text_7">
     <!-- Date -->
     <g transform="translate(235.379219 332.158083)scale(0.1 -0.1)">
      <defs>
       <path d="M 19.671875 64.796875 
L 19.671875 8.109375 
L 31.59375 8.109375 
Q 46.6875 8.109375 53.6875 14.9375 
Q 60.6875 21.78125 60.6875 36.53125 
Q 60.6875 51.171875 53.6875 57.984375 
Q 46.6875 64.796875 31.59375 64.796875 
z
M 9.8125 72.90625 
L 30.078125 72.90625 
Q 51.265625 72.90625 61.171875 64.09375 
Q 71.09375 55.28125 71.09375 36.53125 
Q 71.09375 17.671875 61.125 8.828125 
Q 51.171875 0 30.078125 0 
L 9.8125 0 
z
" id="DejaVuSans-68"/>
       <path d="M 34.28125 27.484375 
Q 23.390625 27.484375 19.1875 25 
Q 14.984375 22.515625 14.984375 16.5 
Q 14.984375 11.71875 18.140625 8.90625 
Q 21.296875 6.109375 26.703125 6.109375 
Q 34.1875 6.109375 38.703125 11.40625 
Q 43.21875 16.703125 43.21875 25.484375 
L 43.21875 27.484375 
z
M 52.203125 31.203125 
L 52.203125 0 
L 43.21875 0 
L 43.21875 8.296875 
Q 40.140625 3.328125 35.546875 0.953125 
Q 30.953125 -1.421875 24.3125 -1.421875 
Q 15.921875 -1.421875 10.953125 3.296875 
Q 6 8.015625 6 15.921875 
Q 6 25.140625 12.171875 29.828125 
Q 18.359375 34.515625 30.609375 34.515625 
L 43.21875 34.515625 
L 43.21875 35.40625 
Q 43.21875 41.609375 39.140625 45 
Q 35.0625 48.390625 27.6875 48.390625 
Q 23 48.390625 18.546875 47.265625 
Q 14.109375 46.140625 10.015625 43.890625 
L 10.015625 52.203125 
Q 14.9375 54.109375 19.578125 55.046875 
Q 24.21875 56 28.609375 56 
Q 40.484375 56 46.34375 49.84375 
Q 52.203125 43.703125 52.203125 31.203125 
z
" id="DejaVuSans-97"/>
       <path d="M 18.3125 70.21875 
L 18.3125 54.6875 
L 36.8125 54.6875 
L 36.8125 47.703125 
L 18.3125 47.703125 
L 18.3125 18.015625 
Q 18.3125 11.328125 20.140625 9.421875 
Q 21.96875 7.515625 27.59375 7.515625 
L 36.8125 7.515625 
L 36.8125 0 
L 27.59375 0 
Q 17.1875 0 13.234375 3.875 
Q 9.28125 7.765625 9.28125 18.015625 
L 9.28125 47.703125 
L 2.6875 47.703125 
L 2.6875 54.6875 
L 9.28125 54.6875 
L 9.28125 70.21875 
z
" id="DejaVuSans-116"/>
       <path d="M 56.203125 29.59375 
L 56.203125 25.203125 
L 14.890625 25.203125 
Q 15.484375 15.921875 20.484375 11.0625 
Q 25.484375 6.203125 34.421875 6.203125 
Q 39.59375 6.203125 44.453125 7.46875 
Q 49.3125 8.734375 54.109375 11.28125 
L 54.109375 2.78125 
Q 49.265625 0.734375 44.1875 -0.34375 
Q 39.109375 -1.421875 33.890625 -1.421875 
Q 20.796875 -1.421875 13.15625 6.1875 
Q 5.515625 13.8125 5.515625 26.8125 
Q 5.515625 40.234375 12.765625 48.109375 
Q 20.015625 56 32.328125 56 
Q 43.359375 56 49.78125 48.890625 
Q 56.203125 41.796875 56.203125 29.59375 
z
M 47.21875 32.234375 
Q 47.125 39.59375 43.09375 43.984375 
Q 39.0625 48.390625 32.421875 48.390625 
Q 24.90625 48.390625 20.390625 44.140625 
Q 15.875 39.890625 15.1875 32.171875 
z
" id="DejaVuSans-101"/>
      </defs>
      <use xlink:href="#DejaVuSans-68"/>
      <use x="77.001953" xlink:href="#DejaVuSans-97"/>
      <use x="138.28125" xlink:href="#DejaVuSans-116"/>
      <use x="177.490234" xlink:href="#DejaVuSans-101"/>
     </g>
    </g>
   </g>
   <g id="matplotlib.axis_2">
    <g id="ytick_1">
     <g id="line2d_13">
      <path clip-path="url(#p013e9592ac)" d="M 44.66 226.204338 
L 450 226.204338 
" style="fill:none;stroke:#b0b0b0;stroke-linecap:square;stroke-width:0.8;"/>
     </g>
     <g id="line2d_14">
      <defs>
       <path d="M 0 0 
L -3.5 0 
" id="m38f92f7fe2" style="stroke:#000000;stroke-width:0.8;"/>
      </defs>
      <g>
       <use style="stroke:#000000;stroke-width:0.8;" x="44.66" xlink:href="#m38f92f7fe2" y="226.204338"/>
      </g>
     </g>
     <g id="text_8">
      <!-- 55 -->
      <g transform="translate(24.935 230.003557)scale(0.1 -0.1)">
       <use xlink:href="#DejaVuSans-53"/>
       <use x="63.623047" xlink:href="#DejaVuSans-53"/>
      </g>
     </g>
    </g>
    <g id="ytick_2">
     <g id="line2d_15">
      <path clip-path="url(#p013e9592ac)" d="M 44.66 196.562475 
L 450 196.562475 
" style="fill:none;stroke:#b0b0b0;stroke-linecap:square;stroke-width:0.8;"/>
     </g>
     <g id="line2d_16">
      <g>
       <use style="stroke:#000000;stroke-width:0.8;" x="44.66" xlink:href="#m38f92f7fe2" y="196.562475"/>
      </g>
     </g>
     <g id="text_9">
      <!-- 60 -->
      <g transform="translate(24.935 200.361694)scale(0.1 -0.1)">
       <defs>
        <path d="M 33.015625 40.375 
Q 26.375 40.375 22.484375 35.828125 
Q 18.609375 31.296875 18.609375 23.390625 
Q 18.609375 15.53125 22.484375 10.953125 
Q 26.375 6.390625 33.015625 6.390625 
Q 39.65625 6.390625 43.53125 10.953125 
Q 47.40625 15.53125 47.40625 23.390625 
Q 47.40625 31.296875 43.53125 35.828125 
Q 39.65625 40.375 33.015625 40.375 
z
M 52.59375 71.296875 
L 52.59375 62.3125 
Q 48.875 64.0625 45.09375 64.984375 
Q 41.3125 65.921875 37.59375 65.921875 
Q 27.828125 65.921875 22.671875 59.328125 
Q 17.53125 52.734375 16.796875 39.40625 
Q 19.671875 43.65625 24.015625 45.921875 
Q 28.375 48.1875 33.59375 48.1875 
Q 44.578125 48.1875 50.953125 41.515625 
Q 57.328125 34.859375 57.328125 23.390625 
Q 57.328125 12.15625 50.6875 5.359375 
Q 44.046875 -1.421875 33.015625 -1.421875 
Q 20.359375 -1.421875 13.671875 8.265625 
Q 6.984375 17.96875 6.984375 36.375 
Q 6.984375 53.65625 15.1875 63.9375 
Q 23.390625 74.21875 37.203125 74.21875 
Q 40.921875 74.21875 44.703125 73.484375 
Q 48.484375 72.75 52.59375 71.296875 
z
" id="DejaVuSans-54"/>
       </defs>
       <use xlink:href="#DejaVuSans-54"/>
       <use x="63.623047" xlink:href="#DejaVuSans-48"/>
      </g>
     </g>
    </g>
    <g id="ytick_3">
     <g id="line2d_17">
      <path clip-path="url(#p013e9592ac)" d="M 44.66 166.920612 
L 450 166.920612 
" style="fill:none;stroke:#b0b0b0;stroke-linecap:square;stroke-width:0.8;"/>
     </g>
     <g id="line2d_18">
      <g>
       <use style="stroke:#000000;stroke-width:0.8;" x="44.66" xlink:href="#m38f92f7fe2" y="166.920612"/>
      </g>
     </g>
     <g id="text_10">
      <!-- 65 -->
      <g transform="translate(24.935 170.719831)scale(0.1 -0.1)">
       <use xlink:href="#DejaVuSans-54"/>
       <use x="63.623047" xlink:href="#DejaVuSans-53"/>
      </g>
     </g>
    </g>
    <g id="ytick_4">
     <g id="line2d_19">
      <path clip-path="url(#p013e9592ac)" d="M 44.66 137.278749 
L 450 137.278749 
" style="fill:none;stroke:#b0b0b0;stroke-linecap:square;stroke-width:0.8;"/>
     </g>
     <g id="line2d_20">
      <g>
       <use style="stroke:#000000;stroke-width:0.8;" x="44.66" xlink:href="#m38f92f7fe2" y="137.278749"/>
      </g>
     </g>
     <g id="text_11">
      <!-- 70 -->
      <g transform="translate(24.935 141.077968)scale(0.1 -0.1)">
       <use xlink:href="#DejaVuSans-55"/>
       <use x="63.623047" xlink:href="#DejaVuSans-48"/>
      </g>
     </g>
    </g>
    <g id="ytick_5">
     <g id="line2d_21">
      <path clip-path="url(#p013e9592ac)" d="M 44.66 107.636886 
L 450 107.636886 
" style="fill:none;stroke:#b0b0b0;stroke-linecap:square;stroke-width:0.8;"/>
     </g>
     <g id="line2d_22">
      <g>
       <use style="stroke:#000000;stroke-width:0.8;" x="44.66" xlink:href="#m38f92f7fe2" y="107.636886"/>
      </g>
     </g>
     <g id="text_12">
      <!-- 75 -->
      <g transform="translate(24.935 111.436105)scale(0.1 -0.1)">
       <use xlink:href="#DejaVuSans-55"/>
       <use x="63.623047" xlink:href="#DejaVuSans-53"/>
      </g>
     </g>
    </g>
    <g id="ytick_6">
     <g id="line2d_23">
      <path clip-path="url(#p013e9592ac)" d="M 44.66 77.995023 
L 450 77.995023 
" style="fill:none;stroke:#b0b0b0;stroke-linecap:square;stroke-width:0.8;"/>
     </g>
     <g id="line2d_24">
      <g>
       <use style="stroke:#000000;stroke-width:0.8;" x="44.66" xlink:href="#m38f92f7fe2" y="77.995023"/>
      </g>
     </g>
     <g id="text_13">
      <!-- 80 -->
      <g transform="translate(24.935 81.794242)scale(0.1 -0.1)">
       <use xlink:href="#DejaVuSans-56"/>
       <use x="63.623047" xlink:href="#DejaVuSans-48"/>
      </g>
     </g>
    </g>
    <g id="ytick_7">
     <g id="line2d_25">
      <path clip-path="url(#p013e9592ac)" d="M 44.66 48.35316 
L 450 48.35316 
" style="fill:none;stroke:#b0b0b0;stroke-linecap:square;stroke-width:0.8;"/>
     </g>
     <g id="line2d_26">
      <g>
       <use style="stroke:#000000;stroke-width:0.8;" x="44.66" xlink:href="#m38f92f7fe2" y="48.35316"/>
      </g>
     </g>
     <g id="text_14">
      <!-- 85 -->
      <g transform="translate(24.935 52.152379)scale(0.1 -0.1)">
       <use xlink:href="#DejaVuSans-56"/>
       <use x="63.623047" xlink:href="#DejaVuSans-53"/>
      </g>
     </g>
    </g>
    <g id="text_15">
     <!-- Temperature [F] -->
     <g transform="translate(18.855313 180.575291)rotate(-90)scale(0.1 -0.1)">
      <defs>
       <path d="M -0.296875 72.90625 
L 61.375 72.90625 
L 61.375 64.59375 
L 35.5 64.59375 
L 35.5 0 
L 25.59375 0 
L 25.59375 64.59375 
L -0.296875 64.59375 
z
" id="DejaVuSans-84"/>
       <path d="M 52 44.1875 
Q 55.375 50.25 60.0625 53.125 
Q 64.75 56 71.09375 56 
Q 79.640625 56 84.28125 50.015625 
Q 88.921875 44.046875 88.921875 33.015625 
L 88.921875 0 
L 79.890625 0 
L 79.890625 32.71875 
Q 79.890625 40.578125 77.09375 44.375 
Q 74.3125 48.1875 68.609375 48.1875 
Q 61.625 48.1875 57.5625 43.546875 
Q 53.515625 38.921875 53.515625 30.90625 
L 53.515625 0 
L 44.484375 0 
L 44.484375 32.71875 
Q 44.484375 40.625 41.703125 44.40625 
Q 38.921875 48.1875 33.109375 48.1875 
Q 26.21875 48.1875 22.15625 43.53125 
Q 18.109375 38.875 18.109375 30.90625 
L 18.109375 0 
L 9.078125 0 
L 9.078125 54.6875 
L 18.109375 54.6875 
L 18.109375 46.1875 
Q 21.1875 51.21875 25.484375 53.609375 
Q 29.78125 56 35.6875 56 
Q 41.65625 56 45.828125 52.96875 
Q 50 49.953125 52 44.1875 
z
" id="DejaVuSans-109"/>
       <path d="M 18.109375 8.203125 
L 18.109375 -20.796875 
L 9.078125 -20.796875 
L 9.078125 54.6875 
L 18.109375 54.6875 
L 18.109375 46.390625 
Q 20.953125 51.265625 25.265625 53.625 
Q 29.59375 56 35.59375 56 
Q 45.5625 56 51.78125 48.09375 
Q 58.015625 40.1875 58.015625 27.296875 
Q 58.015625 14.40625 51.78125 6.484375 
Q 45.5625 -1.421875 35.59375 -1.421875 
Q 29.59375 -1.421875 25.265625 0.953125 
Q 20.953125 3.328125 18.109375 8.203125 
z
M 48.6875 27.296875 
Q 48.6875 37.203125 44.609375 42.84375 
Q 40.53125 48.484375 33.40625 48.484375 
Q 26.265625 48.484375 22.1875 42.84375 
Q 18.109375 37.203125 18.109375 27.296875 
Q 18.109375 17.390625 22.1875 11.75 
Q 26.265625 6.109375 33.40625 6.109375 
Q 40.53125 6.109375 44.609375 11.75 
Q 48.6875 17.390625 48.6875 27.296875 
z
" id="DejaVuSans-112"/>
       <path d="M 41.109375 46.296875 
Q 39.59375 47.171875 37.8125 47.578125 
Q 36.03125 48 33.890625 48 
Q 26.265625 48 22.1875 43.046875 
Q 18.109375 38.09375 18.109375 28.8125 
L 18.109375 0 
L 9.078125 0 
L 9.078125 54.6875 
L 18.109375 54.6875 
L 18.109375 46.1875 
Q 20.953125 51.171875 25.484375 53.578125 
Q 30.03125 56 36.53125 56 
Q 37.453125 56 38.578125 55.875 
Q 39.703125 55.765625 41.0625 55.515625 
z
" id="DejaVuSans-114"/>
       <path d="M 8.5 21.578125 
L 8.5 54.6875 
L 17.484375 54.6875 
L 17.484375 21.921875 
Q 17.484375 14.15625 20.5 10.265625 
Q 23.53125 6.390625 29.59375 6.390625 
Q 36.859375 6.390625 41.078125 11.03125 
Q 45.3125 15.671875 45.3125 23.6875 
L 45.3125 54.6875 
L 54.296875 54.6875 
L 54.296875 0 
L 45.3125 0 
L 45.3125 8.40625 
Q 42.046875 3.421875 37.71875 1 
Q 33.40625 -1.421875 27.6875 -1.421875 
Q 18.265625 -1.421875 13.375 4.4375 
Q 8.5 10.296875 8.5 21.578125 
z
M 31.109375 56 
z
" id="DejaVuSans-117"/>
       <path id="DejaVuSans-32"/>
       <path d="M 8.59375 75.984375 
L 29.296875 75.984375 
L 29.296875 69 
L 17.578125 69 
L 17.578125 -6.203125 
L 29.296875 -6.203125 
L 29.296875 -13.1875 
L 8.59375 -13.1875 
z
" id="DejaVuSans-91"/>
       <path d="M 9.8125 72.90625 
L 51.703125 72.90625 
L 51.703125 64.59375 
L 19.671875 64.59375 
L 19.671875 43.109375 
L 48.578125 43.109375 
L 48.578125 34.8125 
L 19.671875 34.8125 
L 19.671875 0 
L 9.8125 0 
z
" id="DejaVuSans-70"/>
       <path d="M 30.421875 75.984375 
L 30.421875 -13.1875 
L 9.71875 -13.1875 
L 9.71875 -6.203125 
L 21.390625 -6.203125 
L 21.390625 69 
L 9.71875 69 
L 9.71875 75.984375 
z
" id="DejaVuSans-93"/>
      </defs>
      <use xlink:href="#DejaVuSans-84"/>
      <use x="44.083984" xlink:href="#DejaVuSans-101"/>
      <use x="105.607422" xlink:href="#DejaVuSans-109"/>
      <use x="203.019531" xlink:href="#DejaVuSans-112"/>
      <use x="266.496094" xlink:href="#DejaVuSans-101"/>
      <use x="328.019531" xlink:href="#DejaVuSans-114"/>
      <use x="369.132812" xlink:href="#DejaVuSans-97"/>
      <use x="430.412109" xlink:href="#DejaVuSans-116"/>
      <use x="469.621094" xlink:href="#DejaVuSans-117"/>
      <use x="533" xlink:href="#DejaVuSans-114"/>
      <use x="571.863281" xlink:href="#DejaVuSans-101"/>
      <use x="633.386719" xlink:href="#DejaVuSans-32"/>
      <use x="665.173828" xlink:href="#DejaVuSans-91"/>
      <use x="704.1875" xlink:href="#DejaVuSans-70"/>
      <use x="761.707031" xlink:href="#DejaVuSans-93"/>
     </g>
    </g>
   </g>
   <g id="line2d_27">
    <path clip-path="url(#p013e9592ac)" d="M 63.084545 143.799959 
L 63.135266 143.799959 
L 63.255275 143.207122 
L 63.375106 143.207122 
L 63.39908 143.799959 
L 63.447438 142.614284 
L 63.471295 143.207122 
L 63.495181 143.207122 
L 63.615938 142.614284 
L 63.664854 142.614284 
L 63.738032 142.021447 
L 63.761947 142.614284 
L 63.835964 142.614284 
L 63.883958 143.207122 
L 63.908014 142.614284 
L 63.981776 143.207122 
L 64.029869 142.021447 
L 64.07928 142.021447 
L 64.177194 140.835773 
L 64.201022 142.021447 
L 64.225372 140.242935 
L 64.273768 140.835773 
L 64.394751 140.242935 
L 64.418792 140.242935 
L 64.54169 139.650098 
L 64.63793 140.835773 
L 64.761167 139.650098 
L 64.906478 140.835773 
L 64.930437 140.835773 
L 64.954321 140.242935 
L 65.02828 140.835773 
L 65.052998 140.835773 
L 65.224505 139.057261 
L 65.298227 140.242935 
L 65.322978 139.057261 
L 65.422004 139.057261 
L 65.44709 138.464424 
L 65.495229 139.057261 
L 65.519522 139.650098 
L 65.584943 139.057261 
L 65.658045 139.057261 
L 65.70757 138.464424 
L 65.757331 139.057261 
L 65.881152 140.835773 
L 65.905074 140.242935 
L 65.930861 140.242935 
L 66.059662 142.021447 
L 66.204993 140.242935 
L 66.328153 140.835773 
L 66.400755 140.242935 
L 66.425828 140.835773 
L 66.475586 140.242935 
L 66.547972 142.021447 
L 66.575524 142.021447 
L 66.671261 140.242935 
L 66.695115 140.835773 
L 66.719659 140.835773 
L 66.81705 143.207122 
L 66.842751 142.021447 
L 66.866598 140.835773 
L 66.890479 143.207122 
L 66.915345 144.392796 
L 66.964676 142.021447 
L 66.988491 142.614284 
L 67.065549 140.242935 
L 67.089832 143.207122 
L 67.1137 142.021447 
L 67.137495 144.392796 
L 67.187706 142.614284 
L 67.21342 142.614284 
L 67.360668 144.392796 
L 67.48361 144.985633 
L 67.703677 144.985633 
L 67.801104 145.578471 
L 67.87486 144.985633 
L 67.898799 145.578471 
L 67.923487 145.578471 
L 67.971404 144.392796 
L 68.020719 145.578471 
L 68.046666 145.578471 
L 68.119599 143.207122 
L 68.144717 144.985633 
L 68.169846 146.764145 
L 68.243701 145.578471 
L 68.292348 145.578471 
L 68.439968 143.799959 
L 68.562781 144.392796 
L 68.586761 144.392796 
L 68.659699 144.985633 
L 68.683834 143.207122 
L 68.757716 145.578471 
L 68.807243 144.392796 
L 68.927762 145.578471 
L 68.952133 144.392796 
L 69.049235 144.985633 
L 69.122492 144.985633 
L 69.247126 145.578471 
L 69.396313 144.392796 
L 69.541041 145.578471 
L 69.857361 145.578471 
L 69.979651 146.764145 
L 70.39913 146.764145 
L 70.498445 147.356982 
L 70.619633 146.764145 
L 70.741477 147.356982 
L 71.130618 147.356982 
L 71.154847 147.94982 
L 71.178834 147.356982 
L 132.59357 147.94982 
L 132.618377 147.356982 
L 132.909016 145.578471 
L 133.034778 147.356982 
L 133.059379 145.578471 
L 133.118461 147.356982 
L 133.308985 143.207122 
L 133.389193 144.985633 
L 133.573007 146.764145 
L 133.651336 146.764145 
L 133.675191 147.356982 
L 133.70016 145.578471 
L 133.725171 145.578471 
L 133.749743 146.764145 
L 133.774722 144.985633 
L 133.801176 144.985633 
L 133.87897 140.242935 
L 133.923958 143.207122 
L 134.051025 145.578471 
L 134.078519 144.392796 
L 134.152197 145.578471 
L 134.176084 145.578471 
L 134.212585 146.764145 
L 134.261371 145.578471 
L 134.291094 144.985633 
L 134.368888 145.578471 
L 134.392758 145.578471 
L 134.516861 139.650098 
L 134.637906 145.578471 
L 134.73483 139.057261 
L 134.808416 140.242935 
L 134.904748 144.985633 
L 134.965006 146.764145 
L 134.988832 144.985633 
L 135.103562 144.392796 
L 135.152227 144.392796 
L 135.177487 143.799959 
L 135.20146 144.392796 
L 135.299868 146.764145 
L 135.324084 145.578471 
L 135.377948 145.578471 
L 135.532751 139.650098 
L 135.695963 146.764145 
L 135.771134 144.392796 
L 135.818773 145.578471 
L 135.84302 145.578471 
L 135.868264 146.764145 
L 135.892058 144.985633 
L 135.916824 145.578471 
L 136.014886 145.578471 
L 136.039706 144.392796 
L 136.091283 145.578471 
L 136.116216 147.356982 
L 136.165039 144.985633 
L 136.189238 144.985633 
L 136.213024 144.985633 
L 136.23815 145.578471 
L 136.2641 142.021447 
L 136.339624 142.614284 
L 136.389812 144.985633 
L 136.463313 143.799959 
L 136.585026 144.985633 
L 136.711491 144.392796 
L 136.78427 143.799959 
L 136.831923 144.985633 
L 136.85606 144.985633 
L 136.879859 144.392796 
L 136.953273 144.985633 
L 137.098879 146.764145 
L 137.12271 145.578471 
L 137.194805 146.764145 
L 137.316069 147.356982 
L 137.632945 147.356982 
L 137.706414 147.94982 
L 137.731087 147.356982 
L 137.975662 147.356982 
L 137.999711 144.985633 
L 138.072366 146.764145 
L 138.120766 146.764145 
L 138.246358 147.356982 
L 138.294844 147.356982 
L 138.319149 146.764145 
L 138.390957 147.356982 
L 138.415255 147.356982 
L 138.537629 147.94982 
L 139.057913 147.94982 
L 139.083854 148.542657 
L 139.138809 147.356982 
L 139.1658 147.94982 
L 139.291954 147.356982 
L 139.493216 147.356982 
L 139.615942 146.764145 
L 139.983379 146.764145 
L 140.007232 147.356982 
L 140.079837 146.764145 
L 140.276418 146.764145 
L 140.351064 147.356982 
L 140.3749 146.764145 
L 140.542708 146.764145 
L 140.615037 147.356982 
L 140.63899 146.764145 
L 140.68857 146.764145 
L 140.809924 147.356982 
L 140.833853 147.356982 
L 140.953651 146.764145 
L 140.977434 146.764145 
L 141.048954 147.356982 
L 141.073596 146.764145 
L 141.392811 146.764145 
L 237.412348 130.164702 
L 237.467822 131.350376 
L 237.583819 131.350376 
L 237.607854 130.164702 
L 237.657595 131.350376 
L 237.735851 131.350376 
L 237.760639 130.164702 
L 237.839032 131.350376 
L 238.0341 131.350376 
L 238.083339 131.943214 
L 238.132017 131.350376 
L 238.258439 131.350376 
L 238.389683 131.943214 
L 238.413918 131.350376 
L 238.462689 131.943214 
L 238.511972 131.943214 
L 238.536551 131.350376 
L 238.608264 131.943214 
L 238.681037 131.943214 
L 238.813163 131.350376 
L 238.947158 131.943214 
L 239.385498 131.943214 
L 239.505474 132.536051 
L 239.578522 131.943214 
L 239.6035 132.536051 
L 239.627908 132.536051 
L 239.752216 131.943214 
L 239.80378 131.943214 
L 239.923599 132.536051 
L 240.364786 132.536051 
L 240.388863 133.128888 
L 240.461258 132.536051 
L 240.537343 132.536051 
L 240.563984 133.128888 
L 240.647805 132.536051 
L 240.84729 132.536051 
L 240.971785 133.128888 
L 241.983803 133.128888 
L 242.008832 133.721726 
L 242.05855 133.128888 
L 242.280157 133.128888 
L 242.380834 133.721726 
L 242.504541 133.128888 
L 242.626306 133.721726 
L 242.951704 133.721726 
L 243.066709 134.314563 
L 243.187236 133.721726 
L 243.874601 133.721726 
L 243.898381 133.128888 
L 243.972515 133.721726 
L 244.121333 133.721726 
L 244.243808 133.128888 
L 244.292355 133.128888 
L 244.414522 133.721726 
L 244.758296 133.721726 
L 244.782106 134.314563 
L 244.853441 133.721726 
L 245.289045 133.721726 
L 245.313569 133.128888 
L 245.387078 133.721726 
L 245.434636 133.721726 
L 245.46663 133.128888 
L 245.543938 133.721726 
L 245.737547 133.721726 
L 245.762109 133.128888 
L 245.835711 133.721726 
L 246.596082 133.721726 
L 246.718528 134.314563 
L 246.742808 134.314563 
L 246.843793 133.721726 
L 246.950867 134.314563 
L 247.073938 133.721726 
L 247.171076 134.314563 
L 247.293247 133.721726 
L 247.391486 133.721726 
L 247.511089 134.314563 
L 247.916242 134.314563 
L 247.940335 134.9074 
L 248.01205 134.314563 
L 248.286696 134.314563 
L 248.361154 134.9074 
L 248.386374 134.314563 
L 248.4353 134.314563 
L 248.508432 134.9074 
L 248.532278 134.314563 
L 248.584491 134.314563 
L 248.710899 134.9074 
L 248.736699 134.314563 
L 248.816441 134.9074 
L 249.551409 134.9074 
L 249.676712 136.093075 
L 249.800663 134.9074 
L 250.051136 134.9074 
L 250.099374 136.093075 
L 250.149861 134.9074 
L 250.351963 134.9074 
L 250.450265 136.093075 
L 250.570516 134.9074 
L 250.693402 136.093075 
L 250.819752 134.9074 
L 250.843663 134.9074 
L 250.965293 136.093075 
L 251.0885 134.9074 
L 251.211272 136.093075 
L 251.849125 136.093075 
L 251.924711 136.685912 
L 251.948933 136.093075 
L 252.07619 136.093075 
L 252.101204 136.685912 
L 252.125396 136.093075 
L 252.391202 136.093075 
L 252.49005 136.685912 
L 252.613234 136.093075 
L 252.736728 136.685912 
L 253.499207 136.685912 
L 253.571887 137.278749 
L 253.598257 136.685912 
L 253.622154 136.685912 
L 253.69543 137.278749 
L 253.719715 136.685912 
L 253.74355 136.685912 
L 253.864901 137.278749 
L 254.327125 137.278749 
L 254.42626 136.685912 
L 254.547894 137.278749 
L 255.52933 137.278749 
L 255.553255 137.871586 
L 255.633111 137.278749 
L 256.469786 137.278749 
L 256.572184 137.871586 
L 256.646486 137.278749 
L 256.679533 137.871586 
L 257.429548 137.871586 
L 257.453441 137.278749 
L 257.528428 137.871586 
L 257.62838 137.871586 
L 257.701389 137.278749 
L 257.725506 137.871586 
L 257.825836 137.871586 
L 257.950041 137.278749 
L 258.047319 137.278749 
L 258.07112 137.871586 
L 258.145575 137.278749 
L 258.194421 137.278749 
L 258.295313 137.871586 
L 258.418203 137.278749 
L 258.58755 137.278749 
L 258.689989 137.871586 
L 258.814085 137.278749 
L 259.567065 137.278749 
L 259.689766 136.685912 
L 259.887731 136.685912 
L 259.937381 136.093075 
L 259.987039 136.685912 
L 260.111464 136.685912 
L 260.166614 136.093075 
L 260.216642 136.685912 
L 260.240705 136.685912 
L 260.266121 136.093075 
L 260.339014 136.685912 
L 261.009479 136.685912 
L 261.132492 136.093075 
L 261.188475 136.093075 
L 261.212525 136.685912 
L 261.284462 136.093075 
L 261.359896 136.093075 
L 261.482783 134.9074 
L 261.705696 134.9074 
L 261.753867 134.314563 
L 261.803462 134.9074 
L 262.365596 134.9074 
L 262.438229 134.314563 
L 262.462174 134.9074 
L 262.585069 134.9074 
L 262.706205 134.314563 
L 262.755091 134.314563 
L 262.875255 133.721726 
L 262.900614 133.721726 
L 263.021759 134.314563 
L 263.069378 134.314563 
L 263.190815 133.721726 
L 263.264687 134.314563 
L 263.295245 133.721726 
L 263.447582 133.721726 
L 263.570213 134.314563 
L 263.59568 134.314563 
L 263.695782 133.721726 
L 263.82184 134.314563 
L 263.90005 134.314563 
L 263.923949 133.721726 
L 263.996891 134.314563 
L 264.320175 134.314563 
L 264.418478 133.721726 
L 264.467765 134.314563 
L 264.516966 133.721726 
L 264.56889 133.721726 
L 264.694455 134.314563 
L 264.796155 133.721726 
L 264.870864 134.314563 
L 264.898027 133.721726 
L 265.023556 133.721726 
L 265.146956 134.314563 
L 265.271479 133.721726 
L 265.421564 133.721726 
L 265.448587 134.314563 
L 265.530372 133.721726 
L 265.607779 133.721726 
L 265.632267 134.314563 
L 265.707522 133.721726 
L 265.87257 133.721726 
L 265.896406 132.536051 
L 265.993436 133.128888 
L 266.017362 133.128888 
L 266.139219 133.721726 
L 266.212451 133.721726 
L 266.260596 134.314563 
L 266.309635 133.721726 
L 266.430661 133.128888 
L 266.479759 133.128888 
L 266.503643 133.721726 
L 266.577602 133.128888 
L 266.60285 133.128888 
L 266.727364 133.721726 
L 266.977624 133.721726 
L 267.001568 134.314563 
L 267.051255 133.721726 
L 267.126148 133.128888 
L 267.149959 133.721726 
L 267.546057 133.721726 
L 267.667207 134.314563 
L 267.692681 134.314563 
L 267.717641 133.721726 
L 267.789578 134.314563 
L 268.057743 134.314563 
L 268.155929 133.721726 
L 268.31781 134.314563 
L 268.562895 134.314563 
L 268.634448 134.9074 
L 268.658599 134.314563 
L 268.830721 134.314563 
L 268.856093 133.721726 
L 268.928321 134.314563 
L 269.200521 134.314563 
L 269.22518 134.9074 
L 269.297239 134.314563 
L 269.605496 134.314563 
L 269.704538 134.9074 
L 269.803164 134.314563 
L 269.927259 134.9074 
L 270.298994 134.9074 
L 270.347846 134.314563 
L 270.399447 134.9074 
L 270.471966 134.9074 
L 270.49737 134.314563 
L 270.570474 134.9074 
L 271.220882 134.9074 
L 271.245701 136.093075 
L 271.329289 134.9074 
L 271.35409 134.9074 
L 271.49056 136.093075 
L 271.514497 136.093075 
L 271.638175 134.9074 
L 271.759676 136.093075 
L 271.891022 136.093075 
L 271.990846 134.9074 
L 272.158585 136.093075 
L 272.728122 136.093075 
L 272.816761 136.685912 
L 272.941751 136.093075 
L 272.966665 136.093075 
L 273.08975 136.685912 
L 273.113562 136.093075 
L 273.197261 136.685912 
L 273.837733 136.685912 
L 273.861545 137.278749 
L 273.934073 136.685912 
L 274.327848 136.685912 
L 274.449597 137.278749 
L 274.523674 136.685912 
L 274.548716 137.278749 
L 274.598011 137.278749 
L 274.698462 136.685912 
L 274.82798 137.278749 
L 276.168946 137.278749 
L 276.195648 137.871586 
L 276.274199 137.278749 
L 276.324923 137.278749 
L 276.374699 137.871586 
L 276.425283 137.278749 
L 276.452628 137.278749 
L 276.553329 137.871586 
L 276.57814 137.278749 
L 276.652861 137.871586 
L 276.897048 137.871586 
L 276.922505 137.278749 
L 276.995984 137.871586 
L 277.068268 137.871586 
L 277.092102 137.278749 
L 277.164779 137.871586 
L 277.338363 137.871586 
L 277.364174 138.464424 
L 277.437328 137.871586 
L 278.085197 137.871586 
L 278.110153 137.278749 
L 278.186773 137.871586 
L 279.281782 137.871586 
L 279.306353 138.464424 
L 279.382769 137.871586 
L 279.735911 137.871586 
L 279.818494 138.464424 
L 279.843213 137.871586 
L 279.966054 137.871586 
L 280.090697 138.464424 
L 280.368034 138.464424 
L 280.392284 137.871586 
L 280.467368 138.464424 
L 280.765461 138.464424 
L 280.791975 137.871586 
L 280.864502 138.464424 
L 281.991194 138.464424 
L 282.017971 139.057261 
L 282.090058 138.464424 
L 282.16401 138.464424 
L 282.189338 139.057261 
L 282.266761 138.464424 
L 282.411539 138.464424 
L 282.507576 139.057261 
L 282.611332 138.464424 
L 282.711161 139.057261 
L 282.734936 138.464424 
L 282.808026 139.057261 
L 282.831968 139.057261 
L 282.953812 138.464424 
L 283.077978 139.057261 
L 283.177804 139.057261 
L 283.276124 138.464424 
L 283.374454 139.057261 
L 283.398325 138.464424 
L 283.473552 139.057261 
L 283.645502 139.057261 
L 283.671178 138.464424 
L 283.74347 139.057261 
L 285.488489 139.057261 
L 285.51342 139.650098 
L 285.586433 139.057261 
L 285.709281 139.057261 
L 285.733242 139.650098 
L 285.807281 139.057261 
L 285.855075 139.057261 
L 285.975594 139.650098 
L 286.100997 139.057261 
L 286.12702 139.057261 
L 286.252504 139.650098 
L 286.278226 139.650098 
L 286.375284 139.057261 
L 286.497646 139.650098 
L 287.133417 139.650098 
L 287.157634 140.242935 
L 287.230458 139.650098 
L 287.499358 139.650098 
L 287.576468 140.242935 
L 287.603672 139.650098 
L 287.72727 139.650098 
L 287.857307 140.242935 
L 287.932173 139.650098 
L 287.956878 140.242935 
L 287.981687 140.242935 
L 288.087756 139.650098 
L 288.112727 140.242935 
L 288.192463 139.650098 
L 288.265425 139.650098 
L 288.291366 140.242935 
L 288.40891 139.650098 
L 289.737361 139.650098 
L 289.817337 139.057261 
L 289.843636 139.650098 
L 289.915137 139.650098 
L 290.022818 139.057261 
L 290.070562 139.650098 
L 290.118243 139.057261 
L 290.777665 139.057261 
L 290.886699 138.464424 
L 291.015465 139.057261 
L 291.169393 137.871586 
L 291.194972 138.464424 
L 291.270207 137.871586 
L 291.417859 137.871586 
L 291.541612 137.278749 
L 291.667945 137.278749 
L 291.69936 136.685912 
L 291.771132 137.278749 
L 291.847122 137.278749 
L 291.925365 137.871586 
L 291.949181 137.278749 
L 292.003518 137.278749 
L 292.099363 137.871586 
L 292.244313 136.685912 
L 292.292134 136.685912 
L 292.412199 137.278749 
L 292.508061 136.685912 
L 292.532096 137.278749 
L 292.603772 136.685912 
L 292.675979 136.685912 
L 292.700304 137.278749 
L 292.779962 136.685912 
L 292.803847 136.685912 
L 292.924927 137.278749 
L 292.948955 136.685912 
L 293.020806 137.278749 
L 293.341817 137.278749 
L 293.437279 136.685912 
L 293.564435 137.278749 
L 293.691485 137.278749 
L 293.715438 136.685912 
L 293.786952 137.278749 
L 293.933836 137.278749 
L 294.054918 136.685912 
L 294.179605 137.278749 
L 294.299231 136.685912 
L 294.664001 136.685912 
L 294.752303 137.278749 
L 294.881449 136.685912 
L 295.529726 136.685912 
L 295.618038 136.093075 
L 295.896275 136.093075 
L 295.920483 136.685912 
L 295.960599 136.093075 
L 296.601408 136.093075 
L 296.687295 136.685912 
L 296.8183 136.093075 
L 297.037151 136.093075 
L 297.07473 136.685912 
L 297.102706 134.9074 
L 297.189374 136.093075 
L 297.249709 136.093075 
L 297.390779 134.9074 
L 297.903769 134.9074 
L 298.124312 133.721726 
L 298.237454 134.314563 
L 298.9491 134.314563 
L 298.980506 133.721726 
L 299.040004 134.314563 
L 299.168409 134.314563 
L 299.301949 133.721726 
L 299.485388 133.721726 
L 299.509412 134.314563 
L 299.589595 133.721726 
L 299.640805 133.721726 
L 299.7467 133.128888 
L 299.825531 133.721726 
L 299.853633 133.128888 
L 300.02478 133.128888 
L 300.157064 133.721726 
L 300.263847 133.721726 
L 300.288712 134.314563 
L 300.369174 133.721726 
L 300.522577 133.721726 
L 300.655752 133.128888 
L 300.722798 133.721726 
L 300.761233 133.128888 
L 300.791521 133.128888 
L 300.892177 132.536051 
L 300.916917 133.128888 
L 300.997058 132.536051 
L 301.075305 132.536051 
L 301.286297 131.943214 
L 301.404531 132.536051 
L 301.531193 131.943214 
L 301.555882 131.943214 
L 301.583536 132.536051 
L 301.849757 132.536051 
L 301.882399 133.128888 
L 301.951738 132.536051 
L 302.091238 132.536051 
L 302.219346 133.128888 
L 302.695944 133.128888 
L 302.746314 132.536051 
L 302.802062 133.128888 
L 302.887593 132.536051 
L 302.965735 132.536051 
L 303.077824 133.128888 
L 303.185463 132.536051 
L 303.274564 132.536051 
L 303.389575 133.128888 
L 303.574653 133.128888 
L 303.613597 133.721726 
L 303.670431 133.128888 
L 303.695933 133.128888 
L 303.774536 133.721726 
L 303.80222 133.128888 
L 303.873786 133.128888 
L 304.013054 133.721726 
L 304.154067 133.721726 
L 304.266255 134.314563 
L 304.338813 133.721726 
L 304.380573 134.9074 
L 304.441917 134.314563 
L 304.627437 134.314563 
L 304.761026 134.9074 
L 304.789538 134.314563 
L 304.87178 134.9074 
L 305.08394 134.9074 
L 305.216437 136.093075 
L 305.662959 136.093075 
L 305.797692 136.685912 
L 305.826166 136.093075 
L 305.884158 136.685912 
L 306.320895 136.685912 
L 306.423946 137.278749 
L 306.531645 136.685912 
L 306.580876 137.278749 
L 306.659165 136.685912 
L 306.684098 137.278749 
L 306.740982 137.278749 
L 306.793316 136.685912 
L 306.825224 137.278749 
L 307.374123 137.278749 
L 307.499109 137.871586 
L 308.114469 137.871586 
L 308.187014 138.464424 
L 308.21852 137.871586 
L 308.525964 137.871586 
L 308.64625 138.464424 
L 308.771023 137.871586 
L 308.820812 137.871586 
L 308.943842 138.464424 
L 309.01614 137.871586 
L 309.040182 138.464424 
L 309.788788 138.464424 
L 309.885442 139.057261 
L 310.00481 138.464424 
L 310.028629 138.464424 
L 310.125292 139.057261 
L 310.149117 138.464424 
L 310.222804 139.057261 
L 310.831768 139.057261 
L 310.953949 139.650098 
L 311.002335 139.650098 
L 311.026887 139.057261 
L 311.098373 139.650098 
L 311.265399 139.650098 
L 311.361429 140.242935 
L 311.434385 139.650098 
L 311.458225 140.242935 
L 311.674903 140.242935 
L 311.776553 140.835773 
L 311.899324 140.242935 
L 312.497784 140.242935 
L 312.522408 139.650098 
L 312.593185 140.242935 
L 312.858213 140.242935 
L 312.882966 140.835773 
L 312.964508 140.242935 
L 313.186137 140.242935 
L 313.211191 140.835773 
L 313.284992 140.242935 
L 313.968187 140.242935 
L 314.088158 140.835773 
L 314.137426 140.835773 
L 314.259779 140.242935 
L 314.309161 140.242935 
L 314.434286 140.835773 
L 315.698925 140.835773 
L 315.818636 142.021447 
L 315.941106 140.835773 
L 315.990174 140.835773 
L 316.110333 142.021447 
L 316.134138 142.021447 
L 316.205436 140.835773 
L 316.230018 142.021447 
L 317.308151 142.021447 
L 317.433496 142.614284 
L 317.55802 142.021447 
L 317.87294 142.021447 
L 317.920544 142.614284 
L 317.968445 142.021447 
L 318.139157 142.021447 
L 318.16307 142.614284 
L 318.236591 142.021447 
L 318.506275 142.021447 
L 318.530029 142.614284 
L 318.601871 142.021447 
L 318.698532 142.021447 
L 318.722432 142.614284 
L 318.794088 142.021447 
L 318.84473 142.021447 
L 318.965466 142.614284 
L 319.016295 142.614284 
L 319.136901 142.021447 
L 319.234821 142.614284 
L 319.25885 142.021447 
L 319.332432 142.614284 
L 319.527557 142.614284 
L 319.552126 142.021447 
L 319.624798 142.614284 
L 320.014293 142.614284 
L 320.135804 143.207122 
L 320.259049 142.614284 
L 320.853769 142.614284 
L 320.927346 143.207122 
L 320.952478 142.614284 
L 321.052266 142.614284 
L 321.171721 143.207122 
L 321.296225 142.614284 
L 321.32007 143.207122 
L 321.394325 142.614284 
L 322.756083 142.614284 
L 322.830013 142.021447 
L 322.854001 142.614284 
L 322.881074 142.614284 
L 322.906633 142.021447 
L 322.978065 142.614284 
L 323.147583 142.614284 
L 323.245599 142.021447 
L 323.320254 142.614284 
L 323.345146 142.021447 
L 323.443298 142.021447 
L 323.492837 142.614284 
L 323.54132 142.021447 
L 323.589498 142.021447 
L 323.613321 142.614284 
L 323.688459 142.021447 
L 324.035845 142.021447 
L 324.160359 140.835773 
L 324.494779 140.835773 
L 324.519588 140.242935 
L 324.594859 140.835773 
L 324.668078 140.835773 
L 324.789236 140.242935 
L 325.012348 140.242935 
L 325.14195 139.650098 
L 325.168988 139.650098 
L 325.193632 140.242935 
L 325.265804 139.650098 
L 325.435646 139.650098 
L 325.560578 139.057261 
L 325.762307 139.057261 
L 325.888989 138.464424 
L 325.987476 138.464424 
L 326.122417 137.871586 
L 326.442274 137.871586 
L 326.466223 137.278749 
L 326.54075 137.871586 
L 326.628699 137.871586 
L 326.740117 137.278749 
L 326.898738 137.278749 
L 326.953442 136.685912 
L 326.97817 137.278749 
L 327.07378 137.871586 
L 327.197197 137.278749 
L 327.245395 137.278749 
L 327.26919 136.685912 
L 327.321618 137.278749 
L 327.373708 136.685912 
L 327.457086 137.871586 
L 327.506382 137.871586 
L 327.530143 138.464424 
L 327.557769 137.871586 
L 327.664051 137.871586 
L 327.797753 137.278749 
L 327.822533 137.278749 
L 327.846352 136.685912 
L 327.87014 137.871586 
L 327.996017 138.464424 
L 328.050877 138.464424 
L 328.125602 137.871586 
L 328.149424 138.464424 
L 328.223176 138.464424 
L 328.348967 137.871586 
L 328.398393 137.871586 
L 328.529661 138.464424 
L 328.628061 138.464424 
L 328.749801 137.871586 
L 328.824179 137.871586 
L 328.875157 137.278749 
L 328.957038 138.464424 
L 329.085205 137.871586 
L 329.10957 137.871586 
L 329.213124 133.128888 
L 329.238228 130.164702 
L 329.288977 134.314563 
L 329.313096 133.721726 
L 329.583869 137.871586 
L 329.685827 137.871586 
L 329.809328 138.464424 
L 329.933769 137.871586 
L 330.309299 137.871586 
L 330.333996 138.464424 
L 330.406451 137.871586 
L 330.529571 137.871586 
L 330.555999 138.464424 
L 330.606881 137.871586 
L 330.681168 136.685912 
L 330.70637 137.278749 
L 330.803913 137.871586 
L 330.926812 137.278749 
L 330.974465 137.278749 
L 331.072931 136.685912 
L 331.174074 136.685912 
L 331.230352 136.093075 
L 331.352669 137.871586 
L 331.561153 134.314563 
L 331.586454 134.9074 
L 331.675814 136.093075 
L 331.979148 134.9074 
L 332.033499 136.093075 
L 332.120419 136.093075 
L 332.247737 129.571865 
L 332.329241 131.350376 
L 332.493964 134.314563 
L 332.629305 134.9074 
L 332.678903 134.9074 
L 332.751059 134.314563 
L 332.788124 134.9074 
L 332.821854 134.9074 
L 332.949393 136.093075 
L 333.009601 134.9074 
L 333.037863 136.093075 
L 333.064894 136.093075 
L 333.188891 134.314563 
L 333.268575 136.093075 
L 333.341814 136.093075 
L 333.491758 137.278749 
L 333.556548 136.093075 
L 333.585174 137.278749 
L 333.678532 137.871586 
L 333.800395 136.685912 
L 333.858602 137.871586 
L 333.883259 136.685912 
L 334.071866 134.314563 
L 334.106411 134.9074 
L 334.169564 134.314563 
L 334.193457 133.721726 
L 334.225271 134.9074 
L 334.263736 134.9074 
L 334.344845 133.721726 
L 334.439656 136.093075 
L 334.580986 136.093075 
L 334.675502 134.9074 
L 334.803054 136.093075 
L 334.945403 134.9074 
L 335.075625 136.093075 
L 335.181662 136.093075 
L 335.232073 134.9074 
L 335.286469 136.093075 
L 335.396042 136.093075 
L 335.514193 136.685912 
L 336.025718 136.685912 
L 336.063018 136.093075 
L 336.111089 136.685912 
L 336.196805 136.685912 
L 336.323746 137.278749 
L 336.450802 136.685912 
L 336.501161 136.685912 
L 336.643299 137.278749 
L 336.773618 137.278749 
L 336.797875 137.871586 
L 336.862405 137.278749 
L 336.88873 137.278749 
L 336.96377 136.685912 
L 336.989651 137.278749 
L 337.050827 137.278749 
L 337.231793 136.685912 
L 337.383209 136.685912 
L 337.495127 137.278749 
L 337.872526 137.278749 
L 338.003914 137.871586 
L 338.190493 137.871586 
L 338.222528 138.464424 
L 338.301723 137.871586 
L 338.333286 137.871586 
L 338.463741 138.464424 
L 338.489339 137.871586 
L 338.567951 138.464424 
L 338.765442 138.464424 
L 338.893357 137.871586 
L 338.918174 137.871586 
L 338.969529 138.464424 
L 339.019283 137.871586 
L 339.093233 137.871586 
L 339.2099 138.464424 
L 340.028933 138.464424 
L 340.162645 137.871586 
L 340.716116 137.871586 
L 340.739964 138.464424 
L 340.816702 137.871586 
L 341.19382 137.871586 
L 341.31869 138.464424 
L 341.406344 138.464424 
L 341.430127 137.871586 
L 341.515656 138.464424 
L 341.619479 138.464424 
L 341.646826 137.871586 
L 341.719653 138.464424 
L 342.036318 138.464424 
L 342.060913 139.057261 
L 342.134777 138.464424 
L 342.449509 138.464424 
L 342.575979 137.871586 
L 342.651012 137.871586 
L 342.774916 138.464424 
L 342.899074 137.871586 
L 342.923334 137.871586 
L 343.058999 138.464424 
L 343.187231 137.871586 
L 343.339076 137.871586 
L 343.466859 138.464424 
L 343.546973 137.871586 
L 343.571372 138.464424 
L 343.597025 138.464424 
L 343.69678 137.871586 
L 343.821555 138.464424 
L 343.903601 138.464424 
L 343.930707 137.871586 
L 344.003631 138.464424 
L 344.078334 138.464424 
L 344.103303 137.871586 
L 344.176009 138.464424 
L 344.546726 138.464424 
L 344.645101 139.057261 
L 344.743479 138.464424 
L 344.840998 139.057261 
L 344.942479 138.464424 
L 344.990928 139.057261 
L 345.038899 138.464424 
L 345.063619 138.464424 
L 345.196995 139.057261 
L 345.293339 138.464424 
L 345.417392 139.057261 
L 345.441263 139.057261 
L 345.465131 138.464424 
L 345.536694 139.057261 
L 346.299756 139.057261 
L 346.419744 139.650098 
L 346.468288 139.650098 
L 346.591238 139.057261 
L 346.714246 139.650098 
L 347.983626 139.650098 
L 348.007499 140.242935 
L 348.080367 139.650098 
L 348.44807 139.650098 
L 348.498158 140.242935 
L 348.545982 139.650098 
L 348.864297 139.650098 
L 348.960084 140.242935 
L 349.081945 139.650098 
L 349.204883 140.242935 
L 349.253764 140.242935 
L 349.353851 139.650098 
L 349.453259 140.242935 
L 349.576046 139.650098 
L 349.698926 140.242935 
L 349.729824 140.242935 
L 349.850926 139.650098 
L 349.971247 140.242935 
L 351.413312 140.242935 
L 351.487228 140.835773 
L 351.511004 140.242935 
L 351.53572 140.242935 
L 351.65498 140.835773 
L 351.798797 140.835773 
L 351.918788 140.242935 
L 352.038509 140.835773 
L 352.133681 140.835773 
L 352.230316 142.021447 
L 352.350533 140.835773 
L 352.952088 140.835773 
L 353.07241 142.021447 
L 353.84577 142.021447 
L 353.922681 140.835773 
L 353.948438 142.021447 
L 353.972402 142.021447 
L 354.077377 140.835773 
L 354.198645 142.021447 
L 354.338308 140.835773 
L 354.363518 140.835773 
L 354.388008 142.021447 
L 354.466694 140.835773 
L 354.594946 140.835773 
L 354.621573 142.021447 
L 354.697005 140.835773 
L 354.747242 140.835773 
L 354.867658 142.021447 
L 354.89177 142.021447 
L 355.016303 140.835773 
L 355.065686 140.835773 
L 355.186067 142.021447 
L 355.212773 142.021447 
L 355.333137 140.835773 
L 355.598257 140.835773 
L 355.71858 140.242935 
L 355.943381 140.242935 
L 356.062605 139.650098 
L 356.11141 139.650098 
L 356.135511 140.242935 
L 356.207989 139.650098 
L 356.35877 139.650098 
L 356.385629 140.242935 
L 356.461855 139.650098 
L 356.53719 139.650098 
L 356.561992 139.057261 
L 356.634763 139.650098 
L 356.833464 139.650098 
L 356.857641 139.057261 
L 356.931373 139.650098 
L 356.980173 139.650098 
L 357.108436 139.057261 
L 357.232522 139.057261 
L 357.357702 138.464424 
L 357.612971 138.464424 
L 357.734822 137.871586 
L 357.905444 137.871586 
L 358.050453 136.685912 
L 358.170848 136.685912 
L 358.297242 137.278749 
L 358.423327 136.685912 
L 358.500551 136.685912 
L 358.643523 134.314563 
L 358.815707 133.128888 
L 358.843603 133.128888 
L 358.892284 132.536051 
L 358.943599 133.128888 
L 359.117233 133.128888 
L 359.217456 132.536051 
L 359.363323 133.721726 
L 359.617369 128.979027 
L 359.668923 132.536051 
L 359.724709 131.350376 
L 359.773412 130.164702 
L 359.797344 133.128888 
L 359.847271 129.571865 
L 359.923626 131.350376 
L 360.050205 132.536051 
L 360.173647 131.350376 
L 360.197505 131.943214 
L 360.22366 131.350376 
L 360.320297 130.164702 
L 360.454564 132.536051 
L 360.478394 132.536051 
L 360.55409 131.943214 
L 360.659883 134.9074 
L 360.686639 134.314563 
L 360.761171 134.9074 
L 361.031499 134.9074 
L 361.159118 131.943214 
L 361.191482 133.721726 
L 361.215436 133.721726 
L 361.239375 134.314563 
L 361.263963 128.38619 
L 361.33734 134.314563 
L 361.361248 134.314563 
L 361.387942 133.128888 
L 361.446059 134.9074 
L 361.470938 134.314563 
L 361.494807 134.314563 
L 361.518762 133.721726 
L 361.543489 134.9074 
L 361.592801 134.314563 
L 361.793007 134.314563 
L 361.91404 134.9074 
L 362.109896 134.9074 
L 362.229424 134.314563 
L 362.254276 134.314563 
L 362.342377 134.9074 
L 362.448262 134.314563 
L 362.882593 134.314563 
L 363.247969 131.350376 
L 363.367692 133.128888 
L 363.527183 131.350376 
L 363.57795 131.943214 
L 363.65492 131.350376 
L 363.729258 133.128888 
L 363.90291 129.571865 
L 364.030727 133.721726 
L 364.055723 131.943214 
L 364.123541 133.721726 
L 364.180221 132.536051 
L 364.288884 123.643492 
L 364.541952 129.571865 
L 364.580269 128.38619 
L 364.646488 131.943214 
L 364.704953 131.350376 
L 364.735506 129.571865 
L 364.877846 129.571865 
L 365.066816 132.536051 
L 365.131744 128.38619 
L 365.205065 128.979027 
L 365.23582 128.38619 
L 365.376035 130.164702 
L 365.408244 129.571865 
L 365.519862 128.38619 
L 365.705971 131.350376 
L 365.818478 129.571865 
L 365.845522 131.350376 
L 365.873353 128.979027 
L 365.898077 129.571865 
L 366.02073 128.979027 
L 366.047809 127.200516 
L 366.078401 128.38619 
L 366.164792 128.38619 
L 366.368196 130.164702 
L 366.494289 131.350376 
L 366.560443 131.350376 
L 366.595192 129.571865 
L 366.626924 130.164702 
L 366.757088 130.164702 
L 366.811724 129.571865 
L 366.836476 130.164702 
L 366.957777 130.164702 
L 366.984784 129.571865 
L 367.067237 130.164702 
L 367.148283 130.164702 
L 367.282649 129.571865 
L 367.373242 129.571865 
L 367.429802 130.164702 
L 367.455838 129.571865 
L 367.543907 130.164702 
L 367.57033 128.979027 
L 367.601741 131.350376 
L 367.638243 130.164702 
L 367.763371 129.571865 
L 367.862228 130.164702 
L 367.983808 127.793353 
L 368.036084 128.38619 
L 368.243715 131.943214 
L 368.352794 131.943214 
L 368.464075 131.350376 
L 368.568364 132.536051 
L 368.59496 131.943214 
L 368.628178 131.943214 
L 368.736809 132.536051 
L 368.789189 132.536051 
L 368.861706 133.128888 
L 368.886521 131.943214 
L 368.966772 133.128888 
L 369.544478 133.128888 
L 369.620351 131.943214 
L 369.646379 133.128888 
L 369.685844 133.128888 
L 369.74909 132.536051 
L 369.776009 133.128888 
L 369.987497 133.128888 
L 370.092936 131.350376 
L 370.117547 132.536051 
L 370.143633 132.536051 
L 370.167859 133.128888 
L 370.220938 131.943214 
L 370.352626 130.164702 
L 370.407476 130.164702 
L 370.486521 131.943214 
L 370.528493 131.350376 
L 370.797779 132.536051 
L 371.30579 132.536051 
L 371.549315 131.350376 
L 371.665584 131.350376 
L 371.791685 129.571865 
L 372.770584 129.571865 
L 372.868621 130.164702 
L 372.942901 129.571865 
L 372.966916 130.164702 
L 373.913663 130.164702 
L 373.938567 131.350376 
L 374.013743 130.164702 
L 374.03756 130.164702 
L 374.111971 131.350376 
L 374.135919 130.164702 
L 374.208842 130.164702 
L 374.305707 131.350376 
L 374.427007 130.164702 
L 374.556244 131.350376 
L 375.533119 131.350376 
L 375.656536 131.943214 
L 375.755268 131.350376 
L 375.880498 131.943214 
L 376.072332 131.943214 
L 376.170712 131.350376 
L 376.292252 131.943214 
L 376.436661 131.943214 
L 376.460691 131.350376 
L 376.533074 131.943214 
L 376.999962 131.943214 
L 377.079935 132.536051 
L 377.104566 131.943214 
L 377.177637 131.943214 
L 377.299552 132.536051 
L 377.831307 132.536051 
L 377.855223 133.128888 
L 377.92706 132.536051 
L 378.095062 132.536051 
L 378.214738 133.128888 
L 378.335174 132.536051 
L 378.366099 132.536051 
L 378.48643 133.128888 
L 378.51026 132.536051 
L 378.585762 133.128888 
L 379.145382 133.128888 
L 379.266598 133.721726 
L 379.338427 133.128888 
L 379.423922 133.128888 
L 379.547322 133.721726 
L 379.936161 133.721726 
L 379.960727 133.128888 
L 380.033974 133.721726 
L 381.076881 133.721726 
L 381.173161 134.314563 
L 381.196971 133.721726 
L 381.271606 134.314563 
L 382.057616 134.314563 
L 382.130802 134.9074 
L 382.15502 134.314563 
L 382.205585 134.314563 
L 382.30229 134.9074 
L 382.403521 134.314563 
L 382.526173 134.9074 
L 382.650638 134.314563 
L 382.774465 134.9074 
L 383.020153 134.9074 
L 383.043948 134.314563 
L 383.117278 134.9074 
L 383.481406 134.9074 
L 383.508822 136.093075 
L 383.581778 134.9074 
L 383.681056 134.9074 
L 383.807731 136.093075 
L 383.929091 134.9074 
L 384.050813 136.093075 
L 384.295891 136.093075 
L 384.416886 136.685912 
L 384.441491 136.685912 
L 384.56674 136.093075 
L 384.615489 136.093075 
L 384.692003 136.685912 
L 384.717046 136.093075 
L 384.817636 136.093075 
L 384.841931 136.685912 
L 384.915857 136.093075 
L 385.244076 136.093075 
L 385.32255 136.685912 
L 385.349388 136.093075 
L 385.475679 136.093075 
L 385.499711 136.685912 
L 385.576213 136.093075 
L 385.603694 136.093075 
L 385.654988 136.685912 
L 385.707312 136.093075 
L 385.828177 136.093075 
L 385.852245 136.685912 
L 385.924928 136.093075 
L 385.998843 136.093075 
L 386.022631 136.685912 
L 386.095028 136.093075 
L 386.142675 136.093075 
L 386.268204 136.685912 
L 386.855183 136.685912 
L 386.879913 136.093075 
L 386.954511 136.685912 
L 387.541368 136.685912 
L 387.665039 137.278749 
L 387.787022 136.685912 
L 389.11831 136.685912 
L 389.199591 136.093075 
L 389.223512 136.685912 
L 389.250257 136.685912 
L 389.352616 136.093075 
L 389.476629 136.685912 
L 389.525031 136.685912 
L 389.651397 136.093075 
L 389.747813 136.093075 
L 389.848917 134.9074 
L 389.896699 136.093075 
L 389.947704 134.9074 
L 390.149562 134.9074 
L 390.272433 134.314563 
L 390.296721 134.9074 
L 390.371515 134.314563 
L 390.69396 134.314563 
L 390.719028 133.721726 
L 390.793615 134.314563 
L 390.89188 134.314563 
L 391.015594 133.721726 
L 391.129832 133.721726 
L 391.249865 133.128888 
L 391.373778 133.128888 
L 391.496575 132.536051 
L 391.79183 132.536051 
L 391.816164 131.943214 
L 391.890074 132.536051 
L 392.075671 132.536051 
L 392.123638 131.943214 
L 392.172459 132.536051 
L 392.196339 132.536051 
L 392.422108 129.571865 
L 392.447071 129.571865 
L 392.570603 130.164702 
L 392.595194 130.164702 
L 392.742646 128.979027 
L 392.827804 129.571865 
L 392.852419 128.979027 
L 392.87622 128.979027 
L 392.99795 129.571865 
L 393.120199 128.979027 
L 393.268382 128.979027 
L 393.392851 128.38619 
L 393.544243 128.38619 
L 393.619714 128.979027 
L 393.67041 127.793353 
L 393.792241 128.38619 
L 393.841024 128.38619 
L 393.86604 127.793353 
L 393.916328 128.979027 
L 393.944077 128.979027 
L 394.092951 126.607678 
L 394.117269 127.200516 
L 394.262025 128.38619 
L 394.287178 127.793353 
L 394.36141 128.38619 
L 394.435272 128.38619 
L 394.459021 128.979027 
L 394.532311 128.38619 
L 394.556255 127.200516 
L 394.581322 128.979027 
L 394.633638 128.979027 
L 394.784074 130.164702 
L 394.947686 128.38619 
L 395.045987 129.571865 
L 395.191869 126.014841 
L 395.340917 128.979027 
L 395.415271 127.200516 
L 395.488453 127.793353 
L 395.537545 127.793353 
L 395.66262 129.571865 
L 395.762739 128.38619 
L 395.813225 129.571865 
L 395.862161 128.979027 
L 395.910268 128.38619 
L 395.935627 128.979027 
L 396.063281 130.164702 
L 396.188219 129.571865 
L 396.21398 130.164702 
L 396.262825 126.014841 
L 396.33849 127.793353 
L 396.387369 129.571865 
L 396.460436 128.979027 
L 396.511227 126.014841 
L 396.535393 130.164702 
L 396.633589 129.571865 
L 396.658123 129.571865 
L 396.7606 126.014841 
L 396.785412 129.571865 
L 396.884967 128.979027 
L 396.909164 128.979027 
L 396.932946 129.571865 
L 396.956967 124.236329 
L 397.053959 125.422004 
L 397.079144 126.014841 
L 397.104667 124.236329 
L 397.178579 123.643492 
L 397.202943 125.422004 
L 397.253035 122.457818 
L 397.278881 122.457818 
L 397.424093 120.679306 
L 397.700681 126.607678 
L 397.749595 126.014841 
L 397.773931 126.014841 
L 397.924423 127.200516 
L 397.948582 127.200516 
L 397.973396 127.793353 
L 397.999305 127.200516 
L 398.023188 126.014841 
L 398.047941 127.793353 
L 398.121321 126.607678 
L 398.194367 126.607678 
L 398.317935 126.014841 
L 398.441539 126.607678 
L 398.490164 126.607678 
L 398.541473 128.38619 
L 398.59174 127.200516 
L 398.691006 126.014841 
L 398.763491 128.38619 
L 398.811498 127.200516 
L 398.861236 126.607678 
L 398.911128 127.200516 
L 398.937048 127.200516 
L 399.083346 128.38619 
L 399.266302 124.236329 
L 399.29055 126.014841 
L 399.461719 128.38619 
L 399.582346 127.793353 
L 399.677959 128.38619 
L 399.798402 127.793353 
L 399.918282 128.38619 
L 399.965861 128.38619 
L 400.087917 128.979027 
L 400.112759 128.38619 
L 400.185106 128.979027 
L 400.232761 129.571865 
L 400.282556 128.979027 
L 400.331404 127.793353 
L 400.356769 124.236329 
L 400.431237 125.422004 
L 400.455446 127.793353 
L 400.528894 126.014841 
L 400.577057 126.014841 
L 400.676892 127.200516 
L 400.701891 126.607678 
L 400.725654 126.607678 
L 400.847243 127.200516 
L 400.872445 127.200516 
L 400.995697 127.793353 
L 401.019824 127.793353 
L 401.142179 126.014841 
L 401.166736 126.607678 
L 401.191845 126.607678 
L 401.243994 127.200516 
L 401.318025 125.422004 
L 401.447066 126.607678 
L 401.568695 127.200516 
L 401.739402 127.200516 
L 401.86266 127.793353 
L 402.034098 127.793353 
L 402.085692 128.38619 
L 402.136649 127.793353 
L 402.236156 127.793353 
L 402.361254 128.38619 
L 402.38538 128.38619 
L 402.409235 127.793353 
L 402.481283 128.38619 
L 402.554419 128.38619 
L 402.679236 128.979027 
L 402.879347 128.979027 
L 402.917835 128.38619 
L 402.950416 128.979027 
L 403.036369 128.979027 
L 403.230944 128.38619 
L 404.106008 128.38619 
L 404.170322 127.793353 
L 404.194303 128.38619 
L 404.452364 128.38619 
L 404.586266 128.979027 
L 404.635851 128.38619 
L 404.695024 128.979027 
L 404.720036 128.979027 
L 404.850136 128.38619 
L 404.877644 128.979027 
L 404.95378 128.38619 
L 404.980738 128.38619 
L 405.06242 128.979027 
L 405.0863 128.38619 
L 405.137767 128.38619 
L 405.162519 127.793353 
L 405.237498 128.38619 
L 405.439899 128.38619 
L 405.464092 127.793353 
L 405.538407 128.38619 
L 405.745966 128.38619 
L 405.770301 127.793353 
L 405.846231 128.38619 
L 406.961885 128.38619 
L 406.986549 128.979027 
L 407.065158 128.38619 
L 407.141334 128.38619 
L 407.227277 128.979027 
L 407.280928 128.38619 
L 407.333467 128.979027 
L 407.770681 128.979027 
L 407.874001 129.571865 
L 408.004956 128.979027 
L 408.284526 128.979027 
L 408.409812 129.571865 
L 408.433604 129.571865 
L 408.532072 128.979027 
L 408.653905 129.571865 
L 408.703321 128.979027 
L 408.751193 129.571865 
L 409.343536 129.571865 
L 409.368353 130.164702 
L 409.442689 129.571865 
L 409.73417 129.571865 
L 409.854565 130.164702 
L 409.9528 129.571865 
L 410.05076 131.350376 
L 410.074709 130.164702 
L 410.273049 130.164702 
L 410.296921 129.571865 
L 410.372102 130.164702 
L 410.919111 130.164702 
L 410.948783 131.350376 
L 411.023708 130.164702 
L 411.496387 130.164702 
L 411.522027 131.350376 
L 411.598686 130.164702 
L 411.623335 130.164702 
L 411.751657 131.350376 
L 412.152433 131.350376 
L 412.176968 130.164702 
L 412.226795 131.350376 
L 412.302531 130.164702 
L 412.327292 131.350376 
L 412.430755 131.350376 
L 412.552966 130.164702 
L 412.677676 131.350376 
L 412.99629 131.350376 
L 413.020138 131.943214 
L 413.091888 131.350376 
L 413.432623 131.350376 
L 413.530346 131.943214 
L 413.578757 131.350376 
L 413.627547 131.943214 
L 413.652093 131.943214 
L 413.727809 131.350376 
L 413.752169 131.943214 
L 413.825908 131.943214 
L 413.851517 131.350376 
L 413.925973 131.943214 
L 414.246355 131.943214 
L 414.343764 132.536051 
L 414.465077 131.943214 
L 415.319683 131.943214 
L 415.392835 132.536051 
L 415.41667 131.943214 
L 415.488777 131.943214 
L 415.611543 132.536051 
L 415.635822 132.536051 
L 415.660427 131.943214 
L 415.734004 132.536051 
L 416.052541 132.536051 
L 416.077332 131.943214 
L 416.149997 132.536051 
L 416.665057 132.536051 
L 416.786007 133.128888 
L 417.149309 133.128888 
L 417.272016 132.536051 
L 417.391385 133.128888 
L 417.466459 132.536051 
L 417.491914 133.128888 
L 417.515699 133.128888 
L 417.639146 132.536051 
L 417.689044 132.536051 
L 417.813386 133.128888 
L 417.887814 132.536051 
L 417.912364 133.128888 
L 418.106513 133.128888 
L 418.178882 132.536051 
L 418.2035 133.128888 
L 418.72035 133.128888 
L 418.817592 133.721726 
L 418.940792 133.128888 
L 419.110797 133.128888 
L 419.233294 132.536051 
L 420.242061 132.536051 
L 420.266295 131.943214 
L 420.341012 132.536051 
L 420.516709 132.536051 
L 420.543989 131.943214 
L 420.622614 132.536051 
L 420.723351 132.536051 
L 420.850348 131.943214 
L 420.879107 131.943214 
L 420.957394 132.536051 
L 420.983194 131.943214 
L 421.033363 131.943214 
L 421.082453 132.536051 
L 421.132046 131.943214 
L 421.26527 131.943214 
L 421.369636 132.536051 
L 421.500756 131.943214 
L 422.171493 131.943214 
L 422.196482 131.350376 
L 422.270454 131.943214 
L 422.32055 131.943214 
L 422.345483 131.350376 
L 422.41854 131.943214 
L 422.442563 131.943214 
L 422.567071 131.350376 
L 422.689047 131.943214 
L 422.814457 131.943214 
L 422.838265 132.536051 
L 422.911323 131.943214 
L 423.009334 131.350376 
L 423.133251 131.943214 
L 423.306702 131.943214 
L 423.382539 131.350376 
L 423.408876 131.943214 
L 424.008593 131.943214 
L 424.081079 131.350376 
L 424.106809 131.943214 
L 424.131061 131.943214 
L 424.251382 131.350376 
L 424.375245 131.943214 
L 424.399813 131.943214 
L 424.52152 131.350376 
L 424.942163 131.350376 
L 425.043147 130.164702 
L 425.066955 131.350376 
L 425.141231 130.164702 
L 425.599189 130.164702 
L 425.723085 129.571865 
L 425.84497 129.571865 
L 425.947916 128.979027 
L 426.068688 129.571865 
L 426.092456 129.571865 
L 426.215891 128.979027 
L 426.255103 128.979027 
L 426.352433 128.38619 
L 426.376473 128.979027 
L 426.455462 128.38619 
L 426.603094 128.979027 
L 426.726593 127.793353 
L 426.751576 128.38619 
L 426.827052 127.793353 
L 426.851133 127.200516 
L 426.923791 127.793353 
L 426.972445 127.793353 
L 426.997054 127.200516 
L 427.069257 127.793353 
L 427.094352 127.793353 
L 427.168187 127.200516 
L 427.192044 127.793353 
L 427.24078 127.793353 
L 427.315446 127.200516 
L 427.339248 127.793353 
L 427.388827 127.793353 
L 427.510954 127.200516 
L 427.535136 127.200516 
L 427.586653 127.793353 
L 427.635569 127.200516 
L 427.659366 127.200516 
L 427.758477 127.793353 
L 427.807688 127.200516 
L 427.856681 127.793353 
L 427.930181 127.793353 
L 428.05674 127.200516 
L 428.082706 127.793353 
L 428.133067 127.200516 
L 428.233301 125.422004 
L 428.281306 126.014841 
L 428.305859 126.014841 
L 428.405122 128.38619 
L 428.430551 127.793353 
L 428.456161 127.793353 
L 428.50397 123.643492 
L 428.554891 128.38619 
L 428.589668 128.38619 
L 428.615555 127.793353 
L 428.689208 128.38619 
L 428.71378 128.38619 
L 428.810881 128.979027 
L 428.862575 127.793353 
L 428.911793 128.38619 
L 429.035475 128.979027 
L 429.256701 128.979027 
L 429.329654 129.571865 
L 429.365667 128.979027 
L 429.439408 128.979027 
L 429.465726 129.571865 
L 429.489881 128.979027 
L 429.549567 125.422004 
L 429.597442 128.979027 
L 429.651501 128.979027 
L 429.751091 126.607678 
L 429.774991 128.38619 
L 429.80643 128.38619 
L 429.977679 124.236329 
L 430.001483 124.236329 
L 430.12407 126.014841 
L 430.148337 125.422004 
L 430.196994 126.014841 
L 430.295794 126.607678 
L 430.368832 125.422004 
L 430.417697 126.014841 
L 430.468582 128.38619 
L 430.516214 126.607678 
L 430.664089 123.643492 
L 430.69061 126.014841 
L 430.770516 124.236329 
L 430.917209 126.607678 
L 430.990239 126.607678 
L 431.01409 127.200516 
L 431.08699 126.607678 
L 431.11278 126.607678 
L 431.162055 126.014841 
L 431.211046 126.607678 
L 431.412303 126.607678 
L 431.541613 127.793353 
L 431.575455 127.200516 
L 431.575455 127.200516 
" style="fill:none;stroke:#1f77b4;stroke-linecap:square;stroke-width:1.5;"/>
   </g>
   <g id="line2d_28">
    <path clip-path="url(#p013e9592ac)" d="M 63.084545 184.112893 
L 65.322978 184.112893 
L 65.44709 160.992239 
L 67.87486 160.992239 
L 67.995988 167.513449 
L 69.590574 167.513449 
L 69.711035 178.777357 
L 70.523566 178.777357 
L 70.643424 190.634102 
L 71.178834 190.634102 
L 132.618377 107.636886 
L 135.818773 107.636886 
L 135.916824 119.493631 
L 137.292233 119.493631 
L 137.414653 130.757539 
L 138.636651 130.757539 
L 138.758055 160.992239 
L 140.591163 160.992239 
L 140.712747 178.777357 
L 141.392811 178.777357 
L 237.607854 114.158096 
L 238.413918 114.158096 
L 238.536551 137.278749 
L 239.752216 137.278749 
L 239.875778 160.992239 
L 242.553084 160.992239 
L 242.675518 172.848985 
L 245.313569 172.848985 
L 245.434636 178.777357 
L 247.050145 178.777357 
L 247.171076 184.112893 
L 248.136089 184.112893 
L 248.261486 195.969638 
L 249.380817 195.969638 
L 249.500567 202.490848 
L 250.222979 202.490848 
L 250.351963 191.819777 
L 250.843663 191.819777 
L 250.965293 195.969638 
L 252.07619 195.969638 
L 252.211855 190.634102 
L 255.553255 190.634102 
L 255.704841 191.819777 
L 256.412887 191.819777 
L 256.546488 190.634102 
L 257.67719 190.634102 
L 257.800931 184.112893 
L 260.460078 184.112893 
L 260.582178 178.777357 
L 261.998237 178.777357 
L 262.121341 172.848985 
L 262.850685 172.848985 
L 262.973393 170.477636 
L 263.215916 170.477636 
L 263.348763 167.513449 
L 266.041561 167.513449 
L 266.164251 160.992239 
L 270.471966 160.992239 
L 270.594689 170.477636 
L 271.809337 170.477636 
L 271.942308 172.848985 
L 272.792017 172.848985 
L 272.91665 170.477636 
L 273.040691 170.477636 
L 273.17335 172.848985 
L 276.652861 172.848985 
L 276.77525 170.477636 
L 277.140916 170.477636 
L 277.263537 172.848985 
L 278.495064 172.848985 
L 278.617236 178.777357 
L 279.232163 178.777357 
L 279.357196 191.819777 
L 279.942148 191.819777 
L 280.066043 195.969638 
L 280.294644 195.969638 
L 280.416928 202.490848 
L 285.951663 202.490848 
L 286.076789 191.819777 
L 287.182618 191.819777 
L 287.303928 202.490848 
L 288.291366 202.490848 
L 288.40891 190.634102 
L 289.617694 190.634102 
L 289.765996 184.112893 
L 290.239817 184.112893 
L 290.359137 181.148706 
L 290.961053 181.148706 
L 291.08878 178.777357 
L 292.827689 178.777357 
L 292.948955 172.848985 
L 293.786952 172.848985 
L 293.910042 167.513449 
L 295.118865 167.513449 
L 295.232457 172.848985 
L 296.449055 172.848985 
L 296.601408 160.992239 
L 299.45586 160.992239 
L 299.589595 155.656704 
L 303.441675 155.656704 
L 303.613597 160.992239 
L 304.677022 160.992239 
L 304.789538 184.112893 
L 306.395887 184.112893 
L 306.531645 195.969638 
L 307.758475 195.969638 
L 307.885042 214.347593 
L 309.37751 214.347593 
L 309.4969 223.832989 
L 311.217628 223.832989 
L 311.337529 234.50406 
L 313.529449 234.50406 
L 313.651315 223.832989 
L 314.873068 223.832989 
L 314.993768 226.204338 
L 316.557352 226.204338 
L 316.677209 223.832989 
L 317.161841 223.832989 
L 317.284302 226.204338 
L 319.478303 226.204338 
L 319.600478 232.132711 
L 323.54132 232.132711 
L 323.664457 223.832989 
L 324.939377 223.832989 
L 325.065903 213.161918 
L 326.490077 213.161918 
L 326.604871 181.148706 
L 327.121726 181.148706 
L 327.245395 172.848985 
L 328.448025 172.848985 
L 328.5792 137.278749 
L 329.760204 137.278749 
L 329.884228 114.158096 
L 331.352669 114.158096 
L 331.486037 102.301351 
L 332.653121 102.301351 
L 332.788124 89.258931 
L 333.986894 89.258931 
L 334.106411 95.780141 
L 335.205515 95.780141 
L 335.342155 107.636886 
L 337.872526 107.636886 
L 338.003914 125.422004 
L 338.222528 125.422004 
L 338.359437 155.656704 
L 339.944493 155.656704 
L 340.060169 167.513449 
L 340.816702 167.513449 
L 340.947232 172.848985 
L 342.159699 172.848985 
L 342.30007 184.112893 
L 343.621756 184.112893 
L 343.747258 190.634102 
L 345.196995 190.634102 
L 345.318059 202.490848 
L 345.928742 202.490848 
L 346.052237 223.832989 
L 346.789407 223.832989 
L 346.912167 214.347593 
L 347.157499 214.347593 
L 347.27742 223.832989 
L 349.081945 223.832989 
L 349.204883 226.204338 
L 349.801712 226.204338 
L 349.92264 223.832989 
L 350.531151 223.832989 
L 350.652592 237.468246 
L 352.592056 237.468246 
L 352.713214 245.17513 
L 352.832712 245.17513 
L 352.952088 234.50406 
L 353.199551 234.50406 
L 353.319912 237.468246 
L 354.867658 237.468246 
L 354.992516 214.347593 
L 356.207989 214.347593 
L 356.334082 190.634102 
L 357.661617 190.634102 
L 357.783816 149.135494 
L 358.968423 149.135494 
L 359.093347 114.158096 
L 360.295642 114.158096 
L 360.428681 83.923396 
L 361.720303 83.923396 
L 361.841671 66.138278 
L 363.154216 66.138278 
L 363.280302 54.281533 
L 364.45515 54.281533 
L 364.580269 35.903578 
L 365.924137 35.903578 
L 366.078401 42.424787 
L 368.494734 42.424787 
L 368.651986 72.06665 
L 369.933325 72.06665 
L 370.068146 95.780141 
L 371.330437 95.780141 
L 371.475122 125.422004 
L 373.889863 125.422004 
L 374.013743 137.278749 
L 374.135919 137.278749 
L 374.25787 155.656704 
L 375.45652 155.656704 
L 375.580785 172.848985 
L 377.855223 172.848985 
L 377.974658 184.112893 
L 378.561313 184.112893 
L 378.682195 190.634102 
L 380.009232 190.634102 
L 380.134105 195.969638 
L 381.837923 195.969638 
L 381.959696 213.161918 
L 382.452773 213.161918 
L 382.576102 202.490848 
L 383.189041 202.490848 
L 383.309839 213.161918 
L 384.765399 213.161918 
L 384.89195 223.832989 
L 385.141304 223.832989 
L 385.271414 209.012057 
L 385.603694 209.012057 
L 385.731946 213.161918 
L 386.292084 213.161918 
L 386.416422 234.50406 
L 386.658401 234.50406 
L 386.780705 226.204338 
L 387.028864 226.204338 
L 387.154042 223.832989 
L 388.011654 223.832989 
L 388.138692 202.490848 
L 389.427543 202.490848 
L 389.549978 184.112893 
L 390.793615 184.112893 
L 390.916657 155.656704 
L 393.216967 155.656704 
L 393.341339 119.493631 
L 393.468714 119.493631 
L 393.591862 95.780141 
L 395.045987 95.780141 
L 395.167182 77.402186 
L 396.287526 77.402186 
L 396.411247 66.138278 
L 398.641429 66.138278 
L 398.763491 54.281533 
L 401.342634 54.281533 
L 401.470952 60.802743 
L 401.714754 60.802743 
L 401.838489 83.923396 
L 403.181381 83.923396 
L 403.30887 102.301351 
L 404.560202 102.301351 
L 404.695024 125.422004 
L 405.895252 125.422004 
L 406.018987 137.278749 
L 407.541302 137.278749 
L 407.665803 149.135494 
L 408.82523 149.135494 
L 408.946686 155.656704 
L 411.023708 155.656704 
L 411.146808 167.513449 
L 411.398934 167.513449 
L 411.522027 184.112893 
L 413.2133 184.112893 
L 413.335111 195.969638 
L 414.319838 195.969638 
L 414.44125 202.490848 
L 415.660427 202.490848 
L 415.783038 209.012057 
L 417.491914 209.012057 
L 417.614049 220.868803 
L 419.207841 220.868803 
L 419.330841 213.161918 
L 422.146098 213.161918 
L 422.270454 202.490848 
L 423.508668 202.490848 
L 423.634877 184.112893 
L 423.984228 184.112893 
L 424.106809 167.513449 
L 427.659366 167.513449 
L 427.782326 125.422004 
L 429.011597 125.422004 
L 429.133864 107.636886 
L 430.842935 107.636886 
L 430.965662 102.301351 
L 431.575455 102.301351 
L 431.575455 102.301351 
" style="fill:none;stroke:#ff7f0e;stroke-linecap:square;stroke-width:1.5;"/>
   </g>
   <g id="patch_3">
    <path d="M 44.66 255.638708 
L 44.66 25.44 
" style="fill:none;stroke:#000000;stroke-linecap:square;stroke-linejoin:miter;stroke-width:0.8;"/>
   </g>
   <g id="patch_4">
    <path d="M 450 255.638708 
L 450 25.44 
" style="fill:none;stroke:#000000;stroke-linecap:square;stroke-linejoin:miter;stroke-width:0.8;"/>
   </g>
   <g id="patch_5">
    <path d="M 44.66 255.638708 
L 450 255.638708 
" style="fill:none;stroke:#000000;stroke-linecap:square;stroke-linejoin:miter;stroke-width:0.8;"/>
   </g>
   <g id="patch_6">
    <path d="M 44.66 25.44 
L 450 25.44 
" style="fill:none;stroke:#000000;stroke-linecap:square;stroke-linejoin:miter;stroke-width:0.8;"/>
   </g>
   <g id="text_16">
    <!-- Lake Shoecraft - Water and Air Temperature -->
    <g transform="translate(115.711562 19.44)scale(0.12 -0.12)">
     <defs>
      <path d="M 9.8125 72.90625 
L 19.671875 72.90625 
L 19.671875 8.296875 
L 55.171875 8.296875 
L 55.171875 0 
L 9.8125 0 
z
" id="DejaVuSans-76"/>
      <path d="M 9.078125 75.984375 
L 18.109375 75.984375 
L 18.109375 31.109375 
L 44.921875 54.6875 
L 56.390625 54.6875 
L 27.390625 29.109375 
L 57.625 0 
L 45.90625 0 
L 18.109375 26.703125 
L 18.109375 0 
L 9.078125 0 
z
" id="DejaVuSans-107"/>
      <path d="M 53.515625 70.515625 
L 53.515625 60.890625 
Q 47.90625 63.578125 42.921875 64.890625 
Q 37.9375 66.21875 33.296875 66.21875 
Q 25.25 66.21875 20.875 63.09375 
Q 16.5 59.96875 16.5 54.203125 
Q 16.5 49.359375 19.40625 46.890625 
Q 22.3125 44.4375 30.421875 42.921875 
L 36.375 41.703125 
Q 47.40625 39.59375 52.65625 34.296875 
Q 57.90625 29 57.90625 20.125 
Q 57.90625 9.515625 50.796875 4.046875 
Q 43.703125 -1.421875 29.984375 -1.421875 
Q 24.8125 -1.421875 18.96875 -0.25 
Q 13.140625 0.921875 6.890625 3.21875 
L 6.890625 13.375 
Q 12.890625 10.015625 18.65625 8.296875 
Q 24.421875 6.59375 29.984375 6.59375 
Q 38.421875 6.59375 43.015625 9.90625 
Q 47.609375 13.234375 47.609375 19.390625 
Q 47.609375 24.75 44.3125 27.78125 
Q 41.015625 30.8125 33.5 32.328125 
L 27.484375 33.5 
Q 16.453125 35.6875 11.515625 40.375 
Q 6.59375 45.0625 6.59375 53.421875 
Q 6.59375 63.09375 13.40625 68.65625 
Q 20.21875 74.21875 32.171875 74.21875 
Q 37.3125 74.21875 42.625 73.28125 
Q 47.953125 72.359375 53.515625 70.515625 
z
" id="DejaVuSans-83"/>
      <path d="M 54.890625 33.015625 
L 54.890625 0 
L 45.90625 0 
L 45.90625 32.71875 
Q 45.90625 40.484375 42.875 44.328125 
Q 39.84375 48.1875 33.796875 48.1875 
Q 26.515625 48.1875 22.3125 43.546875 
Q 18.109375 38.921875 18.109375 30.90625 
L 18.109375 0 
L 9.078125 0 
L 9.078125 75.984375 
L 18.109375 75.984375 
L 18.109375 46.1875 
Q 21.34375 51.125 25.703125 53.5625 
Q 30.078125 56 35.796875 56 
Q 45.21875 56 50.046875 50.171875 
Q 54.890625 44.34375 54.890625 33.015625 
z
" id="DejaVuSans-104"/>
      <path d="M 30.609375 48.390625 
Q 23.390625 48.390625 19.1875 42.75 
Q 14.984375 37.109375 14.984375 27.296875 
Q 14.984375 17.484375 19.15625 11.84375 
Q 23.34375 6.203125 30.609375 6.203125 
Q 37.796875 6.203125 41.984375 11.859375 
Q 46.1875 17.53125 46.1875 27.296875 
Q 46.1875 37.015625 41.984375 42.703125 
Q 37.796875 48.390625 30.609375 48.390625 
z
M 30.609375 56 
Q 42.328125 56 49.015625 48.375 
Q 55.71875 40.765625 55.71875 27.296875 
Q 55.71875 13.875 49.015625 6.21875 
Q 42.328125 -1.421875 30.609375 -1.421875 
Q 18.84375 -1.421875 12.171875 6.21875 
Q 5.515625 13.875 5.515625 27.296875 
Q 5.515625 40.765625 12.171875 48.375 
Q 18.84375 56 30.609375 56 
z
" id="DejaVuSans-111"/>
      <path d="M 48.78125 52.59375 
L 48.78125 44.1875 
Q 44.96875 46.296875 41.140625 47.34375 
Q 37.3125 48.390625 33.40625 48.390625 
Q 24.65625 48.390625 19.8125 42.84375 
Q 14.984375 37.3125 14.984375 27.296875 
Q 14.984375 17.28125 19.8125 11.734375 
Q 24.65625 6.203125 33.40625 6.203125 
Q 37.3125 6.203125 41.140625 7.25 
Q 44.96875 8.296875 48.78125 10.40625 
L 48.78125 2.09375 
Q 45.015625 0.34375 40.984375 -0.53125 
Q 36.96875 -1.421875 32.421875 -1.421875 
Q 20.0625 -1.421875 12.78125 6.34375 
Q 5.515625 14.109375 5.515625 27.296875 
Q 5.515625 40.671875 12.859375 48.328125 
Q 20.21875 56 33.015625 56 
Q 37.15625 56 41.109375 55.140625 
Q 45.0625 54.296875 48.78125 52.59375 
z
" id="DejaVuSans-99"/>
      <path d="M 37.109375 75.984375 
L 37.109375 68.5 
L 28.515625 68.5 
Q 23.6875 68.5 21.796875 66.546875 
Q 19.921875 64.59375 19.921875 59.515625 
L 19.921875 54.6875 
L 34.71875 54.6875 
L 34.71875 47.703125 
L 19.921875 47.703125 
L 19.921875 0 
L 10.890625 0 
L 10.890625 47.703125 
L 2.296875 47.703125 
L 2.296875 54.6875 
L 10.890625 54.6875 
L 10.890625 58.5 
Q 10.890625 67.625 15.140625 71.796875 
Q 19.390625 75.984375 28.609375 75.984375 
z
" id="DejaVuSans-102"/>
      <path d="M 3.328125 72.90625 
L 13.28125 72.90625 
L 28.609375 11.28125 
L 43.890625 72.90625 
L 54.984375 72.90625 
L 70.3125 11.28125 
L 85.59375 72.90625 
L 95.609375 72.90625 
L 77.296875 0 
L 64.890625 0 
L 49.515625 63.28125 
L 33.984375 0 
L 21.578125 0 
z
" id="DejaVuSans-87"/>
      <path d="M 54.890625 33.015625 
L 54.890625 0 
L 45.90625 0 
L 45.90625 32.71875 
Q 45.90625 40.484375 42.875 44.328125 
Q 39.84375 48.1875 33.796875 48.1875 
Q 26.515625 48.1875 22.3125 43.546875 
Q 18.109375 38.921875 18.109375 30.90625 
L 18.109375 0 
L 9.078125 0 
L 9.078125 54.6875 
L 18.109375 54.6875 
L 18.109375 46.1875 
Q 21.34375 51.125 25.703125 53.5625 
Q 30.078125 56 35.796875 56 
Q 45.21875 56 50.046875 50.171875 
Q 54.890625 44.34375 54.890625 33.015625 
z
" id="DejaVuSans-110"/>
      <path d="M 45.40625 46.390625 
L 45.40625 75.984375 
L 54.390625 75.984375 
L 54.390625 0 
L 45.40625 0 
L 45.40625 8.203125 
Q 42.578125 3.328125 38.25 0.953125 
Q 33.9375 -1.421875 27.875 -1.421875 
Q 17.96875 -1.421875 11.734375 6.484375 
Q 5.515625 14.40625 5.515625 27.296875 
Q 5.515625 40.1875 11.734375 48.09375 
Q 17.96875 56 27.875 56 
Q 33.9375 56 38.25 53.625 
Q 42.578125 51.265625 45.40625 46.390625 
z
M 14.796875 27.296875 
Q 14.796875 17.390625 18.875 11.75 
Q 22.953125 6.109375 30.078125 6.109375 
Q 37.203125 6.109375 41.296875 11.75 
Q 45.40625 17.390625 45.40625 27.296875 
Q 45.40625 37.203125 41.296875 42.84375 
Q 37.203125 48.484375 30.078125 48.484375 
Q 22.953125 48.484375 18.875 42.84375 
Q 14.796875 37.203125 14.796875 27.296875 
z
" id="DejaVuSans-100"/>
      <path d="M 34.1875 63.1875 
L 20.796875 26.90625 
L 47.609375 26.90625 
z
M 28.609375 72.90625 
L 39.796875 72.90625 
L 67.578125 0 
L 57.328125 0 
L 50.6875 18.703125 
L 17.828125 18.703125 
L 11.1875 0 
L 0.78125 0 
z
" id="DejaVuSans-65"/>
      <path d="M 9.421875 54.6875 
L 18.40625 54.6875 
L 18.40625 0 
L 9.421875 0 
z
M 9.421875 75.984375 
L 18.40625 75.984375 
L 18.40625 64.59375 
L 9.421875 64.59375 
z
" id="DejaVuSans-105"/>
     </defs>
     <use xlink:href="#DejaVuSans-76"/>
     <use x="55.712891" xlink:href="#DejaVuSans-97"/>
     <use x="116.992188" xlink:href="#DejaVuSans-107"/>
     <use x="171.277344" xlink:href="#DejaVuSans-101"/>
     <use x="232.800781" xlink:href="#DejaVuSans-32"/>
     <use x="264.587891" xlink:href="#DejaVuSans-83"/>
     <use x="328.064453" xlink:href="#DejaVuSans-104"/>
     <use x="391.443359" xlink:href="#DejaVuSans-111"/>
     <use x="452.625" xlink:href="#DejaVuSans-101"/>
     <use x="514.148438" xlink:href="#DejaVuSans-99"/>
     <use x="569.128906" xlink:href="#DejaVuSans-114"/>
     <use x="610.242188" xlink:href="#DejaVuSans-97"/>
     <use x="671.521484" xlink:href="#DejaVuSans-102"/>
     <use x="704.976562" xlink:href="#DejaVuSans-116"/>
     <use x="744.185547" xlink:href="#DejaVuSans-32"/>
     <use x="775.972656" xlink:href="#DejaVuSans-45"/>
     <use x="812.056641" xlink:href="#DejaVuSans-32"/>
     <use x="843.84375" xlink:href="#DejaVuSans-87"/>
     <use x="936.345703" xlink:href="#DejaVuSans-97"/>
     <use x="997.625" xlink:href="#DejaVuSans-116"/>
     <use x="1036.833984" xlink:href="#DejaVuSans-101"/>
     <use x="1098.357422" xlink:href="#DejaVuSans-114"/>
     <use x="1139.470703" xlink:href="#DejaVuSans-32"/>
     <use x="1171.257812" xlink:href="#DejaVuSans-97"/>
     <use x="1232.537109" xlink:href="#DejaVuSans-110"/>
     <use x="1295.916016" xlink:href="#DejaVuSans-100"/>
     <use x="1359.392578" xlink:href="#DejaVuSans-32"/>
     <use x="1391.179688" xlink:href="#DejaVuSans-65"/>
     <use x="1459.587891" xlink:href="#DejaVuSans-105"/>
     <use x="1487.371094" xlink:href="#DejaVuSans-114"/>
     <use x="1528.484375" xlink:href="#DejaVuSans-32"/>
     <use x="1560.271484" xlink:href="#DejaVuSans-84"/>
     <use x="1604.355469" xlink:href="#DejaVuSans-101"/>
     <use x="1665.878906" xlink:href="#DejaVuSans-109"/>
     <use x="1763.291016" xlink:href="#DejaVuSans-112"/>
     <use x="1826.767578" xlink:href="#DejaVuSans-101"/>
     <use x="1888.291016" xlink:href="#DejaVuSans-114"/>
     <use x="1929.404297" xlink:href="#DejaVuSans-97"/>
     <use x="1990.683594" xlink:href="#DejaVuSans-116"/>
     <use x="2029.892578" xlink:href="#DejaVuSans-117"/>
     <use x="2093.271484" xlink:href="#DejaVuSans-114"/>
     <use x="2132.134766" xlink:href="#DejaVuSans-101"/>
    </g>
   </g>
   <g id="legend_1">
    <g id="patch_7">
     <path d="M 51.66 62.79625 
L 136.769375 62.79625 
Q 138.769375 62.79625 138.769375 60.79625 
L 138.769375 32.44 
Q 138.769375 30.44 136.769375 30.44 
L 51.66 30.44 
Q 49.66 30.44 49.66 32.44 
L 49.66 60.79625 
Q 49.66 62.79625 51.66 62.79625 
z
" style="fill:#ffffff;opacity:0.8;stroke:#cccccc;stroke-linejoin:miter;"/>
    </g>
    <g id="line2d_29">
     <path d="M 53.66 38.538437 
L 73.66 38.538437 
" style="fill:none;stroke:#1f77b4;stroke-linecap:square;stroke-width:1.5;"/>
    </g>
    <g id="line2d_30"/>
    <g id="text_17">
     <!-- Lake Temp -->
     <g transform="translate(81.66 42.038437)scale(0.1 -0.1)">
      <use xlink:href="#DejaVuSans-76"/>
      <use x="55.712891" xlink:href="#DejaVuSans-97"/>
      <use x="116.992188" xlink:href="#DejaVuSans-107"/>
      <use x="171.277344" xlink:href="#DejaVuSans-101"/>
      <use x="232.800781" xlink:href="#DejaVuSans-32"/>
      <use x="264.587891" xlink:href="#DejaVuSans-84"/>
      <use x="308.671875" xlink:href="#DejaVuSans-101"/>
      <use x="370.195312" xlink:href="#DejaVuSans-109"/>
      <use x="467.607422" xlink:href="#DejaVuSans-112"/>
     </g>
    </g>
    <g id="line2d_31">
     <path d="M 53.66 53.216562 
L 73.66 53.216562 
" style="fill:none;stroke:#ff7f0e;stroke-linecap:square;stroke-width:1.5;"/>
    </g>
    <g id="line2d_32"/>
    <g id="text_18">
     <!-- Air Temp -->
     <g transform="translate(81.66 56.716562)scale(0.1 -0.1)">
      <use xlink:href="#DejaVuSans-65"/>
      <use x="68.408203" xlink:href="#DejaVuSans-105"/>
      <use x="96.191406" xlink:href="#DejaVuSans-114"/>
      <use x="137.304688" xlink:href="#DejaVuSans-32"/>
      <use x="169.091797" xlink:href="#DejaVuSans-84"/>
      <use x="213.175781" xlink:href="#DejaVuSans-101"/>
      <use x="274.699219" xlink:href="#DejaVuSans-109"/>
      <use x="372.111328" xlink:href="#DejaVuSans-112"/>
     </g>
    </g>
   </g>
  </g>
 </g>
 <defs>
  <clipPath id="p013e9592ac">
   <rect height="230.198708" width="405.34" x="44.66" y="25.44"/>
  </clipPath>
 </defs>
</svg>
