<?xml version="1.0" encoding="utf-8" standalone="no"?>
<!DOCTYPE svg PUBLIC "-//W3C//DTD SVG 1.1//EN"
  "http://www.w3.org/Graphics/SVG/1.1/DTD/svg11.dtd">
<!-- Created with matplotlib (https://matplotlib.org/) -->
<svg height="345.6pt" version="1.1" viewBox="0 0 460.8 345.6" width="460.8pt" xmlns="http://www.w3.org/2000/svg" xmlns:xlink="http://www.w3.org/1999/xlink">
 <metadata>
  <rdf:RDF xmlns:cc="http://creativecommons.org/ns#" xmlns:dc="http://purl.org/dc/elements/1.1/" xmlns:rdf="http://www.w3.org/1999/02/22-rdf-syntax-ns#">
   <cc:Work>
    <dc:type rdf:resource="http://purl.org/dc/dcmitype/StillImage"/>
    <dc:date>2024-09-07T18:58:43.880588</dc:date>
    <dc:format>image/svg+xml</dc:format>
    <dc:creator>
     <cc:Agent>
      <dc:title>Matplotlib v3.3.2, https://matplotlib.org/</dc:title>
     </cc:Agent>
    </dc:creator>
   </cc:Work>
  </rdf:RDF>
 </metadata>
 <defs>
  <style type="text/css">*{stroke-linecap:butt;stroke-linejoin:round;}</style>
 </defs>
 <g id="figure_1">
  <g id="patch_1">
   <path d="M 0 345.6 
L 460.8 345.6 
L 460.8 0 
L 0 0 
z
" style="fill:none;"/>
  </g>
  <g id="axes_1">
   <g id="patch_2">
    <path d="M 44.66 255.638708 
L 450 255.638708 
L 450 25.44 
L 44.66 25.44 
z
" style="fill:none;"/>
   </g>
   <g id="matplotlib.axis_1">
    <g id="xtick_1">
     <g id="line2d_1">
      <path clip-path="url(#p6e51c20a4d)" d="M 109.849205 255.638708 
L 109.849205 25.44 
" style="fill:none;stroke:#b0b0b0;stroke-linecap:square;stroke-width:0.8;"/>
     </g>
     <g id="line2d_2">
      <defs>
       <path d="M 0 0 
L 0 3.5 
" id="m02de5b4f37" style="stroke:#000000;stroke-width:0.8;"/>
      </defs>
      <g>
       <use style="stroke:#000000;stroke-width:0.8;" x="109.849205" xlink:href="#m02de5b4f37" y="255.638708"/>
      </g>
     </g>
     <g id="text_1">
      <!-- 2024-08-29 -->
      <g transform="translate(102.503812 319.848351)rotate(-70)scale(0.1 -0.1)">
       <defs>
        <path d="M 19.1875 8.296875 
L 53.609375 8.296875 
L 53.609375 0 
L 7.328125 0 
L 7.328125 8.296875 
Q 12.9375 14.109375 22.625 23.890625 
Q 32.328125 33.6875 34.8125 36.53125 
Q 39.546875 41.84375 41.421875 45.53125 
Q 43.3125 49.21875 43.3125 52.78125 
Q 43.3125 58.59375 39.234375 62.25 
Q 35.15625 65.921875 28.609375 65.921875 
Q 23.96875 65.921875 18.8125 64.3125 
Q 13.671875 62.703125 7.8125 59.421875 
L 7.8125 69.390625 
Q 13.765625 71.78125 18.9375 73 
Q 24.125 74.21875 28.421875 74.21875 
Q 39.75 74.21875 46.484375 68.546875 
Q 53.21875 62.890625 53.21875 53.421875 
Q 53.21875 48.921875 51.53125 44.890625 
Q 49.859375 40.875 45.40625 35.40625 
Q 44.1875 33.984375 37.640625 27.21875 
Q 31.109375 20.453125 19.1875 8.296875 
z
" id="DejaVuSans-50"/>
        <path d="M 31.78125 66.40625 
Q 24.171875 66.40625 20.328125 58.90625 
Q 16.5 51.421875 16.5 36.375 
Q 16.5 21.390625 20.328125 13.890625 
Q 24.171875 6.390625 31.78125 6.390625 
Q 39.453125 6.390625 43.28125 13.890625 
Q 47.125 21.390625 47.125 36.375 
Q 47.125 51.421875 43.28125 58.90625 
Q 39.453125 66.40625 31.78125 66.40625 
z
M 31.78125 74.21875 
Q 44.046875 74.21875 50.515625 64.515625 
Q 56.984375 54.828125 56.984375 36.375 
Q 56.984375 17.96875 50.515625 8.265625 
Q 44.046875 -1.421875 31.78125 -1.421875 
Q 19.53125 -1.421875 13.0625 8.265625 
Q 6.59375 17.96875 6.59375 36.375 
Q 6.59375 54.828125 13.0625 64.515625 
Q 19.53125 74.21875 31.78125 74.21875 
z
" id="DejaVuSans-48"/>
        <path d="M 37.796875 64.3125 
L 12.890625 25.390625 
L 37.796875 25.390625 
z
M 35.203125 72.90625 
L 47.609375 72.90625 
L 47.609375 25.390625 
L 58.015625 25.390625 
L 58.015625 17.1875 
L 47.609375 17.1875 
L 47.609375 0 
L 37.796875 0 
L 37.796875 17.1875 
L 4.890625 17.1875 
L 4.890625 26.703125 
z
" id="DejaVuSans-52"/>
        <path d="M 4.890625 31.390625 
L 31.203125 31.390625 
L 31.203125 23.390625 
L 4.890625 23.390625 
z
" id="DejaVuSans-45"/>
        <path d="M 31.78125 34.625 
Q 24.75 34.625 20.71875 30.859375 
Q 16.703125 27.09375 16.703125 20.515625 
Q 16.703125 13.921875 20.71875 10.15625 
Q 24.75 6.390625 31.78125 6.390625 
Q 38.8125 6.390625 42.859375 10.171875 
Q 46.921875 13.96875 46.921875 20.515625 
Q 46.921875 27.09375 42.890625 30.859375 
Q 38.875 34.625 31.78125 34.625 
z
M 21.921875 38.8125 
Q 15.578125 40.375 12.03125 44.71875 
Q 8.5 49.078125 8.5 55.328125 
Q 8.5 64.0625 14.71875 69.140625 
Q 20.953125 74.21875 31.78125 74.21875 
Q 42.671875 74.21875 48.875 69.140625 
Q 55.078125 64.0625 55.078125 55.328125 
Q 55.078125 49.078125 51.53125 44.71875 
Q 48 40.375 41.703125 38.8125 
Q 48.828125 37.15625 52.796875 32.3125 
Q 56.78125 27.484375 56.78125 20.515625 
Q 56.78125 9.90625 50.3125 4.234375 
Q 43.84375 -1.421875 31.78125 -1.421875 
Q 19.734375 -1.421875 13.25 4.234375 
Q 6.78125 9.90625 6.78125 20.515625 
Q 6.78125 27.484375 10.78125 32.3125 
Q 14.796875 37.15625 21.921875 38.8125 
z
M 18.3125 54.390625 
Q 18.3125 48.734375 21.84375 45.5625 
Q 25.390625 42.390625 31.78125 42.390625 
Q 38.140625 42.390625 41.71875 45.5625 
Q 45.3125 48.734375 45.3125 54.390625 
Q 45.3125 60.0625 41.71875 63.234375 
Q 38.140625 66.40625 31.78125 66.40625 
Q 25.390625 66.40625 21.84375 63.234375 
Q 18.3125 60.0625 18.3125 54.390625 
z
" id="DejaVuSans-56"/>
        <path d="M 10.984375 1.515625 
L 10.984375 10.5 
Q 14.703125 8.734375 18.5 7.8125 
Q 22.3125 6.890625 25.984375 6.890625 
Q 35.75 6.890625 40.890625 13.453125 
Q 46.046875 20.015625 46.78125 33.40625 
Q 43.953125 29.203125 39.59375 26.953125 
Q 35.25 24.703125 29.984375 24.703125 
Q 19.046875 24.703125 12.671875 31.3125 
Q 6.296875 37.9375 6.296875 49.421875 
Q 6.296875 60.640625 12.9375 67.421875 
Q 19.578125 74.21875 30.609375 74.21875 
Q 43.265625 74.21875 49.921875 64.515625 
Q 56.59375 54.828125 56.59375 36.375 
Q 56.59375 19.140625 48.40625 8.859375 
Q 40.234375 -1.421875 26.421875 -1.421875 
Q 22.703125 -1.421875 18.890625 -0.6875 
Q 15.09375 0.046875 10.984375 1.515625 
z
M 30.609375 32.421875 
Q 37.25 32.421875 41.125 36.953125 
Q 45.015625 41.5 45.015625 49.421875 
Q 45.015625 57.28125 41.125 61.84375 
Q 37.25 66.40625 30.609375 66.40625 
Q 23.96875 66.40625 20.09375 61.84375 
Q 16.21875 57.28125 16.21875 49.421875 
Q 16.21875 41.5 20.09375 36.953125 
Q 23.96875 32.421875 30.609375 32.421875 
z
" id="DejaVuSans-57"/>
       </defs>
       <use xlink:href="#DejaVuSans-50"/>
       <use x="63.623047" xlink:href="#DejaVuSans-48"/>
       <use x="127.246094" xlink:href="#DejaVuSans-50"/>
       <use x="190.869141" xlink:href="#DejaVuSans-52"/>
       <use x="254.492188" xlink:href="#DejaVuSans-45"/>
       <use x="290.576172" xlink:href="#DejaVuSans-48"/>
       <use x="354.199219" xlink:href="#DejaVuSans-56"/>
       <use x="417.822266" xlink:href="#DejaVuSans-45"/>
       <use x="453.90625" xlink:href="#DejaVuSans-50"/>
       <use x="517.529297" xlink:href="#DejaVuSans-57"/>
      </g>
     </g>
    </g>
    <g id="xtick_2">
     <g id="line2d_3">
      <path clip-path="url(#p6e51c20a4d)" d="M 175.572788 255.638708 
L 175.572788 25.44 
" style="fill:none;stroke:#b0b0b0;stroke-linecap:square;stroke-width:0.8;"/>
     </g>
     <g id="line2d_4">
      <g>
       <use style="stroke:#000000;stroke-width:0.8;" x="175.572788" xlink:href="#m02de5b4f37" y="255.638708"/>
      </g>
     </g>
     <g id="text_2">
      <!-- 2024-08-31 -->
      <g transform="translate(168.227395 319.848351)rotate(-70)scale(0.1 -0.1)">
       <defs>
        <path d="M 40.578125 39.3125 
Q 47.65625 37.796875 51.625 33 
Q 55.609375 28.21875 55.609375 21.1875 
Q 55.609375 10.40625 48.1875 4.484375 
Q 40.765625 -1.421875 27.09375 -1.421875 
Q 22.515625 -1.421875 17.65625 -0.515625 
Q 12.796875 0.390625 7.625 2.203125 
L 7.625 11.71875 
Q 11.71875 9.328125 16.59375 8.109375 
Q 21.484375 6.890625 26.8125 6.890625 
Q 36.078125 6.890625 40.9375 10.546875 
Q 45.796875 14.203125 45.796875 21.1875 
Q 45.796875 27.640625 41.28125 31.265625 
Q 36.765625 34.90625 28.71875 34.90625 
L 20.21875 34.90625 
L 20.21875 43.015625 
L 29.109375 43.015625 
Q 36.375 43.015625 40.234375 45.921875 
Q 44.09375 48.828125 44.09375 54.296875 
Q 44.09375 59.90625 40.109375 62.90625 
Q 36.140625 65.921875 28.71875 65.921875 
Q 24.65625 65.921875 20.015625 65.03125 
Q 15.375 64.15625 9.8125 62.3125 
L 9.8125 71.09375 
Q 15.4375 72.65625 20.34375 73.4375 
Q 25.25 74.21875 29.59375 74.21875 
Q 40.828125 74.21875 47.359375 69.109375 
Q 53.90625 64.015625 53.90625 55.328125 
Q 53.90625 49.265625 50.4375 45.09375 
Q 46.96875 40.921875 40.578125 39.3125 
z
" id="DejaVuSans-51"/>
        <path d="M 12.40625 8.296875 
L 28.515625 8.296875 
L 28.515625 63.921875 
L 10.984375 60.40625 
L 10.984375 69.390625 
L 28.421875 72.90625 
L 38.28125 72.90625 
L 38.28125 8.296875 
L 54.390625 8.296875 
L 54.390625 0 
L 12.40625 0 
z
" id="DejaVuSans-49"/>
       </defs>
       <use xlink:href="#DejaVuSans-50"/>
       <use x="63.623047" xlink:href="#DejaVuSans-48"/>
       <use x="127.246094" xlink:href="#DejaVuSans-50"/>
       <use x="190.869141" xlink:href="#DejaVuSans-52"/>
       <use x="254.492188" xlink:href="#DejaVuSans-45"/>
       <use x="290.576172" xlink:href="#DejaVuSans-48"/>
       <use x="354.199219" xlink:href="#DejaVuSans-56"/>
       <use x="417.822266" xlink:href="#DejaVuSans-45"/>
       <use x="453.90625" xlink:href="#DejaVuSans-51"/>
       <use x="517.529297" xlink:href="#DejaVuSans-49"/>
      </g>
     </g>
    </g>
    <g id="xtick_3">
     <g id="line2d_5">
      <path clip-path="url(#p6e51c20a4d)" d="M 208.434579 255.638708 
L 208.434579 25.44 
" style="fill:none;stroke:#b0b0b0;stroke-linecap:square;stroke-width:0.8;"/>
     </g>
     <g id="line2d_6">
      <g>
       <use style="stroke:#000000;stroke-width:0.8;" x="208.434579" xlink:href="#m02de5b4f37" y="255.638708"/>
      </g>
     </g>
     <g id="text_3">
      <!-- 2024-09-01 -->
      <g transform="translate(201.089186 319.848351)rotate(-70)scale(0.1 -0.1)">
       <use xlink:href="#DejaVuSans-50"/>
       <use x="63.623047" xlink:href="#DejaVuSans-48"/>
       <use x="127.246094" xlink:href="#DejaVuSans-50"/>
       <use x="190.869141" xlink:href="#DejaVuSans-52"/>
       <use x="254.492188" xlink:href="#DejaVuSans-45"/>
       <use x="290.576172" xlink:href="#DejaVuSans-48"/>
       <use x="354.199219" xlink:href="#DejaVuSans-57"/>
       <use x="417.822266" xlink:href="#DejaVuSans-45"/>
       <use x="453.90625" xlink:href="#DejaVuSans-48"/>
       <use x="517.529297" xlink:href="#DejaVuSans-49"/>
      </g>
     </g>
    </g>
    <g id="xtick_4">
     <g id="line2d_7">
      <path clip-path="url(#p6e51c20a4d)" d="M 274.158161 255.638708 
L 274.158161 25.44 
" style="fill:none;stroke:#b0b0b0;stroke-linecap:square;stroke-width:0.8;"/>
     </g>
     <g id="line2d_8">
      <g>
       <use style="stroke:#000000;stroke-width:0.8;" x="274.158161" xlink:href="#m02de5b4f37" y="255.638708"/>
      </g>
     </g>
     <g id="text_4">
      <!-- 2024-09-03 -->
      <g transform="translate(266.812768 319.848351)rotate(-70)scale(0.1 -0.1)">
       <use xlink:href="#DejaVuSans-50"/>
       <use x="63.623047" xlink:href="#DejaVuSans-48"/>
       <use x="127.246094" xlink:href="#DejaVuSans-50"/>
       <use x="190.869141" xlink:href="#DejaVuSans-52"/>
       <use x="254.492188" xlink:href="#DejaVuSans-45"/>
       <use x="290.576172" xlink:href="#DejaVuSans-48"/>
       <use x="354.199219" xlink:href="#DejaVuSans-57"/>
       <use x="417.822266" xlink:href="#DejaVuSans-45"/>
       <use x="453.90625" xlink:href="#DejaVuSans-48"/>
       <use x="517.529297" xlink:href="#DejaVuSans-51"/>
      </g>
     </g>
    </g>
    <g id="xtick_5">
     <g id="line2d_9">
      <path clip-path="url(#p6e51c20a4d)" d="M 339.881743 255.638708 
L 339.881743 25.44 
" style="fill:none;stroke:#b0b0b0;stroke-linecap:square;stroke-width:0.8;"/>
     </g>
     <g id="line2d_10">
      <g>
       <use style="stroke:#000000;stroke-width:0.8;" x="339.881743" xlink:href="#m02de5b4f37" y="255.638708"/>
      </g>
     </g>
     <g id="text_5">
      <!-- 2024-09-05 -->
      <g transform="translate(332.53635 319.848351)rotate(-70)scale(0.1 -0.1)">
       <defs>
        <path d="M 10.796875 72.90625 
L 49.515625 72.90625 
L 49.515625 64.59375 
L 19.828125 64.59375 
L 19.828125 46.734375 
Q 21.96875 47.46875 24.109375 47.828125 
Q 26.265625 48.1875 28.421875 48.1875 
Q 40.625 48.1875 47.75 41.5 
Q 54.890625 34.8125 54.890625 23.390625 
Q 54.890625 11.625 47.5625 5.09375 
Q 40.234375 -1.421875 26.90625 -1.421875 
Q 22.3125 -1.421875 17.546875 -0.640625 
Q 12.796875 0.140625 7.71875 1.703125 
L 7.71875 11.625 
Q 12.109375 9.234375 16.796875 8.0625 
Q 21.484375 6.890625 26.703125 6.890625 
Q 35.15625 6.890625 40.078125 11.328125 
Q 45.015625 15.765625 45.015625 23.390625 
Q 45.015625 31 40.078125 35.4375 
Q 35.15625 39.890625 26.703125 39.890625 
Q 22.75 39.890625 18.8125 39.015625 
Q 14.890625 38.140625 10.796875 36.28125 
z
" id="DejaVuSans-53"/>
       </defs>
       <use xlink:href="#DejaVuSans-50"/>
       <use x="63.623047" xlink:href="#DejaVuSans-48"/>
       <use x="127.246094" xlink:href="#DejaVuSans-50"/>
       <use x="190.869141" xlink:href="#DejaVuSans-52"/>
       <use x="254.492188" xlink:href="#DejaVuSans-45"/>
       <use x="290.576172" xlink:href="#DejaVuSans-48"/>
       <use x="354.199219" xlink:href="#DejaVuSans-57"/>
       <use x="417.822266" xlink:href="#DejaVuSans-45"/>
       <use x="453.90625" xlink:href="#DejaVuSans-48"/>
       <use x="517.529297" xlink:href="#DejaVuSans-53"/>
      </g>
     </g>
    </g>
    <g id="xtick_6">
     <g id="line2d_11">
      <path clip-path="url(#p6e51c20a4d)" d="M 405.605326 255.638708 
L 405.605326 25.44 
" style="fill:none;stroke:#b0b0b0;stroke-linecap:square;stroke-width:0.8;"/>
     </g>
     <g id="line2d_12">
      <g>
       <use style="stroke:#000000;stroke-width:0.8;" x="405.605326" xlink:href="#m02de5b4f37" y="255.638708"/>
      </g>
     </g>
     <g id="text_6">
      <!-- 2024-09-07 -->
      <g transform="translate(398.259933 319.848351)rotate(-70)scale(0.1 -0.1)">
       <defs>
        <path d="M 8.203125 72.90625 
L 55.078125 72.90625 
L 55.078125 68.703125 
L 28.609375 0 
L 18.3125 0 
L 43.21875 64.59375 
L 8.203125 64.59375 
z
" id="DejaVuSans-55"/>
       </defs>
       <use xlink:href="#DejaVuSans-50"/>
       <use x="63.623047" xlink:href="#DejaVuSans-48"/>
       <use x="127.246094" xlink:href="#DejaVuSans-50"/>
       <use x="190.869141" xlink:href="#DejaVuSans-52"/>
       <use x="254.492188" xlink:href="#DejaVuSans-45"/>
       <use x="290.576172" xlink:href="#DejaVuSans-48"/>
       <use x="354.199219" xlink:href="#DejaVuSans-57"/>
       <use x="417.822266" xlink:href="#DejaVuSans-45"/>
       <use x="453.90625" xlink:href="#DejaVuSans-48"/>
       <use x="517.529297" xlink:href="#DejaVuSans-55"/>
      </g>
     </g>
    </g>
    <g id="text_7">
     <!-- Date -->
     <g transform="translate(235.379219 332.158083)scale(0.1 -0.1)">
      <defs>
       <path d="M 19.671875 64.796875 
L 19.671875 8.109375 
L 31.59375 8.109375 
Q 46.6875 8.109375 53.6875 14.9375 
Q 60.6875 21.78125 60.6875 36.53125 
Q 60.6875 51.171875 53.6875 57.984375 
Q 46.6875 64.796875 31.59375 64.796875 
z
M 9.8125 72.90625 
L 30.078125 72.90625 
Q 51.265625 72.90625 61.171875 64.09375 
Q 71.09375 55.28125 71.09375 36.53125 
Q 71.09375 17.671875 61.125 8.828125 
Q 51.171875 0 30.078125 0 
L 9.8125 0 
z
" id="DejaVuSans-68"/>
       <path d="M 34.28125 27.484375 
Q 23.390625 27.484375 19.1875 25 
Q 14.984375 22.515625 14.984375 16.5 
Q 14.984375 11.71875 18.140625 8.90625 
Q 21.296875 6.109375 26.703125 6.109375 
Q 34.1875 6.109375 38.703125 11.40625 
Q 43.21875 16.703125 43.21875 25.484375 
L 43.21875 27.484375 
z
M 52.203125 31.203125 
L 52.203125 0 
L 43.21875 0 
L 43.21875 8.296875 
Q 40.140625 3.328125 35.546875 0.953125 
Q 30.953125 -1.421875 24.3125 -1.421875 
Q 15.921875 -1.421875 10.953125 3.296875 
Q 6 8.015625 6 15.921875 
Q 6 25.140625 12.171875 29.828125 
Q 18.359375 34.515625 30.609375 34.515625 
L 43.21875 34.515625 
L 43.21875 35.40625 
Q 43.21875 41.609375 39.140625 45 
Q 35.0625 48.390625 27.6875 48.390625 
Q 23 48.390625 18.546875 47.265625 
Q 14.109375 46.140625 10.015625 43.890625 
L 10.015625 52.203125 
Q 14.9375 54.109375 19.578125 55.046875 
Q 24.21875 56 28.609375 56 
Q 40.484375 56 46.34375 49.84375 
Q 52.203125 43.703125 52.203125 31.203125 
z
" id="DejaVuSans-97"/>
       <path d="M 18.3125 70.21875 
L 18.3125 54.6875 
L 36.8125 54.6875 
L 36.8125 47.703125 
L 18.3125 47.703125 
L 18.3125 18.015625 
Q 18.3125 11.328125 20.140625 9.421875 
Q 21.96875 7.515625 27.59375 7.515625 
L 36.8125 7.515625 
L 36.8125 0 
L 27.59375 0 
Q 17.1875 0 13.234375 3.875 
Q 9.28125 7.765625 9.28125 18.015625 
L 9.28125 47.703125 
L 2.6875 47.703125 
L 2.6875 54.6875 
L 9.28125 54.6875 
L 9.28125 70.21875 
z
" id="DejaVuSans-116"/>
       <path d="M 56.203125 29.59375 
L 56.203125 25.203125 
L 14.890625 25.203125 
Q 15.484375 15.921875 20.484375 11.0625 
Q 25.484375 6.203125 34.421875 6.203125 
Q 39.59375 6.203125 44.453125 7.46875 
Q 49.3125 8.734375 54.109375 11.28125 
L 54.109375 2.78125 
Q 49.265625 0.734375 44.1875 -0.34375 
Q 39.109375 -1.421875 33.890625 -1.421875 
Q 20.796875 -1.421875 13.15625 6.1875 
Q 5.515625 13.8125 5.515625 26.8125 
Q 5.515625 40.234375 12.765625 48.109375 
Q 20.015625 56 32.328125 56 
Q 43.359375 56 49.78125 48.890625 
Q 56.203125 41.796875 56.203125 29.59375 
z
M 47.21875 32.234375 
Q 47.125 39.59375 43.09375 43.984375 
Q 39.0625 48.390625 32.421875 48.390625 
Q 24.90625 48.390625 20.390625 44.140625 
Q 15.875 39.890625 15.1875 32.171875 
z
" id="DejaVuSans-101"/>
      </defs>
      <use xlink:href="#DejaVuSans-68"/>
      <use x="77.001953" xlink:href="#DejaVuSans-97"/>
      <use x="138.28125" xlink:href="#DejaVuSans-116"/>
      <use x="177.490234" xlink:href="#DejaVuSans-101"/>
     </g>
    </g>
   </g>
   <g id="matplotlib.axis_2">
    <g id="ytick_1">
     <g id="line2d_13">
      <path clip-path="url(#p6e51c20a4d)" d="M 44.66 226.204338 
L 450 226.204338 
" style="fill:none;stroke:#b0b0b0;stroke-linecap:square;stroke-width:0.8;"/>
     </g>
     <g id="line2d_14">
      <defs>
       <path d="M 0 0 
L -3.5 0 
" id="mffba1ce2c1" style="stroke:#000000;stroke-width:0.8;"/>
      </defs>
      <g>
       <use style="stroke:#000000;stroke-width:0.8;" x="44.66" xlink:href="#mffba1ce2c1" y="226.204338"/>
      </g>
     </g>
     <g id="text_8">
      <!-- 55 -->
      <g transform="translate(24.935 230.003557)scale(0.1 -0.1)">
       <use xlink:href="#DejaVuSans-53"/>
       <use x="63.623047" xlink:href="#DejaVuSans-53"/>
      </g>
     </g>
    </g>
    <g id="ytick_2">
     <g id="line2d_15">
      <path clip-path="url(#p6e51c20a4d)" d="M 44.66 196.562475 
L 450 196.562475 
" style="fill:none;stroke:#b0b0b0;stroke-linecap:square;stroke-width:0.8;"/>
     </g>
     <g id="line2d_16">
      <g>
       <use style="stroke:#000000;stroke-width:0.8;" x="44.66" xlink:href="#mffba1ce2c1" y="196.562475"/>
      </g>
     </g>
     <g id="text_9">
      <!-- 60 -->
      <g transform="translate(24.935 200.361694)scale(0.1 -0.1)">
       <defs>
        <path d="M 33.015625 40.375 
Q 26.375 40.375 22.484375 35.828125 
Q 18.609375 31.296875 18.609375 23.390625 
Q 18.609375 15.53125 22.484375 10.953125 
Q 26.375 6.390625 33.015625 6.390625 
Q 39.65625 6.390625 43.53125 10.953125 
Q 47.40625 15.53125 47.40625 23.390625 
Q 47.40625 31.296875 43.53125 35.828125 
Q 39.65625 40.375 33.015625 40.375 
z
M 52.59375 71.296875 
L 52.59375 62.3125 
Q 48.875 64.0625 45.09375 64.984375 
Q 41.3125 65.921875 37.59375 65.921875 
Q 27.828125 65.921875 22.671875 59.328125 
Q 17.53125 52.734375 16.796875 39.40625 
Q 19.671875 43.65625 24.015625 45.921875 
Q 28.375 48.1875 33.59375 48.1875 
Q 44.578125 48.1875 50.953125 41.515625 
Q 57.328125 34.859375 57.328125 23.390625 
Q 57.328125 12.15625 50.6875 5.359375 
Q 44.046875 -1.421875 33.015625 -1.421875 
Q 20.359375 -1.421875 13.671875 8.265625 
Q 6.984375 17.96875 6.984375 36.375 
Q 6.984375 53.65625 15.1875 63.9375 
Q 23.390625 74.21875 37.203125 74.21875 
Q 40.921875 74.21875 44.703125 73.484375 
Q 48.484375 72.75 52.59375 71.296875 
z
" id="DejaVuSans-54"/>
       </defs>
       <use xlink:href="#DejaVuSans-54"/>
       <use x="63.623047" xlink:href="#DejaVuSans-48"/>
      </g>
     </g>
    </g>
    <g id="ytick_3">
     <g id="line2d_17">
      <path clip-path="url(#p6e51c20a4d)" d="M 44.66 166.920612 
L 450 166.920612 
" style="fill:none;stroke:#b0b0b0;stroke-linecap:square;stroke-width:0.8;"/>
     </g>
     <g id="line2d_18">
      <g>
       <use style="stroke:#000000;stroke-width:0.8;" x="44.66" xlink:href="#mffba1ce2c1" y="166.920612"/>
      </g>
     </g>
     <g id="text_10">
      <!-- 65 -->
      <g transform="translate(24.935 170.719831)scale(0.1 -0.1)">
       <use xlink:href="#DejaVuSans-54"/>
       <use x="63.623047" xlink:href="#DejaVuSans-53"/>
      </g>
     </g>
    </g>
    <g id="ytick_4">
     <g id="line2d_19">
      <path clip-path="url(#p6e51c20a4d)" d="M 44.66 137.278749 
L 450 137.278749 
" style="fill:none;stroke:#b0b0b0;stroke-linecap:square;stroke-width:0.8;"/>
     </g>
     <g id="line2d_20">
      <g>
       <use style="stroke:#000000;stroke-width:0.8;" x="44.66" xlink:href="#mffba1ce2c1" y="137.278749"/>
      </g>
     </g>
     <g id="text_11">
      <!-- 70 -->
      <g transform="translate(24.935 141.077968)scale(0.1 -0.1)">
       <use xlink:href="#DejaVuSans-55"/>
       <use x="63.623047" xlink:href="#DejaVuSans-48"/>
      </g>
     </g>
    </g>
    <g id="ytick_5">
     <g id="line2d_21">
      <path clip-path="url(#p6e51c20a4d)" d="M 44.66 107.636886 
L 450 107.636886 
" style="fill:none;stroke:#b0b0b0;stroke-linecap:square;stroke-width:0.8;"/>
     </g>
     <g id="line2d_22">
      <g>
       <use style="stroke:#000000;stroke-width:0.8;" x="44.66" xlink:href="#mffba1ce2c1" y="107.636886"/>
      </g>
     </g>
     <g id="text_12">
      <!-- 75 -->
      <g transform="translate(24.935 111.436105)scale(0.1 -0.1)">
       <use xlink:href="#DejaVuSans-55"/>
       <use x="63.623047" xlink:href="#DejaVuSans-53"/>
      </g>
     </g>
    </g>
    <g id="ytick_6">
     <g id="line2d_23">
      <path clip-path="url(#p6e51c20a4d)" d="M 44.66 77.995023 
L 450 77.995023 
" style="fill:none;stroke:#b0b0b0;stroke-linecap:square;stroke-width:0.8;"/>
     </g>
     <g id="line2d_24">
      <g>
       <use style="stroke:#000000;stroke-width:0.8;" x="44.66" xlink:href="#mffba1ce2c1" y="77.995023"/>
      </g>
     </g>
     <g id="text_13">
      <!-- 80 -->
      <g transform="translate(24.935 81.794242)scale(0.1 -0.1)">
       <use xlink:href="#DejaVuSans-56"/>
       <use x="63.623047" xlink:href="#DejaVuSans-48"/>
      </g>
     </g>
    </g>
    <g id="ytick_7">
     <g id="line2d_25">
      <path clip-path="url(#p6e51c20a4d)" d="M 44.66 48.35316 
L 450 48.35316 
" style="fill:none;stroke:#b0b0b0;stroke-linecap:square;stroke-width:0.8;"/>
     </g>
     <g id="line2d_26">
      <g>
       <use style="stroke:#000000;stroke-width:0.8;" x="44.66" xlink:href="#mffba1ce2c1" y="48.35316"/>
      </g>
     </g>
     <g id="text_14">
      <!-- 85 -->
      <g transform="translate(24.935 52.152379)scale(0.1 -0.1)">
       <use xlink:href="#DejaVuSans-56"/>
       <use x="63.623047" xlink:href="#DejaVuSans-53"/>
      </g>
     </g>
    </g>
    <g id="text_15">
     <!-- Temperature [F] -->
     <g transform="translate(18.855313 180.575291)rotate(-90)scale(0.1 -0.1)">
      <defs>
       <path d="M -0.296875 72.90625 
L 61.375 72.90625 
L 61.375 64.59375 
L 35.5 64.59375 
L 35.5 0 
L 25.59375 0 
L 25.59375 64.59375 
L -0.296875 64.59375 
z
" id="DejaVuSans-84"/>
       <path d="M 52 44.1875 
Q 55.375 50.25 60.0625 53.125 
Q 64.75 56 71.09375 56 
Q 79.640625 56 84.28125 50.015625 
Q 88.921875 44.046875 88.921875 33.015625 
L 88.921875 0 
L 79.890625 0 
L 79.890625 32.71875 
Q 79.890625 40.578125 77.09375 44.375 
Q 74.3125 48.1875 68.609375 48.1875 
Q 61.625 48.1875 57.5625 43.546875 
Q 53.515625 38.921875 53.515625 30.90625 
L 53.515625 0 
L 44.484375 0 
L 44.484375 32.71875 
Q 44.484375 40.625 41.703125 44.40625 
Q 38.921875 48.1875 33.109375 48.1875 
Q 26.21875 48.1875 22.15625 43.53125 
Q 18.109375 38.875 18.109375 30.90625 
L 18.109375 0 
L 9.078125 0 
L 9.078125 54.6875 
L 18.109375 54.6875 
L 18.109375 46.1875 
Q 21.1875 51.21875 25.484375 53.609375 
Q 29.78125 56 35.6875 56 
Q 41.65625 56 45.828125 52.96875 
Q 50 49.953125 52 44.1875 
z
" id="DejaVuSans-109"/>
       <path d="M 18.109375 8.203125 
L 18.109375 -20.796875 
L 9.078125 -20.796875 
L 9.078125 54.6875 
L 18.109375 54.6875 
L 18.109375 46.390625 
Q 20.953125 51.265625 25.265625 53.625 
Q 29.59375 56 35.59375 56 
Q 45.5625 56 51.78125 48.09375 
Q 58.015625 40.1875 58.015625 27.296875 
Q 58.015625 14.40625 51.78125 6.484375 
Q 45.5625 -1.421875 35.59375 -1.421875 
Q 29.59375 -1.421875 25.265625 0.953125 
Q 20.953125 3.328125 18.109375 8.203125 
z
M 48.6875 27.296875 
Q 48.6875 37.203125 44.609375 42.84375 
Q 40.53125 48.484375 33.40625 48.484375 
Q 26.265625 48.484375 22.1875 42.84375 
Q 18.109375 37.203125 18.109375 27.296875 
Q 18.109375 17.390625 22.1875 11.75 
Q 26.265625 6.109375 33.40625 6.109375 
Q 40.53125 6.109375 44.609375 11.75 
Q 48.6875 17.390625 48.6875 27.296875 
z
" id="DejaVuSans-112"/>
       <path d="M 41.109375 46.296875 
Q 39.59375 47.171875 37.8125 47.578125 
Q 36.03125 48 33.890625 48 
Q 26.265625 48 22.1875 43.046875 
Q 18.109375 38.09375 18.109375 28.8125 
L 18.109375 0 
L 9.078125 0 
L 9.078125 54.6875 
L 18.109375 54.6875 
L 18.109375 46.1875 
Q 20.953125 51.171875 25.484375 53.578125 
Q 30.03125 56 36.53125 56 
Q 37.453125 56 38.578125 55.875 
Q 39.703125 55.765625 41.0625 55.515625 
z
" id="DejaVuSans-114"/>
       <path d="M 8.5 21.578125 
L 8.5 54.6875 
L 17.484375 54.6875 
L 17.484375 21.921875 
Q 17.484375 14.15625 20.5 10.265625 
Q 23.53125 6.390625 29.59375 6.390625 
Q 36.859375 6.390625 41.078125 11.03125 
Q 45.3125 15.671875 45.3125 23.6875 
L 45.3125 54.6875 
L 54.296875 54.6875 
L 54.296875 0 
L 45.3125 0 
L 45.3125 8.40625 
Q 42.046875 3.421875 37.71875 1 
Q 33.40625 -1.421875 27.6875 -1.421875 
Q 18.265625 -1.421875 13.375 4.4375 
Q 8.5 10.296875 8.5 21.578125 
z
M 31.109375 56 
z
" id="DejaVuSans-117"/>
       <path id="DejaVuSans-32"/>
       <path d="M 8.59375 75.984375 
L 29.296875 75.984375 
L 29.296875 69 
L 17.578125 69 
L 17.578125 -6.203125 
L 29.296875 -6.203125 
L 29.296875 -13.1875 
L 8.59375 -13.1875 
z
" id="DejaVuSans-91"/>
       <path d="M 9.8125 72.90625 
L 51.703125 72.90625 
L 51.703125 64.59375 
L 19.671875 64.59375 
L 19.671875 43.109375 
L 48.578125 43.109375 
L 48.578125 34.8125 
L 19.671875 34.8125 
L 19.671875 0 
L 9.8125 0 
z
" id="DejaVuSans-70"/>
       <path d="M 30.421875 75.984375 
L 30.421875 -13.1875 
L 9.71875 -13.1875 
L 9.71875 -6.203125 
L 21.390625 -6.203125 
L 21.390625 69 
L 9.71875 69 
L 9.71875 75.984375 
z
" id="DejaVuSans-93"/>
      </defs>
      <use xlink:href="#DejaVuSans-84"/>
      <use x="44.083984" xlink:href="#DejaVuSans-101"/>
      <use x="105.607422" xlink:href="#DejaVuSans-109"/>
      <use x="203.019531" xlink:href="#DejaVuSans-112"/>
      <use x="266.496094" xlink:href="#DejaVuSans-101"/>
      <use x="328.019531" xlink:href="#DejaVuSans-114"/>
      <use x="369.132812" xlink:href="#DejaVuSans-97"/>
      <use x="430.412109" xlink:href="#DejaVuSans-116"/>
      <use x="469.621094" xlink:href="#DejaVuSans-117"/>
      <use x="533" xlink:href="#DejaVuSans-114"/>
      <use x="571.863281" xlink:href="#DejaVuSans-101"/>
      <use x="633.386719" xlink:href="#DejaVuSans-32"/>
      <use x="665.173828" xlink:href="#DejaVuSans-91"/>
      <use x="704.1875" xlink:href="#DejaVuSans-70"/>
      <use x="761.707031" xlink:href="#DejaVuSans-93"/>
     </g>
    </g>
   </g>
   <g id="line2d_27">
    <path clip-path="url(#p6e51c20a4d)" d="M 63.084545 143.799959 
L 63.1347 143.799959 
L 63.253371 143.207122 
L 63.371865 143.207122 
L 63.395572 143.799959 
L 63.443391 142.614284 
L 63.466982 143.207122 
L 63.490602 143.207122 
L 63.610012 142.614284 
L 63.658383 142.614284 
L 63.730744 142.021447 
L 63.754393 142.614284 
L 63.827584 142.614284 
L 63.875043 143.207122 
L 63.89883 142.614284 
L 63.971771 143.207122 
L 64.019327 142.021447 
L 64.068187 142.021447 
L 64.165009 140.835773 
L 64.188571 142.021447 
L 64.212649 140.242935 
L 64.260506 140.835773 
L 64.38014 140.242935 
L 64.403913 140.242935 
L 64.525441 139.650098 
L 64.620607 140.835773 
L 64.742469 139.650098 
L 64.88616 140.835773 
L 64.909852 140.835773 
L 64.933469 140.242935 
L 65.006604 140.835773 
L 65.031046 140.835773 
L 65.200641 139.057261 
L 65.27354 140.242935 
L 65.298015 139.057261 
L 65.395937 139.057261 
L 65.420743 138.464424 
L 65.468346 139.057261 
L 65.492368 139.650098 
L 65.557059 139.057261 
L 65.629346 139.057261 
L 65.678319 138.464424 
L 65.727524 139.057261 
L 65.849964 140.835773 
L 65.87362 140.242935 
L 65.899119 140.242935 
L 66.026484 142.021447 
L 66.170195 140.242935 
L 66.291981 140.835773 
L 66.363773 140.242935 
L 66.388567 140.835773 
L 66.437769 140.242935 
L 66.509348 142.021447 
L 66.536593 142.021447 
L 66.631263 140.242935 
L 66.654851 140.835773 
L 66.67912 140.835773 
L 66.775425 143.207122 
L 66.80084 142.021447 
L 66.824421 140.835773 
L 66.848036 143.207122 
L 66.872624 144.392796 
L 66.921405 142.021447 
L 66.944955 142.614284 
L 67.021153 140.242935 
L 67.045166 143.207122 
L 67.068768 142.021447 
L 67.092297 144.392796 
L 67.167376 142.614284 
L 67.312981 144.392796 
L 67.434553 144.985633 
L 67.652165 144.985633 
L 67.748505 145.578471 
L 67.821439 144.985633 
L 67.845111 145.578471 
L 67.869524 145.578471 
L 67.916906 144.392796 
L 67.965672 145.578471 
L 67.99133 145.578471 
L 68.063449 143.207122 
L 68.088286 144.985633 
L 68.113136 146.764145 
L 68.186166 145.578471 
L 68.234271 145.578471 
L 68.380245 143.799959 
L 68.501689 144.392796 
L 68.525401 144.392796 
L 68.597525 144.985633 
L 68.621392 143.207122 
L 68.69445 145.578471 
L 68.743425 144.392796 
L 68.862599 145.578471 
L 68.886699 144.392796 
L 68.982717 144.985633 
L 69.055158 144.985633 
L 69.178402 145.578471 
L 69.325925 144.392796 
L 69.469039 145.578471 
L 69.781831 145.578471 
L 69.902758 146.764145 
L 70.317558 146.764145 
L 70.415766 147.356982 
L 70.535603 146.764145 
L 70.656088 147.356982 
L 71.040889 147.356982 
L 71.064848 147.94982 
L 71.088568 147.356982 
L 131.818415 147.94982 
L 131.842945 147.356982 
L 132.130343 145.578471 
L 132.254703 147.356982 
L 132.279029 145.578471 
L 132.337453 147.356982 
L 132.525852 143.207122 
L 132.605166 144.985633 
L 132.78693 146.764145 
L 132.864385 146.764145 
L 132.887974 147.356982 
L 132.912665 145.578471 
L 132.937397 145.578471 
L 132.961695 146.764145 
L 132.986395 144.985633 
L 133.012555 144.985633 
L 133.089481 140.242935 
L 133.133967 143.207122 
L 133.259618 145.578471 
L 133.286804 144.392796 
L 133.359661 145.578471 
L 133.383281 145.578471 
L 133.419375 146.764145 
L 133.467618 145.578471 
L 133.497008 144.985633 
L 133.573935 145.578471 
L 133.597539 145.578471 
L 133.720258 139.650098 
L 133.839953 145.578471 
L 133.935796 139.057261 
L 134.008562 140.242935 
L 134.10382 144.985633 
L 134.163406 146.764145 
L 134.186966 144.985633 
L 134.300417 144.392796 
L 134.348538 144.392796 
L 134.373517 143.799959 
L 134.397222 144.392796 
L 134.494533 146.764145 
L 134.518479 145.578471 
L 134.571742 145.578471 
L 134.724819 139.650098 
L 134.886211 146.764145 
L 134.960543 144.392796 
L 135.007651 145.578471 
L 135.031628 145.578471 
L 135.056591 146.764145 
L 135.080119 144.985633 
L 135.104609 145.578471 
L 135.201577 145.578471 
L 135.22612 144.392796 
L 135.277123 145.578471 
L 135.301777 147.356982 
L 135.350056 144.985633 
L 135.373985 144.985633 
L 135.397506 144.985633 
L 135.422352 145.578471 
L 135.448012 142.021447 
L 135.522694 142.614284 
L 135.572323 144.985633 
L 135.645004 143.799959 
L 135.765359 144.985633 
L 135.890414 144.392796 
L 135.962381 143.799959 
L 136.009503 144.985633 
L 136.033371 144.985633 
L 136.056905 144.392796 
L 136.129499 144.985633 
L 136.273482 146.764145 
L 136.297048 145.578471 
L 136.368339 146.764145 
L 136.48825 147.356982 
L 136.801592 147.356982 
L 136.874241 147.94982 
L 136.898639 147.356982 
L 137.140487 147.356982 
L 137.164268 144.985633 
L 137.236113 146.764145 
L 137.283973 146.764145 
L 137.408164 147.356982 
L 137.45611 147.356982 
L 137.480144 146.764145 
L 137.551151 147.356982 
L 137.575178 147.356982 
L 137.696187 147.94982 
L 138.210669 147.94982 
L 138.236321 148.542657 
L 138.290662 147.356982 
L 138.317353 147.94982 
L 138.4421 147.356982 
L 138.641118 147.356982 
L 138.762475 146.764145 
L 139.125814 146.764145 
L 139.149401 147.356982 
L 139.221196 146.764145 
L 139.415586 146.764145 
L 139.489399 147.356982 
L 139.512969 146.764145 
L 139.678906 146.764145 
L 139.750428 147.356982 
L 139.774114 146.764145 
L 139.823141 146.764145 
L 139.943142 147.356982 
L 139.966804 147.356982 
L 140.085266 146.764145 
L 140.108784 146.764145 
L 140.179506 147.356982 
L 140.203873 146.764145 
L 140.519529 146.764145 
L 235.46827 130.164702 
L 235.523125 131.350376 
L 235.637828 131.350376 
L 235.661595 130.164702 
L 235.710782 131.350376 
L 235.788165 131.350376 
L 235.812676 130.164702 
L 235.890195 131.350376 
L 236.083088 131.350376 
L 236.131778 131.943214 
L 236.179913 131.350376 
L 236.304925 131.350376 
L 236.434705 131.943214 
L 236.45867 131.350376 
L 236.506897 131.943214 
L 236.555631 131.943214 
L 236.579935 131.350376 
L 236.650849 131.943214 
L 236.72281 131.943214 
L 236.853463 131.350376 
L 236.985963 131.943214 
L 237.419416 131.943214 
L 237.538054 132.536051 
L 237.610287 131.943214 
L 237.634986 132.536051 
L 237.659122 132.536051 
L 237.782044 131.943214 
L 237.833033 131.943214 
L 237.951516 132.536051 
L 238.387782 132.536051 
L 238.411591 133.128888 
L 238.483179 132.536051 
L 238.558415 132.536051 
L 238.584759 133.128888 
L 238.667645 132.536051 
L 238.864905 132.536051 
L 238.988013 133.128888 
L 239.988744 133.128888 
L 240.013494 133.721726 
L 240.062658 133.128888 
L 240.281794 133.128888 
L 240.381348 133.721726 
L 240.503676 133.128888 
L 240.624082 133.721726 
L 240.945852 133.721726 
L 241.059574 134.314563 
L 241.178757 133.721726 
L 241.858456 133.721726 
L 241.881971 133.128888 
L 241.955279 133.721726 
L 242.102437 133.721726 
L 242.223546 133.128888 
L 242.271551 133.128888 
L 242.392357 133.721726 
L 242.732297 133.721726 
L 242.755841 134.314563 
L 242.82638 133.721726 
L 243.257127 133.721726 
L 243.281377 133.128888 
L 243.354067 133.721726 
L 243.401094 133.721726 
L 243.432731 133.128888 
L 243.509177 133.721726 
L 243.700627 133.721726 
L 243.724916 133.128888 
L 243.797696 133.721726 
L 244.549588 133.721726 
L 244.670669 134.314563 
L 244.694677 134.314563 
L 244.794537 133.721726 
L 244.900416 134.314563 
L 245.022115 133.721726 
L 245.11817 134.314563 
L 245.238978 133.721726 
L 245.336121 133.721726 
L 245.454391 134.314563 
L 245.855026 134.314563 
L 245.87885 134.9074 
L 245.949765 134.314563 
L 246.221348 134.314563 
L 246.294976 134.9074 
L 246.319915 134.314563 
L 246.368295 134.314563 
L 246.440612 134.9074 
L 246.464192 134.314563 
L 246.515822 134.314563 
L 246.640821 134.9074 
L 246.666333 134.314563 
L 246.745186 134.9074 
L 247.471957 134.9074 
L 247.595864 136.093075 
L 247.718432 134.9074 
L 247.966111 134.9074 
L 248.013812 136.093075 
L 248.063736 134.9074 
L 248.263584 134.9074 
L 248.36079 136.093075 
L 248.479699 134.9074 
L 248.601216 136.093075 
L 248.726156 134.9074 
L 248.7498 134.9074 
L 248.870074 136.093075 
L 248.991907 134.9074 
L 249.11331 136.093075 
L 249.74405 136.093075 
L 249.818793 136.685912 
L 249.842745 136.093075 
L 249.968583 136.093075 
L 249.993317 136.685912 
L 250.01724 136.093075 
L 250.280082 136.093075 
L 250.377827 136.685912 
L 250.499637 136.093075 
L 250.621754 136.685912 
L 251.37573 136.685912 
L 251.447599 137.278749 
L 251.473676 136.685912 
L 251.497306 136.685912 
L 251.569765 137.278749 
L 251.59378 136.685912 
L 251.617348 136.685912 
L 251.737346 137.278749 
L 252.194415 137.278749 
L 252.292445 136.685912 
L 252.412723 137.278749 
L 253.383213 137.278749 
L 253.406872 137.871586 
L 253.485838 137.278749 
L 254.313182 137.278749 
L 254.414438 137.871586 
L 254.487912 137.278749 
L 254.52059 137.871586 
L 255.262241 137.871586 
L 255.285867 137.278749 
L 255.360018 137.871586 
L 255.458855 137.871586 
L 255.53105 137.278749 
L 255.554898 137.871586 
L 255.654109 137.871586 
L 255.776929 137.278749 
L 255.873122 137.278749 
L 255.896658 137.871586 
L 255.970282 137.278749 
L 256.018584 137.278749 
L 256.118351 137.871586 
L 256.23987 137.278749 
L 256.407329 137.278749 
L 256.508626 137.871586 
L 256.631337 137.278749 
L 257.37592 137.278749 
L 257.497253 136.685912 
L 257.693011 136.685912 
L 257.742106 136.093075 
L 257.791211 136.685912 
L 257.914248 136.685912 
L 257.968784 136.093075 
L 258.018253 136.685912 
L 258.042048 136.685912 
L 258.06718 136.093075 
L 258.139261 136.685912 
L 258.802249 136.685912 
L 258.92389 136.093075 
L 258.979249 136.093075 
L 259.00303 136.685912 
L 259.074165 136.093075 
L 259.148758 136.093075 
L 259.270275 134.9074 
L 259.490702 134.9074 
L 259.538336 134.314563 
L 259.587377 134.9074 
L 260.143243 134.9074 
L 260.215065 134.314563 
L 260.238743 134.9074 
L 260.360268 134.9074 
L 260.480053 134.314563 
L 260.528394 134.314563 
L 260.647218 133.721726 
L 260.672294 133.721726 
L 260.792088 134.314563 
L 260.839176 134.314563 
L 260.959259 133.721726 
L 261.032307 134.314563 
L 261.062525 133.721726 
L 261.213163 133.721726 
L 261.334426 134.314563 
L 261.359609 134.314563 
L 261.458594 133.721726 
L 261.583247 134.314563 
L 261.660585 134.314563 
L 261.684218 133.721726 
L 261.756346 134.314563 
L 262.076024 134.314563 
L 262.173231 133.721726 
L 262.221968 134.314563 
L 262.270621 133.721726 
L 262.321966 133.721726 
L 262.44613 134.314563 
L 262.546696 133.721726 
L 262.620572 134.314563 
L 262.647433 133.721726 
L 262.771562 133.721726 
L 262.893586 134.314563 
L 263.01672 133.721726 
L 263.165131 133.721726 
L 263.191853 134.314563 
L 263.272725 133.721726 
L 263.349269 133.721726 
L 263.373484 134.314563 
L 263.4479 133.721726 
L 263.611108 133.721726 
L 263.634678 132.536051 
L 263.730625 133.128888 
L 263.754285 133.128888 
L 263.874783 133.721726 
L 263.947198 133.721726 
L 263.994806 134.314563 
L 264.043298 133.721726 
L 264.162974 133.128888 
L 264.211525 133.128888 
L 264.235143 133.721726 
L 264.308277 133.128888 
L 264.333244 133.128888 
L 264.456369 133.721726 
L 264.703838 133.721726 
L 264.727515 134.314563 
L 264.776648 133.721726 
L 264.850705 133.128888 
L 264.874251 133.721726 
L 265.265932 133.721726 
L 265.385731 134.314563 
L 265.410921 134.314563 
L 265.435602 133.721726 
L 265.506737 134.314563 
L 265.771912 134.314563 
L 265.869003 133.721726 
L 266.029078 134.314563 
L 266.27143 134.314563 
L 266.342185 134.9074 
L 266.366067 134.314563 
L 266.53627 134.314563 
L 266.561358 133.721726 
L 266.632781 134.314563 
L 266.901946 134.314563 
L 266.926329 134.9074 
L 266.997585 134.314563 
L 267.302405 134.314563 
L 267.400342 134.9074 
L 267.497868 134.314563 
L 267.620579 134.9074 
L 267.988169 134.9074 
L 268.036475 134.314563 
L 268.087501 134.9074 
L 268.159211 134.9074 
L 268.184333 134.314563 
L 268.256621 134.9074 
L 268.899776 134.9074 
L 268.924317 136.093075 
L 269.006973 134.9074 
L 269.031498 134.9074 
L 269.166446 136.093075 
L 269.190116 136.093075 
L 269.312416 134.9074 
L 269.432561 136.093075 
L 269.562442 136.093075 
L 269.661153 134.9074 
L 269.827022 136.093075 
L 270.390207 136.093075 
L 270.477858 136.685912 
L 270.601454 136.093075 
L 270.62609 136.093075 
L 270.747803 136.685912 
L 270.771349 136.093075 
L 270.854114 136.685912 
L 271.487444 136.685912 
L 271.510991 137.278749 
L 271.58271 136.685912 
L 271.972093 136.685912 
L 272.092485 137.278749 
L 272.165736 136.685912 
L 272.190498 137.278749 
L 272.239244 137.278749 
L 272.338574 136.685912 
L 272.466648 137.278749 
L 273.792659 137.278749 
L 273.819064 137.871586 
L 273.896738 137.278749 
L 273.946898 137.278749 
L 273.996118 137.871586 
L 274.046138 137.278749 
L 274.073178 137.278749 
L 274.172756 137.871586 
L 274.19729 137.278749 
L 274.271178 137.871586 
L 274.512642 137.871586 
L 274.537815 137.278749 
L 274.610475 137.871586 
L 274.681953 137.871586 
L 274.705521 137.278749 
L 274.777387 137.871586 
L 274.949035 137.871586 
L 274.974559 138.464424 
L 275.046897 137.871586 
L 275.687541 137.871586 
L 275.712218 137.278749 
L 275.787984 137.871586 
L 276.870781 137.871586 
L 276.895079 138.464424 
L 276.970642 137.871586 
L 277.319846 137.871586 
L 277.401509 138.464424 
L 277.425952 137.871586 
L 277.547422 137.871586 
L 277.670676 138.464424 
L 277.94492 138.464424 
L 277.9689 137.871586 
L 278.043147 138.464424 
L 278.337915 138.464424 
L 278.364133 137.871586 
L 278.435851 138.464424 
L 279.549979 138.464424 
L 279.576457 139.057261 
L 279.64774 138.464424 
L 279.720868 138.464424 
L 279.745913 139.057261 
L 279.822472 138.464424 
L 279.965636 138.464424 
L 280.060602 139.057261 
L 280.163201 138.464424 
L 280.261917 139.057261 
L 280.285427 138.464424 
L 280.357701 139.057261 
L 280.381377 139.057261 
L 280.501861 138.464424 
L 280.624643 139.057261 
L 280.723356 139.057261 
L 280.820579 138.464424 
L 280.917813 139.057261 
L 280.941417 138.464424 
L 281.015806 139.057261 
L 281.185838 139.057261 
L 281.211228 138.464424 
L 281.282713 139.057261 
L 283.008272 139.057261 
L 283.032925 139.650098 
L 283.105124 139.057261 
L 283.226603 139.057261 
L 283.250296 139.650098 
L 283.32351 139.057261 
L 283.370771 139.057261 
L 283.489946 139.650098 
L 283.613949 139.057261 
L 283.639683 139.057261 
L 283.763767 139.650098 
L 283.789203 139.650098 
L 283.885178 139.057261 
L 284.006175 139.650098 
L 284.634857 139.650098 
L 284.658803 140.242935 
L 284.730815 139.650098 
L 284.996716 139.650098 
L 285.072967 140.242935 
L 285.099867 139.650098 
L 285.222087 139.650098 
L 285.350674 140.242935 
L 285.424705 139.650098 
L 285.449134 140.242935 
L 285.473667 140.242935 
L 285.578553 139.650098 
L 285.603246 140.242935 
L 285.682092 139.650098 
L 285.754241 139.650098 
L 285.779892 140.242935 
L 285.896126 139.650098 
L 287.209761 139.650098 
L 287.288846 139.057261 
L 287.314851 139.650098 
L 287.385555 139.650098 
L 287.492035 139.057261 
L 287.539246 139.650098 
L 287.586396 139.057261 
L 288.238464 139.057261 
L 288.346282 138.464424 
L 288.473613 139.057261 
L 288.625823 137.871586 
L 288.651118 138.464424 
L 288.725514 137.871586 
L 288.871519 137.871586 
L 288.993892 137.278749 
L 289.118816 137.278749 
L 289.149881 136.685912 
L 289.220852 137.278749 
L 289.295995 137.278749 
L 289.373366 137.871586 
L 289.396916 137.278749 
L 289.450647 137.278749 
L 289.545423 137.871586 
L 289.688757 136.685912 
L 289.736044 136.685912 
L 289.854771 137.278749 
L 289.949564 136.685912 
L 289.97333 137.278749 
L 290.044207 136.685912 
L 290.115608 136.685912 
L 290.139662 137.278749 
L 290.218432 136.685912 
L 290.24205 136.685912 
L 290.361781 137.278749 
L 290.38554 136.685912 
L 290.45659 137.278749 
L 290.774021 137.278749 
L 290.868419 136.685912 
L 290.994156 137.278749 
L 291.11979 137.278749 
L 291.143476 136.685912 
L 291.214192 137.278749 
L 291.359438 137.278749 
L 291.479169 136.685912 
L 291.602466 137.278749 
L 291.720758 136.685912 
L 292.08146 136.685912 
L 292.168777 137.278749 
L 292.296484 136.685912 
L 292.937531 136.685912 
L 293.024858 136.093075 
L 293.299992 136.093075 
L 293.32393 136.685912 
L 293.363599 136.093075 
L 293.997261 136.093075 
L 294.082191 136.685912 
L 294.109216 136.093075 
L 294.428145 136.093075 
L 294.465306 136.685912 
L 294.49297 134.9074 
L 294.578671 136.093075 
L 294.638333 136.093075 
L 294.777829 134.9074 
L 295.285099 134.9074 
L 295.503182 133.721726 
L 295.615063 134.314563 
L 296.318773 134.314563 
L 296.349829 133.721726 
L 296.408663 134.314563 
L 296.535636 134.314563 
L 296.667687 133.721726 
L 296.84908 133.721726 
L 296.872836 134.314563 
L 296.952125 133.721726 
L 297.002764 133.721726 
L 297.107478 133.128888 
L 297.18543 133.721726 
L 297.213218 133.128888 
L 297.382457 133.128888 
L 297.513265 133.721726 
L 297.618857 133.721726 
L 297.643446 134.314563 
L 297.72301 133.721726 
L 297.874702 133.721726 
L 298.006392 133.128888 
L 298.072691 133.721726 
L 298.110697 133.128888 
L 298.140648 133.128888 
L 298.240181 132.536051 
L 298.264645 133.128888 
L 298.343892 132.536051 
L 298.421266 132.536051 
L 298.629905 131.943214 
L 298.746822 132.536051 
L 298.872071 131.943214 
L 298.896485 131.943214 
L 298.92383 132.536051 
L 299.187082 132.536051 
L 299.219359 133.128888 
L 299.287926 132.536051 
L 299.42587 132.536051 
L 299.552549 133.128888 
L 300.023833 133.128888 
L 300.073641 132.536051 
L 300.128767 133.128888 
L 300.213344 132.536051 
L 300.290615 132.536051 
L 300.401454 133.128888 
L 300.507893 132.536051 
L 300.595999 132.536051 
L 300.709728 133.128888 
L 300.892742 133.128888 
L 300.931252 133.721726 
L 300.987452 133.128888 
L 301.01267 133.128888 
L 301.090396 133.721726 
L 301.117771 133.128888 
L 301.188539 133.128888 
L 301.326254 133.721726 
L 301.465695 133.721726 
L 301.576631 134.314563 
L 301.64838 133.721726 
L 301.689675 134.9074 
L 301.750334 134.314563 
L 301.933786 134.314563 
L 302.065885 134.9074 
L 302.094079 134.314563 
L 302.175404 134.9074 
L 302.385198 134.9074 
L 302.516218 136.093075 
L 302.957759 136.093075 
L 303.09099 136.685912 
L 303.119146 136.093075 
L 303.201702 136.685912 
L 303.608359 136.685912 
L 303.71026 137.278749 
L 303.816758 136.685912 
L 303.86544 137.278749 
L 303.942856 136.685912 
L 303.967511 137.278749 
L 304.023761 137.278749 
L 304.075511 136.685912 
L 304.134222 137.278749 
L 304.649841 137.278749 
L 304.773433 137.871586 
L 305.38193 137.871586 
L 305.453666 138.464424 
L 305.484822 137.871586 
L 305.788836 137.871586 
L 305.907781 138.464424 
L 306.031163 137.871586 
L 306.080396 137.871586 
L 306.202055 138.464424 
L 306.273546 137.871586 
L 306.29732 138.464424 
L 307.037578 138.464424 
L 307.133154 139.057261 
L 307.251191 138.464424 
L 307.274744 138.464424 
L 307.37033 139.057261 
L 307.393888 138.464424 
L 307.466754 139.057261 
L 308.068927 139.057261 
L 308.189746 139.650098 
L 308.237592 139.650098 
L 308.26187 139.057261 
L 308.332559 139.650098 
L 308.497722 139.650098 
L 308.592681 140.242935 
L 308.664823 139.650098 
L 308.688398 140.242935 
L 308.90266 140.242935 
L 309.003176 140.835773 
L 309.124577 140.242935 
L 309.716364 140.242935 
L 309.740713 139.650098 
L 309.8107 140.242935 
L 310.072773 140.242935 
L 310.09725 140.835773 
L 310.177883 140.242935 
L 310.39704 140.242935 
L 310.421815 140.835773 
L 310.494792 140.242935 
L 311.170369 140.242935 
L 311.289002 140.835773 
L 311.337721 140.835773 
L 311.458709 140.242935 
L 311.50754 140.242935 
L 311.63127 140.835773 
L 312.881806 140.835773 
L 313.000182 142.021447 
L 313.121287 140.835773 
L 313.169807 140.835773 
L 313.288626 142.021447 
L 313.312166 142.021447 
L 313.382669 140.835773 
L 313.406977 142.021447 
L 314.473087 142.021447 
L 314.597034 142.614284 
L 314.720168 142.021447 
L 315.031576 142.021447 
L 315.07865 142.614284 
L 315.126017 142.021447 
L 315.294825 142.021447 
L 315.318471 142.614284 
L 315.391172 142.021447 
L 315.657849 142.021447 
L 315.681338 142.614284 
L 315.752378 142.021447 
L 315.847961 142.021447 
L 315.871595 142.614284 
L 315.942452 142.021447 
L 315.99253 142.021447 
L 316.111919 142.614284 
L 316.162182 142.614284 
L 316.281442 142.021447 
L 316.378271 142.614284 
L 316.402032 142.021447 
L 316.474793 142.614284 
L 316.667742 142.614284 
L 316.692037 142.021447 
L 316.763898 142.614284 
L 317.14905 142.614284 
L 317.269205 143.207122 
L 317.391076 142.614284 
L 317.979164 142.614284 
L 318.051921 143.207122 
L 318.076773 142.614284 
L 318.175448 142.614284 
L 318.29357 143.207122 
L 318.416685 142.614284 
L 318.440265 143.207122 
L 318.513692 142.614284 
L 319.860263 142.614284 
L 319.93337 142.021447 
L 319.957089 142.614284 
L 319.983861 142.614284 
L 320.009134 142.021447 
L 320.07977 142.614284 
L 320.247398 142.614284 
L 320.34432 142.021447 
L 320.418143 142.614284 
L 320.442757 142.021447 
L 320.539815 142.021447 
L 320.588802 142.614284 
L 320.636744 142.021447 
L 320.684384 142.021447 
L 320.707941 142.614284 
L 320.782242 142.021447 
L 321.125754 142.021447 
L 321.24888 140.835773 
L 321.57957 140.835773 
L 321.604103 140.242935 
L 321.678534 140.835773 
L 321.750937 140.835773 
L 321.870743 140.242935 
L 322.091367 140.242935 
L 322.219523 139.650098 
L 322.24626 139.650098 
L 322.27063 140.242935 
L 322.341997 139.650098 
L 322.509944 139.650098 
L 322.633484 139.057261 
L 322.832963 139.057261 
L 322.958232 138.464424 
L 323.05562 138.464424 
L 323.189057 137.871586 
L 323.505347 137.871586 
L 323.529029 137.278749 
L 323.602725 137.871586 
L 323.689693 137.871586 
L 323.799868 137.278749 
L 323.956721 137.278749 
L 324.010814 136.685912 
L 324.035266 137.278749 
L 324.12981 137.871586 
L 324.251851 137.278749 
L 324.299512 137.278749 
L 324.323041 136.685912 
L 324.374884 137.278749 
L 324.426393 136.685912 
L 324.508842 137.871586 
L 324.557588 137.871586 
L 324.581084 138.464424 
L 324.608402 137.871586 
L 324.713499 137.871586 
L 324.84571 137.278749 
L 324.870213 137.278749 
L 324.893767 136.685912 
L 324.917289 137.871586 
L 325.041763 138.464424 
L 325.096011 138.464424 
L 325.169903 137.871586 
L 325.193459 138.464424 
L 325.266389 138.464424 
L 325.390777 137.871586 
L 325.439652 137.871586 
L 325.569456 138.464424 
L 325.666758 138.464424 
L 325.787141 137.871586 
L 325.860689 137.871586 
L 325.911098 137.278749 
L 325.992067 138.464424 
L 326.118804 137.871586 
L 326.142897 137.871586 
L 326.245296 133.128888 
L 326.270121 130.164702 
L 326.320304 134.314563 
L 326.344154 133.721726 
L 326.611907 137.871586 
L 326.712728 137.871586 
L 326.834852 138.464424 
L 326.957905 137.871586 
L 327.329247 137.871586 
L 327.353669 138.464424 
L 327.425316 137.871586 
L 327.547063 137.871586 
L 327.573196 138.464424 
L 327.62351 137.871586 
L 327.69697 136.685912 
L 327.72189 137.278749 
L 327.818345 137.871586 
L 327.939874 137.278749 
L 327.986996 137.278749 
L 328.084363 136.685912 
L 328.184378 136.685912 
L 328.240028 136.093075 
L 328.264457 137.278749 
L 328.336167 137.278749 
L 328.360981 137.871586 
L 328.414046 136.685912 
L 328.51729 136.685912 
L 328.567141 134.314563 
L 328.59216 134.9074 
L 328.680523 136.093075 
L 328.980474 134.9074 
L 329.03422 136.093075 
L 329.12017 136.093075 
L 329.246069 129.571865 
L 329.326663 131.350376 
L 329.48955 134.314563 
L 329.623381 134.9074 
L 329.672426 134.9074 
L 329.743777 134.314563 
L 329.780429 134.9074 
L 329.813783 134.9074 
L 329.9399 136.093075 
L 329.999436 134.9074 
L 330.027383 136.093075 
L 330.054113 136.093075 
L 330.176726 134.314563 
L 330.255522 136.093075 
L 330.327944 136.093075 
L 330.476216 137.278749 
L 330.540283 136.093075 
L 330.56859 137.278749 
L 330.660907 137.871586 
L 330.781411 136.685912 
L 330.838969 137.871586 
L 330.863351 136.685912 
L 331.049855 134.314563 
L 331.084015 134.9074 
L 331.146463 134.314563 
L 331.17009 133.721726 
L 331.201549 134.9074 
L 331.239585 134.9074 
L 331.31979 133.721726 
L 331.413543 136.093075 
L 331.553297 136.093075 
L 331.646759 134.9074 
L 331.772889 136.093075 
L 331.91365 134.9074 
L 332.04242 136.093075 
L 332.147274 136.093075 
L 332.197123 134.9074 
L 332.250912 136.093075 
L 332.359264 136.093075 
L 332.476097 136.685912 
L 332.981917 136.685912 
L 333.018801 136.093075 
L 333.066337 136.685912 
L 333.151097 136.685912 
L 333.276622 137.278749 
L 333.402261 136.685912 
L 333.452059 136.685912 
L 333.592611 137.278749 
L 333.721477 137.278749 
L 333.745464 137.871586 
L 333.809274 137.278749 
L 333.835305 137.278749 
L 333.909509 136.685912 
L 333.935101 137.278749 
L 333.995594 137.278749 
L 334.174542 136.685912 
L 334.32427 136.685912 
L 334.43494 137.278749 
L 334.80813 137.278749 
L 334.938053 137.871586 
L 335.122551 137.871586 
L 335.154229 138.464424 
L 335.232541 137.871586 
L 335.263751 137.871586 
L 335.392752 138.464424 
L 335.418065 137.871586 
L 335.4958 138.464424 
L 335.691089 138.464424 
L 335.817577 137.871586 
L 335.842118 137.871586 
L 335.8929 138.464424 
L 335.942099 137.871586 
L 336.015224 137.871586 
L 336.13059 138.464424 
L 336.940489 138.464424 
L 337.07271 137.871586 
L 337.620009 137.871586 
L 337.643591 138.464424 
L 337.719473 137.871586 
L 338.092386 137.871586 
L 338.215863 138.464424 
L 338.302539 138.464424 
L 338.326058 137.871586 
L 338.410633 138.464424 
L 338.513298 138.464424 
L 338.54034 137.871586 
L 338.612354 138.464424 
L 338.925488 138.464424 
L 338.949809 139.057261 
L 339.022849 138.464424 
L 339.334072 138.464424 
L 339.459131 137.871586 
L 339.533327 137.871586 
L 339.65585 138.464424 
L 339.778623 137.871586 
L 339.802612 137.871586 
L 339.936764 138.464424 
L 340.063566 137.871586 
L 340.213718 137.871586 
L 340.340076 138.464424 
L 340.419297 137.871586 
L 340.443424 138.464424 
L 340.468791 138.464424 
L 340.567433 137.871586 
L 340.690816 138.464424 
L 340.771947 138.464424 
L 340.798751 137.871586 
L 340.870862 138.464424 
L 340.944732 138.464424 
L 340.969423 137.871586 
L 341.041318 138.464424 
L 341.4079 138.464424 
L 341.505178 139.057261 
L 341.60246 138.464424 
L 341.698891 139.057261 
L 341.79924 138.464424 
L 341.847149 139.057261 
L 341.894585 138.464424 
L 341.919029 138.464424 
L 342.050918 139.057261 
L 342.146187 138.464424 
L 342.268857 139.057261 
L 342.292462 139.057261 
L 342.316063 138.464424 
L 342.386829 139.057261 
L 343.141381 139.057261 
L 343.260031 139.650098 
L 343.308033 139.650098 
L 343.429613 139.057261 
L 343.551248 139.650098 
L 344.806473 139.650098 
L 344.83008 140.242935 
L 344.902135 139.650098 
L 345.265737 139.650098 
L 345.315267 140.242935 
L 345.362558 139.650098 
L 345.677322 139.650098 
L 345.772041 140.242935 
L 345.892543 139.650098 
L 346.01411 140.242935 
L 346.062447 140.242935 
L 346.161417 139.650098 
L 346.259717 140.242935 
L 346.381135 139.650098 
L 346.502644 140.242935 
L 346.533198 140.242935 
L 346.652949 139.650098 
L 346.771928 140.242935 
L 348.197911 140.242935 
L 348.271003 140.835773 
L 348.294514 140.242935 
L 348.318954 140.242935 
L 348.436885 140.835773 
L 348.579097 140.835773 
L 348.69775 140.242935 
L 348.816136 140.835773 
L 348.910247 140.835773 
L 349.005805 142.021447 
L 349.124681 140.835773 
L 349.719528 140.835773 
L 349.838507 142.021447 
L 350.603243 142.021447 
L 350.679296 140.835773 
L 350.704766 142.021447 
L 350.728463 142.021447 
L 350.832267 140.835773 
L 350.952183 142.021447 
L 351.090288 140.835773 
L 351.115217 140.835773 
L 351.139434 142.021447 
L 351.217242 140.835773 
L 351.344065 140.835773 
L 351.370394 142.021447 
L 351.444985 140.835773 
L 351.494662 140.835773 
L 351.613735 142.021447 
L 351.637578 142.021447 
L 351.760722 140.835773 
L 351.809555 140.835773 
L 351.928593 142.021447 
L 351.955001 142.021447 
L 352.074023 140.835773 
L 352.336187 140.835773 
L 352.455167 140.242935 
L 352.677462 140.242935 
L 352.795356 139.650098 
L 352.843617 139.650098 
L 352.867449 140.242935 
L 352.939118 139.650098 
L 353.088218 139.650098 
L 353.114777 140.242935 
L 353.190154 139.650098 
L 353.264649 139.650098 
L 353.289174 139.057261 
L 353.361133 139.650098 
L 353.557619 139.650098 
L 353.581526 139.057261 
L 353.654436 139.650098 
L 353.702691 139.650098 
L 353.829524 139.057261 
L 353.952226 139.057261 
L 354.07601 138.464424 
L 354.328433 138.464424 
L 354.448924 137.871586 
L 354.617644 137.871586 
L 354.761036 136.685912 
L 354.880089 136.685912 
L 355.005073 137.278749 
L 355.129752 136.685912 
L 355.206114 136.685912 
L 355.347492 134.314563 
L 355.517756 133.128888 
L 355.545341 133.128888 
L 355.593479 132.536051 
L 355.644222 133.128888 
L 355.815919 133.128888 
L 355.915025 132.536051 
L 356.059265 133.721726 
L 356.310478 128.979027 
L 356.361457 132.536051 
L 356.416621 131.350376 
L 356.464781 130.164702 
L 356.488445 133.128888 
L 356.537816 129.571865 
L 356.613319 131.350376 
L 356.738487 132.536051 
L 356.860552 131.350376 
L 356.884144 131.943214 
L 356.910007 131.350376 
L 357.005567 130.164702 
L 357.138337 132.536051 
L 357.161901 132.536051 
L 357.236753 131.943214 
L 357.341366 134.9074 
L 357.367824 134.314563 
L 357.441525 134.9074 
L 357.708837 134.9074 
L 357.835034 131.943214 
L 357.867036 133.721726 
L 357.890723 133.721726 
L 357.914396 134.314563 
L 357.938709 128.38619 
L 358.011268 134.314563 
L 358.034909 134.314563 
L 358.061305 133.128888 
L 358.118775 134.9074 
L 358.143376 134.314563 
L 358.166979 134.314563 
L 358.190667 133.721726 
L 358.215118 134.9074 
L 358.26388 134.314563 
L 358.461854 134.314563 
L 358.581537 134.9074 
L 358.775209 134.9074 
L 358.893404 134.314563 
L 358.917979 134.314563 
L 359.005097 134.9074 
L 359.109801 134.314563 
L 359.539288 134.314563 
L 359.90059 131.350376 
L 360.018978 133.128888 
L 360.17669 131.350376 
L 360.226891 131.943214 
L 360.303002 131.350376 
L 360.376512 133.128888 
L 360.548227 129.571865 
L 360.674619 133.721726 
L 360.699336 131.943214 
L 360.766398 133.721726 
L 360.822446 132.536051 
L 360.929897 123.643492 
L 361.180142 129.571865 
L 361.218032 128.38619 
L 361.283513 131.943214 
L 361.341326 131.350376 
L 361.371538 129.571865 
L 361.512291 129.571865 
L 361.699154 132.536051 
L 361.763358 128.38619 
L 361.835861 128.979027 
L 361.866273 128.38619 
L 362.004924 130.164702 
L 362.036774 129.571865 
L 362.147147 128.38619 
L 362.33118 131.350376 
L 362.442433 129.571865 
L 362.469176 131.350376 
L 362.496696 128.979027 
L 362.521145 129.571865 
L 362.642429 128.979027 
L 362.669207 127.200516 
L 362.699457 128.38619 
L 362.784885 128.38619 
L 362.986021 130.164702 
L 363.110708 131.350376 
L 363.176123 131.350376 
L 363.210485 129.571865 
L 363.241863 130.164702 
L 363.370576 130.164702 
L 363.424603 129.571865 
L 363.449079 130.164702 
L 363.569027 130.164702 
L 363.595733 129.571865 
L 363.677266 130.164702 
L 363.757409 130.164702 
L 363.890275 129.571865 
L 363.979859 129.571865 
L 364.035788 130.164702 
L 364.061534 129.571865 
L 364.14862 130.164702 
L 364.174748 128.979027 
L 364.205809 131.350376 
L 364.241904 130.164702 
L 364.365637 129.571865 
L 364.463392 130.164702 
L 364.583616 127.793353 
L 364.635309 128.38619 
L 364.840624 131.943214 
L 364.948486 131.943214 
L 365.058527 131.350376 
L 365.161653 132.536051 
L 365.187952 131.943214 
L 365.2208 131.943214 
L 365.354712 132.536051 
L 365.380015 132.536051 
L 365.451724 133.128888 
L 365.476261 131.943214 
L 365.555618 133.128888 
L 366.126881 133.128888 
L 366.201908 131.943214 
L 366.227646 133.128888 
L 366.26667 133.128888 
L 366.329211 132.536051 
L 366.35583 133.128888 
L 366.564959 133.128888 
L 366.669223 131.350376 
L 366.69356 132.536051 
L 366.719354 132.536051 
L 366.743311 133.128888 
L 366.795797 131.943214 
L 366.926016 130.164702 
L 366.980255 130.164702 
L 367.058418 131.943214 
L 367.099923 131.350376 
L 367.366205 132.536051 
L 367.868552 132.536051 
L 368.109361 131.350376 
L 368.224333 131.350376 
L 368.349028 129.571865 
L 369.31701 129.571865 
L 369.413953 130.164702 
L 369.487405 129.571865 
L 369.511153 130.164702 
L 370.447342 130.164702 
L 370.471968 131.350376 
L 370.546305 130.164702 
L 370.569857 130.164702 
L 370.643439 131.350376 
L 370.667119 130.164702 
L 370.739229 130.164702 
L 370.835013 131.350376 
L 370.954961 130.164702 
L 371.082757 131.350376 
L 372.048738 131.350376 
L 372.170779 131.943214 
L 372.268409 131.350376 
L 372.392243 131.943214 
L 372.581937 131.943214 
L 372.67922 131.350376 
L 372.799405 131.943214 
L 372.942204 131.943214 
L 372.965966 131.350376 
L 373.037542 131.943214 
L 373.499222 131.943214 
L 373.578304 132.536051 
L 373.60266 131.943214 
L 373.674916 131.943214 
L 373.795471 132.536051 
L 374.321297 132.536051 
L 374.344946 133.128888 
L 374.415982 132.536051 
L 374.58211 132.536051 
L 374.700452 133.128888 
L 374.819544 132.536051 
L 374.850125 132.536051 
L 374.969113 133.128888 
L 374.992678 132.536051 
L 375.067338 133.128888 
L 375.620717 133.128888 
L 375.740581 133.721726 
L 375.811609 133.128888 
L 375.896151 133.128888 
L 376.018174 133.721726 
L 376.402677 133.721726 
L 376.42697 133.128888 
L 376.4994 133.721726 
L 377.530676 133.721726 
L 377.625883 134.314563 
L 377.649428 133.721726 
L 377.72323 134.314563 
L 378.500474 134.314563 
L 378.572845 134.9074 
L 378.596792 134.314563 
L 378.646794 134.314563 
L 378.742419 134.9074 
L 378.842522 134.314563 
L 378.963806 134.9074 
L 379.086883 134.314563 
L 379.209329 134.9074 
L 379.452278 134.9074 
L 379.475807 134.314563 
L 379.54832 134.9074 
L 379.908386 134.9074 
L 379.935497 136.093075 
L 380.007639 134.9074 
L 380.10581 134.9074 
L 380.231072 136.093075 
L 380.351079 134.9074 
L 380.471444 136.093075 
L 380.713789 136.093075 
L 380.833435 136.685912 
L 380.857765 136.685912 
L 380.981617 136.093075 
L 381.029823 136.093075 
L 381.105483 136.685912 
L 381.130247 136.093075 
L 381.229715 136.093075 
L 381.25374 136.685912 
L 381.326841 136.093075 
L 381.651399 136.093075 
L 381.728998 136.685912 
L 381.755537 136.093075 
L 381.88042 136.093075 
L 381.904184 136.685912 
L 381.979833 136.093075 
L 382.007007 136.093075 
L 382.057729 136.685912 
L 382.109469 136.093075 
L 382.228987 136.093075 
L 382.252787 136.685912 
L 382.324659 136.093075 
L 382.397749 136.093075 
L 382.421272 136.685912 
L 382.492862 136.093075 
L 382.539978 136.093075 
L 382.664107 136.685912 
L 383.24454 136.685912 
L 383.268994 136.093075 
L 383.34276 136.685912 
L 383.923072 136.685912 
L 384.045364 137.278749 
L 384.165987 136.685912 
L 385.482429 136.685912 
L 385.562804 136.093075 
L 385.586458 136.685912 
L 385.612904 136.685912 
L 385.714122 136.093075 
L 385.836752 136.685912 
L 385.884614 136.685912 
L 386.009571 136.093075 
L 386.104911 136.093075 
L 386.204888 134.9074 
L 386.252138 136.093075 
L 386.302573 134.9074 
L 386.50218 134.9074 
L 386.623681 134.314563 
L 386.647698 134.9074 
L 386.721658 134.314563 
L 387.040507 134.314563 
L 387.065295 133.721726 
L 387.13905 134.314563 
L 387.23622 134.314563 
L 387.358554 133.721726 
L 387.471519 133.721726 
L 387.590213 133.128888 
L 387.712744 133.128888 
L 387.834172 132.536051 
L 388.126134 132.536051 
L 388.150197 131.943214 
L 388.223282 132.536051 
L 388.40681 132.536051 
L 388.454241 131.943214 
L 388.502518 132.536051 
L 388.526132 132.536051 
L 388.749383 129.571865 
L 388.774068 129.571865 
L 388.896222 130.164702 
L 388.920539 130.164702 
L 389.066346 128.979027 
L 389.150555 129.571865 
L 389.174895 128.979027 
L 389.198431 128.979027 
L 389.318803 129.571865 
L 389.43969 128.979027 
L 389.58622 128.979027 
L 389.709301 128.38619 
L 389.859004 128.38619 
L 389.933633 128.979027 
L 389.983764 127.793353 
L 390.104237 128.38619 
L 390.152475 128.38619 
L 390.177213 127.793353 
L 390.22694 128.979027 
L 390.25438 128.979027 
L 390.401593 126.607678 
L 390.42564 127.200516 
L 390.568781 128.38619 
L 390.593654 127.793353 
L 390.667058 128.38619 
L 390.740097 128.38619 
L 390.763581 128.979027 
L 390.836053 128.38619 
L 390.85973 127.200516 
L 390.884518 128.979027 
L 390.93625 128.979027 
L 391.085009 130.164702 
L 391.246797 128.38619 
L 391.344002 129.571865 
L 391.488256 126.014841 
L 391.635642 128.979027 
L 391.709167 127.200516 
L 391.781533 127.793353 
L 391.830077 127.793353 
L 391.953757 129.571865 
L 392.05276 128.38619 
L 392.102683 129.571865 
L 392.151073 128.979027 
L 392.198643 128.38619 
L 392.22372 128.979027 
L 392.349951 130.164702 
L 392.473495 129.571865 
L 392.498968 130.164702 
L 392.547269 126.014841 
L 392.62209 127.793353 
L 392.670425 129.571865 
L 392.742676 128.979027 
L 392.792901 126.014841 
L 392.816797 130.164702 
L 392.913899 129.571865 
L 392.938159 129.571865 
L 393.039493 126.014841 
L 393.064029 129.571865 
L 393.162473 128.979027 
L 393.186401 128.979027 
L 393.209917 129.571865 
L 393.23367 124.236329 
L 393.329581 125.422004 
L 393.354484 126.014841 
L 393.379723 124.236329 
L 393.452811 123.643492 
L 393.476903 125.422004 
L 393.526436 122.457818 
L 393.551995 122.457818 
L 393.695587 120.679306 
L 393.969091 126.607678 
L 394.017459 126.014841 
L 394.041524 126.014841 
L 394.190337 127.200516 
L 394.214227 127.200516 
L 394.238764 127.793353 
L 394.264384 127.200516 
L 394.288 126.014841 
L 394.312477 127.793353 
L 394.385039 126.607678 
L 394.457271 126.607678 
L 394.57946 126.014841 
L 394.701686 126.607678 
L 394.74977 126.607678 
L 394.800506 128.38619 
L 394.850212 127.200516 
L 394.948371 126.014841 
L 395.020048 128.38619 
L 395.06752 127.200516 
L 395.116703 126.607678 
L 395.166039 127.200516 
L 395.191669 127.200516 
L 395.336336 128.38619 
L 395.517252 124.236329 
L 395.541229 126.014841 
L 395.710489 128.38619 
L 395.829772 127.793353 
L 395.924318 128.38619 
L 396.043418 127.793353 
L 396.161961 128.38619 
L 396.209009 128.38619 
L 396.329705 128.979027 
L 396.354269 128.38619 
L 396.425809 128.979027 
L 396.472933 129.571865 
L 396.522173 128.979027 
L 396.570476 127.793353 
L 396.595558 124.236329 
L 396.669196 125.422004 
L 396.693135 127.793353 
L 396.765763 126.014841 
L 396.813389 126.014841 
L 396.912112 127.200516 
L 396.936832 126.607678 
L 396.960329 126.607678 
L 397.080562 127.200516 
L 397.105483 127.200516 
L 397.227361 127.793353 
L 397.251219 127.793353 
L 397.372209 126.014841 
L 397.396493 126.607678 
L 397.421321 126.607678 
L 397.472889 127.200516 
L 397.546094 125.422004 
L 397.673696 126.607678 
L 397.793969 127.200516 
L 397.962772 127.200516 
L 398.084656 127.793353 
L 398.254181 127.793353 
L 398.305201 128.38619 
L 398.355589 127.793353 
L 398.453987 127.793353 
L 398.577689 128.38619 
L 398.601546 128.38619 
L 398.625135 127.793353 
L 398.69638 128.38619 
L 398.7687 128.38619 
L 398.892125 128.979027 
L 399.090004 128.979027 
L 399.128063 128.38619 
L 399.160281 128.979027 
L 399.245276 128.979027 
L 399.437681 128.38619 
L 400.302986 128.38619 
L 400.366583 127.793353 
L 400.413836 128.38619 
L 400.645479 128.38619 
L 400.777888 128.979027 
L 400.82692 128.38619 
L 400.885433 128.979027 
L 400.910166 128.979027 
L 401.038815 128.38619 
L 401.066016 128.979027 
L 401.141304 128.38619 
L 401.167961 128.38619 
L 401.248732 128.979027 
L 401.272346 128.38619 
L 401.323239 128.38619 
L 401.347715 127.793353 
L 401.421857 128.38619 
L 401.622002 128.38619 
L 401.645925 127.793353 
L 401.719411 128.38619 
L 401.924656 128.38619 
L 401.948719 127.793353 
L 402.023802 128.38619 
L 403.127015 128.38619 
L 403.151404 128.979027 
L 403.229136 128.38619 
L 403.304462 128.38619 
L 403.389447 128.979027 
L 403.4425 128.38619 
L 403.494453 128.979027 
L 403.926791 128.979027 
L 404.028959 129.571865 
L 404.158453 128.979027 
L 404.434906 128.979027 
L 404.558794 129.571865 
L 404.582321 129.571865 
L 404.679691 128.979027 
L 404.800165 129.571865 
L 404.84903 128.979027 
L 404.896369 129.571865 
L 405.482106 129.571865 
L 405.506646 130.164702 
L 405.580153 129.571865 
L 405.868383 129.571865 
L 405.987436 130.164702 
L 406.084576 129.571865 
L 406.181443 131.350376 
L 406.205125 130.164702 
L 406.401253 130.164702 
L 406.424859 129.571865 
L 406.499202 130.164702 
L 407.04011 130.164702 
L 407.069452 131.350376 
L 407.143541 130.164702 
L 407.610949 130.164702 
L 407.636303 131.350376 
L 407.712107 130.164702 
L 407.736481 130.164702 
L 407.863372 131.350376 
L 408.259679 131.350376 
L 408.28394 130.164702 
L 408.333211 131.350376 
L 408.408103 130.164702 
L 408.432587 131.350376 
L 408.534897 131.350376 
L 408.655745 130.164702 
L 408.779064 131.350376 
L 409.094125 131.350376 
L 409.117707 131.943214 
L 409.188656 131.350376 
L 409.525592 131.350376 
L 409.622225 131.943214 
L 409.670097 131.350376 
L 409.718342 131.943214 
L 409.742614 131.943214 
L 409.817486 131.350376 
L 409.841575 131.943214 
L 409.914492 131.943214 
L 409.939814 131.350376 
L 410.01344 131.943214 
L 410.330249 131.943214 
L 410.426572 132.536051 
L 410.546532 131.943214 
L 411.391608 131.943214 
L 411.463944 132.536051 
L 411.487513 131.943214 
L 411.558816 131.943214 
L 411.680213 132.536051 
L 411.704221 132.536051 
L 411.728552 131.943214 
L 411.801309 132.536051 
L 412.116293 132.536051 
L 412.140807 131.943214 
L 412.212662 132.536051 
L 412.721978 132.536051 
L 412.84158 133.128888 
L 413.20083 133.128888 
L 413.322168 132.536051 
L 413.440206 133.128888 
L 413.514443 132.536051 
L 413.539615 133.128888 
L 413.563134 133.128888 
L 413.685205 132.536051 
L 413.734546 132.536051 
L 413.857502 133.128888 
L 413.931099 132.536051 
L 413.955375 133.128888 
L 414.147359 133.128888 
L 414.218921 132.536051 
L 414.243265 133.128888 
L 414.754351 133.128888 
L 414.850509 133.721726 
L 414.972334 133.128888 
L 415.140444 133.128888 
L 415.261575 132.536051 
L 416.259092 132.536051 
L 416.283056 131.943214 
L 416.35694 132.536051 
L 416.530677 132.536051 
L 416.557653 131.943214 
L 416.635402 132.536051 
L 416.735015 132.536051 
L 416.860596 131.943214 
L 416.889034 131.943214 
L 416.966448 132.536051 
L 416.99196 131.943214 
L 417.04157 131.943214 
L 417.090112 132.536051 
L 417.139152 131.943214 
L 417.27089 131.943214 
L 417.374093 132.536051 
L 417.503751 131.943214 
L 418.167008 131.943214 
L 418.191718 131.350376 
L 418.264864 131.943214 
L 418.314402 131.943214 
L 418.339057 131.350376 
L 418.411299 131.943214 
L 418.435055 131.943214 
L 418.558174 131.350376 
L 418.678789 131.943214 
L 418.802801 131.943214 
L 418.826344 132.536051 
L 418.898587 131.943214 
L 418.995505 131.350376 
L 419.11804 131.943214 
L 419.289556 131.943214 
L 419.364548 131.350376 
L 419.390592 131.943214 
L 419.983621 131.943214 
L 420.055298 131.350376 
L 420.080741 131.943214 
L 420.104722 131.943214 
L 420.223702 131.350376 
L 420.346183 131.943214 
L 420.370478 131.943214 
L 420.490827 131.350376 
L 420.90678 131.350376 
L 421.006637 130.164702 
L 421.030179 131.350376 
L 421.103627 130.164702 
L 421.556478 130.164702 
L 421.678993 129.571865 
L 421.799518 129.571865 
L 421.901316 128.979027 
L 422.020742 129.571865 
L 422.044244 129.571865 
L 422.166303 128.979027 
L 422.205077 128.979027 
L 422.301322 128.38619 
L 422.325094 128.979027 
L 422.403202 128.38619 
L 422.549187 128.979027 
L 422.67131 127.793353 
L 422.696014 128.38619 
L 422.770648 127.793353 
L 422.79446 127.200516 
L 422.866308 127.793353 
L 422.91442 127.793353 
L 422.938755 127.200516 
L 423.010152 127.793353 
L 423.034968 127.793353 
L 423.107979 127.200516 
L 423.13157 127.793353 
L 423.179763 127.793353 
L 423.253596 127.200516 
L 423.277133 127.793353 
L 423.326159 127.793353 
L 423.446923 127.200516 
L 423.470836 127.200516 
L 423.521778 127.793353 
L 423.570149 127.200516 
L 423.593681 127.200516 
L 423.691686 127.793353 
L 423.740348 127.200516 
L 423.788795 127.793353 
L 423.861475 127.793353 
L 423.986623 127.200516 
L 424.012299 127.793353 
L 424.062098 127.200516 
L 424.161215 125.422004 
L 424.208684 126.014841 
L 424.232964 126.014841 
L 424.33112 128.38619 
L 424.356265 127.793353 
L 424.38159 127.793353 
L 424.428866 123.643492 
L 424.479219 128.38619 
L 424.513608 128.38619 
L 424.539206 127.793353 
L 424.612038 128.38619 
L 424.636336 128.38619 
L 424.732354 128.979027 
L 424.783471 127.793353 
L 424.832141 128.38619 
L 424.954443 128.979027 
L 425.173202 128.979027 
L 425.245342 129.571865 
L 425.280953 128.979027 
L 425.353872 128.979027 
L 425.379896 129.571865 
L 425.403782 128.979027 
L 425.462803 125.422004 
L 425.510143 128.979027 
L 425.563599 128.979027 
L 425.662079 126.607678 
L 425.685712 128.38619 
L 425.716801 128.38619 
L 425.909679 124.236329 
L 426.030898 126.014841 
L 426.054895 125.422004 
L 426.103009 126.014841 
L 426.200708 126.607678 
L 426.27293 125.422004 
L 426.321251 126.014841 
L 426.371568 128.38619 
L 426.41867 126.607678 
L 426.564895 123.643492 
L 426.59112 126.014841 
L 426.69453 125.422004 
L 426.741747 125.422004 
L 426.910993 127.200516 
L 427.057308 126.014841 
L 427.180452 126.607678 
L 427.304765 126.607678 
L 427.432633 127.793353 
L 427.662567 125.422004 
L 427.7126 125.422004 
L 427.815342 127.200516 
L 427.83986 126.607678 
L 427.97329 127.793353 
L 428.024072 127.200516 
L 428.077781 127.200516 
L 428.102392 127.793353 
L 428.150336 127.200516 
L 428.272941 126.607678 
L 428.298493 126.607678 
L 428.325611 127.793353 
L 428.406893 127.200516 
L 428.478576 127.200516 
L 428.526853 126.014841 
L 428.575735 126.607678 
L 428.600396 127.793353 
L 428.682051 127.200516 
L 428.731154 127.200516 
L 428.808535 126.607678 
L 428.833466 127.200516 
L 428.861815 127.200516 
L 428.986768 126.607678 
L 429.136948 127.793353 
L 429.210156 127.793353 
L 429.332236 127.200516 
L 429.380968 127.200516 
L 429.527132 126.014841 
L 429.57716 126.014841 
L 429.747106 127.793353 
L 429.821869 127.793353 
L 429.944839 126.607678 
L 430.105712 128.38619 
L 430.178427 128.38619 
L 430.284741 127.793353 
L 430.321399 128.38619 
L 430.347013 127.200516 
L 430.395434 127.793353 
L 430.568043 127.793353 
L 430.694775 128.38619 
L 430.917324 128.38619 
L 430.940943 127.793353 
L 431.005411 128.38619 
L 431.057799 128.38619 
L 431.083282 127.793353 
L 431.157249 128.38619 
L 431.575455 128.38619 
L 431.575455 128.38619 
" style="fill:none;stroke:#1f77b4;stroke-linecap:square;stroke-width:1.5;"/>
   </g>
   <g id="line2d_28">
    <path clip-path="url(#p6e51c20a4d)" d="M 63.084545 184.112893 
L 65.298015 184.112893 
L 65.420743 160.992239 
L 67.821439 160.992239 
L 67.941216 167.513449 
L 69.51802 167.513449 
L 69.637138 178.777357 
L 70.440607 178.777357 
L 70.559129 190.634102 
L 71.088568 190.634102 
L 131.842945 107.636886 
L 135.007651 107.636886 
L 135.104609 119.493631 
L 136.46468 119.493631 
L 136.585734 130.757539 
L 137.794105 130.757539 
L 137.914155 160.992239 
L 139.726821 160.992239 
L 139.847049 178.777357 
L 140.519529 178.777357 
L 235.661595 114.158096 
L 236.45867 114.158096 
L 236.579935 137.278749 
L 237.782044 137.278749 
L 237.904228 160.992239 
L 240.551677 160.992239 
L 240.672746 172.848985 
L 243.281377 172.848985 
L 243.401094 178.777357 
L 244.998587 178.777357 
L 245.11817 184.112893 
L 246.072421 184.112893 
L 246.19642 195.969638 
L 247.303268 195.969638 
L 247.421683 202.490848 
L 248.136039 202.490848 
L 248.263584 191.819777 
L 248.7498 191.819777 
L 248.870074 195.969638 
L 249.968583 195.969638 
L 250.102734 190.634102 
L 253.406872 190.634102 
L 253.556767 191.819777 
L 254.256917 191.819777 
L 254.389029 190.634102 
L 255.507121 190.634102 
L 255.629482 184.112893 
L 258.258975 184.112893 
L 258.379713 178.777357 
L 259.77998 178.777357 
L 259.901711 172.848985 
L 260.622922 172.848985 
L 260.744261 170.477636 
L 260.98408 170.477636 
L 261.115446 167.513449 
L 263.778214 167.513449 
L 263.899535 160.992239 
L 268.159211 160.992239 
L 268.280566 170.477636 
L 269.481669 170.477636 
L 269.613157 172.848985 
L 270.45339 172.848985 
L 270.576633 170.477636 
L 270.69929 170.477636 
L 270.83047 172.848985 
L 274.271178 172.848985 
L 274.392202 170.477636 
L 274.75379 170.477636 
L 274.875044 172.848985 
L 276.092837 172.848985 
L 276.213646 178.777357 
L 276.821716 178.777357 
L 276.945355 191.819777 
L 277.523784 191.819777 
L 277.646297 195.969638 
L 277.872348 195.969638 
L 277.993268 202.490848 
L 283.466281 202.490848 
L 283.590012 191.819777 
L 284.683508 191.819777 
L 284.803466 202.490848 
L 285.779892 202.490848 
L 285.896126 190.634102 
L 287.091429 190.634102 
L 287.238077 184.112893 
L 287.706614 184.112893 
L 287.824604 181.148706 
L 288.419807 181.148706 
L 288.54611 178.777357 
L 290.265627 178.777357 
L 290.38554 172.848985 
L 291.214192 172.848985 
L 291.335909 167.513449 
L 292.531252 167.513449 
L 292.643577 172.848985 
L 293.846608 172.848985 
L 293.997261 160.992239 
L 296.819882 160.992239 
L 296.952125 155.656704 
L 300.761247 155.656704 
L 300.931252 160.992239 
L 301.982817 160.992239 
L 302.117705 184.112893 
L 303.682514 184.112893 
L 303.816758 195.969638 
L 305.029907 195.969638 
L 305.155062 214.347593 
L 306.630886 214.347593 
L 306.748945 223.832989 
L 308.450484 223.832989 
L 308.569048 234.50406 
L 310.736524 234.50406 
L 310.857031 223.832989 
L 312.065159 223.832989 
L 312.184513 226.204338 
L 313.730659 226.204338 
L 313.84918 223.832989 
L 314.328408 223.832989 
L 314.449503 226.204338 
L 316.619037 226.204338 
L 316.73985 232.132711 
L 320.636744 232.132711 
L 320.758508 223.832989 
L 322.01921 223.832989 
L 322.144325 213.161918 
L 323.552617 213.161918 
L 323.666131 181.148706 
L 324.177222 181.148706 
L 324.299512 172.848985 
L 325.48873 172.848985 
L 325.618442 137.278749 
L 326.786276 137.278749 
L 326.908916 114.158096 
L 328.360981 114.158096 
L 328.492863 102.301351 
L 329.646931 102.301351 
L 329.780429 89.258931 
L 330.965831 89.258931 
L 331.084015 95.780141 
L 332.170862 95.780141 
L 332.305977 107.636886 
L 334.80813 107.636886 
L 334.938053 125.422004 
L 335.154229 125.422004 
L 335.289611 155.656704 
L 336.856991 155.656704 
L 336.971377 167.513449 
L 337.719473 167.513449 
L 337.848548 172.848985 
L 339.047494 172.848985 
L 339.186299 184.112893 
L 340.493246 184.112893 
L 340.617348 190.634102 
L 342.050918 190.634102 
L 342.170632 202.490848 
L 342.774505 202.490848 
L 342.896622 223.832989 
L 343.625572 223.832989 
L 343.746963 214.347593 
L 343.989559 214.347593 
L 344.108143 223.832989 
L 345.892543 223.832989 
L 346.01411 226.204338 
L 346.604284 226.204338 
L 346.723863 223.832989 
L 347.325588 223.832989 
L 347.445675 237.468246 
L 349.36351 237.468246 
L 349.483317 245.17513 
L 349.601483 245.17513 
L 349.719528 234.50406 
L 349.964231 234.50406 
L 350.08325 237.468246 
L 351.613735 237.468246 
L 351.737201 214.347593 
L 352.939118 214.347593 
L 353.063806 190.634102 
L 354.376536 190.634102 
L 354.497372 149.135494 
L 355.668769 149.135494 
L 355.7923 114.158096 
L 356.981187 114.158096 
L 357.112742 83.923396 
L 358.38996 83.923396 
L 358.509975 66.138278 
L 359.807882 66.138278 
L 359.932562 54.281533 
L 361.094309 54.281533 
L 361.218032 35.903578 
L 362.546914 35.903578 
L 362.699457 42.424787 
L 365.088843 42.424787 
L 365.244342 72.06665 
L 366.511392 72.06665 
L 366.644709 95.780141 
L 367.892924 95.780141 
L 368.035995 125.422004 
L 370.423807 125.422004 
L 370.546305 137.278749 
L 370.667119 137.278749 
L 370.78771 155.656704 
L 371.972993 155.656704 
L 372.095873 172.848985 
L 374.344946 172.848985 
L 374.46305 184.112893 
L 375.043162 184.112893 
L 375.162696 190.634102 
L 376.474934 190.634102 
L 376.598415 195.969638 
L 378.283232 195.969638 
L 378.403647 213.161918 
L 378.891225 213.161918 
L 379.013178 202.490848 
L 379.619282 202.490848 
L 379.738733 213.161918 
L 381.17806 213.161918 
L 381.303201 223.832989 
L 381.549774 223.832989 
L 381.678433 209.012057 
L 382.007007 209.012057 
L 382.133829 213.161918 
L 382.687721 213.161918 
L 382.810672 234.50406 
L 383.049952 234.50406 
L 383.170892 226.204338 
L 383.416284 226.204338 
L 383.540066 223.832989 
L 384.388114 223.832989 
L 384.513735 202.490848 
L 385.788213 202.490848 
L 385.909283 184.112893 
L 387.13905 184.112893 
L 387.260721 155.656704 
L 389.535379 155.656704 
L 389.658363 119.493631 
L 389.784317 119.493631 
L 389.906092 95.780141 
L 391.344002 95.780141 
L 391.463844 77.402186 
L 392.571695 77.402186 
L 392.694036 66.138278 
L 394.899347 66.138278 
L 395.020048 54.281533 
L 397.570428 54.281533 
L 397.697315 60.802743 
L 397.938399 60.802743 
L 398.060754 83.923396 
L 399.38867 83.923396 
L 399.514737 102.301351 
L 400.752115 102.301351 
L 400.885433 125.422004 
L 402.072277 125.422004 
L 402.194632 137.278749 
L 403.69997 137.278749 
L 403.84875 149.135494 
L 404.96958 149.135494 
L 405.089681 155.656704 
L 407.143541 155.656704 
L 407.265268 167.513449 
L 407.514582 167.513449 
L 407.636303 184.112893 
L 409.308715 184.112893 
L 409.429168 195.969638 
L 410.402913 195.969638 
L 410.522971 202.490848 
L 411.728552 202.490848 
L 411.849796 209.012057 
L 413.539615 209.012057 
L 413.660387 220.868803 
L 415.236406 220.868803 
L 415.358034 213.161918 
L 418.141896 213.161918 
L 418.264864 202.490848 
L 419.489271 202.490848 
L 419.614072 184.112893 
L 419.959527 184.112893 
L 420.080741 167.513449 
L 423.593681 167.513449 
L 423.715269 125.422004 
L 424.930831 125.422004 
L 425.051736 107.636886 
L 426.741747 107.636886 
L 426.863105 102.301351 
L 428.150336 102.301351 
L 428.272941 107.636886 
L 429.698857 107.636886 
L 429.821869 114.158096 
L 430.98033 114.158096 
L 431.107264 125.422004 
L 431.575455 125.422004 
L 431.575455 125.422004 
" style="fill:none;stroke:#ff7f0e;stroke-linecap:square;stroke-width:1.5;"/>
   </g>
   <g id="patch_3">
    <path d="M 44.66 255.638708 
L 44.66 25.44 
" style="fill:none;stroke:#000000;stroke-linecap:square;stroke-linejoin:miter;stroke-width:0.8;"/>
   </g>
   <g id="patch_4">
    <path d="M 450 255.638708 
L 450 25.44 
" style="fill:none;stroke:#000000;stroke-linecap:square;stroke-linejoin:miter;stroke-width:0.8;"/>
   </g>
   <g id="patch_5">
    <path d="M 44.66 255.638708 
L 450 255.638708 
" style="fill:none;stroke:#000000;stroke-linecap:square;stroke-linejoin:miter;stroke-width:0.8;"/>
   </g>
   <g id="patch_6">
    <path d="M 44.66 25.44 
L 450 25.44 
" style="fill:none;stroke:#000000;stroke-linecap:square;stroke-linejoin:miter;stroke-width:0.8;"/>
   </g>
   <g id="text_16">
    <!-- Lake Shoecraft - Water and Air Temperature -->
    <g transform="translate(115.711562 19.44)scale(0.12 -0.12)">
     <defs>
      <path d="M 9.8125 72.90625 
L 19.671875 72.90625 
L 19.671875 8.296875 
L 55.171875 8.296875 
L 55.171875 0 
L 9.8125 0 
z
" id="DejaVuSans-76"/>
      <path d="M 9.078125 75.984375 
L 18.109375 75.984375 
L 18.109375 31.109375 
L 44.921875 54.6875 
L 56.390625 54.6875 
L 27.390625 29.109375 
L 57.625 0 
L 45.90625 0 
L 18.109375 26.703125 
L 18.109375 0 
L 9.078125 0 
z
" id="DejaVuSans-107"/>
      <path d="M 53.515625 70.515625 
L 53.515625 60.890625 
Q 47.90625 63.578125 42.921875 64.890625 
Q 37.9375 66.21875 33.296875 66.21875 
Q 25.25 66.21875 20.875 63.09375 
Q 16.5 59.96875 16.5 54.203125 
Q 16.5 49.359375 19.40625 46.890625 
Q 22.3125 44.4375 30.421875 42.921875 
L 36.375 41.703125 
Q 47.40625 39.59375 52.65625 34.296875 
Q 57.90625 29 57.90625 20.125 
Q 57.90625 9.515625 50.796875 4.046875 
Q 43.703125 -1.421875 29.984375 -1.421875 
Q 24.8125 -1.421875 18.96875 -0.25 
Q 13.140625 0.921875 6.890625 3.21875 
L 6.890625 13.375 
Q 12.890625 10.015625 18.65625 8.296875 
Q 24.421875 6.59375 29.984375 6.59375 
Q 38.421875 6.59375 43.015625 9.90625 
Q 47.609375 13.234375 47.609375 19.390625 
Q 47.609375 24.75 44.3125 27.78125 
Q 41.015625 30.8125 33.5 32.328125 
L 27.484375 33.5 
Q 16.453125 35.6875 11.515625 40.375 
Q 6.59375 45.0625 6.59375 53.421875 
Q 6.59375 63.09375 13.40625 68.65625 
Q 20.21875 74.21875 32.171875 74.21875 
Q 37.3125 74.21875 42.625 73.28125 
Q 47.953125 72.359375 53.515625 70.515625 
z
" id="DejaVuSans-83"/>
      <path d="M 54.890625 33.015625 
L 54.890625 0 
L 45.90625 0 
L 45.90625 32.71875 
Q 45.90625 40.484375 42.875 44.328125 
Q 39.84375 48.1875 33.796875 48.1875 
Q 26.515625 48.1875 22.3125 43.546875 
Q 18.109375 38.921875 18.109375 30.90625 
L 18.109375 0 
L 9.078125 0 
L 9.078125 75.984375 
L 18.109375 75.984375 
L 18.109375 46.1875 
Q 21.34375 51.125 25.703125 53.5625 
Q 30.078125 56 35.796875 56 
Q 45.21875 56 50.046875 50.171875 
Q 54.890625 44.34375 54.890625 33.015625 
z
" id="DejaVuSans-104"/>
      <path d="M 30.609375 48.390625 
Q 23.390625 48.390625 19.1875 42.75 
Q 14.984375 37.109375 14.984375 27.296875 
Q 14.984375 17.484375 19.15625 11.84375 
Q 23.34375 6.203125 30.609375 6.203125 
Q 37.796875 6.203125 41.984375 11.859375 
Q 46.1875 17.53125 46.1875 27.296875 
Q 46.1875 37.015625 41.984375 42.703125 
Q 37.796875 48.390625 30.609375 48.390625 
z
M 30.609375 56 
Q 42.328125 56 49.015625 48.375 
Q 55.71875 40.765625 55.71875 27.296875 
Q 55.71875 13.875 49.015625 6.21875 
Q 42.328125 -1.421875 30.609375 -1.421875 
Q 18.84375 -1.421875 12.171875 6.21875 
Q 5.515625 13.875 5.515625 27.296875 
Q 5.515625 40.765625 12.171875 48.375 
Q 18.84375 56 30.609375 56 
z
" id="DejaVuSans-111"/>
      <path d="M 48.78125 52.59375 
L 48.78125 44.1875 
Q 44.96875 46.296875 41.140625 47.34375 
Q 37.3125 48.390625 33.40625 48.390625 
Q 24.65625 48.390625 19.8125 42.84375 
Q 14.984375 37.3125 14.984375 27.296875 
Q 14.984375 17.28125 19.8125 11.734375 
Q 24.65625 6.203125 33.40625 6.203125 
Q 37.3125 6.203125 41.140625 7.25 
Q 44.96875 8.296875 48.78125 10.40625 
L 48.78125 2.09375 
Q 45.015625 0.34375 40.984375 -0.53125 
Q 36.96875 -1.421875 32.421875 -1.421875 
Q 20.0625 -1.421875 12.78125 6.34375 
Q 5.515625 14.109375 5.515625 27.296875 
Q 5.515625 40.671875 12.859375 48.328125 
Q 20.21875 56 33.015625 56 
Q 37.15625 56 41.109375 55.140625 
Q 45.0625 54.296875 48.78125 52.59375 
z
" id="DejaVuSans-99"/>
      <path d="M 37.109375 75.984375 
L 37.109375 68.5 
L 28.515625 68.5 
Q 23.6875 68.5 21.796875 66.546875 
Q 19.921875 64.59375 19.921875 59.515625 
L 19.921875 54.6875 
L 34.71875 54.6875 
L 34.71875 47.703125 
L 19.921875 47.703125 
L 19.921875 0 
L 10.890625 0 
L 10.890625 47.703125 
L 2.296875 47.703125 
L 2.296875 54.6875 
L 10.890625 54.6875 
L 10.890625 58.5 
Q 10.890625 67.625 15.140625 71.796875 
Q 19.390625 75.984375 28.609375 75.984375 
z
" id="DejaVuSans-102"/>
      <path d="M 3.328125 72.90625 
L 13.28125 72.90625 
L 28.609375 11.28125 
L 43.890625 72.90625 
L 54.984375 72.90625 
L 70.3125 11.28125 
L 85.59375 72.90625 
L 95.609375 72.90625 
L 77.296875 0 
L 64.890625 0 
L 49.515625 63.28125 
L 33.984375 0 
L 21.578125 0 
z
" id="DejaVuSans-87"/>
      <path d="M 54.890625 33.015625 
L 54.890625 0 
L 45.90625 0 
L 45.90625 32.71875 
Q 45.90625 40.484375 42.875 44.328125 
Q 39.84375 48.1875 33.796875 48.1875 
Q 26.515625 48.1875 22.3125 43.546875 
Q 18.109375 38.921875 18.109375 30.90625 
L 18.109375 0 
L 9.078125 0 
L 9.078125 54.6875 
L 18.109375 54.6875 
L 18.109375 46.1875 
Q 21.34375 51.125 25.703125 53.5625 
Q 30.078125 56 35.796875 56 
Q 45.21875 56 50.046875 50.171875 
Q 54.890625 44.34375 54.890625 33.015625 
z
" id="DejaVuSans-110"/>
      <path d="M 45.40625 46.390625 
L 45.40625 75.984375 
L 54.390625 75.984375 
L 54.390625 0 
L 45.40625 0 
L 45.40625 8.203125 
Q 42.578125 3.328125 38.25 0.953125 
Q 33.9375 -1.421875 27.875 -1.421875 
Q 17.96875 -1.421875 11.734375 6.484375 
Q 5.515625 14.40625 5.515625 27.296875 
Q 5.515625 40.1875 11.734375 48.09375 
Q 17.96875 56 27.875 56 
Q 33.9375 56 38.25 53.625 
Q 42.578125 51.265625 45.40625 46.390625 
z
M 14.796875 27.296875 
Q 14.796875 17.390625 18.875 11.75 
Q 22.953125 6.109375 30.078125 6.109375 
Q 37.203125 6.109375 41.296875 11.75 
Q 45.40625 17.390625 45.40625 27.296875 
Q 45.40625 37.203125 41.296875 42.84375 
Q 37.203125 48.484375 30.078125 48.484375 
Q 22.953125 48.484375 18.875 42.84375 
Q 14.796875 37.203125 14.796875 27.296875 
z
" id="DejaVuSans-100"/>
      <path d="M 34.1875 63.1875 
L 20.796875 26.90625 
L 47.609375 26.90625 
z
M 28.609375 72.90625 
L 39.796875 72.90625 
L 67.578125 0 
L 57.328125 0 
L 50.6875 18.703125 
L 17.828125 18.703125 
L 11.1875 0 
L 0.78125 0 
z
" id="DejaVuSans-65"/>
      <path d="M 9.421875 54.6875 
L 18.40625 54.6875 
L 18.40625 0 
L 9.421875 0 
z
M 9.421875 75.984375 
L 18.40625 75.984375 
L 18.40625 64.59375 
L 9.421875 64.59375 
z
" id="DejaVuSans-105"/>
     </defs>
     <use xlink:href="#DejaVuSans-76"/>
     <use x="55.712891" xlink:href="#DejaVuSans-97"/>
     <use x="116.992188" xlink:href="#DejaVuSans-107"/>
     <use x="171.277344" xlink:href="#DejaVuSans-101"/>
     <use x="232.800781" xlink:href="#DejaVuSans-32"/>
     <use x="264.587891" xlink:href="#DejaVuSans-83"/>
     <use x="328.064453" xlink:href="#DejaVuSans-104"/>
     <use x="391.443359" xlink:href="#DejaVuSans-111"/>
     <use x="452.625" xlink:href="#DejaVuSans-101"/>
     <use x="514.148438" xlink:href="#DejaVuSans-99"/>
     <use x="569.128906" xlink:href="#DejaVuSans-114"/>
     <use x="610.242188" xlink:href="#DejaVuSans-97"/>
     <use x="671.521484" xlink:href="#DejaVuSans-102"/>
     <use x="704.976562" xlink:href="#DejaVuSans-116"/>
     <use x="744.185547" xlink:href="#DejaVuSans-32"/>
     <use x="775.972656" xlink:href="#DejaVuSans-45"/>
     <use x="812.056641" xlink:href="#DejaVuSans-32"/>
     <use x="843.84375" xlink:href="#DejaVuSans-87"/>
     <use x="936.345703" xlink:href="#DejaVuSans-97"/>
     <use x="997.625" xlink:href="#DejaVuSans-116"/>
     <use x="1036.833984" xlink:href="#DejaVuSans-101"/>
     <use x="1098.357422" xlink:href="#DejaVuSans-114"/>
     <use x="1139.470703" xlink:href="#DejaVuSans-32"/>
     <use x="1171.257812" xlink:href="#DejaVuSans-97"/>
     <use x="1232.537109" xlink:href="#DejaVuSans-110"/>
     <use x="1295.916016" xlink:href="#DejaVuSans-100"/>
     <use x="1359.392578" xlink:href="#DejaVuSans-32"/>
     <use x="1391.179688" xlink:href="#DejaVuSans-65"/>
     <use x="1459.587891" xlink:href="#DejaVuSans-105"/>
     <use x="1487.371094" xlink:href="#DejaVuSans-114"/>
     <use x="1528.484375" xlink:href="#DejaVuSans-32"/>
     <use x="1560.271484" xlink:href="#DejaVuSans-84"/>
     <use x="1604.355469" xlink:href="#DejaVuSans-101"/>
     <use x="1665.878906" xlink:href="#DejaVuSans-109"/>
     <use x="1763.291016" xlink:href="#DejaVuSans-112"/>
     <use x="1826.767578" xlink:href="#DejaVuSans-101"/>
     <use x="1888.291016" xlink:href="#DejaVuSans-114"/>
     <use x="1929.404297" xlink:href="#DejaVuSans-97"/>
     <use x="1990.683594" xlink:href="#DejaVuSans-116"/>
     <use x="2029.892578" xlink:href="#DejaVuSans-117"/>
     <use x="2093.271484" xlink:href="#DejaVuSans-114"/>
     <use x="2132.134766" xlink:href="#DejaVuSans-101"/>
    </g>
   </g>
   <g id="legend_1">
    <g id="patch_7">
     <path d="M 51.66 62.79625 
L 136.769375 62.79625 
Q 138.769375 62.79625 138.769375 60.79625 
L 138.769375 32.44 
Q 138.769375 30.44 136.769375 30.44 
L 51.66 30.44 
Q 49.66 30.44 49.66 32.44 
L 49.66 60.79625 
Q 49.66 62.79625 51.66 62.79625 
z
" style="fill:#ffffff;opacity:0.8;stroke:#cccccc;stroke-linejoin:miter;"/>
    </g>
    <g id="line2d_29">
     <path d="M 53.66 38.538437 
L 73.66 38.538437 
" style="fill:none;stroke:#1f77b4;stroke-linecap:square;stroke-width:1.5;"/>
    </g>
    <g id="line2d_30"/>
    <g id="text_17">
     <!-- Lake Temp -->
     <g transform="translate(81.66 42.038437)scale(0.1 -0.1)">
      <use xlink:href="#DejaVuSans-76"/>
      <use x="55.712891" xlink:href="#DejaVuSans-97"/>
      <use x="116.992188" xlink:href="#DejaVuSans-107"/>
      <use x="171.277344" xlink:href="#DejaVuSans-101"/>
      <use x="232.800781" xlink:href="#DejaVuSans-32"/>
      <use x="264.587891" xlink:href="#DejaVuSans-84"/>
      <use x="308.671875" xlink:href="#DejaVuSans-101"/>
      <use x="370.195312" xlink:href="#DejaVuSans-109"/>
      <use x="467.607422" xlink:href="#DejaVuSans-112"/>
     </g>
    </g>
    <g id="line2d_31">
     <path d="M 53.66 53.216562 
L 73.66 53.216562 
" style="fill:none;stroke:#ff7f0e;stroke-linecap:square;stroke-width:1.5;"/>
    </g>
    <g id="line2d_32"/>
    <g id="text_18">
     <!-- Air Temp -->
     <g transform="translate(81.66 56.716562)scale(0.1 -0.1)">
      <use xlink:href="#DejaVuSans-65"/>
      <use x="68.408203" xlink:href="#DejaVuSans-105"/>
      <use x="96.191406" xlink:href="#DejaVuSans-114"/>
      <use x="137.304688" xlink:href="#DejaVuSans-32"/>
      <use x="169.091797" xlink:href="#DejaVuSans-84"/>
      <use x="213.175781" xlink:href="#DejaVuSans-101"/>
      <use x="274.699219" xlink:href="#DejaVuSans-109"/>
      <use x="372.111328" xlink:href="#DejaVuSans-112"/>
     </g>
    </g>
   </g>
  </g>
 </g>
 <defs>
  <clipPath id="p6e51c20a4d">
   <rect height="230.198708" width="405.34" x="44.66" y="25.44"/>
  </clipPath>
 </defs>
</svg>
