<?xml version="1.0" encoding="utf-8" standalone="no"?>
<!DOCTYPE svg PUBLIC "-//W3C//DTD SVG 1.1//EN"
  "http://www.w3.org/Graphics/SVG/1.1/DTD/svg11.dtd">
<!-- Created with matplotlib (https://matplotlib.org/) -->
<svg height="345.6pt" version="1.1" viewBox="0 0 460.8 345.6" width="460.8pt" xmlns="http://www.w3.org/2000/svg" xmlns:xlink="http://www.w3.org/1999/xlink">
 <metadata>
  <rdf:RDF xmlns:cc="http://creativecommons.org/ns#" xmlns:dc="http://purl.org/dc/elements/1.1/" xmlns:rdf="http://www.w3.org/1999/02/22-rdf-syntax-ns#">
   <cc:Work>
    <dc:type rdf:resource="http://purl.org/dc/dcmitype/StillImage"/>
    <dc:date>2024-11-17T23:54:16.919931</dc:date>
    <dc:format>image/svg+xml</dc:format>
    <dc:creator>
     <cc:Agent>
      <dc:title>Matplotlib v3.3.2, https://matplotlib.org/</dc:title>
     </cc:Agent>
    </dc:creator>
   </cc:Work>
  </rdf:RDF>
 </metadata>
 <defs>
  <style type="text/css">*{stroke-linecap:butt;stroke-linejoin:round;}</style>
 </defs>
 <g id="figure_1">
  <g id="patch_1">
   <path d="M 0 345.6 
L 460.8 345.6 
L 460.8 0 
L 0 0 
z
" style="fill:none;"/>
  </g>
  <g id="axes_1">
   <g id="patch_2">
    <path d="M 54.2 255.638708 
L 450 255.638708 
L 450 25.44 
L 54.2 25.44 
z
" style="fill:none;"/>
   </g>
   <g id="matplotlib.axis_1">
    <g id="xtick_1">
     <g id="line2d_1">
      <path clip-path="url(#p03125287a2)" d="M 104.900576 255.638708 
L 104.900576 25.44 
" style="fill:none;stroke:#b0b0b0;stroke-linecap:square;stroke-width:0.8;"/>
     </g>
     <g id="line2d_2">
      <defs>
       <path d="M 0 0 
L 0 3.5 
" id="m0b9e133b6c" style="stroke:#000000;stroke-width:0.8;"/>
      </defs>
      <g>
       <use style="stroke:#000000;stroke-width:0.8;" x="104.900576" xlink:href="#m0b9e133b6c" y="255.638708"/>
      </g>
     </g>
     <g id="text_1">
      <!-- 2024-10-29 -->
      <g transform="translate(97.555183 319.848351)rotate(-70)scale(0.1 -0.1)">
       <defs>
        <path d="M 19.1875 8.296875 
L 53.609375 8.296875 
L 53.609375 0 
L 7.328125 0 
L 7.328125 8.296875 
Q 12.9375 14.109375 22.625 23.890625 
Q 32.328125 33.6875 34.8125 36.53125 
Q 39.546875 41.84375 41.421875 45.53125 
Q 43.3125 49.21875 43.3125 52.78125 
Q 43.3125 58.59375 39.234375 62.25 
Q 35.15625 65.921875 28.609375 65.921875 
Q 23.96875 65.921875 18.8125 64.3125 
Q 13.671875 62.703125 7.8125 59.421875 
L 7.8125 69.390625 
Q 13.765625 71.78125 18.9375 73 
Q 24.125 74.21875 28.421875 74.21875 
Q 39.75 74.21875 46.484375 68.546875 
Q 53.21875 62.890625 53.21875 53.421875 
Q 53.21875 48.921875 51.53125 44.890625 
Q 49.859375 40.875 45.40625 35.40625 
Q 44.1875 33.984375 37.640625 27.21875 
Q 31.109375 20.453125 19.1875 8.296875 
z
" id="DejaVuSans-50"/>
        <path d="M 31.78125 66.40625 
Q 24.171875 66.40625 20.328125 58.90625 
Q 16.5 51.421875 16.5 36.375 
Q 16.5 21.390625 20.328125 13.890625 
Q 24.171875 6.390625 31.78125 6.390625 
Q 39.453125 6.390625 43.28125 13.890625 
Q 47.125 21.390625 47.125 36.375 
Q 47.125 51.421875 43.28125 58.90625 
Q 39.453125 66.40625 31.78125 66.40625 
z
M 31.78125 74.21875 
Q 44.046875 74.21875 50.515625 64.515625 
Q 56.984375 54.828125 56.984375 36.375 
Q 56.984375 17.96875 50.515625 8.265625 
Q 44.046875 -1.421875 31.78125 -1.421875 
Q 19.53125 -1.421875 13.0625 8.265625 
Q 6.59375 17.96875 6.59375 36.375 
Q 6.59375 54.828125 13.0625 64.515625 
Q 19.53125 74.21875 31.78125 74.21875 
z
" id="DejaVuSans-48"/>
        <path d="M 37.796875 64.3125 
L 12.890625 25.390625 
L 37.796875 25.390625 
z
M 35.203125 72.90625 
L 47.609375 72.90625 
L 47.609375 25.390625 
L 58.015625 25.390625 
L 58.015625 17.1875 
L 47.609375 17.1875 
L 47.609375 0 
L 37.796875 0 
L 37.796875 17.1875 
L 4.890625 17.1875 
L 4.890625 26.703125 
z
" id="DejaVuSans-52"/>
        <path d="M 4.890625 31.390625 
L 31.203125 31.390625 
L 31.203125 23.390625 
L 4.890625 23.390625 
z
" id="DejaVuSans-45"/>
        <path d="M 12.40625 8.296875 
L 28.515625 8.296875 
L 28.515625 63.921875 
L 10.984375 60.40625 
L 10.984375 69.390625 
L 28.421875 72.90625 
L 38.28125 72.90625 
L 38.28125 8.296875 
L 54.390625 8.296875 
L 54.390625 0 
L 12.40625 0 
z
" id="DejaVuSans-49"/>
        <path d="M 10.984375 1.515625 
L 10.984375 10.5 
Q 14.703125 8.734375 18.5 7.8125 
Q 22.3125 6.890625 25.984375 6.890625 
Q 35.75 6.890625 40.890625 13.453125 
Q 46.046875 20.015625 46.78125 33.40625 
Q 43.953125 29.203125 39.59375 26.953125 
Q 35.25 24.703125 29.984375 24.703125 
Q 19.046875 24.703125 12.671875 31.3125 
Q 6.296875 37.9375 6.296875 49.421875 
Q 6.296875 60.640625 12.9375 67.421875 
Q 19.578125 74.21875 30.609375 74.21875 
Q 43.265625 74.21875 49.921875 64.515625 
Q 56.59375 54.828125 56.59375 36.375 
Q 56.59375 19.140625 48.40625 8.859375 
Q 40.234375 -1.421875 26.421875 -1.421875 
Q 22.703125 -1.421875 18.890625 -0.6875 
Q 15.09375 0.046875 10.984375 1.515625 
z
M 30.609375 32.421875 
Q 37.25 32.421875 41.125 36.953125 
Q 45.015625 41.5 45.015625 49.421875 
Q 45.015625 57.28125 41.125 61.84375 
Q 37.25 66.40625 30.609375 66.40625 
Q 23.96875 66.40625 20.09375 61.84375 
Q 16.21875 57.28125 16.21875 49.421875 
Q 16.21875 41.5 20.09375 36.953125 
Q 23.96875 32.421875 30.609375 32.421875 
z
" id="DejaVuSans-57"/>
       </defs>
       <use xlink:href="#DejaVuSans-50"/>
       <use x="63.623047" xlink:href="#DejaVuSans-48"/>
       <use x="127.246094" xlink:href="#DejaVuSans-50"/>
       <use x="190.869141" xlink:href="#DejaVuSans-52"/>
       <use x="254.492188" xlink:href="#DejaVuSans-45"/>
       <use x="290.576172" xlink:href="#DejaVuSans-49"/>
       <use x="354.199219" xlink:href="#DejaVuSans-48"/>
       <use x="417.822266" xlink:href="#DejaVuSans-45"/>
       <use x="453.90625" xlink:href="#DejaVuSans-50"/>
       <use x="517.529297" xlink:href="#DejaVuSans-57"/>
      </g>
     </g>
    </g>
    <g id="xtick_2">
     <g id="line2d_3">
      <path clip-path="url(#p03125287a2)" d="M 153.977605 255.638708 
L 153.977605 25.44 
" style="fill:none;stroke:#b0b0b0;stroke-linecap:square;stroke-width:0.8;"/>
     </g>
     <g id="line2d_4">
      <g>
       <use style="stroke:#000000;stroke-width:0.8;" x="153.977605" xlink:href="#m0b9e133b6c" y="255.638708"/>
      </g>
     </g>
     <g id="text_2">
      <!-- 2024-11-01 -->
      <g transform="translate(146.632212 319.848351)rotate(-70)scale(0.1 -0.1)">
       <use xlink:href="#DejaVuSans-50"/>
       <use x="63.623047" xlink:href="#DejaVuSans-48"/>
       <use x="127.246094" xlink:href="#DejaVuSans-50"/>
       <use x="190.869141" xlink:href="#DejaVuSans-52"/>
       <use x="254.492188" xlink:href="#DejaVuSans-45"/>
       <use x="290.576172" xlink:href="#DejaVuSans-49"/>
       <use x="354.199219" xlink:href="#DejaVuSans-49"/>
       <use x="417.822266" xlink:href="#DejaVuSans-45"/>
       <use x="453.90625" xlink:href="#DejaVuSans-48"/>
       <use x="517.529297" xlink:href="#DejaVuSans-49"/>
      </g>
     </g>
    </g>
    <g id="xtick_3">
     <g id="line2d_5">
      <path clip-path="url(#p03125287a2)" d="M 219.413645 255.638708 
L 219.413645 25.44 
" style="fill:none;stroke:#b0b0b0;stroke-linecap:square;stroke-width:0.8;"/>
     </g>
     <g id="line2d_6">
      <g>
       <use style="stroke:#000000;stroke-width:0.8;" x="219.413645" xlink:href="#m0b9e133b6c" y="255.638708"/>
      </g>
     </g>
     <g id="text_3">
      <!-- 2024-11-05 -->
      <g transform="translate(212.068252 319.848351)rotate(-70)scale(0.1 -0.1)">
       <defs>
        <path d="M 10.796875 72.90625 
L 49.515625 72.90625 
L 49.515625 64.59375 
L 19.828125 64.59375 
L 19.828125 46.734375 
Q 21.96875 47.46875 24.109375 47.828125 
Q 26.265625 48.1875 28.421875 48.1875 
Q 40.625 48.1875 47.75 41.5 
Q 54.890625 34.8125 54.890625 23.390625 
Q 54.890625 11.625 47.5625 5.09375 
Q 40.234375 -1.421875 26.90625 -1.421875 
Q 22.3125 -1.421875 17.546875 -0.640625 
Q 12.796875 0.140625 7.71875 1.703125 
L 7.71875 11.625 
Q 12.109375 9.234375 16.796875 8.0625 
Q 21.484375 6.890625 26.703125 6.890625 
Q 35.15625 6.890625 40.078125 11.328125 
Q 45.015625 15.765625 45.015625 23.390625 
Q 45.015625 31 40.078125 35.4375 
Q 35.15625 39.890625 26.703125 39.890625 
Q 22.75 39.890625 18.8125 39.015625 
Q 14.890625 38.140625 10.796875 36.28125 
z
" id="DejaVuSans-53"/>
       </defs>
       <use xlink:href="#DejaVuSans-50"/>
       <use x="63.623047" xlink:href="#DejaVuSans-48"/>
       <use x="127.246094" xlink:href="#DejaVuSans-50"/>
       <use x="190.869141" xlink:href="#DejaVuSans-52"/>
       <use x="254.492188" xlink:href="#DejaVuSans-45"/>
       <use x="290.576172" xlink:href="#DejaVuSans-49"/>
       <use x="354.199219" xlink:href="#DejaVuSans-49"/>
       <use x="417.822266" xlink:href="#DejaVuSans-45"/>
       <use x="453.90625" xlink:href="#DejaVuSans-48"/>
       <use x="517.529297" xlink:href="#DejaVuSans-53"/>
      </g>
     </g>
    </g>
    <g id="xtick_4">
     <g id="line2d_7">
      <path clip-path="url(#p03125287a2)" d="M 284.849684 255.638708 
L 284.849684 25.44 
" style="fill:none;stroke:#b0b0b0;stroke-linecap:square;stroke-width:0.8;"/>
     </g>
     <g id="line2d_8">
      <g>
       <use style="stroke:#000000;stroke-width:0.8;" x="284.849684" xlink:href="#m0b9e133b6c" y="255.638708"/>
      </g>
     </g>
     <g id="text_4">
      <!-- 2024-11-09 -->
      <g transform="translate(277.504291 319.848351)rotate(-70)scale(0.1 -0.1)">
       <use xlink:href="#DejaVuSans-50"/>
       <use x="63.623047" xlink:href="#DejaVuSans-48"/>
       <use x="127.246094" xlink:href="#DejaVuSans-50"/>
       <use x="190.869141" xlink:href="#DejaVuSans-52"/>
       <use x="254.492188" xlink:href="#DejaVuSans-45"/>
       <use x="290.576172" xlink:href="#DejaVuSans-49"/>
       <use x="354.199219" xlink:href="#DejaVuSans-49"/>
       <use x="417.822266" xlink:href="#DejaVuSans-45"/>
       <use x="453.90625" xlink:href="#DejaVuSans-48"/>
       <use x="517.529297" xlink:href="#DejaVuSans-57"/>
      </g>
     </g>
    </g>
    <g id="xtick_5">
     <g id="line2d_9">
      <path clip-path="url(#p03125287a2)" d="M 350.285723 255.638708 
L 350.285723 25.44 
" style="fill:none;stroke:#b0b0b0;stroke-linecap:square;stroke-width:0.8;"/>
     </g>
     <g id="line2d_10">
      <g>
       <use style="stroke:#000000;stroke-width:0.8;" x="350.285723" xlink:href="#m0b9e133b6c" y="255.638708"/>
      </g>
     </g>
     <g id="text_5">
      <!-- 2024-11-13 -->
      <g transform="translate(342.94033 319.848351)rotate(-70)scale(0.1 -0.1)">
       <defs>
        <path d="M 40.578125 39.3125 
Q 47.65625 37.796875 51.625 33 
Q 55.609375 28.21875 55.609375 21.1875 
Q 55.609375 10.40625 48.1875 4.484375 
Q 40.765625 -1.421875 27.09375 -1.421875 
Q 22.515625 -1.421875 17.65625 -0.515625 
Q 12.796875 0.390625 7.625 2.203125 
L 7.625 11.71875 
Q 11.71875 9.328125 16.59375 8.109375 
Q 21.484375 6.890625 26.8125 6.890625 
Q 36.078125 6.890625 40.9375 10.546875 
Q 45.796875 14.203125 45.796875 21.1875 
Q 45.796875 27.640625 41.28125 31.265625 
Q 36.765625 34.90625 28.71875 34.90625 
L 20.21875 34.90625 
L 20.21875 43.015625 
L 29.109375 43.015625 
Q 36.375 43.015625 40.234375 45.921875 
Q 44.09375 48.828125 44.09375 54.296875 
Q 44.09375 59.90625 40.109375 62.90625 
Q 36.140625 65.921875 28.71875 65.921875 
Q 24.65625 65.921875 20.015625 65.03125 
Q 15.375 64.15625 9.8125 62.3125 
L 9.8125 71.09375 
Q 15.4375 72.65625 20.34375 73.4375 
Q 25.25 74.21875 29.59375 74.21875 
Q 40.828125 74.21875 47.359375 69.109375 
Q 53.90625 64.015625 53.90625 55.328125 
Q 53.90625 49.265625 50.4375 45.09375 
Q 46.96875 40.921875 40.578125 39.3125 
z
" id="DejaVuSans-51"/>
       </defs>
       <use xlink:href="#DejaVuSans-50"/>
       <use x="63.623047" xlink:href="#DejaVuSans-48"/>
       <use x="127.246094" xlink:href="#DejaVuSans-50"/>
       <use x="190.869141" xlink:href="#DejaVuSans-52"/>
       <use x="254.492188" xlink:href="#DejaVuSans-45"/>
       <use x="290.576172" xlink:href="#DejaVuSans-49"/>
       <use x="354.199219" xlink:href="#DejaVuSans-49"/>
       <use x="417.822266" xlink:href="#DejaVuSans-45"/>
       <use x="453.90625" xlink:href="#DejaVuSans-49"/>
       <use x="517.529297" xlink:href="#DejaVuSans-51"/>
      </g>
     </g>
    </g>
    <g id="xtick_6">
     <g id="line2d_11">
      <path clip-path="url(#p03125287a2)" d="M 415.721763 255.638708 
L 415.721763 25.44 
" style="fill:none;stroke:#b0b0b0;stroke-linecap:square;stroke-width:0.8;"/>
     </g>
     <g id="line2d_12">
      <g>
       <use style="stroke:#000000;stroke-width:0.8;" x="415.721763" xlink:href="#m0b9e133b6c" y="255.638708"/>
      </g>
     </g>
     <g id="text_6">
      <!-- 2024-11-17 -->
      <g transform="translate(408.37637 319.848351)rotate(-70)scale(0.1 -0.1)">
       <defs>
        <path d="M 8.203125 72.90625 
L 55.078125 72.90625 
L 55.078125 68.703125 
L 28.609375 0 
L 18.3125 0 
L 43.21875 64.59375 
L 8.203125 64.59375 
z
" id="DejaVuSans-55"/>
       </defs>
       <use xlink:href="#DejaVuSans-50"/>
       <use x="63.623047" xlink:href="#DejaVuSans-48"/>
       <use x="127.246094" xlink:href="#DejaVuSans-50"/>
       <use x="190.869141" xlink:href="#DejaVuSans-52"/>
       <use x="254.492188" xlink:href="#DejaVuSans-45"/>
       <use x="290.576172" xlink:href="#DejaVuSans-49"/>
       <use x="354.199219" xlink:href="#DejaVuSans-49"/>
       <use x="417.822266" xlink:href="#DejaVuSans-45"/>
       <use x="453.90625" xlink:href="#DejaVuSans-49"/>
       <use x="517.529297" xlink:href="#DejaVuSans-55"/>
      </g>
     </g>
    </g>
    <g id="text_7">
     <!-- Date -->
     <g transform="translate(240.149219 332.158083)scale(0.1 -0.1)">
      <defs>
       <path d="M 19.671875 64.796875 
L 19.671875 8.109375 
L 31.59375 8.109375 
Q 46.6875 8.109375 53.6875 14.9375 
Q 60.6875 21.78125 60.6875 36.53125 
Q 60.6875 51.171875 53.6875 57.984375 
Q 46.6875 64.796875 31.59375 64.796875 
z
M 9.8125 72.90625 
L 30.078125 72.90625 
Q 51.265625 72.90625 61.171875 64.09375 
Q 71.09375 55.28125 71.09375 36.53125 
Q 71.09375 17.671875 61.125 8.828125 
Q 51.171875 0 30.078125 0 
L 9.8125 0 
z
" id="DejaVuSans-68"/>
       <path d="M 34.28125 27.484375 
Q 23.390625 27.484375 19.1875 25 
Q 14.984375 22.515625 14.984375 16.5 
Q 14.984375 11.71875 18.140625 8.90625 
Q 21.296875 6.109375 26.703125 6.109375 
Q 34.1875 6.109375 38.703125 11.40625 
Q 43.21875 16.703125 43.21875 25.484375 
L 43.21875 27.484375 
z
M 52.203125 31.203125 
L 52.203125 0 
L 43.21875 0 
L 43.21875 8.296875 
Q 40.140625 3.328125 35.546875 0.953125 
Q 30.953125 -1.421875 24.3125 -1.421875 
Q 15.921875 -1.421875 10.953125 3.296875 
Q 6 8.015625 6 15.921875 
Q 6 25.140625 12.171875 29.828125 
Q 18.359375 34.515625 30.609375 34.515625 
L 43.21875 34.515625 
L 43.21875 35.40625 
Q 43.21875 41.609375 39.140625 45 
Q 35.0625 48.390625 27.6875 48.390625 
Q 23 48.390625 18.546875 47.265625 
Q 14.109375 46.140625 10.015625 43.890625 
L 10.015625 52.203125 
Q 14.9375 54.109375 19.578125 55.046875 
Q 24.21875 56 28.609375 56 
Q 40.484375 56 46.34375 49.84375 
Q 52.203125 43.703125 52.203125 31.203125 
z
" id="DejaVuSans-97"/>
       <path d="M 18.3125 70.21875 
L 18.3125 54.6875 
L 36.8125 54.6875 
L 36.8125 47.703125 
L 18.3125 47.703125 
L 18.3125 18.015625 
Q 18.3125 11.328125 20.140625 9.421875 
Q 21.96875 7.515625 27.59375 7.515625 
L 36.8125 7.515625 
L 36.8125 0 
L 27.59375 0 
Q 17.1875 0 13.234375 3.875 
Q 9.28125 7.765625 9.28125 18.015625 
L 9.28125 47.703125 
L 2.6875 47.703125 
L 2.6875 54.6875 
L 9.28125 54.6875 
L 9.28125 70.21875 
z
" id="DejaVuSans-116"/>
       <path d="M 56.203125 29.59375 
L 56.203125 25.203125 
L 14.890625 25.203125 
Q 15.484375 15.921875 20.484375 11.0625 
Q 25.484375 6.203125 34.421875 6.203125 
Q 39.59375 6.203125 44.453125 7.46875 
Q 49.3125 8.734375 54.109375 11.28125 
L 54.109375 2.78125 
Q 49.265625 0.734375 44.1875 -0.34375 
Q 39.109375 -1.421875 33.890625 -1.421875 
Q 20.796875 -1.421875 13.15625 6.1875 
Q 5.515625 13.8125 5.515625 26.8125 
Q 5.515625 40.234375 12.765625 48.109375 
Q 20.015625 56 32.328125 56 
Q 43.359375 56 49.78125 48.890625 
Q 56.203125 41.796875 56.203125 29.59375 
z
M 47.21875 32.234375 
Q 47.125 39.59375 43.09375 43.984375 
Q 39.0625 48.390625 32.421875 48.390625 
Q 24.90625 48.390625 20.390625 44.140625 
Q 15.875 39.890625 15.1875 32.171875 
z
" id="DejaVuSans-101"/>
      </defs>
      <use xlink:href="#DejaVuSans-68"/>
      <use x="77.001953" xlink:href="#DejaVuSans-97"/>
      <use x="138.28125" xlink:href="#DejaVuSans-116"/>
      <use x="177.490234" xlink:href="#DejaVuSans-101"/>
     </g>
    </g>
   </g>
   <g id="matplotlib.axis_2">
    <g id="ytick_1">
     <g id="line2d_13">
      <path clip-path="url(#p03125287a2)" d="M 54.2 249.512365 
L 450 249.512365 
" style="fill:none;stroke:#b0b0b0;stroke-linecap:square;stroke-width:0.8;"/>
     </g>
     <g id="line2d_14">
      <defs>
       <path d="M 0 0 
L -3.5 0 
" id="m1f6f05de37" style="stroke:#000000;stroke-width:0.8;"/>
      </defs>
      <g>
       <use style="stroke:#000000;stroke-width:0.8;" x="54.2" xlink:href="#m1f6f05de37" y="249.512365"/>
      </g>
     </g>
     <g id="text_8">
      <!-- 37.5 -->
      <g transform="translate(24.934375 253.311583)scale(0.1 -0.1)">
       <defs>
        <path d="M 10.6875 12.40625 
L 21 12.40625 
L 21 0 
L 10.6875 0 
z
" id="DejaVuSans-46"/>
       </defs>
       <use xlink:href="#DejaVuSans-51"/>
       <use x="63.623047" xlink:href="#DejaVuSans-55"/>
       <use x="127.246094" xlink:href="#DejaVuSans-46"/>
       <use x="159.033203" xlink:href="#DejaVuSans-53"/>
      </g>
     </g>
    </g>
    <g id="ytick_2">
     <g id="line2d_15">
      <path clip-path="url(#p03125287a2)" d="M 54.2 222.404651 
L 450 222.404651 
" style="fill:none;stroke:#b0b0b0;stroke-linecap:square;stroke-width:0.8;"/>
     </g>
     <g id="line2d_16">
      <g>
       <use style="stroke:#000000;stroke-width:0.8;" x="54.2" xlink:href="#m1f6f05de37" y="222.404651"/>
      </g>
     </g>
     <g id="text_9">
      <!-- 40.0 -->
      <g transform="translate(24.934375 226.203869)scale(0.1 -0.1)">
       <use xlink:href="#DejaVuSans-52"/>
       <use x="63.623047" xlink:href="#DejaVuSans-48"/>
       <use x="127.246094" xlink:href="#DejaVuSans-46"/>
       <use x="159.033203" xlink:href="#DejaVuSans-48"/>
      </g>
     </g>
    </g>
    <g id="ytick_3">
     <g id="line2d_17">
      <path clip-path="url(#p03125287a2)" d="M 54.2 195.296936 
L 450 195.296936 
" style="fill:none;stroke:#b0b0b0;stroke-linecap:square;stroke-width:0.8;"/>
     </g>
     <g id="line2d_18">
      <g>
       <use style="stroke:#000000;stroke-width:0.8;" x="54.2" xlink:href="#m1f6f05de37" y="195.296936"/>
      </g>
     </g>
     <g id="text_10">
      <!-- 42.5 -->
      <g transform="translate(24.934375 199.096155)scale(0.1 -0.1)">
       <use xlink:href="#DejaVuSans-52"/>
       <use x="63.623047" xlink:href="#DejaVuSans-50"/>
       <use x="127.246094" xlink:href="#DejaVuSans-46"/>
       <use x="159.033203" xlink:href="#DejaVuSans-53"/>
      </g>
     </g>
    </g>
    <g id="ytick_4">
     <g id="line2d_19">
      <path clip-path="url(#p03125287a2)" d="M 54.2 168.189222 
L 450 168.189222 
" style="fill:none;stroke:#b0b0b0;stroke-linecap:square;stroke-width:0.8;"/>
     </g>
     <g id="line2d_20">
      <g>
       <use style="stroke:#000000;stroke-width:0.8;" x="54.2" xlink:href="#m1f6f05de37" y="168.189222"/>
      </g>
     </g>
     <g id="text_11">
      <!-- 45.0 -->
      <g transform="translate(24.934375 171.988441)scale(0.1 -0.1)">
       <use xlink:href="#DejaVuSans-52"/>
       <use x="63.623047" xlink:href="#DejaVuSans-53"/>
       <use x="127.246094" xlink:href="#DejaVuSans-46"/>
       <use x="159.033203" xlink:href="#DejaVuSans-48"/>
      </g>
     </g>
    </g>
    <g id="ytick_5">
     <g id="line2d_21">
      <path clip-path="url(#p03125287a2)" d="M 54.2 141.081508 
L 450 141.081508 
" style="fill:none;stroke:#b0b0b0;stroke-linecap:square;stroke-width:0.8;"/>
     </g>
     <g id="line2d_22">
      <g>
       <use style="stroke:#000000;stroke-width:0.8;" x="54.2" xlink:href="#m1f6f05de37" y="141.081508"/>
      </g>
     </g>
     <g id="text_12">
      <!-- 47.5 -->
      <g transform="translate(24.934375 144.880727)scale(0.1 -0.1)">
       <use xlink:href="#DejaVuSans-52"/>
       <use x="63.623047" xlink:href="#DejaVuSans-55"/>
       <use x="127.246094" xlink:href="#DejaVuSans-46"/>
       <use x="159.033203" xlink:href="#DejaVuSans-53"/>
      </g>
     </g>
    </g>
    <g id="ytick_6">
     <g id="line2d_23">
      <path clip-path="url(#p03125287a2)" d="M 54.2 113.973794 
L 450 113.973794 
" style="fill:none;stroke:#b0b0b0;stroke-linecap:square;stroke-width:0.8;"/>
     </g>
     <g id="line2d_24">
      <g>
       <use style="stroke:#000000;stroke-width:0.8;" x="54.2" xlink:href="#m1f6f05de37" y="113.973794"/>
      </g>
     </g>
     <g id="text_13">
      <!-- 50.0 -->
      <g transform="translate(24.934375 117.773013)scale(0.1 -0.1)">
       <use xlink:href="#DejaVuSans-53"/>
       <use x="63.623047" xlink:href="#DejaVuSans-48"/>
       <use x="127.246094" xlink:href="#DejaVuSans-46"/>
       <use x="159.033203" xlink:href="#DejaVuSans-48"/>
      </g>
     </g>
    </g>
    <g id="ytick_7">
     <g id="line2d_25">
      <path clip-path="url(#p03125287a2)" d="M 54.2 86.86608 
L 450 86.86608 
" style="fill:none;stroke:#b0b0b0;stroke-linecap:square;stroke-width:0.8;"/>
     </g>
     <g id="line2d_26">
      <g>
       <use style="stroke:#000000;stroke-width:0.8;" x="54.2" xlink:href="#m1f6f05de37" y="86.86608"/>
      </g>
     </g>
     <g id="text_14">
      <!-- 52.5 -->
      <g transform="translate(24.934375 90.665299)scale(0.1 -0.1)">
       <use xlink:href="#DejaVuSans-53"/>
       <use x="63.623047" xlink:href="#DejaVuSans-50"/>
       <use x="127.246094" xlink:href="#DejaVuSans-46"/>
       <use x="159.033203" xlink:href="#DejaVuSans-53"/>
      </g>
     </g>
    </g>
    <g id="ytick_8">
     <g id="line2d_27">
      <path clip-path="url(#p03125287a2)" d="M 54.2 59.758366 
L 450 59.758366 
" style="fill:none;stroke:#b0b0b0;stroke-linecap:square;stroke-width:0.8;"/>
     </g>
     <g id="line2d_28">
      <g>
       <use style="stroke:#000000;stroke-width:0.8;" x="54.2" xlink:href="#m1f6f05de37" y="59.758366"/>
      </g>
     </g>
     <g id="text_15">
      <!-- 55.0 -->
      <g transform="translate(24.934375 63.557585)scale(0.1 -0.1)">
       <use xlink:href="#DejaVuSans-53"/>
       <use x="63.623047" xlink:href="#DejaVuSans-53"/>
       <use x="127.246094" xlink:href="#DejaVuSans-46"/>
       <use x="159.033203" xlink:href="#DejaVuSans-48"/>
      </g>
     </g>
    </g>
    <g id="ytick_9">
     <g id="line2d_29">
      <path clip-path="url(#p03125287a2)" d="M 54.2 32.650652 
L 450 32.650652 
" style="fill:none;stroke:#b0b0b0;stroke-linecap:square;stroke-width:0.8;"/>
     </g>
     <g id="line2d_30">
      <g>
       <use style="stroke:#000000;stroke-width:0.8;" x="54.2" xlink:href="#m1f6f05de37" y="32.650652"/>
      </g>
     </g>
     <g id="text_16">
      <!-- 57.5 -->
      <g transform="translate(24.934375 36.449871)scale(0.1 -0.1)">
       <use xlink:href="#DejaVuSans-53"/>
       <use x="63.623047" xlink:href="#DejaVuSans-55"/>
       <use x="127.246094" xlink:href="#DejaVuSans-46"/>
       <use x="159.033203" xlink:href="#DejaVuSans-53"/>
      </g>
     </g>
    </g>
    <g id="text_17">
     <!-- Temperature [F] -->
     <g transform="translate(18.854688 180.575291)rotate(-90)scale(0.1 -0.1)">
      <defs>
       <path d="M -0.296875 72.90625 
L 61.375 72.90625 
L 61.375 64.59375 
L 35.5 64.59375 
L 35.5 0 
L 25.59375 0 
L 25.59375 64.59375 
L -0.296875 64.59375 
z
" id="DejaVuSans-84"/>
       <path d="M 52 44.1875 
Q 55.375 50.25 60.0625 53.125 
Q 64.75 56 71.09375 56 
Q 79.640625 56 84.28125 50.015625 
Q 88.921875 44.046875 88.921875 33.015625 
L 88.921875 0 
L 79.890625 0 
L 79.890625 32.71875 
Q 79.890625 40.578125 77.09375 44.375 
Q 74.3125 48.1875 68.609375 48.1875 
Q 61.625 48.1875 57.5625 43.546875 
Q 53.515625 38.921875 53.515625 30.90625 
L 53.515625 0 
L 44.484375 0 
L 44.484375 32.71875 
Q 44.484375 40.625 41.703125 44.40625 
Q 38.921875 48.1875 33.109375 48.1875 
Q 26.21875 48.1875 22.15625 43.53125 
Q 18.109375 38.875 18.109375 30.90625 
L 18.109375 0 
L 9.078125 0 
L 9.078125 54.6875 
L 18.109375 54.6875 
L 18.109375 46.1875 
Q 21.1875 51.21875 25.484375 53.609375 
Q 29.78125 56 35.6875 56 
Q 41.65625 56 45.828125 52.96875 
Q 50 49.953125 52 44.1875 
z
" id="DejaVuSans-109"/>
       <path d="M 18.109375 8.203125 
L 18.109375 -20.796875 
L 9.078125 -20.796875 
L 9.078125 54.6875 
L 18.109375 54.6875 
L 18.109375 46.390625 
Q 20.953125 51.265625 25.265625 53.625 
Q 29.59375 56 35.59375 56 
Q 45.5625 56 51.78125 48.09375 
Q 58.015625 40.1875 58.015625 27.296875 
Q 58.015625 14.40625 51.78125 6.484375 
Q 45.5625 -1.421875 35.59375 -1.421875 
Q 29.59375 -1.421875 25.265625 0.953125 
Q 20.953125 3.328125 18.109375 8.203125 
z
M 48.6875 27.296875 
Q 48.6875 37.203125 44.609375 42.84375 
Q 40.53125 48.484375 33.40625 48.484375 
Q 26.265625 48.484375 22.1875 42.84375 
Q 18.109375 37.203125 18.109375 27.296875 
Q 18.109375 17.390625 22.1875 11.75 
Q 26.265625 6.109375 33.40625 6.109375 
Q 40.53125 6.109375 44.609375 11.75 
Q 48.6875 17.390625 48.6875 27.296875 
z
" id="DejaVuSans-112"/>
       <path d="M 41.109375 46.296875 
Q 39.59375 47.171875 37.8125 47.578125 
Q 36.03125 48 33.890625 48 
Q 26.265625 48 22.1875 43.046875 
Q 18.109375 38.09375 18.109375 28.8125 
L 18.109375 0 
L 9.078125 0 
L 9.078125 54.6875 
L 18.109375 54.6875 
L 18.109375 46.1875 
Q 20.953125 51.171875 25.484375 53.578125 
Q 30.03125 56 36.53125 56 
Q 37.453125 56 38.578125 55.875 
Q 39.703125 55.765625 41.0625 55.515625 
z
" id="DejaVuSans-114"/>
       <path d="M 8.5 21.578125 
L 8.5 54.6875 
L 17.484375 54.6875 
L 17.484375 21.921875 
Q 17.484375 14.15625 20.5 10.265625 
Q 23.53125 6.390625 29.59375 6.390625 
Q 36.859375 6.390625 41.078125 11.03125 
Q 45.3125 15.671875 45.3125 23.6875 
L 45.3125 54.6875 
L 54.296875 54.6875 
L 54.296875 0 
L 45.3125 0 
L 45.3125 8.40625 
Q 42.046875 3.421875 37.71875 1 
Q 33.40625 -1.421875 27.6875 -1.421875 
Q 18.265625 -1.421875 13.375 4.4375 
Q 8.5 10.296875 8.5 21.578125 
z
M 31.109375 56 
z
" id="DejaVuSans-117"/>
       <path id="DejaVuSans-32"/>
       <path d="M 8.59375 75.984375 
L 29.296875 75.984375 
L 29.296875 69 
L 17.578125 69 
L 17.578125 -6.203125 
L 29.296875 -6.203125 
L 29.296875 -13.1875 
L 8.59375 -13.1875 
z
" id="DejaVuSans-91"/>
       <path d="M 9.8125 72.90625 
L 51.703125 72.90625 
L 51.703125 64.59375 
L 19.671875 64.59375 
L 19.671875 43.109375 
L 48.578125 43.109375 
L 48.578125 34.8125 
L 19.671875 34.8125 
L 19.671875 0 
L 9.8125 0 
z
" id="DejaVuSans-70"/>
       <path d="M 30.421875 75.984375 
L 30.421875 -13.1875 
L 9.71875 -13.1875 
L 9.71875 -6.203125 
L 21.390625 -6.203125 
L 21.390625 69 
L 9.71875 69 
L 9.71875 75.984375 
z
" id="DejaVuSans-93"/>
      </defs>
      <use xlink:href="#DejaVuSans-84"/>
      <use x="44.083984" xlink:href="#DejaVuSans-101"/>
      <use x="105.607422" xlink:href="#DejaVuSans-109"/>
      <use x="203.019531" xlink:href="#DejaVuSans-112"/>
      <use x="266.496094" xlink:href="#DejaVuSans-101"/>
      <use x="328.019531" xlink:href="#DejaVuSans-114"/>
      <use x="369.132812" xlink:href="#DejaVuSans-97"/>
      <use x="430.412109" xlink:href="#DejaVuSans-116"/>
      <use x="469.621094" xlink:href="#DejaVuSans-117"/>
      <use x="533" xlink:href="#DejaVuSans-114"/>
      <use x="571.863281" xlink:href="#DejaVuSans-101"/>
      <use x="633.386719" xlink:href="#DejaVuSans-32"/>
      <use x="665.173828" xlink:href="#DejaVuSans-91"/>
      <use x="704.1875" xlink:href="#DejaVuSans-70"/>
      <use x="761.707031" xlink:href="#DejaVuSans-93"/>
     </g>
    </g>
   </g>
   <g id="line2d_31">
    <path clip-path="url(#p03125287a2)" d="M 72.190909 52.168206 
L 72.226511 52.168206 
L 72.238294 51.083898 
L 72.336543 52.168206 
L 73.707606 52.168206 
L 73.799409 53.252515 
L 73.812679 52.168206 
L 73.827569 52.168206 
L 73.936953 53.252515 
L 74.020409 52.168206 
L 74.043839 53.252515 
L 74.056003 53.252515 
L 74.131503 52.168206 
L 74.156749 53.252515 
L 74.16846 53.252515 
L 74.251872 52.168206 
L 74.275524 53.252515 
L 74.287272 53.252515 
L 74.408403 52.168206 
L 74.52405 53.252515 
L 74.605939 53.252515 
L 74.690982 52.168206 
L 74.714599 53.252515 
L 74.72705 53.252515 
L 74.740699 52.168206 
L 74.83797 53.252515 
L 75.259844 53.252515 
L 75.378675 54.336823 
L 75.496908 53.252515 
L 75.508618 53.252515 
L 75.556064 54.336823 
L 75.616292 53.252515 
L 75.640017 53.252515 
L 75.652036 54.336823 
L 75.7471 53.252515 
L 75.782638 53.252515 
L 75.890461 54.336823 
L 76.010422 53.252515 
L 76.045864 53.252515 
L 76.166495 54.336823 
L 76.213993 54.336823 
L 76.226792 53.252515 
L 76.323969 54.336823 
L 76.489276 54.336823 
L 76.588447 55.421132 
L 76.73749 55.421132 
L 76.857115 56.50544 
L 76.928798 56.50544 
L 77.049181 57.589749 
L 77.061202 57.589749 
L 77.180287 56.50544 
L 77.264047 56.50544 
L 77.275834 55.421132 
L 77.370934 56.50544 
L 77.666562 56.50544 
L 77.774213 57.589749 
L 77.880104 56.50544 
L 77.998915 57.589749 
L 78.058375 57.589749 
L 78.142741 56.50544 
L 78.213081 57.589749 
L 78.248603 56.50544 
L 78.2842 56.50544 
L 78.352916 57.589749 
L 78.38819 56.50544 
L 78.423588 56.50544 
L 78.447125 57.589749 
L 78.530338 56.50544 
L 78.841154 56.50544 
L 78.852952 57.589749 
L 78.947836 56.50544 
L 79.020074 56.50544 
L 79.033373 57.589749 
L 79.131014 56.50544 
L 79.14295 56.50544 
L 79.154704 55.421132 
L 79.21489 57.589749 
L 79.250833 56.50544 
L 79.309821 56.50544 
L 79.404921 57.589749 
L 79.41676 56.50544 
L 79.440268 56.50544 
L 79.559546 57.589749 
L 79.678168 56.50544 
L 79.751068 56.50544 
L 79.83366 57.589749 
L 79.857883 56.50544 
L 80.068671 56.50544 
L 80.080439 55.421132 
L 80.154162 56.50544 
L 80.225156 56.50544 
L 80.320627 55.421132 
L 80.332569 56.50544 
L 80.369911 56.50544 
L 80.382163 55.421132 
L 80.477479 56.50544 
L 80.5011 56.50544 
L 80.585364 55.421132 
L 80.609264 56.50544 
L 80.764941 56.50544 
L 80.885223 55.421132 
L 80.935929 55.421132 
L 81.056307 56.50544 
L 81.068447 56.50544 
L 81.189113 55.421132 
L 81.309033 56.50544 
L 81.624433 56.50544 
L 81.722672 57.589749 
L 81.734796 56.50544 
L 82.978068 56.50544 
L 83.02557 55.421132 
L 83.085288 56.50544 
L 83.097038 56.50544 
L 83.156951 55.421132 
L 83.204532 56.50544 
L 83.405435 56.50544 
L 83.525838 57.589749 
L 83.537697 57.589749 
L 83.656987 56.50544 
L 83.752808 56.50544 
L 83.871862 57.589749 
L 84.026648 57.589749 
L 84.038395 56.50544 
L 84.136852 57.589749 
L 84.148595 57.589749 
L 84.271955 58.674057 
L 84.390702 57.589749 
L 84.462733 57.589749 
L 84.57005 58.674057 
L 84.593575 57.589749 
L 84.677517 58.674057 
L 84.689466 58.674057 
L 84.796594 57.589749 
L 84.89204 58.674057 
L 84.903783 57.589749 
L 84.915653 57.589749 
L 85.034773 58.674057 
L 85.261563 58.674057 
L 85.297451 59.758366 
L 85.36962 58.674057 
L 85.381344 58.674057 
L 85.489866 59.758366 
L 85.610005 58.674057 
L 85.621786 58.674057 
L 85.693751 59.758366 
L 85.730089 58.674057 
L 85.742032 58.674057 
L 85.862166 59.758366 
L 85.981097 57.589749 
L 86.06482 58.674057 
L 86.088515 57.589749 
L 86.14927 57.589749 
L 86.268322 58.674057 
L 86.625426 58.674057 
L 86.745353 59.758366 
L 87.044734 59.758366 
L 87.139251 58.674057 
L 87.151201 59.758366 
L 87.222666 59.758366 
L 87.234417 58.674057 
L 87.330315 59.758366 
L 87.390224 59.758366 
L 87.414542 58.674057 
L 87.497209 59.758366 
L 87.591791 59.758366 
L 87.712866 58.674057 
L 87.831282 59.758366 
L 88.188511 59.758366 
L 88.283184 61.926983 
L 88.295129 59.758366 
L 88.343441 59.758366 
L 88.461434 61.926983 
L 88.473189 61.926983 
L 88.591135 59.758366 
L 88.710119 61.926983 
L 88.793301 61.926983 
L 88.911641 59.758366 
L 89.030532 61.926983 
L 89.066169 61.926983 
L 89.173279 59.758366 
L 89.293182 61.926983 
L 89.577914 61.926983 
L 89.58986 59.758366 
L 89.685337 61.926983 
L 89.779868 61.926983 
L 89.899025 59.758366 
L 90.021145 61.926983 
L 90.135674 59.758366 
L 90.280084 59.758366 
L 90.38822 61.926983 
L 90.50815 59.758366 
L 90.5199 59.758366 
L 90.639855 61.926983 
L 90.699518 59.758366 
L 90.746944 61.926983 
L 90.806699 61.926983 
L 90.830196 59.758366 
L 90.865947 63.011292 
L 90.913912 61.926983 
L 90.962214 61.926983 
L 90.973978 63.011292 
L 91.009849 59.758366 
L 91.069486 61.926983 
L 91.093385 61.926983 
L 91.214242 59.758366 
L 91.309653 59.758366 
L 91.32182 61.926983 
L 91.418168 59.758366 
L 91.453389 59.758366 
L 91.488744 58.674057 
L 91.560761 59.758366 
L 91.704232 59.758366 
L 91.715957 61.926983 
L 91.812266 59.758366 
L 92.087856 59.758366 
L 92.1606 61.926983 
L 92.196039 59.758366 
L 92.400145 59.758366 
L 92.520149 61.926983 
L 92.760562 61.926983 
L 92.772331 59.758366 
L 92.867484 61.926983 
L 93.650659 61.926983 
L 93.711651 63.011292 
L 93.759036 61.926983 
L 93.794987 61.926983 
L 93.913523 63.011292 
L 94.021445 61.926983 
L 94.141537 63.011292 
L 94.165153 63.011292 
L 94.28484 61.926983 
L 94.323291 61.926983 
L 94.443041 63.011292 
L 94.467502 61.926983 
L 94.552055 63.011292 
L 94.588407 63.011292 
L 94.600157 61.926983 
L 94.685697 63.011292 
L 94.839712 63.011292 
L 94.961222 64.0956 
L 95.023958 64.0956 
L 95.122161 63.011292 
L 95.134271 64.0956 
L 95.146043 64.0956 
L 95.26592 61.926983 
L 95.384835 63.011292 
L 95.468712 63.011292 
L 95.564063 61.926983 
L 95.57616 63.011292 
L 95.671961 63.011292 
L 95.68369 61.926983 
L 95.77889 63.011292 
L 95.815075 63.011292 
L 95.826815 61.926983 
L 95.921511 63.011292 
L 95.969415 63.011292 
L 96.089578 61.926983 
L 96.196213 61.926983 
L 96.207955 63.011292 
L 96.302739 61.926983 
L 96.480499 61.926983 
L 96.599064 59.758366 
L 96.865233 59.758366 
L 96.877034 61.926983 
L 96.971908 59.758366 
L 97.126432 59.758366 
L 97.2481 58.674057 
L 97.296178 59.758366 
L 97.355432 58.674057 
L 97.390955 58.674057 
L 97.497924 57.589749 
L 97.545714 58.674057 
L 97.606196 57.589749 
L 97.665113 57.589749 
L 97.785709 56.50544 
L 97.869463 56.50544 
L 97.988822 55.421132 
L 98.012477 55.421132 
L 98.124082 53.252515 
L 98.245337 54.336823 
L 98.367134 52.168206 
L 98.455034 53.252515 
L 98.393966 51.083898 
L 98.46695 52.168206 
L 98.624405 52.168206 
L 98.735321 51.083898 
L 98.772645 48.91528 
L 98.844157 52.168206 
L 98.892411 51.083898 
L 98.904357 53.252515 
L 98.928384 53.252515 
L 98.976832 54.336823 
L 98.952325 51.083898 
L 99.023793 52.168206 
L 99.035775 48.91528 
L 99.047556 54.336823 
L 99.120099 54.336823 
L 99.143556 54.336823 
L 99.155938 55.421132 
L 99.203186 53.252515 
L 99.239407 53.252515 
L 99.373192 47.830972 
L 99.39687 47.830972 
L 99.514832 48.91528 
L 99.574419 48.91528 
L 99.682302 51.083898 
L 99.793012 48.91528 
L 99.913034 51.083898 
L 99.924768 51.083898 
L 100.044097 52.168206 
L 100.155194 52.168206 
L 100.274468 53.252515 
L 100.467892 53.252515 
L 100.588761 54.336823 
L 100.624397 54.336823 
L 100.636389 53.252515 
L 100.730609 54.336823 
L 100.766861 54.336823 
L 100.886494 55.421132 
L 101.584764 55.421132 
L 101.596698 56.50544 
L 101.692749 55.421132 
L 101.7045 55.421132 
L 101.740641 56.50544 
L 101.814088 55.421132 
L 101.850207 55.421132 
L 101.970715 56.50544 
L 102.43976 56.50544 
L 102.558688 57.589749 
L 102.570743 57.589749 
L 102.655117 56.50544 
L 102.678677 57.589749 
L 102.835468 57.589749 
L 102.847893 58.674057 
L 102.946112 57.589749 
L 103.244896 57.589749 
L 103.340707 58.674057 
L 103.352576 57.589749 
L 103.388515 57.589749 
L 103.496204 58.674057 
L 103.60405 57.589749 
L 103.724405 58.674057 
L 103.736542 57.589749 
L 103.831857 58.674057 
L 104.000564 58.674057 
L 104.047903 57.589749 
L 104.107871 58.674057 
L 104.157315 58.674057 
L 104.277111 57.589749 
L 104.396384 58.674057 
L 105.028252 58.674057 
L 105.040004 57.589749 
L 105.134653 58.674057 
L 105.217567 58.674057 
L 105.229895 59.758366 
L 105.32443 58.674057 
L 105.610279 58.674057 
L 105.727908 59.758366 
L 105.810854 59.758366 
L 105.904864 58.674057 
L 105.916867 59.758366 
L 105.940367 59.758366 
L 106.023855 58.674057 
L 106.047394 59.758366 
L 106.226082 59.758366 
L 106.336826 61.926983 
L 106.383907 59.758366 
L 106.431166 61.926983 
L 106.533197 61.926983 
L 106.557179 59.758366 
L 106.640649 61.926983 
L 106.676303 61.926983 
L 106.771398 59.758366 
L 106.783381 61.926983 
L 106.79548 61.926983 
L 106.890618 59.758366 
L 106.902387 61.926983 
L 106.914446 61.926983 
L 107.034648 59.758366 
L 107.14168 59.758366 
L 107.153537 61.926983 
L 107.248406 59.758366 
L 107.47602 59.758366 
L 107.523484 61.926983 
L 107.583549 59.758366 
L 107.61926 59.758366 
L 107.702945 61.926983 
L 107.726869 59.758366 
L 107.91905 59.758366 
L 108.038213 61.926983 
L 108.061905 61.926983 
L 108.181537 59.758366 
L 108.193672 59.758366 
L 108.313608 61.926983 
L 108.386054 61.926983 
L 108.446693 59.758366 
L 108.494852 61.926983 
L 108.543717 61.926983 
L 108.556315 59.758366 
L 108.643255 61.926983 
L 108.656054 61.926983 
L 108.729772 59.758366 
L 108.766406 61.926983 
L 108.80255 61.926983 
L 108.814301 59.758366 
L 108.838374 61.926983 
L 108.934694 61.926983 
L 108.970227 59.758366 
L 109.04421 61.926983 
L 109.09237 61.926983 
L 109.164085 59.758366 
L 109.199862 61.926983 
L 109.271643 61.926983 
L 109.331437 59.758366 
L 109.379443 61.926983 
L 109.718626 61.926983 
L 109.834103 63.011292 
L 109.869489 61.926983 
L 109.940236 63.011292 
L 110.343474 63.011292 
L 110.415407 64.0956 
L 110.452249 63.011292 
L 110.88039 63.011292 
L 110.915657 61.926983 
L 110.986859 63.011292 
L 111.325591 63.011292 
L 111.44596 61.926983 
L 111.565614 63.011292 
L 111.613828 63.011292 
L 111.732109 61.926983 
L 111.827913 61.926983 
L 111.946653 59.758366 
L 112.066118 59.758366 
L 112.077909 58.674057 
L 112.17332 59.758366 
L 112.211856 59.758366 
L 112.308365 58.674057 
L 112.321193 59.758366 
L 112.475499 59.758366 
L 112.487361 58.674057 
L 112.582013 59.758366 
L 112.810415 59.758366 
L 112.857694 58.674057 
L 112.917518 59.758366 
L 112.953108 59.758366 
L 113.060005 58.674057 
L 113.421422 58.674057 
L 113.954653 57.589749 
L 114.192456 57.589749 
L 114.312736 56.50544 
L 114.698054 56.50544 
L 114.819155 55.421132 
L 114.902241 55.421132 
L 115.033402 53.252515 
L 115.152057 54.336823 
L 115.463831 54.336823 
L 115.475617 53.252515 
L 115.570543 54.336823 
L 115.594159 54.336823 
L 115.712968 53.252515 
L 115.74823 53.252515 
L 115.868739 55.421132 
L 115.892315 55.421132 
L 115.9043 54.336823 
L 116.000354 55.421132 
L 116.171533 55.421132 
L 116.266088 56.50544 
L 116.278281 55.421132 
L 116.314095 55.421132 
L 116.437405 56.50544 
L 116.689496 56.50544 
L 116.786523 57.589749 
L 116.798463 56.50544 
L 116.821976 56.50544 
L 116.941198 57.589749 
L 117.085163 57.589749 
L 117.096914 56.50544 
L 117.194459 57.589749 
L 117.49622 57.589749 
L 117.618991 58.674057 
L 117.657957 58.674057 
L 117.705629 57.589749 
L 117.766598 58.674057 
L 117.961782 58.674057 
L 118.069308 59.758366 
L 118.141552 58.674057 
L 118.17849 59.758366 
L 118.190838 59.758366 
L 118.203634 58.674057 
L 118.298991 59.758366 
L 118.395787 59.758366 
L 118.407638 61.926983 
L 118.469917 59.758366 
L 118.591605 59.758366 
L 118.712811 61.926983 
L 118.736314 61.926983 
L 118.856329 59.758366 
L 118.975364 61.926983 
L 119.189974 61.926983 
L 119.201751 63.011292 
L 119.296683 61.926983 
L 120.01472 61.926983 
L 120.122403 63.011292 
L 120.229854 61.926983 
L 120.304191 63.011292 
L 120.340496 61.926983 
L 120.387877 61.926983 
L 120.507931 63.011292 
L 120.543876 63.011292 
L 120.555586 61.926983 
L 120.651494 63.011292 
L 120.676183 63.011292 
L 120.788054 61.926983 
L 120.826038 61.926983 
L 120.94941 63.011292 
L 121.118088 63.011292 
L 121.189627 61.926983 
L 121.225002 63.011292 
L 121.487516 63.011292 
L 121.499811 64.0956 
L 121.595705 63.011292 
L 121.716117 63.011292 
L 121.728071 64.0956 
L 121.823255 63.011292 
L 122.001381 63.011292 
L 122.025479 64.0956 
L 122.109352 63.011292 
L 122.132849 63.011292 
L 122.252864 64.0956 
L 122.276833 64.0956 
L 122.395676 63.011292 
L 122.51442 64.0956 
L 122.526168 64.0956 
L 122.550297 63.011292 
L 122.621132 64.0956 
L 122.659682 64.0956 
L 122.77884 63.011292 
L 122.891908 64.0956 
L 123.023596 64.0956 
L 123.130343 65.179909 
L 123.24817 64.0956 
L 123.260118 64.0956 
L 123.382151 65.179909 
L 123.417747 65.179909 
L 123.454622 64.0956 
L 123.525899 65.179909 
L 123.99332 65.179909 
L 124.040823 66.264217 
L 124.100538 65.179909 
L 124.112287 65.179909 
L 124.219887 66.264217 
L 124.339793 65.179909 
L 124.363331 65.179909 
L 124.483189 66.264217 
L 124.705053 66.264217 
L 124.828454 65.179909 
L 124.897836 66.264217 
L 124.92529 65.179909 
L 125.000673 65.179909 
L 125.113861 66.264217 
L 125.172072 66.264217 
L 125.293864 65.179909 
L 125.306389 65.179909 
L 125.417647 66.264217 
L 125.867407 66.264217 
L 125.99254 67.348526 
L 126.156407 67.348526 
L 126.180314 68.432835 
L 126.257048 67.348526 
L 126.323462 67.348526 
L 126.444213 68.432835 
L 126.527666 67.348526 
L 126.551376 68.432835 
L 126.718717 68.432835 
L 126.813506 67.348526 
L 126.825296 68.432835 
L 127.087467 68.432835 
L 127.20621 67.348526 
L 127.217946 67.348526 
L 127.338323 68.432835 
L 127.43414 68.432835 
L 127.544499 67.348526 
L 127.682178 67.348526 
L 127.779451 68.432835 
L 127.897178 67.348526 
L 128.5496 67.348526 
L 128.561475 68.432835 
L 128.659175 67.348526 
L 128.816935 67.348526 
L 128.829138 68.432835 
L 128.916496 67.348526 
L 129.074995 67.348526 
L 129.086944 68.432835 
L 129.174468 67.348526 
L 129.234071 67.348526 
L 129.246522 66.264217 
L 129.341126 67.348526 
L 129.495419 67.348526 
L 129.507184 68.432835 
L 129.602061 67.348526 
L 129.898139 67.348526 
L 129.926542 68.432835 
L 130.001278 67.348526 
L 130.747828 68.432835 
L 131.536735 68.432835 
L 131.548688 67.348526 
L 131.645392 68.432835 
L 132.436442 68.432835 
L 132.495692 70.601452 
L 132.542906 68.432835 
L 132.566361 68.432835 
L 132.57825 70.601452 
L 132.673872 68.432835 
L 132.792802 68.432835 
L 132.887618 70.601452 
L 132.899367 68.432835 
L 132.934907 68.432835 
L 133.054669 70.601452 
L 133.163094 68.432835 
L 133.282832 70.601452 
L 133.405103 68.432835 
L 133.525393 68.432835 
L 133.61954 70.601452 
L 133.632877 68.432835 
L 133.749907 70.601452 
L 134.572191 71.68576 
L 134.682891 71.68576 
L 134.730581 72.770069 
L 135.124873 71.68576 
L 135.23682 72.770069 
L 135.358698 71.68576 
L 135.409 72.770069 
L 135.458007 71.68576 
L 135.531172 71.68576 
L 135.568414 72.770069 
L 135.641961 71.68576 
L 135.703854 71.68576 
L 135.822563 72.770069 
L 135.834957 72.770069 
L 135.885703 71.68576 
L 135.945828 72.770069 
L 136.33565 72.770069 
L 136.458232 73.854377 
L 136.566476 72.770069 
L 136.67406 73.854377 
L 136.792214 72.770069 
L 136.828208 73.854377 
L 136.899589 72.770069 
L 136.911346 72.770069 
L 136.958459 73.854377 
L 137.017738 72.770069 
L 137.04124 72.770069 
L 137.15948 73.854377 
L 137.171535 73.854377 
L 137.277432 72.770069 
L 137.400208 73.854377 
L 137.41529 73.854377 
L 137.535107 74.938686 
L 137.570978 74.938686 
L 137.619326 73.854377 
L 137.678903 74.938686 
L 137.726899 74.938686 
L 137.750827 76.022994 
L 137.762546 73.854377 
L 137.822765 73.854377 
L 137.905399 73.854377 
L 137.917147 74.938686 
L 138.011494 73.854377 
L 138.271019 73.854377 
L 138.330277 76.022994 
L 138.383592 74.938686 
L 138.501845 73.854377 
L 138.631688 73.854377 
L 138.749252 74.938686 
L 138.855707 73.854377 
L 138.867449 74.938686 
L 138.961588 73.854377 
L 138.973319 73.854377 
L 139.120594 74.938686 
L 139.132731 74.938686 
L 139.144634 73.854377 
L 139.235689 74.938686 
L 139.274121 74.938686 
L 139.298509 76.022994 
L 139.322131 73.854377 
L 139.381452 74.938686 
L 139.405456 73.854377 
L 139.489234 74.938686 
L 140.012861 74.938686 
L 140.036531 76.022994 
L 140.120584 74.938686 
L 140.24014 74.938686 
L 140.361072 77.107303 
L 140.470669 76.022994 
L 140.48259 77.107303 
L 140.57858 76.022994 
L 140.892182 76.022994 
L 141.016965 77.107303 
L 141.029104 77.107303 
L 141.147471 78.191612 
L 141.262384 76.022994 
L 141.356213 76.022994 
L 141.466778 77.107303 
L 141.767806 77.107303 
L 141.781375 76.022994 
L 141.870708 77.107303 
L 141.959676 77.107303 
L 142.096187 76.022994 
L 142.413514 76.022994 
L 142.452065 74.938686 
L 142.512044 76.022994 
L 142.774652 76.022994 
L 142.786951 77.107303 
L 142.880405 76.022994 
L 143.17773 76.022994 
L 143.190623 77.107303 
L 143.286459 76.022994 
L 143.397191 76.022994 
L 143.519334 77.107303 
L 143.574483 77.107303 
L 143.643036 76.022994 
L 143.656064 77.107303 
L 143.775277 76.022994 
L 143.894853 77.107303 
L 144.007727 76.022994 
L 144.045346 76.022994 
L 144.14295 77.107303 
L 144.154721 76.022994 
L 144.1675 76.022994 
L 144.236699 77.107303 
L 144.276655 76.022994 
L 144.379454 77.107303 
L 144.466522 76.022994 
L 144.490162 77.107303 
L 144.555228 77.107303 
L 144.676949 76.022994 
L 145.033007 76.022994 
L 145.155967 74.938686 
L 145.576041 74.938686 
L 145.694781 73.854377 
L 145.706504 73.854377 
L 145.718273 74.938686 
L 145.810897 73.854377 
L 145.823567 73.854377 
L 145.835499 74.938686 
L 145.929813 73.854377 
L 146.184837 73.854377 
L 146.296668 72.770069 
L 146.308649 72.770069 
L 146.415134 73.854377 
L 146.534799 72.770069 
L 146.606926 72.770069 
L 146.726521 71.68576 
L 146.738276 71.68576 
L 146.857051 72.770069 
L 146.916258 72.770069 
L 147.036431 71.68576 
L 147.182862 71.68576 
L 147.303027 70.601452 
L 147.3508 70.601452 
L 147.471433 68.432835 
L 147.495476 70.601452 
L 147.579384 68.432835 
L 147.639434 68.432835 
L 147.663735 70.601452 
L 147.978597 70.601452 
L 148.032483 68.432835 
L 148.045993 70.601452 
L 148.09205 70.601452 
L 148.205004 68.432835 
L 148.231781 68.432835 
L 148.325727 70.601452 
L 148.33752 68.432835 
L 148.408105 68.432835 
L 148.517027 71.68576 
L 148.528765 70.601452 
L 148.643088 71.68576 
L 148.695713 70.601452 
L 148.727751 71.68576 
L 148.777706 71.68576 
L 148.868508 70.601452 
L 148.883329 71.68576 
L 148.8951 71.68576 
L 148.948431 70.601452 
L 148.986844 71.68576 
L 149.065164 71.68576 
L 149.076914 70.601452 
L 149.173036 71.68576 
L 149.425941 71.68576 
L 149.534637 72.770069 
L 149.617892 71.68576 
L 149.641587 72.770069 
L 149.951283 72.770069 
L 149.963378 73.854377 
L 150.057591 72.770069 
L 150.070094 72.770069 
L 150.093859 73.854377 
L 150.178782 72.770069 
L 150.336174 72.770069 
L 150.412411 73.854377 
L 150.438143 72.770069 
L 150.545485 72.770069 
L 150.664882 73.854377 
L 150.67667 72.770069 
L 150.771878 73.854377 
L 151.167744 73.854377 
L 151.179916 74.938686 
L 151.276049 73.854377 
L 151.348284 73.854377 
L 151.471515 74.938686 
L 151.769018 74.938686 
L 151.781169 73.854377 
L 151.875964 74.938686 
L 152.062727 74.938686 
L 152.12399 76.022994 
L 152.172302 74.938686 
L 152.196618 74.938686 
L 152.307445 76.022994 
L 152.43002 74.938686 
L 152.542667 76.022994 
L 152.567024 76.022994 
L 152.666944 74.938686 
L 152.679048 76.022994 
L 152.776064 74.938686 
L 152.823845 74.938686 
L 152.946461 76.022994 
L 152.958247 76.022994 
L 153.077718 74.938686 
L 153.089536 74.938686 
L 153.210016 76.022994 
L 153.221862 74.938686 
L 153.317567 76.022994 
L 153.416781 76.022994 
L 153.538496 77.107303 
L 153.868347 77.107303 
L 153.990383 76.022994 
L 154.050405 76.022994 
L 154.062445 77.107303 
L 154.15777 76.022994 
L 154.20555 76.022994 
L 154.288923 77.107303 
L 154.312346 76.022994 
L 154.40677 76.022994 
L 154.526087 77.107303 
L 154.646176 77.107303 
L 154.752738 78.191612 
L 154.872228 77.107303 
L 155.460613 77.107303 
L 155.472439 76.022994 
L 155.561188 77.107303 
L 155.688851 77.107303 
L 155.785628 78.191612 
L 155.798011 77.107303 
L 155.8098 77.107303 
L 155.918924 78.191612 
L 156.027395 77.107303 
L 156.147224 78.191612 
L 156.171014 78.191612 
L 156.182762 77.107303 
L 156.278673 78.191612 
L 156.32655 78.191612 
L 156.446873 79.27592 
L 156.566577 78.191612 
L 156.709882 78.191612 
L 156.721634 79.27592 
L 156.816853 78.191612 
L 156.888391 78.191612 
L 156.911915 79.27592 
L 156.996035 78.191612 
L 157.054939 78.191612 
L 157.137847 79.27592 
L 157.161907 78.191612 
L 157.257281 78.191612 
L 157.376401 79.27592 
L 157.700061 79.27592 
L 157.819821 78.191612 
L 157.855804 78.191612 
L 157.962427 79.27592 
L 158.069895 78.191612 
L 158.190064 79.27592 
L 158.416371 79.27592 
L 158.428265 81.444537 
L 158.525622 79.27592 
L 158.888234 79.27592 
L 158.900877 81.444537 
L 158.98903 79.27592 
L 159.02591 79.27592 
L 159.131927 81.444537 
L 159.250389 79.27592 
L 159.476267 79.27592 
L 159.5952 81.444537 
L 159.725412 81.444537 
L 159.844581 82.528846 
L 159.856323 82.528846 
L 159.962734 81.444537 
L 160.013161 81.444537 
L 160.025049 82.528846 
L 160.111791 81.444537 
L 160.185874 79.27592 
L 160.198068 81.444537 
L 160.622021 81.444537 
L 160.720958 79.27592 
L 160.732692 81.444537 
L 160.845417 79.27592 
L 160.967649 81.444537 
L 161.055973 81.444537 
L 161.170881 79.27592 
L 161.184395 79.27592 
L 161.272643 81.444537 
L 161.286581 79.27592 
L 161.300233 79.27592 
L 161.32835 81.444537 
L 161.392101 79.27592 
L 161.426647 79.27592 
L 161.544466 81.444537 
L 161.662258 79.27592 
L 161.675071 81.444537 
L 161.769199 79.27592 
L 161.919262 79.27592 
L 162.030632 78.191612 
L 162.139622 79.27592 
L 162.252953 78.191612 
L 162.316631 78.191612 
L 162.429478 79.27592 
L 162.547739 78.191612 
L 162.632268 79.27592 
L 162.64489 78.191612 
L 162.742091 79.27592 
L 162.754541 78.191612 
L 162.766684 78.191612 
L 162.886928 79.27592 
L 162.898707 78.191612 
L 162.994883 79.27592 
L 163.006668 79.27592 
L 163.078868 78.191612 
L 163.115203 79.27592 
L 164.003744 79.27592 
L 164.039925 78.191612 
L 164.104018 79.27592 
L 164.397783 79.27592 
L 164.409914 81.444537 
L 164.506064 79.27592 
L 164.828422 79.27592 
L 164.875701 81.444537 
L 164.911952 79.27592 
L 165.377436 79.27592 
L 165.389612 78.191612 
L 165.485356 79.27592 
L 165.833358 79.27592 
L 165.91938 81.444537 
L 165.943424 79.27592 
L 166.055211 79.27592 
L 166.102407 81.444537 
L 166.139556 79.27592 
L 166.166695 79.27592 
L 166.287413 81.444537 
L 166.371115 81.444537 
L 166.383227 79.27592 
L 166.480141 81.444537 
L 166.789579 81.444537 
L 166.801523 79.27592 
L 166.898158 81.444537 
L 166.946396 81.444537 
L 166.958554 79.27592 
L 167.045674 81.444537 
L 167.946498 81.444537 
L 167.970049 82.528846 
L 168.053808 81.444537 
L 168.22872 81.444537 
L 168.368671 82.528846 
L 168.390408 81.444537 
L 168.455865 82.528846 
L 168.83368 82.528846 
L 168.90932 81.444537 
L 169.041906 82.528846 
L 169.054001 81.444537 
L 169.148693 82.528846 
L 169.278752 82.528846 
L 169.29058 83.613154 
L 169.3864 82.528846 
L 169.410052 82.528846 
L 169.492644 81.444537 
L 169.516243 82.528846 
L 169.744467 82.528846 
L 169.862967 83.613154 
L 169.984068 82.528846 
L 170.11549 82.528846 
L 170.221691 83.613154 
L 170.2939 82.528846 
L 170.329976 83.613154 
L 170.388895 83.613154 
L 170.508377 82.528846 
L 170.626955 83.613154 
L 170.721962 82.528846 
L 170.733709 83.613154 
L 171.243616 83.613154 
L 171.338129 84.697463 
L 171.349853 83.613154 
L 171.622713 83.613154 
L 171.744465 84.697463 
L 171.863391 83.613154 
L 171.903219 83.613154 
L 172.023785 84.697463 
L 172.083392 84.697463 
L 172.202158 83.613154 
L 172.261727 84.697463 
L 172.308818 83.613154 
L 172.557817 83.613154 
L 172.593583 84.697463 
L 172.664659 83.613154 
L 172.807478 83.613154 
L 172.903995 84.697463 
L 172.915738 83.613154 
L 172.951569 83.613154 
L 173.010992 84.697463 
L 173.058739 83.613154 
L 173.070489 83.613154 
L 173.1899 84.697463 
L 173.225265 84.697463 
L 173.344349 83.613154 
L 173.356137 83.613154 
L 173.475767 84.697463 
L 173.57012 83.613154 
L 173.582381 84.697463 
L 173.618227 84.697463 
L 173.713934 83.613154 
L 173.725685 84.697463 
L 174.246619 84.697463 
L 174.258971 83.613154 
L 174.355465 84.697463 
L 174.547105 84.697463 
L 174.655396 85.781772 
L 174.729078 84.697463 
L 174.766355 85.781772 
L 174.778295 85.781772 
L 174.790353 84.697463 
L 174.887411 85.781772 
L 175.48563 85.781772 
L 175.591642 84.697463 
L 175.710072 85.781772 
L 175.722207 85.781772 
L 175.841946 84.697463 
L 175.889107 84.697463 
L 175.925014 85.781772 
L 175.995644 84.697463 
L 176.355209 84.697463 
L 176.366961 85.781772 
L 176.463257 84.697463 
L 177.286463 84.697463 
L 177.408862 83.613154 
L 177.515921 84.697463 
L 177.635788 83.613154 
L 178.11465 83.613154 
L 178.150923 82.528846 
L 178.223109 83.613154 
L 178.234862 83.613154 
L 178.354296 82.528846 
L 178.366087 82.528846 
L 178.487264 83.613154 
L 178.606816 82.528846 
L 178.618753 82.528846 
L 178.654389 83.613154 
L 178.726552 82.528846 
L 178.751008 82.528846 
L 178.869064 81.444537 
L 178.953248 82.528846 
L 178.977227 81.444537 
L 179.060782 81.444537 
L 179.072759 82.528846 
L 179.167993 81.444537 
L 179.335163 81.444537 
L 179.455682 79.27592 
L 179.697229 79.27592 
L 179.816815 78.191612 
L 179.888592 78.191612 
L 179.997652 77.107303 
L 180.116796 78.191612 
L 180.23557 77.107303 
L 180.389571 77.107303 
L 180.402394 78.191612 
L 180.497897 77.107303 
L 180.557544 77.107303 
L 180.676576 78.191612 
L 180.700242 78.191612 
L 180.81999 77.107303 
L 180.845304 77.107303 
L 180.963876 78.191612 
L 180.987424 78.191612 
L 180.999289 77.107303 
L 181.093819 78.191612 
L 181.391992 78.191612 
L 181.404159 79.27592 
L 181.499702 78.191612 
L 181.619966 78.191612 
L 181.726595 79.27592 
L 181.845055 78.191612 
L 181.868752 78.191612 
L 181.989659 79.27592 
L 182.085871 79.27592 
L 182.097633 78.191612 
L 182.192858 79.27592 
L 182.263951 79.27592 
L 182.323238 78.191612 
L 182.370838 79.27592 
L 182.931048 79.27592 
L 183.050407 81.444537 
L 183.085853 81.444537 
L 183.204516 79.27592 
L 183.324609 81.444537 
L 183.384168 79.27592 
L 183.431826 81.444537 
L 183.44373 81.444537 
L 183.456531 79.27592 
L 183.551804 81.444537 
L 183.866435 81.444537 
L 183.890518 82.528846 
L 183.973272 81.444537 
L 184.081051 81.444537 
L 184.166087 82.528846 
L 184.190618 81.444537 
L 184.227571 81.444537 
L 184.34766 82.528846 
L 184.466226 81.444537 
L 184.587234 82.528846 
L 184.803493 82.528846 
L 184.81522 83.613154 
L 184.910577 82.528846 
L 184.934139 82.528846 
L 185.041792 83.613154 
L 185.053569 82.528846 
L 185.149083 83.613154 
L 185.185019 83.613154 
L 185.19677 82.528846 
L 185.280258 83.613154 
L 185.400177 84.697463 
L 185.49634 83.613154 
L 185.508085 84.697463 
L 185.519865 84.697463 
L 185.639101 83.613154 
L 186.03378 83.613154 
L 186.105364 82.528846 
L 186.141578 83.613154 
L 186.201102 83.613154 
L 186.213444 82.528846 
L 186.308166 83.613154 
L 186.546101 83.613154 
L 186.665267 84.697463 
L 186.706858 84.697463 
L 186.837013 83.613154 
L 186.932713 84.697463 
L 186.944462 83.613154 
L 186.980293 83.613154 
L 187.065603 84.697463 
L 187.089104 83.613154 
L 187.186388 83.613154 
L 187.198493 84.697463 
L 187.293881 83.613154 
L 187.401262 83.613154 
L 187.496911 84.697463 
L 187.508673 83.613154 
L 187.689262 83.613154 
L 187.701025 84.697463 
L 187.796132 83.613154 
L 188.02378 83.613154 
L 188.035622 84.697463 
L 188.047423 83.613154 
L 187.37776 83.613154 
L 187.437673 83.613154 
L 187.557961 84.697463 
L 187.605814 84.697463 
L 187.725358 83.613154 
L 187.844138 84.697463 
L 187.868017 84.697463 
L 187.927317 83.613154 
L 187.97458 84.697463 
L 188.057834 84.697463 
L 188.097245 83.613154 
L 188.168697 84.697463 
L 188.625072 84.697463 
L 188.708383 83.613154 
L 188.732079 84.697463 
L 189.137993 84.697463 
L 189.25647 83.613154 
L 189.374962 84.697463 
L 189.386696 84.697463 
L 189.505372 83.613154 
L 189.624652 84.697463 
L 189.67235 84.697463 
L 189.78154 83.613154 
L 189.889464 84.697463 
L 189.913271 83.613154 
L 189.996521 84.697463 
L 190.472677 84.697463 
L 190.591793 85.781772 
L 190.709972 84.697463 
L 190.829074 85.781772 
L 190.853032 85.781772 
L 190.864813 84.697463 
L 190.959401 85.781772 
L 191.042574 85.781772 
L 191.066076 86.86608 
L 191.148523 85.781772 
L 191.57852 85.781772 
L 191.590267 84.697463 
L 191.68787 85.781772 
L 192.265031 85.781772 
L 192.324248 84.697463 
L 192.371708 85.781772 
L 192.395382 85.781772 
L 192.518017 84.697463 
L 192.542057 84.697463 
L 192.659726 85.781772 
L 192.801592 84.697463 
L 192.908542 85.781772 
L 193.027777 84.697463 
L 193.157567 84.697463 
L 193.169281 85.781772 
L 193.26405 84.697463 
L 193.716584 84.697463 
L 193.823066 83.613154 
L 193.944471 84.697463 
L 193.968057 84.697463 
L 194.040058 83.613154 
L 194.076116 84.697463 
L 194.11572 84.697463 
L 194.162876 83.613154 
L 194.209997 84.697463 
L 194.248992 84.697463 
L 194.367562 83.613154 
L 194.592446 83.613154 
L 194.712655 82.528846 
L 194.820536 83.613154 
L 194.939033 82.528846 
L 195.272072 82.528846 
L 195.391793 81.444537 
L 195.439415 81.444537 
L 195.546944 82.528846 
L 195.665392 81.444537 
L 195.761168 81.444537 
L 195.797185 82.528846 
L 195.868128 81.444537 
L 195.96388 81.444537 
L 196.047808 82.528846 
L 196.071375 81.444537 
L 196.095334 81.444537 
L 196.215766 82.528846 
L 196.323553 82.528846 
L 196.442695 81.444537 
L 196.562365 82.528846 
L 196.61077 82.528846 
L 196.658477 81.444537 
L 196.717949 82.528846 
L 197.016912 82.528846 
L 197.135233 83.613154 
L 197.302428 83.613154 
L 197.314557 82.528846 
L 197.408875 83.613154 
L 197.68288 83.613154 
L 197.766366 82.528846 
L 197.790245 83.613154 
L 197.993985 83.613154 
L 198.017718 82.528846 
L 198.101241 83.613154 
L 198.113137 83.613154 
L 198.125082 82.528846 
L 198.220177 83.613154 
L 199.319706 83.613154 
L 199.332069 84.697463 
L 199.423857 83.613154 
L 199.461047 83.613154 
L 199.564774 84.697463 
L 199.675086 83.613154 
L 199.79328 84.697463 
L 201.065829 84.697463 
L 201.185699 85.781772 
L 201.295123 84.697463 
L 201.403326 85.781772 
L 201.499761 84.697463 
L 201.511698 85.781772 
L 201.536445 85.781772 
L 201.620369 84.697463 
L 201.644669 85.781772 
L 201.717537 85.781772 
L 201.766589 84.697463 
L 201.816157 85.781772 
L 201.828675 85.781772 
L 201.949418 84.697463 
L 202.06149 85.781772 
L 202.110047 85.781772 
L 202.21786 84.697463 
L 202.337506 85.781772 
L 202.505021 85.781772 
L 202.516775 84.697463 
L 202.613223 85.781772 
L 203.186764 85.781772 
L 203.198543 86.86608 
L 203.294716 85.781772 
L 203.355129 85.781772 
L 203.475727 86.86608 
L 203.487864 86.86608 
L 203.595862 85.781772 
L 203.7158 86.86608 
L 203.751605 86.86608 
L 203.763999 85.781772 
L 203.859706 86.86608 
L 203.907127 86.86608 
L 204.027376 87.950389 
L 204.051304 86.86608 
L 204.133938 87.950389 
L 204.216644 87.950389 
L 204.33559 90.119006 
L 204.445446 90.119006 
L 204.563671 87.950389 
L 204.587213 87.950389 
L 204.639496 86.86608 
L 204.687514 87.950389 
L 204.699833 87.950389 
L 204.758855 86.86608 
L 204.80678 87.950389 
L 204.866633 87.950389 
L 204.973057 86.86608 
L 205.091519 87.950389 
L 205.210053 86.86608 
L 205.328888 87.950389 
L 205.34082 87.950389 
L 205.35259 86.86608 
L 205.447132 87.950389 
L 205.755118 87.950389 
L 205.839107 90.119006 
L 205.862857 87.950389 
L 205.910669 87.950389 
L 206.030897 90.119006 
L 206.102364 87.950389 
L 206.138968 90.119006 
L 206.518795 90.119006 
L 206.530544 91.203314 
L 206.626054 90.119006 
L 206.815516 90.119006 
L 206.827468 91.203314 
L 206.922231 90.119006 
L 206.945969 90.119006 
L 207.064993 91.203314 
L 207.279292 91.203314 
L 207.397716 90.119006 
L 207.409426 90.119006 
L 207.515914 91.203314 
L 207.551313 90.119006 
L 207.623442 91.203314 
L 207.800263 91.203314 
L 207.921465 92.287623 
L 208.440914 92.287623 
L 208.511536 91.203314 
L 208.547115 92.287623 
L 208.843254 92.287623 
L 208.855004 91.203314 
L 208.949989 92.287623 
L 209.41239 92.287623 
L 209.424177 91.203314 
L 209.519218 92.287623 
L 209.958039 92.287623 
L 210.052111 93.371931 
L 210.063849 92.287623 
L 210.075635 92.287623 
L 210.181637 93.371931 
L 210.277146 92.287623 
L 210.289307 93.371931 
L 210.324701 93.371931 
L 210.442817 92.287623 
L 210.466292 93.371931 
L 210.548996 92.287623 
L 210.59626 92.287623 
L 210.703279 93.371931 
L 210.786034 91.203314 
L 210.809683 92.287623 
L 210.833387 92.287623 
L 210.951732 91.203314 
L 210.97566 91.203314 
L 210.999193 92.287623 
L 211.070055 91.203314 
L 211.1883 90.119006 
L 211.295581 90.119006 
L 211.415157 87.950389 
L 211.534001 87.950389 
L 211.607866 90.119006 
L 211.643433 87.950389 
L 211.714432 87.950389 
L 211.809074 90.119006 
L 211.821308 87.950389 
L 211.892755 87.950389 
L 211.904491 90.119006 
L 424.536332 123.732571 
L 424.559862 123.732571 
L 424.572148 124.81688 
L 424.667292 123.732571 
L 424.679451 123.732571 
L 424.799662 124.81688 
L 424.811685 124.81688 
L 424.835144 123.732571 
L 424.920028 124.81688 
L 425.122262 124.81688 
L 425.205352 125.901188 
L 425.229627 124.81688 
L 425.289561 124.81688 
L 425.408884 125.901188 
L 425.527468 124.81688 
L 425.647253 125.901188 
L 425.767079 124.81688 
L 425.849456 125.901188 
L 425.874126 124.81688 
L 425.934127 124.81688 
L 425.946031 125.901188 
L 426.042493 124.81688 
L 426.208673 124.81688 
L 427.719794 126.985497 
L 427.84294 125.901188 
L 427.86668 125.901188 
L 427.913627 126.985497 
L 427.973058 125.901188 
L 428.044195 125.901188 
L 428.059472 126.985497 
L 428.143268 125.901188 
L 428.27825 125.901188 
L 428.313543 126.985497 
L 428.384967 125.901188 
L 428.481036 125.901188 
L 428.568393 126.985497 
L 428.591919 125.901188 
L 428.615459 125.901188 
L 428.698436 126.985497 
L 428.724104 125.901188 
L 428.760434 125.901188 
L 428.882173 126.985497 
L 428.942125 125.901188 
L 428.990265 126.985497 
L 429.014435 126.985497 
L 429.110178 125.901188 
L 429.122616 126.985497 
L 429.206513 126.985497 
L 429.313715 125.901188 
L 429.433269 126.985497 
L 429.445051 126.985497 
L 429.552782 125.901188 
L 429.671869 126.985497 
L 429.731199 126.985497 
L 429.838145 125.901188 
L 429.885484 126.985497 
L 429.944593 125.901188 
L 429.956764 125.901188 
L 430.076067 126.985497 
L 430.171436 126.985497 
L 430.183189 125.901188 
L 430.274229 126.985497 
L 430.505506 126.985497 
L 430.613011 129.154114 
L 430.708582 126.985497 
L 430.720332 129.154114 
L 430.802751 126.985497 
L 430.826758 129.154114 
L 431.084838 129.154114 
L 431.096958 130.238423 
L 431.182283 129.154114 
L 431.409317 129.154114 
L 431.530043 126.985497 
L 431.803123 126.985497 
L 431.88924 129.154114 
L 431.912981 126.985497 
L 431.937253 126.985497 
L 432.009091 129.154114 
L 432.009091 129.154114 
" style="fill:none;stroke:#1f77b4;stroke-linecap:square;stroke-width:1.5;"/>
   </g>
   <g id="line2d_32">
    <path clip-path="url(#p03125287a2)" d="M 72.190909 35.903578 
L 73.190203 35.903578 
L 73.309093 49.999589 
L 73.368383 49.999589 
L 73.48677 55.421132 
L 73.863691 55.421132 
L 73.984499 49.999589 
L 74.043839 49.999589 
L 74.156749 55.421132 
L 74.618077 55.421132 
L 74.740699 49.999589 
L 75.567775 49.999589 
L 75.687906 94.45624 
L 76.60016 94.45624 
L 76.749241 102.0464 
L 76.821346 102.0464 
L 76.941126 94.45624 
L 77.300067 94.45624 
L 77.418069 92.287623 
L 77.654844 92.287623 
L 77.774213 94.45624 
L 78.625394 94.45624 
L 78.745615 92.287623 
L 79.333931 92.287623 
L 79.4524 80.360229 
L 80.536567 80.360229 
L 80.65658 70.601452 
L 81.369161 70.601452 
L 81.492632 59.758366 
L 81.90316 59.758366 
L 82.004178 74.938686 
L 82.076497 74.938686 
L 82.1982 70.601452 
L 82.557455 70.601452 
L 82.672302 74.938686 
L 82.797588 74.938686 
L 82.917928 59.758366 
L 83.752808 59.758366 
L 83.871862 80.360229 
L 84.296219 80.360229 
L 84.414688 94.45624 
L 84.772797 94.45624 
L 84.89204 113.973794 
L 85.489866 113.973794 
L 85.610005 125.901188 
L 86.14927 125.901188 
L 86.268322 113.973794 
L 86.864052 113.973794 
L 86.984375 102.0464 
L 88.223971 102.0464 
L 88.343441 113.973794 
L 91.620426 113.973794 
L 91.740255 125.901188 
L 92.701197 125.901188 
L 92.820007 133.491348 
L 92.999083 133.491348 
L 93.093557 125.901188 
L 94.443041 125.901188 
L 94.563825 133.491348 
L 94.961222 133.491348 
L 95.08588 125.901188 
L 95.86212 125.901188 
L 95.981539 113.973794 
L 96.409562 113.973794 
L 96.527763 102.0464 
L 97.114702 102.0464 
L 97.23596 80.360229 
L 97.65336 80.360229 
L 97.773999 74.938686 
L 97.953419 74.938686 
L 98.073128 80.360229 
L 98.160525 80.360229 
L 98.282715 74.938686 
L 98.478738 74.938686 
L 98.60065 59.758366 
L 99.490939 59.758366 
L 99.610178 70.601452 
L 101.126147 70.601452 
L 101.246269 80.360229 
L 101.294595 80.360229 
L 101.416932 74.938686 
L 101.825833 74.938686 
L 101.946553 102.0464 
L 102.487328 102.0464 
L 102.606974 125.901188 
L 104.874015 125.901188 
L 104.992844 135.659965 
L 105.940367 135.659965 
L 106.059142 147.58736 
L 106.300489 147.58736 
L 106.419263 153.008902 
L 107.248406 153.008902 
L 107.36793 147.58736 
L 107.607087 147.58736 
L 107.726869 153.008902 
L 107.967523 153.008902 
L 108.085406 157.346137 
L 109.235678 157.346137 
L 109.355707 153.008902 
L 109.415617 153.008902 
L 109.535795 168.189222 
L 110.367015 168.189222 
L 110.487545 172.526457 
L 110.665992 172.526457 
L 110.785082 157.346137 
L 111.205735 157.346137 
L 111.325591 153.008902 
L 111.565614 153.008902 
L 111.684925 157.346137 
L 112.161516 157.346137 
L 112.28353 147.58736 
L 112.522996 147.58736 
L 112.640992 133.491348 
L 112.700682 133.491348 
L 112.822163 113.973794 
L 113.421422 113.973794 
L 113.954653 102.0464 
L 114.485237 102.0464 
L 114.603384 94.45624 
L 115.033402 94.45624 
L 115.152057 92.287623 
L 116.400867 92.287623 
L 116.521934 102.0464 
L 117.061094 102.0464 
L 117.182665 80.360229 
L 117.606345 80.360229 
L 117.717667 125.901188 
L 118.868084 125.901188 
L 118.987112 135.659965 
L 119.608101 135.659965 
L 119.727519 199.634171 
L 120.328061 199.634171 
L 120.448086 223.488959 
L 121.057672 223.488959 
L 121.177698 233.247736 
L 121.595705 233.247736 
L 121.716117 245.17513 
L 122.550297 245.17513 
L 122.671467 233.247736 
L 122.927563 233.247736 
L 123.04723 223.488959 
L 124.940137 223.488959 
L 125.05218 211.561565 
L 127.135015 211.561565 
L 127.254793 199.634171 
L 128.054301 199.634171 
L 128.178557 177.947999 
L 128.417218 177.947999 
L 128.537472 157.346137 
L 129.186808 157.346137 
L 129.305373 125.901188 
L 129.963499 125.901188 
L 130.001278 92.287623 
L 130.747828 102.0464 
L 130.91144 102.0464 
L 131.597161 125.901188 
L 131.776153 125.901188 
L 131.894419 135.659965 
L 132.554614 135.659965 
L 132.673872 147.58736 
L 134.572191 147.58736 
L 134.730581 157.346137 
L 135.909924 157.346137 
L 136.021328 147.58736 
L 136.614466 147.58736 
L 136.733314 157.346137 
L 137.206765 157.346137 
L 137.325436 168.189222 
L 138.855707 168.189222 
L 138.973319 147.58736 
L 139.417205 147.58736 
L 139.536493 157.346137 
L 140.348651 157.346137 
L 140.470669 153.008902 
L 140.748545 153.008902 
L 140.868529 157.346137 
L 141.147471 157.346137 
L 141.262384 172.526457 
L 141.466778 172.526457 
L 141.659377 157.346137 
L 142.294827 157.346137 
L 142.413514 172.526457 
L 142.834605 172.526457 
L 142.94614 168.189222 
L 144.154721 168.189222 
L 144.276655 189.875394 
L 144.93689 189.875394 
L 145.057779 157.346137 
L 145.42074 157.346137 
L 145.539863 135.659965 
L 146.78585 135.659965 
L 146.904442 92.287623 
L 148.844063 92.287623 
L 148.960827 102.0464 
L 149.736592 102.0464 
L 149.847992 113.973794 
L 150.190936 113.973794 
L 150.312602 125.901188 
L 151.143934 125.901188 
L 151.264293 147.58736 
L 152.282438 147.58736 
L 152.39349 157.346137 
L 154.312346 157.346137 
L 154.430696 168.189222 
L 156.792811 168.189222 
L 156.911915 172.526457 
L 157.031329 172.526457 
L 157.149789 157.346137 
L 159.345336 157.346137 
L 159.464323 168.189222 
L 160.869183 168.189222 
L 160.992119 172.526457 
L 161.106661 172.526457 
L 161.247927 168.189222 
L 161.858118 168.189222 
L 161.969385 157.346137 
L 162.91044 157.346137 
L 163.031011 147.58736 
L 164.052062 147.58736 
L 164.164945 153.008902 
L 164.517796 153.008902 
L 164.638444 135.659965 
L 164.756954 135.659965 
L 164.875701 133.491348 
L 165.187146 133.491348 
L 165.305421 135.659965 
L 165.425125 135.659965 
L 165.54607 133.491348 
L 165.91938 133.491348 
L 166.029379 135.659965 
L 166.323244 135.659965 
L 166.443725 133.491348 
L 166.564173 133.491348 
L 166.68366 135.659965 
L 167.033915 135.659965 
L 167.106164 133.491348 
L 167.932651 125.901188 
L 168.053808 147.58736 
L 168.83368 147.58736 
L 169.005606 135.659965 
L 169.553098 135.659965 
L 169.673038 147.58736 
L 170.209909 147.58736 
L 170.329976 135.659965 
L 172.486379 135.659965 
L 172.605701 133.491348 
L 172.723755 133.491348 
L 172.84353 135.659965 
L 172.96332 135.659965 
L 173.082582 133.491348 
L 173.380332 133.491348 
L 173.499302 147.58736 
L 174.523334 147.58736 
L 174.643318 153.008902 
L 174.766355 153.008902 
L 174.887411 147.58736 
L 175.187537 147.58736 
L 175.307679 153.008902 
L 175.426495 153.008902 
L 175.544523 168.189222 
L 175.912876 168.189222 
L 176.026725 172.526457 
L 176.331279 172.526457 
L 176.451259 168.189222 
L 177.048198 168.189222 
L 177.166625 172.526457 
L 177.468081 172.526457 
L 177.588446 157.346137 
L 177.898492 157.346137 
L 178.150923 153.008902 
L 178.401487 153.008902 
L 178.523407 147.58736 
L 178.642643 147.58736 
L 178.762734 133.491348 
L 178.880802 133.491348 
L 179.000747 125.901188 
L 179.299495 125.901188 
L 179.42028 113.973794 
L 180.199916 113.973794 
L 180.31851 102.0464 
L 180.438298 102.0464 
L 180.557544 94.45624 
L 181.153118 94.45624 
L 181.273095 102.0464 
L 181.572066 102.0464 
L 181.691067 113.973794 
L 183.600387 113.973794 
L 183.722539 125.901188 
L 184.323583 125.901188 
L 184.441895 147.58736 
L 187.724683 147.58736 
L 187.844825 157.346137 
L 188.047423 157.346137 
L 187.37776 157.346137 
L 187.761033 157.346137 
L 187.879776 147.58736 
L 188.434109 147.58736 
L 188.553506 157.346137 
L 189.756749 157.346137 
L 189.877177 168.189222 
L 191.435632 168.189222 
L 191.55495 172.526457 
L 191.855079 172.526457 
L 191.974895 168.189222 
L 192.097317 168.189222 
L 192.217652 172.526457 
L 192.518017 172.526457 
L 192.636055 168.189222 
L 193.228685 168.189222 
L 193.346499 157.346137 
L 193.464595 157.346137 
L 193.585471 153.008902 
L 194.580693 153.008902 
L 194.7009 102.0464 
L 194.997917 102.0464 
L 195.117608 94.45624 
L 195.475826 94.45624 
L 195.594192 92.287623 
L 195.713455 92.287623 
L 195.832696 74.938686 
L 195.951939 74.938686 
L 196.071375 80.360229 
L 198.919638 80.360229 
L 199.030978 113.973794 
L 200.970478 113.973794 
L 201.113362 135.659965 
L 205.34082 135.659965 
L 205.459245 125.901188 
L 206.233973 125.901188 
L 206.352279 135.659965 
L 209.531008 135.659965 
L 209.649039 147.58736 
L 209.767485 147.58736 
L 209.886637 153.008902 
L 210.241835 153.008902 
L 210.359917 135.659965 
L 211.379331 135.659965 
L 211.497875 133.491348 
L 211.557589 133.491348 
L 211.679066 125.901188 
L 211.904491 125.901188 
L 424.286601 177.947999 
L 424.728221 177.947999 
L 424.847278 172.526457 
L 426.208673 172.526457 
L 427.783117 192.044011 
L 428.266505 192.044011 
L 428.384967 223.488959 
L 429.695776 223.488959 
L 429.814149 233.247736 
L 431.445837 233.247736 
L 431.56638 231.079119 
L 432.009091 231.079119 
L 432.009091 231.079119 
" style="fill:none;stroke:#ff7f0e;stroke-linecap:square;stroke-width:1.5;"/>
   </g>
   <g id="patch_3">
    <path d="M 54.2 255.638708 
L 54.2 25.44 
" style="fill:none;stroke:#000000;stroke-linecap:square;stroke-linejoin:miter;stroke-width:0.8;"/>
   </g>
   <g id="patch_4">
    <path d="M 450 255.638708 
L 450 25.44 
" style="fill:none;stroke:#000000;stroke-linecap:square;stroke-linejoin:miter;stroke-width:0.8;"/>
   </g>
   <g id="patch_5">
    <path d="M 54.2 255.638708 
L 450 255.638708 
" style="fill:none;stroke:#000000;stroke-linecap:square;stroke-linejoin:miter;stroke-width:0.8;"/>
   </g>
   <g id="patch_6">
    <path d="M 54.2 25.44 
L 450 25.44 
" style="fill:none;stroke:#000000;stroke-linecap:square;stroke-linejoin:miter;stroke-width:0.8;"/>
   </g>
   <g id="text_18">
    <!-- Lake Shoecraft - Water and Air Temperature -->
    <g transform="translate(120.481563 19.44)scale(0.12 -0.12)">
     <defs>
      <path d="M 9.8125 72.90625 
L 19.671875 72.90625 
L 19.671875 8.296875 
L 55.171875 8.296875 
L 55.171875 0 
L 9.8125 0 
z
" id="DejaVuSans-76"/>
      <path d="M 9.078125 75.984375 
L 18.109375 75.984375 
L 18.109375 31.109375 
L 44.921875 54.6875 
L 56.390625 54.6875 
L 27.390625 29.109375 
L 57.625 0 
L 45.90625 0 
L 18.109375 26.703125 
L 18.109375 0 
L 9.078125 0 
z
" id="DejaVuSans-107"/>
      <path d="M 53.515625 70.515625 
L 53.515625 60.890625 
Q 47.90625 63.578125 42.921875 64.890625 
Q 37.9375 66.21875 33.296875 66.21875 
Q 25.25 66.21875 20.875 63.09375 
Q 16.5 59.96875 16.5 54.203125 
Q 16.5 49.359375 19.40625 46.890625 
Q 22.3125 44.4375 30.421875 42.921875 
L 36.375 41.703125 
Q 47.40625 39.59375 52.65625 34.296875 
Q 57.90625 29 57.90625 20.125 
Q 57.90625 9.515625 50.796875 4.046875 
Q 43.703125 -1.421875 29.984375 -1.421875 
Q 24.8125 -1.421875 18.96875 -0.25 
Q 13.140625 0.921875 6.890625 3.21875 
L 6.890625 13.375 
Q 12.890625 10.015625 18.65625 8.296875 
Q 24.421875 6.59375 29.984375 6.59375 
Q 38.421875 6.59375 43.015625 9.90625 
Q 47.609375 13.234375 47.609375 19.390625 
Q 47.609375 24.75 44.3125 27.78125 
Q 41.015625 30.8125 33.5 32.328125 
L 27.484375 33.5 
Q 16.453125 35.6875 11.515625 40.375 
Q 6.59375 45.0625 6.59375 53.421875 
Q 6.59375 63.09375 13.40625 68.65625 
Q 20.21875 74.21875 32.171875 74.21875 
Q 37.3125 74.21875 42.625 73.28125 
Q 47.953125 72.359375 53.515625 70.515625 
z
" id="DejaVuSans-83"/>
      <path d="M 54.890625 33.015625 
L 54.890625 0 
L 45.90625 0 
L 45.90625 32.71875 
Q 45.90625 40.484375 42.875 44.328125 
Q 39.84375 48.1875 33.796875 48.1875 
Q 26.515625 48.1875 22.3125 43.546875 
Q 18.109375 38.921875 18.109375 30.90625 
L 18.109375 0 
L 9.078125 0 
L 9.078125 75.984375 
L 18.109375 75.984375 
L 18.109375 46.1875 
Q 21.34375 51.125 25.703125 53.5625 
Q 30.078125 56 35.796875 56 
Q 45.21875 56 50.046875 50.171875 
Q 54.890625 44.34375 54.890625 33.015625 
z
" id="DejaVuSans-104"/>
      <path d="M 30.609375 48.390625 
Q 23.390625 48.390625 19.1875 42.75 
Q 14.984375 37.109375 14.984375 27.296875 
Q 14.984375 17.484375 19.15625 11.84375 
Q 23.34375 6.203125 30.609375 6.203125 
Q 37.796875 6.203125 41.984375 11.859375 
Q 46.1875 17.53125 46.1875 27.296875 
Q 46.1875 37.015625 41.984375 42.703125 
Q 37.796875 48.390625 30.609375 48.390625 
z
M 30.609375 56 
Q 42.328125 56 49.015625 48.375 
Q 55.71875 40.765625 55.71875 27.296875 
Q 55.71875 13.875 49.015625 6.21875 
Q 42.328125 -1.421875 30.609375 -1.421875 
Q 18.84375 -1.421875 12.171875 6.21875 
Q 5.515625 13.875 5.515625 27.296875 
Q 5.515625 40.765625 12.171875 48.375 
Q 18.84375 56 30.609375 56 
z
" id="DejaVuSans-111"/>
      <path d="M 48.78125 52.59375 
L 48.78125 44.1875 
Q 44.96875 46.296875 41.140625 47.34375 
Q 37.3125 48.390625 33.40625 48.390625 
Q 24.65625 48.390625 19.8125 42.84375 
Q 14.984375 37.3125 14.984375 27.296875 
Q 14.984375 17.28125 19.8125 11.734375 
Q 24.65625 6.203125 33.40625 6.203125 
Q 37.3125 6.203125 41.140625 7.25 
Q 44.96875 8.296875 48.78125 10.40625 
L 48.78125 2.09375 
Q 45.015625 0.34375 40.984375 -0.53125 
Q 36.96875 -1.421875 32.421875 -1.421875 
Q 20.0625 -1.421875 12.78125 6.34375 
Q 5.515625 14.109375 5.515625 27.296875 
Q 5.515625 40.671875 12.859375 48.328125 
Q 20.21875 56 33.015625 56 
Q 37.15625 56 41.109375 55.140625 
Q 45.0625 54.296875 48.78125 52.59375 
z
" id="DejaVuSans-99"/>
      <path d="M 37.109375 75.984375 
L 37.109375 68.5 
L 28.515625 68.5 
Q 23.6875 68.5 21.796875 66.546875 
Q 19.921875 64.59375 19.921875 59.515625 
L 19.921875 54.6875 
L 34.71875 54.6875 
L 34.71875 47.703125 
L 19.921875 47.703125 
L 19.921875 0 
L 10.890625 0 
L 10.890625 47.703125 
L 2.296875 47.703125 
L 2.296875 54.6875 
L 10.890625 54.6875 
L 10.890625 58.5 
Q 10.890625 67.625 15.140625 71.796875 
Q 19.390625 75.984375 28.609375 75.984375 
z
" id="DejaVuSans-102"/>
      <path d="M 3.328125 72.90625 
L 13.28125 72.90625 
L 28.609375 11.28125 
L 43.890625 72.90625 
L 54.984375 72.90625 
L 70.3125 11.28125 
L 85.59375 72.90625 
L 95.609375 72.90625 
L 77.296875 0 
L 64.890625 0 
L 49.515625 63.28125 
L 33.984375 0 
L 21.578125 0 
z
" id="DejaVuSans-87"/>
      <path d="M 54.890625 33.015625 
L 54.890625 0 
L 45.90625 0 
L 45.90625 32.71875 
Q 45.90625 40.484375 42.875 44.328125 
Q 39.84375 48.1875 33.796875 48.1875 
Q 26.515625 48.1875 22.3125 43.546875 
Q 18.109375 38.921875 18.109375 30.90625 
L 18.109375 0 
L 9.078125 0 
L 9.078125 54.6875 
L 18.109375 54.6875 
L 18.109375 46.1875 
Q 21.34375 51.125 25.703125 53.5625 
Q 30.078125 56 35.796875 56 
Q 45.21875 56 50.046875 50.171875 
Q 54.890625 44.34375 54.890625 33.015625 
z
" id="DejaVuSans-110"/>
      <path d="M 45.40625 46.390625 
L 45.40625 75.984375 
L 54.390625 75.984375 
L 54.390625 0 
L 45.40625 0 
L 45.40625 8.203125 
Q 42.578125 3.328125 38.25 0.953125 
Q 33.9375 -1.421875 27.875 -1.421875 
Q 17.96875 -1.421875 11.734375 6.484375 
Q 5.515625 14.40625 5.515625 27.296875 
Q 5.515625 40.1875 11.734375 48.09375 
Q 17.96875 56 27.875 56 
Q 33.9375 56 38.25 53.625 
Q 42.578125 51.265625 45.40625 46.390625 
z
M 14.796875 27.296875 
Q 14.796875 17.390625 18.875 11.75 
Q 22.953125 6.109375 30.078125 6.109375 
Q 37.203125 6.109375 41.296875 11.75 
Q 45.40625 17.390625 45.40625 27.296875 
Q 45.40625 37.203125 41.296875 42.84375 
Q 37.203125 48.484375 30.078125 48.484375 
Q 22.953125 48.484375 18.875 42.84375 
Q 14.796875 37.203125 14.796875 27.296875 
z
" id="DejaVuSans-100"/>
      <path d="M 34.1875 63.1875 
L 20.796875 26.90625 
L 47.609375 26.90625 
z
M 28.609375 72.90625 
L 39.796875 72.90625 
L 67.578125 0 
L 57.328125 0 
L 50.6875 18.703125 
L 17.828125 18.703125 
L 11.1875 0 
L 0.78125 0 
z
" id="DejaVuSans-65"/>
      <path d="M 9.421875 54.6875 
L 18.40625 54.6875 
L 18.40625 0 
L 9.421875 0 
z
M 9.421875 75.984375 
L 18.40625 75.984375 
L 18.40625 64.59375 
L 9.421875 64.59375 
z
" id="DejaVuSans-105"/>
     </defs>
     <use xlink:href="#DejaVuSans-76"/>
     <use x="55.712891" xlink:href="#DejaVuSans-97"/>
     <use x="116.992188" xlink:href="#DejaVuSans-107"/>
     <use x="171.277344" xlink:href="#DejaVuSans-101"/>
     <use x="232.800781" xlink:href="#DejaVuSans-32"/>
     <use x="264.587891" xlink:href="#DejaVuSans-83"/>
     <use x="328.064453" xlink:href="#DejaVuSans-104"/>
     <use x="391.443359" xlink:href="#DejaVuSans-111"/>
     <use x="452.625" xlink:href="#DejaVuSans-101"/>
     <use x="514.148438" xlink:href="#DejaVuSans-99"/>
     <use x="569.128906" xlink:href="#DejaVuSans-114"/>
     <use x="610.242188" xlink:href="#DejaVuSans-97"/>
     <use x="671.521484" xlink:href="#DejaVuSans-102"/>
     <use x="704.976562" xlink:href="#DejaVuSans-116"/>
     <use x="744.185547" xlink:href="#DejaVuSans-32"/>
     <use x="775.972656" xlink:href="#DejaVuSans-45"/>
     <use x="812.056641" xlink:href="#DejaVuSans-32"/>
     <use x="843.84375" xlink:href="#DejaVuSans-87"/>
     <use x="936.345703" xlink:href="#DejaVuSans-97"/>
     <use x="997.625" xlink:href="#DejaVuSans-116"/>
     <use x="1036.833984" xlink:href="#DejaVuSans-101"/>
     <use x="1098.357422" xlink:href="#DejaVuSans-114"/>
     <use x="1139.470703" xlink:href="#DejaVuSans-32"/>
     <use x="1171.257812" xlink:href="#DejaVuSans-97"/>
     <use x="1232.537109" xlink:href="#DejaVuSans-110"/>
     <use x="1295.916016" xlink:href="#DejaVuSans-100"/>
     <use x="1359.392578" xlink:href="#DejaVuSans-32"/>
     <use x="1391.179688" xlink:href="#DejaVuSans-65"/>
     <use x="1459.587891" xlink:href="#DejaVuSans-105"/>
     <use x="1487.371094" xlink:href="#DejaVuSans-114"/>
     <use x="1528.484375" xlink:href="#DejaVuSans-32"/>
     <use x="1560.271484" xlink:href="#DejaVuSans-84"/>
     <use x="1604.355469" xlink:href="#DejaVuSans-101"/>
     <use x="1665.878906" xlink:href="#DejaVuSans-109"/>
     <use x="1763.291016" xlink:href="#DejaVuSans-112"/>
     <use x="1826.767578" xlink:href="#DejaVuSans-101"/>
     <use x="1888.291016" xlink:href="#DejaVuSans-114"/>
     <use x="1929.404297" xlink:href="#DejaVuSans-97"/>
     <use x="1990.683594" xlink:href="#DejaVuSans-116"/>
     <use x="2029.892578" xlink:href="#DejaVuSans-117"/>
     <use x="2093.271484" xlink:href="#DejaVuSans-114"/>
     <use x="2132.134766" xlink:href="#DejaVuSans-101"/>
    </g>
   </g>
   <g id="legend_1">
    <g id="patch_7">
     <path d="M 357.890625 62.79625 
L 443 62.79625 
Q 445 62.79625 445 60.79625 
L 445 32.44 
Q 445 30.44 443 30.44 
L 357.890625 30.44 
Q 355.890625 30.44 355.890625 32.44 
L 355.890625 60.79625 
Q 355.890625 62.79625 357.890625 62.79625 
z
" style="fill:#ffffff;opacity:0.8;stroke:#cccccc;stroke-linejoin:miter;"/>
    </g>
    <g id="line2d_33">
     <path d="M 359.890625 38.538437 
L 379.890625 38.538437 
" style="fill:none;stroke:#1f77b4;stroke-linecap:square;stroke-width:1.5;"/>
    </g>
    <g id="line2d_34"/>
    <g id="text_19">
     <!-- Lake Temp -->
     <g transform="translate(387.890625 42.038437)scale(0.1 -0.1)">
      <use xlink:href="#DejaVuSans-76"/>
      <use x="55.712891" xlink:href="#DejaVuSans-97"/>
      <use x="116.992188" xlink:href="#DejaVuSans-107"/>
      <use x="171.277344" xlink:href="#DejaVuSans-101"/>
      <use x="232.800781" xlink:href="#DejaVuSans-32"/>
      <use x="264.587891" xlink:href="#DejaVuSans-84"/>
      <use x="308.671875" xlink:href="#DejaVuSans-101"/>
      <use x="370.195312" xlink:href="#DejaVuSans-109"/>
      <use x="467.607422" xlink:href="#DejaVuSans-112"/>
     </g>
    </g>
    <g id="line2d_35">
     <path d="M 359.890625 53.216562 
L 379.890625 53.216562 
" style="fill:none;stroke:#ff7f0e;stroke-linecap:square;stroke-width:1.5;"/>
    </g>
    <g id="line2d_36"/>
    <g id="text_20">
     <!-- Air Temp -->
     <g transform="translate(387.890625 56.716562)scale(0.1 -0.1)">
      <use xlink:href="#DejaVuSans-65"/>
      <use x="68.408203" xlink:href="#DejaVuSans-105"/>
      <use x="96.191406" xlink:href="#DejaVuSans-114"/>
      <use x="137.304688" xlink:href="#DejaVuSans-32"/>
      <use x="169.091797" xlink:href="#DejaVuSans-84"/>
      <use x="213.175781" xlink:href="#DejaVuSans-101"/>
      <use x="274.699219" xlink:href="#DejaVuSans-109"/>
      <use x="372.111328" xlink:href="#DejaVuSans-112"/>
     </g>
    </g>
   </g>
  </g>
 </g>
 <defs>
  <clipPath id="p03125287a2">
   <rect height="230.198708" width="395.8" x="54.2" y="25.44"/>
  </clipPath>
 </defs>
</svg>
