<?xml version="1.0" encoding="utf-8" standalone="no"?>
<!DOCTYPE svg PUBLIC "-//W3C//DTD SVG 1.1//EN"
  "http://www.w3.org/Graphics/SVG/1.1/DTD/svg11.dtd">
<!-- Created with matplotlib (https://matplotlib.org/) -->
<svg height="345.6pt" version="1.1" viewBox="0 0 460.8 345.6" width="460.8pt" xmlns="http://www.w3.org/2000/svg" xmlns:xlink="http://www.w3.org/1999/xlink">
 <metadata>
  <rdf:RDF xmlns:cc="http://creativecommons.org/ns#" xmlns:dc="http://purl.org/dc/elements/1.1/" xmlns:rdf="http://www.w3.org/1999/02/22-rdf-syntax-ns#">
   <cc:Work>
    <dc:type rdf:resource="http://purl.org/dc/dcmitype/StillImage"/>
    <dc:date>2024-11-18T13:54:40.992231</dc:date>
    <dc:format>image/svg+xml</dc:format>
    <dc:creator>
     <cc:Agent>
      <dc:title>Matplotlib v3.3.2, https://matplotlib.org/</dc:title>
     </cc:Agent>
    </dc:creator>
   </cc:Work>
  </rdf:RDF>
 </metadata>
 <defs>
  <style type="text/css">*{stroke-linecap:butt;stroke-linejoin:round;}</style>
 </defs>
 <g id="figure_1">
  <g id="patch_1">
   <path d="M 0 345.6 
L 460.8 345.6 
L 460.8 0 
L 0 0 
z
" style="fill:none;"/>
  </g>
  <g id="axes_1">
   <g id="patch_2">
    <path d="M 54.2 255.638708 
L 450 255.638708 
L 450 25.44 
L 54.2 25.44 
z
" style="fill:none;"/>
   </g>
   <g id="matplotlib.axis_1">
    <g id="xtick_1">
     <g id="line2d_1">
      <path clip-path="url(#pa6a4afe501)" d="M 88.862775 255.638708 
L 88.862775 25.44 
" style="fill:none;stroke:#b0b0b0;stroke-linecap:square;stroke-width:0.8;"/>
     </g>
     <g id="line2d_2">
      <defs>
       <path d="M 0 0 
L 0 3.5 
" id="m1ca572e4d7" style="stroke:#000000;stroke-width:0.8;"/>
      </defs>
      <g>
       <use style="stroke:#000000;stroke-width:0.8;" x="88.862775" xlink:href="#m1ca572e4d7" y="255.638708"/>
      </g>
     </g>
     <g id="text_1">
      <!-- 2024-10-29 -->
      <g transform="translate(81.517382 319.848351)rotate(-70)scale(0.1 -0.1)">
       <defs>
        <path d="M 19.1875 8.296875 
L 53.609375 8.296875 
L 53.609375 0 
L 7.328125 0 
L 7.328125 8.296875 
Q 12.9375 14.109375 22.625 23.890625 
Q 32.328125 33.6875 34.8125 36.53125 
Q 39.546875 41.84375 41.421875 45.53125 
Q 43.3125 49.21875 43.3125 52.78125 
Q 43.3125 58.59375 39.234375 62.25 
Q 35.15625 65.921875 28.609375 65.921875 
Q 23.96875 65.921875 18.8125 64.3125 
Q 13.671875 62.703125 7.8125 59.421875 
L 7.8125 69.390625 
Q 13.765625 71.78125 18.9375 73 
Q 24.125 74.21875 28.421875 74.21875 
Q 39.75 74.21875 46.484375 68.546875 
Q 53.21875 62.890625 53.21875 53.421875 
Q 53.21875 48.921875 51.53125 44.890625 
Q 49.859375 40.875 45.40625 35.40625 
Q 44.1875 33.984375 37.640625 27.21875 
Q 31.109375 20.453125 19.1875 8.296875 
z
" id="DejaVuSans-50"/>
        <path d="M 31.78125 66.40625 
Q 24.171875 66.40625 20.328125 58.90625 
Q 16.5 51.421875 16.5 36.375 
Q 16.5 21.390625 20.328125 13.890625 
Q 24.171875 6.390625 31.78125 6.390625 
Q 39.453125 6.390625 43.28125 13.890625 
Q 47.125 21.390625 47.125 36.375 
Q 47.125 51.421875 43.28125 58.90625 
Q 39.453125 66.40625 31.78125 66.40625 
z
M 31.78125 74.21875 
Q 44.046875 74.21875 50.515625 64.515625 
Q 56.984375 54.828125 56.984375 36.375 
Q 56.984375 17.96875 50.515625 8.265625 
Q 44.046875 -1.421875 31.78125 -1.421875 
Q 19.53125 -1.421875 13.0625 8.265625 
Q 6.59375 17.96875 6.59375 36.375 
Q 6.59375 54.828125 13.0625 64.515625 
Q 19.53125 74.21875 31.78125 74.21875 
z
" id="DejaVuSans-48"/>
        <path d="M 37.796875 64.3125 
L 12.890625 25.390625 
L 37.796875 25.390625 
z
M 35.203125 72.90625 
L 47.609375 72.90625 
L 47.609375 25.390625 
L 58.015625 25.390625 
L 58.015625 17.1875 
L 47.609375 17.1875 
L 47.609375 0 
L 37.796875 0 
L 37.796875 17.1875 
L 4.890625 17.1875 
L 4.890625 26.703125 
z
" id="DejaVuSans-52"/>
        <path d="M 4.890625 31.390625 
L 31.203125 31.390625 
L 31.203125 23.390625 
L 4.890625 23.390625 
z
" id="DejaVuSans-45"/>
        <path d="M 12.40625 8.296875 
L 28.515625 8.296875 
L 28.515625 63.921875 
L 10.984375 60.40625 
L 10.984375 69.390625 
L 28.421875 72.90625 
L 38.28125 72.90625 
L 38.28125 8.296875 
L 54.390625 8.296875 
L 54.390625 0 
L 12.40625 0 
z
" id="DejaVuSans-49"/>
        <path d="M 10.984375 1.515625 
L 10.984375 10.5 
Q 14.703125 8.734375 18.5 7.8125 
Q 22.3125 6.890625 25.984375 6.890625 
Q 35.75 6.890625 40.890625 13.453125 
Q 46.046875 20.015625 46.78125 33.40625 
Q 43.953125 29.203125 39.59375 26.953125 
Q 35.25 24.703125 29.984375 24.703125 
Q 19.046875 24.703125 12.671875 31.3125 
Q 6.296875 37.9375 6.296875 49.421875 
Q 6.296875 60.640625 12.9375 67.421875 
Q 19.578125 74.21875 30.609375 74.21875 
Q 43.265625 74.21875 49.921875 64.515625 
Q 56.59375 54.828125 56.59375 36.375 
Q 56.59375 19.140625 48.40625 8.859375 
Q 40.234375 -1.421875 26.421875 -1.421875 
Q 22.703125 -1.421875 18.890625 -0.6875 
Q 15.09375 0.046875 10.984375 1.515625 
z
M 30.609375 32.421875 
Q 37.25 32.421875 41.125 36.953125 
Q 45.015625 41.5 45.015625 49.421875 
Q 45.015625 57.28125 41.125 61.84375 
Q 37.25 66.40625 30.609375 66.40625 
Q 23.96875 66.40625 20.09375 61.84375 
Q 16.21875 57.28125 16.21875 49.421875 
Q 16.21875 41.5 20.09375 36.953125 
Q 23.96875 32.421875 30.609375 32.421875 
z
" id="DejaVuSans-57"/>
       </defs>
       <use xlink:href="#DejaVuSans-50"/>
       <use x="63.623047" xlink:href="#DejaVuSans-48"/>
       <use x="127.246094" xlink:href="#DejaVuSans-50"/>
       <use x="190.869141" xlink:href="#DejaVuSans-52"/>
       <use x="254.492188" xlink:href="#DejaVuSans-45"/>
       <use x="290.576172" xlink:href="#DejaVuSans-49"/>
       <use x="354.199219" xlink:href="#DejaVuSans-48"/>
       <use x="417.822266" xlink:href="#DejaVuSans-45"/>
       <use x="453.90625" xlink:href="#DejaVuSans-50"/>
       <use x="517.529297" xlink:href="#DejaVuSans-57"/>
      </g>
     </g>
    </g>
    <g id="xtick_2">
     <g id="line2d_3">
      <path clip-path="url(#pa6a4afe501)" d="M 138.885691 255.638708 
L 138.885691 25.44 
" style="fill:none;stroke:#b0b0b0;stroke-linecap:square;stroke-width:0.8;"/>
     </g>
     <g id="line2d_4">
      <g>
       <use style="stroke:#000000;stroke-width:0.8;" x="138.885691" xlink:href="#m1ca572e4d7" y="255.638708"/>
      </g>
     </g>
     <g id="text_2">
      <!-- 2024-11-01 -->
      <g transform="translate(131.540299 319.848351)rotate(-70)scale(0.1 -0.1)">
       <use xlink:href="#DejaVuSans-50"/>
       <use x="63.623047" xlink:href="#DejaVuSans-48"/>
       <use x="127.246094" xlink:href="#DejaVuSans-50"/>
       <use x="190.869141" xlink:href="#DejaVuSans-52"/>
       <use x="254.492188" xlink:href="#DejaVuSans-45"/>
       <use x="290.576172" xlink:href="#DejaVuSans-49"/>
       <use x="354.199219" xlink:href="#DejaVuSans-49"/>
       <use x="417.822266" xlink:href="#DejaVuSans-45"/>
       <use x="453.90625" xlink:href="#DejaVuSans-48"/>
       <use x="517.529297" xlink:href="#DejaVuSans-49"/>
      </g>
     </g>
    </g>
    <g id="xtick_3">
     <g id="line2d_5">
      <path clip-path="url(#pa6a4afe501)" d="M 205.582914 255.638708 
L 205.582914 25.44 
" style="fill:none;stroke:#b0b0b0;stroke-linecap:square;stroke-width:0.8;"/>
     </g>
     <g id="line2d_6">
      <g>
       <use style="stroke:#000000;stroke-width:0.8;" x="205.582914" xlink:href="#m1ca572e4d7" y="255.638708"/>
      </g>
     </g>
     <g id="text_3">
      <!-- 2024-11-05 -->
      <g transform="translate(198.237521 319.848351)rotate(-70)scale(0.1 -0.1)">
       <defs>
        <path d="M 10.796875 72.90625 
L 49.515625 72.90625 
L 49.515625 64.59375 
L 19.828125 64.59375 
L 19.828125 46.734375 
Q 21.96875 47.46875 24.109375 47.828125 
Q 26.265625 48.1875 28.421875 48.1875 
Q 40.625 48.1875 47.75 41.5 
Q 54.890625 34.8125 54.890625 23.390625 
Q 54.890625 11.625 47.5625 5.09375 
Q 40.234375 -1.421875 26.90625 -1.421875 
Q 22.3125 -1.421875 17.546875 -0.640625 
Q 12.796875 0.140625 7.71875 1.703125 
L 7.71875 11.625 
Q 12.109375 9.234375 16.796875 8.0625 
Q 21.484375 6.890625 26.703125 6.890625 
Q 35.15625 6.890625 40.078125 11.328125 
Q 45.015625 15.765625 45.015625 23.390625 
Q 45.015625 31 40.078125 35.4375 
Q 35.15625 39.890625 26.703125 39.890625 
Q 22.75 39.890625 18.8125 39.015625 
Q 14.890625 38.140625 10.796875 36.28125 
z
" id="DejaVuSans-53"/>
       </defs>
       <use xlink:href="#DejaVuSans-50"/>
       <use x="63.623047" xlink:href="#DejaVuSans-48"/>
       <use x="127.246094" xlink:href="#DejaVuSans-50"/>
       <use x="190.869141" xlink:href="#DejaVuSans-52"/>
       <use x="254.492188" xlink:href="#DejaVuSans-45"/>
       <use x="290.576172" xlink:href="#DejaVuSans-49"/>
       <use x="354.199219" xlink:href="#DejaVuSans-49"/>
       <use x="417.822266" xlink:href="#DejaVuSans-45"/>
       <use x="453.90625" xlink:href="#DejaVuSans-48"/>
       <use x="517.529297" xlink:href="#DejaVuSans-53"/>
      </g>
     </g>
    </g>
    <g id="xtick_4">
     <g id="line2d_7">
      <path clip-path="url(#pa6a4afe501)" d="M 272.280136 255.638708 
L 272.280136 25.44 
" style="fill:none;stroke:#b0b0b0;stroke-linecap:square;stroke-width:0.8;"/>
     </g>
     <g id="line2d_8">
      <g>
       <use style="stroke:#000000;stroke-width:0.8;" x="272.280136" xlink:href="#m1ca572e4d7" y="255.638708"/>
      </g>
     </g>
     <g id="text_4">
      <!-- 2024-11-09 -->
      <g transform="translate(264.934743 319.848351)rotate(-70)scale(0.1 -0.1)">
       <use xlink:href="#DejaVuSans-50"/>
       <use x="63.623047" xlink:href="#DejaVuSans-48"/>
       <use x="127.246094" xlink:href="#DejaVuSans-50"/>
       <use x="190.869141" xlink:href="#DejaVuSans-52"/>
       <use x="254.492188" xlink:href="#DejaVuSans-45"/>
       <use x="290.576172" xlink:href="#DejaVuSans-49"/>
       <use x="354.199219" xlink:href="#DejaVuSans-49"/>
       <use x="417.822266" xlink:href="#DejaVuSans-45"/>
       <use x="453.90625" xlink:href="#DejaVuSans-48"/>
       <use x="517.529297" xlink:href="#DejaVuSans-57"/>
      </g>
     </g>
    </g>
    <g id="xtick_5">
     <g id="line2d_9">
      <path clip-path="url(#pa6a4afe501)" d="M 338.977358 255.638708 
L 338.977358 25.44 
" style="fill:none;stroke:#b0b0b0;stroke-linecap:square;stroke-width:0.8;"/>
     </g>
     <g id="line2d_10">
      <g>
       <use style="stroke:#000000;stroke-width:0.8;" x="338.977358" xlink:href="#m1ca572e4d7" y="255.638708"/>
      </g>
     </g>
     <g id="text_5">
      <!-- 2024-11-13 -->
      <g transform="translate(331.631965 319.848351)rotate(-70)scale(0.1 -0.1)">
       <defs>
        <path d="M 40.578125 39.3125 
Q 47.65625 37.796875 51.625 33 
Q 55.609375 28.21875 55.609375 21.1875 
Q 55.609375 10.40625 48.1875 4.484375 
Q 40.765625 -1.421875 27.09375 -1.421875 
Q 22.515625 -1.421875 17.65625 -0.515625 
Q 12.796875 0.390625 7.625 2.203125 
L 7.625 11.71875 
Q 11.71875 9.328125 16.59375 8.109375 
Q 21.484375 6.890625 26.8125 6.890625 
Q 36.078125 6.890625 40.9375 10.546875 
Q 45.796875 14.203125 45.796875 21.1875 
Q 45.796875 27.640625 41.28125 31.265625 
Q 36.765625 34.90625 28.71875 34.90625 
L 20.21875 34.90625 
L 20.21875 43.015625 
L 29.109375 43.015625 
Q 36.375 43.015625 40.234375 45.921875 
Q 44.09375 48.828125 44.09375 54.296875 
Q 44.09375 59.90625 40.109375 62.90625 
Q 36.140625 65.921875 28.71875 65.921875 
Q 24.65625 65.921875 20.015625 65.03125 
Q 15.375 64.15625 9.8125 62.3125 
L 9.8125 71.09375 
Q 15.4375 72.65625 20.34375 73.4375 
Q 25.25 74.21875 29.59375 74.21875 
Q 40.828125 74.21875 47.359375 69.109375 
Q 53.90625 64.015625 53.90625 55.328125 
Q 53.90625 49.265625 50.4375 45.09375 
Q 46.96875 40.921875 40.578125 39.3125 
z
" id="DejaVuSans-51"/>
       </defs>
       <use xlink:href="#DejaVuSans-50"/>
       <use x="63.623047" xlink:href="#DejaVuSans-48"/>
       <use x="127.246094" xlink:href="#DejaVuSans-50"/>
       <use x="190.869141" xlink:href="#DejaVuSans-52"/>
       <use x="254.492188" xlink:href="#DejaVuSans-45"/>
       <use x="290.576172" xlink:href="#DejaVuSans-49"/>
       <use x="354.199219" xlink:href="#DejaVuSans-49"/>
       <use x="417.822266" xlink:href="#DejaVuSans-45"/>
       <use x="453.90625" xlink:href="#DejaVuSans-49"/>
       <use x="517.529297" xlink:href="#DejaVuSans-51"/>
      </g>
     </g>
    </g>
    <g id="xtick_6">
     <g id="line2d_11">
      <path clip-path="url(#pa6a4afe501)" d="M 405.67458 255.638708 
L 405.67458 25.44 
" style="fill:none;stroke:#b0b0b0;stroke-linecap:square;stroke-width:0.8;"/>
     </g>
     <g id="line2d_12">
      <g>
       <use style="stroke:#000000;stroke-width:0.8;" x="405.67458" xlink:href="#m1ca572e4d7" y="255.638708"/>
      </g>
     </g>
     <g id="text_6">
      <!-- 2024-11-17 -->
      <g transform="translate(398.329187 319.848351)rotate(-70)scale(0.1 -0.1)">
       <defs>
        <path d="M 8.203125 72.90625 
L 55.078125 72.90625 
L 55.078125 68.703125 
L 28.609375 0 
L 18.3125 0 
L 43.21875 64.59375 
L 8.203125 64.59375 
z
" id="DejaVuSans-55"/>
       </defs>
       <use xlink:href="#DejaVuSans-50"/>
       <use x="63.623047" xlink:href="#DejaVuSans-48"/>
       <use x="127.246094" xlink:href="#DejaVuSans-50"/>
       <use x="190.869141" xlink:href="#DejaVuSans-52"/>
       <use x="254.492188" xlink:href="#DejaVuSans-45"/>
       <use x="290.576172" xlink:href="#DejaVuSans-49"/>
       <use x="354.199219" xlink:href="#DejaVuSans-49"/>
       <use x="417.822266" xlink:href="#DejaVuSans-45"/>
       <use x="453.90625" xlink:href="#DejaVuSans-49"/>
       <use x="517.529297" xlink:href="#DejaVuSans-55"/>
      </g>
     </g>
    </g>
    <g id="text_7">
     <!-- Date -->
     <g transform="translate(240.149219 332.158083)scale(0.1 -0.1)">
      <defs>
       <path d="M 19.671875 64.796875 
L 19.671875 8.109375 
L 31.59375 8.109375 
Q 46.6875 8.109375 53.6875 14.9375 
Q 60.6875 21.78125 60.6875 36.53125 
Q 60.6875 51.171875 53.6875 57.984375 
Q 46.6875 64.796875 31.59375 64.796875 
z
M 9.8125 72.90625 
L 30.078125 72.90625 
Q 51.265625 72.90625 61.171875 64.09375 
Q 71.09375 55.28125 71.09375 36.53125 
Q 71.09375 17.671875 61.125 8.828125 
Q 51.171875 0 30.078125 0 
L 9.8125 0 
z
" id="DejaVuSans-68"/>
       <path d="M 34.28125 27.484375 
Q 23.390625 27.484375 19.1875 25 
Q 14.984375 22.515625 14.984375 16.5 
Q 14.984375 11.71875 18.140625 8.90625 
Q 21.296875 6.109375 26.703125 6.109375 
Q 34.1875 6.109375 38.703125 11.40625 
Q 43.21875 16.703125 43.21875 25.484375 
L 43.21875 27.484375 
z
M 52.203125 31.203125 
L 52.203125 0 
L 43.21875 0 
L 43.21875 8.296875 
Q 40.140625 3.328125 35.546875 0.953125 
Q 30.953125 -1.421875 24.3125 -1.421875 
Q 15.921875 -1.421875 10.953125 3.296875 
Q 6 8.015625 6 15.921875 
Q 6 25.140625 12.171875 29.828125 
Q 18.359375 34.515625 30.609375 34.515625 
L 43.21875 34.515625 
L 43.21875 35.40625 
Q 43.21875 41.609375 39.140625 45 
Q 35.0625 48.390625 27.6875 48.390625 
Q 23 48.390625 18.546875 47.265625 
Q 14.109375 46.140625 10.015625 43.890625 
L 10.015625 52.203125 
Q 14.9375 54.109375 19.578125 55.046875 
Q 24.21875 56 28.609375 56 
Q 40.484375 56 46.34375 49.84375 
Q 52.203125 43.703125 52.203125 31.203125 
z
" id="DejaVuSans-97"/>
       <path d="M 18.3125 70.21875 
L 18.3125 54.6875 
L 36.8125 54.6875 
L 36.8125 47.703125 
L 18.3125 47.703125 
L 18.3125 18.015625 
Q 18.3125 11.328125 20.140625 9.421875 
Q 21.96875 7.515625 27.59375 7.515625 
L 36.8125 7.515625 
L 36.8125 0 
L 27.59375 0 
Q 17.1875 0 13.234375 3.875 
Q 9.28125 7.765625 9.28125 18.015625 
L 9.28125 47.703125 
L 2.6875 47.703125 
L 2.6875 54.6875 
L 9.28125 54.6875 
L 9.28125 70.21875 
z
" id="DejaVuSans-116"/>
       <path d="M 56.203125 29.59375 
L 56.203125 25.203125 
L 14.890625 25.203125 
Q 15.484375 15.921875 20.484375 11.0625 
Q 25.484375 6.203125 34.421875 6.203125 
Q 39.59375 6.203125 44.453125 7.46875 
Q 49.3125 8.734375 54.109375 11.28125 
L 54.109375 2.78125 
Q 49.265625 0.734375 44.1875 -0.34375 
Q 39.109375 -1.421875 33.890625 -1.421875 
Q 20.796875 -1.421875 13.15625 6.1875 
Q 5.515625 13.8125 5.515625 26.8125 
Q 5.515625 40.234375 12.765625 48.109375 
Q 20.015625 56 32.328125 56 
Q 43.359375 56 49.78125 48.890625 
Q 56.203125 41.796875 56.203125 29.59375 
z
M 47.21875 32.234375 
Q 47.125 39.59375 43.09375 43.984375 
Q 39.0625 48.390625 32.421875 48.390625 
Q 24.90625 48.390625 20.390625 44.140625 
Q 15.875 39.890625 15.1875 32.171875 
z
" id="DejaVuSans-101"/>
      </defs>
      <use xlink:href="#DejaVuSans-68"/>
      <use x="77.001953" xlink:href="#DejaVuSans-97"/>
      <use x="138.28125" xlink:href="#DejaVuSans-116"/>
      <use x="177.490234" xlink:href="#DejaVuSans-101"/>
     </g>
    </g>
   </g>
   <g id="matplotlib.axis_2">
    <g id="ytick_1">
     <g id="line2d_13">
      <path clip-path="url(#pa6a4afe501)" d="M 54.2 249.774505 
L 450 249.774505 
" style="fill:none;stroke:#b0b0b0;stroke-linecap:square;stroke-width:0.8;"/>
     </g>
     <g id="line2d_14">
      <defs>
       <path d="M 0 0 
L -3.5 0 
" id="m6ca0918922" style="stroke:#000000;stroke-width:0.8;"/>
      </defs>
      <g>
       <use style="stroke:#000000;stroke-width:0.8;" x="54.2" xlink:href="#m6ca0918922" y="249.774505"/>
      </g>
     </g>
     <g id="text_8">
      <!-- 37.5 -->
      <g transform="translate(24.934375 253.573724)scale(0.1 -0.1)">
       <defs>
        <path d="M 10.6875 12.40625 
L 21 12.40625 
L 21 0 
L 10.6875 0 
z
" id="DejaVuSans-46"/>
       </defs>
       <use xlink:href="#DejaVuSans-51"/>
       <use x="63.623047" xlink:href="#DejaVuSans-55"/>
       <use x="127.246094" xlink:href="#DejaVuSans-46"/>
       <use x="159.033203" xlink:href="#DejaVuSans-53"/>
      </g>
     </g>
    </g>
    <g id="ytick_2">
     <g id="line2d_15">
      <path clip-path="url(#pa6a4afe501)" d="M 54.2 221.028413 
L 450 221.028413 
" style="fill:none;stroke:#b0b0b0;stroke-linecap:square;stroke-width:0.8;"/>
     </g>
     <g id="line2d_16">
      <g>
       <use style="stroke:#000000;stroke-width:0.8;" x="54.2" xlink:href="#m6ca0918922" y="221.028413"/>
      </g>
     </g>
     <g id="text_9">
      <!-- 40.0 -->
      <g transform="translate(24.934375 224.827631)scale(0.1 -0.1)">
       <use xlink:href="#DejaVuSans-52"/>
       <use x="63.623047" xlink:href="#DejaVuSans-48"/>
       <use x="127.246094" xlink:href="#DejaVuSans-46"/>
       <use x="159.033203" xlink:href="#DejaVuSans-48"/>
      </g>
     </g>
    </g>
    <g id="ytick_3">
     <g id="line2d_17">
      <path clip-path="url(#pa6a4afe501)" d="M 54.2 192.28232 
L 450 192.28232 
" style="fill:none;stroke:#b0b0b0;stroke-linecap:square;stroke-width:0.8;"/>
     </g>
     <g id="line2d_18">
      <g>
       <use style="stroke:#000000;stroke-width:0.8;" x="54.2" xlink:href="#m6ca0918922" y="192.28232"/>
      </g>
     </g>
     <g id="text_10">
      <!-- 42.5 -->
      <g transform="translate(24.934375 196.081539)scale(0.1 -0.1)">
       <use xlink:href="#DejaVuSans-52"/>
       <use x="63.623047" xlink:href="#DejaVuSans-50"/>
       <use x="127.246094" xlink:href="#DejaVuSans-46"/>
       <use x="159.033203" xlink:href="#DejaVuSans-53"/>
      </g>
     </g>
    </g>
    <g id="ytick_4">
     <g id="line2d_19">
      <path clip-path="url(#pa6a4afe501)" d="M 54.2 163.536228 
L 450 163.536228 
" style="fill:none;stroke:#b0b0b0;stroke-linecap:square;stroke-width:0.8;"/>
     </g>
     <g id="line2d_20">
      <g>
       <use style="stroke:#000000;stroke-width:0.8;" x="54.2" xlink:href="#m6ca0918922" y="163.536228"/>
      </g>
     </g>
     <g id="text_11">
      <!-- 45.0 -->
      <g transform="translate(24.934375 167.335447)scale(0.1 -0.1)">
       <use xlink:href="#DejaVuSans-52"/>
       <use x="63.623047" xlink:href="#DejaVuSans-53"/>
       <use x="127.246094" xlink:href="#DejaVuSans-46"/>
       <use x="159.033203" xlink:href="#DejaVuSans-48"/>
      </g>
     </g>
    </g>
    <g id="ytick_5">
     <g id="line2d_21">
      <path clip-path="url(#pa6a4afe501)" d="M 54.2 134.790136 
L 450 134.790136 
" style="fill:none;stroke:#b0b0b0;stroke-linecap:square;stroke-width:0.8;"/>
     </g>
     <g id="line2d_22">
      <g>
       <use style="stroke:#000000;stroke-width:0.8;" x="54.2" xlink:href="#m6ca0918922" y="134.790136"/>
      </g>
     </g>
     <g id="text_12">
      <!-- 47.5 -->
      <g transform="translate(24.934375 138.589354)scale(0.1 -0.1)">
       <use xlink:href="#DejaVuSans-52"/>
       <use x="63.623047" xlink:href="#DejaVuSans-55"/>
       <use x="127.246094" xlink:href="#DejaVuSans-46"/>
       <use x="159.033203" xlink:href="#DejaVuSans-53"/>
      </g>
     </g>
    </g>
    <g id="ytick_6">
     <g id="line2d_23">
      <path clip-path="url(#pa6a4afe501)" d="M 54.2 106.044043 
L 450 106.044043 
" style="fill:none;stroke:#b0b0b0;stroke-linecap:square;stroke-width:0.8;"/>
     </g>
     <g id="line2d_24">
      <g>
       <use style="stroke:#000000;stroke-width:0.8;" x="54.2" xlink:href="#m6ca0918922" y="106.044043"/>
      </g>
     </g>
     <g id="text_13">
      <!-- 50.0 -->
      <g transform="translate(24.934375 109.843262)scale(0.1 -0.1)">
       <use xlink:href="#DejaVuSans-53"/>
       <use x="63.623047" xlink:href="#DejaVuSans-48"/>
       <use x="127.246094" xlink:href="#DejaVuSans-46"/>
       <use x="159.033203" xlink:href="#DejaVuSans-48"/>
      </g>
     </g>
    </g>
    <g id="ytick_7">
     <g id="line2d_25">
      <path clip-path="url(#pa6a4afe501)" d="M 54.2 77.297951 
L 450 77.297951 
" style="fill:none;stroke:#b0b0b0;stroke-linecap:square;stroke-width:0.8;"/>
     </g>
     <g id="line2d_26">
      <g>
       <use style="stroke:#000000;stroke-width:0.8;" x="54.2" xlink:href="#m6ca0918922" y="77.297951"/>
      </g>
     </g>
     <g id="text_14">
      <!-- 52.5 -->
      <g transform="translate(24.934375 81.097169)scale(0.1 -0.1)">
       <use xlink:href="#DejaVuSans-53"/>
       <use x="63.623047" xlink:href="#DejaVuSans-50"/>
       <use x="127.246094" xlink:href="#DejaVuSans-46"/>
       <use x="159.033203" xlink:href="#DejaVuSans-53"/>
      </g>
     </g>
    </g>
    <g id="ytick_8">
     <g id="line2d_27">
      <path clip-path="url(#pa6a4afe501)" d="M 54.2 48.551858 
L 450 48.551858 
" style="fill:none;stroke:#b0b0b0;stroke-linecap:square;stroke-width:0.8;"/>
     </g>
     <g id="line2d_28">
      <g>
       <use style="stroke:#000000;stroke-width:0.8;" x="54.2" xlink:href="#m6ca0918922" y="48.551858"/>
      </g>
     </g>
     <g id="text_15">
      <!-- 55.0 -->
      <g transform="translate(24.934375 52.351077)scale(0.1 -0.1)">
       <use xlink:href="#DejaVuSans-53"/>
       <use x="63.623047" xlink:href="#DejaVuSans-53"/>
       <use x="127.246094" xlink:href="#DejaVuSans-46"/>
       <use x="159.033203" xlink:href="#DejaVuSans-48"/>
      </g>
     </g>
    </g>
    <g id="text_16">
     <!-- Temperature [F] -->
     <g transform="translate(18.854688 180.575291)rotate(-90)scale(0.1 -0.1)">
      <defs>
       <path d="M -0.296875 72.90625 
L 61.375 72.90625 
L 61.375 64.59375 
L 35.5 64.59375 
L 35.5 0 
L 25.59375 0 
L 25.59375 64.59375 
L -0.296875 64.59375 
z
" id="DejaVuSans-84"/>
       <path d="M 52 44.1875 
Q 55.375 50.25 60.0625 53.125 
Q 64.75 56 71.09375 56 
Q 79.640625 56 84.28125 50.015625 
Q 88.921875 44.046875 88.921875 33.015625 
L 88.921875 0 
L 79.890625 0 
L 79.890625 32.71875 
Q 79.890625 40.578125 77.09375 44.375 
Q 74.3125 48.1875 68.609375 48.1875 
Q 61.625 48.1875 57.5625 43.546875 
Q 53.515625 38.921875 53.515625 30.90625 
L 53.515625 0 
L 44.484375 0 
L 44.484375 32.71875 
Q 44.484375 40.625 41.703125 44.40625 
Q 38.921875 48.1875 33.109375 48.1875 
Q 26.21875 48.1875 22.15625 43.53125 
Q 18.109375 38.875 18.109375 30.90625 
L 18.109375 0 
L 9.078125 0 
L 9.078125 54.6875 
L 18.109375 54.6875 
L 18.109375 46.1875 
Q 21.1875 51.21875 25.484375 53.609375 
Q 29.78125 56 35.6875 56 
Q 41.65625 56 45.828125 52.96875 
Q 50 49.953125 52 44.1875 
z
" id="DejaVuSans-109"/>
       <path d="M 18.109375 8.203125 
L 18.109375 -20.796875 
L 9.078125 -20.796875 
L 9.078125 54.6875 
L 18.109375 54.6875 
L 18.109375 46.390625 
Q 20.953125 51.265625 25.265625 53.625 
Q 29.59375 56 35.59375 56 
Q 45.5625 56 51.78125 48.09375 
Q 58.015625 40.1875 58.015625 27.296875 
Q 58.015625 14.40625 51.78125 6.484375 
Q 45.5625 -1.421875 35.59375 -1.421875 
Q 29.59375 -1.421875 25.265625 0.953125 
Q 20.953125 3.328125 18.109375 8.203125 
z
M 48.6875 27.296875 
Q 48.6875 37.203125 44.609375 42.84375 
Q 40.53125 48.484375 33.40625 48.484375 
Q 26.265625 48.484375 22.1875 42.84375 
Q 18.109375 37.203125 18.109375 27.296875 
Q 18.109375 17.390625 22.1875 11.75 
Q 26.265625 6.109375 33.40625 6.109375 
Q 40.53125 6.109375 44.609375 11.75 
Q 48.6875 17.390625 48.6875 27.296875 
z
" id="DejaVuSans-112"/>
       <path d="M 41.109375 46.296875 
Q 39.59375 47.171875 37.8125 47.578125 
Q 36.03125 48 33.890625 48 
Q 26.265625 48 22.1875 43.046875 
Q 18.109375 38.09375 18.109375 28.8125 
L 18.109375 0 
L 9.078125 0 
L 9.078125 54.6875 
L 18.109375 54.6875 
L 18.109375 46.1875 
Q 20.953125 51.171875 25.484375 53.578125 
Q 30.03125 56 36.53125 56 
Q 37.453125 56 38.578125 55.875 
Q 39.703125 55.765625 41.0625 55.515625 
z
" id="DejaVuSans-114"/>
       <path d="M 8.5 21.578125 
L 8.5 54.6875 
L 17.484375 54.6875 
L 17.484375 21.921875 
Q 17.484375 14.15625 20.5 10.265625 
Q 23.53125 6.390625 29.59375 6.390625 
Q 36.859375 6.390625 41.078125 11.03125 
Q 45.3125 15.671875 45.3125 23.6875 
L 45.3125 54.6875 
L 54.296875 54.6875 
L 54.296875 0 
L 45.3125 0 
L 45.3125 8.40625 
Q 42.046875 3.421875 37.71875 1 
Q 33.40625 -1.421875 27.6875 -1.421875 
Q 18.265625 -1.421875 13.375 4.4375 
Q 8.5 10.296875 8.5 21.578125 
z
M 31.109375 56 
z
" id="DejaVuSans-117"/>
       <path id="DejaVuSans-32"/>
       <path d="M 8.59375 75.984375 
L 29.296875 75.984375 
L 29.296875 69 
L 17.578125 69 
L 17.578125 -6.203125 
L 29.296875 -6.203125 
L 29.296875 -13.1875 
L 8.59375 -13.1875 
z
" id="DejaVuSans-91"/>
       <path d="M 9.8125 72.90625 
L 51.703125 72.90625 
L 51.703125 64.59375 
L 19.671875 64.59375 
L 19.671875 43.109375 
L 48.578125 43.109375 
L 48.578125 34.8125 
L 19.671875 34.8125 
L 19.671875 0 
L 9.8125 0 
z
" id="DejaVuSans-70"/>
       <path d="M 30.421875 75.984375 
L 30.421875 -13.1875 
L 9.71875 -13.1875 
L 9.71875 -6.203125 
L 21.390625 -6.203125 
L 21.390625 69 
L 9.71875 69 
L 9.71875 75.984375 
z
" id="DejaVuSans-93"/>
      </defs>
      <use xlink:href="#DejaVuSans-84"/>
      <use x="44.083984" xlink:href="#DejaVuSans-101"/>
      <use x="105.607422" xlink:href="#DejaVuSans-109"/>
      <use x="203.019531" xlink:href="#DejaVuSans-112"/>
      <use x="266.496094" xlink:href="#DejaVuSans-101"/>
      <use x="328.019531" xlink:href="#DejaVuSans-114"/>
      <use x="369.132812" xlink:href="#DejaVuSans-97"/>
      <use x="430.412109" xlink:href="#DejaVuSans-116"/>
      <use x="469.621094" xlink:href="#DejaVuSans-117"/>
      <use x="533" xlink:href="#DejaVuSans-114"/>
      <use x="571.863281" xlink:href="#DejaVuSans-101"/>
      <use x="633.386719" xlink:href="#DejaVuSans-32"/>
      <use x="665.173828" xlink:href="#DejaVuSans-91"/>
      <use x="704.1875" xlink:href="#DejaVuSans-70"/>
      <use x="761.707031" xlink:href="#DejaVuSans-93"/>
     </g>
    </g>
   </g>
   <g id="line2d_29">
    <path clip-path="url(#pa6a4afe501)" d="M 72.190909 50.851546 
L 72.202871 50.851546 
L 72.324344 48.551858 
L 72.348293 48.551858 
L 72.469005 50.851546 
L 72.493472 50.851546 
L 72.613989 48.551858 
L 72.662364 48.551858 
L 72.771488 50.851546 
L 72.881006 48.551858 
L 73.002988 50.851546 
L 73.244792 50.851546 
L 73.256968 48.551858 
L 73.354285 50.851546 
L 73.450638 50.851546 
L 73.572091 48.551858 
L 73.611604 50.851546 
L 73.671967 48.551858 
L 73.683979 48.551858 
L 73.732608 50.851546 
L 73.785612 48.551858 
L 73.960494 48.551858 
L 74.070715 50.851546 
L 74.192957 48.551858 
L 74.204933 48.551858 
L 74.327199 50.851546 
L 74.388013 48.551858 
L 74.436353 50.851546 
L 74.497259 50.851546 
L 74.521209 48.551858 
L 74.557649 52.001389 
L 74.606539 50.851546 
L 74.655772 50.851546 
L 74.667763 52.001389 
L 74.704325 48.551858 
L 74.765111 50.851546 
L 74.789471 50.851546 
L 74.912658 48.551858 
L 75.009907 48.551858 
L 75.022308 50.851546 
L 75.120514 48.551858 
L 75.156413 48.551858 
L 75.19245 47.402015 
L 75.265854 48.551858 
L 75.412091 48.551858 
L 75.424042 50.851546 
L 75.522208 48.551858 
L 75.803109 48.551858 
L 75.877255 50.851546 
L 75.913377 48.551858 
L 76.121417 48.551858 
L 76.243733 50.851546 
L 76.48878 50.851546 
L 76.500776 48.551858 
L 76.597763 50.851546 
L 77.396032 50.851546 
L 77.4582 52.001389 
L 77.506498 50.851546 
L 77.543142 50.851546 
L 77.663963 52.001389 
L 77.773965 50.851546 
L 77.896371 52.001389 
L 77.920442 52.001389 
L 78.042436 50.851546 
L 78.081628 50.851546 
L 78.203687 52.001389 
L 78.228619 50.851546 
L 78.314802 52.001389 
L 78.351854 52.001389 
L 78.363831 50.851546 
L 78.451019 52.001389 
L 78.608003 52.001389 
L 78.719129 53.151233 
L 78.7958 53.151233 
L 78.895896 52.001389 
L 78.920238 53.151233 
L 78.993926 52.001389 
L 79.042425 50.851546 
L 79.102634 52.001389 
L 79.249126 52.001389 
L 79.346315 50.851546 
L 79.358645 52.001389 
L 79.456292 52.001389 
L 79.468247 50.851546 
L 79.565282 52.001389 
L 79.602164 52.001389 
L 79.614131 50.851546 
L 79.710652 52.001389 
L 79.759479 52.001389 
L 79.881958 50.851546 
L 79.990649 50.851546 
L 80.002617 52.001389 
L 80.099227 50.851546 
L 80.280414 50.851546 
L 80.401264 48.551858 
L 80.672562 48.551858 
L 80.684591 50.851546 
L 80.781294 48.551858 
L 80.938796 48.551858 
L 81.050435 47.402015 
L 81.062809 47.402015 
L 81.111814 48.551858 
L 81.17221 47.402015 
L 81.208417 47.402015 
L 81.317447 46.252171 
L 81.366159 47.402015 
L 81.427806 46.252171 
L 81.487859 46.252171 
L 81.610779 45.102327 
L 81.696148 45.102327 
L 81.817807 43.952484 
L 81.841918 43.952484 
L 81.955674 41.652796 
L 82.053727 42.80264 
L 82.066704 41.652796 
L 82.104396 42.80264 
L 82.142028 40.502952 
L 82.166728 41.652796 
L 82.191085 41.652796 
L 82.23076 39.353109 
L 82.305151 40.502952 
L 82.46564 40.502952 
L 82.578694 39.353109 
L 82.641044 40.502952 
L 82.616738 37.053421 
L 82.653358 39.353109 
L 82.665335 37.053421 
L 82.750988 41.652796 
L 82.775478 41.652796 
L 82.82486 42.80264 
L 82.79988 39.353109 
L 82.872726 40.502952 
L 82.884938 37.053421 
L 82.896947 42.80264 
L 82.970888 42.80264 
L 82.994797 42.80264 
L 83.007417 43.952484 
L 83.055576 41.652796 
L 83.092495 41.652796 
L 83.228859 35.903578 
L 83.252993 35.903578 
L 83.373229 37.053421 
L 83.433964 37.053421 
L 83.543927 39.353109 
L 83.65677 37.053421 
L 83.779106 39.353109 
L 83.791066 39.353109 
L 83.912695 40.502952 
L 84.025933 40.502952 
L 84.147506 41.652796 
L 84.344658 41.652796 
L 84.467856 42.80264 
L 84.504179 42.80264 
L 84.516402 41.652796 
L 84.612438 42.80264 
L 84.649388 42.80264 
L 84.771328 43.952484 
L 85.483056 43.952484 
L 85.495219 45.102327 
L 85.593122 43.952484 
L 85.605099 43.952484 
L 85.641937 45.102327 
L 85.704329 43.952484 
L 85.753614 43.952484 
L 85.876445 45.102327 
L 86.354531 45.102327 
L 86.47575 46.252171 
L 86.488038 46.252171 
L 86.574038 45.102327 
L 86.598052 46.252171 
L 86.757865 46.252171 
L 86.770529 47.402015 
L 86.858229 46.252171 
L 87.175185 46.252171 
L 87.272842 47.402015 
L 87.28494 46.252171 
L 87.321572 46.252171 
L 87.431336 47.402015 
L 87.54126 46.252171 
L 87.663935 47.402015 
L 87.676306 46.252171 
L 87.773458 47.402015 
L 87.945417 47.402015 
L 87.993669 46.252171 
L 88.054791 47.402015 
L 88.105189 47.402015 
L 88.227294 46.252171 
L 88.348865 47.402015 
L 88.992912 47.402015 
L 89.00489 46.252171 
L 89.101364 47.402015 
L 89.185875 47.402015 
L 89.198441 48.551858 
L 89.294799 47.402015 
L 89.586156 47.402015 
L 89.706052 48.551858 
L 89.790597 48.551858 
L 89.886419 47.402015 
L 89.898653 48.551858 
L 89.922607 48.551858 
L 90.007704 47.402015 
L 90.031697 48.551858 
L 90.213828 48.551858 
L 90.326707 50.851546 
L 90.374695 48.551858 
L 90.422865 50.851546 
L 90.526862 50.851546 
L 90.551306 48.551858 
L 90.636385 50.851546 
L 90.672726 50.851546 
L 90.769655 48.551858 
L 90.781868 50.851546 
L 90.794201 50.851546 
L 90.891172 48.551858 
L 90.903168 50.851546 
L 90.915459 50.851546 
L 91.037978 48.551858 
L 91.147073 48.551858 
L 91.159158 50.851546 
L 91.255856 48.551858 
L 91.487856 48.551858 
L 91.536236 50.851546 
L 91.597458 48.551858 
L 91.633858 48.551858 
L 91.719156 50.851546 
L 91.743541 48.551858 
L 91.939426 48.551858 
L 92.060885 50.851546 
L 92.085034 50.851546 
L 92.206972 48.551858 
L 92.219341 48.551858 
L 92.341589 50.851546 
L 92.41543 50.851546 
L 92.477238 48.551858 
L 92.526325 50.851546 
L 92.576132 50.851546 
L 92.588973 48.551858 
L 92.677589 50.851546 
L 92.690635 50.851546 
L 92.765773 48.551858 
L 92.790117 50.851546 
L 92.839953 50.851546 
L 92.851932 48.551858 
L 92.876468 50.851546 
L 92.974645 50.851546 
L 93.010862 48.551858 
L 93.074136 50.851546 
L 93.13536 50.851546 
L 93.208457 48.551858 
L 93.244923 50.851546 
L 93.318088 50.851546 
L 93.379034 48.551858 
L 93.427966 50.851546 
L 93.773686 50.851546 
L 93.891388 52.001389 
L 93.927457 50.851546 
L 93.999567 52.001389 
L 94.410577 52.001389 
L 94.483897 53.151233 
L 94.521448 52.001389 
L 94.957842 52.001389 
L 94.993788 50.851546 
L 95.066362 52.001389 
L 95.411623 52.001389 
L 95.534312 50.851546 
L 95.656272 52.001389 
L 95.705415 52.001389 
L 95.825976 50.851546 
L 95.923627 50.851546 
L 96.044655 48.551858 
L 96.166422 48.551858 
L 96.17844 47.402015 
L 96.275691 48.551858 
L 96.314969 48.551858 
L 96.413339 47.402015 
L 96.535482 48.551858 
L 96.583694 48.551858 
L 96.595784 47.402015 
L 96.69226 48.551858 
L 96.925065 48.551858 
L 96.973254 47.402015 
L 97.034231 48.551858 
L 97.070508 48.551858 
L 97.179465 47.402015 
L 97.547848 47.402015 
L 98.091356 46.252171 
L 98.333742 46.252171 
L 98.456341 45.102327 
L 98.849085 45.102327 
L 98.960419 43.952484 
L 99.057208 43.952484 
L 99.190897 41.652796 
L 99.311838 42.80264 
L 99.629621 42.80264 
L 99.641634 41.652796 
L 99.738389 42.80264 
L 99.762461 42.80264 
L 99.88356 41.652796 
L 99.919501 41.652796 
L 100.042333 43.952484 
L 100.066363 43.952484 
L 100.07858 42.80264 
L 100.176485 43.952484 
L 100.350963 43.952484 
L 100.44734 45.102327 
L 100.459768 43.952484 
L 100.496273 43.952484 
L 100.609751 45.102327 
L 100.878909 45.102327 
L 100.977806 46.252171 
L 100.989976 45.102327 
L 101.013942 45.102327 
L 101.135463 46.252171 
L 101.282202 46.252171 
L 101.294179 45.102327 
L 101.381583 46.252171 
L 101.701181 46.252171 
L 101.813429 47.402015 
L 101.866035 47.402015 
L 101.914627 46.252171 
L 101.97677 47.402015 
L 102.175716 47.402015 
L 102.285315 48.551858 
L 102.358951 47.402015 
L 102.384109 48.551858 
L 102.409187 48.551858 
L 102.42223 47.402015 
L 102.519424 48.551858 
L 102.618086 48.551858 
L 102.630165 50.851546 
L 102.693645 48.551858 
L 102.817679 48.551858 
L 102.929099 50.851546 
L 102.965176 50.851546 
L 103.087505 48.551858 
L 103.208834 50.851546 
L 103.42758 50.851546 
L 103.439584 52.001389 
L 103.536345 50.851546 
L 104.268222 50.851546 
L 104.37798 52.001389 
L 104.487502 50.851546 
L 104.563272 52.001389 
L 104.587602 50.851546 
L 104.648571 50.851546 
L 104.770939 52.001389 
L 104.807576 52.001389 
L 104.819512 50.851546 
L 104.917268 52.001389 
L 104.942433 52.001389 
L 105.056461 50.851546 
L 105.095177 50.851546 
L 105.20895 52.001389 
L 105.392856 52.001389 
L 105.465773 50.851546 
L 105.50183 52.001389 
L 105.769404 52.001389 
L 105.781936 53.151233 
L 105.879678 52.001389 
L 106.002411 52.001389 
L 106.014595 53.151233 
L 106.111614 52.001389 
L 106.293173 52.001389 
L 106.317735 53.151233 
L 106.403225 52.001389 
L 106.427174 52.001389 
L 106.549503 53.151233 
L 106.573934 53.151233 
L 106.695067 52.001389 
L 106.8161 53.151233 
L 106.828074 53.151233 
L 106.852668 52.001389 
L 106.924868 53.151233 
L 106.964161 53.151233 
L 107.085617 52.001389 
L 107.200863 53.151233 
L 107.33509 53.151233 
L 107.443893 54.301077 
L 107.563992 53.151233 
L 107.57617 53.151233 
L 107.68826 54.301077 
L 107.736837 54.301077 
L 107.774423 53.151233 
L 107.847073 54.301077 
L 108.323503 54.301077 
L 108.371922 55.45092 
L 108.432788 54.301077 
L 108.444764 54.301077 
L 108.554437 55.45092 
L 108.676654 54.301077 
L 108.700646 54.301077 
L 108.822814 55.45092 
L 109.048954 55.45092 
L 109.174733 54.301077 
L 109.245452 55.45092 
L 109.273436 54.301077 
L 109.350272 54.301077 
L 109.465642 55.45092 
L 109.524974 55.45092 
L 109.624196 54.301077 
L 109.711062 55.45092 
L 110.23371 55.45092 
L 110.347878 56.600764 
L 110.528281 56.600764 
L 110.552649 57.750608 
L 110.630862 56.600764 
L 110.698555 56.600764 
L 110.821634 57.750608 
L 110.906695 56.600764 
L 110.930862 57.750608 
L 111.101428 57.750608 
L 111.198044 56.600764 
L 111.210061 57.750608 
L 111.477286 57.750608 
L 111.598318 56.600764 
L 111.61028 56.600764 
L 111.732977 57.750608 
L 111.83064 57.750608 
L 111.943126 56.600764 
L 112.083458 56.600764 
L 112.182607 57.750608 
L 112.302602 56.600764 
L 112.967599 56.600764 
L 112.979703 57.750608 
L 113.066481 56.600764 
L 113.240086 56.600764 
L 113.252525 57.750608 
L 113.341566 56.600764 
L 113.50312 56.600764 
L 113.5153 57.750608 
L 113.60451 56.600764 
L 113.665262 56.600764 
L 113.677953 55.45092 
L 113.77438 56.600764 
L 113.931647 56.600764 
L 113.943639 57.750608 
L 114.040345 56.600764 
L 114.342129 56.600764 
L 114.371079 57.750608 
L 114.447256 56.600764 
L 115.208195 57.750608 
L 116.012307 57.750608 
L 116.02449 56.600764 
L 116.123058 57.750608 
L 116.929354 57.750608 
L 116.989746 60.050295 
L 117.03787 57.750608 
L 117.061777 57.750608 
L 117.073895 60.050295 
L 117.171361 57.750608 
L 117.292582 57.750608 
L 117.389226 60.050295 
L 117.401202 57.750608 
L 117.437427 57.750608 
L 117.559497 60.050295 
L 117.670011 57.750608 
L 117.792057 60.050295 
L 117.904681 57.750608 
L 118.039293 57.750608 
L 118.135255 60.050295 
L 118.148849 57.750608 
L 118.268134 60.050295 
L 119.106267 61.200139 
L 119.2191 61.200139 
L 119.26771 62.349983 
L 119.6696 61.200139 
L 119.783705 62.349983 
L 119.907932 61.200139 
L 119.959203 62.349983 
L 120.009155 61.200139 
L 120.08373 61.200139 
L 120.12169 62.349983 
L 120.183062 61.200139 
L 120.259741 61.200139 
L 120.380737 62.349983 
L 120.39337 62.349983 
L 120.445094 61.200139 
L 120.493789 62.349983 
L 120.903714 62.349983 
L 121.003474 63.499826 
L 121.126987 62.349983 
L 121.138989 62.349983 
L 121.248646 63.499826 
L 121.369078 62.349983 
L 121.405765 63.499826 
L 121.478522 62.349983 
L 121.490505 62.349983 
L 121.538527 63.499826 
L 121.598947 62.349983 
L 121.622902 62.349983 
L 121.743421 63.499826 
L 121.755709 63.499826 
L 121.863648 62.349983 
L 121.976377 63.499826 
L 122.004162 63.499826 
L 122.126288 64.64967 
L 122.162851 64.64967 
L 122.21213 63.499826 
L 122.272856 64.64967 
L 122.321777 64.64967 
L 122.346166 65.799514 
L 122.358111 63.499826 
L 122.419491 63.499826 
L 122.503717 63.499826 
L 122.515691 64.64967 
L 122.611857 63.499826 
L 122.876384 63.499826 
L 122.936784 65.799514 
L 122.991127 64.64967 
L 123.111658 63.499826 
L 123.244004 63.499826 
L 123.363834 64.64967 
L 123.472341 63.499826 
L 123.484309 64.64967 
L 123.580263 63.499826 
L 123.592219 63.499826 
L 123.742333 64.64967 
L 123.754704 64.64967 
L 123.766837 63.499826 
L 123.859646 64.64967 
L 123.898819 64.64967 
L 123.923677 65.799514 
L 123.947755 63.499826 
L 124.008219 64.64967 
L 124.032685 63.499826 
L 124.118078 64.64967 
L 124.651798 64.64967 
L 124.675924 65.799514 
L 124.761596 64.64967 
L 124.883457 64.64967 
L 125.00672 66.949357 
L 125.118429 65.799514 
L 125.13058 66.949357 
L 125.22842 65.799514 
L 125.548066 65.799514 
L 125.659437 66.949357 
L 125.687627 66.949357 
L 125.808275 68.099201 
L 125.925403 65.799514 
L 126.02104 65.799514 
L 126.133737 66.949357 
L 126.440567 66.949357 
L 126.454396 65.799514 
L 126.545451 66.949357 
L 126.636135 66.949357 
L 126.775276 65.799514 
L 127.098719 65.799514 
L 127.138014 64.64967 
L 127.199149 65.799514 
L 127.466818 65.799514 
L 127.479354 66.949357 
L 127.574609 65.799514 
L 127.877664 65.799514 
L 127.890806 66.949357 
L 127.988489 65.799514 
L 128.101355 65.799514 
L 128.225852 66.949357 
L 128.282064 66.949357 
L 128.351939 65.799514 
L 128.365218 66.949357 
L 128.486728 65.799514 
L 128.608609 66.949357 
L 128.723658 65.799514 
L 128.762002 65.799514 
L 128.861488 66.949357 
L 128.972157 65.799514 
L 128.99777 65.799514 
L 129.10255 66.949357 
L 129.191296 65.799514 
L 129.203232 66.949357 
L 129.281712 66.949357 
L 129.391823 65.799514 
L 129.768699 65.799514 
L 129.881933 64.64967 
L 130.322199 64.64967 
L 130.443228 63.499826 
L 130.455177 63.499826 
L 130.467173 64.64967 
L 130.561582 63.499826 
L 130.574496 63.499826 
L 130.586658 64.64967 
L 130.68279 63.499826 
L 130.942729 63.499826 
L 131.056715 62.349983 
L 131.068927 62.349983 
L 131.177465 63.499826 
L 131.299436 62.349983 
L 131.372953 62.349983 
L 131.494854 61.200139 
L 131.506835 61.200139 
L 131.627899 62.349983 
L 131.688247 62.349983 
L 131.810736 61.200139 
L 131.95999 61.200139 
L 132.082471 60.050295 
L 132.131164 60.050295 
L 132.254122 57.750608 
L 132.278628 60.050295 
L 132.364154 57.750608 
L 132.425361 57.750608 
L 132.45013 60.050295 
L 132.771061 60.050295 
L 132.825986 57.750608 
L 132.839756 60.050295 
L 132.886701 60.050295 
L 133.001832 57.750608 
L 133.029125 57.750608 
L 133.124882 60.050295 
L 133.136902 57.750608 
L 133.208847 57.750608 
L 133.319869 61.200139 
L 133.331833 60.050295 
L 133.448359 61.200139 
L 133.501999 60.050295 
L 133.534654 61.200139 
L 133.585572 61.200139 
L 133.678124 60.050295 
L 133.69323 61.200139 
L 133.705229 61.200139 
L 133.759588 60.050295 
L 133.798741 61.200139 
L 133.87857 61.200139 
L 133.890547 60.050295 
L 133.988521 61.200139 
L 134.246301 61.200139 
L 134.357092 62.349983 
L 134.441952 61.200139 
L 134.466102 62.349983 
L 134.781768 62.349983 
L 134.794096 63.499826 
L 134.890124 62.349983 
L 134.902868 62.349983 
L 134.927091 63.499826 
L 135.013651 62.349983 
L 135.174077 62.349983 
L 135.251783 63.499826 
L 135.278011 62.349983 
L 135.387422 62.349983 
L 135.50912 63.499826 
L 135.521135 62.349983 
L 135.618178 63.499826 
L 136.021674 63.499826 
L 136.034081 64.64967 
L 136.132066 63.499826 
L 136.205694 63.499826 
L 136.319253 64.64967 
L 136.634537 64.64967 
L 136.646922 63.499826 
L 136.743544 64.64967 
L 136.933907 64.64967 
L 136.996351 65.799514 
L 137.033044 64.64967 
L 137.070379 64.64967 
L 137.183342 65.799514 
L 137.295788 64.64967 
L 137.308279 64.64967 
L 137.423097 65.799514 
L 137.447923 65.799514 
L 137.549769 64.64967 
L 137.562106 65.799514 
L 137.649053 64.64967 
L 137.709694 64.64967 
L 137.822667 65.799514 
L 137.846687 65.799514 
L 137.96846 64.64967 
L 137.980506 64.64967 
L 138.103308 65.799514 
L 138.115382 64.64967 
L 138.212932 65.799514 
L 138.314058 65.799514 
L 138.438119 66.949357 
L 138.774328 66.949357 
L 138.885944 65.799514 
L 138.959894 65.799514 
L 138.972166 66.949357 
L 139.069328 65.799514 
L 139.118029 65.799514 
L 139.203009 66.949357 
L 139.226884 65.799514 
L 139.323128 65.799514 
L 139.444744 66.949357 
L 139.567148 66.949357 
L 139.675764 68.099201 
L 139.797556 66.949357 
L 140.397282 66.949357 
L 140.409336 65.799514 
L 140.499795 66.949357 
L 140.629919 66.949357 
L 140.728561 68.099201 
L 140.838339 66.949357 
L 140.950769 68.099201 
L 141.072603 66.949357 
L 141.085165 66.949357 
L 141.206999 68.099201 
L 141.279909 68.099201 
L 141.402551 69.249045 
L 141.524562 68.099201 
L 141.670628 68.099201 
L 141.682607 69.249045 
L 141.779661 68.099201 
L 141.852578 68.099201 
L 141.876555 69.249045 
L 141.962297 68.099201 
L 142.022336 68.099201 
L 142.106842 69.249045 
L 142.131366 68.099201 
L 142.228578 68.099201 
L 142.349993 69.249045 
L 142.679891 69.249045 
L 142.801961 68.099201 
L 142.838636 68.099201 
L 142.947314 69.249045 
L 143.056854 68.099201 
L 143.179339 69.249045 
L 143.410008 69.249045 
L 143.422131 71.548732 
L 143.499887 69.249045 
L 143.890965 69.249045 
L 143.903852 71.548732 
L 143.993704 69.249045 
L 144.031294 69.249045 
L 144.139355 71.548732 
L 144.2601 69.249045 
L 144.490332 69.249045 
L 144.611557 71.548732 
L 144.744278 71.548732 
L 144.865744 72.698576 
L 144.877712 72.698576 
L 144.986174 71.548732 
L 145.037574 71.548732 
L 145.049691 72.698576 
L 145.138104 71.548732 
L 145.213615 69.249045 
L 145.226044 71.548732 
L 145.658168 71.548732 
L 145.759012 69.249045 
L 145.87384 71.548732 
L 145.985391 69.249045 
L 146.100485 71.548732 
L 146.217607 69.249045 
L 146.231381 69.249045 
L 146.32133 71.548732 
L 146.335537 69.249045 
L 146.349451 69.249045 
L 146.378111 71.548732 
L 146.443091 69.249045 
L 146.478302 69.249045 
L 146.598392 71.548732 
L 146.718455 69.249045 
L 146.731515 71.548732 
L 146.827457 69.249045 
L 146.980412 69.249045 
L 147.093929 68.099201 
L 147.205019 69.249045 
L 147.320535 68.099201 
L 147.38544 68.099201 
L 147.500462 69.249045 
L 147.621002 68.099201 
L 147.70716 69.249045 
L 147.720025 68.099201 
L 147.819099 69.249045 
L 147.930084 68.099201 
L 148.052638 69.249045 
L 148.088776 69.249045 
L 148.162368 68.099201 
L 148.199403 69.249045 
L 149.105069 69.249045 
L 149.141947 68.099201 
L 149.207276 69.249045 
L 149.506702 69.249045 
L 149.519067 71.548732 
L 149.617071 69.249045 
L 149.945642 69.249045 
L 149.993831 71.548732 
L 150.030782 69.249045 
L 150.505237 69.249045 
L 150.517648 68.099201 
L 150.615237 69.249045 
L 150.969947 69.249045 
L 151.057626 71.548732 
L 151.069599 69.249045 
L 151.196076 69.249045 
L 151.244181 71.548732 
L 151.282045 69.249045 
L 151.309708 69.249045 
L 151.432752 71.548732 
L 151.518068 71.548732 
L 151.530413 69.249045 
L 151.617172 71.548732 
L 151.944597 71.548732 
L 151.956771 69.249045 
L 152.055269 71.548732 
L 152.104437 71.548732 
L 152.116828 69.249045 
L 152.205628 71.548732 
L 153.123814 71.548732 
L 153.147819 72.698576 
L 153.233192 71.548732 
L 153.411476 71.548732 
L 153.554124 72.698576 
L 153.57628 71.548732 
L 153.642999 72.698576 
L 154.028095 72.698576 
L 154.105193 71.548732 
L 154.240334 72.698576 
L 154.252662 71.548732 
L 154.34918 72.698576 
L 154.481745 72.698576 
L 154.493801 73.84842 
L 154.591468 72.698576 
L 154.615576 72.698576 
L 154.699759 71.548732 
L 154.723813 72.698576 
L 154.956436 72.698576 
L 155.07722 73.84842 
L 155.188407 72.698576 
L 155.33461 72.698576 
L 155.442858 73.84842 
L 155.516458 72.698576 
L 155.55323 73.84842 
L 155.613285 73.84842 
L 155.73507 72.698576 
L 155.855932 73.84842 
L 155.952771 72.698576 
L 155.964744 73.84842 
L 156.484479 73.84842 
L 156.580813 74.998263 
L 156.592764 73.84842 
L 156.870883 73.84842 
L 156.883058 74.998263 
L 156.943303 73.84842 
L 156.982679 73.84842 
L 156.994982 74.998263 
L 157.091833 73.84842 
L 157.156795 73.84842 
L 157.279685 74.998263 
L 157.34044 74.998263 
L 157.461495 73.84842 
L 157.522212 74.998263 
L 157.570211 73.84842 
L 157.824009 73.84842 
L 157.860465 74.998263 
L 157.932911 73.84842 
L 158.078483 73.84842 
L 158.176859 74.998263 
L 158.188828 73.84842 
L 158.22535 73.84842 
L 158.285918 74.998263 
L 158.334586 73.84842 
L 158.346563 73.84842 
L 158.468274 74.998263 
L 158.504321 74.998263 
L 158.6257 73.84842 
L 158.637716 73.84842 
L 158.759651 74.998263 
L 158.855823 73.84842 
L 158.86832 74.998263 
L 158.904857 74.998263 
L 159.002409 73.84842 
L 159.014387 74.998263 
L 159.545361 74.998263 
L 159.557951 73.84842 
L 159.656304 74.998263 
L 159.851638 74.998263 
L 159.962016 76.148107 
L 160.037118 74.998263 
L 160.06265 76.148107 
L 160.087284 76.148107 
L 160.099574 74.998263 
L 160.186534 76.148107 
L 160.808252 76.148107 
L 160.916307 74.998263 
L 161.03702 76.148107 
L 161.049389 76.148107 
L 161.171435 74.998263 
L 161.219505 74.998263 
L 161.256104 76.148107 
L 161.328095 74.998263 
L 161.69459 74.998263 
L 161.706569 76.148107 
L 161.80472 74.998263 
L 162.643793 74.998263 
L 162.708363 73.84842 
L 162.744406 74.998263 
L 162.756555 74.998263 
L 162.865698 73.84842 
L 162.915069 74.998263 
L 162.975905 73.84842 
L 163.487942 73.84842 
L 163.524914 72.698576 
L 163.598492 73.84842 
L 163.610471 73.84842 
L 163.732207 72.698576 
L 163.744225 72.698576 
L 163.855601 73.84842 
L 163.867738 73.84842 
L 163.989594 72.698576 
L 164.00176 72.698576 
L 164.038083 73.84842 
L 164.111638 72.698576 
L 164.136565 72.698576 
L 164.256896 71.548732 
L 164.342703 72.698576 
L 164.367144 71.548732 
L 164.452309 71.548732 
L 164.464517 72.698576 
L 164.561586 71.548732 
L 164.731979 71.548732 
L 164.85482 69.249045 
L 165.101023 69.249045 
L 165.222913 68.099201 
L 165.296074 68.099201 
L 165.407236 66.949357 
L 165.528676 68.099201 
L 165.649739 66.949357 
L 165.806708 66.949357 
L 165.819779 68.099201 
L 165.917122 66.949357 
L 165.977919 66.949357 
L 166.099246 68.099201 
L 166.123367 68.099201 
L 166.245424 66.949357 
L 166.271225 66.949357 
L 166.392083 68.099201 
L 166.416084 68.099201 
L 166.428178 66.949357 
L 166.52453 68.099201 
L 166.82845 68.099201 
L 166.840852 69.249045 
L 166.938236 68.099201 
L 167.060818 68.099201 
L 167.169502 69.249045 
L 167.290245 68.099201 
L 167.314399 68.099201 
L 167.437636 69.249045 
L 167.535703 69.249045 
L 167.547692 68.099201 
L 167.644751 69.249045 
L 167.717215 69.249045 
L 167.777644 68.099201 
L 167.826162 69.249045 
L 168.397169 69.249045 
L 168.518829 71.548732 
L 168.554957 71.548732 
L 168.675908 69.249045 
L 168.798315 71.548732 
L 168.859022 69.249045 
L 168.907599 71.548732 
L 168.919732 71.548732 
L 168.932779 69.249045 
L 169.029889 71.548732 
L 169.350584 71.548732 
L 169.375132 72.698576 
L 169.459481 71.548732 
L 169.569336 71.548732 
L 169.656011 72.698576 
L 169.668801 71.548732 
L 169.71868 71.548732 
L 169.841084 72.698576 
L 169.961935 71.548732 
L 170.072821 72.698576 
L 170.305702 72.698576 
L 170.317656 73.84842 
L 170.41485 72.698576 
L 170.438866 72.698576 
L 170.548594 73.84842 
L 170.560599 72.698576 
L 170.657953 73.84842 
L 170.694582 73.84842 
L 170.706559 72.698576 
L 170.791657 73.84842 
L 170.913887 74.998263 
L 171.011904 73.84842 
L 171.023875 74.998263 
L 171.035882 74.998263 
L 171.157415 73.84842 
L 171.559702 73.84842 
L 171.632665 72.698576 
L 171.669577 73.84842 
L 171.730248 73.84842 
L 171.742828 72.698576 
L 171.839376 73.84842 
L 172.081897 73.84842 
L 172.20336 74.998263 
L 172.245752 74.998263 
L 172.366418 73.84842 
L 172.378415 73.84842 
L 172.47596 74.998263 
L 172.487935 73.84842 
L 172.524457 73.84842 
L 172.611412 74.998263 
L 172.635365 73.84842 
L 172.734524 73.84842 
L 172.746862 74.998263 
L 172.844089 73.84842 
L 172.95354 73.84842 
L 173.051032 74.998263 
L 173.06302 73.84842 
L 173.24709 73.84842 
L 173.25908 74.998263 
L 173.35602 73.84842 
L 173.588056 73.84842 
L 173.600126 74.998263 
L 173.612155 73.84842 
L 172.929585 73.84842 
L 172.990652 73.84842 
L 173.113259 74.998263 
L 173.162034 74.998263 
L 173.283882 73.84842 
L 173.404951 74.998263 
L 173.429291 74.998263 
L 173.489733 73.84842 
L 173.537908 74.998263 
L 173.622766 74.998263 
L 173.662937 73.84842 
L 173.723593 74.998263 
L 174.200937 74.998263 
L 174.285853 73.84842 
L 174.310006 74.998263 
L 174.723744 74.998263 
L 174.844504 73.84842 
L 174.965279 74.998263 
L 174.97724 74.998263 
L 175.098203 73.84842 
L 175.219782 74.998263 
L 175.268399 74.998263 
L 175.379694 73.84842 
L 175.489698 74.998263 
L 175.513964 73.84842 
L 175.598819 74.998263 
L 176.084151 74.998263 
L 176.205564 76.148107 
L 176.32602 74.998263 
L 176.447418 76.148107 
L 176.471837 76.148107 
L 176.483846 74.998263 
L 176.580257 76.148107 
L 176.665033 76.148107 
L 176.688987 77.297951 
L 176.773024 76.148107 
L 177.211308 76.148107 
L 177.223282 74.998263 
L 177.31076 76.148107 
L 177.91105 76.148107 
L 177.971409 74.998263 
L 178.019783 76.148107 
L 178.043914 76.148107 
L 178.156162 74.998263 
L 178.193416 74.998263 
L 178.313353 76.148107 
L 178.457953 74.998263 
L 178.566964 76.148107 
L 178.688497 74.998263 
L 178.820789 74.998263 
L 178.832729 76.148107 
L 178.929324 74.998263 
L 179.39058 74.998263 
L 179.499115 73.84842 
L 179.610888 74.998263 
L 179.6469 74.998263 
L 179.720289 73.84842 
L 179.757042 74.998263 
L 179.797409 74.998263 
L 179.845474 73.84842 
L 179.893503 74.998263 
L 179.93325 74.998263 
L 180.054104 73.84842 
L 180.283323 73.84842 
L 180.405849 72.698576 
L 180.515809 73.84842 
L 180.63659 72.698576 
L 180.976048 72.698576 
L 181.098077 71.548732 
L 181.146616 71.548732 
L 181.256218 72.698576 
L 181.376948 71.548732 
L 181.474571 71.548732 
L 181.511282 72.698576 
L 181.583592 71.548732 
L 181.681189 71.548732 
L 181.766735 72.698576 
L 181.790757 71.548732 
L 181.815177 71.548732 
L 181.93793 72.698576 
L 182.047794 72.698576 
L 182.169233 71.548732 
L 182.291209 72.698576 
L 182.340547 72.698576 
L 182.389173 71.548732 
L 182.449792 72.698576 
L 182.754517 72.698576 
L 182.875119 73.84842 
L 183.045536 73.84842 
L 183.057899 72.698576 
L 183.154035 73.84842 
L 183.433321 73.84842 
L 183.518416 72.698576 
L 183.542755 73.84842 
L 183.750422 73.84842 
L 183.774612 72.698576 
L 183.859745 73.84842 
L 183.871871 73.84842 
L 183.884046 72.698576 
L 183.980973 73.84842 
L 185.101694 73.84842 
L 185.114295 74.998263 
L 185.207852 73.84842 
L 185.245759 73.84842 
L 185.351486 74.998263 
L 185.463923 73.84842 
L 185.584395 74.998263 
L 186.881471 74.998263 
L 187.003651 76.148107 
L 187.115184 74.998263 
L 187.225473 76.148107 
L 187.323767 74.998263 
L 187.335933 76.148107 
L 187.361158 76.148107 
L 187.446699 74.998263 
L 187.471467 76.148107 
L 187.545739 76.148107 
L 187.595737 74.998263 
L 187.64626 76.148107 
L 187.659019 76.148107 
L 187.78209 74.998263 
L 187.896322 76.148107 
L 187.945815 76.148107 
L 188.055705 74.998263 
L 188.177657 76.148107 
L 188.348401 76.148107 
L 188.360381 74.998263 
L 188.458689 76.148107 
L 189.043283 76.148107 
L 189.05529 77.297951 
L 189.153316 76.148107 
L 189.214894 76.148107 
L 189.337816 77.297951 
L 189.350187 77.297951 
L 189.460267 76.148107 
L 189.582516 77.297951 
L 189.619011 77.297951 
L 189.631644 76.148107 
L 189.729195 77.297951 
L 189.777531 77.297951 
L 189.900097 78.447794 
L 189.924486 77.297951 
L 190.008713 78.447794 
L 190.093013 78.447794 
L 190.214252 80.747482 
L 190.326225 80.747482 
L 190.446728 78.447794 
L 190.470725 78.447794 
L 190.524015 77.297951 
L 190.572958 78.447794 
L 190.585515 78.447794 
L 190.645675 77.297951 
L 190.694523 78.447794 
L 190.75553 78.447794 
L 190.864005 77.297951 
L 190.98475 78.447794 
L 191.105569 77.297951 
L 191.226694 78.447794 
L 191.238856 78.447794 
L 191.250852 77.297951 
L 191.347218 78.447794 
L 191.661139 78.447794 
L 191.746746 80.747482 
L 191.770955 78.447794 
L 191.819688 78.447794 
L 191.942233 80.747482 
L 192.015078 78.447794 
L 192.052387 80.747482 
L 192.439535 80.747482 
L 192.45151 81.897325 
L 192.548861 80.747482 
L 192.741975 80.747482 
L 192.754157 81.897325 
L 192.850747 80.747482 
L 192.874942 80.747482 
L 192.99626 81.897325 
L 193.21469 81.897325 
L 193.335395 80.747482 
L 193.347332 80.747482 
L 193.455872 81.897325 
L 193.491953 80.747482 
L 193.565472 81.897325 
L 193.745702 81.897325 
L 193.857085 83.047169 
L 194.3987 83.047169 
L 194.470683 81.897325 
L 194.506948 83.047169 
L 194.808795 83.047169 
L 194.82077 81.897325 
L 194.917587 83.047169 
L 195.3889 83.047169 
L 195.400914 81.897325 
L 195.497787 83.047169 
L 195.945065 83.047169 
L 196.04095 84.197013 
L 196.052914 83.047169 
L 196.064928 83.047169 
L 196.172972 84.197013 
L 196.270322 83.047169 
L 196.282718 84.197013 
L 196.318794 84.197013 
L 196.439186 83.047169 
L 196.463114 84.197013 
L 196.547412 83.047169 
L 196.595587 83.047169 
L 196.704669 84.197013 
L 196.789019 81.897325 
L 196.813123 83.047169 
L 196.837284 83.047169 
L 196.95791 81.897325 
L 196.982299 81.897325 
L 197.006286 83.047169 
L 197.078514 81.897325 
L 197.199038 80.747482 
L 197.308387 80.747482 
L 197.430267 78.447794 
L 197.551401 78.447794 
L 197.62669 80.747482 
L 197.650854 78.447794 
L 197.73531 78.447794 
L 197.831776 80.747482 
L 197.844245 78.447794 
L 197.91707 78.447794 
L 197.929032 80.747482 
L 414.609667 116.392636 
L 414.68302 116.392636 
L 414.695543 117.54248 
L 414.792521 116.392636 
L 414.804914 116.392636 
L 414.927442 117.54248 
L 414.939697 117.54248 
L 414.963609 116.392636 
L 415.050129 117.54248 
L 415.25626 117.54248 
L 415.340951 118.692324 
L 415.365694 117.54248 
L 415.426784 117.54248 
L 415.548406 118.692324 
L 415.669276 117.54248 
L 415.791369 118.692324 
L 415.913505 117.54248 
L 415.99747 118.692324 
L 416.022615 117.54248 
L 416.083773 117.54248 
L 416.095906 118.692324 
L 416.194227 117.54248 
L 416.36361 117.54248 
L 417.903856 119.842167 
L 418.016697 118.692324 
L 418.053572 118.692324 
L 418.101424 119.842167 
L 418.162001 118.692324 
L 418.234509 118.692324 
L 418.25008 119.842167 
L 418.335491 118.692324 
L 418.473075 118.692324 
L 418.509048 119.842167 
L 418.581848 118.692324 
L 418.67977 118.692324 
L 418.768811 119.842167 
L 418.78081 118.692324 
L 418.816783 118.692324 
L 418.901359 119.842167 
L 418.927522 118.692324 
L 418.964552 118.692324 
L 419.076573 119.842167 
L 419.088638 119.842167 
L 419.149746 118.692324 
L 419.198813 119.842167 
L 419.223449 119.842167 
L 419.321037 118.692324 
L 419.333715 119.842167 
L 419.419229 119.842167 
L 419.528498 118.692324 
L 419.650355 119.842167 
L 419.662365 119.842167 
L 419.772172 118.692324 
L 419.893554 119.842167 
L 419.954028 119.842167 
L 420.063034 118.692324 
L 420.111286 119.842167 
L 420.171534 118.692324 
L 420.18394 118.692324 
L 420.305542 119.842167 
L 420.402749 119.842167 
L 420.414729 118.692324 
L 420.507524 119.842167 
L 420.743258 119.842167 
L 420.852835 122.141855 
L 420.950248 119.842167 
L 420.962225 122.141855 
L 421.046232 119.842167 
L 421.070702 122.141855 
L 421.333756 122.141855 
L 421.34611 123.291699 
L 421.433079 122.141855 
L 421.664488 122.141855 
L 421.787542 119.842167 
L 422.065885 119.842167 
L 422.153661 122.141855 
L 422.16565 119.842167 
L 422.2026 119.842167 
L 422.325103 122.141855 
L 422.337755 122.141855 
L 422.38661 119.842167 
L 422.447485 122.141855 
L 422.607069 122.141855 
L 422.679409 119.842167 
L 422.716249 122.141855 
L 422.923519 122.141855 
L 422.99786 123.291699 
L 423.034255 122.141855 
L 423.167745 122.141855 
L 423.18065 123.291699 
L 423.278519 122.141855 
L 423.353093 122.141855 
L 423.465206 123.291699 
L 423.566181 123.291699 
L 423.579967 122.141855 
L 423.666725 123.291699 
L 423.851706 123.291699 
L 423.887635 122.141855 
L 423.953879 123.291699 
L 424.066872 123.291699 
L 424.190661 122.141855 
L 424.302137 123.291699 
L 424.498714 123.291699 
L 424.546931 122.141855 
L 424.607441 123.291699 
L 424.631875 123.291699 
L 424.728107 122.141855 
L 424.740088 123.291699 
L 424.752058 123.291699 
L 424.849881 122.141855 
L 424.861889 123.291699 
L 425.104492 123.291699 
L 425.116493 122.141855 
L 425.214377 123.291699 
L 425.607533 123.291699 
L 425.619705 122.141855 
L 425.718597 123.291699 
L 425.828438 123.291699 
L 425.9501 122.141855 
L 426.072183 123.291699 
L 426.32613 123.291699 
L 426.338102 124.441542 
L 426.425502 123.291699 
L 426.449563 123.291699 
L 426.47435 124.441542 
L 426.548526 123.291699 
L 426.560946 123.291699 
L 426.573138 124.441542 
L 426.661339 123.291699 
L 426.774855 123.291699 
L 426.813571 124.441542 
L 426.881371 123.291699 
L 426.90663 123.291699 
L 427.018084 124.441542 
L 427.031561 124.441542 
L 427.154266 123.291699 
L 427.205778 123.291699 
L 427.352479 124.441542 
L 427.47352 123.291699 
L 427.594381 124.441542 
L 427.683237 124.441542 
L 427.745688 123.291699 
L 427.782532 124.441542 
L 427.79468 124.441542 
L 427.905672 123.291699 
L 428.029006 124.441542 
L 428.22388 124.441542 
L 428.296825 123.291699 
L 428.333195 124.441542 
L 428.34524 124.441542 
L 428.458932 123.291699 
L 428.56091 123.291699 
L 428.572861 124.441542 
L 428.670767 123.291699 
L 428.935821 123.291699 
L 428.972243 122.141855 
L 429.045342 123.291699 
L 429.193968 123.291699 
L 429.316288 122.141855 
L 429.328328 122.141855 
L 429.42677 123.291699 
L 429.438735 122.141855 
L 429.475134 122.141855 
L 429.597234 123.291699 
L 429.772079 123.291699 
L 429.832394 122.141855 
L 429.880414 123.291699 
L 429.92939 123.291699 
L 430.014339 122.141855 
L 430.039456 123.291699 
L 430.063376 123.291699 
L 430.136174 122.141855 
L 430.17242 123.291699 
L 430.633096 123.291699 
L 430.729612 122.141855 
L 430.741608 123.291699 
L 430.766563 123.291699 
L 430.887179 122.141855 
L 430.899209 122.141855 
L 431.008278 123.291699 
L 431.117327 122.141855 
L 431.189397 123.291699 
L 431.225712 122.141855 
L 431.797283 122.141855 
L 431.908866 123.291699 
L 432.009091 122.141855 
L 432.009091 122.141855 
" style="fill:none;stroke:#1f77b4;stroke-linecap:square;stroke-width:1.5;"/>
   </g>
   <g id="line2d_30">
    <path clip-path="url(#pa6a4afe501)" d="M 72.190909 106.044043 
L 75.32667 106.044043 
L 75.448808 118.692324 
L 76.428271 118.692324 
L 76.549371 126.74123 
L 76.731898 126.74123 
L 76.828193 118.692324 
L 78.203687 118.692324 
L 78.314802 126.74123 
L 78.731855 126.74123 
L 78.845458 118.692324 
L 79.650116 118.692324 
L 79.771837 106.044043 
L 80.20811 106.044043 
L 80.328588 93.395762 
L 80.92684 93.395762 
L 81.038259 70.398889 
L 81.47588 70.398889 
L 81.598844 64.64967 
L 81.781722 64.64967 
L 81.903739 70.398889 
L 81.992819 70.398889 
L 82.104396 64.64967 
L 82.317165 64.64967 
L 82.441427 48.551858 
L 83.348876 48.551858 
L 83.470413 60.050295 
L 85.015599 60.050295 
L 85.138037 70.398889 
L 85.187294 70.398889 
L 85.299815 64.64967 
L 85.728771 64.64967 
L 85.851818 93.395762 
L 86.403016 93.395762 
L 86.524967 118.692324 
L 88.835702 118.692324 
L 88.956821 129.040917 
L 89.922607 129.040917 
L 90.043671 141.689198 
L 90.289669 141.689198 
L 90.410732 147.438416 
L 91.255856 147.438416 
L 91.377684 141.689198 
L 91.62145 141.689198 
L 91.743541 147.438416 
L 91.988833 147.438416 
L 92.108988 152.037791 
L 93.281429 152.037791 
L 93.403772 147.438416 
L 93.464837 147.438416 
L 93.587331 163.536228 
L 94.434572 163.536228 
L 94.557424 168.135603 
L 94.739311 168.135603 
L 94.860696 152.037791 
L 95.289457 152.037791 
L 95.411623 147.438416 
L 95.656272 147.438416 
L 95.777882 152.037791 
L 96.263659 152.037791 
L 96.376023 141.689198 
L 96.632106 141.689198 
L 96.752376 126.74123 
L 96.813217 126.74123 
L 96.925065 106.044043 
L 97.547848 106.044043 
L 98.079397 93.395762 
L 98.632167 93.395762 
L 98.752591 85.346857 
L 99.190897 85.346857 
L 99.311838 83.047169 
L 100.584717 83.047169 
L 100.708117 93.395762 
L 101.257669 93.395762 
L 101.369601 70.398889 
L 101.813429 70.398889 
L 101.926897 118.692324 
L 103.099486 118.692324 
L 103.220809 129.040917 
L 103.853766 129.040917 
L 103.975485 196.881695 
L 104.587602 196.881695 
L 104.70994 222.178256 
L 105.331275 222.178256 
L 105.453614 232.52685 
L 105.879678 232.52685 
L 106.002411 245.17513 
L 106.852668 245.17513 
L 106.964161 232.52685 
L 107.237205 232.52685 
L 107.359179 222.178256 
L 109.288569 222.178256 
L 109.402771 209.529976 
L 111.52575 209.529976 
L 111.647837 196.881695 
L 112.462753 196.881695 
L 112.577057 173.884821 
L 112.832665 173.884821 
L 112.955238 152.037791 
L 113.617088 152.037791 
L 113.737939 118.692324 
L 114.408749 118.692324 
L 114.447256 83.047169 
L 115.12363 93.395762 
L 115.37496 93.395762 
L 116.073897 118.692324 
L 116.256339 118.692324 
L 116.376884 129.040917 
L 117.049804 129.040917 
L 117.171361 141.689198 
L 119.106267 141.689198 
L 119.26771 152.037791 
L 120.469782 152.037791 
L 120.583333 141.689198 
L 121.187904 141.689198 
L 121.309042 152.037791 
L 121.791618 152.037791 
L 121.912576 163.536228 
L 123.472341 163.536228 
L 123.592219 141.689198 
L 124.044661 141.689198 
L 124.166248 152.037791 
L 124.994059 152.037791 
L 125.106449 147.438416 
L 125.401661 147.438416 
L 125.523957 152.037791 
L 125.808275 152.037791 
L 125.925403 168.135603 
L 126.133737 168.135603 
L 126.330048 152.037791 
L 126.977745 152.037791 
L 127.098719 168.135603 
L 127.527926 168.135603 
L 127.641611 163.536228 
L 128.873485 163.536228 
L 128.985577 186.533102 
L 129.67073 186.533102 
L 129.793949 152.037791 
L 130.163905 152.037791 
L 130.285324 129.040917 
L 131.555326 129.040917 
L 131.676203 83.047169 
L 133.653208 83.047169 
L 133.772222 93.395762 
L 134.562939 93.395762 
L 134.676486 106.044043 
L 135.026039 106.044043 
L 135.137712 118.692324 
L 135.997405 118.692324 
L 136.120084 141.689198 
L 137.157852 141.689198 
L 137.271045 152.037791 
L 139.226884 152.037791 
L 139.347515 163.536228 
L 141.755156 163.536228 
L 141.876555 168.135603 
L 141.998271 168.135603 
L 142.119015 152.037791 
L 144.356877 152.037791 
L 144.478158 163.536228 
L 145.910094 163.536228 
L 146.023253 168.135603 
L 146.152149 168.135603 
L 146.296137 163.536228 
L 146.918089 163.536228 
L 147.031501 152.037791 
L 147.990693 152.037791 
L 148.113588 141.689198 
L 149.154318 141.689198 
L 149.269377 147.438416 
L 149.629028 147.438416 
L 149.752002 129.040917 
L 149.872796 129.040917 
L 149.993831 126.74123 
L 150.311279 126.74123 
L 150.431834 129.040917 
L 150.553845 129.040917 
L 150.677121 126.74123 
L 151.057626 126.74123 
L 151.169745 129.040917 
L 151.469274 129.040917 
L 151.592078 126.74123 
L 151.714846 126.74123 
L 151.836637 129.040917 
L 152.193643 129.040917 
L 152.267284 126.74123 
L 153.1097 118.692324 
L 153.233192 141.689198 
L 154.028095 141.689198 
L 154.190776 129.040917 
L 154.761378 129.040917 
L 154.88363 141.689198 
L 155.430849 141.689198 
L 155.55323 129.040917 
L 157.751194 129.040917 
L 157.872817 126.74123 
L 157.993145 126.74123 
L 158.115228 129.040917 
L 158.237328 129.040917 
L 158.358889 126.74123 
L 158.662377 126.74123 
L 158.78364 141.689198 
L 159.827409 141.689198 
L 159.949705 147.438416 
L 160.075113 147.438416 
L 160.186534 141.689198 
L 160.504413 141.689198 
L 160.626871 147.438416 
L 160.747977 147.438416 
L 160.86828 163.536228 
L 161.243732 163.536228 
L 161.359776 168.135603 
L 161.670199 168.135603 
L 161.792492 163.536228 
L 162.400935 163.536228 
L 162.521645 168.135603 
L 162.828911 168.135603 
L 162.951596 152.037791 
L 163.267618 152.037791 
L 163.524914 147.438416 
L 163.780308 147.438416 
L 163.891909 141.689198 
L 164.026111 141.689198 
L 164.148517 126.74123 
L 164.26886 126.74123 
L 164.391117 118.692324 
L 164.695623 118.692324 
L 164.806756 106.044043 
L 165.613399 106.044043 
L 165.734278 93.395762 
L 165.856375 93.395762 
L 165.977919 85.346857 
L 166.584972 85.346857 
L 166.707261 93.395762 
L 167.011995 93.395762 
L 167.133289 106.044043 
L 169.079409 106.044043 
L 169.191825 118.692324 
L 169.816543 118.692324 
L 169.937135 141.689198 
L 173.283194 141.689198 
L 173.405651 152.037791 
L 173.612155 152.037791 
L 172.929585 152.037791 
L 173.320245 152.037791 
L 173.441276 141.689198 
L 174.006294 141.689198 
L 174.127992 152.037791 
L 175.354425 152.037791 
L 175.477174 163.536228 
L 177.065666 163.536228 
L 177.187284 168.135603 
L 177.493198 168.135603 
L 177.615323 163.536228 
L 177.740104 163.536228 
L 177.862759 168.135603 
L 178.168912 168.135603 
L 178.289226 163.536228 
L 178.893277 163.536228 
L 179.013363 152.037791 
L 179.133734 152.037791 
L 179.25694 147.438416 
L 180.271343 147.438416 
L 180.393868 93.395762 
L 180.696609 93.395762 
L 180.818606 85.346857 
L 181.183729 85.346857 
L 181.304377 83.047169 
L 181.425938 83.047169 
L 181.547477 64.64967 
L 181.669018 64.64967 
L 181.790757 70.398889 
L 184.693916 70.398889 
L 184.807401 106.044043 
L 186.784282 106.044043 
L 186.92992 129.040917 
L 191.238856 129.040917 
L 191.359563 118.692324 
L 192.149223 118.692324 
L 192.269809 129.040917 
L 195.509804 129.040917 
L 195.63011 141.689198 
L 195.750839 141.689198 
L 195.872287 147.438416 
L 196.234331 147.438416 
L 196.354689 129.040917 
L 197.39375 129.040917 
L 197.514579 126.74123 
L 197.575444 126.74123 
L 197.699262 118.692324 
L 197.929032 118.692324 
L 414.380542 173.884821 
L 414.854625 173.884821 
L 414.975976 168.135603 
L 416.36361 168.135603 
L 417.968399 188.832789 
L 418.461104 188.832789 
L 418.581848 222.178256 
L 419.917921 222.178256 
L 420.038576 232.52685 
L 421.701712 232.52685 
L 421.824578 230.227162 
L 423.034255 230.227162 
L 423.155357 222.178256 
L 423.465206 222.178256 
L 423.579967 209.529976 
L 427.00608 209.529976 
L 427.117649 222.178256 
L 429.21886 222.178256 
L 429.3403 209.529976 
L 429.89239 209.529976 
L 430.014339 188.832789 
L 431.700959 188.832789 
L 431.822657 209.529976 
L 432.009091 209.529976 
L 432.009091 209.529976 
" style="fill:none;stroke:#ff7f0e;stroke-linecap:square;stroke-width:1.5;"/>
   </g>
   <g id="patch_3">
    <path d="M 54.2 255.638708 
L 54.2 25.44 
" style="fill:none;stroke:#000000;stroke-linecap:square;stroke-linejoin:miter;stroke-width:0.8;"/>
   </g>
   <g id="patch_4">
    <path d="M 450 255.638708 
L 450 25.44 
" style="fill:none;stroke:#000000;stroke-linecap:square;stroke-linejoin:miter;stroke-width:0.8;"/>
   </g>
   <g id="patch_5">
    <path d="M 54.2 255.638708 
L 450 255.638708 
" style="fill:none;stroke:#000000;stroke-linecap:square;stroke-linejoin:miter;stroke-width:0.8;"/>
   </g>
   <g id="patch_6">
    <path d="M 54.2 25.44 
L 450 25.44 
" style="fill:none;stroke:#000000;stroke-linecap:square;stroke-linejoin:miter;stroke-width:0.8;"/>
   </g>
   <g id="text_17">
    <!-- Lake Shoecraft - Water and Air Temperature -->
    <g transform="translate(120.481563 19.44)scale(0.12 -0.12)">
     <defs>
      <path d="M 9.8125 72.90625 
L 19.671875 72.90625 
L 19.671875 8.296875 
L 55.171875 8.296875 
L 55.171875 0 
L 9.8125 0 
z
" id="DejaVuSans-76"/>
      <path d="M 9.078125 75.984375 
L 18.109375 75.984375 
L 18.109375 31.109375 
L 44.921875 54.6875 
L 56.390625 54.6875 
L 27.390625 29.109375 
L 57.625 0 
L 45.90625 0 
L 18.109375 26.703125 
L 18.109375 0 
L 9.078125 0 
z
" id="DejaVuSans-107"/>
      <path d="M 53.515625 70.515625 
L 53.515625 60.890625 
Q 47.90625 63.578125 42.921875 64.890625 
Q 37.9375 66.21875 33.296875 66.21875 
Q 25.25 66.21875 20.875 63.09375 
Q 16.5 59.96875 16.5 54.203125 
Q 16.5 49.359375 19.40625 46.890625 
Q 22.3125 44.4375 30.421875 42.921875 
L 36.375 41.703125 
Q 47.40625 39.59375 52.65625 34.296875 
Q 57.90625 29 57.90625 20.125 
Q 57.90625 9.515625 50.796875 4.046875 
Q 43.703125 -1.421875 29.984375 -1.421875 
Q 24.8125 -1.421875 18.96875 -0.25 
Q 13.140625 0.921875 6.890625 3.21875 
L 6.890625 13.375 
Q 12.890625 10.015625 18.65625 8.296875 
Q 24.421875 6.59375 29.984375 6.59375 
Q 38.421875 6.59375 43.015625 9.90625 
Q 47.609375 13.234375 47.609375 19.390625 
Q 47.609375 24.75 44.3125 27.78125 
Q 41.015625 30.8125 33.5 32.328125 
L 27.484375 33.5 
Q 16.453125 35.6875 11.515625 40.375 
Q 6.59375 45.0625 6.59375 53.421875 
Q 6.59375 63.09375 13.40625 68.65625 
Q 20.21875 74.21875 32.171875 74.21875 
Q 37.3125 74.21875 42.625 73.28125 
Q 47.953125 72.359375 53.515625 70.515625 
z
" id="DejaVuSans-83"/>
      <path d="M 54.890625 33.015625 
L 54.890625 0 
L 45.90625 0 
L 45.90625 32.71875 
Q 45.90625 40.484375 42.875 44.328125 
Q 39.84375 48.1875 33.796875 48.1875 
Q 26.515625 48.1875 22.3125 43.546875 
Q 18.109375 38.921875 18.109375 30.90625 
L 18.109375 0 
L 9.078125 0 
L 9.078125 75.984375 
L 18.109375 75.984375 
L 18.109375 46.1875 
Q 21.34375 51.125 25.703125 53.5625 
Q 30.078125 56 35.796875 56 
Q 45.21875 56 50.046875 50.171875 
Q 54.890625 44.34375 54.890625 33.015625 
z
" id="DejaVuSans-104"/>
      <path d="M 30.609375 48.390625 
Q 23.390625 48.390625 19.1875 42.75 
Q 14.984375 37.109375 14.984375 27.296875 
Q 14.984375 17.484375 19.15625 11.84375 
Q 23.34375 6.203125 30.609375 6.203125 
Q 37.796875 6.203125 41.984375 11.859375 
Q 46.1875 17.53125 46.1875 27.296875 
Q 46.1875 37.015625 41.984375 42.703125 
Q 37.796875 48.390625 30.609375 48.390625 
z
M 30.609375 56 
Q 42.328125 56 49.015625 48.375 
Q 55.71875 40.765625 55.71875 27.296875 
Q 55.71875 13.875 49.015625 6.21875 
Q 42.328125 -1.421875 30.609375 -1.421875 
Q 18.84375 -1.421875 12.171875 6.21875 
Q 5.515625 13.875 5.515625 27.296875 
Q 5.515625 40.765625 12.171875 48.375 
Q 18.84375 56 30.609375 56 
z
" id="DejaVuSans-111"/>
      <path d="M 48.78125 52.59375 
L 48.78125 44.1875 
Q 44.96875 46.296875 41.140625 47.34375 
Q 37.3125 48.390625 33.40625 48.390625 
Q 24.65625 48.390625 19.8125 42.84375 
Q 14.984375 37.3125 14.984375 27.296875 
Q 14.984375 17.28125 19.8125 11.734375 
Q 24.65625 6.203125 33.40625 6.203125 
Q 37.3125 6.203125 41.140625 7.25 
Q 44.96875 8.296875 48.78125 10.40625 
L 48.78125 2.09375 
Q 45.015625 0.34375 40.984375 -0.53125 
Q 36.96875 -1.421875 32.421875 -1.421875 
Q 20.0625 -1.421875 12.78125 6.34375 
Q 5.515625 14.109375 5.515625 27.296875 
Q 5.515625 40.671875 12.859375 48.328125 
Q 20.21875 56 33.015625 56 
Q 37.15625 56 41.109375 55.140625 
Q 45.0625 54.296875 48.78125 52.59375 
z
" id="DejaVuSans-99"/>
      <path d="M 37.109375 75.984375 
L 37.109375 68.5 
L 28.515625 68.5 
Q 23.6875 68.5 21.796875 66.546875 
Q 19.921875 64.59375 19.921875 59.515625 
L 19.921875 54.6875 
L 34.71875 54.6875 
L 34.71875 47.703125 
L 19.921875 47.703125 
L 19.921875 0 
L 10.890625 0 
L 10.890625 47.703125 
L 2.296875 47.703125 
L 2.296875 54.6875 
L 10.890625 54.6875 
L 10.890625 58.5 
Q 10.890625 67.625 15.140625 71.796875 
Q 19.390625 75.984375 28.609375 75.984375 
z
" id="DejaVuSans-102"/>
      <path d="M 3.328125 72.90625 
L 13.28125 72.90625 
L 28.609375 11.28125 
L 43.890625 72.90625 
L 54.984375 72.90625 
L 70.3125 11.28125 
L 85.59375 72.90625 
L 95.609375 72.90625 
L 77.296875 0 
L 64.890625 0 
L 49.515625 63.28125 
L 33.984375 0 
L 21.578125 0 
z
" id="DejaVuSans-87"/>
      <path d="M 54.890625 33.015625 
L 54.890625 0 
L 45.90625 0 
L 45.90625 32.71875 
Q 45.90625 40.484375 42.875 44.328125 
Q 39.84375 48.1875 33.796875 48.1875 
Q 26.515625 48.1875 22.3125 43.546875 
Q 18.109375 38.921875 18.109375 30.90625 
L 18.109375 0 
L 9.078125 0 
L 9.078125 54.6875 
L 18.109375 54.6875 
L 18.109375 46.1875 
Q 21.34375 51.125 25.703125 53.5625 
Q 30.078125 56 35.796875 56 
Q 45.21875 56 50.046875 50.171875 
Q 54.890625 44.34375 54.890625 33.015625 
z
" id="DejaVuSans-110"/>
      <path d="M 45.40625 46.390625 
L 45.40625 75.984375 
L 54.390625 75.984375 
L 54.390625 0 
L 45.40625 0 
L 45.40625 8.203125 
Q 42.578125 3.328125 38.25 0.953125 
Q 33.9375 -1.421875 27.875 -1.421875 
Q 17.96875 -1.421875 11.734375 6.484375 
Q 5.515625 14.40625 5.515625 27.296875 
Q 5.515625 40.1875 11.734375 48.09375 
Q 17.96875 56 27.875 56 
Q 33.9375 56 38.25 53.625 
Q 42.578125 51.265625 45.40625 46.390625 
z
M 14.796875 27.296875 
Q 14.796875 17.390625 18.875 11.75 
Q 22.953125 6.109375 30.078125 6.109375 
Q 37.203125 6.109375 41.296875 11.75 
Q 45.40625 17.390625 45.40625 27.296875 
Q 45.40625 37.203125 41.296875 42.84375 
Q 37.203125 48.484375 30.078125 48.484375 
Q 22.953125 48.484375 18.875 42.84375 
Q 14.796875 37.203125 14.796875 27.296875 
z
" id="DejaVuSans-100"/>
      <path d="M 34.1875 63.1875 
L 20.796875 26.90625 
L 47.609375 26.90625 
z
M 28.609375 72.90625 
L 39.796875 72.90625 
L 67.578125 0 
L 57.328125 0 
L 50.6875 18.703125 
L 17.828125 18.703125 
L 11.1875 0 
L 0.78125 0 
z
" id="DejaVuSans-65"/>
      <path d="M 9.421875 54.6875 
L 18.40625 54.6875 
L 18.40625 0 
L 9.421875 0 
z
M 9.421875 75.984375 
L 18.40625 75.984375 
L 18.40625 64.59375 
L 9.421875 64.59375 
z
" id="DejaVuSans-105"/>
     </defs>
     <use xlink:href="#DejaVuSans-76"/>
     <use x="55.712891" xlink:href="#DejaVuSans-97"/>
     <use x="116.992188" xlink:href="#DejaVuSans-107"/>
     <use x="171.277344" xlink:href="#DejaVuSans-101"/>
     <use x="232.800781" xlink:href="#DejaVuSans-32"/>
     <use x="264.587891" xlink:href="#DejaVuSans-83"/>
     <use x="328.064453" xlink:href="#DejaVuSans-104"/>
     <use x="391.443359" xlink:href="#DejaVuSans-111"/>
     <use x="452.625" xlink:href="#DejaVuSans-101"/>
     <use x="514.148438" xlink:href="#DejaVuSans-99"/>
     <use x="569.128906" xlink:href="#DejaVuSans-114"/>
     <use x="610.242188" xlink:href="#DejaVuSans-97"/>
     <use x="671.521484" xlink:href="#DejaVuSans-102"/>
     <use x="704.976562" xlink:href="#DejaVuSans-116"/>
     <use x="744.185547" xlink:href="#DejaVuSans-32"/>
     <use x="775.972656" xlink:href="#DejaVuSans-45"/>
     <use x="812.056641" xlink:href="#DejaVuSans-32"/>
     <use x="843.84375" xlink:href="#DejaVuSans-87"/>
     <use x="936.345703" xlink:href="#DejaVuSans-97"/>
     <use x="997.625" xlink:href="#DejaVuSans-116"/>
     <use x="1036.833984" xlink:href="#DejaVuSans-101"/>
     <use x="1098.357422" xlink:href="#DejaVuSans-114"/>
     <use x="1139.470703" xlink:href="#DejaVuSans-32"/>
     <use x="1171.257812" xlink:href="#DejaVuSans-97"/>
     <use x="1232.537109" xlink:href="#DejaVuSans-110"/>
     <use x="1295.916016" xlink:href="#DejaVuSans-100"/>
     <use x="1359.392578" xlink:href="#DejaVuSans-32"/>
     <use x="1391.179688" xlink:href="#DejaVuSans-65"/>
     <use x="1459.587891" xlink:href="#DejaVuSans-105"/>
     <use x="1487.371094" xlink:href="#DejaVuSans-114"/>
     <use x="1528.484375" xlink:href="#DejaVuSans-32"/>
     <use x="1560.271484" xlink:href="#DejaVuSans-84"/>
     <use x="1604.355469" xlink:href="#DejaVuSans-101"/>
     <use x="1665.878906" xlink:href="#DejaVuSans-109"/>
     <use x="1763.291016" xlink:href="#DejaVuSans-112"/>
     <use x="1826.767578" xlink:href="#DejaVuSans-101"/>
     <use x="1888.291016" xlink:href="#DejaVuSans-114"/>
     <use x="1929.404297" xlink:href="#DejaVuSans-97"/>
     <use x="1990.683594" xlink:href="#DejaVuSans-116"/>
     <use x="2029.892578" xlink:href="#DejaVuSans-117"/>
     <use x="2093.271484" xlink:href="#DejaVuSans-114"/>
     <use x="2132.134766" xlink:href="#DejaVuSans-101"/>
    </g>
   </g>
   <g id="legend_1">
    <g id="patch_7">
     <path d="M 357.890625 62.79625 
L 443 62.79625 
Q 445 62.79625 445 60.79625 
L 445 32.44 
Q 445 30.44 443 30.44 
L 357.890625 30.44 
Q 355.890625 30.44 355.890625 32.44 
L 355.890625 60.79625 
Q 355.890625 62.79625 357.890625 62.79625 
z
" style="fill:#ffffff;opacity:0.8;stroke:#cccccc;stroke-linejoin:miter;"/>
    </g>
    <g id="line2d_31">
     <path d="M 359.890625 38.538437 
L 379.890625 38.538437 
" style="fill:none;stroke:#1f77b4;stroke-linecap:square;stroke-width:1.5;"/>
    </g>
    <g id="line2d_32"/>
    <g id="text_18">
     <!-- Lake Temp -->
     <g transform="translate(387.890625 42.038437)scale(0.1 -0.1)">
      <use xlink:href="#DejaVuSans-76"/>
      <use x="55.712891" xlink:href="#DejaVuSans-97"/>
      <use x="116.992188" xlink:href="#DejaVuSans-107"/>
      <use x="171.277344" xlink:href="#DejaVuSans-101"/>
      <use x="232.800781" xlink:href="#DejaVuSans-32"/>
      <use x="264.587891" xlink:href="#DejaVuSans-84"/>
      <use x="308.671875" xlink:href="#DejaVuSans-101"/>
      <use x="370.195312" xlink:href="#DejaVuSans-109"/>
      <use x="467.607422" xlink:href="#DejaVuSans-112"/>
     </g>
    </g>
    <g id="line2d_33">
     <path d="M 359.890625 53.216562 
L 379.890625 53.216562 
" style="fill:none;stroke:#ff7f0e;stroke-linecap:square;stroke-width:1.5;"/>
    </g>
    <g id="line2d_34"/>
    <g id="text_19">
     <!-- Air Temp -->
     <g transform="translate(387.890625 56.716562)scale(0.1 -0.1)">
      <use xlink:href="#DejaVuSans-65"/>
      <use x="68.408203" xlink:href="#DejaVuSans-105"/>
      <use x="96.191406" xlink:href="#DejaVuSans-114"/>
      <use x="137.304688" xlink:href="#DejaVuSans-32"/>
      <use x="169.091797" xlink:href="#DejaVuSans-84"/>
      <use x="213.175781" xlink:href="#DejaVuSans-101"/>
      <use x="274.699219" xlink:href="#DejaVuSans-109"/>
      <use x="372.111328" xlink:href="#DejaVuSans-112"/>
     </g>
    </g>
   </g>
  </g>
 </g>
 <defs>
  <clipPath id="pa6a4afe501">
   <rect height="230.198708" width="395.8" x="54.2" y="25.44"/>
  </clipPath>
 </defs>
</svg>
