<?xml version="1.0" encoding="utf-8" standalone="no"?>
<!DOCTYPE svg PUBLIC "-//W3C//DTD SVG 1.1//EN"
  "http://www.w3.org/Graphics/SVG/1.1/DTD/svg11.dtd">
<!-- Created with matplotlib (https://matplotlib.org/) -->
<svg height="345.6pt" version="1.1" viewBox="0 0 460.8 345.6" width="460.8pt" xmlns="http://www.w3.org/2000/svg" xmlns:xlink="http://www.w3.org/1999/xlink">
 <metadata>
  <rdf:RDF xmlns:cc="http://creativecommons.org/ns#" xmlns:dc="http://purl.org/dc/elements/1.1/" xmlns:rdf="http://www.w3.org/1999/02/22-rdf-syntax-ns#">
   <cc:Work>
    <dc:type rdf:resource="http://purl.org/dc/dcmitype/StillImage"/>
    <dc:date>2024-09-07T19:58:45.360132</dc:date>
    <dc:format>image/svg+xml</dc:format>
    <dc:creator>
     <cc:Agent>
      <dc:title>Matplotlib v3.3.2, https://matplotlib.org/</dc:title>
     </cc:Agent>
    </dc:creator>
   </cc:Work>
  </rdf:RDF>
 </metadata>
 <defs>
  <style type="text/css">*{stroke-linecap:butt;stroke-linejoin:round;}</style>
 </defs>
 <g id="figure_1">
  <g id="patch_1">
   <path d="M 0 345.6 
L 460.8 345.6 
L 460.8 0 
L 0 0 
z
" style="fill:none;"/>
  </g>
  <g id="axes_1">
   <g id="patch_2">
    <path d="M 44.66 255.638708 
L 450 255.638708 
L 450 25.44 
L 44.66 25.44 
z
" style="fill:none;"/>
   </g>
   <g id="matplotlib.axis_1">
    <g id="xtick_1">
     <g id="line2d_1">
      <path clip-path="url(#pc8cd6b3e84)" d="M 109.674842 255.638708 
L 109.674842 25.44 
" style="fill:none;stroke:#b0b0b0;stroke-linecap:square;stroke-width:0.8;"/>
     </g>
     <g id="line2d_2">
      <defs>
       <path d="M 0 0 
L 0 3.5 
" id="m1a4ae59fe6" style="stroke:#000000;stroke-width:0.8;"/>
      </defs>
      <g>
       <use style="stroke:#000000;stroke-width:0.8;" x="109.674842" xlink:href="#m1a4ae59fe6" y="255.638708"/>
      </g>
     </g>
     <g id="text_1">
      <!-- 2024-08-29 -->
      <g transform="translate(102.329449 319.848351)rotate(-70)scale(0.1 -0.1)">
       <defs>
        <path d="M 19.1875 8.296875 
L 53.609375 8.296875 
L 53.609375 0 
L 7.328125 0 
L 7.328125 8.296875 
Q 12.9375 14.109375 22.625 23.890625 
Q 32.328125 33.6875 34.8125 36.53125 
Q 39.546875 41.84375 41.421875 45.53125 
Q 43.3125 49.21875 43.3125 52.78125 
Q 43.3125 58.59375 39.234375 62.25 
Q 35.15625 65.921875 28.609375 65.921875 
Q 23.96875 65.921875 18.8125 64.3125 
Q 13.671875 62.703125 7.8125 59.421875 
L 7.8125 69.390625 
Q 13.765625 71.78125 18.9375 73 
Q 24.125 74.21875 28.421875 74.21875 
Q 39.75 74.21875 46.484375 68.546875 
Q 53.21875 62.890625 53.21875 53.421875 
Q 53.21875 48.921875 51.53125 44.890625 
Q 49.859375 40.875 45.40625 35.40625 
Q 44.1875 33.984375 37.640625 27.21875 
Q 31.109375 20.453125 19.1875 8.296875 
z
" id="DejaVuSans-50"/>
        <path d="M 31.78125 66.40625 
Q 24.171875 66.40625 20.328125 58.90625 
Q 16.5 51.421875 16.5 36.375 
Q 16.5 21.390625 20.328125 13.890625 
Q 24.171875 6.390625 31.78125 6.390625 
Q 39.453125 6.390625 43.28125 13.890625 
Q 47.125 21.390625 47.125 36.375 
Q 47.125 51.421875 43.28125 58.90625 
Q 39.453125 66.40625 31.78125 66.40625 
z
M 31.78125 74.21875 
Q 44.046875 74.21875 50.515625 64.515625 
Q 56.984375 54.828125 56.984375 36.375 
Q 56.984375 17.96875 50.515625 8.265625 
Q 44.046875 -1.421875 31.78125 -1.421875 
Q 19.53125 -1.421875 13.0625 8.265625 
Q 6.59375 17.96875 6.59375 36.375 
Q 6.59375 54.828125 13.0625 64.515625 
Q 19.53125 74.21875 31.78125 74.21875 
z
" id="DejaVuSans-48"/>
        <path d="M 37.796875 64.3125 
L 12.890625 25.390625 
L 37.796875 25.390625 
z
M 35.203125 72.90625 
L 47.609375 72.90625 
L 47.609375 25.390625 
L 58.015625 25.390625 
L 58.015625 17.1875 
L 47.609375 17.1875 
L 47.609375 0 
L 37.796875 0 
L 37.796875 17.1875 
L 4.890625 17.1875 
L 4.890625 26.703125 
z
" id="DejaVuSans-52"/>
        <path d="M 4.890625 31.390625 
L 31.203125 31.390625 
L 31.203125 23.390625 
L 4.890625 23.390625 
z
" id="DejaVuSans-45"/>
        <path d="M 31.78125 34.625 
Q 24.75 34.625 20.71875 30.859375 
Q 16.703125 27.09375 16.703125 20.515625 
Q 16.703125 13.921875 20.71875 10.15625 
Q 24.75 6.390625 31.78125 6.390625 
Q 38.8125 6.390625 42.859375 10.171875 
Q 46.921875 13.96875 46.921875 20.515625 
Q 46.921875 27.09375 42.890625 30.859375 
Q 38.875 34.625 31.78125 34.625 
z
M 21.921875 38.8125 
Q 15.578125 40.375 12.03125 44.71875 
Q 8.5 49.078125 8.5 55.328125 
Q 8.5 64.0625 14.71875 69.140625 
Q 20.953125 74.21875 31.78125 74.21875 
Q 42.671875 74.21875 48.875 69.140625 
Q 55.078125 64.0625 55.078125 55.328125 
Q 55.078125 49.078125 51.53125 44.71875 
Q 48 40.375 41.703125 38.8125 
Q 48.828125 37.15625 52.796875 32.3125 
Q 56.78125 27.484375 56.78125 20.515625 
Q 56.78125 9.90625 50.3125 4.234375 
Q 43.84375 -1.421875 31.78125 -1.421875 
Q 19.734375 -1.421875 13.25 4.234375 
Q 6.78125 9.90625 6.78125 20.515625 
Q 6.78125 27.484375 10.78125 32.3125 
Q 14.796875 37.15625 21.921875 38.8125 
z
M 18.3125 54.390625 
Q 18.3125 48.734375 21.84375 45.5625 
Q 25.390625 42.390625 31.78125 42.390625 
Q 38.140625 42.390625 41.71875 45.5625 
Q 45.3125 48.734375 45.3125 54.390625 
Q 45.3125 60.0625 41.71875 63.234375 
Q 38.140625 66.40625 31.78125 66.40625 
Q 25.390625 66.40625 21.84375 63.234375 
Q 18.3125 60.0625 18.3125 54.390625 
z
" id="DejaVuSans-56"/>
        <path d="M 10.984375 1.515625 
L 10.984375 10.5 
Q 14.703125 8.734375 18.5 7.8125 
Q 22.3125 6.890625 25.984375 6.890625 
Q 35.75 6.890625 40.890625 13.453125 
Q 46.046875 20.015625 46.78125 33.40625 
Q 43.953125 29.203125 39.59375 26.953125 
Q 35.25 24.703125 29.984375 24.703125 
Q 19.046875 24.703125 12.671875 31.3125 
Q 6.296875 37.9375 6.296875 49.421875 
Q 6.296875 60.640625 12.9375 67.421875 
Q 19.578125 74.21875 30.609375 74.21875 
Q 43.265625 74.21875 49.921875 64.515625 
Q 56.59375 54.828125 56.59375 36.375 
Q 56.59375 19.140625 48.40625 8.859375 
Q 40.234375 -1.421875 26.421875 -1.421875 
Q 22.703125 -1.421875 18.890625 -0.6875 
Q 15.09375 0.046875 10.984375 1.515625 
z
M 30.609375 32.421875 
Q 37.25 32.421875 41.125 36.953125 
Q 45.015625 41.5 45.015625 49.421875 
Q 45.015625 57.28125 41.125 61.84375 
Q 37.25 66.40625 30.609375 66.40625 
Q 23.96875 66.40625 20.09375 61.84375 
Q 16.21875 57.28125 16.21875 49.421875 
Q 16.21875 41.5 20.09375 36.953125 
Q 23.96875 32.421875 30.609375 32.421875 
z
" id="DejaVuSans-57"/>
       </defs>
       <use xlink:href="#DejaVuSans-50"/>
       <use x="63.623047" xlink:href="#DejaVuSans-48"/>
       <use x="127.246094" xlink:href="#DejaVuSans-50"/>
       <use x="190.869141" xlink:href="#DejaVuSans-52"/>
       <use x="254.492188" xlink:href="#DejaVuSans-45"/>
       <use x="290.576172" xlink:href="#DejaVuSans-48"/>
       <use x="354.199219" xlink:href="#DejaVuSans-56"/>
       <use x="417.822266" xlink:href="#DejaVuSans-45"/>
       <use x="453.90625" xlink:href="#DejaVuSans-50"/>
       <use x="517.529297" xlink:href="#DejaVuSans-57"/>
      </g>
     </g>
    </g>
    <g id="xtick_2">
     <g id="line2d_3">
      <path clip-path="url(#pc8cd6b3e84)" d="M 175.153372 255.638708 
L 175.153372 25.44 
" style="fill:none;stroke:#b0b0b0;stroke-linecap:square;stroke-width:0.8;"/>
     </g>
     <g id="line2d_4">
      <g>
       <use style="stroke:#000000;stroke-width:0.8;" x="175.153372" xlink:href="#m1a4ae59fe6" y="255.638708"/>
      </g>
     </g>
     <g id="text_2">
      <!-- 2024-08-31 -->
      <g transform="translate(167.807979 319.848351)rotate(-70)scale(0.1 -0.1)">
       <defs>
        <path d="M 40.578125 39.3125 
Q 47.65625 37.796875 51.625 33 
Q 55.609375 28.21875 55.609375 21.1875 
Q 55.609375 10.40625 48.1875 4.484375 
Q 40.765625 -1.421875 27.09375 -1.421875 
Q 22.515625 -1.421875 17.65625 -0.515625 
Q 12.796875 0.390625 7.625 2.203125 
L 7.625 11.71875 
Q 11.71875 9.328125 16.59375 8.109375 
Q 21.484375 6.890625 26.8125 6.890625 
Q 36.078125 6.890625 40.9375 10.546875 
Q 45.796875 14.203125 45.796875 21.1875 
Q 45.796875 27.640625 41.28125 31.265625 
Q 36.765625 34.90625 28.71875 34.90625 
L 20.21875 34.90625 
L 20.21875 43.015625 
L 29.109375 43.015625 
Q 36.375 43.015625 40.234375 45.921875 
Q 44.09375 48.828125 44.09375 54.296875 
Q 44.09375 59.90625 40.109375 62.90625 
Q 36.140625 65.921875 28.71875 65.921875 
Q 24.65625 65.921875 20.015625 65.03125 
Q 15.375 64.15625 9.8125 62.3125 
L 9.8125 71.09375 
Q 15.4375 72.65625 20.34375 73.4375 
Q 25.25 74.21875 29.59375 74.21875 
Q 40.828125 74.21875 47.359375 69.109375 
Q 53.90625 64.015625 53.90625 55.328125 
Q 53.90625 49.265625 50.4375 45.09375 
Q 46.96875 40.921875 40.578125 39.3125 
z
" id="DejaVuSans-51"/>
        <path d="M 12.40625 8.296875 
L 28.515625 8.296875 
L 28.515625 63.921875 
L 10.984375 60.40625 
L 10.984375 69.390625 
L 28.421875 72.90625 
L 38.28125 72.90625 
L 38.28125 8.296875 
L 54.390625 8.296875 
L 54.390625 0 
L 12.40625 0 
z
" id="DejaVuSans-49"/>
       </defs>
       <use xlink:href="#DejaVuSans-50"/>
       <use x="63.623047" xlink:href="#DejaVuSans-48"/>
       <use x="127.246094" xlink:href="#DejaVuSans-50"/>
       <use x="190.869141" xlink:href="#DejaVuSans-52"/>
       <use x="254.492188" xlink:href="#DejaVuSans-45"/>
       <use x="290.576172" xlink:href="#DejaVuSans-48"/>
       <use x="354.199219" xlink:href="#DejaVuSans-56"/>
       <use x="417.822266" xlink:href="#DejaVuSans-45"/>
       <use x="453.90625" xlink:href="#DejaVuSans-51"/>
       <use x="517.529297" xlink:href="#DejaVuSans-49"/>
      </g>
     </g>
    </g>
    <g id="xtick_3">
     <g id="line2d_5">
      <path clip-path="url(#pc8cd6b3e84)" d="M 207.892637 255.638708 
L 207.892637 25.44 
" style="fill:none;stroke:#b0b0b0;stroke-linecap:square;stroke-width:0.8;"/>
     </g>
     <g id="line2d_6">
      <g>
       <use style="stroke:#000000;stroke-width:0.8;" x="207.892637" xlink:href="#m1a4ae59fe6" y="255.638708"/>
      </g>
     </g>
     <g id="text_3">
      <!-- 2024-09-01 -->
      <g transform="translate(200.547244 319.848351)rotate(-70)scale(0.1 -0.1)">
       <use xlink:href="#DejaVuSans-50"/>
       <use x="63.623047" xlink:href="#DejaVuSans-48"/>
       <use x="127.246094" xlink:href="#DejaVuSans-50"/>
       <use x="190.869141" xlink:href="#DejaVuSans-52"/>
       <use x="254.492188" xlink:href="#DejaVuSans-45"/>
       <use x="290.576172" xlink:href="#DejaVuSans-48"/>
       <use x="354.199219" xlink:href="#DejaVuSans-57"/>
       <use x="417.822266" xlink:href="#DejaVuSans-45"/>
       <use x="453.90625" xlink:href="#DejaVuSans-48"/>
       <use x="517.529297" xlink:href="#DejaVuSans-49"/>
      </g>
     </g>
    </g>
    <g id="xtick_4">
     <g id="line2d_7">
      <path clip-path="url(#pc8cd6b3e84)" d="M 273.371167 255.638708 
L 273.371167 25.44 
" style="fill:none;stroke:#b0b0b0;stroke-linecap:square;stroke-width:0.8;"/>
     </g>
     <g id="line2d_8">
      <g>
       <use style="stroke:#000000;stroke-width:0.8;" x="273.371167" xlink:href="#m1a4ae59fe6" y="255.638708"/>
      </g>
     </g>
     <g id="text_4">
      <!-- 2024-09-03 -->
      <g transform="translate(266.025774 319.848351)rotate(-70)scale(0.1 -0.1)">
       <use xlink:href="#DejaVuSans-50"/>
       <use x="63.623047" xlink:href="#DejaVuSans-48"/>
       <use x="127.246094" xlink:href="#DejaVuSans-50"/>
       <use x="190.869141" xlink:href="#DejaVuSans-52"/>
       <use x="254.492188" xlink:href="#DejaVuSans-45"/>
       <use x="290.576172" xlink:href="#DejaVuSans-48"/>
       <use x="354.199219" xlink:href="#DejaVuSans-57"/>
       <use x="417.822266" xlink:href="#DejaVuSans-45"/>
       <use x="453.90625" xlink:href="#DejaVuSans-48"/>
       <use x="517.529297" xlink:href="#DejaVuSans-51"/>
      </g>
     </g>
    </g>
    <g id="xtick_5">
     <g id="line2d_9">
      <path clip-path="url(#pc8cd6b3e84)" d="M 338.849697 255.638708 
L 338.849697 25.44 
" style="fill:none;stroke:#b0b0b0;stroke-linecap:square;stroke-width:0.8;"/>
     </g>
     <g id="line2d_10">
      <g>
       <use style="stroke:#000000;stroke-width:0.8;" x="338.849697" xlink:href="#m1a4ae59fe6" y="255.638708"/>
      </g>
     </g>
     <g id="text_5">
      <!-- 2024-09-05 -->
      <g transform="translate(331.504304 319.848351)rotate(-70)scale(0.1 -0.1)">
       <defs>
        <path d="M 10.796875 72.90625 
L 49.515625 72.90625 
L 49.515625 64.59375 
L 19.828125 64.59375 
L 19.828125 46.734375 
Q 21.96875 47.46875 24.109375 47.828125 
Q 26.265625 48.1875 28.421875 48.1875 
Q 40.625 48.1875 47.75 41.5 
Q 54.890625 34.8125 54.890625 23.390625 
Q 54.890625 11.625 47.5625 5.09375 
Q 40.234375 -1.421875 26.90625 -1.421875 
Q 22.3125 -1.421875 17.546875 -0.640625 
Q 12.796875 0.140625 7.71875 1.703125 
L 7.71875 11.625 
Q 12.109375 9.234375 16.796875 8.0625 
Q 21.484375 6.890625 26.703125 6.890625 
Q 35.15625 6.890625 40.078125 11.328125 
Q 45.015625 15.765625 45.015625 23.390625 
Q 45.015625 31 40.078125 35.4375 
Q 35.15625 39.890625 26.703125 39.890625 
Q 22.75 39.890625 18.8125 39.015625 
Q 14.890625 38.140625 10.796875 36.28125 
z
" id="DejaVuSans-53"/>
       </defs>
       <use xlink:href="#DejaVuSans-50"/>
       <use x="63.623047" xlink:href="#DejaVuSans-48"/>
       <use x="127.246094" xlink:href="#DejaVuSans-50"/>
       <use x="190.869141" xlink:href="#DejaVuSans-52"/>
       <use x="254.492188" xlink:href="#DejaVuSans-45"/>
       <use x="290.576172" xlink:href="#DejaVuSans-48"/>
       <use x="354.199219" xlink:href="#DejaVuSans-57"/>
       <use x="417.822266" xlink:href="#DejaVuSans-45"/>
       <use x="453.90625" xlink:href="#DejaVuSans-48"/>
       <use x="517.529297" xlink:href="#DejaVuSans-53"/>
      </g>
     </g>
    </g>
    <g id="xtick_6">
     <g id="line2d_11">
      <path clip-path="url(#pc8cd6b3e84)" d="M 404.328227 255.638708 
L 404.328227 25.44 
" style="fill:none;stroke:#b0b0b0;stroke-linecap:square;stroke-width:0.8;"/>
     </g>
     <g id="line2d_12">
      <g>
       <use style="stroke:#000000;stroke-width:0.8;" x="404.328227" xlink:href="#m1a4ae59fe6" y="255.638708"/>
      </g>
     </g>
     <g id="text_6">
      <!-- 2024-09-07 -->
      <g transform="translate(396.982835 319.848351)rotate(-70)scale(0.1 -0.1)">
       <defs>
        <path d="M 8.203125 72.90625 
L 55.078125 72.90625 
L 55.078125 68.703125 
L 28.609375 0 
L 18.3125 0 
L 43.21875 64.59375 
L 8.203125 64.59375 
z
" id="DejaVuSans-55"/>
       </defs>
       <use xlink:href="#DejaVuSans-50"/>
       <use x="63.623047" xlink:href="#DejaVuSans-48"/>
       <use x="127.246094" xlink:href="#DejaVuSans-50"/>
       <use x="190.869141" xlink:href="#DejaVuSans-52"/>
       <use x="254.492188" xlink:href="#DejaVuSans-45"/>
       <use x="290.576172" xlink:href="#DejaVuSans-48"/>
       <use x="354.199219" xlink:href="#DejaVuSans-57"/>
       <use x="417.822266" xlink:href="#DejaVuSans-45"/>
       <use x="453.90625" xlink:href="#DejaVuSans-48"/>
       <use x="517.529297" xlink:href="#DejaVuSans-55"/>
      </g>
     </g>
    </g>
    <g id="text_7">
     <!-- Date -->
     <g transform="translate(235.379219 332.158083)scale(0.1 -0.1)">
      <defs>
       <path d="M 19.671875 64.796875 
L 19.671875 8.109375 
L 31.59375 8.109375 
Q 46.6875 8.109375 53.6875 14.9375 
Q 60.6875 21.78125 60.6875 36.53125 
Q 60.6875 51.171875 53.6875 57.984375 
Q 46.6875 64.796875 31.59375 64.796875 
z
M 9.8125 72.90625 
L 30.078125 72.90625 
Q 51.265625 72.90625 61.171875 64.09375 
Q 71.09375 55.28125 71.09375 36.53125 
Q 71.09375 17.671875 61.125 8.828125 
Q 51.171875 0 30.078125 0 
L 9.8125 0 
z
" id="DejaVuSans-68"/>
       <path d="M 34.28125 27.484375 
Q 23.390625 27.484375 19.1875 25 
Q 14.984375 22.515625 14.984375 16.5 
Q 14.984375 11.71875 18.140625 8.90625 
Q 21.296875 6.109375 26.703125 6.109375 
Q 34.1875 6.109375 38.703125 11.40625 
Q 43.21875 16.703125 43.21875 25.484375 
L 43.21875 27.484375 
z
M 52.203125 31.203125 
L 52.203125 0 
L 43.21875 0 
L 43.21875 8.296875 
Q 40.140625 3.328125 35.546875 0.953125 
Q 30.953125 -1.421875 24.3125 -1.421875 
Q 15.921875 -1.421875 10.953125 3.296875 
Q 6 8.015625 6 15.921875 
Q 6 25.140625 12.171875 29.828125 
Q 18.359375 34.515625 30.609375 34.515625 
L 43.21875 34.515625 
L 43.21875 35.40625 
Q 43.21875 41.609375 39.140625 45 
Q 35.0625 48.390625 27.6875 48.390625 
Q 23 48.390625 18.546875 47.265625 
Q 14.109375 46.140625 10.015625 43.890625 
L 10.015625 52.203125 
Q 14.9375 54.109375 19.578125 55.046875 
Q 24.21875 56 28.609375 56 
Q 40.484375 56 46.34375 49.84375 
Q 52.203125 43.703125 52.203125 31.203125 
z
" id="DejaVuSans-97"/>
       <path d="M 18.3125 70.21875 
L 18.3125 54.6875 
L 36.8125 54.6875 
L 36.8125 47.703125 
L 18.3125 47.703125 
L 18.3125 18.015625 
Q 18.3125 11.328125 20.140625 9.421875 
Q 21.96875 7.515625 27.59375 7.515625 
L 36.8125 7.515625 
L 36.8125 0 
L 27.59375 0 
Q 17.1875 0 13.234375 3.875 
Q 9.28125 7.765625 9.28125 18.015625 
L 9.28125 47.703125 
L 2.6875 47.703125 
L 2.6875 54.6875 
L 9.28125 54.6875 
L 9.28125 70.21875 
z
" id="DejaVuSans-116"/>
       <path d="M 56.203125 29.59375 
L 56.203125 25.203125 
L 14.890625 25.203125 
Q 15.484375 15.921875 20.484375 11.0625 
Q 25.484375 6.203125 34.421875 6.203125 
Q 39.59375 6.203125 44.453125 7.46875 
Q 49.3125 8.734375 54.109375 11.28125 
L 54.109375 2.78125 
Q 49.265625 0.734375 44.1875 -0.34375 
Q 39.109375 -1.421875 33.890625 -1.421875 
Q 20.796875 -1.421875 13.15625 6.1875 
Q 5.515625 13.8125 5.515625 26.8125 
Q 5.515625 40.234375 12.765625 48.109375 
Q 20.015625 56 32.328125 56 
Q 43.359375 56 49.78125 48.890625 
Q 56.203125 41.796875 56.203125 29.59375 
z
M 47.21875 32.234375 
Q 47.125 39.59375 43.09375 43.984375 
Q 39.0625 48.390625 32.421875 48.390625 
Q 24.90625 48.390625 20.390625 44.140625 
Q 15.875 39.890625 15.1875 32.171875 
z
" id="DejaVuSans-101"/>
      </defs>
      <use xlink:href="#DejaVuSans-68"/>
      <use x="77.001953" xlink:href="#DejaVuSans-97"/>
      <use x="138.28125" xlink:href="#DejaVuSans-116"/>
      <use x="177.490234" xlink:href="#DejaVuSans-101"/>
     </g>
    </g>
   </g>
   <g id="matplotlib.axis_2">
    <g id="ytick_1">
     <g id="line2d_13">
      <path clip-path="url(#pc8cd6b3e84)" d="M 44.66 226.204338 
L 450 226.204338 
" style="fill:none;stroke:#b0b0b0;stroke-linecap:square;stroke-width:0.8;"/>
     </g>
     <g id="line2d_14">
      <defs>
       <path d="M 0 0 
L -3.5 0 
" id="m651bc18d9a" style="stroke:#000000;stroke-width:0.8;"/>
      </defs>
      <g>
       <use style="stroke:#000000;stroke-width:0.8;" x="44.66" xlink:href="#m651bc18d9a" y="226.204338"/>
      </g>
     </g>
     <g id="text_8">
      <!-- 55 -->
      <g transform="translate(24.935 230.003557)scale(0.1 -0.1)">
       <use xlink:href="#DejaVuSans-53"/>
       <use x="63.623047" xlink:href="#DejaVuSans-53"/>
      </g>
     </g>
    </g>
    <g id="ytick_2">
     <g id="line2d_15">
      <path clip-path="url(#pc8cd6b3e84)" d="M 44.66 196.562475 
L 450 196.562475 
" style="fill:none;stroke:#b0b0b0;stroke-linecap:square;stroke-width:0.8;"/>
     </g>
     <g id="line2d_16">
      <g>
       <use style="stroke:#000000;stroke-width:0.8;" x="44.66" xlink:href="#m651bc18d9a" y="196.562475"/>
      </g>
     </g>
     <g id="text_9">
      <!-- 60 -->
      <g transform="translate(24.935 200.361694)scale(0.1 -0.1)">
       <defs>
        <path d="M 33.015625 40.375 
Q 26.375 40.375 22.484375 35.828125 
Q 18.609375 31.296875 18.609375 23.390625 
Q 18.609375 15.53125 22.484375 10.953125 
Q 26.375 6.390625 33.015625 6.390625 
Q 39.65625 6.390625 43.53125 10.953125 
Q 47.40625 15.53125 47.40625 23.390625 
Q 47.40625 31.296875 43.53125 35.828125 
Q 39.65625 40.375 33.015625 40.375 
z
M 52.59375 71.296875 
L 52.59375 62.3125 
Q 48.875 64.0625 45.09375 64.984375 
Q 41.3125 65.921875 37.59375 65.921875 
Q 27.828125 65.921875 22.671875 59.328125 
Q 17.53125 52.734375 16.796875 39.40625 
Q 19.671875 43.65625 24.015625 45.921875 
Q 28.375 48.1875 33.59375 48.1875 
Q 44.578125 48.1875 50.953125 41.515625 
Q 57.328125 34.859375 57.328125 23.390625 
Q 57.328125 12.15625 50.6875 5.359375 
Q 44.046875 -1.421875 33.015625 -1.421875 
Q 20.359375 -1.421875 13.671875 8.265625 
Q 6.984375 17.96875 6.984375 36.375 
Q 6.984375 53.65625 15.1875 63.9375 
Q 23.390625 74.21875 37.203125 74.21875 
Q 40.921875 74.21875 44.703125 73.484375 
Q 48.484375 72.75 52.59375 71.296875 
z
" id="DejaVuSans-54"/>
       </defs>
       <use xlink:href="#DejaVuSans-54"/>
       <use x="63.623047" xlink:href="#DejaVuSans-48"/>
      </g>
     </g>
    </g>
    <g id="ytick_3">
     <g id="line2d_17">
      <path clip-path="url(#pc8cd6b3e84)" d="M 44.66 166.920612 
L 450 166.920612 
" style="fill:none;stroke:#b0b0b0;stroke-linecap:square;stroke-width:0.8;"/>
     </g>
     <g id="line2d_18">
      <g>
       <use style="stroke:#000000;stroke-width:0.8;" x="44.66" xlink:href="#m651bc18d9a" y="166.920612"/>
      </g>
     </g>
     <g id="text_10">
      <!-- 65 -->
      <g transform="translate(24.935 170.719831)scale(0.1 -0.1)">
       <use xlink:href="#DejaVuSans-54"/>
       <use x="63.623047" xlink:href="#DejaVuSans-53"/>
      </g>
     </g>
    </g>
    <g id="ytick_4">
     <g id="line2d_19">
      <path clip-path="url(#pc8cd6b3e84)" d="M 44.66 137.278749 
L 450 137.278749 
" style="fill:none;stroke:#b0b0b0;stroke-linecap:square;stroke-width:0.8;"/>
     </g>
     <g id="line2d_20">
      <g>
       <use style="stroke:#000000;stroke-width:0.8;" x="44.66" xlink:href="#m651bc18d9a" y="137.278749"/>
      </g>
     </g>
     <g id="text_11">
      <!-- 70 -->
      <g transform="translate(24.935 141.077968)scale(0.1 -0.1)">
       <use xlink:href="#DejaVuSans-55"/>
       <use x="63.623047" xlink:href="#DejaVuSans-48"/>
      </g>
     </g>
    </g>
    <g id="ytick_5">
     <g id="line2d_21">
      <path clip-path="url(#pc8cd6b3e84)" d="M 44.66 107.636886 
L 450 107.636886 
" style="fill:none;stroke:#b0b0b0;stroke-linecap:square;stroke-width:0.8;"/>
     </g>
     <g id="line2d_22">
      <g>
       <use style="stroke:#000000;stroke-width:0.8;" x="44.66" xlink:href="#m651bc18d9a" y="107.636886"/>
      </g>
     </g>
     <g id="text_12">
      <!-- 75 -->
      <g transform="translate(24.935 111.436105)scale(0.1 -0.1)">
       <use xlink:href="#DejaVuSans-55"/>
       <use x="63.623047" xlink:href="#DejaVuSans-53"/>
      </g>
     </g>
    </g>
    <g id="ytick_6">
     <g id="line2d_23">
      <path clip-path="url(#pc8cd6b3e84)" d="M 44.66 77.995023 
L 450 77.995023 
" style="fill:none;stroke:#b0b0b0;stroke-linecap:square;stroke-width:0.8;"/>
     </g>
     <g id="line2d_24">
      <g>
       <use style="stroke:#000000;stroke-width:0.8;" x="44.66" xlink:href="#m651bc18d9a" y="77.995023"/>
      </g>
     </g>
     <g id="text_13">
      <!-- 80 -->
      <g transform="translate(24.935 81.794242)scale(0.1 -0.1)">
       <use xlink:href="#DejaVuSans-56"/>
       <use x="63.623047" xlink:href="#DejaVuSans-48"/>
      </g>
     </g>
    </g>
    <g id="ytick_7">
     <g id="line2d_25">
      <path clip-path="url(#pc8cd6b3e84)" d="M 44.66 48.35316 
L 450 48.35316 
" style="fill:none;stroke:#b0b0b0;stroke-linecap:square;stroke-width:0.8;"/>
     </g>
     <g id="line2d_26">
      <g>
       <use style="stroke:#000000;stroke-width:0.8;" x="44.66" xlink:href="#m651bc18d9a" y="48.35316"/>
      </g>
     </g>
     <g id="text_14">
      <!-- 85 -->
      <g transform="translate(24.935 52.152379)scale(0.1 -0.1)">
       <use xlink:href="#DejaVuSans-56"/>
       <use x="63.623047" xlink:href="#DejaVuSans-53"/>
      </g>
     </g>
    </g>
    <g id="text_15">
     <!-- Temperature [F] -->
     <g transform="translate(18.855313 180.575291)rotate(-90)scale(0.1 -0.1)">
      <defs>
       <path d="M -0.296875 72.90625 
L 61.375 72.90625 
L 61.375 64.59375 
L 35.5 64.59375 
L 35.5 0 
L 25.59375 0 
L 25.59375 64.59375 
L -0.296875 64.59375 
z
" id="DejaVuSans-84"/>
       <path d="M 52 44.1875 
Q 55.375 50.25 60.0625 53.125 
Q 64.75 56 71.09375 56 
Q 79.640625 56 84.28125 50.015625 
Q 88.921875 44.046875 88.921875 33.015625 
L 88.921875 0 
L 79.890625 0 
L 79.890625 32.71875 
Q 79.890625 40.578125 77.09375 44.375 
Q 74.3125 48.1875 68.609375 48.1875 
Q 61.625 48.1875 57.5625 43.546875 
Q 53.515625 38.921875 53.515625 30.90625 
L 53.515625 0 
L 44.484375 0 
L 44.484375 32.71875 
Q 44.484375 40.625 41.703125 44.40625 
Q 38.921875 48.1875 33.109375 48.1875 
Q 26.21875 48.1875 22.15625 43.53125 
Q 18.109375 38.875 18.109375 30.90625 
L 18.109375 0 
L 9.078125 0 
L 9.078125 54.6875 
L 18.109375 54.6875 
L 18.109375 46.1875 
Q 21.1875 51.21875 25.484375 53.609375 
Q 29.78125 56 35.6875 56 
Q 41.65625 56 45.828125 52.96875 
Q 50 49.953125 52 44.1875 
z
" id="DejaVuSans-109"/>
       <path d="M 18.109375 8.203125 
L 18.109375 -20.796875 
L 9.078125 -20.796875 
L 9.078125 54.6875 
L 18.109375 54.6875 
L 18.109375 46.390625 
Q 20.953125 51.265625 25.265625 53.625 
Q 29.59375 56 35.59375 56 
Q 45.5625 56 51.78125 48.09375 
Q 58.015625 40.1875 58.015625 27.296875 
Q 58.015625 14.40625 51.78125 6.484375 
Q 45.5625 -1.421875 35.59375 -1.421875 
Q 29.59375 -1.421875 25.265625 0.953125 
Q 20.953125 3.328125 18.109375 8.203125 
z
M 48.6875 27.296875 
Q 48.6875 37.203125 44.609375 42.84375 
Q 40.53125 48.484375 33.40625 48.484375 
Q 26.265625 48.484375 22.1875 42.84375 
Q 18.109375 37.203125 18.109375 27.296875 
Q 18.109375 17.390625 22.1875 11.75 
Q 26.265625 6.109375 33.40625 6.109375 
Q 40.53125 6.109375 44.609375 11.75 
Q 48.6875 17.390625 48.6875 27.296875 
z
" id="DejaVuSans-112"/>
       <path d="M 41.109375 46.296875 
Q 39.59375 47.171875 37.8125 47.578125 
Q 36.03125 48 33.890625 48 
Q 26.265625 48 22.1875 43.046875 
Q 18.109375 38.09375 18.109375 28.8125 
L 18.109375 0 
L 9.078125 0 
L 9.078125 54.6875 
L 18.109375 54.6875 
L 18.109375 46.1875 
Q 20.953125 51.171875 25.484375 53.578125 
Q 30.03125 56 36.53125 56 
Q 37.453125 56 38.578125 55.875 
Q 39.703125 55.765625 41.0625 55.515625 
z
" id="DejaVuSans-114"/>
       <path d="M 8.5 21.578125 
L 8.5 54.6875 
L 17.484375 54.6875 
L 17.484375 21.921875 
Q 17.484375 14.15625 20.5 10.265625 
Q 23.53125 6.390625 29.59375 6.390625 
Q 36.859375 6.390625 41.078125 11.03125 
Q 45.3125 15.671875 45.3125 23.6875 
L 45.3125 54.6875 
L 54.296875 54.6875 
L 54.296875 0 
L 45.3125 0 
L 45.3125 8.40625 
Q 42.046875 3.421875 37.71875 1 
Q 33.40625 -1.421875 27.6875 -1.421875 
Q 18.265625 -1.421875 13.375 4.4375 
Q 8.5 10.296875 8.5 21.578125 
z
M 31.109375 56 
z
" id="DejaVuSans-117"/>
       <path id="DejaVuSans-32"/>
       <path d="M 8.59375 75.984375 
L 29.296875 75.984375 
L 29.296875 69 
L 17.578125 69 
L 17.578125 -6.203125 
L 29.296875 -6.203125 
L 29.296875 -13.1875 
L 8.59375 -13.1875 
z
" id="DejaVuSans-91"/>
       <path d="M 9.8125 72.90625 
L 51.703125 72.90625 
L 51.703125 64.59375 
L 19.671875 64.59375 
L 19.671875 43.109375 
L 48.578125 43.109375 
L 48.578125 34.8125 
L 19.671875 34.8125 
L 19.671875 0 
L 9.8125 0 
z
" id="DejaVuSans-70"/>
       <path d="M 30.421875 75.984375 
L 30.421875 -13.1875 
L 9.71875 -13.1875 
L 9.71875 -6.203125 
L 21.390625 -6.203125 
L 21.390625 69 
L 9.71875 69 
L 9.71875 75.984375 
z
" id="DejaVuSans-93"/>
      </defs>
      <use xlink:href="#DejaVuSans-84"/>
      <use x="44.083984" xlink:href="#DejaVuSans-101"/>
      <use x="105.607422" xlink:href="#DejaVuSans-109"/>
      <use x="203.019531" xlink:href="#DejaVuSans-112"/>
      <use x="266.496094" xlink:href="#DejaVuSans-101"/>
      <use x="328.019531" xlink:href="#DejaVuSans-114"/>
      <use x="369.132812" xlink:href="#DejaVuSans-97"/>
      <use x="430.412109" xlink:href="#DejaVuSans-116"/>
      <use x="469.621094" xlink:href="#DejaVuSans-117"/>
      <use x="533" xlink:href="#DejaVuSans-114"/>
      <use x="571.863281" xlink:href="#DejaVuSans-101"/>
      <use x="633.386719" xlink:href="#DejaVuSans-32"/>
      <use x="665.173828" xlink:href="#DejaVuSans-91"/>
      <use x="704.1875" xlink:href="#DejaVuSans-70"/>
      <use x="761.707031" xlink:href="#DejaVuSans-93"/>
     </g>
    </g>
   </g>
   <g id="line2d_27">
    <path clip-path="url(#pc8cd6b3e84)" d="M 63.084545 143.799959 
L 63.134513 143.799959 
L 63.252742 143.207122 
L 63.370794 143.207122 
L 63.394413 143.799959 
L 63.442053 142.614284 
L 63.465556 143.207122 
L 63.489088 143.207122 
L 63.608053 142.614284 
L 63.656243 142.614284 
L 63.728335 142.021447 
L 63.751895 142.614284 
L 63.824813 142.614284 
L 63.872096 143.207122 
L 63.895794 142.614284 
L 63.968463 143.207122 
L 64.015842 142.021447 
L 64.06452 142.021447 
L 64.16098 140.835773 
L 64.184455 142.021447 
L 64.208443 140.242935 
L 64.256122 140.835773 
L 64.375309 140.242935 
L 64.398994 140.242935 
L 64.520068 139.650098 
L 64.614879 140.835773 
L 64.736288 139.650098 
L 64.879442 140.835773 
L 64.903046 140.835773 
L 64.926576 140.242935 
L 64.999437 140.835773 
L 65.023789 140.835773 
L 65.192751 139.057261 
L 65.265378 140.242935 
L 65.289762 139.057261 
L 65.387319 139.057261 
L 65.412033 138.464424 
L 65.459458 139.057261 
L 65.48339 139.650098 
L 65.54784 139.057261 
L 65.619857 139.057261 
L 65.668648 138.464424 
L 65.71767 139.057261 
L 65.839653 140.835773 
L 65.863221 140.242935 
L 65.888625 140.242935 
L 66.015515 142.021447 
L 66.15869 140.242935 
L 66.280022 140.835773 
L 66.351546 140.242935 
L 66.376247 140.835773 
L 66.425267 140.242935 
L 66.496579 142.021447 
L 66.523722 142.021447 
L 66.618038 140.242935 
L 66.641539 140.835773 
L 66.665718 140.835773 
L 66.761664 143.207122 
L 66.786984 142.021447 
L 66.810477 140.835773 
L 66.834004 143.207122 
L 66.8585 144.392796 
L 66.9071 142.021447 
L 66.930561 142.614284 
L 67.006475 140.242935 
L 67.030398 143.207122 
L 67.053912 142.021447 
L 67.077354 144.392796 
L 67.152153 142.614284 
L 67.297215 144.392796 
L 67.418334 144.985633 
L 67.635135 144.985633 
L 67.731116 145.578471 
L 67.803777 144.985633 
L 67.827361 145.578471 
L 67.851683 145.578471 
L 67.898889 144.392796 
L 67.947472 145.578471 
L 67.973034 145.578471 
L 68.044885 143.207122 
L 68.06963 144.985633 
L 68.094386 146.764145 
L 68.167145 145.578471 
L 68.21507 145.578471 
L 68.3605 143.799959 
L 68.481491 144.392796 
L 68.505115 144.392796 
L 68.57697 144.985633 
L 68.600747 143.207122 
L 68.673533 145.578471 
L 68.722325 144.392796 
L 68.841056 145.578471 
L 68.865065 144.392796 
L 68.960726 144.985633 
L 69.032896 144.985633 
L 69.155681 145.578471 
L 69.302654 144.392796 
L 69.445234 145.578471 
L 69.75686 145.578471 
L 69.877336 146.764145 
L 70.29059 146.764145 
L 70.388431 147.356982 
L 70.507821 146.764145 
L 70.627857 147.356982 
L 71.011224 147.356982 
L 71.035094 147.94982 
L 71.058725 147.356982 
L 131.562139 147.94982 
L 131.586578 147.356982 
L 131.872904 145.578471 
L 131.9968 147.356982 
L 132.021036 145.578471 
L 132.079242 147.356982 
L 132.266938 143.207122 
L 132.345956 144.985633 
L 132.527043 146.764145 
L 132.604209 146.764145 
L 132.62771 147.356982 
L 132.652309 145.578471 
L 132.676948 145.578471 
L 132.701156 146.764145 
L 132.725764 144.985633 
L 132.751826 144.985633 
L 132.828465 140.242935 
L 132.872786 143.207122 
L 132.997968 145.578471 
L 133.025053 144.392796 
L 133.097638 145.578471 
L 133.12117 145.578471 
L 133.15713 146.764145 
L 133.205192 145.578471 
L 133.234474 144.985633 
L 133.311113 145.578471 
L 133.33463 145.578471 
L 133.456891 139.650098 
L 133.57614 145.578471 
L 133.671625 139.057261 
L 133.74412 140.242935 
L 133.839023 144.985633 
L 133.898386 146.764145 
L 133.921858 144.985633 
L 134.034886 144.392796 
L 134.082829 144.392796 
L 134.107714 143.799959 
L 134.131331 144.392796 
L 134.228279 146.764145 
L 134.252135 145.578471 
L 134.3052 145.578471 
L 134.457706 139.650098 
L 134.618496 146.764145 
L 134.692552 144.392796 
L 134.739484 145.578471 
L 134.763371 145.578471 
L 134.788241 146.764145 
L 134.811682 144.985633 
L 134.83608 145.578471 
L 134.932687 145.578471 
L 134.957138 144.392796 
L 135.007951 145.578471 
L 135.032513 147.356982 
L 135.080612 144.985633 
L 135.104452 144.985633 
L 135.127885 144.985633 
L 135.152638 145.578471 
L 135.178203 142.021447 
L 135.252606 142.614284 
L 135.30205 144.985633 
L 135.37446 143.799959 
L 135.494367 144.985633 
L 135.618955 144.392796 
L 135.690654 143.799959 
L 135.7376 144.985633 
L 135.761379 144.985633 
L 135.784825 144.392796 
L 135.857149 144.985633 
L 136.000595 146.764145 
L 136.024073 145.578471 
L 136.095098 146.764145 
L 136.214563 147.356982 
L 136.526736 147.356982 
L 136.599114 147.94982 
L 136.623421 147.356982 
L 136.864367 147.356982 
L 136.88806 144.985633 
L 136.959637 146.764145 
L 137.007318 146.764145 
L 137.131046 147.356982 
L 137.178813 147.356982 
L 137.202758 146.764145 
L 137.2735 147.356982 
L 137.297437 147.356982 
L 137.417995 147.94982 
L 137.93056 147.94982 
L 137.956115 148.542657 
L 138.010254 147.356982 
L 138.036845 147.94982 
L 138.161127 147.356982 
L 138.359403 147.356982 
L 138.480308 146.764145 
L 138.842292 146.764145 
L 138.865791 147.356982 
L 138.937319 146.764145 
L 139.130983 146.764145 
L 139.204522 147.356982 
L 139.228004 146.764145 
L 139.393321 146.764145 
L 139.464578 147.356982 
L 139.488175 146.764145 
L 139.537019 146.764145 
L 139.656572 147.356982 
L 139.680147 147.356982 
L 139.798167 146.764145 
L 139.821597 146.764145 
L 139.892056 147.356982 
L 139.916332 146.764145 
L 140.23081 146.764145 
L 234.825533 130.164702 
L 234.880183 131.350376 
L 234.994458 131.350376 
L 235.018137 130.164702 
L 235.06714 131.350376 
L 235.144235 131.350376 
L 235.168655 130.164702 
L 235.245885 131.350376 
L 235.438058 131.350376 
L 235.486567 131.943214 
L 235.534522 131.350376 
L 235.659068 131.350376 
L 235.788364 131.943214 
L 235.81224 131.350376 
L 235.860287 131.943214 
L 235.908839 131.943214 
L 235.933053 131.350376 
L 236.003702 131.943214 
L 236.075395 131.943214 
L 236.205561 131.350376 
L 236.337567 131.943214 
L 236.769403 131.943214 
L 236.887599 132.536051 
L 236.959563 131.943214 
L 236.98417 132.536051 
L 237.008216 132.536051 
L 237.13068 131.943214 
L 237.181479 131.943214 
L 237.299519 132.536051 
L 237.734159 132.536051 
L 237.757879 133.128888 
L 237.8292 132.536051 
L 237.904156 132.536051 
L 237.930402 133.128888 
L 238.012979 132.536051 
L 238.209503 132.536051 
L 238.332152 133.128888 
L 239.329152 133.128888 
L 239.35381 133.721726 
L 239.40279 133.128888 
L 239.621109 133.128888 
L 239.720292 133.721726 
L 239.842164 133.128888 
L 239.962121 133.721726 
L 240.282691 133.721726 
L 240.39599 134.314563 
L 240.514728 133.721726 
L 241.191893 133.721726 
L 241.21532 133.128888 
L 241.288354 133.721726 
L 241.434964 133.721726 
L 241.555622 133.128888 
L 241.603448 133.128888 
L 241.723803 133.721726 
L 242.062475 133.721726 
L 242.085931 134.314563 
L 242.156208 133.721726 
L 242.585349 133.721726 
L 242.609509 133.128888 
L 242.681927 133.721726 
L 242.728779 133.721726 
L 242.760298 133.128888 
L 242.836459 133.721726 
L 243.027195 133.721726 
L 243.051393 133.128888 
L 243.123902 133.721726 
L 243.87299 133.721726 
L 243.99362 134.314563 
L 244.017539 134.314563 
L 244.117026 133.721726 
L 244.222511 134.314563 
L 244.343755 133.721726 
L 244.439453 134.314563 
L 244.55981 133.721726 
L 244.656592 133.721726 
L 244.77442 134.314563 
L 245.173561 134.314563 
L 245.197297 134.9074 
L 245.267947 134.314563 
L 245.538518 134.314563 
L 245.611871 134.9074 
L 245.636717 134.314563 
L 245.684917 134.314563 
L 245.756964 134.9074 
L 245.780456 134.314563 
L 245.831894 134.314563 
L 245.956427 134.9074 
L 245.981843 134.314563 
L 246.060403 134.9074 
L 246.784464 134.9074 
L 246.907908 136.093075 
L 247.030019 134.9074 
L 247.276775 134.9074 
L 247.324298 136.093075 
L 247.374036 134.9074 
L 247.573139 134.9074 
L 247.669982 136.093075 
L 247.788448 134.9074 
L 247.909512 136.093075 
L 248.033986 134.9074 
L 248.057542 134.9074 
L 248.177367 136.093075 
L 248.298746 134.9074 
L 248.419697 136.093075 
L 249.048085 136.093075 
L 249.122549 136.685912 
L 249.146412 136.093075 
L 249.271781 136.093075 
L 249.296423 136.685912 
L 249.320257 136.093075 
L 249.582118 136.093075 
L 249.679499 136.685912 
L 249.800855 136.093075 
L 249.922516 136.685912 
L 250.673681 136.685912 
L 250.745282 137.278749 
L 250.771262 136.685912 
L 250.794804 136.685912 
L 250.866993 137.278749 
L 250.890918 136.685912 
L 250.914399 136.685912 
L 251.033949 137.278749 
L 251.489314 137.278749 
L 251.586978 136.685912 
L 251.706808 137.278749 
L 252.67368 137.278749 
L 252.69725 137.871586 
L 252.775921 137.278749 
L 253.600181 137.278749 
L 253.701059 137.871586 
L 253.774259 137.278749 
L 253.806815 137.871586 
L 254.545701 137.871586 
L 254.569239 137.278749 
L 254.643114 137.871586 
L 254.741582 137.871586 
L 254.813508 137.278749 
L 254.837267 137.871586 
L 254.936108 137.871586 
L 255.058471 137.278749 
L 255.154305 137.278749 
L 255.177753 137.871586 
L 255.251103 137.278749 
L 255.299224 137.278749 
L 255.398619 137.871586 
L 255.519685 137.278749 
L 255.686519 137.278749 
L 255.787439 137.871586 
L 255.909693 137.278749 
L 256.6515 137.278749 
L 256.77238 136.685912 
L 256.967408 136.685912 
L 257.01632 136.093075 
L 257.065242 136.685912 
L 257.18782 136.685912 
L 257.242153 136.093075 
L 257.291438 136.685912 
L 257.315144 136.685912 
L 257.340182 136.093075 
L 257.411994 136.685912 
L 258.07251 136.685912 
L 258.193698 136.093075 
L 258.24885 136.093075 
L 258.272543 136.685912 
L 258.343412 136.093075 
L 258.417727 136.093075 
L 258.538791 134.9074 
L 258.758396 134.9074 
L 258.805852 134.314563 
L 258.854711 134.9074 
L 259.408504 134.9074 
L 259.480059 134.314563 
L 259.503648 134.9074 
L 259.62472 134.9074 
L 259.744058 134.314563 
L 259.792219 134.314563 
L 259.9106 133.721726 
L 259.935583 133.721726 
L 260.05493 134.314563 
L 260.101842 134.314563 
L 260.221478 133.721726 
L 260.294253 134.314563 
L 260.324358 133.721726 
L 260.474435 133.721726 
L 260.595246 134.314563 
L 260.620335 134.314563 
L 260.718951 133.721726 
L 260.843139 134.314563 
L 260.920189 134.314563 
L 260.943733 133.721726 
L 261.015593 134.314563 
L 261.334079 134.314563 
L 261.430923 133.721726 
L 261.479479 134.314563 
L 261.52795 133.721726 
L 261.579104 133.721726 
L 261.702805 134.314563 
L 261.802996 133.721726 
L 261.876597 134.314563 
L 261.903357 133.721726 
L 262.027023 133.721726 
L 262.148592 134.314563 
L 262.271267 133.721726 
L 262.419125 133.721726 
L 262.445747 134.314563 
L 262.526318 133.721726 
L 262.602577 133.721726 
L 262.626701 134.314563 
L 262.70084 133.721726 
L 262.863439 133.721726 
L 262.886921 132.536051 
L 262.982511 133.128888 
L 263.006082 133.128888 
L 263.126131 133.721726 
L 263.198276 133.721726 
L 263.245707 134.314563 
L 263.294018 133.721726 
L 263.413248 133.128888 
L 263.461617 133.128888 
L 263.485147 133.721726 
L 263.558008 133.128888 
L 263.582882 133.128888 
L 263.705549 133.721726 
L 263.952095 133.721726 
L 263.975683 134.314563 
L 264.024634 133.721726 
L 264.098415 133.128888 
L 264.121873 133.721726 
L 264.512093 133.721726 
L 264.631445 134.314563 
L 264.656542 134.314563 
L 264.681131 133.721726 
L 264.752 134.314563 
L 265.016187 134.314563 
L 265.112915 133.721726 
L 265.272394 134.314563 
L 265.513842 134.314563 
L 265.584333 134.9074 
L 265.608127 134.314563 
L 265.777694 134.314563 
L 265.802689 133.721726 
L 265.873846 134.314563 
L 266.142007 134.314563 
L 266.1663 134.9074 
L 266.237289 134.314563 
L 266.540973 134.314563 
L 266.638545 134.9074 
L 266.735708 134.314563 
L 266.857961 134.9074 
L 267.22418 134.9074 
L 267.272306 134.314563 
L 267.323142 134.9074 
L 267.394585 134.9074 
L 267.419613 134.314563 
L 267.491631 134.9074 
L 268.132388 134.9074 
L 268.156838 136.093075 
L 268.239186 134.9074 
L 268.263619 134.9074 
L 268.398064 136.093075 
L 268.421646 136.093075 
L 268.543489 134.9074 
L 268.663187 136.093075 
L 268.792584 136.093075 
L 268.890927 134.9074 
L 269.056177 136.093075 
L 269.617262 136.093075 
L 269.704587 136.685912 
L 269.827721 136.093075 
L 269.852266 136.093075 
L 269.973524 136.685912 
L 269.996983 136.093075 
L 270.079439 136.685912 
L 270.710409 136.685912 
L 270.733867 137.278749 
L 270.805319 136.685912 
L 271.19325 136.685912 
L 271.313193 137.278749 
L 271.386171 136.685912 
L 271.410841 137.278749 
L 271.459405 137.278749 
L 271.558364 136.685912 
L 271.685961 137.278749 
L 273.007028 137.278749 
L 273.033334 137.871586 
L 273.110719 137.278749 
L 273.160692 137.278749 
L 273.209729 137.871586 
L 273.259562 137.278749 
L 273.286501 137.278749 
L 273.385708 137.871586 
L 273.410151 137.278749 
L 273.483763 137.871586 
L 273.724326 137.871586 
L 273.749406 137.278749 
L 273.821795 137.871586 
L 273.893006 137.871586 
L 273.916486 137.278749 
L 273.988085 137.871586 
L 274.159093 137.871586 
L 274.184521 138.464424 
L 274.256589 137.871586 
L 274.894845 137.871586 
L 274.91943 137.278749 
L 274.994913 137.871586 
L 276.073673 137.871586 
L 276.09788 138.464424 
L 276.173162 137.871586 
L 276.521064 137.871586 
L 276.602422 138.464424 
L 276.626774 137.871586 
L 276.747792 137.871586 
L 276.870586 138.464424 
L 277.143807 138.464424 
L 277.167697 137.871586 
L 277.241668 138.464424 
L 277.535337 138.464424 
L 277.561457 137.871586 
L 277.632908 138.464424 
L 278.742881 138.464424 
L 278.769261 139.057261 
L 278.840278 138.464424 
L 278.913133 138.464424 
L 278.938085 139.057261 
L 279.014359 138.464424 
L 279.156989 138.464424 
L 279.251601 139.057261 
L 279.353818 138.464424 
L 279.452165 139.057261 
L 279.475588 138.464424 
L 279.547592 139.057261 
L 279.57118 139.057261 
L 279.691215 138.464424 
L 279.813539 139.057261 
L 279.911884 139.057261 
L 280.008744 138.464424 
L 280.105616 139.057261 
L 280.129132 138.464424 
L 280.203243 139.057261 
L 280.372642 139.057261 
L 280.397936 138.464424 
L 280.469156 139.057261 
L 282.188281 139.057261 
L 282.212842 139.650098 
L 282.284772 139.057261 
L 282.405797 139.057261 
L 282.429402 139.650098 
L 282.502343 139.057261 
L 282.549427 139.057261 
L 282.668158 139.650098 
L 282.7917 139.057261 
L 282.817337 139.057261 
L 282.940958 139.650098 
L 282.966299 139.650098 
L 283.061917 139.057261 
L 283.182463 139.650098 
L 283.808801 139.650098 
L 283.832658 140.242935 
L 283.904401 139.650098 
L 284.169311 139.650098 
L 284.245277 140.242935 
L 284.272077 139.650098 
L 284.393841 139.650098 
L 284.521949 140.242935 
L 284.595704 139.650098 
L 284.620041 140.242935 
L 284.644483 140.242935 
L 284.748978 139.650098 
L 284.773579 140.242935 
L 284.852131 139.650098 
L 284.924011 139.650098 
L 284.949567 140.242935 
L 285.065367 139.650098 
L 286.374104 139.650098 
L 286.452894 139.057261 
L 286.478802 139.650098 
L 286.549242 139.650098 
L 286.655326 139.057261 
L 286.702361 139.650098 
L 286.749335 139.057261 
L 287.398971 139.057261 
L 287.506388 138.464424 
L 287.633244 139.057261 
L 287.784887 137.871586 
L 287.810087 138.464424 
L 287.884205 137.871586 
L 288.029667 137.871586 
L 288.151583 137.278749 
L 288.276041 137.278749 
L 288.30699 136.685912 
L 288.377696 137.278749 
L 288.452559 137.278749 
L 288.529642 137.871586 
L 288.553104 137.278749 
L 288.606635 137.278749 
L 288.701057 137.871586 
L 288.843857 136.685912 
L 288.890968 136.685912 
L 289.009252 137.278749 
L 289.103691 136.685912 
L 289.127369 137.278749 
L 289.197981 136.685912 
L 289.269117 136.685912 
L 289.293081 137.278749 
L 289.371557 136.685912 
L 289.395087 136.685912 
L 289.514371 137.278749 
L 289.538042 136.685912 
L 289.608827 137.278749 
L 289.925075 137.278749 
L 290.01912 136.685912 
L 290.144389 137.278749 
L 290.269555 137.278749 
L 290.293152 136.685912 
L 290.363604 137.278749 
L 290.508309 137.278749 
L 290.627594 136.685912 
L 290.750431 137.278749 
L 290.868282 136.685912 
L 291.227639 136.685912 
L 291.31463 137.278749 
L 291.441861 136.685912 
L 292.080518 136.685912 
L 292.16752 136.093075 
L 292.441628 136.093075 
L 292.465476 136.685912 
L 292.504997 136.093075 
L 293.136297 136.093075 
L 293.22091 136.685912 
L 293.247834 136.093075 
L 293.565574 136.093075 
L 293.602596 136.685912 
L 293.630157 134.9074 
L 293.715539 136.093075 
L 293.774978 136.093075 
L 293.913955 134.9074 
L 294.419333 134.9074 
L 294.636603 133.721726 
L 294.748066 134.314563 
L 295.449153 134.314563 
L 295.480093 133.721726 
L 295.538708 134.314563 
L 295.665207 134.314563 
L 295.796766 133.721726 
L 295.977482 133.721726 
L 296.00115 134.314563 
L 296.080143 133.721726 
L 296.130593 133.721726 
L 296.234917 133.128888 
L 296.312578 133.721726 
L 296.340263 133.128888 
L 296.508871 133.128888 
L 296.639191 133.721726 
L 296.74439 133.721726 
L 296.768887 134.314563 
L 296.848154 133.721726 
L 296.999281 133.721726 
L 297.13048 133.128888 
L 297.196531 133.721726 
L 297.234396 133.128888 
L 297.264235 133.128888 
L 297.363396 132.536051 
L 297.387769 133.128888 
L 297.466721 132.536051 
L 297.543807 132.536051 
L 297.751668 131.943214 
L 297.868148 132.536051 
L 297.99293 131.943214 
L 298.017253 131.943214 
L 298.044496 132.536051 
L 298.306767 132.536051 
L 298.338924 133.128888 
L 298.407235 132.536051 
L 298.544665 132.536051 
L 298.670872 133.128888 
L 299.140398 133.128888 
L 299.275024 132.536051 
L 299.406185 132.536051 
L 299.516611 133.128888 
L 299.622653 132.536051 
L 299.710431 132.536051 
L 299.823736 133.128888 
L 300.006067 133.128888 
L 300.044434 133.721726 
L 300.100424 133.128888 
L 300.125549 133.128888 
L 300.202985 133.721726 
L 300.230258 133.128888 
L 300.300762 133.128888 
L 300.437963 133.721726 
L 300.576884 133.721726 
L 300.687407 134.314563 
L 300.758889 133.721726 
L 300.800029 134.9074 
L 300.860462 134.314563 
L 301.04323 134.314563 
L 301.174836 134.9074 
L 301.202926 134.314563 
L 301.283947 134.9074 
L 301.492959 134.9074 
L 301.62349 136.093075 
L 302.063386 136.093075 
L 302.196119 136.685912 
L 302.224171 136.093075 
L 302.306418 136.685912 
L 302.711559 136.685912 
L 302.81308 137.278749 
L 302.919181 136.685912 
L 302.967682 137.278749 
L 303.044809 136.685912 
L 303.069372 137.278749 
L 303.125412 137.278749 
L 303.176969 136.685912 
L 303.235462 137.278749 
L 303.749158 137.278749 
L 303.872289 137.871586 
L 304.478518 137.871586 
L 304.549987 138.464424 
L 304.581026 137.871586 
L 304.883907 137.871586 
L 305.002408 138.464424 
L 305.12533 137.871586 
L 305.17438 137.871586 
L 305.295585 138.464424 
L 305.366809 137.871586 
L 305.390495 138.464424 
L 306.127992 138.464424 
L 306.223212 139.057261 
L 306.340809 138.464424 
L 306.364274 138.464424 
L 306.459503 139.057261 
L 306.482974 138.464424 
L 306.555569 139.057261 
L 307.155496 139.057261 
L 307.275864 139.650098 
L 307.323532 139.650098 
L 307.34772 139.057261 
L 307.418145 139.650098 
L 307.582692 139.650098 
L 307.677297 140.242935 
L 307.74917 139.650098 
L 307.772657 140.242935 
L 307.98612 140.242935 
L 308.086262 140.835773 
L 308.20721 140.242935 
L 308.79679 140.242935 
L 308.821049 139.650098 
L 308.890775 140.242935 
L 309.151871 140.242935 
L 309.176257 140.835773 
L 309.256589 140.242935 
L 309.474929 140.242935 
L 309.499611 140.835773 
L 309.572317 140.242935 
L 310.245374 140.242935 
L 310.363565 140.835773 
L 310.412102 140.835773 
L 310.532639 140.242935 
L 310.581288 140.242935 
L 310.704557 140.835773 
L 311.95043 140.835773 
L 312.068365 142.021447 
L 312.189018 140.835773 
L 312.237357 140.835773 
L 312.355733 142.021447 
L 312.379185 142.021447 
L 312.449425 140.835773 
L 312.473643 142.021447 
L 313.535778 142.021447 
L 313.659262 142.614284 
L 313.781938 142.021447 
L 314.092185 142.021447 
L 314.139083 142.614284 
L 314.186273 142.021447 
L 314.354452 142.021447 
L 314.37801 142.614284 
L 314.45044 142.021447 
L 314.716123 142.021447 
L 314.739524 142.614284 
L 314.810299 142.021447 
L 314.905526 142.021447 
L 314.929072 142.614284 
L 314.999665 142.021447 
L 315.049555 142.021447 
L 315.1685 142.614284 
L 315.218575 142.614284 
L 315.33739 142.021447 
L 315.433858 142.614284 
L 315.457531 142.021447 
L 315.53002 142.614284 
L 315.72225 142.614284 
L 315.746454 142.021447 
L 315.818048 142.614284 
L 316.201763 142.614284 
L 316.321471 143.207122 
L 316.442887 142.614284 
L 317.028783 142.614284 
L 317.101268 143.207122 
L 317.126027 142.614284 
L 317.224334 142.614284 
L 317.342016 143.207122 
L 317.464673 142.614284 
L 317.488164 143.207122 
L 317.561318 142.614284 
L 318.902868 142.614284 
L 318.975702 142.021447 
L 318.999333 142.614284 
L 319.026005 142.614284 
L 319.051184 142.021447 
L 319.121556 142.614284 
L 319.288559 142.614284 
L 319.38512 142.021447 
L 319.458668 142.614284 
L 319.48319 142.021447 
L 319.579886 142.021447 
L 319.62869 142.614284 
L 319.676454 142.021447 
L 319.723916 142.021447 
L 319.747386 142.614284 
L 319.821409 142.021447 
L 320.16364 142.021447 
L 320.286307 140.835773 
L 320.615764 140.835773 
L 320.640205 140.242935 
L 320.714359 140.835773 
L 320.786492 140.835773 
L 320.905851 140.242935 
L 321.125653 140.242935 
L 321.253332 139.650098 
L 321.279968 139.650098 
L 321.304247 140.242935 
L 321.375349 139.650098 
L 321.54267 139.650098 
L 321.665748 139.057261 
L 321.864484 139.057261 
L 321.989286 138.464424 
L 322.086311 138.464424 
L 322.21925 137.871586 
L 322.534361 137.871586 
L 322.557955 137.278749 
L 322.631376 137.871586 
L 322.71802 137.871586 
L 322.827784 137.278749 
L 322.984052 137.278749 
L 323.037943 136.685912 
L 323.062304 137.278749 
L 323.156496 137.871586 
L 323.278082 137.278749 
L 323.325564 137.278749 
L 323.349006 136.685912 
L 323.400656 137.278749 
L 323.451973 136.685912 
L 323.534114 137.871586 
L 323.582678 137.871586 
L 323.606087 138.464424 
L 323.633303 137.871586 
L 323.738008 137.871586 
L 323.869726 137.278749 
L 323.894138 137.278749 
L 323.917604 136.685912 
L 323.941039 137.871586 
L 324.065048 138.464424 
L 324.119094 138.464424 
L 324.19271 137.871586 
L 324.216179 138.464424 
L 324.288837 138.464424 
L 324.412761 137.871586 
L 324.461453 137.871586 
L 324.590774 138.464424 
L 324.687713 138.464424 
L 324.807647 137.871586 
L 324.880921 137.871586 
L 324.931142 137.278749 
L 325.011809 138.464424 
L 325.138074 137.871586 
L 325.162077 137.871586 
L 325.264094 133.128888 
L 325.288826 130.164702 
L 325.338822 134.314563 
L 325.362583 133.721726 
L 325.629338 137.871586 
L 325.729783 137.871586 
L 325.851452 138.464424 
L 325.974046 137.871586 
L 326.344004 137.871586 
L 326.368334 138.464424 
L 326.439714 137.871586 
L 326.561007 137.871586 
L 326.587043 138.464424 
L 326.63717 137.871586 
L 326.710355 136.685912 
L 326.735183 137.278749 
L 326.831278 137.871586 
L 326.952354 137.278749 
L 326.9993 137.278749 
L 327.096304 136.685912 
L 327.195946 136.685912 
L 327.251389 136.093075 
L 327.275727 137.278749 
L 327.347169 137.278749 
L 327.371891 137.871586 
L 327.424758 136.685912 
L 327.527617 136.685912 
L 327.577281 134.314563 
L 327.602207 134.9074 
L 327.690241 136.093075 
L 327.989074 134.9074 
L 328.042619 136.093075 
L 328.128249 136.093075 
L 328.253678 129.571865 
L 328.333972 131.350376 
L 328.496251 134.314563 
L 328.629584 134.9074 
L 328.678446 134.9074 
L 328.749531 134.314563 
L 328.786046 134.9074 
L 328.819275 134.9074 
L 328.944922 136.093075 
L 329.004236 134.9074 
L 329.032079 136.093075 
L 329.058709 136.093075 
L 329.180866 134.314563 
L 329.259368 136.093075 
L 329.33152 136.093075 
L 329.479239 137.278749 
L 329.543067 136.093075 
L 329.571268 137.278749 
L 329.663241 137.871586 
L 329.783296 136.685912 
L 329.84064 137.871586 
L 329.86493 136.685912 
L 330.050739 134.314563 
L 330.084771 134.9074 
L 330.146987 134.314563 
L 330.170525 133.721726 
L 330.201868 134.9074 
L 330.239761 134.9074 
L 330.319667 133.721726 
L 330.413071 136.093075 
L 330.552304 136.093075 
L 330.645417 134.9074 
L 330.771077 136.093075 
L 330.911313 134.9074 
L 331.039603 136.093075 
L 331.144066 136.093075 
L 331.193729 134.9074 
L 331.247318 136.093075 
L 331.355266 136.093075 
L 331.471664 136.685912 
L 331.975598 136.685912 
L 332.012344 136.093075 
L 332.059702 136.685912 
L 332.144146 136.685912 
L 332.269203 137.278749 
L 332.394374 136.685912 
L 332.443986 136.685912 
L 332.584015 137.278749 
L 332.7124 137.278749 
L 332.736297 137.871586 
L 332.79987 137.278749 
L 332.825804 137.278749 
L 332.89973 136.685912 
L 332.925228 137.278749 
L 332.985495 137.278749 
L 333.163776 136.685912 
L 333.312946 136.685912 
L 333.423203 137.278749 
L 333.795001 137.278749 
L 333.92444 137.871586 
L 334.10825 137.871586 
L 334.13981 138.464424 
L 334.21783 137.871586 
L 334.248924 137.871586 
L 334.377444 138.464424 
L 334.402662 137.871586 
L 334.480107 138.464424 
L 334.674668 138.464424 
L 334.800684 137.871586 
L 334.825134 137.871586 
L 334.875727 138.464424 
L 334.924742 137.871586 
L 334.997595 137.871586 
L 335.11253 138.464424 
L 335.91941 138.464424 
L 336.051138 137.871586 
L 336.596396 137.871586 
L 336.61989 138.464424 
L 336.695489 137.871586 
L 337.067012 137.871586 
L 337.190028 138.464424 
L 337.276382 138.464424 
L 337.299812 137.871586 
L 337.384072 138.464424 
L 337.486355 138.464424 
L 337.513296 137.871586 
L 337.585041 138.464424 
L 337.897008 138.464424 
L 337.921238 139.057261 
L 337.994006 138.464424 
L 338.304068 138.464424 
L 338.428661 137.871586 
L 338.50258 137.871586 
L 338.624646 138.464424 
L 338.746962 137.871586 
L 338.770861 137.871586 
L 338.904513 138.464424 
L 339.030843 137.871586 
L 339.180435 137.871586 
L 339.306321 138.464424 
L 339.385246 137.871586 
L 339.409283 138.464424 
L 339.434556 138.464424 
L 339.532831 137.871586 
L 339.655754 138.464424 
L 339.736582 138.464424 
L 339.763286 137.871586 
L 339.835128 138.464424 
L 339.908723 138.464424 
L 339.933322 137.871586 
L 340.004948 138.464424 
L 340.370164 138.464424 
L 340.467079 139.057261 
L 340.563998 138.464424 
L 340.66007 139.057261 
L 340.760045 138.464424 
L 340.807775 139.057261 
L 340.855034 138.464424 
L 340.879387 138.464424 
L 341.010784 139.057261 
L 341.105698 138.464424 
L 341.227911 139.057261 
L 341.251428 139.057261 
L 341.274941 138.464424 
L 341.345442 139.057261 
L 342.097181 139.057261 
L 342.215389 139.650098 
L 342.263212 139.650098 
L 342.384338 139.057261 
L 342.505521 139.650098 
L 343.756065 139.650098 
L 343.779584 140.242935 
L 343.85137 139.650098 
L 344.213617 139.650098 
L 344.262962 140.242935 
L 344.310077 139.650098 
L 344.623667 139.650098 
L 344.718033 140.242935 
L 344.838086 139.650098 
L 344.959199 140.242935 
L 345.007356 140.242935 
L 345.105958 139.650098 
L 345.20389 140.242935 
L 345.324856 139.650098 
L 345.445912 140.242935 
L 345.476352 140.242935 
L 345.595656 139.650098 
L 345.714192 140.242935 
L 347.134858 140.242935 
L 347.207678 140.835773 
L 347.231101 140.242935 
L 347.25545 140.242935 
L 347.372941 140.835773 
L 347.514623 140.835773 
L 347.632833 140.242935 
L 347.750778 140.835773 
L 347.844538 140.835773 
L 347.939739 142.021447 
L 348.058172 140.835773 
L 348.650801 140.835773 
L 348.769337 142.021447 
L 349.531221 142.021447 
L 349.606991 140.835773 
L 349.632366 142.021447 
L 349.655975 142.021447 
L 349.759392 140.835773 
L 349.87886 142.021447 
L 350.016451 140.835773 
L 350.041287 140.835773 
L 350.065414 142.021447 
L 350.142932 140.835773 
L 350.269281 140.835773 
L 350.295512 142.021447 
L 350.369825 140.835773 
L 350.419317 140.835773 
L 350.537946 142.021447 
L 350.5617 142.021447 
L 350.684385 140.835773 
L 350.733036 140.835773 
L 350.85163 142.021447 
L 350.87794 142.021447 
L 350.996518 140.835773 
L 351.257704 140.835773 
L 351.376241 140.242935 
L 351.597707 140.242935 
L 351.715161 139.650098 
L 351.763242 139.650098 
L 351.786986 140.242935 
L 351.858388 139.650098 
L 352.006932 139.650098 
L 352.033392 140.242935 
L 352.108487 139.650098 
L 352.182704 139.650098 
L 352.207138 139.057261 
L 352.278829 139.650098 
L 352.474582 139.650098 
L 352.4984 139.057261 
L 352.571038 139.650098 
L 352.619114 139.650098 
L 352.745474 139.057261 
L 352.867718 139.057261 
L 352.99104 138.464424 
L 353.242522 138.464424 
L 353.362564 137.871586 
L 353.530655 137.871586 
L 353.673512 136.685912 
L 353.792121 136.685912 
L 353.916639 137.278749 
L 354.040853 136.685912 
L 354.116931 136.685912 
L 354.257781 134.314563 
L 354.427411 133.128888 
L 354.454893 133.128888 
L 354.502851 132.536051 
L 354.553405 133.128888 
L 354.724463 133.128888 
L 354.823199 132.536051 
L 354.966901 133.721726 
L 355.217177 128.979027 
L 355.267966 132.536051 
L 355.322924 131.350376 
L 355.370904 130.164702 
L 355.394481 133.128888 
L 355.443667 129.571865 
L 355.518889 131.350376 
L 355.64359 132.536051 
L 355.765201 131.350376 
L 355.788704 131.943214 
L 355.814471 131.350376 
L 355.909674 130.164702 
L 356.041949 132.536051 
L 356.065425 132.536051 
L 356.139998 131.943214 
L 356.244221 134.9074 
L 356.270581 134.314563 
L 356.344007 134.9074 
L 356.610323 134.9074 
L 356.736049 131.943214 
L 356.767932 133.721726 
L 356.79153 133.721726 
L 356.815114 134.314563 
L 356.839337 128.38619 
L 356.911626 134.314563 
L 356.935179 134.314563 
L 356.961476 133.128888 
L 357.018732 134.9074 
L 357.043241 134.314563 
L 357.066756 134.314563 
L 357.090356 133.721726 
L 357.114715 134.9074 
L 357.163296 134.314563 
L 357.360532 134.314563 
L 357.479768 134.9074 
L 357.672718 134.9074 
L 357.790473 134.314563 
L 357.814956 134.314563 
L 357.901749 134.9074 
L 357.926063 134.314563 
L 358.433949 134.314563 
L 358.793904 131.350376 
L 358.91185 133.128888 
L 359.068974 131.350376 
L 359.118988 131.943214 
L 359.194815 131.350376 
L 359.268051 133.128888 
L 359.439126 129.571865 
L 359.565046 133.721726 
L 359.589671 131.943214 
L 359.656483 133.721726 
L 359.712322 132.536051 
L 359.819372 123.643492 
L 360.068685 129.571865 
L 360.106433 128.38619 
L 360.17167 131.943214 
L 360.229268 131.350376 
L 360.259367 129.571865 
L 360.399595 129.571865 
L 360.585761 132.536051 
L 360.649726 128.38619 
L 360.721958 128.979027 
L 360.752257 128.38619 
L 360.890391 130.164702 
L 360.922123 129.571865 
L 361.032084 128.38619 
L 361.215431 131.350376 
L 361.326269 129.571865 
L 361.352912 131.350376 
L 361.38033 128.979027 
L 361.404687 129.571865 
L 361.525519 128.979027 
L 361.552197 127.200516 
L 361.582335 128.38619 
L 361.667445 128.38619 
L 361.86783 130.164702 
L 361.992052 131.350376 
L 362.057224 131.350376 
L 362.091457 129.571865 
L 362.122719 130.164702 
L 362.250951 130.164702 
L 362.304777 129.571865 
L 362.329161 130.164702 
L 362.448663 130.164702 
L 362.475269 129.571865 
L 362.556498 130.164702 
L 362.636342 130.164702 
L 362.768713 129.571865 
L 362.857962 129.571865 
L 362.913683 130.164702 
L 362.939333 129.571865 
L 363.026094 130.164702 
L 363.052125 128.979027 
L 363.08307 131.350376 
L 363.119031 130.164702 
L 363.242302 129.571865 
L 363.339693 130.164702 
L 363.459468 127.793353 
L 363.510969 128.38619 
L 363.715518 131.943214 
L 363.822978 131.943214 
L 363.932609 131.350376 
L 364.03535 132.536051 
L 364.061551 131.943214 
L 364.094277 131.943214 
L 364.22769 132.536051 
L 364.252898 132.536051 
L 364.32434 133.128888 
L 364.348786 131.943214 
L 364.427846 133.128888 
L 364.99698 133.128888 
L 365.071727 131.943214 
L 365.097368 133.128888 
L 365.136248 133.128888 
L 365.198555 132.536051 
L 365.225075 133.128888 
L 365.433424 133.128888 
L 365.537299 131.350376 
L 365.561545 132.536051 
L 365.587243 132.536051 
L 365.611111 133.128888 
L 365.663401 131.943214 
L 365.793135 130.164702 
L 365.847172 130.164702 
L 365.925043 131.943214 
L 365.966393 131.350376 
L 366.231683 132.536051 
L 366.732156 132.536051 
L 366.972068 131.350376 
L 367.086611 131.350376 
L 367.210841 129.571865 
L 368.175214 129.571865 
L 368.271796 130.164702 
L 368.344974 129.571865 
L 368.368633 130.164702 
L 369.301331 130.164702 
L 369.325866 131.350376 
L 369.399926 130.164702 
L 369.423389 130.164702 
L 369.496697 131.350376 
L 369.520289 130.164702 
L 369.59213 130.164702 
L 369.687557 131.350376 
L 369.807058 130.164702 
L 369.934377 131.350376 
L 370.896756 131.350376 
L 371.018342 131.943214 
L 371.115609 131.350376 
L 371.238981 131.943214 
L 371.427968 131.943214 
L 371.524888 131.350376 
L 371.644624 131.943214 
L 371.786891 131.943214 
L 371.810565 131.350376 
L 371.881873 131.943214 
L 372.341833 131.943214 
L 372.42062 132.536051 
L 372.444885 131.943214 
L 372.516872 131.943214 
L 372.636977 132.536051 
L 373.160842 132.536051 
L 373.184403 133.128888 
L 373.255174 132.536051 
L 373.420683 132.536051 
L 373.538583 133.128888 
L 373.657232 132.536051 
L 373.687698 132.536051 
L 373.806243 133.128888 
L 373.82972 132.536051 
L 373.904102 133.128888 
L 374.455417 133.128888 
L 374.574835 133.721726 
L 374.645598 133.128888 
L 374.729824 133.128888 
L 374.851393 133.721726 
L 375.234462 133.721726 
L 375.258664 133.128888 
L 375.330824 133.721726 
L 376.358255 133.721726 
L 376.453107 134.314563 
L 376.476564 133.721726 
L 376.550091 134.314563 
L 377.324438 134.314563 
L 377.396538 134.9074 
L 377.420396 134.314563 
L 377.470211 134.314563 
L 377.56548 134.9074 
L 377.66521 134.314563 
L 377.786042 134.9074 
L 377.908659 134.314563 
L 378.030649 134.9074 
L 378.272692 134.9074 
L 378.296134 134.314563 
L 378.368376 134.9074 
L 378.7271 134.9074 
L 378.75411 136.093075 
L 378.825983 134.9074 
L 378.923788 134.9074 
L 379.048583 136.093075 
L 379.168142 134.9074 
L 379.288058 136.093075 
L 379.529499 136.093075 
L 379.648699 136.685912 
L 379.672939 136.685912 
L 379.796329 136.093075 
L 379.844355 136.093075 
L 379.919734 136.685912 
L 379.944405 136.093075 
L 380.043502 136.093075 
L 380.067437 136.685912 
L 380.140265 136.093075 
L 380.463614 136.093075 
L 380.540924 136.685912 
L 380.567364 136.093075 
L 380.69178 136.093075 
L 380.715456 136.685912 
L 380.790823 136.093075 
L 380.817896 136.093075 
L 380.868429 136.685912 
L 380.919976 136.093075 
L 381.039048 136.093075 
L 381.062759 136.685912 
L 381.134363 136.093075 
L 381.207181 136.093075 
L 381.230617 136.685912 
L 381.301939 136.093075 
L 381.34888 136.093075 
L 381.472546 136.685912 
L 382.050815 136.685912 
L 382.075177 136.093075 
L 382.148668 136.685912 
L 382.726817 136.685912 
L 382.848653 137.278749 
L 382.968826 136.685912 
L 384.280359 136.685912 
L 384.360435 136.093075 
L 384.384001 136.685912 
L 384.410348 136.685912 
L 384.511189 136.093075 
L 384.633361 136.685912 
L 384.681045 136.685912 
L 384.805536 136.093075 
L 384.900521 136.093075 
L 385.000125 134.9074 
L 385.047198 136.093075 
L 385.097446 134.9074 
L 385.296309 134.9074 
L 385.417357 134.314563 
L 385.441284 134.9074 
L 385.514968 134.314563 
L 385.832629 134.314563 
L 385.857324 133.721726 
L 385.930804 134.314563 
L 386.027612 134.314563 
L 386.14949 133.721726 
L 386.262033 133.721726 
L 386.380285 133.128888 
L 386.502359 133.128888 
L 386.623334 132.536051 
L 386.914207 132.536051 
L 386.938181 131.943214 
L 387.010993 132.536051 
L 387.193837 132.536051 
L 387.241092 131.943214 
L 387.289188 132.536051 
L 387.312715 132.536051 
L 387.535133 129.571865 
L 387.559726 129.571865 
L 387.681424 130.164702 
L 387.70565 130.164702 
L 387.850914 128.979027 
L 387.934809 129.571865 
L 387.959058 128.979027 
L 387.982507 128.979027 
L 388.10243 129.571865 
L 388.222866 128.979027 
L 388.36885 128.979027 
L 388.491471 128.38619 
L 388.640617 128.38619 
L 388.714968 128.979027 
L 388.764911 127.793353 
L 388.884935 128.38619 
L 388.932994 128.38619 
L 388.957639 127.793353 
L 389.007181 128.979027 
L 389.034518 128.979027 
L 389.181182 126.607678 
L 389.205139 127.200516 
L 389.347747 128.38619 
L 389.372527 127.793353 
L 389.445658 128.38619 
L 389.518424 128.38619 
L 389.541821 128.979027 
L 389.614023 128.38619 
L 389.637611 127.200516 
L 389.662307 128.979027 
L 389.713846 128.979027 
L 389.86205 130.164702 
L 390.023235 128.38619 
L 390.120077 129.571865 
L 390.263794 126.014841 
L 390.41063 128.979027 
L 390.483881 127.200516 
L 390.555977 127.793353 
L 390.60434 127.793353 
L 390.727559 129.571865 
L 390.826193 128.38619 
L 390.87593 129.571865 
L 390.924139 128.979027 
L 390.971533 128.38619 
L 390.996516 128.979027 
L 391.122276 130.164702 
L 391.245359 129.571865 
L 391.270738 130.164702 
L 391.318858 126.014841 
L 391.393401 127.793353 
L 391.441555 129.571865 
L 391.513537 128.979027 
L 391.563575 126.014841 
L 391.587381 130.164702 
L 391.684121 129.571865 
L 391.708291 129.571865 
L 391.809247 126.014841 
L 391.833691 129.571865 
L 391.931768 128.979027 
L 391.955607 128.979027 
L 391.979036 129.571865 
L 392.0027 124.236329 
L 392.098253 125.422004 
L 392.123064 126.014841 
L 392.148209 124.236329 
L 392.221023 123.643492 
L 392.245027 125.422004 
L 392.294375 122.457818 
L 392.319838 122.457818 
L 392.462895 120.679306 
L 392.735379 126.607678 
L 392.783566 126.014841 
L 392.807542 126.014841 
L 392.9558 127.200516 
L 392.979601 127.200516 
L 393.004046 127.793353 
L 393.029571 127.200516 
L 393.053099 126.014841 
L 393.077485 127.793353 
L 393.149776 126.607678 
L 393.221739 126.607678 
L 393.343473 126.014841 
L 393.465243 126.607678 
L 393.513147 126.607678 
L 393.563694 128.38619 
L 393.613215 127.200516 
L 393.711008 126.014841 
L 393.782418 128.38619 
L 393.829712 127.200516 
L 393.878712 126.607678 
L 393.927864 127.200516 
L 393.953399 127.200516 
L 394.097526 128.38619 
L 394.277767 124.236329 
L 394.301655 126.014841 
L 394.470284 128.38619 
L 394.589122 127.793353 
L 394.683316 128.38619 
L 394.801972 127.793353 
L 394.920073 128.38619 
L 394.966946 128.38619 
L 395.087191 128.979027 
L 395.111664 128.38619 
L 395.182937 128.979027 
L 395.229885 129.571865 
L 395.278942 128.979027 
L 395.327065 127.793353 
L 395.352053 124.236329 
L 395.425416 125.422004 
L 395.449266 127.793353 
L 395.521624 126.014841 
L 395.569072 126.014841 
L 395.667426 127.200516 
L 395.692054 126.607678 
L 395.715464 126.607678 
L 395.835249 127.200516 
L 395.860077 127.200516 
L 395.9815 127.793353 
L 396.005269 127.793353 
L 396.125808 126.014841 
L 396.150001 126.607678 
L 396.174737 126.607678 
L 396.226113 127.200516 
L 396.299045 125.422004 
L 396.426171 126.607678 
L 396.545996 127.200516 
L 396.71417 127.200516 
L 396.835599 127.793353 
L 397.004492 127.793353 
L 397.055321 128.38619 
L 397.105522 127.793353 
L 397.203552 127.793353 
L 397.326794 128.38619 
L 397.350562 128.38619 
L 397.374063 127.793353 
L 397.445042 128.38619 
L 397.517092 128.38619 
L 397.640057 128.979027 
L 397.837199 128.979027 
L 397.875116 128.38619 
L 397.907213 128.979027 
L 397.991891 128.979027 
L 398.183579 128.38619 
L 399.045658 128.38619 
L 399.109018 127.793353 
L 399.156094 128.38619 
L 399.386874 128.38619 
L 399.51879 128.979027 
L 399.567638 128.38619 
L 399.625934 128.979027 
L 399.650574 128.979027 
L 399.778744 128.38619 
L 399.805843 128.979027 
L 399.88085 128.38619 
L 399.907408 128.38619 
L 399.987878 128.979027 
L 400.011403 128.38619 
L 400.062107 128.38619 
L 400.086491 127.793353 
L 400.160358 128.38619 
L 400.359755 128.38619 
L 400.38359 127.793353 
L 400.456802 128.38619 
L 400.661281 128.38619 
L 400.685255 127.793353 
L 400.760058 128.38619 
L 401.859157 128.38619 
L 401.883456 128.979027 
L 401.960898 128.38619 
L 402.035943 128.38619 
L 402.120611 128.979027 
L 402.173466 128.38619 
L 402.225225 128.979027 
L 402.655951 128.979027 
L 402.757738 129.571865 
L 402.88675 128.979027 
L 403.162172 128.979027 
L 403.285598 129.571865 
L 403.309038 129.571865 
L 403.406044 128.979027 
L 403.526069 129.571865 
L 403.574752 128.979027 
L 403.621914 129.571865 
L 404.205467 129.571865 
L 404.229916 130.164702 
L 404.303149 129.571865 
L 404.590304 129.571865 
L 404.708913 130.164702 
L 404.805691 129.571865 
L 404.902197 131.350376 
L 404.92579 130.164702 
L 405.121187 130.164702 
L 405.144706 129.571865 
L 405.218771 130.164702 
L 405.757663 130.164702 
L 405.786895 131.350376 
L 405.860708 130.164702 
L 406.326373 130.164702 
L 406.351632 131.350376 
L 406.427153 130.164702 
L 406.451437 130.164702 
L 406.577855 131.350376 
L 406.972684 131.350376 
L 406.996855 130.164702 
L 407.045942 131.350376 
L 407.120555 130.164702 
L 407.144948 131.350376 
L 407.246876 131.350376 
L 407.367273 130.164702 
L 407.490132 131.350376 
L 407.804019 131.350376 
L 407.827513 131.943214 
L 407.898198 131.350376 
L 408.233877 131.350376 
L 408.33015 131.943214 
L 408.377843 131.350376 
L 408.425909 131.943214 
L 408.45009 131.943214 
L 408.524683 131.350376 
L 408.548682 131.943214 
L 408.621327 131.943214 
L 408.646555 131.350376 
L 408.719906 131.943214 
L 409.035534 131.943214 
L 409.131498 132.536051 
L 409.251011 131.943214 
L 410.092935 131.943214 
L 410.165002 132.536051 
L 410.188483 131.943214 
L 410.25952 131.943214 
L 410.380465 132.536051 
L 410.404383 132.536051 
L 410.428623 131.943214 
L 410.501109 132.536051 
L 410.814919 132.536051 
L 410.839341 131.943214 
L 410.910928 132.536051 
L 411.418345 132.536051 
L 411.537501 133.128888 
L 411.895412 133.128888 
L 412.016298 132.536051 
L 412.133895 133.128888 
L 412.207855 132.536051 
L 412.232933 133.128888 
L 412.256365 133.128888 
L 412.377981 132.536051 
L 412.427138 132.536051 
L 412.549635 133.128888 
L 412.622958 132.536051 
L 412.647144 133.128888 
L 412.838412 133.128888 
L 412.909707 132.536051 
L 412.93396 133.128888 
L 413.44314 133.128888 
L 413.53894 133.721726 
L 413.660311 133.128888 
L 413.827794 133.128888 
L 413.948473 132.536051 
L 414.942271 132.536051 
L 414.966145 131.943214 
L 415.039754 132.536051 
L 415.212843 132.536051 
L 415.239719 131.943214 
L 415.317178 132.536051 
L 415.41642 132.536051 
L 415.541532 131.943214 
L 415.569864 131.943214 
L 415.646989 132.536051 
L 415.672406 131.943214 
L 415.721831 131.943214 
L 415.770193 132.536051 
L 415.81905 131.943214 
L 415.950297 131.943214 
L 416.053114 132.536051 
L 416.182289 131.943214 
L 416.843073 131.943214 
L 416.867691 131.350376 
L 416.940565 131.943214 
L 416.989918 131.943214 
L 417.014481 131.350376 
L 417.086454 131.943214 
L 417.110121 131.943214 
L 417.23278 131.350376 
L 417.352947 131.943214 
L 417.476496 131.943214 
L 417.499951 132.536051 
L 417.571925 131.943214 
L 417.668482 131.350376 
L 417.790559 131.943214 
L 417.961436 131.943214 
L 418.036148 131.350376 
L 418.062095 131.943214 
L 418.652913 131.943214 
L 418.724323 131.350376 
L 418.749671 131.943214 
L 418.773563 131.943214 
L 418.892099 131.350376 
L 419.014123 131.943214 
L 419.038328 131.943214 
L 419.158228 131.350376 
L 419.57263 131.350376 
L 419.672115 130.164702 
L 419.695569 131.350376 
L 419.768743 130.164702 
L 420.219906 130.164702 
L 420.341964 129.571865 
L 420.46204 129.571865 
L 420.563458 128.979027 
L 420.682439 129.571865 
L 420.705853 129.571865 
L 420.827456 128.979027 
L 420.866087 128.979027 
L 420.961973 128.38619 
L 420.985656 128.979027 
L 421.063473 128.38619 
L 421.208914 128.979027 
L 421.330581 127.793353 
L 421.355193 128.38619 
L 421.429548 127.793353 
L 421.453272 127.200516 
L 421.524852 127.793353 
L 421.572784 127.793353 
L 421.597028 127.200516 
L 421.66816 127.793353 
L 421.692883 127.793353 
L 421.765621 127.200516 
L 421.789125 127.793353 
L 421.837138 127.793353 
L 421.910696 127.200516 
L 421.934145 127.793353 
L 421.982988 127.793353 
L 422.103302 127.200516 
L 422.127126 127.200516 
L 422.177878 127.793353 
L 422.226069 127.200516 
L 422.249512 127.200516 
L 422.347153 127.793353 
L 422.395633 127.200516 
L 422.443899 127.793353 
L 422.516308 127.793353 
L 422.640989 127.200516 
L 422.66657 127.793353 
L 422.716184 127.200516 
L 422.814931 125.422004 
L 422.862223 126.014841 
L 422.886412 126.014841 
L 422.984202 128.38619 
L 423.009254 127.793353 
L 423.034484 127.793353 
L 423.081584 123.643492 
L 423.131749 128.38619 
L 423.16601 128.38619 
L 423.191512 127.793353 
L 423.264073 128.38619 
L 423.28828 128.38619 
L 423.38394 128.979027 
L 423.434867 127.793353 
L 423.483355 128.38619 
L 423.605201 128.979027 
L 423.823144 128.979027 
L 423.895016 129.571865 
L 423.930494 128.979027 
L 424.003141 128.979027 
L 424.029068 129.571865 
L 424.052865 128.979027 
L 424.111665 125.422004 
L 424.15883 128.979027 
L 424.212086 128.979027 
L 424.310199 126.607678 
L 424.333744 128.38619 
L 424.364717 128.38619 
L 424.556875 124.236329 
L 424.677643 126.014841 
L 424.70155 125.422004 
L 424.749485 126.014841 
L 424.846819 126.607678 
L 424.918773 125.422004 
L 424.966913 126.014841 
L 425.017043 128.38619 
L 425.063968 126.607678 
L 425.209649 123.643492 
L 425.235776 126.014841 
L 425.3388 125.422004 
L 425.385841 125.422004 
L 425.554456 127.200516 
L 425.700225 126.014841 
L 425.822911 126.607678 
L 425.94676 126.607678 
L 426.074151 127.793353 
L 426.303227 125.422004 
L 426.353074 125.422004 
L 426.455433 127.200516 
L 426.479859 126.607678 
L 426.612792 127.793353 
L 426.663385 127.200516 
L 426.716894 127.200516 
L 426.741413 127.793353 
L 426.789178 127.200516 
L 426.911326 126.607678 
L 426.936783 126.607678 
L 426.9638 127.793353 
L 427.044779 127.200516 
L 427.116194 127.200516 
L 427.164291 126.014841 
L 427.212991 126.607678 
L 427.23756 127.793353 
L 427.318911 127.200516 
L 427.36783 127.200516 
L 427.444923 126.607678 
L 427.469762 127.200516 
L 427.498004 127.200516 
L 427.622491 126.607678 
L 427.772112 127.793353 
L 427.845047 127.793353 
L 427.966672 127.200516 
L 428.015222 127.200516 
L 428.160841 126.014841 
L 428.210682 126.014841 
L 428.379994 127.793353 
L 428.454479 127.793353 
L 428.57699 126.607678 
L 428.737264 128.38619 
L 428.809708 128.38619 
L 428.915625 127.793353 
L 428.952146 128.38619 
L 428.977665 127.200516 
L 429.025905 127.793353 
L 429.197871 127.793353 
L 429.32413 128.38619 
L 429.54585 128.38619 
L 429.569381 127.793353 
L 429.633608 128.38619 
L 429.6858 128.38619 
L 429.711188 127.793353 
L 429.78488 128.38619 
L 430.966477 128.38619 
L 431.087839 128.979027 
L 431.185104 128.38619 
L 431.304809 128.979027 
L 431.575455 128.979027 
L 431.575455 128.979027 
" style="fill:none;stroke:#1f77b4;stroke-linecap:square;stroke-width:1.5;"/>
   </g>
   <g id="line2d_28">
    <path clip-path="url(#pc8cd6b3e84)" d="M 63.084545 184.112893 
L 65.289762 184.112893 
L 65.412033 160.992239 
L 67.803777 160.992239 
L 67.923108 167.513449 
L 69.494033 167.513449 
L 69.612706 178.777357 
L 70.41318 178.777357 
L 70.53126 190.634102 
L 71.058725 190.634102 
L 131.586578 107.636886 
L 134.739484 107.636886 
L 134.83608 119.493631 
L 136.19108 119.493631 
L 136.311683 130.757539 
L 137.515549 130.757539 
L 137.635151 160.992239 
L 139.441058 160.992239 
L 139.560838 178.777357 
L 140.23081 178.777357 
L 235.018137 114.158096 
L 235.81224 114.158096 
L 235.933053 137.278749 
L 237.13068 137.278749 
L 237.252408 160.992239 
L 239.889986 160.992239 
L 240.010603 172.848985 
L 242.609509 172.848985 
L 242.728779 178.777357 
L 244.320316 178.777357 
L 244.439453 184.112893 
L 245.390146 184.112893 
L 245.513682 195.969638 
L 246.616403 195.969638 
L 246.734377 202.490848 
L 247.446069 202.490848 
L 247.573139 191.819777 
L 248.057542 191.819777 
L 248.177367 195.969638 
L 249.271781 195.969638 
L 249.405432 190.634102 
L 252.69725 190.634102 
L 252.846587 191.819777 
L 253.544126 191.819777 
L 253.675745 190.634102 
L 254.789668 190.634102 
L 254.911573 184.112893 
L 257.531261 184.112893 
L 257.65155 178.777357 
L 259.046596 178.777357 
L 259.167873 172.848985 
L 259.886395 172.848985 
L 260.007282 170.477636 
L 260.246206 170.477636 
L 260.377082 167.513449 
L 263.029922 167.513449 
L 263.150791 160.992239 
L 267.394585 160.992239 
L 267.515487 170.477636 
L 268.712111 170.477636 
L 268.843109 172.848985 
L 269.680209 172.848985 
L 269.802993 170.477636 
L 269.925193 170.477636 
L 270.055884 172.848985 
L 273.483763 172.848985 
L 273.604336 170.477636 
L 273.964576 170.477636 
L 274.085377 172.848985 
L 275.29863 172.848985 
L 275.418989 178.777357 
L 276.024791 178.777357 
L 276.147969 191.819777 
L 276.724241 191.819777 
L 276.846297 195.969638 
L 277.071506 195.969638 
L 277.191975 202.490848 
L 282.644582 202.490848 
L 282.767851 191.819777 
L 283.857271 191.819777 
L 283.976781 202.490848 
L 284.949567 202.490848 
L 285.065367 190.634102 
L 286.256214 190.634102 
L 286.402315 184.112893 
L 286.869105 184.112893 
L 286.986655 181.148706 
L 287.579638 181.148706 
L 287.70547 178.777357 
L 289.418576 178.777357 
L 289.538042 172.848985 
L 290.363604 172.848985 
L 290.484868 167.513449 
L 291.675753 167.513449 
L 291.78766 172.848985 
L 292.986205 172.848985 
L 293.136297 160.992239 
L 295.948393 160.992239 
L 296.080143 155.656704 
L 299.875063 155.656704 
L 300.044434 160.992239 
L 301.092079 160.992239 
L 301.226463 184.112893 
L 302.785438 184.112893 
L 302.919181 195.969638 
L 304.127807 195.969638 
L 304.252496 214.347593 
L 305.722817 214.347593 
L 305.86614 223.832989 
L 307.53563 223.832989 
L 307.653752 234.50406 
L 309.813146 234.50406 
L 309.933205 223.832989 
L 311.136828 223.832989 
L 311.255737 226.204338 
L 312.796119 226.204338 
L 312.914197 223.832989 
L 313.391638 223.832989 
L 313.512282 226.204338 
L 315.673727 226.204338 
L 315.794089 232.132711 
L 319.676454 232.132711 
L 319.797763 223.832989 
L 321.053765 223.832989 
L 321.178413 213.161918 
L 322.581454 213.161918 
L 322.71802 181.148706 
L 323.20373 181.148706 
L 323.325564 172.848985 
L 324.510349 172.848985 
L 324.639577 137.278749 
L 325.803057 137.278749 
L 325.92524 114.158096 
L 327.371891 114.158096 
L 327.503281 102.301351 
L 328.653046 102.301351 
L 328.786046 89.258931 
L 329.967028 89.258931 
L 330.084771 95.780141 
L 331.167566 95.780141 
L 331.302178 107.636886 
L 333.795001 107.636886 
L 333.92444 125.422004 
L 334.13981 125.422004 
L 334.274687 155.656704 
L 335.836223 155.656704 
L 335.950183 167.513449 
L 336.695489 167.513449 
L 336.824083 172.848985 
L 338.018558 172.848985 
L 338.156846 184.112893 
L 339.45892 184.112893 
L 339.582559 190.634102 
L 341.010784 190.634102 
L 341.130051 202.490848 
L 341.731673 202.490848 
L 341.853335 223.832989 
L 342.579567 223.832989 
L 342.700505 214.347593 
L 342.942197 214.347593 
L 343.060338 223.832989 
L 344.838086 223.832989 
L 344.959199 226.204338 
L 345.547173 226.204338 
L 345.666306 223.832989 
L 346.265788 223.832989 
L 346.385427 237.468246 
L 348.296111 237.468246 
L 348.415472 245.17513 
L 348.533196 245.17513 
L 348.650801 234.50406 
L 348.894592 234.50406 
L 349.013167 237.468246 
L 350.537946 237.468246 
L 350.660952 214.347593 
L 351.858388 214.347593 
L 351.98261 190.634102 
L 353.290446 190.634102 
L 353.410832 149.135494 
L 354.57786 149.135494 
L 354.700931 114.158096 
L 355.885385 114.158096 
L 356.01645 83.923396 
L 357.288906 83.923396 
L 357.408473 66.138278 
L 358.701541 66.138278 
L 358.825756 54.281533 
L 359.983171 54.281533 
L 360.106433 35.903578 
L 361.43036 35.903578 
L 361.582335 42.424787 
L 363.962812 42.424787 
L 364.117731 72.06665 
L 365.380057 72.06665 
L 365.512877 95.780141 
L 366.756437 95.780141 
L 366.898975 125.422004 
L 369.277885 125.422004 
L 369.399926 137.278749 
L 369.520289 137.278749 
L 369.640431 155.656704 
L 370.821294 155.656704 
L 370.943715 172.848985 
L 373.184403 172.848985 
L 373.302066 184.112893 
L 373.880015 184.112893 
L 373.999104 190.634102 
L 375.306449 190.634102 
L 375.42947 195.969638 
L 377.108005 195.969638 
L 377.227971 213.161918 
L 377.713731 213.161918 
L 377.83523 202.490848 
L 378.439074 202.490848 
L 378.558079 213.161918 
L 379.99204 213.161918 
L 380.116714 223.832989 
L 380.362367 223.832989 
L 380.490547 209.012057 
L 380.817896 209.012057 
L 380.944245 213.161918 
L 381.496072 213.161918 
L 381.618565 234.50406 
L 381.856952 234.50406 
L 381.977442 226.204338 
L 382.221919 226.204338 
L 382.345239 223.832989 
L 383.190125 223.832989 
L 383.315278 202.490848 
L 384.585004 202.490848 
L 384.705622 184.112893 
L 385.930804 184.112893 
L 386.052021 155.656704 
L 388.318198 155.656704 
L 388.440724 119.493631 
L 388.566208 119.493631 
L 388.687529 95.780141 
L 390.120077 95.780141 
L 390.239473 77.402186 
L 391.343193 77.402186 
L 391.465078 66.138278 
L 393.662167 66.138278 
L 393.782418 54.281533 
L 396.323289 54.281533 
L 396.449703 60.802743 
L 396.689888 60.802743 
L 396.811786 83.923396 
L 398.134751 83.923396 
L 398.260348 102.301351 
L 399.493112 102.301351 
L 399.625934 125.422004 
L 400.808352 125.422004 
L 400.930251 137.278749 
L 402.429976 137.278749 
L 402.578202 149.135494 
L 403.694852 149.135494 
L 403.814506 155.656704 
L 405.860708 155.656704 
L 405.98198 167.513449 
L 406.230365 167.513449 
L 406.351632 184.112893 
L 408.017809 184.112893 
L 408.137812 195.969638 
L 409.107927 195.969638 
L 409.227537 202.490848 
L 410.428623 202.490848 
L 410.549415 209.012057 
L 412.232933 209.012057 
L 412.353256 220.868803 
L 413.923398 220.868803 
L 414.044573 213.161918 
L 416.818055 213.161918 
L 416.940565 202.490848 
L 418.160406 202.490848 
L 418.284742 184.112893 
L 418.628909 184.112893 
L 418.749671 167.513449 
L 422.249512 167.513449 
L 422.370648 125.422004 
L 423.581678 125.422004 
L 423.702131 107.636886 
L 425.385841 107.636886 
L 425.506747 102.301351 
L 426.789178 102.301351 
L 426.911326 107.636886 
L 428.331925 107.636886 
L 428.454479 114.158096 
L 429.60862 114.158096 
L 429.735081 125.422004 
L 431.575455 125.422004 
L 431.575455 125.422004 
" style="fill:none;stroke:#ff7f0e;stroke-linecap:square;stroke-width:1.5;"/>
   </g>
   <g id="patch_3">
    <path d="M 44.66 255.638708 
L 44.66 25.44 
" style="fill:none;stroke:#000000;stroke-linecap:square;stroke-linejoin:miter;stroke-width:0.8;"/>
   </g>
   <g id="patch_4">
    <path d="M 450 255.638708 
L 450 25.44 
" style="fill:none;stroke:#000000;stroke-linecap:square;stroke-linejoin:miter;stroke-width:0.8;"/>
   </g>
   <g id="patch_5">
    <path d="M 44.66 255.638708 
L 450 255.638708 
" style="fill:none;stroke:#000000;stroke-linecap:square;stroke-linejoin:miter;stroke-width:0.8;"/>
   </g>
   <g id="patch_6">
    <path d="M 44.66 25.44 
L 450 25.44 
" style="fill:none;stroke:#000000;stroke-linecap:square;stroke-linejoin:miter;stroke-width:0.8;"/>
   </g>
   <g id="text_16">
    <!-- Lake Shoecraft - Water and Air Temperature -->
    <g transform="translate(115.711562 19.44)scale(0.12 -0.12)">
     <defs>
      <path d="M 9.8125 72.90625 
L 19.671875 72.90625 
L 19.671875 8.296875 
L 55.171875 8.296875 
L 55.171875 0 
L 9.8125 0 
z
" id="DejaVuSans-76"/>
      <path d="M 9.078125 75.984375 
L 18.109375 75.984375 
L 18.109375 31.109375 
L 44.921875 54.6875 
L 56.390625 54.6875 
L 27.390625 29.109375 
L 57.625 0 
L 45.90625 0 
L 18.109375 26.703125 
L 18.109375 0 
L 9.078125 0 
z
" id="DejaVuSans-107"/>
      <path d="M 53.515625 70.515625 
L 53.515625 60.890625 
Q 47.90625 63.578125 42.921875 64.890625 
Q 37.9375 66.21875 33.296875 66.21875 
Q 25.25 66.21875 20.875 63.09375 
Q 16.5 59.96875 16.5 54.203125 
Q 16.5 49.359375 19.40625 46.890625 
Q 22.3125 44.4375 30.421875 42.921875 
L 36.375 41.703125 
Q 47.40625 39.59375 52.65625 34.296875 
Q 57.90625 29 57.90625 20.125 
Q 57.90625 9.515625 50.796875 4.046875 
Q 43.703125 -1.421875 29.984375 -1.421875 
Q 24.8125 -1.421875 18.96875 -0.25 
Q 13.140625 0.921875 6.890625 3.21875 
L 6.890625 13.375 
Q 12.890625 10.015625 18.65625 8.296875 
Q 24.421875 6.59375 29.984375 6.59375 
Q 38.421875 6.59375 43.015625 9.90625 
Q 47.609375 13.234375 47.609375 19.390625 
Q 47.609375 24.75 44.3125 27.78125 
Q 41.015625 30.8125 33.5 32.328125 
L 27.484375 33.5 
Q 16.453125 35.6875 11.515625 40.375 
Q 6.59375 45.0625 6.59375 53.421875 
Q 6.59375 63.09375 13.40625 68.65625 
Q 20.21875 74.21875 32.171875 74.21875 
Q 37.3125 74.21875 42.625 73.28125 
Q 47.953125 72.359375 53.515625 70.515625 
z
" id="DejaVuSans-83"/>
      <path d="M 54.890625 33.015625 
L 54.890625 0 
L 45.90625 0 
L 45.90625 32.71875 
Q 45.90625 40.484375 42.875 44.328125 
Q 39.84375 48.1875 33.796875 48.1875 
Q 26.515625 48.1875 22.3125 43.546875 
Q 18.109375 38.921875 18.109375 30.90625 
L 18.109375 0 
L 9.078125 0 
L 9.078125 75.984375 
L 18.109375 75.984375 
L 18.109375 46.1875 
Q 21.34375 51.125 25.703125 53.5625 
Q 30.078125 56 35.796875 56 
Q 45.21875 56 50.046875 50.171875 
Q 54.890625 44.34375 54.890625 33.015625 
z
" id="DejaVuSans-104"/>
      <path d="M 30.609375 48.390625 
Q 23.390625 48.390625 19.1875 42.75 
Q 14.984375 37.109375 14.984375 27.296875 
Q 14.984375 17.484375 19.15625 11.84375 
Q 23.34375 6.203125 30.609375 6.203125 
Q 37.796875 6.203125 41.984375 11.859375 
Q 46.1875 17.53125 46.1875 27.296875 
Q 46.1875 37.015625 41.984375 42.703125 
Q 37.796875 48.390625 30.609375 48.390625 
z
M 30.609375 56 
Q 42.328125 56 49.015625 48.375 
Q 55.71875 40.765625 55.71875 27.296875 
Q 55.71875 13.875 49.015625 6.21875 
Q 42.328125 -1.421875 30.609375 -1.421875 
Q 18.84375 -1.421875 12.171875 6.21875 
Q 5.515625 13.875 5.515625 27.296875 
Q 5.515625 40.765625 12.171875 48.375 
Q 18.84375 56 30.609375 56 
z
" id="DejaVuSans-111"/>
      <path d="M 48.78125 52.59375 
L 48.78125 44.1875 
Q 44.96875 46.296875 41.140625 47.34375 
Q 37.3125 48.390625 33.40625 48.390625 
Q 24.65625 48.390625 19.8125 42.84375 
Q 14.984375 37.3125 14.984375 27.296875 
Q 14.984375 17.28125 19.8125 11.734375 
Q 24.65625 6.203125 33.40625 6.203125 
Q 37.3125 6.203125 41.140625 7.25 
Q 44.96875 8.296875 48.78125 10.40625 
L 48.78125 2.09375 
Q 45.015625 0.34375 40.984375 -0.53125 
Q 36.96875 -1.421875 32.421875 -1.421875 
Q 20.0625 -1.421875 12.78125 6.34375 
Q 5.515625 14.109375 5.515625 27.296875 
Q 5.515625 40.671875 12.859375 48.328125 
Q 20.21875 56 33.015625 56 
Q 37.15625 56 41.109375 55.140625 
Q 45.0625 54.296875 48.78125 52.59375 
z
" id="DejaVuSans-99"/>
      <path d="M 37.109375 75.984375 
L 37.109375 68.5 
L 28.515625 68.5 
Q 23.6875 68.5 21.796875 66.546875 
Q 19.921875 64.59375 19.921875 59.515625 
L 19.921875 54.6875 
L 34.71875 54.6875 
L 34.71875 47.703125 
L 19.921875 47.703125 
L 19.921875 0 
L 10.890625 0 
L 10.890625 47.703125 
L 2.296875 47.703125 
L 2.296875 54.6875 
L 10.890625 54.6875 
L 10.890625 58.5 
Q 10.890625 67.625 15.140625 71.796875 
Q 19.390625 75.984375 28.609375 75.984375 
z
" id="DejaVuSans-102"/>
      <path d="M 3.328125 72.90625 
L 13.28125 72.90625 
L 28.609375 11.28125 
L 43.890625 72.90625 
L 54.984375 72.90625 
L 70.3125 11.28125 
L 85.59375 72.90625 
L 95.609375 72.90625 
L 77.296875 0 
L 64.890625 0 
L 49.515625 63.28125 
L 33.984375 0 
L 21.578125 0 
z
" id="DejaVuSans-87"/>
      <path d="M 54.890625 33.015625 
L 54.890625 0 
L 45.90625 0 
L 45.90625 32.71875 
Q 45.90625 40.484375 42.875 44.328125 
Q 39.84375 48.1875 33.796875 48.1875 
Q 26.515625 48.1875 22.3125 43.546875 
Q 18.109375 38.921875 18.109375 30.90625 
L 18.109375 0 
L 9.078125 0 
L 9.078125 54.6875 
L 18.109375 54.6875 
L 18.109375 46.1875 
Q 21.34375 51.125 25.703125 53.5625 
Q 30.078125 56 35.796875 56 
Q 45.21875 56 50.046875 50.171875 
Q 54.890625 44.34375 54.890625 33.015625 
z
" id="DejaVuSans-110"/>
      <path d="M 45.40625 46.390625 
L 45.40625 75.984375 
L 54.390625 75.984375 
L 54.390625 0 
L 45.40625 0 
L 45.40625 8.203125 
Q 42.578125 3.328125 38.25 0.953125 
Q 33.9375 -1.421875 27.875 -1.421875 
Q 17.96875 -1.421875 11.734375 6.484375 
Q 5.515625 14.40625 5.515625 27.296875 
Q 5.515625 40.1875 11.734375 48.09375 
Q 17.96875 56 27.875 56 
Q 33.9375 56 38.25 53.625 
Q 42.578125 51.265625 45.40625 46.390625 
z
M 14.796875 27.296875 
Q 14.796875 17.390625 18.875 11.75 
Q 22.953125 6.109375 30.078125 6.109375 
Q 37.203125 6.109375 41.296875 11.75 
Q 45.40625 17.390625 45.40625 27.296875 
Q 45.40625 37.203125 41.296875 42.84375 
Q 37.203125 48.484375 30.078125 48.484375 
Q 22.953125 48.484375 18.875 42.84375 
Q 14.796875 37.203125 14.796875 27.296875 
z
" id="DejaVuSans-100"/>
      <path d="M 34.1875 63.1875 
L 20.796875 26.90625 
L 47.609375 26.90625 
z
M 28.609375 72.90625 
L 39.796875 72.90625 
L 67.578125 0 
L 57.328125 0 
L 50.6875 18.703125 
L 17.828125 18.703125 
L 11.1875 0 
L 0.78125 0 
z
" id="DejaVuSans-65"/>
      <path d="M 9.421875 54.6875 
L 18.40625 54.6875 
L 18.40625 0 
L 9.421875 0 
z
M 9.421875 75.984375 
L 18.40625 75.984375 
L 18.40625 64.59375 
L 9.421875 64.59375 
z
" id="DejaVuSans-105"/>
     </defs>
     <use xlink:href="#DejaVuSans-76"/>
     <use x="55.712891" xlink:href="#DejaVuSans-97"/>
     <use x="116.992188" xlink:href="#DejaVuSans-107"/>
     <use x="171.277344" xlink:href="#DejaVuSans-101"/>
     <use x="232.800781" xlink:href="#DejaVuSans-32"/>
     <use x="264.587891" xlink:href="#DejaVuSans-83"/>
     <use x="328.064453" xlink:href="#DejaVuSans-104"/>
     <use x="391.443359" xlink:href="#DejaVuSans-111"/>
     <use x="452.625" xlink:href="#DejaVuSans-101"/>
     <use x="514.148438" xlink:href="#DejaVuSans-99"/>
     <use x="569.128906" xlink:href="#DejaVuSans-114"/>
     <use x="610.242188" xlink:href="#DejaVuSans-97"/>
     <use x="671.521484" xlink:href="#DejaVuSans-102"/>
     <use x="704.976562" xlink:href="#DejaVuSans-116"/>
     <use x="744.185547" xlink:href="#DejaVuSans-32"/>
     <use x="775.972656" xlink:href="#DejaVuSans-45"/>
     <use x="812.056641" xlink:href="#DejaVuSans-32"/>
     <use x="843.84375" xlink:href="#DejaVuSans-87"/>
     <use x="936.345703" xlink:href="#DejaVuSans-97"/>
     <use x="997.625" xlink:href="#DejaVuSans-116"/>
     <use x="1036.833984" xlink:href="#DejaVuSans-101"/>
     <use x="1098.357422" xlink:href="#DejaVuSans-114"/>
     <use x="1139.470703" xlink:href="#DejaVuSans-32"/>
     <use x="1171.257812" xlink:href="#DejaVuSans-97"/>
     <use x="1232.537109" xlink:href="#DejaVuSans-110"/>
     <use x="1295.916016" xlink:href="#DejaVuSans-100"/>
     <use x="1359.392578" xlink:href="#DejaVuSans-32"/>
     <use x="1391.179688" xlink:href="#DejaVuSans-65"/>
     <use x="1459.587891" xlink:href="#DejaVuSans-105"/>
     <use x="1487.371094" xlink:href="#DejaVuSans-114"/>
     <use x="1528.484375" xlink:href="#DejaVuSans-32"/>
     <use x="1560.271484" xlink:href="#DejaVuSans-84"/>
     <use x="1604.355469" xlink:href="#DejaVuSans-101"/>
     <use x="1665.878906" xlink:href="#DejaVuSans-109"/>
     <use x="1763.291016" xlink:href="#DejaVuSans-112"/>
     <use x="1826.767578" xlink:href="#DejaVuSans-101"/>
     <use x="1888.291016" xlink:href="#DejaVuSans-114"/>
     <use x="1929.404297" xlink:href="#DejaVuSans-97"/>
     <use x="1990.683594" xlink:href="#DejaVuSans-116"/>
     <use x="2029.892578" xlink:href="#DejaVuSans-117"/>
     <use x="2093.271484" xlink:href="#DejaVuSans-114"/>
     <use x="2132.134766" xlink:href="#DejaVuSans-101"/>
    </g>
   </g>
   <g id="legend_1">
    <g id="patch_7">
     <path d="M 51.66 62.79625 
L 136.769375 62.79625 
Q 138.769375 62.79625 138.769375 60.79625 
L 138.769375 32.44 
Q 138.769375 30.44 136.769375 30.44 
L 51.66 30.44 
Q 49.66 30.44 49.66 32.44 
L 49.66 60.79625 
Q 49.66 62.79625 51.66 62.79625 
z
" style="fill:#ffffff;opacity:0.8;stroke:#cccccc;stroke-linejoin:miter;"/>
    </g>
    <g id="line2d_29">
     <path d="M 53.66 38.538437 
L 73.66 38.538437 
" style="fill:none;stroke:#1f77b4;stroke-linecap:square;stroke-width:1.5;"/>
    </g>
    <g id="line2d_30"/>
    <g id="text_17">
     <!-- Lake Temp -->
     <g transform="translate(81.66 42.038437)scale(0.1 -0.1)">
      <use xlink:href="#DejaVuSans-76"/>
      <use x="55.712891" xlink:href="#DejaVuSans-97"/>
      <use x="116.992188" xlink:href="#DejaVuSans-107"/>
      <use x="171.277344" xlink:href="#DejaVuSans-101"/>
      <use x="232.800781" xlink:href="#DejaVuSans-32"/>
      <use x="264.587891" xlink:href="#DejaVuSans-84"/>
      <use x="308.671875" xlink:href="#DejaVuSans-101"/>
      <use x="370.195312" xlink:href="#DejaVuSans-109"/>
      <use x="467.607422" xlink:href="#DejaVuSans-112"/>
     </g>
    </g>
    <g id="line2d_31">
     <path d="M 53.66 53.216562 
L 73.66 53.216562 
" style="fill:none;stroke:#ff7f0e;stroke-linecap:square;stroke-width:1.5;"/>
    </g>
    <g id="line2d_32"/>
    <g id="text_18">
     <!-- Air Temp -->
     <g transform="translate(81.66 56.716562)scale(0.1 -0.1)">
      <use xlink:href="#DejaVuSans-65"/>
      <use x="68.408203" xlink:href="#DejaVuSans-105"/>
      <use x="96.191406" xlink:href="#DejaVuSans-114"/>
      <use x="137.304688" xlink:href="#DejaVuSans-32"/>
      <use x="169.091797" xlink:href="#DejaVuSans-84"/>
      <use x="213.175781" xlink:href="#DejaVuSans-101"/>
      <use x="274.699219" xlink:href="#DejaVuSans-109"/>
      <use x="372.111328" xlink:href="#DejaVuSans-112"/>
     </g>
    </g>
   </g>
  </g>
 </g>
 <defs>
  <clipPath id="pc8cd6b3e84">
   <rect height="230.198708" width="405.34" x="44.66" y="25.44"/>
  </clipPath>
 </defs>
</svg>
