<?xml version="1.0" encoding="utf-8" standalone="no"?>
<!DOCTYPE svg PUBLIC "-//W3C//DTD SVG 1.1//EN"
  "http://www.w3.org/Graphics/SVG/1.1/DTD/svg11.dtd">
<!-- Created with matplotlib (https://matplotlib.org/) -->
<svg height="345.6pt" version="1.1" viewBox="0 0 460.8 345.6" width="460.8pt" xmlns="http://www.w3.org/2000/svg" xmlns:xlink="http://www.w3.org/1999/xlink">
 <metadata>
  <rdf:RDF xmlns:cc="http://creativecommons.org/ns#" xmlns:dc="http://purl.org/dc/elements/1.1/" xmlns:rdf="http://www.w3.org/1999/02/22-rdf-syntax-ns#">
   <cc:Work>
    <dc:type rdf:resource="http://purl.org/dc/dcmitype/StillImage"/>
    <dc:date>2024-09-03T06:55:51.163213</dc:date>
    <dc:format>image/svg+xml</dc:format>
    <dc:creator>
     <cc:Agent>
      <dc:title>Matplotlib v3.3.2, https://matplotlib.org/</dc:title>
     </cc:Agent>
    </dc:creator>
   </cc:Work>
  </rdf:RDF>
 </metadata>
 <defs>
  <style type="text/css">*{stroke-linecap:butt;stroke-linejoin:round;}</style>
 </defs>
 <g id="figure_1">
  <g id="patch_1">
   <path d="M 0 345.6 
L 460.8 345.6 
L 460.8 0 
L 0 0 
z
" style="fill:none;"/>
  </g>
  <g id="axes_1">
   <g id="patch_2">
    <path d="M 44.66 255.638708 
L 450 255.638708 
L 450 25.44 
L 44.66 25.44 
z
" style="fill:none;"/>
   </g>
   <g id="matplotlib.axis_1">
    <g id="xtick_1">
     <g id="line2d_1">
      <path clip-path="url(#pfb44554494)" d="M 86.312663 255.638708 
L 86.312663 25.44 
" style="fill:none;stroke:#b0b0b0;stroke-linecap:square;stroke-width:0.8;"/>
     </g>
     <g id="line2d_2">
      <defs>
       <path d="M 0 0 
L 0 3.5 
" id="m874c4ff7d6" style="stroke:#000000;stroke-width:0.8;"/>
      </defs>
      <g>
       <use style="stroke:#000000;stroke-width:0.8;" x="86.312663" xlink:href="#m874c4ff7d6" y="255.638708"/>
      </g>
     </g>
     <g id="text_1">
      <!-- 2024-08-28 -->
      <g transform="translate(78.96727 319.848351)rotate(-70)scale(0.1 -0.1)">
       <defs>
        <path d="M 19.1875 8.296875 
L 53.609375 8.296875 
L 53.609375 0 
L 7.328125 0 
L 7.328125 8.296875 
Q 12.9375 14.109375 22.625 23.890625 
Q 32.328125 33.6875 34.8125 36.53125 
Q 39.546875 41.84375 41.421875 45.53125 
Q 43.3125 49.21875 43.3125 52.78125 
Q 43.3125 58.59375 39.234375 62.25 
Q 35.15625 65.921875 28.609375 65.921875 
Q 23.96875 65.921875 18.8125 64.3125 
Q 13.671875 62.703125 7.8125 59.421875 
L 7.8125 69.390625 
Q 13.765625 71.78125 18.9375 73 
Q 24.125 74.21875 28.421875 74.21875 
Q 39.75 74.21875 46.484375 68.546875 
Q 53.21875 62.890625 53.21875 53.421875 
Q 53.21875 48.921875 51.53125 44.890625 
Q 49.859375 40.875 45.40625 35.40625 
Q 44.1875 33.984375 37.640625 27.21875 
Q 31.109375 20.453125 19.1875 8.296875 
z
" id="DejaVuSans-50"/>
        <path d="M 31.78125 66.40625 
Q 24.171875 66.40625 20.328125 58.90625 
Q 16.5 51.421875 16.5 36.375 
Q 16.5 21.390625 20.328125 13.890625 
Q 24.171875 6.390625 31.78125 6.390625 
Q 39.453125 6.390625 43.28125 13.890625 
Q 47.125 21.390625 47.125 36.375 
Q 47.125 51.421875 43.28125 58.90625 
Q 39.453125 66.40625 31.78125 66.40625 
z
M 31.78125 74.21875 
Q 44.046875 74.21875 50.515625 64.515625 
Q 56.984375 54.828125 56.984375 36.375 
Q 56.984375 17.96875 50.515625 8.265625 
Q 44.046875 -1.421875 31.78125 -1.421875 
Q 19.53125 -1.421875 13.0625 8.265625 
Q 6.59375 17.96875 6.59375 36.375 
Q 6.59375 54.828125 13.0625 64.515625 
Q 19.53125 74.21875 31.78125 74.21875 
z
" id="DejaVuSans-48"/>
        <path d="M 37.796875 64.3125 
L 12.890625 25.390625 
L 37.796875 25.390625 
z
M 35.203125 72.90625 
L 47.609375 72.90625 
L 47.609375 25.390625 
L 58.015625 25.390625 
L 58.015625 17.1875 
L 47.609375 17.1875 
L 47.609375 0 
L 37.796875 0 
L 37.796875 17.1875 
L 4.890625 17.1875 
L 4.890625 26.703125 
z
" id="DejaVuSans-52"/>
        <path d="M 4.890625 31.390625 
L 31.203125 31.390625 
L 31.203125 23.390625 
L 4.890625 23.390625 
z
" id="DejaVuSans-45"/>
        <path d="M 31.78125 34.625 
Q 24.75 34.625 20.71875 30.859375 
Q 16.703125 27.09375 16.703125 20.515625 
Q 16.703125 13.921875 20.71875 10.15625 
Q 24.75 6.390625 31.78125 6.390625 
Q 38.8125 6.390625 42.859375 10.171875 
Q 46.921875 13.96875 46.921875 20.515625 
Q 46.921875 27.09375 42.890625 30.859375 
Q 38.875 34.625 31.78125 34.625 
z
M 21.921875 38.8125 
Q 15.578125 40.375 12.03125 44.71875 
Q 8.5 49.078125 8.5 55.328125 
Q 8.5 64.0625 14.71875 69.140625 
Q 20.953125 74.21875 31.78125 74.21875 
Q 42.671875 74.21875 48.875 69.140625 
Q 55.078125 64.0625 55.078125 55.328125 
Q 55.078125 49.078125 51.53125 44.71875 
Q 48 40.375 41.703125 38.8125 
Q 48.828125 37.15625 52.796875 32.3125 
Q 56.78125 27.484375 56.78125 20.515625 
Q 56.78125 9.90625 50.3125 4.234375 
Q 43.84375 -1.421875 31.78125 -1.421875 
Q 19.734375 -1.421875 13.25 4.234375 
Q 6.78125 9.90625 6.78125 20.515625 
Q 6.78125 27.484375 10.78125 32.3125 
Q 14.796875 37.15625 21.921875 38.8125 
z
M 18.3125 54.390625 
Q 18.3125 48.734375 21.84375 45.5625 
Q 25.390625 42.390625 31.78125 42.390625 
Q 38.140625 42.390625 41.71875 45.5625 
Q 45.3125 48.734375 45.3125 54.390625 
Q 45.3125 60.0625 41.71875 63.234375 
Q 38.140625 66.40625 31.78125 66.40625 
Q 25.390625 66.40625 21.84375 63.234375 
Q 18.3125 60.0625 18.3125 54.390625 
z
" id="DejaVuSans-56"/>
       </defs>
       <use xlink:href="#DejaVuSans-50"/>
       <use x="63.623047" xlink:href="#DejaVuSans-48"/>
       <use x="127.246094" xlink:href="#DejaVuSans-50"/>
       <use x="190.869141" xlink:href="#DejaVuSans-52"/>
       <use x="254.492188" xlink:href="#DejaVuSans-45"/>
       <use x="290.576172" xlink:href="#DejaVuSans-48"/>
       <use x="354.199219" xlink:href="#DejaVuSans-56"/>
       <use x="417.822266" xlink:href="#DejaVuSans-45"/>
       <use x="453.90625" xlink:href="#DejaVuSans-50"/>
       <use x="517.529297" xlink:href="#DejaVuSans-56"/>
      </g>
     </g>
    </g>
    <g id="xtick_2">
     <g id="line2d_3">
      <path clip-path="url(#pfb44554494)" d="M 141.216264 255.638708 
L 141.216264 25.44 
" style="fill:none;stroke:#b0b0b0;stroke-linecap:square;stroke-width:0.8;"/>
     </g>
     <g id="line2d_4">
      <g>
       <use style="stroke:#000000;stroke-width:0.8;" x="141.216264" xlink:href="#m874c4ff7d6" y="255.638708"/>
      </g>
     </g>
     <g id="text_2">
      <!-- 2024-08-29 -->
      <g transform="translate(133.870871 319.848351)rotate(-70)scale(0.1 -0.1)">
       <defs>
        <path d="M 10.984375 1.515625 
L 10.984375 10.5 
Q 14.703125 8.734375 18.5 7.8125 
Q 22.3125 6.890625 25.984375 6.890625 
Q 35.75 6.890625 40.890625 13.453125 
Q 46.046875 20.015625 46.78125 33.40625 
Q 43.953125 29.203125 39.59375 26.953125 
Q 35.25 24.703125 29.984375 24.703125 
Q 19.046875 24.703125 12.671875 31.3125 
Q 6.296875 37.9375 6.296875 49.421875 
Q 6.296875 60.640625 12.9375 67.421875 
Q 19.578125 74.21875 30.609375 74.21875 
Q 43.265625 74.21875 49.921875 64.515625 
Q 56.59375 54.828125 56.59375 36.375 
Q 56.59375 19.140625 48.40625 8.859375 
Q 40.234375 -1.421875 26.421875 -1.421875 
Q 22.703125 -1.421875 18.890625 -0.6875 
Q 15.09375 0.046875 10.984375 1.515625 
z
M 30.609375 32.421875 
Q 37.25 32.421875 41.125 36.953125 
Q 45.015625 41.5 45.015625 49.421875 
Q 45.015625 57.28125 41.125 61.84375 
Q 37.25 66.40625 30.609375 66.40625 
Q 23.96875 66.40625 20.09375 61.84375 
Q 16.21875 57.28125 16.21875 49.421875 
Q 16.21875 41.5 20.09375 36.953125 
Q 23.96875 32.421875 30.609375 32.421875 
z
" id="DejaVuSans-57"/>
       </defs>
       <use xlink:href="#DejaVuSans-50"/>
       <use x="63.623047" xlink:href="#DejaVuSans-48"/>
       <use x="127.246094" xlink:href="#DejaVuSans-50"/>
       <use x="190.869141" xlink:href="#DejaVuSans-52"/>
       <use x="254.492188" xlink:href="#DejaVuSans-45"/>
       <use x="290.576172" xlink:href="#DejaVuSans-48"/>
       <use x="354.199219" xlink:href="#DejaVuSans-56"/>
       <use x="417.822266" xlink:href="#DejaVuSans-45"/>
       <use x="453.90625" xlink:href="#DejaVuSans-50"/>
       <use x="517.529297" xlink:href="#DejaVuSans-57"/>
      </g>
     </g>
    </g>
    <g id="xtick_3">
     <g id="line2d_5">
      <path clip-path="url(#pfb44554494)" d="M 196.119866 255.638708 
L 196.119866 25.44 
" style="fill:none;stroke:#b0b0b0;stroke-linecap:square;stroke-width:0.8;"/>
     </g>
     <g id="line2d_6">
      <g>
       <use style="stroke:#000000;stroke-width:0.8;" x="196.119866" xlink:href="#m874c4ff7d6" y="255.638708"/>
      </g>
     </g>
     <g id="text_3">
      <!-- 2024-08-30 -->
      <g transform="translate(188.774473 319.848351)rotate(-70)scale(0.1 -0.1)">
       <defs>
        <path d="M 40.578125 39.3125 
Q 47.65625 37.796875 51.625 33 
Q 55.609375 28.21875 55.609375 21.1875 
Q 55.609375 10.40625 48.1875 4.484375 
Q 40.765625 -1.421875 27.09375 -1.421875 
Q 22.515625 -1.421875 17.65625 -0.515625 
Q 12.796875 0.390625 7.625 2.203125 
L 7.625 11.71875 
Q 11.71875 9.328125 16.59375 8.109375 
Q 21.484375 6.890625 26.8125 6.890625 
Q 36.078125 6.890625 40.9375 10.546875 
Q 45.796875 14.203125 45.796875 21.1875 
Q 45.796875 27.640625 41.28125 31.265625 
Q 36.765625 34.90625 28.71875 34.90625 
L 20.21875 34.90625 
L 20.21875 43.015625 
L 29.109375 43.015625 
Q 36.375 43.015625 40.234375 45.921875 
Q 44.09375 48.828125 44.09375 54.296875 
Q 44.09375 59.90625 40.109375 62.90625 
Q 36.140625 65.921875 28.71875 65.921875 
Q 24.65625 65.921875 20.015625 65.03125 
Q 15.375 64.15625 9.8125 62.3125 
L 9.8125 71.09375 
Q 15.4375 72.65625 20.34375 73.4375 
Q 25.25 74.21875 29.59375 74.21875 
Q 40.828125 74.21875 47.359375 69.109375 
Q 53.90625 64.015625 53.90625 55.328125 
Q 53.90625 49.265625 50.4375 45.09375 
Q 46.96875 40.921875 40.578125 39.3125 
z
" id="DejaVuSans-51"/>
       </defs>
       <use xlink:href="#DejaVuSans-50"/>
       <use x="63.623047" xlink:href="#DejaVuSans-48"/>
       <use x="127.246094" xlink:href="#DejaVuSans-50"/>
       <use x="190.869141" xlink:href="#DejaVuSans-52"/>
       <use x="254.492188" xlink:href="#DejaVuSans-45"/>
       <use x="290.576172" xlink:href="#DejaVuSans-48"/>
       <use x="354.199219" xlink:href="#DejaVuSans-56"/>
       <use x="417.822266" xlink:href="#DejaVuSans-45"/>
       <use x="453.90625" xlink:href="#DejaVuSans-51"/>
       <use x="517.529297" xlink:href="#DejaVuSans-48"/>
      </g>
     </g>
    </g>
    <g id="xtick_4">
     <g id="line2d_7">
      <path clip-path="url(#pfb44554494)" d="M 251.023467 255.638708 
L 251.023467 25.44 
" style="fill:none;stroke:#b0b0b0;stroke-linecap:square;stroke-width:0.8;"/>
     </g>
     <g id="line2d_8">
      <g>
       <use style="stroke:#000000;stroke-width:0.8;" x="251.023467" xlink:href="#m874c4ff7d6" y="255.638708"/>
      </g>
     </g>
     <g id="text_4">
      <!-- 2024-08-31 -->
      <g transform="translate(243.678074 319.848351)rotate(-70)scale(0.1 -0.1)">
       <defs>
        <path d="M 12.40625 8.296875 
L 28.515625 8.296875 
L 28.515625 63.921875 
L 10.984375 60.40625 
L 10.984375 69.390625 
L 28.421875 72.90625 
L 38.28125 72.90625 
L 38.28125 8.296875 
L 54.390625 8.296875 
L 54.390625 0 
L 12.40625 0 
z
" id="DejaVuSans-49"/>
       </defs>
       <use xlink:href="#DejaVuSans-50"/>
       <use x="63.623047" xlink:href="#DejaVuSans-48"/>
       <use x="127.246094" xlink:href="#DejaVuSans-50"/>
       <use x="190.869141" xlink:href="#DejaVuSans-52"/>
       <use x="254.492188" xlink:href="#DejaVuSans-45"/>
       <use x="290.576172" xlink:href="#DejaVuSans-48"/>
       <use x="354.199219" xlink:href="#DejaVuSans-56"/>
       <use x="417.822266" xlink:href="#DejaVuSans-45"/>
       <use x="453.90625" xlink:href="#DejaVuSans-51"/>
       <use x="517.529297" xlink:href="#DejaVuSans-49"/>
      </g>
     </g>
    </g>
    <g id="xtick_5">
     <g id="line2d_9">
      <path clip-path="url(#pfb44554494)" d="M 305.927068 255.638708 
L 305.927068 25.44 
" style="fill:none;stroke:#b0b0b0;stroke-linecap:square;stroke-width:0.8;"/>
     </g>
     <g id="line2d_10">
      <g>
       <use style="stroke:#000000;stroke-width:0.8;" x="305.927068" xlink:href="#m874c4ff7d6" y="255.638708"/>
      </g>
     </g>
     <g id="text_5">
      <!-- 2024-09-01 -->
      <g transform="translate(298.581675 319.848351)rotate(-70)scale(0.1 -0.1)">
       <use xlink:href="#DejaVuSans-50"/>
       <use x="63.623047" xlink:href="#DejaVuSans-48"/>
       <use x="127.246094" xlink:href="#DejaVuSans-50"/>
       <use x="190.869141" xlink:href="#DejaVuSans-52"/>
       <use x="254.492188" xlink:href="#DejaVuSans-45"/>
       <use x="290.576172" xlink:href="#DejaVuSans-48"/>
       <use x="354.199219" xlink:href="#DejaVuSans-57"/>
       <use x="417.822266" xlink:href="#DejaVuSans-45"/>
       <use x="453.90625" xlink:href="#DejaVuSans-48"/>
       <use x="517.529297" xlink:href="#DejaVuSans-49"/>
      </g>
     </g>
    </g>
    <g id="xtick_6">
     <g id="line2d_11">
      <path clip-path="url(#pfb44554494)" d="M 360.830669 255.638708 
L 360.830669 25.44 
" style="fill:none;stroke:#b0b0b0;stroke-linecap:square;stroke-width:0.8;"/>
     </g>
     <g id="line2d_12">
      <g>
       <use style="stroke:#000000;stroke-width:0.8;" x="360.830669" xlink:href="#m874c4ff7d6" y="255.638708"/>
      </g>
     </g>
     <g id="text_6">
      <!-- 2024-09-02 -->
      <g transform="translate(353.485276 319.848351)rotate(-70)scale(0.1 -0.1)">
       <use xlink:href="#DejaVuSans-50"/>
       <use x="63.623047" xlink:href="#DejaVuSans-48"/>
       <use x="127.246094" xlink:href="#DejaVuSans-50"/>
       <use x="190.869141" xlink:href="#DejaVuSans-52"/>
       <use x="254.492188" xlink:href="#DejaVuSans-45"/>
       <use x="290.576172" xlink:href="#DejaVuSans-48"/>
       <use x="354.199219" xlink:href="#DejaVuSans-57"/>
       <use x="417.822266" xlink:href="#DejaVuSans-45"/>
       <use x="453.90625" xlink:href="#DejaVuSans-48"/>
       <use x="517.529297" xlink:href="#DejaVuSans-50"/>
      </g>
     </g>
    </g>
    <g id="xtick_7">
     <g id="line2d_13">
      <path clip-path="url(#pfb44554494)" d="M 415.73427 255.638708 
L 415.73427 25.44 
" style="fill:none;stroke:#b0b0b0;stroke-linecap:square;stroke-width:0.8;"/>
     </g>
     <g id="line2d_14">
      <g>
       <use style="stroke:#000000;stroke-width:0.8;" x="415.73427" xlink:href="#m874c4ff7d6" y="255.638708"/>
      </g>
     </g>
     <g id="text_7">
      <!-- 2024-09-03 -->
      <g transform="translate(408.388877 319.848351)rotate(-70)scale(0.1 -0.1)">
       <use xlink:href="#DejaVuSans-50"/>
       <use x="63.623047" xlink:href="#DejaVuSans-48"/>
       <use x="127.246094" xlink:href="#DejaVuSans-50"/>
       <use x="190.869141" xlink:href="#DejaVuSans-52"/>
       <use x="254.492188" xlink:href="#DejaVuSans-45"/>
       <use x="290.576172" xlink:href="#DejaVuSans-48"/>
       <use x="354.199219" xlink:href="#DejaVuSans-57"/>
       <use x="417.822266" xlink:href="#DejaVuSans-45"/>
       <use x="453.90625" xlink:href="#DejaVuSans-48"/>
       <use x="517.529297" xlink:href="#DejaVuSans-51"/>
      </g>
     </g>
    </g>
    <g id="text_8">
     <!-- Date -->
     <g transform="translate(235.379219 332.158083)scale(0.1 -0.1)">
      <defs>
       <path d="M 19.671875 64.796875 
L 19.671875 8.109375 
L 31.59375 8.109375 
Q 46.6875 8.109375 53.6875 14.9375 
Q 60.6875 21.78125 60.6875 36.53125 
Q 60.6875 51.171875 53.6875 57.984375 
Q 46.6875 64.796875 31.59375 64.796875 
z
M 9.8125 72.90625 
L 30.078125 72.90625 
Q 51.265625 72.90625 61.171875 64.09375 
Q 71.09375 55.28125 71.09375 36.53125 
Q 71.09375 17.671875 61.125 8.828125 
Q 51.171875 0 30.078125 0 
L 9.8125 0 
z
" id="DejaVuSans-68"/>
       <path d="M 34.28125 27.484375 
Q 23.390625 27.484375 19.1875 25 
Q 14.984375 22.515625 14.984375 16.5 
Q 14.984375 11.71875 18.140625 8.90625 
Q 21.296875 6.109375 26.703125 6.109375 
Q 34.1875 6.109375 38.703125 11.40625 
Q 43.21875 16.703125 43.21875 25.484375 
L 43.21875 27.484375 
z
M 52.203125 31.203125 
L 52.203125 0 
L 43.21875 0 
L 43.21875 8.296875 
Q 40.140625 3.328125 35.546875 0.953125 
Q 30.953125 -1.421875 24.3125 -1.421875 
Q 15.921875 -1.421875 10.953125 3.296875 
Q 6 8.015625 6 15.921875 
Q 6 25.140625 12.171875 29.828125 
Q 18.359375 34.515625 30.609375 34.515625 
L 43.21875 34.515625 
L 43.21875 35.40625 
Q 43.21875 41.609375 39.140625 45 
Q 35.0625 48.390625 27.6875 48.390625 
Q 23 48.390625 18.546875 47.265625 
Q 14.109375 46.140625 10.015625 43.890625 
L 10.015625 52.203125 
Q 14.9375 54.109375 19.578125 55.046875 
Q 24.21875 56 28.609375 56 
Q 40.484375 56 46.34375 49.84375 
Q 52.203125 43.703125 52.203125 31.203125 
z
" id="DejaVuSans-97"/>
       <path d="M 18.3125 70.21875 
L 18.3125 54.6875 
L 36.8125 54.6875 
L 36.8125 47.703125 
L 18.3125 47.703125 
L 18.3125 18.015625 
Q 18.3125 11.328125 20.140625 9.421875 
Q 21.96875 7.515625 27.59375 7.515625 
L 36.8125 7.515625 
L 36.8125 0 
L 27.59375 0 
Q 17.1875 0 13.234375 3.875 
Q 9.28125 7.765625 9.28125 18.015625 
L 9.28125 47.703125 
L 2.6875 47.703125 
L 2.6875 54.6875 
L 9.28125 54.6875 
L 9.28125 70.21875 
z
" id="DejaVuSans-116"/>
       <path d="M 56.203125 29.59375 
L 56.203125 25.203125 
L 14.890625 25.203125 
Q 15.484375 15.921875 20.484375 11.0625 
Q 25.484375 6.203125 34.421875 6.203125 
Q 39.59375 6.203125 44.453125 7.46875 
Q 49.3125 8.734375 54.109375 11.28125 
L 54.109375 2.78125 
Q 49.265625 0.734375 44.1875 -0.34375 
Q 39.109375 -1.421875 33.890625 -1.421875 
Q 20.796875 -1.421875 13.15625 6.1875 
Q 5.515625 13.8125 5.515625 26.8125 
Q 5.515625 40.234375 12.765625 48.109375 
Q 20.015625 56 32.328125 56 
Q 43.359375 56 49.78125 48.890625 
Q 56.203125 41.796875 56.203125 29.59375 
z
M 47.21875 32.234375 
Q 47.125 39.59375 43.09375 43.984375 
Q 39.0625 48.390625 32.421875 48.390625 
Q 24.90625 48.390625 20.390625 44.140625 
Q 15.875 39.890625 15.1875 32.171875 
z
" id="DejaVuSans-101"/>
      </defs>
      <use xlink:href="#DejaVuSans-68"/>
      <use x="77.001953" xlink:href="#DejaVuSans-97"/>
      <use x="138.28125" xlink:href="#DejaVuSans-116"/>
      <use x="177.490234" xlink:href="#DejaVuSans-101"/>
     </g>
    </g>
   </g>
   <g id="matplotlib.axis_2">
    <g id="ytick_1">
     <g id="line2d_15">
      <path clip-path="url(#pfb44554494)" d="M 44.66 232.095658 
L 450 232.095658 
" style="fill:none;stroke:#b0b0b0;stroke-linecap:square;stroke-width:0.8;"/>
     </g>
     <g id="line2d_16">
      <defs>
       <path d="M 0 0 
L -3.5 0 
" id="mfcf7282a6d" style="stroke:#000000;stroke-width:0.8;"/>
      </defs>
      <g>
       <use style="stroke:#000000;stroke-width:0.8;" x="44.66" xlink:href="#mfcf7282a6d" y="232.095658"/>
      </g>
     </g>
     <g id="text_9">
      <!-- 60 -->
      <g transform="translate(24.935 235.894877)scale(0.1 -0.1)">
       <defs>
        <path d="M 33.015625 40.375 
Q 26.375 40.375 22.484375 35.828125 
Q 18.609375 31.296875 18.609375 23.390625 
Q 18.609375 15.53125 22.484375 10.953125 
Q 26.375 6.390625 33.015625 6.390625 
Q 39.65625 6.390625 43.53125 10.953125 
Q 47.40625 15.53125 47.40625 23.390625 
Q 47.40625 31.296875 43.53125 35.828125 
Q 39.65625 40.375 33.015625 40.375 
z
M 52.59375 71.296875 
L 52.59375 62.3125 
Q 48.875 64.0625 45.09375 64.984375 
Q 41.3125 65.921875 37.59375 65.921875 
Q 27.828125 65.921875 22.671875 59.328125 
Q 17.53125 52.734375 16.796875 39.40625 
Q 19.671875 43.65625 24.015625 45.921875 
Q 28.375 48.1875 33.59375 48.1875 
Q 44.578125 48.1875 50.953125 41.515625 
Q 57.328125 34.859375 57.328125 23.390625 
Q 57.328125 12.15625 50.6875 5.359375 
Q 44.046875 -1.421875 33.015625 -1.421875 
Q 20.359375 -1.421875 13.671875 8.265625 
Q 6.984375 17.96875 6.984375 36.375 
Q 6.984375 53.65625 15.1875 63.9375 
Q 23.390625 74.21875 37.203125 74.21875 
Q 40.921875 74.21875 44.703125 73.484375 
Q 48.484375 72.75 52.59375 71.296875 
z
" id="DejaVuSans-54"/>
       </defs>
       <use xlink:href="#DejaVuSans-54"/>
       <use x="63.623047" xlink:href="#DejaVuSans-48"/>
      </g>
     </g>
    </g>
    <g id="ytick_2">
     <g id="line2d_17">
      <path clip-path="url(#pfb44554494)" d="M 44.66 205.936714 
L 450 205.936714 
" style="fill:none;stroke:#b0b0b0;stroke-linecap:square;stroke-width:0.8;"/>
     </g>
     <g id="line2d_18">
      <g>
       <use style="stroke:#000000;stroke-width:0.8;" x="44.66" xlink:href="#mfcf7282a6d" y="205.936714"/>
      </g>
     </g>
     <g id="text_10">
      <!-- 62 -->
      <g transform="translate(24.935 209.735933)scale(0.1 -0.1)">
       <use xlink:href="#DejaVuSans-54"/>
       <use x="63.623047" xlink:href="#DejaVuSans-50"/>
      </g>
     </g>
    </g>
    <g id="ytick_3">
     <g id="line2d_19">
      <path clip-path="url(#pfb44554494)" d="M 44.66 179.77777 
L 450 179.77777 
" style="fill:none;stroke:#b0b0b0;stroke-linecap:square;stroke-width:0.8;"/>
     </g>
     <g id="line2d_20">
      <g>
       <use style="stroke:#000000;stroke-width:0.8;" x="44.66" xlink:href="#mfcf7282a6d" y="179.77777"/>
      </g>
     </g>
     <g id="text_11">
      <!-- 64 -->
      <g transform="translate(24.935 183.576989)scale(0.1 -0.1)">
       <use xlink:href="#DejaVuSans-54"/>
       <use x="63.623047" xlink:href="#DejaVuSans-52"/>
      </g>
     </g>
    </g>
    <g id="ytick_4">
     <g id="line2d_21">
      <path clip-path="url(#pfb44554494)" d="M 44.66 153.618826 
L 450 153.618826 
" style="fill:none;stroke:#b0b0b0;stroke-linecap:square;stroke-width:0.8;"/>
     </g>
     <g id="line2d_22">
      <g>
       <use style="stroke:#000000;stroke-width:0.8;" x="44.66" xlink:href="#mfcf7282a6d" y="153.618826"/>
      </g>
     </g>
     <g id="text_12">
      <!-- 66 -->
      <g transform="translate(24.935 157.418045)scale(0.1 -0.1)">
       <use xlink:href="#DejaVuSans-54"/>
       <use x="63.623047" xlink:href="#DejaVuSans-54"/>
      </g>
     </g>
    </g>
    <g id="ytick_5">
     <g id="line2d_23">
      <path clip-path="url(#pfb44554494)" d="M 44.66 127.459882 
L 450 127.459882 
" style="fill:none;stroke:#b0b0b0;stroke-linecap:square;stroke-width:0.8;"/>
     </g>
     <g id="line2d_24">
      <g>
       <use style="stroke:#000000;stroke-width:0.8;" x="44.66" xlink:href="#mfcf7282a6d" y="127.459882"/>
      </g>
     </g>
     <g id="text_13">
      <!-- 68 -->
      <g transform="translate(24.935 131.259101)scale(0.1 -0.1)">
       <use xlink:href="#DejaVuSans-54"/>
       <use x="63.623047" xlink:href="#DejaVuSans-56"/>
      </g>
     </g>
    </g>
    <g id="ytick_6">
     <g id="line2d_25">
      <path clip-path="url(#pfb44554494)" d="M 44.66 101.300938 
L 450 101.300938 
" style="fill:none;stroke:#b0b0b0;stroke-linecap:square;stroke-width:0.8;"/>
     </g>
     <g id="line2d_26">
      <g>
       <use style="stroke:#000000;stroke-width:0.8;" x="44.66" xlink:href="#mfcf7282a6d" y="101.300938"/>
      </g>
     </g>
     <g id="text_14">
      <!-- 70 -->
      <g transform="translate(24.935 105.100157)scale(0.1 -0.1)">
       <defs>
        <path d="M 8.203125 72.90625 
L 55.078125 72.90625 
L 55.078125 68.703125 
L 28.609375 0 
L 18.3125 0 
L 43.21875 64.59375 
L 8.203125 64.59375 
z
" id="DejaVuSans-55"/>
       </defs>
       <use xlink:href="#DejaVuSans-55"/>
       <use x="63.623047" xlink:href="#DejaVuSans-48"/>
      </g>
     </g>
    </g>
    <g id="ytick_7">
     <g id="line2d_27">
      <path clip-path="url(#pfb44554494)" d="M 44.66 75.141994 
L 450 75.141994 
" style="fill:none;stroke:#b0b0b0;stroke-linecap:square;stroke-width:0.8;"/>
     </g>
     <g id="line2d_28">
      <g>
       <use style="stroke:#000000;stroke-width:0.8;" x="44.66" xlink:href="#mfcf7282a6d" y="75.141994"/>
      </g>
     </g>
     <g id="text_15">
      <!-- 72 -->
      <g transform="translate(24.935 78.941213)scale(0.1 -0.1)">
       <use xlink:href="#DejaVuSans-55"/>
       <use x="63.623047" xlink:href="#DejaVuSans-50"/>
      </g>
     </g>
    </g>
    <g id="ytick_8">
     <g id="line2d_29">
      <path clip-path="url(#pfb44554494)" d="M 44.66 48.98305 
L 450 48.98305 
" style="fill:none;stroke:#b0b0b0;stroke-linecap:square;stroke-width:0.8;"/>
     </g>
     <g id="line2d_30">
      <g>
       <use style="stroke:#000000;stroke-width:0.8;" x="44.66" xlink:href="#mfcf7282a6d" y="48.98305"/>
      </g>
     </g>
     <g id="text_16">
      <!-- 74 -->
      <g transform="translate(24.935 52.782268)scale(0.1 -0.1)">
       <use xlink:href="#DejaVuSans-55"/>
       <use x="63.623047" xlink:href="#DejaVuSans-52"/>
      </g>
     </g>
    </g>
    <g id="text_17">
     <!-- Temperature [F] -->
     <g transform="translate(18.855313 180.575291)rotate(-90)scale(0.1 -0.1)">
      <defs>
       <path d="M -0.296875 72.90625 
L 61.375 72.90625 
L 61.375 64.59375 
L 35.5 64.59375 
L 35.5 0 
L 25.59375 0 
L 25.59375 64.59375 
L -0.296875 64.59375 
z
" id="DejaVuSans-84"/>
       <path d="M 52 44.1875 
Q 55.375 50.25 60.0625 53.125 
Q 64.75 56 71.09375 56 
Q 79.640625 56 84.28125 50.015625 
Q 88.921875 44.046875 88.921875 33.015625 
L 88.921875 0 
L 79.890625 0 
L 79.890625 32.71875 
Q 79.890625 40.578125 77.09375 44.375 
Q 74.3125 48.1875 68.609375 48.1875 
Q 61.625 48.1875 57.5625 43.546875 
Q 53.515625 38.921875 53.515625 30.90625 
L 53.515625 0 
L 44.484375 0 
L 44.484375 32.71875 
Q 44.484375 40.625 41.703125 44.40625 
Q 38.921875 48.1875 33.109375 48.1875 
Q 26.21875 48.1875 22.15625 43.53125 
Q 18.109375 38.875 18.109375 30.90625 
L 18.109375 0 
L 9.078125 0 
L 9.078125 54.6875 
L 18.109375 54.6875 
L 18.109375 46.1875 
Q 21.1875 51.21875 25.484375 53.609375 
Q 29.78125 56 35.6875 56 
Q 41.65625 56 45.828125 52.96875 
Q 50 49.953125 52 44.1875 
z
" id="DejaVuSans-109"/>
       <path d="M 18.109375 8.203125 
L 18.109375 -20.796875 
L 9.078125 -20.796875 
L 9.078125 54.6875 
L 18.109375 54.6875 
L 18.109375 46.390625 
Q 20.953125 51.265625 25.265625 53.625 
Q 29.59375 56 35.59375 56 
Q 45.5625 56 51.78125 48.09375 
Q 58.015625 40.1875 58.015625 27.296875 
Q 58.015625 14.40625 51.78125 6.484375 
Q 45.5625 -1.421875 35.59375 -1.421875 
Q 29.59375 -1.421875 25.265625 0.953125 
Q 20.953125 3.328125 18.109375 8.203125 
z
M 48.6875 27.296875 
Q 48.6875 37.203125 44.609375 42.84375 
Q 40.53125 48.484375 33.40625 48.484375 
Q 26.265625 48.484375 22.1875 42.84375 
Q 18.109375 37.203125 18.109375 27.296875 
Q 18.109375 17.390625 22.1875 11.75 
Q 26.265625 6.109375 33.40625 6.109375 
Q 40.53125 6.109375 44.609375 11.75 
Q 48.6875 17.390625 48.6875 27.296875 
z
" id="DejaVuSans-112"/>
       <path d="M 41.109375 46.296875 
Q 39.59375 47.171875 37.8125 47.578125 
Q 36.03125 48 33.890625 48 
Q 26.265625 48 22.1875 43.046875 
Q 18.109375 38.09375 18.109375 28.8125 
L 18.109375 0 
L 9.078125 0 
L 9.078125 54.6875 
L 18.109375 54.6875 
L 18.109375 46.1875 
Q 20.953125 51.171875 25.484375 53.578125 
Q 30.03125 56 36.53125 56 
Q 37.453125 56 38.578125 55.875 
Q 39.703125 55.765625 41.0625 55.515625 
z
" id="DejaVuSans-114"/>
       <path d="M 8.5 21.578125 
L 8.5 54.6875 
L 17.484375 54.6875 
L 17.484375 21.921875 
Q 17.484375 14.15625 20.5 10.265625 
Q 23.53125 6.390625 29.59375 6.390625 
Q 36.859375 6.390625 41.078125 11.03125 
Q 45.3125 15.671875 45.3125 23.6875 
L 45.3125 54.6875 
L 54.296875 54.6875 
L 54.296875 0 
L 45.3125 0 
L 45.3125 8.40625 
Q 42.046875 3.421875 37.71875 1 
Q 33.40625 -1.421875 27.6875 -1.421875 
Q 18.265625 -1.421875 13.375 4.4375 
Q 8.5 10.296875 8.5 21.578125 
z
M 31.109375 56 
z
" id="DejaVuSans-117"/>
       <path id="DejaVuSans-32"/>
       <path d="M 8.59375 75.984375 
L 29.296875 75.984375 
L 29.296875 69 
L 17.578125 69 
L 17.578125 -6.203125 
L 29.296875 -6.203125 
L 29.296875 -13.1875 
L 8.59375 -13.1875 
z
" id="DejaVuSans-91"/>
       <path d="M 9.8125 72.90625 
L 51.703125 72.90625 
L 51.703125 64.59375 
L 19.671875 64.59375 
L 19.671875 43.109375 
L 48.578125 43.109375 
L 48.578125 34.8125 
L 19.671875 34.8125 
L 19.671875 0 
L 9.8125 0 
z
" id="DejaVuSans-70"/>
       <path d="M 30.421875 75.984375 
L 30.421875 -13.1875 
L 9.71875 -13.1875 
L 9.71875 -6.203125 
L 21.390625 -6.203125 
L 21.390625 69 
L 9.71875 69 
L 9.71875 75.984375 
z
" id="DejaVuSans-93"/>
      </defs>
      <use xlink:href="#DejaVuSans-84"/>
      <use x="44.083984" xlink:href="#DejaVuSans-101"/>
      <use x="105.607422" xlink:href="#DejaVuSans-109"/>
      <use x="203.019531" xlink:href="#DejaVuSans-112"/>
      <use x="266.496094" xlink:href="#DejaVuSans-101"/>
      <use x="328.019531" xlink:href="#DejaVuSans-114"/>
      <use x="369.132812" xlink:href="#DejaVuSans-97"/>
      <use x="430.412109" xlink:href="#DejaVuSans-116"/>
      <use x="469.621094" xlink:href="#DejaVuSans-117"/>
      <use x="533" xlink:href="#DejaVuSans-114"/>
      <use x="571.863281" xlink:href="#DejaVuSans-101"/>
      <use x="633.386719" xlink:href="#DejaVuSans-32"/>
      <use x="665.173828" xlink:href="#DejaVuSans-91"/>
      <use x="704.1875" xlink:href="#DejaVuSans-70"/>
      <use x="761.707031" xlink:href="#DejaVuSans-93"/>
     </g>
    </g>
   </g>
   <g id="line2d_31">
    <path clip-path="url(#pfb44554494)" d="M 63.084545 115.688357 
L 63.168342 115.688357 
L 63.247312 114.38041 
L 63.327084 115.688357 
L 63.445781 114.38041 
L 63.564583 114.38041 
L 63.604192 115.688357 
L 63.644515 114.38041 
L 63.684085 113.072463 
L 63.723498 114.38041 
L 63.762961 114.38041 
L 63.882871 113.072463 
L 64.04328 113.072463 
L 64.164178 111.764515 
L 64.286568 113.072463 
L 64.325971 113.072463 
L 64.405264 114.38041 
L 64.52733 111.764515 
L 64.566871 114.38041 
L 64.60651 111.764515 
L 64.727958 111.764515 
L 64.849091 109.148621 
L 64.889722 109.148621 
L 64.929088 111.764515 
L 64.969317 107.840674 
L 65.008775 107.840674 
L 65.049273 109.148621 
L 65.089346 107.840674 
L 65.288869 107.840674 
L 65.369874 106.532727 
L 65.451484 107.840674 
L 65.491911 106.532727 
L 65.611347 109.148621 
L 65.650909 109.148621 
L 65.731615 106.532727 
L 65.773254 107.840674 
L 65.85451 106.532727 
L 65.974151 107.840674 
L 66.05367 107.840674 
L 66.134163 109.148621 
L 66.173622 107.840674 
L 66.215772 109.148621 
L 66.336648 109.148621 
L 66.540327 105.224779 
L 66.659892 106.532727 
L 66.699671 106.532727 
L 66.741793 107.840674 
L 66.865137 105.224779 
L 66.946286 105.224779 
L 66.987731 103.916832 
L 67.027253 105.224779 
L 67.067262 105.224779 
L 67.107397 106.532727 
L 67.173789 105.224779 
L 67.336252 105.224779 
L 67.418073 103.916832 
L 67.541663 106.532727 
L 67.583319 105.224779 
L 67.624249 106.532727 
L 67.663672 106.532727 
L 67.704849 109.148621 
L 67.786974 107.840674 
L 67.871 109.148621 
L 67.960122 109.148621 
L 67.999769 111.764515 
L 68.040156 109.148621 
L 68.199904 109.148621 
L 68.239872 107.840674 
L 68.279317 109.148621 
L 68.318932 109.148621 
L 68.362018 107.840674 
L 68.402034 109.148621 
L 68.443345 109.148621 
L 68.563291 107.840674 
L 68.645492 111.764515 
L 68.765715 107.840674 
L 68.852029 111.764515 
L 68.930846 109.148621 
L 68.970452 111.764515 
L 69.010197 107.840674 
L 69.251057 114.38041 
L 69.332916 109.148621 
L 69.41345 116.996304 
L 69.454939 113.072463 
L 69.57501 107.840674 
L 69.701723 114.38041 
L 69.741156 111.764515 
L 69.823816 116.996304 
L 69.905905 113.072463 
L 69.94652 115.688357 
L 70.03107 116.996304 
L 70.109754 115.688357 
L 70.232686 118.304252 
L 70.273526 116.996304 
L 70.312884 118.304252 
L 70.715864 118.304252 
L 70.836655 119.612199 
L 70.876823 119.612199 
L 70.998676 118.304252 
L 71.079014 119.612199 
L 71.158178 116.996304 
L 71.28252 119.612199 
L 71.403013 114.38041 
L 71.486026 122.228093 
L 71.565378 119.612199 
L 71.688413 119.612199 
L 71.771759 115.688357 
L 71.811184 119.612199 
L 71.851166 118.304252 
L 71.932297 115.688357 
L 71.971871 116.996304 
L 72.051814 115.688357 
L 72.174816 116.996304 
L 72.214804 115.688357 
L 72.254157 116.996304 
L 72.295317 118.304252 
L 72.335191 114.38041 
L 72.375357 118.304252 
L 72.457252 119.612199 
L 72.539077 116.996304 
L 72.578382 118.304252 
L 72.617845 118.304252 
L 72.657153 116.996304 
L 72.738187 119.612199 
L 72.778451 116.996304 
L 72.857523 118.304252 
L 73.059903 118.304252 
L 73.185036 119.612199 
L 73.30522 118.304252 
L 73.430805 119.612199 
L 73.512285 116.996304 
L 73.552489 118.304252 
L 73.672048 118.304252 
L 73.79216 119.612199 
L 74.273987 119.612199 
L 74.395289 122.228093 
L 74.436655 119.612199 
L 74.476025 122.228093 
L 75.16905 122.228093 
L 75.253669 123.53604 
L 75.374633 122.228093 
L 75.493861 123.53604 
L 75.533346 122.228093 
L 75.572652 123.53604 
L 76.37755 123.53604 
L 76.417579 124.843988 
L 76.457208 123.53604 
L 177.921164 124.843988 
L 177.962148 123.53604 
L 178.442315 119.612199 
L 178.482133 123.53604 
L 178.565629 122.228093 
L 178.650088 123.53604 
L 178.690732 119.612199 
L 178.788343 123.53604 
L 178.978326 118.304252 
L 179.103109 114.38041 
L 179.235621 118.304252 
L 179.460167 122.228093 
L 179.668711 122.228093 
L 179.708121 123.53604 
L 179.872558 118.304252 
L 179.916264 118.304252 
L 180.044787 107.840674 
L 180.160305 118.304252 
L 180.199835 115.688357 
L 180.329042 119.612199 
L 180.374464 116.996304 
L 180.455397 118.304252 
L 180.595956 122.228093 
L 180.725661 118.304252 
L 180.854186 119.612199 
L 180.893623 119.612199 
L 180.937675 116.996304 
L 181.017981 118.304252 
L 181.058163 116.996304 
L 181.098655 106.532727 
L 181.13797 118.304252 
L 181.177388 111.764515 
L 181.298634 119.612199 
L 181.337992 115.688357 
L 181.418782 114.38041 
L 181.458763 105.224779 
L 181.540907 109.148621 
L 181.580335 107.840674 
L 181.619722 109.148621 
L 181.83904 122.228093 
L 181.917845 116.996304 
L 181.983635 118.304252 
L 182.107526 116.996304 
L 182.148349 116.996304 
L 182.190081 115.688357 
L 182.229688 116.996304 
L 182.392269 122.228093 
L 182.560608 116.996304 
L 182.641626 116.996304 
L 182.777017 106.532727 
L 182.914379 119.612199 
L 182.956976 116.996304 
L 182.996223 119.612199 
L 183.046661 122.228093 
L 183.170852 116.996304 
L 183.331322 122.228093 
L 183.370632 118.304252 
L 183.411548 119.612199 
L 183.573558 119.612199 
L 183.614562 116.996304 
L 183.657189 118.304252 
L 183.740966 123.53604 
L 183.781528 122.228093 
L 183.900903 118.304252 
L 183.942415 119.612199 
L 183.985286 111.764515 
L 184.068958 114.38041 
L 184.110061 113.072463 
L 184.192978 118.304252 
L 184.232594 115.688357 
L 184.275111 114.38041 
L 184.31441 115.688357 
L 184.434017 116.996304 
L 184.474919 116.996304 
L 184.515492 118.304252 
L 184.555294 116.996304 
L 184.724426 116.996304 
L 184.804062 118.304252 
L 184.844665 115.688357 
L 184.884044 116.996304 
L 184.963271 118.304252 
L 185.00259 116.996304 
L 185.042024 118.304252 
L 185.123877 118.304252 
L 185.241978 119.612199 
L 185.322829 119.612199 
L 185.443673 122.228093 
L 185.522915 122.228093 
L 185.642602 123.53604 
L 186.24677 123.53604 
L 186.368149 124.843988 
L 186.488387 123.53604 
L 186.812977 123.53604 
L 186.852709 118.304252 
L 186.89225 123.53604 
L 186.931799 123.53604 
L 187.052704 122.228093 
L 187.138086 123.53604 
L 187.178802 122.228093 
L 187.219931 123.53604 
L 187.340301 123.53604 
L 187.380456 122.228093 
L 187.420081 123.53604 
L 187.539234 123.53604 
L 187.66099 124.843988 
L 187.701993 123.53604 
L 187.741409 124.843988 
L 188.600977 124.843988 
L 188.643833 126.151935 
L 188.683321 124.843988 
L 188.819129 123.53604 
L 189.320145 123.53604 
L 189.438739 122.228093 
L 189.478834 123.53604 
L 189.522902 122.228093 
L 190.129949 122.228093 
L 190.169356 123.53604 
L 190.20961 122.228093 
L 190.614082 122.228093 
L 190.737405 123.53604 
L 190.85564 122.228093 
L 191.054022 122.228093 
L 191.173518 123.53604 
L 191.295002 122.228093 
L 191.414738 123.53604 
L 191.535026 123.53604 
L 191.614191 122.228093 
L 191.653531 123.53604 
L 191.692964 122.228093 
L 191.772238 122.228093 
L 191.890397 123.53604 
L 192.019888 122.228093 
L 192.458487 122.228093 
L 351.093413 85.605571 
L 351.185062 88.221466 
L 351.376701 88.221466 
L 351.416409 85.605571 
L 351.457131 88.221466 
L 351.627876 88.221466 
L 351.668827 85.605571 
L 351.708359 88.221466 
L 352.120616 88.221466 
L 352.201964 89.529413 
L 352.325292 88.221466 
L 352.491249 88.221466 
L 352.532846 89.529413 
L 352.579985 88.221466 
L 352.667188 88.221466 
L 352.787548 89.529413 
L 352.910113 89.529413 
L 352.95072 88.221466 
L 352.990102 89.529413 
L 353.189427 89.529413 
L 353.308918 88.221466 
L 353.447292 89.529413 
L 354.353276 89.529413 
L 354.39313 90.83736 
L 354.432413 89.529413 
L 354.511165 89.529413 
L 354.55149 90.83736 
L 354.591874 89.529413 
L 354.672172 89.529413 
L 354.753763 90.83736 
L 354.878771 89.529413 
L 355.044324 89.529413 
L 355.123812 90.83736 
L 355.163272 89.529413 
L 355.2029 90.83736 
L 355.971167 90.83736 
L 356.010945 92.145307 
L 356.050379 90.83736 
L 356.25625 90.83736 
L 356.300265 92.145307 
L 356.359658 90.83736 
L 356.768317 90.83736 
L 356.852706 92.145307 
L 356.893586 90.83736 
L 356.934633 92.145307 
L 358.645963 92.145307 
L 358.687314 93.453255 
L 358.728721 92.145307 
L 359.135573 92.145307 
L 359.218345 93.453255 
L 359.344452 92.145307 
L 359.385233 93.453255 
L 359.424554 92.145307 
L 359.506281 92.145307 
L 359.627765 93.453255 
L 360.245043 93.453255 
L 360.435045 94.761202 
L 360.554371 93.453255 
L 361.769771 93.453255 
L 361.809058 92.145307 
L 361.849646 93.453255 
L 362.177399 93.453255 
L 362.217066 92.145307 
L 362.259498 93.453255 
L 362.340026 93.453255 
L 362.459947 92.145307 
L 362.579331 93.453255 
L 363.229734 93.453255 
L 363.269069 94.761202 
L 363.308347 93.453255 
L 364.10659 93.453255 
L 364.147106 92.145307 
L 364.187225 93.453255 
L 364.347122 93.453255 
L 364.39998 92.145307 
L 364.44441 93.453255 
L 364.847565 93.453255 
L 364.888145 92.145307 
L 364.928838 93.453255 
L 366.265959 93.453255 
L 366.3055 94.761202 
L 366.345113 93.453255 
L 366.38806 93.453255 
L 366.508367 94.761202 
L 366.675206 93.453255 
L 366.852104 94.761202 
L 366.972645 93.453255 
L 367.05543 93.453255 
L 367.176047 94.761202 
L 367.215914 94.761202 
L 367.298652 93.453255 
L 367.338223 94.761202 
L 367.378312 93.453255 
L 367.580055 93.453255 
L 367.698465 94.761202 
L 368.44701 94.761202 
L 368.486815 96.069149 
L 368.526264 94.761202 
L 369.059041 94.761202 
L 369.182054 96.069149 
L 369.304552 94.761202 
L 369.425375 96.069149 
L 369.551031 94.761202 
L 369.675722 96.069149 
L 369.759873 96.069149 
L 369.802496 94.761202 
L 369.842186 96.069149 
L 371.148487 96.069149 
L 371.189233 98.685043 
L 371.23037 96.069149 
L 371.309174 96.069149 
L 371.355503 98.685043 
L 371.395069 96.069149 
L 371.974092 96.069149 
L 372.053787 98.685043 
L 372.177815 96.069149 
L 372.471092 96.069149 
L 372.59172 98.685043 
L 372.633497 98.685043 
L 372.752661 96.069149 
L 372.872177 98.685043 
L 372.995224 96.069149 
L 373.11573 98.685043 
L 373.24393 96.069149 
L 373.283434 96.069149 
L 373.362885 98.685043 
L 373.404195 96.069149 
L 373.444959 98.685043 
L 373.48438 98.685043 
L 373.523686 96.069149 
L 373.564569 98.685043 
L 373.64703 98.685043 
L 373.687932 96.069149 
L 373.731578 98.685043 
L 374.944569 98.685043 
L 375.069446 99.992991 
L 375.199089 98.685043 
L 375.319706 98.685043 
L 375.361031 99.992991 
L 375.401001 98.685043 
L 375.840141 98.685043 
L 375.96408 99.992991 
L 376.003448 99.992991 
L 376.123967 98.685043 
L 376.247009 99.992991 
L 377.670687 99.992991 
L 377.790763 101.300938 
L 377.87381 99.992991 
L 377.994871 101.300938 
L 378.07437 99.992991 
L 378.193273 101.300938 
L 379.0385 101.300938 
L 379.162469 99.992991 
L 379.202283 99.992991 
L 379.322246 101.300938 
L 381.024676 101.300938 
L 381.064203 102.608885 
L 381.235796 101.300938 
L 382.578414 101.300938 
L 382.619445 102.608885 
L 382.662095 101.300938 
L 382.747586 102.608885 
L 382.870343 101.300938 
L 383.007739 102.608885 
L 384.164047 102.608885 
L 384.203521 101.300938 
L 384.24621 102.608885 
L 384.492539 102.608885 
L 384.613159 101.300938 
L 384.73766 102.608885 
L 384.818759 102.608885 
L 384.943243 101.300938 
L 385.184674 101.300938 
L 385.223995 102.608885 
L 385.264445 101.300938 
L 385.427702 101.300938 
L 385.553006 102.608885 
L 385.594387 102.608885 
L 385.716379 101.300938 
L 386.077195 101.300938 
L 386.116655 102.608885 
L 386.1618 101.300938 
L 386.204565 101.300938 
L 386.246436 102.608885 
L 386.288063 101.300938 
L 387.695463 101.300938 
L 387.734855 99.992991 
L 387.77661 101.300938 
L 387.815971 101.300938 
L 387.938311 99.992991 
L 388.225239 99.992991 
L 388.307265 98.685043 
L 388.430068 99.992991 
L 388.594869 99.992991 
L 388.685985 98.685043 
L 388.808391 99.992991 
L 388.85038 98.685043 
L 388.889868 99.992991 
L 390.078491 99.992991 
L 390.119838 98.685043 
L 390.159408 99.992991 
L 390.202253 99.992991 
L 390.321331 98.685043 
L 390.374212 98.685043 
L 390.413945 99.992991 
L 390.453794 98.685043 
L 390.657418 98.685043 
L 390.780192 96.069149 
L 391.228719 96.069149 
L 391.308302 94.761202 
L 391.42964 96.069149 
L 392.318946 96.069149 
L 392.438944 94.761202 
L 392.561974 96.069149 
L 392.68154 96.069149 
L 392.80202 94.761202 
L 392.842029 96.069149 
L 392.88167 94.761202 
L 392.962435 94.761202 
L 393.002165 93.453255 
L 393.041523 94.761202 
L 393.081058 94.761202 
L 393.202855 93.453255 
L 393.283772 94.761202 
L 393.323094 93.453255 
L 393.362613 94.761202 
L 393.481671 94.761202 
L 393.564381 93.453255 
L 393.603645 94.761202 
L 393.643001 93.453255 
L 393.6823 93.453255 
L 393.804344 94.761202 
L 393.943247 93.453255 
L 394.106507 93.453255 
L 394.230297 94.761202 
L 394.269741 93.453255 
L 394.309107 94.761202 
L 394.351182 94.761202 
L 394.474 93.453255 
L 394.516561 93.453255 
L 394.645412 94.761202 
L 394.854035 94.761202 
L 394.893519 93.453255 
L 394.935002 94.761202 
L 395.548127 94.761202 
L 395.671036 93.453255 
L 395.710534 93.453255 
L 395.791962 94.761202 
L 395.91488 93.453255 
L 395.959032 93.453255 
L 396.045479 94.761202 
L 396.084949 93.453255 
L 396.124399 94.761202 
L 396.166479 94.761202 
L 396.208924 93.453255 
L 396.249823 94.761202 
L 396.293064 94.761202 
L 396.334499 93.453255 
L 396.375172 94.761202 
L 396.457927 94.761202 
L 396.583531 93.453255 
L 396.710191 93.453255 
L 396.833527 94.761202 
L 396.914062 94.761202 
L 396.994076 93.453255 
L 397.367745 93.453255 
L 397.41239 94.761202 
L 397.451883 93.453255 
L 397.675392 93.453255 
L 397.715848 94.761202 
L 397.756518 93.453255 
L 398.112857 93.453255 
L 398.152236 90.83736 
L 398.232982 92.145307 
L 398.352069 92.145307 
L 398.473451 93.453255 
L 398.674377 93.453255 
L 398.753918 94.761202 
L 398.874364 92.145307 
L 398.994856 93.453255 
L 399.115999 92.145307 
L 399.155459 93.453255 
L 399.196895 92.145307 
L 399.31936 92.145307 
L 399.440734 93.453255 
L 399.938528 93.453255 
L 399.978086 94.761202 
L 400.019978 93.453255 
L 400.060175 93.453255 
L 400.183906 92.145307 
L 400.305828 93.453255 
L 400.877643 93.453255 
L 400.998303 94.761202 
L 401.119882 94.761202 
L 401.161118 93.453255 
L 401.200532 94.761202 
L 401.723005 94.761202 
L 401.765603 93.453255 
L 401.805064 94.761202 
L 401.844536 94.761202 
L 401.885218 93.453255 
L 402.058398 94.761202 
L 402.557571 94.761202 
L 402.675784 96.069149 
L 402.795686 94.761202 
L 403.00005 94.761202 
L 403.041966 93.453255 
L 403.081381 94.761202 
L 403.611001 94.761202 
L 403.651739 96.069149 
L 403.691162 94.761202 
L 404.280065 94.761202 
L 404.359779 96.069149 
L 404.484846 94.761202 
L 404.606634 94.761202 
L 404.732692 96.069149 
L 405.4258 96.069149 
L 405.506508 94.761202 
L 405.63131 96.069149 
L 405.711568 96.069149 
L 405.753539 94.761202 
L 405.795413 96.069149 
L 406.948861 96.069149 
L 406.989864 98.685043 
L 407.168935 96.069149 
L 407.304323 98.685043 
L 407.343701 96.069149 
L 407.394399 98.685043 
L 407.433945 98.685043 
L 407.474042 96.069149 
L 407.514715 98.685043 
L 407.598777 98.685043 
L 407.638276 96.069149 
L 407.679527 98.685043 
L 407.718879 98.685043 
L 407.758359 96.069149 
L 407.797818 98.685043 
L 408.056006 98.685043 
L 408.098806 96.069149 
L 408.140737 98.685043 
L 408.181578 98.685043 
L 408.220927 96.069149 
L 408.403741 98.685043 
L 409.438988 98.685043 
L 409.585431 99.992991 
L 409.667165 98.685043 
L 409.750458 99.992991 
L 409.833088 98.685043 
L 409.955387 99.992991 
L 410.075778 98.685043 
L 410.214057 99.992991 
L 411.27219 99.992991 
L 411.311529 101.300938 
L 411.351172 99.992991 
L 412.081913 99.992991 
L 412.121477 101.300938 
L 412.162375 99.992991 
L 412.243709 99.992991 
L 412.365291 101.300938 
L 412.40544 99.992991 
L 412.446811 101.300938 
L 412.528253 101.300938 
L 412.654065 99.992991 
L 412.694208 99.992991 
L 412.825564 101.300938 
L 415.123611 101.300938 
L 415.167726 102.608885 
L 415.213442 101.300938 
L 415.381304 101.300938 
L 415.463539 102.608885 
L 415.592285 101.300938 
L 415.637073 102.608885 
L 415.679905 101.300938 
L 415.719295 101.300938 
L 415.840256 102.608885 
L 416.326516 102.608885 
L 416.368574 101.300938 
L 416.40943 102.608885 
L 416.609391 102.608885 
L 416.648768 101.300938 
L 416.688125 102.608885 
L 417.055617 102.608885 
L 417.098261 103.916832 
L 417.140074 102.608885 
L 418.28947 102.608885 
L 418.330701 101.300938 
L 418.371815 102.608885 
L 420.266361 102.608885 
L 420.306956 103.916832 
L 420.474898 102.608885 
L 421.016633 102.608885 
L 421.15307 103.916832 
L 421.275595 102.608885 
L 421.396854 102.608885 
L 421.521189 103.916832 
L 422.06097 103.916832 
L 422.101034 102.608885 
L 422.141748 103.916832 
L 422.717564 103.916832 
L 422.761367 102.608885 
L 422.80079 103.916832 
L 424.742611 103.916832 
L 424.786849 105.224779 
L 424.826147 103.916832 
L 425.028122 103.916832 
L 425.069966 105.224779 
L 425.114433 103.916832 
L 425.437067 103.916832 
L 425.476768 105.224779 
L 425.516981 103.916832 
L 425.556302 103.916832 
L 425.688438 105.224779 
L 425.767148 103.916832 
L 425.806453 105.224779 
L 425.849284 103.916832 
L 425.890528 103.916832 
L 426.011419 105.224779 
L 426.131663 105.224779 
L 426.250242 103.916832 
L 426.332962 103.916832 
L 426.456689 105.224779 
L 426.498397 103.916832 
L 426.538099 105.224779 
L 426.703022 105.224779 
L 426.82593 103.916832 
L 426.865457 103.916832 
L 426.987361 105.224779 
L 427.02791 105.224779 
L 427.067347 103.916832 
L 427.107294 105.224779 
L 427.475711 105.224779 
L 427.518131 103.916832 
L 427.558775 105.224779 
L 430.52053 105.224779 
L 430.561719 106.532727 
L 430.602333 105.224779 
L 430.885304 105.224779 
L 430.92489 106.532727 
L 430.965684 105.224779 
L 431.126171 105.224779 
L 431.245793 106.532727 
L 431.325282 106.532727 
L 431.36793 105.224779 
L 431.408587 106.532727 
L 431.492467 106.532727 
L 431.575455 105.224779 
L 431.575455 105.224779 
" style="fill:none;stroke:#1f77b4;stroke-linecap:square;stroke-width:1.5;"/>
   </g>
   <g id="line2d_32">
    <path clip-path="url(#pfb44554494)" d="M 63.084545 204.628767 
L 66.782685 204.628767 
L 66.904536 153.618826 
L 70.998676 153.618826 
L 71.118676 168.006245 
L 73.833227 168.006245 
L 73.952233 192.857242 
L 75.374633 192.857242 
L 75.493861 219.016186 
L 76.457208 219.016186 
L 177.864458 35.903578 
L 183.249557 35.903578 
L 183.370632 62.062522 
L 185.683877 62.062522 
L 185.806511 86.913519 
L 187.905005 86.913519 
L 188.025044 153.618826 
L 191.134076 153.618826 
L 191.253081 192.857242 
L 192.458487 192.857242 
L 351.185062 50.290997 
L 352.748117 50.290997 
L 352.828692 101.300938 
L 354.959135 101.300938 
L 355.083839 153.618826 
L 359.586478 153.618826 
L 359.707449 179.77777 
L 364.147106 179.77777 
L 364.268552 192.857242 
L 367.016123 192.857242 
L 367.136103 204.628767 
L 368.810222 204.628767 
L 368.935668 230.787711 
L 370.86665 230.787711 
L 370.985238 245.17513 
L 372.257997 245.17513 
L 372.380531 221.632081 
L 373.283434 221.632081 
L 373.404195 230.787711 
L 375.319706 230.787711 
L 375.401001 219.016186 
L 381.064203 219.016186 
L 381.235796 221.632081 
L 382.48441 221.632081 
L 382.619445 219.016186 
L 384.573179 219.016186 
L 384.696448 204.628767 
L 389.170819 204.628767 
L 389.291346 192.857242 
L 391.712028 192.857242 
L 391.834059 179.77777 
L 393.120367 179.77777 
L 393.244077 174.545981 
L 393.723769 174.545981 
L 393.85483 168.006245 
L 398.392049 168.006245 
L 398.512697 153.618826 
L 405.711568 153.618826 
L 405.834925 174.545981 
L 407.921054 174.545981 
L 408.056006 179.77777 
L 409.54455 179.77777 
L 409.667165 174.545981 
L 409.955387 174.545981 
L 410.075778 179.77777 
L 415.923093 179.77777 
L 416.043191 174.545981 
L 416.729414 174.545981 
L 416.851386 179.77777 
L 418.966616 179.77777 
L 419.087336 192.857242 
L 420.184386 192.857242 
L 420.306956 221.632081 
L 421.35736 221.632081 
L 421.480579 230.787711 
L 421.939722 230.787711 
L 422.06097 245.17513 
L 431.285745 245.17513 
L 431.408587 221.632081 
L 431.575455 221.632081 
L 431.575455 221.632081 
" style="fill:none;stroke:#ff7f0e;stroke-linecap:square;stroke-width:1.5;"/>
   </g>
   <g id="patch_3">
    <path d="M 44.66 255.638708 
L 44.66 25.44 
" style="fill:none;stroke:#000000;stroke-linecap:square;stroke-linejoin:miter;stroke-width:0.8;"/>
   </g>
   <g id="patch_4">
    <path d="M 450 255.638708 
L 450 25.44 
" style="fill:none;stroke:#000000;stroke-linecap:square;stroke-linejoin:miter;stroke-width:0.8;"/>
   </g>
   <g id="patch_5">
    <path d="M 44.66 255.638708 
L 450 255.638708 
" style="fill:none;stroke:#000000;stroke-linecap:square;stroke-linejoin:miter;stroke-width:0.8;"/>
   </g>
   <g id="patch_6">
    <path d="M 44.66 25.44 
L 450 25.44 
" style="fill:none;stroke:#000000;stroke-linecap:square;stroke-linejoin:miter;stroke-width:0.8;"/>
   </g>
   <g id="text_18">
    <!-- Lake Shoecraft - Water and Air Temperature -->
    <g transform="translate(115.711562 19.44)scale(0.12 -0.12)">
     <defs>
      <path d="M 9.8125 72.90625 
L 19.671875 72.90625 
L 19.671875 8.296875 
L 55.171875 8.296875 
L 55.171875 0 
L 9.8125 0 
z
" id="DejaVuSans-76"/>
      <path d="M 9.078125 75.984375 
L 18.109375 75.984375 
L 18.109375 31.109375 
L 44.921875 54.6875 
L 56.390625 54.6875 
L 27.390625 29.109375 
L 57.625 0 
L 45.90625 0 
L 18.109375 26.703125 
L 18.109375 0 
L 9.078125 0 
z
" id="DejaVuSans-107"/>
      <path d="M 53.515625 70.515625 
L 53.515625 60.890625 
Q 47.90625 63.578125 42.921875 64.890625 
Q 37.9375 66.21875 33.296875 66.21875 
Q 25.25 66.21875 20.875 63.09375 
Q 16.5 59.96875 16.5 54.203125 
Q 16.5 49.359375 19.40625 46.890625 
Q 22.3125 44.4375 30.421875 42.921875 
L 36.375 41.703125 
Q 47.40625 39.59375 52.65625 34.296875 
Q 57.90625 29 57.90625 20.125 
Q 57.90625 9.515625 50.796875 4.046875 
Q 43.703125 -1.421875 29.984375 -1.421875 
Q 24.8125 -1.421875 18.96875 -0.25 
Q 13.140625 0.921875 6.890625 3.21875 
L 6.890625 13.375 
Q 12.890625 10.015625 18.65625 8.296875 
Q 24.421875 6.59375 29.984375 6.59375 
Q 38.421875 6.59375 43.015625 9.90625 
Q 47.609375 13.234375 47.609375 19.390625 
Q 47.609375 24.75 44.3125 27.78125 
Q 41.015625 30.8125 33.5 32.328125 
L 27.484375 33.5 
Q 16.453125 35.6875 11.515625 40.375 
Q 6.59375 45.0625 6.59375 53.421875 
Q 6.59375 63.09375 13.40625 68.65625 
Q 20.21875 74.21875 32.171875 74.21875 
Q 37.3125 74.21875 42.625 73.28125 
Q 47.953125 72.359375 53.515625 70.515625 
z
" id="DejaVuSans-83"/>
      <path d="M 54.890625 33.015625 
L 54.890625 0 
L 45.90625 0 
L 45.90625 32.71875 
Q 45.90625 40.484375 42.875 44.328125 
Q 39.84375 48.1875 33.796875 48.1875 
Q 26.515625 48.1875 22.3125 43.546875 
Q 18.109375 38.921875 18.109375 30.90625 
L 18.109375 0 
L 9.078125 0 
L 9.078125 75.984375 
L 18.109375 75.984375 
L 18.109375 46.1875 
Q 21.34375 51.125 25.703125 53.5625 
Q 30.078125 56 35.796875 56 
Q 45.21875 56 50.046875 50.171875 
Q 54.890625 44.34375 54.890625 33.015625 
z
" id="DejaVuSans-104"/>
      <path d="M 30.609375 48.390625 
Q 23.390625 48.390625 19.1875 42.75 
Q 14.984375 37.109375 14.984375 27.296875 
Q 14.984375 17.484375 19.15625 11.84375 
Q 23.34375 6.203125 30.609375 6.203125 
Q 37.796875 6.203125 41.984375 11.859375 
Q 46.1875 17.53125 46.1875 27.296875 
Q 46.1875 37.015625 41.984375 42.703125 
Q 37.796875 48.390625 30.609375 48.390625 
z
M 30.609375 56 
Q 42.328125 56 49.015625 48.375 
Q 55.71875 40.765625 55.71875 27.296875 
Q 55.71875 13.875 49.015625 6.21875 
Q 42.328125 -1.421875 30.609375 -1.421875 
Q 18.84375 -1.421875 12.171875 6.21875 
Q 5.515625 13.875 5.515625 27.296875 
Q 5.515625 40.765625 12.171875 48.375 
Q 18.84375 56 30.609375 56 
z
" id="DejaVuSans-111"/>
      <path d="M 48.78125 52.59375 
L 48.78125 44.1875 
Q 44.96875 46.296875 41.140625 47.34375 
Q 37.3125 48.390625 33.40625 48.390625 
Q 24.65625 48.390625 19.8125 42.84375 
Q 14.984375 37.3125 14.984375 27.296875 
Q 14.984375 17.28125 19.8125 11.734375 
Q 24.65625 6.203125 33.40625 6.203125 
Q 37.3125 6.203125 41.140625 7.25 
Q 44.96875 8.296875 48.78125 10.40625 
L 48.78125 2.09375 
Q 45.015625 0.34375 40.984375 -0.53125 
Q 36.96875 -1.421875 32.421875 -1.421875 
Q 20.0625 -1.421875 12.78125 6.34375 
Q 5.515625 14.109375 5.515625 27.296875 
Q 5.515625 40.671875 12.859375 48.328125 
Q 20.21875 56 33.015625 56 
Q 37.15625 56 41.109375 55.140625 
Q 45.0625 54.296875 48.78125 52.59375 
z
" id="DejaVuSans-99"/>
      <path d="M 37.109375 75.984375 
L 37.109375 68.5 
L 28.515625 68.5 
Q 23.6875 68.5 21.796875 66.546875 
Q 19.921875 64.59375 19.921875 59.515625 
L 19.921875 54.6875 
L 34.71875 54.6875 
L 34.71875 47.703125 
L 19.921875 47.703125 
L 19.921875 0 
L 10.890625 0 
L 10.890625 47.703125 
L 2.296875 47.703125 
L 2.296875 54.6875 
L 10.890625 54.6875 
L 10.890625 58.5 
Q 10.890625 67.625 15.140625 71.796875 
Q 19.390625 75.984375 28.609375 75.984375 
z
" id="DejaVuSans-102"/>
      <path d="M 3.328125 72.90625 
L 13.28125 72.90625 
L 28.609375 11.28125 
L 43.890625 72.90625 
L 54.984375 72.90625 
L 70.3125 11.28125 
L 85.59375 72.90625 
L 95.609375 72.90625 
L 77.296875 0 
L 64.890625 0 
L 49.515625 63.28125 
L 33.984375 0 
L 21.578125 0 
z
" id="DejaVuSans-87"/>
      <path d="M 54.890625 33.015625 
L 54.890625 0 
L 45.90625 0 
L 45.90625 32.71875 
Q 45.90625 40.484375 42.875 44.328125 
Q 39.84375 48.1875 33.796875 48.1875 
Q 26.515625 48.1875 22.3125 43.546875 
Q 18.109375 38.921875 18.109375 30.90625 
L 18.109375 0 
L 9.078125 0 
L 9.078125 54.6875 
L 18.109375 54.6875 
L 18.109375 46.1875 
Q 21.34375 51.125 25.703125 53.5625 
Q 30.078125 56 35.796875 56 
Q 45.21875 56 50.046875 50.171875 
Q 54.890625 44.34375 54.890625 33.015625 
z
" id="DejaVuSans-110"/>
      <path d="M 45.40625 46.390625 
L 45.40625 75.984375 
L 54.390625 75.984375 
L 54.390625 0 
L 45.40625 0 
L 45.40625 8.203125 
Q 42.578125 3.328125 38.25 0.953125 
Q 33.9375 -1.421875 27.875 -1.421875 
Q 17.96875 -1.421875 11.734375 6.484375 
Q 5.515625 14.40625 5.515625 27.296875 
Q 5.515625 40.1875 11.734375 48.09375 
Q 17.96875 56 27.875 56 
Q 33.9375 56 38.25 53.625 
Q 42.578125 51.265625 45.40625 46.390625 
z
M 14.796875 27.296875 
Q 14.796875 17.390625 18.875 11.75 
Q 22.953125 6.109375 30.078125 6.109375 
Q 37.203125 6.109375 41.296875 11.75 
Q 45.40625 17.390625 45.40625 27.296875 
Q 45.40625 37.203125 41.296875 42.84375 
Q 37.203125 48.484375 30.078125 48.484375 
Q 22.953125 48.484375 18.875 42.84375 
Q 14.796875 37.203125 14.796875 27.296875 
z
" id="DejaVuSans-100"/>
      <path d="M 34.1875 63.1875 
L 20.796875 26.90625 
L 47.609375 26.90625 
z
M 28.609375 72.90625 
L 39.796875 72.90625 
L 67.578125 0 
L 57.328125 0 
L 50.6875 18.703125 
L 17.828125 18.703125 
L 11.1875 0 
L 0.78125 0 
z
" id="DejaVuSans-65"/>
      <path d="M 9.421875 54.6875 
L 18.40625 54.6875 
L 18.40625 0 
L 9.421875 0 
z
M 9.421875 75.984375 
L 18.40625 75.984375 
L 18.40625 64.59375 
L 9.421875 64.59375 
z
" id="DejaVuSans-105"/>
     </defs>
     <use xlink:href="#DejaVuSans-76"/>
     <use x="55.712891" xlink:href="#DejaVuSans-97"/>
     <use x="116.992188" xlink:href="#DejaVuSans-107"/>
     <use x="171.277344" xlink:href="#DejaVuSans-101"/>
     <use x="232.800781" xlink:href="#DejaVuSans-32"/>
     <use x="264.587891" xlink:href="#DejaVuSans-83"/>
     <use x="328.064453" xlink:href="#DejaVuSans-104"/>
     <use x="391.443359" xlink:href="#DejaVuSans-111"/>
     <use x="452.625" xlink:href="#DejaVuSans-101"/>
     <use x="514.148438" xlink:href="#DejaVuSans-99"/>
     <use x="569.128906" xlink:href="#DejaVuSans-114"/>
     <use x="610.242188" xlink:href="#DejaVuSans-97"/>
     <use x="671.521484" xlink:href="#DejaVuSans-102"/>
     <use x="704.976562" xlink:href="#DejaVuSans-116"/>
     <use x="744.185547" xlink:href="#DejaVuSans-32"/>
     <use x="775.972656" xlink:href="#DejaVuSans-45"/>
     <use x="812.056641" xlink:href="#DejaVuSans-32"/>
     <use x="843.84375" xlink:href="#DejaVuSans-87"/>
     <use x="936.345703" xlink:href="#DejaVuSans-97"/>
     <use x="997.625" xlink:href="#DejaVuSans-116"/>
     <use x="1036.833984" xlink:href="#DejaVuSans-101"/>
     <use x="1098.357422" xlink:href="#DejaVuSans-114"/>
     <use x="1139.470703" xlink:href="#DejaVuSans-32"/>
     <use x="1171.257812" xlink:href="#DejaVuSans-97"/>
     <use x="1232.537109" xlink:href="#DejaVuSans-110"/>
     <use x="1295.916016" xlink:href="#DejaVuSans-100"/>
     <use x="1359.392578" xlink:href="#DejaVuSans-32"/>
     <use x="1391.179688" xlink:href="#DejaVuSans-65"/>
     <use x="1459.587891" xlink:href="#DejaVuSans-105"/>
     <use x="1487.371094" xlink:href="#DejaVuSans-114"/>
     <use x="1528.484375" xlink:href="#DejaVuSans-32"/>
     <use x="1560.271484" xlink:href="#DejaVuSans-84"/>
     <use x="1604.355469" xlink:href="#DejaVuSans-101"/>
     <use x="1665.878906" xlink:href="#DejaVuSans-109"/>
     <use x="1763.291016" xlink:href="#DejaVuSans-112"/>
     <use x="1826.767578" xlink:href="#DejaVuSans-101"/>
     <use x="1888.291016" xlink:href="#DejaVuSans-114"/>
     <use x="1929.404297" xlink:href="#DejaVuSans-97"/>
     <use x="1990.683594" xlink:href="#DejaVuSans-116"/>
     <use x="2029.892578" xlink:href="#DejaVuSans-117"/>
     <use x="2093.271484" xlink:href="#DejaVuSans-114"/>
     <use x="2132.134766" xlink:href="#DejaVuSans-101"/>
    </g>
   </g>
   <g id="legend_1">
    <g id="patch_7">
     <path d="M 357.890625 62.79625 
L 443 62.79625 
Q 445 62.79625 445 60.79625 
L 445 32.44 
Q 445 30.44 443 30.44 
L 357.890625 30.44 
Q 355.890625 30.44 355.890625 32.44 
L 355.890625 60.79625 
Q 355.890625 62.79625 357.890625 62.79625 
z
" style="fill:#ffffff;opacity:0.8;stroke:#cccccc;stroke-linejoin:miter;"/>
    </g>
    <g id="line2d_33">
     <path d="M 359.890625 38.538437 
L 379.890625 38.538437 
" style="fill:none;stroke:#1f77b4;stroke-linecap:square;stroke-width:1.5;"/>
    </g>
    <g id="line2d_34"/>
    <g id="text_19">
     <!-- Lake Temp -->
     <g transform="translate(387.890625 42.038437)scale(0.1 -0.1)">
      <use xlink:href="#DejaVuSans-76"/>
      <use x="55.712891" xlink:href="#DejaVuSans-97"/>
      <use x="116.992188" xlink:href="#DejaVuSans-107"/>
      <use x="171.277344" xlink:href="#DejaVuSans-101"/>
      <use x="232.800781" xlink:href="#DejaVuSans-32"/>
      <use x="264.587891" xlink:href="#DejaVuSans-84"/>
      <use x="308.671875" xlink:href="#DejaVuSans-101"/>
      <use x="370.195312" xlink:href="#DejaVuSans-109"/>
      <use x="467.607422" xlink:href="#DejaVuSans-112"/>
     </g>
    </g>
    <g id="line2d_35">
     <path d="M 359.890625 53.216562 
L 379.890625 53.216562 
" style="fill:none;stroke:#ff7f0e;stroke-linecap:square;stroke-width:1.5;"/>
    </g>
    <g id="line2d_36"/>
    <g id="text_20">
     <!-- Air Temp -->
     <g transform="translate(387.890625 56.716562)scale(0.1 -0.1)">
      <use xlink:href="#DejaVuSans-65"/>
      <use x="68.408203" xlink:href="#DejaVuSans-105"/>
      <use x="96.191406" xlink:href="#DejaVuSans-114"/>
      <use x="137.304688" xlink:href="#DejaVuSans-32"/>
      <use x="169.091797" xlink:href="#DejaVuSans-84"/>
      <use x="213.175781" xlink:href="#DejaVuSans-101"/>
      <use x="274.699219" xlink:href="#DejaVuSans-109"/>
      <use x="372.111328" xlink:href="#DejaVuSans-112"/>
     </g>
    </g>
   </g>
  </g>
 </g>
 <defs>
  <clipPath id="pfb44554494">
   <rect height="230.198708" width="405.34" x="44.66" y="25.44"/>
  </clipPath>
 </defs>
</svg>
