<?xml version="1.0" encoding="utf-8" standalone="no"?>
<!DOCTYPE svg PUBLIC "-//W3C//DTD SVG 1.1//EN"
  "http://www.w3.org/Graphics/SVG/1.1/DTD/svg11.dtd">
<!-- Created with matplotlib (https://matplotlib.org/) -->
<svg height="345.6pt" version="1.1" viewBox="0 0 460.8 345.6" width="460.8pt" xmlns="http://www.w3.org/2000/svg" xmlns:xlink="http://www.w3.org/1999/xlink">
 <metadata>
  <rdf:RDF xmlns:cc="http://creativecommons.org/ns#" xmlns:dc="http://purl.org/dc/elements/1.1/" xmlns:rdf="http://www.w3.org/1999/02/22-rdf-syntax-ns#">
   <cc:Work>
    <dc:type rdf:resource="http://purl.org/dc/dcmitype/StillImage"/>
    <dc:date>2024-09-08T15:59:17.848362</dc:date>
    <dc:format>image/svg+xml</dc:format>
    <dc:creator>
     <cc:Agent>
      <dc:title>Matplotlib v3.3.2, https://matplotlib.org/</dc:title>
     </cc:Agent>
    </dc:creator>
   </cc:Work>
  </rdf:RDF>
 </metadata>
 <defs>
  <style type="text/css">*{stroke-linecap:butt;stroke-linejoin:round;}</style>
 </defs>
 <g id="figure_1">
  <g id="patch_1">
   <path d="M 0 345.6 
L 460.8 345.6 
L 460.8 0 
L 0 0 
z
" style="fill:none;"/>
  </g>
  <g id="axes_1">
   <g id="patch_2">
    <path d="M 44.66 255.638708 
L 442.579216 255.638708 
L 442.579216 25.44 
L 44.66 25.44 
z
" style="fill:none;"/>
   </g>
   <g id="matplotlib.axis_1">
    <g id="xtick_1">
     <g id="line2d_1">
      <path clip-path="url(#pd919f4b6e0)" d="M 45.483349 255.638708 
L 45.483349 25.44 
" style="fill:none;stroke:#b0b0b0;stroke-linecap:square;stroke-width:0.8;"/>
     </g>
     <g id="line2d_2">
      <defs>
       <path d="M 0 0 
L 0 3.5 
" id="m2fa9c707b8" style="stroke:#000000;stroke-width:0.8;"/>
      </defs>
      <g>
       <use style="stroke:#000000;stroke-width:0.8;" x="45.483349" xlink:href="#m2fa9c707b8" y="255.638708"/>
      </g>
     </g>
     <g id="text_1">
      <!-- 2024-08-27 -->
      <g transform="translate(38.137956 319.848351)rotate(-70)scale(0.1 -0.1)">
       <defs>
        <path d="M 19.1875 8.296875 
L 53.609375 8.296875 
L 53.609375 0 
L 7.328125 0 
L 7.328125 8.296875 
Q 12.9375 14.109375 22.625 23.890625 
Q 32.328125 33.6875 34.8125 36.53125 
Q 39.546875 41.84375 41.421875 45.53125 
Q 43.3125 49.21875 43.3125 52.78125 
Q 43.3125 58.59375 39.234375 62.25 
Q 35.15625 65.921875 28.609375 65.921875 
Q 23.96875 65.921875 18.8125 64.3125 
Q 13.671875 62.703125 7.8125 59.421875 
L 7.8125 69.390625 
Q 13.765625 71.78125 18.9375 73 
Q 24.125 74.21875 28.421875 74.21875 
Q 39.75 74.21875 46.484375 68.546875 
Q 53.21875 62.890625 53.21875 53.421875 
Q 53.21875 48.921875 51.53125 44.890625 
Q 49.859375 40.875 45.40625 35.40625 
Q 44.1875 33.984375 37.640625 27.21875 
Q 31.109375 20.453125 19.1875 8.296875 
z
" id="DejaVuSans-50"/>
        <path d="M 31.78125 66.40625 
Q 24.171875 66.40625 20.328125 58.90625 
Q 16.5 51.421875 16.5 36.375 
Q 16.5 21.390625 20.328125 13.890625 
Q 24.171875 6.390625 31.78125 6.390625 
Q 39.453125 6.390625 43.28125 13.890625 
Q 47.125 21.390625 47.125 36.375 
Q 47.125 51.421875 43.28125 58.90625 
Q 39.453125 66.40625 31.78125 66.40625 
z
M 31.78125 74.21875 
Q 44.046875 74.21875 50.515625 64.515625 
Q 56.984375 54.828125 56.984375 36.375 
Q 56.984375 17.96875 50.515625 8.265625 
Q 44.046875 -1.421875 31.78125 -1.421875 
Q 19.53125 -1.421875 13.0625 8.265625 
Q 6.59375 17.96875 6.59375 36.375 
Q 6.59375 54.828125 13.0625 64.515625 
Q 19.53125 74.21875 31.78125 74.21875 
z
" id="DejaVuSans-48"/>
        <path d="M 37.796875 64.3125 
L 12.890625 25.390625 
L 37.796875 25.390625 
z
M 35.203125 72.90625 
L 47.609375 72.90625 
L 47.609375 25.390625 
L 58.015625 25.390625 
L 58.015625 17.1875 
L 47.609375 17.1875 
L 47.609375 0 
L 37.796875 0 
L 37.796875 17.1875 
L 4.890625 17.1875 
L 4.890625 26.703125 
z
" id="DejaVuSans-52"/>
        <path d="M 4.890625 31.390625 
L 31.203125 31.390625 
L 31.203125 23.390625 
L 4.890625 23.390625 
z
" id="DejaVuSans-45"/>
        <path d="M 31.78125 34.625 
Q 24.75 34.625 20.71875 30.859375 
Q 16.703125 27.09375 16.703125 20.515625 
Q 16.703125 13.921875 20.71875 10.15625 
Q 24.75 6.390625 31.78125 6.390625 
Q 38.8125 6.390625 42.859375 10.171875 
Q 46.921875 13.96875 46.921875 20.515625 
Q 46.921875 27.09375 42.890625 30.859375 
Q 38.875 34.625 31.78125 34.625 
z
M 21.921875 38.8125 
Q 15.578125 40.375 12.03125 44.71875 
Q 8.5 49.078125 8.5 55.328125 
Q 8.5 64.0625 14.71875 69.140625 
Q 20.953125 74.21875 31.78125 74.21875 
Q 42.671875 74.21875 48.875 69.140625 
Q 55.078125 64.0625 55.078125 55.328125 
Q 55.078125 49.078125 51.53125 44.71875 
Q 48 40.375 41.703125 38.8125 
Q 48.828125 37.15625 52.796875 32.3125 
Q 56.78125 27.484375 56.78125 20.515625 
Q 56.78125 9.90625 50.3125 4.234375 
Q 43.84375 -1.421875 31.78125 -1.421875 
Q 19.734375 -1.421875 13.25 4.234375 
Q 6.78125 9.90625 6.78125 20.515625 
Q 6.78125 27.484375 10.78125 32.3125 
Q 14.796875 37.15625 21.921875 38.8125 
z
M 18.3125 54.390625 
Q 18.3125 48.734375 21.84375 45.5625 
Q 25.390625 42.390625 31.78125 42.390625 
Q 38.140625 42.390625 41.71875 45.5625 
Q 45.3125 48.734375 45.3125 54.390625 
Q 45.3125 60.0625 41.71875 63.234375 
Q 38.140625 66.40625 31.78125 66.40625 
Q 25.390625 66.40625 21.84375 63.234375 
Q 18.3125 60.0625 18.3125 54.390625 
z
" id="DejaVuSans-56"/>
        <path d="M 8.203125 72.90625 
L 55.078125 72.90625 
L 55.078125 68.703125 
L 28.609375 0 
L 18.3125 0 
L 43.21875 64.59375 
L 8.203125 64.59375 
z
" id="DejaVuSans-55"/>
       </defs>
       <use xlink:href="#DejaVuSans-50"/>
       <use x="63.623047" xlink:href="#DejaVuSans-48"/>
       <use x="127.246094" xlink:href="#DejaVuSans-50"/>
       <use x="190.869141" xlink:href="#DejaVuSans-52"/>
       <use x="254.492188" xlink:href="#DejaVuSans-45"/>
       <use x="290.576172" xlink:href="#DejaVuSans-48"/>
       <use x="354.199219" xlink:href="#DejaVuSans-56"/>
       <use x="417.822266" xlink:href="#DejaVuSans-45"/>
       <use x="453.90625" xlink:href="#DejaVuSans-50"/>
       <use x="517.529297" xlink:href="#DejaVuSans-55"/>
      </g>
     </g>
    </g>
    <g id="xtick_2">
     <g id="line2d_3">
      <path clip-path="url(#pd919f4b6e0)" d="M 105.330873 255.638708 
L 105.330873 25.44 
" style="fill:none;stroke:#b0b0b0;stroke-linecap:square;stroke-width:0.8;"/>
     </g>
     <g id="line2d_4">
      <g>
       <use style="stroke:#000000;stroke-width:0.8;" x="105.330873" xlink:href="#m2fa9c707b8" y="255.638708"/>
      </g>
     </g>
     <g id="text_2">
      <!-- 2024-08-29 -->
      <g transform="translate(97.98548 319.848351)rotate(-70)scale(0.1 -0.1)">
       <defs>
        <path d="M 10.984375 1.515625 
L 10.984375 10.5 
Q 14.703125 8.734375 18.5 7.8125 
Q 22.3125 6.890625 25.984375 6.890625 
Q 35.75 6.890625 40.890625 13.453125 
Q 46.046875 20.015625 46.78125 33.40625 
Q 43.953125 29.203125 39.59375 26.953125 
Q 35.25 24.703125 29.984375 24.703125 
Q 19.046875 24.703125 12.671875 31.3125 
Q 6.296875 37.9375 6.296875 49.421875 
Q 6.296875 60.640625 12.9375 67.421875 
Q 19.578125 74.21875 30.609375 74.21875 
Q 43.265625 74.21875 49.921875 64.515625 
Q 56.59375 54.828125 56.59375 36.375 
Q 56.59375 19.140625 48.40625 8.859375 
Q 40.234375 -1.421875 26.421875 -1.421875 
Q 22.703125 -1.421875 18.890625 -0.6875 
Q 15.09375 0.046875 10.984375 1.515625 
z
M 30.609375 32.421875 
Q 37.25 32.421875 41.125 36.953125 
Q 45.015625 41.5 45.015625 49.421875 
Q 45.015625 57.28125 41.125 61.84375 
Q 37.25 66.40625 30.609375 66.40625 
Q 23.96875 66.40625 20.09375 61.84375 
Q 16.21875 57.28125 16.21875 49.421875 
Q 16.21875 41.5 20.09375 36.953125 
Q 23.96875 32.421875 30.609375 32.421875 
z
" id="DejaVuSans-57"/>
       </defs>
       <use xlink:href="#DejaVuSans-50"/>
       <use x="63.623047" xlink:href="#DejaVuSans-48"/>
       <use x="127.246094" xlink:href="#DejaVuSans-50"/>
       <use x="190.869141" xlink:href="#DejaVuSans-52"/>
       <use x="254.492188" xlink:href="#DejaVuSans-45"/>
       <use x="290.576172" xlink:href="#DejaVuSans-48"/>
       <use x="354.199219" xlink:href="#DejaVuSans-56"/>
       <use x="417.822266" xlink:href="#DejaVuSans-45"/>
       <use x="453.90625" xlink:href="#DejaVuSans-50"/>
       <use x="517.529297" xlink:href="#DejaVuSans-57"/>
      </g>
     </g>
    </g>
    <g id="xtick_3">
     <g id="line2d_5">
      <path clip-path="url(#pd919f4b6e0)" d="M 165.178397 255.638708 
L 165.178397 25.44 
" style="fill:none;stroke:#b0b0b0;stroke-linecap:square;stroke-width:0.8;"/>
     </g>
     <g id="line2d_6">
      <g>
       <use style="stroke:#000000;stroke-width:0.8;" x="165.178397" xlink:href="#m2fa9c707b8" y="255.638708"/>
      </g>
     </g>
     <g id="text_3">
      <!-- 2024-08-31 -->
      <g transform="translate(157.833004 319.848351)rotate(-70)scale(0.1 -0.1)">
       <defs>
        <path d="M 40.578125 39.3125 
Q 47.65625 37.796875 51.625 33 
Q 55.609375 28.21875 55.609375 21.1875 
Q 55.609375 10.40625 48.1875 4.484375 
Q 40.765625 -1.421875 27.09375 -1.421875 
Q 22.515625 -1.421875 17.65625 -0.515625 
Q 12.796875 0.390625 7.625 2.203125 
L 7.625 11.71875 
Q 11.71875 9.328125 16.59375 8.109375 
Q 21.484375 6.890625 26.8125 6.890625 
Q 36.078125 6.890625 40.9375 10.546875 
Q 45.796875 14.203125 45.796875 21.1875 
Q 45.796875 27.640625 41.28125 31.265625 
Q 36.765625 34.90625 28.71875 34.90625 
L 20.21875 34.90625 
L 20.21875 43.015625 
L 29.109375 43.015625 
Q 36.375 43.015625 40.234375 45.921875 
Q 44.09375 48.828125 44.09375 54.296875 
Q 44.09375 59.90625 40.109375 62.90625 
Q 36.140625 65.921875 28.71875 65.921875 
Q 24.65625 65.921875 20.015625 65.03125 
Q 15.375 64.15625 9.8125 62.3125 
L 9.8125 71.09375 
Q 15.4375 72.65625 20.34375 73.4375 
Q 25.25 74.21875 29.59375 74.21875 
Q 40.828125 74.21875 47.359375 69.109375 
Q 53.90625 64.015625 53.90625 55.328125 
Q 53.90625 49.265625 50.4375 45.09375 
Q 46.96875 40.921875 40.578125 39.3125 
z
" id="DejaVuSans-51"/>
        <path d="M 12.40625 8.296875 
L 28.515625 8.296875 
L 28.515625 63.921875 
L 10.984375 60.40625 
L 10.984375 69.390625 
L 28.421875 72.90625 
L 38.28125 72.90625 
L 38.28125 8.296875 
L 54.390625 8.296875 
L 54.390625 0 
L 12.40625 0 
z
" id="DejaVuSans-49"/>
       </defs>
       <use xlink:href="#DejaVuSans-50"/>
       <use x="63.623047" xlink:href="#DejaVuSans-48"/>
       <use x="127.246094" xlink:href="#DejaVuSans-50"/>
       <use x="190.869141" xlink:href="#DejaVuSans-52"/>
       <use x="254.492188" xlink:href="#DejaVuSans-45"/>
       <use x="290.576172" xlink:href="#DejaVuSans-48"/>
       <use x="354.199219" xlink:href="#DejaVuSans-56"/>
       <use x="417.822266" xlink:href="#DejaVuSans-45"/>
       <use x="453.90625" xlink:href="#DejaVuSans-51"/>
       <use x="517.529297" xlink:href="#DejaVuSans-49"/>
      </g>
     </g>
    </g>
    <g id="xtick_4">
     <g id="line2d_7">
      <path clip-path="url(#pd919f4b6e0)" d="M 195.102159 255.638708 
L 195.102159 25.44 
" style="fill:none;stroke:#b0b0b0;stroke-linecap:square;stroke-width:0.8;"/>
     </g>
     <g id="line2d_8">
      <g>
       <use style="stroke:#000000;stroke-width:0.8;" x="195.102159" xlink:href="#m2fa9c707b8" y="255.638708"/>
      </g>
     </g>
     <g id="text_4">
      <!-- 2024-09-01 -->
      <g transform="translate(187.756767 319.848351)rotate(-70)scale(0.1 -0.1)">
       <use xlink:href="#DejaVuSans-50"/>
       <use x="63.623047" xlink:href="#DejaVuSans-48"/>
       <use x="127.246094" xlink:href="#DejaVuSans-50"/>
       <use x="190.869141" xlink:href="#DejaVuSans-52"/>
       <use x="254.492188" xlink:href="#DejaVuSans-45"/>
       <use x="290.576172" xlink:href="#DejaVuSans-48"/>
       <use x="354.199219" xlink:href="#DejaVuSans-57"/>
       <use x="417.822266" xlink:href="#DejaVuSans-45"/>
       <use x="453.90625" xlink:href="#DejaVuSans-48"/>
       <use x="517.529297" xlink:href="#DejaVuSans-49"/>
      </g>
     </g>
    </g>
    <g id="xtick_5">
     <g id="line2d_9">
      <path clip-path="url(#pd919f4b6e0)" d="M 254.949684 255.638708 
L 254.949684 25.44 
" style="fill:none;stroke:#b0b0b0;stroke-linecap:square;stroke-width:0.8;"/>
     </g>
     <g id="line2d_10">
      <g>
       <use style="stroke:#000000;stroke-width:0.8;" x="254.949684" xlink:href="#m2fa9c707b8" y="255.638708"/>
      </g>
     </g>
     <g id="text_5">
      <!-- 2024-09-03 -->
      <g transform="translate(247.604291 319.848351)rotate(-70)scale(0.1 -0.1)">
       <use xlink:href="#DejaVuSans-50"/>
       <use x="63.623047" xlink:href="#DejaVuSans-48"/>
       <use x="127.246094" xlink:href="#DejaVuSans-50"/>
       <use x="190.869141" xlink:href="#DejaVuSans-52"/>
       <use x="254.492188" xlink:href="#DejaVuSans-45"/>
       <use x="290.576172" xlink:href="#DejaVuSans-48"/>
       <use x="354.199219" xlink:href="#DejaVuSans-57"/>
       <use x="417.822266" xlink:href="#DejaVuSans-45"/>
       <use x="453.90625" xlink:href="#DejaVuSans-48"/>
       <use x="517.529297" xlink:href="#DejaVuSans-51"/>
      </g>
     </g>
    </g>
    <g id="xtick_6">
     <g id="line2d_11">
      <path clip-path="url(#pd919f4b6e0)" d="M 314.797208 255.638708 
L 314.797208 25.44 
" style="fill:none;stroke:#b0b0b0;stroke-linecap:square;stroke-width:0.8;"/>
     </g>
     <g id="line2d_12">
      <g>
       <use style="stroke:#000000;stroke-width:0.8;" x="314.797208" xlink:href="#m2fa9c707b8" y="255.638708"/>
      </g>
     </g>
     <g id="text_6">
      <!-- 2024-09-05 -->
      <g transform="translate(307.451815 319.848351)rotate(-70)scale(0.1 -0.1)">
       <defs>
        <path d="M 10.796875 72.90625 
L 49.515625 72.90625 
L 49.515625 64.59375 
L 19.828125 64.59375 
L 19.828125 46.734375 
Q 21.96875 47.46875 24.109375 47.828125 
Q 26.265625 48.1875 28.421875 48.1875 
Q 40.625 48.1875 47.75 41.5 
Q 54.890625 34.8125 54.890625 23.390625 
Q 54.890625 11.625 47.5625 5.09375 
Q 40.234375 -1.421875 26.90625 -1.421875 
Q 22.3125 -1.421875 17.546875 -0.640625 
Q 12.796875 0.140625 7.71875 1.703125 
L 7.71875 11.625 
Q 12.109375 9.234375 16.796875 8.0625 
Q 21.484375 6.890625 26.703125 6.890625 
Q 35.15625 6.890625 40.078125 11.328125 
Q 45.015625 15.765625 45.015625 23.390625 
Q 45.015625 31 40.078125 35.4375 
Q 35.15625 39.890625 26.703125 39.890625 
Q 22.75 39.890625 18.8125 39.015625 
Q 14.890625 38.140625 10.796875 36.28125 
z
" id="DejaVuSans-53"/>
       </defs>
       <use xlink:href="#DejaVuSans-50"/>
       <use x="63.623047" xlink:href="#DejaVuSans-48"/>
       <use x="127.246094" xlink:href="#DejaVuSans-50"/>
       <use x="190.869141" xlink:href="#DejaVuSans-52"/>
       <use x="254.492188" xlink:href="#DejaVuSans-45"/>
       <use x="290.576172" xlink:href="#DejaVuSans-48"/>
       <use x="354.199219" xlink:href="#DejaVuSans-57"/>
       <use x="417.822266" xlink:href="#DejaVuSans-45"/>
       <use x="453.90625" xlink:href="#DejaVuSans-48"/>
       <use x="517.529297" xlink:href="#DejaVuSans-53"/>
      </g>
     </g>
    </g>
    <g id="xtick_7">
     <g id="line2d_13">
      <path clip-path="url(#pd919f4b6e0)" d="M 374.644732 255.638708 
L 374.644732 25.44 
" style="fill:none;stroke:#b0b0b0;stroke-linecap:square;stroke-width:0.8;"/>
     </g>
     <g id="line2d_14">
      <g>
       <use style="stroke:#000000;stroke-width:0.8;" x="374.644732" xlink:href="#m2fa9c707b8" y="255.638708"/>
      </g>
     </g>
     <g id="text_7">
      <!-- 2024-09-07 -->
      <g transform="translate(367.299339 319.848351)rotate(-70)scale(0.1 -0.1)">
       <use xlink:href="#DejaVuSans-50"/>
       <use x="63.623047" xlink:href="#DejaVuSans-48"/>
       <use x="127.246094" xlink:href="#DejaVuSans-50"/>
       <use x="190.869141" xlink:href="#DejaVuSans-52"/>
       <use x="254.492188" xlink:href="#DejaVuSans-45"/>
       <use x="290.576172" xlink:href="#DejaVuSans-48"/>
       <use x="354.199219" xlink:href="#DejaVuSans-57"/>
       <use x="417.822266" xlink:href="#DejaVuSans-45"/>
       <use x="453.90625" xlink:href="#DejaVuSans-48"/>
       <use x="517.529297" xlink:href="#DejaVuSans-55"/>
      </g>
     </g>
    </g>
    <g id="xtick_8">
     <g id="line2d_15">
      <path clip-path="url(#pd919f4b6e0)" d="M 434.492256 255.638708 
L 434.492256 25.44 
" style="fill:none;stroke:#b0b0b0;stroke-linecap:square;stroke-width:0.8;"/>
     </g>
     <g id="line2d_16">
      <g>
       <use style="stroke:#000000;stroke-width:0.8;" x="434.492256" xlink:href="#m2fa9c707b8" y="255.638708"/>
      </g>
     </g>
     <g id="text_8">
      <!-- 2024-09-09 -->
      <g transform="translate(427.146863 319.848351)rotate(-70)scale(0.1 -0.1)">
       <use xlink:href="#DejaVuSans-50"/>
       <use x="63.623047" xlink:href="#DejaVuSans-48"/>
       <use x="127.246094" xlink:href="#DejaVuSans-50"/>
       <use x="190.869141" xlink:href="#DejaVuSans-52"/>
       <use x="254.492188" xlink:href="#DejaVuSans-45"/>
       <use x="290.576172" xlink:href="#DejaVuSans-48"/>
       <use x="354.199219" xlink:href="#DejaVuSans-57"/>
       <use x="417.822266" xlink:href="#DejaVuSans-45"/>
       <use x="453.90625" xlink:href="#DejaVuSans-48"/>
       <use x="517.529297" xlink:href="#DejaVuSans-57"/>
      </g>
     </g>
    </g>
    <g id="text_9">
     <!-- Date -->
     <g transform="translate(231.668827 332.158083)scale(0.1 -0.1)">
      <defs>
       <path d="M 19.671875 64.796875 
L 19.671875 8.109375 
L 31.59375 8.109375 
Q 46.6875 8.109375 53.6875 14.9375 
Q 60.6875 21.78125 60.6875 36.53125 
Q 60.6875 51.171875 53.6875 57.984375 
Q 46.6875 64.796875 31.59375 64.796875 
z
M 9.8125 72.90625 
L 30.078125 72.90625 
Q 51.265625 72.90625 61.171875 64.09375 
Q 71.09375 55.28125 71.09375 36.53125 
Q 71.09375 17.671875 61.125 8.828125 
Q 51.171875 0 30.078125 0 
L 9.8125 0 
z
" id="DejaVuSans-68"/>
       <path d="M 34.28125 27.484375 
Q 23.390625 27.484375 19.1875 25 
Q 14.984375 22.515625 14.984375 16.5 
Q 14.984375 11.71875 18.140625 8.90625 
Q 21.296875 6.109375 26.703125 6.109375 
Q 34.1875 6.109375 38.703125 11.40625 
Q 43.21875 16.703125 43.21875 25.484375 
L 43.21875 27.484375 
z
M 52.203125 31.203125 
L 52.203125 0 
L 43.21875 0 
L 43.21875 8.296875 
Q 40.140625 3.328125 35.546875 0.953125 
Q 30.953125 -1.421875 24.3125 -1.421875 
Q 15.921875 -1.421875 10.953125 3.296875 
Q 6 8.015625 6 15.921875 
Q 6 25.140625 12.171875 29.828125 
Q 18.359375 34.515625 30.609375 34.515625 
L 43.21875 34.515625 
L 43.21875 35.40625 
Q 43.21875 41.609375 39.140625 45 
Q 35.0625 48.390625 27.6875 48.390625 
Q 23 48.390625 18.546875 47.265625 
Q 14.109375 46.140625 10.015625 43.890625 
L 10.015625 52.203125 
Q 14.9375 54.109375 19.578125 55.046875 
Q 24.21875 56 28.609375 56 
Q 40.484375 56 46.34375 49.84375 
Q 52.203125 43.703125 52.203125 31.203125 
z
" id="DejaVuSans-97"/>
       <path d="M 18.3125 70.21875 
L 18.3125 54.6875 
L 36.8125 54.6875 
L 36.8125 47.703125 
L 18.3125 47.703125 
L 18.3125 18.015625 
Q 18.3125 11.328125 20.140625 9.421875 
Q 21.96875 7.515625 27.59375 7.515625 
L 36.8125 7.515625 
L 36.8125 0 
L 27.59375 0 
Q 17.1875 0 13.234375 3.875 
Q 9.28125 7.765625 9.28125 18.015625 
L 9.28125 47.703125 
L 2.6875 47.703125 
L 2.6875 54.6875 
L 9.28125 54.6875 
L 9.28125 70.21875 
z
" id="DejaVuSans-116"/>
       <path d="M 56.203125 29.59375 
L 56.203125 25.203125 
L 14.890625 25.203125 
Q 15.484375 15.921875 20.484375 11.0625 
Q 25.484375 6.203125 34.421875 6.203125 
Q 39.59375 6.203125 44.453125 7.46875 
Q 49.3125 8.734375 54.109375 11.28125 
L 54.109375 2.78125 
Q 49.265625 0.734375 44.1875 -0.34375 
Q 39.109375 -1.421875 33.890625 -1.421875 
Q 20.796875 -1.421875 13.15625 6.1875 
Q 5.515625 13.8125 5.515625 26.8125 
Q 5.515625 40.234375 12.765625 48.109375 
Q 20.015625 56 32.328125 56 
Q 43.359375 56 49.78125 48.890625 
Q 56.203125 41.796875 56.203125 29.59375 
z
M 47.21875 32.234375 
Q 47.125 39.59375 43.09375 43.984375 
Q 39.0625 48.390625 32.421875 48.390625 
Q 24.90625 48.390625 20.390625 44.140625 
Q 15.875 39.890625 15.1875 32.171875 
z
" id="DejaVuSans-101"/>
      </defs>
      <use xlink:href="#DejaVuSans-68"/>
      <use x="77.001953" xlink:href="#DejaVuSans-97"/>
      <use x="138.28125" xlink:href="#DejaVuSans-116"/>
      <use x="177.490234" xlink:href="#DejaVuSans-101"/>
     </g>
    </g>
   </g>
   <g id="matplotlib.axis_2">
    <g id="ytick_1">
     <g id="line2d_17">
      <path clip-path="url(#pd919f4b6e0)" d="M 44.66 226.204338 
L 442.579216 226.204338 
" style="fill:none;stroke:#b0b0b0;stroke-linecap:square;stroke-width:0.8;"/>
     </g>
     <g id="line2d_18">
      <defs>
       <path d="M 0 0 
L -3.5 0 
" id="m64faa823b0" style="stroke:#000000;stroke-width:0.8;"/>
      </defs>
      <g>
       <use style="stroke:#000000;stroke-width:0.8;" x="44.66" xlink:href="#m64faa823b0" y="226.204338"/>
      </g>
     </g>
     <g id="text_10">
      <!-- 55 -->
      <g transform="translate(24.935 230.003557)scale(0.1 -0.1)">
       <use xlink:href="#DejaVuSans-53"/>
       <use x="63.623047" xlink:href="#DejaVuSans-53"/>
      </g>
     </g>
    </g>
    <g id="ytick_2">
     <g id="line2d_19">
      <path clip-path="url(#pd919f4b6e0)" d="M 44.66 196.562475 
L 442.579216 196.562475 
" style="fill:none;stroke:#b0b0b0;stroke-linecap:square;stroke-width:0.8;"/>
     </g>
     <g id="line2d_20">
      <g>
       <use style="stroke:#000000;stroke-width:0.8;" x="44.66" xlink:href="#m64faa823b0" y="196.562475"/>
      </g>
     </g>
     <g id="text_11">
      <!-- 60 -->
      <g transform="translate(24.935 200.361694)scale(0.1 -0.1)">
       <defs>
        <path d="M 33.015625 40.375 
Q 26.375 40.375 22.484375 35.828125 
Q 18.609375 31.296875 18.609375 23.390625 
Q 18.609375 15.53125 22.484375 10.953125 
Q 26.375 6.390625 33.015625 6.390625 
Q 39.65625 6.390625 43.53125 10.953125 
Q 47.40625 15.53125 47.40625 23.390625 
Q 47.40625 31.296875 43.53125 35.828125 
Q 39.65625 40.375 33.015625 40.375 
z
M 52.59375 71.296875 
L 52.59375 62.3125 
Q 48.875 64.0625 45.09375 64.984375 
Q 41.3125 65.921875 37.59375 65.921875 
Q 27.828125 65.921875 22.671875 59.328125 
Q 17.53125 52.734375 16.796875 39.40625 
Q 19.671875 43.65625 24.015625 45.921875 
Q 28.375 48.1875 33.59375 48.1875 
Q 44.578125 48.1875 50.953125 41.515625 
Q 57.328125 34.859375 57.328125 23.390625 
Q 57.328125 12.15625 50.6875 5.359375 
Q 44.046875 -1.421875 33.015625 -1.421875 
Q 20.359375 -1.421875 13.671875 8.265625 
Q 6.984375 17.96875 6.984375 36.375 
Q 6.984375 53.65625 15.1875 63.9375 
Q 23.390625 74.21875 37.203125 74.21875 
Q 40.921875 74.21875 44.703125 73.484375 
Q 48.484375 72.75 52.59375 71.296875 
z
" id="DejaVuSans-54"/>
       </defs>
       <use xlink:href="#DejaVuSans-54"/>
       <use x="63.623047" xlink:href="#DejaVuSans-48"/>
      </g>
     </g>
    </g>
    <g id="ytick_3">
     <g id="line2d_21">
      <path clip-path="url(#pd919f4b6e0)" d="M 44.66 166.920612 
L 442.579216 166.920612 
" style="fill:none;stroke:#b0b0b0;stroke-linecap:square;stroke-width:0.8;"/>
     </g>
     <g id="line2d_22">
      <g>
       <use style="stroke:#000000;stroke-width:0.8;" x="44.66" xlink:href="#m64faa823b0" y="166.920612"/>
      </g>
     </g>
     <g id="text_12">
      <!-- 65 -->
      <g transform="translate(24.935 170.719831)scale(0.1 -0.1)">
       <use xlink:href="#DejaVuSans-54"/>
       <use x="63.623047" xlink:href="#DejaVuSans-53"/>
      </g>
     </g>
    </g>
    <g id="ytick_4">
     <g id="line2d_23">
      <path clip-path="url(#pd919f4b6e0)" d="M 44.66 137.278749 
L 442.579216 137.278749 
" style="fill:none;stroke:#b0b0b0;stroke-linecap:square;stroke-width:0.8;"/>
     </g>
     <g id="line2d_24">
      <g>
       <use style="stroke:#000000;stroke-width:0.8;" x="44.66" xlink:href="#m64faa823b0" y="137.278749"/>
      </g>
     </g>
     <g id="text_13">
      <!-- 70 -->
      <g transform="translate(24.935 141.077968)scale(0.1 -0.1)">
       <use xlink:href="#DejaVuSans-55"/>
       <use x="63.623047" xlink:href="#DejaVuSans-48"/>
      </g>
     </g>
    </g>
    <g id="ytick_5">
     <g id="line2d_25">
      <path clip-path="url(#pd919f4b6e0)" d="M 44.66 107.636886 
L 442.579216 107.636886 
" style="fill:none;stroke:#b0b0b0;stroke-linecap:square;stroke-width:0.8;"/>
     </g>
     <g id="line2d_26">
      <g>
       <use style="stroke:#000000;stroke-width:0.8;" x="44.66" xlink:href="#m64faa823b0" y="107.636886"/>
      </g>
     </g>
     <g id="text_14">
      <!-- 75 -->
      <g transform="translate(24.935 111.436105)scale(0.1 -0.1)">
       <use xlink:href="#DejaVuSans-55"/>
       <use x="63.623047" xlink:href="#DejaVuSans-53"/>
      </g>
     </g>
    </g>
    <g id="ytick_6">
     <g id="line2d_27">
      <path clip-path="url(#pd919f4b6e0)" d="M 44.66 77.995023 
L 442.579216 77.995023 
" style="fill:none;stroke:#b0b0b0;stroke-linecap:square;stroke-width:0.8;"/>
     </g>
     <g id="line2d_28">
      <g>
       <use style="stroke:#000000;stroke-width:0.8;" x="44.66" xlink:href="#m64faa823b0" y="77.995023"/>
      </g>
     </g>
     <g id="text_15">
      <!-- 80 -->
      <g transform="translate(24.935 81.794242)scale(0.1 -0.1)">
       <use xlink:href="#DejaVuSans-56"/>
       <use x="63.623047" xlink:href="#DejaVuSans-48"/>
      </g>
     </g>
    </g>
    <g id="ytick_7">
     <g id="line2d_29">
      <path clip-path="url(#pd919f4b6e0)" d="M 44.66 48.35316 
L 442.579216 48.35316 
" style="fill:none;stroke:#b0b0b0;stroke-linecap:square;stroke-width:0.8;"/>
     </g>
     <g id="line2d_30">
      <g>
       <use style="stroke:#000000;stroke-width:0.8;" x="44.66" xlink:href="#m64faa823b0" y="48.35316"/>
      </g>
     </g>
     <g id="text_16">
      <!-- 85 -->
      <g transform="translate(24.935 52.152379)scale(0.1 -0.1)">
       <use xlink:href="#DejaVuSans-56"/>
       <use x="63.623047" xlink:href="#DejaVuSans-53"/>
      </g>
     </g>
    </g>
    <g id="text_17">
     <!-- Temperature [F] -->
     <g transform="translate(18.855313 180.575291)rotate(-90)scale(0.1 -0.1)">
      <defs>
       <path d="M -0.296875 72.90625 
L 61.375 72.90625 
L 61.375 64.59375 
L 35.5 64.59375 
L 35.5 0 
L 25.59375 0 
L 25.59375 64.59375 
L -0.296875 64.59375 
z
" id="DejaVuSans-84"/>
       <path d="M 52 44.1875 
Q 55.375 50.25 60.0625 53.125 
Q 64.75 56 71.09375 56 
Q 79.640625 56 84.28125 50.015625 
Q 88.921875 44.046875 88.921875 33.015625 
L 88.921875 0 
L 79.890625 0 
L 79.890625 32.71875 
Q 79.890625 40.578125 77.09375 44.375 
Q 74.3125 48.1875 68.609375 48.1875 
Q 61.625 48.1875 57.5625 43.546875 
Q 53.515625 38.921875 53.515625 30.90625 
L 53.515625 0 
L 44.484375 0 
L 44.484375 32.71875 
Q 44.484375 40.625 41.703125 44.40625 
Q 38.921875 48.1875 33.109375 48.1875 
Q 26.21875 48.1875 22.15625 43.53125 
Q 18.109375 38.875 18.109375 30.90625 
L 18.109375 0 
L 9.078125 0 
L 9.078125 54.6875 
L 18.109375 54.6875 
L 18.109375 46.1875 
Q 21.1875 51.21875 25.484375 53.609375 
Q 29.78125 56 35.6875 56 
Q 41.65625 56 45.828125 52.96875 
Q 50 49.953125 52 44.1875 
z
" id="DejaVuSans-109"/>
       <path d="M 18.109375 8.203125 
L 18.109375 -20.796875 
L 9.078125 -20.796875 
L 9.078125 54.6875 
L 18.109375 54.6875 
L 18.109375 46.390625 
Q 20.953125 51.265625 25.265625 53.625 
Q 29.59375 56 35.59375 56 
Q 45.5625 56 51.78125 48.09375 
Q 58.015625 40.1875 58.015625 27.296875 
Q 58.015625 14.40625 51.78125 6.484375 
Q 45.5625 -1.421875 35.59375 -1.421875 
Q 29.59375 -1.421875 25.265625 0.953125 
Q 20.953125 3.328125 18.109375 8.203125 
z
M 48.6875 27.296875 
Q 48.6875 37.203125 44.609375 42.84375 
Q 40.53125 48.484375 33.40625 48.484375 
Q 26.265625 48.484375 22.1875 42.84375 
Q 18.109375 37.203125 18.109375 27.296875 
Q 18.109375 17.390625 22.1875 11.75 
Q 26.265625 6.109375 33.40625 6.109375 
Q 40.53125 6.109375 44.609375 11.75 
Q 48.6875 17.390625 48.6875 27.296875 
z
" id="DejaVuSans-112"/>
       <path d="M 41.109375 46.296875 
Q 39.59375 47.171875 37.8125 47.578125 
Q 36.03125 48 33.890625 48 
Q 26.265625 48 22.1875 43.046875 
Q 18.109375 38.09375 18.109375 28.8125 
L 18.109375 0 
L 9.078125 0 
L 9.078125 54.6875 
L 18.109375 54.6875 
L 18.109375 46.1875 
Q 20.953125 51.171875 25.484375 53.578125 
Q 30.03125 56 36.53125 56 
Q 37.453125 56 38.578125 55.875 
Q 39.703125 55.765625 41.0625 55.515625 
z
" id="DejaVuSans-114"/>
       <path d="M 8.5 21.578125 
L 8.5 54.6875 
L 17.484375 54.6875 
L 17.484375 21.921875 
Q 17.484375 14.15625 20.5 10.265625 
Q 23.53125 6.390625 29.59375 6.390625 
Q 36.859375 6.390625 41.078125 11.03125 
Q 45.3125 15.671875 45.3125 23.6875 
L 45.3125 54.6875 
L 54.296875 54.6875 
L 54.296875 0 
L 45.3125 0 
L 45.3125 8.40625 
Q 42.046875 3.421875 37.71875 1 
Q 33.40625 -1.421875 27.6875 -1.421875 
Q 18.265625 -1.421875 13.375 4.4375 
Q 8.5 10.296875 8.5 21.578125 
z
M 31.109375 56 
z
" id="DejaVuSans-117"/>
       <path id="DejaVuSans-32"/>
       <path d="M 8.59375 75.984375 
L 29.296875 75.984375 
L 29.296875 69 
L 17.578125 69 
L 17.578125 -6.203125 
L 29.296875 -6.203125 
L 29.296875 -13.1875 
L 8.59375 -13.1875 
z
" id="DejaVuSans-91"/>
       <path d="M 9.8125 72.90625 
L 51.703125 72.90625 
L 51.703125 64.59375 
L 19.671875 64.59375 
L 19.671875 43.109375 
L 48.578125 43.109375 
L 48.578125 34.8125 
L 19.671875 34.8125 
L 19.671875 0 
L 9.8125 0 
z
" id="DejaVuSans-70"/>
       <path d="M 30.421875 75.984375 
L 30.421875 -13.1875 
L 9.71875 -13.1875 
L 9.71875 -6.203125 
L 21.390625 -6.203125 
L 21.390625 69 
L 9.71875 69 
L 9.71875 75.984375 
z
" id="DejaVuSans-93"/>
      </defs>
      <use xlink:href="#DejaVuSans-84"/>
      <use x="44.083984" xlink:href="#DejaVuSans-101"/>
      <use x="105.607422" xlink:href="#DejaVuSans-109"/>
      <use x="203.019531" xlink:href="#DejaVuSans-112"/>
      <use x="266.496094" xlink:href="#DejaVuSans-101"/>
      <use x="328.019531" xlink:href="#DejaVuSans-114"/>
      <use x="369.132812" xlink:href="#DejaVuSans-97"/>
      <use x="430.412109" xlink:href="#DejaVuSans-116"/>
      <use x="469.621094" xlink:href="#DejaVuSans-117"/>
      <use x="533" xlink:href="#DejaVuSans-114"/>
      <use x="571.863281" xlink:href="#DejaVuSans-101"/>
      <use x="633.386719" xlink:href="#DejaVuSans-32"/>
      <use x="665.173828" xlink:href="#DejaVuSans-91"/>
      <use x="704.1875" xlink:href="#DejaVuSans-70"/>
      <use x="761.707031" xlink:href="#DejaVuSans-93"/>
     </g>
    </g>
   </g>
   <g id="line2d_31">
    <path clip-path="url(#pd919f4b6e0)" d="M 62.747237 143.799959 
L 62.792908 143.799959 
L 62.922467 143.207122 
L 63.008869 143.207122 
L 63.030457 143.799959 
L 63.074 142.614284 
L 63.11699 143.207122 
L 63.247316 142.614284 
L 63.26977 142.614284 
L 63.335662 142.021447 
L 63.378943 142.614284 
L 63.423844 142.614284 
L 63.46706 143.207122 
L 63.511287 142.021447 
L 63.533589 142.021447 
L 63.555139 143.207122 
L 63.642936 142.021447 
L 63.774482 140.242935 
L 63.795988 140.242935 
L 63.81806 140.835773 
L 63.905237 140.242935 
L 63.948646 140.242935 
L 64.059308 139.650098 
L 64.145966 140.835773 
L 64.167429 139.650098 
L 64.189953 139.650098 
L 64.322141 140.242935 
L 64.36548 140.242935 
L 64.497452 140.835773 
L 64.51971 140.835773 
L 64.674142 139.057261 
L 64.740523 140.242935 
L 64.785068 139.057261 
L 64.851977 139.057261 
L 64.874566 138.464424 
L 64.939786 139.650098 
L 65.109112 138.464424 
L 65.265412 140.835773 
L 65.310172 140.242935 
L 65.355968 140.835773 
L 65.404542 140.835773 
L 65.42615 142.021447 
L 65.513418 140.835773 
L 65.535228 140.835773 
L 65.623585 140.242935 
L 65.645394 140.835773 
L 65.667909 140.835773 
L 65.733283 140.242935 
L 65.75586 140.835773 
L 65.800664 140.242935 
L 65.865843 142.021447 
L 65.890652 142.021447 
L 65.976858 140.242935 
L 66.020437 140.835773 
L 66.108132 143.207122 
L 66.131274 142.021447 
L 66.152747 140.835773 
L 66.19664 144.392796 
L 66.24106 142.021447 
L 66.262504 142.614284 
L 66.284694 140.242935 
L 66.307127 142.021447 
L 66.33189 140.242935 
L 66.353756 143.207122 
L 66.375247 142.021447 
L 66.420299 144.392796 
L 66.487176 143.799959 
L 66.619086 144.985633 
L 66.643143 144.985633 
L 66.665402 144.392796 
L 66.752532 144.985633 
L 66.906486 144.985633 
L 66.994213 145.578471 
L 67.016806 144.985633 
L 67.060626 144.985633 
L 67.147558 144.392796 
L 67.191963 145.578471 
L 67.215327 145.578471 
L 67.280999 143.207122 
L 67.303615 144.985633 
L 67.326243 146.764145 
L 67.414252 145.578471 
L 67.436548 145.578471 
L 67.613111 143.799959 
L 67.634611 143.799959 
L 67.767326 144.985633 
L 67.789058 143.207122 
L 67.83311 145.578471 
L 67.877107 144.392796 
L 67.900181 144.392796 
L 68.0087 145.578471 
L 68.030645 144.392796 
L 68.118079 144.985633 
L 68.184043 144.985633 
L 68.296269 145.578471 
L 68.430602 144.392796 
L 68.583141 145.578471 
L 68.845748 145.578471 
L 68.977818 146.764145 
L 69.333578 146.764145 
L 69.423005 147.356982 
L 69.532128 146.764145 
L 69.663324 147.356982 
L 69.992239 147.356982 
L 70.014056 147.94982 
L 70.035655 147.356982 
L 125.335912 147.94982 
L 125.358249 147.356982 
L 125.619952 145.578471 
L 125.733193 147.356982 
L 125.755345 145.578471 
L 125.846139 146.764145 
L 125.8684 146.764145 
L 125.9801 143.207122 
L 126.00161 144.985633 
L 126.052323 144.985633 
L 126.217836 146.764145 
L 126.288367 146.764145 
L 126.309846 147.356982 
L 126.33233 145.578471 
L 126.376976 146.764145 
L 126.493337 140.242935 
L 126.648263 145.578471 
L 126.673019 144.392796 
L 126.739362 145.578471 
L 126.76087 145.578471 
L 126.793737 146.764145 
L 126.837666 145.578471 
L 126.86443 144.985633 
L 126.934478 145.578471 
L 126.955973 145.578471 
L 127.06772 139.650098 
L 127.176713 145.578471 
L 127.263987 139.057261 
L 127.330247 140.242935 
L 127.416989 144.985633 
L 127.471247 146.764145 
L 127.514198 144.392796 
L 127.550055 144.985633 
L 127.617579 144.392796 
L 127.639828 144.392796 
L 127.662573 143.799959 
L 127.684159 144.392796 
L 127.77277 146.764145 
L 127.816097 145.578471 
L 127.843076 145.578471 
L 127.982467 139.650098 
L 128.003923 142.614284 
L 128.12943 146.764145 
L 128.174844 144.985633 
L 128.197116 144.392796 
L 128.240013 145.578471 
L 128.261845 145.578471 
L 128.284576 146.764145 
L 128.306001 144.985633 
L 128.328302 145.578471 
L 128.416601 145.578471 
L 128.438949 144.392796 
L 128.485392 145.578471 
L 128.507842 147.356982 
L 128.551805 144.985633 
L 128.573594 144.985633 
L 128.595012 144.985633 
L 128.617636 145.578471 
L 128.641002 142.021447 
L 128.73204 144.985633 
L 128.754199 144.985633 
L 128.798964 143.207122 
L 128.86407 144.392796 
L 128.907864 144.392796 
L 128.929977 144.985633 
L 129.000981 144.392796 
L 129.043851 144.392796 
L 129.109384 143.799959 
L 129.174027 144.985633 
L 129.195457 144.392796 
L 129.261561 144.985633 
L 129.392671 146.764145 
L 129.41413 145.578471 
L 129.479047 146.764145 
L 129.611001 147.356982 
L 129.873565 147.356982 
L 129.939719 147.94982 
L 129.983545 147.356982 
L 130.182161 147.356982 
L 130.203816 144.985633 
L 130.290677 146.764145 
L 130.312818 146.764145 
L 130.447458 147.356982 
L 130.469565 147.356982 
L 130.49145 146.764145 
L 130.577988 147.356982 
L 130.71129 147.94982 
L 131.156663 147.94982 
L 131.180021 148.542657 
L 131.229504 147.356982 
L 131.253808 147.94982 
L 131.367402 147.356982 
L 131.548627 147.356982 
L 131.659134 146.764145 
L 131.989989 146.764145 
L 132.011467 147.356982 
L 132.100576 146.764145 
L 132.253853 146.764145 
L 132.321067 147.356982 
L 132.364023 146.764145 
L 132.49363 146.764145 
L 132.558759 147.356982 
L 132.602122 146.764145 
L 132.624971 146.764145 
L 132.755789 147.356982 
L 132.885075 146.764145 
L 132.949475 147.356982 
L 132.971663 146.764145 
L 133.259097 146.764145 
L 219.718887 130.164702 
L 219.873285 131.350376 
L 219.894927 130.164702 
L 219.939717 131.350376 
L 220.010181 131.350376 
L 220.032501 130.164702 
L 220.103089 131.350376 
L 220.278737 131.350376 
L 220.323073 131.943214 
L 220.366905 131.350376 
L 220.48074 131.350376 
L 220.598917 131.943214 
L 220.731163 131.350376 
L 220.861264 131.943214 
L 220.980235 131.350376 
L 221.10089 131.943214 
L 221.495589 131.943214 
L 221.60362 132.536051 
L 221.735473 131.943214 
L 221.759684 132.536051 
L 221.825796 131.943214 
L 221.872227 131.943214 
L 222.002322 132.536051 
L 222.377378 132.536051 
L 222.399058 133.128888 
L 222.485862 132.536051 
L 222.532755 132.536051 
L 222.556744 133.128888 
L 222.63222 132.536051 
L 222.811844 132.536051 
L 222.945524 133.128888 
L 223.835205 133.128888 
L 223.857742 133.721726 
L 223.90251 133.128888 
L 224.102054 133.128888 
L 224.192708 133.721726 
L 224.304099 133.128888 
L 224.435214 133.721726 
L 224.706742 133.721726 
L 224.810297 134.314563 
L 224.941003 133.721726 
L 225.537754 133.721726 
L 225.559167 133.128888 
L 225.648417 133.721726 
L 225.759922 133.721726 
L 225.892417 133.128888 
L 225.913916 133.128888 
L 226.023921 133.721726 
L 226.333469 133.721726 
L 226.354908 134.314563 
L 226.44079 133.721726 
L 226.811376 133.721726 
L 226.833458 133.128888 
L 226.921096 133.721726 
L 226.942472 133.721726 
L 226.97128 133.128888 
L 227.040891 133.721726 
L 227.215225 133.721726 
L 227.237342 133.128888 
L 227.325908 133.721726 
L 227.988283 133.721726 
L 228.120401 134.314563 
L 228.211333 133.721726 
L 228.307746 134.314563 
L 228.418564 133.721726 
L 228.506031 134.314563 
L 228.527753 133.721726 
L 228.551125 133.721726 
L 228.572693 134.314563 
L 228.659881 133.721726 
L 228.704497 133.721726 
L 228.835224 134.314563 
L 229.177008 134.314563 
L 229.198702 134.9074 
L 229.285865 134.314563 
L 229.510579 134.314563 
L 229.577624 134.9074 
L 229.600333 134.314563 
L 229.644388 134.314563 
L 229.71024 134.9074 
L 229.755046 134.314563 
L 229.778725 134.314563 
L 229.892549 134.9074 
L 229.91578 134.314563 
L 229.987583 134.9074 
L 230.649377 134.9074 
L 230.762205 136.093075 
L 230.873815 134.9074 
L 231.099351 134.9074 
L 231.142787 136.093075 
L 231.210385 134.9074 
L 231.370227 134.9074 
L 231.501993 136.093075 
L 231.632646 134.9074 
L 231.655892 134.9074 
L 231.76655 136.093075 
L 231.878791 134.9074 
L 232.011142 136.093075 
L 232.033434 134.9074 
L 232.122114 136.093075 
L 232.718331 136.093075 
L 232.786392 136.685912 
L 232.808203 136.093075 
L 232.92279 136.093075 
L 232.945313 136.685912 
L 232.967097 136.093075 
L 233.206439 136.093075 
L 233.295445 136.685912 
L 233.317046 136.093075 
L 233.361131 136.093075 
L 233.471881 136.685912 
L 234.20413 136.685912 
L 234.336725 137.278749 
L 234.380818 137.278749 
L 234.424147 136.685912 
L 234.488952 137.278749 
L 234.94962 137.278749 
L 235.038886 136.685912 
L 235.060617 137.278749 
L 236.032133 137.278749 
L 236.053676 137.871586 
L 236.125582 137.278749 
L 236.878958 137.278749 
L 236.97116 137.871586 
L 237.038065 137.278749 
L 237.067822 137.871586 
L 237.743165 137.871586 
L 237.764679 137.278749 
L 237.8322 137.871586 
L 237.922201 137.871586 
L 237.987941 137.278749 
L 238.033336 137.871586 
L 238.099998 137.871586 
L 238.233986 137.278749 
L 238.29943 137.278749 
L 238.320862 137.871586 
L 238.40935 137.278749 
L 238.431887 137.278749 
L 238.522734 137.871586 
L 238.654888 137.278749 
L 238.785876 137.278749 
L 238.878116 137.871586 
L 238.989857 137.278749 
L 239.66787 137.278749 
L 239.800228 136.685912 
L 239.95661 136.685912 
L 240.001317 136.093075 
L 240.046031 136.685912 
L 240.158068 136.685912 
L 240.207728 136.093075 
L 240.252774 136.685912 
L 240.274442 136.685912 
L 240.297327 136.093075 
L 240.385053 136.685912 
L 240.966677 136.685912 
L 241.09903 136.093075 
L 241.127852 136.093075 
L 241.149507 136.685912 
L 241.236695 136.093075 
L 241.282206 136.093075 
L 241.414308 134.9074 
L 241.593578 134.9074 
L 241.636953 134.314563 
L 241.703085 134.9074 
L 242.187778 134.9074 
L 242.253179 134.314563 
L 242.298709 134.9074 
L 242.3854 134.9074 
L 242.517029 134.314563 
L 242.538495 134.314563 
L 242.669529 133.721726 
L 242.800027 134.314563 
L 242.821491 134.314563 
L 242.930838 133.721726 
L 242.997355 134.314563 
L 243.024871 133.721726 
L 243.162041 133.721726 
L 243.295394 134.314563 
L 243.38553 133.721726 
L 243.499038 134.314563 
L 243.569461 134.314563 
L 243.590981 133.721726 
L 243.678899 134.314563 
L 243.947758 134.314563 
L 244.036274 133.721726 
L 244.080654 134.314563 
L 244.124956 133.721726 
L 244.171711 133.721726 
L 244.284774 134.314563 
L 244.376349 133.721726 
L 244.44362 134.314563 
L 244.468079 133.721726 
L 244.58111 133.721726 
L 244.692225 134.314563 
L 244.80435 133.721726 
L 244.939493 133.721726 
L 244.963825 134.314563 
L 245.037467 133.721726 
L 245.107168 133.721726 
L 245.129217 134.314563 
L 245.196981 133.721726 
L 245.345596 133.721726 
L 245.367059 132.536051 
L 245.454429 133.128888 
L 245.475973 133.128888 
L 245.608237 133.721726 
L 245.651638 133.721726 
L 245.69499 134.314563 
L 245.739147 133.721726 
L 245.870844 133.128888 
L 245.892333 133.128888 
L 245.913839 133.721726 
L 246.003169 133.128888 
L 246.115287 133.721726 
L 246.34063 133.721726 
L 246.36219 134.314563 
L 246.429388 133.128888 
L 246.540817 133.721726 
L 246.85247 133.721726 
L 246.984496 134.314563 
L 247.006971 133.721726 
L 247.09329 134.314563 
L 247.313213 134.314563 
L 247.401623 133.721726 
L 247.547387 134.314563 
L 247.768071 134.314563 
L 247.8325 134.9074 
L 247.875725 134.314563 
L 248.009232 134.314563 
L 248.032078 133.721726 
L 248.118731 134.314563 
L 248.342215 134.314563 
L 248.364418 134.9074 
L 248.451834 134.314563 
L 248.706871 134.314563 
L 248.796052 134.9074 
L 248.884859 134.314563 
L 249.018769 134.9074 
L 249.331323 134.9074 
L 249.375311 134.314563 
L 249.421775 134.9074 
L 249.487074 134.9074 
L 249.509949 134.314563 
L 249.597578 134.9074 
L 250.161428 134.9074 
L 250.183775 136.093075 
L 250.259041 134.9074 
L 250.281373 134.9074 
L 250.404256 136.093075 
L 250.42581 136.093075 
L 250.537175 134.9074 
L 250.668766 136.093075 
L 250.764848 136.093075 
L 250.854734 134.9074 
L 251.005773 136.093075 
L 251.518606 136.093075 
L 251.598421 136.685912 
L 251.620388 136.093075 
L 251.642968 136.093075 
L 251.776794 136.685912 
L 251.800055 136.685912 
L 251.865671 136.093075 
L 251.89367 136.685912 
L 252.517744 136.685912 
L 252.539185 137.278749 
L 252.626754 136.685912 
L 252.959063 136.685912 
L 253.06869 137.278749 
L 253.135392 136.685912 
L 253.179795 137.278749 
L 253.202328 137.278749 
L 253.292778 136.685912 
L 253.431466 137.278749 
L 254.61686 137.278749 
L 254.640904 137.871586 
L 254.711634 137.278749 
L 254.757309 137.278749 
L 254.802129 137.871586 
L 254.847676 137.278749 
L 254.872298 137.278749 
L 254.962974 137.871586 
L 254.985315 137.278749 
L 255.052597 137.871586 
L 255.272472 137.871586 
L 255.295394 137.278749 
L 255.383415 137.871586 
L 255.426645 137.871586 
L 255.448106 137.278749 
L 255.537071 137.871586 
L 255.669849 137.871586 
L 255.693091 138.464424 
L 255.780487 137.871586 
L 256.342328 137.871586 
L 256.3648 137.278749 
L 256.433791 137.871586 
L 257.41978 137.871586 
L 257.441905 138.464424 
L 257.510713 137.871586 
L 257.828696 137.871586 
L 257.903058 138.464424 
L 257.925316 137.871586 
L 258.035926 137.871586 
L 258.14816 138.464424 
L 258.397885 138.464424 
L 258.419721 137.871586 
L 258.48733 138.464424 
L 258.755744 138.464424 
L 258.779618 137.871586 
L 258.866414 138.464424 
L 259.859442 138.464424 
L 259.883553 139.057261 
L 259.948464 138.464424 
L 260.015053 138.464424 
L 260.037859 139.057261 
L 260.107574 138.464424 
L 260.237938 138.464424 
L 260.324414 139.057261 
L 260.41784 138.464424 
L 260.507729 139.057261 
L 260.637917 138.464424 
L 260.748229 139.057261 
L 260.793656 139.057261 
L 260.816387 138.464424 
L 260.882052 139.057261 
L 260.927913 139.057261 
L 261.016444 138.464424 
L 261.038918 139.057261 
L 261.104985 139.057261 
L 261.126479 138.464424 
L 261.194217 139.057261 
L 261.349047 139.057261 
L 261.372167 138.464424 
L 261.459075 139.057261 
L 263.008545 139.057261 
L 263.030994 139.650098 
L 263.118207 139.057261 
L 263.207356 139.057261 
L 263.228931 139.650098 
L 263.317076 139.057261 
L 263.338634 139.057261 
L 263.447154 139.650098 
L 263.560072 139.057261 
L 263.583504 139.057261 
L 263.696494 139.650098 
L 263.719656 139.650098 
L 263.807051 139.057261 
L 263.828907 139.650098 
L 264.489704 139.650098 
L 264.51151 140.242935 
L 264.599007 139.650098 
L 264.819211 139.650098 
L 264.888644 140.242935 
L 264.913139 139.650098 
L 265.024432 139.650098 
L 265.141523 140.242935 
L 265.208935 139.650098 
L 265.23118 140.242935 
L 265.253519 140.242935 
L 265.349028 139.650098 
L 265.371513 140.242935 
L 265.443311 139.650098 
L 265.509008 139.650098 
L 265.532367 140.242935 
L 265.638208 139.650098 
L 266.834398 139.650098 
L 266.906412 139.057261 
L 266.930092 139.650098 
L 266.994474 139.650098 
L 267.091435 139.057261 
L 267.134425 139.650098 
L 267.199642 139.057261 
L 267.771128 139.057261 
L 267.869307 138.464424 
L 267.985254 139.057261 
L 268.123856 137.871586 
L 268.146889 138.464424 
L 268.214633 137.871586 
L 268.347585 137.871586 
L 268.481246 137.278749 
L 268.572772 137.278749 
L 268.601059 136.685912 
L 268.665685 137.278749 
L 268.73411 137.278749 
L 268.804564 137.871586 
L 268.826008 137.278749 
L 268.874935 137.278749 
L 268.961238 137.871586 
L 268.98277 137.278749 
L 269.070001 137.278749 
L 269.199999 136.685912 
L 269.221465 136.685912 
L 269.350887 137.278749 
L 269.480446 136.685912 
L 269.502348 137.278749 
L 269.574076 136.685912 
L 269.595583 136.685912 
L 269.704609 137.278749 
L 269.726244 136.685912 
L 269.812394 137.278749 
L 270.079993 137.278749 
L 270.16595 136.685912 
L 270.187392 137.278749 
L 270.209109 137.278749 
L 270.234994 136.685912 
L 270.308953 137.278749 
L 270.394848 137.278749 
L 270.416416 136.685912 
L 270.502271 137.278749 
L 270.61307 137.278749 
L 270.722097 136.685912 
L 270.83437 137.278749 
L 270.964128 136.685912 
L 271.270539 136.685912 
L 271.35005 137.278749 
L 271.377463 136.685912 
L 272.050073 136.685912 
L 272.129592 136.093075 
L 272.380128 136.093075 
L 272.401925 136.685912 
L 272.438047 136.093075 
L 273.015057 136.093075 
L 273.092393 136.685912 
L 273.117002 136.093075 
L 273.407417 136.093075 
L 273.441255 136.685912 
L 273.466446 134.9074 
L 273.544485 136.093075 
L 273.598813 136.093075 
L 273.725838 134.9074 
L 274.187755 134.9074 
L 274.38634 133.721726 
L 274.408788 134.314563 
L 275.129012 134.314563 
L 275.157291 133.721726 
L 275.235369 134.314563 
L 275.326486 134.314563 
L 275.446731 133.721726 
L 275.611907 133.721726 
L 275.633539 134.314563 
L 275.705739 133.721726 
L 275.75185 133.721726 
L 275.847203 133.128888 
L 275.918185 133.721726 
L 275.943489 133.128888 
L 276.097597 133.128888 
L 276.21671 133.721726 
L 276.312862 133.721726 
L 276.335252 134.314563 
L 276.407702 133.721726 
L 276.545833 133.721726 
L 276.665749 133.128888 
L 276.72612 133.721726 
L 276.760728 133.128888 
L 276.788001 133.128888 
L 276.878635 132.536051 
L 276.900912 133.128888 
L 276.973075 132.536051 
L 277.043531 132.536051 
L 277.233516 131.943214 
L 277.33998 132.536051 
L 277.454031 131.943214 
L 277.476262 131.943214 
L 277.501162 132.536051 
L 277.740878 132.536051 
L 277.77027 133.128888 
L 277.832706 132.536051 
L 277.958317 132.536051 
L 278.073671 133.128888 
L 278.502819 133.128888 
L 278.625867 132.536051 
L 278.745749 132.536051 
L 278.846679 133.128888 
L 278.975629 132.536051 
L 279.02383 132.536051 
L 279.151333 133.128888 
L 279.294043 133.128888 
L 279.32911 133.721726 
L 279.403249 133.128888 
L 279.474025 133.721726 
L 279.498953 133.128888 
L 279.563394 133.128888 
L 279.688796 133.721726 
L 279.81577 133.721726 
L 279.916789 134.314563 
L 279.982123 133.721726 
L 280.019725 134.9074 
L 280.074962 134.314563 
L 280.242011 134.314563 
L 280.3623 134.9074 
L 280.387974 134.314563 
L 280.462027 134.9074 
L 280.653065 134.9074 
L 280.77237 136.093075 
L 281.174436 136.093075 
L 281.295755 136.685912 
L 281.321394 136.093075 
L 281.396569 136.685912 
L 281.766868 136.685912 
L 281.859659 137.278749 
L 281.956635 136.685912 
L 282.000965 137.278749 
L 282.071459 136.685912 
L 282.09391 137.278749 
L 282.145131 137.278749 
L 282.192254 136.685912 
L 282.245716 137.278749 
L 282.715236 137.278749 
L 282.827778 137.871586 
L 283.381872 137.871586 
L 283.447195 138.464424 
L 283.475565 137.871586 
L 283.752399 137.871586 
L 283.860709 138.464424 
L 283.97306 137.871586 
L 284.017892 137.871586 
L 284.128673 138.464424 
L 284.193773 137.871586 
L 284.238643 138.464424 
L 284.889496 138.464424 
L 285.019561 139.057261 
L 285.062487 139.057261 
L 285.1711 138.464424 
L 285.302436 139.057261 
L 285.828637 139.057261 
L 285.960089 139.650098 
L 285.982222 139.650098 
L 286.004329 139.057261 
L 286.090139 139.650098 
L 286.219095 139.650098 
L 286.348719 140.242935 
L 286.371256 139.650098 
L 286.458796 140.242935 
L 286.587829 140.242935 
L 286.679358 140.835773 
L 286.811399 140.242935 
L 287.328783 140.242935 
L 287.350956 139.650098 
L 287.436806 140.242935 
L 287.653328 140.242935 
L 287.675616 140.835773 
L 287.74904 140.242935 
L 287.948603 140.242935 
L 287.971163 140.835773 
L 288.059032 140.242935 
L 288.652792 140.242935 
L 288.783018 140.835773 
L 288.805182 140.835773 
L 288.936781 140.242935 
L 288.959818 140.242935 
L 289.072486 140.835773 
L 290.211217 140.835773 
L 290.31901 142.021447 
L 290.450763 140.835773 
L 290.473469 140.835773 
L 290.6031 142.021447 
L 290.6673 140.835773 
L 290.711173 142.021447 
L 291.660228 142.021447 
L 291.773093 142.614284 
L 291.885219 142.021447 
L 292.168786 142.021447 
L 292.21165 142.614284 
L 292.277403 142.021447 
L 292.408499 142.021447 
L 292.43003 142.614284 
L 292.518337 142.021447 
L 292.739066 142.021447 
L 292.760455 142.614284 
L 292.846628 142.021447 
L 292.912181 142.021447 
L 292.933702 142.614284 
L 293.019591 142.021447 
L 293.043824 142.021447 
L 293.175742 142.614284 
L 293.198309 142.614284 
L 293.306906 142.021447 
L 293.43813 142.614284 
L 293.658669 142.614284 
L 293.680791 142.021447 
L 293.767893 142.614284 
L 294.096945 142.614284 
L 294.206358 143.207122 
L 294.339139 142.614284 
L 294.852843 142.614284 
L 294.919094 143.207122 
L 294.963353 142.614284 
L 295.031577 142.614284 
L 295.139139 143.207122 
L 295.251247 142.614284 
L 295.272718 143.207122 
L 295.339581 142.614284 
L 296.565761 142.614284 
L 296.632331 142.021447 
L 296.65393 142.614284 
L 296.678308 142.614284 
L 296.701322 142.021447 
L 296.787836 142.614284 
L 296.918284 142.614284 
L 297.006541 142.021447 
L 297.029077 142.614284 
L 297.073763 142.614284 
L 297.184557 142.021447 
L 297.229164 142.614284 
L 297.294602 142.021447 
L 297.316201 142.021447 
L 297.337652 142.614284 
L 297.426718 142.021447 
L 297.718109 142.021447 
L 297.851677 140.835773 
L 298.131352 140.835773 
L 298.153691 140.242935 
L 298.221468 140.835773 
L 298.287397 140.835773 
L 298.396492 140.242935 
L 298.597391 140.242935 
L 298.71409 139.650098 
L 298.738436 139.650098 
L 298.760627 140.242935 
L 298.847084 139.650098 
L 298.978546 139.650098 
L 299.09104 139.057261 
L 299.272685 139.057261 
L 299.386754 138.464424 
L 299.475435 138.464424 
L 299.596941 137.871586 
L 299.884953 137.871586 
L 299.906518 137.278749 
L 299.973625 137.871586 
L 300.052818 137.871586 
L 300.180687 137.278749 
L 300.295972 137.278749 
L 300.345229 136.685912 
L 300.367495 137.278749 
L 300.496759 137.871586 
L 300.629541 136.685912 
L 300.770396 137.871586 
L 300.843118 137.871586 
L 300.864514 138.464424 
L 300.889389 137.871586 
L 300.98509 137.871586 
L 301.10548 137.278749 
L 301.127793 137.278749 
L 301.149241 136.685912 
L 301.192925 138.464424 
L 301.215448 137.871586 
L 301.333403 138.464424 
L 301.400689 137.871586 
L 301.422139 138.464424 
L 301.488548 138.464424 
L 301.601815 137.871586 
L 301.64632 137.871586 
L 301.764519 138.464424 
L 301.853122 138.464424 
L 301.984992 137.871586 
L 302.029715 137.871586 
L 302.075617 137.278749 
L 302.149347 138.464424 
L 302.264753 137.871586 
L 302.286692 137.871586 
L 302.379936 133.128888 
L 302.402541 130.164702 
L 302.448238 134.314563 
L 302.469955 133.721726 
L 302.736999 137.871586 
L 302.805577 137.871586 
L 302.916782 138.464424 
L 303.05033 137.871586 
L 303.366976 137.871586 
L 303.389214 138.464424 
L 303.47687 137.871586 
L 303.565318 137.871586 
L 303.589114 138.464424 
L 303.63493 137.871586 
L 303.701822 136.685912 
L 303.724514 137.278749 
L 303.856763 137.871586 
L 303.878884 137.871586 
L 304.032315 136.685912 
L 304.145653 136.685912 
L 304.196328 136.093075 
L 304.218573 137.278749 
L 304.283871 137.278749 
L 304.306467 137.871586 
L 304.354788 136.685912 
L 304.448801 136.685912 
L 304.494194 134.314563 
L 304.516977 134.9074 
L 304.59744 136.093075 
L 304.870574 134.9074 
L 304.99778 136.093075 
L 305.112422 129.571865 
L 305.185811 131.350376 
L 305.362481 134.9074 
L 305.500661 134.9074 
L 305.565633 134.314563 
L 305.599008 134.9074 
L 305.62938 134.9074 
L 305.744221 136.093075 
L 305.798434 134.9074 
L 305.848223 136.093075 
L 305.959874 134.314563 
L 306.031625 136.093075 
L 306.097572 136.093075 
L 306.232588 137.278749 
L 306.290927 136.093075 
L 306.316703 137.278749 
L 306.447362 137.871586 
L 306.510496 136.685912 
L 306.535534 137.278749 
L 306.562909 137.871586 
L 306.585111 136.685912 
L 306.816211 134.314563 
L 306.842911 134.314563 
L 306.864425 133.721726 
L 306.893072 134.9074 
L 306.949337 134.314563 
L 307.000741 133.721726 
L 307.126437 136.093075 
L 307.213372 136.093075 
L 307.298477 134.9074 
L 307.413331 136.093075 
L 307.541507 134.9074 
L 307.658764 136.093075 
L 307.754244 136.093075 
L 307.799636 134.9074 
L 307.848616 136.093075 
L 307.947281 136.093075 
L 308.053668 136.685912 
L 308.514265 136.685912 
L 308.547852 136.093075 
L 308.617738 136.685912 
L 308.668319 136.685912 
L 308.782621 137.278749 
L 308.897028 136.685912 
L 308.942373 136.685912 
L 309.07036 137.278749 
L 309.187705 137.278749 
L 309.209547 137.871586 
L 309.291356 137.278749 
L 309.358925 136.685912 
L 309.382229 137.278749 
L 309.437314 137.278749 
L 309.600263 136.685912 
L 309.736604 136.685912 
L 309.864467 137.278749 
L 310.177204 137.278749 
L 310.295512 137.871586 
L 310.463515 137.871586 
L 310.49236 138.464424 
L 310.563671 137.871586 
L 310.592091 137.871586 
L 310.709558 138.464424 
L 310.732608 137.871586 
L 310.803392 138.464424 
L 310.981222 138.464424 
L 311.096401 137.871586 
L 311.118748 137.871586 
L 311.16499 138.464424 
L 311.20979 137.871586 
L 311.276377 137.871586 
L 311.40405 138.464424 
L 312.118918 138.464424 
L 312.239318 137.871586 
L 312.737685 137.871586 
L 312.759159 138.464424 
L 312.828257 137.871586 
L 313.167829 137.871586 
L 313.280267 138.464424 
L 313.359194 138.464424 
L 313.380609 137.871586 
L 313.457623 138.464424 
L 313.55111 138.464424 
L 313.575734 137.871586 
L 313.641309 138.464424 
L 313.926448 138.464424 
L 313.948594 139.057261 
L 314.037545 138.464424 
L 314.298501 138.464424 
L 314.435469 137.871586 
L 314.479942 137.871586 
L 314.591511 138.464424 
L 314.703307 137.871586 
L 314.725152 137.871586 
L 314.84731 138.464424 
L 314.962775 137.871586 
L 315.099503 137.871586 
L 315.214563 138.464424 
L 315.286701 137.871586 
L 315.308671 138.464424 
L 315.33177 138.464424 
L 315.421593 137.871586 
L 315.533945 138.464424 
L 315.607823 138.464424 
L 315.63223 137.871586 
L 315.697894 138.464424 
L 315.76516 138.464424 
L 315.787643 137.871586 
L 315.85311 138.464424 
L 316.186918 138.464424 
L 316.319271 139.057261 
L 316.341908 139.057261 
L 316.473982 138.464424 
L 316.54327 138.464424 
L 316.586895 139.057261 
L 316.652349 138.464424 
L 316.772446 139.057261 
L 316.859198 138.464424 
L 316.881457 139.057261 
L 316.9037 139.057261 
L 317.013886 138.464424 
L 317.14545 139.057261 
L 317.765415 139.057261 
L 317.895529 139.650098 
L 317.917168 139.650098 
L 318.027878 139.057261 
L 318.160734 139.650098 
L 319.281639 139.650098 
L 319.303135 140.242935 
L 319.390595 139.650098 
L 319.699842 139.650098 
L 319.744944 140.242935 
L 319.810409 139.650098 
L 320.074629 139.650098 
L 320.16088 140.242935 
L 320.182325 139.650098 
L 320.226601 139.650098 
L 320.314525 140.242935 
L 320.448558 139.650098 
L 320.537808 140.242935 
L 320.627028 139.650098 
L 320.759842 140.242935 
L 320.853985 140.242935 
L 320.963029 139.650098 
L 321.093136 140.242935 
L 322.369864 140.242935 
L 322.501678 140.835773 
L 322.566023 140.242935 
L 322.609214 140.835773 
L 322.716969 140.835773 
L 322.825014 140.242935 
L 322.954253 140.835773 
L 323.018513 140.835773 
L 323.105527 142.021447 
L 323.127019 140.835773 
L 323.755439 140.835773 
L 323.885238 142.021447 
L 324.560145 142.021447 
L 324.629399 140.835773 
L 324.652592 142.021447 
L 324.67417 142.021447 
L 324.768693 140.835773 
L 324.877888 142.021447 
L 325.003646 140.835773 
L 325.026346 140.835773 
L 325.048398 142.021447 
L 325.119249 140.835773 
L 325.234733 140.835773 
L 325.258708 142.021447 
L 325.326631 140.835773 
L 325.371866 140.835773 
L 325.502005 142.021447 
L 325.614139 140.835773 
L 325.658606 140.835773 
L 325.791048 142.021447 
L 325.924128 140.835773 
L 326.138154 140.835773 
L 326.270068 140.242935 
L 326.448917 140.242935 
L 326.577805 139.650098 
L 326.600217 139.650098 
L 326.621919 140.242935 
L 326.708668 139.650098 
L 326.82295 139.650098 
L 326.847134 140.242935 
L 326.915772 139.650098 
L 326.983606 139.650098 
L 327.005939 139.057261 
L 327.092923 139.650098 
L 327.250383 139.650098 
L 327.272153 139.057261 
L 327.360006 139.650098 
L 327.382485 139.650098 
L 327.497979 139.057261 
L 327.60971 139.057261 
L 327.743841 138.464424 
L 327.952282 138.464424 
L 328.084117 137.871586 
L 328.215636 137.871586 
L 328.367875 136.685912 
L 328.454617 136.685912 
L 328.568427 137.278749 
L 328.681959 136.685912 
L 328.751494 136.685912 
L 328.880231 134.314563 
L 329.035273 133.128888 
L 329.060392 133.128888 
L 329.104226 132.536051 
L 329.150432 133.128888 
L 329.306779 133.128888 
L 329.397024 132.536051 
L 329.528368 133.721726 
L 329.757121 128.979027 
L 329.803542 132.536051 
L 329.876209 130.164702 
L 329.897628 130.164702 
L 329.919177 133.128888 
L 329.964134 129.571865 
L 329.988171 130.164702 
L 330.009687 130.164702 
L 330.146864 132.536051 
L 330.258016 131.350376 
L 330.279498 131.943214 
L 330.390065 130.164702 
L 330.532422 132.536051 
L 330.600582 131.943214 
L 330.695842 134.9074 
L 330.719935 134.314563 
L 330.787046 134.9074 
L 331.030459 134.9074 
L 331.145373 131.943214 
L 331.174515 133.721726 
L 331.196084 133.721726 
L 331.21764 134.314563 
L 331.239779 128.38619 
L 331.327379 134.314563 
L 331.351415 133.128888 
L 331.403746 134.9074 
L 331.426148 134.314563 
L 331.44764 134.314563 
L 331.469211 133.721726 
L 331.491476 134.9074 
L 331.557373 134.314563 
L 331.716152 134.314563 
L 331.846599 134.9074 
L 332.001491 134.9074 
L 332.131497 134.314563 
L 332.210826 134.9074 
L 332.233049 134.314563 
L 332.697258 134.314563 
L 333.026257 131.350376 
L 333.13406 133.128888 
L 333.277672 131.350376 
L 333.323385 131.943214 
L 333.392692 131.350376 
L 333.459629 133.128888 
L 333.615992 129.571865 
L 333.731083 133.721726 
L 333.789303 133.128888 
L 333.814657 133.721726 
L 333.865694 132.536051 
L 333.963538 123.643492 
L 334.19141 129.571865 
L 334.225912 128.38619 
L 334.285539 131.943214 
L 334.338183 131.350376 
L 334.365694 129.571865 
L 334.493863 129.571865 
L 334.664019 132.536051 
L 334.722483 128.38619 
L 334.788504 128.979027 
L 334.816197 128.38619 
L 334.942451 130.164702 
L 334.971454 129.571865 
L 335.120766 128.38619 
L 335.239539 131.350376 
L 335.340845 129.571865 
L 335.365197 131.350376 
L 335.390257 128.979027 
L 335.412519 129.571865 
L 335.52296 128.979027 
L 335.547344 127.200516 
L 335.57489 128.38619 
L 335.65268 128.38619 
L 335.835833 130.164702 
L 335.949372 131.350376 
L 336.008939 131.350376 
L 336.040229 129.571865 
L 336.068802 130.164702 
L 336.186006 130.164702 
L 336.235203 129.571865 
L 336.257491 130.164702 
L 336.366715 130.164702 
L 336.391033 129.571865 
L 336.465277 130.164702 
L 336.538254 130.164702 
L 336.659242 129.571865 
L 336.740816 129.571865 
L 336.791745 130.164702 
L 336.815189 129.571865 
L 336.894489 130.164702 
L 336.918282 128.979027 
L 336.946566 131.350376 
L 336.979433 130.164702 
L 337.092104 129.571865 
L 337.181119 130.164702 
L 337.290594 127.793353 
L 337.337665 128.38619 
L 337.577805 131.943214 
L 337.622843 131.943214 
L 337.723045 131.350376 
L 337.816951 132.536051 
L 337.840899 131.943214 
L 337.87081 131.943214 
L 337.99275 132.536051 
L 338.015791 132.536051 
L 338.081088 133.128888 
L 338.103432 131.943214 
L 338.175694 133.128888 
L 338.695883 133.128888 
L 338.764202 131.943214 
L 338.787638 133.128888 
L 338.823174 133.128888 
L 338.880124 132.536051 
L 338.926689 133.128888 
L 339.094794 133.128888 
L 339.189736 131.350376 
L 339.235385 132.536051 
L 339.2572 133.128888 
L 339.304994 131.943214 
L 339.445037 130.164702 
L 339.47296 130.164702 
L 339.544135 131.943214 
L 339.581929 131.350376 
L 339.824405 132.536051 
L 340.281838 132.536051 
L 340.501118 131.350376 
L 340.605811 131.350376 
L 340.740773 129.571865 
L 341.600796 129.571865 
L 341.733086 130.164702 
L 341.755957 129.571865 
L 341.842364 130.164702 
L 342.63007 130.164702 
L 342.652495 131.350376 
L 342.720185 130.164702 
L 342.741631 130.164702 
L 342.808635 131.350376 
L 342.85168 130.164702 
L 342.895861 130.164702 
L 343.027704 131.350376 
L 343.092305 130.164702 
L 343.137025 131.350376 
L 343.185933 130.164702 
L 343.231032 131.350376 
L 344.088292 131.350376 
L 344.199422 131.943214 
L 344.332494 131.350376 
L 344.444002 131.943214 
L 344.573821 131.943214 
L 344.662406 131.350376 
L 344.684627 131.943214 
L 344.901877 131.943214 
L 344.923515 131.350376 
L 345.010097 131.943214 
L 345.409095 131.943214 
L 345.481106 132.536051 
L 345.503285 131.943214 
L 345.569081 131.943214 
L 345.701857 132.536051 
L 346.157672 132.536051 
L 346.179206 133.128888 
L 346.265344 132.536051 
L 346.395167 132.536051 
L 346.502928 133.128888 
L 346.611373 132.536051 
L 346.639219 132.536051 
L 346.74757 133.128888 
L 346.769028 132.536051 
L 346.858649 133.128888 
L 347.340916 133.128888 
L 347.450064 133.721726 
L 347.514742 133.128888 
L 347.591725 133.128888 
L 347.702839 133.721726 
L 348.052965 133.721726 
L 348.075086 133.128888 
L 348.163386 133.721726 
L 349.080115 133.721726 
L 349.210797 134.314563 
L 349.963207 134.314563 
L 350.029107 134.9074 
L 350.072443 134.314563 
L 350.096445 134.314563 
L 350.183521 134.9074 
L 350.207362 134.314563 
L 350.319022 134.9074 
L 350.34085 134.9074 
L 350.40794 134.314563 
L 350.430073 134.9074 
L 350.474937 134.9074 
L 350.497187 134.314563 
L 350.563915 134.9074 
L 350.829914 134.9074 
L 350.85134 134.314563 
L 350.938777 134.9074 
L 351.245244 134.9074 
L 351.269931 136.093075 
L 351.335623 134.9074 
L 351.425017 134.9074 
L 351.53908 136.093075 
L 351.648357 134.9074 
L 351.780596 136.093075 
L 351.978639 136.093075 
L 352.109743 136.685912 
L 352.222521 136.093075 
L 352.266418 136.093075 
L 352.335314 136.685912 
L 352.357863 136.093075 
L 352.448438 136.093075 
L 352.470315 136.685912 
L 352.53688 136.093075 
L 352.832422 136.093075 
L 352.903083 136.685912 
L 352.927249 136.093075 
L 353.040966 136.093075 
L 353.062606 136.685912 
L 353.131492 136.093075 
L 353.156236 136.093075 
L 353.202423 136.685912 
L 353.249538 136.093075 
L 353.35837 136.093075 
L 353.380042 136.685912 
L 353.468486 136.093075 
L 353.512044 136.093075 
L 353.533464 136.685912 
L 353.620103 136.093075 
L 353.641556 136.093075 
L 353.754588 136.685912 
L 354.283127 136.685912 
L 354.305394 136.093075 
L 354.372565 136.685912 
L 354.900994 136.685912 
L 355.012352 137.278749 
L 355.144104 136.685912 
L 356.320935 136.685912 
L 356.394124 136.093075 
L 356.415664 136.685912 
L 356.439746 136.685912 
L 356.531914 136.093075 
L 356.664986 136.685912 
L 356.687163 136.685912 
L 356.800948 136.093075 
L 356.887764 136.093075 
L 356.978803 134.9074 
L 357.021828 136.093075 
L 357.089329 134.9074 
L 357.249516 134.9074 
L 357.360154 134.314563 
L 357.382023 134.9074 
L 357.470783 134.314563 
L 357.739713 134.314563 
L 357.762285 133.721726 
L 357.850894 134.314563 
L 357.917928 134.314563 
L 358.029325 133.721726 
L 358.13219 133.721726 
L 358.240272 133.128888 
L 358.351848 133.128888 
L 358.462419 132.536051 
L 358.728278 132.536051 
L 358.75019 131.943214 
L 358.838152 132.536051 
L 358.983861 132.536051 
L 359.114647 131.943214 
L 359.183112 131.943214 
L 359.318284 129.571865 
L 359.340079 130.164702 
L 359.384437 130.164702 
L 359.496715 128.979027 
L 359.540511 130.164702 
L 359.616759 129.571865 
L 359.661111 129.571865 
L 359.792798 128.979027 
L 359.858296 129.571865 
L 359.902895 128.979027 
L 360.057825 128.979027 
L 360.191337 128.38619 
L 360.30622 128.38619 
L 360.374177 128.979027 
L 360.419826 127.793353 
L 360.551338 128.38619 
L 360.573454 128.38619 
L 360.595979 127.793353 
L 360.641261 128.979027 
L 360.666247 128.979027 
L 360.800299 126.607678 
L 360.822196 127.200516 
L 360.952539 128.38619 
L 360.975188 127.793353 
L 361.04203 128.38619 
L 361.108538 128.38619 
L 361.129923 128.979027 
L 361.195916 128.38619 
L 361.217476 127.200516 
L 361.240048 128.979027 
L 361.287155 128.979027 
L 361.422614 130.164702 
L 361.569937 128.38619 
L 361.658451 129.571865 
L 361.68072 128.38619 
L 361.767579 128.979027 
L 361.789808 126.014841 
L 361.924017 128.979027 
L 361.990968 127.200516 
L 362.078955 127.793353 
L 362.101068 127.793353 
L 362.213691 129.571865 
L 362.235468 128.38619 
L 362.258043 128.38619 
L 362.349302 129.571865 
L 362.370885 128.979027 
L 362.393365 128.979027 
L 362.436683 128.38619 
L 362.481658 129.571865 
L 362.5516 128.979027 
L 362.665057 130.164702 
L 362.754139 126.014841 
L 362.822271 127.793353 
L 362.866284 129.571865 
L 362.954339 128.38619 
L 362.977811 126.014841 
L 362.99957 130.164702 
L 363.045149 128.38619 
L 363.066529 128.38619 
L 363.110081 129.571865 
L 363.132478 127.793353 
L 363.180516 128.979027 
L 363.202356 126.014841 
L 363.224698 129.571865 
L 363.291837 128.38619 
L 363.357543 129.571865 
L 363.379172 124.236329 
L 363.466508 125.422004 
L 363.489185 126.014841 
L 363.512167 124.236329 
L 363.57872 123.643492 
L 363.600659 125.422004 
L 363.645763 122.457818 
L 363.669037 122.457818 
L 363.799791 120.679306 
L 363.822065 121.272143 
L 364.004652 126.607678 
L 364.114799 126.014841 
L 364.250308 127.200516 
L 364.272062 127.200516 
L 364.294405 127.793353 
L 364.317735 127.200516 
L 364.33924 126.014841 
L 364.361528 127.793353 
L 364.427602 126.607678 
L 364.493377 126.607678 
L 364.604641 126.014841 
L 364.738174 126.607678 
L 364.759724 126.607678 
L 364.805924 128.38619 
L 364.851187 127.200516 
L 364.94057 126.014841 
L 365.005838 128.38619 
L 365.049066 127.200516 
L 365.093851 126.607678 
L 365.138776 127.200516 
L 365.162115 127.200516 
L 365.293848 128.38619 
L 365.458589 124.236329 
L 365.480422 126.014841 
L 365.678542 128.38619 
L 365.807845 127.793353 
L 365.829261 128.38619 
L 365.916221 127.793353 
L 365.937713 127.793353 
L 366.067106 128.38619 
L 366.088499 128.38619 
L 366.198404 128.979027 
L 366.220772 128.38619 
L 366.285916 128.979027 
L 366.328827 129.571865 
L 366.373664 128.979027 
L 366.440488 124.236329 
L 366.507543 125.422004 
L 366.529341 127.793353 
L 366.616977 126.014841 
L 366.638844 126.014841 
L 366.794766 127.200516 
L 366.904824 127.200516 
L 367.037529 127.793353 
L 367.147703 126.014841 
L 367.169815 126.607678 
L 367.192424 126.607678 
L 367.239381 127.200516 
L 367.306041 125.422004 
L 367.443743 127.200516 
L 367.685466 127.200516 
L 367.818354 127.793353 
L 367.950822 127.793353 
L 367.99728 128.38619 
L 368.043163 127.793353 
L 368.132763 127.793353 
L 368.245406 128.38619 
L 368.26713 128.38619 
L 368.28861 127.793353 
L 368.376431 128.38619 
L 368.419339 128.38619 
L 368.53173 128.979027 
L 368.711917 128.979027 
L 368.746573 128.38619 
L 368.816841 128.979027 
L 368.853306 128.979027 
L 369.02851 128.38619 
L 369.816452 128.38619 
L 369.874363 127.793353 
L 369.917391 128.38619 
L 370.128324 128.38619 
L 370.248895 128.979027 
L 370.293543 128.38619 
L 370.346825 128.979027 
L 370.369346 128.979027 
L 370.486494 128.38619 
L 370.511263 128.979027 
L 370.579819 128.38619 
L 370.604093 128.38619 
L 370.677643 128.979027 
L 370.699145 128.38619 
L 370.745488 128.38619 
L 370.767775 127.793353 
L 370.83529 128.38619 
L 371.01754 128.38619 
L 371.039324 127.793353 
L 371.106241 128.38619 
L 371.293135 128.38619 
L 371.315047 127.793353 
L 371.383417 128.38619 
L 372.387996 128.38619 
L 372.410205 128.979027 
L 372.480988 128.38619 
L 372.549579 128.38619 
L 372.626966 128.979027 
L 372.651695 128.38619 
L 372.675275 128.38619 
L 372.796507 128.979027 
L 373.116268 128.979027 
L 373.209301 129.571865 
L 373.327219 128.979027 
L 373.578955 128.979027 
L 373.691767 129.571865 
L 373.71319 129.571865 
L 373.845921 128.979027 
L 373.977502 129.571865 
L 374.532529 129.571865 
L 374.554876 130.164702 
L 374.643597 129.571865 
L 374.884271 129.571865 
L 374.99268 130.164702 
L 375.081135 129.571865 
L 375.102813 130.164702 
L 375.147132 130.164702 
L 375.169342 131.350376 
L 375.25595 130.164702 
L 375.369499 130.164702 
L 375.390995 129.571865 
L 375.480489 130.164702 
L 375.951239 130.164702 
L 375.977957 131.350376 
L 376.045423 130.164702 
L 376.471042 130.164702 
L 376.494128 131.350376 
L 376.563155 130.164702 
L 376.58535 130.164702 
L 376.700896 131.350376 
L 377.061771 131.350376 
L 377.083863 130.164702 
L 377.128729 131.350376 
L 377.196925 130.164702 
L 377.219221 131.350376 
L 377.312383 131.350376 
L 377.422427 130.164702 
L 377.53472 131.350376 
L 377.821613 131.350376 
L 377.843087 131.943214 
L 377.929135 131.350376 
L 378.214505 131.350376 
L 378.302498 131.943214 
L 378.324336 131.350376 
L 378.34609 131.350376 
L 378.458211 131.943214 
L 378.480302 131.350376 
L 378.568634 131.943214 
L 378.591693 131.350376 
L 378.658737 131.943214 
L 378.947221 131.943214 
L 379.034932 132.536051 
L 379.057598 131.943214 
L 379.913688 131.943214 
L 379.979557 132.536051 
L 380.022475 131.943214 
L 380.065947 131.943214 
L 380.198352 132.536051 
L 380.220508 131.943214 
L 380.309505 132.536051 
L 380.573583 132.536051 
L 380.595905 131.943214 
L 380.682777 132.536051 
L 381.125116 132.536051 
L 381.256763 133.128888 
L 381.561156 133.128888 
L 381.671646 132.536051 
L 381.77913 133.128888 
L 381.84673 132.536051 
L 381.869651 133.128888 
L 381.891068 133.128888 
L 382.002225 132.536051 
L 382.047155 132.536051 
L 382.159117 133.128888 
L 382.226135 132.536051 
L 382.24824 133.128888 
L 382.42306 133.128888 
L 382.488224 132.536051 
L 382.532645 133.128888 
L 382.975783 133.128888 
L 383.106985 133.721726 
L 383.240177 133.128888 
L 383.327357 133.128888 
L 383.459313 132.536051 
L 384.345992 132.536051 
L 384.367813 131.943214 
L 384.45658 132.536051 
L 384.593296 132.536051 
L 384.61786 131.943214 
L 384.688657 132.536051 
L 384.779365 132.536051 
L 384.893718 131.943214 
L 384.919613 131.943214 
L 384.990106 132.536051 
L 385.013337 131.943214 
L 385.058512 131.943214 
L 385.102714 132.536051 
L 385.14737 131.943214 
L 385.26733 131.943214 
L 385.361305 132.536051 
L 385.479371 131.943214 
L 386.083329 131.943214 
L 386.10583 131.350376 
L 386.172437 131.943214 
L 386.217545 131.943214 
L 386.34991 131.350376 
L 386.3742 131.350376 
L 386.505175 131.943214 
L 386.662279 131.943214 
L 386.683717 132.536051 
L 386.749501 131.943214 
L 386.837755 131.350376 
L 386.859182 131.943214 
L 387.105516 131.943214 
L 387.173802 131.350376 
L 387.197518 131.943214 
L 387.737527 131.943214 
L 387.869492 131.350376 
L 387.913178 131.350376 
L 388.024449 131.943214 
L 388.154217 131.350376 
L 388.57815 131.350376 
L 388.66908 130.164702 
L 388.690517 131.350376 
L 388.779736 130.164702 
L 389.169762 130.164702 
L 389.281323 129.571865 
L 389.391073 129.571865 
L 389.483769 128.979027 
L 389.613919 129.571865 
L 389.725065 128.979027 
L 389.760373 128.979027 
L 389.891499 128.38619 
L 389.940784 128.38619 
L 390.073717 128.979027 
L 390.184921 127.793353 
L 390.207417 128.38619 
L 390.275378 127.793353 
L 390.297062 127.200516 
L 390.383935 127.793353 
L 390.406296 127.793353 
L 390.538257 127.200516 
L 390.58255 127.200516 
L 390.647916 127.793353 
L 390.692926 127.200516 
L 390.715148 127.200516 
L 390.846812 127.793353 
L 390.912966 127.200516 
L 390.934888 127.793353 
L 390.959353 127.793353 
L 391.024827 127.200516 
L 391.069002 127.793353 
L 391.11407 127.793353 
L 391.158382 127.200516 
L 391.224273 127.793353 
L 391.268679 127.793353 
L 391.382638 127.200516 
L 391.406019 127.793353 
L 391.451366 127.200516 
L 391.541621 125.422004 
L 391.606955 126.014841 
L 391.696335 128.38619 
L 391.742293 127.793353 
L 391.785342 123.643492 
L 391.831193 128.38619 
L 391.862508 128.38619 
L 391.885817 127.793353 
L 391.952138 128.38619 
L 391.974263 128.38619 
L 392.061696 128.979027 
L 392.108243 127.793353 
L 392.152562 128.38619 
L 392.263929 128.979027 
L 392.46313 128.979027 
L 392.528821 129.571865 
L 392.561248 128.979027 
L 392.627647 128.979027 
L 392.651345 129.571865 
L 392.673095 128.979027 
L 392.726839 125.422004 
L 392.769947 128.979027 
L 392.818624 128.979027 
L 392.908299 126.607678 
L 392.929819 128.38619 
L 392.958129 128.38619 
L 393.133762 124.236329 
L 393.244144 126.014841 
L 393.265995 125.422004 
L 393.398771 126.607678 
L 393.464537 125.422004 
L 393.508537 126.014841 
L 393.554356 128.38619 
L 393.619025 126.014841 
L 393.640542 126.014841 
L 393.663111 126.607678 
L 393.68531 126.014841 
L 393.730398 123.643492 
L 393.803758 124.236329 
L 393.82623 124.236329 
L 393.97978 126.607678 
L 394.024076 126.607678 
L 394.045553 127.200516 
L 394.134418 126.607678 
L 394.178786 126.014841 
L 394.245244 126.607678 
L 394.404119 126.607678 
L 394.520556 127.793353 
L 394.751381 125.422004 
L 394.775492 125.422004 
L 394.869048 127.200516 
L 394.891374 126.607678 
L 395.012874 127.793353 
L 395.059116 127.200516 
L 395.108024 127.200516 
L 395.130434 127.793353 
L 395.195874 126.607678 
L 395.217693 126.607678 
L 395.333696 127.793353 
L 395.451491 127.200516 
L 395.472985 127.200516 
L 395.516946 126.014841 
L 395.561458 126.607678 
L 395.583914 127.793353 
L 395.68067 127.200516 
L 395.702981 127.200516 
L 395.773444 126.607678 
L 395.796147 127.200516 
L 395.82196 127.200516 
L 395.935742 126.607678 
L 396.072495 127.793353 
L 396.139158 127.793353 
L 396.271957 127.200516 
L 396.294699 127.200516 
L 396.449932 126.014841 
L 396.47335 126.014841 
L 396.650726 127.793353 
L 396.696181 127.793353 
L 396.808156 126.607678 
L 396.976451 128.38619 
L 397.02086 128.38619 
L 397.117669 127.793353 
L 397.151049 128.38619 
L 397.174374 127.200516 
L 397.218465 127.793353 
L 397.375642 127.793353 
L 397.491043 128.38619 
L 397.693696 128.38619 
L 397.715203 127.793353 
L 397.799062 128.38619 
L 397.821611 128.38619 
L 397.844816 127.793353 
L 397.91217 128.38619 
L 398.992152 128.38619 
L 399.103078 128.979027 
L 399.191978 128.38619 
L 399.213601 128.979027 
L 400.189986 128.979027 
L 400.303227 129.571865 
L 400.801617 129.571865 
L 400.934083 130.164702 
L 401.066573 129.571865 
L 401.089044 129.571865 
L 401.219819 130.164702 
L 401.574169 130.164702 
L 401.59585 131.350376 
L 401.683617 130.164702 
L 401.7277 130.164702 
L 401.859178 131.350376 
L 401.991781 130.164702 
L 402.063638 130.164702 
L 402.190855 131.350376 
L 402.410772 131.350376 
L 402.432901 130.164702 
L 402.504751 131.350376 
L 402.561184 131.350376 
L 402.631924 130.164702 
L 402.665077 131.350376 
L 402.915657 131.350376 
L 402.938271 130.164702 
L 403.006595 131.350376 
L 404.124167 131.350376 
L 404.240854 131.943214 
L 404.285669 131.943214 
L 404.307374 131.350376 
L 404.382785 131.943214 
L 404.404581 131.943214 
L 404.426932 131.350376 
L 404.49533 131.943214 
L 404.586759 131.943214 
L 404.630876 131.350376 
L 404.676859 131.943214 
L 404.704574 131.943214 
L 404.820822 131.350376 
L 405.305406 131.350376 
L 405.42109 131.943214 
L 405.513612 131.350376 
L 405.628001 131.943214 
L 405.737695 131.350376 
L 405.849949 131.943214 
L 405.876411 131.943214 
L 405.94583 131.350376 
L 405.971279 131.943214 
L 406.015634 131.943214 
L 406.134571 131.350376 
L 406.178065 131.350376 
L 406.20126 131.943214 
L 406.268784 131.350376 
L 406.290266 131.350376 
L 406.312789 131.943214 
L 406.380188 131.350376 
L 406.402351 131.350376 
L 406.51273 131.943214 
L 406.645539 131.350376 
L 406.756192 131.350376 
L 406.87053 131.943214 
L 406.961982 131.350376 
L 406.984121 131.943214 
L 407.050342 131.350376 
L 407.16686 131.943214 
L 407.299555 131.350376 
L 407.366062 131.943214 
L 407.438803 131.943214 
L 407.564289 131.350376 
L 407.630995 131.943214 
L 407.675198 131.350376 
L 407.719906 131.350376 
L 407.834872 131.943214 
L 407.978194 131.943214 
L 408.076789 131.350376 
L 408.194914 131.943214 
L 408.408405 131.943214 
L 408.522752 132.536051 
L 408.656355 131.943214 
L 408.969493 131.943214 
L 409.083121 132.536051 
L 409.174976 131.943214 
L 409.288209 132.536051 
L 409.310619 132.536051 
L 409.405818 131.943214 
L 409.53954 132.536051 
L 409.701522 132.536051 
L 409.792247 131.943214 
L 409.905596 132.536051 
L 410.261675 132.536051 
L 410.284727 133.128888 
L 410.350986 132.536051 
L 410.631506 132.536051 
L 410.742165 133.128888 
L 410.855663 132.536051 
L 410.922932 132.536051 
L 411.035827 133.128888 
L 411.079053 132.536051 
L 411.125565 133.128888 
L 411.16889 133.128888 
L 411.190674 132.536051 
L 411.258973 133.128888 
L 412.074241 133.128888 
L 412.170139 133.721726 
L 412.26152 133.128888 
L 412.393838 133.721726 
L 412.460571 133.721726 
L 412.507313 133.128888 
L 412.552143 133.721726 
L 412.601256 133.721726 
L 412.624278 133.128888 
L 412.691126 133.721726 
L 413.073219 133.721726 
L 413.096237 133.128888 
L 413.163551 133.721726 
L 413.633464 133.721726 
L 413.65528 133.128888 
L 413.725259 133.721726 
L 413.939914 133.721726 
L 413.961377 134.314563 
L 414.029586 133.721726 
L 414.415702 133.721726 
L 414.438529 134.314563 
L 414.506506 133.721726 
L 414.620231 133.721726 
L 414.711046 134.314563 
L 414.82528 133.721726 
L 414.84669 133.721726 
L 414.959888 134.314563 
L 414.982047 133.721726 
L 415.070683 134.314563 
L 415.137382 133.721726 
L 415.160201 134.314563 
L 415.204588 134.314563 
L 415.294436 133.721726 
L 415.407073 134.314563 
L 416.259593 134.314563 
L 416.281761 133.721726 
L 416.330719 134.314563 
L 416.477213 134.314563 
L 416.601284 133.721726 
L 416.651087 133.721726 
L 416.672718 134.314563 
L 416.743555 133.721726 
L 416.768757 133.721726 
L 416.791598 134.314563 
L 416.861401 133.721726 
L 416.973564 133.721726 
L 417.105051 134.314563 
L 417.315412 134.314563 
L 417.336878 133.721726 
L 417.403786 134.314563 
L 417.705428 134.314563 
L 417.728835 133.721726 
L 417.79547 134.314563 
L 417.841486 134.314563 
L 417.934768 133.721726 
L 418.027909 134.314563 
L 418.141445 133.721726 
L 418.819236 133.721726 
L 418.938534 133.128888 
L 419.351367 133.128888 
L 419.482583 132.536051 
L 419.504439 132.536051 
L 419.526984 133.128888 
L 419.601157 132.536051 
L 419.95398 132.536051 
L 420.045045 131.943214 
L 420.166277 132.536051 
L 420.190343 132.536051 
L 420.310411 131.943214 
L 420.477118 131.943214 
L 420.589615 131.350376 
L 420.612628 131.943214 
L 420.684506 131.350376 
L 420.76683 131.350376 
L 420.881337 130.164702 
L 420.989816 130.164702 
L 421.11314 129.571865 
L 421.568383 129.571865 
L 421.680284 128.979027 
L 422.057669 128.979027 
L 422.150432 128.38619 
L 422.271561 128.979027 
L 422.38742 128.38619 
L 422.410474 128.38619 
L 422.457801 126.607678 
L 422.532087 127.200516 
L 422.554903 127.200516 
L 422.578182 127.793353 
L 422.651226 127.200516 
L 422.802643 127.200516 
L 422.917807 126.607678 
L 423.049196 127.200516 
L 423.166785 127.200516 
L 423.288902 127.793353 
L 423.516732 127.793353 
L 423.654241 127.200516 
L 423.677643 127.793353 
L 423.764078 127.200516 
L 423.962978 127.200516 
L 424.071531 126.607678 
L 424.162049 127.200516 
L 424.282852 122.457818 
L 424.377202 122.457818 
L 424.469233 123.643492 
L 424.491979 123.050655 
" style="fill:none;stroke:#1f77b4;stroke-linecap:square;stroke-width:1.5;"/>
   </g>
   <g id="line2d_32">
    <path clip-path="url(#pd919f4b6e0)" d="M 62.747237 184.112893 
L 64.76281 184.112893 
L 64.896106 160.992239 
L 67.060626 160.992239 
L 67.191963 167.513449 
L 68.605523 167.513449 
L 68.735428 178.777357 
L 69.445626 178.777357 
L 69.575471 190.634102 
L 70.035655 190.634102 
L 125.358249 107.636886 
L 128.240013 107.636886 
L 128.328302 119.493631 
L 129.566775 119.493631 
L 129.698546 130.757539 
L 130.777342 130.757539 
L 130.909088 160.992239 
L 132.537262 160.992239 
L 132.668819 178.777357 
L 133.259097 178.777357 
L 219.894927 114.158096 
L 220.620739 114.158096 
L 220.752627 137.278749 
L 221.825796 137.278749 
L 221.958654 160.992239 
L 224.347808 160.992239 
L 224.481379 172.848985 
L 226.833458 172.848985 
L 226.942472 178.777357 
L 228.39714 178.777357 
L 228.527753 184.112893 
L 229.374967 184.112893 
L 229.487879 195.969638 
L 230.495769 195.969638 
L 230.625914 202.490848 
L 231.254086 202.490848 
L 231.370227 191.819777 
L 231.812973 191.819777 
L 231.943916 195.969638 
L 232.92279 195.969638 
L 233.044948 190.634102 
L 236.053676 190.634102 
L 236.211678 191.819777 
L 236.827723 191.819777 
L 236.948023 190.634102 
L 237.966152 190.634102 
L 238.077573 184.112893 
L 240.471974 184.112893 
L 240.604585 178.777357 
L 241.856993 178.777357 
L 241.990032 172.848985 
L 242.624571 172.848985 
L 242.756601 170.477636 
L 242.95344 170.477636 
L 243.073061 167.513449 
L 245.497763 167.513449 
L 245.63002 160.992239 
L 249.487074 160.992239 
L 249.619319 170.477636 
L 250.691296 170.477636 
L 250.811028 172.848985 
L 251.57614 172.848985 
L 251.688365 170.477636 
L 251.800055 170.477636 
L 251.919507 172.848985 
L 255.052597 172.848985 
L 255.184953 170.477636 
L 255.492061 170.477636 
L 255.624634 172.848985 
L 256.711389 172.848985 
L 256.842839 178.777357 
L 257.375102 178.777357 
L 257.487686 191.819777 
L 258.014401 191.819777 
L 258.12596 195.969638 
L 258.331802 195.969638 
L 258.464356 202.490848 
L 263.425605 202.490848 
L 263.538274 191.819777 
L 264.534006 191.819777 
L 264.665493 202.490848 
L 265.532367 202.490848 
L 265.638208 190.634102 
L 266.726645 190.634102 
L 266.860182 184.112893 
L 267.286829 184.112893 
L 267.41572 181.148706 
L 267.936258 181.148706 
L 268.051269 178.777357 
L 269.617051 178.777357 
L 269.747665 172.848985 
L 270.48081 172.848985 
L 270.61307 167.513449 
L 271.680117 167.513449 
L 271.7824 172.848985 
L 272.877873 172.848985 
L 273.049632 160.992239 
L 275.585319 160.992239 
L 275.705739 155.656704 
L 279.174305 155.656704 
L 279.32911 160.992239 
L 280.286659 160.992239 
L 280.409487 184.112893 
L 281.834394 184.112893 
L 281.956635 195.969638 
L 283.061322 195.969638 
L 283.175288 214.347593 
L 284.519165 214.347593 
L 284.650162 223.832989 
L 286.17608 223.832989 
L 286.305564 234.50406 
L 288.257735 234.50406 
L 288.390007 223.832989 
L 289.467583 223.832989 
L 289.597906 226.204338 
L 290.984178 226.204338 
L 291.114039 223.832989 
L 291.528485 223.832989 
L 291.660228 226.204338 
L 293.614319 226.204338 
L 293.746228 232.132711 
L 297.27282 232.132711 
L 297.40531 223.832989 
L 298.531686 223.832989 
L 298.645614 213.161918 
L 299.927997 213.161918 
L 300.052818 181.148706 
L 300.496759 181.148706 
L 300.629541 172.848985 
L 301.691011 172.848985 
L 301.809126 137.278749 
L 302.872549 137.278749 
L 302.984225 114.158096 
L 304.306467 114.158096 
L 304.426558 102.301351 
L 305.477445 102.301351 
L 305.599008 89.258931 
L 306.678428 89.258931 
L 306.786046 95.780141 
L 307.775722 95.780141 
L 307.898758 107.636886 
L 310.177204 107.636886 
L 310.295512 125.422004 
L 310.49236 125.422004 
L 310.615638 155.656704 
L 312.042886 155.656704 
L 312.17063 167.513449 
L 312.828257 167.513449 
L 312.945792 172.848985 
L 314.037545 172.848985 
L 314.16394 184.112893 
L 315.354039 184.112893 
L 315.467045 190.634102 
L 316.772446 190.634102 
L 316.9037 202.490848 
L 317.43134 202.490848 
L 317.565369 223.832989 
L 318.206317 223.832989 
L 318.316855 214.347593 
L 318.537761 214.347593 
L 318.667333 223.832989 
L 320.270609 223.832989 
L 320.402969 226.204338 
L 320.918716 226.204338 
L 321.049879 223.832989 
L 321.575531 223.832989 
L 321.707428 237.468246 
L 323.431251 237.468246 
L 323.561796 245.17513 
L 323.647948 245.17513 
L 323.777744 234.50406 
L 323.978264 234.50406 
L 324.108876 237.468246 
L 325.480294 237.468246 
L 325.592721 214.347593 
L 326.68718 214.347593 
L 326.80072 190.634102 
L 327.996084 190.634102 
L 328.106118 149.135494 
L 329.172784 149.135494 
L 329.306779 114.158096 
L 330.367865 114.158096 
L 330.487658 83.923396 
L 331.650686 83.923396 
L 331.782236 66.138278 
L 332.941838 66.138278 
L 333.079822 54.281533 
L 334.113251 54.281533 
L 334.249859 35.903578 
L 335.435985 35.903578 
L 335.57489 42.424787 
L 337.750651 42.424787 
L 337.921371 72.06665 
L 339.046016 72.06665 
L 339.167414 95.780141 
L 340.304031 95.780141 
L 340.434311 125.422004 
L 342.60864 125.422004 
L 342.720185 137.278749 
L 342.830198 137.278749 
L 342.961448 155.656704 
L 344.019319 155.656704 
L 344.131213 172.848985 
L 346.179206 172.848985 
L 346.308226 184.112893 
L 346.814998 184.112893 
L 346.945261 190.634102 
L 348.118761 190.634102 
L 348.231202 195.969638 
L 349.765387 195.969638 
L 349.896496 213.161918 
L 350.319022 213.161918 
L 350.430073 202.490848 
L 350.981987 202.490848 
L 351.112144 213.161918 
L 352.401402 213.161918 
L 352.515354 223.832989 
L 352.739882 223.832989 
L 352.857039 209.012057 
L 353.156236 209.012057 
L 353.271719 213.161918 
L 353.77609 213.161918 
L 353.888049 234.50406 
L 354.105936 234.50406 
L 354.237517 226.204338 
L 354.439516 226.204338 
L 354.552231 223.832989 
L 355.324458 223.832989 
L 355.438848 202.490848 
L 356.599381 202.490848 
L 356.709627 184.112893 
L 357.829446 184.112893 
L 357.940238 155.656704 
L 360.011529 155.656704 
L 360.123518 119.493631 
L 360.238211 119.493631 
L 360.349099 95.780141 
L 361.658451 95.780141 
L 361.789808 77.402186 
L 362.776381 77.402186 
L 362.909661 66.138278 
L 364.895928 66.138278 
L 365.027311 54.281533 
L 367.3282 54.281533 
L 367.443743 60.802743 
L 367.663272 60.802743 
L 367.796453 83.923396 
L 368.98388 83.923396 
L 369.098677 102.301351 
L 370.225426 102.301351 
L 370.346825 125.422004 
L 371.427558 125.422004 
L 371.538974 137.278749 
L 372.909726 137.278749 
L 373.045205 149.135494 
L 374.065825 149.135494 
L 374.196651 155.656704 
L 376.045423 155.656704 
L 376.178493 167.513449 
L 376.38329 167.513449 
L 376.494128 184.112893 
L 378.017018 184.112893 
L 378.149615 195.969638 
L 379.013389 195.969638 
L 379.144167 202.490848 
L 380.220508 202.490848 
L 380.330912 209.012057 
L 381.869651 209.012057 
L 381.979626 220.868803 
L 383.41474 220.868803 
L 383.547027 213.161918 
L 386.060462 213.161918 
L 386.172437 202.490848 
L 387.287374 202.490848 
L 387.401018 184.112893 
L 387.715587 184.112893 
L 387.847801 167.513449 
L 391.024827 167.513449 
L 391.158382 125.422004 
L 392.242429 125.422004 
L 392.374651 107.636886 
L 393.891438 107.636886 
L 394.001947 102.301351 
L 395.174092 102.301351 
L 395.285735 107.636886 
L 396.584166 107.636886 
L 396.696181 114.158096 
L 397.751068 114.158096 
L 397.866654 125.422004 
L 399.636887 125.422004 
L 399.769223 130.757539 
L 400.303227 130.757539 
L 400.41506 155.656704 
L 401.397945 155.656704 
L 401.5303 167.513449 
L 404.055391 167.513449 
L 404.172836 178.777357 
L 407.145348 178.777357 
L 407.276507 172.848985 
L 407.608874 172.848985 
L 407.741318 178.777357 
L 408.903629 178.777357 
L 409.016694 190.634102 
L 410.855663 190.634102 
L 410.968196 195.969638 
L 412.484762 195.969638 
L 412.601256 213.161918 
L 413.918478 213.161918 
L 414.029586 220.868803 
L 415.11586 220.868803 
L 415.226083 209.012057 
L 416.500121 209.012057 
L 416.623458 184.112893 
L 418.119424 184.112893 
L 418.250991 172.848985 
L 418.865627 172.848985 
L 418.984436 160.992239 
L 420.020696 160.992239 
L 420.143735 155.656704 
L 422.126516 155.656704 
L 422.245061 137.278749 
L 422.850051 137.278749 
L 422.963678 125.422004 
L 423.785555 125.422004 
L 423.902475 119.493631 
L 424.491979 119.493631 
L 424.491979 119.493631 
" style="fill:none;stroke:#ff7f0e;stroke-linecap:square;stroke-width:1.5;"/>
   </g>
   <g id="patch_3">
    <path d="M 44.66 255.638708 
L 44.66 25.44 
" style="fill:none;stroke:#000000;stroke-linecap:square;stroke-linejoin:miter;stroke-width:0.8;"/>
   </g>
   <g id="patch_4">
    <path d="M 442.579216 255.638708 
L 442.579216 25.44 
" style="fill:none;stroke:#000000;stroke-linecap:square;stroke-linejoin:miter;stroke-width:0.8;"/>
   </g>
   <g id="patch_5">
    <path d="M 44.66 255.638708 
L 442.579216 255.638708 
" style="fill:none;stroke:#000000;stroke-linecap:square;stroke-linejoin:miter;stroke-width:0.8;"/>
   </g>
   <g id="patch_6">
    <path d="M 44.66 25.44 
L 442.579216 25.44 
" style="fill:none;stroke:#000000;stroke-linecap:square;stroke-linejoin:miter;stroke-width:0.8;"/>
   </g>
   <g id="text_18">
    <!-- Lake Shoecraft - Water and Air Temperature -->
    <g transform="translate(112.00117 19.44)scale(0.12 -0.12)">
     <defs>
      <path d="M 9.8125 72.90625 
L 19.671875 72.90625 
L 19.671875 8.296875 
L 55.171875 8.296875 
L 55.171875 0 
L 9.8125 0 
z
" id="DejaVuSans-76"/>
      <path d="M 9.078125 75.984375 
L 18.109375 75.984375 
L 18.109375 31.109375 
L 44.921875 54.6875 
L 56.390625 54.6875 
L 27.390625 29.109375 
L 57.625 0 
L 45.90625 0 
L 18.109375 26.703125 
L 18.109375 0 
L 9.078125 0 
z
" id="DejaVuSans-107"/>
      <path d="M 53.515625 70.515625 
L 53.515625 60.890625 
Q 47.90625 63.578125 42.921875 64.890625 
Q 37.9375 66.21875 33.296875 66.21875 
Q 25.25 66.21875 20.875 63.09375 
Q 16.5 59.96875 16.5 54.203125 
Q 16.5 49.359375 19.40625 46.890625 
Q 22.3125 44.4375 30.421875 42.921875 
L 36.375 41.703125 
Q 47.40625 39.59375 52.65625 34.296875 
Q 57.90625 29 57.90625 20.125 
Q 57.90625 9.515625 50.796875 4.046875 
Q 43.703125 -1.421875 29.984375 -1.421875 
Q 24.8125 -1.421875 18.96875 -0.25 
Q 13.140625 0.921875 6.890625 3.21875 
L 6.890625 13.375 
Q 12.890625 10.015625 18.65625 8.296875 
Q 24.421875 6.59375 29.984375 6.59375 
Q 38.421875 6.59375 43.015625 9.90625 
Q 47.609375 13.234375 47.609375 19.390625 
Q 47.609375 24.75 44.3125 27.78125 
Q 41.015625 30.8125 33.5 32.328125 
L 27.484375 33.5 
Q 16.453125 35.6875 11.515625 40.375 
Q 6.59375 45.0625 6.59375 53.421875 
Q 6.59375 63.09375 13.40625 68.65625 
Q 20.21875 74.21875 32.171875 74.21875 
Q 37.3125 74.21875 42.625 73.28125 
Q 47.953125 72.359375 53.515625 70.515625 
z
" id="DejaVuSans-83"/>
      <path d="M 54.890625 33.015625 
L 54.890625 0 
L 45.90625 0 
L 45.90625 32.71875 
Q 45.90625 40.484375 42.875 44.328125 
Q 39.84375 48.1875 33.796875 48.1875 
Q 26.515625 48.1875 22.3125 43.546875 
Q 18.109375 38.921875 18.109375 30.90625 
L 18.109375 0 
L 9.078125 0 
L 9.078125 75.984375 
L 18.109375 75.984375 
L 18.109375 46.1875 
Q 21.34375 51.125 25.703125 53.5625 
Q 30.078125 56 35.796875 56 
Q 45.21875 56 50.046875 50.171875 
Q 54.890625 44.34375 54.890625 33.015625 
z
" id="DejaVuSans-104"/>
      <path d="M 30.609375 48.390625 
Q 23.390625 48.390625 19.1875 42.75 
Q 14.984375 37.109375 14.984375 27.296875 
Q 14.984375 17.484375 19.15625 11.84375 
Q 23.34375 6.203125 30.609375 6.203125 
Q 37.796875 6.203125 41.984375 11.859375 
Q 46.1875 17.53125 46.1875 27.296875 
Q 46.1875 37.015625 41.984375 42.703125 
Q 37.796875 48.390625 30.609375 48.390625 
z
M 30.609375 56 
Q 42.328125 56 49.015625 48.375 
Q 55.71875 40.765625 55.71875 27.296875 
Q 55.71875 13.875 49.015625 6.21875 
Q 42.328125 -1.421875 30.609375 -1.421875 
Q 18.84375 -1.421875 12.171875 6.21875 
Q 5.515625 13.875 5.515625 27.296875 
Q 5.515625 40.765625 12.171875 48.375 
Q 18.84375 56 30.609375 56 
z
" id="DejaVuSans-111"/>
      <path d="M 48.78125 52.59375 
L 48.78125 44.1875 
Q 44.96875 46.296875 41.140625 47.34375 
Q 37.3125 48.390625 33.40625 48.390625 
Q 24.65625 48.390625 19.8125 42.84375 
Q 14.984375 37.3125 14.984375 27.296875 
Q 14.984375 17.28125 19.8125 11.734375 
Q 24.65625 6.203125 33.40625 6.203125 
Q 37.3125 6.203125 41.140625 7.25 
Q 44.96875 8.296875 48.78125 10.40625 
L 48.78125 2.09375 
Q 45.015625 0.34375 40.984375 -0.53125 
Q 36.96875 -1.421875 32.421875 -1.421875 
Q 20.0625 -1.421875 12.78125 6.34375 
Q 5.515625 14.109375 5.515625 27.296875 
Q 5.515625 40.671875 12.859375 48.328125 
Q 20.21875 56 33.015625 56 
Q 37.15625 56 41.109375 55.140625 
Q 45.0625 54.296875 48.78125 52.59375 
z
" id="DejaVuSans-99"/>
      <path d="M 37.109375 75.984375 
L 37.109375 68.5 
L 28.515625 68.5 
Q 23.6875 68.5 21.796875 66.546875 
Q 19.921875 64.59375 19.921875 59.515625 
L 19.921875 54.6875 
L 34.71875 54.6875 
L 34.71875 47.703125 
L 19.921875 47.703125 
L 19.921875 0 
L 10.890625 0 
L 10.890625 47.703125 
L 2.296875 47.703125 
L 2.296875 54.6875 
L 10.890625 54.6875 
L 10.890625 58.5 
Q 10.890625 67.625 15.140625 71.796875 
Q 19.390625 75.984375 28.609375 75.984375 
z
" id="DejaVuSans-102"/>
      <path d="M 3.328125 72.90625 
L 13.28125 72.90625 
L 28.609375 11.28125 
L 43.890625 72.90625 
L 54.984375 72.90625 
L 70.3125 11.28125 
L 85.59375 72.90625 
L 95.609375 72.90625 
L 77.296875 0 
L 64.890625 0 
L 49.515625 63.28125 
L 33.984375 0 
L 21.578125 0 
z
" id="DejaVuSans-87"/>
      <path d="M 54.890625 33.015625 
L 54.890625 0 
L 45.90625 0 
L 45.90625 32.71875 
Q 45.90625 40.484375 42.875 44.328125 
Q 39.84375 48.1875 33.796875 48.1875 
Q 26.515625 48.1875 22.3125 43.546875 
Q 18.109375 38.921875 18.109375 30.90625 
L 18.109375 0 
L 9.078125 0 
L 9.078125 54.6875 
L 18.109375 54.6875 
L 18.109375 46.1875 
Q 21.34375 51.125 25.703125 53.5625 
Q 30.078125 56 35.796875 56 
Q 45.21875 56 50.046875 50.171875 
Q 54.890625 44.34375 54.890625 33.015625 
z
" id="DejaVuSans-110"/>
      <path d="M 45.40625 46.390625 
L 45.40625 75.984375 
L 54.390625 75.984375 
L 54.390625 0 
L 45.40625 0 
L 45.40625 8.203125 
Q 42.578125 3.328125 38.25 0.953125 
Q 33.9375 -1.421875 27.875 -1.421875 
Q 17.96875 -1.421875 11.734375 6.484375 
Q 5.515625 14.40625 5.515625 27.296875 
Q 5.515625 40.1875 11.734375 48.09375 
Q 17.96875 56 27.875 56 
Q 33.9375 56 38.25 53.625 
Q 42.578125 51.265625 45.40625 46.390625 
z
M 14.796875 27.296875 
Q 14.796875 17.390625 18.875 11.75 
Q 22.953125 6.109375 30.078125 6.109375 
Q 37.203125 6.109375 41.296875 11.75 
Q 45.40625 17.390625 45.40625 27.296875 
Q 45.40625 37.203125 41.296875 42.84375 
Q 37.203125 48.484375 30.078125 48.484375 
Q 22.953125 48.484375 18.875 42.84375 
Q 14.796875 37.203125 14.796875 27.296875 
z
" id="DejaVuSans-100"/>
      <path d="M 34.1875 63.1875 
L 20.796875 26.90625 
L 47.609375 26.90625 
z
M 28.609375 72.90625 
L 39.796875 72.90625 
L 67.578125 0 
L 57.328125 0 
L 50.6875 18.703125 
L 17.828125 18.703125 
L 11.1875 0 
L 0.78125 0 
z
" id="DejaVuSans-65"/>
      <path d="M 9.421875 54.6875 
L 18.40625 54.6875 
L 18.40625 0 
L 9.421875 0 
z
M 9.421875 75.984375 
L 18.40625 75.984375 
L 18.40625 64.59375 
L 9.421875 64.59375 
z
" id="DejaVuSans-105"/>
     </defs>
     <use xlink:href="#DejaVuSans-76"/>
     <use x="55.712891" xlink:href="#DejaVuSans-97"/>
     <use x="116.992188" xlink:href="#DejaVuSans-107"/>
     <use x="171.277344" xlink:href="#DejaVuSans-101"/>
     <use x="232.800781" xlink:href="#DejaVuSans-32"/>
     <use x="264.587891" xlink:href="#DejaVuSans-83"/>
     <use x="328.064453" xlink:href="#DejaVuSans-104"/>
     <use x="391.443359" xlink:href="#DejaVuSans-111"/>
     <use x="452.625" xlink:href="#DejaVuSans-101"/>
     <use x="514.148438" xlink:href="#DejaVuSans-99"/>
     <use x="569.128906" xlink:href="#DejaVuSans-114"/>
     <use x="610.242188" xlink:href="#DejaVuSans-97"/>
     <use x="671.521484" xlink:href="#DejaVuSans-102"/>
     <use x="704.976562" xlink:href="#DejaVuSans-116"/>
     <use x="744.185547" xlink:href="#DejaVuSans-32"/>
     <use x="775.972656" xlink:href="#DejaVuSans-45"/>
     <use x="812.056641" xlink:href="#DejaVuSans-32"/>
     <use x="843.84375" xlink:href="#DejaVuSans-87"/>
     <use x="936.345703" xlink:href="#DejaVuSans-97"/>
     <use x="997.625" xlink:href="#DejaVuSans-116"/>
     <use x="1036.833984" xlink:href="#DejaVuSans-101"/>
     <use x="1098.357422" xlink:href="#DejaVuSans-114"/>
     <use x="1139.470703" xlink:href="#DejaVuSans-32"/>
     <use x="1171.257812" xlink:href="#DejaVuSans-97"/>
     <use x="1232.537109" xlink:href="#DejaVuSans-110"/>
     <use x="1295.916016" xlink:href="#DejaVuSans-100"/>
     <use x="1359.392578" xlink:href="#DejaVuSans-32"/>
     <use x="1391.179688" xlink:href="#DejaVuSans-65"/>
     <use x="1459.587891" xlink:href="#DejaVuSans-105"/>
     <use x="1487.371094" xlink:href="#DejaVuSans-114"/>
     <use x="1528.484375" xlink:href="#DejaVuSans-32"/>
     <use x="1560.271484" xlink:href="#DejaVuSans-84"/>
     <use x="1604.355469" xlink:href="#DejaVuSans-101"/>
     <use x="1665.878906" xlink:href="#DejaVuSans-109"/>
     <use x="1763.291016" xlink:href="#DejaVuSans-112"/>
     <use x="1826.767578" xlink:href="#DejaVuSans-101"/>
     <use x="1888.291016" xlink:href="#DejaVuSans-114"/>
     <use x="1929.404297" xlink:href="#DejaVuSans-97"/>
     <use x="1990.683594" xlink:href="#DejaVuSans-116"/>
     <use x="2029.892578" xlink:href="#DejaVuSans-117"/>
     <use x="2093.271484" xlink:href="#DejaVuSans-114"/>
     <use x="2132.134766" xlink:href="#DejaVuSans-101"/>
    </g>
   </g>
   <g id="legend_1">
    <g id="patch_7">
     <path d="M 51.66 62.79625 
L 136.769375 62.79625 
Q 138.769375 62.79625 138.769375 60.79625 
L 138.769375 32.44 
Q 138.769375 30.44 136.769375 30.44 
L 51.66 30.44 
Q 49.66 30.44 49.66 32.44 
L 49.66 60.79625 
Q 49.66 62.79625 51.66 62.79625 
z
" style="fill:#ffffff;opacity:0.8;stroke:#cccccc;stroke-linejoin:miter;"/>
    </g>
    <g id="line2d_33">
     <path d="M 53.66 38.538437 
L 73.66 38.538437 
" style="fill:none;stroke:#1f77b4;stroke-linecap:square;stroke-width:1.5;"/>
    </g>
    <g id="line2d_34"/>
    <g id="text_19">
     <!-- Lake Temp -->
     <g transform="translate(81.66 42.038437)scale(0.1 -0.1)">
      <use xlink:href="#DejaVuSans-76"/>
      <use x="55.712891" xlink:href="#DejaVuSans-97"/>
      <use x="116.992188" xlink:href="#DejaVuSans-107"/>
      <use x="171.277344" xlink:href="#DejaVuSans-101"/>
      <use x="232.800781" xlink:href="#DejaVuSans-32"/>
      <use x="264.587891" xlink:href="#DejaVuSans-84"/>
      <use x="308.671875" xlink:href="#DejaVuSans-101"/>
      <use x="370.195312" xlink:href="#DejaVuSans-109"/>
      <use x="467.607422" xlink:href="#DejaVuSans-112"/>
     </g>
    </g>
    <g id="line2d_35">
     <path d="M 53.66 53.216562 
L 73.66 53.216562 
" style="fill:none;stroke:#ff7f0e;stroke-linecap:square;stroke-width:1.5;"/>
    </g>
    <g id="line2d_36"/>
    <g id="text_20">
     <!-- Air Temp -->
     <g transform="translate(81.66 56.716562)scale(0.1 -0.1)">
      <use xlink:href="#DejaVuSans-65"/>
      <use x="68.408203" xlink:href="#DejaVuSans-105"/>
      <use x="96.191406" xlink:href="#DejaVuSans-114"/>
      <use x="137.304688" xlink:href="#DejaVuSans-32"/>
      <use x="169.091797" xlink:href="#DejaVuSans-84"/>
      <use x="213.175781" xlink:href="#DejaVuSans-101"/>
      <use x="274.699219" xlink:href="#DejaVuSans-109"/>
      <use x="372.111328" xlink:href="#DejaVuSans-112"/>
     </g>
    </g>
   </g>
  </g>
 </g>
 <defs>
  <clipPath id="pd919f4b6e0">
   <rect height="230.198708" width="397.919216" x="44.66" y="25.44"/>
  </clipPath>
 </defs>
</svg>
