<?xml version="1.0" encoding="utf-8" standalone="no"?>
<!DOCTYPE svg PUBLIC "-//W3C//DTD SVG 1.1//EN"
  "http://www.w3.org/Graphics/SVG/1.1/DTD/svg11.dtd">
<!-- Created with matplotlib (https://matplotlib.org/) -->
<svg height="345.6pt" version="1.1" viewBox="0 0 460.8 345.6" width="460.8pt" xmlns="http://www.w3.org/2000/svg" xmlns:xlink="http://www.w3.org/1999/xlink">
 <metadata>
  <rdf:RDF xmlns:cc="http://creativecommons.org/ns#" xmlns:dc="http://purl.org/dc/elements/1.1/" xmlns:rdf="http://www.w3.org/1999/02/22-rdf-syntax-ns#">
   <cc:Work>
    <dc:type rdf:resource="http://purl.org/dc/dcmitype/StillImage"/>
    <dc:date>2024-09-03T16:56:06.793673</dc:date>
    <dc:format>image/svg+xml</dc:format>
    <dc:creator>
     <cc:Agent>
      <dc:title>Matplotlib v3.3.2, https://matplotlib.org/</dc:title>
     </cc:Agent>
    </dc:creator>
   </cc:Work>
  </rdf:RDF>
 </metadata>
 <defs>
  <style type="text/css">*{stroke-linecap:butt;stroke-linejoin:round;}</style>
 </defs>
 <g id="figure_1">
  <g id="patch_1">
   <path d="M 0 345.6 
L 460.8 345.6 
L 460.8 0 
L 0 0 
z
" style="fill:none;"/>
  </g>
  <g id="axes_1">
   <g id="patch_2">
    <path d="M 44.66 255.638708 
L 438.124392 255.638708 
L 438.124392 25.44 
L 44.66 25.44 
z
" style="fill:none;"/>
   </g>
   <g id="matplotlib.axis_1">
    <g id="xtick_1">
     <g id="line2d_1">
      <path clip-path="url(#p5379100fdf)" d="M 83.774542 255.638708 
L 83.774542 25.44 
" style="fill:none;stroke:#b0b0b0;stroke-linecap:square;stroke-width:0.8;"/>
     </g>
     <g id="line2d_2">
      <defs>
       <path d="M 0 0 
L 0 3.5 
" id="me17d324419" style="stroke:#000000;stroke-width:0.8;"/>
      </defs>
      <g>
       <use style="stroke:#000000;stroke-width:0.8;" x="83.774542" xlink:href="#me17d324419" y="255.638708"/>
      </g>
     </g>
     <g id="text_1">
      <!-- 2024-08-28 -->
      <g transform="translate(76.42915 319.848351)rotate(-70)scale(0.1 -0.1)">
       <defs>
        <path d="M 19.1875 8.296875 
L 53.609375 8.296875 
L 53.609375 0 
L 7.328125 0 
L 7.328125 8.296875 
Q 12.9375 14.109375 22.625 23.890625 
Q 32.328125 33.6875 34.8125 36.53125 
Q 39.546875 41.84375 41.421875 45.53125 
Q 43.3125 49.21875 43.3125 52.78125 
Q 43.3125 58.59375 39.234375 62.25 
Q 35.15625 65.921875 28.609375 65.921875 
Q 23.96875 65.921875 18.8125 64.3125 
Q 13.671875 62.703125 7.8125 59.421875 
L 7.8125 69.390625 
Q 13.765625 71.78125 18.9375 73 
Q 24.125 74.21875 28.421875 74.21875 
Q 39.75 74.21875 46.484375 68.546875 
Q 53.21875 62.890625 53.21875 53.421875 
Q 53.21875 48.921875 51.53125 44.890625 
Q 49.859375 40.875 45.40625 35.40625 
Q 44.1875 33.984375 37.640625 27.21875 
Q 31.109375 20.453125 19.1875 8.296875 
z
" id="DejaVuSans-50"/>
        <path d="M 31.78125 66.40625 
Q 24.171875 66.40625 20.328125 58.90625 
Q 16.5 51.421875 16.5 36.375 
Q 16.5 21.390625 20.328125 13.890625 
Q 24.171875 6.390625 31.78125 6.390625 
Q 39.453125 6.390625 43.28125 13.890625 
Q 47.125 21.390625 47.125 36.375 
Q 47.125 51.421875 43.28125 58.90625 
Q 39.453125 66.40625 31.78125 66.40625 
z
M 31.78125 74.21875 
Q 44.046875 74.21875 50.515625 64.515625 
Q 56.984375 54.828125 56.984375 36.375 
Q 56.984375 17.96875 50.515625 8.265625 
Q 44.046875 -1.421875 31.78125 -1.421875 
Q 19.53125 -1.421875 13.0625 8.265625 
Q 6.59375 17.96875 6.59375 36.375 
Q 6.59375 54.828125 13.0625 64.515625 
Q 19.53125 74.21875 31.78125 74.21875 
z
" id="DejaVuSans-48"/>
        <path d="M 37.796875 64.3125 
L 12.890625 25.390625 
L 37.796875 25.390625 
z
M 35.203125 72.90625 
L 47.609375 72.90625 
L 47.609375 25.390625 
L 58.015625 25.390625 
L 58.015625 17.1875 
L 47.609375 17.1875 
L 47.609375 0 
L 37.796875 0 
L 37.796875 17.1875 
L 4.890625 17.1875 
L 4.890625 26.703125 
z
" id="DejaVuSans-52"/>
        <path d="M 4.890625 31.390625 
L 31.203125 31.390625 
L 31.203125 23.390625 
L 4.890625 23.390625 
z
" id="DejaVuSans-45"/>
        <path d="M 31.78125 34.625 
Q 24.75 34.625 20.71875 30.859375 
Q 16.703125 27.09375 16.703125 20.515625 
Q 16.703125 13.921875 20.71875 10.15625 
Q 24.75 6.390625 31.78125 6.390625 
Q 38.8125 6.390625 42.859375 10.171875 
Q 46.921875 13.96875 46.921875 20.515625 
Q 46.921875 27.09375 42.890625 30.859375 
Q 38.875 34.625 31.78125 34.625 
z
M 21.921875 38.8125 
Q 15.578125 40.375 12.03125 44.71875 
Q 8.5 49.078125 8.5 55.328125 
Q 8.5 64.0625 14.71875 69.140625 
Q 20.953125 74.21875 31.78125 74.21875 
Q 42.671875 74.21875 48.875 69.140625 
Q 55.078125 64.0625 55.078125 55.328125 
Q 55.078125 49.078125 51.53125 44.71875 
Q 48 40.375 41.703125 38.8125 
Q 48.828125 37.15625 52.796875 32.3125 
Q 56.78125 27.484375 56.78125 20.515625 
Q 56.78125 9.90625 50.3125 4.234375 
Q 43.84375 -1.421875 31.78125 -1.421875 
Q 19.734375 -1.421875 13.25 4.234375 
Q 6.78125 9.90625 6.78125 20.515625 
Q 6.78125 27.484375 10.78125 32.3125 
Q 14.796875 37.15625 21.921875 38.8125 
z
M 18.3125 54.390625 
Q 18.3125 48.734375 21.84375 45.5625 
Q 25.390625 42.390625 31.78125 42.390625 
Q 38.140625 42.390625 41.71875 45.5625 
Q 45.3125 48.734375 45.3125 54.390625 
Q 45.3125 60.0625 41.71875 63.234375 
Q 38.140625 66.40625 31.78125 66.40625 
Q 25.390625 66.40625 21.84375 63.234375 
Q 18.3125 60.0625 18.3125 54.390625 
z
" id="DejaVuSans-56"/>
       </defs>
       <use xlink:href="#DejaVuSans-50"/>
       <use x="63.623047" xlink:href="#DejaVuSans-48"/>
       <use x="127.246094" xlink:href="#DejaVuSans-50"/>
       <use x="190.869141" xlink:href="#DejaVuSans-52"/>
       <use x="254.492188" xlink:href="#DejaVuSans-45"/>
       <use x="290.576172" xlink:href="#DejaVuSans-48"/>
       <use x="354.199219" xlink:href="#DejaVuSans-56"/>
       <use x="417.822266" xlink:href="#DejaVuSans-45"/>
       <use x="453.90625" xlink:href="#DejaVuSans-50"/>
       <use x="517.529297" xlink:href="#DejaVuSans-56"/>
      </g>
     </g>
    </g>
    <g id="xtick_2">
     <g id="line2d_3">
      <path clip-path="url(#p5379100fdf)" d="M 133.954774 255.638708 
L 133.954774 25.44 
" style="fill:none;stroke:#b0b0b0;stroke-linecap:square;stroke-width:0.8;"/>
     </g>
     <g id="line2d_4">
      <g>
       <use style="stroke:#000000;stroke-width:0.8;" x="133.954774" xlink:href="#me17d324419" y="255.638708"/>
      </g>
     </g>
     <g id="text_2">
      <!-- 2024-08-29 -->
      <g transform="translate(126.609381 319.848351)rotate(-70)scale(0.1 -0.1)">
       <defs>
        <path d="M 10.984375 1.515625 
L 10.984375 10.5 
Q 14.703125 8.734375 18.5 7.8125 
Q 22.3125 6.890625 25.984375 6.890625 
Q 35.75 6.890625 40.890625 13.453125 
Q 46.046875 20.015625 46.78125 33.40625 
Q 43.953125 29.203125 39.59375 26.953125 
Q 35.25 24.703125 29.984375 24.703125 
Q 19.046875 24.703125 12.671875 31.3125 
Q 6.296875 37.9375 6.296875 49.421875 
Q 6.296875 60.640625 12.9375 67.421875 
Q 19.578125 74.21875 30.609375 74.21875 
Q 43.265625 74.21875 49.921875 64.515625 
Q 56.59375 54.828125 56.59375 36.375 
Q 56.59375 19.140625 48.40625 8.859375 
Q 40.234375 -1.421875 26.421875 -1.421875 
Q 22.703125 -1.421875 18.890625 -0.6875 
Q 15.09375 0.046875 10.984375 1.515625 
z
M 30.609375 32.421875 
Q 37.25 32.421875 41.125 36.953125 
Q 45.015625 41.5 45.015625 49.421875 
Q 45.015625 57.28125 41.125 61.84375 
Q 37.25 66.40625 30.609375 66.40625 
Q 23.96875 66.40625 20.09375 61.84375 
Q 16.21875 57.28125 16.21875 49.421875 
Q 16.21875 41.5 20.09375 36.953125 
Q 23.96875 32.421875 30.609375 32.421875 
z
" id="DejaVuSans-57"/>
       </defs>
       <use xlink:href="#DejaVuSans-50"/>
       <use x="63.623047" xlink:href="#DejaVuSans-48"/>
       <use x="127.246094" xlink:href="#DejaVuSans-50"/>
       <use x="190.869141" xlink:href="#DejaVuSans-52"/>
       <use x="254.492188" xlink:href="#DejaVuSans-45"/>
       <use x="290.576172" xlink:href="#DejaVuSans-48"/>
       <use x="354.199219" xlink:href="#DejaVuSans-56"/>
       <use x="417.822266" xlink:href="#DejaVuSans-45"/>
       <use x="453.90625" xlink:href="#DejaVuSans-50"/>
       <use x="517.529297" xlink:href="#DejaVuSans-57"/>
      </g>
     </g>
    </g>
    <g id="xtick_3">
     <g id="line2d_5">
      <path clip-path="url(#p5379100fdf)" d="M 184.135006 255.638708 
L 184.135006 25.44 
" style="fill:none;stroke:#b0b0b0;stroke-linecap:square;stroke-width:0.8;"/>
     </g>
     <g id="line2d_6">
      <g>
       <use style="stroke:#000000;stroke-width:0.8;" x="184.135006" xlink:href="#me17d324419" y="255.638708"/>
      </g>
     </g>
     <g id="text_3">
      <!-- 2024-08-30 -->
      <g transform="translate(176.789613 319.848351)rotate(-70)scale(0.1 -0.1)">
       <defs>
        <path d="M 40.578125 39.3125 
Q 47.65625 37.796875 51.625 33 
Q 55.609375 28.21875 55.609375 21.1875 
Q 55.609375 10.40625 48.1875 4.484375 
Q 40.765625 -1.421875 27.09375 -1.421875 
Q 22.515625 -1.421875 17.65625 -0.515625 
Q 12.796875 0.390625 7.625 2.203125 
L 7.625 11.71875 
Q 11.71875 9.328125 16.59375 8.109375 
Q 21.484375 6.890625 26.8125 6.890625 
Q 36.078125 6.890625 40.9375 10.546875 
Q 45.796875 14.203125 45.796875 21.1875 
Q 45.796875 27.640625 41.28125 31.265625 
Q 36.765625 34.90625 28.71875 34.90625 
L 20.21875 34.90625 
L 20.21875 43.015625 
L 29.109375 43.015625 
Q 36.375 43.015625 40.234375 45.921875 
Q 44.09375 48.828125 44.09375 54.296875 
Q 44.09375 59.90625 40.109375 62.90625 
Q 36.140625 65.921875 28.71875 65.921875 
Q 24.65625 65.921875 20.015625 65.03125 
Q 15.375 64.15625 9.8125 62.3125 
L 9.8125 71.09375 
Q 15.4375 72.65625 20.34375 73.4375 
Q 25.25 74.21875 29.59375 74.21875 
Q 40.828125 74.21875 47.359375 69.109375 
Q 53.90625 64.015625 53.90625 55.328125 
Q 53.90625 49.265625 50.4375 45.09375 
Q 46.96875 40.921875 40.578125 39.3125 
z
" id="DejaVuSans-51"/>
       </defs>
       <use xlink:href="#DejaVuSans-50"/>
       <use x="63.623047" xlink:href="#DejaVuSans-48"/>
       <use x="127.246094" xlink:href="#DejaVuSans-50"/>
       <use x="190.869141" xlink:href="#DejaVuSans-52"/>
       <use x="254.492188" xlink:href="#DejaVuSans-45"/>
       <use x="290.576172" xlink:href="#DejaVuSans-48"/>
       <use x="354.199219" xlink:href="#DejaVuSans-56"/>
       <use x="417.822266" xlink:href="#DejaVuSans-45"/>
       <use x="453.90625" xlink:href="#DejaVuSans-51"/>
       <use x="517.529297" xlink:href="#DejaVuSans-48"/>
      </g>
     </g>
    </g>
    <g id="xtick_4">
     <g id="line2d_7">
      <path clip-path="url(#p5379100fdf)" d="M 234.315237 255.638708 
L 234.315237 25.44 
" style="fill:none;stroke:#b0b0b0;stroke-linecap:square;stroke-width:0.8;"/>
     </g>
     <g id="line2d_8">
      <g>
       <use style="stroke:#000000;stroke-width:0.8;" x="234.315237" xlink:href="#me17d324419" y="255.638708"/>
      </g>
     </g>
     <g id="text_4">
      <!-- 2024-08-31 -->
      <g transform="translate(226.969844 319.848351)rotate(-70)scale(0.1 -0.1)">
       <defs>
        <path d="M 12.40625 8.296875 
L 28.515625 8.296875 
L 28.515625 63.921875 
L 10.984375 60.40625 
L 10.984375 69.390625 
L 28.421875 72.90625 
L 38.28125 72.90625 
L 38.28125 8.296875 
L 54.390625 8.296875 
L 54.390625 0 
L 12.40625 0 
z
" id="DejaVuSans-49"/>
       </defs>
       <use xlink:href="#DejaVuSans-50"/>
       <use x="63.623047" xlink:href="#DejaVuSans-48"/>
       <use x="127.246094" xlink:href="#DejaVuSans-50"/>
       <use x="190.869141" xlink:href="#DejaVuSans-52"/>
       <use x="254.492188" xlink:href="#DejaVuSans-45"/>
       <use x="290.576172" xlink:href="#DejaVuSans-48"/>
       <use x="354.199219" xlink:href="#DejaVuSans-56"/>
       <use x="417.822266" xlink:href="#DejaVuSans-45"/>
       <use x="453.90625" xlink:href="#DejaVuSans-51"/>
       <use x="517.529297" xlink:href="#DejaVuSans-49"/>
      </g>
     </g>
    </g>
    <g id="xtick_5">
     <g id="line2d_9">
      <path clip-path="url(#p5379100fdf)" d="M 284.495469 255.638708 
L 284.495469 25.44 
" style="fill:none;stroke:#b0b0b0;stroke-linecap:square;stroke-width:0.8;"/>
     </g>
     <g id="line2d_10">
      <g>
       <use style="stroke:#000000;stroke-width:0.8;" x="284.495469" xlink:href="#me17d324419" y="255.638708"/>
      </g>
     </g>
     <g id="text_5">
      <!-- 2024-09-01 -->
      <g transform="translate(277.150076 319.848351)rotate(-70)scale(0.1 -0.1)">
       <use xlink:href="#DejaVuSans-50"/>
       <use x="63.623047" xlink:href="#DejaVuSans-48"/>
       <use x="127.246094" xlink:href="#DejaVuSans-50"/>
       <use x="190.869141" xlink:href="#DejaVuSans-52"/>
       <use x="254.492188" xlink:href="#DejaVuSans-45"/>
       <use x="290.576172" xlink:href="#DejaVuSans-48"/>
       <use x="354.199219" xlink:href="#DejaVuSans-57"/>
       <use x="417.822266" xlink:href="#DejaVuSans-45"/>
       <use x="453.90625" xlink:href="#DejaVuSans-48"/>
       <use x="517.529297" xlink:href="#DejaVuSans-49"/>
      </g>
     </g>
    </g>
    <g id="xtick_6">
     <g id="line2d_11">
      <path clip-path="url(#p5379100fdf)" d="M 334.6757 255.638708 
L 334.6757 25.44 
" style="fill:none;stroke:#b0b0b0;stroke-linecap:square;stroke-width:0.8;"/>
     </g>
     <g id="line2d_12">
      <g>
       <use style="stroke:#000000;stroke-width:0.8;" x="334.6757" xlink:href="#me17d324419" y="255.638708"/>
      </g>
     </g>
     <g id="text_6">
      <!-- 2024-09-02 -->
      <g transform="translate(327.330307 319.848351)rotate(-70)scale(0.1 -0.1)">
       <use xlink:href="#DejaVuSans-50"/>
       <use x="63.623047" xlink:href="#DejaVuSans-48"/>
       <use x="127.246094" xlink:href="#DejaVuSans-50"/>
       <use x="190.869141" xlink:href="#DejaVuSans-52"/>
       <use x="254.492188" xlink:href="#DejaVuSans-45"/>
       <use x="290.576172" xlink:href="#DejaVuSans-48"/>
       <use x="354.199219" xlink:href="#DejaVuSans-57"/>
       <use x="417.822266" xlink:href="#DejaVuSans-45"/>
       <use x="453.90625" xlink:href="#DejaVuSans-48"/>
       <use x="517.529297" xlink:href="#DejaVuSans-50"/>
      </g>
     </g>
    </g>
    <g id="xtick_7">
     <g id="line2d_13">
      <path clip-path="url(#p5379100fdf)" d="M 384.855932 255.638708 
L 384.855932 25.44 
" style="fill:none;stroke:#b0b0b0;stroke-linecap:square;stroke-width:0.8;"/>
     </g>
     <g id="line2d_14">
      <g>
       <use style="stroke:#000000;stroke-width:0.8;" x="384.855932" xlink:href="#me17d324419" y="255.638708"/>
      </g>
     </g>
     <g id="text_7">
      <!-- 2024-09-03 -->
      <g transform="translate(377.510539 319.848351)rotate(-70)scale(0.1 -0.1)">
       <use xlink:href="#DejaVuSans-50"/>
       <use x="63.623047" xlink:href="#DejaVuSans-48"/>
       <use x="127.246094" xlink:href="#DejaVuSans-50"/>
       <use x="190.869141" xlink:href="#DejaVuSans-52"/>
       <use x="254.492188" xlink:href="#DejaVuSans-45"/>
       <use x="290.576172" xlink:href="#DejaVuSans-48"/>
       <use x="354.199219" xlink:href="#DejaVuSans-57"/>
       <use x="417.822266" xlink:href="#DejaVuSans-45"/>
       <use x="453.90625" xlink:href="#DejaVuSans-48"/>
       <use x="517.529297" xlink:href="#DejaVuSans-51"/>
      </g>
     </g>
    </g>
    <g id="xtick_8">
     <g id="line2d_15">
      <path clip-path="url(#p5379100fdf)" d="M 435.036163 255.638708 
L 435.036163 25.44 
" style="fill:none;stroke:#b0b0b0;stroke-linecap:square;stroke-width:0.8;"/>
     </g>
     <g id="line2d_16">
      <g>
       <use style="stroke:#000000;stroke-width:0.8;" x="435.036163" xlink:href="#me17d324419" y="255.638708"/>
      </g>
     </g>
     <g id="text_8">
      <!-- 2024-09-04 -->
      <g transform="translate(427.69077 319.848351)rotate(-70)scale(0.1 -0.1)">
       <use xlink:href="#DejaVuSans-50"/>
       <use x="63.623047" xlink:href="#DejaVuSans-48"/>
       <use x="127.246094" xlink:href="#DejaVuSans-50"/>
       <use x="190.869141" xlink:href="#DejaVuSans-52"/>
       <use x="254.492188" xlink:href="#DejaVuSans-45"/>
       <use x="290.576172" xlink:href="#DejaVuSans-48"/>
       <use x="354.199219" xlink:href="#DejaVuSans-57"/>
       <use x="417.822266" xlink:href="#DejaVuSans-45"/>
       <use x="453.90625" xlink:href="#DejaVuSans-48"/>
       <use x="517.529297" xlink:href="#DejaVuSans-52"/>
      </g>
     </g>
    </g>
    <g id="text_9">
     <!-- Date -->
     <g transform="translate(229.441415 332.158083)scale(0.1 -0.1)">
      <defs>
       <path d="M 19.671875 64.796875 
L 19.671875 8.109375 
L 31.59375 8.109375 
Q 46.6875 8.109375 53.6875 14.9375 
Q 60.6875 21.78125 60.6875 36.53125 
Q 60.6875 51.171875 53.6875 57.984375 
Q 46.6875 64.796875 31.59375 64.796875 
z
M 9.8125 72.90625 
L 30.078125 72.90625 
Q 51.265625 72.90625 61.171875 64.09375 
Q 71.09375 55.28125 71.09375 36.53125 
Q 71.09375 17.671875 61.125 8.828125 
Q 51.171875 0 30.078125 0 
L 9.8125 0 
z
" id="DejaVuSans-68"/>
       <path d="M 34.28125 27.484375 
Q 23.390625 27.484375 19.1875 25 
Q 14.984375 22.515625 14.984375 16.5 
Q 14.984375 11.71875 18.140625 8.90625 
Q 21.296875 6.109375 26.703125 6.109375 
Q 34.1875 6.109375 38.703125 11.40625 
Q 43.21875 16.703125 43.21875 25.484375 
L 43.21875 27.484375 
z
M 52.203125 31.203125 
L 52.203125 0 
L 43.21875 0 
L 43.21875 8.296875 
Q 40.140625 3.328125 35.546875 0.953125 
Q 30.953125 -1.421875 24.3125 -1.421875 
Q 15.921875 -1.421875 10.953125 3.296875 
Q 6 8.015625 6 15.921875 
Q 6 25.140625 12.171875 29.828125 
Q 18.359375 34.515625 30.609375 34.515625 
L 43.21875 34.515625 
L 43.21875 35.40625 
Q 43.21875 41.609375 39.140625 45 
Q 35.0625 48.390625 27.6875 48.390625 
Q 23 48.390625 18.546875 47.265625 
Q 14.109375 46.140625 10.015625 43.890625 
L 10.015625 52.203125 
Q 14.9375 54.109375 19.578125 55.046875 
Q 24.21875 56 28.609375 56 
Q 40.484375 56 46.34375 49.84375 
Q 52.203125 43.703125 52.203125 31.203125 
z
" id="DejaVuSans-97"/>
       <path d="M 18.3125 70.21875 
L 18.3125 54.6875 
L 36.8125 54.6875 
L 36.8125 47.703125 
L 18.3125 47.703125 
L 18.3125 18.015625 
Q 18.3125 11.328125 20.140625 9.421875 
Q 21.96875 7.515625 27.59375 7.515625 
L 36.8125 7.515625 
L 36.8125 0 
L 27.59375 0 
Q 17.1875 0 13.234375 3.875 
Q 9.28125 7.765625 9.28125 18.015625 
L 9.28125 47.703125 
L 2.6875 47.703125 
L 2.6875 54.6875 
L 9.28125 54.6875 
L 9.28125 70.21875 
z
" id="DejaVuSans-116"/>
       <path d="M 56.203125 29.59375 
L 56.203125 25.203125 
L 14.890625 25.203125 
Q 15.484375 15.921875 20.484375 11.0625 
Q 25.484375 6.203125 34.421875 6.203125 
Q 39.59375 6.203125 44.453125 7.46875 
Q 49.3125 8.734375 54.109375 11.28125 
L 54.109375 2.78125 
Q 49.265625 0.734375 44.1875 -0.34375 
Q 39.109375 -1.421875 33.890625 -1.421875 
Q 20.796875 -1.421875 13.15625 6.1875 
Q 5.515625 13.8125 5.515625 26.8125 
Q 5.515625 40.234375 12.765625 48.109375 
Q 20.015625 56 32.328125 56 
Q 43.359375 56 49.78125 48.890625 
Q 56.203125 41.796875 56.203125 29.59375 
z
M 47.21875 32.234375 
Q 47.125 39.59375 43.09375 43.984375 
Q 39.0625 48.390625 32.421875 48.390625 
Q 24.90625 48.390625 20.390625 44.140625 
Q 15.875 39.890625 15.1875 32.171875 
z
" id="DejaVuSans-101"/>
      </defs>
      <use xlink:href="#DejaVuSans-68"/>
      <use x="77.001953" xlink:href="#DejaVuSans-97"/>
      <use x="138.28125" xlink:href="#DejaVuSans-116"/>
      <use x="177.490234" xlink:href="#DejaVuSans-101"/>
     </g>
    </g>
   </g>
   <g id="matplotlib.axis_2">
    <g id="ytick_1">
     <g id="line2d_17">
      <path clip-path="url(#p5379100fdf)" d="M 44.66 232.095658 
L 438.124392 232.095658 
" style="fill:none;stroke:#b0b0b0;stroke-linecap:square;stroke-width:0.8;"/>
     </g>
     <g id="line2d_18">
      <defs>
       <path d="M 0 0 
L -3.5 0 
" id="m1c25fa34b4" style="stroke:#000000;stroke-width:0.8;"/>
      </defs>
      <g>
       <use style="stroke:#000000;stroke-width:0.8;" x="44.66" xlink:href="#m1c25fa34b4" y="232.095658"/>
      </g>
     </g>
     <g id="text_10">
      <!-- 60 -->
      <g transform="translate(24.935 235.894877)scale(0.1 -0.1)">
       <defs>
        <path d="M 33.015625 40.375 
Q 26.375 40.375 22.484375 35.828125 
Q 18.609375 31.296875 18.609375 23.390625 
Q 18.609375 15.53125 22.484375 10.953125 
Q 26.375 6.390625 33.015625 6.390625 
Q 39.65625 6.390625 43.53125 10.953125 
Q 47.40625 15.53125 47.40625 23.390625 
Q 47.40625 31.296875 43.53125 35.828125 
Q 39.65625 40.375 33.015625 40.375 
z
M 52.59375 71.296875 
L 52.59375 62.3125 
Q 48.875 64.0625 45.09375 64.984375 
Q 41.3125 65.921875 37.59375 65.921875 
Q 27.828125 65.921875 22.671875 59.328125 
Q 17.53125 52.734375 16.796875 39.40625 
Q 19.671875 43.65625 24.015625 45.921875 
Q 28.375 48.1875 33.59375 48.1875 
Q 44.578125 48.1875 50.953125 41.515625 
Q 57.328125 34.859375 57.328125 23.390625 
Q 57.328125 12.15625 50.6875 5.359375 
Q 44.046875 -1.421875 33.015625 -1.421875 
Q 20.359375 -1.421875 13.671875 8.265625 
Q 6.984375 17.96875 6.984375 36.375 
Q 6.984375 53.65625 15.1875 63.9375 
Q 23.390625 74.21875 37.203125 74.21875 
Q 40.921875 74.21875 44.703125 73.484375 
Q 48.484375 72.75 52.59375 71.296875 
z
" id="DejaVuSans-54"/>
       </defs>
       <use xlink:href="#DejaVuSans-54"/>
       <use x="63.623047" xlink:href="#DejaVuSans-48"/>
      </g>
     </g>
    </g>
    <g id="ytick_2">
     <g id="line2d_19">
      <path clip-path="url(#p5379100fdf)" d="M 44.66 205.936714 
L 438.124392 205.936714 
" style="fill:none;stroke:#b0b0b0;stroke-linecap:square;stroke-width:0.8;"/>
     </g>
     <g id="line2d_20">
      <g>
       <use style="stroke:#000000;stroke-width:0.8;" x="44.66" xlink:href="#m1c25fa34b4" y="205.936714"/>
      </g>
     </g>
     <g id="text_11">
      <!-- 62 -->
      <g transform="translate(24.935 209.735933)scale(0.1 -0.1)">
       <use xlink:href="#DejaVuSans-54"/>
       <use x="63.623047" xlink:href="#DejaVuSans-50"/>
      </g>
     </g>
    </g>
    <g id="ytick_3">
     <g id="line2d_21">
      <path clip-path="url(#p5379100fdf)" d="M 44.66 179.77777 
L 438.124392 179.77777 
" style="fill:none;stroke:#b0b0b0;stroke-linecap:square;stroke-width:0.8;"/>
     </g>
     <g id="line2d_22">
      <g>
       <use style="stroke:#000000;stroke-width:0.8;" x="44.66" xlink:href="#m1c25fa34b4" y="179.77777"/>
      </g>
     </g>
     <g id="text_12">
      <!-- 64 -->
      <g transform="translate(24.935 183.576989)scale(0.1 -0.1)">
       <use xlink:href="#DejaVuSans-54"/>
       <use x="63.623047" xlink:href="#DejaVuSans-52"/>
      </g>
     </g>
    </g>
    <g id="ytick_4">
     <g id="line2d_23">
      <path clip-path="url(#p5379100fdf)" d="M 44.66 153.618826 
L 438.124392 153.618826 
" style="fill:none;stroke:#b0b0b0;stroke-linecap:square;stroke-width:0.8;"/>
     </g>
     <g id="line2d_24">
      <g>
       <use style="stroke:#000000;stroke-width:0.8;" x="44.66" xlink:href="#m1c25fa34b4" y="153.618826"/>
      </g>
     </g>
     <g id="text_13">
      <!-- 66 -->
      <g transform="translate(24.935 157.418045)scale(0.1 -0.1)">
       <use xlink:href="#DejaVuSans-54"/>
       <use x="63.623047" xlink:href="#DejaVuSans-54"/>
      </g>
     </g>
    </g>
    <g id="ytick_5">
     <g id="line2d_25">
      <path clip-path="url(#p5379100fdf)" d="M 44.66 127.459882 
L 438.124392 127.459882 
" style="fill:none;stroke:#b0b0b0;stroke-linecap:square;stroke-width:0.8;"/>
     </g>
     <g id="line2d_26">
      <g>
       <use style="stroke:#000000;stroke-width:0.8;" x="44.66" xlink:href="#m1c25fa34b4" y="127.459882"/>
      </g>
     </g>
     <g id="text_14">
      <!-- 68 -->
      <g transform="translate(24.935 131.259101)scale(0.1 -0.1)">
       <use xlink:href="#DejaVuSans-54"/>
       <use x="63.623047" xlink:href="#DejaVuSans-56"/>
      </g>
     </g>
    </g>
    <g id="ytick_6">
     <g id="line2d_27">
      <path clip-path="url(#p5379100fdf)" d="M 44.66 101.300938 
L 438.124392 101.300938 
" style="fill:none;stroke:#b0b0b0;stroke-linecap:square;stroke-width:0.8;"/>
     </g>
     <g id="line2d_28">
      <g>
       <use style="stroke:#000000;stroke-width:0.8;" x="44.66" xlink:href="#m1c25fa34b4" y="101.300938"/>
      </g>
     </g>
     <g id="text_15">
      <!-- 70 -->
      <g transform="translate(24.935 105.100157)scale(0.1 -0.1)">
       <defs>
        <path d="M 8.203125 72.90625 
L 55.078125 72.90625 
L 55.078125 68.703125 
L 28.609375 0 
L 18.3125 0 
L 43.21875 64.59375 
L 8.203125 64.59375 
z
" id="DejaVuSans-55"/>
       </defs>
       <use xlink:href="#DejaVuSans-55"/>
       <use x="63.623047" xlink:href="#DejaVuSans-48"/>
      </g>
     </g>
    </g>
    <g id="ytick_7">
     <g id="line2d_29">
      <path clip-path="url(#p5379100fdf)" d="M 44.66 75.141994 
L 438.124392 75.141994 
" style="fill:none;stroke:#b0b0b0;stroke-linecap:square;stroke-width:0.8;"/>
     </g>
     <g id="line2d_30">
      <g>
       <use style="stroke:#000000;stroke-width:0.8;" x="44.66" xlink:href="#m1c25fa34b4" y="75.141994"/>
      </g>
     </g>
     <g id="text_16">
      <!-- 72 -->
      <g transform="translate(24.935 78.941213)scale(0.1 -0.1)">
       <use xlink:href="#DejaVuSans-55"/>
       <use x="63.623047" xlink:href="#DejaVuSans-50"/>
      </g>
     </g>
    </g>
    <g id="ytick_8">
     <g id="line2d_31">
      <path clip-path="url(#p5379100fdf)" d="M 44.66 48.98305 
L 438.124392 48.98305 
" style="fill:none;stroke:#b0b0b0;stroke-linecap:square;stroke-width:0.8;"/>
     </g>
     <g id="line2d_32">
      <g>
       <use style="stroke:#000000;stroke-width:0.8;" x="44.66" xlink:href="#m1c25fa34b4" y="48.98305"/>
      </g>
     </g>
     <g id="text_17">
      <!-- 74 -->
      <g transform="translate(24.935 52.782268)scale(0.1 -0.1)">
       <use xlink:href="#DejaVuSans-55"/>
       <use x="63.623047" xlink:href="#DejaVuSans-52"/>
      </g>
     </g>
    </g>
    <g id="text_18">
     <!-- Temperature [F] -->
     <g transform="translate(18.855313 180.575291)rotate(-90)scale(0.1 -0.1)">
      <defs>
       <path d="M -0.296875 72.90625 
L 61.375 72.90625 
L 61.375 64.59375 
L 35.5 64.59375 
L 35.5 0 
L 25.59375 0 
L 25.59375 64.59375 
L -0.296875 64.59375 
z
" id="DejaVuSans-84"/>
       <path d="M 52 44.1875 
Q 55.375 50.25 60.0625 53.125 
Q 64.75 56 71.09375 56 
Q 79.640625 56 84.28125 50.015625 
Q 88.921875 44.046875 88.921875 33.015625 
L 88.921875 0 
L 79.890625 0 
L 79.890625 32.71875 
Q 79.890625 40.578125 77.09375 44.375 
Q 74.3125 48.1875 68.609375 48.1875 
Q 61.625 48.1875 57.5625 43.546875 
Q 53.515625 38.921875 53.515625 30.90625 
L 53.515625 0 
L 44.484375 0 
L 44.484375 32.71875 
Q 44.484375 40.625 41.703125 44.40625 
Q 38.921875 48.1875 33.109375 48.1875 
Q 26.21875 48.1875 22.15625 43.53125 
Q 18.109375 38.875 18.109375 30.90625 
L 18.109375 0 
L 9.078125 0 
L 9.078125 54.6875 
L 18.109375 54.6875 
L 18.109375 46.1875 
Q 21.1875 51.21875 25.484375 53.609375 
Q 29.78125 56 35.6875 56 
Q 41.65625 56 45.828125 52.96875 
Q 50 49.953125 52 44.1875 
z
" id="DejaVuSans-109"/>
       <path d="M 18.109375 8.203125 
L 18.109375 -20.796875 
L 9.078125 -20.796875 
L 9.078125 54.6875 
L 18.109375 54.6875 
L 18.109375 46.390625 
Q 20.953125 51.265625 25.265625 53.625 
Q 29.59375 56 35.59375 56 
Q 45.5625 56 51.78125 48.09375 
Q 58.015625 40.1875 58.015625 27.296875 
Q 58.015625 14.40625 51.78125 6.484375 
Q 45.5625 -1.421875 35.59375 -1.421875 
Q 29.59375 -1.421875 25.265625 0.953125 
Q 20.953125 3.328125 18.109375 8.203125 
z
M 48.6875 27.296875 
Q 48.6875 37.203125 44.609375 42.84375 
Q 40.53125 48.484375 33.40625 48.484375 
Q 26.265625 48.484375 22.1875 42.84375 
Q 18.109375 37.203125 18.109375 27.296875 
Q 18.109375 17.390625 22.1875 11.75 
Q 26.265625 6.109375 33.40625 6.109375 
Q 40.53125 6.109375 44.609375 11.75 
Q 48.6875 17.390625 48.6875 27.296875 
z
" id="DejaVuSans-112"/>
       <path d="M 41.109375 46.296875 
Q 39.59375 47.171875 37.8125 47.578125 
Q 36.03125 48 33.890625 48 
Q 26.265625 48 22.1875 43.046875 
Q 18.109375 38.09375 18.109375 28.8125 
L 18.109375 0 
L 9.078125 0 
L 9.078125 54.6875 
L 18.109375 54.6875 
L 18.109375 46.1875 
Q 20.953125 51.171875 25.484375 53.578125 
Q 30.03125 56 36.53125 56 
Q 37.453125 56 38.578125 55.875 
Q 39.703125 55.765625 41.0625 55.515625 
z
" id="DejaVuSans-114"/>
       <path d="M 8.5 21.578125 
L 8.5 54.6875 
L 17.484375 54.6875 
L 17.484375 21.921875 
Q 17.484375 14.15625 20.5 10.265625 
Q 23.53125 6.390625 29.59375 6.390625 
Q 36.859375 6.390625 41.078125 11.03125 
Q 45.3125 15.671875 45.3125 23.6875 
L 45.3125 54.6875 
L 54.296875 54.6875 
L 54.296875 0 
L 45.3125 0 
L 45.3125 8.40625 
Q 42.046875 3.421875 37.71875 1 
Q 33.40625 -1.421875 27.6875 -1.421875 
Q 18.265625 -1.421875 13.375 4.4375 
Q 8.5 10.296875 8.5 21.578125 
z
M 31.109375 56 
z
" id="DejaVuSans-117"/>
       <path id="DejaVuSans-32"/>
       <path d="M 8.59375 75.984375 
L 29.296875 75.984375 
L 29.296875 69 
L 17.578125 69 
L 17.578125 -6.203125 
L 29.296875 -6.203125 
L 29.296875 -13.1875 
L 8.59375 -13.1875 
z
" id="DejaVuSans-91"/>
       <path d="M 9.8125 72.90625 
L 51.703125 72.90625 
L 51.703125 64.59375 
L 19.671875 64.59375 
L 19.671875 43.109375 
L 48.578125 43.109375 
L 48.578125 34.8125 
L 19.671875 34.8125 
L 19.671875 0 
L 9.8125 0 
z
" id="DejaVuSans-70"/>
       <path d="M 30.421875 75.984375 
L 30.421875 -13.1875 
L 9.71875 -13.1875 
L 9.71875 -6.203125 
L 21.390625 -6.203125 
L 21.390625 69 
L 9.71875 69 
L 9.71875 75.984375 
z
" id="DejaVuSans-93"/>
      </defs>
      <use xlink:href="#DejaVuSans-84"/>
      <use x="44.083984" xlink:href="#DejaVuSans-101"/>
      <use x="105.607422" xlink:href="#DejaVuSans-109"/>
      <use x="203.019531" xlink:href="#DejaVuSans-112"/>
      <use x="266.496094" xlink:href="#DejaVuSans-101"/>
      <use x="328.019531" xlink:href="#DejaVuSans-114"/>
      <use x="369.132812" xlink:href="#DejaVuSans-97"/>
      <use x="430.412109" xlink:href="#DejaVuSans-116"/>
      <use x="469.621094" xlink:href="#DejaVuSans-117"/>
      <use x="533" xlink:href="#DejaVuSans-114"/>
      <use x="571.863281" xlink:href="#DejaVuSans-101"/>
      <use x="633.386719" xlink:href="#DejaVuSans-32"/>
      <use x="665.173828" xlink:href="#DejaVuSans-91"/>
      <use x="704.1875" xlink:href="#DejaVuSans-70"/>
      <use x="761.707031" xlink:href="#DejaVuSans-93"/>
     </g>
    </g>
   </g>
   <g id="line2d_33">
    <path clip-path="url(#p5379100fdf)" d="M 62.544745 115.688357 
L 62.621332 115.688357 
L 62.693508 114.38041 
L 62.730308 115.688357 
L 62.766418 115.688357 
L 62.911061 114.38041 
L 62.983485 114.38041 
L 63.019686 115.688357 
L 63.05654 114.38041 
L 63.202125 113.072463 
L 63.420999 113.072463 
L 63.531496 111.764515 
L 63.643357 113.072463 
L 63.679371 113.072463 
L 63.751842 114.38041 
L 63.788165 113.072463 
L 63.863406 111.764515 
L 63.899545 114.38041 
L 63.972165 111.764515 
L 64.046774 111.764515 
L 64.157486 109.148621 
L 64.194622 109.148621 
L 64.230601 111.764515 
L 64.267369 107.840674 
L 64.303433 107.840674 
L 64.340447 109.148621 
L 64.41383 107.840674 
L 64.55943 107.840674 
L 64.633466 106.532727 
L 64.708056 107.840674 
L 64.745004 106.532727 
L 64.781139 109.148621 
L 64.890323 109.148621 
L 64.964087 106.532727 
L 65.002144 107.840674 
L 65.076409 106.532727 
L 65.112551 107.840674 
L 65.258435 107.840674 
L 65.406591 109.148621 
L 65.517068 109.148621 
L 65.703225 105.224779 
L 65.84886 106.532727 
L 65.887358 107.840674 
L 66.000092 105.224779 
L 66.074259 105.224779 
L 66.112139 103.916832 
L 66.184828 105.224779 
L 66.22151 106.532727 
L 66.28219 105.224779 
L 66.430676 105.224779 
L 66.505458 103.916832 
L 66.618415 106.532727 
L 66.656489 105.224779 
L 66.693897 106.532727 
L 66.729928 106.532727 
L 66.767563 109.148621 
L 66.842623 107.840674 
L 66.91942 109.148621 
L 67.000875 109.148621 
L 67.037111 111.764515 
L 67.111327 109.148621 
L 67.220028 109.148621 
L 67.256557 107.840674 
L 67.328816 109.148621 
L 67.368196 107.840674 
L 67.404769 109.148621 
L 67.442526 109.148621 
L 67.552153 107.840674 
L 67.627282 111.764515 
L 67.737162 107.840674 
L 67.81605 111.764515 
L 67.852089 109.148621 
L 67.888087 109.148621 
L 67.924285 111.764515 
L 67.960612 107.840674 
L 67.996631 109.148621 
L 68.033691 109.148621 
L 68.18075 114.38041 
L 68.255567 109.148621 
L 68.291627 114.38041 
L 68.329173 116.996304 
L 68.367092 113.072463 
L 68.555978 107.840674 
L 68.704235 116.996304 
L 68.779261 113.072463 
L 68.816382 115.688357 
L 68.893658 116.996304 
L 68.965573 115.688357 
L 69.001602 116.996304 
L 69.077929 118.304252 
L 69.115256 116.996304 
L 69.187243 118.304252 
L 69.519539 118.304252 
L 69.666651 119.612199 
L 69.778022 118.304252 
L 69.851448 119.612199 
L 69.887697 118.304252 
L 69.923801 116.996304 
L 69.960923 119.612199 
L 70.037446 119.612199 
L 70.147573 114.38041 
L 70.1855 118.304252 
L 70.223444 122.228093 
L 70.29597 119.612199 
L 70.40842 119.612199 
L 70.484595 115.688357 
L 70.520629 119.612199 
L 70.594994 115.688357 
L 70.631323 115.688357 
L 70.778539 116.996304 
L 70.852977 116.996304 
L 70.889525 115.688357 
L 70.925493 116.996304 
L 70.963112 118.304252 
L 70.999556 114.38041 
L 71.036266 118.304252 
L 71.111116 119.612199 
L 71.185901 116.996304 
L 71.221825 118.304252 
L 71.257893 118.304252 
L 71.293819 116.996304 
L 71.330024 119.612199 
L 71.367882 119.612199 
L 71.404682 116.996304 
L 71.476951 118.304252 
L 71.66192 118.304252 
L 71.776288 119.612199 
L 71.886133 118.304252 
L 72.000913 119.612199 
L 72.075384 116.996304 
L 72.148062 118.304252 
L 72.221402 118.304252 
L 72.368715 119.612199 
L 72.771557 119.612199 
L 72.882423 122.228093 
L 72.92023 119.612199 
L 72.99303 122.228093 
L 73.589617 122.228093 
L 73.666956 123.53604 
L 73.777513 122.228093 
L 73.886484 123.53604 
L 73.922572 122.228093 
L 73.995255 123.53604 
L 74.694149 123.53604 
L 74.730735 124.843988 
L 74.766955 123.53604 
L 167.501942 124.843988 
L 167.5394 123.53604 
L 167.978259 119.612199 
L 168.014651 123.53604 
L 168.090964 122.228093 
L 168.168157 123.53604 
L 168.205304 119.612199 
L 168.294518 123.53604 
L 168.468157 118.304252 
L 168.582204 114.38041 
L 168.740534 119.612199 
L 168.776473 118.304252 
L 168.944417 122.228093 
L 169.099148 122.228093 
L 169.135168 123.53604 
L 169.285458 118.304252 
L 169.325404 118.304252 
L 169.44287 107.840674 
L 169.548449 118.304252 
L 169.584579 115.688357 
L 169.702671 119.612199 
L 169.744185 116.996304 
L 169.818155 118.304252 
L 169.946622 122.228093 
L 170.065168 118.304252 
L 170.182636 119.612199 
L 170.21868 119.612199 
L 170.406073 106.532727 
L 170.55286 118.304252 
L 170.588848 119.612199 
L 170.735201 105.224779 
L 170.772913 106.532727 
L 171.082763 122.228093 
L 171.154788 116.996304 
L 171.214918 118.304252 
L 171.328151 116.996304 
L 171.365462 116.996304 
L 171.403604 115.688357 
L 171.439803 116.996304 
L 171.588397 122.228093 
L 171.742254 116.996304 
L 171.816302 116.996304 
L 171.940045 106.532727 
L 172.06559 119.612199 
L 172.104523 116.996304 
L 172.186492 122.228093 
L 172.299999 116.996304 
L 172.446663 122.228093 
L 172.482592 118.304252 
L 172.519988 119.612199 
L 172.66806 119.612199 
L 172.705537 116.996304 
L 172.744496 118.304252 
L 172.821065 123.53604 
L 172.858138 122.228093 
L 172.967243 118.304252 
L 173.005184 119.612199 
L 173.044367 111.764515 
L 173.12084 114.38041 
L 173.158407 113.072463 
L 173.234191 118.304252 
L 173.270398 115.688357 
L 173.309258 114.38041 
L 173.345176 115.688357 
L 173.491877 116.996304 
L 173.528959 118.304252 
L 173.565337 116.996304 
L 173.719919 116.996304 
L 173.792703 118.304252 
L 173.829814 115.688357 
L 173.901768 118.304252 
L 173.938215 118.304252 
L 173.974152 116.996304 
L 174.047921 118.304252 
L 174.085004 118.304252 
L 174.229481 119.612199 
L 174.266841 119.612199 
L 174.413181 122.228093 
L 174.449714 122.228093 
L 174.596828 123.53604 
L 175.111295 123.53604 
L 175.222232 124.843988 
L 175.369992 123.53604 
L 175.628791 123.53604 
L 175.665105 118.304252 
L 175.73739 123.53604 
L 175.847894 122.228093 
L 175.92593 123.53604 
L 175.963144 122.228093 
L 176.000734 123.53604 
L 176.110749 123.53604 
L 176.147449 122.228093 
L 176.21985 123.53604 
L 176.292567 123.53604 
L 176.403849 124.843988 
L 176.441324 123.53604 
L 176.477349 124.843988 
L 177.262968 124.843988 
L 177.302138 126.151935 
L 177.338229 124.843988 
L 177.462353 123.53604 
L 177.920267 123.53604 
L 178.028658 122.228093 
L 178.065304 123.53604 
L 178.10558 122.228093 
L 178.660403 122.228093 
L 178.69642 123.53604 
L 178.769304 122.228093 
L 179.102886 122.228093 
L 179.215599 123.53604 
L 179.360765 122.228093 
L 179.504977 122.228093 
L 179.614193 123.53604 
L 179.725226 122.228093 
L 179.872457 123.53604 
L 179.944601 123.53604 
L 180.088951 122.228093 
L 180.161405 122.228093 
L 180.269399 123.53604 
L 180.38775 122.228093 
L 180.788616 122.228093 
L 325.776143 85.605571 
L 325.859907 88.221466 
L 326.035059 88.221466 
L 326.071352 85.605571 
L 326.10857 88.221466 
L 326.264625 88.221466 
L 326.302054 85.605571 
L 326.338184 88.221466 
L 326.714975 88.221466 
L 326.789325 89.529413 
L 326.825666 88.221466 
L 327.053722 88.221466 
L 327.09174 89.529413 
L 327.134824 88.221466 
L 327.214526 88.221466 
L 327.362135 89.529413 
L 327.436552 89.529413 
L 327.473665 88.221466 
L 327.546017 89.529413 
L 327.691836 89.529413 
L 327.801047 88.221466 
L 327.927517 89.529413 
L 328.755559 89.529413 
L 328.791984 90.83736 
L 328.863964 89.529413 
L 328.899865 89.529413 
L 328.93672 90.83736 
L 329.009814 89.529413 
L 329.04702 89.529413 
L 329.121592 90.83736 
L 329.157828 89.529413 
L 329.19843 90.83736 
L 329.235846 89.529413 
L 329.387156 89.529413 
L 329.53209 90.83736 
L 330.234263 90.83736 
L 330.270618 92.145307 
L 330.342819 90.83736 
L 330.49482 90.83736 
L 330.535048 92.145307 
L 330.589332 90.83736 
L 330.962833 90.83736 
L 331.039962 92.145307 
L 331.077325 90.83736 
L 331.150819 92.145307 
L 332.678945 92.145307 
L 332.716738 93.453255 
L 332.754583 92.145307 
L 333.126434 92.145307 
L 333.202085 93.453255 
L 333.317343 92.145307 
L 333.354615 93.453255 
L 333.428188 92.145307 
L 333.465249 92.145307 
L 333.612526 93.453255 
L 334.140456 93.453255 
L 334.314112 94.761202 
L 334.459132 93.453255 
L 335.534011 93.453255 
L 335.569919 92.145307 
L 335.644764 93.453255 
L 335.906571 93.453255 
L 335.942825 92.145307 
L 336.017533 93.453255 
L 336.055207 93.453255 
L 336.164811 92.145307 
L 336.273924 93.453255 
L 336.868373 93.453255 
L 336.904325 94.761202 
L 336.976191 93.453255 
L 337.669793 93.453255 
L 337.706824 92.145307 
L 337.779965 93.453255 
L 337.889632 93.453255 
L 337.937942 92.145307 
L 337.97855 93.453255 
L 338.347022 93.453255 
L 338.38411 92.145307 
L 338.421303 93.453255 
L 339.643391 93.453255 
L 339.67953 94.761202 
L 339.715735 93.453255 
L 339.754987 93.453255 
L 339.864944 94.761202 
L 340.01743 93.453255 
L 340.179109 94.761202 
L 340.28928 93.453255 
L 340.364944 93.453255 
L 340.511621 94.761202 
L 340.587241 93.453255 
L 340.623408 94.761202 
L 340.696096 93.453255 
L 340.844435 93.453255 
L 340.988869 94.761202 
L 341.636806 94.761202 
L 341.673186 96.069149 
L 341.745298 94.761202 
L 342.196184 94.761202 
L 342.308613 96.069149 
L 342.420573 94.761202 
L 342.531001 96.069149 
L 342.645848 94.761202 
L 342.759811 96.069149 
L 342.836722 96.069149 
L 342.875679 94.761202 
L 342.911954 96.069149 
L 344.105874 96.069149 
L 344.143114 98.685043 
L 344.216742 96.069149 
L 344.252737 96.069149 
L 344.29508 98.685043 
L 344.331243 96.069149 
L 344.860452 96.069149 
L 344.933291 98.685043 
L 344.970471 96.069149 
L 345.314695 96.069149 
L 345.424946 98.685043 
L 345.463129 98.685043 
L 345.57204 96.069149 
L 345.681275 98.685043 
L 345.793735 96.069149 
L 345.903875 98.685043 
L 346.021046 96.069149 
L 346.057151 96.069149 
L 346.129767 98.685043 
L 346.167523 96.069149 
L 346.314099 98.685043 
L 346.389467 98.685043 
L 346.42685 96.069149 
L 346.466741 98.685043 
L 347.575378 98.685043 
L 347.689512 99.992991 
L 347.808002 98.685043 
L 347.918242 98.685043 
L 347.956012 99.992991 
L 347.992543 98.685043 
L 348.393904 98.685043 
L 348.50718 99.992991 
L 348.543161 99.992991 
L 348.653312 98.685043 
L 348.801871 99.992991 
L 350.066968 99.992991 
L 350.176713 101.300938 
L 350.252616 99.992991 
L 350.363261 101.300938 
L 350.435921 99.992991 
L 350.472089 101.300938 
L 351.317107 101.300938 
L 351.430411 99.992991 
L 351.4668 99.992991 
L 351.613593 101.300938 
L 353.132412 101.300938 
L 353.168538 102.608885 
L 353.361334 101.300938 
L 354.552482 101.300938 
L 354.589983 102.608885 
L 354.628964 101.300938 
L 354.7071 102.608885 
L 354.819295 101.300938 
L 354.944871 102.608885 
L 356.001702 102.608885 
L 356.03778 101.300938 
L 356.076797 102.608885 
L 356.301934 102.608885 
L 356.412177 101.300938 
L 356.525967 102.608885 
L 356.600089 102.608885 
L 356.713863 101.300938 
L 356.934524 101.300938 
L 356.970463 102.608885 
L 357.045272 101.300938 
L 357.156645 101.300938 
L 357.271169 102.608885 
L 357.30899 102.608885 
L 357.457264 101.300938 
L 357.750262 101.300938 
L 357.786327 102.608885 
L 357.827588 101.300938 
L 357.866674 101.300938 
L 357.904943 102.608885 
L 357.942988 101.300938 
L 359.229309 101.300938 
L 359.265313 99.992991 
L 359.339451 101.300938 
L 359.488803 99.992991 
L 359.713509 99.992991 
L 359.788478 98.685043 
L 359.900717 99.992991 
L 360.05134 99.992991 
L 360.134616 98.685043 
L 360.246492 99.992991 
L 360.284869 98.685043 
L 360.32096 99.992991 
L 361.407325 99.992991 
L 361.445115 98.685043 
L 361.481281 99.992991 
L 361.52044 99.992991 
L 361.629274 98.685043 
L 361.677606 98.685043 
L 361.71392 99.992991 
L 361.786389 98.685043 
L 361.936447 98.685043 
L 362.048659 96.069149 
L 362.458599 96.069149 
L 362.531335 94.761202 
L 362.567815 96.069149 
L 363.455033 96.069149 
L 363.564708 94.761202 
L 363.677153 96.069149 
L 363.786433 96.069149 
L 363.896549 94.761202 
L 363.933115 96.069149 
L 364.007166 94.761202 
L 364.043163 94.761202 
L 364.187508 93.453255 
L 364.2629 93.453255 
L 364.408913 94.761202 
L 364.517729 94.761202 
L 364.593323 93.453255 
L 364.738999 94.761202 
L 364.858785 93.453255 
L 365.08881 93.453255 
L 365.201951 94.761202 
L 365.238001 93.453255 
L 365.312435 94.761202 
L 365.424688 93.453255 
L 365.463587 93.453255 
L 365.581353 94.761202 
L 365.772028 94.761202 
L 365.808115 93.453255 
L 365.882271 94.761202 
L 366.406407 94.761202 
L 366.518742 93.453255 
L 366.554843 93.453255 
L 366.629265 94.761202 
L 366.665526 93.453255 
L 366.781962 93.453255 
L 366.860972 94.761202 
L 366.897047 93.453255 
L 366.971562 94.761202 
L 367.010356 93.453255 
L 367.047737 94.761202 
L 367.087257 94.761202 
L 367.125128 93.453255 
L 367.162302 94.761202 
L 367.237937 94.761202 
L 367.352735 93.453255 
L 367.468499 93.453255 
L 367.617455 94.761202 
L 367.654831 94.761202 
L 367.802997 93.453255 
L 368.069483 93.453255 
L 368.110287 94.761202 
L 368.146382 93.453255 
L 368.350663 93.453255 
L 368.387639 94.761202 
L 368.42481 93.453255 
L 368.750492 93.453255 
L 368.786484 90.83736 
L 368.860283 92.145307 
L 368.969126 92.145307 
L 369.115935 93.453255 
L 369.263705 93.453255 
L 369.336403 94.761202 
L 369.373082 93.453255 
L 369.410451 93.453255 
L 369.446487 92.145307 
L 369.519917 93.453255 
L 369.556613 93.453255 
L 369.667334 92.145307 
L 369.7034 93.453255 
L 369.778457 92.145307 
L 369.8532 92.145307 
L 369.964133 93.453255 
L 370.419101 93.453255 
L 370.455256 94.761202 
L 370.493544 93.453255 
L 370.530283 93.453255 
L 370.643369 92.145307 
L 370.754802 93.453255 
L 371.277423 93.453255 
L 371.423707 94.761202 
L 371.498823 94.761202 
L 371.536511 93.453255 
L 371.609189 94.761202 
L 372.050059 94.761202 
L 372.198317 93.453255 
L 372.356598 94.761202 
L 372.812827 94.761202 
L 372.92087 96.069149 
L 373.067688 94.761202 
L 373.217239 94.761202 
L 373.25555 93.453255 
L 373.328202 94.761202 
L 373.77563 94.761202 
L 373.812864 96.069149 
L 373.885473 94.761202 
L 374.387134 94.761202 
L 374.459991 96.069149 
L 374.574298 94.761202 
L 374.685609 94.761202 
L 374.837073 96.069149 
L 375.434301 96.069149 
L 375.508066 94.761202 
L 375.544621 96.069149 
L 375.695485 96.069149 
L 375.733846 94.761202 
L 375.772117 96.069149 
L 376.826333 96.069149 
L 376.863809 98.685043 
L 377.027474 96.069149 
L 377.151215 98.685043 
L 377.187205 96.069149 
L 377.233542 98.685043 
L 377.269685 98.685043 
L 377.306333 96.069149 
L 377.343507 98.685043 
L 377.420337 98.685043 
L 377.56619 96.069149 
L 377.677107 98.685043 
L 377.838231 98.685043 
L 377.877349 96.069149 
L 377.915672 98.685043 
L 377.952999 98.685043 
L 377.988963 96.069149 
L 378.15605 98.685043 
L 379.102234 98.685043 
L 379.236078 99.992991 
L 379.310781 98.685043 
L 379.386909 99.992991 
L 379.46243 98.685043 
L 379.574207 99.992991 
L 379.684241 98.685043 
L 379.810624 99.992991 
L 380.777725 99.992991 
L 380.81368 101.300938 
L 380.886716 99.992991 
L 381.517788 99.992991 
L 381.553948 101.300938 
L 381.62845 99.992991 
L 381.665664 99.992991 
L 381.776787 101.300938 
L 381.813482 99.992991 
L 381.887941 101.300938 
L 381.925729 101.300938 
L 382.040717 99.992991 
L 382.077407 99.992991 
L 382.234559 101.300938 
L 384.297808 101.300938 
L 384.338127 102.608885 
L 384.379911 101.300938 
L 384.533331 101.300938 
L 384.608491 102.608885 
L 384.726162 101.300938 
L 384.767097 102.608885 
L 384.806244 101.300938 
L 384.842245 101.300938 
L 384.9528 102.608885 
L 385.397227 102.608885 
L 385.435666 101.300938 
L 385.473008 102.608885 
L 385.655766 102.608885 
L 385.691755 101.300938 
L 385.765463 102.608885 
L 386.063603 102.608885 
L 386.102579 103.916832 
L 386.140794 102.608885 
L 387.191307 102.608885 
L 387.228991 101.300938 
L 387.266568 102.608885 
L 388.998126 102.608885 
L 389.035228 103.916832 
L 389.188722 102.608885 
L 389.683852 102.608885 
L 389.808551 103.916832 
L 389.920535 102.608885 
L 390.031363 102.608885 
L 390.145001 103.916832 
L 390.638344 103.916832 
L 390.674962 102.608885 
L 390.712173 103.916832 
L 391.238451 103.916832 
L 391.278486 102.608885 
L 391.314518 103.916832 
L 393.089283 103.916832 
L 393.129715 105.224779 
L 393.165633 103.916832 
L 393.350232 103.916832 
L 393.388476 105.224779 
L 393.429117 103.916832 
L 393.723995 103.916832 
L 393.86901 105.224779 
L 393.989661 103.916832 
L 394.025679 103.916832 
L 394.061602 105.224779 
L 394.100748 103.916832 
L 394.138445 103.916832 
L 394.284943 105.224779 
L 394.358835 105.224779 
L 394.505097 103.916832 
L 394.542816 103.916832 
L 394.655898 105.224779 
L 394.694018 103.916832 
L 394.730305 105.224779 
L 394.88104 105.224779 
L 394.993374 103.916832 
L 395.0295 103.916832 
L 395.177978 105.224779 
L 395.214021 103.916832 
L 395.250532 105.224779 
L 395.587254 105.224779 
L 395.626024 103.916832 
L 395.663172 105.224779 
L 398.370126 105.224779 
L 398.407772 106.532727 
L 398.444892 105.224779 
L 398.703518 105.224779 
L 398.739699 106.532727 
L 398.776983 105.224779 
L 398.923664 105.224779 
L 399.069509 106.532727 
L 399.105645 106.532727 
L 399.144625 105.224779 
L 399.181784 106.532727 
L 399.258447 106.532727 
L 399.334295 105.224779 
L 399.408703 106.532727 
L 399.445853 105.224779 
L 399.484124 106.532727 
L 399.562613 106.532727 
L 399.709169 105.224779 
L 399.820083 106.532727 
L 400.853935 106.532727 
L 400.890501 107.840674 
L 400.964194 106.532727 
L 401.406497 106.532727 
L 401.522932 107.840674 
L 401.674953 106.532727 
L 401.75064 106.532727 
L 401.787268 107.840674 
L 401.828044 106.532727 
L 401.946993 107.840674 
L 402.060039 106.532727 
L 402.134804 107.840674 
L 402.258098 106.532727 
L 402.294967 106.532727 
L 402.332672 107.840674 
L 402.495461 106.532727 
L 402.563243 106.532727 
L 402.602413 107.840674 
L 402.779903 106.532727 
L 404.785835 106.532727 
L 404.906598 105.224779 
L 405.054273 106.532727 
L 405.180848 105.224779 
L 405.21687 105.224779 
L 405.288962 106.532727 
L 405.324893 105.224779 
L 406.356673 105.224779 
L 406.39264 103.916832 
L 406.445684 105.224779 
L 406.483064 105.224779 
L 406.593428 103.916832 
L 406.715747 105.224779 
L 406.826451 103.916832 
L 406.867972 103.916832 
L 406.948174 102.608885 
L 406.986799 103.916832 
L 407.024996 102.608885 
L 407.323354 102.608885 
L 407.435919 101.300938 
L 407.472579 102.608885 
L 407.510218 101.300938 
L 407.700978 101.300938 
L 407.748414 99.992991 
L 407.784327 101.300938 
L 407.971531 101.300938 
L 408.089678 102.608885 
L 408.207687 101.300938 
L 408.35241 102.608885 
L 408.498872 101.300938 
L 408.534799 101.300938 
L 408.64349 99.992991 
L 408.715551 101.300938 
L 408.752798 99.992991 
L 408.788795 99.992991 
L 408.896858 101.300938 
L 409.041825 99.992991 
L 409.223088 99.992991 
L 409.259818 101.300938 
L 409.333596 99.992991 
L 409.416166 99.992991 
L 409.452167 101.300938 
L 409.526924 99.992991 
L 409.563019 99.992991 
L 409.707512 101.300938 
L 410.22849 101.300938 
L 410.372636 99.992991 
L 410.445011 101.300938 
L 410.488418 99.992991 
L 410.524313 101.300938 
L 410.756482 101.300938 
L 410.79265 99.992991 
L 410.86457 101.300938 
L 411.122427 101.300938 
L 411.2692 99.992991 
L 411.305257 99.992991 
L 411.341576 101.300938 
L 411.383157 99.992991 
L 411.45525 99.992991 
L 411.493533 101.300938 
L 411.566231 99.992991 
L 412.22496 99.992991 
L 412.358294 101.300938 
L 412.4409 99.992991 
L 413.532188 99.992991 
L 413.665537 98.685043 
L 414.085669 98.685043 
L 414.122222 99.992991 
L 414.182797 98.685043 
L 415.150405 98.685043 
L 415.280093 99.992991 
L 415.427919 98.685043 
L 415.808368 98.685043 
L 415.865113 99.992991 
L 415.907356 96.069149 
L 415.955367 98.685043 
L 416.129327 98.685043 
L 416.174822 96.069149 
L 417.116944 96.069149 
L 417.449959 93.453255 
L 417.569021 94.761202 
L 418.695373 94.761202 
L 418.742795 93.453255 
L 418.790186 94.761202 
L 419.026524 94.761202 
L 419.108294 93.453255 
L 419.18665 94.761202 
L 419.272209 93.453255 
L 419.505156 93.453255 
L 419.541432 94.761202 
L 419.57854 93.453255 
L 419.739832 93.453255 
L 419.863105 92.145307 
L 419.899732 92.145307 
L 420.018765 93.453255 
L 420.140436 92.145307 
L 420.239647 92.145307 
L 420.239647 92.145307 
" style="fill:none;stroke:#1f77b4;stroke-linecap:square;stroke-width:1.5;"/>
   </g>
   <g id="line2d_34">
    <path clip-path="url(#p5379100fdf)" d="M 62.544745 204.628767 
L 65.924732 204.628767 
L 66.036101 153.618826 
L 69.778022 153.618826 
L 69.923801 168.006245 
L 72.368715 168.006245 
L 72.514078 192.857242 
L 73.777513 192.857242 
L 73.922572 219.016186 
L 74.766955 219.016186 
L 167.450115 35.903578 
L 172.371933 35.903578 
L 172.482592 62.062522 
L 174.596828 62.062522 
L 174.708911 86.913519 
L 176.626871 86.913519 
L 176.77278 153.618826 
L 179.578144 153.618826 
L 179.725226 192.857242 
L 180.788616 192.857242 
L 325.859907 50.290997 
L 327.288492 50.290997 
L 327.362135 101.300938 
L 329.309295 101.300938 
L 329.459806 153.618826 
L 333.538547 153.618826 
L 333.685122 179.77777 
L 337.706824 179.77777 
L 337.853786 192.857242 
L 340.329018 192.857242 
L 340.475184 204.628767 
L 341.96877 204.628767 
L 342.083425 230.787711 
L 343.848284 230.787711 
L 343.993045 245.17513 
L 345.119932 245.17513 
L 345.231925 221.632081 
L 346.057151 221.632081 
L 346.167523 230.787711 
L 347.918242 230.787711 
L 347.992543 219.016186 
L 353.168538 219.016186 
L 353.361334 221.632081 
L 354.466565 221.632081 
L 354.589983 219.016186 
L 356.375637 219.016186 
L 356.488301 204.628767 
L 360.57774 204.628767 
L 360.726143 192.857242 
L 362.900329 192.857242 
L 363.048463 179.77777 
L 364.187508 179.77777 
L 364.300575 174.545981 
L 364.738999 174.545981 
L 364.858785 168.006245 
L 369.005666 168.006245 
L 369.153127 153.618826 
L 375.695485 153.618826 
L 375.84423 174.545981 
L 377.714889 174.545981 
L 377.838231 179.77777 
L 379.198715 179.77777 
L 379.310781 174.545981 
L 379.574207 174.545981 
L 379.684241 179.77777 
L 385.02851 179.77777 
L 385.138276 174.545981 
L 385.765463 174.545981 
L 385.876941 179.77777 
L 387.810199 179.77777 
L 387.956404 192.857242 
L 388.923203 192.857242 
L 389.035228 221.632081 
L 389.995266 221.632081 
L 390.107884 230.787711 
L 390.527527 230.787711 
L 390.638344 245.17513 
L 399.069509 245.17513 
L 399.181784 221.632081 
L 400.928226 221.632081 
L 401.074495 245.17513 
L 402.602413 245.17513 
L 402.779903 219.016186 
L 404.605141 219.016186 
L 404.74992 204.628767 
L 405.544534 204.628767 
L 405.688636 198.089031 
L 406.633585 198.089031 
L 406.753234 192.857242 
L 409.452167 192.857242 
L 409.598996 179.77777 
L 410.900635 179.77777 
L 411.045431 168.006245 
L 412.911796 168.006245 
L 413.045319 179.77777 
L 414.920356 179.77777 
L 415.029708 153.618826 
L 419.46057 153.618826 
L 419.57854 141.847301 
L 420.239647 141.847301 
L 420.239647 141.847301 
" style="fill:none;stroke:#ff7f0e;stroke-linecap:square;stroke-width:1.5;"/>
   </g>
   <g id="patch_3">
    <path d="M 44.66 255.638708 
L 44.66 25.44 
" style="fill:none;stroke:#000000;stroke-linecap:square;stroke-linejoin:miter;stroke-width:0.8;"/>
   </g>
   <g id="patch_4">
    <path d="M 438.124392 255.638708 
L 438.124392 25.44 
" style="fill:none;stroke:#000000;stroke-linecap:square;stroke-linejoin:miter;stroke-width:0.8;"/>
   </g>
   <g id="patch_5">
    <path d="M 44.66 255.638708 
L 438.124392 255.638708 
" style="fill:none;stroke:#000000;stroke-linecap:square;stroke-linejoin:miter;stroke-width:0.8;"/>
   </g>
   <g id="patch_6">
    <path d="M 44.66 25.44 
L 438.124392 25.44 
" style="fill:none;stroke:#000000;stroke-linecap:square;stroke-linejoin:miter;stroke-width:0.8;"/>
   </g>
   <g id="text_19">
    <!-- Lake Shoecraft - Water and Air Temperature -->
    <g transform="translate(109.773758 19.44)scale(0.12 -0.12)">
     <defs>
      <path d="M 9.8125 72.90625 
L 19.671875 72.90625 
L 19.671875 8.296875 
L 55.171875 8.296875 
L 55.171875 0 
L 9.8125 0 
z
" id="DejaVuSans-76"/>
      <path d="M 9.078125 75.984375 
L 18.109375 75.984375 
L 18.109375 31.109375 
L 44.921875 54.6875 
L 56.390625 54.6875 
L 27.390625 29.109375 
L 57.625 0 
L 45.90625 0 
L 18.109375 26.703125 
L 18.109375 0 
L 9.078125 0 
z
" id="DejaVuSans-107"/>
      <path d="M 53.515625 70.515625 
L 53.515625 60.890625 
Q 47.90625 63.578125 42.921875 64.890625 
Q 37.9375 66.21875 33.296875 66.21875 
Q 25.25 66.21875 20.875 63.09375 
Q 16.5 59.96875 16.5 54.203125 
Q 16.5 49.359375 19.40625 46.890625 
Q 22.3125 44.4375 30.421875 42.921875 
L 36.375 41.703125 
Q 47.40625 39.59375 52.65625 34.296875 
Q 57.90625 29 57.90625 20.125 
Q 57.90625 9.515625 50.796875 4.046875 
Q 43.703125 -1.421875 29.984375 -1.421875 
Q 24.8125 -1.421875 18.96875 -0.25 
Q 13.140625 0.921875 6.890625 3.21875 
L 6.890625 13.375 
Q 12.890625 10.015625 18.65625 8.296875 
Q 24.421875 6.59375 29.984375 6.59375 
Q 38.421875 6.59375 43.015625 9.90625 
Q 47.609375 13.234375 47.609375 19.390625 
Q 47.609375 24.75 44.3125 27.78125 
Q 41.015625 30.8125 33.5 32.328125 
L 27.484375 33.5 
Q 16.453125 35.6875 11.515625 40.375 
Q 6.59375 45.0625 6.59375 53.421875 
Q 6.59375 63.09375 13.40625 68.65625 
Q 20.21875 74.21875 32.171875 74.21875 
Q 37.3125 74.21875 42.625 73.28125 
Q 47.953125 72.359375 53.515625 70.515625 
z
" id="DejaVuSans-83"/>
      <path d="M 54.890625 33.015625 
L 54.890625 0 
L 45.90625 0 
L 45.90625 32.71875 
Q 45.90625 40.484375 42.875 44.328125 
Q 39.84375 48.1875 33.796875 48.1875 
Q 26.515625 48.1875 22.3125 43.546875 
Q 18.109375 38.921875 18.109375 30.90625 
L 18.109375 0 
L 9.078125 0 
L 9.078125 75.984375 
L 18.109375 75.984375 
L 18.109375 46.1875 
Q 21.34375 51.125 25.703125 53.5625 
Q 30.078125 56 35.796875 56 
Q 45.21875 56 50.046875 50.171875 
Q 54.890625 44.34375 54.890625 33.015625 
z
" id="DejaVuSans-104"/>
      <path d="M 30.609375 48.390625 
Q 23.390625 48.390625 19.1875 42.75 
Q 14.984375 37.109375 14.984375 27.296875 
Q 14.984375 17.484375 19.15625 11.84375 
Q 23.34375 6.203125 30.609375 6.203125 
Q 37.796875 6.203125 41.984375 11.859375 
Q 46.1875 17.53125 46.1875 27.296875 
Q 46.1875 37.015625 41.984375 42.703125 
Q 37.796875 48.390625 30.609375 48.390625 
z
M 30.609375 56 
Q 42.328125 56 49.015625 48.375 
Q 55.71875 40.765625 55.71875 27.296875 
Q 55.71875 13.875 49.015625 6.21875 
Q 42.328125 -1.421875 30.609375 -1.421875 
Q 18.84375 -1.421875 12.171875 6.21875 
Q 5.515625 13.875 5.515625 27.296875 
Q 5.515625 40.765625 12.171875 48.375 
Q 18.84375 56 30.609375 56 
z
" id="DejaVuSans-111"/>
      <path d="M 48.78125 52.59375 
L 48.78125 44.1875 
Q 44.96875 46.296875 41.140625 47.34375 
Q 37.3125 48.390625 33.40625 48.390625 
Q 24.65625 48.390625 19.8125 42.84375 
Q 14.984375 37.3125 14.984375 27.296875 
Q 14.984375 17.28125 19.8125 11.734375 
Q 24.65625 6.203125 33.40625 6.203125 
Q 37.3125 6.203125 41.140625 7.25 
Q 44.96875 8.296875 48.78125 10.40625 
L 48.78125 2.09375 
Q 45.015625 0.34375 40.984375 -0.53125 
Q 36.96875 -1.421875 32.421875 -1.421875 
Q 20.0625 -1.421875 12.78125 6.34375 
Q 5.515625 14.109375 5.515625 27.296875 
Q 5.515625 40.671875 12.859375 48.328125 
Q 20.21875 56 33.015625 56 
Q 37.15625 56 41.109375 55.140625 
Q 45.0625 54.296875 48.78125 52.59375 
z
" id="DejaVuSans-99"/>
      <path d="M 37.109375 75.984375 
L 37.109375 68.5 
L 28.515625 68.5 
Q 23.6875 68.5 21.796875 66.546875 
Q 19.921875 64.59375 19.921875 59.515625 
L 19.921875 54.6875 
L 34.71875 54.6875 
L 34.71875 47.703125 
L 19.921875 47.703125 
L 19.921875 0 
L 10.890625 0 
L 10.890625 47.703125 
L 2.296875 47.703125 
L 2.296875 54.6875 
L 10.890625 54.6875 
L 10.890625 58.5 
Q 10.890625 67.625 15.140625 71.796875 
Q 19.390625 75.984375 28.609375 75.984375 
z
" id="DejaVuSans-102"/>
      <path d="M 3.328125 72.90625 
L 13.28125 72.90625 
L 28.609375 11.28125 
L 43.890625 72.90625 
L 54.984375 72.90625 
L 70.3125 11.28125 
L 85.59375 72.90625 
L 95.609375 72.90625 
L 77.296875 0 
L 64.890625 0 
L 49.515625 63.28125 
L 33.984375 0 
L 21.578125 0 
z
" id="DejaVuSans-87"/>
      <path d="M 54.890625 33.015625 
L 54.890625 0 
L 45.90625 0 
L 45.90625 32.71875 
Q 45.90625 40.484375 42.875 44.328125 
Q 39.84375 48.1875 33.796875 48.1875 
Q 26.515625 48.1875 22.3125 43.546875 
Q 18.109375 38.921875 18.109375 30.90625 
L 18.109375 0 
L 9.078125 0 
L 9.078125 54.6875 
L 18.109375 54.6875 
L 18.109375 46.1875 
Q 21.34375 51.125 25.703125 53.5625 
Q 30.078125 56 35.796875 56 
Q 45.21875 56 50.046875 50.171875 
Q 54.890625 44.34375 54.890625 33.015625 
z
" id="DejaVuSans-110"/>
      <path d="M 45.40625 46.390625 
L 45.40625 75.984375 
L 54.390625 75.984375 
L 54.390625 0 
L 45.40625 0 
L 45.40625 8.203125 
Q 42.578125 3.328125 38.25 0.953125 
Q 33.9375 -1.421875 27.875 -1.421875 
Q 17.96875 -1.421875 11.734375 6.484375 
Q 5.515625 14.40625 5.515625 27.296875 
Q 5.515625 40.1875 11.734375 48.09375 
Q 17.96875 56 27.875 56 
Q 33.9375 56 38.25 53.625 
Q 42.578125 51.265625 45.40625 46.390625 
z
M 14.796875 27.296875 
Q 14.796875 17.390625 18.875 11.75 
Q 22.953125 6.109375 30.078125 6.109375 
Q 37.203125 6.109375 41.296875 11.75 
Q 45.40625 17.390625 45.40625 27.296875 
Q 45.40625 37.203125 41.296875 42.84375 
Q 37.203125 48.484375 30.078125 48.484375 
Q 22.953125 48.484375 18.875 42.84375 
Q 14.796875 37.203125 14.796875 27.296875 
z
" id="DejaVuSans-100"/>
      <path d="M 34.1875 63.1875 
L 20.796875 26.90625 
L 47.609375 26.90625 
z
M 28.609375 72.90625 
L 39.796875 72.90625 
L 67.578125 0 
L 57.328125 0 
L 50.6875 18.703125 
L 17.828125 18.703125 
L 11.1875 0 
L 0.78125 0 
z
" id="DejaVuSans-65"/>
      <path d="M 9.421875 54.6875 
L 18.40625 54.6875 
L 18.40625 0 
L 9.421875 0 
z
M 9.421875 75.984375 
L 18.40625 75.984375 
L 18.40625 64.59375 
L 9.421875 64.59375 
z
" id="DejaVuSans-105"/>
     </defs>
     <use xlink:href="#DejaVuSans-76"/>
     <use x="55.712891" xlink:href="#DejaVuSans-97"/>
     <use x="116.992188" xlink:href="#DejaVuSans-107"/>
     <use x="171.277344" xlink:href="#DejaVuSans-101"/>
     <use x="232.800781" xlink:href="#DejaVuSans-32"/>
     <use x="264.587891" xlink:href="#DejaVuSans-83"/>
     <use x="328.064453" xlink:href="#DejaVuSans-104"/>
     <use x="391.443359" xlink:href="#DejaVuSans-111"/>
     <use x="452.625" xlink:href="#DejaVuSans-101"/>
     <use x="514.148438" xlink:href="#DejaVuSans-99"/>
     <use x="569.128906" xlink:href="#DejaVuSans-114"/>
     <use x="610.242188" xlink:href="#DejaVuSans-97"/>
     <use x="671.521484" xlink:href="#DejaVuSans-102"/>
     <use x="704.976562" xlink:href="#DejaVuSans-116"/>
     <use x="744.185547" xlink:href="#DejaVuSans-32"/>
     <use x="775.972656" xlink:href="#DejaVuSans-45"/>
     <use x="812.056641" xlink:href="#DejaVuSans-32"/>
     <use x="843.84375" xlink:href="#DejaVuSans-87"/>
     <use x="936.345703" xlink:href="#DejaVuSans-97"/>
     <use x="997.625" xlink:href="#DejaVuSans-116"/>
     <use x="1036.833984" xlink:href="#DejaVuSans-101"/>
     <use x="1098.357422" xlink:href="#DejaVuSans-114"/>
     <use x="1139.470703" xlink:href="#DejaVuSans-32"/>
     <use x="1171.257812" xlink:href="#DejaVuSans-97"/>
     <use x="1232.537109" xlink:href="#DejaVuSans-110"/>
     <use x="1295.916016" xlink:href="#DejaVuSans-100"/>
     <use x="1359.392578" xlink:href="#DejaVuSans-32"/>
     <use x="1391.179688" xlink:href="#DejaVuSans-65"/>
     <use x="1459.587891" xlink:href="#DejaVuSans-105"/>
     <use x="1487.371094" xlink:href="#DejaVuSans-114"/>
     <use x="1528.484375" xlink:href="#DejaVuSans-32"/>
     <use x="1560.271484" xlink:href="#DejaVuSans-84"/>
     <use x="1604.355469" xlink:href="#DejaVuSans-101"/>
     <use x="1665.878906" xlink:href="#DejaVuSans-109"/>
     <use x="1763.291016" xlink:href="#DejaVuSans-112"/>
     <use x="1826.767578" xlink:href="#DejaVuSans-101"/>
     <use x="1888.291016" xlink:href="#DejaVuSans-114"/>
     <use x="1929.404297" xlink:href="#DejaVuSans-97"/>
     <use x="1990.683594" xlink:href="#DejaVuSans-116"/>
     <use x="2029.892578" xlink:href="#DejaVuSans-117"/>
     <use x="2093.271484" xlink:href="#DejaVuSans-114"/>
     <use x="2132.134766" xlink:href="#DejaVuSans-101"/>
    </g>
   </g>
   <g id="legend_1">
    <g id="patch_7">
     <path d="M 346.015017 62.79625 
L 431.124392 62.79625 
Q 433.124392 62.79625 433.124392 60.79625 
L 433.124392 32.44 
Q 433.124392 30.44 431.124392 30.44 
L 346.015017 30.44 
Q 344.015017 30.44 344.015017 32.44 
L 344.015017 60.79625 
Q 344.015017 62.79625 346.015017 62.79625 
z
" style="fill:#ffffff;opacity:0.8;stroke:#cccccc;stroke-linejoin:miter;"/>
    </g>
    <g id="line2d_35">
     <path d="M 348.015017 38.538437 
L 368.015017 38.538437 
" style="fill:none;stroke:#1f77b4;stroke-linecap:square;stroke-width:1.5;"/>
    </g>
    <g id="line2d_36"/>
    <g id="text_20">
     <!-- Lake Temp -->
     <g transform="translate(376.015017 42.038437)scale(0.1 -0.1)">
      <use xlink:href="#DejaVuSans-76"/>
      <use x="55.712891" xlink:href="#DejaVuSans-97"/>
      <use x="116.992188" xlink:href="#DejaVuSans-107"/>
      <use x="171.277344" xlink:href="#DejaVuSans-101"/>
      <use x="232.800781" xlink:href="#DejaVuSans-32"/>
      <use x="264.587891" xlink:href="#DejaVuSans-84"/>
      <use x="308.671875" xlink:href="#DejaVuSans-101"/>
      <use x="370.195312" xlink:href="#DejaVuSans-109"/>
      <use x="467.607422" xlink:href="#DejaVuSans-112"/>
     </g>
    </g>
    <g id="line2d_37">
     <path d="M 348.015017 53.216562 
L 368.015017 53.216562 
" style="fill:none;stroke:#ff7f0e;stroke-linecap:square;stroke-width:1.5;"/>
    </g>
    <g id="line2d_38"/>
    <g id="text_21">
     <!-- Air Temp -->
     <g transform="translate(376.015017 56.716562)scale(0.1 -0.1)">
      <use xlink:href="#DejaVuSans-65"/>
      <use x="68.408203" xlink:href="#DejaVuSans-105"/>
      <use x="96.191406" xlink:href="#DejaVuSans-114"/>
      <use x="137.304688" xlink:href="#DejaVuSans-32"/>
      <use x="169.091797" xlink:href="#DejaVuSans-84"/>
      <use x="213.175781" xlink:href="#DejaVuSans-101"/>
      <use x="274.699219" xlink:href="#DejaVuSans-109"/>
      <use x="372.111328" xlink:href="#DejaVuSans-112"/>
     </g>
    </g>
   </g>
  </g>
 </g>
 <defs>
  <clipPath id="p5379100fdf">
   <rect height="230.198708" width="393.464392" x="44.66" y="25.44"/>
  </clipPath>
 </defs>
</svg>
