<?xml version="1.0" encoding="utf-8" standalone="no"?>
<!DOCTYPE svg PUBLIC "-//W3C//DTD SVG 1.1//EN"
  "http://www.w3.org/Graphics/SVG/1.1/DTD/svg11.dtd">
<!-- Created with matplotlib (https://matplotlib.org/) -->
<svg height="345.6pt" version="1.1" viewBox="0 0 460.8 345.6" width="460.8pt" xmlns="http://www.w3.org/2000/svg" xmlns:xlink="http://www.w3.org/1999/xlink">
 <metadata>
  <rdf:RDF xmlns:cc="http://creativecommons.org/ns#" xmlns:dc="http://purl.org/dc/elements/1.1/" xmlns:rdf="http://www.w3.org/1999/02/22-rdf-syntax-ns#">
   <cc:Work>
    <dc:type rdf:resource="http://purl.org/dc/dcmitype/StillImage"/>
    <dc:date>2024-11-19T11:55:16.579942</dc:date>
    <dc:format>image/svg+xml</dc:format>
    <dc:creator>
     <cc:Agent>
      <dc:title>Matplotlib v3.3.2, https://matplotlib.org/</dc:title>
     </cc:Agent>
    </dc:creator>
   </cc:Work>
  </rdf:RDF>
 </metadata>
 <defs>
  <style type="text/css">*{stroke-linecap:butt;stroke-linejoin:round;}</style>
 </defs>
 <g id="figure_1">
  <g id="patch_1">
   <path d="M 0 345.6 
L 460.8 345.6 
L 460.8 0 
L 0 0 
z
" style="fill:none;"/>
  </g>
  <g id="axes_1">
   <g id="patch_2">
    <path d="M 54.2 255.638708 
L 450 255.638708 
L 450 25.44 
L 54.2 25.44 
z
" style="fill:none;"/>
   </g>
   <g id="matplotlib.axis_1">
    <g id="xtick_1">
     <g id="line2d_1">
      <path clip-path="url(#p84ce6935a9)" d="M 72.181927 255.638708 
L 72.181927 25.44 
" style="fill:none;stroke:#b0b0b0;stroke-linecap:square;stroke-width:0.8;"/>
     </g>
     <g id="line2d_2">
      <defs>
       <path d="M 0 0 
L 0 3.5 
" id="m6f0970b00b" style="stroke:#000000;stroke-width:0.8;"/>
      </defs>
      <g>
       <use style="stroke:#000000;stroke-width:0.8;" x="72.181927" xlink:href="#m6f0970b00b" y="255.638708"/>
      </g>
     </g>
     <g id="text_1">
      <!-- 2024-10-29 -->
      <g transform="translate(64.836534 319.848351)rotate(-70)scale(0.1 -0.1)">
       <defs>
        <path d="M 19.1875 8.296875 
L 53.609375 8.296875 
L 53.609375 0 
L 7.328125 0 
L 7.328125 8.296875 
Q 12.9375 14.109375 22.625 23.890625 
Q 32.328125 33.6875 34.8125 36.53125 
Q 39.546875 41.84375 41.421875 45.53125 
Q 43.3125 49.21875 43.3125 52.78125 
Q 43.3125 58.59375 39.234375 62.25 
Q 35.15625 65.921875 28.609375 65.921875 
Q 23.96875 65.921875 18.8125 64.3125 
Q 13.671875 62.703125 7.8125 59.421875 
L 7.8125 69.390625 
Q 13.765625 71.78125 18.9375 73 
Q 24.125 74.21875 28.421875 74.21875 
Q 39.75 74.21875 46.484375 68.546875 
Q 53.21875 62.890625 53.21875 53.421875 
Q 53.21875 48.921875 51.53125 44.890625 
Q 49.859375 40.875 45.40625 35.40625 
Q 44.1875 33.984375 37.640625 27.21875 
Q 31.109375 20.453125 19.1875 8.296875 
z
" id="DejaVuSans-50"/>
        <path d="M 31.78125 66.40625 
Q 24.171875 66.40625 20.328125 58.90625 
Q 16.5 51.421875 16.5 36.375 
Q 16.5 21.390625 20.328125 13.890625 
Q 24.171875 6.390625 31.78125 6.390625 
Q 39.453125 6.390625 43.28125 13.890625 
Q 47.125 21.390625 47.125 36.375 
Q 47.125 51.421875 43.28125 58.90625 
Q 39.453125 66.40625 31.78125 66.40625 
z
M 31.78125 74.21875 
Q 44.046875 74.21875 50.515625 64.515625 
Q 56.984375 54.828125 56.984375 36.375 
Q 56.984375 17.96875 50.515625 8.265625 
Q 44.046875 -1.421875 31.78125 -1.421875 
Q 19.53125 -1.421875 13.0625 8.265625 
Q 6.59375 17.96875 6.59375 36.375 
Q 6.59375 54.828125 13.0625 64.515625 
Q 19.53125 74.21875 31.78125 74.21875 
z
" id="DejaVuSans-48"/>
        <path d="M 37.796875 64.3125 
L 12.890625 25.390625 
L 37.796875 25.390625 
z
M 35.203125 72.90625 
L 47.609375 72.90625 
L 47.609375 25.390625 
L 58.015625 25.390625 
L 58.015625 17.1875 
L 47.609375 17.1875 
L 47.609375 0 
L 37.796875 0 
L 37.796875 17.1875 
L 4.890625 17.1875 
L 4.890625 26.703125 
z
" id="DejaVuSans-52"/>
        <path d="M 4.890625 31.390625 
L 31.203125 31.390625 
L 31.203125 23.390625 
L 4.890625 23.390625 
z
" id="DejaVuSans-45"/>
        <path d="M 12.40625 8.296875 
L 28.515625 8.296875 
L 28.515625 63.921875 
L 10.984375 60.40625 
L 10.984375 69.390625 
L 28.421875 72.90625 
L 38.28125 72.90625 
L 38.28125 8.296875 
L 54.390625 8.296875 
L 54.390625 0 
L 12.40625 0 
z
" id="DejaVuSans-49"/>
        <path d="M 10.984375 1.515625 
L 10.984375 10.5 
Q 14.703125 8.734375 18.5 7.8125 
Q 22.3125 6.890625 25.984375 6.890625 
Q 35.75 6.890625 40.890625 13.453125 
Q 46.046875 20.015625 46.78125 33.40625 
Q 43.953125 29.203125 39.59375 26.953125 
Q 35.25 24.703125 29.984375 24.703125 
Q 19.046875 24.703125 12.671875 31.3125 
Q 6.296875 37.9375 6.296875 49.421875 
Q 6.296875 60.640625 12.9375 67.421875 
Q 19.578125 74.21875 30.609375 74.21875 
Q 43.265625 74.21875 49.921875 64.515625 
Q 56.59375 54.828125 56.59375 36.375 
Q 56.59375 19.140625 48.40625 8.859375 
Q 40.234375 -1.421875 26.421875 -1.421875 
Q 22.703125 -1.421875 18.890625 -0.6875 
Q 15.09375 0.046875 10.984375 1.515625 
z
M 30.609375 32.421875 
Q 37.25 32.421875 41.125 36.953125 
Q 45.015625 41.5 45.015625 49.421875 
Q 45.015625 57.28125 41.125 61.84375 
Q 37.25 66.40625 30.609375 66.40625 
Q 23.96875 66.40625 20.09375 61.84375 
Q 16.21875 57.28125 16.21875 49.421875 
Q 16.21875 41.5 20.09375 36.953125 
Q 23.96875 32.421875 30.609375 32.421875 
z
" id="DejaVuSans-57"/>
       </defs>
       <use xlink:href="#DejaVuSans-50"/>
       <use x="63.623047" xlink:href="#DejaVuSans-48"/>
       <use x="127.246094" xlink:href="#DejaVuSans-50"/>
       <use x="190.869141" xlink:href="#DejaVuSans-52"/>
       <use x="254.492188" xlink:href="#DejaVuSans-45"/>
       <use x="290.576172" xlink:href="#DejaVuSans-49"/>
       <use x="354.199219" xlink:href="#DejaVuSans-48"/>
       <use x="417.822266" xlink:href="#DejaVuSans-45"/>
       <use x="453.90625" xlink:href="#DejaVuSans-50"/>
       <use x="517.529297" xlink:href="#DejaVuSans-57"/>
      </g>
     </g>
    </g>
    <g id="xtick_2">
     <g id="line2d_3">
      <path clip-path="url(#p84ce6935a9)" d="M 122.399766 255.638708 
L 122.399766 25.44 
" style="fill:none;stroke:#b0b0b0;stroke-linecap:square;stroke-width:0.8;"/>
     </g>
     <g id="line2d_4">
      <g>
       <use style="stroke:#000000;stroke-width:0.8;" x="122.399766" xlink:href="#m6f0970b00b" y="255.638708"/>
      </g>
     </g>
     <g id="text_2">
      <!-- 2024-11-01 -->
      <g transform="translate(115.054373 319.848351)rotate(-70)scale(0.1 -0.1)">
       <use xlink:href="#DejaVuSans-50"/>
       <use x="63.623047" xlink:href="#DejaVuSans-48"/>
       <use x="127.246094" xlink:href="#DejaVuSans-50"/>
       <use x="190.869141" xlink:href="#DejaVuSans-52"/>
       <use x="254.492188" xlink:href="#DejaVuSans-45"/>
       <use x="290.576172" xlink:href="#DejaVuSans-49"/>
       <use x="354.199219" xlink:href="#DejaVuSans-49"/>
       <use x="417.822266" xlink:href="#DejaVuSans-45"/>
       <use x="453.90625" xlink:href="#DejaVuSans-48"/>
       <use x="517.529297" xlink:href="#DejaVuSans-49"/>
      </g>
     </g>
    </g>
    <g id="xtick_3">
     <g id="line2d_5">
      <path clip-path="url(#p84ce6935a9)" d="M 189.356884 255.638708 
L 189.356884 25.44 
" style="fill:none;stroke:#b0b0b0;stroke-linecap:square;stroke-width:0.8;"/>
     </g>
     <g id="line2d_6">
      <g>
       <use style="stroke:#000000;stroke-width:0.8;" x="189.356884" xlink:href="#m6f0970b00b" y="255.638708"/>
      </g>
     </g>
     <g id="text_3">
      <!-- 2024-11-05 -->
      <g transform="translate(182.011491 319.848351)rotate(-70)scale(0.1 -0.1)">
       <defs>
        <path d="M 10.796875 72.90625 
L 49.515625 72.90625 
L 49.515625 64.59375 
L 19.828125 64.59375 
L 19.828125 46.734375 
Q 21.96875 47.46875 24.109375 47.828125 
Q 26.265625 48.1875 28.421875 48.1875 
Q 40.625 48.1875 47.75 41.5 
Q 54.890625 34.8125 54.890625 23.390625 
Q 54.890625 11.625 47.5625 5.09375 
Q 40.234375 -1.421875 26.90625 -1.421875 
Q 22.3125 -1.421875 17.546875 -0.640625 
Q 12.796875 0.140625 7.71875 1.703125 
L 7.71875 11.625 
Q 12.109375 9.234375 16.796875 8.0625 
Q 21.484375 6.890625 26.703125 6.890625 
Q 35.15625 6.890625 40.078125 11.328125 
Q 45.015625 15.765625 45.015625 23.390625 
Q 45.015625 31 40.078125 35.4375 
Q 35.15625 39.890625 26.703125 39.890625 
Q 22.75 39.890625 18.8125 39.015625 
Q 14.890625 38.140625 10.796875 36.28125 
z
" id="DejaVuSans-53"/>
       </defs>
       <use xlink:href="#DejaVuSans-50"/>
       <use x="63.623047" xlink:href="#DejaVuSans-48"/>
       <use x="127.246094" xlink:href="#DejaVuSans-50"/>
       <use x="190.869141" xlink:href="#DejaVuSans-52"/>
       <use x="254.492188" xlink:href="#DejaVuSans-45"/>
       <use x="290.576172" xlink:href="#DejaVuSans-49"/>
       <use x="354.199219" xlink:href="#DejaVuSans-49"/>
       <use x="417.822266" xlink:href="#DejaVuSans-45"/>
       <use x="453.90625" xlink:href="#DejaVuSans-48"/>
       <use x="517.529297" xlink:href="#DejaVuSans-53"/>
      </g>
     </g>
    </g>
    <g id="xtick_4">
     <g id="line2d_7">
      <path clip-path="url(#p84ce6935a9)" d="M 256.314003 255.638708 
L 256.314003 25.44 
" style="fill:none;stroke:#b0b0b0;stroke-linecap:square;stroke-width:0.8;"/>
     </g>
     <g id="line2d_8">
      <g>
       <use style="stroke:#000000;stroke-width:0.8;" x="256.314003" xlink:href="#m6f0970b00b" y="255.638708"/>
      </g>
     </g>
     <g id="text_4">
      <!-- 2024-11-09 -->
      <g transform="translate(248.96861 319.848351)rotate(-70)scale(0.1 -0.1)">
       <use xlink:href="#DejaVuSans-50"/>
       <use x="63.623047" xlink:href="#DejaVuSans-48"/>
       <use x="127.246094" xlink:href="#DejaVuSans-50"/>
       <use x="190.869141" xlink:href="#DejaVuSans-52"/>
       <use x="254.492188" xlink:href="#DejaVuSans-45"/>
       <use x="290.576172" xlink:href="#DejaVuSans-49"/>
       <use x="354.199219" xlink:href="#DejaVuSans-49"/>
       <use x="417.822266" xlink:href="#DejaVuSans-45"/>
       <use x="453.90625" xlink:href="#DejaVuSans-48"/>
       <use x="517.529297" xlink:href="#DejaVuSans-57"/>
      </g>
     </g>
    </g>
    <g id="xtick_5">
     <g id="line2d_9">
      <path clip-path="url(#p84ce6935a9)" d="M 323.271121 255.638708 
L 323.271121 25.44 
" style="fill:none;stroke:#b0b0b0;stroke-linecap:square;stroke-width:0.8;"/>
     </g>
     <g id="line2d_10">
      <g>
       <use style="stroke:#000000;stroke-width:0.8;" x="323.271121" xlink:href="#m6f0970b00b" y="255.638708"/>
      </g>
     </g>
     <g id="text_5">
      <!-- 2024-11-13 -->
      <g transform="translate(315.925728 319.848351)rotate(-70)scale(0.1 -0.1)">
       <defs>
        <path d="M 40.578125 39.3125 
Q 47.65625 37.796875 51.625 33 
Q 55.609375 28.21875 55.609375 21.1875 
Q 55.609375 10.40625 48.1875 4.484375 
Q 40.765625 -1.421875 27.09375 -1.421875 
Q 22.515625 -1.421875 17.65625 -0.515625 
Q 12.796875 0.390625 7.625 2.203125 
L 7.625 11.71875 
Q 11.71875 9.328125 16.59375 8.109375 
Q 21.484375 6.890625 26.8125 6.890625 
Q 36.078125 6.890625 40.9375 10.546875 
Q 45.796875 14.203125 45.796875 21.1875 
Q 45.796875 27.640625 41.28125 31.265625 
Q 36.765625 34.90625 28.71875 34.90625 
L 20.21875 34.90625 
L 20.21875 43.015625 
L 29.109375 43.015625 
Q 36.375 43.015625 40.234375 45.921875 
Q 44.09375 48.828125 44.09375 54.296875 
Q 44.09375 59.90625 40.109375 62.90625 
Q 36.140625 65.921875 28.71875 65.921875 
Q 24.65625 65.921875 20.015625 65.03125 
Q 15.375 64.15625 9.8125 62.3125 
L 9.8125 71.09375 
Q 15.4375 72.65625 20.34375 73.4375 
Q 25.25 74.21875 29.59375 74.21875 
Q 40.828125 74.21875 47.359375 69.109375 
Q 53.90625 64.015625 53.90625 55.328125 
Q 53.90625 49.265625 50.4375 45.09375 
Q 46.96875 40.921875 40.578125 39.3125 
z
" id="DejaVuSans-51"/>
       </defs>
       <use xlink:href="#DejaVuSans-50"/>
       <use x="63.623047" xlink:href="#DejaVuSans-48"/>
       <use x="127.246094" xlink:href="#DejaVuSans-50"/>
       <use x="190.869141" xlink:href="#DejaVuSans-52"/>
       <use x="254.492188" xlink:href="#DejaVuSans-45"/>
       <use x="290.576172" xlink:href="#DejaVuSans-49"/>
       <use x="354.199219" xlink:href="#DejaVuSans-49"/>
       <use x="417.822266" xlink:href="#DejaVuSans-45"/>
       <use x="453.90625" xlink:href="#DejaVuSans-49"/>
       <use x="517.529297" xlink:href="#DejaVuSans-51"/>
      </g>
     </g>
    </g>
    <g id="xtick_6">
     <g id="line2d_11">
      <path clip-path="url(#p84ce6935a9)" d="M 390.22824 255.638708 
L 390.22824 25.44 
" style="fill:none;stroke:#b0b0b0;stroke-linecap:square;stroke-width:0.8;"/>
     </g>
     <g id="line2d_12">
      <g>
       <use style="stroke:#000000;stroke-width:0.8;" x="390.22824" xlink:href="#m6f0970b00b" y="255.638708"/>
      </g>
     </g>
     <g id="text_6">
      <!-- 2024-11-17 -->
      <g transform="translate(382.882847 319.848351)rotate(-70)scale(0.1 -0.1)">
       <defs>
        <path d="M 8.203125 72.90625 
L 55.078125 72.90625 
L 55.078125 68.703125 
L 28.609375 0 
L 18.3125 0 
L 43.21875 64.59375 
L 8.203125 64.59375 
z
" id="DejaVuSans-55"/>
       </defs>
       <use xlink:href="#DejaVuSans-50"/>
       <use x="63.623047" xlink:href="#DejaVuSans-48"/>
       <use x="127.246094" xlink:href="#DejaVuSans-50"/>
       <use x="190.869141" xlink:href="#DejaVuSans-52"/>
       <use x="254.492188" xlink:href="#DejaVuSans-45"/>
       <use x="290.576172" xlink:href="#DejaVuSans-49"/>
       <use x="354.199219" xlink:href="#DejaVuSans-49"/>
       <use x="417.822266" xlink:href="#DejaVuSans-45"/>
       <use x="453.90625" xlink:href="#DejaVuSans-49"/>
       <use x="517.529297" xlink:href="#DejaVuSans-55"/>
      </g>
     </g>
    </g>
    <g id="text_7">
     <!-- Date -->
     <g transform="translate(240.149219 332.158083)scale(0.1 -0.1)">
      <defs>
       <path d="M 19.671875 64.796875 
L 19.671875 8.109375 
L 31.59375 8.109375 
Q 46.6875 8.109375 53.6875 14.9375 
Q 60.6875 21.78125 60.6875 36.53125 
Q 60.6875 51.171875 53.6875 57.984375 
Q 46.6875 64.796875 31.59375 64.796875 
z
M 9.8125 72.90625 
L 30.078125 72.90625 
Q 51.265625 72.90625 61.171875 64.09375 
Q 71.09375 55.28125 71.09375 36.53125 
Q 71.09375 17.671875 61.125 8.828125 
Q 51.171875 0 30.078125 0 
L 9.8125 0 
z
" id="DejaVuSans-68"/>
       <path d="M 34.28125 27.484375 
Q 23.390625 27.484375 19.1875 25 
Q 14.984375 22.515625 14.984375 16.5 
Q 14.984375 11.71875 18.140625 8.90625 
Q 21.296875 6.109375 26.703125 6.109375 
Q 34.1875 6.109375 38.703125 11.40625 
Q 43.21875 16.703125 43.21875 25.484375 
L 43.21875 27.484375 
z
M 52.203125 31.203125 
L 52.203125 0 
L 43.21875 0 
L 43.21875 8.296875 
Q 40.140625 3.328125 35.546875 0.953125 
Q 30.953125 -1.421875 24.3125 -1.421875 
Q 15.921875 -1.421875 10.953125 3.296875 
Q 6 8.015625 6 15.921875 
Q 6 25.140625 12.171875 29.828125 
Q 18.359375 34.515625 30.609375 34.515625 
L 43.21875 34.515625 
L 43.21875 35.40625 
Q 43.21875 41.609375 39.140625 45 
Q 35.0625 48.390625 27.6875 48.390625 
Q 23 48.390625 18.546875 47.265625 
Q 14.109375 46.140625 10.015625 43.890625 
L 10.015625 52.203125 
Q 14.9375 54.109375 19.578125 55.046875 
Q 24.21875 56 28.609375 56 
Q 40.484375 56 46.34375 49.84375 
Q 52.203125 43.703125 52.203125 31.203125 
z
" id="DejaVuSans-97"/>
       <path d="M 18.3125 70.21875 
L 18.3125 54.6875 
L 36.8125 54.6875 
L 36.8125 47.703125 
L 18.3125 47.703125 
L 18.3125 18.015625 
Q 18.3125 11.328125 20.140625 9.421875 
Q 21.96875 7.515625 27.59375 7.515625 
L 36.8125 7.515625 
L 36.8125 0 
L 27.59375 0 
Q 17.1875 0 13.234375 3.875 
Q 9.28125 7.765625 9.28125 18.015625 
L 9.28125 47.703125 
L 2.6875 47.703125 
L 2.6875 54.6875 
L 9.28125 54.6875 
L 9.28125 70.21875 
z
" id="DejaVuSans-116"/>
       <path d="M 56.203125 29.59375 
L 56.203125 25.203125 
L 14.890625 25.203125 
Q 15.484375 15.921875 20.484375 11.0625 
Q 25.484375 6.203125 34.421875 6.203125 
Q 39.59375 6.203125 44.453125 7.46875 
Q 49.3125 8.734375 54.109375 11.28125 
L 54.109375 2.78125 
Q 49.265625 0.734375 44.1875 -0.34375 
Q 39.109375 -1.421875 33.890625 -1.421875 
Q 20.796875 -1.421875 13.15625 6.1875 
Q 5.515625 13.8125 5.515625 26.8125 
Q 5.515625 40.234375 12.765625 48.109375 
Q 20.015625 56 32.328125 56 
Q 43.359375 56 49.78125 48.890625 
Q 56.203125 41.796875 56.203125 29.59375 
z
M 47.21875 32.234375 
Q 47.125 39.59375 43.09375 43.984375 
Q 39.0625 48.390625 32.421875 48.390625 
Q 24.90625 48.390625 20.390625 44.140625 
Q 15.875 39.890625 15.1875 32.171875 
z
" id="DejaVuSans-101"/>
      </defs>
      <use xlink:href="#DejaVuSans-68"/>
      <use x="77.001953" xlink:href="#DejaVuSans-97"/>
      <use x="138.28125" xlink:href="#DejaVuSans-116"/>
      <use x="177.490234" xlink:href="#DejaVuSans-101"/>
     </g>
    </g>
   </g>
   <g id="matplotlib.axis_2">
    <g id="ytick_1">
     <g id="line2d_13">
      <path clip-path="url(#p84ce6935a9)" d="M 54.2 249.904431 
L 450 249.904431 
" style="fill:none;stroke:#b0b0b0;stroke-linecap:square;stroke-width:0.8;"/>
     </g>
     <g id="line2d_14">
      <defs>
       <path d="M 0 0 
L -3.5 0 
" id="m6e75cdb4cc" style="stroke:#000000;stroke-width:0.8;"/>
      </defs>
      <g>
       <use style="stroke:#000000;stroke-width:0.8;" x="54.2" xlink:href="#m6e75cdb4cc" y="249.904431"/>
      </g>
     </g>
     <g id="text_8">
      <!-- 37.5 -->
      <g transform="translate(24.934375 253.70365)scale(0.1 -0.1)">
       <defs>
        <path d="M 10.6875 12.40625 
L 21 12.40625 
L 21 0 
L 10.6875 0 
z
" id="DejaVuSans-46"/>
       </defs>
       <use xlink:href="#DejaVuSans-51"/>
       <use x="63.623047" xlink:href="#DejaVuSans-55"/>
       <use x="127.246094" xlink:href="#DejaVuSans-46"/>
       <use x="159.033203" xlink:href="#DejaVuSans-53"/>
      </g>
     </g>
    </g>
    <g id="ytick_2">
     <g id="line2d_15">
      <path clip-path="url(#p84ce6935a9)" d="M 54.2 220.346302 
L 450 220.346302 
" style="fill:none;stroke:#b0b0b0;stroke-linecap:square;stroke-width:0.8;"/>
     </g>
     <g id="line2d_16">
      <g>
       <use style="stroke:#000000;stroke-width:0.8;" x="54.2" xlink:href="#m6e75cdb4cc" y="220.346302"/>
      </g>
     </g>
     <g id="text_9">
      <!-- 40.0 -->
      <g transform="translate(24.934375 224.145521)scale(0.1 -0.1)">
       <use xlink:href="#DejaVuSans-52"/>
       <use x="63.623047" xlink:href="#DejaVuSans-48"/>
       <use x="127.246094" xlink:href="#DejaVuSans-46"/>
       <use x="159.033203" xlink:href="#DejaVuSans-48"/>
      </g>
     </g>
    </g>
    <g id="ytick_3">
     <g id="line2d_17">
      <path clip-path="url(#p84ce6935a9)" d="M 54.2 190.788173 
L 450 190.788173 
" style="fill:none;stroke:#b0b0b0;stroke-linecap:square;stroke-width:0.8;"/>
     </g>
     <g id="line2d_18">
      <g>
       <use style="stroke:#000000;stroke-width:0.8;" x="54.2" xlink:href="#m6e75cdb4cc" y="190.788173"/>
      </g>
     </g>
     <g id="text_10">
      <!-- 42.5 -->
      <g transform="translate(24.934375 194.587392)scale(0.1 -0.1)">
       <use xlink:href="#DejaVuSans-52"/>
       <use x="63.623047" xlink:href="#DejaVuSans-50"/>
       <use x="127.246094" xlink:href="#DejaVuSans-46"/>
       <use x="159.033203" xlink:href="#DejaVuSans-53"/>
      </g>
     </g>
    </g>
    <g id="ytick_4">
     <g id="line2d_19">
      <path clip-path="url(#p84ce6935a9)" d="M 54.2 161.230044 
L 450 161.230044 
" style="fill:none;stroke:#b0b0b0;stroke-linecap:square;stroke-width:0.8;"/>
     </g>
     <g id="line2d_20">
      <g>
       <use style="stroke:#000000;stroke-width:0.8;" x="54.2" xlink:href="#m6e75cdb4cc" y="161.230044"/>
      </g>
     </g>
     <g id="text_11">
      <!-- 45.0 -->
      <g transform="translate(24.934375 165.029263)scale(0.1 -0.1)">
       <use xlink:href="#DejaVuSans-52"/>
       <use x="63.623047" xlink:href="#DejaVuSans-53"/>
       <use x="127.246094" xlink:href="#DejaVuSans-46"/>
       <use x="159.033203" xlink:href="#DejaVuSans-48"/>
      </g>
     </g>
    </g>
    <g id="ytick_5">
     <g id="line2d_21">
      <path clip-path="url(#p84ce6935a9)" d="M 54.2 131.671915 
L 450 131.671915 
" style="fill:none;stroke:#b0b0b0;stroke-linecap:square;stroke-width:0.8;"/>
     </g>
     <g id="line2d_22">
      <g>
       <use style="stroke:#000000;stroke-width:0.8;" x="54.2" xlink:href="#m6e75cdb4cc" y="131.671915"/>
      </g>
     </g>
     <g id="text_12">
      <!-- 47.5 -->
      <g transform="translate(24.934375 135.471134)scale(0.1 -0.1)">
       <use xlink:href="#DejaVuSans-52"/>
       <use x="63.623047" xlink:href="#DejaVuSans-55"/>
       <use x="127.246094" xlink:href="#DejaVuSans-46"/>
       <use x="159.033203" xlink:href="#DejaVuSans-53"/>
      </g>
     </g>
    </g>
    <g id="ytick_6">
     <g id="line2d_23">
      <path clip-path="url(#p84ce6935a9)" d="M 54.2 102.113786 
L 450 102.113786 
" style="fill:none;stroke:#b0b0b0;stroke-linecap:square;stroke-width:0.8;"/>
     </g>
     <g id="line2d_24">
      <g>
       <use style="stroke:#000000;stroke-width:0.8;" x="54.2" xlink:href="#m6e75cdb4cc" y="102.113786"/>
      </g>
     </g>
     <g id="text_13">
      <!-- 50.0 -->
      <g transform="translate(24.934375 105.913005)scale(0.1 -0.1)">
       <use xlink:href="#DejaVuSans-53"/>
       <use x="63.623047" xlink:href="#DejaVuSans-48"/>
       <use x="127.246094" xlink:href="#DejaVuSans-46"/>
       <use x="159.033203" xlink:href="#DejaVuSans-48"/>
      </g>
     </g>
    </g>
    <g id="ytick_7">
     <g id="line2d_25">
      <path clip-path="url(#p84ce6935a9)" d="M 54.2 72.555657 
L 450 72.555657 
" style="fill:none;stroke:#b0b0b0;stroke-linecap:square;stroke-width:0.8;"/>
     </g>
     <g id="line2d_26">
      <g>
       <use style="stroke:#000000;stroke-width:0.8;" x="54.2" xlink:href="#m6e75cdb4cc" y="72.555657"/>
      </g>
     </g>
     <g id="text_14">
      <!-- 52.5 -->
      <g transform="translate(24.934375 76.354876)scale(0.1 -0.1)">
       <use xlink:href="#DejaVuSans-53"/>
       <use x="63.623047" xlink:href="#DejaVuSans-50"/>
       <use x="127.246094" xlink:href="#DejaVuSans-46"/>
       <use x="159.033203" xlink:href="#DejaVuSans-53"/>
      </g>
     </g>
    </g>
    <g id="ytick_8">
     <g id="line2d_27">
      <path clip-path="url(#p84ce6935a9)" d="M 54.2 42.997529 
L 450 42.997529 
" style="fill:none;stroke:#b0b0b0;stroke-linecap:square;stroke-width:0.8;"/>
     </g>
     <g id="line2d_28">
      <g>
       <use style="stroke:#000000;stroke-width:0.8;" x="54.2" xlink:href="#m6e75cdb4cc" y="42.997529"/>
      </g>
     </g>
     <g id="text_15">
      <!-- 55.0 -->
      <g transform="translate(24.934375 46.796747)scale(0.1 -0.1)">
       <use xlink:href="#DejaVuSans-53"/>
       <use x="63.623047" xlink:href="#DejaVuSans-53"/>
       <use x="127.246094" xlink:href="#DejaVuSans-46"/>
       <use x="159.033203" xlink:href="#DejaVuSans-48"/>
      </g>
     </g>
    </g>
    <g id="text_16">
     <!-- Temperature [F] -->
     <g transform="translate(18.854688 180.575291)rotate(-90)scale(0.1 -0.1)">
      <defs>
       <path d="M -0.296875 72.90625 
L 61.375 72.90625 
L 61.375 64.59375 
L 35.5 64.59375 
L 35.5 0 
L 25.59375 0 
L 25.59375 64.59375 
L -0.296875 64.59375 
z
" id="DejaVuSans-84"/>
       <path d="M 52 44.1875 
Q 55.375 50.25 60.0625 53.125 
Q 64.75 56 71.09375 56 
Q 79.640625 56 84.28125 50.015625 
Q 88.921875 44.046875 88.921875 33.015625 
L 88.921875 0 
L 79.890625 0 
L 79.890625 32.71875 
Q 79.890625 40.578125 77.09375 44.375 
Q 74.3125 48.1875 68.609375 48.1875 
Q 61.625 48.1875 57.5625 43.546875 
Q 53.515625 38.921875 53.515625 30.90625 
L 53.515625 0 
L 44.484375 0 
L 44.484375 32.71875 
Q 44.484375 40.625 41.703125 44.40625 
Q 38.921875 48.1875 33.109375 48.1875 
Q 26.21875 48.1875 22.15625 43.53125 
Q 18.109375 38.875 18.109375 30.90625 
L 18.109375 0 
L 9.078125 0 
L 9.078125 54.6875 
L 18.109375 54.6875 
L 18.109375 46.1875 
Q 21.1875 51.21875 25.484375 53.609375 
Q 29.78125 56 35.6875 56 
Q 41.65625 56 45.828125 52.96875 
Q 50 49.953125 52 44.1875 
z
" id="DejaVuSans-109"/>
       <path d="M 18.109375 8.203125 
L 18.109375 -20.796875 
L 9.078125 -20.796875 
L 9.078125 54.6875 
L 18.109375 54.6875 
L 18.109375 46.390625 
Q 20.953125 51.265625 25.265625 53.625 
Q 29.59375 56 35.59375 56 
Q 45.5625 56 51.78125 48.09375 
Q 58.015625 40.1875 58.015625 27.296875 
Q 58.015625 14.40625 51.78125 6.484375 
Q 45.5625 -1.421875 35.59375 -1.421875 
Q 29.59375 -1.421875 25.265625 0.953125 
Q 20.953125 3.328125 18.109375 8.203125 
z
M 48.6875 27.296875 
Q 48.6875 37.203125 44.609375 42.84375 
Q 40.53125 48.484375 33.40625 48.484375 
Q 26.265625 48.484375 22.1875 42.84375 
Q 18.109375 37.203125 18.109375 27.296875 
Q 18.109375 17.390625 22.1875 11.75 
Q 26.265625 6.109375 33.40625 6.109375 
Q 40.53125 6.109375 44.609375 11.75 
Q 48.6875 17.390625 48.6875 27.296875 
z
" id="DejaVuSans-112"/>
       <path d="M 41.109375 46.296875 
Q 39.59375 47.171875 37.8125 47.578125 
Q 36.03125 48 33.890625 48 
Q 26.265625 48 22.1875 43.046875 
Q 18.109375 38.09375 18.109375 28.8125 
L 18.109375 0 
L 9.078125 0 
L 9.078125 54.6875 
L 18.109375 54.6875 
L 18.109375 46.1875 
Q 20.953125 51.171875 25.484375 53.578125 
Q 30.03125 56 36.53125 56 
Q 37.453125 56 38.578125 55.875 
Q 39.703125 55.765625 41.0625 55.515625 
z
" id="DejaVuSans-114"/>
       <path d="M 8.5 21.578125 
L 8.5 54.6875 
L 17.484375 54.6875 
L 17.484375 21.921875 
Q 17.484375 14.15625 20.5 10.265625 
Q 23.53125 6.390625 29.59375 6.390625 
Q 36.859375 6.390625 41.078125 11.03125 
Q 45.3125 15.671875 45.3125 23.6875 
L 45.3125 54.6875 
L 54.296875 54.6875 
L 54.296875 0 
L 45.3125 0 
L 45.3125 8.40625 
Q 42.046875 3.421875 37.71875 1 
Q 33.40625 -1.421875 27.6875 -1.421875 
Q 18.265625 -1.421875 13.375 4.4375 
Q 8.5 10.296875 8.5 21.578125 
z
M 31.109375 56 
z
" id="DejaVuSans-117"/>
       <path id="DejaVuSans-32"/>
       <path d="M 8.59375 75.984375 
L 29.296875 75.984375 
L 29.296875 69 
L 17.578125 69 
L 17.578125 -6.203125 
L 29.296875 -6.203125 
L 29.296875 -13.1875 
L 8.59375 -13.1875 
z
" id="DejaVuSans-91"/>
       <path d="M 9.8125 72.90625 
L 51.703125 72.90625 
L 51.703125 64.59375 
L 19.671875 64.59375 
L 19.671875 43.109375 
L 48.578125 43.109375 
L 48.578125 34.8125 
L 19.671875 34.8125 
L 19.671875 0 
L 9.8125 0 
z
" id="DejaVuSans-70"/>
       <path d="M 30.421875 75.984375 
L 30.421875 -13.1875 
L 9.71875 -13.1875 
L 9.71875 -6.203125 
L 21.390625 -6.203125 
L 21.390625 69 
L 9.71875 69 
L 9.71875 75.984375 
z
" id="DejaVuSans-93"/>
      </defs>
      <use xlink:href="#DejaVuSans-84"/>
      <use x="44.083984" xlink:href="#DejaVuSans-101"/>
      <use x="105.607422" xlink:href="#DejaVuSans-109"/>
      <use x="203.019531" xlink:href="#DejaVuSans-112"/>
      <use x="266.496094" xlink:href="#DejaVuSans-101"/>
      <use x="328.019531" xlink:href="#DejaVuSans-114"/>
      <use x="369.132812" xlink:href="#DejaVuSans-97"/>
      <use x="430.412109" xlink:href="#DejaVuSans-116"/>
      <use x="469.621094" xlink:href="#DejaVuSans-117"/>
      <use x="533" xlink:href="#DejaVuSans-114"/>
      <use x="571.863281" xlink:href="#DejaVuSans-101"/>
      <use x="633.386719" xlink:href="#DejaVuSans-32"/>
      <use x="665.173828" xlink:href="#DejaVuSans-91"/>
      <use x="704.1875" xlink:href="#DejaVuSans-70"/>
      <use x="761.707031" xlink:href="#DejaVuSans-93"/>
     </g>
    </g>
   </g>
   <g id="line2d_29">
    <path clip-path="url(#p84ce6935a9)" d="M 72.190909 41.815203 
L 72.312571 41.815203 
L 72.324596 40.632878 
L 72.421445 41.815203 
L 72.506286 41.815203 
L 72.518901 42.997529 
L 72.615634 41.815203 
L 72.908127 41.815203 
L 73.02849 42.997529 
L 73.113365 42.997529 
L 73.20956 41.815203 
L 73.221842 42.997529 
L 73.245889 42.997529 
L 73.331317 41.815203 
L 73.355404 42.997529 
L 73.538245 42.997529 
L 73.651563 45.362179 
L 73.699739 42.997529 
L 73.748096 45.362179 
L 73.852499 45.362179 
L 73.877038 42.997529 
L 73.962448 45.362179 
L 73.998931 45.362179 
L 74.096237 42.997529 
L 74.108498 45.362179 
L 74.120879 45.362179 
L 74.218228 42.997529 
L 74.23027 45.362179 
L 74.24261 45.362179 
L 74.365606 42.997529 
L 74.475126 42.997529 
L 74.487258 45.362179 
L 74.584333 42.997529 
L 74.817237 42.997529 
L 74.865806 45.362179 
L 74.927267 42.997529 
L 74.963808 42.997529 
L 75.049438 45.362179 
L 75.073918 42.997529 
L 75.270566 42.997529 
L 75.392499 45.362179 
L 75.416743 45.362179 
L 75.539155 42.997529 
L 75.551572 42.997529 
L 75.674296 45.362179 
L 75.748426 45.362179 
L 75.810475 42.997529 
L 75.84732 45.362179 
L 75.909753 45.362179 
L 75.922645 42.997529 
L 76.011606 45.362179 
L 76.024703 45.362179 
L 76.100134 42.997529 
L 76.124573 45.362179 
L 76.174603 45.362179 
L 76.186628 42.997529 
L 76.21126 45.362179 
L 76.30982 45.362179 
L 76.346178 42.997529 
L 76.409698 45.362179 
L 76.47116 45.362179 
L 76.544543 42.997529 
L 76.581151 45.362179 
L 76.654601 45.362179 
L 76.715785 42.997529 
L 76.764907 45.362179 
L 77.111974 45.362179 
L 77.230135 46.544504 
L 77.266344 45.362179 
L 77.338735 46.544504 
L 77.751347 46.544504 
L 77.824952 47.726829 
L 77.850431 46.544504 
L 78.300744 46.544504 
L 78.336831 45.362179 
L 78.409687 46.544504 
L 78.756293 46.544504 
L 78.768562 45.362179 
L 78.855174 46.544504 
L 78.867422 46.544504 
L 78.989868 45.362179 
L 79.1116 46.544504 
L 79.23337 45.362179 
L 79.270292 45.362179 
L 79.391792 42.997529 
L 79.514034 42.997529 
L 79.526099 41.815203 
L 79.623729 42.997529 
L 79.66316 42.997529 
L 79.761913 41.815203 
L 79.884532 42.997529 
L 79.932932 42.997529 
L 79.945069 41.815203 
L 80.041921 42.997529 
L 80.275633 42.997529 
L 80.32401 41.815203 
L 80.385225 42.997529 
L 80.421642 42.997529 
L 80.531025 41.815203 
L 80.900842 41.815203 
L 81.446469 40.632878 
L 81.689799 40.632878 
L 81.812876 39.450553 
L 82.20715 39.450553 
L 82.318918 38.268228 
L 82.416084 38.268228 
L 82.550294 35.903578 
L 82.671706 37.085903 
L 82.990728 37.085903 
L 83.002788 35.903578 
L 83.09992 37.085903 
L 83.124085 37.085903 
L 83.245656 35.903578 
L 83.281738 35.903578 
L 83.405048 38.268228 
L 83.429172 38.268228 
L 83.441436 37.085903 
L 83.539722 38.268228 
L 83.714881 38.268228 
L 83.811634 39.450553 
L 83.82411 38.268228 
L 83.860756 38.268228 
L 83.974677 39.450553 
L 84.244884 39.450553 
L 84.344166 40.632878 
L 84.405067 39.450553 
L 84.453884 40.632878 
L 84.649748 40.632878 
L 84.661772 39.450553 
L 84.749516 40.632878 
L 85.07036 40.632878 
L 85.183046 41.815203 
L 85.235857 41.815203 
L 85.284637 40.632878 
L 85.334775 41.815203 
L 85.546744 41.815203 
L 85.65677 42.997529 
L 85.730693 41.815203 
L 85.755949 42.997529 
L 85.781125 42.997529 
L 85.794219 41.815203 
L 85.891792 42.997529 
L 85.990838 42.997529 
L 86.002964 45.362179 
L 86.066691 42.997529 
L 86.191208 42.997529 
L 86.303063 45.362179 
L 86.33928 45.362179 
L 86.462086 42.997529 
L 86.583888 45.362179 
L 86.803486 45.362179 
L 86.815537 46.544504 
L 86.912675 45.362179 
L 87.647404 45.362179 
L 87.75759 46.544504 
L 87.867539 45.362179 
L 87.943604 46.544504 
L 87.968028 45.362179 
L 88.029235 45.362179 
L 88.15208 46.544504 
L 88.18886 46.544504 
L 88.200842 45.362179 
L 88.298979 46.544504 
L 88.324242 46.544504 
L 88.438714 45.362179 
L 88.477581 45.362179 
L 88.591798 46.544504 
L 88.77642 46.544504 
L 88.849621 45.362179 
L 88.885819 46.544504 
L 89.154435 46.544504 
L 89.167016 47.726829 
L 89.265139 46.544504 
L 89.388351 46.544504 
L 89.400582 47.726829 
L 89.497979 46.544504 
L 89.680245 46.544504 
L 89.704903 47.726829 
L 89.790726 46.544504 
L 89.814769 46.544504 
L 89.937574 47.726829 
L 89.9621 47.726829 
L 90.083705 46.544504 
L 90.20521 47.726829 
L 90.217231 47.726829 
L 90.241921 46.544504 
L 90.314402 47.726829 
L 90.353848 47.726829 
L 90.475777 46.544504 
L 90.591473 47.726829 
L 90.726222 47.726829 
L 90.83545 48.909154 
L 90.956016 47.726829 
L 90.968242 47.726829 
L 91.080769 48.909154 
L 91.129535 48.909154 
L 91.167267 47.726829 
L 91.240201 48.909154 
L 91.718487 48.909154 
L 91.767094 50.09148 
L 91.828198 48.909154 
L 91.84022 48.909154 
L 91.950321 50.09148 
L 92.073014 48.909154 
L 92.0971 48.909154 
L 92.219744 50.09148 
L 92.446765 50.09148 
L 92.573034 48.909154 
L 92.644029 50.09148 
L 92.672121 48.909154 
L 92.749257 48.909154 
L 92.865076 50.09148 
L 92.924639 50.09148 
L 93.024248 48.909154 
L 93.111452 50.09148 
L 93.636138 50.09148 
L 93.750751 51.273805 
L 93.931856 51.273805 
L 93.956319 52.45613 
L 94.034837 51.273805 
L 94.102794 51.273805 
L 94.153762 52.45613 
L 94.202168 51.273805 
L 94.214164 51.273805 
L 94.336006 52.45613 
L 94.507237 52.45613 
L 94.604229 51.273805 
L 94.616293 52.45613 
L 94.884559 52.45613 
L 95.006062 51.273805 
L 95.018071 51.273805 
L 95.141246 52.45613 
L 95.23929 52.45613 
L 95.352215 51.273805 
L 95.493094 51.273805 
L 95.592628 52.45613 
L 95.713092 51.273805 
L 96.380679 51.273805 
L 96.392831 52.45613 
L 96.479947 51.273805 
L 96.654228 51.273805 
L 96.666716 52.45613 
L 96.756104 51.273805 
L 96.918287 51.273805 
L 96.930514 52.45613 
L 97.020072 51.273805 
L 97.081061 51.273805 
L 97.093802 50.09148 
L 97.190604 51.273805 
L 97.348484 51.273805 
L 97.360522 52.45613 
L 97.457605 51.273805 
L 97.760566 51.273805 
L 97.789629 52.45613 
L 97.866102 51.273805 
L 98.630006 52.45613 
L 99.437252 52.45613 
L 99.449482 51.273805 
L 99.536374 52.45613 
L 100.357872 52.45613 
L 100.418499 54.82078 
L 100.46681 52.45613 
L 100.490811 52.45613 
L 100.502976 54.82078 
L 100.600822 52.45613 
L 100.722516 52.45613 
L 100.819536 54.82078 
L 100.831558 52.45613 
L 100.867924 52.45613 
L 100.99047 54.82078 
L 101.101415 52.45613 
L 101.223937 54.82078 
L 101.337 52.45613 
L 101.472136 52.45613 
L 101.568471 54.82078 
L 101.582119 52.45613 
L 101.701869 54.82078 
L 102.543267 56.003105 
L 102.65654 56.003105 
L 102.705339 57.18543 
L 103.108796 56.003105 
L 103.223346 57.18543 
L 103.348057 56.003105 
L 103.399528 57.18543 
L 103.449674 56.003105 
L 103.52454 56.003105 
L 103.562648 57.18543 
L 103.624259 56.003105 
L 103.701236 56.003105 
L 103.822704 57.18543 
L 103.835386 57.18543 
L 103.887312 56.003105 
L 103.936197 57.18543 
L 104.347718 57.18543 
L 104.447867 58.367756 
L 104.558373 57.18543 
L 104.58391 57.18543 
L 104.693994 58.367756 
L 104.814896 57.18543 
L 104.851726 58.367756 
L 104.924767 57.18543 
L 104.936796 57.18543 
L 104.985005 58.367756 
L 105.045661 57.18543 
L 105.069709 57.18543 
L 105.190698 58.367756 
L 105.203034 58.367756 
L 105.311393 57.18543 
L 105.424561 58.367756 
L 105.452454 58.367756 
L 105.575057 59.550081 
L 105.611762 59.550081 
L 105.661234 58.367756 
L 105.722196 59.550081 
L 105.771307 59.550081 
L 105.795791 60.732406 
L 105.807783 58.367756 
L 105.869402 58.367756 
L 105.953956 58.367756 
L 105.965977 59.550081 
L 106.062518 58.367756 
L 106.328075 58.367756 
L 106.388711 60.732406 
L 106.443265 59.550081 
L 106.564267 58.367756 
L 106.697128 58.367756 
L 106.817425 59.550081 
L 106.926355 58.367756 
L 106.93837 59.550081 
L 107.034697 58.367756 
L 107.0467 58.367756 
L 107.197399 59.550081 
L 107.209818 59.550081 
L 107.221998 58.367756 
L 107.315169 59.550081 
L 107.354494 59.550081 
L 107.37945 60.732406 
L 107.403621 58.367756 
L 107.464321 59.550081 
L 107.488883 58.367756 
L 107.574608 59.550081 
L 108.110407 59.550081 
L 108.134628 60.732406 
L 108.220634 59.550081 
L 108.342969 59.550081 
L 108.466712 61.914731 
L 108.578857 60.732406 
L 108.591055 61.914731 
L 108.689276 60.732406 
L 109.010168 60.732406 
L 109.121973 61.914731 
L 109.150273 61.914731 
L 109.271391 63.097056 
L 109.388975 60.732406 
L 109.484985 60.732406 
L 109.598121 61.914731 
L 109.906147 61.914731 
L 109.92003 60.732406 
L 110.01144 61.914731 
L 110.102476 61.914731 
L 110.24216 60.732406 
L 110.566864 60.732406 
L 110.606311 59.550081 
L 110.667685 60.732406 
L 110.936396 60.732406 
L 110.948981 61.914731 
L 111.044608 60.732406 
L 111.348844 60.732406 
L 111.362037 61.914731 
L 111.445958 60.732406 
L 111.573407 60.732406 
L 111.698389 61.914731 
L 111.75482 61.914731 
L 111.824967 60.732406 
L 111.838298 61.914731 
L 111.960281 60.732406 
L 112.082637 61.914731 
L 112.198135 60.732406 
L 112.236628 60.732406 
L 112.336501 61.914731 
L 112.447601 60.732406 
L 112.473314 60.732406 
L 112.578502 61.914731 
L 112.667594 60.732406 
L 112.679577 61.914731 
L 112.758363 61.914731 
L 112.868903 60.732406 
L 113.247247 60.732406 
L 113.360923 59.550081 
L 113.802904 59.550081 
L 113.924405 58.367756 
L 113.936401 58.367756 
L 113.948443 59.550081 
L 114.043221 58.367756 
L 114.056184 58.367756 
L 114.068394 59.550081 
L 114.164901 58.367756 
L 114.425852 58.367756 
L 114.540283 57.18543 
L 114.552543 57.18543 
L 114.661503 58.367756 
L 114.783949 57.18543 
L 114.857753 57.18543 
L 114.980128 56.003105 
L 114.992156 56.003105 
L 115.113692 57.18543 
L 115.174275 57.18543 
L 115.297241 56.003105 
L 115.447077 56.003105 
L 115.570035 54.82078 
L 115.618918 54.82078 
L 115.729648 52.45613 
L 115.742356 52.45613 
L 115.766957 54.82078 
L 115.852816 52.45613 
L 115.914262 52.45613 
L 115.939127 54.82078 
L 116.261309 54.82078 
L 116.316448 52.45613 
L 116.330271 54.82078 
L 116.377399 54.82078 
L 116.492979 52.45613 
L 116.520378 52.45613 
L 116.616508 54.82078 
L 116.628575 52.45613 
L 116.700801 52.45613 
L 116.812255 56.003105 
L 116.927756 54.82078 
L 117.027877 56.003105 
L 117.078993 56.003105 
L 117.171906 54.82078 
L 117.187071 56.003105 
L 117.199116 56.003105 
L 117.253687 54.82078 
L 117.292993 56.003105 
L 117.373133 56.003105 
L 117.385157 54.82078 
L 117.483513 56.003105 
L 117.742297 56.003105 
L 117.85352 57.18543 
L 117.93871 56.003105 
L 117.962955 57.18543 
L 118.27985 57.18543 
L 118.292226 58.367756 
L 118.388629 57.18543 
L 118.401423 57.18543 
L 118.42574 58.367756 
L 118.49991 57.18543 
L 118.673689 57.18543 
L 118.751697 58.367756 
L 118.778028 57.18543 
L 118.887865 57.18543 
L 119.010037 58.367756 
L 119.022099 57.18543 
L 119.11952 58.367756 
L 119.524588 58.367756 
L 119.537043 59.550081 
L 119.635411 58.367756 
L 119.709325 58.367756 
L 119.823327 59.550081 
L 120.13984 59.550081 
L 120.152273 58.367756 
L 120.249271 59.550081 
L 120.440376 59.550081 
L 120.503063 60.732406 
L 120.539899 59.550081 
L 120.577379 59.550081 
L 120.690782 60.732406 
L 120.803667 59.550081 
L 120.816207 59.550081 
L 120.931472 60.732406 
L 120.956395 60.732406 
L 121.058638 59.550081 
L 121.071023 60.732406 
L 121.158309 59.550081 
L 121.219185 59.550081 
L 121.332599 60.732406 
L 121.356712 60.732406 
L 121.47896 59.550081 
L 121.491053 59.550081 
L 121.614333 60.732406 
L 121.626455 59.550081 
L 121.724385 60.732406 
L 121.825905 60.732406 
L 121.950449 61.914731 
L 122.287968 61.914731 
L 122.400019 60.732406 
L 122.474257 60.732406 
L 122.486577 61.914731 
L 122.584118 60.732406 
L 122.633009 60.732406 
L 122.71832 61.914731 
L 122.742288 60.732406 
L 122.838906 60.732406 
L 122.960997 61.914731 
L 123.083878 61.914731 
L 123.192917 63.097056 
L 123.315184 61.914731 
L 123.917247 61.914731 
L 123.929347 60.732406 
L 124.020159 61.914731 
L 124.15079 61.914731 
L 124.249816 63.097056 
L 124.360022 61.914731 
L 124.47289 63.097056 
L 124.595199 61.914731 
L 124.60781 61.914731 
L 124.730119 63.097056 
L 124.803313 63.097056 
L 124.926432 64.279381 
L 125.048919 63.097056 
L 125.195555 63.097056 
L 125.20758 64.279381 
L 125.305012 63.097056 
L 125.378213 63.097056 
L 125.402284 64.279381 
L 125.48836 63.097056 
L 125.548633 63.097056 
L 125.633468 64.279381 
L 125.658088 63.097056 
L 125.755678 63.097056 
L 125.877567 64.279381 
L 126.20875 64.279381 
L 126.331295 63.097056 
L 126.368114 63.097056 
L 126.477215 64.279381 
L 126.587181 63.097056 
L 126.710144 64.279381 
L 126.941712 64.279381 
L 126.953882 66.644032 
L 127.031941 64.279381 
L 127.424543 64.279381 
L 127.437481 66.644032 
L 127.527683 64.279381 
L 127.565419 64.279381 
L 127.673901 66.644032 
L 127.795117 64.279381 
L 128.026245 64.279381 
L 128.147943 66.644032 
L 128.281182 66.644032 
L 128.403121 67.826357 
L 128.415136 67.826357 
L 128.52402 66.644032 
L 128.57562 66.644032 
L 128.587784 67.826357 
L 128.676542 66.644032 
L 128.752347 64.279381 
L 128.764824 66.644032 
L 129.198633 66.644032 
L 129.29987 64.279381 
L 129.415145 66.644032 
L 129.527131 64.279381 
L 129.642672 66.644032 
L 129.760251 64.279381 
L 129.774079 64.279381 
L 129.864378 66.644032 
L 129.878641 64.279381 
L 129.892609 64.279381 
L 129.92138 66.644032 
L 129.986614 64.279381 
L 130.021962 64.279381 
L 130.14252 66.644032 
L 130.263051 64.279381 
L 130.276161 66.644032 
L 130.372478 64.279381 
L 130.526029 64.279381 
L 130.639988 63.097056 
L 130.751511 64.279381 
L 130.867477 63.097056 
L 130.932635 63.097056 
L 131.048105 64.279381 
L 131.169114 63.097056 
L 131.255608 64.279381 
L 131.268524 63.097056 
L 131.367984 64.279381 
L 131.479401 63.097056 
L 131.602433 64.279381 
L 131.638711 64.279381 
L 131.71259 63.097056 
L 131.749769 64.279381 
L 132.658965 64.279381 
L 132.695986 63.097056 
L 132.76157 64.279381 
L 133.062163 64.279381 
L 133.074576 66.644032 
L 133.172961 64.279381 
L 133.502813 64.279381 
L 133.55119 66.644032 
L 133.588285 64.279381 
L 134.064589 64.279381 
L 134.077048 63.097056 
L 134.175017 64.279381 
L 134.531109 64.279381 
L 134.61913 66.644032 
L 134.631149 64.279381 
L 134.758119 64.279381 
L 134.806412 66.644032 
L 134.844424 64.279381 
L 134.872194 64.279381 
L 134.995718 66.644032 
L 135.081366 66.644032 
L 135.093759 64.279381 
L 135.180856 66.644032 
L 135.509557 66.644032 
L 135.521779 64.279381 
L 135.62066 66.644032 
L 135.67002 66.644032 
L 135.68246 64.279381 
L 135.771605 66.644032 
L 136.69337 66.644032 
L 136.717467 67.826357 
L 136.803174 66.644032 
L 136.982152 66.644032 
L 137.125356 67.826357 
L 137.147598 66.644032 
L 137.214577 67.826357 
L 137.601174 67.826357 
L 137.678573 66.644032 
L 137.81424 67.826357 
L 137.826616 66.644032 
L 137.92351 67.826357 
L 138.056591 67.826357 
L 138.068694 69.008682 
L 138.166742 67.826357 
L 138.190944 67.826357 
L 138.275456 66.644032 
L 138.299603 67.826357 
L 138.533133 67.826357 
L 138.654387 69.008682 
L 138.766008 67.826357 
L 138.91278 67.826357 
L 139.02145 69.008682 
L 139.095337 67.826357 
L 139.132252 69.008682 
L 139.192541 69.008682 
L 139.3148 67.826357 
L 139.436134 69.008682 
L 139.53335 67.826357 
L 139.54537 69.008682 
L 140.06713 69.008682 
L 140.163839 70.191007 
L 140.175836 69.008682 
L 140.455039 69.008682 
L 140.467262 70.191007 
L 140.527742 69.008682 
L 140.567271 69.008682 
L 140.579622 70.191007 
L 140.67685 69.008682 
L 140.742065 69.008682 
L 140.865434 70.191007 
L 140.926426 70.191007 
L 141.047953 69.008682 
L 141.108907 70.191007 
L 141.157092 69.008682 
L 141.41188 69.008682 
L 141.448477 70.191007 
L 141.521206 69.008682 
L 141.667345 69.008682 
L 141.766105 70.191007 
L 141.77812 69.008682 
L 141.814784 69.008682 
L 141.875588 70.191007 
L 141.924446 69.008682 
L 141.936469 69.008682 
L 142.058655 70.191007 
L 142.094843 70.191007 
L 142.216695 69.008682 
L 142.228757 69.008682 
L 142.351167 70.191007 
L 142.447714 69.008682 
L 142.460259 70.191007 
L 142.496939 70.191007 
L 142.594871 69.008682 
L 142.606895 70.191007 
L 143.139939 70.191007 
L 143.152578 69.008682 
L 143.23878 70.191007 
L 143.44741 70.191007 
L 143.558218 71.373332 
L 143.633613 70.191007 
L 143.659243 71.373332 
L 143.683973 71.373332 
L 143.696311 70.191007 
L 143.783611 71.373332 
L 144.407751 71.373332 
L 144.516227 70.191007 
L 144.63741 71.373332 
L 144.649827 71.373332 
L 144.772349 70.191007 
L 144.820606 70.191007 
L 144.857348 71.373332 
L 144.92962 70.191007 
L 145.297543 70.191007 
L 145.309568 71.373332 
L 145.408102 70.191007 
L 146.250444 70.191007 
L 146.315266 69.008682 
L 146.351449 70.191007 
L 146.363646 70.191007 
L 146.473214 69.008682 
L 146.522778 70.191007 
L 146.583851 69.008682 
L 147.097883 69.008682 
L 147.134999 67.826357 
L 147.208863 69.008682 
L 147.220889 69.008682 
L 147.3431 67.826357 
L 147.355164 67.826357 
L 147.466975 69.008682 
L 147.479159 69.008682 
L 147.601489 67.826357 
L 147.613703 67.826357 
L 147.650168 69.008682 
L 147.724009 67.826357 
L 147.749033 67.826357 
L 147.869834 66.644032 
L 147.955974 67.826357 
L 147.980511 66.644032 
L 148.066008 66.644032 
L 148.078264 67.826357 
L 148.175711 66.644032 
L 148.346767 66.644032 
L 148.470087 64.279381 
L 148.717249 64.279381 
L 148.839615 63.097056 
L 148.91306 63.097056 
L 149.024656 61.914731 
L 149.146569 63.097056 
L 149.268104 61.914731 
L 149.425685 61.914731 
L 149.438806 63.097056 
L 149.536529 61.914731 
L 149.597563 61.914731 
L 149.719362 63.097056 
L 149.743577 63.097056 
L 149.86611 61.914731 
L 149.892011 61.914731 
L 150.01334 63.097056 
L 150.037435 63.097056 
L 150.049576 61.914731 
L 150.146303 63.097056 
L 150.451408 63.097056 
L 150.463858 64.279381 
L 150.561622 63.097056 
L 150.684681 63.097056 
L 150.793788 64.279381 
L 150.915002 63.097056 
L 150.93925 63.097056 
L 151.050789 64.279381 
L 151.161416 64.279381 
L 151.173452 63.097056 
L 151.27089 64.279381 
L 151.343636 64.279381 
L 151.4043 63.097056 
L 151.453008 64.279381 
L 152.02624 64.279381 
L 152.148373 66.644032 
L 152.184643 66.644032 
L 152.306065 64.279381 
L 152.428948 66.644032 
L 152.489892 64.279381 
L 152.538658 66.644032 
L 152.550839 66.644032 
L 152.563937 64.279381 
L 152.661425 66.644032 
L 152.98337 66.644032 
L 153.008013 67.826357 
L 153.092691 66.644032 
L 153.202974 66.644032 
L 153.289987 67.826357 
L 153.302827 66.644032 
L 153.3529 66.644032 
L 153.475781 67.826357 
L 153.597103 66.644032 
L 153.708421 67.826357 
L 153.94221 67.826357 
L 153.95421 69.008682 
L 154.051783 67.826357 
L 154.075892 67.826357 
L 154.186048 69.008682 
L 154.198099 67.826357 
L 154.295833 69.008682 
L 154.332605 69.008682 
L 154.344629 67.826357 
L 154.430058 69.008682 
L 154.552764 70.191007 
L 154.651163 69.008682 
L 154.663181 70.191007 
L 154.675235 70.191007 
L 154.797241 69.008682 
L 155.201096 69.008682 
L 155.274343 67.826357 
L 155.311399 69.008682 
L 155.372307 69.008682 
L 155.384936 67.826357 
L 155.48186 69.008682 
L 155.725326 69.008682 
L 155.847262 70.191007 
L 155.889819 70.191007 
L 156.010955 69.008682 
L 156.022999 69.008682 
L 156.120925 70.191007 
L 156.132946 69.008682 
L 156.16961 69.008682 
L 156.256904 70.191007 
L 156.268918 69.008682 
L 156.380496 69.008682 
L 156.392882 70.191007 
L 156.490487 69.008682 
L 156.600365 69.008682 
L 156.698237 70.191007 
L 156.710272 69.008682 
L 156.895059 69.008682 
L 156.907096 70.191007 
L 157.004414 69.008682 
L 157.237353 69.008682 
L 157.249471 70.191007 
L 157.261546 69.008682 
L 156.576316 69.008682 
L 156.637622 69.008682 
L 156.760706 70.191007 
L 156.809671 70.191007 
L 156.931994 69.008682 
L 157.053536 70.191007 
L 157.07797 70.191007 
L 157.138648 69.008682 
L 157.18701 70.191007 
L 157.272199 70.191007 
L 157.312526 69.008682 
L 157.373419 70.191007 
L 157.852622 70.191007 
L 157.93787 69.008682 
L 157.962117 70.191007 
L 158.377467 70.191007 
L 158.498697 69.008682 
L 158.619943 70.191007 
L 158.63195 70.191007 
L 158.753385 69.008682 
L 158.875438 70.191007 
L 158.924244 70.191007 
L 159.035973 69.008682 
L 159.146405 70.191007 
L 159.170766 69.008682 
L 159.255952 70.191007 
L 159.743175 70.191007 
L 159.865061 71.373332 
L 159.985987 70.191007 
L 160.107857 71.373332 
L 160.132372 71.373332 
L 160.144427 70.191007 
L 160.241214 71.373332 
L 160.32632 71.373332 
L 160.350368 72.555657 
L 160.434732 71.373332 
L 160.874724 71.373332 
L 160.886745 70.191007 
L 160.974563 71.373332 
L 161.577193 71.373332 
L 161.637787 70.191007 
L 161.68635 71.373332 
L 161.710575 71.373332 
L 161.82326 70.191007 
L 161.860659 70.191007 
L 161.981063 71.373332 
L 162.126227 70.191007 
L 162.235663 71.373332 
L 162.357669 70.191007 
L 162.490477 70.191007 
L 162.502463 71.373332 
L 162.599435 70.191007 
L 163.062488 70.191007 
L 163.171446 69.008682 
L 163.283655 70.191007 
L 163.319807 70.191007 
L 163.393481 69.008682 
L 163.430378 70.191007 
L 163.470902 70.191007 
L 163.519155 69.008682 
L 163.567371 70.191007 
L 163.607272 70.191007 
L 163.728598 69.008682 
L 163.958709 69.008682 
L 164.081713 67.826357 
L 164.192102 69.008682 
L 164.313353 67.826357 
L 164.654134 67.826357 
L 164.776638 66.644032 
L 164.825367 66.644032 
L 164.935396 67.826357 
L 165.056597 66.644032 
L 165.1546 66.644032 
L 165.191454 67.826357 
L 165.264046 66.644032 
L 165.362023 66.644032 
L 165.447902 67.826357 
L 165.472017 66.644032 
L 165.496533 66.644032 
L 165.607663 67.826357 
L 165.730057 67.826357 
L 165.851968 66.644032 
L 165.97442 67.826357 
L 166.02395 67.826357 
L 166.072766 66.644032 
L 166.133621 67.826357 
L 166.439533 67.826357 
L 166.560605 69.008682 
L 166.731687 69.008682 
L 166.744097 67.826357 
L 166.840608 69.008682 
L 167.120982 69.008682 
L 167.206408 67.826357 
L 167.230843 69.008682 
L 167.439319 69.008682 
L 167.463603 67.826357 
L 167.549068 69.008682 
L 167.561241 69.008682 
L 167.573463 67.826357 
L 167.670768 69.008682 
L 168.795856 69.008682 
L 168.808506 70.191007 
L 168.902428 69.008682 
L 168.940482 69.008682 
L 169.046621 70.191007 
L 169.159497 69.008682 
L 169.280438 70.191007 
L 170.582568 70.191007 
L 170.705225 71.373332 
L 170.817192 70.191007 
L 170.927911 71.373332 
L 171.026588 70.191007 
L 171.038802 71.373332 
L 171.064124 71.373332 
L 171.149999 70.191007 
L 171.174863 71.373332 
L 171.249425 71.373332 
L 171.299618 70.191007 
L 171.350338 71.373332 
L 171.363147 71.373332 
L 171.474285 70.191007 
L 171.486696 70.191007 
L 171.601374 71.373332 
L 171.65106 71.373332 
L 171.761378 70.191007 
L 171.883806 71.373332 
L 172.055215 71.373332 
L 172.067242 70.191007 
L 172.165932 71.373332 
L 172.752805 71.373332 
L 172.764858 72.555657 
L 172.863266 71.373332 
L 172.925084 71.373332 
L 172.999882 72.555657 
L 173.023884 71.373332 
L 173.036237 71.373332 
L 173.147245 72.555657 
L 173.208471 71.373332 
L 173.257036 72.555657 
L 173.330776 72.555657 
L 173.343458 71.373332 
L 173.441389 72.555657 
L 173.489913 72.555657 
L 173.612958 73.737983 
L 173.637441 72.555657 
L 173.721997 73.737983 
L 173.806625 73.737983 
L 173.928336 76.102633 
L 174.040746 76.102633 
L 174.161718 73.737983 
L 174.185808 73.737983 
L 174.239306 72.555657 
L 174.28844 73.737983 
L 174.301046 73.737983 
L 174.36144 72.555657 
L 174.410479 73.737983 
L 174.471723 73.737983 
L 174.580621 72.555657 
L 174.701837 73.737983 
L 174.823126 72.555657 
L 174.944724 73.737983 
L 174.956932 73.737983 
L 174.968976 72.555657 
L 175.065716 73.737983 
L 175.380861 73.737983 
L 175.466802 76.102633 
L 175.491105 73.737983 
L 175.540028 73.737983 
L 175.663051 76.102633 
L 175.736179 73.737983 
L 175.773634 76.102633 
L 176.16229 76.102633 
L 176.174312 77.284958 
L 176.272042 76.102633 
L 176.465908 76.102633 
L 176.478139 77.284958 
L 176.575104 76.102633 
L 176.599394 76.102633 
L 176.721184 77.284958 
L 176.940466 77.284958 
L 177.061641 76.102633 
L 177.073625 76.102633 
L 177.182587 77.284958 
L 177.21881 76.102633 
L 177.292615 77.284958 
L 177.473547 77.284958 
L 177.585364 78.467283 
L 178.12909 78.467283 
L 178.201353 77.284958 
L 178.237759 78.467283 
L 178.540782 78.467283 
L 178.552805 77.284958 
L 178.649998 78.467283 
L 179.123148 78.467283 
L 179.135209 77.284958 
L 179.232459 78.467283 
L 179.68148 78.467283 
L 179.777739 79.649608 
L 179.78975 78.467283 
L 179.80181 78.467283 
L 179.910276 79.649608 
L 180.008005 78.467283 
L 180.020449 79.649608 
L 180.056666 79.649608 
L 180.177527 78.467283 
L 180.201548 79.649608 
L 180.286174 78.467283 
L 180.334537 78.467283 
L 180.444044 79.649608 
L 180.528723 77.284958 
L 180.552921 78.467283 
L 180.577176 78.467283 
L 180.698272 77.284958 
L 180.722756 77.284958 
L 180.746837 78.467283 
L 180.819346 77.284958 
L 180.940339 76.102633 
L 181.050114 76.102633 
L 181.172469 73.737983 
L 181.294076 73.737983 
L 181.369658 76.102633 
L 181.393916 73.737983 
L 181.478701 73.737983 
L 181.575543 76.102633 
L 181.588061 73.737983 
L 181.661169 73.737983 
L 181.673178 76.102633 
L 399.186113 112.754713 
L 399.271783 112.754713 
L 399.284354 113.937038 
L 399.38171 112.754713 
L 399.394152 112.754713 
L 399.517157 113.937038 
L 399.529459 113.937038 
L 399.553464 112.754713 
L 399.640322 113.937038 
L 399.847256 113.937038 
L 399.932277 115.119363 
L 399.957117 113.937038 
L 400.018444 113.937038 
L 400.140541 115.119363 
L 400.261882 113.937038 
L 400.384451 115.119363 
L 400.507063 113.937038 
L 400.591354 115.119363 
L 400.616597 113.937038 
L 400.677994 113.937038 
L 400.690174 115.119363 
L 400.788878 113.937038 
L 400.958921 113.937038 
L 402.505169 116.301688 
L 402.61845 115.119363 
L 402.655469 115.119363 
L 402.703507 116.301688 
L 402.76432 115.119363 
L 402.837111 115.119363 
L 402.852742 116.301688 
L 402.938486 115.119363 
L 403.076606 115.119363 
L 403.112719 116.301688 
L 403.185803 115.119363 
L 403.284106 115.119363 
L 403.373494 116.301688 
L 403.385541 115.119363 
L 403.421653 115.119363 
L 403.506559 116.301688 
L 403.519393 115.119363 
L 403.569999 115.119363 
L 403.682455 116.301688 
L 403.694568 116.301688 
L 403.755913 115.119363 
L 403.805172 116.301688 
L 403.829904 116.301688 
L 403.927872 115.119363 
L 403.940599 116.301688 
L 404.026447 116.301688 
L 404.136141 115.119363 
L 404.258473 116.301688 
L 404.27053 116.301688 
L 404.380765 115.119363 
L 404.50262 116.301688 
L 404.563329 116.301688 
L 404.672761 115.119363 
L 404.721201 116.301688 
L 404.781684 115.119363 
L 404.794138 115.119363 
L 404.916214 116.301688 
L 405.013799 116.301688 
L 405.025826 115.119363 
L 405.118982 116.301688 
L 405.355635 116.301688 
L 405.46564 118.666339 
L 405.563432 116.301688 
L 405.575455 118.666339 
L 405.659789 116.301688 
L 405.684355 118.666339 
L 405.948434 118.666339 
L 405.960836 119.848664 
L 406.048144 118.666339 
L 406.280455 118.666339 
L 406.391489 116.301688 
L 406.683416 116.301688 
L 406.771534 118.666339 
L 406.783569 116.301688 
L 406.820664 116.301688 
L 406.943644 118.666339 
L 406.956346 118.666339 
L 407.00539 116.301688 
L 407.066503 118.666339 
L 407.226709 118.666339 
L 407.299331 116.301688 
L 407.336314 118.666339 
L 407.544392 118.666339 
L 407.619023 119.848664 
L 407.643462 118.666339 
L 407.78957 118.666339 
L 407.802525 119.848664 
L 407.888754 118.666339 
L 407.975639 118.666339 
L 408.08819 119.848664 
L 408.189558 119.848664 
L 408.203398 118.666339 
L 408.290494 119.848664 
L 408.476195 119.848664 
L 408.512265 118.666339 
L 408.578767 119.848664 
L 408.6922 119.848664 
L 408.804094 118.666339 
L 408.816471 118.666339 
L 408.928382 119.848664 
L 409.125725 119.848664 
L 409.174129 118.666339 
L 409.234875 119.848664 
L 409.259405 119.848664 
L 409.356012 118.666339 
L 409.36804 119.848664 
L 409.380056 119.848664 
L 409.47826 118.666339 
L 409.490315 119.848664 
L 409.733864 119.848664 
L 409.745911 118.666339 
L 409.844176 119.848664 
L 410.238865 119.848664 
L 410.251084 118.666339 
L 410.338316 119.848664 
L 410.460631 119.848664 
L 410.582766 118.666339 
L 410.705325 119.848664 
L 410.960262 119.848664 
L 410.972281 121.030989 
L 411.060021 119.848664 
L 411.084176 119.848664 
L 411.109059 121.030989 
L 411.183524 119.848664 
L 411.195993 119.848664 
L 411.208232 121.030989 
L 411.296777 119.848664 
L 411.410735 119.848664 
L 411.449602 121.030989 
L 411.517666 119.848664 
L 411.543024 119.848664 
L 411.654912 121.030989 
L 411.668441 121.030989 
L 411.791625 119.848664 
L 411.843337 119.848664 
L 411.99061 121.030989 
L 412.112123 119.848664 
L 412.233455 121.030989 
L 412.322657 121.030989 
L 412.385351 119.848664 
L 412.422339 121.030989 
L 412.434534 121.030989 
L 412.545959 119.848664 
L 412.657749 121.030989 
L 412.865407 121.030989 
L 412.938636 119.848664 
L 412.975148 121.030989 
L 412.987239 121.030989 
L 413.101374 119.848664 
L 413.203749 119.848664 
L 413.215747 121.030989 
L 413.314035 119.848664 
L 413.580122 119.848664 
L 413.616686 118.666339 
L 413.69007 119.848664 
L 413.839275 119.848664 
L 413.962071 118.666339 
L 413.974158 118.666339 
L 414.072984 119.848664 
L 414.084996 118.666339 
L 414.121536 118.666339 
L 414.244112 119.848664 
L 414.419638 119.848664 
L 414.480189 118.666339 
L 414.528396 119.848664 
L 414.577562 119.848664 
L 414.662842 118.666339 
L 414.688057 119.848664 
L 414.71207 119.848664 
L 414.785152 118.666339 
L 414.82154 119.848664 
L 415.284011 119.848664 
L 415.380902 118.666339 
L 415.392945 119.848664 
L 415.417997 119.848664 
L 415.539084 118.666339 
L 415.55116 118.666339 
L 415.660654 119.848664 
L 415.770128 118.666339 
L 415.84248 119.848664 
L 415.878936 118.666339 
L 416.452734 118.666339 
L 416.564752 119.848664 
L 416.677376 118.666339 
L 416.689494 118.666339 
L 416.701517 119.848664 
L 416.79933 118.666339 
L 416.81203 118.666339 
L 416.93495 119.848664 
L 417.057245 118.666339 
L 417.069264 118.666339 
L 417.179568 119.848664 
L 417.264735 118.666339 
L 417.288806 119.848664 
L 417.31341 119.848664 
L 417.398873 118.666339 
L 417.423432 119.848664 
L 417.435852 119.848664 
L 417.510934 118.666339 
L 417.535462 119.848664 
L 417.547478 119.848664 
L 417.559506 118.666339 
L 417.646314 119.848664 
L 417.683824 119.848664 
L 417.806735 118.666339 
L 417.819435 118.666339 
L 417.942476 119.848664 
L 417.96681 119.848664 
L 418.005487 118.666339 
L 418.068491 119.848664 
L 418.467113 119.848664 
L 418.577525 121.030989 
L 418.626939 119.848664 
L 418.676804 121.030989 
L 418.701249 121.030989 
L 418.798023 119.848664 
L 418.810438 121.030989 
L 419.378481 121.030989 
L 419.500571 123.395639 
L 419.623175 122.213314 
L 419.891767 122.213314 
L 420.004595 123.395639 
L 420.042149 123.395639 
L 420.164413 124.577964 
L 420.27685 123.395639 
L 420.301124 123.395639 
L 420.313153 122.213314 
L 420.404893 123.395639 
L 420.735788 123.395639 
L 420.747794 122.213314 
L 420.834528 123.395639 
L 420.934632 123.395639 
L 420.996185 124.577964 
L 421.032352 123.395639 
L 421.221363 123.395639 
L 421.333061 122.213314 
L 421.381192 123.395639 
L 421.442095 122.213314 
L 421.508657 122.213314 
L 421.608142 123.395639 
L 421.716783 122.213314 
L 421.850891 124.577964 
L 421.973068 123.395639 
L 421.997572 123.395639 
L 422.109168 124.577964 
L 422.145481 124.577964 
L 422.218482 123.395639 
L 422.254679 124.577964 
L 422.266816 124.577964 
L 422.38776 123.395639 
L 422.472604 124.577964 
L 422.497226 123.395639 
L 422.630065 123.395639 
L 422.752888 124.577964 
L 422.874914 123.395639 
L 422.899288 123.395639 
L 423.008594 124.577964 
L 423.020816 123.395639 
L 423.118393 124.577964 
L 423.166733 124.577964 
L 423.287941 123.395639 
L 423.336828 123.395639 
L 423.457296 124.577964 
L 423.55452 124.577964 
L 423.578943 123.395639 
L 423.665477 124.577964 
L 423.98422 124.577964 
L 424.106119 123.395639 
L 424.118142 123.395639 
L 424.239102 124.577964 
L 425.048593 124.577964 
L 425.160847 125.76029 
L 425.197334 125.76029 
L 425.298887 124.577964 
L 425.395963 125.76029 
L 425.407987 124.577964 
L 425.419984 124.577964 
L 425.431991 125.76029 
L 425.529295 124.577964 
L 425.56558 124.577964 
L 425.687527 125.76029 
L 425.699664 125.76029 
L 425.808938 124.577964 
L 425.931009 125.76029 
L 426.15125 125.76029 
L 426.163273 126.942615 
L 426.250879 125.76029 
L 426.384634 125.76029 
L 426.506698 126.942615 
L 426.518918 126.942615 
L 426.603975 125.76029 
L 426.628111 126.942615 
L 426.652553 126.942615 
L 426.763655 125.76029 
L 426.775839 125.76029 
L 426.873071 126.942615 
L 426.885112 125.76029 
L 426.897411 125.76029 
L 427.019821 126.942615 
L 427.05654 126.942615 
L 427.178341 125.76029 
L 427.290796 126.942615 
L 427.35197 126.942615 
L 427.449418 128.12494 
L 427.461839 126.942615 
L 427.570684 126.942615 
L 427.668768 128.12494 
L 427.680783 126.942615 
L 427.717851 126.942615 
L 427.839468 128.12494 
L 427.99718 128.12494 
L 428.069517 125.76029 
L 428.11832 126.942615 
L 428.19152 126.942615 
L 428.314892 125.76029 
L 428.326993 125.76029 
L 428.449802 126.942615 
L 428.485904 126.942615 
L 428.608243 125.76029 
L 428.777514 125.76029 
L 428.789527 126.942615 
L 428.887413 125.76029 
L 428.935986 125.76029 
L 429.021804 126.942615 
L 429.04708 125.76029 
L 429.071682 125.76029 
L 429.171802 126.942615 
L 429.293678 125.76029 
L 429.305864 125.76029 
L 429.416568 126.942615 
L 429.527666 125.76029 
L 429.564766 125.76029 
L 429.661429 126.942615 
L 429.674036 125.76029 
L 429.699122 125.76029 
L 429.821727 126.942615 
L 429.846562 126.942615 
L 429.921676 125.76029 
L 429.946084 126.942615 
L 430.1432 126.942615 
L 430.155583 125.76029 
L 430.243455 126.942615 
L 430.303645 126.942615 
L 430.425125 125.76029 
L 430.475417 125.76029 
L 430.499448 126.942615 
L 430.583939 125.76029 
L 431.34545 125.76029 
L 431.468241 124.577964 
L 431.492332 124.577964 
L 431.605923 125.76029 
L 431.72874 124.577964 
L 431.752725 124.577964 
L 431.875334 125.76029 
L 431.996719 124.577964 
L 432.009091 124.577964 
L 432.009091 124.577964 
" style="fill:none;stroke:#1f77b4;stroke-linecap:square;stroke-width:1.5;"/>
   </g>
   <g id="line2d_30">
    <path clip-path="url(#p84ce6935a9)" d="M 72.190909 125.76029 
L 73.245889 125.76029 
L 73.367424 138.765866 
L 73.614381 138.765866 
L 73.735916 144.677492 
L 74.584333 144.677492 
L 74.706635 138.765866 
L 74.951351 138.765866 
L 75.073918 144.677492 
L 75.320166 144.677492 
L 75.440789 149.406793 
L 76.617799 149.406793 
L 76.740619 144.677492 
L 76.801922 144.677492 
L 76.924893 161.230044 
L 77.775435 161.230044 
L 77.898766 165.959345 
L 78.081362 165.959345 
L 78.20322 149.406793 
L 78.633652 149.406793 
L 78.756293 144.677492 
L 79.001896 144.677492 
L 79.12398 149.406793 
L 79.61165 149.406793 
L 79.724451 138.765866 
L 79.981532 138.765866 
L 80.102271 123.395639 
L 80.163349 123.395639 
L 80.275633 102.113786 
L 80.900842 102.113786 
L 81.434463 89.10821 
L 81.989387 89.10821 
L 82.11028 80.831934 
L 82.550294 80.831934 
L 82.671706 78.467283 
L 83.949545 78.467283 
L 84.060774 89.10821 
L 84.62512 89.10821 
L 84.737487 65.461707 
L 85.183046 65.461707 
L 85.296955 115.119363 
L 86.474114 115.119363 
L 86.595909 125.76029 
L 87.231333 125.76029 
L 87.353526 195.517474 
L 87.968028 195.517474 
L 88.090843 221.528627 
L 88.714599 221.528627 
L 88.837415 232.169554 
L 89.265139 232.169554 
L 89.376321 245.17513 
L 90.241921 245.17513 
L 90.353848 232.169554 
L 90.627956 232.169554 
L 90.750405 221.528627 
L 92.687313 221.528627 
L 92.80196 208.52305 
L 94.933212 208.52305 
L 95.055775 195.517474 
L 95.873866 195.517474 
L 95.988615 171.870971 
L 96.24522 171.870971 
L 96.36827 149.406793 
L 97.032699 149.406793 
L 97.154021 115.119363 
L 97.827445 115.119363 
L 97.866102 78.467283 
L 98.545111 89.10821 
L 98.797421 89.10821 
L 99.499082 115.119363 
L 99.682234 115.119363 
L 99.803249 125.76029 
L 100.478791 125.76029 
L 100.600822 138.765866 
L 102.543267 138.765866 
L 102.705339 149.406793 
L 103.912096 149.406793 
L 104.026089 138.765866 
L 104.633016 138.765866 
L 104.754626 149.406793 
L 105.239082 149.406793 
L 105.360512 161.230044 
L 106.926355 161.230044 
L 107.0467 138.765866 
L 107.500905 138.765866 
L 107.622966 149.406793 
L 108.454002 149.406793 
L 108.56683 144.677492 
L 108.863193 144.677492 
L 108.985966 149.406793 
L 109.271391 149.406793 
L 109.388975 165.959345 
L 109.598121 165.959345 
L 109.795197 149.406793 
L 110.445418 149.406793 
L 110.566864 165.959345 
L 110.997743 165.959345 
L 111.111871 161.230044 
L 112.348546 161.230044 
L 112.461074 184.876547 
L 113.148896 184.876547 
L 113.260199 149.406793 
L 113.643994 149.406793 
L 113.765885 125.76029 
L 115.040836 125.76029 
L 115.162185 78.467283 
L 117.146893 78.467283 
L 117.266371 89.10821 
L 118.060169 89.10821 
L 118.174159 102.113786 
L 118.525074 102.113786 
L 118.637182 115.119363 
L 119.500225 115.119363 
L 119.623382 138.765866 
L 120.665194 138.765866 
L 120.778828 149.406793 
L 122.742288 149.406793 
L 122.863388 161.230044 
L 125.280412 161.230044 
L 125.402284 165.959345 
L 125.524474 165.959345 
L 125.645688 149.406793 
L 127.892271 149.406793 
L 128.014024 161.230044 
L 129.45154 161.230044 
L 129.56514 165.959345 
L 129.694538 165.959345 
L 129.839088 161.230044 
L 130.463463 161.230044 
L 130.577316 149.406793 
L 131.540247 149.406793 
L 131.650772 138.765866 
L 132.708406 138.765866 
L 132.823913 144.677492 
L 133.184966 144.677492 
L 133.308419 125.76029 
L 133.429683 125.76029 
L 133.55119 123.395639 
L 133.869875 123.395639 
L 133.9909 125.76029 
L 134.113386 125.76029 
L 134.224622 123.395639 
L 134.61913 123.395639 
L 134.731687 125.76029 
L 135.032383 125.76029 
L 135.155664 123.395639 
L 135.278912 123.395639 
L 135.401177 125.76029 
L 135.759573 125.76029 
L 135.833502 123.395639 
L 136.6792 115.119363 
L 136.803174 138.765866 
L 137.601174 138.765866 
L 137.764489 125.76029 
L 138.337315 125.76029 
L 138.460043 138.765866 
L 139.009394 138.765866 
L 139.132252 125.76029 
L 141.338781 125.76029 
L 141.460877 123.395639 
L 141.581674 123.395639 
L 141.704234 125.76029 
L 141.826809 125.76029 
L 141.948843 123.395639 
L 142.253515 123.395639 
L 142.37525 138.765866 
L 143.423086 138.765866 
L 143.545859 144.677492 
L 143.671755 144.677492 
L 143.783611 138.765866 
L 144.102729 138.765866 
L 144.225663 144.677492 
L 144.347241 144.677492 
L 144.468013 161.230044 
L 144.844928 161.230044 
L 144.961424 165.959345 
L 145.273057 165.959345 
L 145.395826 161.230044 
L 146.00664 161.230044 
L 146.127821 165.959345 
L 146.436284 165.959345 
L 146.547266 149.406793 
L 146.8767 149.406793 
L 147.134999 144.677492 
L 147.391388 144.677492 
L 147.503424 138.765866 
L 147.638149 138.765866 
L 147.761032 123.395639 
L 147.881844 123.395639 
L 148.004577 115.119363 
L 148.31027 115.119363 
L 148.421836 102.113786 
L 149.231622 102.113786 
L 149.352972 89.10821 
L 149.475545 89.10821 
L 149.597563 80.831934 
L 150.206981 80.831934 
L 150.329746 89.10821 
L 150.635668 89.10821 
L 150.757434 102.113786 
L 152.711138 102.113786 
L 152.823992 115.119363 
L 153.451144 115.119363 
L 153.572206 138.765866 
L 156.931304 138.765866 
L 157.054238 149.406793 
L 157.261546 149.406793 
L 156.576316 149.406793 
L 156.968499 149.406793 
L 157.090002 138.765866 
L 157.657221 138.765866 
L 157.779393 149.406793 
L 159.010606 149.406793 
L 159.133833 161.230044 
L 160.728515 161.230044 
L 160.850607 165.959345 
L 161.157712 165.959345 
L 161.280314 161.230044 
L 161.405581 161.230044 
L 161.528713 165.959345 
L 161.83606 165.959345 
L 161.956842 161.230044 
L 162.563248 161.230044 
L 162.683801 149.406793 
L 162.804641 149.406793 
L 162.915715 144.677492 
L 163.946683 144.677492 
L 164.069685 89.10821 
L 164.373606 89.10821 
L 164.496079 80.831934 
L 164.862624 80.831934 
L 164.983742 78.467283 
L 165.105777 78.467283 
L 165.22779 59.550081 
L 165.349805 59.550081 
L 165.472017 65.461707 
L 168.386489 65.461707 
L 168.500417 102.113786 
L 170.485001 102.113786 
L 170.631206 125.76029 
L 174.956932 125.76029 
L 175.07811 115.119363 
L 175.870847 115.119363 
L 175.991903 125.76029 
L 179.244523 125.76029 
L 179.365297 138.765866 
L 179.486497 138.765866 
L 179.608418 144.677492 
L 179.971873 144.677492 
L 180.0927 125.76029 
L 181.13581 125.76029 
L 181.25711 123.395639 
L 181.318212 123.395639 
L 181.442513 115.119363 
L 181.673178 115.119363 
L 398.95571 171.870971 
L 399.444056 171.870971 
L 399.565881 165.959345 
L 400.958921 165.959345 
L 402.569964 187.241198 
L 403.064588 187.241198 
L 403.185803 221.528627 
L 404.527083 221.528627 
L 404.648207 232.169554 
L 406.317824 232.169554 
L 406.429166 229.804903 
L 407.65556 229.804903 
L 407.777133 221.528627 
L 408.08819 221.528627 
L 408.203398 208.52305 
L 411.642862 208.52305 
L 411.754865 221.528627 
L 413.864264 221.528627 
L 413.986177 208.52305 
L 414.540418 208.52305 
L 414.662842 187.241198 
L 416.356035 187.241198 
L 416.478206 208.52305 
L 420.27685 208.52305 
L 420.392673 221.528627 
L 422.667341 221.528627 
L 422.789655 245.17513 
L 425.796506 245.17513 
L 425.918809 232.169554 
L 426.287867 232.169554 
L 426.40859 245.17513 
L 431.838824 245.17513 
L 431.959938 195.517474 
L 432.009091 195.517474 
L 432.009091 195.517474 
" style="fill:none;stroke:#ff7f0e;stroke-linecap:square;stroke-width:1.5;"/>
   </g>
   <g id="patch_3">
    <path d="M 54.2 255.638708 
L 54.2 25.44 
" style="fill:none;stroke:#000000;stroke-linecap:square;stroke-linejoin:miter;stroke-width:0.8;"/>
   </g>
   <g id="patch_4">
    <path d="M 450 255.638708 
L 450 25.44 
" style="fill:none;stroke:#000000;stroke-linecap:square;stroke-linejoin:miter;stroke-width:0.8;"/>
   </g>
   <g id="patch_5">
    <path d="M 54.2 255.638708 
L 450 255.638708 
" style="fill:none;stroke:#000000;stroke-linecap:square;stroke-linejoin:miter;stroke-width:0.8;"/>
   </g>
   <g id="patch_6">
    <path d="M 54.2 25.44 
L 450 25.44 
" style="fill:none;stroke:#000000;stroke-linecap:square;stroke-linejoin:miter;stroke-width:0.8;"/>
   </g>
   <g id="text_17">
    <!-- Lake Shoecraft - Water and Air Temperature -->
    <g transform="translate(120.481563 19.44)scale(0.12 -0.12)">
     <defs>
      <path d="M 9.8125 72.90625 
L 19.671875 72.90625 
L 19.671875 8.296875 
L 55.171875 8.296875 
L 55.171875 0 
L 9.8125 0 
z
" id="DejaVuSans-76"/>
      <path d="M 9.078125 75.984375 
L 18.109375 75.984375 
L 18.109375 31.109375 
L 44.921875 54.6875 
L 56.390625 54.6875 
L 27.390625 29.109375 
L 57.625 0 
L 45.90625 0 
L 18.109375 26.703125 
L 18.109375 0 
L 9.078125 0 
z
" id="DejaVuSans-107"/>
      <path d="M 53.515625 70.515625 
L 53.515625 60.890625 
Q 47.90625 63.578125 42.921875 64.890625 
Q 37.9375 66.21875 33.296875 66.21875 
Q 25.25 66.21875 20.875 63.09375 
Q 16.5 59.96875 16.5 54.203125 
Q 16.5 49.359375 19.40625 46.890625 
Q 22.3125 44.4375 30.421875 42.921875 
L 36.375 41.703125 
Q 47.40625 39.59375 52.65625 34.296875 
Q 57.90625 29 57.90625 20.125 
Q 57.90625 9.515625 50.796875 4.046875 
Q 43.703125 -1.421875 29.984375 -1.421875 
Q 24.8125 -1.421875 18.96875 -0.25 
Q 13.140625 0.921875 6.890625 3.21875 
L 6.890625 13.375 
Q 12.890625 10.015625 18.65625 8.296875 
Q 24.421875 6.59375 29.984375 6.59375 
Q 38.421875 6.59375 43.015625 9.90625 
Q 47.609375 13.234375 47.609375 19.390625 
Q 47.609375 24.75 44.3125 27.78125 
Q 41.015625 30.8125 33.5 32.328125 
L 27.484375 33.5 
Q 16.453125 35.6875 11.515625 40.375 
Q 6.59375 45.0625 6.59375 53.421875 
Q 6.59375 63.09375 13.40625 68.65625 
Q 20.21875 74.21875 32.171875 74.21875 
Q 37.3125 74.21875 42.625 73.28125 
Q 47.953125 72.359375 53.515625 70.515625 
z
" id="DejaVuSans-83"/>
      <path d="M 54.890625 33.015625 
L 54.890625 0 
L 45.90625 0 
L 45.90625 32.71875 
Q 45.90625 40.484375 42.875 44.328125 
Q 39.84375 48.1875 33.796875 48.1875 
Q 26.515625 48.1875 22.3125 43.546875 
Q 18.109375 38.921875 18.109375 30.90625 
L 18.109375 0 
L 9.078125 0 
L 9.078125 75.984375 
L 18.109375 75.984375 
L 18.109375 46.1875 
Q 21.34375 51.125 25.703125 53.5625 
Q 30.078125 56 35.796875 56 
Q 45.21875 56 50.046875 50.171875 
Q 54.890625 44.34375 54.890625 33.015625 
z
" id="DejaVuSans-104"/>
      <path d="M 30.609375 48.390625 
Q 23.390625 48.390625 19.1875 42.75 
Q 14.984375 37.109375 14.984375 27.296875 
Q 14.984375 17.484375 19.15625 11.84375 
Q 23.34375 6.203125 30.609375 6.203125 
Q 37.796875 6.203125 41.984375 11.859375 
Q 46.1875 17.53125 46.1875 27.296875 
Q 46.1875 37.015625 41.984375 42.703125 
Q 37.796875 48.390625 30.609375 48.390625 
z
M 30.609375 56 
Q 42.328125 56 49.015625 48.375 
Q 55.71875 40.765625 55.71875 27.296875 
Q 55.71875 13.875 49.015625 6.21875 
Q 42.328125 -1.421875 30.609375 -1.421875 
Q 18.84375 -1.421875 12.171875 6.21875 
Q 5.515625 13.875 5.515625 27.296875 
Q 5.515625 40.765625 12.171875 48.375 
Q 18.84375 56 30.609375 56 
z
" id="DejaVuSans-111"/>
      <path d="M 48.78125 52.59375 
L 48.78125 44.1875 
Q 44.96875 46.296875 41.140625 47.34375 
Q 37.3125 48.390625 33.40625 48.390625 
Q 24.65625 48.390625 19.8125 42.84375 
Q 14.984375 37.3125 14.984375 27.296875 
Q 14.984375 17.28125 19.8125 11.734375 
Q 24.65625 6.203125 33.40625 6.203125 
Q 37.3125 6.203125 41.140625 7.25 
Q 44.96875 8.296875 48.78125 10.40625 
L 48.78125 2.09375 
Q 45.015625 0.34375 40.984375 -0.53125 
Q 36.96875 -1.421875 32.421875 -1.421875 
Q 20.0625 -1.421875 12.78125 6.34375 
Q 5.515625 14.109375 5.515625 27.296875 
Q 5.515625 40.671875 12.859375 48.328125 
Q 20.21875 56 33.015625 56 
Q 37.15625 56 41.109375 55.140625 
Q 45.0625 54.296875 48.78125 52.59375 
z
" id="DejaVuSans-99"/>
      <path d="M 37.109375 75.984375 
L 37.109375 68.5 
L 28.515625 68.5 
Q 23.6875 68.5 21.796875 66.546875 
Q 19.921875 64.59375 19.921875 59.515625 
L 19.921875 54.6875 
L 34.71875 54.6875 
L 34.71875 47.703125 
L 19.921875 47.703125 
L 19.921875 0 
L 10.890625 0 
L 10.890625 47.703125 
L 2.296875 47.703125 
L 2.296875 54.6875 
L 10.890625 54.6875 
L 10.890625 58.5 
Q 10.890625 67.625 15.140625 71.796875 
Q 19.390625 75.984375 28.609375 75.984375 
z
" id="DejaVuSans-102"/>
      <path d="M 3.328125 72.90625 
L 13.28125 72.90625 
L 28.609375 11.28125 
L 43.890625 72.90625 
L 54.984375 72.90625 
L 70.3125 11.28125 
L 85.59375 72.90625 
L 95.609375 72.90625 
L 77.296875 0 
L 64.890625 0 
L 49.515625 63.28125 
L 33.984375 0 
L 21.578125 0 
z
" id="DejaVuSans-87"/>
      <path d="M 54.890625 33.015625 
L 54.890625 0 
L 45.90625 0 
L 45.90625 32.71875 
Q 45.90625 40.484375 42.875 44.328125 
Q 39.84375 48.1875 33.796875 48.1875 
Q 26.515625 48.1875 22.3125 43.546875 
Q 18.109375 38.921875 18.109375 30.90625 
L 18.109375 0 
L 9.078125 0 
L 9.078125 54.6875 
L 18.109375 54.6875 
L 18.109375 46.1875 
Q 21.34375 51.125 25.703125 53.5625 
Q 30.078125 56 35.796875 56 
Q 45.21875 56 50.046875 50.171875 
Q 54.890625 44.34375 54.890625 33.015625 
z
" id="DejaVuSans-110"/>
      <path d="M 45.40625 46.390625 
L 45.40625 75.984375 
L 54.390625 75.984375 
L 54.390625 0 
L 45.40625 0 
L 45.40625 8.203125 
Q 42.578125 3.328125 38.25 0.953125 
Q 33.9375 -1.421875 27.875 -1.421875 
Q 17.96875 -1.421875 11.734375 6.484375 
Q 5.515625 14.40625 5.515625 27.296875 
Q 5.515625 40.1875 11.734375 48.09375 
Q 17.96875 56 27.875 56 
Q 33.9375 56 38.25 53.625 
Q 42.578125 51.265625 45.40625 46.390625 
z
M 14.796875 27.296875 
Q 14.796875 17.390625 18.875 11.75 
Q 22.953125 6.109375 30.078125 6.109375 
Q 37.203125 6.109375 41.296875 11.75 
Q 45.40625 17.390625 45.40625 27.296875 
Q 45.40625 37.203125 41.296875 42.84375 
Q 37.203125 48.484375 30.078125 48.484375 
Q 22.953125 48.484375 18.875 42.84375 
Q 14.796875 37.203125 14.796875 27.296875 
z
" id="DejaVuSans-100"/>
      <path d="M 34.1875 63.1875 
L 20.796875 26.90625 
L 47.609375 26.90625 
z
M 28.609375 72.90625 
L 39.796875 72.90625 
L 67.578125 0 
L 57.328125 0 
L 50.6875 18.703125 
L 17.828125 18.703125 
L 11.1875 0 
L 0.78125 0 
z
" id="DejaVuSans-65"/>
      <path d="M 9.421875 54.6875 
L 18.40625 54.6875 
L 18.40625 0 
L 9.421875 0 
z
M 9.421875 75.984375 
L 18.40625 75.984375 
L 18.40625 64.59375 
L 9.421875 64.59375 
z
" id="DejaVuSans-105"/>
     </defs>
     <use xlink:href="#DejaVuSans-76"/>
     <use x="55.712891" xlink:href="#DejaVuSans-97"/>
     <use x="116.992188" xlink:href="#DejaVuSans-107"/>
     <use x="171.277344" xlink:href="#DejaVuSans-101"/>
     <use x="232.800781" xlink:href="#DejaVuSans-32"/>
     <use x="264.587891" xlink:href="#DejaVuSans-83"/>
     <use x="328.064453" xlink:href="#DejaVuSans-104"/>
     <use x="391.443359" xlink:href="#DejaVuSans-111"/>
     <use x="452.625" xlink:href="#DejaVuSans-101"/>
     <use x="514.148438" xlink:href="#DejaVuSans-99"/>
     <use x="569.128906" xlink:href="#DejaVuSans-114"/>
     <use x="610.242188" xlink:href="#DejaVuSans-97"/>
     <use x="671.521484" xlink:href="#DejaVuSans-102"/>
     <use x="704.976562" xlink:href="#DejaVuSans-116"/>
     <use x="744.185547" xlink:href="#DejaVuSans-32"/>
     <use x="775.972656" xlink:href="#DejaVuSans-45"/>
     <use x="812.056641" xlink:href="#DejaVuSans-32"/>
     <use x="843.84375" xlink:href="#DejaVuSans-87"/>
     <use x="936.345703" xlink:href="#DejaVuSans-97"/>
     <use x="997.625" xlink:href="#DejaVuSans-116"/>
     <use x="1036.833984" xlink:href="#DejaVuSans-101"/>
     <use x="1098.357422" xlink:href="#DejaVuSans-114"/>
     <use x="1139.470703" xlink:href="#DejaVuSans-32"/>
     <use x="1171.257812" xlink:href="#DejaVuSans-97"/>
     <use x="1232.537109" xlink:href="#DejaVuSans-110"/>
     <use x="1295.916016" xlink:href="#DejaVuSans-100"/>
     <use x="1359.392578" xlink:href="#DejaVuSans-32"/>
     <use x="1391.179688" xlink:href="#DejaVuSans-65"/>
     <use x="1459.587891" xlink:href="#DejaVuSans-105"/>
     <use x="1487.371094" xlink:href="#DejaVuSans-114"/>
     <use x="1528.484375" xlink:href="#DejaVuSans-32"/>
     <use x="1560.271484" xlink:href="#DejaVuSans-84"/>
     <use x="1604.355469" xlink:href="#DejaVuSans-101"/>
     <use x="1665.878906" xlink:href="#DejaVuSans-109"/>
     <use x="1763.291016" xlink:href="#DejaVuSans-112"/>
     <use x="1826.767578" xlink:href="#DejaVuSans-101"/>
     <use x="1888.291016" xlink:href="#DejaVuSans-114"/>
     <use x="1929.404297" xlink:href="#DejaVuSans-97"/>
     <use x="1990.683594" xlink:href="#DejaVuSans-116"/>
     <use x="2029.892578" xlink:href="#DejaVuSans-117"/>
     <use x="2093.271484" xlink:href="#DejaVuSans-114"/>
     <use x="2132.134766" xlink:href="#DejaVuSans-101"/>
    </g>
   </g>
   <g id="legend_1">
    <g id="patch_7">
     <path d="M 357.890625 62.79625 
L 443 62.79625 
Q 445 62.79625 445 60.79625 
L 445 32.44 
Q 445 30.44 443 30.44 
L 357.890625 30.44 
Q 355.890625 30.44 355.890625 32.44 
L 355.890625 60.79625 
Q 355.890625 62.79625 357.890625 62.79625 
z
" style="fill:#ffffff;opacity:0.8;stroke:#cccccc;stroke-linejoin:miter;"/>
    </g>
    <g id="line2d_31">
     <path d="M 359.890625 38.538437 
L 379.890625 38.538437 
" style="fill:none;stroke:#1f77b4;stroke-linecap:square;stroke-width:1.5;"/>
    </g>
    <g id="line2d_32"/>
    <g id="text_18">
     <!-- Lake Temp -->
     <g transform="translate(387.890625 42.038437)scale(0.1 -0.1)">
      <use xlink:href="#DejaVuSans-76"/>
      <use x="55.712891" xlink:href="#DejaVuSans-97"/>
      <use x="116.992188" xlink:href="#DejaVuSans-107"/>
      <use x="171.277344" xlink:href="#DejaVuSans-101"/>
      <use x="232.800781" xlink:href="#DejaVuSans-32"/>
      <use x="264.587891" xlink:href="#DejaVuSans-84"/>
      <use x="308.671875" xlink:href="#DejaVuSans-101"/>
      <use x="370.195312" xlink:href="#DejaVuSans-109"/>
      <use x="467.607422" xlink:href="#DejaVuSans-112"/>
     </g>
    </g>
    <g id="line2d_33">
     <path d="M 359.890625 53.216562 
L 379.890625 53.216562 
" style="fill:none;stroke:#ff7f0e;stroke-linecap:square;stroke-width:1.5;"/>
    </g>
    <g id="line2d_34"/>
    <g id="text_19">
     <!-- Air Temp -->
     <g transform="translate(387.890625 56.716562)scale(0.1 -0.1)">
      <use xlink:href="#DejaVuSans-65"/>
      <use x="68.408203" xlink:href="#DejaVuSans-105"/>
      <use x="96.191406" xlink:href="#DejaVuSans-114"/>
      <use x="137.304688" xlink:href="#DejaVuSans-32"/>
      <use x="169.091797" xlink:href="#DejaVuSans-84"/>
      <use x="213.175781" xlink:href="#DejaVuSans-101"/>
      <use x="274.699219" xlink:href="#DejaVuSans-109"/>
      <use x="372.111328" xlink:href="#DejaVuSans-112"/>
     </g>
    </g>
   </g>
  </g>
 </g>
 <defs>
  <clipPath id="p84ce6935a9">
   <rect height="230.198708" width="395.8" x="54.2" y="25.44"/>
  </clipPath>
 </defs>
</svg>
