<?xml version="1.0" encoding="utf-8" standalone="no"?>
<!DOCTYPE svg PUBLIC "-//W3C//DTD SVG 1.1//EN"
  "http://www.w3.org/Graphics/SVG/1.1/DTD/svg11.dtd">
<!-- Created with matplotlib (https://matplotlib.org/) -->
<svg height="345.6pt" version="1.1" viewBox="0 0 460.8 345.6" width="460.8pt" xmlns="http://www.w3.org/2000/svg" xmlns:xlink="http://www.w3.org/1999/xlink">
 <metadata>
  <rdf:RDF xmlns:cc="http://creativecommons.org/ns#" xmlns:dc="http://purl.org/dc/elements/1.1/" xmlns:rdf="http://www.w3.org/1999/02/22-rdf-syntax-ns#">
   <cc:Work>
    <dc:type rdf:resource="http://purl.org/dc/dcmitype/StillImage"/>
    <dc:date>2024-11-18T08:54:32.716188</dc:date>
    <dc:format>image/svg+xml</dc:format>
    <dc:creator>
     <cc:Agent>
      <dc:title>Matplotlib v3.3.2, https://matplotlib.org/</dc:title>
     </cc:Agent>
    </dc:creator>
   </cc:Work>
  </rdf:RDF>
 </metadata>
 <defs>
  <style type="text/css">*{stroke-linecap:butt;stroke-linejoin:round;}</style>
 </defs>
 <g id="figure_1">
  <g id="patch_1">
   <path d="M 0 345.6 
L 460.8 345.6 
L 460.8 0 
L 0 0 
z
" style="fill:none;"/>
  </g>
  <g id="axes_1">
   <g id="patch_2">
    <path d="M 54.2 255.638708 
L 450 255.638708 
L 450 25.44 
L 54.2 25.44 
z
" style="fill:none;"/>
   </g>
   <g id="matplotlib.axis_1">
    <g id="xtick_1">
     <g id="line2d_1">
      <path clip-path="url(#pa517b93c80)" d="M 89.025246 255.638708 
L 89.025246 25.44 
" style="fill:none;stroke:#b0b0b0;stroke-linecap:square;stroke-width:0.8;"/>
     </g>
     <g id="line2d_2">
      <defs>
       <path d="M 0 0 
L 0 3.5 
" id="m7b629b6b60" style="stroke:#000000;stroke-width:0.8;"/>
      </defs>
      <g>
       <use style="stroke:#000000;stroke-width:0.8;" x="89.025246" xlink:href="#m7b629b6b60" y="255.638708"/>
      </g>
     </g>
     <g id="text_1">
      <!-- 2024-10-29 -->
      <g transform="translate(81.679853 319.848351)rotate(-70)scale(0.1 -0.1)">
       <defs>
        <path d="M 19.1875 8.296875 
L 53.609375 8.296875 
L 53.609375 0 
L 7.328125 0 
L 7.328125 8.296875 
Q 12.9375 14.109375 22.625 23.890625 
Q 32.328125 33.6875 34.8125 36.53125 
Q 39.546875 41.84375 41.421875 45.53125 
Q 43.3125 49.21875 43.3125 52.78125 
Q 43.3125 58.59375 39.234375 62.25 
Q 35.15625 65.921875 28.609375 65.921875 
Q 23.96875 65.921875 18.8125 64.3125 
Q 13.671875 62.703125 7.8125 59.421875 
L 7.8125 69.390625 
Q 13.765625 71.78125 18.9375 73 
Q 24.125 74.21875 28.421875 74.21875 
Q 39.75 74.21875 46.484375 68.546875 
Q 53.21875 62.890625 53.21875 53.421875 
Q 53.21875 48.921875 51.53125 44.890625 
Q 49.859375 40.875 45.40625 35.40625 
Q 44.1875 33.984375 37.640625 27.21875 
Q 31.109375 20.453125 19.1875 8.296875 
z
" id="DejaVuSans-50"/>
        <path d="M 31.78125 66.40625 
Q 24.171875 66.40625 20.328125 58.90625 
Q 16.5 51.421875 16.5 36.375 
Q 16.5 21.390625 20.328125 13.890625 
Q 24.171875 6.390625 31.78125 6.390625 
Q 39.453125 6.390625 43.28125 13.890625 
Q 47.125 21.390625 47.125 36.375 
Q 47.125 51.421875 43.28125 58.90625 
Q 39.453125 66.40625 31.78125 66.40625 
z
M 31.78125 74.21875 
Q 44.046875 74.21875 50.515625 64.515625 
Q 56.984375 54.828125 56.984375 36.375 
Q 56.984375 17.96875 50.515625 8.265625 
Q 44.046875 -1.421875 31.78125 -1.421875 
Q 19.53125 -1.421875 13.0625 8.265625 
Q 6.59375 17.96875 6.59375 36.375 
Q 6.59375 54.828125 13.0625 64.515625 
Q 19.53125 74.21875 31.78125 74.21875 
z
" id="DejaVuSans-48"/>
        <path d="M 37.796875 64.3125 
L 12.890625 25.390625 
L 37.796875 25.390625 
z
M 35.203125 72.90625 
L 47.609375 72.90625 
L 47.609375 25.390625 
L 58.015625 25.390625 
L 58.015625 17.1875 
L 47.609375 17.1875 
L 47.609375 0 
L 37.796875 0 
L 37.796875 17.1875 
L 4.890625 17.1875 
L 4.890625 26.703125 
z
" id="DejaVuSans-52"/>
        <path d="M 4.890625 31.390625 
L 31.203125 31.390625 
L 31.203125 23.390625 
L 4.890625 23.390625 
z
" id="DejaVuSans-45"/>
        <path d="M 12.40625 8.296875 
L 28.515625 8.296875 
L 28.515625 63.921875 
L 10.984375 60.40625 
L 10.984375 69.390625 
L 28.421875 72.90625 
L 38.28125 72.90625 
L 38.28125 8.296875 
L 54.390625 8.296875 
L 54.390625 0 
L 12.40625 0 
z
" id="DejaVuSans-49"/>
        <path d="M 10.984375 1.515625 
L 10.984375 10.5 
Q 14.703125 8.734375 18.5 7.8125 
Q 22.3125 6.890625 25.984375 6.890625 
Q 35.75 6.890625 40.890625 13.453125 
Q 46.046875 20.015625 46.78125 33.40625 
Q 43.953125 29.203125 39.59375 26.953125 
Q 35.25 24.703125 29.984375 24.703125 
Q 19.046875 24.703125 12.671875 31.3125 
Q 6.296875 37.9375 6.296875 49.421875 
Q 6.296875 60.640625 12.9375 67.421875 
Q 19.578125 74.21875 30.609375 74.21875 
Q 43.265625 74.21875 49.921875 64.515625 
Q 56.59375 54.828125 56.59375 36.375 
Q 56.59375 19.140625 48.40625 8.859375 
Q 40.234375 -1.421875 26.421875 -1.421875 
Q 22.703125 -1.421875 18.890625 -0.6875 
Q 15.09375 0.046875 10.984375 1.515625 
z
M 30.609375 32.421875 
Q 37.25 32.421875 41.125 36.953125 
Q 45.015625 41.5 45.015625 49.421875 
Q 45.015625 57.28125 41.125 61.84375 
Q 37.25 66.40625 30.609375 66.40625 
Q 23.96875 66.40625 20.09375 61.84375 
Q 16.21875 57.28125 16.21875 49.421875 
Q 16.21875 41.5 20.09375 36.953125 
Q 23.96875 32.421875 30.609375 32.421875 
z
" id="DejaVuSans-57"/>
       </defs>
       <use xlink:href="#DejaVuSans-50"/>
       <use x="63.623047" xlink:href="#DejaVuSans-48"/>
       <use x="127.246094" xlink:href="#DejaVuSans-50"/>
       <use x="190.869141" xlink:href="#DejaVuSans-52"/>
       <use x="254.492188" xlink:href="#DejaVuSans-45"/>
       <use x="290.576172" xlink:href="#DejaVuSans-49"/>
       <use x="354.199219" xlink:href="#DejaVuSans-48"/>
       <use x="417.822266" xlink:href="#DejaVuSans-45"/>
       <use x="453.90625" xlink:href="#DejaVuSans-50"/>
       <use x="517.529297" xlink:href="#DejaVuSans-57"/>
      </g>
     </g>
    </g>
    <g id="xtick_2">
     <g id="line2d_3">
      <path clip-path="url(#pa517b93c80)" d="M 139.535647 255.638708 
L 139.535647 25.44 
" style="fill:none;stroke:#b0b0b0;stroke-linecap:square;stroke-width:0.8;"/>
     </g>
     <g id="line2d_4">
      <g>
       <use style="stroke:#000000;stroke-width:0.8;" x="139.535647" xlink:href="#m7b629b6b60" y="255.638708"/>
      </g>
     </g>
     <g id="text_2">
      <!-- 2024-11-01 -->
      <g transform="translate(132.190254 319.848351)rotate(-70)scale(0.1 -0.1)">
       <use xlink:href="#DejaVuSans-50"/>
       <use x="63.623047" xlink:href="#DejaVuSans-48"/>
       <use x="127.246094" xlink:href="#DejaVuSans-50"/>
       <use x="190.869141" xlink:href="#DejaVuSans-52"/>
       <use x="254.492188" xlink:href="#DejaVuSans-45"/>
       <use x="290.576172" xlink:href="#DejaVuSans-49"/>
       <use x="354.199219" xlink:href="#DejaVuSans-49"/>
       <use x="417.822266" xlink:href="#DejaVuSans-45"/>
       <use x="453.90625" xlink:href="#DejaVuSans-48"/>
       <use x="517.529297" xlink:href="#DejaVuSans-49"/>
      </g>
     </g>
    </g>
    <g id="xtick_3">
     <g id="line2d_5">
      <path clip-path="url(#pa517b93c80)" d="M 206.882848 255.638708 
L 206.882848 25.44 
" style="fill:none;stroke:#b0b0b0;stroke-linecap:square;stroke-width:0.8;"/>
     </g>
     <g id="line2d_6">
      <g>
       <use style="stroke:#000000;stroke-width:0.8;" x="206.882848" xlink:href="#m7b629b6b60" y="255.638708"/>
      </g>
     </g>
     <g id="text_3">
      <!-- 2024-11-05 -->
      <g transform="translate(199.537455 319.848351)rotate(-70)scale(0.1 -0.1)">
       <defs>
        <path d="M 10.796875 72.90625 
L 49.515625 72.90625 
L 49.515625 64.59375 
L 19.828125 64.59375 
L 19.828125 46.734375 
Q 21.96875 47.46875 24.109375 47.828125 
Q 26.265625 48.1875 28.421875 48.1875 
Q 40.625 48.1875 47.75 41.5 
Q 54.890625 34.8125 54.890625 23.390625 
Q 54.890625 11.625 47.5625 5.09375 
Q 40.234375 -1.421875 26.90625 -1.421875 
Q 22.3125 -1.421875 17.546875 -0.640625 
Q 12.796875 0.140625 7.71875 1.703125 
L 7.71875 11.625 
Q 12.109375 9.234375 16.796875 8.0625 
Q 21.484375 6.890625 26.703125 6.890625 
Q 35.15625 6.890625 40.078125 11.328125 
Q 45.015625 15.765625 45.015625 23.390625 
Q 45.015625 31 40.078125 35.4375 
Q 35.15625 39.890625 26.703125 39.890625 
Q 22.75 39.890625 18.8125 39.015625 
Q 14.890625 38.140625 10.796875 36.28125 
z
" id="DejaVuSans-53"/>
       </defs>
       <use xlink:href="#DejaVuSans-50"/>
       <use x="63.623047" xlink:href="#DejaVuSans-48"/>
       <use x="127.246094" xlink:href="#DejaVuSans-50"/>
       <use x="190.869141" xlink:href="#DejaVuSans-52"/>
       <use x="254.492188" xlink:href="#DejaVuSans-45"/>
       <use x="290.576172" xlink:href="#DejaVuSans-49"/>
       <use x="354.199219" xlink:href="#DejaVuSans-49"/>
       <use x="417.822266" xlink:href="#DejaVuSans-45"/>
       <use x="453.90625" xlink:href="#DejaVuSans-48"/>
       <use x="517.529297" xlink:href="#DejaVuSans-53"/>
      </g>
     </g>
    </g>
    <g id="xtick_4">
     <g id="line2d_7">
      <path clip-path="url(#pa517b93c80)" d="M 274.230048 255.638708 
L 274.230048 25.44 
" style="fill:none;stroke:#b0b0b0;stroke-linecap:square;stroke-width:0.8;"/>
     </g>
     <g id="line2d_8">
      <g>
       <use style="stroke:#000000;stroke-width:0.8;" x="274.230048" xlink:href="#m7b629b6b60" y="255.638708"/>
      </g>
     </g>
     <g id="text_4">
      <!-- 2024-11-09 -->
      <g transform="translate(266.884656 319.848351)rotate(-70)scale(0.1 -0.1)">
       <use xlink:href="#DejaVuSans-50"/>
       <use x="63.623047" xlink:href="#DejaVuSans-48"/>
       <use x="127.246094" xlink:href="#DejaVuSans-50"/>
       <use x="190.869141" xlink:href="#DejaVuSans-52"/>
       <use x="254.492188" xlink:href="#DejaVuSans-45"/>
       <use x="290.576172" xlink:href="#DejaVuSans-49"/>
       <use x="354.199219" xlink:href="#DejaVuSans-49"/>
       <use x="417.822266" xlink:href="#DejaVuSans-45"/>
       <use x="453.90625" xlink:href="#DejaVuSans-48"/>
       <use x="517.529297" xlink:href="#DejaVuSans-57"/>
      </g>
     </g>
    </g>
    <g id="xtick_5">
     <g id="line2d_9">
      <path clip-path="url(#pa517b93c80)" d="M 341.577249 255.638708 
L 341.577249 25.44 
" style="fill:none;stroke:#b0b0b0;stroke-linecap:square;stroke-width:0.8;"/>
     </g>
     <g id="line2d_10">
      <g>
       <use style="stroke:#000000;stroke-width:0.8;" x="341.577249" xlink:href="#m7b629b6b60" y="255.638708"/>
      </g>
     </g>
     <g id="text_5">
      <!-- 2024-11-13 -->
      <g transform="translate(334.231857 319.848351)rotate(-70)scale(0.1 -0.1)">
       <defs>
        <path d="M 40.578125 39.3125 
Q 47.65625 37.796875 51.625 33 
Q 55.609375 28.21875 55.609375 21.1875 
Q 55.609375 10.40625 48.1875 4.484375 
Q 40.765625 -1.421875 27.09375 -1.421875 
Q 22.515625 -1.421875 17.65625 -0.515625 
Q 12.796875 0.390625 7.625 2.203125 
L 7.625 11.71875 
Q 11.71875 9.328125 16.59375 8.109375 
Q 21.484375 6.890625 26.8125 6.890625 
Q 36.078125 6.890625 40.9375 10.546875 
Q 45.796875 14.203125 45.796875 21.1875 
Q 45.796875 27.640625 41.28125 31.265625 
Q 36.765625 34.90625 28.71875 34.90625 
L 20.21875 34.90625 
L 20.21875 43.015625 
L 29.109375 43.015625 
Q 36.375 43.015625 40.234375 45.921875 
Q 44.09375 48.828125 44.09375 54.296875 
Q 44.09375 59.90625 40.109375 62.90625 
Q 36.140625 65.921875 28.71875 65.921875 
Q 24.65625 65.921875 20.015625 65.03125 
Q 15.375 64.15625 9.8125 62.3125 
L 9.8125 71.09375 
Q 15.4375 72.65625 20.34375 73.4375 
Q 25.25 74.21875 29.59375 74.21875 
Q 40.828125 74.21875 47.359375 69.109375 
Q 53.90625 64.015625 53.90625 55.328125 
Q 53.90625 49.265625 50.4375 45.09375 
Q 46.96875 40.921875 40.578125 39.3125 
z
" id="DejaVuSans-51"/>
       </defs>
       <use xlink:href="#DejaVuSans-50"/>
       <use x="63.623047" xlink:href="#DejaVuSans-48"/>
       <use x="127.246094" xlink:href="#DejaVuSans-50"/>
       <use x="190.869141" xlink:href="#DejaVuSans-52"/>
       <use x="254.492188" xlink:href="#DejaVuSans-45"/>
       <use x="290.576172" xlink:href="#DejaVuSans-49"/>
       <use x="354.199219" xlink:href="#DejaVuSans-49"/>
       <use x="417.822266" xlink:href="#DejaVuSans-45"/>
       <use x="453.90625" xlink:href="#DejaVuSans-49"/>
       <use x="517.529297" xlink:href="#DejaVuSans-51"/>
      </g>
     </g>
    </g>
    <g id="xtick_6">
     <g id="line2d_11">
      <path clip-path="url(#pa517b93c80)" d="M 408.92445 255.638708 
L 408.92445 25.44 
" style="fill:none;stroke:#b0b0b0;stroke-linecap:square;stroke-width:0.8;"/>
     </g>
     <g id="line2d_12">
      <g>
       <use style="stroke:#000000;stroke-width:0.8;" x="408.92445" xlink:href="#m7b629b6b60" y="255.638708"/>
      </g>
     </g>
     <g id="text_6">
      <!-- 2024-11-17 -->
      <g transform="translate(401.579058 319.848351)rotate(-70)scale(0.1 -0.1)">
       <defs>
        <path d="M 8.203125 72.90625 
L 55.078125 72.90625 
L 55.078125 68.703125 
L 28.609375 0 
L 18.3125 0 
L 43.21875 64.59375 
L 8.203125 64.59375 
z
" id="DejaVuSans-55"/>
       </defs>
       <use xlink:href="#DejaVuSans-50"/>
       <use x="63.623047" xlink:href="#DejaVuSans-48"/>
       <use x="127.246094" xlink:href="#DejaVuSans-50"/>
       <use x="190.869141" xlink:href="#DejaVuSans-52"/>
       <use x="254.492188" xlink:href="#DejaVuSans-45"/>
       <use x="290.576172" xlink:href="#DejaVuSans-49"/>
       <use x="354.199219" xlink:href="#DejaVuSans-49"/>
       <use x="417.822266" xlink:href="#DejaVuSans-45"/>
       <use x="453.90625" xlink:href="#DejaVuSans-49"/>
       <use x="517.529297" xlink:href="#DejaVuSans-55"/>
      </g>
     </g>
    </g>
    <g id="text_7">
     <!-- Date -->
     <g transform="translate(240.149219 332.158083)scale(0.1 -0.1)">
      <defs>
       <path d="M 19.671875 64.796875 
L 19.671875 8.109375 
L 31.59375 8.109375 
Q 46.6875 8.109375 53.6875 14.9375 
Q 60.6875 21.78125 60.6875 36.53125 
Q 60.6875 51.171875 53.6875 57.984375 
Q 46.6875 64.796875 31.59375 64.796875 
z
M 9.8125 72.90625 
L 30.078125 72.90625 
Q 51.265625 72.90625 61.171875 64.09375 
Q 71.09375 55.28125 71.09375 36.53125 
Q 71.09375 17.671875 61.125 8.828125 
Q 51.171875 0 30.078125 0 
L 9.8125 0 
z
" id="DejaVuSans-68"/>
       <path d="M 34.28125 27.484375 
Q 23.390625 27.484375 19.1875 25 
Q 14.984375 22.515625 14.984375 16.5 
Q 14.984375 11.71875 18.140625 8.90625 
Q 21.296875 6.109375 26.703125 6.109375 
Q 34.1875 6.109375 38.703125 11.40625 
Q 43.21875 16.703125 43.21875 25.484375 
L 43.21875 27.484375 
z
M 52.203125 31.203125 
L 52.203125 0 
L 43.21875 0 
L 43.21875 8.296875 
Q 40.140625 3.328125 35.546875 0.953125 
Q 30.953125 -1.421875 24.3125 -1.421875 
Q 15.921875 -1.421875 10.953125 3.296875 
Q 6 8.015625 6 15.921875 
Q 6 25.140625 12.171875 29.828125 
Q 18.359375 34.515625 30.609375 34.515625 
L 43.21875 34.515625 
L 43.21875 35.40625 
Q 43.21875 41.609375 39.140625 45 
Q 35.0625 48.390625 27.6875 48.390625 
Q 23 48.390625 18.546875 47.265625 
Q 14.109375 46.140625 10.015625 43.890625 
L 10.015625 52.203125 
Q 14.9375 54.109375 19.578125 55.046875 
Q 24.21875 56 28.609375 56 
Q 40.484375 56 46.34375 49.84375 
Q 52.203125 43.703125 52.203125 31.203125 
z
" id="DejaVuSans-97"/>
       <path d="M 18.3125 70.21875 
L 18.3125 54.6875 
L 36.8125 54.6875 
L 36.8125 47.703125 
L 18.3125 47.703125 
L 18.3125 18.015625 
Q 18.3125 11.328125 20.140625 9.421875 
Q 21.96875 7.515625 27.59375 7.515625 
L 36.8125 7.515625 
L 36.8125 0 
L 27.59375 0 
Q 17.1875 0 13.234375 3.875 
Q 9.28125 7.765625 9.28125 18.015625 
L 9.28125 47.703125 
L 2.6875 47.703125 
L 2.6875 54.6875 
L 9.28125 54.6875 
L 9.28125 70.21875 
z
" id="DejaVuSans-116"/>
       <path d="M 56.203125 29.59375 
L 56.203125 25.203125 
L 14.890625 25.203125 
Q 15.484375 15.921875 20.484375 11.0625 
Q 25.484375 6.203125 34.421875 6.203125 
Q 39.59375 6.203125 44.453125 7.46875 
Q 49.3125 8.734375 54.109375 11.28125 
L 54.109375 2.78125 
Q 49.265625 0.734375 44.1875 -0.34375 
Q 39.109375 -1.421875 33.890625 -1.421875 
Q 20.796875 -1.421875 13.15625 6.1875 
Q 5.515625 13.8125 5.515625 26.8125 
Q 5.515625 40.234375 12.765625 48.109375 
Q 20.015625 56 32.328125 56 
Q 43.359375 56 49.78125 48.890625 
Q 56.203125 41.796875 56.203125 29.59375 
z
M 47.21875 32.234375 
Q 47.125 39.59375 43.09375 43.984375 
Q 39.0625 48.390625 32.421875 48.390625 
Q 24.90625 48.390625 20.390625 44.140625 
Q 15.875 39.890625 15.1875 32.171875 
z
" id="DejaVuSans-101"/>
      </defs>
      <use xlink:href="#DejaVuSans-68"/>
      <use x="77.001953" xlink:href="#DejaVuSans-97"/>
      <use x="138.28125" xlink:href="#DejaVuSans-116"/>
      <use x="177.490234" xlink:href="#DejaVuSans-101"/>
     </g>
    </g>
   </g>
   <g id="matplotlib.axis_2">
    <g id="ytick_1">
     <g id="line2d_13">
      <path clip-path="url(#pa517b93c80)" d="M 54.2 249.774505 
L 450 249.774505 
" style="fill:none;stroke:#b0b0b0;stroke-linecap:square;stroke-width:0.8;"/>
     </g>
     <g id="line2d_14">
      <defs>
       <path d="M 0 0 
L -3.5 0 
" id="m99db064150" style="stroke:#000000;stroke-width:0.8;"/>
      </defs>
      <g>
       <use style="stroke:#000000;stroke-width:0.8;" x="54.2" xlink:href="#m99db064150" y="249.774505"/>
      </g>
     </g>
     <g id="text_8">
      <!-- 37.5 -->
      <g transform="translate(24.934375 253.573724)scale(0.1 -0.1)">
       <defs>
        <path d="M 10.6875 12.40625 
L 21 12.40625 
L 21 0 
L 10.6875 0 
z
" id="DejaVuSans-46"/>
       </defs>
       <use xlink:href="#DejaVuSans-51"/>
       <use x="63.623047" xlink:href="#DejaVuSans-55"/>
       <use x="127.246094" xlink:href="#DejaVuSans-46"/>
       <use x="159.033203" xlink:href="#DejaVuSans-53"/>
      </g>
     </g>
    </g>
    <g id="ytick_2">
     <g id="line2d_15">
      <path clip-path="url(#pa517b93c80)" d="M 54.2 221.028413 
L 450 221.028413 
" style="fill:none;stroke:#b0b0b0;stroke-linecap:square;stroke-width:0.8;"/>
     </g>
     <g id="line2d_16">
      <g>
       <use style="stroke:#000000;stroke-width:0.8;" x="54.2" xlink:href="#m99db064150" y="221.028413"/>
      </g>
     </g>
     <g id="text_9">
      <!-- 40.0 -->
      <g transform="translate(24.934375 224.827631)scale(0.1 -0.1)">
       <use xlink:href="#DejaVuSans-52"/>
       <use x="63.623047" xlink:href="#DejaVuSans-48"/>
       <use x="127.246094" xlink:href="#DejaVuSans-46"/>
       <use x="159.033203" xlink:href="#DejaVuSans-48"/>
      </g>
     </g>
    </g>
    <g id="ytick_3">
     <g id="line2d_17">
      <path clip-path="url(#pa517b93c80)" d="M 54.2 192.28232 
L 450 192.28232 
" style="fill:none;stroke:#b0b0b0;stroke-linecap:square;stroke-width:0.8;"/>
     </g>
     <g id="line2d_18">
      <g>
       <use style="stroke:#000000;stroke-width:0.8;" x="54.2" xlink:href="#m99db064150" y="192.28232"/>
      </g>
     </g>
     <g id="text_10">
      <!-- 42.5 -->
      <g transform="translate(24.934375 196.081539)scale(0.1 -0.1)">
       <use xlink:href="#DejaVuSans-52"/>
       <use x="63.623047" xlink:href="#DejaVuSans-50"/>
       <use x="127.246094" xlink:href="#DejaVuSans-46"/>
       <use x="159.033203" xlink:href="#DejaVuSans-53"/>
      </g>
     </g>
    </g>
    <g id="ytick_4">
     <g id="line2d_19">
      <path clip-path="url(#pa517b93c80)" d="M 54.2 163.536228 
L 450 163.536228 
" style="fill:none;stroke:#b0b0b0;stroke-linecap:square;stroke-width:0.8;"/>
     </g>
     <g id="line2d_20">
      <g>
       <use style="stroke:#000000;stroke-width:0.8;" x="54.2" xlink:href="#m99db064150" y="163.536228"/>
      </g>
     </g>
     <g id="text_11">
      <!-- 45.0 -->
      <g transform="translate(24.934375 167.335447)scale(0.1 -0.1)">
       <use xlink:href="#DejaVuSans-52"/>
       <use x="63.623047" xlink:href="#DejaVuSans-53"/>
       <use x="127.246094" xlink:href="#DejaVuSans-46"/>
       <use x="159.033203" xlink:href="#DejaVuSans-48"/>
      </g>
     </g>
    </g>
    <g id="ytick_5">
     <g id="line2d_21">
      <path clip-path="url(#pa517b93c80)" d="M 54.2 134.790136 
L 450 134.790136 
" style="fill:none;stroke:#b0b0b0;stroke-linecap:square;stroke-width:0.8;"/>
     </g>
     <g id="line2d_22">
      <g>
       <use style="stroke:#000000;stroke-width:0.8;" x="54.2" xlink:href="#m99db064150" y="134.790136"/>
      </g>
     </g>
     <g id="text_12">
      <!-- 47.5 -->
      <g transform="translate(24.934375 138.589354)scale(0.1 -0.1)">
       <use xlink:href="#DejaVuSans-52"/>
       <use x="63.623047" xlink:href="#DejaVuSans-55"/>
       <use x="127.246094" xlink:href="#DejaVuSans-46"/>
       <use x="159.033203" xlink:href="#DejaVuSans-53"/>
      </g>
     </g>
    </g>
    <g id="ytick_6">
     <g id="line2d_23">
      <path clip-path="url(#pa517b93c80)" d="M 54.2 106.044043 
L 450 106.044043 
" style="fill:none;stroke:#b0b0b0;stroke-linecap:square;stroke-width:0.8;"/>
     </g>
     <g id="line2d_24">
      <g>
       <use style="stroke:#000000;stroke-width:0.8;" x="54.2" xlink:href="#m99db064150" y="106.044043"/>
      </g>
     </g>
     <g id="text_13">
      <!-- 50.0 -->
      <g transform="translate(24.934375 109.843262)scale(0.1 -0.1)">
       <use xlink:href="#DejaVuSans-53"/>
       <use x="63.623047" xlink:href="#DejaVuSans-48"/>
       <use x="127.246094" xlink:href="#DejaVuSans-46"/>
       <use x="159.033203" xlink:href="#DejaVuSans-48"/>
      </g>
     </g>
    </g>
    <g id="ytick_7">
     <g id="line2d_25">
      <path clip-path="url(#pa517b93c80)" d="M 54.2 77.297951 
L 450 77.297951 
" style="fill:none;stroke:#b0b0b0;stroke-linecap:square;stroke-width:0.8;"/>
     </g>
     <g id="line2d_26">
      <g>
       <use style="stroke:#000000;stroke-width:0.8;" x="54.2" xlink:href="#m99db064150" y="77.297951"/>
      </g>
     </g>
     <g id="text_14">
      <!-- 52.5 -->
      <g transform="translate(24.934375 81.097169)scale(0.1 -0.1)">
       <use xlink:href="#DejaVuSans-53"/>
       <use x="63.623047" xlink:href="#DejaVuSans-50"/>
       <use x="127.246094" xlink:href="#DejaVuSans-46"/>
       <use x="159.033203" xlink:href="#DejaVuSans-53"/>
      </g>
     </g>
    </g>
    <g id="ytick_8">
     <g id="line2d_27">
      <path clip-path="url(#pa517b93c80)" d="M 54.2 48.551858 
L 450 48.551858 
" style="fill:none;stroke:#b0b0b0;stroke-linecap:square;stroke-width:0.8;"/>
     </g>
     <g id="line2d_28">
      <g>
       <use style="stroke:#000000;stroke-width:0.8;" x="54.2" xlink:href="#m99db064150" y="48.551858"/>
      </g>
     </g>
     <g id="text_15">
      <!-- 55.0 -->
      <g transform="translate(24.934375 52.351077)scale(0.1 -0.1)">
       <use xlink:href="#DejaVuSans-53"/>
       <use x="63.623047" xlink:href="#DejaVuSans-53"/>
       <use x="127.246094" xlink:href="#DejaVuSans-46"/>
       <use x="159.033203" xlink:href="#DejaVuSans-48"/>
      </g>
     </g>
    </g>
    <g id="text_16">
     <!-- Temperature [F] -->
     <g transform="translate(18.854688 180.575291)rotate(-90)scale(0.1 -0.1)">
      <defs>
       <path d="M -0.296875 72.90625 
L 61.375 72.90625 
L 61.375 64.59375 
L 35.5 64.59375 
L 35.5 0 
L 25.59375 0 
L 25.59375 64.59375 
L -0.296875 64.59375 
z
" id="DejaVuSans-84"/>
       <path d="M 52 44.1875 
Q 55.375 50.25 60.0625 53.125 
Q 64.75 56 71.09375 56 
Q 79.640625 56 84.28125 50.015625 
Q 88.921875 44.046875 88.921875 33.015625 
L 88.921875 0 
L 79.890625 0 
L 79.890625 32.71875 
Q 79.890625 40.578125 77.09375 44.375 
Q 74.3125 48.1875 68.609375 48.1875 
Q 61.625 48.1875 57.5625 43.546875 
Q 53.515625 38.921875 53.515625 30.90625 
L 53.515625 0 
L 44.484375 0 
L 44.484375 32.71875 
Q 44.484375 40.625 41.703125 44.40625 
Q 38.921875 48.1875 33.109375 48.1875 
Q 26.21875 48.1875 22.15625 43.53125 
Q 18.109375 38.875 18.109375 30.90625 
L 18.109375 0 
L 9.078125 0 
L 9.078125 54.6875 
L 18.109375 54.6875 
L 18.109375 46.1875 
Q 21.1875 51.21875 25.484375 53.609375 
Q 29.78125 56 35.6875 56 
Q 41.65625 56 45.828125 52.96875 
Q 50 49.953125 52 44.1875 
z
" id="DejaVuSans-109"/>
       <path d="M 18.109375 8.203125 
L 18.109375 -20.796875 
L 9.078125 -20.796875 
L 9.078125 54.6875 
L 18.109375 54.6875 
L 18.109375 46.390625 
Q 20.953125 51.265625 25.265625 53.625 
Q 29.59375 56 35.59375 56 
Q 45.5625 56 51.78125 48.09375 
Q 58.015625 40.1875 58.015625 27.296875 
Q 58.015625 14.40625 51.78125 6.484375 
Q 45.5625 -1.421875 35.59375 -1.421875 
Q 29.59375 -1.421875 25.265625 0.953125 
Q 20.953125 3.328125 18.109375 8.203125 
z
M 48.6875 27.296875 
Q 48.6875 37.203125 44.609375 42.84375 
Q 40.53125 48.484375 33.40625 48.484375 
Q 26.265625 48.484375 22.1875 42.84375 
Q 18.109375 37.203125 18.109375 27.296875 
Q 18.109375 17.390625 22.1875 11.75 
Q 26.265625 6.109375 33.40625 6.109375 
Q 40.53125 6.109375 44.609375 11.75 
Q 48.6875 17.390625 48.6875 27.296875 
z
" id="DejaVuSans-112"/>
       <path d="M 41.109375 46.296875 
Q 39.59375 47.171875 37.8125 47.578125 
Q 36.03125 48 33.890625 48 
Q 26.265625 48 22.1875 43.046875 
Q 18.109375 38.09375 18.109375 28.8125 
L 18.109375 0 
L 9.078125 0 
L 9.078125 54.6875 
L 18.109375 54.6875 
L 18.109375 46.1875 
Q 20.953125 51.171875 25.484375 53.578125 
Q 30.03125 56 36.53125 56 
Q 37.453125 56 38.578125 55.875 
Q 39.703125 55.765625 41.0625 55.515625 
z
" id="DejaVuSans-114"/>
       <path d="M 8.5 21.578125 
L 8.5 54.6875 
L 17.484375 54.6875 
L 17.484375 21.921875 
Q 17.484375 14.15625 20.5 10.265625 
Q 23.53125 6.390625 29.59375 6.390625 
Q 36.859375 6.390625 41.078125 11.03125 
Q 45.3125 15.671875 45.3125 23.6875 
L 45.3125 54.6875 
L 54.296875 54.6875 
L 54.296875 0 
L 45.3125 0 
L 45.3125 8.40625 
Q 42.046875 3.421875 37.71875 1 
Q 33.40625 -1.421875 27.6875 -1.421875 
Q 18.265625 -1.421875 13.375 4.4375 
Q 8.5 10.296875 8.5 21.578125 
z
M 31.109375 56 
z
" id="DejaVuSans-117"/>
       <path id="DejaVuSans-32"/>
       <path d="M 8.59375 75.984375 
L 29.296875 75.984375 
L 29.296875 69 
L 17.578125 69 
L 17.578125 -6.203125 
L 29.296875 -6.203125 
L 29.296875 -13.1875 
L 8.59375 -13.1875 
z
" id="DejaVuSans-91"/>
       <path d="M 9.8125 72.90625 
L 51.703125 72.90625 
L 51.703125 64.59375 
L 19.671875 64.59375 
L 19.671875 43.109375 
L 48.578125 43.109375 
L 48.578125 34.8125 
L 19.671875 34.8125 
L 19.671875 0 
L 9.8125 0 
z
" id="DejaVuSans-70"/>
       <path d="M 30.421875 75.984375 
L 30.421875 -13.1875 
L 9.71875 -13.1875 
L 9.71875 -6.203125 
L 21.390625 -6.203125 
L 21.390625 69 
L 9.71875 69 
L 9.71875 75.984375 
z
" id="DejaVuSans-93"/>
      </defs>
      <use xlink:href="#DejaVuSans-84"/>
      <use x="44.083984" xlink:href="#DejaVuSans-101"/>
      <use x="105.607422" xlink:href="#DejaVuSans-109"/>
      <use x="203.019531" xlink:href="#DejaVuSans-112"/>
      <use x="266.496094" xlink:href="#DejaVuSans-101"/>
      <use x="328.019531" xlink:href="#DejaVuSans-114"/>
      <use x="369.132812" xlink:href="#DejaVuSans-97"/>
      <use x="430.412109" xlink:href="#DejaVuSans-116"/>
      <use x="469.621094" xlink:href="#DejaVuSans-117"/>
      <use x="533" xlink:href="#DejaVuSans-114"/>
      <use x="571.863281" xlink:href="#DejaVuSans-101"/>
      <use x="633.386719" xlink:href="#DejaVuSans-32"/>
      <use x="665.173828" xlink:href="#DejaVuSans-91"/>
      <use x="704.1875" xlink:href="#DejaVuSans-70"/>
      <use x="761.707031" xlink:href="#DejaVuSans-93"/>
     </g>
    </g>
   </g>
   <g id="line2d_29">
    <path clip-path="url(#pa517b93c80)" d="M 72.190909 50.851546 
L 72.202987 50.851546 
L 72.325644 48.551858 
L 72.349827 48.551858 
L 72.471715 50.851546 
L 72.496421 50.851546 
L 72.618112 48.551858 
L 72.666958 48.551858 
L 72.777145 50.851546 
L 72.887731 48.551858 
L 73.010901 50.851546 
L 73.255062 50.851546 
L 73.267357 48.551858 
L 73.365622 50.851546 
L 73.462914 50.851546 
L 73.585551 48.551858 
L 73.625449 50.851546 
L 73.6864 48.551858 
L 73.698529 48.551858 
L 73.747632 50.851546 
L 73.801153 48.551858 
L 73.977739 48.551858 
L 74.089034 50.851546 
L 74.113292 48.551858 
L 74.188122 50.851546 
L 74.200174 50.851546 
L 74.311 48.551858 
L 74.433919 50.851546 
L 74.519735 50.851546 
L 74.543918 48.551858 
L 74.580713 52.001389 
L 74.63008 50.851546 
L 74.679792 50.851546 
L 74.6919 52.001389 
L 74.728818 48.551858 
L 74.790197 50.851546 
L 74.814794 50.851546 
L 74.926724 48.551858 
L 75.037378 48.551858 
L 75.049901 50.851546 
L 75.136741 48.551858 
L 75.185312 48.551858 
L 75.221701 47.402015 
L 75.29582 48.551858 
L 75.443482 48.551858 
L 75.45555 50.851546 
L 75.542576 48.551858 
L 75.838311 48.551858 
L 75.91318 50.851546 
L 75.937569 48.551858 
L 76.15972 48.551858 
L 76.27072 50.851546 
L 76.530664 50.851546 
L 76.542777 48.551858 
L 76.640708 50.851546 
L 77.446757 50.851546 
L 77.509531 52.001389 
L 77.545852 50.851546 
L 77.595301 50.851546 
L 77.717299 52.001389 
L 77.828373 50.851546 
L 77.939682 52.001389 
L 77.976278 52.001389 
L 78.09946 50.851546 
L 78.139034 50.851546 
L 78.262283 52.001389 
L 78.287458 50.851546 
L 78.362185 52.001389 
L 78.411894 52.001389 
L 78.423987 50.851546 
L 78.512026 52.001389 
L 78.670539 52.001389 
L 78.782748 53.151233 
L 78.860166 53.151233 
L 78.961237 52.001389 
L 78.985817 53.151233 
L 79.060223 52.001389 
L 79.109195 50.851546 
L 79.16999 52.001389 
L 79.31791 52.001389 
L 79.416046 50.851546 
L 79.428496 52.001389 
L 79.527094 52.001389 
L 79.539166 50.851546 
L 79.637147 52.001389 
L 79.674389 52.001389 
L 79.686472 50.851546 
L 79.783934 52.001389 
L 79.833236 52.001389 
L 79.944795 50.851546 
L 80.066659 50.851546 
L 80.078744 52.001389 
L 80.176296 50.851546 
L 80.359248 50.851546 
L 80.481276 48.551858 
L 80.755218 48.551858 
L 80.767364 50.851546 
L 80.865009 48.551858 
L 81.024046 48.551858 
L 81.136773 47.402015 
L 81.149267 47.402015 
L 81.19875 48.551858 
L 81.259734 47.402015 
L 81.296294 47.402015 
L 81.406388 46.252171 
L 81.455574 47.402015 
L 81.505144 46.252171 
L 81.57846 46.252171 
L 81.690527 45.102327 
L 81.788778 45.102327 
L 81.911623 43.952484 
L 81.93597 43.952484 
L 82.050834 41.652796 
L 82.149843 42.80264 
L 82.239004 40.502952 
L 82.263944 41.652796 
L 82.288539 41.652796 
L 82.3286 39.353109 
L 82.403716 40.502952 
L 82.56577 40.502952 
L 82.679925 39.353109 
L 82.742882 40.502952 
L 82.71834 37.053421 
L 82.755316 39.353109 
L 82.767411 37.053421 
L 82.853898 41.652796 
L 82.878627 41.652796 
L 82.92849 42.80264 
L 82.903267 39.353109 
L 82.976822 40.502952 
L 82.989154 37.053421 
L 83.001279 42.80264 
L 83.075941 42.80264 
L 83.100083 42.80264 
L 83.112827 43.952484 
L 83.161455 41.652796 
L 83.186277 41.652796 
L 83.198733 41.652796 
L 83.336427 35.903578 
L 83.360796 35.903578 
L 83.482203 37.053421 
L 83.54353 37.053421 
L 83.654564 39.353109 
L 83.768507 37.053421 
L 83.878921 39.353109 
L 83.904112 39.353109 
L 84.026926 40.502952 
L 84.141268 40.502952 
L 84.264026 41.652796 
L 84.463099 41.652796 
L 84.550462 42.80264 
L 84.562753 41.652796 
L 84.57483 41.652796 
L 84.69709 42.80264 
L 84.770799 42.80264 
L 84.893926 43.952484 
L 85.61259 43.952484 
L 85.624873 45.102327 
L 85.711633 43.952484 
L 85.735823 43.952484 
L 85.77302 45.102327 
L 85.83602 43.952484 
L 85.885786 43.952484 
L 85.997578 45.102327 
L 86.492558 45.102327 
L 86.614959 46.252171 
L 86.627367 46.252171 
L 86.714205 45.102327 
L 86.738453 46.252171 
L 86.899823 46.252171 
L 86.912611 47.402015 
L 87.001165 46.252171 
L 87.32121 46.252171 
L 87.419819 47.402015 
L 87.432034 46.252171 
L 87.469023 46.252171 
L 87.579857 47.402015 
L 87.690853 46.252171 
L 87.7897 47.402015 
L 87.827215 46.252171 
L 87.900358 47.402015 
L 88.098948 47.402015 
L 88.14767 46.252171 
L 88.209388 47.402015 
L 88.260277 47.402015 
L 88.273365 46.252171 
L 88.359384 47.402015 
L 88.371488 47.402015 
L 88.383572 46.252171 
L 88.481697 47.402015 
L 89.156651 47.402015 
L 89.168746 46.252171 
L 89.26616 47.402015 
L 89.351495 47.402015 
L 89.364183 48.551858 
L 89.46148 47.402015 
L 89.755677 47.402015 
L 89.876741 48.551858 
L 89.96211 48.551858 
L 90.058865 47.402015 
L 90.071219 48.551858 
L 90.095406 48.551858 
L 90.181333 47.402015 
L 90.205559 48.551858 
L 90.389466 48.551858 
L 90.503444 50.851546 
L 90.5519 48.551858 
L 90.60054 50.851546 
L 90.70555 50.851546 
L 90.730232 48.551858 
L 90.81614 50.851546 
L 90.852836 50.851546 
L 90.950708 48.551858 
L 90.963041 50.851546 
L 90.975494 50.851546 
L 91.07341 48.551858 
L 91.085523 50.851546 
L 91.097934 50.851546 
L 91.221646 48.551858 
L 91.331805 48.551858 
L 91.344008 50.851546 
L 91.441648 48.551858 
L 91.675909 48.551858 
L 91.72476 50.851546 
L 91.786579 48.551858 
L 91.823334 48.551858 
L 91.909463 50.851546 
L 91.934085 48.551858 
L 92.131879 48.551858 
L 92.254523 50.851546 
L 92.278907 50.851546 
L 92.402033 48.551858 
L 92.414522 48.551858 
L 92.48903 50.851546 
L 92.513338 48.551858 
L 92.525828 48.551858 
L 92.637422 50.851546 
L 92.64955 50.851546 
L 92.674933 48.551858 
L 92.749046 50.851546 
L 92.77479 50.851546 
L 92.787757 48.551858 
L 92.877236 50.851546 
L 92.890409 50.851546 
L 92.96628 48.551858 
L 92.990861 50.851546 
L 93.041183 50.851546 
L 93.053278 48.551858 
L 93.078054 50.851546 
L 93.177187 50.851546 
L 93.213757 48.551858 
L 93.277648 50.851546 
L 93.339468 50.851546 
L 93.413278 48.551858 
L 93.450099 50.851546 
L 93.523977 50.851546 
L 93.585517 48.551858 
L 93.634926 50.851546 
L 93.984015 50.851546 
L 94.102864 52.001389 
L 94.139284 50.851546 
L 94.212097 52.001389 
L 94.627113 52.001389 
L 94.701147 53.151233 
L 94.726774 52.001389 
L 95.17971 52.001389 
L 95.216007 50.851546 
L 95.289288 52.001389 
L 95.637914 52.001389 
L 95.650254 50.851546 
L 95.73737 52.001389 
L 95.74969 52.001389 
L 95.872849 50.851546 
L 95.99529 52.001389 
L 96.117769 50.851546 
L 96.154907 50.851546 
L 96.277115 48.551858 
L 96.400069 48.551858 
L 96.412204 47.402015 
L 96.510402 48.551858 
L 96.550063 48.551858 
L 96.649391 47.402015 
L 96.772725 48.551858 
L 96.821407 48.551858 
L 96.833615 47.402015 
L 96.931031 48.551858 
L 97.166104 48.551858 
L 97.214764 47.402015 
L 97.276335 48.551858 
L 97.312965 48.551858 
L 97.422984 47.402015 
L 97.794956 47.402015 
L 98.343761 46.252171 
L 98.58851 46.252171 
L 98.699612 45.102327 
L 99.108874 45.102327 
L 99.221293 43.952484 
L 99.319026 43.952484 
L 99.454017 41.652796 
L 99.576137 42.80264 
L 99.897017 42.80264 
L 99.909147 41.652796 
L 100.006846 42.80264 
L 100.031151 42.80264 
L 100.153431 41.652796 
L 100.189722 41.652796 
L 100.301649 43.952484 
L 100.338016 43.952484 
L 100.350351 42.80264 
L 100.437028 43.952484 
L 100.625389 43.952484 
L 100.722705 45.102327 
L 100.735254 43.952484 
L 100.772114 43.952484 
L 100.886698 45.102327 
L 101.15848 45.102327 
L 101.258341 46.252171 
L 101.319596 45.102327 
L 101.368697 46.252171 
L 101.565703 46.252171 
L 101.577797 45.102327 
L 101.666052 46.252171 
L 101.988765 46.252171 
L 102.102107 47.402015 
L 102.155226 47.402015 
L 102.204291 46.252171 
L 102.25472 47.402015 
L 102.467925 47.402015 
L 102.578591 48.551858 
L 102.652945 47.402015 
L 102.678348 48.551858 
L 102.703671 48.551858 
L 102.716841 47.402015 
L 102.802662 48.551858 
L 102.914605 48.551858 
L 102.926803 50.851546 
L 102.990901 48.551858 
L 103.116143 48.551858 
L 103.22865 50.851546 
L 103.265078 50.851546 
L 103.351365 48.551858 
L 103.364016 50.851546 
L 103.376493 50.851546 
L 103.412769 48.551858 
L 103.486929 50.851546 
L 103.731988 50.851546 
L 103.744109 52.001389 
L 103.841813 50.851546 
L 104.580823 50.851546 
L 104.69165 52.001389 
L 104.80224 50.851546 
L 104.878748 52.001389 
L 104.903315 50.851546 
L 104.964878 50.851546 
L 105.076339 52.001389 
L 105.125433 52.001389 
L 105.137485 50.851546 
L 105.236194 52.001389 
L 105.261604 52.001389 
L 105.376743 50.851546 
L 105.415836 50.851546 
L 105.530718 52.001389 
L 105.716416 52.001389 
L 105.790044 50.851546 
L 105.826453 52.001389 
L 106.096633 52.001389 
L 106.109288 53.151233 
L 106.19582 52.001389 
L 106.331912 52.001389 
L 106.344214 53.151233 
L 106.442178 52.001389 
L 106.625507 52.001389 
L 106.650309 53.151233 
L 106.724575 52.001389 
L 106.760814 52.001389 
L 106.859591 53.151233 
L 106.871684 52.001389 
L 106.994956 53.151233 
L 107.019145 53.151233 
L 107.031317 52.001389 
L 107.128741 53.151233 
L 107.165621 53.151233 
L 107.190454 52.001389 
L 107.263358 53.151233 
L 107.303034 53.151233 
L 107.425673 52.001389 
L 107.542043 53.151233 
L 107.677577 53.151233 
L 107.787441 54.301077 
L 107.90871 53.151233 
L 107.921007 53.151233 
L 108.03419 54.301077 
L 108.08324 54.301077 
L 108.121192 53.151233 
L 108.182458 54.301077 
L 108.675623 54.301077 
L 108.724513 55.45092 
L 108.785973 54.301077 
L 108.798065 54.301077 
L 108.908807 55.45092 
L 108.920906 54.301077 
L 109.019645 55.45092 
L 109.130274 54.301077 
L 109.252992 55.45092 
L 109.408144 55.45092 
L 109.4731 54.301077 
L 109.535148 54.301077 
L 109.606557 55.45092 
L 109.634813 54.301077 
L 109.712398 54.301077 
L 109.828892 55.45092 
L 109.888802 55.45092 
L 109.988992 54.301077 
L 110.076704 55.45092 
L 110.604446 55.45092 
L 110.719726 56.600764 
L 110.901887 56.600764 
L 110.926492 57.750608 
L 111.005467 56.600764 
L 111.073821 56.600764 
L 111.125085 57.750608 
L 111.173773 56.600764 
L 111.185839 56.600764 
L 111.308392 57.750608 
L 111.48062 57.750608 
L 111.578177 56.600764 
L 111.590311 57.750608 
L 111.86014 57.750608 
L 111.982351 56.600764 
L 111.99443 56.600764 
L 112.106199 57.750608 
L 112.216938 57.750608 
L 112.33052 56.600764 
L 112.47222 56.600764 
L 112.572335 57.750608 
L 112.6935 56.600764 
L 113.364976 56.600764 
L 113.377199 57.750608 
L 113.464822 56.600764 
L 113.640119 56.600764 
L 113.652679 57.750608 
L 113.742589 56.600764 
L 113.905717 56.600764 
L 113.918015 57.750608 
L 114.008095 56.600764 
L 114.069439 56.600764 
L 114.082253 55.45092 
L 114.17962 56.600764 
L 114.33842 56.600764 
L 114.350528 57.750608 
L 114.448177 56.600764 
L 114.752902 56.600764 
L 114.782134 57.750608 
L 114.859054 56.600764 
L 115.627407 57.750608 
L 116.439356 57.750608 
L 116.451658 56.600764 
L 116.539056 57.750608 
L 117.36534 57.750608 
L 117.426321 60.050295 
L 117.474913 57.750608 
L 117.499054 57.750608 
L 117.51129 60.050295 
L 117.609705 57.750608 
L 117.732108 57.750608 
L 117.829694 60.050295 
L 117.841786 57.750608 
L 117.878364 57.750608 
L 117.976917 60.050295 
L 118.089028 57.750608 
L 118.211748 60.050295 
L 118.325492 57.750608 
L 118.486096 57.750608 
L 118.582992 60.050295 
L 118.596719 57.750608 
L 118.717167 60.050295 
L 119.563467 61.200139 
L 119.6774 61.200139 
L 119.726483 62.349983 
L 120.13229 61.200139 
L 120.247507 62.349983 
L 120.372945 61.200139 
L 120.424716 62.349983 
L 120.475155 61.200139 
L 120.550456 61.200139 
L 120.588786 62.349983 
L 120.650756 61.200139 
L 120.728182 61.200139 
L 120.850358 62.349983 
L 120.863114 62.349983 
L 120.915342 61.200139 
L 120.964511 62.349983 
L 121.37843 62.349983 
L 121.479163 63.499826 
L 121.590312 62.349983 
L 121.615998 62.349983 
L 121.726724 63.499826 
L 121.848329 62.349983 
L 121.885375 63.499826 
L 121.95884 62.349983 
L 121.97094 62.349983 
L 122.01943 63.499826 
L 122.080439 62.349983 
L 122.104628 62.349983 
L 122.226321 63.499826 
L 122.238729 63.499826 
L 122.347719 62.349983 
L 122.461547 63.499826 
L 122.489603 63.499826 
L 122.612919 64.64967 
L 122.649838 64.64967 
L 122.699598 63.499826 
L 122.760915 64.64967 
L 122.810313 64.64967 
L 122.834939 65.799514 
L 122.847001 63.499826 
L 122.908979 63.499826 
L 122.994026 63.499826 
L 123.006117 64.64967 
L 123.10322 63.499826 
L 123.370325 63.499826 
L 123.431313 65.799514 
L 123.486186 64.64967 
L 123.607892 63.499826 
L 123.741527 63.499826 
L 123.862525 64.64967 
L 123.972089 63.499826 
L 123.984175 64.64967 
L 124.081063 63.499826 
L 124.093136 63.499826 
L 124.244713 64.64967 
L 124.257204 64.64967 
L 124.269455 63.499826 
L 124.363169 64.64967 
L 124.402724 64.64967 
L 124.427824 65.799514 
L 124.452136 63.499826 
L 124.51319 64.64967 
L 124.537895 63.499826 
L 124.62412 64.64967 
L 125.16304 64.64967 
L 125.187402 65.799514 
L 125.273909 64.64967 
L 125.396957 64.64967 
L 125.521421 66.949357 
L 125.634219 65.799514 
L 125.646488 66.949357 
L 125.745282 65.799514 
L 126.068043 65.799514 
L 126.180499 66.949357 
L 126.208964 66.949357 
L 126.330788 68.099201 
L 126.449057 65.799514 
L 126.545626 65.799514 
L 126.659421 66.949357 
L 126.969241 66.949357 
L 126.983206 65.799514 
L 127.075148 66.949357 
L 127.166715 66.949357 
L 127.292159 65.799514 
L 127.633808 65.799514 
L 127.673485 64.64967 
L 127.735216 65.799514 
L 128.005493 65.799514 
L 128.018151 66.949357 
L 128.114335 65.799514 
L 128.420344 65.799514 
L 128.433614 66.949357 
L 128.518024 65.799514 
L 128.646215 65.799514 
L 128.771925 66.949357 
L 128.828684 66.949357 
L 128.89924 65.799514 
L 128.912649 66.949357 
L 129.035343 65.799514 
L 129.158412 66.949357 
L 129.274582 65.799514 
L 129.3133 65.799514 
L 129.413755 66.949357 
L 129.525502 65.799514 
L 129.551365 65.799514 
L 129.657166 66.949357 
L 129.746777 65.799514 
L 129.758829 66.949357 
L 129.838074 66.949357 
L 129.949258 65.799514 
L 130.329807 65.799514 
L 130.444145 64.64967 
L 130.888701 64.64967 
L 131.010909 63.499826 
L 131.022975 63.499826 
L 131.035088 64.64967 
L 131.130417 63.499826 
L 131.143457 63.499826 
L 131.155737 64.64967 
L 131.252806 63.499826 
L 131.515278 63.499826 
L 131.630375 62.349983 
L 131.642706 62.349983 
L 131.752302 63.499826 
L 131.875461 62.349983 
L 131.949695 62.349983 
L 132.072783 61.200139 
L 132.084881 61.200139 
L 132.207125 62.349983 
L 132.268061 62.349983 
L 132.379654 61.200139 
L 132.542452 61.200139 
L 132.653995 60.050295 
L 132.715295 60.050295 
L 132.82667 57.750608 
L 132.839451 57.750608 
L 132.864196 60.050295 
L 132.950555 57.750608 
L 133.012359 57.750608 
L 133.037369 60.050295 
L 133.361428 60.050295 
L 133.416888 57.750608 
L 133.430792 60.050295 
L 133.478194 60.050295 
L 133.594448 57.750608 
L 133.622006 57.750608 
L 133.718696 60.050295 
L 133.730834 57.750608 
L 133.80348 57.750608 
L 133.915584 61.200139 
L 134.031757 60.050295 
L 134.132462 61.200139 
L 134.183876 61.200139 
L 134.27733 60.050295 
L 134.292584 61.200139 
L 134.304699 61.200139 
L 134.359588 60.050295 
L 134.399122 61.200139 
L 134.47973 61.200139 
L 134.491823 60.050295 
L 134.590752 61.200139 
L 134.851044 61.200139 
L 134.962915 62.349983 
L 135.048601 61.200139 
L 135.072988 62.349983 
L 135.391729 62.349983 
L 135.404177 63.499826 
L 135.501142 62.349983 
L 135.51401 62.349983 
L 135.538469 63.499826 
L 135.613071 62.349983 
L 135.787862 62.349983 
L 135.866325 63.499826 
L 135.892809 62.349983 
L 136.003286 62.349983 
L 136.12617 63.499826 
L 136.138302 62.349983 
L 136.236291 63.499826 
L 136.643719 63.499826 
L 136.656246 64.64967 
L 136.743088 63.499826 
L 136.829531 63.499826 
L 136.944198 64.64967 
L 137.262554 64.64967 
L 137.27506 63.499826 
L 137.372624 64.64967 
L 137.564842 64.64967 
L 137.627894 65.799514 
L 137.664944 64.64967 
L 137.702643 64.64967 
L 137.816707 65.799514 
L 137.93025 64.64967 
L 137.942862 64.64967 
L 138.058799 65.799514 
L 138.083867 65.799514 
L 138.186705 64.64967 
L 138.199163 65.799514 
L 138.286957 64.64967 
L 138.348188 64.64967 
L 138.462262 65.799514 
L 138.486516 65.799514 
L 138.609477 64.64967 
L 138.62164 64.64967 
L 138.73343 65.799514 
L 138.745638 65.799514 
L 138.75783 64.64967 
L 138.856331 65.799514 
L 138.958443 65.799514 
L 139.069994 66.949357 
L 139.423198 66.949357 
L 139.535902 65.799514 
L 139.610572 65.799514 
L 139.622964 66.949357 
L 139.721073 65.799514 
L 139.770249 65.799514 
L 139.856056 66.949357 
L 139.880164 65.799514 
L 139.977346 65.799514 
L 140.100147 66.949357 
L 140.223744 66.949357 
L 140.333418 68.099201 
L 140.456398 66.949357 
L 141.061968 66.949357 
L 141.074139 65.799514 
L 141.16548 66.949357 
L 141.296872 66.949357 
L 141.396475 68.099201 
L 141.507323 66.949357 
L 141.620848 68.099201 
L 141.74387 66.949357 
L 141.756555 66.949357 
L 141.879576 68.099201 
L 141.953196 68.099201 
L 142.077033 69.249045 
L 142.200234 68.099201 
L 142.347723 68.099201 
L 142.359819 69.249045 
L 142.457819 68.099201 
L 142.531446 68.099201 
L 142.555657 69.249045 
L 142.642234 68.099201 
L 142.702858 68.099201 
L 142.788188 69.249045 
L 142.812951 68.099201 
L 142.91111 68.099201 
L 143.033709 69.249045 
L 143.366822 69.249045 
L 143.490081 68.099201 
L 143.527114 68.099201 
L 143.636851 69.249045 
L 143.747458 68.099201 
L 143.858592 69.249045 
L 144.104053 69.249045 
L 144.116295 71.548732 
L 144.194808 69.249045 
L 144.589697 69.249045 
L 144.60271 71.548732 
L 144.693438 69.249045 
L 144.731394 69.249045 
L 144.840508 71.548732 
L 144.96243 69.249045 
L 145.194905 69.249045 
L 145.317312 71.548732 
L 145.451327 71.548732 
L 145.573976 72.698576 
L 145.586061 72.698576 
L 145.69558 71.548732 
L 145.747481 71.548732 
L 145.759715 72.698576 
L 145.848991 71.548732 
L 145.925237 69.249045 
L 145.937787 71.548732 
L 146.374123 71.548732 
L 146.475949 69.249045 
L 146.591896 71.548732 
L 146.704534 69.249045 
L 146.820749 71.548732 
L 146.939013 69.249045 
L 146.952921 69.249045 
L 147.043747 71.548732 
L 147.058093 69.249045 
L 147.072142 69.249045 
L 147.101081 71.548732 
L 147.166695 69.249045 
L 147.202249 69.249045 
L 147.323509 71.548732 
L 147.444742 69.249045 
L 147.457929 71.548732 
L 147.554806 69.249045 
L 147.709252 69.249045 
L 147.823875 68.099201 
L 147.936048 69.249045 
L 148.052689 68.099201 
L 148.118227 68.099201 
L 148.23437 69.249045 
L 148.356084 68.099201 
L 148.443082 69.249045 
L 148.456073 68.099201 
L 148.556112 69.249045 
L 148.668178 68.099201 
L 148.77982 69.249045 
L 148.828417 69.249045 
L 148.902726 68.099201 
L 148.927872 69.249045 
L 149.854614 69.249045 
L 149.891851 68.099201 
L 149.957817 69.249045 
L 150.260161 69.249045 
L 150.272647 71.548732 
L 150.359559 69.249045 
L 150.703379 69.249045 
L 150.752038 71.548732 
L 150.789348 69.249045 
L 151.268427 69.249045 
L 151.280959 68.099201 
L 151.379499 69.249045 
L 151.737665 69.249045 
L 151.826199 71.548732 
L 151.838288 69.249045 
L 151.965998 69.249045 
L 152.014572 71.548732 
L 152.052806 69.249045 
L 152.080738 69.249045 
L 152.192532 71.548732 
L 152.291128 71.548732 
L 152.303594 69.249045 
L 152.391198 71.548732 
L 152.721814 71.548732 
L 152.734107 69.249045 
L 152.821154 71.548732 
L 152.883211 71.548732 
L 152.895724 69.249045 
L 152.985389 71.548732 
L 153.912523 71.548732 
L 153.936761 72.698576 
L 154.022967 71.548732 
L 154.202988 71.548732 
L 154.347026 72.698576 
L 154.369398 71.548732 
L 154.436767 72.698576 
L 154.825616 72.698576 
L 154.903466 71.548732 
L 155.039924 72.698576 
L 155.052372 71.548732 
L 155.14983 72.698576 
L 155.283687 72.698576 
L 155.29586 73.84842 
L 155.394479 72.698576 
L 155.418822 72.698576 
L 155.503826 71.548732 
L 155.528114 72.698576 
L 155.763004 72.698576 
L 155.884965 73.84842 
L 155.997236 72.698576 
L 156.144863 72.698576 
L 156.254166 73.84842 
L 156.328484 72.698576 
L 156.353124 73.84842 
L 156.426254 73.84842 
L 156.549226 72.698576 
L 156.671266 73.84842 
L 156.769049 72.698576 
L 156.781138 73.84842 
L 157.305938 73.84842 
L 157.403211 74.998263 
L 157.415278 73.84842 
L 157.696107 73.84842 
L 157.708402 74.998263 
L 157.769234 73.84842 
L 157.808993 73.84842 
L 157.821416 74.998263 
L 157.919211 73.84842 
L 157.984806 73.84842 
L 158.096844 74.998263 
L 158.170241 74.998263 
L 158.292475 73.84842 
L 158.353784 74.998263 
L 158.40225 73.84842 
L 158.658522 73.84842 
L 158.695333 74.998263 
L 158.768485 73.84842 
L 158.915476 73.84842 
L 159.014811 74.998263 
L 159.137056 73.84842 
L 159.186168 73.84842 
L 159.309066 74.998263 
L 159.345464 74.998263 
L 159.468026 73.84842 
L 159.480159 73.84842 
L 159.603282 74.998263 
L 159.700392 73.84842 
L 159.71301 74.998263 
L 159.749903 74.998263 
L 159.848406 73.84842 
L 159.8605 74.998263 
L 160.396649 74.998263 
L 160.409362 73.84842 
L 160.496066 74.998263 
L 160.705911 74.998263 
L 160.817365 76.148107 
L 160.893199 74.998263 
L 160.918979 76.148107 
L 160.943853 76.148107 
L 160.956263 74.998263 
L 161.044071 76.148107 
L 161.671847 76.148107 
L 161.780955 74.998263 
L 161.902844 76.148107 
L 161.915334 76.148107 
L 162.026491 74.998263 
L 162.087108 74.998263 
L 162.124064 76.148107 
L 162.196756 74.998263 
L 162.566823 74.998263 
L 162.578918 76.148107 
L 162.665679 74.998263 
L 163.525276 74.998263 
L 163.590475 73.84842 
L 163.626869 74.998263 
L 163.639137 74.998263 
L 163.749343 73.84842 
L 163.799196 74.998263 
L 163.848213 73.84842 
L 164.377652 73.84842 
L 164.414984 72.698576 
L 164.477188 73.84842 
L 164.501374 73.84842 
L 164.624297 72.698576 
L 164.636432 72.698576 
L 164.748893 73.84842 
L 164.761148 73.84842 
L 164.884192 72.698576 
L 164.896477 72.698576 
L 164.933154 73.84842 
L 165.007425 72.698576 
L 165.032595 72.698576 
L 165.154099 71.548732 
L 165.240742 72.698576 
L 165.253346 71.548732 
L 165.351417 71.548732 
L 165.363744 72.698576 
L 165.461758 71.548732 
L 165.633812 71.548732 
L 165.745718 69.249045 
L 166.006452 69.249045 
L 166.12953 68.099201 
L 166.203404 68.099201 
L 166.315649 66.949357 
L 166.438273 68.099201 
L 166.560516 66.949357 
L 166.719015 66.949357 
L 166.732212 68.099201 
L 166.818408 66.949357 
L 166.891894 66.949357 
L 167.014403 68.099201 
L 167.038759 68.099201 
L 167.162005 66.949357 
L 167.188058 66.949357 
L 167.310094 68.099201 
L 167.334329 68.099201 
L 167.34654 66.949357 
L 167.443831 68.099201 
L 167.750714 68.099201 
L 167.763236 69.249045 
L 167.861569 68.099201 
L 167.985346 68.099201 
L 168.095089 69.249045 
L 168.217008 68.099201 
L 168.241398 68.099201 
L 168.353586 69.249045 
L 168.464858 69.249045 
L 168.476964 68.099201 
L 168.57497 69.249045 
L 168.648139 69.249045 
L 168.709157 68.099201 
L 168.758148 69.249045 
L 169.33472 69.249045 
L 169.457565 71.548732 
L 169.494046 71.548732 
L 169.616175 69.249045 
L 169.739775 71.548732 
L 169.801074 69.249045 
L 169.850124 71.548732 
L 169.862375 71.548732 
L 169.87555 69.249045 
L 169.961494 71.548732 
L 170.297426 71.548732 
L 170.322213 72.698576 
L 170.407384 71.548732 
L 170.51831 71.548732 
L 170.60583 72.698576 
L 170.618744 71.548732 
L 170.669109 71.548732 
L 170.767926 72.698576 
L 170.780062 71.548732 
L 170.901785 72.698576 
L 170.978121 71.548732 
L 171.002399 72.698576 
L 171.261852 72.698576 
L 171.273922 73.84842 
L 171.372063 72.698576 
L 171.396314 72.698576 
L 171.507111 73.84842 
L 171.519233 72.698576 
L 171.617535 73.84842 
L 171.654522 73.84842 
L 171.666616 72.698576 
L 171.752542 73.84842 
L 171.76573 74.998263 
L 171.851798 73.84842 
L 171.863893 73.84842 
L 171.987023 74.998263 
L 171.999148 74.998263 
L 172.121865 73.84842 
L 172.528072 73.84842 
L 172.601746 72.698576 
L 172.639018 73.84842 
L 172.700281 73.84842 
L 172.712983 72.698576 
L 172.810472 73.84842 
L 173.055356 73.84842 
L 173.178003 74.998263 
L 173.220808 74.998263 
L 173.34265 73.84842 
L 173.354764 73.84842 
L 173.45326 74.998263 
L 173.465352 73.84842 
L 173.50223 73.84842 
L 173.590031 74.998263 
L 173.602116 73.84842 
L 173.714344 73.84842 
L 173.726802 74.998263 
L 173.824976 73.84842 
L 173.935494 73.84842 
L 174.033936 74.998263 
L 174.046041 73.84842 
L 174.231905 73.84842 
L 174.244012 74.998263 
L 174.341896 73.84842 
L 174.576193 73.84842 
L 174.588381 74.998263 
L 174.600526 73.84842 
L 173.911305 73.84842 
L 173.972967 73.84842 
L 174.084072 74.998263 
L 174.146019 74.998263 
L 174.269055 73.84842 
L 174.391304 74.998263 
L 174.415881 74.998263 
L 174.476912 73.84842 
L 174.525556 74.998263 
L 174.611241 74.998263 
L 174.651804 73.84842 
L 174.713051 74.998263 
L 175.195046 74.998263 
L 175.28079 73.84842 
L 175.305179 74.998263 
L 175.722948 74.998263 
L 175.844885 73.84842 
L 175.966838 74.998263 
L 175.978915 74.998263 
L 176.101057 73.84842 
L 176.223821 74.998263 
L 176.272911 74.998263 
L 176.385291 73.84842 
L 176.496367 74.998263 
L 176.52087 73.84842 
L 176.606551 74.998263 
L 177.096613 74.998263 
L 177.219209 76.148107 
L 177.340839 74.998263 
L 177.46342 76.148107 
L 177.488077 76.148107 
L 177.500203 74.998263 
L 177.597553 76.148107 
L 177.683156 76.148107 
L 177.707344 77.297951 
L 177.792199 76.148107 
L 178.234755 76.148107 
L 178.246845 74.998263 
L 178.335175 76.148107 
L 178.941316 76.148107 
L 179.002263 74.998263 
L 179.051109 76.148107 
L 179.075475 76.148107 
L 179.188816 74.998263 
L 179.226433 74.998263 
L 179.347539 76.148107 
L 179.493549 74.998263 
L 179.603621 76.148107 
L 179.726339 74.998263 
L 179.859921 74.998263 
L 179.871977 76.148107 
L 179.969513 74.998263 
L 180.435264 74.998263 
L 180.544856 73.84842 
L 180.657719 74.998263 
L 180.694082 74.998263 
L 180.768186 73.84842 
L 180.793211 74.998263 
L 180.846057 74.998263 
L 180.894591 73.84842 
L 180.943088 74.998263 
L 180.983222 74.998263 
L 181.105255 73.84842 
L 181.336707 73.84842 
L 181.411224 72.698576 
L 181.43622 73.84842 
L 181.448329 73.84842 
L 181.559 72.698576 
L 181.595739 73.84842 
L 181.669249 72.698576 
L 182.036183 72.698576 
L 182.146912 71.548732 
L 182.208413 71.548732 
L 182.319083 72.698576 
L 182.44099 71.548732 
L 182.539564 71.548732 
L 182.576633 72.698576 
L 182.649648 71.548732 
L 182.748196 71.548732 
L 182.834575 72.698576 
L 182.858831 71.548732 
L 182.883489 71.548732 
L 182.995266 72.698576 
L 183.118374 72.698576 
L 183.240995 71.548732 
L 183.36416 72.698576 
L 183.413979 72.698576 
L 183.463079 71.548732 
L 183.524289 72.698576 
L 183.831983 72.698576 
L 183.953761 73.84842 
L 184.125839 73.84842 
L 184.138322 72.698576 
L 184.235395 73.84842 
L 184.517402 73.84842 
L 184.603326 72.698576 
L 184.627903 73.84842 
L 184.837593 73.84842 
L 184.862019 72.698576 
L 184.947982 73.84842 
L 184.960226 73.84842 
L 184.972519 72.698576 
L 185.070391 73.84842 
L 186.202034 73.84842 
L 186.214758 74.998263 
L 186.309227 73.84842 
L 186.347503 73.84842 
L 186.45426 74.998263 
L 186.567793 73.84842 
L 186.689439 74.998263 
L 187.999155 74.998263 
L 188.011265 76.148107 
L 188.109279 74.998263 
L 188.22268 76.148107 
L 188.334443 74.998263 
L 188.421164 76.148107 
L 188.433263 74.998263 
L 188.445761 74.998263 
L 188.55779 76.148107 
L 188.569891 74.998263 
L 188.65741 76.148107 
L 188.669897 76.148107 
L 188.720382 74.998263 
L 188.771398 76.148107 
L 188.784281 76.148107 
L 188.896067 74.998263 
L 188.908551 74.998263 
L 189.023896 76.148107 
L 189.073871 76.148107 
L 189.184833 74.998263 
L 189.307973 76.148107 
L 189.480381 76.148107 
L 189.492478 74.998263 
L 189.579194 76.148107 
L 190.182035 76.148107 
L 190.194159 77.297951 
L 190.29314 76.148107 
L 190.355318 76.148107 
L 190.430552 77.297951 
L 190.454694 76.148107 
L 190.467119 76.148107 
L 190.578773 77.297951 
L 190.640356 76.148107 
L 190.689204 77.297951 
L 190.763373 77.297951 
L 190.77613 76.148107 
L 190.862533 77.297951 
L 190.923438 77.297951 
L 191.010438 78.447794 
L 191.022654 77.297951 
L 191.034706 77.297951 
L 191.156873 78.447794 
L 191.241994 78.447794 
L 191.364415 80.747482 
L 191.477479 80.747482 
L 191.599157 78.447794 
L 191.623387 78.447794 
L 191.677197 77.297951 
L 191.726617 78.447794 
L 191.739296 78.447794 
L 191.800042 77.297951 
L 191.849366 78.447794 
L 191.910968 78.447794 
L 192.0205 77.297951 
L 192.142422 78.447794 
L 192.264418 77.297951 
L 192.386724 78.447794 
L 192.399004 78.447794 
L 192.411117 77.297951 
L 192.508422 78.447794 
L 192.825402 78.447794 
L 192.911844 80.747482 
L 192.936288 78.447794 
L 192.985496 78.447794 
L 193.059391 80.747482 
L 193.084571 78.447794 
L 193.097102 78.447794 
L 193.20813 80.747482 
L 193.611384 80.747482 
L 193.623476 81.897325 
L 193.721775 80.747482 
L 193.916771 80.747482 
L 193.929072 81.897325 
L 194.026603 80.747482 
L 194.051034 80.747482 
L 194.173534 81.897325 
L 194.394093 81.897325 
L 194.515974 80.747482 
L 194.528027 80.747482 
L 194.637625 81.897325 
L 194.674058 80.747482 
L 194.748293 81.897325 
L 194.930279 81.897325 
L 195.042748 83.047169 
L 195.589641 83.047169 
L 195.662326 81.897325 
L 195.698944 83.047169 
L 196.003732 83.047169 
L 196.015825 81.897325 
L 196.113585 83.047169 
L 196.589491 83.047169 
L 196.601622 81.897325 
L 196.699439 83.047169 
L 197.151076 83.047169 
L 197.247896 84.197013 
L 197.259976 83.047169 
L 197.272107 83.047169 
L 197.381204 84.197013 
L 197.479503 83.047169 
L 197.49202 84.197013 
L 197.528447 84.197013 
L 197.650012 83.047169 
L 197.674174 84.197013 
L 197.759293 83.047169 
L 197.807937 83.047169 
L 197.918082 84.197013 
L 198.003254 81.897325 
L 198.027593 83.047169 
L 198.05199 83.047169 
L 198.173792 81.897325 
L 198.198418 81.897325 
L 198.222639 83.047169 
L 198.295571 81.897325 
L 198.417269 80.747482 
L 198.527683 80.747482 
L 198.650752 78.447794 
L 198.773066 78.447794 
L 198.849089 80.747482 
L 198.873488 78.447794 
L 198.958767 78.447794 
L 199.056174 80.747482 
L 199.068764 78.447794 
L 199.142299 78.447794 
L 199.154377 80.747482 
L 417.946612 116.392636 
L 418.02068 116.392636 
L 418.033325 117.54248 
L 418.131248 116.392636 
L 418.143762 116.392636 
L 418.254799 117.54248 
L 418.279858 117.54248 
L 418.304003 116.392636 
L 418.379277 117.54248 
L 418.599506 117.54248 
L 418.685022 118.692324 
L 418.710007 117.54248 
L 418.771691 117.54248 
L 418.894499 118.692324 
L 419.016547 117.54248 
L 419.127274 118.692324 
L 419.13983 118.692324 
L 419.263156 117.54248 
L 419.347939 118.692324 
L 419.373329 117.54248 
L 419.435083 117.54248 
L 419.447335 118.692324 
L 419.534414 117.54248 
L 419.717648 117.54248 
L 421.272903 119.842167 
L 421.386844 118.692324 
L 421.424079 118.692324 
L 421.472397 119.842167 
L 421.533565 118.692324 
L 421.606779 118.692324 
L 421.622502 119.842167 
L 421.708745 118.692324 
L 421.84767 118.692324 
L 421.883993 119.842167 
L 421.957503 118.692324 
L 422.056378 118.692324 
L 422.146287 119.842167 
L 422.158404 118.692324 
L 422.194727 118.692324 
L 422.280128 119.842167 
L 422.293037 118.692324 
L 422.343937 118.692324 
L 422.457049 119.842167 
L 422.469231 119.842167 
L 422.530934 118.692324 
L 422.567735 119.842167 
L 422.605357 119.842167 
L 422.703895 118.692324 
L 422.803044 119.842167 
L 422.913377 118.692324 
L 423.036422 119.842167 
L 423.048549 119.842167 
L 423.159426 118.692324 
L 423.281991 119.842167 
L 423.343054 119.842167 
L 423.453123 118.692324 
L 423.501845 119.842167 
L 423.562681 118.692324 
L 423.575208 118.692324 
L 423.697995 119.842167 
L 423.796149 119.842167 
L 423.808245 118.692324 
L 423.901944 119.842167 
L 424.139976 119.842167 
L 424.250621 122.141855 
L 424.348983 119.842167 
L 424.361077 122.141855 
L 424.445902 119.842167 
L 424.470611 122.141855 
L 424.736228 122.141855 
L 424.748703 123.291699 
L 424.836519 122.141855 
L 425.070184 122.141855 
L 425.181865 119.842167 
L 425.475492 119.842167 
L 425.564124 122.141855 
L 425.576229 119.842167 
L 425.61354 119.842167 
L 425.724845 122.141855 
L 425.750012 122.141855 
L 425.799342 119.842167 
L 425.860811 122.141855 
L 426.02195 122.141855 
L 426.094995 119.842167 
L 426.132194 122.141855 
L 426.341484 122.141855 
L 426.41655 123.291699 
L 426.441131 122.141855 
L 426.588091 122.141855 
L 426.601121 123.291699 
L 426.687852 122.141855 
L 426.775244 122.141855 
L 426.88845 123.291699 
L 426.990409 123.291699 
L 427.004329 122.141855 
L 427.091932 123.291699 
L 427.278716 123.291699 
L 427.314996 122.141855 
L 427.381886 123.291699 
L 427.495979 123.291699 
L 427.608525 122.141855 
L 427.620974 122.141855 
L 427.733537 123.291699 
L 427.93203 123.291699 
L 427.980716 122.141855 
L 428.041816 123.291699 
L 428.066489 123.291699 
L 428.163658 122.141855 
L 428.175756 123.291699 
L 428.187843 123.291699 
L 428.286619 122.141855 
L 428.298744 123.291699 
L 428.543711 123.291699 
L 428.555829 122.141855 
L 428.654667 123.291699 
L 429.051654 123.291699 
L 429.063945 122.141855 
L 429.151685 123.291699 
L 429.274713 123.291699 
L 429.397559 122.141855 
L 429.520833 123.291699 
L 429.777254 123.291699 
L 429.789343 124.441542 
L 429.877595 123.291699 
L 429.90189 123.291699 
L 429.926919 124.441542 
L 430.001817 123.291699 
L 430.014359 123.291699 
L 430.026669 124.441542 
L 430.11573 123.291699 
L 430.230352 123.291699 
L 430.269445 124.441542 
L 430.337906 123.291699 
L 430.363412 123.291699 
L 430.475951 124.441542 
L 430.48956 124.441542 
L 430.600817 123.291699 
L 430.665474 123.291699 
L 430.813605 124.441542 
L 430.935826 123.291699 
L 431.057865 124.441542 
L 431.147587 124.441542 
L 431.210646 123.291699 
L 431.24785 124.441542 
L 431.260115 124.441542 
L 431.372189 123.291699 
L 431.48463 124.441542 
L 431.693499 124.441542 
L 431.767154 123.291699 
L 431.803879 124.441542 
L 431.81604 124.441542 
L 431.930841 123.291699 
L 432.009091 123.291699 
L 432.009091 123.291699 
" style="fill:none;stroke:#1f77b4;stroke-linecap:square;stroke-width:1.5;"/>
   </g>
   <g id="line2d_30">
    <path clip-path="url(#pa517b93c80)" d="M 72.190909 106.044043 
L 75.357228 106.044043 
L 75.468029 118.692324 
L 76.469565 118.692324 
L 76.591845 126.74123 
L 76.776151 126.74123 
L 76.873384 118.692324 
L 78.262283 118.692324 
L 78.374481 126.74123 
L 78.795598 126.74123 
L 78.910308 118.692324 
L 79.722807 118.692324 
L 79.845714 106.044043 
L 80.286239 106.044043 
L 80.407891 93.395762 
L 81.011973 93.395762 
L 81.124479 70.398889 
L 81.566364 70.398889 
L 81.678351 64.64967 
L 81.875186 64.64967 
L 81.998392 70.398889 
L 82.088341 70.398889 
L 82.201005 64.64967 
L 82.415848 64.64967 
L 82.54132 48.551858 
L 83.457612 48.551858 
L 83.580334 60.050295 
L 85.140579 60.050295 
L 85.252123 70.398889 
L 85.313947 70.398889 
L 85.427564 64.64967 
L 85.860701 64.64967 
L 85.972152 93.395762 
L 86.541516 93.395762 
L 86.664655 118.692324 
L 88.997909 118.692324 
L 89.120209 129.040917 
L 90.095406 129.040917 
L 90.21765 141.689198 
L 90.466045 141.689198 
L 90.588288 147.438416 
L 91.441648 147.438416 
L 91.564663 141.689198 
L 91.810804 141.689198 
L 91.934085 147.438416 
L 92.181768 147.438416 
L 92.303094 152.037791 
L 93.486961 152.037791 
L 93.597605 147.438416 
L 93.672156 147.438416 
L 93.783785 163.536228 
L 94.651341 163.536228 
L 94.763323 168.135603 
L 94.95905 168.135603 
L 95.081618 152.037791 
L 95.514557 152.037791 
L 95.637914 147.438416 
L 95.884947 147.438416 
L 96.007742 152.037791 
L 96.498253 152.037791 
L 96.611712 141.689198 
L 96.87029 141.689198 
L 96.991733 126.74123 
L 97.053166 126.74123 
L 97.166104 106.044043 
L 97.794956 106.044043 
L 98.331686 93.395762 
L 98.889842 93.395762 
L 99.01144 85.346857 
L 99.454017 85.346857 
L 99.576137 83.047169 
L 100.861421 83.047169 
L 100.973297 93.395762 
L 101.540931 93.395762 
L 101.653953 70.398889 
L 102.102107 70.398889 
L 102.21668 118.692324 
L 103.400697 118.692324 
L 103.523202 129.040917 
L 104.162328 129.040917 
L 104.285233 196.881695 
L 104.903315 196.881695 
L 105.026845 222.178256 
L 105.654235 222.178256 
L 105.765683 232.52685 
L 106.207982 232.52685 
L 106.319812 245.17513 
L 107.190454 245.17513 
L 107.303034 232.52685 
L 107.578739 232.52685 
L 107.701902 222.178256 
L 109.650093 222.178256 
L 109.765409 209.529976 
L 111.909076 209.529976 
L 112.032353 196.881695 
L 112.855211 196.881695 
L 112.970629 173.884821 
L 113.228728 173.884821 
L 113.339966 152.037791 
L 114.020795 152.037791 
L 114.142823 118.692324 
L 114.820171 118.692324 
L 114.859054 83.047169 
L 115.542018 93.395762 
L 115.795798 93.395762 
L 116.48941 118.692324 
L 116.685766 118.692324 
L 116.807486 129.040917 
L 117.486964 129.040917 
L 117.609705 141.689198 
L 119.563467 141.689198 
L 119.726483 152.037791 
L 120.94027 152.037791 
L 121.054928 141.689198 
L 121.66539 141.689198 
L 121.787709 152.037791 
L 122.274987 152.037791 
L 122.397125 163.536228 
L 123.972089 163.536228 
L 124.093136 141.689198 
L 124.549988 141.689198 
L 124.672759 152.037791 
L 125.508637 152.037791 
L 125.622122 147.438416 
L 125.920211 147.438416 
L 126.007489 152.037791 
L 126.330788 152.037791 
L 126.449057 168.135603 
L 126.659421 168.135603 
L 126.857645 152.037791 
L 127.511654 152.037791 
L 127.633808 168.135603 
L 128.067198 168.135603 
L 128.18199 163.536228 
L 129.425869 163.536228 
L 129.539054 186.533102 
L 130.230883 186.533102 
L 130.342834 152.037791 
L 130.728865 152.037791 
L 130.851466 129.040917 
L 132.133845 129.040917 
L 132.2559 83.047169 
L 134.252171 83.047169 
L 134.372345 93.395762 
L 135.170768 93.395762 
L 135.285422 106.044043 
L 135.638381 106.044043 
L 135.751143 118.692324 
L 136.619213 118.692324 
L 136.730954 141.689198 
L 137.790969 141.689198 
L 137.905265 152.037791 
L 139.880164 152.037791 
L 140.00197 163.536228 
L 142.433075 163.536228 
L 142.555657 168.135603 
L 142.678559 168.135603 
L 142.800479 152.037791 
L 145.06015 152.037791 
L 145.182613 163.536228 
L 146.628504 163.536228 
L 146.742765 168.135603 
L 146.872917 168.135603 
L 147.018309 163.536228 
L 147.646321 163.536228 
L 147.760838 152.037791 
L 148.729379 152.037791 
L 148.840548 141.689198 
L 149.904343 141.689198 
L 150.020523 147.438416 
L 150.38368 147.438416 
L 150.495362 129.040917 
L 150.629823 129.040917 
L 150.752038 126.74123 
L 151.072579 126.74123 
L 151.194309 129.040917 
L 151.317509 129.040917 
L 151.429393 126.74123 
L 151.826199 126.74123 
L 151.939411 129.040917 
L 152.241859 129.040917 
L 152.353173 126.74123 
L 152.489824 126.74123 
L 152.612802 129.040917 
L 152.973287 129.040917 
L 153.047645 126.74123 
L 153.898271 118.692324 
L 154.022967 141.689198 
L 154.825616 141.689198 
L 154.989883 129.040917 
L 155.566045 129.040917 
L 155.677395 141.689198 
L 156.24204 141.689198 
L 156.353124 129.040917 
L 158.584998 129.040917 
L 158.707805 126.74123 
L 158.829306 126.74123 
L 158.940497 129.040917 
L 159.075869 129.040917 
L 159.198614 126.74123 
L 159.50506 126.74123 
L 159.627505 141.689198 
L 160.681445 141.689198 
L 160.79224 147.438416 
L 160.931564 147.438416 
L 161.044071 141.689198 
L 161.365048 141.689198 
L 161.475969 147.438416 
L 161.610985 147.438416 
L 161.73246 163.536228 
L 162.111571 163.536228 
L 162.228746 168.135603 
L 162.542194 168.135603 
L 162.653589 163.536228 
L 163.280051 163.536228 
L 163.401938 168.135603 
L 163.712198 168.135603 
L 163.823826 152.037791 
L 164.15518 152.037791 
L 164.402437 147.438416 
L 164.672866 147.438416 
L 164.785555 141.689198 
L 164.921065 141.689198 
L 165.032595 126.74123 
L 165.16618 126.74123 
L 165.277498 118.692324 
L 165.597102 118.692324 
L 165.709317 106.044043 
L 166.523821 106.044043 
L 166.645879 93.395762 
L 166.769165 93.395762 
L 166.891894 85.346857 
L 167.504863 85.346857 
L 167.616284 93.395762 
L 167.936047 93.395762 
L 168.058523 106.044043 
L 170.023608 106.044043 
L 170.13712 118.692324 
L 170.767926 118.692324 
L 170.889693 141.689198 
L 174.26836 141.689198 
L 174.379935 152.037791 
L 174.600526 152.037791 
L 173.911305 152.037791 
L 174.305772 152.037791 
L 174.427983 141.689198 
L 174.998507 141.689198 
L 175.121391 152.037791 
L 176.359776 152.037791 
L 176.471262 163.536228 
L 178.087694 163.536228 
L 178.210497 168.135603 
L 178.519391 168.135603 
L 178.630618 163.536228 
L 178.768704 163.536228 
L 178.880177 168.135603 
L 179.201691 168.135603 
L 179.323177 163.536228 
L 179.933115 163.536228 
L 180.054371 152.037791 
L 180.175915 152.037791 
L 180.287636 147.438416 
L 181.324611 147.438416 
L 181.43622 93.395762 
L 181.75402 93.395762 
L 181.877207 85.346857 
L 182.245887 85.346857 
L 182.367711 83.047169 
L 182.490457 83.047169 
L 182.613181 64.64967 
L 182.735906 64.64967 
L 182.858831 70.398889 
L 185.790282 70.398889 
L 185.904873 106.044043 
L 187.901019 106.044043 
L 188.048076 129.040917 
L 192.399004 129.040917 
L 192.520888 118.692324 
L 193.318243 118.692324 
L 193.440004 129.040917 
L 196.711573 129.040917 
L 196.833051 141.689198 
L 196.954957 141.689198 
L 197.077588 147.438416 
L 197.443161 147.438416 
L 197.564692 129.040917 
L 198.613879 129.040917 
L 198.735885 126.74123 
L 198.797343 126.74123 
L 198.922368 118.692324 
L 199.154377 118.692324 
L 417.715254 173.884821 
L 418.193957 173.884821 
L 418.316491 168.135603 
L 419.717648 168.135603 
L 421.338076 188.832789 
L 421.835582 188.832789 
L 421.957503 222.178256 
L 423.306596 222.178256 
L 423.428427 232.52685 
L 425.107771 232.52685 
L 425.219761 230.227162 
L 426.453299 230.227162 
L 426.575581 222.178256 
L 426.88845 222.178256 
L 427.004329 209.529976 
L 430.463831 209.529976 
L 430.576487 222.178256 
L 432.009091 222.178256 
L 432.009091 222.178256 
" style="fill:none;stroke:#ff7f0e;stroke-linecap:square;stroke-width:1.5;"/>
   </g>
   <g id="patch_3">
    <path d="M 54.2 255.638708 
L 54.2 25.44 
" style="fill:none;stroke:#000000;stroke-linecap:square;stroke-linejoin:miter;stroke-width:0.8;"/>
   </g>
   <g id="patch_4">
    <path d="M 450 255.638708 
L 450 25.44 
" style="fill:none;stroke:#000000;stroke-linecap:square;stroke-linejoin:miter;stroke-width:0.8;"/>
   </g>
   <g id="patch_5">
    <path d="M 54.2 255.638708 
L 450 255.638708 
" style="fill:none;stroke:#000000;stroke-linecap:square;stroke-linejoin:miter;stroke-width:0.8;"/>
   </g>
   <g id="patch_6">
    <path d="M 54.2 25.44 
L 450 25.44 
" style="fill:none;stroke:#000000;stroke-linecap:square;stroke-linejoin:miter;stroke-width:0.8;"/>
   </g>
   <g id="text_17">
    <!-- Lake Shoecraft - Water and Air Temperature -->
    <g transform="translate(120.481563 19.44)scale(0.12 -0.12)">
     <defs>
      <path d="M 9.8125 72.90625 
L 19.671875 72.90625 
L 19.671875 8.296875 
L 55.171875 8.296875 
L 55.171875 0 
L 9.8125 0 
z
" id="DejaVuSans-76"/>
      <path d="M 9.078125 75.984375 
L 18.109375 75.984375 
L 18.109375 31.109375 
L 44.921875 54.6875 
L 56.390625 54.6875 
L 27.390625 29.109375 
L 57.625 0 
L 45.90625 0 
L 18.109375 26.703125 
L 18.109375 0 
L 9.078125 0 
z
" id="DejaVuSans-107"/>
      <path d="M 53.515625 70.515625 
L 53.515625 60.890625 
Q 47.90625 63.578125 42.921875 64.890625 
Q 37.9375 66.21875 33.296875 66.21875 
Q 25.25 66.21875 20.875 63.09375 
Q 16.5 59.96875 16.5 54.203125 
Q 16.5 49.359375 19.40625 46.890625 
Q 22.3125 44.4375 30.421875 42.921875 
L 36.375 41.703125 
Q 47.40625 39.59375 52.65625 34.296875 
Q 57.90625 29 57.90625 20.125 
Q 57.90625 9.515625 50.796875 4.046875 
Q 43.703125 -1.421875 29.984375 -1.421875 
Q 24.8125 -1.421875 18.96875 -0.25 
Q 13.140625 0.921875 6.890625 3.21875 
L 6.890625 13.375 
Q 12.890625 10.015625 18.65625 8.296875 
Q 24.421875 6.59375 29.984375 6.59375 
Q 38.421875 6.59375 43.015625 9.90625 
Q 47.609375 13.234375 47.609375 19.390625 
Q 47.609375 24.75 44.3125 27.78125 
Q 41.015625 30.8125 33.5 32.328125 
L 27.484375 33.5 
Q 16.453125 35.6875 11.515625 40.375 
Q 6.59375 45.0625 6.59375 53.421875 
Q 6.59375 63.09375 13.40625 68.65625 
Q 20.21875 74.21875 32.171875 74.21875 
Q 37.3125 74.21875 42.625 73.28125 
Q 47.953125 72.359375 53.515625 70.515625 
z
" id="DejaVuSans-83"/>
      <path d="M 54.890625 33.015625 
L 54.890625 0 
L 45.90625 0 
L 45.90625 32.71875 
Q 45.90625 40.484375 42.875 44.328125 
Q 39.84375 48.1875 33.796875 48.1875 
Q 26.515625 48.1875 22.3125 43.546875 
Q 18.109375 38.921875 18.109375 30.90625 
L 18.109375 0 
L 9.078125 0 
L 9.078125 75.984375 
L 18.109375 75.984375 
L 18.109375 46.1875 
Q 21.34375 51.125 25.703125 53.5625 
Q 30.078125 56 35.796875 56 
Q 45.21875 56 50.046875 50.171875 
Q 54.890625 44.34375 54.890625 33.015625 
z
" id="DejaVuSans-104"/>
      <path d="M 30.609375 48.390625 
Q 23.390625 48.390625 19.1875 42.75 
Q 14.984375 37.109375 14.984375 27.296875 
Q 14.984375 17.484375 19.15625 11.84375 
Q 23.34375 6.203125 30.609375 6.203125 
Q 37.796875 6.203125 41.984375 11.859375 
Q 46.1875 17.53125 46.1875 27.296875 
Q 46.1875 37.015625 41.984375 42.703125 
Q 37.796875 48.390625 30.609375 48.390625 
z
M 30.609375 56 
Q 42.328125 56 49.015625 48.375 
Q 55.71875 40.765625 55.71875 27.296875 
Q 55.71875 13.875 49.015625 6.21875 
Q 42.328125 -1.421875 30.609375 -1.421875 
Q 18.84375 -1.421875 12.171875 6.21875 
Q 5.515625 13.875 5.515625 27.296875 
Q 5.515625 40.765625 12.171875 48.375 
Q 18.84375 56 30.609375 56 
z
" id="DejaVuSans-111"/>
      <path d="M 48.78125 52.59375 
L 48.78125 44.1875 
Q 44.96875 46.296875 41.140625 47.34375 
Q 37.3125 48.390625 33.40625 48.390625 
Q 24.65625 48.390625 19.8125 42.84375 
Q 14.984375 37.3125 14.984375 27.296875 
Q 14.984375 17.28125 19.8125 11.734375 
Q 24.65625 6.203125 33.40625 6.203125 
Q 37.3125 6.203125 41.140625 7.25 
Q 44.96875 8.296875 48.78125 10.40625 
L 48.78125 2.09375 
Q 45.015625 0.34375 40.984375 -0.53125 
Q 36.96875 -1.421875 32.421875 -1.421875 
Q 20.0625 -1.421875 12.78125 6.34375 
Q 5.515625 14.109375 5.515625 27.296875 
Q 5.515625 40.671875 12.859375 48.328125 
Q 20.21875 56 33.015625 56 
Q 37.15625 56 41.109375 55.140625 
Q 45.0625 54.296875 48.78125 52.59375 
z
" id="DejaVuSans-99"/>
      <path d="M 37.109375 75.984375 
L 37.109375 68.5 
L 28.515625 68.5 
Q 23.6875 68.5 21.796875 66.546875 
Q 19.921875 64.59375 19.921875 59.515625 
L 19.921875 54.6875 
L 34.71875 54.6875 
L 34.71875 47.703125 
L 19.921875 47.703125 
L 19.921875 0 
L 10.890625 0 
L 10.890625 47.703125 
L 2.296875 47.703125 
L 2.296875 54.6875 
L 10.890625 54.6875 
L 10.890625 58.5 
Q 10.890625 67.625 15.140625 71.796875 
Q 19.390625 75.984375 28.609375 75.984375 
z
" id="DejaVuSans-102"/>
      <path d="M 3.328125 72.90625 
L 13.28125 72.90625 
L 28.609375 11.28125 
L 43.890625 72.90625 
L 54.984375 72.90625 
L 70.3125 11.28125 
L 85.59375 72.90625 
L 95.609375 72.90625 
L 77.296875 0 
L 64.890625 0 
L 49.515625 63.28125 
L 33.984375 0 
L 21.578125 0 
z
" id="DejaVuSans-87"/>
      <path d="M 54.890625 33.015625 
L 54.890625 0 
L 45.90625 0 
L 45.90625 32.71875 
Q 45.90625 40.484375 42.875 44.328125 
Q 39.84375 48.1875 33.796875 48.1875 
Q 26.515625 48.1875 22.3125 43.546875 
Q 18.109375 38.921875 18.109375 30.90625 
L 18.109375 0 
L 9.078125 0 
L 9.078125 54.6875 
L 18.109375 54.6875 
L 18.109375 46.1875 
Q 21.34375 51.125 25.703125 53.5625 
Q 30.078125 56 35.796875 56 
Q 45.21875 56 50.046875 50.171875 
Q 54.890625 44.34375 54.890625 33.015625 
z
" id="DejaVuSans-110"/>
      <path d="M 45.40625 46.390625 
L 45.40625 75.984375 
L 54.390625 75.984375 
L 54.390625 0 
L 45.40625 0 
L 45.40625 8.203125 
Q 42.578125 3.328125 38.25 0.953125 
Q 33.9375 -1.421875 27.875 -1.421875 
Q 17.96875 -1.421875 11.734375 6.484375 
Q 5.515625 14.40625 5.515625 27.296875 
Q 5.515625 40.1875 11.734375 48.09375 
Q 17.96875 56 27.875 56 
Q 33.9375 56 38.25 53.625 
Q 42.578125 51.265625 45.40625 46.390625 
z
M 14.796875 27.296875 
Q 14.796875 17.390625 18.875 11.75 
Q 22.953125 6.109375 30.078125 6.109375 
Q 37.203125 6.109375 41.296875 11.75 
Q 45.40625 17.390625 45.40625 27.296875 
Q 45.40625 37.203125 41.296875 42.84375 
Q 37.203125 48.484375 30.078125 48.484375 
Q 22.953125 48.484375 18.875 42.84375 
Q 14.796875 37.203125 14.796875 27.296875 
z
" id="DejaVuSans-100"/>
      <path d="M 34.1875 63.1875 
L 20.796875 26.90625 
L 47.609375 26.90625 
z
M 28.609375 72.90625 
L 39.796875 72.90625 
L 67.578125 0 
L 57.328125 0 
L 50.6875 18.703125 
L 17.828125 18.703125 
L 11.1875 0 
L 0.78125 0 
z
" id="DejaVuSans-65"/>
      <path d="M 9.421875 54.6875 
L 18.40625 54.6875 
L 18.40625 0 
L 9.421875 0 
z
M 9.421875 75.984375 
L 18.40625 75.984375 
L 18.40625 64.59375 
L 9.421875 64.59375 
z
" id="DejaVuSans-105"/>
     </defs>
     <use xlink:href="#DejaVuSans-76"/>
     <use x="55.712891" xlink:href="#DejaVuSans-97"/>
     <use x="116.992188" xlink:href="#DejaVuSans-107"/>
     <use x="171.277344" xlink:href="#DejaVuSans-101"/>
     <use x="232.800781" xlink:href="#DejaVuSans-32"/>
     <use x="264.587891" xlink:href="#DejaVuSans-83"/>
     <use x="328.064453" xlink:href="#DejaVuSans-104"/>
     <use x="391.443359" xlink:href="#DejaVuSans-111"/>
     <use x="452.625" xlink:href="#DejaVuSans-101"/>
     <use x="514.148438" xlink:href="#DejaVuSans-99"/>
     <use x="569.128906" xlink:href="#DejaVuSans-114"/>
     <use x="610.242188" xlink:href="#DejaVuSans-97"/>
     <use x="671.521484" xlink:href="#DejaVuSans-102"/>
     <use x="704.976562" xlink:href="#DejaVuSans-116"/>
     <use x="744.185547" xlink:href="#DejaVuSans-32"/>
     <use x="775.972656" xlink:href="#DejaVuSans-45"/>
     <use x="812.056641" xlink:href="#DejaVuSans-32"/>
     <use x="843.84375" xlink:href="#DejaVuSans-87"/>
     <use x="936.345703" xlink:href="#DejaVuSans-97"/>
     <use x="997.625" xlink:href="#DejaVuSans-116"/>
     <use x="1036.833984" xlink:href="#DejaVuSans-101"/>
     <use x="1098.357422" xlink:href="#DejaVuSans-114"/>
     <use x="1139.470703" xlink:href="#DejaVuSans-32"/>
     <use x="1171.257812" xlink:href="#DejaVuSans-97"/>
     <use x="1232.537109" xlink:href="#DejaVuSans-110"/>
     <use x="1295.916016" xlink:href="#DejaVuSans-100"/>
     <use x="1359.392578" xlink:href="#DejaVuSans-32"/>
     <use x="1391.179688" xlink:href="#DejaVuSans-65"/>
     <use x="1459.587891" xlink:href="#DejaVuSans-105"/>
     <use x="1487.371094" xlink:href="#DejaVuSans-114"/>
     <use x="1528.484375" xlink:href="#DejaVuSans-32"/>
     <use x="1560.271484" xlink:href="#DejaVuSans-84"/>
     <use x="1604.355469" xlink:href="#DejaVuSans-101"/>
     <use x="1665.878906" xlink:href="#DejaVuSans-109"/>
     <use x="1763.291016" xlink:href="#DejaVuSans-112"/>
     <use x="1826.767578" xlink:href="#DejaVuSans-101"/>
     <use x="1888.291016" xlink:href="#DejaVuSans-114"/>
     <use x="1929.404297" xlink:href="#DejaVuSans-97"/>
     <use x="1990.683594" xlink:href="#DejaVuSans-116"/>
     <use x="2029.892578" xlink:href="#DejaVuSans-117"/>
     <use x="2093.271484" xlink:href="#DejaVuSans-114"/>
     <use x="2132.134766" xlink:href="#DejaVuSans-101"/>
    </g>
   </g>
   <g id="legend_1">
    <g id="patch_7">
     <path d="M 357.890625 62.79625 
L 443 62.79625 
Q 445 62.79625 445 60.79625 
L 445 32.44 
Q 445 30.44 443 30.44 
L 357.890625 30.44 
Q 355.890625 30.44 355.890625 32.44 
L 355.890625 60.79625 
Q 355.890625 62.79625 357.890625 62.79625 
z
" style="fill:#ffffff;opacity:0.8;stroke:#cccccc;stroke-linejoin:miter;"/>
    </g>
    <g id="line2d_31">
     <path d="M 359.890625 38.538437 
L 379.890625 38.538437 
" style="fill:none;stroke:#1f77b4;stroke-linecap:square;stroke-width:1.5;"/>
    </g>
    <g id="line2d_32"/>
    <g id="text_18">
     <!-- Lake Temp -->
     <g transform="translate(387.890625 42.038437)scale(0.1 -0.1)">
      <use xlink:href="#DejaVuSans-76"/>
      <use x="55.712891" xlink:href="#DejaVuSans-97"/>
      <use x="116.992188" xlink:href="#DejaVuSans-107"/>
      <use x="171.277344" xlink:href="#DejaVuSans-101"/>
      <use x="232.800781" xlink:href="#DejaVuSans-32"/>
      <use x="264.587891" xlink:href="#DejaVuSans-84"/>
      <use x="308.671875" xlink:href="#DejaVuSans-101"/>
      <use x="370.195312" xlink:href="#DejaVuSans-109"/>
      <use x="467.607422" xlink:href="#DejaVuSans-112"/>
     </g>
    </g>
    <g id="line2d_33">
     <path d="M 359.890625 53.216562 
L 379.890625 53.216562 
" style="fill:none;stroke:#ff7f0e;stroke-linecap:square;stroke-width:1.5;"/>
    </g>
    <g id="line2d_34"/>
    <g id="text_19">
     <!-- Air Temp -->
     <g transform="translate(387.890625 56.716562)scale(0.1 -0.1)">
      <use xlink:href="#DejaVuSans-65"/>
      <use x="68.408203" xlink:href="#DejaVuSans-105"/>
      <use x="96.191406" xlink:href="#DejaVuSans-114"/>
      <use x="137.304688" xlink:href="#DejaVuSans-32"/>
      <use x="169.091797" xlink:href="#DejaVuSans-84"/>
      <use x="213.175781" xlink:href="#DejaVuSans-101"/>
      <use x="274.699219" xlink:href="#DejaVuSans-109"/>
      <use x="372.111328" xlink:href="#DejaVuSans-112"/>
     </g>
    </g>
   </g>
  </g>
 </g>
 <defs>
  <clipPath id="pa517b93c80">
   <rect height="230.198708" width="395.8" x="54.2" y="25.44"/>
  </clipPath>
 </defs>
</svg>
