<?xml version="1.0" encoding="utf-8" standalone="no"?>
<!DOCTYPE svg PUBLIC "-//W3C//DTD SVG 1.1//EN"
  "http://www.w3.org/Graphics/SVG/1.1/DTD/svg11.dtd">
<!-- Created with matplotlib (https://matplotlib.org/) -->
<svg height="345.6pt" version="1.1" viewBox="0 0 460.8 345.6" width="460.8pt" xmlns="http://www.w3.org/2000/svg" xmlns:xlink="http://www.w3.org/1999/xlink">
 <metadata>
  <rdf:RDF xmlns:cc="http://creativecommons.org/ns#" xmlns:dc="http://purl.org/dc/elements/1.1/" xmlns:rdf="http://www.w3.org/1999/02/22-rdf-syntax-ns#">
   <cc:Work>
    <dc:type rdf:resource="http://purl.org/dc/dcmitype/StillImage"/>
    <dc:date>2024-09-07T14:58:37.364802</dc:date>
    <dc:format>image/svg+xml</dc:format>
    <dc:creator>
     <cc:Agent>
      <dc:title>Matplotlib v3.3.2, https://matplotlib.org/</dc:title>
     </cc:Agent>
    </dc:creator>
   </cc:Work>
  </rdf:RDF>
 </metadata>
 <defs>
  <style type="text/css">*{stroke-linecap:butt;stroke-linejoin:round;}</style>
 </defs>
 <g id="figure_1">
  <g id="patch_1">
   <path d="M 0 345.6 
L 460.8 345.6 
L 460.8 0 
L 0 0 
z
" style="fill:none;"/>
  </g>
  <g id="axes_1">
   <g id="patch_2">
    <path d="M 44.66 255.638708 
L 450 255.638708 
L 450 25.44 
L 44.66 25.44 
z
" style="fill:none;"/>
   </g>
   <g id="matplotlib.axis_1">
    <g id="xtick_1">
     <g id="line2d_1">
      <path clip-path="url(#pefe28084d9)" d="M 110.554175 255.638708 
L 110.554175 25.44 
" style="fill:none;stroke:#b0b0b0;stroke-linecap:square;stroke-width:0.8;"/>
     </g>
     <g id="line2d_2">
      <defs>
       <path d="M 0 0 
L 0 3.5 
" id="m081021627d" style="stroke:#000000;stroke-width:0.8;"/>
      </defs>
      <g>
       <use style="stroke:#000000;stroke-width:0.8;" x="110.554175" xlink:href="#m081021627d" y="255.638708"/>
      </g>
     </g>
     <g id="text_1">
      <!-- 2024-08-29 -->
      <g transform="translate(103.208782 319.848351)rotate(-70)scale(0.1 -0.1)">
       <defs>
        <path d="M 19.1875 8.296875 
L 53.609375 8.296875 
L 53.609375 0 
L 7.328125 0 
L 7.328125 8.296875 
Q 12.9375 14.109375 22.625 23.890625 
Q 32.328125 33.6875 34.8125 36.53125 
Q 39.546875 41.84375 41.421875 45.53125 
Q 43.3125 49.21875 43.3125 52.78125 
Q 43.3125 58.59375 39.234375 62.25 
Q 35.15625 65.921875 28.609375 65.921875 
Q 23.96875 65.921875 18.8125 64.3125 
Q 13.671875 62.703125 7.8125 59.421875 
L 7.8125 69.390625 
Q 13.765625 71.78125 18.9375 73 
Q 24.125 74.21875 28.421875 74.21875 
Q 39.75 74.21875 46.484375 68.546875 
Q 53.21875 62.890625 53.21875 53.421875 
Q 53.21875 48.921875 51.53125 44.890625 
Q 49.859375 40.875 45.40625 35.40625 
Q 44.1875 33.984375 37.640625 27.21875 
Q 31.109375 20.453125 19.1875 8.296875 
z
" id="DejaVuSans-50"/>
        <path d="M 31.78125 66.40625 
Q 24.171875 66.40625 20.328125 58.90625 
Q 16.5 51.421875 16.5 36.375 
Q 16.5 21.390625 20.328125 13.890625 
Q 24.171875 6.390625 31.78125 6.390625 
Q 39.453125 6.390625 43.28125 13.890625 
Q 47.125 21.390625 47.125 36.375 
Q 47.125 51.421875 43.28125 58.90625 
Q 39.453125 66.40625 31.78125 66.40625 
z
M 31.78125 74.21875 
Q 44.046875 74.21875 50.515625 64.515625 
Q 56.984375 54.828125 56.984375 36.375 
Q 56.984375 17.96875 50.515625 8.265625 
Q 44.046875 -1.421875 31.78125 -1.421875 
Q 19.53125 -1.421875 13.0625 8.265625 
Q 6.59375 17.96875 6.59375 36.375 
Q 6.59375 54.828125 13.0625 64.515625 
Q 19.53125 74.21875 31.78125 74.21875 
z
" id="DejaVuSans-48"/>
        <path d="M 37.796875 64.3125 
L 12.890625 25.390625 
L 37.796875 25.390625 
z
M 35.203125 72.90625 
L 47.609375 72.90625 
L 47.609375 25.390625 
L 58.015625 25.390625 
L 58.015625 17.1875 
L 47.609375 17.1875 
L 47.609375 0 
L 37.796875 0 
L 37.796875 17.1875 
L 4.890625 17.1875 
L 4.890625 26.703125 
z
" id="DejaVuSans-52"/>
        <path d="M 4.890625 31.390625 
L 31.203125 31.390625 
L 31.203125 23.390625 
L 4.890625 23.390625 
z
" id="DejaVuSans-45"/>
        <path d="M 31.78125 34.625 
Q 24.75 34.625 20.71875 30.859375 
Q 16.703125 27.09375 16.703125 20.515625 
Q 16.703125 13.921875 20.71875 10.15625 
Q 24.75 6.390625 31.78125 6.390625 
Q 38.8125 6.390625 42.859375 10.171875 
Q 46.921875 13.96875 46.921875 20.515625 
Q 46.921875 27.09375 42.890625 30.859375 
Q 38.875 34.625 31.78125 34.625 
z
M 21.921875 38.8125 
Q 15.578125 40.375 12.03125 44.71875 
Q 8.5 49.078125 8.5 55.328125 
Q 8.5 64.0625 14.71875 69.140625 
Q 20.953125 74.21875 31.78125 74.21875 
Q 42.671875 74.21875 48.875 69.140625 
Q 55.078125 64.0625 55.078125 55.328125 
Q 55.078125 49.078125 51.53125 44.71875 
Q 48 40.375 41.703125 38.8125 
Q 48.828125 37.15625 52.796875 32.3125 
Q 56.78125 27.484375 56.78125 20.515625 
Q 56.78125 9.90625 50.3125 4.234375 
Q 43.84375 -1.421875 31.78125 -1.421875 
Q 19.734375 -1.421875 13.25 4.234375 
Q 6.78125 9.90625 6.78125 20.515625 
Q 6.78125 27.484375 10.78125 32.3125 
Q 14.796875 37.15625 21.921875 38.8125 
z
M 18.3125 54.390625 
Q 18.3125 48.734375 21.84375 45.5625 
Q 25.390625 42.390625 31.78125 42.390625 
Q 38.140625 42.390625 41.71875 45.5625 
Q 45.3125 48.734375 45.3125 54.390625 
Q 45.3125 60.0625 41.71875 63.234375 
Q 38.140625 66.40625 31.78125 66.40625 
Q 25.390625 66.40625 21.84375 63.234375 
Q 18.3125 60.0625 18.3125 54.390625 
z
" id="DejaVuSans-56"/>
        <path d="M 10.984375 1.515625 
L 10.984375 10.5 
Q 14.703125 8.734375 18.5 7.8125 
Q 22.3125 6.890625 25.984375 6.890625 
Q 35.75 6.890625 40.890625 13.453125 
Q 46.046875 20.015625 46.78125 33.40625 
Q 43.953125 29.203125 39.59375 26.953125 
Q 35.25 24.703125 29.984375 24.703125 
Q 19.046875 24.703125 12.671875 31.3125 
Q 6.296875 37.9375 6.296875 49.421875 
Q 6.296875 60.640625 12.9375 67.421875 
Q 19.578125 74.21875 30.609375 74.21875 
Q 43.265625 74.21875 49.921875 64.515625 
Q 56.59375 54.828125 56.59375 36.375 
Q 56.59375 19.140625 48.40625 8.859375 
Q 40.234375 -1.421875 26.421875 -1.421875 
Q 22.703125 -1.421875 18.890625 -0.6875 
Q 15.09375 0.046875 10.984375 1.515625 
z
M 30.609375 32.421875 
Q 37.25 32.421875 41.125 36.953125 
Q 45.015625 41.5 45.015625 49.421875 
Q 45.015625 57.28125 41.125 61.84375 
Q 37.25 66.40625 30.609375 66.40625 
Q 23.96875 66.40625 20.09375 61.84375 
Q 16.21875 57.28125 16.21875 49.421875 
Q 16.21875 41.5 20.09375 36.953125 
Q 23.96875 32.421875 30.609375 32.421875 
z
" id="DejaVuSans-57"/>
       </defs>
       <use xlink:href="#DejaVuSans-50"/>
       <use x="63.623047" xlink:href="#DejaVuSans-48"/>
       <use x="127.246094" xlink:href="#DejaVuSans-50"/>
       <use x="190.869141" xlink:href="#DejaVuSans-52"/>
       <use x="254.492188" xlink:href="#DejaVuSans-45"/>
       <use x="290.576172" xlink:href="#DejaVuSans-48"/>
       <use x="354.199219" xlink:href="#DejaVuSans-56"/>
       <use x="417.822266" xlink:href="#DejaVuSans-45"/>
       <use x="453.90625" xlink:href="#DejaVuSans-50"/>
       <use x="517.529297" xlink:href="#DejaVuSans-57"/>
      </g>
     </g>
    </g>
    <g id="xtick_2">
     <g id="line2d_3">
      <path clip-path="url(#pefe28084d9)" d="M 177.26853 255.638708 
L 177.26853 25.44 
" style="fill:none;stroke:#b0b0b0;stroke-linecap:square;stroke-width:0.8;"/>
     </g>
     <g id="line2d_4">
      <g>
       <use style="stroke:#000000;stroke-width:0.8;" x="177.26853" xlink:href="#m081021627d" y="255.638708"/>
      </g>
     </g>
     <g id="text_2">
      <!-- 2024-08-31 -->
      <g transform="translate(169.923137 319.848351)rotate(-70)scale(0.1 -0.1)">
       <defs>
        <path d="M 40.578125 39.3125 
Q 47.65625 37.796875 51.625 33 
Q 55.609375 28.21875 55.609375 21.1875 
Q 55.609375 10.40625 48.1875 4.484375 
Q 40.765625 -1.421875 27.09375 -1.421875 
Q 22.515625 -1.421875 17.65625 -0.515625 
Q 12.796875 0.390625 7.625 2.203125 
L 7.625 11.71875 
Q 11.71875 9.328125 16.59375 8.109375 
Q 21.484375 6.890625 26.8125 6.890625 
Q 36.078125 6.890625 40.9375 10.546875 
Q 45.796875 14.203125 45.796875 21.1875 
Q 45.796875 27.640625 41.28125 31.265625 
Q 36.765625 34.90625 28.71875 34.90625 
L 20.21875 34.90625 
L 20.21875 43.015625 
L 29.109375 43.015625 
Q 36.375 43.015625 40.234375 45.921875 
Q 44.09375 48.828125 44.09375 54.296875 
Q 44.09375 59.90625 40.109375 62.90625 
Q 36.140625 65.921875 28.71875 65.921875 
Q 24.65625 65.921875 20.015625 65.03125 
Q 15.375 64.15625 9.8125 62.3125 
L 9.8125 71.09375 
Q 15.4375 72.65625 20.34375 73.4375 
Q 25.25 74.21875 29.59375 74.21875 
Q 40.828125 74.21875 47.359375 69.109375 
Q 53.90625 64.015625 53.90625 55.328125 
Q 53.90625 49.265625 50.4375 45.09375 
Q 46.96875 40.921875 40.578125 39.3125 
z
" id="DejaVuSans-51"/>
        <path d="M 12.40625 8.296875 
L 28.515625 8.296875 
L 28.515625 63.921875 
L 10.984375 60.40625 
L 10.984375 69.390625 
L 28.421875 72.90625 
L 38.28125 72.90625 
L 38.28125 8.296875 
L 54.390625 8.296875 
L 54.390625 0 
L 12.40625 0 
z
" id="DejaVuSans-49"/>
       </defs>
       <use xlink:href="#DejaVuSans-50"/>
       <use x="63.623047" xlink:href="#DejaVuSans-48"/>
       <use x="127.246094" xlink:href="#DejaVuSans-50"/>
       <use x="190.869141" xlink:href="#DejaVuSans-52"/>
       <use x="254.492188" xlink:href="#DejaVuSans-45"/>
       <use x="290.576172" xlink:href="#DejaVuSans-48"/>
       <use x="354.199219" xlink:href="#DejaVuSans-56"/>
       <use x="417.822266" xlink:href="#DejaVuSans-45"/>
       <use x="453.90625" xlink:href="#DejaVuSans-51"/>
       <use x="517.529297" xlink:href="#DejaVuSans-49"/>
      </g>
     </g>
    </g>
    <g id="xtick_3">
     <g id="line2d_5">
      <path clip-path="url(#pefe28084d9)" d="M 210.625707 255.638708 
L 210.625707 25.44 
" style="fill:none;stroke:#b0b0b0;stroke-linecap:square;stroke-width:0.8;"/>
     </g>
     <g id="line2d_6">
      <g>
       <use style="stroke:#000000;stroke-width:0.8;" x="210.625707" xlink:href="#m081021627d" y="255.638708"/>
      </g>
     </g>
     <g id="text_3">
      <!-- 2024-09-01 -->
      <g transform="translate(203.280314 319.848351)rotate(-70)scale(0.1 -0.1)">
       <use xlink:href="#DejaVuSans-50"/>
       <use x="63.623047" xlink:href="#DejaVuSans-48"/>
       <use x="127.246094" xlink:href="#DejaVuSans-50"/>
       <use x="190.869141" xlink:href="#DejaVuSans-52"/>
       <use x="254.492188" xlink:href="#DejaVuSans-45"/>
       <use x="290.576172" xlink:href="#DejaVuSans-48"/>
       <use x="354.199219" xlink:href="#DejaVuSans-57"/>
       <use x="417.822266" xlink:href="#DejaVuSans-45"/>
       <use x="453.90625" xlink:href="#DejaVuSans-48"/>
       <use x="517.529297" xlink:href="#DejaVuSans-49"/>
      </g>
     </g>
    </g>
    <g id="xtick_4">
     <g id="line2d_7">
      <path clip-path="url(#pefe28084d9)" d="M 277.340062 255.638708 
L 277.340062 25.44 
" style="fill:none;stroke:#b0b0b0;stroke-linecap:square;stroke-width:0.8;"/>
     </g>
     <g id="line2d_8">
      <g>
       <use style="stroke:#000000;stroke-width:0.8;" x="277.340062" xlink:href="#m081021627d" y="255.638708"/>
      </g>
     </g>
     <g id="text_4">
      <!-- 2024-09-03 -->
      <g transform="translate(269.994669 319.848351)rotate(-70)scale(0.1 -0.1)">
       <use xlink:href="#DejaVuSans-50"/>
       <use x="63.623047" xlink:href="#DejaVuSans-48"/>
       <use x="127.246094" xlink:href="#DejaVuSans-50"/>
       <use x="190.869141" xlink:href="#DejaVuSans-52"/>
       <use x="254.492188" xlink:href="#DejaVuSans-45"/>
       <use x="290.576172" xlink:href="#DejaVuSans-48"/>
       <use x="354.199219" xlink:href="#DejaVuSans-57"/>
       <use x="417.822266" xlink:href="#DejaVuSans-45"/>
       <use x="453.90625" xlink:href="#DejaVuSans-48"/>
       <use x="517.529297" xlink:href="#DejaVuSans-51"/>
      </g>
     </g>
    </g>
    <g id="xtick_5">
     <g id="line2d_9">
      <path clip-path="url(#pefe28084d9)" d="M 344.054417 255.638708 
L 344.054417 25.44 
" style="fill:none;stroke:#b0b0b0;stroke-linecap:square;stroke-width:0.8;"/>
     </g>
     <g id="line2d_10">
      <g>
       <use style="stroke:#000000;stroke-width:0.8;" x="344.054417" xlink:href="#m081021627d" y="255.638708"/>
      </g>
     </g>
     <g id="text_5">
      <!-- 2024-09-05 -->
      <g transform="translate(336.709024 319.848351)rotate(-70)scale(0.1 -0.1)">
       <defs>
        <path d="M 10.796875 72.90625 
L 49.515625 72.90625 
L 49.515625 64.59375 
L 19.828125 64.59375 
L 19.828125 46.734375 
Q 21.96875 47.46875 24.109375 47.828125 
Q 26.265625 48.1875 28.421875 48.1875 
Q 40.625 48.1875 47.75 41.5 
Q 54.890625 34.8125 54.890625 23.390625 
Q 54.890625 11.625 47.5625 5.09375 
Q 40.234375 -1.421875 26.90625 -1.421875 
Q 22.3125 -1.421875 17.546875 -0.640625 
Q 12.796875 0.140625 7.71875 1.703125 
L 7.71875 11.625 
Q 12.109375 9.234375 16.796875 8.0625 
Q 21.484375 6.890625 26.703125 6.890625 
Q 35.15625 6.890625 40.078125 11.328125 
Q 45.015625 15.765625 45.015625 23.390625 
Q 45.015625 31 40.078125 35.4375 
Q 35.15625 39.890625 26.703125 39.890625 
Q 22.75 39.890625 18.8125 39.015625 
Q 14.890625 38.140625 10.796875 36.28125 
z
" id="DejaVuSans-53"/>
       </defs>
       <use xlink:href="#DejaVuSans-50"/>
       <use x="63.623047" xlink:href="#DejaVuSans-48"/>
       <use x="127.246094" xlink:href="#DejaVuSans-50"/>
       <use x="190.869141" xlink:href="#DejaVuSans-52"/>
       <use x="254.492188" xlink:href="#DejaVuSans-45"/>
       <use x="290.576172" xlink:href="#DejaVuSans-48"/>
       <use x="354.199219" xlink:href="#DejaVuSans-57"/>
       <use x="417.822266" xlink:href="#DejaVuSans-45"/>
       <use x="453.90625" xlink:href="#DejaVuSans-48"/>
       <use x="517.529297" xlink:href="#DejaVuSans-53"/>
      </g>
     </g>
    </g>
    <g id="xtick_6">
     <g id="line2d_11">
      <path clip-path="url(#pefe28084d9)" d="M 410.768772 255.638708 
L 410.768772 25.44 
" style="fill:none;stroke:#b0b0b0;stroke-linecap:square;stroke-width:0.8;"/>
     </g>
     <g id="line2d_12">
      <g>
       <use style="stroke:#000000;stroke-width:0.8;" x="410.768772" xlink:href="#m081021627d" y="255.638708"/>
      </g>
     </g>
     <g id="text_6">
      <!-- 2024-09-07 -->
      <g transform="translate(403.423379 319.848351)rotate(-70)scale(0.1 -0.1)">
       <defs>
        <path d="M 8.203125 72.90625 
L 55.078125 72.90625 
L 55.078125 68.703125 
L 28.609375 0 
L 18.3125 0 
L 43.21875 64.59375 
L 8.203125 64.59375 
z
" id="DejaVuSans-55"/>
       </defs>
       <use xlink:href="#DejaVuSans-50"/>
       <use x="63.623047" xlink:href="#DejaVuSans-48"/>
       <use x="127.246094" xlink:href="#DejaVuSans-50"/>
       <use x="190.869141" xlink:href="#DejaVuSans-52"/>
       <use x="254.492188" xlink:href="#DejaVuSans-45"/>
       <use x="290.576172" xlink:href="#DejaVuSans-48"/>
       <use x="354.199219" xlink:href="#DejaVuSans-57"/>
       <use x="417.822266" xlink:href="#DejaVuSans-45"/>
       <use x="453.90625" xlink:href="#DejaVuSans-48"/>
       <use x="517.529297" xlink:href="#DejaVuSans-55"/>
      </g>
     </g>
    </g>
    <g id="text_7">
     <!-- Date -->
     <g transform="translate(235.379219 332.158083)scale(0.1 -0.1)">
      <defs>
       <path d="M 19.671875 64.796875 
L 19.671875 8.109375 
L 31.59375 8.109375 
Q 46.6875 8.109375 53.6875 14.9375 
Q 60.6875 21.78125 60.6875 36.53125 
Q 60.6875 51.171875 53.6875 57.984375 
Q 46.6875 64.796875 31.59375 64.796875 
z
M 9.8125 72.90625 
L 30.078125 72.90625 
Q 51.265625 72.90625 61.171875 64.09375 
Q 71.09375 55.28125 71.09375 36.53125 
Q 71.09375 17.671875 61.125 8.828125 
Q 51.171875 0 30.078125 0 
L 9.8125 0 
z
" id="DejaVuSans-68"/>
       <path d="M 34.28125 27.484375 
Q 23.390625 27.484375 19.1875 25 
Q 14.984375 22.515625 14.984375 16.5 
Q 14.984375 11.71875 18.140625 8.90625 
Q 21.296875 6.109375 26.703125 6.109375 
Q 34.1875 6.109375 38.703125 11.40625 
Q 43.21875 16.703125 43.21875 25.484375 
L 43.21875 27.484375 
z
M 52.203125 31.203125 
L 52.203125 0 
L 43.21875 0 
L 43.21875 8.296875 
Q 40.140625 3.328125 35.546875 0.953125 
Q 30.953125 -1.421875 24.3125 -1.421875 
Q 15.921875 -1.421875 10.953125 3.296875 
Q 6 8.015625 6 15.921875 
Q 6 25.140625 12.171875 29.828125 
Q 18.359375 34.515625 30.609375 34.515625 
L 43.21875 34.515625 
L 43.21875 35.40625 
Q 43.21875 41.609375 39.140625 45 
Q 35.0625 48.390625 27.6875 48.390625 
Q 23 48.390625 18.546875 47.265625 
Q 14.109375 46.140625 10.015625 43.890625 
L 10.015625 52.203125 
Q 14.9375 54.109375 19.578125 55.046875 
Q 24.21875 56 28.609375 56 
Q 40.484375 56 46.34375 49.84375 
Q 52.203125 43.703125 52.203125 31.203125 
z
" id="DejaVuSans-97"/>
       <path d="M 18.3125 70.21875 
L 18.3125 54.6875 
L 36.8125 54.6875 
L 36.8125 47.703125 
L 18.3125 47.703125 
L 18.3125 18.015625 
Q 18.3125 11.328125 20.140625 9.421875 
Q 21.96875 7.515625 27.59375 7.515625 
L 36.8125 7.515625 
L 36.8125 0 
L 27.59375 0 
Q 17.1875 0 13.234375 3.875 
Q 9.28125 7.765625 9.28125 18.015625 
L 9.28125 47.703125 
L 2.6875 47.703125 
L 2.6875 54.6875 
L 9.28125 54.6875 
L 9.28125 70.21875 
z
" id="DejaVuSans-116"/>
       <path d="M 56.203125 29.59375 
L 56.203125 25.203125 
L 14.890625 25.203125 
Q 15.484375 15.921875 20.484375 11.0625 
Q 25.484375 6.203125 34.421875 6.203125 
Q 39.59375 6.203125 44.453125 7.46875 
Q 49.3125 8.734375 54.109375 11.28125 
L 54.109375 2.78125 
Q 49.265625 0.734375 44.1875 -0.34375 
Q 39.109375 -1.421875 33.890625 -1.421875 
Q 20.796875 -1.421875 13.15625 6.1875 
Q 5.515625 13.8125 5.515625 26.8125 
Q 5.515625 40.234375 12.765625 48.109375 
Q 20.015625 56 32.328125 56 
Q 43.359375 56 49.78125 48.890625 
Q 56.203125 41.796875 56.203125 29.59375 
z
M 47.21875 32.234375 
Q 47.125 39.59375 43.09375 43.984375 
Q 39.0625 48.390625 32.421875 48.390625 
Q 24.90625 48.390625 20.390625 44.140625 
Q 15.875 39.890625 15.1875 32.171875 
z
" id="DejaVuSans-101"/>
      </defs>
      <use xlink:href="#DejaVuSans-68"/>
      <use x="77.001953" xlink:href="#DejaVuSans-97"/>
      <use x="138.28125" xlink:href="#DejaVuSans-116"/>
      <use x="177.490234" xlink:href="#DejaVuSans-101"/>
     </g>
    </g>
   </g>
   <g id="matplotlib.axis_2">
    <g id="ytick_1">
     <g id="line2d_13">
      <path clip-path="url(#pefe28084d9)" d="M 44.66 226.204338 
L 450 226.204338 
" style="fill:none;stroke:#b0b0b0;stroke-linecap:square;stroke-width:0.8;"/>
     </g>
     <g id="line2d_14">
      <defs>
       <path d="M 0 0 
L -3.5 0 
" id="m8904e31d9a" style="stroke:#000000;stroke-width:0.8;"/>
      </defs>
      <g>
       <use style="stroke:#000000;stroke-width:0.8;" x="44.66" xlink:href="#m8904e31d9a" y="226.204338"/>
      </g>
     </g>
     <g id="text_8">
      <!-- 55 -->
      <g transform="translate(24.935 230.003557)scale(0.1 -0.1)">
       <use xlink:href="#DejaVuSans-53"/>
       <use x="63.623047" xlink:href="#DejaVuSans-53"/>
      </g>
     </g>
    </g>
    <g id="ytick_2">
     <g id="line2d_15">
      <path clip-path="url(#pefe28084d9)" d="M 44.66 196.562475 
L 450 196.562475 
" style="fill:none;stroke:#b0b0b0;stroke-linecap:square;stroke-width:0.8;"/>
     </g>
     <g id="line2d_16">
      <g>
       <use style="stroke:#000000;stroke-width:0.8;" x="44.66" xlink:href="#m8904e31d9a" y="196.562475"/>
      </g>
     </g>
     <g id="text_9">
      <!-- 60 -->
      <g transform="translate(24.935 200.361694)scale(0.1 -0.1)">
       <defs>
        <path d="M 33.015625 40.375 
Q 26.375 40.375 22.484375 35.828125 
Q 18.609375 31.296875 18.609375 23.390625 
Q 18.609375 15.53125 22.484375 10.953125 
Q 26.375 6.390625 33.015625 6.390625 
Q 39.65625 6.390625 43.53125 10.953125 
Q 47.40625 15.53125 47.40625 23.390625 
Q 47.40625 31.296875 43.53125 35.828125 
Q 39.65625 40.375 33.015625 40.375 
z
M 52.59375 71.296875 
L 52.59375 62.3125 
Q 48.875 64.0625 45.09375 64.984375 
Q 41.3125 65.921875 37.59375 65.921875 
Q 27.828125 65.921875 22.671875 59.328125 
Q 17.53125 52.734375 16.796875 39.40625 
Q 19.671875 43.65625 24.015625 45.921875 
Q 28.375 48.1875 33.59375 48.1875 
Q 44.578125 48.1875 50.953125 41.515625 
Q 57.328125 34.859375 57.328125 23.390625 
Q 57.328125 12.15625 50.6875 5.359375 
Q 44.046875 -1.421875 33.015625 -1.421875 
Q 20.359375 -1.421875 13.671875 8.265625 
Q 6.984375 17.96875 6.984375 36.375 
Q 6.984375 53.65625 15.1875 63.9375 
Q 23.390625 74.21875 37.203125 74.21875 
Q 40.921875 74.21875 44.703125 73.484375 
Q 48.484375 72.75 52.59375 71.296875 
z
" id="DejaVuSans-54"/>
       </defs>
       <use xlink:href="#DejaVuSans-54"/>
       <use x="63.623047" xlink:href="#DejaVuSans-48"/>
      </g>
     </g>
    </g>
    <g id="ytick_3">
     <g id="line2d_17">
      <path clip-path="url(#pefe28084d9)" d="M 44.66 166.920612 
L 450 166.920612 
" style="fill:none;stroke:#b0b0b0;stroke-linecap:square;stroke-width:0.8;"/>
     </g>
     <g id="line2d_18">
      <g>
       <use style="stroke:#000000;stroke-width:0.8;" x="44.66" xlink:href="#m8904e31d9a" y="166.920612"/>
      </g>
     </g>
     <g id="text_10">
      <!-- 65 -->
      <g transform="translate(24.935 170.719831)scale(0.1 -0.1)">
       <use xlink:href="#DejaVuSans-54"/>
       <use x="63.623047" xlink:href="#DejaVuSans-53"/>
      </g>
     </g>
    </g>
    <g id="ytick_4">
     <g id="line2d_19">
      <path clip-path="url(#pefe28084d9)" d="M 44.66 137.278749 
L 450 137.278749 
" style="fill:none;stroke:#b0b0b0;stroke-linecap:square;stroke-width:0.8;"/>
     </g>
     <g id="line2d_20">
      <g>
       <use style="stroke:#000000;stroke-width:0.8;" x="44.66" xlink:href="#m8904e31d9a" y="137.278749"/>
      </g>
     </g>
     <g id="text_11">
      <!-- 70 -->
      <g transform="translate(24.935 141.077968)scale(0.1 -0.1)">
       <use xlink:href="#DejaVuSans-55"/>
       <use x="63.623047" xlink:href="#DejaVuSans-48"/>
      </g>
     </g>
    </g>
    <g id="ytick_5">
     <g id="line2d_21">
      <path clip-path="url(#pefe28084d9)" d="M 44.66 107.636886 
L 450 107.636886 
" style="fill:none;stroke:#b0b0b0;stroke-linecap:square;stroke-width:0.8;"/>
     </g>
     <g id="line2d_22">
      <g>
       <use style="stroke:#000000;stroke-width:0.8;" x="44.66" xlink:href="#m8904e31d9a" y="107.636886"/>
      </g>
     </g>
     <g id="text_12">
      <!-- 75 -->
      <g transform="translate(24.935 111.436105)scale(0.1 -0.1)">
       <use xlink:href="#DejaVuSans-55"/>
       <use x="63.623047" xlink:href="#DejaVuSans-53"/>
      </g>
     </g>
    </g>
    <g id="ytick_6">
     <g id="line2d_23">
      <path clip-path="url(#pefe28084d9)" d="M 44.66 77.995023 
L 450 77.995023 
" style="fill:none;stroke:#b0b0b0;stroke-linecap:square;stroke-width:0.8;"/>
     </g>
     <g id="line2d_24">
      <g>
       <use style="stroke:#000000;stroke-width:0.8;" x="44.66" xlink:href="#m8904e31d9a" y="77.995023"/>
      </g>
     </g>
     <g id="text_13">
      <!-- 80 -->
      <g transform="translate(24.935 81.794242)scale(0.1 -0.1)">
       <use xlink:href="#DejaVuSans-56"/>
       <use x="63.623047" xlink:href="#DejaVuSans-48"/>
      </g>
     </g>
    </g>
    <g id="ytick_7">
     <g id="line2d_25">
      <path clip-path="url(#pefe28084d9)" d="M 44.66 48.35316 
L 450 48.35316 
" style="fill:none;stroke:#b0b0b0;stroke-linecap:square;stroke-width:0.8;"/>
     </g>
     <g id="line2d_26">
      <g>
       <use style="stroke:#000000;stroke-width:0.8;" x="44.66" xlink:href="#m8904e31d9a" y="48.35316"/>
      </g>
     </g>
     <g id="text_14">
      <!-- 85 -->
      <g transform="translate(24.935 52.152379)scale(0.1 -0.1)">
       <use xlink:href="#DejaVuSans-56"/>
       <use x="63.623047" xlink:href="#DejaVuSans-53"/>
      </g>
     </g>
    </g>
    <g id="text_15">
     <!-- Temperature [F] -->
     <g transform="translate(18.855313 180.575291)rotate(-90)scale(0.1 -0.1)">
      <defs>
       <path d="M -0.296875 72.90625 
L 61.375 72.90625 
L 61.375 64.59375 
L 35.5 64.59375 
L 35.5 0 
L 25.59375 0 
L 25.59375 64.59375 
L -0.296875 64.59375 
z
" id="DejaVuSans-84"/>
       <path d="M 52 44.1875 
Q 55.375 50.25 60.0625 53.125 
Q 64.75 56 71.09375 56 
Q 79.640625 56 84.28125 50.015625 
Q 88.921875 44.046875 88.921875 33.015625 
L 88.921875 0 
L 79.890625 0 
L 79.890625 32.71875 
Q 79.890625 40.578125 77.09375 44.375 
Q 74.3125 48.1875 68.609375 48.1875 
Q 61.625 48.1875 57.5625 43.546875 
Q 53.515625 38.921875 53.515625 30.90625 
L 53.515625 0 
L 44.484375 0 
L 44.484375 32.71875 
Q 44.484375 40.625 41.703125 44.40625 
Q 38.921875 48.1875 33.109375 48.1875 
Q 26.21875 48.1875 22.15625 43.53125 
Q 18.109375 38.875 18.109375 30.90625 
L 18.109375 0 
L 9.078125 0 
L 9.078125 54.6875 
L 18.109375 54.6875 
L 18.109375 46.1875 
Q 21.1875 51.21875 25.484375 53.609375 
Q 29.78125 56 35.6875 56 
Q 41.65625 56 45.828125 52.96875 
Q 50 49.953125 52 44.1875 
z
" id="DejaVuSans-109"/>
       <path d="M 18.109375 8.203125 
L 18.109375 -20.796875 
L 9.078125 -20.796875 
L 9.078125 54.6875 
L 18.109375 54.6875 
L 18.109375 46.390625 
Q 20.953125 51.265625 25.265625 53.625 
Q 29.59375 56 35.59375 56 
Q 45.5625 56 51.78125 48.09375 
Q 58.015625 40.1875 58.015625 27.296875 
Q 58.015625 14.40625 51.78125 6.484375 
Q 45.5625 -1.421875 35.59375 -1.421875 
Q 29.59375 -1.421875 25.265625 0.953125 
Q 20.953125 3.328125 18.109375 8.203125 
z
M 48.6875 27.296875 
Q 48.6875 37.203125 44.609375 42.84375 
Q 40.53125 48.484375 33.40625 48.484375 
Q 26.265625 48.484375 22.1875 42.84375 
Q 18.109375 37.203125 18.109375 27.296875 
Q 18.109375 17.390625 22.1875 11.75 
Q 26.265625 6.109375 33.40625 6.109375 
Q 40.53125 6.109375 44.609375 11.75 
Q 48.6875 17.390625 48.6875 27.296875 
z
" id="DejaVuSans-112"/>
       <path d="M 41.109375 46.296875 
Q 39.59375 47.171875 37.8125 47.578125 
Q 36.03125 48 33.890625 48 
Q 26.265625 48 22.1875 43.046875 
Q 18.109375 38.09375 18.109375 28.8125 
L 18.109375 0 
L 9.078125 0 
L 9.078125 54.6875 
L 18.109375 54.6875 
L 18.109375 46.1875 
Q 20.953125 51.171875 25.484375 53.578125 
Q 30.03125 56 36.53125 56 
Q 37.453125 56 38.578125 55.875 
Q 39.703125 55.765625 41.0625 55.515625 
z
" id="DejaVuSans-114"/>
       <path d="M 8.5 21.578125 
L 8.5 54.6875 
L 17.484375 54.6875 
L 17.484375 21.921875 
Q 17.484375 14.15625 20.5 10.265625 
Q 23.53125 6.390625 29.59375 6.390625 
Q 36.859375 6.390625 41.078125 11.03125 
Q 45.3125 15.671875 45.3125 23.6875 
L 45.3125 54.6875 
L 54.296875 54.6875 
L 54.296875 0 
L 45.3125 0 
L 45.3125 8.40625 
Q 42.046875 3.421875 37.71875 1 
Q 33.40625 -1.421875 27.6875 -1.421875 
Q 18.265625 -1.421875 13.375 4.4375 
Q 8.5 10.296875 8.5 21.578125 
z
M 31.109375 56 
z
" id="DejaVuSans-117"/>
       <path id="DejaVuSans-32"/>
       <path d="M 8.59375 75.984375 
L 29.296875 75.984375 
L 29.296875 69 
L 17.578125 69 
L 17.578125 -6.203125 
L 29.296875 -6.203125 
L 29.296875 -13.1875 
L 8.59375 -13.1875 
z
" id="DejaVuSans-91"/>
       <path d="M 9.8125 72.90625 
L 51.703125 72.90625 
L 51.703125 64.59375 
L 19.671875 64.59375 
L 19.671875 43.109375 
L 48.578125 43.109375 
L 48.578125 34.8125 
L 19.671875 34.8125 
L 19.671875 0 
L 9.8125 0 
z
" id="DejaVuSans-70"/>
       <path d="M 30.421875 75.984375 
L 30.421875 -13.1875 
L 9.71875 -13.1875 
L 9.71875 -6.203125 
L 21.390625 -6.203125 
L 21.390625 69 
L 9.71875 69 
L 9.71875 75.984375 
z
" id="DejaVuSans-93"/>
      </defs>
      <use xlink:href="#DejaVuSans-84"/>
      <use x="44.083984" xlink:href="#DejaVuSans-101"/>
      <use x="105.607422" xlink:href="#DejaVuSans-109"/>
      <use x="203.019531" xlink:href="#DejaVuSans-112"/>
      <use x="266.496094" xlink:href="#DejaVuSans-101"/>
      <use x="328.019531" xlink:href="#DejaVuSans-114"/>
      <use x="369.132812" xlink:href="#DejaVuSans-97"/>
      <use x="430.412109" xlink:href="#DejaVuSans-116"/>
      <use x="469.621094" xlink:href="#DejaVuSans-117"/>
      <use x="533" xlink:href="#DejaVuSans-114"/>
      <use x="571.863281" xlink:href="#DejaVuSans-101"/>
      <use x="633.386719" xlink:href="#DejaVuSans-32"/>
      <use x="665.173828" xlink:href="#DejaVuSans-91"/>
      <use x="704.1875" xlink:href="#DejaVuSans-70"/>
      <use x="761.707031" xlink:href="#DejaVuSans-93"/>
     </g>
    </g>
   </g>
   <g id="line2d_27">
    <path clip-path="url(#pefe28084d9)" d="M 63.084545 143.799959 
L 63.135457 143.799959 
L 63.255916 143.207122 
L 63.376197 143.207122 
L 63.400261 143.799959 
L 63.448801 142.614284 
L 63.472747 143.207122 
L 63.496723 143.207122 
L 63.617933 142.614284 
L 63.667033 142.614284 
L 63.740486 142.021447 
L 63.764491 142.614284 
L 63.838785 142.614284 
L 63.88696 143.207122 
L 63.911106 142.614284 
L 63.985145 143.207122 
L 64.033419 142.021447 
L 64.083015 142.021447 
L 64.181297 140.835773 
L 64.205214 142.021447 
L 64.229655 140.242935 
L 64.278234 140.835773 
L 64.399671 140.242935 
L 64.423802 140.242935 
L 64.547162 139.650098 
L 64.643762 140.835773 
L 64.767462 139.650098 
L 64.913319 140.835773 
L 64.937368 140.835773 
L 64.961341 140.242935 
L 65.035578 140.835773 
L 65.060389 140.835773 
L 65.232541 139.057261 
L 65.306539 140.242935 
L 65.331383 139.057261 
L 65.430781 139.057261 
L 65.455961 138.464424 
L 65.504281 139.057261 
L 65.528665 139.650098 
L 65.594332 139.057261 
L 65.667708 139.057261 
L 65.717419 138.464424 
L 65.767367 139.057261 
L 65.891653 140.835773 
L 65.915665 140.242935 
L 65.941548 140.242935 
L 66.070834 142.021447 
L 66.21671 140.242935 
L 66.340332 140.835773 
L 66.413206 140.242935 
L 66.438374 140.835773 
L 66.488319 140.242935 
L 66.560977 142.021447 
L 66.588632 142.021447 
L 66.684729 140.242935 
L 66.708672 140.835773 
L 66.733308 140.835773 
L 66.831065 143.207122 
L 66.856863 142.021447 
L 66.8808 140.835773 
L 66.90477 143.207122 
L 66.929729 144.392796 
L 66.979245 142.021447 
L 67.00315 142.614284 
L 67.080497 140.242935 
L 67.104871 143.207122 
L 67.128829 142.021447 
L 67.152713 144.392796 
L 67.203113 142.614284 
L 67.228924 142.614284 
L 67.376724 144.392796 
L 67.500128 144.985633 
L 67.721021 144.985633 
L 67.818814 145.578471 
L 67.892847 144.985633 
L 67.916876 145.578471 
L 67.941657 145.578471 
L 67.989754 144.392796 
L 68.039254 145.578471 
L 68.065299 145.578471 
L 68.138505 143.207122 
L 68.163717 144.985633 
L 68.188941 146.764145 
L 68.263073 145.578471 
L 68.311903 145.578471 
L 68.460077 143.799959 
L 68.583351 144.392796 
L 68.607421 144.392796 
L 68.680633 144.985633 
L 68.704859 143.207122 
L 68.779018 145.578471 
L 68.828731 144.392796 
L 68.949703 145.578471 
L 68.974165 144.392796 
L 69.071631 144.985633 
L 69.145164 144.985633 
L 69.270266 145.578471 
L 69.420013 144.392796 
L 69.565284 145.578471 
L 69.882792 145.578471 
L 70.005541 146.764145 
L 70.426595 146.764145 
L 70.526283 147.356982 
L 70.647926 146.764145 
L 70.770227 147.356982 
L 71.16083 147.356982 
L 71.18515 147.94982 
L 71.209227 147.356982 
L 132.854567 147.94982 
L 132.879467 147.356982 
L 133.171198 145.578471 
L 133.297432 147.356982 
L 133.322125 145.578471 
L 133.38143 147.356982 
L 133.572669 143.207122 
L 133.653178 144.985633 
L 133.837682 146.764145 
L 133.916305 146.764145 
L 133.94025 147.356982 
L 133.965313 145.578471 
L 133.990417 145.578471 
L 134.015082 146.764145 
L 134.040154 144.985633 
L 134.066708 144.985633 
L 134.144794 140.242935 
L 134.189951 143.207122 
L 134.317496 145.578471 
L 134.345092 144.392796 
L 134.419047 145.578471 
L 134.443023 145.578471 
L 134.479662 146.764145 
L 134.528631 145.578471 
L 134.558465 144.985633 
L 134.636551 145.578471 
L 134.660512 145.578471 
L 134.78508 139.650098 
L 134.90658 145.578471 
L 135.003868 139.057261 
L 135.07773 140.242935 
L 135.174424 144.985633 
L 135.234908 146.764145 
L 135.258823 144.985633 
L 135.373985 144.392796 
L 135.422832 144.392796 
L 135.448187 143.799959 
L 135.47225 144.392796 
L 135.571028 146.764145 
L 135.595334 145.578471 
L 135.6494 145.578471 
L 135.804784 139.650098 
L 135.96861 146.764145 
L 136.044063 144.392796 
L 136.067985 144.985633 
L 136.141558 146.764145 
L 136.1903 145.578471 
L 136.28873 145.578471 
L 136.313643 144.392796 
L 136.365414 145.578471 
L 136.39044 147.356982 
L 136.439447 144.985633 
L 136.463737 144.985633 
L 136.487612 144.985633 
L 136.512833 145.578471 
L 136.53888 142.021447 
L 136.614688 142.614284 
L 136.665064 144.985633 
L 136.714965 143.207122 
L 136.861011 144.985633 
L 136.987951 144.392796 
L 137.061003 143.799959 
L 137.108835 144.985633 
L 137.133063 144.985633 
L 137.156951 144.392796 
L 137.23064 144.985633 
L 137.376794 146.764145 
L 137.400714 145.578471 
L 137.47308 146.764145 
L 137.594799 147.356982 
L 137.912864 147.356982 
L 137.986609 147.94982 
L 138.011375 147.356982 
L 138.256869 147.356982 
L 138.281008 144.985633 
L 138.353936 146.764145 
L 138.402517 146.764145 
L 138.528581 147.356982 
L 138.577249 147.356982 
L 138.601645 146.764145 
L 138.673723 147.356982 
L 138.698112 147.356982 
L 138.820946 147.94982 
L 139.343184 147.94982 
L 139.369222 148.542657 
L 139.424383 147.356982 
L 139.451476 147.94982 
L 139.578103 147.356982 
L 139.780121 147.356982 
L 139.903308 146.764145 
L 140.272124 146.764145 
L 140.296067 147.356982 
L 140.368944 146.764145 
L 140.566264 146.764145 
L 140.64119 147.356982 
L 140.665116 146.764145 
L 140.833553 146.764145 
L 140.906154 147.356982 
L 140.930197 146.764145 
L 140.979963 146.764145 
L 141.101773 147.356982 
L 141.125792 147.356982 
L 141.24604 146.764145 
L 141.269912 146.764145 
L 141.341701 147.356982 
L 141.366435 146.764145 
L 141.686849 146.764145 
L 238.066927 130.164702 
L 238.122609 131.350376 
L 238.239041 131.350376 
L 238.263167 130.164702 
L 238.313095 131.350376 
L 238.391645 131.350376 
L 238.416525 130.164702 
L 238.495213 131.350376 
L 238.691014 131.350376 
L 238.740438 131.943214 
L 238.789298 131.350376 
L 238.916195 131.350376 
L 239.047931 131.943214 
L 239.072257 131.350376 
L 239.121211 131.943214 
L 239.17068 131.943214 
L 239.195351 131.350376 
L 239.267333 131.943214 
L 239.340379 131.943214 
L 239.473002 131.350376 
L 239.607499 131.943214 
L 240.047486 131.943214 
L 240.167913 132.536051 
L 240.241234 131.943214 
L 240.266306 132.536051 
L 240.290806 132.536051 
L 240.415581 131.943214 
L 240.467339 131.943214 
L 240.587607 132.536051 
L 241.030451 132.536051 
L 241.054618 133.128888 
L 241.127285 132.536051 
L 241.203655 132.536051 
L 241.230397 133.128888 
L 241.314533 132.536051 
L 241.514766 132.536051 
L 241.63973 133.128888 
L 242.655547 133.128888 
L 242.68067 133.721726 
L 242.730575 133.128888 
L 242.953014 133.128888 
L 243.054069 133.721726 
L 243.178241 133.128888 
L 243.300462 133.721726 
L 243.627082 133.721726 
L 243.74252 134.314563 
L 243.863499 133.721726 
L 244.553444 133.721726 
L 244.577314 133.128888 
L 244.651727 133.721726 
L 244.801103 133.721726 
L 244.924038 133.128888 
L 244.972767 133.128888 
L 245.095393 133.721726 
L 245.440458 133.721726 
L 245.464357 134.314563 
L 245.53596 133.721726 
L 245.9732 133.721726 
L 245.997816 133.128888 
L 246.071601 133.721726 
L 246.119338 133.721726 
L 246.151452 133.128888 
L 246.22905 133.721726 
L 246.423386 133.721726 
L 246.448041 133.128888 
L 246.521918 133.721726 
L 247.285144 133.721726 
L 247.408051 134.314563 
L 247.432421 134.314563 
L 247.533786 133.721726 
L 247.641262 134.314563 
L 247.764795 133.721726 
L 247.862298 134.314563 
L 247.984927 133.721726 
L 248.083535 133.721726 
L 248.203587 134.314563 
L 248.610261 134.314563 
L 248.634445 134.9074 
L 248.706429 134.314563 
L 248.982107 134.314563 
L 249.056844 134.9074 
L 249.082159 134.314563 
L 249.131269 134.314563 
L 249.204676 134.9074 
L 249.228611 134.314563 
L 249.281019 134.314563 
L 249.407903 134.9074 
L 249.433799 134.314563 
L 249.513841 134.9074 
L 250.251568 134.9074 
L 250.377342 136.093075 
L 250.501758 134.9074 
L 250.753172 134.9074 
L 250.801591 136.093075 
L 250.852268 134.9074 
L 251.055128 134.9074 
L 251.1538 136.093075 
L 251.274502 134.9074 
L 251.39785 136.093075 
L 251.524674 134.9074 
L 251.548674 134.9074 
L 251.670761 136.093075 
L 251.794431 134.9074 
L 251.917664 136.093075 
L 252.557912 136.093075 
L 252.633782 136.685912 
L 252.658095 136.093075 
L 252.78583 136.093075 
L 252.810937 136.685912 
L 252.835221 136.093075 
L 253.102025 136.093075 
L 253.201243 136.685912 
L 253.32489 136.093075 
L 253.448848 136.685912 
L 254.21419 136.685912 
L 254.287142 137.278749 
L 254.313612 136.685912 
L 254.337599 136.685912 
L 254.41115 137.278749 
L 254.435526 136.685912 
L 254.45945 136.685912 
L 254.581257 137.278749 
L 255.045216 137.278749 
L 255.144724 136.685912 
L 255.266815 137.278749 
L 256.251935 137.278749 
L 256.27595 137.871586 
L 256.356107 137.278749 
L 257.195923 137.278749 
L 257.298705 137.871586 
L 257.373287 137.278749 
L 257.406458 137.871586 
L 258.159289 137.871586 
L 258.183271 137.278749 
L 258.25854 137.871586 
L 258.358867 137.871586 
L 258.432151 137.278749 
L 258.456358 137.871586 
L 258.557065 137.871586 
L 258.681736 137.278749 
L 258.77938 137.278749 
L 258.80327 137.871586 
L 258.878004 137.278749 
L 258.927034 137.278749 
L 259.028305 137.871586 
L 259.151656 137.278749 
L 259.321639 137.278749 
L 259.424463 137.871586 
L 259.549024 137.278749 
L 260.304832 137.278749 
L 260.427993 136.685912 
L 260.626702 136.685912 
L 260.676538 136.093075 
L 260.726383 136.685912 
L 260.851275 136.685912 
L 260.906633 136.093075 
L 260.956848 136.685912 
L 260.981002 136.685912 
L 261.006513 136.093075 
L 261.07968 136.685912 
L 261.752662 136.685912 
L 261.876137 136.093075 
L 261.932331 136.093075 
L 261.95647 136.685912 
L 262.028677 136.093075 
L 262.104395 136.093075 
L 262.227744 134.9074 
L 262.451494 134.9074 
L 262.499845 134.314563 
L 262.549626 134.9074 
L 263.113871 134.9074 
L 263.186777 134.314563 
L 263.210812 134.9074 
L 263.334168 134.9074 
L 263.455759 134.314563 
L 263.504829 134.314563 
L 263.625444 133.721726 
L 263.650898 133.721726 
L 263.772498 134.314563 
L 263.820295 134.314563 
L 263.942189 133.721726 
L 264.016338 134.314563 
L 264.047011 133.721726 
L 264.19992 133.721726 
L 264.323011 134.314563 
L 264.348574 134.314563 
L 264.449052 133.721726 
L 264.575583 134.314563 
L 264.654087 134.314563 
L 264.678076 133.721726 
L 264.751292 134.314563 
L 265.075789 134.314563 
L 265.174461 133.721726 
L 265.223933 134.314563 
L 265.273319 133.721726 
L 265.325438 133.721726 
L 265.451474 134.314563 
L 265.553557 133.721726 
L 265.628546 134.314563 
L 265.655811 133.721726 
L 265.781812 133.721726 
L 265.905675 134.314563 
L 266.030666 133.721726 
L 266.181314 133.721726 
L 266.208439 134.314563 
L 266.29053 133.721726 
L 266.368228 133.721726 
L 266.392808 134.314563 
L 266.468346 133.721726 
L 266.634014 133.721726 
L 266.657939 132.536051 
L 266.755333 133.128888 
L 266.77935 133.128888 
L 266.901664 133.721726 
L 266.975171 133.721726 
L 267.023496 134.314563 
L 267.07272 133.721726 
L 267.1942 133.128888 
L 267.243482 133.128888 
L 267.267456 133.721726 
L 267.341692 133.128888 
L 267.367036 133.128888 
L 267.492017 133.721726 
L 267.743217 133.721726 
L 267.76725 134.314563 
L 267.817125 133.721726 
L 267.892298 133.128888 
L 267.916199 133.721726 
L 268.313784 133.721726 
L 268.435389 134.314563 
L 268.460959 134.314563 
L 268.486012 133.721726 
L 268.558219 134.314563 
L 268.827392 134.314563 
L 268.925946 133.721726 
L 269.088435 134.314563 
L 269.33444 134.314563 
L 269.406261 134.9074 
L 269.430504 134.314563 
L 269.603272 134.314563 
L 269.628739 133.721726 
L 269.701239 134.314563 
L 269.974461 134.314563 
L 269.999212 134.9074 
L 270.071541 134.314563 
L 270.380956 134.314563 
L 270.48037 134.9074 
L 270.579367 134.314563 
L 270.703927 134.9074 
L 271.077058 134.9074 
L 271.126093 134.314563 
L 271.177888 134.9074 
L 271.250679 134.9074 
L 271.276179 134.314563 
L 271.349557 134.9074 
L 272.002408 134.9074 
L 272.027319 136.093075 
L 272.111221 134.9074 
L 272.136115 134.9074 
L 272.273098 136.093075 
L 272.297125 136.093075 
L 272.421268 134.9074 
L 272.543225 136.093075 
L 272.675064 136.093075 
L 272.775263 134.9074 
L 272.943632 136.093075 
L 273.515307 136.093075 
L 273.604279 136.685912 
L 273.729738 136.093075 
L 273.754746 136.093075 
L 273.878293 136.685912 
L 273.902194 136.093075 
L 273.986207 136.685912 
L 274.629085 136.685912 
L 274.652986 137.278749 
L 274.725787 136.685912 
L 275.12104 136.685912 
L 275.243246 137.278749 
L 275.317601 136.685912 
L 275.342737 137.278749 
L 275.392217 137.278749 
L 275.493045 136.685912 
L 275.62305 137.278749 
L 276.969051 137.278749 
L 276.995853 137.871586 
L 277.074699 137.278749 
L 277.125614 137.278749 
L 277.175577 137.871586 
L 277.22635 137.278749 
L 277.253798 137.278749 
L 277.354877 137.871586 
L 277.379781 137.278749 
L 277.454783 137.871586 
L 277.699887 137.871586 
L 277.725439 137.278749 
L 277.799195 137.871586 
L 277.87175 137.871586 
L 277.895673 137.278749 
L 277.968623 137.871586 
L 278.142859 137.871586 
L 278.168767 138.464424 
L 278.242195 137.871586 
L 278.892497 137.871586 
L 278.917547 137.278749 
L 278.994454 137.871586 
L 280.093575 137.871586 
L 280.118238 138.464424 
L 280.194941 137.871586 
L 280.549409 137.871586 
L 280.632303 138.464424 
L 280.657115 137.871586 
L 280.780416 137.871586 
L 280.905528 138.464424 
L 281.183906 138.464424 
L 281.208247 137.871586 
L 281.283613 138.464424 
L 281.582825 138.464424 
L 281.609438 137.871586 
L 281.682238 138.464424 
L 282.813161 138.464424 
L 282.840038 139.057261 
L 282.912396 138.464424 
L 282.986626 138.464424 
L 283.012048 139.057261 
L 283.089762 138.464424 
L 283.235084 138.464424 
L 283.331482 139.057261 
L 283.435628 138.464424 
L 283.535831 139.057261 
L 283.559696 138.464424 
L 283.63306 139.057261 
L 283.657092 139.057261 
L 283.779393 138.464424 
L 283.904026 139.057261 
L 284.004226 139.057261 
L 284.102915 138.464424 
L 284.201615 139.057261 
L 284.225575 138.464424 
L 284.301085 139.057261 
L 284.473681 139.057261 
L 284.499453 138.464424 
L 284.572016 139.057261 
L 286.323588 139.057261 
L 286.348612 139.650098 
L 286.4219 139.057261 
L 286.545209 139.057261 
L 286.56926 139.650098 
L 286.643577 139.057261 
L 286.69155 139.057261 
L 286.812522 139.650098 
L 286.938395 139.057261 
L 286.964516 139.057261 
L 287.090471 139.650098 
L 287.11629 139.650098 
L 287.213713 139.057261 
L 287.336534 139.650098 
L 287.974693 139.650098 
L 287.999 140.242935 
L 288.072097 139.650098 
L 288.342007 139.650098 
L 288.419407 140.242935 
L 288.446712 139.650098 
L 288.570775 139.650098 
L 288.701301 140.242935 
L 288.776448 139.650098 
L 288.801245 140.242935 
L 288.826147 140.242935 
L 288.932615 139.650098 
L 288.95768 140.242935 
L 289.037715 139.650098 
L 289.110951 139.650098 
L 289.136989 140.242935 
L 289.254975 139.650098 
L 290.588413 139.650098 
L 290.66869 139.057261 
L 290.695087 139.650098 
L 290.766857 139.650098 
L 290.874943 139.057261 
L 290.922865 139.650098 
L 290.970726 139.057261 
L 291.632624 139.057261 
L 291.742067 138.464424 
L 291.871317 139.057261 
L 292.025822 137.871586 
L 292.051498 138.464424 
L 292.127015 137.871586 
L 292.275222 137.871586 
L 292.39944 137.278749 
L 292.526247 137.278749 
L 292.55778 136.685912 
L 292.629821 137.278749 
L 292.706096 137.278749 
L 292.784634 137.871586 
L 292.808539 137.278749 
L 292.86308 137.278749 
L 292.959285 137.871586 
L 293.104779 136.685912 
L 293.152779 136.685912 
L 293.273296 137.278749 
L 293.369518 136.685912 
L 293.393642 137.278749 
L 293.465588 136.685912 
L 293.538066 136.685912 
L 293.562482 137.278749 
L 293.642439 136.685912 
L 293.666414 136.685912 
L 293.787949 137.278749 
L 293.812067 136.685912 
L 293.884187 137.278749 
L 294.206404 137.278749 
L 294.302224 136.685912 
L 294.429858 137.278749 
L 294.557385 137.278749 
L 294.581428 136.685912 
L 294.65321 137.278749 
L 294.800646 137.278749 
L 294.922182 136.685912 
L 295.047338 137.278749 
L 295.167413 136.685912 
L 295.533552 136.685912 
L 295.622186 137.278749 
L 295.751817 136.685912 
L 296.402528 136.685912 
L 296.491172 136.093075 
L 296.770454 136.093075 
L 296.794752 136.685912 
L 296.835019 136.093075 
L 297.478234 136.093075 
L 297.564444 136.685912 
L 297.695941 136.093075 
L 297.915613 136.093075 
L 297.953334 136.685912 
L 297.981415 134.9074 
L 298.068408 136.093075 
L 298.12897 136.093075 
L 298.238671 134.9074 
L 298.785486 134.9074 
L 299.006856 133.721726 
L 299.120423 134.314563 
L 299.834742 134.314563 
L 299.866266 133.721726 
L 299.925987 134.314563 
L 300.054874 134.314563 
L 300.188916 133.721726 
L 300.373043 133.721726 
L 300.397157 134.314563 
L 300.477641 133.721726 
L 300.529044 133.721726 
L 300.635337 133.128888 
L 300.714463 133.721726 
L 300.742671 133.128888 
L 300.914461 133.128888 
L 301.047241 133.721726 
L 301.154425 133.721726 
L 301.179384 134.314563 
L 301.260147 133.721726 
L 301.414127 133.721726 
L 301.547802 133.128888 
L 301.6151 133.721726 
L 301.653679 133.128888 
L 301.684081 133.128888 
L 301.785115 132.536051 
L 301.809947 133.128888 
L 301.89039 132.536051 
L 301.96893 132.536051 
L 302.180714 131.943214 
L 302.299393 132.536051 
L 302.42653 131.943214 
L 302.451312 131.943214 
L 302.479069 132.536051 
L 302.74629 132.536051 
L 302.779054 133.128888 
L 302.848655 132.536051 
L 302.988678 132.536051 
L 303.117267 133.128888 
L 303.595655 133.128888 
L 303.646214 132.536051 
L 303.702171 133.128888 
L 303.788023 132.536051 
L 303.866459 132.536051 
L 303.978969 133.128888 
L 304.087012 132.536051 
L 304.176447 132.536051 
L 304.29189 133.128888 
L 304.477663 133.128888 
L 304.516754 133.721726 
L 304.5738 133.128888 
L 304.599399 133.128888 
L 304.678296 133.721726 
L 304.706084 133.128888 
L 304.777919 133.128888 
L 304.91771 133.721726 
L 305.059253 133.721726 
L 305.171862 134.314563 
L 305.244692 133.721726 
L 305.286609 134.9074 
L 305.348183 134.314563 
L 305.5344 134.314563 
L 305.66849 134.9074 
L 305.69711 134.314563 
L 305.779661 134.9074 
L 305.992617 134.9074 
L 306.125612 136.093075 
L 306.57381 136.093075 
L 306.709049 136.685912 
L 306.73763 136.093075 
L 306.79584 136.685912 
L 307.234217 136.685912 
L 307.337654 137.278749 
L 307.445758 136.685912 
L 307.495174 137.278749 
L 307.573757 136.685912 
L 307.598784 137.278749 
L 307.655881 137.278749 
L 307.708411 136.685912 
L 307.740439 137.278749 
L 308.291399 137.278749 
L 308.416855 137.871586 
L 309.034525 137.871586 
L 309.107342 138.464424 
L 309.138967 137.871586 
L 309.447565 137.871586 
L 309.568303 138.464424 
L 309.693545 137.871586 
L 309.74352 137.871586 
L 309.867013 138.464424 
L 309.939582 137.871586 
L 309.963714 138.464424 
L 310.715131 138.464424 
L 310.812148 139.057261 
L 310.931964 138.464424 
L 310.955873 138.464424 
L 311.052899 139.057261 
L 311.076813 138.464424 
L 311.150777 139.057261 
L 311.762028 139.057261 
L 311.884668 139.650098 
L 311.933235 139.650098 
L 311.957879 139.057261 
L 312.029634 139.650098 
L 312.197287 139.650098 
L 312.293677 140.242935 
L 312.366907 139.650098 
L 312.390837 140.242935 
L 312.608329 140.242935 
L 312.71036 140.835773 
L 312.833592 140.242935 
L 313.434299 140.242935 
L 313.459016 139.650098 
L 313.530058 140.242935 
L 313.796082 140.242935 
L 313.820928 140.835773 
L 313.902776 140.242935 
L 314.125237 140.242935 
L 314.150385 140.835773 
L 314.224463 140.242935 
L 314.910223 140.242935 
L 315.030644 140.835773 
L 315.080098 140.835773 
L 315.20291 140.242935 
L 315.252478 140.242935 
L 315.378072 140.835773 
L 316.64746 140.835773 
L 316.767621 142.021447 
L 316.890551 140.835773 
L 316.939802 140.835773 
L 317.060412 142.021447 
L 317.084307 142.021447 
L 317.155873 140.835773 
L 317.180547 142.021447 
L 318.262729 142.021447 
L 318.388544 142.614284 
L 318.513536 142.021447 
L 318.829638 142.021447 
L 318.877421 142.614284 
L 318.925502 142.021447 
L 319.096855 142.021447 
L 319.120857 142.614284 
L 319.194654 142.021447 
L 319.465352 142.021447 
L 319.489195 142.614284 
L 319.561306 142.021447 
L 319.65833 142.021447 
L 319.68232 142.614284 
L 319.754245 142.021447 
L 319.805077 142.021447 
L 319.926267 142.614284 
L 319.977287 142.614284 
L 320.098345 142.021447 
L 320.196633 142.614284 
L 320.220753 142.021447 
L 320.29461 142.614284 
L 320.490468 142.614284 
L 320.515129 142.021447 
L 320.588074 142.614284 
L 320.979032 142.614284 
L 321.100999 143.207122 
L 321.224707 142.614284 
L 321.82166 142.614284 
L 321.895514 143.207122 
L 321.92074 142.614284 
L 322.020902 142.614284 
L 322.140806 143.207122 
L 322.265777 142.614284 
L 322.289712 143.207122 
L 322.364246 142.614284 
L 323.731117 142.614284 
L 323.805325 142.021447 
L 323.829402 142.614284 
L 323.856578 142.614284 
L 323.882232 142.021447 
L 323.953932 142.614284 
L 324.124087 142.614284 
L 324.222471 142.021447 
L 324.297406 142.614284 
L 324.322391 142.021447 
L 324.420912 142.021447 
L 324.470637 142.614284 
L 324.519303 142.021447 
L 324.567661 142.021447 
L 324.591573 142.614284 
L 324.666994 142.021447 
L 325.015684 142.021447 
L 325.140666 140.835773 
L 325.476341 140.835773 
L 325.501244 140.242935 
L 325.576797 140.835773 
L 325.650291 140.835773 
L 325.771904 140.242935 
L 325.995854 140.242935 
L 326.125942 139.650098 
L 326.153082 139.650098 
L 326.177819 140.242935 
L 326.250262 139.650098 
L 326.420741 139.650098 
L 326.546143 139.057261 
L 326.748629 139.057261 
L 326.875786 138.464424 
L 326.974643 138.464424 
L 327.110091 137.871586 
L 327.431149 137.871586 
L 327.455188 137.278749 
L 327.529995 137.871586 
L 327.618274 137.871586 
L 327.73011 137.278749 
L 327.889327 137.278749 
L 327.944236 136.685912 
L 327.969057 137.278749 
L 328.065026 137.871586 
L 328.188907 137.278749 
L 328.237286 137.278749 
L 328.26117 136.685912 
L 328.313795 137.278749 
L 328.36608 136.685912 
L 328.449771 137.871586 
L 328.499252 137.871586 
L 328.523103 138.464424 
L 328.550832 137.871586 
L 328.657514 137.871586 
L 328.791718 137.278749 
L 328.81659 137.278749 
L 328.840499 136.685912 
L 328.864376 137.871586 
L 328.990726 138.464424 
L 329.045792 138.464424 
L 329.120798 137.871586 
L 329.14471 138.464424 
L 329.218739 138.464424 
L 329.345002 137.871586 
L 329.394613 137.871586 
L 329.526374 138.464424 
L 329.625143 138.464424 
L 329.747341 137.871586 
L 329.821998 137.871586 
L 329.873167 137.278749 
L 329.955356 138.464424 
L 330.084004 137.871586 
L 330.10846 137.871586 
L 330.212403 133.128888 
L 330.237601 130.164702 
L 330.288541 134.314563 
L 330.312751 133.721726 
L 330.58454 137.871586 
L 330.686881 137.871586 
L 330.810846 138.464424 
L 330.935754 137.871586 
L 331.312694 137.871586 
L 331.337484 138.464424 
L 331.410211 137.871586 
L 331.533794 137.871586 
L 331.560321 138.464424 
L 331.611393 137.871586 
L 331.68596 136.685912 
L 331.711256 137.278749 
L 331.809165 137.871586 
L 331.932526 137.278749 
L 331.980358 137.278749 
L 332.079193 136.685912 
L 332.180716 136.685912 
L 332.237205 136.093075 
L 332.359982 137.871586 
L 332.569249 134.314563 
L 332.594645 134.9074 
L 332.684341 136.093075 
L 332.988813 134.9074 
L 333.043369 136.093075 
L 333.130615 136.093075 
L 333.258411 129.571865 
L 333.340221 131.350376 
L 333.505563 134.314563 
L 333.641412 134.9074 
L 333.691196 134.9074 
L 333.763623 134.314563 
L 333.800827 134.9074 
L 333.834684 134.9074 
L 333.962702 136.093075 
L 334.023135 134.9074 
L 334.051504 136.093075 
L 334.078636 136.093075 
L 334.203099 134.314563 
L 334.283082 136.093075 
L 334.356596 136.093075 
L 334.507103 137.278749 
L 334.572136 136.093075 
L 334.600869 137.278749 
L 334.694578 137.871586 
L 334.816898 136.685912 
L 334.875325 137.871586 
L 334.900074 136.685912 
L 335.08939 134.314563 
L 335.124064 134.9074 
L 335.187454 134.314563 
L 335.211437 133.721726 
L 335.24337 134.9074 
L 335.281979 134.9074 
L 335.363394 133.721726 
L 335.45856 136.093075 
L 335.600421 136.093075 
L 335.695292 134.9074 
L 335.823323 136.093075 
L 335.937784 134.9074 
L 335.966206 134.9074 
L 336.096917 136.093075 
L 336.203352 136.093075 
L 336.253952 134.9074 
L 336.308553 136.093075 
L 336.418538 136.093075 
L 336.537132 136.685912 
L 337.050577 136.685912 
L 337.088017 136.093075 
L 337.13627 136.685912 
L 337.222307 136.685912 
L 337.349724 137.278749 
L 337.477258 136.685912 
L 337.527806 136.685912 
L 337.670477 137.278749 
L 337.801286 137.278749 
L 337.825634 137.871586 
L 337.890406 137.278749 
L 337.91683 137.278749 
L 337.992152 136.685912 
L 338.01813 137.278749 
L 338.079536 137.278749 
L 338.261181 136.685912 
L 338.413166 136.685912 
L 338.525505 137.278749 
L 338.90432 137.278749 
L 339.036202 137.871586 
L 339.223481 137.871586 
L 339.255636 138.464424 
L 339.310118 137.871586 
L 339.36681 137.871586 
L 339.497755 138.464424 
L 339.52345 137.871586 
L 339.602356 138.464424 
L 339.800589 138.464424 
L 339.928984 137.871586 
L 339.953895 137.871586 
L 340.005443 138.464424 
L 340.055384 137.871586 
L 340.129611 137.871586 
L 340.246715 138.464424 
L 341.068824 138.464424 
L 341.203038 137.871586 
L 341.758587 137.871586 
L 341.782525 138.464424 
L 341.859551 137.871586 
L 342.238085 137.871586 
L 342.363424 138.464424 
L 342.451407 138.464424 
L 342.47528 137.871586 
L 342.56113 138.464424 
L 342.665343 138.464424 
L 342.692793 137.871586 
L 342.765892 138.464424 
L 343.083747 138.464424 
L 343.108434 139.057261 
L 343.182575 138.464424 
L 343.498489 138.464424 
L 343.625434 137.871586 
L 343.700748 137.871586 
L 343.825118 138.464424 
L 343.949743 137.871586 
L 343.974093 137.871586 
L 344.058342 138.464424 
L 344.187237 137.871586 
L 344.211156 138.464424 
L 344.292441 137.871586 
L 344.391397 137.871586 
L 344.519659 138.464424 
L 344.600074 137.871586 
L 344.624565 138.464424 
L 344.650314 138.464424 
L 344.750444 137.871586 
L 344.875687 138.464424 
L 344.958041 138.464424 
L 344.985249 137.871586 
L 345.058446 138.464424 
L 345.13343 138.464424 
L 345.158493 137.871586 
L 345.231472 138.464424 
L 345.603581 138.464424 
L 345.702325 139.057261 
L 345.801073 138.464424 
L 345.898958 139.057261 
L 346.00082 138.464424 
L 346.049451 139.057261 
L 346.097602 138.464424 
L 346.122415 138.464424 
L 346.256292 139.057261 
L 346.352997 138.464424 
L 346.477517 139.057261 
L 346.501477 139.057261 
L 346.525434 138.464424 
L 346.597266 139.057261 
L 347.363193 139.057261 
L 347.483632 139.650098 
L 347.532358 139.650098 
L 347.65577 139.057261 
L 347.779239 139.650098 
L 349.053386 139.650098 
L 349.077349 140.242935 
L 349.15049 139.650098 
L 349.519574 139.650098 
L 349.56985 140.242935 
L 349.617854 139.650098 
L 349.937363 139.650098 
L 350.03351 140.242935 
L 350.155829 139.650098 
L 350.279228 140.242935 
L 350.328293 140.242935 
L 350.428756 139.650098 
L 350.528537 140.242935 
L 350.651786 139.650098 
L 350.775127 140.242935 
L 350.806141 140.242935 
L 350.927697 139.650098 
L 351.04847 140.242935 
L 352.49595 140.242935 
L 352.570144 140.835773 
L 352.594009 140.242935 
L 352.618817 140.242935 
L 352.738526 140.835773 
L 352.882882 140.835773 
L 353.003324 140.242935 
L 353.123495 140.835773 
L 353.219024 140.835773 
L 353.316022 142.021447 
L 353.43669 140.835773 
L 354.040504 140.835773 
L 354.161278 142.021447 
L 354.937541 142.021447 
L 355.014741 140.835773 
L 355.040595 142.021447 
L 355.064649 142.021447 
L 355.170018 140.835773 
L 355.291741 142.021447 
L 355.431929 140.835773 
L 355.457234 140.835773 
L 355.481816 142.021447 
L 355.560797 140.835773 
L 355.689531 140.835773 
L 355.716257 142.021447 
L 355.791973 140.835773 
L 355.842398 140.835773 
L 355.963267 142.021447 
L 355.987469 142.021447 
L 356.11247 140.835773 
L 356.162038 140.835773 
L 356.282871 142.021447 
L 356.309677 142.021447 
L 356.430493 140.835773 
L 356.696609 140.835773 
L 356.817383 140.242935 
L 357.043029 140.242935 
L 357.1627 139.650098 
L 357.211689 139.650098 
L 357.235881 140.242935 
L 357.30863 139.650098 
L 357.459978 139.650098 
L 357.486937 140.242935 
L 357.56345 139.650098 
L 357.639068 139.650098 
L 357.663963 139.057261 
L 357.737007 139.650098 
L 357.936454 139.650098 
L 357.960722 139.057261 
L 358.034731 139.650098 
L 358.083714 139.650098 
L 358.212459 139.057261 
L 358.33701 139.057261 
L 358.46266 138.464424 
L 358.718888 138.464424 
L 358.841196 137.871586 
L 359.012459 137.871586 
L 359.158013 136.685912 
L 359.27886 136.685912 
L 359.405729 137.278749 
L 359.532287 136.685912 
L 359.609801 136.685912 
L 359.753309 134.314563 
L 359.92614 133.128888 
L 359.954141 133.128888 
L 360.003005 132.536051 
L 360.054512 133.128888 
L 360.228798 133.128888 
L 360.329398 132.536051 
L 360.475812 133.721726 
L 360.730812 128.979027 
L 360.78256 132.536051 
L 360.838555 131.350376 
L 360.887441 130.164702 
L 360.911463 133.128888 
L 360.961577 129.571865 
L 361.038219 131.350376 
L 361.165273 132.536051 
L 361.289179 131.350376 
L 361.313126 131.943214 
L 361.339379 131.350376 
L 361.436379 130.164702 
L 361.571151 132.536051 
L 361.59507 132.536051 
L 361.67105 131.943214 
L 361.77724 134.9074 
L 361.804098 134.314563 
L 361.878909 134.9074 
L 362.150252 134.9074 
L 362.278351 131.943214 
L 362.310836 133.721726 
L 362.33488 133.721726 
L 362.358909 134.314563 
L 362.383589 128.38619 
L 362.457242 134.314563 
L 362.481239 134.314563 
L 362.508033 133.128888 
L 362.566369 134.9074 
L 362.591341 134.314563 
L 362.6153 134.314563 
L 362.639345 133.721726 
L 362.664164 134.9074 
L 362.713662 134.314563 
L 362.91462 134.314563 
L 363.036107 134.9074 
L 363.232699 134.9074 
L 363.352676 134.314563 
L 363.377621 134.314563 
L 363.466052 134.9074 
L 363.572335 134.314563 
L 364.008297 134.314563 
L 364.375045 131.350376 
L 364.495217 133.128888 
L 364.655307 131.350376 
L 364.706265 131.943214 
L 364.783523 131.350376 
L 364.858141 133.128888 
L 365.032445 129.571865 
L 365.160742 133.721726 
L 365.185832 131.943214 
L 365.253904 133.721726 
L 365.310798 132.536051 
L 365.419868 123.643492 
L 365.673886 129.571865 
L 365.712347 128.38619 
L 365.778815 131.943214 
L 365.8375 131.350376 
L 365.868167 129.571865 
L 366.011042 129.571865 
L 366.200721 132.536051 
L 366.265894 128.38619 
L 366.339489 128.979027 
L 366.37036 128.38619 
L 366.511101 130.164702 
L 366.543432 129.571865 
L 366.655468 128.38619 
L 366.842276 131.350376 
L 366.955206 129.571865 
L 366.982351 131.350376 
L 367.010287 128.979027 
L 367.035104 129.571865 
L 367.158217 128.979027 
L 367.185398 127.200516 
L 367.216105 128.38619 
L 367.302821 128.38619 
L 367.506988 130.164702 
L 367.633555 131.350376 
L 367.699956 131.350376 
L 367.734836 129.571865 
L 367.766687 130.164702 
L 367.89734 130.164702 
L 367.952181 129.571865 
L 367.977026 130.164702 
L 368.098783 130.164702 
L 368.125891 129.571865 
L 368.208654 130.164702 
L 368.290004 130.164702 
L 368.424874 129.571865 
L 368.515808 129.571865 
L 368.57258 130.164702 
L 368.598714 129.571865 
L 368.687113 130.164702 
L 368.713635 128.979027 
L 368.745164 131.350376 
L 368.781804 130.164702 
L 368.907402 129.571865 
L 369.00663 130.164702 
L 369.128666 127.793353 
L 369.181139 128.38619 
L 369.389549 131.943214 
L 369.499037 131.943214 
L 369.610737 131.350376 
L 369.715417 132.536051 
L 369.742113 131.943214 
L 369.775456 131.943214 
L 369.884495 132.536051 
L 369.937071 132.536051 
L 370.009861 133.128888 
L 370.034768 131.943214 
L 370.115321 133.128888 
L 370.695196 133.128888 
L 370.771354 131.943214 
L 370.79748 133.128888 
L 370.837093 133.128888 
L 370.900577 132.536051 
L 370.927596 133.128888 
L 371.139878 133.128888 
L 371.245714 131.350376 
L 371.270417 132.536051 
L 371.296601 132.536051 
L 371.320918 133.128888 
L 371.374196 131.943214 
L 371.506378 130.164702 
L 371.561435 130.164702 
L 371.640776 131.943214 
L 371.682907 131.350376 
L 371.953203 132.536051 
L 372.463122 132.536051 
L 372.707562 131.350376 
L 372.824267 131.350376 
L 372.950841 129.571865 
L 373.933416 129.571865 
L 374.031821 130.164702 
L 374.10638 129.571865 
L 374.130485 130.164702 
L 375.080787 130.164702 
L 375.105785 131.350376 
L 375.181242 130.164702 
L 375.205149 130.164702 
L 375.27984 131.350376 
L 375.303878 130.164702 
L 375.377075 130.164702 
L 375.474303 131.350376 
L 375.596059 130.164702 
L 375.725781 131.350376 
L 376.706324 131.350376 
L 376.830205 131.943214 
L 376.929307 131.350376 
L 377.055007 131.943214 
L 377.247561 131.943214 
L 377.346311 131.350376 
L 377.468307 131.943214 
L 377.613259 131.943214 
L 377.637379 131.350376 
L 377.710034 131.943214 
L 378.178674 131.943214 
L 378.258948 132.536051 
L 378.283671 131.943214 
L 378.357017 131.943214 
L 378.479389 132.536051 
L 379.013141 132.536051 
L 379.037147 133.128888 
L 379.109254 132.536051 
L 379.277886 132.536051 
L 379.398012 133.128888 
L 379.5189 132.536051 
L 379.549942 132.536051 
L 379.670724 133.128888 
L 379.694644 132.536051 
L 379.770429 133.128888 
L 380.33215 133.128888 
L 380.453821 133.721726 
L 380.52592 133.128888 
L 380.611736 133.128888 
L 380.735599 133.721726 
L 381.125899 133.721726 
L 381.150557 133.128888 
L 381.224079 133.721726 
L 382.270902 133.721726 
L 382.367543 134.314563 
L 382.391443 133.721726 
L 382.466358 134.314563 
L 383.25532 134.314563 
L 383.328781 134.9074 
L 383.353089 134.314563 
L 383.403845 134.314563 
L 383.500912 134.9074 
L 383.602524 134.314563 
L 383.725636 134.9074 
L 383.850568 134.314563 
L 383.97486 134.9074 
L 384.221471 134.9074 
L 384.245355 134.314563 
L 384.318961 134.9074 
L 384.684456 134.9074 
L 384.711975 136.093075 
L 384.785205 134.9074 
L 384.884856 134.9074 
L 385.012006 136.093075 
L 385.133822 134.9074 
L 385.256001 136.093075 
L 385.501999 136.093075 
L 385.623449 136.685912 
L 385.648146 136.685912 
L 385.773865 136.093075 
L 385.822797 136.093075 
L 385.899599 136.685912 
L 385.924735 136.093075 
L 386.025703 136.093075 
L 386.05009 136.685912 
L 386.124293 136.093075 
L 386.453744 136.093075 
L 386.532513 136.685912 
L 386.559452 136.093075 
L 386.686217 136.093075 
L 386.710339 136.685912 
L 386.787129 136.093075 
L 386.814713 136.093075 
L 386.866199 136.685912 
L 386.918719 136.093075 
L 387.040039 136.093075 
L 387.064197 136.685912 
L 387.137153 136.093075 
L 387.211345 136.093075 
L 387.235223 136.685912 
L 387.307892 136.093075 
L 387.355718 136.093075 
L 387.481718 136.685912 
L 388.070901 136.685912 
L 388.095723 136.093075 
L 388.170602 136.685912 
L 388.759662 136.685912 
L 388.883797 137.278749 
L 389.006238 136.685912 
L 390.342525 136.685912 
L 390.424112 136.093075 
L 390.448123 136.685912 
L 390.474968 136.685912 
L 390.577711 136.093075 
L 390.70219 136.685912 
L 390.750773 136.685912 
L 390.877614 136.093075 
L 390.974392 136.093075 
L 391.075876 134.9074 
L 391.123838 136.093075 
L 391.175034 134.9074 
L 391.37765 134.9074 
L 391.500982 134.314563 
L 391.525361 134.9074 
L 391.600436 134.314563 
L 391.924092 134.314563 
L 391.949254 133.721726 
L 392.024121 134.314563 
L 392.122755 134.314563 
L 392.246933 133.721726 
L 392.361601 133.721726 
L 392.482085 133.128888 
L 392.606462 133.128888 
L 392.729721 132.536051 
L 393.026084 132.536051 
L 393.05051 131.943214 
L 393.124697 132.536051 
L 393.310991 132.536051 
L 393.359138 131.943214 
L 393.408143 132.536051 
L 393.432113 132.536051 
L 393.658729 129.571865 
L 393.683786 129.571865 
L 393.807781 130.164702 
L 393.832465 130.164702 
L 393.98047 128.979027 
L 394.065948 129.571865 
L 394.090655 128.979027 
L 394.114546 128.979027 
L 394.236733 129.571865 
L 394.359442 128.979027 
L 394.508181 128.979027 
L 394.633117 128.38619 
L 394.785077 128.38619 
L 394.860832 128.979027 
L 394.911718 127.793353 
L 395.034007 128.38619 
L 395.082973 128.38619 
L 395.108083 127.793353 
L 395.15856 128.979027 
L 395.186413 128.979027 
L 395.335845 126.607678 
L 395.360255 127.200516 
L 395.505554 128.38619 
L 395.530802 127.793353 
L 395.605313 128.38619 
L 395.679452 128.38619 
L 395.703291 128.979027 
L 395.776855 128.38619 
L 395.800889 127.200516 
L 395.826051 128.979027 
L 395.878563 128.979027 
L 396.029564 130.164702 
L 396.193791 128.38619 
L 396.292461 129.571865 
L 396.43889 126.014841 
L 396.588497 128.979027 
L 396.663131 127.200516 
L 396.736588 127.793353 
L 396.785864 127.793353 
L 396.911408 129.571865 
L 397.011903 128.38619 
L 397.062579 129.571865 
L 397.111699 128.979027 
L 397.159986 128.38619 
L 397.185441 128.979027 
L 397.313574 130.164702 
L 397.438981 129.571865 
L 397.464839 130.164702 
L 397.513867 126.014841 
L 397.589817 127.793353 
L 397.638879 129.571865 
L 397.71222 128.979027 
L 397.763202 126.014841 
L 397.787458 130.164702 
L 397.886024 129.571865 
L 397.91065 129.571865 
L 398.013512 126.014841 
L 398.038417 129.571865 
L 398.138345 128.979027 
L 398.162634 128.979027 
L 398.186505 129.571865 
L 398.210616 124.236329 
L 398.307972 125.422004 
L 398.333251 126.014841 
L 398.358871 124.236329 
L 398.43306 123.643492 
L 398.457516 125.422004 
L 398.507795 122.457818 
L 398.533739 122.457818 
L 398.679496 120.679306 
L 398.957123 126.607678 
L 399.00622 126.014841 
L 399.030648 126.014841 
L 399.181704 127.200516 
L 399.205954 127.200516 
L 399.230861 127.793353 
L 399.256868 127.200516 
L 399.28084 126.014841 
L 399.305686 127.793353 
L 399.379341 126.607678 
L 399.452663 126.607678 
L 399.576694 126.014841 
L 399.700762 126.607678 
L 399.74957 126.607678 
L 399.801072 128.38619 
L 399.851527 127.200516 
L 399.951166 126.014841 
L 400.023923 128.38619 
L 400.072111 127.200516 
L 400.122035 126.607678 
L 400.172115 127.200516 
L 400.198131 127.200516 
L 400.344979 128.38619 
L 400.528622 124.236329 
L 400.552961 126.014841 
L 400.724773 128.38619 
L 400.845853 127.793353 
L 400.941825 128.38619 
L 401.06272 127.793353 
L 401.18305 128.38619 
L 401.230808 128.38619 
L 401.353323 128.979027 
L 401.378257 128.38619 
L 401.450876 128.979027 
L 401.49871 129.571865 
L 401.548692 128.979027 
L 401.597724 127.793353 
L 401.623183 124.236329 
L 401.697932 125.422004 
L 401.722231 127.793353 
L 401.795954 126.014841 
L 401.844298 126.014841 
L 401.944509 127.200516 
L 401.969602 126.607678 
L 401.993454 126.607678 
L 402.115499 127.200516 
L 402.140796 127.200516 
L 402.264511 127.793353 
L 402.288728 127.793353 
L 402.411543 126.014841 
L 402.436192 126.607678 
L 402.461395 126.607678 
L 402.51374 127.200516 
L 402.588049 125.422004 
L 402.717574 126.607678 
L 402.83966 127.200516 
L 403.011009 127.200516 
L 403.134729 127.793353 
L 403.30681 127.793353 
L 403.358599 128.38619 
L 403.409747 127.793353 
L 403.509628 127.793353 
L 403.635195 128.38619 
L 403.659412 128.38619 
L 403.683357 127.793353 
L 403.755675 128.38619 
L 403.829085 128.38619 
L 403.954371 128.979027 
L 404.155233 128.979027 
L 404.193866 128.38619 
L 404.226569 128.979027 
L 404.312845 128.979027 
L 404.508151 128.38619 
L 405.386501 128.38619 
L 405.451056 127.793353 
L 405.475127 128.38619 
L 405.734157 128.38619 
L 405.868562 128.979027 
L 405.918333 128.38619 
L 405.977728 128.979027 
L 406.002834 128.979027 
L 406.133422 128.38619 
L 406.161033 128.979027 
L 406.237456 128.38619 
L 406.264515 128.38619 
L 406.346503 128.979027 
L 406.370473 128.38619 
L 406.422133 128.38619 
L 406.446978 127.793353 
L 406.522239 128.38619 
L 406.7254 128.38619 
L 406.749684 127.793353 
L 406.824278 128.38619 
L 407.032617 128.38619 
L 407.057043 127.793353 
L 407.133258 128.38619 
L 408.253101 128.38619 
L 408.277858 128.979027 
L 408.356762 128.38619 
L 408.433223 128.38619 
L 408.51949 128.979027 
L 408.573342 128.38619 
L 408.626078 128.979027 
L 409.064933 128.979027 
L 409.168642 129.571865 
L 409.300088 128.979027 
L 409.580708 128.979027 
L 409.706464 129.571865 
L 409.730346 129.571865 
L 409.829183 128.979027 
L 409.951474 129.571865 
L 410.001076 128.979027 
L 410.049128 129.571865 
L 410.643694 129.571865 
L 410.668605 130.164702 
L 410.74322 129.571865 
L 411.035795 129.571865 
L 411.156643 130.164702 
L 411.255247 129.571865 
L 411.353575 131.350376 
L 411.377613 130.164702 
L 411.576698 130.164702 
L 411.60066 129.571865 
L 411.676123 130.164702 
L 412.225186 130.164702 
L 412.25497 131.350376 
L 412.330176 130.164702 
L 412.80463 130.164702 
L 412.830366 131.350376 
L 412.907312 130.164702 
L 412.932054 130.164702 
L 413.060858 131.350376 
L 413.463139 131.350376 
L 413.487766 130.164702 
L 413.53778 131.350376 
L 413.613801 130.164702 
L 413.638654 131.350376 
L 413.742506 131.350376 
L 413.865176 130.164702 
L 413.990354 131.350376 
L 414.310164 131.350376 
L 414.334102 131.943214 
L 414.406121 131.350376 
L 414.748136 131.350376 
L 414.846226 131.943214 
L 414.894819 131.350376 
L 414.943792 131.943214 
L 414.96843 131.943214 
L 415.04443 131.350376 
L 415.068882 131.943214 
L 415.142898 131.943214 
L 415.168602 131.350376 
L 415.243338 131.943214 
L 415.564923 131.943214 
L 415.662698 132.536051 
L 415.784466 131.943214 
L 416.642281 131.943214 
L 416.715708 132.536051 
L 416.739632 131.943214 
L 416.81201 131.943214 
L 416.935237 132.536051 
L 416.959608 132.536051 
L 416.984305 131.943214 
L 417.058158 132.536051 
L 417.377892 132.536051 
L 417.402775 131.943214 
L 417.475713 132.536051 
L 417.992707 132.536051 
L 418.114111 133.128888 
L 418.478777 133.128888 
L 418.601945 132.536051 
L 418.721762 133.128888 
L 418.797118 132.536051 
L 418.822669 133.128888 
L 418.846543 133.128888 
L 418.970454 132.536051 
L 419.02054 132.536051 
L 419.145348 133.128888 
L 419.220055 132.536051 
L 419.244697 133.128888 
L 419.439575 133.128888 
L 419.512216 132.536051 
L 419.536927 133.128888 
L 420.055717 133.128888 
L 420.153325 133.721726 
L 420.276987 133.128888 
L 420.447631 133.128888 
L 420.570587 132.536051 
L 421.583142 132.536051 
L 421.607467 131.943214 
L 421.682465 132.536051 
L 421.858821 132.536051 
L 421.886204 131.943214 
L 421.965125 132.536051 
L 422.06624 132.536051 
L 422.193714 131.943214 
L 422.22258 131.943214 
L 422.301161 132.536051 
L 422.327058 131.943214 
L 422.377416 131.943214 
L 422.42669 132.536051 
L 422.476469 131.943214 
L 422.610193 131.943214 
L 422.714951 132.536051 
L 422.846564 131.943214 
L 423.519819 131.943214 
L 423.544902 131.350376 
L 423.619151 131.943214 
L 423.669435 131.943214 
L 423.694463 131.350376 
L 423.767793 131.943214 
L 423.791907 131.943214 
L 423.916882 131.350376 
L 424.039316 131.943214 
L 424.165197 131.943214 
L 424.189095 132.536051 
L 424.262427 131.943214 
L 424.360807 131.350376 
L 424.485188 131.943214 
L 424.65929 131.943214 
L 424.735412 131.350376 
L 424.761849 131.943214 
L 425.363817 131.943214 
L 425.436575 131.350376 
L 425.462402 131.943214 
L 425.486745 131.943214 
L 425.607518 131.350376 
L 425.731846 131.943214 
L 425.756507 131.943214 
L 425.87867 131.350376 
L 426.300893 131.350376 
L 426.402256 130.164702 
L 426.426153 131.350376 
L 426.500708 130.164702 
L 426.960386 130.164702 
L 427.084747 129.571865 
L 427.207089 129.571865 
L 427.310422 128.979027 
L 427.431648 129.571865 
L 427.455505 129.571865 
L 427.579403 128.979027 
L 427.618762 128.979027 
L 427.716458 128.38619 
L 427.740588 128.979027 
L 427.819874 128.38619 
L 427.96806 128.979027 
L 428.092023 127.793353 
L 428.1171 128.38619 
L 428.192859 127.793353 
L 428.21703 127.200516 
L 428.289961 127.793353 
L 428.338798 127.793353 
L 428.3635 127.200516 
L 428.435974 127.793353 
L 428.461163 127.793353 
L 428.535275 127.200516 
L 428.559222 127.793353 
L 428.608141 127.793353 
L 428.683087 127.200516 
L 428.706979 127.793353 
L 428.756744 127.793353 
L 428.879329 127.200516 
L 428.903602 127.200516 
L 428.955312 127.793353 
L 429.004412 127.200516 
L 429.028299 127.200516 
L 429.127782 127.793353 
L 429.177177 127.200516 
L 429.226354 127.793353 
L 429.30013 127.793353 
L 429.427164 127.200516 
L 429.453228 127.793353 
L 429.503778 127.200516 
L 429.604389 125.422004 
L 429.652573 126.014841 
L 429.677219 126.014841 
L 429.776855 128.38619 
L 429.802379 127.793353 
L 429.828085 127.793353 
L 429.876074 123.643492 
L 429.927186 128.38619 
L 429.962094 128.38619 
L 429.988078 127.793353 
L 430.062008 128.38619 
L 430.086671 128.38619 
L 430.184137 128.979027 
L 430.236025 127.793353 
L 430.285429 128.38619 
L 430.409574 128.979027 
L 430.631631 128.979027 
L 430.704858 129.571865 
L 430.741006 128.979027 
L 430.815025 128.979027 
L 430.841441 129.571865 
L 430.865687 128.979027 
L 430.925597 125.422004 
L 430.973652 128.979027 
L 431.027913 128.979027 
L 431.127878 126.607678 
L 431.151867 128.38619 
L 431.183425 128.38619 
L 431.355316 124.236329 
L 431.37921 124.236329 
L 431.502257 126.014841 
L 431.526616 125.422004 
L 431.575455 126.014841 
" style="fill:none;stroke:#1f77b4;stroke-linecap:square;stroke-width:1.5;"/>
   </g>
   <g id="line2d_28">
    <path clip-path="url(#pefe28084d9)" d="M 63.084545 184.112893 
L 65.331383 184.112893 
L 65.455961 160.992239 
L 67.892847 160.992239 
L 68.01443 167.513449 
L 69.615004 167.513449 
L 69.735917 178.777357 
L 70.551499 178.777357 
L 70.671807 190.634102 
L 71.209227 190.634102 
L 132.879467 107.636886 
L 136.091881 107.636886 
L 136.1903 119.493631 
L 137.570874 119.493631 
L 137.693753 130.757539 
L 138.92034 130.757539 
L 139.0422 160.992239 
L 140.882191 160.992239 
L 141.004231 178.777357 
L 141.686849 178.777357 
L 238.263167 114.158096 
L 239.072257 114.158096 
L 239.195351 137.278749 
L 240.415581 137.278749 
L 240.539607 160.992239 
L 243.226965 160.992239 
L 243.34986 172.848985 
L 245.997816 172.848985 
L 246.119338 178.777357 
L 247.740913 178.777357 
L 247.862298 184.112893 
L 248.830934 184.112893 
L 248.956802 195.969638 
L 250.080336 195.969638 
L 250.200536 202.490848 
L 250.925661 202.490848 
L 251.055128 191.819777 
L 251.548674 191.819777 
L 251.670761 195.969638 
L 252.78583 195.969638 
L 252.922004 190.634102 
L 256.27595 190.634102 
L 256.428106 191.819777 
L 257.13881 191.819777 
L 257.272914 190.634102 
L 258.407861 190.634102 
L 258.532066 184.112893 
L 261.201198 184.112893 
L 261.323757 178.777357 
L 262.745133 178.777357 
L 262.868699 172.848985 
L 263.600782 172.848985 
L 263.72395 170.477636 
L 263.967384 170.477636 
L 264.10073 167.513449 
L 266.803639 167.513449 
L 266.926789 160.992239 
L 271.250679 160.992239 
L 271.373863 170.477636 
L 272.593073 170.477636 
L 272.726543 172.848985 
L 273.579442 172.848985 
L 273.704543 170.477636 
L 273.82905 170.477636 
L 273.962207 172.848985 
L 277.454783 172.848985 
L 277.577632 170.477636 
L 277.944671 170.477636 
L 278.067752 172.848985 
L 279.303903 172.848985 
L 279.426534 178.777357 
L 280.04377 178.777357 
L 280.169272 191.819777 
L 280.756421 191.819777 
L 280.880781 195.969638 
L 281.11024 195.969638 
L 281.232983 202.490848 
L 286.788501 202.490848 
L 286.914097 191.819777 
L 288.024078 191.819777 
L 288.145843 202.490848 
L 289.136989 202.490848 
L 289.254975 190.634102 
L 290.468298 190.634102 
L 290.617156 184.112893 
L 291.092756 184.112893 
L 291.212525 181.148706 
L 291.8167 181.148706 
L 291.944907 178.777357 
L 293.690345 178.777357 
L 293.812067 172.848985 
L 294.65321 172.848985 
L 294.776762 167.513449 
L 295.990124 167.513449 
L 296.104143 172.848985 
L 297.325309 172.848985 
L 297.478234 160.992239 
L 300.343405 160.992239 
L 300.477641 155.656704 
L 304.344186 155.656704 
L 304.516754 160.992239 
L 305.584171 160.992239 
L 305.69711 184.112893 
L 307.309491 184.112893 
L 307.445758 195.969638 
L 308.677195 195.969638 
L 308.804237 214.347593 
L 310.302309 214.347593 
L 310.422147 223.832989 
L 312.149336 223.832989 
L 312.269688 234.50406 
L 314.469838 234.50406 
L 314.592162 223.832989 
L 315.818502 223.832989 
L 315.939655 226.204338 
L 317.50911 226.204338 
L 317.629417 223.832989 
L 318.115869 223.832989 
L 318.23879 226.204338 
L 320.441029 226.204338 
L 320.563663 232.132711 
L 324.519303 232.132711 
L 324.642902 223.832989 
L 325.922609 223.832989 
L 326.04961 213.161918 
L 327.479132 213.161918 
L 327.594357 181.148706 
L 328.113152 181.148706 
L 328.237286 172.848985 
L 329.444432 172.848985 
L 329.576099 137.278749 
L 330.761538 137.278749 
L 330.886027 114.158096 
L 332.359982 114.158096 
L 332.493851 102.301351 
L 333.665317 102.301351 
L 333.800827 89.258931 
L 335.004098 89.258931 
L 335.124064 95.780141 
L 336.227295 95.780141 
L 336.364448 107.636886 
L 338.90432 107.636886 
L 339.036202 125.422004 
L 339.255636 125.422004 
L 339.393059 155.656704 
L 340.984067 155.656704 
L 341.100178 167.513449 
L 341.859551 167.513449 
L 341.990572 172.848985 
L 343.207591 172.848985 
L 343.348489 184.112893 
L 344.675138 184.112893 
L 344.801111 190.634102 
L 346.256292 190.634102 
L 346.37781 202.490848 
L 346.990787 202.490848 
L 347.114745 223.832989 
L 347.854683 223.832989 
L 347.977904 214.347593 
L 348.224157 214.347593 
L 348.344529 223.832989 
L 350.155829 223.832989 
L 350.279228 226.204338 
L 350.878299 226.204338 
L 350.999681 223.832989 
L 351.610477 223.832989 
L 351.732374 237.468246 
L 353.67912 237.468246 
L 353.800733 245.17513 
L 353.92068 245.17513 
L 354.040504 234.50406 
L 354.288896 234.50406 
L 354.40971 237.468246 
L 355.963267 237.468246 
L 356.088594 214.347593 
L 357.30863 214.347593 
L 357.435197 190.634102 
L 358.767716 190.634102 
L 358.890375 149.135494 
L 360.079429 149.135494 
L 360.204823 114.158096 
L 361.411632 114.158096 
L 361.54517 83.923396 
L 362.841642 83.923396 
L 362.963466 66.138278 
L 364.280939 66.138278 
L 364.407499 54.281533 
L 365.586759 54.281533 
L 365.712347 35.903578 
L 367.061262 35.903578 
L 367.216105 42.424787 
L 369.64151 42.424787 
L 369.799353 72.06665 
L 371.085504 72.06665 
L 371.22083 95.780141 
L 372.487862 95.780141 
L 372.63309 125.422004 
L 375.056898 125.422004 
L 375.181242 137.278749 
L 375.303878 137.278749 
L 375.426287 155.656704 
L 376.629437 155.656704 
L 376.754169 172.848985 
L 379.037147 172.848985 
L 379.157031 184.112893 
L 379.745888 184.112893 
L 379.867225 190.634102 
L 381.199244 190.634102 
L 381.324586 195.969638 
L 383.034802 195.969638 
L 383.157032 213.161918 
L 383.65196 213.161918 
L 383.775752 202.490848 
L 384.390993 202.490848 
L 384.512244 213.161918 
L 385.97327 213.161918 
L 386.100296 223.832989 
L 386.350586 223.832989 
L 386.481185 209.012057 
L 386.814713 209.012057 
L 386.943446 213.161918 
L 387.505688 213.161918 
L 387.630493 234.50406 
L 387.87338 234.50406 
L 387.996143 226.204338 
L 388.245234 226.204338 
L 388.370882 223.832989 
L 389.231714 223.832989 
L 389.359229 202.490848 
L 390.65292 202.490848 
L 390.775815 184.112893 
L 392.024121 184.112893 
L 392.147625 155.656704 
L 394.456573 155.656704 
L 394.581412 119.493631 
L 394.709264 119.493631 
L 394.832875 95.780141 
L 396.292461 95.780141 
L 396.41411 77.402186 
L 397.538661 77.402186 
L 397.662847 66.138278 
L 399.901403 66.138278 
L 400.023923 54.281533 
L 402.61275 54.281533 
L 402.74155 60.802743 
L 402.986268 60.802743 
L 403.110467 83.923396 
L 404.458401 83.923396 
L 404.586369 102.301351 
L 405.8424 102.301351 
L 405.977728 125.422004 
L 407.182463 125.422004 
L 407.306662 137.278749 
L 408.834693 137.278749 
L 408.959662 149.135494 
L 410.123442 149.135494 
L 410.245354 155.656704 
L 412.330176 155.656704 
L 412.453737 167.513449 
L 412.70681 167.513449 
L 412.830366 184.112893 
L 414.527989 184.112893 
L 414.650258 195.969638 
L 415.638683 195.969638 
L 415.76055 202.490848 
L 416.984305 202.490848 
L 417.107376 209.012057 
L 418.822669 209.012057 
L 418.945262 220.868803 
L 420.545039 220.868803 
L 420.668501 213.161918 
L 423.494329 213.161918 
L 423.619151 202.490848 
L 424.862015 202.490848 
L 424.988698 184.112893 
L 425.339361 184.112893 
L 425.462402 167.513449 
L 429.028299 167.513449 
L 429.15172 125.422004 
L 430.385607 125.422004 
L 430.508333 107.636886 
L 431.575455 107.636886 
L 431.575455 107.636886 
" style="fill:none;stroke:#ff7f0e;stroke-linecap:square;stroke-width:1.5;"/>
   </g>
   <g id="patch_3">
    <path d="M 44.66 255.638708 
L 44.66 25.44 
" style="fill:none;stroke:#000000;stroke-linecap:square;stroke-linejoin:miter;stroke-width:0.8;"/>
   </g>
   <g id="patch_4">
    <path d="M 450 255.638708 
L 450 25.44 
" style="fill:none;stroke:#000000;stroke-linecap:square;stroke-linejoin:miter;stroke-width:0.8;"/>
   </g>
   <g id="patch_5">
    <path d="M 44.66 255.638708 
L 450 255.638708 
" style="fill:none;stroke:#000000;stroke-linecap:square;stroke-linejoin:miter;stroke-width:0.8;"/>
   </g>
   <g id="patch_6">
    <path d="M 44.66 25.44 
L 450 25.44 
" style="fill:none;stroke:#000000;stroke-linecap:square;stroke-linejoin:miter;stroke-width:0.8;"/>
   </g>
   <g id="text_16">
    <!-- Lake Shoecraft - Water and Air Temperature -->
    <g transform="translate(115.711562 19.44)scale(0.12 -0.12)">
     <defs>
      <path d="M 9.8125 72.90625 
L 19.671875 72.90625 
L 19.671875 8.296875 
L 55.171875 8.296875 
L 55.171875 0 
L 9.8125 0 
z
" id="DejaVuSans-76"/>
      <path d="M 9.078125 75.984375 
L 18.109375 75.984375 
L 18.109375 31.109375 
L 44.921875 54.6875 
L 56.390625 54.6875 
L 27.390625 29.109375 
L 57.625 0 
L 45.90625 0 
L 18.109375 26.703125 
L 18.109375 0 
L 9.078125 0 
z
" id="DejaVuSans-107"/>
      <path d="M 53.515625 70.515625 
L 53.515625 60.890625 
Q 47.90625 63.578125 42.921875 64.890625 
Q 37.9375 66.21875 33.296875 66.21875 
Q 25.25 66.21875 20.875 63.09375 
Q 16.5 59.96875 16.5 54.203125 
Q 16.5 49.359375 19.40625 46.890625 
Q 22.3125 44.4375 30.421875 42.921875 
L 36.375 41.703125 
Q 47.40625 39.59375 52.65625 34.296875 
Q 57.90625 29 57.90625 20.125 
Q 57.90625 9.515625 50.796875 4.046875 
Q 43.703125 -1.421875 29.984375 -1.421875 
Q 24.8125 -1.421875 18.96875 -0.25 
Q 13.140625 0.921875 6.890625 3.21875 
L 6.890625 13.375 
Q 12.890625 10.015625 18.65625 8.296875 
Q 24.421875 6.59375 29.984375 6.59375 
Q 38.421875 6.59375 43.015625 9.90625 
Q 47.609375 13.234375 47.609375 19.390625 
Q 47.609375 24.75 44.3125 27.78125 
Q 41.015625 30.8125 33.5 32.328125 
L 27.484375 33.5 
Q 16.453125 35.6875 11.515625 40.375 
Q 6.59375 45.0625 6.59375 53.421875 
Q 6.59375 63.09375 13.40625 68.65625 
Q 20.21875 74.21875 32.171875 74.21875 
Q 37.3125 74.21875 42.625 73.28125 
Q 47.953125 72.359375 53.515625 70.515625 
z
" id="DejaVuSans-83"/>
      <path d="M 54.890625 33.015625 
L 54.890625 0 
L 45.90625 0 
L 45.90625 32.71875 
Q 45.90625 40.484375 42.875 44.328125 
Q 39.84375 48.1875 33.796875 48.1875 
Q 26.515625 48.1875 22.3125 43.546875 
Q 18.109375 38.921875 18.109375 30.90625 
L 18.109375 0 
L 9.078125 0 
L 9.078125 75.984375 
L 18.109375 75.984375 
L 18.109375 46.1875 
Q 21.34375 51.125 25.703125 53.5625 
Q 30.078125 56 35.796875 56 
Q 45.21875 56 50.046875 50.171875 
Q 54.890625 44.34375 54.890625 33.015625 
z
" id="DejaVuSans-104"/>
      <path d="M 30.609375 48.390625 
Q 23.390625 48.390625 19.1875 42.75 
Q 14.984375 37.109375 14.984375 27.296875 
Q 14.984375 17.484375 19.15625 11.84375 
Q 23.34375 6.203125 30.609375 6.203125 
Q 37.796875 6.203125 41.984375 11.859375 
Q 46.1875 17.53125 46.1875 27.296875 
Q 46.1875 37.015625 41.984375 42.703125 
Q 37.796875 48.390625 30.609375 48.390625 
z
M 30.609375 56 
Q 42.328125 56 49.015625 48.375 
Q 55.71875 40.765625 55.71875 27.296875 
Q 55.71875 13.875 49.015625 6.21875 
Q 42.328125 -1.421875 30.609375 -1.421875 
Q 18.84375 -1.421875 12.171875 6.21875 
Q 5.515625 13.875 5.515625 27.296875 
Q 5.515625 40.765625 12.171875 48.375 
Q 18.84375 56 30.609375 56 
z
" id="DejaVuSans-111"/>
      <path d="M 48.78125 52.59375 
L 48.78125 44.1875 
Q 44.96875 46.296875 41.140625 47.34375 
Q 37.3125 48.390625 33.40625 48.390625 
Q 24.65625 48.390625 19.8125 42.84375 
Q 14.984375 37.3125 14.984375 27.296875 
Q 14.984375 17.28125 19.8125 11.734375 
Q 24.65625 6.203125 33.40625 6.203125 
Q 37.3125 6.203125 41.140625 7.25 
Q 44.96875 8.296875 48.78125 10.40625 
L 48.78125 2.09375 
Q 45.015625 0.34375 40.984375 -0.53125 
Q 36.96875 -1.421875 32.421875 -1.421875 
Q 20.0625 -1.421875 12.78125 6.34375 
Q 5.515625 14.109375 5.515625 27.296875 
Q 5.515625 40.671875 12.859375 48.328125 
Q 20.21875 56 33.015625 56 
Q 37.15625 56 41.109375 55.140625 
Q 45.0625 54.296875 48.78125 52.59375 
z
" id="DejaVuSans-99"/>
      <path d="M 37.109375 75.984375 
L 37.109375 68.5 
L 28.515625 68.5 
Q 23.6875 68.5 21.796875 66.546875 
Q 19.921875 64.59375 19.921875 59.515625 
L 19.921875 54.6875 
L 34.71875 54.6875 
L 34.71875 47.703125 
L 19.921875 47.703125 
L 19.921875 0 
L 10.890625 0 
L 10.890625 47.703125 
L 2.296875 47.703125 
L 2.296875 54.6875 
L 10.890625 54.6875 
L 10.890625 58.5 
Q 10.890625 67.625 15.140625 71.796875 
Q 19.390625 75.984375 28.609375 75.984375 
z
" id="DejaVuSans-102"/>
      <path d="M 3.328125 72.90625 
L 13.28125 72.90625 
L 28.609375 11.28125 
L 43.890625 72.90625 
L 54.984375 72.90625 
L 70.3125 11.28125 
L 85.59375 72.90625 
L 95.609375 72.90625 
L 77.296875 0 
L 64.890625 0 
L 49.515625 63.28125 
L 33.984375 0 
L 21.578125 0 
z
" id="DejaVuSans-87"/>
      <path d="M 54.890625 33.015625 
L 54.890625 0 
L 45.90625 0 
L 45.90625 32.71875 
Q 45.90625 40.484375 42.875 44.328125 
Q 39.84375 48.1875 33.796875 48.1875 
Q 26.515625 48.1875 22.3125 43.546875 
Q 18.109375 38.921875 18.109375 30.90625 
L 18.109375 0 
L 9.078125 0 
L 9.078125 54.6875 
L 18.109375 54.6875 
L 18.109375 46.1875 
Q 21.34375 51.125 25.703125 53.5625 
Q 30.078125 56 35.796875 56 
Q 45.21875 56 50.046875 50.171875 
Q 54.890625 44.34375 54.890625 33.015625 
z
" id="DejaVuSans-110"/>
      <path d="M 45.40625 46.390625 
L 45.40625 75.984375 
L 54.390625 75.984375 
L 54.390625 0 
L 45.40625 0 
L 45.40625 8.203125 
Q 42.578125 3.328125 38.25 0.953125 
Q 33.9375 -1.421875 27.875 -1.421875 
Q 17.96875 -1.421875 11.734375 6.484375 
Q 5.515625 14.40625 5.515625 27.296875 
Q 5.515625 40.1875 11.734375 48.09375 
Q 17.96875 56 27.875 56 
Q 33.9375 56 38.25 53.625 
Q 42.578125 51.265625 45.40625 46.390625 
z
M 14.796875 27.296875 
Q 14.796875 17.390625 18.875 11.75 
Q 22.953125 6.109375 30.078125 6.109375 
Q 37.203125 6.109375 41.296875 11.75 
Q 45.40625 17.390625 45.40625 27.296875 
Q 45.40625 37.203125 41.296875 42.84375 
Q 37.203125 48.484375 30.078125 48.484375 
Q 22.953125 48.484375 18.875 42.84375 
Q 14.796875 37.203125 14.796875 27.296875 
z
" id="DejaVuSans-100"/>
      <path d="M 34.1875 63.1875 
L 20.796875 26.90625 
L 47.609375 26.90625 
z
M 28.609375 72.90625 
L 39.796875 72.90625 
L 67.578125 0 
L 57.328125 0 
L 50.6875 18.703125 
L 17.828125 18.703125 
L 11.1875 0 
L 0.78125 0 
z
" id="DejaVuSans-65"/>
      <path d="M 9.421875 54.6875 
L 18.40625 54.6875 
L 18.40625 0 
L 9.421875 0 
z
M 9.421875 75.984375 
L 18.40625 75.984375 
L 18.40625 64.59375 
L 9.421875 64.59375 
z
" id="DejaVuSans-105"/>
     </defs>
     <use xlink:href="#DejaVuSans-76"/>
     <use x="55.712891" xlink:href="#DejaVuSans-97"/>
     <use x="116.992188" xlink:href="#DejaVuSans-107"/>
     <use x="171.277344" xlink:href="#DejaVuSans-101"/>
     <use x="232.800781" xlink:href="#DejaVuSans-32"/>
     <use x="264.587891" xlink:href="#DejaVuSans-83"/>
     <use x="328.064453" xlink:href="#DejaVuSans-104"/>
     <use x="391.443359" xlink:href="#DejaVuSans-111"/>
     <use x="452.625" xlink:href="#DejaVuSans-101"/>
     <use x="514.148438" xlink:href="#DejaVuSans-99"/>
     <use x="569.128906" xlink:href="#DejaVuSans-114"/>
     <use x="610.242188" xlink:href="#DejaVuSans-97"/>
     <use x="671.521484" xlink:href="#DejaVuSans-102"/>
     <use x="704.976562" xlink:href="#DejaVuSans-116"/>
     <use x="744.185547" xlink:href="#DejaVuSans-32"/>
     <use x="775.972656" xlink:href="#DejaVuSans-45"/>
     <use x="812.056641" xlink:href="#DejaVuSans-32"/>
     <use x="843.84375" xlink:href="#DejaVuSans-87"/>
     <use x="936.345703" xlink:href="#DejaVuSans-97"/>
     <use x="997.625" xlink:href="#DejaVuSans-116"/>
     <use x="1036.833984" xlink:href="#DejaVuSans-101"/>
     <use x="1098.357422" xlink:href="#DejaVuSans-114"/>
     <use x="1139.470703" xlink:href="#DejaVuSans-32"/>
     <use x="1171.257812" xlink:href="#DejaVuSans-97"/>
     <use x="1232.537109" xlink:href="#DejaVuSans-110"/>
     <use x="1295.916016" xlink:href="#DejaVuSans-100"/>
     <use x="1359.392578" xlink:href="#DejaVuSans-32"/>
     <use x="1391.179688" xlink:href="#DejaVuSans-65"/>
     <use x="1459.587891" xlink:href="#DejaVuSans-105"/>
     <use x="1487.371094" xlink:href="#DejaVuSans-114"/>
     <use x="1528.484375" xlink:href="#DejaVuSans-32"/>
     <use x="1560.271484" xlink:href="#DejaVuSans-84"/>
     <use x="1604.355469" xlink:href="#DejaVuSans-101"/>
     <use x="1665.878906" xlink:href="#DejaVuSans-109"/>
     <use x="1763.291016" xlink:href="#DejaVuSans-112"/>
     <use x="1826.767578" xlink:href="#DejaVuSans-101"/>
     <use x="1888.291016" xlink:href="#DejaVuSans-114"/>
     <use x="1929.404297" xlink:href="#DejaVuSans-97"/>
     <use x="1990.683594" xlink:href="#DejaVuSans-116"/>
     <use x="2029.892578" xlink:href="#DejaVuSans-117"/>
     <use x="2093.271484" xlink:href="#DejaVuSans-114"/>
     <use x="2132.134766" xlink:href="#DejaVuSans-101"/>
    </g>
   </g>
   <g id="legend_1">
    <g id="patch_7">
     <path d="M 51.66 62.79625 
L 136.769375 62.79625 
Q 138.769375 62.79625 138.769375 60.79625 
L 138.769375 32.44 
Q 138.769375 30.44 136.769375 30.44 
L 51.66 30.44 
Q 49.66 30.44 49.66 32.44 
L 49.66 60.79625 
Q 49.66 62.79625 51.66 62.79625 
z
" style="fill:#ffffff;opacity:0.8;stroke:#cccccc;stroke-linejoin:miter;"/>
    </g>
    <g id="line2d_29">
     <path d="M 53.66 38.538437 
L 73.66 38.538437 
" style="fill:none;stroke:#1f77b4;stroke-linecap:square;stroke-width:1.5;"/>
    </g>
    <g id="line2d_30"/>
    <g id="text_17">
     <!-- Lake Temp -->
     <g transform="translate(81.66 42.038437)scale(0.1 -0.1)">
      <use xlink:href="#DejaVuSans-76"/>
      <use x="55.712891" xlink:href="#DejaVuSans-97"/>
      <use x="116.992188" xlink:href="#DejaVuSans-107"/>
      <use x="171.277344" xlink:href="#DejaVuSans-101"/>
      <use x="232.800781" xlink:href="#DejaVuSans-32"/>
      <use x="264.587891" xlink:href="#DejaVuSans-84"/>
      <use x="308.671875" xlink:href="#DejaVuSans-101"/>
      <use x="370.195312" xlink:href="#DejaVuSans-109"/>
      <use x="467.607422" xlink:href="#DejaVuSans-112"/>
     </g>
    </g>
    <g id="line2d_31">
     <path d="M 53.66 53.216562 
L 73.66 53.216562 
" style="fill:none;stroke:#ff7f0e;stroke-linecap:square;stroke-width:1.5;"/>
    </g>
    <g id="line2d_32"/>
    <g id="text_18">
     <!-- Air Temp -->
     <g transform="translate(81.66 56.716562)scale(0.1 -0.1)">
      <use xlink:href="#DejaVuSans-65"/>
      <use x="68.408203" xlink:href="#DejaVuSans-105"/>
      <use x="96.191406" xlink:href="#DejaVuSans-114"/>
      <use x="137.304688" xlink:href="#DejaVuSans-32"/>
      <use x="169.091797" xlink:href="#DejaVuSans-84"/>
      <use x="213.175781" xlink:href="#DejaVuSans-101"/>
      <use x="274.699219" xlink:href="#DejaVuSans-109"/>
      <use x="372.111328" xlink:href="#DejaVuSans-112"/>
     </g>
    </g>
   </g>
  </g>
 </g>
 <defs>
  <clipPath id="pefe28084d9">
   <rect height="230.198708" width="405.34" x="44.66" y="25.44"/>
  </clipPath>
 </defs>
</svg>
