<?xml version="1.0" encoding="utf-8" standalone="no"?>
<!DOCTYPE svg PUBLIC "-//W3C//DTD SVG 1.1//EN"
  "http://www.w3.org/Graphics/SVG/1.1/DTD/svg11.dtd">
<!-- Created with matplotlib (https://matplotlib.org/) -->
<svg height="345.6pt" version="1.1" viewBox="0 0 460.8 345.6" width="460.8pt" xmlns="http://www.w3.org/2000/svg" xmlns:xlink="http://www.w3.org/1999/xlink">
 <metadata>
  <rdf:RDF xmlns:cc="http://creativecommons.org/ns#" xmlns:dc="http://purl.org/dc/elements/1.1/" xmlns:rdf="http://www.w3.org/1999/02/22-rdf-syntax-ns#">
   <cc:Work>
    <dc:type rdf:resource="http://purl.org/dc/dcmitype/StillImage"/>
    <dc:date>2024-09-08T04:58:59.329084</dc:date>
    <dc:format>image/svg+xml</dc:format>
    <dc:creator>
     <cc:Agent>
      <dc:title>Matplotlib v3.3.2, https://matplotlib.org/</dc:title>
     </cc:Agent>
    </dc:creator>
   </cc:Work>
  </rdf:RDF>
 </metadata>
 <defs>
  <style type="text/css">*{stroke-linecap:butt;stroke-linejoin:round;}</style>
 </defs>
 <g id="figure_1">
  <g id="patch_1">
   <path d="M 0 345.6 
L 460.8 345.6 
L 460.8 0 
L 0 0 
z
" style="fill:none;"/>
  </g>
  <g id="axes_1">
   <g id="patch_2">
    <path d="M 44.66 255.638708 
L 450 255.638708 
L 450 25.44 
L 44.66 25.44 
z
" style="fill:none;"/>
   </g>
   <g id="matplotlib.axis_1">
    <g id="xtick_1">
     <g id="line2d_1">
      <path clip-path="url(#p967c771367)" d="M 44.804983 255.638708 
L 44.804983 25.44 
" style="fill:none;stroke:#b0b0b0;stroke-linecap:square;stroke-width:0.8;"/>
     </g>
     <g id="line2d_2">
      <defs>
       <path d="M 0 0 
L 0 3.5 
" id="m4cda52334c" style="stroke:#000000;stroke-width:0.8;"/>
      </defs>
      <g>
       <use style="stroke:#000000;stroke-width:0.8;" x="44.804983" xlink:href="#m4cda52334c" y="255.638708"/>
      </g>
     </g>
     <g id="text_1">
      <!-- 2024-08-27 -->
      <g transform="translate(37.459591 319.848351)rotate(-70)scale(0.1 -0.1)">
       <defs>
        <path d="M 19.1875 8.296875 
L 53.609375 8.296875 
L 53.609375 0 
L 7.328125 0 
L 7.328125 8.296875 
Q 12.9375 14.109375 22.625 23.890625 
Q 32.328125 33.6875 34.8125 36.53125 
Q 39.546875 41.84375 41.421875 45.53125 
Q 43.3125 49.21875 43.3125 52.78125 
Q 43.3125 58.59375 39.234375 62.25 
Q 35.15625 65.921875 28.609375 65.921875 
Q 23.96875 65.921875 18.8125 64.3125 
Q 13.671875 62.703125 7.8125 59.421875 
L 7.8125 69.390625 
Q 13.765625 71.78125 18.9375 73 
Q 24.125 74.21875 28.421875 74.21875 
Q 39.75 74.21875 46.484375 68.546875 
Q 53.21875 62.890625 53.21875 53.421875 
Q 53.21875 48.921875 51.53125 44.890625 
Q 49.859375 40.875 45.40625 35.40625 
Q 44.1875 33.984375 37.640625 27.21875 
Q 31.109375 20.453125 19.1875 8.296875 
z
" id="DejaVuSans-50"/>
        <path d="M 31.78125 66.40625 
Q 24.171875 66.40625 20.328125 58.90625 
Q 16.5 51.421875 16.5 36.375 
Q 16.5 21.390625 20.328125 13.890625 
Q 24.171875 6.390625 31.78125 6.390625 
Q 39.453125 6.390625 43.28125 13.890625 
Q 47.125 21.390625 47.125 36.375 
Q 47.125 51.421875 43.28125 58.90625 
Q 39.453125 66.40625 31.78125 66.40625 
z
M 31.78125 74.21875 
Q 44.046875 74.21875 50.515625 64.515625 
Q 56.984375 54.828125 56.984375 36.375 
Q 56.984375 17.96875 50.515625 8.265625 
Q 44.046875 -1.421875 31.78125 -1.421875 
Q 19.53125 -1.421875 13.0625 8.265625 
Q 6.59375 17.96875 6.59375 36.375 
Q 6.59375 54.828125 13.0625 64.515625 
Q 19.53125 74.21875 31.78125 74.21875 
z
" id="DejaVuSans-48"/>
        <path d="M 37.796875 64.3125 
L 12.890625 25.390625 
L 37.796875 25.390625 
z
M 35.203125 72.90625 
L 47.609375 72.90625 
L 47.609375 25.390625 
L 58.015625 25.390625 
L 58.015625 17.1875 
L 47.609375 17.1875 
L 47.609375 0 
L 37.796875 0 
L 37.796875 17.1875 
L 4.890625 17.1875 
L 4.890625 26.703125 
z
" id="DejaVuSans-52"/>
        <path d="M 4.890625 31.390625 
L 31.203125 31.390625 
L 31.203125 23.390625 
L 4.890625 23.390625 
z
" id="DejaVuSans-45"/>
        <path d="M 31.78125 34.625 
Q 24.75 34.625 20.71875 30.859375 
Q 16.703125 27.09375 16.703125 20.515625 
Q 16.703125 13.921875 20.71875 10.15625 
Q 24.75 6.390625 31.78125 6.390625 
Q 38.8125 6.390625 42.859375 10.171875 
Q 46.921875 13.96875 46.921875 20.515625 
Q 46.921875 27.09375 42.890625 30.859375 
Q 38.875 34.625 31.78125 34.625 
z
M 21.921875 38.8125 
Q 15.578125 40.375 12.03125 44.71875 
Q 8.5 49.078125 8.5 55.328125 
Q 8.5 64.0625 14.71875 69.140625 
Q 20.953125 74.21875 31.78125 74.21875 
Q 42.671875 74.21875 48.875 69.140625 
Q 55.078125 64.0625 55.078125 55.328125 
Q 55.078125 49.078125 51.53125 44.71875 
Q 48 40.375 41.703125 38.8125 
Q 48.828125 37.15625 52.796875 32.3125 
Q 56.78125 27.484375 56.78125 20.515625 
Q 56.78125 9.90625 50.3125 4.234375 
Q 43.84375 -1.421875 31.78125 -1.421875 
Q 19.734375 -1.421875 13.25 4.234375 
Q 6.78125 9.90625 6.78125 20.515625 
Q 6.78125 27.484375 10.78125 32.3125 
Q 14.796875 37.15625 21.921875 38.8125 
z
M 18.3125 54.390625 
Q 18.3125 48.734375 21.84375 45.5625 
Q 25.390625 42.390625 31.78125 42.390625 
Q 38.140625 42.390625 41.71875 45.5625 
Q 45.3125 48.734375 45.3125 54.390625 
Q 45.3125 60.0625 41.71875 63.234375 
Q 38.140625 66.40625 31.78125 66.40625 
Q 25.390625 66.40625 21.84375 63.234375 
Q 18.3125 60.0625 18.3125 54.390625 
z
" id="DejaVuSans-56"/>
        <path d="M 8.203125 72.90625 
L 55.078125 72.90625 
L 55.078125 68.703125 
L 28.609375 0 
L 18.3125 0 
L 43.21875 64.59375 
L 8.203125 64.59375 
z
" id="DejaVuSans-55"/>
       </defs>
       <use xlink:href="#DejaVuSans-50"/>
       <use x="63.623047" xlink:href="#DejaVuSans-48"/>
       <use x="127.246094" xlink:href="#DejaVuSans-50"/>
       <use x="190.869141" xlink:href="#DejaVuSans-52"/>
       <use x="254.492188" xlink:href="#DejaVuSans-45"/>
       <use x="290.576172" xlink:href="#DejaVuSans-48"/>
       <use x="354.199219" xlink:href="#DejaVuSans-56"/>
       <use x="417.822266" xlink:href="#DejaVuSans-45"/>
       <use x="453.90625" xlink:href="#DejaVuSans-50"/>
       <use x="517.529297" xlink:href="#DejaVuSans-55"/>
      </g>
     </g>
    </g>
    <g id="xtick_2">
     <g id="line2d_3">
      <path clip-path="url(#p967c771367)" d="M 108.173474 255.638708 
L 108.173474 25.44 
" style="fill:none;stroke:#b0b0b0;stroke-linecap:square;stroke-width:0.8;"/>
     </g>
     <g id="line2d_4">
      <g>
       <use style="stroke:#000000;stroke-width:0.8;" x="108.173474" xlink:href="#m4cda52334c" y="255.638708"/>
      </g>
     </g>
     <g id="text_2">
      <!-- 2024-08-29 -->
      <g transform="translate(100.828081 319.848351)rotate(-70)scale(0.1 -0.1)">
       <defs>
        <path d="M 10.984375 1.515625 
L 10.984375 10.5 
Q 14.703125 8.734375 18.5 7.8125 
Q 22.3125 6.890625 25.984375 6.890625 
Q 35.75 6.890625 40.890625 13.453125 
Q 46.046875 20.015625 46.78125 33.40625 
Q 43.953125 29.203125 39.59375 26.953125 
Q 35.25 24.703125 29.984375 24.703125 
Q 19.046875 24.703125 12.671875 31.3125 
Q 6.296875 37.9375 6.296875 49.421875 
Q 6.296875 60.640625 12.9375 67.421875 
Q 19.578125 74.21875 30.609375 74.21875 
Q 43.265625 74.21875 49.921875 64.515625 
Q 56.59375 54.828125 56.59375 36.375 
Q 56.59375 19.140625 48.40625 8.859375 
Q 40.234375 -1.421875 26.421875 -1.421875 
Q 22.703125 -1.421875 18.890625 -0.6875 
Q 15.09375 0.046875 10.984375 1.515625 
z
M 30.609375 32.421875 
Q 37.25 32.421875 41.125 36.953125 
Q 45.015625 41.5 45.015625 49.421875 
Q 45.015625 57.28125 41.125 61.84375 
Q 37.25 66.40625 30.609375 66.40625 
Q 23.96875 66.40625 20.09375 61.84375 
Q 16.21875 57.28125 16.21875 49.421875 
Q 16.21875 41.5 20.09375 36.953125 
Q 23.96875 32.421875 30.609375 32.421875 
z
" id="DejaVuSans-57"/>
       </defs>
       <use xlink:href="#DejaVuSans-50"/>
       <use x="63.623047" xlink:href="#DejaVuSans-48"/>
       <use x="127.246094" xlink:href="#DejaVuSans-50"/>
       <use x="190.869141" xlink:href="#DejaVuSans-52"/>
       <use x="254.492188" xlink:href="#DejaVuSans-45"/>
       <use x="290.576172" xlink:href="#DejaVuSans-48"/>
       <use x="354.199219" xlink:href="#DejaVuSans-56"/>
       <use x="417.822266" xlink:href="#DejaVuSans-45"/>
       <use x="453.90625" xlink:href="#DejaVuSans-50"/>
       <use x="517.529297" xlink:href="#DejaVuSans-57"/>
      </g>
     </g>
    </g>
    <g id="xtick_3">
     <g id="line2d_5">
      <path clip-path="url(#p967c771367)" d="M 171.541964 255.638708 
L 171.541964 25.44 
" style="fill:none;stroke:#b0b0b0;stroke-linecap:square;stroke-width:0.8;"/>
     </g>
     <g id="line2d_6">
      <g>
       <use style="stroke:#000000;stroke-width:0.8;" x="171.541964" xlink:href="#m4cda52334c" y="255.638708"/>
      </g>
     </g>
     <g id="text_3">
      <!-- 2024-08-31 -->
      <g transform="translate(164.196572 319.848351)rotate(-70)scale(0.1 -0.1)">
       <defs>
        <path d="M 40.578125 39.3125 
Q 47.65625 37.796875 51.625 33 
Q 55.609375 28.21875 55.609375 21.1875 
Q 55.609375 10.40625 48.1875 4.484375 
Q 40.765625 -1.421875 27.09375 -1.421875 
Q 22.515625 -1.421875 17.65625 -0.515625 
Q 12.796875 0.390625 7.625 2.203125 
L 7.625 11.71875 
Q 11.71875 9.328125 16.59375 8.109375 
Q 21.484375 6.890625 26.8125 6.890625 
Q 36.078125 6.890625 40.9375 10.546875 
Q 45.796875 14.203125 45.796875 21.1875 
Q 45.796875 27.640625 41.28125 31.265625 
Q 36.765625 34.90625 28.71875 34.90625 
L 20.21875 34.90625 
L 20.21875 43.015625 
L 29.109375 43.015625 
Q 36.375 43.015625 40.234375 45.921875 
Q 44.09375 48.828125 44.09375 54.296875 
Q 44.09375 59.90625 40.109375 62.90625 
Q 36.140625 65.921875 28.71875 65.921875 
Q 24.65625 65.921875 20.015625 65.03125 
Q 15.375 64.15625 9.8125 62.3125 
L 9.8125 71.09375 
Q 15.4375 72.65625 20.34375 73.4375 
Q 25.25 74.21875 29.59375 74.21875 
Q 40.828125 74.21875 47.359375 69.109375 
Q 53.90625 64.015625 53.90625 55.328125 
Q 53.90625 49.265625 50.4375 45.09375 
Q 46.96875 40.921875 40.578125 39.3125 
z
" id="DejaVuSans-51"/>
        <path d="M 12.40625 8.296875 
L 28.515625 8.296875 
L 28.515625 63.921875 
L 10.984375 60.40625 
L 10.984375 69.390625 
L 28.421875 72.90625 
L 38.28125 72.90625 
L 38.28125 8.296875 
L 54.390625 8.296875 
L 54.390625 0 
L 12.40625 0 
z
" id="DejaVuSans-49"/>
       </defs>
       <use xlink:href="#DejaVuSans-50"/>
       <use x="63.623047" xlink:href="#DejaVuSans-48"/>
       <use x="127.246094" xlink:href="#DejaVuSans-50"/>
       <use x="190.869141" xlink:href="#DejaVuSans-52"/>
       <use x="254.492188" xlink:href="#DejaVuSans-45"/>
       <use x="290.576172" xlink:href="#DejaVuSans-48"/>
       <use x="354.199219" xlink:href="#DejaVuSans-56"/>
       <use x="417.822266" xlink:href="#DejaVuSans-45"/>
       <use x="453.90625" xlink:href="#DejaVuSans-51"/>
       <use x="517.529297" xlink:href="#DejaVuSans-49"/>
      </g>
     </g>
    </g>
    <g id="xtick_4">
     <g id="line2d_7">
      <path clip-path="url(#p967c771367)" d="M 203.22621 255.638708 
L 203.22621 25.44 
" style="fill:none;stroke:#b0b0b0;stroke-linecap:square;stroke-width:0.8;"/>
     </g>
     <g id="line2d_8">
      <g>
       <use style="stroke:#000000;stroke-width:0.8;" x="203.22621" xlink:href="#m4cda52334c" y="255.638708"/>
      </g>
     </g>
     <g id="text_4">
      <!-- 2024-09-01 -->
      <g transform="translate(195.880817 319.848351)rotate(-70)scale(0.1 -0.1)">
       <use xlink:href="#DejaVuSans-50"/>
       <use x="63.623047" xlink:href="#DejaVuSans-48"/>
       <use x="127.246094" xlink:href="#DejaVuSans-50"/>
       <use x="190.869141" xlink:href="#DejaVuSans-52"/>
       <use x="254.492188" xlink:href="#DejaVuSans-45"/>
       <use x="290.576172" xlink:href="#DejaVuSans-48"/>
       <use x="354.199219" xlink:href="#DejaVuSans-57"/>
       <use x="417.822266" xlink:href="#DejaVuSans-45"/>
       <use x="453.90625" xlink:href="#DejaVuSans-48"/>
       <use x="517.529297" xlink:href="#DejaVuSans-49"/>
      </g>
     </g>
    </g>
    <g id="xtick_5">
     <g id="line2d_9">
      <path clip-path="url(#p967c771367)" d="M 266.5947 255.638708 
L 266.5947 25.44 
" style="fill:none;stroke:#b0b0b0;stroke-linecap:square;stroke-width:0.8;"/>
     </g>
     <g id="line2d_10">
      <g>
       <use style="stroke:#000000;stroke-width:0.8;" x="266.5947" xlink:href="#m4cda52334c" y="255.638708"/>
      </g>
     </g>
     <g id="text_5">
      <!-- 2024-09-03 -->
      <g transform="translate(259.249307 319.848351)rotate(-70)scale(0.1 -0.1)">
       <use xlink:href="#DejaVuSans-50"/>
       <use x="63.623047" xlink:href="#DejaVuSans-48"/>
       <use x="127.246094" xlink:href="#DejaVuSans-50"/>
       <use x="190.869141" xlink:href="#DejaVuSans-52"/>
       <use x="254.492188" xlink:href="#DejaVuSans-45"/>
       <use x="290.576172" xlink:href="#DejaVuSans-48"/>
       <use x="354.199219" xlink:href="#DejaVuSans-57"/>
       <use x="417.822266" xlink:href="#DejaVuSans-45"/>
       <use x="453.90625" xlink:href="#DejaVuSans-48"/>
       <use x="517.529297" xlink:href="#DejaVuSans-51"/>
      </g>
     </g>
    </g>
    <g id="xtick_6">
     <g id="line2d_11">
      <path clip-path="url(#p967c771367)" d="M 329.963191 255.638708 
L 329.963191 25.44 
" style="fill:none;stroke:#b0b0b0;stroke-linecap:square;stroke-width:0.8;"/>
     </g>
     <g id="line2d_12">
      <g>
       <use style="stroke:#000000;stroke-width:0.8;" x="329.963191" xlink:href="#m4cda52334c" y="255.638708"/>
      </g>
     </g>
     <g id="text_6">
      <!-- 2024-09-05 -->
      <g transform="translate(322.617798 319.848351)rotate(-70)scale(0.1 -0.1)">
       <defs>
        <path d="M 10.796875 72.90625 
L 49.515625 72.90625 
L 49.515625 64.59375 
L 19.828125 64.59375 
L 19.828125 46.734375 
Q 21.96875 47.46875 24.109375 47.828125 
Q 26.265625 48.1875 28.421875 48.1875 
Q 40.625 48.1875 47.75 41.5 
Q 54.890625 34.8125 54.890625 23.390625 
Q 54.890625 11.625 47.5625 5.09375 
Q 40.234375 -1.421875 26.90625 -1.421875 
Q 22.3125 -1.421875 17.546875 -0.640625 
Q 12.796875 0.140625 7.71875 1.703125 
L 7.71875 11.625 
Q 12.109375 9.234375 16.796875 8.0625 
Q 21.484375 6.890625 26.703125 6.890625 
Q 35.15625 6.890625 40.078125 11.328125 
Q 45.015625 15.765625 45.015625 23.390625 
Q 45.015625 31 40.078125 35.4375 
Q 35.15625 39.890625 26.703125 39.890625 
Q 22.75 39.890625 18.8125 39.015625 
Q 14.890625 38.140625 10.796875 36.28125 
z
" id="DejaVuSans-53"/>
       </defs>
       <use xlink:href="#DejaVuSans-50"/>
       <use x="63.623047" xlink:href="#DejaVuSans-48"/>
       <use x="127.246094" xlink:href="#DejaVuSans-50"/>
       <use x="190.869141" xlink:href="#DejaVuSans-52"/>
       <use x="254.492188" xlink:href="#DejaVuSans-45"/>
       <use x="290.576172" xlink:href="#DejaVuSans-48"/>
       <use x="354.199219" xlink:href="#DejaVuSans-57"/>
       <use x="417.822266" xlink:href="#DejaVuSans-45"/>
       <use x="453.90625" xlink:href="#DejaVuSans-48"/>
       <use x="517.529297" xlink:href="#DejaVuSans-53"/>
      </g>
     </g>
    </g>
    <g id="xtick_7">
     <g id="line2d_13">
      <path clip-path="url(#p967c771367)" d="M 393.331681 255.638708 
L 393.331681 25.44 
" style="fill:none;stroke:#b0b0b0;stroke-linecap:square;stroke-width:0.8;"/>
     </g>
     <g id="line2d_14">
      <g>
       <use style="stroke:#000000;stroke-width:0.8;" x="393.331681" xlink:href="#m4cda52334c" y="255.638708"/>
      </g>
     </g>
     <g id="text_7">
      <!-- 2024-09-07 -->
      <g transform="translate(385.986288 319.848351)rotate(-70)scale(0.1 -0.1)">
       <use xlink:href="#DejaVuSans-50"/>
       <use x="63.623047" xlink:href="#DejaVuSans-48"/>
       <use x="127.246094" xlink:href="#DejaVuSans-50"/>
       <use x="190.869141" xlink:href="#DejaVuSans-52"/>
       <use x="254.492188" xlink:href="#DejaVuSans-45"/>
       <use x="290.576172" xlink:href="#DejaVuSans-48"/>
       <use x="354.199219" xlink:href="#DejaVuSans-57"/>
       <use x="417.822266" xlink:href="#DejaVuSans-45"/>
       <use x="453.90625" xlink:href="#DejaVuSans-48"/>
       <use x="517.529297" xlink:href="#DejaVuSans-55"/>
      </g>
     </g>
    </g>
    <g id="text_8">
     <!-- Date -->
     <g transform="translate(235.379219 332.158083)scale(0.1 -0.1)">
      <defs>
       <path d="M 19.671875 64.796875 
L 19.671875 8.109375 
L 31.59375 8.109375 
Q 46.6875 8.109375 53.6875 14.9375 
Q 60.6875 21.78125 60.6875 36.53125 
Q 60.6875 51.171875 53.6875 57.984375 
Q 46.6875 64.796875 31.59375 64.796875 
z
M 9.8125 72.90625 
L 30.078125 72.90625 
Q 51.265625 72.90625 61.171875 64.09375 
Q 71.09375 55.28125 71.09375 36.53125 
Q 71.09375 17.671875 61.125 8.828125 
Q 51.171875 0 30.078125 0 
L 9.8125 0 
z
" id="DejaVuSans-68"/>
       <path d="M 34.28125 27.484375 
Q 23.390625 27.484375 19.1875 25 
Q 14.984375 22.515625 14.984375 16.5 
Q 14.984375 11.71875 18.140625 8.90625 
Q 21.296875 6.109375 26.703125 6.109375 
Q 34.1875 6.109375 38.703125 11.40625 
Q 43.21875 16.703125 43.21875 25.484375 
L 43.21875 27.484375 
z
M 52.203125 31.203125 
L 52.203125 0 
L 43.21875 0 
L 43.21875 8.296875 
Q 40.140625 3.328125 35.546875 0.953125 
Q 30.953125 -1.421875 24.3125 -1.421875 
Q 15.921875 -1.421875 10.953125 3.296875 
Q 6 8.015625 6 15.921875 
Q 6 25.140625 12.171875 29.828125 
Q 18.359375 34.515625 30.609375 34.515625 
L 43.21875 34.515625 
L 43.21875 35.40625 
Q 43.21875 41.609375 39.140625 45 
Q 35.0625 48.390625 27.6875 48.390625 
Q 23 48.390625 18.546875 47.265625 
Q 14.109375 46.140625 10.015625 43.890625 
L 10.015625 52.203125 
Q 14.9375 54.109375 19.578125 55.046875 
Q 24.21875 56 28.609375 56 
Q 40.484375 56 46.34375 49.84375 
Q 52.203125 43.703125 52.203125 31.203125 
z
" id="DejaVuSans-97"/>
       <path d="M 18.3125 70.21875 
L 18.3125 54.6875 
L 36.8125 54.6875 
L 36.8125 47.703125 
L 18.3125 47.703125 
L 18.3125 18.015625 
Q 18.3125 11.328125 20.140625 9.421875 
Q 21.96875 7.515625 27.59375 7.515625 
L 36.8125 7.515625 
L 36.8125 0 
L 27.59375 0 
Q 17.1875 0 13.234375 3.875 
Q 9.28125 7.765625 9.28125 18.015625 
L 9.28125 47.703125 
L 2.6875 47.703125 
L 2.6875 54.6875 
L 9.28125 54.6875 
L 9.28125 70.21875 
z
" id="DejaVuSans-116"/>
       <path d="M 56.203125 29.59375 
L 56.203125 25.203125 
L 14.890625 25.203125 
Q 15.484375 15.921875 20.484375 11.0625 
Q 25.484375 6.203125 34.421875 6.203125 
Q 39.59375 6.203125 44.453125 7.46875 
Q 49.3125 8.734375 54.109375 11.28125 
L 54.109375 2.78125 
Q 49.265625 0.734375 44.1875 -0.34375 
Q 39.109375 -1.421875 33.890625 -1.421875 
Q 20.796875 -1.421875 13.15625 6.1875 
Q 5.515625 13.8125 5.515625 26.8125 
Q 5.515625 40.234375 12.765625 48.109375 
Q 20.015625 56 32.328125 56 
Q 43.359375 56 49.78125 48.890625 
Q 56.203125 41.796875 56.203125 29.59375 
z
M 47.21875 32.234375 
Q 47.125 39.59375 43.09375 43.984375 
Q 39.0625 48.390625 32.421875 48.390625 
Q 24.90625 48.390625 20.390625 44.140625 
Q 15.875 39.890625 15.1875 32.171875 
z
" id="DejaVuSans-101"/>
      </defs>
      <use xlink:href="#DejaVuSans-68"/>
      <use x="77.001953" xlink:href="#DejaVuSans-97"/>
      <use x="138.28125" xlink:href="#DejaVuSans-116"/>
      <use x="177.490234" xlink:href="#DejaVuSans-101"/>
     </g>
    </g>
   </g>
   <g id="matplotlib.axis_2">
    <g id="ytick_1">
     <g id="line2d_15">
      <path clip-path="url(#p967c771367)" d="M 44.66 226.204338 
L 450 226.204338 
" style="fill:none;stroke:#b0b0b0;stroke-linecap:square;stroke-width:0.8;"/>
     </g>
     <g id="line2d_16">
      <defs>
       <path d="M 0 0 
L -3.5 0 
" id="me931f36678" style="stroke:#000000;stroke-width:0.8;"/>
      </defs>
      <g>
       <use style="stroke:#000000;stroke-width:0.8;" x="44.66" xlink:href="#me931f36678" y="226.204338"/>
      </g>
     </g>
     <g id="text_9">
      <!-- 55 -->
      <g transform="translate(24.935 230.003557)scale(0.1 -0.1)">
       <use xlink:href="#DejaVuSans-53"/>
       <use x="63.623047" xlink:href="#DejaVuSans-53"/>
      </g>
     </g>
    </g>
    <g id="ytick_2">
     <g id="line2d_17">
      <path clip-path="url(#p967c771367)" d="M 44.66 196.562475 
L 450 196.562475 
" style="fill:none;stroke:#b0b0b0;stroke-linecap:square;stroke-width:0.8;"/>
     </g>
     <g id="line2d_18">
      <g>
       <use style="stroke:#000000;stroke-width:0.8;" x="44.66" xlink:href="#me931f36678" y="196.562475"/>
      </g>
     </g>
     <g id="text_10">
      <!-- 60 -->
      <g transform="translate(24.935 200.361694)scale(0.1 -0.1)">
       <defs>
        <path d="M 33.015625 40.375 
Q 26.375 40.375 22.484375 35.828125 
Q 18.609375 31.296875 18.609375 23.390625 
Q 18.609375 15.53125 22.484375 10.953125 
Q 26.375 6.390625 33.015625 6.390625 
Q 39.65625 6.390625 43.53125 10.953125 
Q 47.40625 15.53125 47.40625 23.390625 
Q 47.40625 31.296875 43.53125 35.828125 
Q 39.65625 40.375 33.015625 40.375 
z
M 52.59375 71.296875 
L 52.59375 62.3125 
Q 48.875 64.0625 45.09375 64.984375 
Q 41.3125 65.921875 37.59375 65.921875 
Q 27.828125 65.921875 22.671875 59.328125 
Q 17.53125 52.734375 16.796875 39.40625 
Q 19.671875 43.65625 24.015625 45.921875 
Q 28.375 48.1875 33.59375 48.1875 
Q 44.578125 48.1875 50.953125 41.515625 
Q 57.328125 34.859375 57.328125 23.390625 
Q 57.328125 12.15625 50.6875 5.359375 
Q 44.046875 -1.421875 33.015625 -1.421875 
Q 20.359375 -1.421875 13.671875 8.265625 
Q 6.984375 17.96875 6.984375 36.375 
Q 6.984375 53.65625 15.1875 63.9375 
Q 23.390625 74.21875 37.203125 74.21875 
Q 40.921875 74.21875 44.703125 73.484375 
Q 48.484375 72.75 52.59375 71.296875 
z
" id="DejaVuSans-54"/>
       </defs>
       <use xlink:href="#DejaVuSans-54"/>
       <use x="63.623047" xlink:href="#DejaVuSans-48"/>
      </g>
     </g>
    </g>
    <g id="ytick_3">
     <g id="line2d_19">
      <path clip-path="url(#p967c771367)" d="M 44.66 166.920612 
L 450 166.920612 
" style="fill:none;stroke:#b0b0b0;stroke-linecap:square;stroke-width:0.8;"/>
     </g>
     <g id="line2d_20">
      <g>
       <use style="stroke:#000000;stroke-width:0.8;" x="44.66" xlink:href="#me931f36678" y="166.920612"/>
      </g>
     </g>
     <g id="text_11">
      <!-- 65 -->
      <g transform="translate(24.935 170.719831)scale(0.1 -0.1)">
       <use xlink:href="#DejaVuSans-54"/>
       <use x="63.623047" xlink:href="#DejaVuSans-53"/>
      </g>
     </g>
    </g>
    <g id="ytick_4">
     <g id="line2d_21">
      <path clip-path="url(#p967c771367)" d="M 44.66 137.278749 
L 450 137.278749 
" style="fill:none;stroke:#b0b0b0;stroke-linecap:square;stroke-width:0.8;"/>
     </g>
     <g id="line2d_22">
      <g>
       <use style="stroke:#000000;stroke-width:0.8;" x="44.66" xlink:href="#me931f36678" y="137.278749"/>
      </g>
     </g>
     <g id="text_12">
      <!-- 70 -->
      <g transform="translate(24.935 141.077968)scale(0.1 -0.1)">
       <use xlink:href="#DejaVuSans-55"/>
       <use x="63.623047" xlink:href="#DejaVuSans-48"/>
      </g>
     </g>
    </g>
    <g id="ytick_5">
     <g id="line2d_23">
      <path clip-path="url(#p967c771367)" d="M 44.66 107.636886 
L 450 107.636886 
" style="fill:none;stroke:#b0b0b0;stroke-linecap:square;stroke-width:0.8;"/>
     </g>
     <g id="line2d_24">
      <g>
       <use style="stroke:#000000;stroke-width:0.8;" x="44.66" xlink:href="#me931f36678" y="107.636886"/>
      </g>
     </g>
     <g id="text_13">
      <!-- 75 -->
      <g transform="translate(24.935 111.436105)scale(0.1 -0.1)">
       <use xlink:href="#DejaVuSans-55"/>
       <use x="63.623047" xlink:href="#DejaVuSans-53"/>
      </g>
     </g>
    </g>
    <g id="ytick_6">
     <g id="line2d_25">
      <path clip-path="url(#p967c771367)" d="M 44.66 77.995023 
L 450 77.995023 
" style="fill:none;stroke:#b0b0b0;stroke-linecap:square;stroke-width:0.8;"/>
     </g>
     <g id="line2d_26">
      <g>
       <use style="stroke:#000000;stroke-width:0.8;" x="44.66" xlink:href="#me931f36678" y="77.995023"/>
      </g>
     </g>
     <g id="text_14">
      <!-- 80 -->
      <g transform="translate(24.935 81.794242)scale(0.1 -0.1)">
       <use xlink:href="#DejaVuSans-56"/>
       <use x="63.623047" xlink:href="#DejaVuSans-48"/>
      </g>
     </g>
    </g>
    <g id="ytick_7">
     <g id="line2d_27">
      <path clip-path="url(#p967c771367)" d="M 44.66 48.35316 
L 450 48.35316 
" style="fill:none;stroke:#b0b0b0;stroke-linecap:square;stroke-width:0.8;"/>
     </g>
     <g id="line2d_28">
      <g>
       <use style="stroke:#000000;stroke-width:0.8;" x="44.66" xlink:href="#me931f36678" y="48.35316"/>
      </g>
     </g>
     <g id="text_15">
      <!-- 85 -->
      <g transform="translate(24.935 52.152379)scale(0.1 -0.1)">
       <use xlink:href="#DejaVuSans-56"/>
       <use x="63.623047" xlink:href="#DejaVuSans-53"/>
      </g>
     </g>
    </g>
    <g id="text_16">
     <!-- Temperature [F] -->
     <g transform="translate(18.855313 180.575291)rotate(-90)scale(0.1 -0.1)">
      <defs>
       <path d="M -0.296875 72.90625 
L 61.375 72.90625 
L 61.375 64.59375 
L 35.5 64.59375 
L 35.5 0 
L 25.59375 0 
L 25.59375 64.59375 
L -0.296875 64.59375 
z
" id="DejaVuSans-84"/>
       <path d="M 52 44.1875 
Q 55.375 50.25 60.0625 53.125 
Q 64.75 56 71.09375 56 
Q 79.640625 56 84.28125 50.015625 
Q 88.921875 44.046875 88.921875 33.015625 
L 88.921875 0 
L 79.890625 0 
L 79.890625 32.71875 
Q 79.890625 40.578125 77.09375 44.375 
Q 74.3125 48.1875 68.609375 48.1875 
Q 61.625 48.1875 57.5625 43.546875 
Q 53.515625 38.921875 53.515625 30.90625 
L 53.515625 0 
L 44.484375 0 
L 44.484375 32.71875 
Q 44.484375 40.625 41.703125 44.40625 
Q 38.921875 48.1875 33.109375 48.1875 
Q 26.21875 48.1875 22.15625 43.53125 
Q 18.109375 38.875 18.109375 30.90625 
L 18.109375 0 
L 9.078125 0 
L 9.078125 54.6875 
L 18.109375 54.6875 
L 18.109375 46.1875 
Q 21.1875 51.21875 25.484375 53.609375 
Q 29.78125 56 35.6875 56 
Q 41.65625 56 45.828125 52.96875 
Q 50 49.953125 52 44.1875 
z
" id="DejaVuSans-109"/>
       <path d="M 18.109375 8.203125 
L 18.109375 -20.796875 
L 9.078125 -20.796875 
L 9.078125 54.6875 
L 18.109375 54.6875 
L 18.109375 46.390625 
Q 20.953125 51.265625 25.265625 53.625 
Q 29.59375 56 35.59375 56 
Q 45.5625 56 51.78125 48.09375 
Q 58.015625 40.1875 58.015625 27.296875 
Q 58.015625 14.40625 51.78125 6.484375 
Q 45.5625 -1.421875 35.59375 -1.421875 
Q 29.59375 -1.421875 25.265625 0.953125 
Q 20.953125 3.328125 18.109375 8.203125 
z
M 48.6875 27.296875 
Q 48.6875 37.203125 44.609375 42.84375 
Q 40.53125 48.484375 33.40625 48.484375 
Q 26.265625 48.484375 22.1875 42.84375 
Q 18.109375 37.203125 18.109375 27.296875 
Q 18.109375 17.390625 22.1875 11.75 
Q 26.265625 6.109375 33.40625 6.109375 
Q 40.53125 6.109375 44.609375 11.75 
Q 48.6875 17.390625 48.6875 27.296875 
z
" id="DejaVuSans-112"/>
       <path d="M 41.109375 46.296875 
Q 39.59375 47.171875 37.8125 47.578125 
Q 36.03125 48 33.890625 48 
Q 26.265625 48 22.1875 43.046875 
Q 18.109375 38.09375 18.109375 28.8125 
L 18.109375 0 
L 9.078125 0 
L 9.078125 54.6875 
L 18.109375 54.6875 
L 18.109375 46.1875 
Q 20.953125 51.171875 25.484375 53.578125 
Q 30.03125 56 36.53125 56 
Q 37.453125 56 38.578125 55.875 
Q 39.703125 55.765625 41.0625 55.515625 
z
" id="DejaVuSans-114"/>
       <path d="M 8.5 21.578125 
L 8.5 54.6875 
L 17.484375 54.6875 
L 17.484375 21.921875 
Q 17.484375 14.15625 20.5 10.265625 
Q 23.53125 6.390625 29.59375 6.390625 
Q 36.859375 6.390625 41.078125 11.03125 
Q 45.3125 15.671875 45.3125 23.6875 
L 45.3125 54.6875 
L 54.296875 54.6875 
L 54.296875 0 
L 45.3125 0 
L 45.3125 8.40625 
Q 42.046875 3.421875 37.71875 1 
Q 33.40625 -1.421875 27.6875 -1.421875 
Q 18.265625 -1.421875 13.375 4.4375 
Q 8.5 10.296875 8.5 21.578125 
z
M 31.109375 56 
z
" id="DejaVuSans-117"/>
       <path id="DejaVuSans-32"/>
       <path d="M 8.59375 75.984375 
L 29.296875 75.984375 
L 29.296875 69 
L 17.578125 69 
L 17.578125 -6.203125 
L 29.296875 -6.203125 
L 29.296875 -13.1875 
L 8.59375 -13.1875 
z
" id="DejaVuSans-91"/>
       <path d="M 9.8125 72.90625 
L 51.703125 72.90625 
L 51.703125 64.59375 
L 19.671875 64.59375 
L 19.671875 43.109375 
L 48.578125 43.109375 
L 48.578125 34.8125 
L 19.671875 34.8125 
L 19.671875 0 
L 9.8125 0 
z
" id="DejaVuSans-70"/>
       <path d="M 30.421875 75.984375 
L 30.421875 -13.1875 
L 9.71875 -13.1875 
L 9.71875 -6.203125 
L 21.390625 -6.203125 
L 21.390625 69 
L 9.71875 69 
L 9.71875 75.984375 
z
" id="DejaVuSans-93"/>
      </defs>
      <use xlink:href="#DejaVuSans-84"/>
      <use x="44.083984" xlink:href="#DejaVuSans-101"/>
      <use x="105.607422" xlink:href="#DejaVuSans-109"/>
      <use x="203.019531" xlink:href="#DejaVuSans-112"/>
      <use x="266.496094" xlink:href="#DejaVuSans-101"/>
      <use x="328.019531" xlink:href="#DejaVuSans-114"/>
      <use x="369.132812" xlink:href="#DejaVuSans-97"/>
      <use x="430.412109" xlink:href="#DejaVuSans-116"/>
      <use x="469.621094" xlink:href="#DejaVuSans-117"/>
      <use x="533" xlink:href="#DejaVuSans-114"/>
      <use x="571.863281" xlink:href="#DejaVuSans-101"/>
      <use x="633.386719" xlink:href="#DejaVuSans-32"/>
      <use x="665.173828" xlink:href="#DejaVuSans-91"/>
      <use x="704.1875" xlink:href="#DejaVuSans-70"/>
      <use x="761.707031" xlink:href="#DejaVuSans-93"/>
     </g>
    </g>
   </g>
   <g id="line2d_29">
    <path clip-path="url(#p967c771367)" d="M 63.084545 143.799959 
L 63.132903 143.799959 
L 63.247321 143.207122 
L 63.36157 143.207122 
L 63.384427 143.799959 
L 63.430533 142.614284 
L 63.453278 143.207122 
L 63.476051 143.207122 
L 63.591183 142.614284 
L 63.63782 142.614284 
L 63.707589 142.021447 
L 63.73039 142.614284 
L 63.800958 142.614284 
L 63.846717 143.207122 
L 63.869652 142.614284 
L 63.939978 143.207122 
L 63.985831 142.021447 
L 64.03294 142.021447 
L 64.126292 140.835773 
L 64.14901 142.021447 
L 64.172226 140.242935 
L 64.218368 140.835773 
L 64.333715 140.242935 
L 64.356636 140.242935 
L 64.473809 139.650098 
L 64.565564 140.835773 
L 64.68306 139.650098 
L 64.821602 140.835773 
L 64.844445 140.835773 
L 64.867216 140.242935 
L 64.93773 140.835773 
L 64.961297 140.835773 
L 65.124814 139.057261 
L 65.195101 140.242935 
L 65.2187 139.057261 
L 65.313112 139.057261 
L 65.33703 138.464424 
L 65.382926 139.057261 
L 65.406088 139.650098 
L 65.492531 139.057261 
L 65.538157 139.057261 
L 65.585375 138.464424 
L 65.632818 139.057261 
L 65.75087 140.835773 
L 65.773678 140.242935 
L 65.798264 140.242935 
L 65.921065 142.021447 
L 66.059626 140.242935 
L 66.177048 140.835773 
L 66.246267 140.242935 
L 66.270173 140.835773 
L 66.317612 140.242935 
L 66.386626 142.021447 
L 66.412895 142.021447 
L 66.504172 140.242935 
L 66.526915 140.835773 
L 66.550315 140.835773 
L 66.643169 143.207122 
L 66.667673 142.021447 
L 66.690409 140.835773 
L 66.713178 143.207122 
L 66.736885 144.392796 
L 66.783918 142.021447 
L 66.806623 142.614284 
L 66.880091 140.242935 
L 66.903244 143.207122 
L 66.926 142.021447 
L 66.948686 144.392796 
L 67.021075 142.614284 
L 67.161463 144.392796 
L 67.278678 144.985633 
L 67.488493 144.985633 
L 67.58138 145.578471 
L 67.651701 144.985633 
L 67.674525 145.578471 
L 67.698063 145.578471 
L 67.743747 144.392796 
L 67.790765 145.578471 
L 67.815503 145.578471 
L 67.885039 143.207122 
L 67.908986 144.985633 
L 67.932945 146.764145 
L 68.026132 145.578471 
L 68.04974 145.578471 
L 68.190483 143.799959 
L 68.307575 144.392796 
L 68.330437 144.392796 
L 68.399977 144.985633 
L 68.422988 143.207122 
L 68.493428 145.578471 
L 68.540648 144.392796 
L 68.655553 145.578471 
L 68.678788 144.392796 
L 68.771367 144.985633 
L 68.841211 144.985633 
L 68.960039 145.578471 
L 69.102276 144.392796 
L 69.240262 145.578471 
L 69.541845 145.578471 
L 69.658439 146.764145 
L 70.058376 146.764145 
L 70.153064 147.356982 
L 70.268607 146.764145 
L 70.384774 147.356982 
L 70.755787 147.356982 
L 70.778888 147.94982 
L 70.801758 147.356982 
L 129.355455 147.94982 
L 129.379106 147.356982 
L 129.656206 145.578471 
L 129.776109 147.356982 
L 129.799564 145.578471 
L 129.855894 147.356982 
L 130.037542 143.207122 
L 130.114013 144.985633 
L 130.289265 146.764145 
L 130.363945 146.764145 
L 130.386688 147.356982 
L 130.410494 145.578471 
L 130.43434 145.578471 
L 130.457767 146.764145 
L 130.481582 144.985633 
L 130.506805 144.985633 
L 130.580974 140.242935 
L 130.623866 143.207122 
L 130.745014 145.578471 
L 130.771227 144.392796 
L 130.841473 145.578471 
L 130.864247 145.578471 
L 130.899047 146.764145 
L 130.945561 145.578471 
L 130.973899 144.985633 
L 131.048069 145.578471 
L 131.070827 145.578471 
L 131.189149 139.650098 
L 131.304555 145.578471 
L 131.396963 139.057261 
L 131.467121 140.242935 
L 131.558966 144.985633 
L 131.616417 146.764145 
L 131.639132 144.985633 
L 131.771357 144.392796 
L 131.794915 144.392796 
L 131.818999 143.799959 
L 131.841855 144.392796 
L 131.935679 146.764145 
L 131.958766 145.578471 
L 132.010121 145.578471 
L 132.157712 139.650098 
L 132.313321 146.764145 
L 132.38499 144.392796 
L 132.43041 145.578471 
L 132.453528 145.578471 
L 132.477596 146.764145 
L 132.500281 144.985633 
L 132.523894 145.578471 
L 132.617387 145.578471 
L 132.641051 144.392796 
L 132.690225 145.578471 
L 132.713996 147.356982 
L 132.760546 144.985633 
L 132.783617 144.985633 
L 132.806295 144.985633 
L 132.83025 145.578471 
L 132.854991 142.021447 
L 132.926997 142.614284 
L 132.974848 144.985633 
L 133.044925 143.799959 
L 133.160967 144.985633 
L 133.281541 144.392796 
L 133.350929 143.799959 
L 133.396362 144.985633 
L 133.419375 144.985633 
L 133.442065 144.392796 
L 133.512059 144.985633 
L 133.650882 146.764145 
L 133.673603 145.578471 
L 133.74234 146.764145 
L 133.857954 147.356982 
L 134.160068 147.356982 
L 134.230114 147.94982 
L 134.253638 147.356982 
L 134.486819 147.356982 
L 134.509748 144.985633 
L 134.60172 146.764145 
L 134.625163 146.764145 
L 134.744905 147.356982 
L 134.791132 147.356982 
L 134.814305 146.764145 
L 134.882768 147.356982 
L 134.905934 147.356982 
L 135.022607 147.94982 
L 135.518654 147.94982 
L 135.543386 148.542657 
L 135.59578 147.356982 
L 135.621514 147.94982 
L 135.741791 147.356982 
L 135.933678 147.356982 
L 136.050686 146.764145 
L 136.401006 146.764145 
L 136.423747 147.356982 
L 136.49297 146.764145 
L 136.680394 146.764145 
L 136.751562 147.356982 
L 136.774288 146.764145 
L 136.934278 146.764145 
L 137.003238 147.356982 
L 137.026075 146.764145 
L 137.073345 146.764145 
L 137.189046 147.356982 
L 137.21186 147.356982 
L 137.326078 146.764145 
L 137.348752 146.764145 
L 137.416941 147.356982 
L 137.440434 146.764145 
L 137.744779 146.764145 
L 229.291195 130.164702 
L 229.454677 131.350376 
L 229.477593 130.164702 
L 229.525017 131.350376 
L 229.599627 131.350376 
L 229.62326 130.164702 
L 229.698001 131.350376 
L 229.883982 131.350376 
L 229.930927 131.943214 
L 229.977338 131.350376 
L 230.09787 131.350376 
L 230.223 131.943214 
L 230.246106 131.350376 
L 230.292604 131.943214 
L 230.339592 131.943214 
L 230.363026 131.350376 
L 230.431398 131.943214 
L 230.500781 131.943214 
L 230.626752 131.350376 
L 230.754504 131.943214 
L 231.172425 131.943214 
L 231.286812 132.536051 
L 231.356456 131.943214 
L 231.380271 132.536051 
L 231.403541 132.536051 
L 231.522059 131.943214 
L 231.571221 131.943214 
L 231.685458 132.536051 
L 232.106092 132.536051 
L 232.129047 133.128888 
L 232.198069 132.536051 
L 232.27061 132.536051 
L 232.29601 133.128888 
L 232.375926 132.536051 
L 232.566118 132.536051 
L 232.684814 133.128888 
L 233.649686 133.128888 
L 233.673549 133.721726 
L 233.720951 133.128888 
L 233.932234 133.128888 
L 234.028221 133.721726 
L 234.146165 133.128888 
L 234.262257 133.721726 
L 234.572497 133.721726 
L 234.682145 134.314563 
L 234.797057 133.721726 
L 235.4524 133.721726 
L 235.475072 133.128888 
L 235.545753 133.721726 
L 235.687638 133.721726 
L 235.804408 133.128888 
L 235.850693 133.128888 
L 235.967169 133.721726 
L 236.294928 133.721726 
L 236.317628 134.314563 
L 236.38564 133.721726 
L 236.800952 133.721726 
L 236.824333 133.128888 
L 236.894418 133.721726 
L 236.93976 133.721726 
L 236.970264 133.128888 
L 237.04397 133.721726 
L 237.22856 133.721726 
L 237.251978 133.128888 
L 237.322151 133.721726 
L 238.047099 133.721726 
L 238.163842 134.314563 
L 238.18699 134.314563 
L 238.283271 133.721726 
L 238.385356 134.314563 
L 238.502694 133.721726 
L 238.595307 134.314563 
L 238.711787 133.721726 
L 238.805449 133.721726 
L 238.91948 134.314563 
L 239.305759 134.314563 
L 239.32873 134.9074 
L 239.397104 134.314563 
L 239.658955 134.314563 
L 239.729944 134.9074 
L 239.75399 134.314563 
L 239.800636 134.314563 
L 239.870362 134.9074 
L 239.893097 134.314563 
L 239.942877 134.314563 
L 240.063397 134.9074 
L 240.087994 134.314563 
L 240.164022 134.9074 
L 240.864751 134.9074 
L 240.984217 136.093075 
L 241.102393 134.9074 
L 241.341198 134.9074 
L 241.387189 136.093075 
L 241.435324 134.9074 
L 241.628011 134.9074 
L 241.721733 136.093075 
L 241.836382 134.9074 
L 241.953544 136.093075 
L 242.074007 134.9074 
L 242.096804 134.9074 
L 242.212768 136.093075 
L 242.330236 134.9074 
L 242.447288 136.093075 
L 243.055427 136.093075 
L 243.127491 136.685912 
L 243.150585 136.093075 
L 243.271914 136.093075 
L 243.295762 136.685912 
L 243.318828 136.093075 
L 243.572251 136.093075 
L 243.666493 136.685912 
L 243.783939 136.093075 
L 243.90168 136.685912 
L 244.628638 136.685912 
L 244.697932 137.278749 
L 244.723074 136.685912 
L 244.745858 136.685912 
L 244.815721 137.278749 
L 244.838875 136.685912 
L 244.861599 136.685912 
L 244.977297 137.278749 
L 245.417987 137.278749 
L 245.512505 136.685912 
L 245.628472 137.278749 
L 246.564187 137.278749 
L 246.586998 137.871586 
L 246.663134 137.278749 
L 247.460832 137.278749 
L 247.558459 137.871586 
L 247.6293 137.278749 
L 247.660807 137.871586 
L 248.375883 137.871586 
L 248.398662 137.278749 
L 248.470156 137.871586 
L 248.565452 137.871586 
L 248.63506 137.278749 
L 248.658053 137.871586 
L 248.753709 137.871586 
L 248.872128 137.278749 
L 248.964875 137.278749 
L 248.987567 137.871586 
L 249.058553 137.278749 
L 249.105124 137.278749 
L 249.201315 137.871586 
L 249.31848 137.278749 
L 249.479939 137.278749 
L 249.577606 137.871586 
L 249.69592 137.278749 
L 250.413822 137.278749 
L 250.530807 136.685912 
L 250.71955 136.685912 
L 250.766887 136.093075 
L 250.814231 136.685912 
L 250.93286 136.685912 
L 250.985441 136.093075 
L 251.033138 136.685912 
L 251.056081 136.685912 
L 251.080312 136.093075 
L 251.14981 136.685912 
L 251.789041 136.685912 
L 251.906323 136.093075 
L 251.959698 136.093075 
L 251.982628 136.685912 
L 252.051213 136.093075 
L 252.123133 136.093075 
L 252.240296 134.9074 
L 252.452824 134.9074 
L 252.498751 134.314563 
L 252.546035 134.9074 
L 253.081982 134.9074 
L 253.151231 134.314563 
L 253.174061 134.9074 
L 253.291231 134.9074 
L 253.406724 134.314563 
L 253.453333 134.314563 
L 253.567898 133.721726 
L 253.592076 133.721726 
L 253.707578 134.314563 
L 253.752978 134.314563 
L 253.868758 133.721726 
L 253.939188 134.314563 
L 253.968323 133.721726 
L 254.113564 133.721726 
L 254.230482 134.314563 
L 254.254762 134.314563 
L 254.350201 133.721726 
L 254.470387 134.314563 
L 254.544953 134.314563 
L 254.567739 133.721726 
L 254.637283 134.314563 
L 254.945506 134.314563 
L 255.039229 133.721726 
L 255.086221 134.314563 
L 255.133129 133.721726 
L 255.182635 133.721726 
L 255.30235 134.314563 
L 255.399313 133.721726 
L 255.470541 134.314563 
L 255.496439 133.721726 
L 255.61612 133.721726 
L 255.733772 134.314563 
L 255.852493 133.721726 
L 255.995587 133.721726 
L 256.021351 134.314563 
L 256.099325 133.721726 
L 256.173127 133.721726 
L 256.196473 134.314563 
L 256.268223 133.721726 
L 256.425582 133.721726 
L 256.448308 132.536051 
L 256.540817 133.128888 
L 256.563629 133.128888 
L 256.67981 133.721726 
L 256.74963 133.721726 
L 256.795531 134.314563 
L 256.842286 133.721726 
L 256.957674 133.128888 
L 257.004484 133.128888 
L 257.027256 133.721726 
L 257.097769 133.128888 
L 257.121842 133.128888 
L 257.240555 133.721726 
L 257.479157 133.721726 
L 257.501985 134.314563 
L 257.549358 133.721726 
L 257.620761 133.128888 
L 257.643464 133.721726 
L 258.021109 133.721726 
L 258.136615 134.314563 
L 258.160903 134.314563 
L 258.184699 133.721726 
L 258.253285 134.314563 
L 258.508958 134.314563 
L 258.60257 133.721726 
L 258.756909 134.314563 
L 258.990577 134.314563 
L 259.058796 134.9074 
L 259.081823 134.314563 
L 259.245926 134.314563 
L 259.270116 133.721726 
L 259.33898 134.314563 
L 259.598499 134.314563 
L 259.622009 134.9074 
L 259.690711 134.314563 
L 259.984608 134.314563 
L 260.079036 134.9074 
L 260.173068 134.314563 
L 260.291381 134.9074 
L 260.645799 134.9074 
L 260.692375 134.314563 
L 260.741572 134.9074 
L 260.810713 134.9074 
L 260.834934 134.314563 
L 260.904632 134.9074 
L 261.52474 134.9074 
L 261.548402 136.093075 
L 261.628097 134.9074 
L 261.651742 134.9074 
L 261.781855 136.093075 
L 261.804677 136.093075 
L 261.922594 134.9074 
L 262.038434 136.093075 
L 262.163661 136.093075 
L 262.258835 134.9074 
L 262.41876 136.093075 
L 262.961764 136.093075 
L 263.046275 136.685912 
L 263.069534 136.093075 
L 263.093443 136.093075 
L 263.212385 136.685912 
L 263.259772 136.685912 
L 263.329248 136.093075 
L 263.358895 136.685912 
L 264.019684 136.685912 
L 264.042387 137.278749 
L 264.111536 136.685912 
L 264.486966 136.685912 
L 264.603044 137.278749 
L 264.67367 136.685912 
L 264.697545 137.278749 
L 264.744544 137.278749 
L 264.840315 136.685912 
L 264.9638 137.278749 
L 266.242296 137.278749 
L 266.267754 137.871586 
L 266.342645 137.278749 
L 266.391007 137.278749 
L 266.438464 137.871586 
L 266.486691 137.278749 
L 266.512762 137.278749 
L 266.608772 137.871586 
L 266.632427 137.278749 
L 266.703668 137.871586 
L 266.936479 137.871586 
L 266.96075 137.278749 
L 267.030806 137.871586 
L 267.099723 137.871586 
L 267.122446 137.278749 
L 267.191738 137.871586 
L 267.357235 137.871586 
L 267.381844 138.464424 
L 267.451589 137.871586 
L 268.069277 137.871586 
L 268.093071 137.278749 
L 268.166121 137.871586 
L 269.210118 137.871586 
L 269.233545 138.464424 
L 269.306401 137.871586 
L 269.643092 137.871586 
L 269.721828 138.464424 
L 269.745395 137.871586 
L 269.862513 137.871586 
L 269.98135 138.464424 
L 270.245767 138.464424 
L 270.268887 137.871586 
L 270.340474 138.464424 
L 270.62468 138.464424 
L 270.649958 137.871586 
L 270.719107 138.464424 
L 271.793311 138.464424 
L 271.818841 139.057261 
L 271.88757 138.464424 
L 271.958077 138.464424 
L 271.982224 139.057261 
L 272.056041 138.464424 
L 272.194074 138.464424 
L 272.285638 139.057261 
L 272.38456 138.464424 
L 272.479738 139.057261 
L 272.502406 138.464424 
L 272.57209 139.057261 
L 272.594918 139.057261 
L 272.711085 138.464424 
L 272.829467 139.057261 
L 272.924642 139.057261 
L 273.018382 138.464424 
L 273.112132 139.057261 
L 273.13489 138.464424 
L 273.206613 139.057261 
L 273.370553 139.057261 
L 273.395032 138.464424 
L 273.463956 139.057261 
L 275.127683 139.057261 
L 275.151453 139.650098 
L 275.221064 139.057261 
L 275.33819 139.057261 
L 275.361034 139.650098 
L 275.431624 139.057261 
L 275.477192 139.057261 
L 275.592096 139.650098 
L 275.711657 139.057261 
L 275.736468 139.057261 
L 275.856106 139.650098 
L 275.88063 139.650098 
L 275.973167 139.057261 
L 276.089828 139.650098 
L 276.695982 139.650098 
L 276.71907 140.242935 
L 276.788501 139.650098 
L 277.044875 139.650098 
L 277.118392 140.242935 
L 277.144329 139.650098 
L 277.262169 139.650098 
L 277.386149 140.242935 
L 277.457527 139.650098 
L 277.48108 140.242935 
L 277.504734 140.242935 
L 277.605862 139.650098 
L 277.62967 140.242935 
L 277.705691 139.650098 
L 277.775254 139.650098 
L 277.799987 140.242935 
L 277.912055 139.650098 
L 279.178619 139.650098 
L 279.25487 139.057261 
L 279.279943 139.650098 
L 279.348113 139.650098 
L 279.450778 139.057261 
L 279.496297 139.650098 
L 279.541757 139.057261 
L 280.17046 139.057261 
L 280.274414 138.464424 
L 280.397182 139.057261 
L 280.543939 137.871586 
L 280.568327 138.464424 
L 280.640057 137.871586 
L 280.780831 137.871586 
L 280.922355 137.278749 
L 281.019266 137.278749 
L 281.049217 136.685912 
L 281.117645 137.278749 
L 281.190096 137.278749 
L 281.264694 137.871586 
L 281.2874 137.278749 
L 281.339206 137.278749 
L 281.430586 137.871586 
L 281.568784 136.685912 
L 281.614376 136.685912 
L 281.728849 137.278749 
L 281.820245 136.685912 
L 281.84316 137.278749 
L 281.911497 136.685912 
L 281.98034 136.685912 
L 282.003531 137.278749 
L 282.079479 136.685912 
L 282.102251 136.685912 
L 282.217691 137.278749 
L 282.240599 136.685912 
L 282.309103 137.278749 
L 282.61516 137.278749 
L 282.706174 136.685912 
L 282.827407 137.278749 
L 282.948539 137.278749 
L 282.971375 136.685912 
L 283.039558 137.278749 
L 283.179599 137.278749 
L 283.29504 136.685912 
L 283.413919 137.278749 
L 283.527972 136.685912 
L 283.875749 136.685912 
L 283.959937 137.278749 
L 284.083067 136.685912 
L 284.701144 136.685912 
L 284.785342 136.093075 
L 285.050617 136.093075 
L 285.073697 136.685912 
L 285.111944 136.093075 
L 285.7229 136.093075 
L 285.804787 136.685912 
L 285.830843 136.093075 
L 286.138344 136.093075 
L 286.174173 136.685912 
L 286.200846 134.9074 
L 286.283476 136.093075 
L 286.341 136.093075 
L 286.475498 134.9074 
L 286.964591 134.9074 
L 287.174859 133.721726 
L 287.282731 134.314563 
L 287.961225 134.314563 
L 287.991167 133.721726 
L 288.047894 134.314563 
L 288.170317 134.314563 
L 288.297636 133.721726 
L 288.472529 133.721726 
L 288.495434 134.314563 
L 288.571881 133.721726 
L 288.620706 133.721726 
L 288.721668 133.128888 
L 288.796826 133.721726 
L 288.823619 133.128888 
L 288.986793 133.128888 
L 289.112914 133.721726 
L 289.214723 133.721726 
L 289.23843 134.314563 
L 289.315143 133.721726 
L 289.4614 133.721726 
L 289.588371 133.128888 
L 289.652294 133.721726 
L 289.688938 133.128888 
L 289.717816 133.128888 
L 289.813782 132.536051 
L 289.837369 133.128888 
L 289.913777 132.536051 
L 289.988379 132.536051 
L 290.189541 131.943214 
L 290.302268 132.536051 
L 290.423029 131.943214 
L 290.446568 131.943214 
L 290.472934 132.536051 
L 290.726752 132.536051 
L 290.757874 133.128888 
L 290.823983 132.536051 
L 290.956984 132.536051 
L 291.079124 133.128888 
L 291.53352 133.128888 
L 291.663808 132.536051 
L 291.790742 132.536051 
L 291.89761 133.128888 
L 292.034146 132.536051 
L 292.085184 132.536051 
L 292.220188 133.128888 
L 292.371293 133.128888 
L 292.408424 133.721726 
L 292.462609 133.128888 
L 292.486924 133.128888 
L 292.561865 133.721726 
L 292.588259 133.128888 
L 292.656491 133.128888 
L 292.789271 133.721726 
L 292.923715 133.721726 
L 293.030677 134.314563 
L 293.099855 133.721726 
L 293.139669 134.9074 
L 293.198155 134.314563 
L 293.375033 134.314563 
L 293.502398 134.9074 
L 293.529583 134.314563 
L 293.607993 134.9074 
L 293.81027 134.9074 
L 293.936594 136.093075 
L 294.362314 136.093075 
L 294.490771 136.685912 
L 294.517918 136.093075 
L 294.597516 136.685912 
L 294.9896 136.685912 
L 295.08785 137.278749 
L 295.190532 136.685912 
L 295.23747 137.278749 
L 295.312112 136.685912 
L 295.335883 137.278749 
L 295.390118 137.278749 
L 295.440013 136.685912 
L 295.496621 137.278749 
L 295.993763 137.278749 
L 296.112926 137.871586 
L 296.699619 137.871586 
L 296.768785 138.464424 
L 296.798824 137.871586 
L 297.091945 137.871586 
L 297.206627 138.464424 
L 297.325588 137.871586 
L 297.373057 137.871586 
L 297.490356 138.464424 
L 297.559286 137.871586 
L 297.582208 138.464424 
L 298.295939 138.464424 
L 298.388091 139.057261 
L 298.501898 138.464424 
L 298.524607 138.464424 
L 298.616768 139.057261 
L 298.639482 138.464424 
L 298.709737 139.057261 
L 299.290332 139.057261 
L 299.406821 139.650098 
L 299.452953 139.650098 
L 299.476361 139.057261 
L 299.544517 139.650098 
L 299.703762 139.650098 
L 299.795318 140.242935 
L 299.864875 139.650098 
L 299.887605 140.242935 
L 300.094189 140.242935 
L 300.191104 140.835773 
L 300.308155 140.242935 
L 300.878736 140.242935 
L 300.902213 139.650098 
L 300.969692 140.242935 
L 301.222374 140.242935 
L 301.245974 140.835773 
L 301.323717 140.242935 
L 301.535021 140.242935 
L 301.558908 140.835773 
L 301.629271 140.242935 
L 302.280639 140.242935 
L 302.395021 140.835773 
L 302.441994 140.835773 
L 302.558647 140.242935 
L 302.605729 140.242935 
L 302.725024 140.835773 
L 303.930749 140.835773 
L 304.044884 142.021447 
L 304.161649 140.835773 
L 304.208431 140.835773 
L 304.322992 142.021447 
L 304.345688 142.021447 
L 304.413665 140.835773 
L 304.437102 142.021447 
L 305.46501 142.021447 
L 305.584515 142.614284 
L 305.703238 142.021447 
L 306.003487 142.021447 
L 306.048873 142.614284 
L 306.094543 142.021447 
L 306.257303 142.021447 
L 306.280101 142.614284 
L 306.350197 142.021447 
L 306.607318 142.021447 
L 306.629965 142.614284 
L 306.69846 142.021447 
L 306.790618 142.021447 
L 306.813405 142.614284 
L 306.881723 142.021447 
L 306.930006 142.021447 
L 307.045118 142.614284 
L 307.093579 142.614284 
L 307.208566 142.021447 
L 307.301925 142.614284 
L 307.324834 142.021447 
L 307.394988 142.614284 
L 307.581023 142.614284 
L 307.604447 142.021447 
L 307.673734 142.614284 
L 308.045084 142.614284 
L 308.160934 143.207122 
L 308.278438 142.614284 
L 308.845453 142.614284 
L 308.915602 143.207122 
L 308.939564 142.614284 
L 309.034703 142.614284 
L 309.148593 143.207122 
L 309.267296 142.614284 
L 309.290031 143.207122 
L 309.360827 142.614284 
L 310.659146 142.614284 
L 310.729633 142.021447 
L 310.752503 142.614284 
L 310.778315 142.614284 
L 310.802683 142.021447 
L 310.870787 142.614284 
L 311.032409 142.614284 
L 311.125858 142.021447 
L 311.197035 142.614284 
L 311.220767 142.021447 
L 311.314347 142.021447 
L 311.361578 142.614284 
L 311.407803 142.021447 
L 311.453736 142.021447 
L 311.476449 142.614284 
L 311.548088 142.021447 
L 311.87929 142.021447 
L 311.998004 140.835773 
L 312.316844 140.835773 
L 312.340498 140.242935 
L 312.412262 140.835773 
L 312.48207 140.835773 
L 312.597583 140.242935 
L 312.810302 140.242935 
L 312.933866 139.650098 
L 312.959644 139.650098 
L 312.983141 140.242935 
L 313.051951 139.650098 
L 313.21388 139.650098 
L 313.332993 139.057261 
L 313.525324 139.057261 
L 313.646104 138.464424 
L 313.740003 138.464424 
L 313.868658 137.871586 
L 314.173614 137.871586 
L 314.196448 137.278749 
L 314.267503 137.871586 
L 314.351355 137.871586 
L 314.457582 137.278749 
L 314.608814 137.278749 
L 314.660969 136.685912 
L 314.684545 137.278749 
L 314.775701 137.871586 
L 314.893369 137.278749 
L 314.939321 137.278749 
L 314.962008 136.685912 
L 315.011993 137.278749 
L 315.061656 136.685912 
L 315.141151 137.871586 
L 315.18815 137.871586 
L 315.210804 138.464424 
L 315.237143 137.871586 
L 315.338474 137.871586 
L 315.465948 137.278749 
L 315.489573 137.278749 
L 315.512283 136.685912 
L 315.534962 137.871586 
L 315.654976 138.464424 
L 315.70728 138.464424 
L 315.778524 137.871586 
L 315.801236 138.464424 
L 315.871552 138.464424 
L 315.991483 137.871586 
L 316.038607 137.871586 
L 316.163759 138.464424 
L 316.257575 138.464424 
L 316.373644 137.871586 
L 316.444557 137.871586 
L 316.49316 137.278749 
L 316.571227 138.464424 
L 316.693423 137.871586 
L 316.716652 137.871586 
L 316.815382 133.128888 
L 316.839317 130.164702 
L 316.887702 134.314563 
L 316.910697 133.721726 
L 317.168856 137.871586 
L 317.266064 137.871586 
L 317.383812 138.464424 
L 317.502456 137.871586 
L 317.860492 137.871586 
L 317.884038 138.464424 
L 317.953118 137.871586 
L 318.070503 137.871586 
L 318.095699 138.464424 
L 318.144211 137.871586 
L 318.215037 136.685912 
L 318.239065 137.278749 
L 318.332064 137.871586 
L 318.449238 137.278749 
L 318.494671 137.278749 
L 318.588549 136.685912 
L 318.684981 136.685912 
L 318.738637 136.093075 
L 318.76219 137.278749 
L 318.83133 137.278749 
L 318.855256 137.871586 
L 318.906419 136.685912 
L 319.005963 136.685912 
L 319.054027 134.314563 
L 319.07815 134.9074 
L 319.163347 136.093075 
L 319.45255 134.9074 
L 319.504369 136.093075 
L 319.58724 136.093075 
L 319.708627 129.571865 
L 319.786333 131.350376 
L 319.973397 134.9074 
L 320.119706 134.9074 
L 320.188501 134.314563 
L 320.22384 134.9074 
L 320.255998 134.9074 
L 320.377596 136.093075 
L 320.434999 134.9074 
L 320.487716 136.093075 
L 320.605936 134.314563 
L 320.681908 136.093075 
L 320.751735 136.093075 
L 320.894695 137.278749 
L 320.956466 136.093075 
L 320.983758 137.278749 
L 321.072767 137.871586 
L 321.188953 136.685912 
L 321.244449 137.871586 
L 321.267957 136.685912 
L 321.447778 134.314563 
L 321.480714 134.9074 
L 321.540924 134.314563 
L 321.563704 133.721726 
L 321.594036 134.9074 
L 321.630709 134.9074 
L 321.70804 133.721726 
L 321.841131 136.093075 
L 321.93318 136.093075 
L 322.023293 134.9074 
L 322.144903 136.093075 
L 322.28062 134.9074 
L 322.404776 136.093075 
L 322.505873 136.093075 
L 322.553936 134.9074 
L 322.605797 136.093075 
L 322.710266 136.093075 
L 322.822913 136.685912 
L 323.310608 136.685912 
L 323.34617 136.093075 
L 323.420168 136.685912 
L 323.473725 136.685912 
L 323.594752 137.278749 
L 323.71589 136.685912 
L 323.763903 136.685912 
L 323.899419 137.278749 
L 324.023667 137.278749 
L 324.046794 137.871586 
L 324.133417 137.278749 
L 324.204961 136.685912 
L 324.229636 137.278749 
L 324.287962 137.278749 
L 324.460498 136.685912 
L 324.60486 136.685912 
L 324.711565 137.278749 
L 325.071381 137.278749 
L 325.196649 137.871586 
L 325.374536 137.871586 
L 325.405078 138.464424 
L 325.480585 137.871586 
L 325.510677 137.871586 
L 325.635055 138.464424 
L 325.659461 137.871586 
L 325.73441 138.464424 
L 325.922701 138.464424 
L 326.044657 137.871586 
L 326.068318 137.871586 
L 326.117281 138.464424 
L 326.164717 137.871586 
L 326.235221 137.871586 
L 326.370405 138.464424 
L 327.127331 138.464424 
L 327.254814 137.871586 
L 327.782502 137.871586 
L 327.805239 138.464424 
L 327.878402 137.871586 
L 328.237952 137.871586 
L 328.357004 138.464424 
L 328.440575 138.464424 
L 328.46325 137.871586 
L 328.544795 138.464424 
L 328.643781 138.464424 
L 328.669854 137.871586 
L 328.739288 138.464424 
L 329.041201 138.464424 
L 329.064651 139.057261 
L 329.135074 138.464424 
L 329.435144 138.464424 
L 329.555722 137.871586 
L 329.627259 137.871586 
L 329.745392 138.464424 
L 329.863766 137.871586 
L 329.886895 137.871586 
L 330.01624 138.464424 
L 330.138498 137.871586 
L 330.28327 137.871586 
L 330.4051 138.464424 
L 330.481482 137.871586 
L 330.504744 138.464424 
L 330.529202 138.464424 
L 330.62431 137.871586 
L 330.743272 138.464424 
L 330.821496 138.464424 
L 330.847339 137.871586 
L 330.916866 138.464424 
L 330.988089 138.464424 
L 331.011895 137.871586 
L 331.081214 138.464424 
L 331.434661 138.464424 
L 331.528453 139.057261 
L 331.622248 138.464424 
L 331.715224 139.057261 
L 331.811978 138.464424 
L 331.85817 139.057261 
L 331.903906 138.464424 
L 331.927474 138.464424 
L 332.054637 139.057261 
L 332.146492 138.464424 
L 332.264767 139.057261 
L 332.287525 139.057261 
L 332.310281 138.464424 
L 332.378511 139.057261 
L 333.106025 139.057261 
L 333.220423 139.650098 
L 333.266705 139.650098 
L 333.383928 139.057261 
L 333.501205 139.650098 
L 334.711451 139.650098 
L 334.734212 140.242935 
L 334.803685 139.650098 
L 335.154258 139.650098 
L 335.202013 140.242935 
L 335.24761 139.650098 
L 335.551095 139.650098 
L 335.64242 140.242935 
L 335.758604 139.650098 
L 335.875815 140.242935 
L 335.922419 140.242935 
L 336.017843 139.650098 
L 336.11262 140.242935 
L 336.229688 139.650098 
L 336.346843 140.242935 
L 336.376302 140.242935 
L 336.491761 139.650098 
L 336.606477 140.242935 
L 337.981363 140.242935 
L 338.051836 140.835773 
L 338.074504 140.242935 
L 338.098068 140.242935 
L 338.211773 140.835773 
L 338.34889 140.835773 
L 338.463291 140.242935 
L 338.577435 140.835773 
L 338.668174 140.835773 
L 338.760307 142.021447 
L 338.874923 140.835773 
L 339.448455 140.835773 
L 339.563171 142.021447 
L 340.300503 142.021447 
L 340.373832 140.835773 
L 340.398389 142.021447 
L 340.421236 142.021447 
L 340.521321 140.835773 
L 340.63694 142.021447 
L 340.770096 140.835773 
L 340.794132 140.835773 
L 340.817482 142.021447 
L 340.892501 140.835773 
L 341.014779 140.835773 
L 341.040165 142.021447 
L 341.112083 140.835773 
L 341.15998 140.835773 
L 341.274787 142.021447 
L 341.297775 142.021447 
L 341.416507 140.835773 
L 341.463589 140.835773 
L 341.578362 142.021447 
L 341.603824 142.021447 
L 341.718581 140.835773 
L 341.971351 140.835773 
L 342.086068 140.242935 
L 342.300397 140.242935 
L 342.414066 139.650098 
L 342.460598 139.650098 
L 342.483576 140.242935 
L 342.552677 139.650098 
L 342.696434 139.650098 
L 342.722042 140.242935 
L 342.794717 139.650098 
L 342.866542 139.650098 
L 342.890189 139.057261 
L 342.95957 139.650098 
L 343.149015 139.650098 
L 343.172065 139.057261 
L 343.242362 139.650098 
L 343.288889 139.650098 
L 343.411177 139.057261 
L 343.529482 139.057261 
L 343.64883 138.464424 
L 343.892208 138.464424 
L 344.008382 137.871586 
L 344.171056 137.871586 
L 344.309309 136.685912 
L 344.424096 136.685912 
L 344.544602 137.278749 
L 344.664813 136.685912 
L 344.738439 136.685912 
L 344.87475 134.314563 
L 345.038914 133.128888 
L 345.06551 133.128888 
L 345.111923 132.536051 
L 345.160848 133.128888 
L 345.326393 133.128888 
L 345.421947 132.536051 
L 345.561019 133.721726 
L 345.80323 128.979027 
L 345.852382 132.536051 
L 345.905569 131.350376 
L 345.952003 130.164702 
L 345.97482 133.128888 
L 346.022422 129.571865 
L 346.095219 131.350376 
L 346.215902 132.536051 
L 346.333593 131.350376 
L 346.356339 131.943214 
L 346.381276 131.350376 
L 346.473411 130.164702 
L 346.601423 132.536051 
L 346.624143 132.536051 
L 346.696313 131.943214 
L 346.797177 134.9074 
L 346.822688 134.314563 
L 346.893747 134.9074 
L 347.151481 134.9074 
L 347.273156 131.943214 
L 347.304012 133.721726 
L 347.32685 133.721726 
L 347.349674 134.314563 
L 347.373116 128.38619 
L 347.443075 134.314563 
L 347.465869 134.314563 
L 347.491319 133.128888 
L 347.546729 134.9074 
L 347.570449 134.314563 
L 347.593206 134.314563 
L 347.616046 133.721726 
L 347.63962 134.9074 
L 347.686635 134.314563 
L 347.877515 134.314563 
L 347.992909 134.9074 
L 348.179641 134.9074 
L 348.293601 134.314563 
L 348.317295 134.314563 
L 348.401292 134.9074 
L 348.424822 134.314563 
L 348.916341 134.314563 
L 349.264697 131.350376 
L 349.378842 133.128888 
L 349.530903 131.350376 
L 349.579305 131.943214 
L 349.652689 131.350376 
L 349.723564 133.128888 
L 349.889127 129.571865 
L 350.010989 133.721726 
L 350.03482 131.943214 
L 350.099479 133.721726 
L 350.153519 132.536051 
L 350.25712 123.643492 
L 350.498398 129.571865 
L 350.53493 128.38619 
L 350.598064 131.943214 
L 350.653806 131.350376 
L 350.682936 129.571865 
L 350.818645 129.571865 
L 350.998812 132.536051 
L 351.060715 128.38619 
L 351.13062 128.979027 
L 351.159942 128.38619 
L 351.293625 130.164702 
L 351.324334 129.571865 
L 351.430752 128.38619 
L 351.458162 128.979027 
L 351.48243 128.38619 
L 351.508241 130.164702 
L 351.608191 131.350376 
L 351.715457 129.571865 
L 351.741241 131.350376 
L 351.767775 128.979027 
L 351.791348 129.571865 
L 351.908286 128.979027 
L 351.934104 127.200516 
L 351.963271 128.38619 
L 352.045638 128.38619 
L 352.239566 130.164702 
L 352.359785 131.350376 
L 352.422857 131.350376 
L 352.455987 129.571865 
L 352.486241 130.164702 
L 352.610341 130.164702 
L 352.662432 129.571865 
L 352.686031 130.164702 
L 352.801681 130.164702 
L 352.82743 129.571865 
L 352.906042 130.164702 
L 352.983312 130.164702 
L 353.111418 129.571865 
L 353.197791 129.571865 
L 353.251717 130.164702 
L 353.27654 129.571865 
L 353.360506 130.164702 
L 353.385698 128.979027 
L 353.415645 131.350376 
L 353.450447 130.164702 
L 353.569746 129.571865 
L 353.663998 130.164702 
L 353.779914 127.793353 
L 353.829755 128.38619 
L 354.084022 131.943214 
L 354.13171 131.943214 
L 354.237807 131.350376 
L 354.337238 132.536051 
L 354.362595 131.943214 
L 354.394266 131.943214 
L 354.523379 132.536051 
L 354.547776 132.536051 
L 354.616915 133.128888 
L 354.640573 131.943214 
L 354.717086 133.128888 
L 355.267879 133.128888 
L 355.340218 131.943214 
L 355.365033 133.128888 
L 355.402659 133.128888 
L 355.462959 132.536051 
L 355.512264 133.128888 
L 355.690259 133.128888 
L 355.790787 131.350376 
L 355.839122 132.536051 
L 355.86222 133.128888 
L 355.912826 131.943214 
L 356.061108 130.164702 
L 356.090674 130.164702 
L 356.166036 131.943214 
L 356.206054 131.350376 
L 356.462794 132.536051 
L 356.94714 132.536051 
L 357.17932 131.350376 
L 357.290173 131.350376 
L 357.433075 129.571865 
L 358.343695 129.571865 
L 358.437165 130.164702 
L 358.507984 129.571865 
L 358.530881 130.164702 
L 359.433523 130.164702 
L 359.457267 131.350376 
L 359.528941 130.164702 
L 359.551648 130.164702 
L 359.622593 131.350376 
L 359.645426 130.164702 
L 359.714952 130.164702 
L 359.807304 131.350376 
L 359.922953 130.164702 
L 360.04617 131.350376 
L 360.977536 131.350376 
L 361.095204 131.943214 
L 361.189336 131.350376 
L 361.308732 131.943214 
L 361.491629 131.943214 
L 361.585426 131.350376 
L 361.701304 131.943214 
L 361.838986 131.943214 
L 361.861897 131.350376 
L 361.930908 131.943214 
L 362.376045 131.943214 
L 362.452293 132.536051 
L 362.475776 131.943214 
L 362.545443 131.943214 
L 362.661679 132.536051 
L 363.168662 132.536051 
L 363.191463 133.128888 
L 363.259954 132.536051 
L 363.420129 132.536051 
L 363.53423 133.128888 
L 363.649055 132.536051 
L 363.67854 132.536051 
L 363.793265 133.128888 
L 363.815985 132.536051 
L 363.88797 133.128888 
L 364.42152 133.128888 
L 364.537089 133.721726 
L 364.605572 133.128888 
L 364.687083 133.128888 
L 364.804735 133.721726 
L 365.17546 133.721726 
L 365.198882 133.128888 
L 365.268716 133.721726 
L 366.263039 133.721726 
L 366.354834 134.314563 
L 366.377535 133.721726 
L 366.448692 134.314563 
L 367.198086 134.314563 
L 367.267863 134.9074 
L 367.290952 134.314563 
L 367.339162 134.314563 
L 367.431361 134.9074 
L 367.527877 134.314563 
L 367.644815 134.9074 
L 367.763481 134.314563 
L 367.88154 134.9074 
L 368.115783 134.9074 
L 368.138469 134.314563 
L 368.208383 134.9074 
L 368.555548 134.9074 
L 368.581687 136.093075 
L 368.651244 134.9074 
L 368.745897 134.9074 
L 368.86667 136.093075 
L 368.982377 134.9074 
L 369.098429 136.093075 
L 369.33209 136.093075 
L 369.447448 136.685912 
L 369.470907 136.685912 
L 369.590321 136.093075 
L 369.636799 136.093075 
L 369.709749 136.685912 
L 369.733625 136.093075 
L 369.829529 136.093075 
L 369.852692 136.685912 
L 369.923174 136.093075 
L 370.236103 136.093075 
L 370.310921 136.685912 
L 370.336509 136.093075 
L 370.456916 136.093075 
L 370.479829 136.685912 
L 370.552768 136.093075 
L 370.578968 136.093075 
L 370.627872 136.685912 
L 370.677759 136.093075 
L 370.792994 136.093075 
L 370.81594 136.685912 
L 370.885237 136.093075 
L 370.955708 136.093075 
L 370.978389 136.685912 
L 371.047413 136.093075 
L 371.092841 136.093075 
L 371.212522 136.685912 
L 371.772156 136.685912 
L 371.795733 136.093075 
L 371.866856 136.685912 
L 372.426374 136.685912 
L 372.544284 137.278749 
L 372.660584 136.685912 
L 373.929854 136.685912 
L 374.007349 136.093075 
L 374.030155 136.685912 
L 374.055654 136.685912 
L 374.153245 136.093075 
L 374.27148 136.685912 
L 374.317627 136.685912 
L 374.438107 136.093075 
L 374.530031 136.093075 
L 374.626425 134.9074 
L 374.671981 136.093075 
L 374.72061 134.9074 
L 374.913064 134.9074 
L 375.030212 134.314563 
L 375.053367 134.9074 
L 375.124677 134.314563 
L 375.432101 134.314563 
L 375.456001 133.721726 
L 375.527113 134.314563 
L 375.620801 134.314563 
L 375.738751 133.721726 
L 375.847668 133.721726 
L 375.962109 133.128888 
L 376.080249 133.128888 
L 376.197326 132.536051 
L 376.478826 132.536051 
L 376.502027 131.943214 
L 376.572493 132.536051 
L 376.749445 132.536051 
L 376.795177 131.943214 
L 376.841724 132.536051 
L 376.864491 132.536051 
L 377.079743 129.571865 
L 377.103543 129.571865 
L 377.22132 130.164702 
L 377.244765 130.164702 
L 377.385348 128.979027 
L 377.466539 129.571865 
L 377.490007 128.979027 
L 377.5127 128.979027 
L 377.628758 129.571865 
L 377.745313 128.979027 
L 377.886593 128.979027 
L 378.005263 128.38619 
L 378.149602 128.38619 
L 378.221557 128.979027 
L 378.269891 127.793353 
L 378.386047 128.38619 
L 378.432557 128.38619 
L 378.456408 127.793353 
L 378.504354 128.979027 
L 378.53081 128.979027 
L 378.672748 126.607678 
L 378.695933 127.200516 
L 378.833946 128.38619 
L 378.857927 127.793353 
L 378.928701 128.38619 
L 378.999122 128.38619 
L 379.021765 128.979027 
L 379.09164 128.38619 
L 379.114469 127.200516 
L 379.138369 128.979027 
L 379.188247 128.979027 
L 379.331675 130.164702 
L 379.487665 128.38619 
L 379.581387 129.571865 
L 379.720472 126.014841 
L 379.862577 128.979027 
L 379.933467 127.200516 
L 380.00324 127.793353 
L 380.050045 127.793353 
L 380.169293 129.571865 
L 380.264748 128.38619 
L 380.289022 128.979027 
L 380.312883 129.571865 
L 380.359539 128.979027 
L 380.405404 128.38619 
L 380.429583 128.979027 
L 380.55129 130.164702 
L 380.670407 129.571865 
L 380.694968 130.164702 
L 380.741537 126.014841 
L 380.813678 127.793353 
L 380.86028 129.571865 
L 380.929943 128.979027 
L 380.978368 126.014841 
L 381.001408 130.164702 
L 381.09503 129.571865 
L 381.118421 129.571865 
L 381.216124 126.014841 
L 381.23978 129.571865 
L 381.334697 128.979027 
L 381.357767 128.979027 
L 381.380441 129.571865 
L 381.403343 124.236329 
L 381.495817 125.422004 
L 381.519828 126.014841 
L 381.544162 124.236329 
L 381.614631 123.643492 
L 381.63786 125.422004 
L 381.685618 122.457818 
L 381.710261 122.457818 
L 381.848708 120.679306 
L 382.112411 126.607678 
L 382.159045 126.014841 
L 382.182248 126.014841 
L 382.325729 127.200516 
L 382.348763 127.200516 
L 382.372421 127.793353 
L 382.397123 127.200516 
L 382.419893 126.014841 
L 382.443493 127.793353 
L 382.513454 126.607678 
L 382.583098 126.607678 
L 382.700909 126.014841 
L 382.818755 126.607678 
L 382.865115 126.607678 
L 382.914034 128.38619 
L 382.961959 127.200516 
L 383.056601 126.014841 
L 383.125709 128.38619 
L 383.17148 127.200516 
L 383.2189 126.607678 
L 383.266468 127.200516 
L 383.29118 127.200516 
L 383.430663 128.38619 
L 383.605096 124.236329 
L 383.628214 126.014841 
L 383.791409 128.38619 
L 383.906417 127.793353 
L 383.997576 128.38619 
L 384.112408 127.793353 
L 384.226703 128.38619 
L 384.272066 128.38619 
L 384.388436 128.979027 
L 384.41212 128.38619 
L 384.481097 128.979027 
L 384.526532 129.571865 
L 384.574008 128.979027 
L 384.62058 127.793353 
L 384.644763 124.236329 
L 384.715762 125.422004 
L 384.738843 127.793353 
L 384.831635 126.014841 
L 384.854789 126.014841 
L 384.949973 127.200516 
L 384.973808 126.607678 
L 384.996463 126.607678 
L 385.112388 127.200516 
L 385.136416 127.200516 
L 385.253927 127.793353 
L 385.276929 127.793353 
L 385.393584 126.014841 
L 385.416998 126.607678 
L 385.440936 126.607678 
L 385.490657 127.200516 
L 385.561238 125.422004 
L 385.707041 127.200516 
L 385.962986 127.200516 
L 386.080502 127.793353 
L 386.243953 127.793353 
L 386.293144 128.38619 
L 386.341726 127.793353 
L 386.436598 127.793353 
L 386.555868 128.38619 
L 386.57887 128.38619 
L 386.601614 127.793353 
L 386.670306 128.38619 
L 386.740034 128.38619 
L 386.859037 128.979027 
L 387.049825 128.979027 
L 387.08652 128.38619 
L 387.160921 128.979027 
L 387.199533 128.979027 
L 387.385044 128.38619 
L 388.219342 128.38619 
L 388.28066 127.793353 
L 388.32622 128.38619 
L 388.549563 128.38619 
L 388.677227 128.979027 
L 388.724502 128.38619 
L 388.780918 128.979027 
L 388.804765 128.979027 
L 388.928804 128.38619 
L 388.95503 128.979027 
L 389.02762 128.38619 
L 389.053322 128.38619 
L 389.131199 128.979027 
L 389.153966 128.38619 
L 389.203036 128.38619 
L 389.226634 127.793353 
L 389.29812 128.38619 
L 389.491093 128.38619 
L 389.514159 127.793353 
L 389.585012 128.38619 
L 389.782902 128.38619 
L 389.806103 127.793353 
L 389.878496 128.38619 
L 390.942176 128.38619 
L 390.965692 128.979027 
L 391.040639 128.38619 
L 391.113265 128.38619 
L 391.195205 128.979027 
L 391.221389 128.38619 
L 391.246357 128.38619 
L 391.374721 128.979027 
L 391.713294 128.979027 
L 391.811801 129.571865 
L 391.936655 128.979027 
L 392.203201 128.979027 
L 392.32265 129.571865 
L 392.345334 129.571865 
L 392.439215 128.979027 
L 392.555372 129.571865 
L 392.602487 128.979027 
L 392.648128 129.571865 
L 393.212877 129.571865 
L 393.236538 130.164702 
L 393.307411 129.571865 
L 393.585313 129.571865 
L 393.700099 130.164702 
L 393.793758 129.571865 
L 393.887155 131.350376 
L 393.909987 130.164702 
L 394.099088 130.164702 
L 394.121848 129.571865 
L 394.193527 130.164702 
L 394.715053 130.164702 
L 394.743343 131.350376 
L 394.814777 130.164702 
L 395.265436 130.164702 
L 395.289882 131.350376 
L 395.362969 130.164702 
L 395.38647 130.164702 
L 395.508814 131.350376 
L 395.89092 131.350376 
L 395.914312 130.164702 
L 395.961817 131.350376 
L 396.034026 130.164702 
L 396.057633 131.350376 
L 396.156276 131.350376 
L 396.272794 130.164702 
L 396.391694 131.350376 
L 396.695465 131.350376 
L 396.718202 131.943214 
L 396.786609 131.350376 
L 397.111471 131.350376 
L 397.204642 131.943214 
L 397.250798 131.350376 
L 397.297315 131.943214 
L 397.320717 131.943214 
L 397.392906 131.350376 
L 397.416132 131.943214 
L 397.486435 131.943214 
L 397.510851 131.350376 
L 397.581839 131.943214 
L 397.887295 131.943214 
L 397.980167 132.536051 
L 398.095828 131.943214 
L 398.910622 131.943214 
L 398.980366 132.536051 
L 399.00309 131.943214 
L 399.071838 131.943214 
L 399.188885 132.536051 
L 399.212033 132.536051 
L 399.235492 131.943214 
L 399.305642 132.536051 
L 399.60934 132.536051 
L 399.632975 131.943214 
L 399.702255 132.536051 
L 400.193321 132.536051 
L 400.308636 133.128888 
L 400.655013 133.128888 
L 400.772004 132.536051 
L 400.885812 133.128888 
L 400.957389 132.536051 
L 400.981659 133.128888 
L 401.004335 133.128888 
L 401.122032 132.536051 
L 401.169605 132.536051 
L 401.288155 133.128888 
L 401.359115 132.536051 
L 401.382521 133.128888 
L 401.567625 133.128888 
L 401.636623 132.536051 
L 401.660095 133.128888 
L 402.152867 133.128888 
L 402.245579 133.721726 
L 402.363039 133.128888 
L 402.525125 133.128888 
L 402.641915 132.536051 
L 403.603688 132.536051 
L 403.626793 131.943214 
L 403.69803 132.536051 
L 403.865541 132.536051 
L 403.891551 131.943214 
L 403.966513 132.536051 
L 404.062557 132.536051 
L 404.183638 131.943214 
L 404.211057 131.943214 
L 404.285697 132.536051 
L 404.310295 131.943214 
L 404.358127 131.943214 
L 404.40493 132.536051 
L 404.452213 131.943214 
L 404.57923 131.943214 
L 404.678735 132.536051 
L 404.803747 131.943214 
L 405.443237 131.943214 
L 405.467061 131.350376 
L 405.537587 131.943214 
L 405.585349 131.943214 
L 405.609121 131.350376 
L 405.678774 131.943214 
L 405.701679 131.943214 
L 405.820386 131.350376 
L 405.93668 131.943214 
L 406.056247 131.943214 
L 406.078947 132.536051 
L 406.148601 131.943214 
L 406.242047 131.350376 
L 406.360191 131.943214 
L 406.525561 131.943214 
L 406.597865 131.350376 
L 406.622976 131.943214 
L 407.194755 131.943214 
L 407.263863 131.350376 
L 407.288395 131.943214 
L 407.311517 131.943214 
L 407.426233 131.350376 
L 407.544325 131.943214 
L 407.56775 131.943214 
L 407.683786 131.350376 
L 408.084834 131.350376 
L 408.181113 130.164702 
L 408.203812 131.350376 
L 408.274628 130.164702 
L 408.711252 130.164702 
L 408.829376 129.571865 
L 408.945583 129.571865 
L 409.043733 128.979027 
L 409.158879 129.571865 
L 409.181539 129.571865 
L 409.299224 128.979027 
L 409.336609 128.979027 
L 409.429405 128.38619 
L 409.452326 128.979027 
L 409.527634 128.38619 
L 409.668389 128.979027 
L 409.786135 127.793353 
L 409.809954 128.38619 
L 409.881913 127.793353 
L 409.904873 127.200516 
L 409.974146 127.793353 
L 410.020534 127.793353 
L 410.043996 127.200516 
L 410.112836 127.793353 
L 410.136762 127.793353 
L 410.207157 127.200516 
L 410.229903 127.793353 
L 410.276368 127.793353 
L 410.347556 127.200516 
L 410.370249 127.793353 
L 410.417519 127.793353 
L 410.533956 127.200516 
L 410.557012 127.200516 
L 410.606129 127.793353 
L 410.652766 127.200516 
L 410.675454 127.200516 
L 410.769948 127.793353 
L 410.816866 127.200516 
L 410.863577 127.793353 
L 410.933653 127.793353 
L 411.054316 127.200516 
L 411.079073 127.793353 
L 411.127087 127.200516 
L 411.222652 125.422004 
L 411.268421 126.014841 
L 411.29183 126.014841 
L 411.386469 128.38619 
L 411.43513 127.793353 
L 411.480712 123.643492 
L 411.529261 128.38619 
L 411.562418 128.38619 
L 411.587098 127.793353 
L 411.657321 128.38619 
L 411.680748 128.38619 
L 411.773325 128.979027 
L 411.822611 127.793353 
L 411.869537 128.38619 
L 411.987456 128.979027 
L 412.198376 128.979027 
L 412.267931 129.571865 
L 412.302266 128.979027 
L 412.372572 128.979027 
L 412.397664 129.571865 
L 412.420694 128.979027 
L 412.477599 125.422004 
L 412.523244 128.979027 
L 412.574784 128.979027 
L 412.669735 126.607678 
L 412.692521 128.38619 
L 412.722496 128.38619 
L 412.908463 124.236329 
L 413.025339 126.014841 
L 413.048476 125.422004 
L 413.094865 126.014841 
L 413.189063 126.607678 
L 413.258698 125.422004 
L 413.305287 126.014841 
L 413.353801 128.38619 
L 413.399215 126.607678 
L 413.5402 123.643492 
L 413.565486 126.014841 
L 413.66519 125.422004 
L 413.710715 125.422004 
L 413.873896 127.200516 
L 414.014968 126.014841 
L 414.1337 126.607678 
L 414.253558 126.607678 
L 414.376845 127.793353 
L 414.598539 125.422004 
L 414.646779 125.422004 
L 414.74584 127.200516 
L 414.769479 126.607678 
L 414.898127 127.793353 
L 414.94709 127.200516 
L 414.998875 127.200516 
L 415.022604 127.793353 
L 415.06883 127.200516 
L 415.187042 126.607678 
L 415.211678 126.607678 
L 415.237824 127.793353 
L 415.316194 127.200516 
L 415.385307 127.200516 
L 415.431855 126.014841 
L 415.478986 126.607678 
L 415.502763 127.793353 
L 415.581492 127.200516 
L 415.628835 127.200516 
L 415.703443 126.607678 
L 415.727481 127.200516 
L 415.754814 127.200516 
L 415.875289 126.607678 
L 416.020089 127.793353 
L 416.090673 127.793353 
L 416.208379 127.200516 
L 416.255364 127.200516 
L 416.396291 126.014841 
L 416.444526 126.014841 
L 416.608382 127.793353 
L 416.680466 127.793353 
L 416.79903 126.607678 
L 416.977225 128.38619 
L 417.024248 128.38619 
L 417.126752 127.793353 
L 417.162096 128.38619 
L 417.186793 127.200516 
L 417.233478 127.793353 
L 417.399902 127.793353 
L 417.522093 128.38619 
L 417.736668 128.38619 
L 417.75944 127.793353 
L 417.821598 128.38619 
L 417.872108 128.38619 
L 417.896678 127.793353 
L 417.967995 128.38619 
L 419.111515 128.38619 
L 419.228967 128.979027 
L 419.323097 128.38619 
L 419.438944 128.979027 
L 420.379821 128.979027 
L 420.499723 129.571865 
L 421.027435 129.571865 
L 421.120264 130.164702 
L 421.237534 129.571865 
L 421.355098 130.164702 
L 421.845438 130.164702 
L 421.868395 131.350376 
L 421.938638 130.164702 
L 422.008001 130.164702 
L 422.100384 131.350376 
L 422.216569 130.164702 
L 422.263594 131.350376 
L 422.311095 130.164702 
L 422.363704 130.164702 
L 422.498405 131.350376 
L 422.731261 131.350376 
L 422.754691 130.164702 
L 422.830768 131.350376 
L 422.890522 131.350376 
L 422.965424 130.164702 
L 423.000527 131.350376 
L 423.265849 131.350376 
L 423.289793 130.164702 
L 423.362137 131.350376 
L 424.545459 131.350376 
L 424.66901 131.943214 
L 424.716462 131.943214 
L 424.739444 131.350376 
L 424.819291 131.943214 
L 424.842369 131.943214 
L 424.866035 131.350376 
L 424.938458 131.943214 
L 425.035266 131.943214 
L 425.081978 131.350376 
L 425.130667 131.943214 
L 425.160012 131.943214 
L 425.283099 131.350376 
L 425.796192 131.350376 
L 425.918682 131.943214 
L 426.016648 131.350376 
L 426.137766 131.943214 
L 426.253914 131.350376 
L 426.372772 131.943214 
L 426.400791 131.943214 
L 426.474294 131.350376 
L 426.501241 131.943214 
L 426.548205 131.943214 
L 426.674139 131.350376 
L 426.720192 131.350376 
L 426.744751 131.943214 
L 426.816248 131.350376 
L 426.838994 131.350376 
L 426.862842 131.943214 
L 426.934206 131.350376 
L 426.957673 131.350376 
L 427.074546 131.943214 
L 427.215169 131.350376 
L 427.332331 131.350376 
L 427.453396 131.943214 
L 427.550229 131.350376 
L 427.57367 131.943214 
L 427.643787 131.350376 
L 427.76716 131.943214 
L 427.883258 131.350376 
L 427.907661 131.350376 
L 427.978082 131.943214 
L 428.055102 131.943214 
L 428.187971 131.350376 
L 428.258601 131.943214 
L 428.282623 131.350376 
L 428.352743 131.350376 
L 428.474473 131.943214 
L 428.626226 131.943214 
L 428.730622 131.350376 
L 428.855697 131.943214 
L 429.081747 131.943214 
L 429.202822 132.536051 
L 429.321225 131.943214 
L 429.675846 131.943214 
L 429.796159 132.536051 
L 429.893418 131.943214 
L 430.013313 132.536051 
L 430.037042 132.536051 
L 430.137841 131.943214 
L 430.232383 132.536051 
L 430.25545 131.943214 
L 430.33192 132.536051 
L 430.450941 132.536051 
L 430.547005 131.943214 
L 430.667022 132.536051 
L 431.04405 132.536051 
L 431.068458 133.128888 
L 431.138616 132.536051 
L 431.435639 132.536051 
L 431.552808 133.128888 
L 431.575455 132.536051 
L 431.575455 132.536051 
" style="fill:none;stroke:#1f77b4;stroke-linecap:square;stroke-width:1.5;"/>
   </g>
   <g id="line2d_30">
    <path clip-path="url(#p967c771367)" d="M 63.084545 184.112893 
L 65.2187 184.112893 
L 65.33703 160.992239 
L 67.651701 160.992239 
L 67.767186 167.513449 
L 69.287487 167.513449 
L 69.402337 178.777357 
L 70.177015 178.777357 
L 70.29129 190.634102 
L 70.801758 190.634102 
L 129.379106 107.636886 
L 132.43041 107.636886 
L 132.523894 119.493631 
L 133.835229 119.493631 
L 133.951945 130.757539 
L 135.117016 130.757539 
L 135.232765 160.992239 
L 136.980476 160.992239 
L 137.096396 178.777357 
L 137.744779 178.777357 
L 229.477593 114.158096 
L 230.246106 114.158096 
L 230.363026 137.278749 
L 231.522059 137.278749 
L 231.639865 160.992239 
L 234.192446 160.992239 
L 234.309177 172.848985 
L 236.824333 172.848985 
L 236.93976 178.777357 
L 238.48001 178.777357 
L 238.595307 184.112893 
L 239.515364 184.112893 
L 239.63492 195.969638 
L 240.702106 195.969638 
L 240.816278 202.490848 
L 241.505036 202.490848 
L 241.628011 191.819777 
L 242.096804 191.819777 
L 242.212768 195.969638 
L 243.271914 195.969638 
L 243.401258 190.634102 
L 246.586998 190.634102 
L 246.731522 191.819777 
L 247.406583 191.819777 
L 247.533961 190.634102 
L 248.611988 190.634102 
L 248.729964 184.112893 
L 251.265234 184.112893 
L 251.381646 178.777357 
L 252.731737 178.777357 
L 252.849106 172.848985 
L 253.544473 172.848985 
L 253.661465 170.477636 
L 253.89269 170.477636 
L 254.019348 167.513449 
L 256.586701 167.513449 
L 256.703675 160.992239 
L 260.810713 160.992239 
L 260.927718 170.477636 
L 262.085782 170.477636 
L 262.212558 172.848985 
L 263.022683 172.848985 
L 263.14151 170.477636 
L 263.259772 170.477636 
L 263.386252 172.848985 
L 266.703668 172.848985 
L 266.820355 170.477636 
L 267.168986 170.477636 
L 267.285894 172.848985 
L 268.460051 172.848985 
L 268.576531 178.777357 
L 269.162811 178.777357 
L 269.282019 191.819777 
L 269.839721 191.819777 
L 269.957844 195.969638 
L 270.175796 195.969638 
L 270.292383 202.490848 
L 275.56928 202.490848 
L 275.688577 191.819777 
L 276.74289 191.819777 
L 276.858549 202.490848 
L 277.799987 202.490848 
L 277.912055 190.634102 
L 279.064527 190.634102 
L 279.20592 184.112893 
L 279.657668 184.112893 
L 279.77143 181.148706 
L 280.345305 181.148706 
L 280.467081 178.777357 
L 282.124982 178.777357 
L 282.240599 172.848985 
L 283.039558 172.848985 
L 283.156913 167.513449 
L 284.309423 167.513449 
L 284.417723 172.848985 
L 285.577645 172.848985 
L 285.7229 160.992239 
L 288.444377 160.992239 
L 288.571881 155.656704 
L 292.244511 155.656704 
L 292.408424 160.992239 
L 293.422308 160.992239 
L 293.552361 184.112893 
L 295.061099 184.112893 
L 295.190532 195.969638 
L 296.36021 195.969638 
L 296.480881 214.347593 
L 297.903821 214.347593 
L 298.042526 223.832989 
L 299.658216 223.832989 
L 299.772532 234.50406 
L 301.86234 234.50406 
L 301.978529 223.832989 
L 303.143366 223.832989 
L 303.258443 226.204338 
L 304.749186 226.204338 
L 304.86346 223.832989 
L 305.325515 223.832989 
L 305.442271 226.204338 
L 307.534064 226.204338 
L 307.650547 232.132711 
L 311.407803 232.132711 
L 311.525203 223.832989 
L 312.74073 223.832989 
L 312.861362 213.161918 
L 314.21919 213.161918 
L 314.351355 181.148706 
L 314.821414 181.148706 
L 314.939321 172.848985 
L 316.085926 172.848985 
L 316.21099 137.278749 
L 317.336977 137.278749 
L 317.455223 114.158096 
L 318.855256 114.158096 
L 318.982411 102.301351 
L 320.095125 102.301351 
L 320.22384 89.258931 
L 321.366764 89.258931 
L 321.480714 95.780141 
L 322.528615 95.780141 
L 322.658889 107.636886 
L 325.071381 107.636886 
L 325.196649 125.422004 
L 325.405078 125.422004 
L 325.53561 155.656704 
L 327.046825 155.656704 
L 327.157112 167.513449 
L 327.878402 167.513449 
L 328.002851 172.848985 
L 329.158835 172.848985 
L 329.292666 184.112893 
L 330.552781 184.112893 
L 330.672436 190.634102 
L 332.054637 190.634102 
L 332.170061 202.490848 
L 332.752295 202.490848 
L 332.870036 223.832989 
L 333.572865 223.832989 
L 333.689907 214.347593 
L 333.923809 214.347593 
L 334.038144 223.832989 
L 335.758604 223.832989 
L 335.875815 226.204338 
L 336.444841 226.204338 
L 336.560135 223.832989 
L 337.140298 223.832989 
L 337.256082 237.468246 
L 339.105195 237.468246 
L 339.220709 245.17513 
L 339.33464 245.17513 
L 339.448455 234.50406 
L 339.684389 234.50406 
L 339.799144 237.468246 
L 341.274787 237.468246 
L 341.393828 214.347593 
L 342.552677 214.347593 
L 342.672896 190.634102 
L 343.938587 190.634102 
L 344.055094 149.135494 
L 345.184515 149.135494 
L 345.30362 114.158096 
L 346.449905 114.158096 
L 346.576746 83.923396 
L 347.808197 83.923396 
L 347.923911 66.138278 
L 349.175311 66.138278 
L 349.321412 54.281533 
L 350.41564 54.281533 
L 350.53493 35.903578 
L 351.816194 35.903578 
L 351.963271 42.424787 
L 354.267038 42.424787 
L 354.447801 72.06665 
L 355.638612 72.06665 
L 355.767152 95.780141 
L 356.970639 95.780141 
L 357.108583 125.422004 
L 359.410832 125.422004 
L 359.528941 137.278749 
L 359.645426 137.278749 
L 359.761695 155.656704 
L 360.904505 155.656704 
L 361.022982 172.848985 
L 363.191463 172.848985 
L 363.305335 184.112893 
L 363.86466 184.112893 
L 363.979911 190.634102 
L 365.245127 190.634102 
L 365.364183 195.969638 
L 366.988627 195.969638 
L 367.104728 213.161918 
L 367.574834 213.161918 
L 367.692418 202.490848 
L 368.276803 202.490848 
L 368.391973 213.161918 
L 369.779725 213.161918 
L 369.900381 223.832989 
L 370.138119 223.832989 
L 370.262168 209.012057 
L 370.578968 209.012057 
L 370.701245 213.161918 
L 371.235289 213.161918 
L 371.353835 234.50406 
L 371.584541 234.50406 
L 371.701147 226.204338 
L 371.937746 226.204338 
L 372.057092 223.832989 
L 372.874752 223.832989 
L 372.995872 202.490848 
L 374.224681 202.490848 
L 374.341412 184.112893 
L 375.527113 184.112893 
L 375.644424 155.656704 
L 377.837573 155.656704 
L 377.956151 119.493631 
L 378.077591 119.493631 
L 378.195003 95.780141 
L 379.581387 95.780141 
L 379.696936 77.402186 
L 380.765088 77.402186 
L 380.883045 66.138278 
L 383.009333 66.138278 
L 383.125709 54.281533 
L 385.584701 54.281533 
L 385.707041 60.802743 
L 385.939486 60.802743 
L 386.057457 83.923396 
L 387.337789 83.923396 
L 387.459339 102.301351 
L 388.652377 102.301351 
L 388.780918 125.422004 
L 389.925233 125.422004 
L 390.043204 137.278749 
L 391.494601 137.278749 
L 391.63805 149.135494 
L 392.718716 149.135494 
L 392.834514 155.656704 
L 394.814777 155.656704 
L 394.932142 167.513449 
L 395.172523 167.513449 
L 395.289882 184.112893 
L 396.902366 184.112893 
L 397.018502 195.969638 
L 397.957356 195.969638 
L 398.073111 202.490848 
L 399.235492 202.490848 
L 399.352391 209.012057 
L 400.981659 209.012057 
L 401.098103 220.868803 
L 402.617648 220.868803 
L 402.734918 213.161918 
L 405.419025 213.161918 
L 405.537587 202.490848 
L 406.718119 202.490848 
L 406.838448 184.112893 
L 407.171525 184.112893 
L 407.288395 167.513449 
L 410.675454 167.513449 
L 410.792686 125.422004 
L 411.964691 125.422004 
L 412.081262 107.636886 
L 413.710715 107.636886 
L 413.827725 102.301351 
L 415.06883 102.301351 
L 415.187042 107.636886 
L 416.561862 107.636886 
L 416.680466 114.158096 
L 417.797416 114.158096 
L 417.919801 125.422004 
L 419.794182 125.422004 
L 419.911501 130.757539 
L 420.499723 130.757539 
L 420.618136 155.656704 
L 421.658846 155.656704 
L 421.775541 167.513449 
L 424.472636 167.513449 
L 424.596991 178.777357 
L 427.744382 178.777357 
L 427.859246 172.848985 
L 428.235178 172.848985 
L 428.352743 178.777357 
L 429.606107 178.777357 
L 429.725824 190.634102 
L 431.575455 190.634102 
L 431.575455 190.634102 
" style="fill:none;stroke:#ff7f0e;stroke-linecap:square;stroke-width:1.5;"/>
   </g>
   <g id="patch_3">
    <path d="M 44.66 255.638708 
L 44.66 25.44 
" style="fill:none;stroke:#000000;stroke-linecap:square;stroke-linejoin:miter;stroke-width:0.8;"/>
   </g>
   <g id="patch_4">
    <path d="M 450 255.638708 
L 450 25.44 
" style="fill:none;stroke:#000000;stroke-linecap:square;stroke-linejoin:miter;stroke-width:0.8;"/>
   </g>
   <g id="patch_5">
    <path d="M 44.66 255.638708 
L 450 255.638708 
" style="fill:none;stroke:#000000;stroke-linecap:square;stroke-linejoin:miter;stroke-width:0.8;"/>
   </g>
   <g id="patch_6">
    <path d="M 44.66 25.44 
L 450 25.44 
" style="fill:none;stroke:#000000;stroke-linecap:square;stroke-linejoin:miter;stroke-width:0.8;"/>
   </g>
   <g id="text_17">
    <!-- Lake Shoecraft - Water and Air Temperature -->
    <g transform="translate(115.711562 19.44)scale(0.12 -0.12)">
     <defs>
      <path d="M 9.8125 72.90625 
L 19.671875 72.90625 
L 19.671875 8.296875 
L 55.171875 8.296875 
L 55.171875 0 
L 9.8125 0 
z
" id="DejaVuSans-76"/>
      <path d="M 9.078125 75.984375 
L 18.109375 75.984375 
L 18.109375 31.109375 
L 44.921875 54.6875 
L 56.390625 54.6875 
L 27.390625 29.109375 
L 57.625 0 
L 45.90625 0 
L 18.109375 26.703125 
L 18.109375 0 
L 9.078125 0 
z
" id="DejaVuSans-107"/>
      <path d="M 53.515625 70.515625 
L 53.515625 60.890625 
Q 47.90625 63.578125 42.921875 64.890625 
Q 37.9375 66.21875 33.296875 66.21875 
Q 25.25 66.21875 20.875 63.09375 
Q 16.5 59.96875 16.5 54.203125 
Q 16.5 49.359375 19.40625 46.890625 
Q 22.3125 44.4375 30.421875 42.921875 
L 36.375 41.703125 
Q 47.40625 39.59375 52.65625 34.296875 
Q 57.90625 29 57.90625 20.125 
Q 57.90625 9.515625 50.796875 4.046875 
Q 43.703125 -1.421875 29.984375 -1.421875 
Q 24.8125 -1.421875 18.96875 -0.25 
Q 13.140625 0.921875 6.890625 3.21875 
L 6.890625 13.375 
Q 12.890625 10.015625 18.65625 8.296875 
Q 24.421875 6.59375 29.984375 6.59375 
Q 38.421875 6.59375 43.015625 9.90625 
Q 47.609375 13.234375 47.609375 19.390625 
Q 47.609375 24.75 44.3125 27.78125 
Q 41.015625 30.8125 33.5 32.328125 
L 27.484375 33.5 
Q 16.453125 35.6875 11.515625 40.375 
Q 6.59375 45.0625 6.59375 53.421875 
Q 6.59375 63.09375 13.40625 68.65625 
Q 20.21875 74.21875 32.171875 74.21875 
Q 37.3125 74.21875 42.625 73.28125 
Q 47.953125 72.359375 53.515625 70.515625 
z
" id="DejaVuSans-83"/>
      <path d="M 54.890625 33.015625 
L 54.890625 0 
L 45.90625 0 
L 45.90625 32.71875 
Q 45.90625 40.484375 42.875 44.328125 
Q 39.84375 48.1875 33.796875 48.1875 
Q 26.515625 48.1875 22.3125 43.546875 
Q 18.109375 38.921875 18.109375 30.90625 
L 18.109375 0 
L 9.078125 0 
L 9.078125 75.984375 
L 18.109375 75.984375 
L 18.109375 46.1875 
Q 21.34375 51.125 25.703125 53.5625 
Q 30.078125 56 35.796875 56 
Q 45.21875 56 50.046875 50.171875 
Q 54.890625 44.34375 54.890625 33.015625 
z
" id="DejaVuSans-104"/>
      <path d="M 30.609375 48.390625 
Q 23.390625 48.390625 19.1875 42.75 
Q 14.984375 37.109375 14.984375 27.296875 
Q 14.984375 17.484375 19.15625 11.84375 
Q 23.34375 6.203125 30.609375 6.203125 
Q 37.796875 6.203125 41.984375 11.859375 
Q 46.1875 17.53125 46.1875 27.296875 
Q 46.1875 37.015625 41.984375 42.703125 
Q 37.796875 48.390625 30.609375 48.390625 
z
M 30.609375 56 
Q 42.328125 56 49.015625 48.375 
Q 55.71875 40.765625 55.71875 27.296875 
Q 55.71875 13.875 49.015625 6.21875 
Q 42.328125 -1.421875 30.609375 -1.421875 
Q 18.84375 -1.421875 12.171875 6.21875 
Q 5.515625 13.875 5.515625 27.296875 
Q 5.515625 40.765625 12.171875 48.375 
Q 18.84375 56 30.609375 56 
z
" id="DejaVuSans-111"/>
      <path d="M 48.78125 52.59375 
L 48.78125 44.1875 
Q 44.96875 46.296875 41.140625 47.34375 
Q 37.3125 48.390625 33.40625 48.390625 
Q 24.65625 48.390625 19.8125 42.84375 
Q 14.984375 37.3125 14.984375 27.296875 
Q 14.984375 17.28125 19.8125 11.734375 
Q 24.65625 6.203125 33.40625 6.203125 
Q 37.3125 6.203125 41.140625 7.25 
Q 44.96875 8.296875 48.78125 10.40625 
L 48.78125 2.09375 
Q 45.015625 0.34375 40.984375 -0.53125 
Q 36.96875 -1.421875 32.421875 -1.421875 
Q 20.0625 -1.421875 12.78125 6.34375 
Q 5.515625 14.109375 5.515625 27.296875 
Q 5.515625 40.671875 12.859375 48.328125 
Q 20.21875 56 33.015625 56 
Q 37.15625 56 41.109375 55.140625 
Q 45.0625 54.296875 48.78125 52.59375 
z
" id="DejaVuSans-99"/>
      <path d="M 37.109375 75.984375 
L 37.109375 68.5 
L 28.515625 68.5 
Q 23.6875 68.5 21.796875 66.546875 
Q 19.921875 64.59375 19.921875 59.515625 
L 19.921875 54.6875 
L 34.71875 54.6875 
L 34.71875 47.703125 
L 19.921875 47.703125 
L 19.921875 0 
L 10.890625 0 
L 10.890625 47.703125 
L 2.296875 47.703125 
L 2.296875 54.6875 
L 10.890625 54.6875 
L 10.890625 58.5 
Q 10.890625 67.625 15.140625 71.796875 
Q 19.390625 75.984375 28.609375 75.984375 
z
" id="DejaVuSans-102"/>
      <path d="M 3.328125 72.90625 
L 13.28125 72.90625 
L 28.609375 11.28125 
L 43.890625 72.90625 
L 54.984375 72.90625 
L 70.3125 11.28125 
L 85.59375 72.90625 
L 95.609375 72.90625 
L 77.296875 0 
L 64.890625 0 
L 49.515625 63.28125 
L 33.984375 0 
L 21.578125 0 
z
" id="DejaVuSans-87"/>
      <path d="M 54.890625 33.015625 
L 54.890625 0 
L 45.90625 0 
L 45.90625 32.71875 
Q 45.90625 40.484375 42.875 44.328125 
Q 39.84375 48.1875 33.796875 48.1875 
Q 26.515625 48.1875 22.3125 43.546875 
Q 18.109375 38.921875 18.109375 30.90625 
L 18.109375 0 
L 9.078125 0 
L 9.078125 54.6875 
L 18.109375 54.6875 
L 18.109375 46.1875 
Q 21.34375 51.125 25.703125 53.5625 
Q 30.078125 56 35.796875 56 
Q 45.21875 56 50.046875 50.171875 
Q 54.890625 44.34375 54.890625 33.015625 
z
" id="DejaVuSans-110"/>
      <path d="M 45.40625 46.390625 
L 45.40625 75.984375 
L 54.390625 75.984375 
L 54.390625 0 
L 45.40625 0 
L 45.40625 8.203125 
Q 42.578125 3.328125 38.25 0.953125 
Q 33.9375 -1.421875 27.875 -1.421875 
Q 17.96875 -1.421875 11.734375 6.484375 
Q 5.515625 14.40625 5.515625 27.296875 
Q 5.515625 40.1875 11.734375 48.09375 
Q 17.96875 56 27.875 56 
Q 33.9375 56 38.25 53.625 
Q 42.578125 51.265625 45.40625 46.390625 
z
M 14.796875 27.296875 
Q 14.796875 17.390625 18.875 11.75 
Q 22.953125 6.109375 30.078125 6.109375 
Q 37.203125 6.109375 41.296875 11.75 
Q 45.40625 17.390625 45.40625 27.296875 
Q 45.40625 37.203125 41.296875 42.84375 
Q 37.203125 48.484375 30.078125 48.484375 
Q 22.953125 48.484375 18.875 42.84375 
Q 14.796875 37.203125 14.796875 27.296875 
z
" id="DejaVuSans-100"/>
      <path d="M 34.1875 63.1875 
L 20.796875 26.90625 
L 47.609375 26.90625 
z
M 28.609375 72.90625 
L 39.796875 72.90625 
L 67.578125 0 
L 57.328125 0 
L 50.6875 18.703125 
L 17.828125 18.703125 
L 11.1875 0 
L 0.78125 0 
z
" id="DejaVuSans-65"/>
      <path d="M 9.421875 54.6875 
L 18.40625 54.6875 
L 18.40625 0 
L 9.421875 0 
z
M 9.421875 75.984375 
L 18.40625 75.984375 
L 18.40625 64.59375 
L 9.421875 64.59375 
z
" id="DejaVuSans-105"/>
     </defs>
     <use xlink:href="#DejaVuSans-76"/>
     <use x="55.712891" xlink:href="#DejaVuSans-97"/>
     <use x="116.992188" xlink:href="#DejaVuSans-107"/>
     <use x="171.277344" xlink:href="#DejaVuSans-101"/>
     <use x="232.800781" xlink:href="#DejaVuSans-32"/>
     <use x="264.587891" xlink:href="#DejaVuSans-83"/>
     <use x="328.064453" xlink:href="#DejaVuSans-104"/>
     <use x="391.443359" xlink:href="#DejaVuSans-111"/>
     <use x="452.625" xlink:href="#DejaVuSans-101"/>
     <use x="514.148438" xlink:href="#DejaVuSans-99"/>
     <use x="569.128906" xlink:href="#DejaVuSans-114"/>
     <use x="610.242188" xlink:href="#DejaVuSans-97"/>
     <use x="671.521484" xlink:href="#DejaVuSans-102"/>
     <use x="704.976562" xlink:href="#DejaVuSans-116"/>
     <use x="744.185547" xlink:href="#DejaVuSans-32"/>
     <use x="775.972656" xlink:href="#DejaVuSans-45"/>
     <use x="812.056641" xlink:href="#DejaVuSans-32"/>
     <use x="843.84375" xlink:href="#DejaVuSans-87"/>
     <use x="936.345703" xlink:href="#DejaVuSans-97"/>
     <use x="997.625" xlink:href="#DejaVuSans-116"/>
     <use x="1036.833984" xlink:href="#DejaVuSans-101"/>
     <use x="1098.357422" xlink:href="#DejaVuSans-114"/>
     <use x="1139.470703" xlink:href="#DejaVuSans-32"/>
     <use x="1171.257812" xlink:href="#DejaVuSans-97"/>
     <use x="1232.537109" xlink:href="#DejaVuSans-110"/>
     <use x="1295.916016" xlink:href="#DejaVuSans-100"/>
     <use x="1359.392578" xlink:href="#DejaVuSans-32"/>
     <use x="1391.179688" xlink:href="#DejaVuSans-65"/>
     <use x="1459.587891" xlink:href="#DejaVuSans-105"/>
     <use x="1487.371094" xlink:href="#DejaVuSans-114"/>
     <use x="1528.484375" xlink:href="#DejaVuSans-32"/>
     <use x="1560.271484" xlink:href="#DejaVuSans-84"/>
     <use x="1604.355469" xlink:href="#DejaVuSans-101"/>
     <use x="1665.878906" xlink:href="#DejaVuSans-109"/>
     <use x="1763.291016" xlink:href="#DejaVuSans-112"/>
     <use x="1826.767578" xlink:href="#DejaVuSans-101"/>
     <use x="1888.291016" xlink:href="#DejaVuSans-114"/>
     <use x="1929.404297" xlink:href="#DejaVuSans-97"/>
     <use x="1990.683594" xlink:href="#DejaVuSans-116"/>
     <use x="2029.892578" xlink:href="#DejaVuSans-117"/>
     <use x="2093.271484" xlink:href="#DejaVuSans-114"/>
     <use x="2132.134766" xlink:href="#DejaVuSans-101"/>
    </g>
   </g>
   <g id="legend_1">
    <g id="patch_7">
     <path d="M 51.66 62.79625 
L 136.769375 62.79625 
Q 138.769375 62.79625 138.769375 60.79625 
L 138.769375 32.44 
Q 138.769375 30.44 136.769375 30.44 
L 51.66 30.44 
Q 49.66 30.44 49.66 32.44 
L 49.66 60.79625 
Q 49.66 62.79625 51.66 62.79625 
z
" style="fill:#ffffff;opacity:0.8;stroke:#cccccc;stroke-linejoin:miter;"/>
    </g>
    <g id="line2d_31">
     <path d="M 53.66 38.538437 
L 73.66 38.538437 
" style="fill:none;stroke:#1f77b4;stroke-linecap:square;stroke-width:1.5;"/>
    </g>
    <g id="line2d_32"/>
    <g id="text_18">
     <!-- Lake Temp -->
     <g transform="translate(81.66 42.038437)scale(0.1 -0.1)">
      <use xlink:href="#DejaVuSans-76"/>
      <use x="55.712891" xlink:href="#DejaVuSans-97"/>
      <use x="116.992188" xlink:href="#DejaVuSans-107"/>
      <use x="171.277344" xlink:href="#DejaVuSans-101"/>
      <use x="232.800781" xlink:href="#DejaVuSans-32"/>
      <use x="264.587891" xlink:href="#DejaVuSans-84"/>
      <use x="308.671875" xlink:href="#DejaVuSans-101"/>
      <use x="370.195312" xlink:href="#DejaVuSans-109"/>
      <use x="467.607422" xlink:href="#DejaVuSans-112"/>
     </g>
    </g>
    <g id="line2d_33">
     <path d="M 53.66 53.216562 
L 73.66 53.216562 
" style="fill:none;stroke:#ff7f0e;stroke-linecap:square;stroke-width:1.5;"/>
    </g>
    <g id="line2d_34"/>
    <g id="text_19">
     <!-- Air Temp -->
     <g transform="translate(81.66 56.716562)scale(0.1 -0.1)">
      <use xlink:href="#DejaVuSans-65"/>
      <use x="68.408203" xlink:href="#DejaVuSans-105"/>
      <use x="96.191406" xlink:href="#DejaVuSans-114"/>
      <use x="137.304688" xlink:href="#DejaVuSans-32"/>
      <use x="169.091797" xlink:href="#DejaVuSans-84"/>
      <use x="213.175781" xlink:href="#DejaVuSans-101"/>
      <use x="274.699219" xlink:href="#DejaVuSans-109"/>
      <use x="372.111328" xlink:href="#DejaVuSans-112"/>
     </g>
    </g>
   </g>
  </g>
 </g>
 <defs>
  <clipPath id="p967c771367">
   <rect height="230.198708" width="405.34" x="44.66" y="25.44"/>
  </clipPath>
 </defs>
</svg>
