<?xml version="1.0" encoding="utf-8" standalone="no"?>
<!DOCTYPE svg PUBLIC "-//W3C//DTD SVG 1.1//EN"
  "http://www.w3.org/Graphics/SVG/1.1/DTD/svg11.dtd">
<!-- Created with matplotlib (https://matplotlib.org/) -->
<svg height="345.6pt" version="1.1" viewBox="0 0 460.8 345.6" width="460.8pt" xmlns="http://www.w3.org/2000/svg" xmlns:xlink="http://www.w3.org/1999/xlink">
 <metadata>
  <rdf:RDF xmlns:cc="http://creativecommons.org/ns#" xmlns:dc="http://purl.org/dc/elements/1.1/" xmlns:rdf="http://www.w3.org/1999/02/22-rdf-syntax-ns#">
   <cc:Work>
    <dc:type rdf:resource="http://purl.org/dc/dcmitype/StillImage"/>
    <dc:date>2024-11-19T05:55:07.146281</dc:date>
    <dc:format>image/svg+xml</dc:format>
    <dc:creator>
     <cc:Agent>
      <dc:title>Matplotlib v3.3.2, https://matplotlib.org/</dc:title>
     </cc:Agent>
    </dc:creator>
   </cc:Work>
  </rdf:RDF>
 </metadata>
 <defs>
  <style type="text/css">*{stroke-linecap:butt;stroke-linejoin:round;}</style>
 </defs>
 <g id="figure_1">
  <g id="patch_1">
   <path d="M 0 345.6 
L 460.8 345.6 
L 460.8 0 
L 0 0 
z
" style="fill:none;"/>
  </g>
  <g id="axes_1">
   <g id="patch_2">
    <path d="M 54.2 255.638708 
L 450 255.638708 
L 450 25.44 
L 54.2 25.44 
z
" style="fill:none;"/>
   </g>
   <g id="matplotlib.axis_1">
    <g id="xtick_1">
     <g id="line2d_1">
      <path clip-path="url(#pc6b2b4b233)" d="M 72.181821 255.638708 
L 72.181821 25.44 
" style="fill:none;stroke:#b0b0b0;stroke-linecap:square;stroke-width:0.8;"/>
     </g>
     <g id="line2d_2">
      <defs>
       <path d="M 0 0 
L 0 3.5 
" id="m6421466abc" style="stroke:#000000;stroke-width:0.8;"/>
      </defs>
      <g>
       <use style="stroke:#000000;stroke-width:0.8;" x="72.181821" xlink:href="#m6421466abc" y="255.638708"/>
      </g>
     </g>
     <g id="text_1">
      <!-- 2024-10-29 -->
      <g transform="translate(64.836428 319.848351)rotate(-70)scale(0.1 -0.1)">
       <defs>
        <path d="M 19.1875 8.296875 
L 53.609375 8.296875 
L 53.609375 0 
L 7.328125 0 
L 7.328125 8.296875 
Q 12.9375 14.109375 22.625 23.890625 
Q 32.328125 33.6875 34.8125 36.53125 
Q 39.546875 41.84375 41.421875 45.53125 
Q 43.3125 49.21875 43.3125 52.78125 
Q 43.3125 58.59375 39.234375 62.25 
Q 35.15625 65.921875 28.609375 65.921875 
Q 23.96875 65.921875 18.8125 64.3125 
Q 13.671875 62.703125 7.8125 59.421875 
L 7.8125 69.390625 
Q 13.765625 71.78125 18.9375 73 
Q 24.125 74.21875 28.421875 74.21875 
Q 39.75 74.21875 46.484375 68.546875 
Q 53.21875 62.890625 53.21875 53.421875 
Q 53.21875 48.921875 51.53125 44.890625 
Q 49.859375 40.875 45.40625 35.40625 
Q 44.1875 33.984375 37.640625 27.21875 
Q 31.109375 20.453125 19.1875 8.296875 
z
" id="DejaVuSans-50"/>
        <path d="M 31.78125 66.40625 
Q 24.171875 66.40625 20.328125 58.90625 
Q 16.5 51.421875 16.5 36.375 
Q 16.5 21.390625 20.328125 13.890625 
Q 24.171875 6.390625 31.78125 6.390625 
Q 39.453125 6.390625 43.28125 13.890625 
Q 47.125 21.390625 47.125 36.375 
Q 47.125 51.421875 43.28125 58.90625 
Q 39.453125 66.40625 31.78125 66.40625 
z
M 31.78125 74.21875 
Q 44.046875 74.21875 50.515625 64.515625 
Q 56.984375 54.828125 56.984375 36.375 
Q 56.984375 17.96875 50.515625 8.265625 
Q 44.046875 -1.421875 31.78125 -1.421875 
Q 19.53125 -1.421875 13.0625 8.265625 
Q 6.59375 17.96875 6.59375 36.375 
Q 6.59375 54.828125 13.0625 64.515625 
Q 19.53125 74.21875 31.78125 74.21875 
z
" id="DejaVuSans-48"/>
        <path d="M 37.796875 64.3125 
L 12.890625 25.390625 
L 37.796875 25.390625 
z
M 35.203125 72.90625 
L 47.609375 72.90625 
L 47.609375 25.390625 
L 58.015625 25.390625 
L 58.015625 17.1875 
L 47.609375 17.1875 
L 47.609375 0 
L 37.796875 0 
L 37.796875 17.1875 
L 4.890625 17.1875 
L 4.890625 26.703125 
z
" id="DejaVuSans-52"/>
        <path d="M 4.890625 31.390625 
L 31.203125 31.390625 
L 31.203125 23.390625 
L 4.890625 23.390625 
z
" id="DejaVuSans-45"/>
        <path d="M 12.40625 8.296875 
L 28.515625 8.296875 
L 28.515625 63.921875 
L 10.984375 60.40625 
L 10.984375 69.390625 
L 28.421875 72.90625 
L 38.28125 72.90625 
L 38.28125 8.296875 
L 54.390625 8.296875 
L 54.390625 0 
L 12.40625 0 
z
" id="DejaVuSans-49"/>
        <path d="M 10.984375 1.515625 
L 10.984375 10.5 
Q 14.703125 8.734375 18.5 7.8125 
Q 22.3125 6.890625 25.984375 6.890625 
Q 35.75 6.890625 40.890625 13.453125 
Q 46.046875 20.015625 46.78125 33.40625 
Q 43.953125 29.203125 39.59375 26.953125 
Q 35.25 24.703125 29.984375 24.703125 
Q 19.046875 24.703125 12.671875 31.3125 
Q 6.296875 37.9375 6.296875 49.421875 
Q 6.296875 60.640625 12.9375 67.421875 
Q 19.578125 74.21875 30.609375 74.21875 
Q 43.265625 74.21875 49.921875 64.515625 
Q 56.59375 54.828125 56.59375 36.375 
Q 56.59375 19.140625 48.40625 8.859375 
Q 40.234375 -1.421875 26.421875 -1.421875 
Q 22.703125 -1.421875 18.890625 -0.6875 
Q 15.09375 0.046875 10.984375 1.515625 
z
M 30.609375 32.421875 
Q 37.25 32.421875 41.125 36.953125 
Q 45.015625 41.5 45.015625 49.421875 
Q 45.015625 57.28125 41.125 61.84375 
Q 37.25 66.40625 30.609375 66.40625 
Q 23.96875 66.40625 20.09375 61.84375 
Q 16.21875 57.28125 16.21875 49.421875 
Q 16.21875 41.5 20.09375 36.953125 
Q 23.96875 32.421875 30.609375 32.421875 
z
" id="DejaVuSans-57"/>
       </defs>
       <use xlink:href="#DejaVuSans-50"/>
       <use x="63.623047" xlink:href="#DejaVuSans-48"/>
       <use x="127.246094" xlink:href="#DejaVuSans-50"/>
       <use x="190.869141" xlink:href="#DejaVuSans-52"/>
       <use x="254.492188" xlink:href="#DejaVuSans-45"/>
       <use x="290.576172" xlink:href="#DejaVuSans-49"/>
       <use x="354.199219" xlink:href="#DejaVuSans-48"/>
       <use x="417.822266" xlink:href="#DejaVuSans-45"/>
       <use x="453.90625" xlink:href="#DejaVuSans-50"/>
       <use x="517.529297" xlink:href="#DejaVuSans-57"/>
      </g>
     </g>
    </g>
    <g id="xtick_2">
     <g id="line2d_3">
      <path clip-path="url(#pc6b2b4b233)" d="M 122.990149 255.638708 
L 122.990149 25.44 
" style="fill:none;stroke:#b0b0b0;stroke-linecap:square;stroke-width:0.8;"/>
     </g>
     <g id="line2d_4">
      <g>
       <use style="stroke:#000000;stroke-width:0.8;" x="122.990149" xlink:href="#m6421466abc" y="255.638708"/>
      </g>
     </g>
     <g id="text_2">
      <!-- 2024-11-01 -->
      <g transform="translate(115.644756 319.848351)rotate(-70)scale(0.1 -0.1)">
       <use xlink:href="#DejaVuSans-50"/>
       <use x="63.623047" xlink:href="#DejaVuSans-48"/>
       <use x="127.246094" xlink:href="#DejaVuSans-50"/>
       <use x="190.869141" xlink:href="#DejaVuSans-52"/>
       <use x="254.492188" xlink:href="#DejaVuSans-45"/>
       <use x="290.576172" xlink:href="#DejaVuSans-49"/>
       <use x="354.199219" xlink:href="#DejaVuSans-49"/>
       <use x="417.822266" xlink:href="#DejaVuSans-45"/>
       <use x="453.90625" xlink:href="#DejaVuSans-48"/>
       <use x="517.529297" xlink:href="#DejaVuSans-49"/>
      </g>
     </g>
    </g>
    <g id="xtick_3">
     <g id="line2d_5">
      <path clip-path="url(#pc6b2b4b233)" d="M 190.734585 255.638708 
L 190.734585 25.44 
" style="fill:none;stroke:#b0b0b0;stroke-linecap:square;stroke-width:0.8;"/>
     </g>
     <g id="line2d_6">
      <g>
       <use style="stroke:#000000;stroke-width:0.8;" x="190.734585" xlink:href="#m6421466abc" y="255.638708"/>
      </g>
     </g>
     <g id="text_3">
      <!-- 2024-11-05 -->
      <g transform="translate(183.389193 319.848351)rotate(-70)scale(0.1 -0.1)">
       <defs>
        <path d="M 10.796875 72.90625 
L 49.515625 72.90625 
L 49.515625 64.59375 
L 19.828125 64.59375 
L 19.828125 46.734375 
Q 21.96875 47.46875 24.109375 47.828125 
Q 26.265625 48.1875 28.421875 48.1875 
Q 40.625 48.1875 47.75 41.5 
Q 54.890625 34.8125 54.890625 23.390625 
Q 54.890625 11.625 47.5625 5.09375 
Q 40.234375 -1.421875 26.90625 -1.421875 
Q 22.3125 -1.421875 17.546875 -0.640625 
Q 12.796875 0.140625 7.71875 1.703125 
L 7.71875 11.625 
Q 12.109375 9.234375 16.796875 8.0625 
Q 21.484375 6.890625 26.703125 6.890625 
Q 35.15625 6.890625 40.078125 11.328125 
Q 45.015625 15.765625 45.015625 23.390625 
Q 45.015625 31 40.078125 35.4375 
Q 35.15625 39.890625 26.703125 39.890625 
Q 22.75 39.890625 18.8125 39.015625 
Q 14.890625 38.140625 10.796875 36.28125 
z
" id="DejaVuSans-53"/>
       </defs>
       <use xlink:href="#DejaVuSans-50"/>
       <use x="63.623047" xlink:href="#DejaVuSans-48"/>
       <use x="127.246094" xlink:href="#DejaVuSans-50"/>
       <use x="190.869141" xlink:href="#DejaVuSans-52"/>
       <use x="254.492188" xlink:href="#DejaVuSans-45"/>
       <use x="290.576172" xlink:href="#DejaVuSans-49"/>
       <use x="354.199219" xlink:href="#DejaVuSans-49"/>
       <use x="417.822266" xlink:href="#DejaVuSans-45"/>
       <use x="453.90625" xlink:href="#DejaVuSans-48"/>
       <use x="517.529297" xlink:href="#DejaVuSans-53"/>
      </g>
     </g>
    </g>
    <g id="xtick_4">
     <g id="line2d_7">
      <path clip-path="url(#pc6b2b4b233)" d="M 258.479022 255.638708 
L 258.479022 25.44 
" style="fill:none;stroke:#b0b0b0;stroke-linecap:square;stroke-width:0.8;"/>
     </g>
     <g id="line2d_8">
      <g>
       <use style="stroke:#000000;stroke-width:0.8;" x="258.479022" xlink:href="#m6421466abc" y="255.638708"/>
      </g>
     </g>
     <g id="text_4">
      <!-- 2024-11-09 -->
      <g transform="translate(251.133629 319.848351)rotate(-70)scale(0.1 -0.1)">
       <use xlink:href="#DejaVuSans-50"/>
       <use x="63.623047" xlink:href="#DejaVuSans-48"/>
       <use x="127.246094" xlink:href="#DejaVuSans-50"/>
       <use x="190.869141" xlink:href="#DejaVuSans-52"/>
       <use x="254.492188" xlink:href="#DejaVuSans-45"/>
       <use x="290.576172" xlink:href="#DejaVuSans-49"/>
       <use x="354.199219" xlink:href="#DejaVuSans-49"/>
       <use x="417.822266" xlink:href="#DejaVuSans-45"/>
       <use x="453.90625" xlink:href="#DejaVuSans-48"/>
       <use x="517.529297" xlink:href="#DejaVuSans-57"/>
      </g>
     </g>
    </g>
    <g id="xtick_5">
     <g id="line2d_9">
      <path clip-path="url(#pc6b2b4b233)" d="M 326.223459 255.638708 
L 326.223459 25.44 
" style="fill:none;stroke:#b0b0b0;stroke-linecap:square;stroke-width:0.8;"/>
     </g>
     <g id="line2d_10">
      <g>
       <use style="stroke:#000000;stroke-width:0.8;" x="326.223459" xlink:href="#m6421466abc" y="255.638708"/>
      </g>
     </g>
     <g id="text_5">
      <!-- 2024-11-13 -->
      <g transform="translate(318.878066 319.848351)rotate(-70)scale(0.1 -0.1)">
       <defs>
        <path d="M 40.578125 39.3125 
Q 47.65625 37.796875 51.625 33 
Q 55.609375 28.21875 55.609375 21.1875 
Q 55.609375 10.40625 48.1875 4.484375 
Q 40.765625 -1.421875 27.09375 -1.421875 
Q 22.515625 -1.421875 17.65625 -0.515625 
Q 12.796875 0.390625 7.625 2.203125 
L 7.625 11.71875 
Q 11.71875 9.328125 16.59375 8.109375 
Q 21.484375 6.890625 26.8125 6.890625 
Q 36.078125 6.890625 40.9375 10.546875 
Q 45.796875 14.203125 45.796875 21.1875 
Q 45.796875 27.640625 41.28125 31.265625 
Q 36.765625 34.90625 28.71875 34.90625 
L 20.21875 34.90625 
L 20.21875 43.015625 
L 29.109375 43.015625 
Q 36.375 43.015625 40.234375 45.921875 
Q 44.09375 48.828125 44.09375 54.296875 
Q 44.09375 59.90625 40.109375 62.90625 
Q 36.140625 65.921875 28.71875 65.921875 
Q 24.65625 65.921875 20.015625 65.03125 
Q 15.375 64.15625 9.8125 62.3125 
L 9.8125 71.09375 
Q 15.4375 72.65625 20.34375 73.4375 
Q 25.25 74.21875 29.59375 74.21875 
Q 40.828125 74.21875 47.359375 69.109375 
Q 53.90625 64.015625 53.90625 55.328125 
Q 53.90625 49.265625 50.4375 45.09375 
Q 46.96875 40.921875 40.578125 39.3125 
z
" id="DejaVuSans-51"/>
       </defs>
       <use xlink:href="#DejaVuSans-50"/>
       <use x="63.623047" xlink:href="#DejaVuSans-48"/>
       <use x="127.246094" xlink:href="#DejaVuSans-50"/>
       <use x="190.869141" xlink:href="#DejaVuSans-52"/>
       <use x="254.492188" xlink:href="#DejaVuSans-45"/>
       <use x="290.576172" xlink:href="#DejaVuSans-49"/>
       <use x="354.199219" xlink:href="#DejaVuSans-49"/>
       <use x="417.822266" xlink:href="#DejaVuSans-45"/>
       <use x="453.90625" xlink:href="#DejaVuSans-49"/>
       <use x="517.529297" xlink:href="#DejaVuSans-51"/>
      </g>
     </g>
    </g>
    <g id="xtick_6">
     <g id="line2d_11">
      <path clip-path="url(#pc6b2b4b233)" d="M 393.967895 255.638708 
L 393.967895 25.44 
" style="fill:none;stroke:#b0b0b0;stroke-linecap:square;stroke-width:0.8;"/>
     </g>
     <g id="line2d_12">
      <g>
       <use style="stroke:#000000;stroke-width:0.8;" x="393.967895" xlink:href="#m6421466abc" y="255.638708"/>
      </g>
     </g>
     <g id="text_6">
      <!-- 2024-11-17 -->
      <g transform="translate(386.622502 319.848351)rotate(-70)scale(0.1 -0.1)">
       <defs>
        <path d="M 8.203125 72.90625 
L 55.078125 72.90625 
L 55.078125 68.703125 
L 28.609375 0 
L 18.3125 0 
L 43.21875 64.59375 
L 8.203125 64.59375 
z
" id="DejaVuSans-55"/>
       </defs>
       <use xlink:href="#DejaVuSans-50"/>
       <use x="63.623047" xlink:href="#DejaVuSans-48"/>
       <use x="127.246094" xlink:href="#DejaVuSans-50"/>
       <use x="190.869141" xlink:href="#DejaVuSans-52"/>
       <use x="254.492188" xlink:href="#DejaVuSans-45"/>
       <use x="290.576172" xlink:href="#DejaVuSans-49"/>
       <use x="354.199219" xlink:href="#DejaVuSans-49"/>
       <use x="417.822266" xlink:href="#DejaVuSans-45"/>
       <use x="453.90625" xlink:href="#DejaVuSans-49"/>
       <use x="517.529297" xlink:href="#DejaVuSans-55"/>
      </g>
     </g>
    </g>
    <g id="text_7">
     <!-- Date -->
     <g transform="translate(240.149219 332.158083)scale(0.1 -0.1)">
      <defs>
       <path d="M 19.671875 64.796875 
L 19.671875 8.109375 
L 31.59375 8.109375 
Q 46.6875 8.109375 53.6875 14.9375 
Q 60.6875 21.78125 60.6875 36.53125 
Q 60.6875 51.171875 53.6875 57.984375 
Q 46.6875 64.796875 31.59375 64.796875 
z
M 9.8125 72.90625 
L 30.078125 72.90625 
Q 51.265625 72.90625 61.171875 64.09375 
Q 71.09375 55.28125 71.09375 36.53125 
Q 71.09375 17.671875 61.125 8.828125 
Q 51.171875 0 30.078125 0 
L 9.8125 0 
z
" id="DejaVuSans-68"/>
       <path d="M 34.28125 27.484375 
Q 23.390625 27.484375 19.1875 25 
Q 14.984375 22.515625 14.984375 16.5 
Q 14.984375 11.71875 18.140625 8.90625 
Q 21.296875 6.109375 26.703125 6.109375 
Q 34.1875 6.109375 38.703125 11.40625 
Q 43.21875 16.703125 43.21875 25.484375 
L 43.21875 27.484375 
z
M 52.203125 31.203125 
L 52.203125 0 
L 43.21875 0 
L 43.21875 8.296875 
Q 40.140625 3.328125 35.546875 0.953125 
Q 30.953125 -1.421875 24.3125 -1.421875 
Q 15.921875 -1.421875 10.953125 3.296875 
Q 6 8.015625 6 15.921875 
Q 6 25.140625 12.171875 29.828125 
Q 18.359375 34.515625 30.609375 34.515625 
L 43.21875 34.515625 
L 43.21875 35.40625 
Q 43.21875 41.609375 39.140625 45 
Q 35.0625 48.390625 27.6875 48.390625 
Q 23 48.390625 18.546875 47.265625 
Q 14.109375 46.140625 10.015625 43.890625 
L 10.015625 52.203125 
Q 14.9375 54.109375 19.578125 55.046875 
Q 24.21875 56 28.609375 56 
Q 40.484375 56 46.34375 49.84375 
Q 52.203125 43.703125 52.203125 31.203125 
z
" id="DejaVuSans-97"/>
       <path d="M 18.3125 70.21875 
L 18.3125 54.6875 
L 36.8125 54.6875 
L 36.8125 47.703125 
L 18.3125 47.703125 
L 18.3125 18.015625 
Q 18.3125 11.328125 20.140625 9.421875 
Q 21.96875 7.515625 27.59375 7.515625 
L 36.8125 7.515625 
L 36.8125 0 
L 27.59375 0 
Q 17.1875 0 13.234375 3.875 
Q 9.28125 7.765625 9.28125 18.015625 
L 9.28125 47.703125 
L 2.6875 47.703125 
L 2.6875 54.6875 
L 9.28125 54.6875 
L 9.28125 70.21875 
z
" id="DejaVuSans-116"/>
       <path d="M 56.203125 29.59375 
L 56.203125 25.203125 
L 14.890625 25.203125 
Q 15.484375 15.921875 20.484375 11.0625 
Q 25.484375 6.203125 34.421875 6.203125 
Q 39.59375 6.203125 44.453125 7.46875 
Q 49.3125 8.734375 54.109375 11.28125 
L 54.109375 2.78125 
Q 49.265625 0.734375 44.1875 -0.34375 
Q 39.109375 -1.421875 33.890625 -1.421875 
Q 20.796875 -1.421875 13.15625 6.1875 
Q 5.515625 13.8125 5.515625 26.8125 
Q 5.515625 40.234375 12.765625 48.109375 
Q 20.015625 56 32.328125 56 
Q 43.359375 56 49.78125 48.890625 
Q 56.203125 41.796875 56.203125 29.59375 
z
M 47.21875 32.234375 
Q 47.125 39.59375 43.09375 43.984375 
Q 39.0625 48.390625 32.421875 48.390625 
Q 24.90625 48.390625 20.390625 44.140625 
Q 15.875 39.890625 15.1875 32.171875 
z
" id="DejaVuSans-101"/>
      </defs>
      <use xlink:href="#DejaVuSans-68"/>
      <use x="77.001953" xlink:href="#DejaVuSans-97"/>
      <use x="138.28125" xlink:href="#DejaVuSans-116"/>
      <use x="177.490234" xlink:href="#DejaVuSans-101"/>
     </g>
    </g>
   </g>
   <g id="matplotlib.axis_2">
    <g id="ytick_1">
     <g id="line2d_13">
      <path clip-path="url(#pc6b2b4b233)" d="M 54.2 249.904431 
L 450 249.904431 
" style="fill:none;stroke:#b0b0b0;stroke-linecap:square;stroke-width:0.8;"/>
     </g>
     <g id="line2d_14">
      <defs>
       <path d="M 0 0 
L -3.5 0 
" id="m63ad2e4791" style="stroke:#000000;stroke-width:0.8;"/>
      </defs>
      <g>
       <use style="stroke:#000000;stroke-width:0.8;" x="54.2" xlink:href="#m63ad2e4791" y="249.904431"/>
      </g>
     </g>
     <g id="text_8">
      <!-- 37.5 -->
      <g transform="translate(24.934375 253.70365)scale(0.1 -0.1)">
       <defs>
        <path d="M 10.6875 12.40625 
L 21 12.40625 
L 21 0 
L 10.6875 0 
z
" id="DejaVuSans-46"/>
       </defs>
       <use xlink:href="#DejaVuSans-51"/>
       <use x="63.623047" xlink:href="#DejaVuSans-55"/>
       <use x="127.246094" xlink:href="#DejaVuSans-46"/>
       <use x="159.033203" xlink:href="#DejaVuSans-53"/>
      </g>
     </g>
    </g>
    <g id="ytick_2">
     <g id="line2d_15">
      <path clip-path="url(#pc6b2b4b233)" d="M 54.2 220.346302 
L 450 220.346302 
" style="fill:none;stroke:#b0b0b0;stroke-linecap:square;stroke-width:0.8;"/>
     </g>
     <g id="line2d_16">
      <g>
       <use style="stroke:#000000;stroke-width:0.8;" x="54.2" xlink:href="#m63ad2e4791" y="220.346302"/>
      </g>
     </g>
     <g id="text_9">
      <!-- 40.0 -->
      <g transform="translate(24.934375 224.145521)scale(0.1 -0.1)">
       <use xlink:href="#DejaVuSans-52"/>
       <use x="63.623047" xlink:href="#DejaVuSans-48"/>
       <use x="127.246094" xlink:href="#DejaVuSans-46"/>
       <use x="159.033203" xlink:href="#DejaVuSans-48"/>
      </g>
     </g>
    </g>
    <g id="ytick_3">
     <g id="line2d_17">
      <path clip-path="url(#pc6b2b4b233)" d="M 54.2 190.788173 
L 450 190.788173 
" style="fill:none;stroke:#b0b0b0;stroke-linecap:square;stroke-width:0.8;"/>
     </g>
     <g id="line2d_18">
      <g>
       <use style="stroke:#000000;stroke-width:0.8;" x="54.2" xlink:href="#m63ad2e4791" y="190.788173"/>
      </g>
     </g>
     <g id="text_10">
      <!-- 42.5 -->
      <g transform="translate(24.934375 194.587392)scale(0.1 -0.1)">
       <use xlink:href="#DejaVuSans-52"/>
       <use x="63.623047" xlink:href="#DejaVuSans-50"/>
       <use x="127.246094" xlink:href="#DejaVuSans-46"/>
       <use x="159.033203" xlink:href="#DejaVuSans-53"/>
      </g>
     </g>
    </g>
    <g id="ytick_4">
     <g id="line2d_19">
      <path clip-path="url(#pc6b2b4b233)" d="M 54.2 161.230044 
L 450 161.230044 
" style="fill:none;stroke:#b0b0b0;stroke-linecap:square;stroke-width:0.8;"/>
     </g>
     <g id="line2d_20">
      <g>
       <use style="stroke:#000000;stroke-width:0.8;" x="54.2" xlink:href="#m63ad2e4791" y="161.230044"/>
      </g>
     </g>
     <g id="text_11">
      <!-- 45.0 -->
      <g transform="translate(24.934375 165.029263)scale(0.1 -0.1)">
       <use xlink:href="#DejaVuSans-52"/>
       <use x="63.623047" xlink:href="#DejaVuSans-53"/>
       <use x="127.246094" xlink:href="#DejaVuSans-46"/>
       <use x="159.033203" xlink:href="#DejaVuSans-48"/>
      </g>
     </g>
    </g>
    <g id="ytick_5">
     <g id="line2d_21">
      <path clip-path="url(#pc6b2b4b233)" d="M 54.2 131.671915 
L 450 131.671915 
" style="fill:none;stroke:#b0b0b0;stroke-linecap:square;stroke-width:0.8;"/>
     </g>
     <g id="line2d_22">
      <g>
       <use style="stroke:#000000;stroke-width:0.8;" x="54.2" xlink:href="#m63ad2e4791" y="131.671915"/>
      </g>
     </g>
     <g id="text_12">
      <!-- 47.5 -->
      <g transform="translate(24.934375 135.471134)scale(0.1 -0.1)">
       <use xlink:href="#DejaVuSans-52"/>
       <use x="63.623047" xlink:href="#DejaVuSans-55"/>
       <use x="127.246094" xlink:href="#DejaVuSans-46"/>
       <use x="159.033203" xlink:href="#DejaVuSans-53"/>
      </g>
     </g>
    </g>
    <g id="ytick_6">
     <g id="line2d_23">
      <path clip-path="url(#pc6b2b4b233)" d="M 54.2 102.113786 
L 450 102.113786 
" style="fill:none;stroke:#b0b0b0;stroke-linecap:square;stroke-width:0.8;"/>
     </g>
     <g id="line2d_24">
      <g>
       <use style="stroke:#000000;stroke-width:0.8;" x="54.2" xlink:href="#m63ad2e4791" y="102.113786"/>
      </g>
     </g>
     <g id="text_13">
      <!-- 50.0 -->
      <g transform="translate(24.934375 105.913005)scale(0.1 -0.1)">
       <use xlink:href="#DejaVuSans-53"/>
       <use x="63.623047" xlink:href="#DejaVuSans-48"/>
       <use x="127.246094" xlink:href="#DejaVuSans-46"/>
       <use x="159.033203" xlink:href="#DejaVuSans-48"/>
      </g>
     </g>
    </g>
    <g id="ytick_7">
     <g id="line2d_25">
      <path clip-path="url(#pc6b2b4b233)" d="M 54.2 72.555657 
L 450 72.555657 
" style="fill:none;stroke:#b0b0b0;stroke-linecap:square;stroke-width:0.8;"/>
     </g>
     <g id="line2d_26">
      <g>
       <use style="stroke:#000000;stroke-width:0.8;" x="54.2" xlink:href="#m63ad2e4791" y="72.555657"/>
      </g>
     </g>
     <g id="text_14">
      <!-- 52.5 -->
      <g transform="translate(24.934375 76.354876)scale(0.1 -0.1)">
       <use xlink:href="#DejaVuSans-53"/>
       <use x="63.623047" xlink:href="#DejaVuSans-50"/>
       <use x="127.246094" xlink:href="#DejaVuSans-46"/>
       <use x="159.033203" xlink:href="#DejaVuSans-53"/>
      </g>
     </g>
    </g>
    <g id="ytick_8">
     <g id="line2d_27">
      <path clip-path="url(#pc6b2b4b233)" d="M 54.2 42.997529 
L 450 42.997529 
" style="fill:none;stroke:#b0b0b0;stroke-linecap:square;stroke-width:0.8;"/>
     </g>
     <g id="line2d_28">
      <g>
       <use style="stroke:#000000;stroke-width:0.8;" x="54.2" xlink:href="#m63ad2e4791" y="42.997529"/>
      </g>
     </g>
     <g id="text_15">
      <!-- 55.0 -->
      <g transform="translate(24.934375 46.796747)scale(0.1 -0.1)">
       <use xlink:href="#DejaVuSans-53"/>
       <use x="63.623047" xlink:href="#DejaVuSans-53"/>
       <use x="127.246094" xlink:href="#DejaVuSans-46"/>
       <use x="159.033203" xlink:href="#DejaVuSans-48"/>
      </g>
     </g>
    </g>
    <g id="text_16">
     <!-- Temperature [F] -->
     <g transform="translate(18.854688 180.575291)rotate(-90)scale(0.1 -0.1)">
      <defs>
       <path d="M -0.296875 72.90625 
L 61.375 72.90625 
L 61.375 64.59375 
L 35.5 64.59375 
L 35.5 0 
L 25.59375 0 
L 25.59375 64.59375 
L -0.296875 64.59375 
z
" id="DejaVuSans-84"/>
       <path d="M 52 44.1875 
Q 55.375 50.25 60.0625 53.125 
Q 64.75 56 71.09375 56 
Q 79.640625 56 84.28125 50.015625 
Q 88.921875 44.046875 88.921875 33.015625 
L 88.921875 0 
L 79.890625 0 
L 79.890625 32.71875 
Q 79.890625 40.578125 77.09375 44.375 
Q 74.3125 48.1875 68.609375 48.1875 
Q 61.625 48.1875 57.5625 43.546875 
Q 53.515625 38.921875 53.515625 30.90625 
L 53.515625 0 
L 44.484375 0 
L 44.484375 32.71875 
Q 44.484375 40.625 41.703125 44.40625 
Q 38.921875 48.1875 33.109375 48.1875 
Q 26.21875 48.1875 22.15625 43.53125 
Q 18.109375 38.875 18.109375 30.90625 
L 18.109375 0 
L 9.078125 0 
L 9.078125 54.6875 
L 18.109375 54.6875 
L 18.109375 46.1875 
Q 21.1875 51.21875 25.484375 53.609375 
Q 29.78125 56 35.6875 56 
Q 41.65625 56 45.828125 52.96875 
Q 50 49.953125 52 44.1875 
z
" id="DejaVuSans-109"/>
       <path d="M 18.109375 8.203125 
L 18.109375 -20.796875 
L 9.078125 -20.796875 
L 9.078125 54.6875 
L 18.109375 54.6875 
L 18.109375 46.390625 
Q 20.953125 51.265625 25.265625 53.625 
Q 29.59375 56 35.59375 56 
Q 45.5625 56 51.78125 48.09375 
Q 58.015625 40.1875 58.015625 27.296875 
Q 58.015625 14.40625 51.78125 6.484375 
Q 45.5625 -1.421875 35.59375 -1.421875 
Q 29.59375 -1.421875 25.265625 0.953125 
Q 20.953125 3.328125 18.109375 8.203125 
z
M 48.6875 27.296875 
Q 48.6875 37.203125 44.609375 42.84375 
Q 40.53125 48.484375 33.40625 48.484375 
Q 26.265625 48.484375 22.1875 42.84375 
Q 18.109375 37.203125 18.109375 27.296875 
Q 18.109375 17.390625 22.1875 11.75 
Q 26.265625 6.109375 33.40625 6.109375 
Q 40.53125 6.109375 44.609375 11.75 
Q 48.6875 17.390625 48.6875 27.296875 
z
" id="DejaVuSans-112"/>
       <path d="M 41.109375 46.296875 
Q 39.59375 47.171875 37.8125 47.578125 
Q 36.03125 48 33.890625 48 
Q 26.265625 48 22.1875 43.046875 
Q 18.109375 38.09375 18.109375 28.8125 
L 18.109375 0 
L 9.078125 0 
L 9.078125 54.6875 
L 18.109375 54.6875 
L 18.109375 46.1875 
Q 20.953125 51.171875 25.484375 53.578125 
Q 30.03125 56 36.53125 56 
Q 37.453125 56 38.578125 55.875 
Q 39.703125 55.765625 41.0625 55.515625 
z
" id="DejaVuSans-114"/>
       <path d="M 8.5 21.578125 
L 8.5 54.6875 
L 17.484375 54.6875 
L 17.484375 21.921875 
Q 17.484375 14.15625 20.5 10.265625 
Q 23.53125 6.390625 29.59375 6.390625 
Q 36.859375 6.390625 41.078125 11.03125 
Q 45.3125 15.671875 45.3125 23.6875 
L 45.3125 54.6875 
L 54.296875 54.6875 
L 54.296875 0 
L 45.3125 0 
L 45.3125 8.40625 
Q 42.046875 3.421875 37.71875 1 
Q 33.40625 -1.421875 27.6875 -1.421875 
Q 18.265625 -1.421875 13.375 4.4375 
Q 8.5 10.296875 8.5 21.578125 
z
M 31.109375 56 
z
" id="DejaVuSans-117"/>
       <path id="DejaVuSans-32"/>
       <path d="M 8.59375 75.984375 
L 29.296875 75.984375 
L 29.296875 69 
L 17.578125 69 
L 17.578125 -6.203125 
L 29.296875 -6.203125 
L 29.296875 -13.1875 
L 8.59375 -13.1875 
z
" id="DejaVuSans-91"/>
       <path d="M 9.8125 72.90625 
L 51.703125 72.90625 
L 51.703125 64.59375 
L 19.671875 64.59375 
L 19.671875 43.109375 
L 48.578125 43.109375 
L 48.578125 34.8125 
L 19.671875 34.8125 
L 19.671875 0 
L 9.8125 0 
z
" id="DejaVuSans-70"/>
       <path d="M 30.421875 75.984375 
L 30.421875 -13.1875 
L 9.71875 -13.1875 
L 9.71875 -6.203125 
L 21.390625 -6.203125 
L 21.390625 69 
L 9.71875 69 
L 9.71875 75.984375 
z
" id="DejaVuSans-93"/>
      </defs>
      <use xlink:href="#DejaVuSans-84"/>
      <use x="44.083984" xlink:href="#DejaVuSans-101"/>
      <use x="105.607422" xlink:href="#DejaVuSans-109"/>
      <use x="203.019531" xlink:href="#DejaVuSans-112"/>
      <use x="266.496094" xlink:href="#DejaVuSans-101"/>
      <use x="328.019531" xlink:href="#DejaVuSans-114"/>
      <use x="369.132812" xlink:href="#DejaVuSans-97"/>
      <use x="430.412109" xlink:href="#DejaVuSans-116"/>
      <use x="469.621094" xlink:href="#DejaVuSans-117"/>
      <use x="533" xlink:href="#DejaVuSans-114"/>
      <use x="571.863281" xlink:href="#DejaVuSans-101"/>
      <use x="633.386719" xlink:href="#DejaVuSans-32"/>
      <use x="665.173828" xlink:href="#DejaVuSans-91"/>
      <use x="704.1875" xlink:href="#DejaVuSans-70"/>
      <use x="761.707031" xlink:href="#DejaVuSans-93"/>
     </g>
    </g>
   </g>
   <g id="line2d_29">
    <path clip-path="url(#pc6b2b4b233)" d="M 72.190909 41.815203 
L 72.314002 41.815203 
L 72.326168 40.632878 
L 72.424156 41.815203 
L 72.509995 41.815203 
L 72.522758 42.997529 
L 72.620628 41.815203 
L 72.916561 41.815203 
L 73.038339 42.997529 
L 73.124212 42.997529 
L 73.221537 41.815203 
L 73.233964 42.997529 
L 73.258294 42.997529 
L 73.344727 41.815203 
L 73.369096 42.997529 
L 73.554088 42.997529 
L 73.668739 45.362179 
L 73.717481 42.997529 
L 73.766407 45.362179 
L 73.872037 45.362179 
L 73.896864 42.997529 
L 73.971122 45.362179 
L 74.020191 45.362179 
L 74.118641 42.997529 
L 74.131046 45.362179 
L 74.143573 45.362179 
L 74.242066 42.997529 
L 74.25425 45.362179 
L 74.266735 45.362179 
L 74.378543 42.997529 
L 74.501985 42.997529 
L 74.51426 45.362179 
L 74.612477 42.997529 
L 74.848119 42.997529 
L 74.897258 45.362179 
L 74.947075 42.997529 
L 74.996413 42.997529 
L 75.083051 45.362179 
L 75.095218 42.997529 
L 75.306779 42.997529 
L 75.405836 45.362179 
L 75.517136 42.997529 
L 75.615819 45.362179 
L 75.703051 42.997529 
L 75.715256 45.362179 
L 75.790257 45.362179 
L 75.853036 42.997529 
L 75.890315 45.362179 
L 75.953482 45.362179 
L 75.966525 42.997529 
L 76.056532 45.362179 
L 76.069782 45.362179 
L 76.146101 42.997529 
L 76.170827 45.362179 
L 76.221446 45.362179 
L 76.233612 42.997529 
L 76.258534 45.362179 
L 76.358252 45.362179 
L 76.395038 42.997529 
L 76.459305 45.362179 
L 76.52149 45.362179 
L 76.595735 42.997529 
L 76.62044 45.362179 
L 76.707087 45.362179 
L 76.768991 42.997529 
L 76.806527 45.362179 
L 77.169839 45.362179 
L 77.289389 46.544504 
L 77.326024 45.362179 
L 77.399266 46.544504 
L 77.81673 46.544504 
L 77.8912 47.726829 
L 77.916979 46.544504 
L 78.372587 46.544504 
L 78.409098 45.362179 
L 78.482811 46.544504 
L 78.833493 46.544504 
L 78.845906 45.362179 
L 78.933536 46.544504 
L 78.945928 46.544504 
L 78.958108 45.362179 
L 79.045457 46.544504 
L 79.05762 46.544504 
L 79.144159 45.362179 
L 79.168713 46.544504 
L 79.192977 46.544504 
L 79.316179 45.362179 
L 79.353536 45.362179 
L 79.476464 42.997529 
L 79.600143 42.997529 
L 79.61235 41.815203 
L 79.711128 42.997529 
L 79.751022 42.997529 
L 79.850936 41.815203 
L 79.974998 42.997529 
L 80.023966 42.997529 
L 80.036247 41.815203 
L 80.134238 42.997529 
L 80.370697 42.997529 
L 80.419644 41.815203 
L 80.481578 42.997529 
L 80.518424 42.997529 
L 80.629092 41.815203 
L 81.003259 41.815203 
L 81.555301 40.632878 
L 81.801492 40.632878 
L 81.91325 39.450553 
L 82.324926 39.450553 
L 82.438008 38.268228 
L 82.536317 38.268228 
L 82.659495 35.903578 
L 82.672105 35.903578 
L 82.794945 37.085903 
L 83.117718 37.085903 
L 83.12992 35.903578 
L 83.228194 37.085903 
L 83.252643 37.085903 
L 83.375644 35.903578 
L 83.41215 35.903578 
L 83.524736 38.268228 
L 83.561318 38.268228 
L 83.573726 37.085903 
L 83.660914 38.268228 
L 83.850386 38.268228 
L 83.948276 39.450553 
L 83.960899 38.268228 
L 83.997977 38.268228 
L 84.113236 39.450553 
L 84.386621 39.450553 
L 84.487071 40.632878 
L 84.548687 39.450553 
L 84.598079 40.632878 
L 84.796246 40.632878 
L 84.808412 39.450553 
L 84.897187 40.632878 
L 85.221804 40.632878 
L 85.335814 41.815203 
L 85.389246 41.815203 
L 85.438601 40.632878 
L 85.489327 41.815203 
L 85.703789 41.815203 
L 85.815109 42.997529 
L 85.889901 41.815203 
L 85.915454 42.997529 
L 85.940926 42.997529 
L 85.954174 41.815203 
L 86.040501 42.997529 
L 86.153105 42.997529 
L 86.165374 45.362179 
L 86.22985 42.997529 
L 86.355831 42.997529 
L 86.469001 45.362179 
L 86.505645 45.362179 
L 86.59244 42.997529 
L 86.605166 45.362179 
L 86.617717 45.362179 
L 86.654207 42.997529 
L 86.728804 45.362179 
L 86.975308 45.362179 
L 86.987501 46.544504 
L 87.085782 45.362179 
L 87.82915 45.362179 
L 87.940631 46.544504 
L 88.051873 45.362179 
L 88.128832 46.544504 
L 88.153544 45.362179 
L 88.21547 45.362179 
L 88.327589 46.544504 
L 88.376973 46.544504 
L 88.389096 45.362179 
L 88.475889 46.544504 
L 88.513947 46.544504 
L 88.629765 45.362179 
L 88.669088 45.362179 
L 88.784649 46.544504 
L 88.971441 46.544504 
L 89.045504 45.362179 
L 89.082127 46.544504 
L 89.353901 46.544504 
L 89.366631 47.726829 
L 89.453673 46.544504 
L 89.590567 46.544504 
L 89.602943 47.726829 
L 89.701484 46.544504 
L 89.885894 46.544504 
L 89.910842 47.726829 
L 89.985547 46.544504 
L 90.022 46.544504 
L 90.121359 47.726829 
L 90.208713 46.544504 
L 90.22088 47.726829 
L 90.281854 47.726829 
L 90.294099 46.544504 
L 90.392097 47.726829 
L 90.429194 47.726829 
L 90.454174 46.544504 
L 90.527508 47.726829 
L 90.567418 47.726829 
L 90.653608 46.544504 
L 90.678173 47.726829 
L 90.69078 46.544504 
L 90.78279 47.726829 
L 90.94417 47.726829 
L 91.054682 48.909154 
L 91.176666 47.726829 
L 91.189036 47.726829 
L 91.302886 48.909154 
L 91.352226 48.909154 
L 91.390401 47.726829 
L 91.452029 48.909154 
L 91.948103 48.909154 
L 91.997282 50.09148 
L 92.059104 48.909154 
L 92.071267 48.909154 
L 92.182662 50.09148 
L 92.194833 48.909154 
L 92.281866 50.09148 
L 92.294154 50.09148 
L 92.405435 48.909154 
L 92.528878 50.09148 
L 92.684944 50.09148 
L 92.750284 48.909154 
L 92.812698 48.909154 
L 92.884527 50.09148 
L 92.91295 48.909154 
L 92.990993 48.909154 
L 93.108174 50.09148 
L 93.168438 50.09148 
L 93.269218 48.909154 
L 93.357447 50.09148 
L 93.888302 50.09148 
L 94.004263 51.273805 
L 94.187498 51.273805 
L 94.212248 52.45613 
L 94.291689 51.273805 
L 94.360446 51.273805 
L 94.412013 52.45613 
L 94.460988 51.273805 
L 94.473125 51.273805 
L 94.5964 52.45613 
L 94.769644 52.45613 
L 94.867777 51.273805 
L 94.879983 52.45613 
L 95.151403 52.45613 
L 95.274335 51.273805 
L 95.286485 51.273805 
L 95.398914 52.45613 
L 95.510305 52.45613 
L 95.624558 51.273805 
L 95.767093 51.273805 
L 95.867799 52.45613 
L 95.989678 51.273805 
L 96.665115 51.273805 
L 96.67741 52.45613 
L 96.76555 51.273805 
L 96.941881 51.273805 
L 96.954515 52.45613 
L 97.044955 51.273805 
L 97.209045 51.273805 
L 97.221416 52.45613 
L 97.312027 51.273805 
L 97.373733 51.273805 
L 97.386623 50.09148 
L 97.484564 51.273805 
L 97.6443 51.273805 
L 97.65648 52.45613 
L 97.754705 51.273805 
L 98.061228 51.273805 
L 98.090632 52.45613 
L 98.168005 51.273805 
L 98.940891 52.45613 
L 99.757629 52.45613 
L 99.770003 51.273805 
L 99.857917 52.45613 
L 100.689075 52.45613 
L 100.750415 54.82078 
L 100.799294 52.45613 
L 100.823577 52.45613 
L 100.835885 54.82078 
L 100.922723 52.45613 
L 101.058006 52.45613 
L 101.156167 54.82078 
L 101.168331 52.45613 
L 101.205124 52.45613 
L 101.304259 54.82078 
L 101.417031 52.45613 
L 101.503619 54.82078 
L 101.516154 52.45613 
L 101.528355 52.45613 
L 101.602498 54.82078 
L 101.614652 52.45613 
L 101.816441 52.45613 
L 101.913909 54.82078 
L 101.927716 52.45613 
L 102.023791 54.82078 
L 102.048875 54.82078 
L 102.900167 56.003105 
L 103.014772 56.003105 
L 103.064145 57.18543 
L 103.472345 56.003105 
L 103.588242 57.18543 
L 103.714419 56.003105 
L 103.766496 57.18543 
L 103.817232 56.003105 
L 103.892977 56.003105 
L 103.931534 57.18543 
L 103.993869 56.003105 
L 104.071752 56.003105 
L 104.194648 57.18543 
L 104.207479 57.18543 
L 104.260015 56.003105 
L 104.309475 57.18543 
L 104.725835 57.18543 
L 104.827162 58.367756 
L 104.938967 57.18543 
L 104.964805 57.18543 
L 105.076183 58.367756 
L 105.198506 57.18543 
L 105.23577 58.367756 
L 105.297501 57.18543 
L 105.32184 57.18543 
L 105.370616 58.367756 
L 105.431985 57.18543 
L 105.456316 57.18543 
L 105.578727 58.367756 
L 105.591208 58.367756 
L 105.700841 57.18543 
L 105.815341 58.367756 
L 105.843562 58.367756 
L 105.955006 59.550081 
L 106.004742 59.550081 
L 106.054796 58.367756 
L 106.103908 59.550081 
L 106.166164 59.550081 
L 106.190935 60.732406 
L 106.203068 58.367756 
L 106.252235 58.367756 
L 106.35096 58.367756 
L 106.363123 59.550081 
L 106.460799 58.367756 
L 106.729479 58.367756 
L 106.790827 60.732406 
L 106.846023 59.550081 
L 106.968447 58.367756 
L 107.102871 58.367756 
L 107.224582 59.550081 
L 107.334793 58.367756 
L 107.346949 59.550081 
L 107.444409 58.367756 
L 107.456554 58.367756 
L 107.609025 59.550081 
L 107.621589 59.550081 
L 107.633912 58.367756 
L 107.728179 59.550081 
L 107.767967 59.550081 
L 107.793216 60.732406 
L 107.817671 58.367756 
L 107.854601 59.550081 
L 107.903935 58.367756 
L 107.953848 59.550081 
L 108.532768 59.550081 
L 108.557273 60.732406 
L 108.631671 59.550081 
L 108.768065 59.550081 
L 108.893263 61.914731 
L 109.006726 60.732406 
L 109.019068 61.914731 
L 109.105888 60.732406 
L 109.443109 60.732406 
L 109.556228 61.914731 
L 109.584861 61.914731 
L 109.707403 63.097056 
L 109.82637 60.732406 
L 109.923509 60.732406 
L 110.037975 61.914731 
L 110.349623 61.914731 
L 110.36367 60.732406 
L 110.456154 61.914731 
L 110.548261 61.914731 
L 110.674445 60.732406 
L 111.018109 60.732406 
L 111.058021 59.550081 
L 111.120115 60.732406 
L 111.391987 60.732406 
L 111.40472 61.914731 
L 111.501471 60.732406 
L 111.809285 60.732406 
L 111.822632 61.914731 
L 111.907541 60.732406 
L 112.036488 60.732406 
L 112.162939 61.914731 
L 112.220033 61.914731 
L 112.291006 60.732406 
L 112.304493 61.914731 
L 112.427911 60.732406 
L 112.537576 61.914731 
L 112.551705 61.914731 
L 112.668561 60.732406 
L 112.707507 60.732406 
L 112.808555 61.914731 
L 112.920961 60.732406 
L 112.946977 60.732406 
L 113.053402 61.914731 
L 113.143541 60.732406 
L 113.155664 61.914731 
L 113.235377 61.914731 
L 113.347217 60.732406 
L 113.73001 60.732406 
L 113.845022 59.550081 
L 114.292201 59.550081 
L 114.41513 58.367756 
L 114.427267 58.367756 
L 114.439451 59.550081 
L 114.535343 58.367756 
L 114.548459 58.367756 
L 114.560812 59.550081 
L 114.658454 58.367756 
L 114.922474 58.367756 
L 115.03825 57.18543 
L 115.050654 57.18543 
L 115.160895 58.367756 
L 115.284781 57.18543 
L 115.359453 57.18543 
L 115.371664 56.003105 
L 115.458639 57.18543 
L 115.470845 57.18543 
L 115.56962 56.003105 
L 115.581909 57.18543 
L 115.594079 57.18543 
L 115.691986 56.003105 
L 115.70455 57.18543 
L 115.730123 57.18543 
L 115.841448 56.003105 
L 115.955706 56.003105 
L 116.067907 54.82078 
L 116.129568 54.82078 
L 116.241601 52.45613 
L 116.254457 52.45613 
L 116.279348 54.82078 
L 116.354012 52.45613 
L 116.428384 52.45613 
L 116.453543 54.82078 
L 116.779512 54.82078 
L 116.8353 52.45613 
L 116.849286 54.82078 
L 116.896968 54.82078 
L 117.013907 52.45613 
L 117.041628 52.45613 
L 117.138888 54.82078 
L 117.151098 52.45613 
L 117.224172 52.45613 
L 117.336937 56.003105 
L 117.453796 54.82078 
L 117.555094 56.003105 
L 117.606812 56.003105 
L 117.700817 54.82078 
L 117.716161 56.003105 
L 117.728347 56.003105 
L 117.78356 54.82078 
L 117.823327 56.003105 
L 117.904411 56.003105 
L 117.916575 54.82078 
L 118.003485 56.003105 
L 118.277915 56.003105 
L 118.390445 57.18543 
L 118.476638 56.003105 
L 118.501168 57.18543 
L 118.821789 57.18543 
L 118.834311 58.367756 
L 118.931847 57.18543 
L 118.944791 57.18543 
L 118.969394 58.367756 
L 119.044436 57.18543 
L 119.220259 57.18543 
L 119.299184 58.367756 
L 119.325824 57.18543 
L 119.436953 57.18543 
L 119.560562 58.367756 
L 119.572766 57.18543 
L 119.671332 58.367756 
L 120.081164 58.367756 
L 120.093765 59.550081 
L 120.181119 58.367756 
L 120.268072 58.367756 
L 120.383415 59.550081 
L 120.703649 59.550081 
L 120.716228 58.367756 
L 120.814368 59.550081 
L 121.007719 59.550081 
L 121.071144 60.732406 
L 121.108413 59.550081 
L 121.146334 59.550081 
L 121.26107 60.732406 
L 121.375283 59.550081 
L 121.387969 59.550081 
L 121.50459 60.732406 
L 121.529806 60.732406 
L 121.633251 59.550081 
L 121.645782 60.732406 
L 121.734094 59.550081 
L 121.795687 59.550081 
L 121.910433 60.732406 
L 121.934831 60.732406 
L 122.058516 59.550081 
L 122.070751 59.550081 
L 122.183201 60.732406 
L 122.195481 60.732406 
L 122.207745 59.550081 
L 122.294648 60.732406 
L 122.40954 60.732406 
L 122.521749 61.914731 
L 122.877037 61.914731 
L 122.990405 60.732406 
L 123.065516 60.732406 
L 123.077981 61.914731 
L 123.164393 60.732406 
L 123.226135 60.732406 
L 123.312449 61.914731 
L 123.336698 60.732406 
L 123.434453 60.732406 
L 123.545774 61.914731 
L 123.682305 61.914731 
L 123.792626 63.097056 
L 123.903484 61.914731 
L 124.525473 61.914731 
L 124.537716 60.732406 
L 124.629596 61.914731 
L 124.761762 61.914731 
L 124.861953 63.097056 
L 124.973455 61.914731 
L 125.08765 63.097056 
L 125.199237 61.914731 
L 125.224157 61.914731 
L 125.334976 63.097056 
L 125.421958 63.097056 
L 125.534355 64.279381 
L 125.546525 64.279381 
L 125.658209 63.097056 
L 125.818812 63.097056 
L 125.830979 64.279381 
L 125.929557 63.097056 
L 126.003619 63.097056 
L 126.027972 64.279381 
L 126.10273 63.097056 
L 126.176042 63.097056 
L 126.261875 64.279381 
L 126.286784 63.097056 
L 126.385522 63.097056 
L 126.483915 64.279381 
L 126.496061 63.097056 
L 126.608531 64.279381 
L 126.843922 64.279381 
L 126.967907 63.097056 
L 127.005159 63.097056 
L 127.115543 64.279381 
L 127.226802 63.097056 
L 127.338592 64.279381 
L 127.585502 64.279381 
L 127.597815 66.644032 
L 127.676792 64.279381 
L 128.07401 64.279381 
L 128.0871 66.644032 
L 128.178363 64.279381 
L 128.216543 64.279381 
L 128.3263 66.644032 
L 128.448941 64.279381 
L 128.682788 64.279381 
L 128.805916 66.644032 
L 128.940721 66.644032 
L 129.051802 67.826357 
L 129.076251 67.826357 
L 129.186415 66.644032 
L 129.238622 66.644032 
L 129.250929 67.826357 
L 129.340731 66.644032 
L 129.417427 64.279381 
L 129.430051 66.644032 
L 129.868961 66.644032 
L 129.971388 64.279381 
L 130.088018 66.644032 
L 130.201321 64.279381 
L 130.318221 66.644032 
L 130.437183 64.279381 
L 130.451173 64.279381 
L 130.542534 66.644032 
L 130.556965 64.279381 
L 130.571097 64.279381 
L 130.600207 66.644032 
L 130.666207 64.279381 
L 130.701971 64.279381 
L 130.823947 66.644032 
L 130.945894 64.279381 
L 130.959159 66.644032 
L 131.056608 64.279381 
L 131.211965 64.279381 
L 131.327264 63.097056 
L 131.440098 64.279381 
L 131.557428 63.097056 
L 131.623352 63.097056 
L 131.74018 64.279381 
L 131.862612 63.097056 
L 131.950123 64.279381 
L 131.963191 63.097056 
L 132.06382 64.279381 
L 132.176547 63.097056 
L 132.288848 64.279381 
L 132.337731 64.279381 
L 132.412478 63.097056 
L 132.437772 64.279381 
L 133.369981 64.279381 
L 133.407438 63.097056 
L 133.473793 64.279381 
L 133.77792 64.279381 
L 133.790479 66.644032 
L 133.877905 64.279381 
L 134.223752 64.279381 
L 134.272698 66.644032 
L 134.310228 64.279381 
L 134.792133 64.279381 
L 134.804739 63.097056 
L 134.891686 64.279381 
L 135.264139 64.279381 
L 135.353195 66.644032 
L 135.365356 64.279381 
L 135.493818 64.279381 
L 135.542679 66.644032 
L 135.581138 64.279381 
L 135.609235 64.279381 
L 135.721689 66.644032 
L 135.820867 66.644032 
L 135.833405 64.279381 
L 135.921526 66.644032 
L 136.254093 66.644032 
L 136.266458 64.279381 
L 136.354019 66.644032 
L 136.416442 66.644032 
L 136.429028 64.279381 
L 136.519222 66.644032 
L 137.451825 66.644032 
L 137.476206 67.826357 
L 137.56292 66.644032 
L 137.744003 66.644032 
L 137.88889 67.826357 
L 137.911394 66.644032 
L 137.979161 67.826357 
L 138.370303 67.826357 
L 138.448612 66.644032 
L 138.585875 67.826357 
L 138.598397 66.644032 
L 138.69643 67.826357 
L 138.831076 67.826357 
L 138.843321 69.008682 
L 138.930395 67.826357 
L 138.967008 67.826357 
L 139.052514 66.644032 
L 139.076945 67.826357 
L 139.313221 67.826357 
L 139.435901 69.008682 
L 139.548834 67.826357 
L 139.697332 67.826357 
L 139.807279 69.008682 
L 139.882036 67.826357 
L 139.906821 69.008682 
L 139.980382 69.008682 
L 139.992515 67.826357 
L 140.079272 69.008682 
L 140.091837 69.008682 
L 140.214678 67.826357 
L 140.33736 69.008682 
L 140.865255 69.008682 
L 140.963102 70.191007 
L 140.97524 69.008682 
L 141.257726 69.008682 
L 141.270093 70.191007 
L 141.331284 69.008682 
L 141.371277 69.008682 
L 141.383773 70.191007 
L 141.482145 69.008682 
L 141.548127 69.008682 
L 141.660827 70.191007 
L 141.734656 70.191007 
L 141.857611 69.008682 
L 141.919282 70.191007 
L 141.968034 69.008682 
L 142.225817 69.008682 
L 142.262846 70.191007 
L 142.336429 69.008682 
L 142.484286 69.008682 
L 142.584207 70.191007 
L 142.707174 69.008682 
L 142.756575 69.008682 
L 142.842995 70.191007 
L 142.855261 69.008682 
L 142.86803 69.008682 
L 142.990998 70.191007 
L 143.015487 70.191007 
L 143.126485 69.008682 
L 143.151199 69.008682 
L 143.200515 70.191007 
L 143.261618 69.008682 
L 143.273832 69.008682 
L 143.385227 70.191007 
L 143.410477 70.191007 
L 143.422719 69.008682 
L 143.52019 70.191007 
L 143.974196 70.191007 
L 143.986984 69.008682 
L 144.074199 70.191007 
L 144.285282 70.191007 
L 144.397393 71.373332 
L 144.473675 70.191007 
L 144.499607 71.373332 
L 144.524628 71.373332 
L 144.537111 70.191007 
L 144.625437 71.373332 
L 145.256916 71.373332 
L 145.366667 70.191007 
L 145.489275 71.373332 
L 145.501839 71.373332 
L 145.613651 70.191007 
L 145.674626 70.191007 
L 145.7118 71.373332 
L 145.784921 70.191007 
L 146.15717 70.191007 
L 146.169337 71.373332 
L 146.256609 70.191007 
L 147.121276 70.191007 
L 147.186861 69.008682 
L 147.223469 70.191007 
L 147.235809 70.191007 
L 147.346666 69.008682 
L 147.396813 70.191007 
L 147.446118 69.008682 
L 147.97868 69.008682 
L 148.016232 67.826357 
L 148.078803 69.008682 
L 148.103132 69.008682 
L 148.165058 67.826357 
L 148.202175 69.008682 
L 148.214377 69.008682 
L 148.238986 67.826357 
L 148.324492 69.008682 
L 148.364439 69.008682 
L 148.37684 67.826357 
L 148.463545 69.008682 
L 148.475712 69.008682 
L 148.587673 67.826357 
L 148.637486 67.826357 
L 148.759708 66.644032 
L 148.846861 67.826357 
L 148.859539 66.644032 
L 148.958189 66.644032 
L 148.970588 67.826357 
L 149.069181 66.644032 
L 149.242249 66.644032 
L 149.354815 64.279381 
L 149.617088 64.279381 
L 149.716551 63.097056 
L 149.728732 64.279381 
L 149.815201 63.097056 
L 149.928109 61.914731 
L 150.038447 63.097056 
L 150.051456 63.097056 
L 150.174419 61.914731 
L 150.333853 61.914731 
L 150.347129 63.097056 
L 150.433833 61.914731 
L 150.507752 61.914731 
L 150.630984 63.097056 
L 150.655484 63.097056 
L 150.766803 61.914731 
L 150.805663 61.914731 
L 150.928418 63.097056 
L 150.952797 63.097056 
L 150.96508 61.914731 
L 151.062945 63.097056 
L 151.371638 63.097056 
L 151.384233 64.279381 
L 151.470542 63.097056 
L 151.607654 63.097056 
L 151.718044 64.279381 
L 151.840682 63.097056 
L 151.865216 63.097056 
L 151.978066 64.279381 
L 152.089994 64.279381 
L 152.102172 63.097056 
L 152.200755 64.279381 
L 152.274356 64.279381 
L 152.335734 63.097056 
L 152.385014 64.279381 
L 152.964987 64.279381 
L 153.088556 66.644032 
L 153.125252 66.644032 
L 153.248102 64.279381 
L 153.298198 66.644032 
L 153.347216 64.279381 
L 153.359458 64.279381 
L 153.48343 66.644032 
L 153.495755 66.644032 
L 153.509007 64.279381 
L 153.595458 66.644032 
L 153.933371 66.644032 
L 153.958304 67.826357 
L 154.043978 66.644032 
L 154.155558 66.644032 
L 154.243594 67.826357 
L 154.256585 66.644032 
L 154.307247 66.644032 
L 154.406646 67.826357 
L 154.529132 66.644032 
L 154.642503 67.826357 
L 154.903486 67.826357 
L 154.915627 69.008682 
L 155.014347 67.826357 
L 155.03874 67.826357 
L 155.150191 69.008682 
L 155.162384 67.826357 
L 155.261267 69.008682 
L 155.298471 69.008682 
L 155.310637 67.826357 
L 155.39707 69.008682 
L 155.410335 70.191007 
L 155.496911 69.008682 
L 155.509078 69.008682 
L 155.583302 70.191007 
L 155.608397 69.008682 
L 155.620775 69.008682 
L 155.64513 70.191007 
L 155.719613 69.008682 
L 156.177174 69.008682 
L 156.251283 67.826357 
L 156.275607 69.008682 
L 156.350399 69.008682 
L 156.363176 67.826357 
L 156.46124 69.008682 
L 156.707569 69.008682 
L 156.830938 70.191007 
L 156.873996 70.191007 
L 156.996557 69.008682 
L 157.008742 69.008682 
L 157.107819 70.191007 
L 157.207577 69.008682 
L 157.245397 70.191007 
L 157.307183 69.008682 
L 157.370443 69.008682 
L 157.382975 70.191007 
L 157.469568 69.008682 
L 157.592897 69.008682 
L 157.69192 70.191007 
L 157.804857 69.008682 
L 157.891057 69.008682 
L 157.903235 70.191007 
L 158.001697 69.008682 
L 158.237376 69.008682 
L 158.249636 70.191007 
L 158.261853 69.008682 
L 157.568566 69.008682 
L 157.630592 69.008682 
L 157.742352 70.191007 
L 157.804665 70.191007 
L 157.903773 69.008682 
L 158.026742 70.191007 
L 158.076118 70.191007 
L 158.13751 69.008682 
L 158.18644 70.191007 
L 158.272631 70.191007 
L 158.313432 69.008682 
L 158.375041 70.191007 
L 158.859879 70.191007 
L 158.946129 69.008682 
L 158.970662 70.191007 
L 159.390895 70.191007 
L 159.513551 69.008682 
L 159.636223 70.191007 
L 159.648371 70.191007 
L 159.771234 69.008682 
L 159.882342 70.191007 
L 159.944102 70.191007 
L 160.057145 69.008682 
L 160.168875 70.191007 
L 160.193523 69.008682 
L 160.27971 70.191007 
L 160.772662 70.191007 
L 160.859371 71.373332 
L 160.871616 70.191007 
L 160.883822 70.191007 
L 160.981856 71.373332 
L 160.994024 70.191007 
L 161.018329 70.191007 
L 161.129064 71.373332 
L 161.166435 71.373332 
L 161.178632 70.191007 
L 161.276557 71.373332 
L 161.362664 71.373332 
L 161.386995 72.555657 
L 161.472351 71.373332 
L 161.917517 71.373332 
L 161.929679 70.191007 
L 162.01853 71.373332 
L 162.628246 71.373332 
L 162.689552 70.191007 
L 162.738686 71.373332 
L 162.763196 71.373332 
L 162.877206 70.191007 
L 162.915044 70.191007 
L 163.036865 71.373332 
L 163.183735 70.191007 
L 163.294458 71.373332 
L 163.417899 70.191007 
L 163.552268 70.191007 
L 163.564396 71.373332 
L 163.662507 70.191007 
L 164.131006 70.191007 
L 164.241244 69.008682 
L 164.354773 70.191007 
L 164.39135 70.191007 
L 164.465891 69.008682 
L 164.491063 70.191007 
L 164.544222 70.191007 
L 164.593042 69.008682 
L 164.641825 70.191007 
L 164.682196 70.191007 
L 164.804948 69.008682 
L 165.037765 69.008682 
L 165.112722 67.826357 
L 165.137866 69.008682 
L 165.150046 69.008682 
L 165.26137 67.826357 
L 165.298326 69.008682 
L 165.372269 67.826357 
L 165.741367 67.826357 
L 165.85275 66.644032 
L 165.914613 66.644032 
L 166.025936 67.826357 
L 166.148562 66.644032 
L 166.247717 66.644032 
L 166.285005 67.826357 
L 166.35845 66.644032 
L 166.45758 66.644032 
L 166.544469 67.826357 
L 166.556658 66.644032 
L 166.593671 66.644032 
L 166.706108 67.826357 
L 166.829941 67.826357 
L 166.953286 66.644032 
L 167.064092 67.826357 
L 167.12729 67.826357 
L 167.17668 66.644032 
L 167.23825 67.826357 
L 167.54776 67.826357 
L 167.670255 69.008682 
L 167.843348 69.008682 
L 167.855905 67.826357 
L 167.95355 69.008682 
L 168.237221 69.008682 
L 168.323652 67.826357 
L 168.335821 69.008682 
L 168.559301 69.008682 
L 168.583871 67.826357 
L 168.670341 69.008682 
L 168.682657 69.008682 
L 168.695023 67.826357 
L 168.793472 69.008682 
L 169.93179 69.008682 
L 169.944589 70.191007 
L 170.039615 69.008682 
L 170.078116 69.008682 
L 170.185503 70.191007 
L 170.299706 69.008682 
L 170.42207 70.191007 
L 171.739511 70.191007 
L 171.751692 71.373332 
L 171.850284 70.191007 
L 171.964354 71.373332 
L 172.076776 70.191007 
L 172.164009 71.373332 
L 172.176179 70.191007 
L 172.188751 70.191007 
L 172.301441 71.373332 
L 172.313613 70.191007 
L 172.401649 71.373332 
L 172.414209 71.373332 
L 172.464992 70.191007 
L 172.516308 71.373332 
L 172.529268 71.373332 
L 172.641713 70.191007 
L 172.65427 70.191007 
L 172.770296 71.373332 
L 172.820566 71.373332 
L 172.932182 70.191007 
L 173.043485 71.373332 
L 173.229474 71.373332 
L 173.241642 70.191007 
L 173.328869 71.373332 
L 173.935266 71.373332 
L 173.947462 72.555657 
L 174.034651 71.373332 
L 174.109571 71.373332 
L 174.185248 72.555657 
L 174.209533 71.373332 
L 174.222032 71.373332 
L 174.334344 72.555657 
L 174.396291 71.373332 
L 174.445426 72.555657 
L 174.520033 72.555657 
L 174.532865 71.373332 
L 174.619778 72.555657 
L 174.681042 72.555657 
L 174.768555 73.737983 
L 174.780844 72.555657 
L 174.792966 72.555657 
L 174.915854 73.737983 
L 175.001477 73.737983 
L 175.12462 76.102633 
L 175.238351 76.102633 
L 175.360747 73.737983 
L 175.38512 73.737983 
L 175.439247 72.555657 
L 175.488959 73.737983 
L 175.501712 73.737983 
L 175.562817 72.555657 
L 175.612432 73.737983 
L 175.674396 73.737983 
L 175.784575 72.555657 
L 175.907216 73.737983 
L 176.029931 72.555657 
L 176.152959 73.737983 
L 176.165311 73.737983 
L 176.177496 72.555657 
L 176.275374 73.737983 
L 176.594225 73.737983 
L 176.681176 76.102633 
L 176.6936 73.737983 
L 176.755263 73.737983 
L 176.829593 76.102633 
L 176.854922 73.737983 
L 176.867528 73.737983 
L 176.97921 76.102633 
L 177.384842 76.102633 
L 177.397005 77.284958 
L 177.495885 76.102633 
L 177.69203 76.102633 
L 177.704404 77.284958 
L 177.80251 76.102633 
L 177.827086 76.102633 
L 177.950308 77.284958 
L 178.172168 77.284958 
L 178.294768 76.102633 
L 178.306893 76.102633 
L 178.417136 77.284958 
L 178.453785 76.102633 
L 178.516297 77.284958 
L 178.711517 77.284958 
L 178.824649 78.467283 
L 179.374768 78.467283 
L 179.447882 77.284958 
L 179.484716 78.467283 
L 179.791302 78.467283 
L 179.803465 77.284958 
L 179.901802 78.467283 
L 180.380515 78.467283 
L 180.392718 77.284958 
L 180.491112 78.467283 
L 180.945413 78.467283 
L 181.042803 79.649608 
L 181.054955 78.467283 
L 181.067158 78.467283 
L 181.176899 79.649608 
L 181.275777 78.467283 
L 181.398133 79.649608 
L 181.422444 79.649608 
L 181.545051 78.467283 
L 181.606148 78.467283 
L 181.716943 79.649608 
L 181.802617 77.284958 
L 181.8271 78.467283 
L 181.85164 78.467283 
L 181.974161 77.284958 
L 181.998933 77.284958 
L 182.023296 78.467283 
L 182.096658 77.284958 
L 182.219074 76.102633 
L 182.33014 76.102633 
L 182.441774 73.737983 
L 182.57697 73.737983 
L 182.653441 76.102633 
L 182.677984 73.737983 
L 182.763766 73.737983 
L 182.861747 76.102633 
L 182.874412 73.737983 
L 182.94838 73.737983 
L 182.96053 76.102633 
L 403.0311 112.754713 
L 403.117777 112.754713 
L 403.130497 113.937038 
L 403.216857 112.754713 
L 403.241585 112.754713 
L 403.353277 113.937038 
L 403.378484 113.937038 
L 403.402771 112.754713 
L 403.478489 113.937038 
L 403.700017 113.937038 
L 403.786038 115.119363 
L 403.798889 113.937038 
L 403.873218 113.937038 
L 403.959755 115.119363 
L 403.972281 113.937038 
L 403.984463 113.937038 
L 403.996751 115.119363 
L 404.094994 113.937038 
L 404.119519 113.937038 
L 404.230898 115.119363 
L 404.243528 115.119363 
L 404.255888 113.937038 
L 404.342479 115.119363 
L 404.355125 115.119363 
L 404.478405 113.937038 
L 404.540523 113.937038 
L 404.552847 115.119363 
L 404.64044 113.937038 
L 404.824754 113.937038 
L 406.389183 116.301688 
L 406.503796 115.119363 
L 406.54125 115.119363 
L 406.589854 116.301688 
L 406.651382 115.119363 
L 406.725028 115.119363 
L 406.740844 116.301688 
L 406.827596 115.119363 
L 406.96734 115.119363 
L 407.003878 116.301688 
L 407.077821 115.119363 
L 407.17728 115.119363 
L 407.267719 116.301688 
L 407.279907 115.119363 
L 407.316444 115.119363 
L 407.402349 116.301688 
L 407.415334 115.119363 
L 407.466534 115.119363 
L 407.580313 116.301688 
L 407.592568 116.301688 
L 407.654635 115.119363 
L 407.691653 116.301688 
L 407.729496 116.301688 
L 407.828616 115.119363 
L 407.928349 116.301688 
L 408.039334 115.119363 
L 408.150696 116.301688 
L 408.175303 116.301688 
L 408.286834 115.119363 
L 408.410122 116.301688 
L 408.471545 116.301688 
L 408.582263 115.119363 
L 408.631272 116.301688 
L 408.692467 115.119363 
L 408.705067 115.119363 
L 408.828579 116.301688 
L 408.927312 116.301688 
L 408.939479 115.119363 
L 409.033731 116.301688 
L 409.273167 116.301688 
L 409.384465 118.666339 
L 409.483407 116.301688 
L 409.495572 118.666339 
L 409.580898 116.301688 
L 409.605752 118.666339 
L 409.872936 118.666339 
L 409.885484 119.848664 
L 409.973819 118.666339 
L 410.208862 118.666339 
L 410.321201 116.301688 
L 410.616561 116.301688 
L 410.705715 118.666339 
L 410.717892 116.301688 
L 410.755422 116.301688 
L 410.867384 118.666339 
L 410.8927 118.666339 
L 410.942321 116.301688 
L 410.99187 118.666339 
L 411.166242 118.666339 
L 411.239718 116.301688 
L 411.277136 118.666339 
L 411.48766 118.666339 
L 411.563168 119.848664 
L 411.587895 118.666339 
L 411.735721 118.666339 
L 411.748828 119.848664 
L 411.836071 118.666339 
L 411.923979 118.666339 
L 412.037852 119.848664 
L 412.140413 119.848664 
L 412.154415 118.666339 
L 412.242535 119.848664 
L 412.43042 119.848664 
L 412.466914 118.666339 
L 412.534198 119.848664 
L 412.648965 119.848664 
L 412.762175 118.666339 
L 412.774698 118.666339 
L 412.887924 119.848664 
L 413.087587 119.848664 
L 413.136561 118.666339 
L 413.198021 119.848664 
L 413.22284 119.848664 
L 413.320582 118.666339 
L 413.332752 119.848664 
L 413.34491 119.848664 
L 413.444268 118.666339 
L 413.566991 119.848664 
L 413.702877 119.848664 
L 413.715066 118.666339 
L 413.800914 119.848664 
L 414.213816 119.848664 
L 414.226179 118.666339 
L 414.314437 119.848664 
L 414.43819 119.848664 
L 414.524699 118.666339 
L 414.549185 119.848664 
L 414.62375 118.666339 
L 414.648683 119.848664 
L 414.943696 119.848664 
L 414.955856 121.030989 
L 415.044628 119.848664 
L 415.069067 119.848664 
L 415.094243 121.030989 
L 415.169583 119.848664 
L 415.182199 119.848664 
L 415.194582 121.030989 
L 415.284168 119.848664 
L 415.399466 119.848664 
L 415.43879 121.030989 
L 415.507655 119.848664 
L 415.533311 119.848664 
L 415.646514 121.030989 
L 415.660203 121.030989 
L 415.772117 119.848664 
L 415.837155 119.848664 
L 415.986159 121.030989 
L 416.109101 119.848664 
L 416.23186 121.030989 
L 416.322111 121.030989 
L 416.385542 119.848664 
L 416.422965 121.030989 
L 416.435303 121.030989 
L 416.548038 119.848664 
L 416.661143 121.030989 
L 416.871243 121.030989 
L 416.945333 119.848664 
L 416.982274 121.030989 
L 416.994507 121.030989 
L 417.109985 119.848664 
L 417.213564 119.848664 
L 417.225702 121.030989 
L 417.3127 119.848664 
L 417.594362 119.848664 
L 417.631355 118.666339 
L 417.69344 119.848664 
L 417.856562 119.848664 
L 417.968441 118.666339 
L 417.993031 118.666339 
L 418.093019 119.848664 
L 418.178956 118.666339 
L 418.191851 119.848664 
L 418.443749 119.848664 
L 418.505012 118.666339 
L 418.553786 119.848664 
L 418.603531 119.848664 
L 418.689813 118.666339 
L 418.701998 119.848664 
L 418.73962 119.848664 
L 418.813561 118.666339 
L 418.850377 119.848664 
L 419.318286 119.848664 
L 419.416316 118.666339 
L 419.428501 119.848664 
L 419.453848 119.848664 
L 419.576358 118.666339 
L 419.588576 118.666339 
L 419.699358 119.848664 
L 419.81012 118.666339 
L 419.883322 119.848664 
L 419.920206 118.666339 
L 420.500751 118.666339 
L 420.614086 119.848664 
L 420.728035 118.666339 
L 420.740295 118.666339 
L 420.75246 119.848664 
L 420.838595 118.666339 
L 420.864272 118.666339 
L 420.902203 119.848664 
L 420.963994 118.666339 
L 420.976188 118.666339 
L 421.075267 119.848664 
L 421.124531 118.666339 
L 421.185676 119.848664 
L 421.236132 119.848664 
L 421.322301 118.666339 
L 421.346654 119.848664 
L 421.371548 119.848664 
L 421.458016 118.666339 
L 421.4707 119.848664 
L 421.49543 119.848664 
L 421.571394 118.666339 
L 421.596211 119.848664 
L 421.608368 119.848664 
L 421.620537 118.666339 
L 421.708367 119.848664 
L 421.746318 119.848664 
L 421.858505 118.666339 
L 421.883523 118.666339 
L 421.995207 119.848664 
L 422.032631 119.848664 
L 422.071763 118.666339 
L 422.135508 119.848664 
L 422.538816 119.848664 
L 422.650527 121.030989 
L 422.700522 119.848664 
L 422.750974 121.030989 
L 422.775706 121.030989 
L 422.873618 119.848664 
L 422.886179 121.030989 
L 423.460901 121.030989 
L 423.584427 123.395639 
L 423.708473 122.213314 
L 423.980222 122.213314 
L 424.094377 123.395639 
L 424.132373 123.395639 
L 424.243858 124.577964 
L 424.256074 124.577964 
L 424.369833 123.395639 
L 424.394393 123.395639 
L 424.406564 122.213314 
L 424.499382 123.395639 
L 424.834168 123.395639 
L 424.846316 122.213314 
L 424.934069 123.395639 
L 425.03535 123.395639 
L 425.097627 124.577964 
L 425.134219 123.395639 
L 425.325452 123.395639 
L 425.438465 122.213314 
L 425.487161 123.395639 
L 425.548781 122.213314 
L 425.616125 122.213314 
L 425.71678 123.395639 
L 425.826698 122.213314 
L 425.962383 124.577964 
L 426.073828 123.395639 
L 426.110789 123.395639 
L 426.223697 124.577964 
L 426.260437 124.577964 
L 426.334297 123.395639 
L 426.370919 124.577964 
L 426.383199 124.577964 
L 426.505565 123.395639 
L 426.591406 124.577964 
L 426.616318 123.395639 
L 426.750719 123.395639 
L 426.862104 124.577964 
L 426.874986 124.577964 
L 426.998447 123.395639 
L 427.023107 123.395639 
L 427.133699 124.577964 
L 427.146065 123.395639 
L 427.244789 124.577964 
L 427.293697 124.577964 
L 427.41633 123.395639 
L 427.465793 123.395639 
L 427.587677 124.577964 
L 427.686044 124.577964 
L 427.710755 123.395639 
L 427.785836 124.577964 
L 428.120797 124.577964 
L 428.219758 123.395639 
L 428.341962 124.577964 
L 429.197685 124.577964 
L 429.31126 125.76029 
L 429.348175 125.76029 
L 429.450922 124.577964 
L 429.54914 125.76029 
L 429.561305 124.577964 
L 429.573444 124.577964 
L 429.585591 125.76029 
L 429.684039 124.577964 
L 429.720752 124.577964 
L 429.831846 125.76029 
L 429.856412 125.76029 
L 429.966971 124.577964 
L 430.078134 125.76029 
L 430.313308 125.76029 
L 430.325472 126.942615 
L 430.414109 125.76029 
L 430.549437 125.76029 
L 430.635379 126.942615 
L 430.648123 125.76029 
L 430.660559 125.76029 
L 430.783611 126.942615 
L 430.820505 126.942615 
L 430.932914 125.76029 
L 430.945241 125.76029 
L 431.043617 126.942615 
L 431.055799 125.76029 
L 431.068243 125.76029 
L 431.179327 126.942615 
L 431.229242 126.942615 
L 431.352476 125.76029 
L 431.466253 126.942615 
L 431.528147 126.942615 
L 431.626741 128.12494 
L 431.749432 126.942615 
L 431.84867 128.12494 
L 431.94739 126.942615 
L 431.959636 128.12494 
L 431.984363 128.12494 
L 431.99693 126.942615 
L 432.009091 128.12494 
" style="fill:none;stroke:#1f77b4;stroke-linecap:square;stroke-width:1.5;"/>
   </g>
   <g id="line2d_30">
    <path clip-path="url(#pc6b2b4b233)" d="M 72.190909 125.76029 
L 73.258294 125.76029 
L 73.381258 138.765866 
L 73.631119 138.765866 
L 73.754083 144.677492 
L 74.612477 144.677492 
L 74.723835 138.765866 
L 74.98381 138.765866 
L 75.095218 144.677492 
L 75.356962 144.677492 
L 75.479003 149.406793 
L 76.669853 149.406793 
L 76.78115 144.677492 
L 76.856141 144.677492 
L 76.968428 161.230044 
L 77.841101 161.230044 
L 77.953743 165.959345 
L 78.150625 165.959345 
L 78.273916 149.406793 
L 78.709409 149.406793 
L 78.8213 144.677492 
L 79.081983 144.677492 
L 79.205502 149.406793 
L 79.698907 149.406793 
L 79.813035 138.765866 
L 80.073139 138.765866 
L 80.195297 123.395639 
L 80.257093 123.395639 
L 80.370697 102.113786 
L 81.003259 102.113786 
L 81.543153 89.10821 
L 82.104602 89.10821 
L 82.226917 80.831934 
L 82.672105 80.831934 
L 82.794945 78.467283 
L 84.08781 78.467283 
L 84.200346 89.10821 
L 84.771328 89.10821 
L 84.885017 65.461707 
L 85.335814 65.461707 
L 85.451063 115.119363 
L 86.642063 115.119363 
L 86.765291 125.76029 
L 87.408186 125.76029 
L 87.531816 195.517474 
L 88.153544 195.517474 
L 88.265447 221.528627 
L 88.908894 221.528627 
L 89.020999 232.169554 
L 89.465907 232.169554 
L 89.578397 245.17513 
L 90.454174 245.17513 
L 90.567418 232.169554 
L 90.844749 232.169554 
L 90.956513 221.528627 
L 92.928321 221.528627 
L 93.044316 208.52305 
L 95.200628 208.52305 
L 95.311696 195.517474 
L 96.152344 195.517474 
L 96.268442 171.870971 
L 96.528063 171.870971 
L 96.639957 149.406793 
L 97.324802 149.406793 
L 97.447551 115.119363 
L 98.128893 115.119363 
L 98.168005 78.467283 
L 98.854998 89.10821 
L 99.110274 89.10821 
L 99.807978 115.119363 
L 100.005492 115.119363 
L 100.12793 125.76029 
L 100.811416 125.76029 
L 100.922723 138.765866 
L 102.900167 138.765866 
L 103.064145 149.406793 
L 104.285091 149.406793 
L 104.400425 138.765866 
L 105.014487 138.765866 
L 105.137528 149.406793 
L 105.627681 149.406793 
L 105.750538 161.230044 
L 107.334793 161.230044 
L 107.456554 138.765866 
L 107.916099 138.765866 
L 108.039595 149.406793 
L 108.880403 149.406793 
L 108.994558 144.677492 
L 109.294405 144.677492 
L 109.382198 149.406793 
L 109.707403 149.406793 
L 109.82637 165.959345 
L 110.037975 165.959345 
L 110.237369 149.406793 
L 110.895235 149.406793 
L 111.018109 165.959345 
L 111.454055 165.959345 
L 111.569525 161.230044 
L 112.820741 161.230044 
L 112.934593 184.876547 
L 113.630503 184.876547 
L 113.743114 149.406793 
L 114.131422 149.406793 
L 114.254747 125.76029 
L 115.544689 125.76029 
L 115.667464 78.467283 
L 117.67551 78.467283 
L 117.796393 89.10821 
L 118.599525 89.10821 
L 118.714855 102.113786 
L 119.069896 102.113786 
L 119.183323 115.119363 
L 120.056513 115.119363 
L 120.168913 138.765866 
L 121.235181 138.765866 
L 121.350151 149.406793 
L 123.336698 149.406793 
L 123.459223 161.230044 
L 125.904667 161.230044 
L 126.015842 165.959345 
L 126.151599 165.959345 
L 126.274238 149.406793 
L 128.547238 149.406793 
L 128.670422 161.230044 
L 130.124842 161.230044 
L 130.239777 165.959345 
L 130.370697 165.959345 
L 130.516946 161.230044 
L 131.148663 161.230044 
L 131.263856 149.406793 
L 132.238108 149.406793 
L 132.349934 138.765866 
L 133.420003 138.765866 
L 133.536869 144.677492 
L 133.902167 144.677492 
L 134.014508 125.76029 
L 134.149762 125.76029 
L 134.272698 123.395639 
L 134.59513 123.395639 
L 134.717578 125.76029 
L 134.841504 125.76029 
L 134.954048 123.395639 
L 135.353195 123.395639 
L 135.467075 125.76029 
L 135.771307 125.76029 
L 135.883277 123.395639 
L 136.020735 123.395639 
L 136.132251 125.76029 
L 136.507048 125.76029 
L 136.581846 123.395639 
L 137.437488 115.119363 
L 137.56292 138.765866 
L 138.370303 138.765866 
L 138.535539 125.76029 
L 139.1151 125.76029 
L 139.227107 138.765866 
L 139.795082 138.765866 
L 139.906821 125.76029 
L 142.151859 125.76029 
L 142.262846 123.395639 
L 142.397609 123.395639 
L 142.509455 125.76029 
L 142.645625 125.76029 
L 142.756575 123.395639 
L 143.077349 123.395639 
L 143.200515 138.765866 
L 144.260672 138.765866 
L 144.37212 144.677492 
L 144.512266 144.677492 
L 144.625437 138.765866 
L 144.948307 138.765866 
L 145.059883 144.677492 
L 145.195695 144.677492 
L 145.317886 161.230044 
L 145.699233 161.230044 
L 145.817099 165.959345 
L 146.132396 165.959345 
L 146.244448 161.230044 
L 146.874606 161.230044 
L 146.997211 165.959345 
L 147.309301 165.959345 
L 147.421588 149.406793 
L 147.754896 149.406793 
L 148.003611 144.677492 
L 148.275636 144.677492 
L 148.38899 138.765866 
L 148.525299 138.765866 
L 148.637486 123.395639 
L 148.771859 123.395639 
L 148.883834 115.119363 
L 149.205323 115.119363 
L 149.3182 102.113786 
L 150.137508 102.113786 
L 150.260286 89.10821 
L 150.3843 89.10821 
L 150.507752 80.831934 
L 151.124337 80.831934 
L 151.236415 89.10821 
L 151.558064 89.10821 
L 151.681262 102.113786 
L 153.657938 102.113786 
L 153.772119 115.119363 
L 154.406646 115.119363 
L 154.529132 138.765866 
L 157.927727 138.765866 
L 158.03996 149.406793 
L 158.261853 149.406793 
L 157.568566 149.406793 
L 157.96536 149.406793 
L 158.088292 138.765866 
L 158.66218 138.765866 
L 158.773629 149.406793 
L 160.031479 149.406793 
L 160.143623 161.230044 
L 161.769588 161.230044 
L 161.880888 165.959345 
L 162.203832 165.959345 
L 162.315715 161.230044 
L 162.454616 161.230044 
L 162.566746 165.959345 
L 162.890156 165.959345 
L 163.012359 161.230044 
L 163.625895 161.230044 
L 163.747865 149.406793 
L 163.870127 149.406793 
L 163.982507 144.677492 
L 165.025598 144.677492 
L 165.137866 89.10821 
L 165.45754 89.10821 
L 165.569287 80.831934 
L 165.952308 80.831934 
L 166.074851 78.467283 
L 166.198321 78.467283 
L 166.309604 59.550081 
L 166.445218 59.550081 
L 166.556658 65.461707 
L 169.517609 65.461707 
L 169.632876 102.113786 
L 171.640796 102.113786 
L 171.78872 125.76029 
L 176.165311 125.76029 
L 176.287914 115.119363 
L 177.089972 115.119363 
L 177.212452 125.76029 
L 180.503317 125.76029 
L 180.625512 138.765866 
L 180.748137 138.765866 
L 180.871492 144.677492 
L 181.23922 144.677492 
L 181.361468 125.76029 
L 182.416844 125.76029 
L 182.539569 123.395639 
L 182.60139 123.395639 
L 182.727153 115.119363 
L 182.96053 115.119363 
L 402.797988 171.870971 
L 403.292076 171.870971 
L 403.415333 165.959345 
L 404.824754 165.959345 
L 406.45474 187.241198 
L 406.95518 187.241198 
L 407.077821 221.528627 
L 408.434872 221.528627 
L 408.557421 232.169554 
L 410.24667 232.169554 
L 410.359321 229.804903 
L 411.600135 229.804903 
L 411.723138 221.528627 
L 412.037852 221.528627 
L 412.154415 208.52305 
L 415.634322 208.52305 
L 415.747642 221.528627 
L 417.881844 221.528627 
L 417.993031 208.52305 
L 418.56595 208.52305 
L 418.677675 187.241198 
L 420.402915 187.241198 
L 420.513566 208.52305 
L 424.369833 208.52305 
L 424.487019 221.528627 
L 426.788433 221.528627 
L 426.899617 245.17513 
L 429.954393 245.17513 
L 430.065812 232.169554 
L 430.451532 232.169554 
L 430.573674 245.17513 
L 432.009091 245.17513 
L 432.009091 245.17513 
" style="fill:none;stroke:#ff7f0e;stroke-linecap:square;stroke-width:1.5;"/>
   </g>
   <g id="patch_3">
    <path d="M 54.2 255.638708 
L 54.2 25.44 
" style="fill:none;stroke:#000000;stroke-linecap:square;stroke-linejoin:miter;stroke-width:0.8;"/>
   </g>
   <g id="patch_4">
    <path d="M 450 255.638708 
L 450 25.44 
" style="fill:none;stroke:#000000;stroke-linecap:square;stroke-linejoin:miter;stroke-width:0.8;"/>
   </g>
   <g id="patch_5">
    <path d="M 54.2 255.638708 
L 450 255.638708 
" style="fill:none;stroke:#000000;stroke-linecap:square;stroke-linejoin:miter;stroke-width:0.8;"/>
   </g>
   <g id="patch_6">
    <path d="M 54.2 25.44 
L 450 25.44 
" style="fill:none;stroke:#000000;stroke-linecap:square;stroke-linejoin:miter;stroke-width:0.8;"/>
   </g>
   <g id="text_17">
    <!-- Lake Shoecraft - Water and Air Temperature -->
    <g transform="translate(120.481563 19.44)scale(0.12 -0.12)">
     <defs>
      <path d="M 9.8125 72.90625 
L 19.671875 72.90625 
L 19.671875 8.296875 
L 55.171875 8.296875 
L 55.171875 0 
L 9.8125 0 
z
" id="DejaVuSans-76"/>
      <path d="M 9.078125 75.984375 
L 18.109375 75.984375 
L 18.109375 31.109375 
L 44.921875 54.6875 
L 56.390625 54.6875 
L 27.390625 29.109375 
L 57.625 0 
L 45.90625 0 
L 18.109375 26.703125 
L 18.109375 0 
L 9.078125 0 
z
" id="DejaVuSans-107"/>
      <path d="M 53.515625 70.515625 
L 53.515625 60.890625 
Q 47.90625 63.578125 42.921875 64.890625 
Q 37.9375 66.21875 33.296875 66.21875 
Q 25.25 66.21875 20.875 63.09375 
Q 16.5 59.96875 16.5 54.203125 
Q 16.5 49.359375 19.40625 46.890625 
Q 22.3125 44.4375 30.421875 42.921875 
L 36.375 41.703125 
Q 47.40625 39.59375 52.65625 34.296875 
Q 57.90625 29 57.90625 20.125 
Q 57.90625 9.515625 50.796875 4.046875 
Q 43.703125 -1.421875 29.984375 -1.421875 
Q 24.8125 -1.421875 18.96875 -0.25 
Q 13.140625 0.921875 6.890625 3.21875 
L 6.890625 13.375 
Q 12.890625 10.015625 18.65625 8.296875 
Q 24.421875 6.59375 29.984375 6.59375 
Q 38.421875 6.59375 43.015625 9.90625 
Q 47.609375 13.234375 47.609375 19.390625 
Q 47.609375 24.75 44.3125 27.78125 
Q 41.015625 30.8125 33.5 32.328125 
L 27.484375 33.5 
Q 16.453125 35.6875 11.515625 40.375 
Q 6.59375 45.0625 6.59375 53.421875 
Q 6.59375 63.09375 13.40625 68.65625 
Q 20.21875 74.21875 32.171875 74.21875 
Q 37.3125 74.21875 42.625 73.28125 
Q 47.953125 72.359375 53.515625 70.515625 
z
" id="DejaVuSans-83"/>
      <path d="M 54.890625 33.015625 
L 54.890625 0 
L 45.90625 0 
L 45.90625 32.71875 
Q 45.90625 40.484375 42.875 44.328125 
Q 39.84375 48.1875 33.796875 48.1875 
Q 26.515625 48.1875 22.3125 43.546875 
Q 18.109375 38.921875 18.109375 30.90625 
L 18.109375 0 
L 9.078125 0 
L 9.078125 75.984375 
L 18.109375 75.984375 
L 18.109375 46.1875 
Q 21.34375 51.125 25.703125 53.5625 
Q 30.078125 56 35.796875 56 
Q 45.21875 56 50.046875 50.171875 
Q 54.890625 44.34375 54.890625 33.015625 
z
" id="DejaVuSans-104"/>
      <path d="M 30.609375 48.390625 
Q 23.390625 48.390625 19.1875 42.75 
Q 14.984375 37.109375 14.984375 27.296875 
Q 14.984375 17.484375 19.15625 11.84375 
Q 23.34375 6.203125 30.609375 6.203125 
Q 37.796875 6.203125 41.984375 11.859375 
Q 46.1875 17.53125 46.1875 27.296875 
Q 46.1875 37.015625 41.984375 42.703125 
Q 37.796875 48.390625 30.609375 48.390625 
z
M 30.609375 56 
Q 42.328125 56 49.015625 48.375 
Q 55.71875 40.765625 55.71875 27.296875 
Q 55.71875 13.875 49.015625 6.21875 
Q 42.328125 -1.421875 30.609375 -1.421875 
Q 18.84375 -1.421875 12.171875 6.21875 
Q 5.515625 13.875 5.515625 27.296875 
Q 5.515625 40.765625 12.171875 48.375 
Q 18.84375 56 30.609375 56 
z
" id="DejaVuSans-111"/>
      <path d="M 48.78125 52.59375 
L 48.78125 44.1875 
Q 44.96875 46.296875 41.140625 47.34375 
Q 37.3125 48.390625 33.40625 48.390625 
Q 24.65625 48.390625 19.8125 42.84375 
Q 14.984375 37.3125 14.984375 27.296875 
Q 14.984375 17.28125 19.8125 11.734375 
Q 24.65625 6.203125 33.40625 6.203125 
Q 37.3125 6.203125 41.140625 7.25 
Q 44.96875 8.296875 48.78125 10.40625 
L 48.78125 2.09375 
Q 45.015625 0.34375 40.984375 -0.53125 
Q 36.96875 -1.421875 32.421875 -1.421875 
Q 20.0625 -1.421875 12.78125 6.34375 
Q 5.515625 14.109375 5.515625 27.296875 
Q 5.515625 40.671875 12.859375 48.328125 
Q 20.21875 56 33.015625 56 
Q 37.15625 56 41.109375 55.140625 
Q 45.0625 54.296875 48.78125 52.59375 
z
" id="DejaVuSans-99"/>
      <path d="M 37.109375 75.984375 
L 37.109375 68.5 
L 28.515625 68.5 
Q 23.6875 68.5 21.796875 66.546875 
Q 19.921875 64.59375 19.921875 59.515625 
L 19.921875 54.6875 
L 34.71875 54.6875 
L 34.71875 47.703125 
L 19.921875 47.703125 
L 19.921875 0 
L 10.890625 0 
L 10.890625 47.703125 
L 2.296875 47.703125 
L 2.296875 54.6875 
L 10.890625 54.6875 
L 10.890625 58.5 
Q 10.890625 67.625 15.140625 71.796875 
Q 19.390625 75.984375 28.609375 75.984375 
z
" id="DejaVuSans-102"/>
      <path d="M 3.328125 72.90625 
L 13.28125 72.90625 
L 28.609375 11.28125 
L 43.890625 72.90625 
L 54.984375 72.90625 
L 70.3125 11.28125 
L 85.59375 72.90625 
L 95.609375 72.90625 
L 77.296875 0 
L 64.890625 0 
L 49.515625 63.28125 
L 33.984375 0 
L 21.578125 0 
z
" id="DejaVuSans-87"/>
      <path d="M 54.890625 33.015625 
L 54.890625 0 
L 45.90625 0 
L 45.90625 32.71875 
Q 45.90625 40.484375 42.875 44.328125 
Q 39.84375 48.1875 33.796875 48.1875 
Q 26.515625 48.1875 22.3125 43.546875 
Q 18.109375 38.921875 18.109375 30.90625 
L 18.109375 0 
L 9.078125 0 
L 9.078125 54.6875 
L 18.109375 54.6875 
L 18.109375 46.1875 
Q 21.34375 51.125 25.703125 53.5625 
Q 30.078125 56 35.796875 56 
Q 45.21875 56 50.046875 50.171875 
Q 54.890625 44.34375 54.890625 33.015625 
z
" id="DejaVuSans-110"/>
      <path d="M 45.40625 46.390625 
L 45.40625 75.984375 
L 54.390625 75.984375 
L 54.390625 0 
L 45.40625 0 
L 45.40625 8.203125 
Q 42.578125 3.328125 38.25 0.953125 
Q 33.9375 -1.421875 27.875 -1.421875 
Q 17.96875 -1.421875 11.734375 6.484375 
Q 5.515625 14.40625 5.515625 27.296875 
Q 5.515625 40.1875 11.734375 48.09375 
Q 17.96875 56 27.875 56 
Q 33.9375 56 38.25 53.625 
Q 42.578125 51.265625 45.40625 46.390625 
z
M 14.796875 27.296875 
Q 14.796875 17.390625 18.875 11.75 
Q 22.953125 6.109375 30.078125 6.109375 
Q 37.203125 6.109375 41.296875 11.75 
Q 45.40625 17.390625 45.40625 27.296875 
Q 45.40625 37.203125 41.296875 42.84375 
Q 37.203125 48.484375 30.078125 48.484375 
Q 22.953125 48.484375 18.875 42.84375 
Q 14.796875 37.203125 14.796875 27.296875 
z
" id="DejaVuSans-100"/>
      <path d="M 34.1875 63.1875 
L 20.796875 26.90625 
L 47.609375 26.90625 
z
M 28.609375 72.90625 
L 39.796875 72.90625 
L 67.578125 0 
L 57.328125 0 
L 50.6875 18.703125 
L 17.828125 18.703125 
L 11.1875 0 
L 0.78125 0 
z
" id="DejaVuSans-65"/>
      <path d="M 9.421875 54.6875 
L 18.40625 54.6875 
L 18.40625 0 
L 9.421875 0 
z
M 9.421875 75.984375 
L 18.40625 75.984375 
L 18.40625 64.59375 
L 9.421875 64.59375 
z
" id="DejaVuSans-105"/>
     </defs>
     <use xlink:href="#DejaVuSans-76"/>
     <use x="55.712891" xlink:href="#DejaVuSans-97"/>
     <use x="116.992188" xlink:href="#DejaVuSans-107"/>
     <use x="171.277344" xlink:href="#DejaVuSans-101"/>
     <use x="232.800781" xlink:href="#DejaVuSans-32"/>
     <use x="264.587891" xlink:href="#DejaVuSans-83"/>
     <use x="328.064453" xlink:href="#DejaVuSans-104"/>
     <use x="391.443359" xlink:href="#DejaVuSans-111"/>
     <use x="452.625" xlink:href="#DejaVuSans-101"/>
     <use x="514.148438" xlink:href="#DejaVuSans-99"/>
     <use x="569.128906" xlink:href="#DejaVuSans-114"/>
     <use x="610.242188" xlink:href="#DejaVuSans-97"/>
     <use x="671.521484" xlink:href="#DejaVuSans-102"/>
     <use x="704.976562" xlink:href="#DejaVuSans-116"/>
     <use x="744.185547" xlink:href="#DejaVuSans-32"/>
     <use x="775.972656" xlink:href="#DejaVuSans-45"/>
     <use x="812.056641" xlink:href="#DejaVuSans-32"/>
     <use x="843.84375" xlink:href="#DejaVuSans-87"/>
     <use x="936.345703" xlink:href="#DejaVuSans-97"/>
     <use x="997.625" xlink:href="#DejaVuSans-116"/>
     <use x="1036.833984" xlink:href="#DejaVuSans-101"/>
     <use x="1098.357422" xlink:href="#DejaVuSans-114"/>
     <use x="1139.470703" xlink:href="#DejaVuSans-32"/>
     <use x="1171.257812" xlink:href="#DejaVuSans-97"/>
     <use x="1232.537109" xlink:href="#DejaVuSans-110"/>
     <use x="1295.916016" xlink:href="#DejaVuSans-100"/>
     <use x="1359.392578" xlink:href="#DejaVuSans-32"/>
     <use x="1391.179688" xlink:href="#DejaVuSans-65"/>
     <use x="1459.587891" xlink:href="#DejaVuSans-105"/>
     <use x="1487.371094" xlink:href="#DejaVuSans-114"/>
     <use x="1528.484375" xlink:href="#DejaVuSans-32"/>
     <use x="1560.271484" xlink:href="#DejaVuSans-84"/>
     <use x="1604.355469" xlink:href="#DejaVuSans-101"/>
     <use x="1665.878906" xlink:href="#DejaVuSans-109"/>
     <use x="1763.291016" xlink:href="#DejaVuSans-112"/>
     <use x="1826.767578" xlink:href="#DejaVuSans-101"/>
     <use x="1888.291016" xlink:href="#DejaVuSans-114"/>
     <use x="1929.404297" xlink:href="#DejaVuSans-97"/>
     <use x="1990.683594" xlink:href="#DejaVuSans-116"/>
     <use x="2029.892578" xlink:href="#DejaVuSans-117"/>
     <use x="2093.271484" xlink:href="#DejaVuSans-114"/>
     <use x="2132.134766" xlink:href="#DejaVuSans-101"/>
    </g>
   </g>
   <g id="legend_1">
    <g id="patch_7">
     <path d="M 357.890625 62.79625 
L 443 62.79625 
Q 445 62.79625 445 60.79625 
L 445 32.44 
Q 445 30.44 443 30.44 
L 357.890625 30.44 
Q 355.890625 30.44 355.890625 32.44 
L 355.890625 60.79625 
Q 355.890625 62.79625 357.890625 62.79625 
z
" style="fill:#ffffff;opacity:0.8;stroke:#cccccc;stroke-linejoin:miter;"/>
    </g>
    <g id="line2d_31">
     <path d="M 359.890625 38.538437 
L 379.890625 38.538437 
" style="fill:none;stroke:#1f77b4;stroke-linecap:square;stroke-width:1.5;"/>
    </g>
    <g id="line2d_32"/>
    <g id="text_18">
     <!-- Lake Temp -->
     <g transform="translate(387.890625 42.038437)scale(0.1 -0.1)">
      <use xlink:href="#DejaVuSans-76"/>
      <use x="55.712891" xlink:href="#DejaVuSans-97"/>
      <use x="116.992188" xlink:href="#DejaVuSans-107"/>
      <use x="171.277344" xlink:href="#DejaVuSans-101"/>
      <use x="232.800781" xlink:href="#DejaVuSans-32"/>
      <use x="264.587891" xlink:href="#DejaVuSans-84"/>
      <use x="308.671875" xlink:href="#DejaVuSans-101"/>
      <use x="370.195312" xlink:href="#DejaVuSans-109"/>
      <use x="467.607422" xlink:href="#DejaVuSans-112"/>
     </g>
    </g>
    <g id="line2d_33">
     <path d="M 359.890625 53.216562 
L 379.890625 53.216562 
" style="fill:none;stroke:#ff7f0e;stroke-linecap:square;stroke-width:1.5;"/>
    </g>
    <g id="line2d_34"/>
    <g id="text_19">
     <!-- Air Temp -->
     <g transform="translate(387.890625 56.716562)scale(0.1 -0.1)">
      <use xlink:href="#DejaVuSans-65"/>
      <use x="68.408203" xlink:href="#DejaVuSans-105"/>
      <use x="96.191406" xlink:href="#DejaVuSans-114"/>
      <use x="137.304688" xlink:href="#DejaVuSans-32"/>
      <use x="169.091797" xlink:href="#DejaVuSans-84"/>
      <use x="213.175781" xlink:href="#DejaVuSans-101"/>
      <use x="274.699219" xlink:href="#DejaVuSans-109"/>
      <use x="372.111328" xlink:href="#DejaVuSans-112"/>
     </g>
    </g>
   </g>
  </g>
 </g>
 <defs>
  <clipPath id="pc6b2b4b233">
   <rect height="230.198708" width="395.8" x="54.2" y="25.44"/>
  </clipPath>
 </defs>
</svg>
