<?xml version="1.0" encoding="utf-8" standalone="no"?>
<!DOCTYPE svg PUBLIC "-//W3C//DTD SVG 1.1//EN"
  "http://www.w3.org/Graphics/SVG/1.1/DTD/svg11.dtd">
<!-- Created with matplotlib (https://matplotlib.org/) -->
<svg height="345.6pt" version="1.1" viewBox="0 0 460.8 345.6" width="460.8pt" xmlns="http://www.w3.org/2000/svg" xmlns:xlink="http://www.w3.org/1999/xlink">
 <metadata>
  <rdf:RDF xmlns:cc="http://creativecommons.org/ns#" xmlns:dc="http://purl.org/dc/elements/1.1/" xmlns:rdf="http://www.w3.org/1999/02/22-rdf-syntax-ns#">
   <cc:Work>
    <dc:type rdf:resource="http://purl.org/dc/dcmitype/StillImage"/>
    <dc:date>2024-09-04T20:56:49.468462</dc:date>
    <dc:format>image/svg+xml</dc:format>
    <dc:creator>
     <cc:Agent>
      <dc:title>Matplotlib v3.3.2, https://matplotlib.org/</dc:title>
     </cc:Agent>
    </dc:creator>
   </cc:Work>
  </rdf:RDF>
 </metadata>
 <defs>
  <style type="text/css">*{stroke-linecap:butt;stroke-linejoin:round;}</style>
 </defs>
 <g id="figure_1">
  <g id="patch_1">
   <path d="M 0 345.6 
L 460.8 345.6 
L 460.8 0 
L 0 0 
z
" style="fill:none;"/>
  </g>
  <g id="axes_1">
   <g id="patch_2">
    <path d="M 44.66 255.638708 
L 446.563387 255.638708 
L 446.563387 25.44 
L 44.66 25.44 
z
" style="fill:none;"/>
   </g>
   <g id="matplotlib.axis_1">
    <g id="xtick_1">
     <g id="line2d_1">
      <path clip-path="url(#p2f3bdb9fd3)" d="M 81.561951 255.638708 
L 81.561951 25.44 
" style="fill:none;stroke:#b0b0b0;stroke-linecap:square;stroke-width:0.8;"/>
     </g>
     <g id="line2d_2">
      <defs>
       <path d="M 0 0 
L 0 3.5 
" id="ma0b0e3f3cd" style="stroke:#000000;stroke-width:0.8;"/>
      </defs>
      <g>
       <use style="stroke:#000000;stroke-width:0.8;" x="81.561951" xlink:href="#ma0b0e3f3cd" y="255.638708"/>
      </g>
     </g>
     <g id="text_1">
      <!-- 2024-08-28 -->
      <g transform="translate(74.216558 319.848351)rotate(-70)scale(0.1 -0.1)">
       <defs>
        <path d="M 19.1875 8.296875 
L 53.609375 8.296875 
L 53.609375 0 
L 7.328125 0 
L 7.328125 8.296875 
Q 12.9375 14.109375 22.625 23.890625 
Q 32.328125 33.6875 34.8125 36.53125 
Q 39.546875 41.84375 41.421875 45.53125 
Q 43.3125 49.21875 43.3125 52.78125 
Q 43.3125 58.59375 39.234375 62.25 
Q 35.15625 65.921875 28.609375 65.921875 
Q 23.96875 65.921875 18.8125 64.3125 
Q 13.671875 62.703125 7.8125 59.421875 
L 7.8125 69.390625 
Q 13.765625 71.78125 18.9375 73 
Q 24.125 74.21875 28.421875 74.21875 
Q 39.75 74.21875 46.484375 68.546875 
Q 53.21875 62.890625 53.21875 53.421875 
Q 53.21875 48.921875 51.53125 44.890625 
Q 49.859375 40.875 45.40625 35.40625 
Q 44.1875 33.984375 37.640625 27.21875 
Q 31.109375 20.453125 19.1875 8.296875 
z
" id="DejaVuSans-50"/>
        <path d="M 31.78125 66.40625 
Q 24.171875 66.40625 20.328125 58.90625 
Q 16.5 51.421875 16.5 36.375 
Q 16.5 21.390625 20.328125 13.890625 
Q 24.171875 6.390625 31.78125 6.390625 
Q 39.453125 6.390625 43.28125 13.890625 
Q 47.125 21.390625 47.125 36.375 
Q 47.125 51.421875 43.28125 58.90625 
Q 39.453125 66.40625 31.78125 66.40625 
z
M 31.78125 74.21875 
Q 44.046875 74.21875 50.515625 64.515625 
Q 56.984375 54.828125 56.984375 36.375 
Q 56.984375 17.96875 50.515625 8.265625 
Q 44.046875 -1.421875 31.78125 -1.421875 
Q 19.53125 -1.421875 13.0625 8.265625 
Q 6.59375 17.96875 6.59375 36.375 
Q 6.59375 54.828125 13.0625 64.515625 
Q 19.53125 74.21875 31.78125 74.21875 
z
" id="DejaVuSans-48"/>
        <path d="M 37.796875 64.3125 
L 12.890625 25.390625 
L 37.796875 25.390625 
z
M 35.203125 72.90625 
L 47.609375 72.90625 
L 47.609375 25.390625 
L 58.015625 25.390625 
L 58.015625 17.1875 
L 47.609375 17.1875 
L 47.609375 0 
L 37.796875 0 
L 37.796875 17.1875 
L 4.890625 17.1875 
L 4.890625 26.703125 
z
" id="DejaVuSans-52"/>
        <path d="M 4.890625 31.390625 
L 31.203125 31.390625 
L 31.203125 23.390625 
L 4.890625 23.390625 
z
" id="DejaVuSans-45"/>
        <path d="M 31.78125 34.625 
Q 24.75 34.625 20.71875 30.859375 
Q 16.703125 27.09375 16.703125 20.515625 
Q 16.703125 13.921875 20.71875 10.15625 
Q 24.75 6.390625 31.78125 6.390625 
Q 38.8125 6.390625 42.859375 10.171875 
Q 46.921875 13.96875 46.921875 20.515625 
Q 46.921875 27.09375 42.890625 30.859375 
Q 38.875 34.625 31.78125 34.625 
z
M 21.921875 38.8125 
Q 15.578125 40.375 12.03125 44.71875 
Q 8.5 49.078125 8.5 55.328125 
Q 8.5 64.0625 14.71875 69.140625 
Q 20.953125 74.21875 31.78125 74.21875 
Q 42.671875 74.21875 48.875 69.140625 
Q 55.078125 64.0625 55.078125 55.328125 
Q 55.078125 49.078125 51.53125 44.71875 
Q 48 40.375 41.703125 38.8125 
Q 48.828125 37.15625 52.796875 32.3125 
Q 56.78125 27.484375 56.78125 20.515625 
Q 56.78125 9.90625 50.3125 4.234375 
Q 43.84375 -1.421875 31.78125 -1.421875 
Q 19.734375 -1.421875 13.25 4.234375 
Q 6.78125 9.90625 6.78125 20.515625 
Q 6.78125 27.484375 10.78125 32.3125 
Q 14.796875 37.15625 21.921875 38.8125 
z
M 18.3125 54.390625 
Q 18.3125 48.734375 21.84375 45.5625 
Q 25.390625 42.390625 31.78125 42.390625 
Q 38.140625 42.390625 41.71875 45.5625 
Q 45.3125 48.734375 45.3125 54.390625 
Q 45.3125 60.0625 41.71875 63.234375 
Q 38.140625 66.40625 31.78125 66.40625 
Q 25.390625 66.40625 21.84375 63.234375 
Q 18.3125 60.0625 18.3125 54.390625 
z
" id="DejaVuSans-56"/>
       </defs>
       <use xlink:href="#DejaVuSans-50"/>
       <use x="63.623047" xlink:href="#DejaVuSans-48"/>
       <use x="127.246094" xlink:href="#DejaVuSans-50"/>
       <use x="190.869141" xlink:href="#DejaVuSans-52"/>
       <use x="254.492188" xlink:href="#DejaVuSans-45"/>
       <use x="290.576172" xlink:href="#DejaVuSans-48"/>
       <use x="354.199219" xlink:href="#DejaVuSans-56"/>
       <use x="417.822266" xlink:href="#DejaVuSans-45"/>
       <use x="453.90625" xlink:href="#DejaVuSans-50"/>
       <use x="517.529297" xlink:href="#DejaVuSans-56"/>
      </g>
     </g>
    </g>
    <g id="xtick_2">
     <g id="line2d_3">
      <path clip-path="url(#p2f3bdb9fd3)" d="M 125.605665 255.638708 
L 125.605665 25.44 
" style="fill:none;stroke:#b0b0b0;stroke-linecap:square;stroke-width:0.8;"/>
     </g>
     <g id="line2d_4">
      <g>
       <use style="stroke:#000000;stroke-width:0.8;" x="125.605665" xlink:href="#ma0b0e3f3cd" y="255.638708"/>
      </g>
     </g>
     <g id="text_2">
      <!-- 2024-08-29 -->
      <g transform="translate(118.260272 319.848351)rotate(-70)scale(0.1 -0.1)">
       <defs>
        <path d="M 10.984375 1.515625 
L 10.984375 10.5 
Q 14.703125 8.734375 18.5 7.8125 
Q 22.3125 6.890625 25.984375 6.890625 
Q 35.75 6.890625 40.890625 13.453125 
Q 46.046875 20.015625 46.78125 33.40625 
Q 43.953125 29.203125 39.59375 26.953125 
Q 35.25 24.703125 29.984375 24.703125 
Q 19.046875 24.703125 12.671875 31.3125 
Q 6.296875 37.9375 6.296875 49.421875 
Q 6.296875 60.640625 12.9375 67.421875 
Q 19.578125 74.21875 30.609375 74.21875 
Q 43.265625 74.21875 49.921875 64.515625 
Q 56.59375 54.828125 56.59375 36.375 
Q 56.59375 19.140625 48.40625 8.859375 
Q 40.234375 -1.421875 26.421875 -1.421875 
Q 22.703125 -1.421875 18.890625 -0.6875 
Q 15.09375 0.046875 10.984375 1.515625 
z
M 30.609375 32.421875 
Q 37.25 32.421875 41.125 36.953125 
Q 45.015625 41.5 45.015625 49.421875 
Q 45.015625 57.28125 41.125 61.84375 
Q 37.25 66.40625 30.609375 66.40625 
Q 23.96875 66.40625 20.09375 61.84375 
Q 16.21875 57.28125 16.21875 49.421875 
Q 16.21875 41.5 20.09375 36.953125 
Q 23.96875 32.421875 30.609375 32.421875 
z
" id="DejaVuSans-57"/>
       </defs>
       <use xlink:href="#DejaVuSans-50"/>
       <use x="63.623047" xlink:href="#DejaVuSans-48"/>
       <use x="127.246094" xlink:href="#DejaVuSans-50"/>
       <use x="190.869141" xlink:href="#DejaVuSans-52"/>
       <use x="254.492188" xlink:href="#DejaVuSans-45"/>
       <use x="290.576172" xlink:href="#DejaVuSans-48"/>
       <use x="354.199219" xlink:href="#DejaVuSans-56"/>
       <use x="417.822266" xlink:href="#DejaVuSans-45"/>
       <use x="453.90625" xlink:href="#DejaVuSans-50"/>
       <use x="517.529297" xlink:href="#DejaVuSans-57"/>
      </g>
     </g>
    </g>
    <g id="xtick_3">
     <g id="line2d_5">
      <path clip-path="url(#p2f3bdb9fd3)" d="M 169.649379 255.638708 
L 169.649379 25.44 
" style="fill:none;stroke:#b0b0b0;stroke-linecap:square;stroke-width:0.8;"/>
     </g>
     <g id="line2d_6">
      <g>
       <use style="stroke:#000000;stroke-width:0.8;" x="169.649379" xlink:href="#ma0b0e3f3cd" y="255.638708"/>
      </g>
     </g>
     <g id="text_3">
      <!-- 2024-08-30 -->
      <g transform="translate(162.303986 319.848351)rotate(-70)scale(0.1 -0.1)">
       <defs>
        <path d="M 40.578125 39.3125 
Q 47.65625 37.796875 51.625 33 
Q 55.609375 28.21875 55.609375 21.1875 
Q 55.609375 10.40625 48.1875 4.484375 
Q 40.765625 -1.421875 27.09375 -1.421875 
Q 22.515625 -1.421875 17.65625 -0.515625 
Q 12.796875 0.390625 7.625 2.203125 
L 7.625 11.71875 
Q 11.71875 9.328125 16.59375 8.109375 
Q 21.484375 6.890625 26.8125 6.890625 
Q 36.078125 6.890625 40.9375 10.546875 
Q 45.796875 14.203125 45.796875 21.1875 
Q 45.796875 27.640625 41.28125 31.265625 
Q 36.765625 34.90625 28.71875 34.90625 
L 20.21875 34.90625 
L 20.21875 43.015625 
L 29.109375 43.015625 
Q 36.375 43.015625 40.234375 45.921875 
Q 44.09375 48.828125 44.09375 54.296875 
Q 44.09375 59.90625 40.109375 62.90625 
Q 36.140625 65.921875 28.71875 65.921875 
Q 24.65625 65.921875 20.015625 65.03125 
Q 15.375 64.15625 9.8125 62.3125 
L 9.8125 71.09375 
Q 15.4375 72.65625 20.34375 73.4375 
Q 25.25 74.21875 29.59375 74.21875 
Q 40.828125 74.21875 47.359375 69.109375 
Q 53.90625 64.015625 53.90625 55.328125 
Q 53.90625 49.265625 50.4375 45.09375 
Q 46.96875 40.921875 40.578125 39.3125 
z
" id="DejaVuSans-51"/>
       </defs>
       <use xlink:href="#DejaVuSans-50"/>
       <use x="63.623047" xlink:href="#DejaVuSans-48"/>
       <use x="127.246094" xlink:href="#DejaVuSans-50"/>
       <use x="190.869141" xlink:href="#DejaVuSans-52"/>
       <use x="254.492188" xlink:href="#DejaVuSans-45"/>
       <use x="290.576172" xlink:href="#DejaVuSans-48"/>
       <use x="354.199219" xlink:href="#DejaVuSans-56"/>
       <use x="417.822266" xlink:href="#DejaVuSans-45"/>
       <use x="453.90625" xlink:href="#DejaVuSans-51"/>
       <use x="517.529297" xlink:href="#DejaVuSans-48"/>
      </g>
     </g>
    </g>
    <g id="xtick_4">
     <g id="line2d_7">
      <path clip-path="url(#p2f3bdb9fd3)" d="M 213.693094 255.638708 
L 213.693094 25.44 
" style="fill:none;stroke:#b0b0b0;stroke-linecap:square;stroke-width:0.8;"/>
     </g>
     <g id="line2d_8">
      <g>
       <use style="stroke:#000000;stroke-width:0.8;" x="213.693094" xlink:href="#ma0b0e3f3cd" y="255.638708"/>
      </g>
     </g>
     <g id="text_4">
      <!-- 2024-08-31 -->
      <g transform="translate(206.347701 319.848351)rotate(-70)scale(0.1 -0.1)">
       <defs>
        <path d="M 12.40625 8.296875 
L 28.515625 8.296875 
L 28.515625 63.921875 
L 10.984375 60.40625 
L 10.984375 69.390625 
L 28.421875 72.90625 
L 38.28125 72.90625 
L 38.28125 8.296875 
L 54.390625 8.296875 
L 54.390625 0 
L 12.40625 0 
z
" id="DejaVuSans-49"/>
       </defs>
       <use xlink:href="#DejaVuSans-50"/>
       <use x="63.623047" xlink:href="#DejaVuSans-48"/>
       <use x="127.246094" xlink:href="#DejaVuSans-50"/>
       <use x="190.869141" xlink:href="#DejaVuSans-52"/>
       <use x="254.492188" xlink:href="#DejaVuSans-45"/>
       <use x="290.576172" xlink:href="#DejaVuSans-48"/>
       <use x="354.199219" xlink:href="#DejaVuSans-56"/>
       <use x="417.822266" xlink:href="#DejaVuSans-45"/>
       <use x="453.90625" xlink:href="#DejaVuSans-51"/>
       <use x="517.529297" xlink:href="#DejaVuSans-49"/>
      </g>
     </g>
    </g>
    <g id="xtick_5">
     <g id="line2d_9">
      <path clip-path="url(#p2f3bdb9fd3)" d="M 257.736808 255.638708 
L 257.736808 25.44 
" style="fill:none;stroke:#b0b0b0;stroke-linecap:square;stroke-width:0.8;"/>
     </g>
     <g id="line2d_10">
      <g>
       <use style="stroke:#000000;stroke-width:0.8;" x="257.736808" xlink:href="#ma0b0e3f3cd" y="255.638708"/>
      </g>
     </g>
     <g id="text_5">
      <!-- 2024-09-01 -->
      <g transform="translate(250.391415 319.848351)rotate(-70)scale(0.1 -0.1)">
       <use xlink:href="#DejaVuSans-50"/>
       <use x="63.623047" xlink:href="#DejaVuSans-48"/>
       <use x="127.246094" xlink:href="#DejaVuSans-50"/>
       <use x="190.869141" xlink:href="#DejaVuSans-52"/>
       <use x="254.492188" xlink:href="#DejaVuSans-45"/>
       <use x="290.576172" xlink:href="#DejaVuSans-48"/>
       <use x="354.199219" xlink:href="#DejaVuSans-57"/>
       <use x="417.822266" xlink:href="#DejaVuSans-45"/>
       <use x="453.90625" xlink:href="#DejaVuSans-48"/>
       <use x="517.529297" xlink:href="#DejaVuSans-49"/>
      </g>
     </g>
    </g>
    <g id="xtick_6">
     <g id="line2d_11">
      <path clip-path="url(#p2f3bdb9fd3)" d="M 301.780522 255.638708 
L 301.780522 25.44 
" style="fill:none;stroke:#b0b0b0;stroke-linecap:square;stroke-width:0.8;"/>
     </g>
     <g id="line2d_12">
      <g>
       <use style="stroke:#000000;stroke-width:0.8;" x="301.780522" xlink:href="#ma0b0e3f3cd" y="255.638708"/>
      </g>
     </g>
     <g id="text_6">
      <!-- 2024-09-02 -->
      <g transform="translate(294.435129 319.848351)rotate(-70)scale(0.1 -0.1)">
       <use xlink:href="#DejaVuSans-50"/>
       <use x="63.623047" xlink:href="#DejaVuSans-48"/>
       <use x="127.246094" xlink:href="#DejaVuSans-50"/>
       <use x="190.869141" xlink:href="#DejaVuSans-52"/>
       <use x="254.492188" xlink:href="#DejaVuSans-45"/>
       <use x="290.576172" xlink:href="#DejaVuSans-48"/>
       <use x="354.199219" xlink:href="#DejaVuSans-57"/>
       <use x="417.822266" xlink:href="#DejaVuSans-45"/>
       <use x="453.90625" xlink:href="#DejaVuSans-48"/>
       <use x="517.529297" xlink:href="#DejaVuSans-50"/>
      </g>
     </g>
    </g>
    <g id="xtick_7">
     <g id="line2d_13">
      <path clip-path="url(#p2f3bdb9fd3)" d="M 345.824236 255.638708 
L 345.824236 25.44 
" style="fill:none;stroke:#b0b0b0;stroke-linecap:square;stroke-width:0.8;"/>
     </g>
     <g id="line2d_14">
      <g>
       <use style="stroke:#000000;stroke-width:0.8;" x="345.824236" xlink:href="#ma0b0e3f3cd" y="255.638708"/>
      </g>
     </g>
     <g id="text_7">
      <!-- 2024-09-03 -->
      <g transform="translate(338.478843 319.848351)rotate(-70)scale(0.1 -0.1)">
       <use xlink:href="#DejaVuSans-50"/>
       <use x="63.623047" xlink:href="#DejaVuSans-48"/>
       <use x="127.246094" xlink:href="#DejaVuSans-50"/>
       <use x="190.869141" xlink:href="#DejaVuSans-52"/>
       <use x="254.492188" xlink:href="#DejaVuSans-45"/>
       <use x="290.576172" xlink:href="#DejaVuSans-48"/>
       <use x="354.199219" xlink:href="#DejaVuSans-57"/>
       <use x="417.822266" xlink:href="#DejaVuSans-45"/>
       <use x="453.90625" xlink:href="#DejaVuSans-48"/>
       <use x="517.529297" xlink:href="#DejaVuSans-51"/>
      </g>
     </g>
    </g>
    <g id="xtick_8">
     <g id="line2d_15">
      <path clip-path="url(#p2f3bdb9fd3)" d="M 389.86795 255.638708 
L 389.86795 25.44 
" style="fill:none;stroke:#b0b0b0;stroke-linecap:square;stroke-width:0.8;"/>
     </g>
     <g id="line2d_16">
      <g>
       <use style="stroke:#000000;stroke-width:0.8;" x="389.86795" xlink:href="#ma0b0e3f3cd" y="255.638708"/>
      </g>
     </g>
     <g id="text_8">
      <!-- 2024-09-04 -->
      <g transform="translate(382.522557 319.848351)rotate(-70)scale(0.1 -0.1)">
       <use xlink:href="#DejaVuSans-50"/>
       <use x="63.623047" xlink:href="#DejaVuSans-48"/>
       <use x="127.246094" xlink:href="#DejaVuSans-50"/>
       <use x="190.869141" xlink:href="#DejaVuSans-52"/>
       <use x="254.492188" xlink:href="#DejaVuSans-45"/>
       <use x="290.576172" xlink:href="#DejaVuSans-48"/>
       <use x="354.199219" xlink:href="#DejaVuSans-57"/>
       <use x="417.822266" xlink:href="#DejaVuSans-45"/>
       <use x="453.90625" xlink:href="#DejaVuSans-48"/>
       <use x="517.529297" xlink:href="#DejaVuSans-52"/>
      </g>
     </g>
    </g>
    <g id="xtick_9">
     <g id="line2d_17">
      <path clip-path="url(#p2f3bdb9fd3)" d="M 433.911665 255.638708 
L 433.911665 25.44 
" style="fill:none;stroke:#b0b0b0;stroke-linecap:square;stroke-width:0.8;"/>
     </g>
     <g id="line2d_18">
      <g>
       <use style="stroke:#000000;stroke-width:0.8;" x="433.911665" xlink:href="#ma0b0e3f3cd" y="255.638708"/>
      </g>
     </g>
     <g id="text_9">
      <!-- 2024-09-05 -->
      <g transform="translate(426.566272 319.848351)rotate(-70)scale(0.1 -0.1)">
       <defs>
        <path d="M 10.796875 72.90625 
L 49.515625 72.90625 
L 49.515625 64.59375 
L 19.828125 64.59375 
L 19.828125 46.734375 
Q 21.96875 47.46875 24.109375 47.828125 
Q 26.265625 48.1875 28.421875 48.1875 
Q 40.625 48.1875 47.75 41.5 
Q 54.890625 34.8125 54.890625 23.390625 
Q 54.890625 11.625 47.5625 5.09375 
Q 40.234375 -1.421875 26.90625 -1.421875 
Q 22.3125 -1.421875 17.546875 -0.640625 
Q 12.796875 0.140625 7.71875 1.703125 
L 7.71875 11.625 
Q 12.109375 9.234375 16.796875 8.0625 
Q 21.484375 6.890625 26.703125 6.890625 
Q 35.15625 6.890625 40.078125 11.328125 
Q 45.015625 15.765625 45.015625 23.390625 
Q 45.015625 31 40.078125 35.4375 
Q 35.15625 39.890625 26.703125 39.890625 
Q 22.75 39.890625 18.8125 39.015625 
Q 14.890625 38.140625 10.796875 36.28125 
z
" id="DejaVuSans-53"/>
       </defs>
       <use xlink:href="#DejaVuSans-50"/>
       <use x="63.623047" xlink:href="#DejaVuSans-48"/>
       <use x="127.246094" xlink:href="#DejaVuSans-50"/>
       <use x="190.869141" xlink:href="#DejaVuSans-52"/>
       <use x="254.492188" xlink:href="#DejaVuSans-45"/>
       <use x="290.576172" xlink:href="#DejaVuSans-48"/>
       <use x="354.199219" xlink:href="#DejaVuSans-57"/>
       <use x="417.822266" xlink:href="#DejaVuSans-45"/>
       <use x="453.90625" xlink:href="#DejaVuSans-48"/>
       <use x="517.529297" xlink:href="#DejaVuSans-53"/>
      </g>
     </g>
    </g>
    <g id="text_10">
     <!-- Date -->
     <g transform="translate(233.660912 332.158083)scale(0.1 -0.1)">
      <defs>
       <path d="M 19.671875 64.796875 
L 19.671875 8.109375 
L 31.59375 8.109375 
Q 46.6875 8.109375 53.6875 14.9375 
Q 60.6875 21.78125 60.6875 36.53125 
Q 60.6875 51.171875 53.6875 57.984375 
Q 46.6875 64.796875 31.59375 64.796875 
z
M 9.8125 72.90625 
L 30.078125 72.90625 
Q 51.265625 72.90625 61.171875 64.09375 
Q 71.09375 55.28125 71.09375 36.53125 
Q 71.09375 17.671875 61.125 8.828125 
Q 51.171875 0 30.078125 0 
L 9.8125 0 
z
" id="DejaVuSans-68"/>
       <path d="M 34.28125 27.484375 
Q 23.390625 27.484375 19.1875 25 
Q 14.984375 22.515625 14.984375 16.5 
Q 14.984375 11.71875 18.140625 8.90625 
Q 21.296875 6.109375 26.703125 6.109375 
Q 34.1875 6.109375 38.703125 11.40625 
Q 43.21875 16.703125 43.21875 25.484375 
L 43.21875 27.484375 
z
M 52.203125 31.203125 
L 52.203125 0 
L 43.21875 0 
L 43.21875 8.296875 
Q 40.140625 3.328125 35.546875 0.953125 
Q 30.953125 -1.421875 24.3125 -1.421875 
Q 15.921875 -1.421875 10.953125 3.296875 
Q 6 8.015625 6 15.921875 
Q 6 25.140625 12.171875 29.828125 
Q 18.359375 34.515625 30.609375 34.515625 
L 43.21875 34.515625 
L 43.21875 35.40625 
Q 43.21875 41.609375 39.140625 45 
Q 35.0625 48.390625 27.6875 48.390625 
Q 23 48.390625 18.546875 47.265625 
Q 14.109375 46.140625 10.015625 43.890625 
L 10.015625 52.203125 
Q 14.9375 54.109375 19.578125 55.046875 
Q 24.21875 56 28.609375 56 
Q 40.484375 56 46.34375 49.84375 
Q 52.203125 43.703125 52.203125 31.203125 
z
" id="DejaVuSans-97"/>
       <path d="M 18.3125 70.21875 
L 18.3125 54.6875 
L 36.8125 54.6875 
L 36.8125 47.703125 
L 18.3125 47.703125 
L 18.3125 18.015625 
Q 18.3125 11.328125 20.140625 9.421875 
Q 21.96875 7.515625 27.59375 7.515625 
L 36.8125 7.515625 
L 36.8125 0 
L 27.59375 0 
Q 17.1875 0 13.234375 3.875 
Q 9.28125 7.765625 9.28125 18.015625 
L 9.28125 47.703125 
L 2.6875 47.703125 
L 2.6875 54.6875 
L 9.28125 54.6875 
L 9.28125 70.21875 
z
" id="DejaVuSans-116"/>
       <path d="M 56.203125 29.59375 
L 56.203125 25.203125 
L 14.890625 25.203125 
Q 15.484375 15.921875 20.484375 11.0625 
Q 25.484375 6.203125 34.421875 6.203125 
Q 39.59375 6.203125 44.453125 7.46875 
Q 49.3125 8.734375 54.109375 11.28125 
L 54.109375 2.78125 
Q 49.265625 0.734375 44.1875 -0.34375 
Q 39.109375 -1.421875 33.890625 -1.421875 
Q 20.796875 -1.421875 13.15625 6.1875 
Q 5.515625 13.8125 5.515625 26.8125 
Q 5.515625 40.234375 12.765625 48.109375 
Q 20.015625 56 32.328125 56 
Q 43.359375 56 49.78125 48.890625 
Q 56.203125 41.796875 56.203125 29.59375 
z
M 47.21875 32.234375 
Q 47.125 39.59375 43.09375 43.984375 
Q 39.0625 48.390625 32.421875 48.390625 
Q 24.90625 48.390625 20.390625 44.140625 
Q 15.875 39.890625 15.1875 32.171875 
z
" id="DejaVuSans-101"/>
      </defs>
      <use xlink:href="#DejaVuSans-68"/>
      <use x="77.001953" xlink:href="#DejaVuSans-97"/>
      <use x="138.28125" xlink:href="#DejaVuSans-116"/>
      <use x="177.490234" xlink:href="#DejaVuSans-101"/>
     </g>
    </g>
   </g>
   <g id="matplotlib.axis_2">
    <g id="ytick_1">
     <g id="line2d_19">
      <path clip-path="url(#p2f3bdb9fd3)" d="M 44.66 233.216756 
L 446.563387 233.216756 
" style="fill:none;stroke:#b0b0b0;stroke-linecap:square;stroke-width:0.8;"/>
     </g>
     <g id="line2d_20">
      <defs>
       <path d="M 0 0 
L -3.5 0 
" id="m50308e1130" style="stroke:#000000;stroke-width:0.8;"/>
      </defs>
      <g>
       <use style="stroke:#000000;stroke-width:0.8;" x="44.66" xlink:href="#m50308e1130" y="233.216756"/>
      </g>
     </g>
     <g id="text_11">
      <!-- 55 -->
      <g transform="translate(24.935 237.015975)scale(0.1 -0.1)">
       <use xlink:href="#DejaVuSans-53"/>
       <use x="63.623047" xlink:href="#DejaVuSans-53"/>
      </g>
     </g>
    </g>
    <g id="ytick_2">
     <g id="line2d_21">
      <path clip-path="url(#p2f3bdb9fd3)" d="M 44.66 190.508276 
L 446.563387 190.508276 
" style="fill:none;stroke:#b0b0b0;stroke-linecap:square;stroke-width:0.8;"/>
     </g>
     <g id="line2d_22">
      <g>
       <use style="stroke:#000000;stroke-width:0.8;" x="44.66" xlink:href="#m50308e1130" y="190.508276"/>
      </g>
     </g>
     <g id="text_12">
      <!-- 60 -->
      <g transform="translate(24.935 194.307495)scale(0.1 -0.1)">
       <defs>
        <path d="M 33.015625 40.375 
Q 26.375 40.375 22.484375 35.828125 
Q 18.609375 31.296875 18.609375 23.390625 
Q 18.609375 15.53125 22.484375 10.953125 
Q 26.375 6.390625 33.015625 6.390625 
Q 39.65625 6.390625 43.53125 10.953125 
Q 47.40625 15.53125 47.40625 23.390625 
Q 47.40625 31.296875 43.53125 35.828125 
Q 39.65625 40.375 33.015625 40.375 
z
M 52.59375 71.296875 
L 52.59375 62.3125 
Q 48.875 64.0625 45.09375 64.984375 
Q 41.3125 65.921875 37.59375 65.921875 
Q 27.828125 65.921875 22.671875 59.328125 
Q 17.53125 52.734375 16.796875 39.40625 
Q 19.671875 43.65625 24.015625 45.921875 
Q 28.375 48.1875 33.59375 48.1875 
Q 44.578125 48.1875 50.953125 41.515625 
Q 57.328125 34.859375 57.328125 23.390625 
Q 57.328125 12.15625 50.6875 5.359375 
Q 44.046875 -1.421875 33.015625 -1.421875 
Q 20.359375 -1.421875 13.671875 8.265625 
Q 6.984375 17.96875 6.984375 36.375 
Q 6.984375 53.65625 15.1875 63.9375 
Q 23.390625 74.21875 37.203125 74.21875 
Q 40.921875 74.21875 44.703125 73.484375 
Q 48.484375 72.75 52.59375 71.296875 
z
" id="DejaVuSans-54"/>
       </defs>
       <use xlink:href="#DejaVuSans-54"/>
       <use x="63.623047" xlink:href="#DejaVuSans-48"/>
      </g>
     </g>
    </g>
    <g id="ytick_3">
     <g id="line2d_23">
      <path clip-path="url(#p2f3bdb9fd3)" d="M 44.66 147.799796 
L 446.563387 147.799796 
" style="fill:none;stroke:#b0b0b0;stroke-linecap:square;stroke-width:0.8;"/>
     </g>
     <g id="line2d_24">
      <g>
       <use style="stroke:#000000;stroke-width:0.8;" x="44.66" xlink:href="#m50308e1130" y="147.799796"/>
      </g>
     </g>
     <g id="text_13">
      <!-- 65 -->
      <g transform="translate(24.935 151.599014)scale(0.1 -0.1)">
       <use xlink:href="#DejaVuSans-54"/>
       <use x="63.623047" xlink:href="#DejaVuSans-53"/>
      </g>
     </g>
    </g>
    <g id="ytick_4">
     <g id="line2d_25">
      <path clip-path="url(#p2f3bdb9fd3)" d="M 44.66 105.091315 
L 446.563387 105.091315 
" style="fill:none;stroke:#b0b0b0;stroke-linecap:square;stroke-width:0.8;"/>
     </g>
     <g id="line2d_26">
      <g>
       <use style="stroke:#000000;stroke-width:0.8;" x="44.66" xlink:href="#m50308e1130" y="105.091315"/>
      </g>
     </g>
     <g id="text_14">
      <!-- 70 -->
      <g transform="translate(24.935 108.890534)scale(0.1 -0.1)">
       <defs>
        <path d="M 8.203125 72.90625 
L 55.078125 72.90625 
L 55.078125 68.703125 
L 28.609375 0 
L 18.3125 0 
L 43.21875 64.59375 
L 8.203125 64.59375 
z
" id="DejaVuSans-55"/>
       </defs>
       <use xlink:href="#DejaVuSans-55"/>
       <use x="63.623047" xlink:href="#DejaVuSans-48"/>
      </g>
     </g>
    </g>
    <g id="ytick_5">
     <g id="line2d_27">
      <path clip-path="url(#p2f3bdb9fd3)" d="M 44.66 62.382835 
L 446.563387 62.382835 
" style="fill:none;stroke:#b0b0b0;stroke-linecap:square;stroke-width:0.8;"/>
     </g>
     <g id="line2d_28">
      <g>
       <use style="stroke:#000000;stroke-width:0.8;" x="44.66" xlink:href="#m50308e1130" y="62.382835"/>
      </g>
     </g>
     <g id="text_15">
      <!-- 75 -->
      <g transform="translate(24.935 66.182054)scale(0.1 -0.1)">
       <use xlink:href="#DejaVuSans-55"/>
       <use x="63.623047" xlink:href="#DejaVuSans-53"/>
      </g>
     </g>
    </g>
    <g id="text_16">
     <!-- Temperature [F] -->
     <g transform="translate(18.855313 180.575291)rotate(-90)scale(0.1 -0.1)">
      <defs>
       <path d="M -0.296875 72.90625 
L 61.375 72.90625 
L 61.375 64.59375 
L 35.5 64.59375 
L 35.5 0 
L 25.59375 0 
L 25.59375 64.59375 
L -0.296875 64.59375 
z
" id="DejaVuSans-84"/>
       <path d="M 52 44.1875 
Q 55.375 50.25 60.0625 53.125 
Q 64.75 56 71.09375 56 
Q 79.640625 56 84.28125 50.015625 
Q 88.921875 44.046875 88.921875 33.015625 
L 88.921875 0 
L 79.890625 0 
L 79.890625 32.71875 
Q 79.890625 40.578125 77.09375 44.375 
Q 74.3125 48.1875 68.609375 48.1875 
Q 61.625 48.1875 57.5625 43.546875 
Q 53.515625 38.921875 53.515625 30.90625 
L 53.515625 0 
L 44.484375 0 
L 44.484375 32.71875 
Q 44.484375 40.625 41.703125 44.40625 
Q 38.921875 48.1875 33.109375 48.1875 
Q 26.21875 48.1875 22.15625 43.53125 
Q 18.109375 38.875 18.109375 30.90625 
L 18.109375 0 
L 9.078125 0 
L 9.078125 54.6875 
L 18.109375 54.6875 
L 18.109375 46.1875 
Q 21.1875 51.21875 25.484375 53.609375 
Q 29.78125 56 35.6875 56 
Q 41.65625 56 45.828125 52.96875 
Q 50 49.953125 52 44.1875 
z
" id="DejaVuSans-109"/>
       <path d="M 18.109375 8.203125 
L 18.109375 -20.796875 
L 9.078125 -20.796875 
L 9.078125 54.6875 
L 18.109375 54.6875 
L 18.109375 46.390625 
Q 20.953125 51.265625 25.265625 53.625 
Q 29.59375 56 35.59375 56 
Q 45.5625 56 51.78125 48.09375 
Q 58.015625 40.1875 58.015625 27.296875 
Q 58.015625 14.40625 51.78125 6.484375 
Q 45.5625 -1.421875 35.59375 -1.421875 
Q 29.59375 -1.421875 25.265625 0.953125 
Q 20.953125 3.328125 18.109375 8.203125 
z
M 48.6875 27.296875 
Q 48.6875 37.203125 44.609375 42.84375 
Q 40.53125 48.484375 33.40625 48.484375 
Q 26.265625 48.484375 22.1875 42.84375 
Q 18.109375 37.203125 18.109375 27.296875 
Q 18.109375 17.390625 22.1875 11.75 
Q 26.265625 6.109375 33.40625 6.109375 
Q 40.53125 6.109375 44.609375 11.75 
Q 48.6875 17.390625 48.6875 27.296875 
z
" id="DejaVuSans-112"/>
       <path d="M 41.109375 46.296875 
Q 39.59375 47.171875 37.8125 47.578125 
Q 36.03125 48 33.890625 48 
Q 26.265625 48 22.1875 43.046875 
Q 18.109375 38.09375 18.109375 28.8125 
L 18.109375 0 
L 9.078125 0 
L 9.078125 54.6875 
L 18.109375 54.6875 
L 18.109375 46.1875 
Q 20.953125 51.171875 25.484375 53.578125 
Q 30.03125 56 36.53125 56 
Q 37.453125 56 38.578125 55.875 
Q 39.703125 55.765625 41.0625 55.515625 
z
" id="DejaVuSans-114"/>
       <path d="M 8.5 21.578125 
L 8.5 54.6875 
L 17.484375 54.6875 
L 17.484375 21.921875 
Q 17.484375 14.15625 20.5 10.265625 
Q 23.53125 6.390625 29.59375 6.390625 
Q 36.859375 6.390625 41.078125 11.03125 
Q 45.3125 15.671875 45.3125 23.6875 
L 45.3125 54.6875 
L 54.296875 54.6875 
L 54.296875 0 
L 45.3125 0 
L 45.3125 8.40625 
Q 42.046875 3.421875 37.71875 1 
Q 33.40625 -1.421875 27.6875 -1.421875 
Q 18.265625 -1.421875 13.375 4.4375 
Q 8.5 10.296875 8.5 21.578125 
z
M 31.109375 56 
z
" id="DejaVuSans-117"/>
       <path id="DejaVuSans-32"/>
       <path d="M 8.59375 75.984375 
L 29.296875 75.984375 
L 29.296875 69 
L 17.578125 69 
L 17.578125 -6.203125 
L 29.296875 -6.203125 
L 29.296875 -13.1875 
L 8.59375 -13.1875 
z
" id="DejaVuSans-91"/>
       <path d="M 9.8125 72.90625 
L 51.703125 72.90625 
L 51.703125 64.59375 
L 19.671875 64.59375 
L 19.671875 43.109375 
L 48.578125 43.109375 
L 48.578125 34.8125 
L 19.671875 34.8125 
L 19.671875 0 
L 9.8125 0 
z
" id="DejaVuSans-70"/>
       <path d="M 30.421875 75.984375 
L 30.421875 -13.1875 
L 9.71875 -13.1875 
L 9.71875 -6.203125 
L 21.390625 -6.203125 
L 21.390625 69 
L 9.71875 69 
L 9.71875 75.984375 
z
" id="DejaVuSans-93"/>
      </defs>
      <use xlink:href="#DejaVuSans-84"/>
      <use x="44.083984" xlink:href="#DejaVuSans-101"/>
      <use x="105.607422" xlink:href="#DejaVuSans-109"/>
      <use x="203.019531" xlink:href="#DejaVuSans-112"/>
      <use x="266.496094" xlink:href="#DejaVuSans-101"/>
      <use x="328.019531" xlink:href="#DejaVuSans-114"/>
      <use x="369.132812" xlink:href="#DejaVuSans-97"/>
      <use x="430.412109" xlink:href="#DejaVuSans-116"/>
      <use x="469.621094" xlink:href="#DejaVuSans-117"/>
      <use x="533" xlink:href="#DejaVuSans-114"/>
      <use x="571.863281" xlink:href="#DejaVuSans-101"/>
      <use x="633.386719" xlink:href="#DejaVuSans-32"/>
      <use x="665.173828" xlink:href="#DejaVuSans-91"/>
      <use x="704.1875" xlink:href="#DejaVuSans-70"/>
      <use x="761.707031" xlink:href="#DejaVuSans-93"/>
     </g>
    </g>
   </g>
   <g id="line2d_29">
    <path clip-path="url(#p2f3bdb9fd3)" d="M 62.928336 114.487181 
L 62.995557 114.487181 
L 63.058907 113.633011 
L 63.091207 114.487181 
L 63.1229 114.487181 
L 63.249855 113.633011 
L 63.313422 113.633011 
L 63.345196 114.487181 
L 63.377544 113.633011 
L 63.505325 112.778842 
L 63.697433 112.778842 
L 63.794418 111.924672 
L 63.956009 113.633011 
L 63.987817 113.633011 
L 64.085738 111.924672 
L 64.117458 113.633011 
L 64.181197 111.924672 
L 64.246683 111.924672 
L 64.37645 110.216333 
L 64.40803 111.924672 
L 64.440301 109.362163 
L 64.471955 109.362163 
L 64.504442 110.216333 
L 64.568851 109.362163 
L 64.696646 109.362163 
L 64.761628 108.507994 
L 64.794451 109.362163 
L 64.827096 109.362163 
L 64.859526 108.507994 
L 64.891242 110.216333 
L 64.987074 110.216333 
L 65.118431 108.507994 
L 65.150403 108.507994 
L 65.278196 109.362163 
L 65.31017 109.362163 
L 65.440208 110.216333 
L 65.537175 110.216333 
L 65.700567 107.653824 
L 65.862182 109.362163 
L 65.992736 107.653824 
L 66.026227 107.653824 
L 66.059474 106.799655 
L 66.123275 107.653824 
L 66.155471 108.507994 
L 66.20873 107.653824 
L 66.339058 107.653824 
L 66.404695 106.799655 
L 66.436681 107.653824 
L 66.470644 107.653824 
L 66.634747 110.216333 
L 66.700628 109.362163 
L 66.735406 110.216333 
L 66.839527 110.216333 
L 66.871332 111.924672 
L 66.936473 110.216333 
L 67.03188 110.216333 
L 67.161929 109.362163 
L 67.227169 110.216333 
L 67.260269 109.362163 
L 67.32339 109.362163 
L 67.389332 111.924672 
L 67.422566 109.362163 
L 67.485775 109.362163 
L 67.555015 111.924672 
L 67.586647 110.216333 
L 67.618243 110.216333 
L 67.650015 111.924672 
L 67.681899 109.362163 
L 67.713513 110.216333 
L 67.746041 110.216333 
L 67.875116 113.633011 
L 67.940784 110.216333 
L 67.972434 113.633011 
L 68.005389 115.341351 
L 68.03867 112.778842 
L 68.204458 109.362163 
L 68.334584 115.341351 
L 68.400436 112.778842 
L 68.433017 114.487181 
L 68.500843 115.341351 
L 68.532418 114.487181 
L 68.563964 114.487181 
L 68.726915 116.19552 
L 69.050185 116.19552 
L 69.179307 117.04969 
L 69.277058 116.19552 
L 69.341505 117.04969 
L 69.373322 116.19552 
L 69.40501 115.341351 
L 69.437592 117.04969 
L 69.504757 117.04969 
L 69.601417 113.633011 
L 69.634706 116.19552 
L 69.668011 118.758029 
L 69.731667 117.04969 
L 69.830365 117.04969 
L 70.026009 114.487181 
L 70.155223 115.341351 
L 70.220558 115.341351 
L 70.252636 114.487181 
L 70.284206 115.341351 
L 70.317224 116.19552 
L 70.349211 113.633011 
L 70.41405 117.04969 
L 70.447129 117.04969 
L 70.512769 115.341351 
L 70.544299 116.19552 
L 70.575957 116.19552 
L 70.607489 115.341351 
L 70.639267 117.04969 
L 70.672495 117.04969 
L 70.704795 115.341351 
L 70.768226 116.19552 
L 70.930576 116.19552 
L 71.030957 117.04969 
L 71.127369 116.19552 
L 71.228114 117.04969 
L 71.293477 115.341351 
L 71.357268 116.19552 
L 71.421639 116.19552 
L 71.550937 117.04969 
L 71.904515 117.04969 
L 72.001823 118.758029 
L 72.035008 117.04969 
L 72.098905 118.758029 
L 72.622535 118.758029 
L 72.75416 119.612199 
L 72.787454 118.758029 
L 72.851358 119.612199 
L 72.883099 119.612199 
L 72.914773 118.758029 
L 72.978569 119.612199 
L 73.591995 119.612199 
L 73.624106 120.466368 
L 73.655897 119.612199 
L 155.050366 120.466368 
L 155.083243 119.612199 
L 155.468434 117.04969 
L 155.500376 119.612199 
L 155.567356 118.758029 
L 155.63511 119.612199 
L 155.667714 117.04969 
L 155.746018 119.612199 
L 155.80135 118.758029 
L 155.834116 118.758029 
L 155.998523 113.633011 
L 156.137491 117.04969 
L 156.169035 116.19552 
L 156.316441 118.758029 
L 156.45225 118.758029 
L 156.483865 119.612199 
L 156.615776 116.19552 
L 156.650837 116.19552 
L 156.753938 109.362163 
L 156.813562 113.633011 
L 156.846606 116.19552 
L 156.878318 114.487181 
L 156.981968 117.04969 
L 157.051713 116.19552 
L 157.08333 116.19552 
L 157.196087 118.758029 
L 157.300136 116.19552 
L 157.331727 117.04969 
L 157.434875 117.04969 
L 157.599352 108.507994 
L 157.728189 116.19552 
L 157.759775 117.04969 
L 157.888231 107.653824 
L 157.954127 110.216333 
L 157.985756 109.362163 
L 158.017352 110.216333 
L 158.19329 118.758029 
L 158.343526 115.341351 
L 158.441417 115.341351 
L 158.474895 114.487181 
L 158.506667 115.341351 
L 158.63709 118.758029 
L 158.804711 115.341351 
L 158.837124 115.341351 
L 158.945735 108.507994 
L 159.055927 117.04969 
L 159.090099 115.341351 
L 159.162044 118.758029 
L 159.193754 115.341351 
L 159.390399 118.758029 
L 159.421934 116.19552 
L 159.454757 117.04969 
L 159.584721 117.04969 
L 159.617615 115.341351 
L 159.685972 117.04969 
L 159.719016 119.612199 
L 159.783723 116.19552 
L 159.847318 116.19552 
L 159.880618 117.04969 
L 159.91501 111.924672 
L 160.015104 112.778842 
L 160.08162 116.19552 
L 160.1134 114.487181 
L 160.147508 113.633011 
L 160.179033 114.487181 
L 160.340341 116.19552 
L 160.476325 115.341351 
L 160.507949 115.341351 
L 160.571832 116.19552 
L 160.604405 114.487181 
L 160.66756 116.19552 
L 160.69955 116.19552 
L 160.731092 115.341351 
L 160.79584 116.19552 
L 160.828388 116.19552 
L 160.955197 117.04969 
L 160.987988 117.04969 
L 161.116432 118.758029 
L 161.148497 118.758029 
L 161.277621 119.612199 
L 161.729174 119.612199 
L 161.826544 120.466368 
L 161.956236 119.612199 
L 162.183386 119.612199 
L 162.215259 116.19552 
L 162.278704 119.612199 
L 162.375695 118.758029 
L 162.509844 119.612199 
L 162.606406 119.612199 
L 162.638618 118.758029 
L 162.702165 119.612199 
L 162.765989 119.612199 
L 162.863663 120.466368 
L 162.896555 119.612199 
L 162.962192 120.466368 
L 163.61772 120.466368 
L 163.6521 121.320538 
L 163.683777 120.466368 
L 163.825441 119.612199 
L 164.194638 119.612199 
L 164.289774 118.758029 
L 164.321939 119.612199 
L 164.390287 118.758029 
L 164.844263 118.758029 
L 164.875876 119.612199 
L 164.939847 118.758029 
L 165.232635 118.758029 
L 165.331565 119.612199 
L 165.458979 118.758029 
L 165.585555 118.758029 
L 165.681415 119.612199 
L 165.77887 118.758029 
L 165.908096 119.612199 
L 165.971417 119.612199 
L 166.098115 118.758029 
L 166.161709 118.758029 
L 166.256496 119.612199 
L 166.391896 118.758029 
L 166.712218 118.758029 
L 293.969287 94.84128 
L 294.042808 96.549619 
L 294.196541 96.549619 
L 294.228395 94.84128 
L 294.294319 96.549619 
L 294.398034 96.549619 
L 294.430885 94.84128 
L 294.503151 96.549619 
L 294.79331 96.549619 
L 294.858568 97.403789 
L 294.890465 96.549619 
L 295.090632 96.549619 
L 295.124001 97.403789 
L 295.193527 96.549619 
L 295.231771 96.549619 
L 295.361329 97.403789 
L 295.426646 97.403789 
L 295.45922 96.549619 
L 295.522725 97.403789 
L 295.650711 97.403789 
L 295.746567 96.549619 
L 295.857571 97.403789 
L 296.584352 97.403789 
L 296.616323 98.257959 
L 296.6795 97.403789 
L 296.711011 97.403789 
L 296.743359 98.257959 
L 296.807515 97.403789 
L 296.84017 97.403789 
L 296.973064 98.257959 
L 297.107108 97.403789 
L 297.138711 97.403789 
L 297.265921 98.257959 
L 297.882226 98.257959 
L 297.914135 99.112128 
L 297.977507 98.257959 
L 298.110919 98.257959 
L 298.146228 99.112128 
L 298.193874 98.257959 
L 298.5217 98.257959 
L 298.655119 99.112128 
L 300.027949 99.112128 
L 300.06112 99.966298 
L 300.127013 99.112128 
L 300.420715 99.112128 
L 300.554145 99.966298 
L 300.685567 99.112128 
L 300.718097 99.112128 
L 300.847363 99.966298 
L 301.310732 99.966298 
L 301.463152 100.820467 
L 301.590438 99.966298 
L 302.53387 99.966298 
L 302.565387 99.112128 
L 302.63108 99.966298 
L 302.86087 99.966298 
L 302.892691 99.112128 
L 302.958263 99.966298 
L 302.991329 99.966298 
L 303.08753 99.112128 
L 303.217347 99.966298 
L 303.705054 99.966298 
L 303.736609 100.820467 
L 303.799687 99.966298 
L 304.408468 99.966298 
L 304.440971 99.112128 
L 304.505168 99.966298 
L 304.601424 99.966298 
L 304.643826 99.112128 
L 304.679468 99.966298 
L 305.002879 99.966298 
L 305.035432 99.112128 
L 305.101281 99.966298 
L 306.140716 99.966298 
L 306.270214 100.820467 
L 306.335176 100.820467 
L 306.469014 99.966298 
L 306.610922 100.820467 
L 306.742498 99.966298 
L 306.774031 99.966298 
L 306.902771 100.820467 
L 307.033047 99.966298 
L 307.194885 99.966298 
L 307.321657 100.820467 
L 307.890357 100.820467 
L 307.922289 101.674637 
L 307.985582 100.820467 
L 308.381329 100.820467 
L 308.48001 101.674637 
L 308.578278 100.820467 
L 308.675202 101.674637 
L 308.776004 100.820467 
L 308.911991 101.674637 
L 308.943537 101.674637 
L 308.977729 100.820467 
L 309.04273 101.674637 
L 310.057484 101.674637 
L 310.09017 103.382976 
L 310.154794 101.674637 
L 310.186387 101.674637 
L 310.223552 103.382976 
L 310.288797 101.674637 
L 310.719785 101.674637 
L 310.783717 103.382976 
L 310.81635 101.674637 
L 311.118479 101.674637 
L 311.248761 103.382976 
L 311.344353 101.674637 
L 311.44023 103.382976 
L 311.538938 101.674637 
L 311.635608 103.382976 
L 311.77014 101.674637 
L 311.899716 103.382976 
L 311.93134 103.382976 
L 311.962871 101.674637 
L 312.027355 103.382976 
L 312.061817 103.382976 
L 312.094629 101.674637 
L 312.161394 103.382976 
L 313.102704 103.382976 
L 313.20288 104.237146 
L 313.339449 103.382976 
L 313.40364 103.382976 
L 313.436791 104.237146 
L 313.468854 103.382976 
L 313.821133 103.382976 
L 313.952138 104.237146 
L 314.048818 103.382976 
L 314.17921 104.237146 
L 315.289599 104.237146 
L 315.385923 105.091315 
L 315.452544 104.237146 
L 315.48476 105.091315 
L 315.549659 105.091315 
L 315.613433 104.237146 
L 315.645177 105.091315 
L 316.386859 105.091315 
L 316.518246 104.237146 
L 316.647088 105.091315 
L 317.980171 105.091315 
L 318.011879 105.945485 
L 318.08507 105.091315 
L 319.226581 105.091315 
L 319.362291 105.945485 
L 319.460766 105.091315 
L 319.606378 105.945485 
L 320.498577 105.945485 
L 320.530243 105.091315 
L 320.596757 105.945485 
L 320.762094 105.945485 
L 320.858855 105.091315 
L 320.99078 105.945485 
L 321.023787 105.945485 
L 321.156249 105.091315 
L 321.317325 105.091315 
L 321.348868 105.945485 
L 321.41453 105.091315 
L 321.512282 105.091315 
L 321.645997 105.945485 
L 321.776138 105.091315 
L 322.033306 105.091315 
L 322.169072 105.945485 
L 322.301913 105.091315 
L 323.331482 105.091315 
L 323.461939 104.237146 
L 323.756468 104.237146 
L 323.82227 103.382976 
L 323.854624 104.237146 
L 324.052986 104.237146 
L 324.126079 103.382976 
L 324.158706 104.237146 
L 324.224273 104.237146 
L 324.257957 103.382976 
L 324.32243 104.237146 
L 325.243149 104.237146 
L 325.374475 103.382976 
L 325.480377 103.382976 
L 325.51225 104.237146 
L 325.575857 103.382976 
L 325.707565 103.382976 
L 325.838828 101.674637 
L 326.165863 101.674637 
L 326.229704 100.820467 
L 326.261723 101.674637 
L 327.040444 101.674637 
L 327.136706 100.820467 
L 327.268023 101.674637 
L 327.331317 101.674637 
L 327.427966 100.820467 
L 327.460061 101.674637 
L 327.525056 100.820467 
L 327.556651 100.820467 
L 327.683345 99.966298 
L 327.749516 99.966298 
L 327.877674 100.820467 
L 327.973183 100.820467 
L 328.102601 99.966298 
L 328.134127 99.966298 
L 328.232031 100.820467 
L 328.375173 99.966298 
L 328.474427 99.966298 
L 328.573731 100.820467 
L 328.702989 99.966298 
L 328.838173 100.820467 
L 328.873454 99.966298 
L 328.93829 100.820467 
L 329.074094 100.820467 
L 329.105768 99.966298 
L 329.170856 100.820467 
L 329.630895 100.820467 
L 329.761179 99.966298 
L 329.8265 100.820467 
L 329.858326 99.966298 
L 329.960524 99.966298 
L 330.093182 100.820467 
L 330.126938 100.820467 
L 330.261724 99.966298 
L 330.360738 100.820467 
L 330.494684 99.966298 
L 330.563104 99.966298 
L 330.693845 100.820467 
L 330.72665 100.820467 
L 330.856697 99.966298 
L 331.090594 99.966298 
L 331.126409 100.820467 
L 331.15809 99.966298 
L 331.337389 99.966298 
L 331.369843 100.820467 
L 331.435396 99.966298 
L 331.688324 99.966298 
L 331.719914 98.257959 
L 331.784688 99.112128 
L 331.88022 99.112128 
L 332.009076 99.966298 
L 332.138776 99.966298 
L 332.202583 100.820467 
L 332.234777 99.966298 
L 332.267576 99.966298 
L 332.299205 99.112128 
L 332.363656 99.966298 
L 332.395864 99.966298 
L 332.493045 99.112128 
L 332.5247 99.966298 
L 332.590579 99.112128 
L 332.656182 99.112128 
L 332.786805 99.966298 
L 333.152879 99.966298 
L 333.184612 100.820467 
L 333.250464 99.966298 
L 333.349721 99.112128 
L 333.480798 99.966298 
L 333.906237 99.966298 
L 334.034632 100.820467 
L 334.100562 100.820467 
L 334.133641 99.966298 
L 334.197431 100.820467 
L 334.584388 100.820467 
L 334.714515 99.966298 
L 334.895875 100.820467 
L 335.253877 100.820467 
L 335.348708 101.674637 
L 335.477571 100.820467 
L 335.608834 100.820467 
L 335.64246 99.966298 
L 335.706227 100.820467 
L 336.09894 100.820467 
L 336.13162 101.674637 
L 336.19535 100.820467 
L 336.635663 100.820467 
L 336.766926 101.674637 
L 336.897637 100.820467 
L 337.030579 101.674637 
L 337.554773 101.674637 
L 337.619517 100.820467 
L 337.651601 101.674637 
L 337.784016 101.674637 
L 337.817686 100.820467 
L 337.882974 101.674637 
L 338.776574 101.674637 
L 338.809466 103.382976 
L 338.953117 101.674637 
L 339.061726 103.382976 
L 339.197874 101.674637 
L 339.297937 103.382976 
L 339.425953 101.674637 
L 339.556468 103.382976 
L 339.664727 103.382976 
L 339.797026 101.674637 
L 339.976354 103.382976 
L 340.774156 103.382976 
L 340.891632 104.237146 
L 340.9572 103.382976 
L 340.992393 104.237146 
L 341.024017 104.237146 
L 341.090303 103.382976 
L 341.122539 104.237146 
L 341.188411 104.237146 
L 341.284989 103.382976 
L 341.42814 104.237146 
L 342.244752 104.237146 
L 342.27631 105.091315 
L 342.340414 104.237146 
L 342.894312 104.237146 
L 342.92605 105.091315 
L 342.991442 104.237146 
L 343.024105 104.237146 
L 343.121638 105.091315 
L 343.153846 104.237146 
L 343.2192 105.091315 
L 343.252366 105.091315 
L 343.385496 104.237146 
L 343.52343 105.091315 
L 345.334365 105.091315 
L 345.369754 105.945485 
L 345.438055 105.091315 
L 345.541086 105.091315 
L 345.607055 105.945485 
L 345.639904 105.091315 
L 345.710336 105.091315 
L 345.843797 105.945485 
L 345.87668 105.091315 
L 345.942001 105.945485 
L 346.299336 105.945485 
L 346.333075 105.091315 
L 346.398409 105.945485 
L 346.526259 105.945485 
L 346.557847 105.091315 
L 346.622541 105.945485 
L 346.884222 105.945485 
L 346.918431 106.799655 
L 346.983596 105.945485 
L 347.87402 105.945485 
L 347.907095 105.091315 
L 347.975768 105.945485 
L 349.459883 105.945485 
L 349.492448 106.799655 
L 349.559832 105.945485 
L 350.061752 105.945485 
L 350.171202 106.799655 
L 350.302655 105.945485 
L 350.366766 105.945485 
L 350.499284 106.799655 
L 350.89952 106.799655 
L 350.93166 105.945485 
L 350.997357 106.799655 
L 351.42624 106.799655 
L 351.461379 105.945485 
L 351.525857 106.799655 
L 353.050734 106.799655 
L 353.086222 107.653824 
L 353.149618 106.799655 
L 353.279772 106.799655 
L 353.313339 107.653824 
L 353.381172 106.799655 
L 353.607828 106.799655 
L 353.735109 107.653824 
L 353.872619 106.799655 
L 354.004925 107.653824 
L 354.036435 106.799655 
L 354.100178 107.653824 
L 354.165033 107.653824 
L 354.293409 106.799655 
L 354.326516 106.799655 
L 354.425769 107.653824 
L 354.459227 106.799655 
L 354.524178 107.653824 
L 354.623378 107.653824 
L 354.753683 106.799655 
L 354.884004 107.653824 
L 354.91564 106.799655 
L 354.983276 107.653824 
L 355.24323 107.653824 
L 355.277259 106.799655 
L 355.34138 107.653824 
L 357.685786 107.653824 
L 357.718828 108.507994 
L 357.783519 107.653824 
L 357.978408 107.653824 
L 358.010164 108.507994 
L 358.076564 107.653824 
L 358.171632 107.653824 
L 358.299642 108.507994 
L 358.331359 108.507994 
L 358.365571 107.653824 
L 358.432785 108.507994 
L 358.465475 108.507994 
L 358.532047 107.653824 
L 358.563531 108.507994 
L 358.597356 108.507994 
L 358.629962 107.653824 
L 358.698354 108.507994 
L 358.732445 108.507994 
L 358.861078 107.653824 
L 358.991738 108.507994 
L 359.865851 108.507994 
L 359.897945 109.362163 
L 359.962627 108.507994 
L 360.350841 108.507994 
L 360.453036 109.362163 
L 360.586467 108.507994 
L 360.652898 108.507994 
L 360.685047 109.362163 
L 360.720837 108.507994 
L 360.82524 109.362163 
L 360.924461 108.507994 
L 361.056566 109.362163 
L 361.130659 108.507994 
L 361.163754 109.362163 
L 361.306635 108.507994 
L 361.366128 108.507994 
L 361.400509 109.362163 
L 361.556293 108.507994 
L 363.316921 108.507994 
L 363.422916 107.653824 
L 363.552532 108.507994 
L 363.695245 107.653824 
L 363.75852 108.507994 
L 363.790058 107.653824 
L 364.695662 107.653824 
L 364.72723 106.799655 
L 364.806596 107.653824 
L 364.903464 106.799655 
L 365.010825 107.653824 
L 365.178271 105.945485 
L 365.214828 105.945485 
L 365.248729 106.799655 
L 365.315073 105.945485 
L 365.544128 105.945485 
L 365.642927 105.091315 
L 365.675104 105.945485 
L 365.740858 105.091315 
L 365.875572 105.091315 
L 365.917207 104.237146 
L 365.980367 105.091315 
L 366.11304 105.091315 
L 366.216738 105.945485 
L 366.320316 105.091315 
L 366.447341 105.945485 
L 366.575892 105.091315 
L 366.607425 105.091315 
L 366.702825 104.237146 
L 366.766074 105.091315 
L 366.798766 104.237146 
L 366.830361 104.237146 
L 366.925209 105.091315 
L 367.052447 104.237146 
L 367.211544 104.237146 
L 367.243782 105.091315 
L 367.308538 104.237146 
L 367.381011 104.237146 
L 367.412609 105.091315 
L 367.478224 104.237146 
L 367.509905 104.237146 
L 367.636728 105.091315 
L 368.093996 105.091315 
L 368.220514 104.237146 
L 368.353643 105.091315 
L 368.55742 105.091315 
L 368.589165 104.237146 
L 368.65229 105.091315 
L 368.878614 105.091315 
L 369.007438 104.237146 
L 369.039086 104.237146 
L 369.070963 105.091315 
L 369.139108 104.237146 
L 369.170736 104.237146 
L 369.204337 105.091315 
L 369.268145 104.237146 
L 369.846319 104.237146 
L 369.963348 105.091315 
L 370.035851 104.237146 
L 370.993686 104.237146 
L 371.110728 103.382976 
L 371.479483 103.382976 
L 371.511565 104.237146 
L 371.564732 103.382976 
L 372.414012 103.382976 
L 372.527841 104.237146 
L 372.65759 103.382976 
L 372.991513 103.382976 
L 373.041319 104.237146 
L 373.078396 101.674637 
L 373.156587 103.382976 
L 373.273222 103.382976 
L 373.418068 101.674637 
L 374.140064 101.674637 
L 374.432355 99.966298 
L 374.536856 100.820467 
L 375.525468 100.820467 
L 375.56709 99.966298 
L 375.608686 100.820467 
L 375.816122 100.820467 
L 375.887893 99.966298 
L 375.924012 100.820467 
L 375.956666 100.820467 
L 376.031763 99.966298 
L 376.236223 99.966298 
L 376.268062 100.820467 
L 376.336074 99.966298 
L 376.4422 99.966298 
L 376.582546 99.112128 
L 376.687022 99.966298 
L 376.829991 99.112128 
L 376.951093 99.112128 
L 377.085342 99.966298 
L 377.267933 99.966298 
L 377.300889 100.820467 
L 377.337577 99.966298 
L 377.610835 99.966298 
L 377.787335 99.112128 
L 377.876193 99.966298 
L 378.058152 98.257959 
L 378.100675 98.257959 
L 378.133463 99.112128 
L 378.343379 98.257959 
L 378.588806 97.403789 
L 378.623012 97.403789 
L 378.779711 98.257959 
L 378.913651 97.403789 
L 378.9803 97.403789 
L 379.01695 98.257959 
L 379.369779 98.257959 
L 379.41304 99.112128 
L 379.467618 98.257959 
L 379.68982 98.257959 
L 379.821274 99.112128 
L 380.491253 99.112128 
L 380.558009 98.257959 
L 380.592561 99.112128 
L 380.631893 99.112128 
L 380.745249 98.257959 
L 380.848813 98.257959 
L 380.997368 99.112128 
L 381.140024 98.257959 
L 381.258111 98.257959 
L 381.376374 99.112128 
L 381.655826 99.112128 
L 381.707441 99.966298 
L 381.746315 99.112128 
L 381.816563 99.112128 
L 381.920737 99.966298 
L 382.052275 99.112128 
L 382.108816 99.966298 
L 382.141641 99.112128 
L 382.313906 99.966298 
L 382.423739 99.966298 
L 382.457513 100.820467 
L 382.502336 99.966298 
L 382.537737 99.966298 
L 382.572424 100.820467 
L 382.668587 99.966298 
L 382.723933 101.674637 
L 382.805233 100.820467 
L 383.051107 100.820467 
L 383.190847 101.674637 
L 383.228156 101.674637 
L 383.265945 100.820467 
L 383.297609 101.674637 
L 383.656123 101.674637 
L 383.692843 103.382976 
L 383.729417 101.674637 
L 383.931224 103.382976 
L 384.42351 103.382976 
L 384.497199 104.237146 
L 384.528886 103.382976 
L 384.562721 103.382976 
L 384.68364 104.237146 
L 385.29549 104.237146 
L 385.432065 105.091315 
L 385.574801 104.237146 
L 385.640048 105.091315 
L 385.743807 104.237146 
L 385.852241 105.091315 
L 385.9216 104.237146 
L 386.04031 105.091315 
L 386.691358 105.091315 
L 386.791587 105.945485 
L 386.825458 105.091315 
L 386.890081 105.945485 
L 387.672557 105.945485 
L 387.768703 106.799655 
L 387.919352 105.945485 
L 388.217921 105.945485 
L 388.250994 106.799655 
L 388.314199 105.945485 
L 388.345764 105.945485 
L 388.37734 106.799655 
L 388.440937 105.945485 
L 388.478194 105.945485 
L 388.511017 106.799655 
L 388.575966 105.945485 
L 388.608691 105.945485 
L 388.707464 106.799655 
L 388.803353 105.945485 
L 388.933607 106.799655 
L 389.891573 106.799655 
L 390.019672 107.653824 
L 390.05127 106.799655 
L 390.114638 107.653824 
L 390.146194 107.653824 
L 390.273428 106.799655 
L 390.306058 106.799655 
L 390.4352 107.653824 
L 391.273861 107.653824 
L 391.30538 108.507994 
L 391.368802 107.653824 
L 391.400431 107.653824 
L 391.499918 108.507994 
L 391.532457 107.653824 
L 391.595613 108.507994 
L 391.848563 108.507994 
L 391.975834 109.362163 
L 392.072524 108.507994 
L 392.201371 109.362163 
L 392.391289 109.362163 
L 392.526008 110.216333 
L 392.657101 109.362163 
L 393.481873 109.362163 
L 393.514508 108.507994 
L 393.704018 109.362163 
L 393.959559 109.362163 
L 393.992364 110.216333 
L 394.197682 109.362163 
L 394.394165 109.362163 
L 394.427369 110.216333 
L 394.493153 109.362163 
L 395.430634 109.362163 
L 395.558046 110.216333 
L 395.654931 110.216333 
L 395.785612 109.362163 
L 395.882536 109.362163 
L 396.015447 110.216333 
L 397.724424 110.216333 
L 397.851432 111.924672 
L 397.883081 111.924672 
L 398.01278 110.216333 
L 398.110424 110.216333 
L 398.206335 111.924672 
L 398.332689 110.216333 
L 398.395716 110.216333 
L 398.524306 111.924672 
L 399.857172 111.924672 
L 399.891116 112.778842 
L 399.957988 111.924672 
L 399.989578 111.924672 
L 400.023295 112.778842 
L 400.088378 111.924672 
L 400.6057 111.924672 
L 400.668791 112.778842 
L 400.700644 111.924672 
L 400.958525 111.924672 
L 400.990217 112.778842 
L 401.054309 111.924672 
L 401.445075 111.924672 
L 401.476557 112.778842 
L 401.539877 111.924672 
L 401.699877 111.924672 
L 401.731553 112.778842 
L 401.794626 111.924672 
L 401.893638 111.924672 
L 401.988959 112.778842 
L 402.020483 111.924672 
L 402.087802 112.778842 
L 402.121018 112.778842 
L 402.248764 111.924672 
L 402.280859 111.924672 
L 402.410636 112.778842 
L 402.442482 111.924672 
L 402.505483 112.778842 
L 402.798606 112.778842 
L 402.831167 111.924672 
L 402.89525 112.778842 
L 403.443689 112.778842 
L 403.571474 113.633011 
L 403.60473 113.633011 
L 403.734727 112.778842 
L 404.556268 112.778842 
L 404.653781 113.633011 
L 404.786261 112.778842 
L 404.81934 112.778842 
L 404.850876 113.633011 
L 404.914358 112.778842 
L 404.9461 112.778842 
L 404.977656 113.633011 
L 405.041823 112.778842 
L 405.142664 112.778842 
L 405.174267 113.633011 
L 405.240212 112.778842 
L 407.077451 112.778842 
L 407.175433 111.924672 
L 407.308588 112.778842 
L 407.596316 112.778842 
L 407.726218 111.924672 
L 407.82516 112.778842 
L 407.955968 111.924672 
L 407.988234 111.924672 
L 408.053889 112.778842 
L 408.086486 111.924672 
L 408.181996 111.924672 
L 408.213569 112.778842 
L 408.281342 111.924672 
L 408.773551 111.924672 
L 408.904304 110.216333 
L 409.381787 110.216333 
L 409.414668 109.362163 
L 409.480636 110.216333 
L 409.611466 110.216333 
L 409.739872 109.362163 
L 410.067735 109.362163 
L 410.204662 108.507994 
L 410.275333 108.507994 
L 410.307995 109.362163 
L 410.372114 108.507994 
L 410.628742 108.507994 
L 410.762762 107.653824 
L 411.061675 107.653824 
L 411.198008 106.799655 
L 411.360095 106.799655 
L 411.496916 105.945485 
L 411.962851 105.945485 
L 411.994591 105.091315 
L 412.060812 105.945485 
L 412.209925 105.945485 
L 412.315422 105.091315 
L 412.567815 105.091315 
L 412.640314 104.237146 
L 412.673087 105.091315 
L 412.799801 105.945485 
L 412.931741 105.091315 
L 413.027247 105.091315 
L 413.058783 104.237146 
L 413.128267 105.091315 
L 413.197303 104.237146 
L 413.266102 105.945485 
L 413.373139 105.945485 
L 413.404631 106.799655 
L 413.441244 105.945485 
L 413.582102 105.945485 
L 413.723162 105.091315 
L 413.792142 105.091315 
L 413.82371 104.237146 
L 413.855237 105.945485 
L 413.95269 106.799655 
L 413.986849 105.945485 
L 414.063157 106.799655 
L 414.094772 106.799655 
L 414.193808 105.945485 
L 414.323125 106.799655 
L 414.45729 105.945485 
L 414.555344 105.945485 
L 414.697244 106.799655 
L 414.859728 106.799655 
L 414.989552 105.945485 
L 415.119649 105.945485 
L 415.154006 106.799655 
L 415.187211 105.091315 
L 415.229372 105.945485 
L 415.263039 105.945485 
L 415.364684 106.799655 
L 415.561548 104.237146 
L 415.603535 104.237146 
L 415.668398 94.84128 
L 415.735657 100.820467 
L 415.767623 99.966298 
L 415.800441 100.820467 
L 415.964504 105.091315 
L 416.028643 105.091315 
L 416.160675 105.945485 
L 416.261612 105.945485 
L 416.392077 106.799655 
L 416.425291 106.799655 
L 416.557339 105.945485 
L 417.087915 105.945485 
L 417.120646 106.799655 
L 417.184568 105.945485 
L 417.379847 105.945485 
L 417.414873 106.799655 
L 417.482307 105.945485 
L 417.580763 104.237146 
L 417.614163 105.091315 
L 417.743439 105.945485 
L 417.873947 105.091315 
L 417.969476 105.091315 
L 418.099975 104.237146 
L 418.234023 104.237146 
L 418.308609 103.382976 
L 418.43746 105.091315 
L 418.470719 105.945485 
L 418.504525 105.091315 
L 418.647476 104.237146 
L 418.680215 104.237146 
L 418.747028 100.820467 
L 418.78056 101.674637 
L 418.898991 103.382976 
L 419.301007 101.674637 
L 419.37304 103.382976 
L 419.488237 103.382976 
L 419.656975 93.987111 
L 419.688655 99.112128 
L 419.764994 96.549619 
L 419.800303 98.257959 
L 420.093736 101.674637 
L 420.22841 101.674637 
L 420.32404 100.820467 
L 420.549095 103.382976 
L 420.586897 103.382976 
L 420.666692 101.674637 
L 420.739974 103.382976 
L 420.904309 100.820467 
L 421.009917 103.382976 
L 421.106982 103.382976 
L 421.267518 105.091315 
L 421.305707 105.091315 
L 421.391574 103.382976 
L 421.553243 105.945485 
L 421.71475 104.237146 
L 421.791895 105.945485 
L 421.824573 104.237146 
L 422.074539 100.820467 
L 422.120322 101.674637 
L 422.164721 100.820467 
L 422.20402 100.820467 
L 422.235686 99.966298 
L 422.27785 101.674637 
L 422.328828 101.674637 
L 422.436324 99.966298 
L 422.561979 103.382976 
L 422.749288 103.382976 
L 422.874552 101.674637 
L 423.0436 103.382976 
L 423.194731 101.674637 
L 423.232258 101.674637 
L 423.270407 103.382976 
L 423.336483 101.674637 
L 423.369682 101.674637 
L 423.509215 103.382976 
L 423.545378 103.382976 
L 423.612189 101.674637 
L 423.650925 103.382976 
L 423.829502 103.382976 
L 423.914835 104.237146 
L 423.948207 103.382976 
L 423.98609 104.237146 
L 424.664026 104.237146 
L 424.713461 103.382976 
L 424.745063 104.237146 
L 424.890772 104.237146 
L 424.980695 105.091315 
L 425.093334 104.237146 
L 425.294143 104.237146 
L 425.438683 105.091315 
L 425.655237 105.091315 
L 425.687386 105.945485 
L 425.729534 105.091315 
L 425.807798 105.091315 
L 425.90725 104.237146 
L 426.022629 105.091315 
L 426.227162 104.237146 
L 426.463143 104.237146 
L 426.57931 105.091315 
L 427.111646 105.091315 
L 427.252908 105.945485 
L 427.533056 105.945485 
L 427.575513 106.799655 
L 427.612328 105.945485 
L 427.722303 105.945485 
L 427.859243 106.799655 
L 427.895199 106.799655 
L 427.929125 105.945485 
L 427.995441 106.799655 
L 428.295051 106.799655 
L 428.295051 106.799655 
" style="fill:none;stroke:#1f77b4;stroke-linecap:square;stroke-width:1.5;"/>
   </g>
   <g id="line2d_30">
    <path clip-path="url(#p2f3bdb9fd3)" d="M 62.928336 172.570714 
L 65.894986 172.570714 
L 66.026227 139.2581 
L 69.277058 139.2581 
L 69.40501 148.653965 
L 71.550937 148.653965 
L 71.678524 164.883188 
L 72.787454 164.883188 
L 72.914773 181.96658 
L 73.655897 181.96658 
L 155.004876 62.382835 
L 159.324808 62.382835 
L 159.454757 79.466227 
L 161.277621 79.466227 
L 161.407763 95.69545 
L 163.059412 95.69545 
L 163.187477 139.2581 
L 165.649775 139.2581 
L 165.77887 164.883188 
L 166.712218 164.883188 
L 294.042808 71.778701 
L 295.296692 71.778701 
L 295.426646 105.091315 
L 297.070372 105.091315 
L 297.202477 139.2581 
L 300.782431 139.2581 
L 300.911081 156.341492 
L 304.440971 156.341492 
L 304.569961 164.883188 
L 306.742498 164.883188 
L 306.870789 172.570714 
L 308.181726 172.570714 
L 308.315244 189.654106 
L 309.831394 189.654106 
L 309.958453 199.049972 
L 310.947534 199.049972 
L 311.085724 183.674919 
L 311.77014 183.674919 
L 311.899716 189.654106 
L 313.40364 189.654106 
L 313.468854 181.96658 
L 318.011879 181.96658 
L 318.181098 183.674919 
L 319.151171 183.674919 
L 319.29371 181.96658 
L 320.826783 181.96658 
L 320.95873 172.570714 
L 324.515013 172.570714 
L 324.645268 164.883188 
L 326.553574 164.883188 
L 326.683592 156.341492 
L 327.683345 156.341492 
L 327.814428 152.924813 
L 328.167394 152.924813 
L 328.304102 148.653965 
L 331.912292 148.653965 
L 332.04172 139.2581 
L 337.784016 139.2581 
L 337.914572 152.924813 
L 339.556468 152.924813 
L 339.699061 156.341492 
L 340.858838 156.341492 
L 340.992393 152.924813 
L 341.188411 152.924813 
L 341.3262 156.341492 
L 345.97571 156.341492 
L 346.105367 152.924813 
L 346.622541 152.924813 
L 346.752402 156.341492 
L 348.417227 156.341492 
L 348.545553 164.883188 
L 349.394123 164.883188 
L 349.492448 183.674919 
L 350.335083 183.674919 
L 350.466507 189.654106 
L 350.802254 189.654106 
L 350.93166 199.049972 
L 358.299642 199.049972 
L 358.432785 183.674919 
L 359.931057 183.674919 
L 360.059439 199.049972 
L 361.400509 199.049972 
L 361.556293 181.96658 
L 363.158324 181.96658 
L 363.316921 172.570714 
L 363.982839 172.570714 
L 364.109319 168.299866 
L 364.93871 168.299866 
L 365.076414 164.883188 
L 367.412609 164.883188 
L 367.541482 156.341492 
L 368.683944 156.341492 
L 368.811033 148.653965 
L 370.449161 148.653965 
L 370.566356 156.341492 
L 372.212096 156.341492 
L 372.414012 139.2581 
L 376.197089 139.2581 
L 376.336074 131.570573 
L 381.479588 131.570573 
L 381.655826 139.2581 
L 383.116823 139.2581 
L 383.228156 172.570714 
L 385.394879 172.570714 
L 385.540922 189.654106 
L 387.20075 189.654106 
L 387.336377 216.133364 
L 389.346497 216.133364 
L 389.473162 229.800077 
L 391.785251 229.800077 
L 391.911625 245.17513 
L 394.849164 245.17513 
L 394.979125 229.800077 
L 396.629896 229.800077 
L 396.757976 233.216756 
L 398.862119 233.216756 
L 398.989337 229.800077 
L 399.663264 229.800077 
L 399.79286 233.216756 
L 402.733328 233.216756 
L 402.862746 241.758452 
L 408.118145 241.758452 
L 408.247671 229.800077 
L 409.971024 229.800077 
L 410.107013 214.425025 
L 412.026206 214.425025 
L 412.129006 168.299866 
L 412.863346 168.299866 
L 412.995551 156.341492 
L 414.621123 156.341492 
L 414.761812 105.091315 
L 416.360186 105.091315 
L 416.491934 71.778701 
L 418.470719 71.778701 
L 418.613619 54.695309 
L 420.19424 54.695309 
L 420.32404 35.903578 
L 421.961923 35.903578 
L 422.074539 45.299443 
L 423.576991 45.299443 
L 423.722628 62.382835 
L 427.111646 62.382835 
L 427.252908 88.007923 
L 427.575513 88.007923 
L 427.722303 131.570573 
L 428.295051 131.570573 
L 428.295051 131.570573 
" style="fill:none;stroke:#ff7f0e;stroke-linecap:square;stroke-width:1.5;"/>
   </g>
   <g id="patch_3">
    <path d="M 44.66 255.638708 
L 44.66 25.44 
" style="fill:none;stroke:#000000;stroke-linecap:square;stroke-linejoin:miter;stroke-width:0.8;"/>
   </g>
   <g id="patch_4">
    <path d="M 446.563387 255.638708 
L 446.563387 25.44 
" style="fill:none;stroke:#000000;stroke-linecap:square;stroke-linejoin:miter;stroke-width:0.8;"/>
   </g>
   <g id="patch_5">
    <path d="M 44.66 255.638708 
L 446.563387 255.638708 
" style="fill:none;stroke:#000000;stroke-linecap:square;stroke-linejoin:miter;stroke-width:0.8;"/>
   </g>
   <g id="patch_6">
    <path d="M 44.66 25.44 
L 446.563387 25.44 
" style="fill:none;stroke:#000000;stroke-linecap:square;stroke-linejoin:miter;stroke-width:0.8;"/>
   </g>
   <g id="text_17">
    <!-- Lake Shoecraft - Water and Air Temperature -->
    <g transform="translate(113.993256 19.44)scale(0.12 -0.12)">
     <defs>
      <path d="M 9.8125 72.90625 
L 19.671875 72.90625 
L 19.671875 8.296875 
L 55.171875 8.296875 
L 55.171875 0 
L 9.8125 0 
z
" id="DejaVuSans-76"/>
      <path d="M 9.078125 75.984375 
L 18.109375 75.984375 
L 18.109375 31.109375 
L 44.921875 54.6875 
L 56.390625 54.6875 
L 27.390625 29.109375 
L 57.625 0 
L 45.90625 0 
L 18.109375 26.703125 
L 18.109375 0 
L 9.078125 0 
z
" id="DejaVuSans-107"/>
      <path d="M 53.515625 70.515625 
L 53.515625 60.890625 
Q 47.90625 63.578125 42.921875 64.890625 
Q 37.9375 66.21875 33.296875 66.21875 
Q 25.25 66.21875 20.875 63.09375 
Q 16.5 59.96875 16.5 54.203125 
Q 16.5 49.359375 19.40625 46.890625 
Q 22.3125 44.4375 30.421875 42.921875 
L 36.375 41.703125 
Q 47.40625 39.59375 52.65625 34.296875 
Q 57.90625 29 57.90625 20.125 
Q 57.90625 9.515625 50.796875 4.046875 
Q 43.703125 -1.421875 29.984375 -1.421875 
Q 24.8125 -1.421875 18.96875 -0.25 
Q 13.140625 0.921875 6.890625 3.21875 
L 6.890625 13.375 
Q 12.890625 10.015625 18.65625 8.296875 
Q 24.421875 6.59375 29.984375 6.59375 
Q 38.421875 6.59375 43.015625 9.90625 
Q 47.609375 13.234375 47.609375 19.390625 
Q 47.609375 24.75 44.3125 27.78125 
Q 41.015625 30.8125 33.5 32.328125 
L 27.484375 33.5 
Q 16.453125 35.6875 11.515625 40.375 
Q 6.59375 45.0625 6.59375 53.421875 
Q 6.59375 63.09375 13.40625 68.65625 
Q 20.21875 74.21875 32.171875 74.21875 
Q 37.3125 74.21875 42.625 73.28125 
Q 47.953125 72.359375 53.515625 70.515625 
z
" id="DejaVuSans-83"/>
      <path d="M 54.890625 33.015625 
L 54.890625 0 
L 45.90625 0 
L 45.90625 32.71875 
Q 45.90625 40.484375 42.875 44.328125 
Q 39.84375 48.1875 33.796875 48.1875 
Q 26.515625 48.1875 22.3125 43.546875 
Q 18.109375 38.921875 18.109375 30.90625 
L 18.109375 0 
L 9.078125 0 
L 9.078125 75.984375 
L 18.109375 75.984375 
L 18.109375 46.1875 
Q 21.34375 51.125 25.703125 53.5625 
Q 30.078125 56 35.796875 56 
Q 45.21875 56 50.046875 50.171875 
Q 54.890625 44.34375 54.890625 33.015625 
z
" id="DejaVuSans-104"/>
      <path d="M 30.609375 48.390625 
Q 23.390625 48.390625 19.1875 42.75 
Q 14.984375 37.109375 14.984375 27.296875 
Q 14.984375 17.484375 19.15625 11.84375 
Q 23.34375 6.203125 30.609375 6.203125 
Q 37.796875 6.203125 41.984375 11.859375 
Q 46.1875 17.53125 46.1875 27.296875 
Q 46.1875 37.015625 41.984375 42.703125 
Q 37.796875 48.390625 30.609375 48.390625 
z
M 30.609375 56 
Q 42.328125 56 49.015625 48.375 
Q 55.71875 40.765625 55.71875 27.296875 
Q 55.71875 13.875 49.015625 6.21875 
Q 42.328125 -1.421875 30.609375 -1.421875 
Q 18.84375 -1.421875 12.171875 6.21875 
Q 5.515625 13.875 5.515625 27.296875 
Q 5.515625 40.765625 12.171875 48.375 
Q 18.84375 56 30.609375 56 
z
" id="DejaVuSans-111"/>
      <path d="M 48.78125 52.59375 
L 48.78125 44.1875 
Q 44.96875 46.296875 41.140625 47.34375 
Q 37.3125 48.390625 33.40625 48.390625 
Q 24.65625 48.390625 19.8125 42.84375 
Q 14.984375 37.3125 14.984375 27.296875 
Q 14.984375 17.28125 19.8125 11.734375 
Q 24.65625 6.203125 33.40625 6.203125 
Q 37.3125 6.203125 41.140625 7.25 
Q 44.96875 8.296875 48.78125 10.40625 
L 48.78125 2.09375 
Q 45.015625 0.34375 40.984375 -0.53125 
Q 36.96875 -1.421875 32.421875 -1.421875 
Q 20.0625 -1.421875 12.78125 6.34375 
Q 5.515625 14.109375 5.515625 27.296875 
Q 5.515625 40.671875 12.859375 48.328125 
Q 20.21875 56 33.015625 56 
Q 37.15625 56 41.109375 55.140625 
Q 45.0625 54.296875 48.78125 52.59375 
z
" id="DejaVuSans-99"/>
      <path d="M 37.109375 75.984375 
L 37.109375 68.5 
L 28.515625 68.5 
Q 23.6875 68.5 21.796875 66.546875 
Q 19.921875 64.59375 19.921875 59.515625 
L 19.921875 54.6875 
L 34.71875 54.6875 
L 34.71875 47.703125 
L 19.921875 47.703125 
L 19.921875 0 
L 10.890625 0 
L 10.890625 47.703125 
L 2.296875 47.703125 
L 2.296875 54.6875 
L 10.890625 54.6875 
L 10.890625 58.5 
Q 10.890625 67.625 15.140625 71.796875 
Q 19.390625 75.984375 28.609375 75.984375 
z
" id="DejaVuSans-102"/>
      <path d="M 3.328125 72.90625 
L 13.28125 72.90625 
L 28.609375 11.28125 
L 43.890625 72.90625 
L 54.984375 72.90625 
L 70.3125 11.28125 
L 85.59375 72.90625 
L 95.609375 72.90625 
L 77.296875 0 
L 64.890625 0 
L 49.515625 63.28125 
L 33.984375 0 
L 21.578125 0 
z
" id="DejaVuSans-87"/>
      <path d="M 54.890625 33.015625 
L 54.890625 0 
L 45.90625 0 
L 45.90625 32.71875 
Q 45.90625 40.484375 42.875 44.328125 
Q 39.84375 48.1875 33.796875 48.1875 
Q 26.515625 48.1875 22.3125 43.546875 
Q 18.109375 38.921875 18.109375 30.90625 
L 18.109375 0 
L 9.078125 0 
L 9.078125 54.6875 
L 18.109375 54.6875 
L 18.109375 46.1875 
Q 21.34375 51.125 25.703125 53.5625 
Q 30.078125 56 35.796875 56 
Q 45.21875 56 50.046875 50.171875 
Q 54.890625 44.34375 54.890625 33.015625 
z
" id="DejaVuSans-110"/>
      <path d="M 45.40625 46.390625 
L 45.40625 75.984375 
L 54.390625 75.984375 
L 54.390625 0 
L 45.40625 0 
L 45.40625 8.203125 
Q 42.578125 3.328125 38.25 0.953125 
Q 33.9375 -1.421875 27.875 -1.421875 
Q 17.96875 -1.421875 11.734375 6.484375 
Q 5.515625 14.40625 5.515625 27.296875 
Q 5.515625 40.1875 11.734375 48.09375 
Q 17.96875 56 27.875 56 
Q 33.9375 56 38.25 53.625 
Q 42.578125 51.265625 45.40625 46.390625 
z
M 14.796875 27.296875 
Q 14.796875 17.390625 18.875 11.75 
Q 22.953125 6.109375 30.078125 6.109375 
Q 37.203125 6.109375 41.296875 11.75 
Q 45.40625 17.390625 45.40625 27.296875 
Q 45.40625 37.203125 41.296875 42.84375 
Q 37.203125 48.484375 30.078125 48.484375 
Q 22.953125 48.484375 18.875 42.84375 
Q 14.796875 37.203125 14.796875 27.296875 
z
" id="DejaVuSans-100"/>
      <path d="M 34.1875 63.1875 
L 20.796875 26.90625 
L 47.609375 26.90625 
z
M 28.609375 72.90625 
L 39.796875 72.90625 
L 67.578125 0 
L 57.328125 0 
L 50.6875 18.703125 
L 17.828125 18.703125 
L 11.1875 0 
L 0.78125 0 
z
" id="DejaVuSans-65"/>
      <path d="M 9.421875 54.6875 
L 18.40625 54.6875 
L 18.40625 0 
L 9.421875 0 
z
M 9.421875 75.984375 
L 18.40625 75.984375 
L 18.40625 64.59375 
L 9.421875 64.59375 
z
" id="DejaVuSans-105"/>
     </defs>
     <use xlink:href="#DejaVuSans-76"/>
     <use x="55.712891" xlink:href="#DejaVuSans-97"/>
     <use x="116.992188" xlink:href="#DejaVuSans-107"/>
     <use x="171.277344" xlink:href="#DejaVuSans-101"/>
     <use x="232.800781" xlink:href="#DejaVuSans-32"/>
     <use x="264.587891" xlink:href="#DejaVuSans-83"/>
     <use x="328.064453" xlink:href="#DejaVuSans-104"/>
     <use x="391.443359" xlink:href="#DejaVuSans-111"/>
     <use x="452.625" xlink:href="#DejaVuSans-101"/>
     <use x="514.148438" xlink:href="#DejaVuSans-99"/>
     <use x="569.128906" xlink:href="#DejaVuSans-114"/>
     <use x="610.242188" xlink:href="#DejaVuSans-97"/>
     <use x="671.521484" xlink:href="#DejaVuSans-102"/>
     <use x="704.976562" xlink:href="#DejaVuSans-116"/>
     <use x="744.185547" xlink:href="#DejaVuSans-32"/>
     <use x="775.972656" xlink:href="#DejaVuSans-45"/>
     <use x="812.056641" xlink:href="#DejaVuSans-32"/>
     <use x="843.84375" xlink:href="#DejaVuSans-87"/>
     <use x="936.345703" xlink:href="#DejaVuSans-97"/>
     <use x="997.625" xlink:href="#DejaVuSans-116"/>
     <use x="1036.833984" xlink:href="#DejaVuSans-101"/>
     <use x="1098.357422" xlink:href="#DejaVuSans-114"/>
     <use x="1139.470703" xlink:href="#DejaVuSans-32"/>
     <use x="1171.257812" xlink:href="#DejaVuSans-97"/>
     <use x="1232.537109" xlink:href="#DejaVuSans-110"/>
     <use x="1295.916016" xlink:href="#DejaVuSans-100"/>
     <use x="1359.392578" xlink:href="#DejaVuSans-32"/>
     <use x="1391.179688" xlink:href="#DejaVuSans-65"/>
     <use x="1459.587891" xlink:href="#DejaVuSans-105"/>
     <use x="1487.371094" xlink:href="#DejaVuSans-114"/>
     <use x="1528.484375" xlink:href="#DejaVuSans-32"/>
     <use x="1560.271484" xlink:href="#DejaVuSans-84"/>
     <use x="1604.355469" xlink:href="#DejaVuSans-101"/>
     <use x="1665.878906" xlink:href="#DejaVuSans-109"/>
     <use x="1763.291016" xlink:href="#DejaVuSans-112"/>
     <use x="1826.767578" xlink:href="#DejaVuSans-101"/>
     <use x="1888.291016" xlink:href="#DejaVuSans-114"/>
     <use x="1929.404297" xlink:href="#DejaVuSans-97"/>
     <use x="1990.683594" xlink:href="#DejaVuSans-116"/>
     <use x="2029.892578" xlink:href="#DejaVuSans-117"/>
     <use x="2093.271484" xlink:href="#DejaVuSans-114"/>
     <use x="2132.134766" xlink:href="#DejaVuSans-101"/>
    </g>
   </g>
   <g id="legend_1">
    <g id="patch_7">
     <path d="M 51.66 62.79625 
L 136.769375 62.79625 
Q 138.769375 62.79625 138.769375 60.79625 
L 138.769375 32.44 
Q 138.769375 30.44 136.769375 30.44 
L 51.66 30.44 
Q 49.66 30.44 49.66 32.44 
L 49.66 60.79625 
Q 49.66 62.79625 51.66 62.79625 
z
" style="fill:#ffffff;opacity:0.8;stroke:#cccccc;stroke-linejoin:miter;"/>
    </g>
    <g id="line2d_31">
     <path d="M 53.66 38.538437 
L 73.66 38.538437 
" style="fill:none;stroke:#1f77b4;stroke-linecap:square;stroke-width:1.5;"/>
    </g>
    <g id="line2d_32"/>
    <g id="text_18">
     <!-- Lake Temp -->
     <g transform="translate(81.66 42.038437)scale(0.1 -0.1)">
      <use xlink:href="#DejaVuSans-76"/>
      <use x="55.712891" xlink:href="#DejaVuSans-97"/>
      <use x="116.992188" xlink:href="#DejaVuSans-107"/>
      <use x="171.277344" xlink:href="#DejaVuSans-101"/>
      <use x="232.800781" xlink:href="#DejaVuSans-32"/>
      <use x="264.587891" xlink:href="#DejaVuSans-84"/>
      <use x="308.671875" xlink:href="#DejaVuSans-101"/>
      <use x="370.195312" xlink:href="#DejaVuSans-109"/>
      <use x="467.607422" xlink:href="#DejaVuSans-112"/>
     </g>
    </g>
    <g id="line2d_33">
     <path d="M 53.66 53.216562 
L 73.66 53.216562 
" style="fill:none;stroke:#ff7f0e;stroke-linecap:square;stroke-width:1.5;"/>
    </g>
    <g id="line2d_34"/>
    <g id="text_19">
     <!-- Air Temp -->
     <g transform="translate(81.66 56.716562)scale(0.1 -0.1)">
      <use xlink:href="#DejaVuSans-65"/>
      <use x="68.408203" xlink:href="#DejaVuSans-105"/>
      <use x="96.191406" xlink:href="#DejaVuSans-114"/>
      <use x="137.304688" xlink:href="#DejaVuSans-32"/>
      <use x="169.091797" xlink:href="#DejaVuSans-84"/>
      <use x="213.175781" xlink:href="#DejaVuSans-101"/>
      <use x="274.699219" xlink:href="#DejaVuSans-109"/>
      <use x="372.111328" xlink:href="#DejaVuSans-112"/>
     </g>
    </g>
   </g>
  </g>
 </g>
 <defs>
  <clipPath id="p2f3bdb9fd3">
   <rect height="230.198708" width="401.903387" x="44.66" y="25.44"/>
  </clipPath>
 </defs>
</svg>
