<?xml version="1.0" encoding="utf-8" standalone="no"?>
<!DOCTYPE svg PUBLIC "-//W3C//DTD SVG 1.1//EN"
  "http://www.w3.org/Graphics/SVG/1.1/DTD/svg11.dtd">
<!-- Created with matplotlib (https://matplotlib.org/) -->
<svg height="345.6pt" version="1.1" viewBox="0 0 460.8 345.6" width="460.8pt" xmlns="http://www.w3.org/2000/svg" xmlns:xlink="http://www.w3.org/1999/xlink">
 <metadata>
  <rdf:RDF xmlns:cc="http://creativecommons.org/ns#" xmlns:dc="http://purl.org/dc/elements/1.1/" xmlns:rdf="http://www.w3.org/1999/02/22-rdf-syntax-ns#">
   <cc:Work>
    <dc:type rdf:resource="http://purl.org/dc/dcmitype/StillImage"/>
    <dc:date>2024-09-07T23:58:51.763854</dc:date>
    <dc:format>image/svg+xml</dc:format>
    <dc:creator>
     <cc:Agent>
      <dc:title>Matplotlib v3.3.2, https://matplotlib.org/</dc:title>
     </cc:Agent>
    </dc:creator>
   </cc:Work>
  </rdf:RDF>
 </metadata>
 <defs>
  <style type="text/css">*{stroke-linecap:butt;stroke-linejoin:round;}</style>
 </defs>
 <g id="figure_1">
  <g id="patch_1">
   <path d="M 0 345.6 
L 460.8 345.6 
L 460.8 0 
L 0 0 
z
" style="fill:none;"/>
  </g>
  <g id="axes_1">
   <g id="patch_2">
    <path d="M 44.66 255.638708 
L 450 255.638708 
L 450 25.44 
L 44.66 25.44 
z
" style="fill:none;"/>
   </g>
   <g id="matplotlib.axis_1">
    <g id="xtick_1">
     <g id="line2d_1">
      <path clip-path="url(#p0fa85ad912)" d="M 108.994338 255.638708 
L 108.994338 25.44 
" style="fill:none;stroke:#b0b0b0;stroke-linecap:square;stroke-width:0.8;"/>
     </g>
     <g id="line2d_2">
      <defs>
       <path d="M 0 0 
L 0 3.5 
" id="ma29d498189" style="stroke:#000000;stroke-width:0.8;"/>
      </defs>
      <g>
       <use style="stroke:#000000;stroke-width:0.8;" x="108.994338" xlink:href="#ma29d498189" y="255.638708"/>
      </g>
     </g>
     <g id="text_1">
      <!-- 2024-08-29 -->
      <g transform="translate(101.648945 319.848351)rotate(-70)scale(0.1 -0.1)">
       <defs>
        <path d="M 19.1875 8.296875 
L 53.609375 8.296875 
L 53.609375 0 
L 7.328125 0 
L 7.328125 8.296875 
Q 12.9375 14.109375 22.625 23.890625 
Q 32.328125 33.6875 34.8125 36.53125 
Q 39.546875 41.84375 41.421875 45.53125 
Q 43.3125 49.21875 43.3125 52.78125 
Q 43.3125 58.59375 39.234375 62.25 
Q 35.15625 65.921875 28.609375 65.921875 
Q 23.96875 65.921875 18.8125 64.3125 
Q 13.671875 62.703125 7.8125 59.421875 
L 7.8125 69.390625 
Q 13.765625 71.78125 18.9375 73 
Q 24.125 74.21875 28.421875 74.21875 
Q 39.75 74.21875 46.484375 68.546875 
Q 53.21875 62.890625 53.21875 53.421875 
Q 53.21875 48.921875 51.53125 44.890625 
Q 49.859375 40.875 45.40625 35.40625 
Q 44.1875 33.984375 37.640625 27.21875 
Q 31.109375 20.453125 19.1875 8.296875 
z
" id="DejaVuSans-50"/>
        <path d="M 31.78125 66.40625 
Q 24.171875 66.40625 20.328125 58.90625 
Q 16.5 51.421875 16.5 36.375 
Q 16.5 21.390625 20.328125 13.890625 
Q 24.171875 6.390625 31.78125 6.390625 
Q 39.453125 6.390625 43.28125 13.890625 
Q 47.125 21.390625 47.125 36.375 
Q 47.125 51.421875 43.28125 58.90625 
Q 39.453125 66.40625 31.78125 66.40625 
z
M 31.78125 74.21875 
Q 44.046875 74.21875 50.515625 64.515625 
Q 56.984375 54.828125 56.984375 36.375 
Q 56.984375 17.96875 50.515625 8.265625 
Q 44.046875 -1.421875 31.78125 -1.421875 
Q 19.53125 -1.421875 13.0625 8.265625 
Q 6.59375 17.96875 6.59375 36.375 
Q 6.59375 54.828125 13.0625 64.515625 
Q 19.53125 74.21875 31.78125 74.21875 
z
" id="DejaVuSans-48"/>
        <path d="M 37.796875 64.3125 
L 12.890625 25.390625 
L 37.796875 25.390625 
z
M 35.203125 72.90625 
L 47.609375 72.90625 
L 47.609375 25.390625 
L 58.015625 25.390625 
L 58.015625 17.1875 
L 47.609375 17.1875 
L 47.609375 0 
L 37.796875 0 
L 37.796875 17.1875 
L 4.890625 17.1875 
L 4.890625 26.703125 
z
" id="DejaVuSans-52"/>
        <path d="M 4.890625 31.390625 
L 31.203125 31.390625 
L 31.203125 23.390625 
L 4.890625 23.390625 
z
" id="DejaVuSans-45"/>
        <path d="M 31.78125 34.625 
Q 24.75 34.625 20.71875 30.859375 
Q 16.703125 27.09375 16.703125 20.515625 
Q 16.703125 13.921875 20.71875 10.15625 
Q 24.75 6.390625 31.78125 6.390625 
Q 38.8125 6.390625 42.859375 10.171875 
Q 46.921875 13.96875 46.921875 20.515625 
Q 46.921875 27.09375 42.890625 30.859375 
Q 38.875 34.625 31.78125 34.625 
z
M 21.921875 38.8125 
Q 15.578125 40.375 12.03125 44.71875 
Q 8.5 49.078125 8.5 55.328125 
Q 8.5 64.0625 14.71875 69.140625 
Q 20.953125 74.21875 31.78125 74.21875 
Q 42.671875 74.21875 48.875 69.140625 
Q 55.078125 64.0625 55.078125 55.328125 
Q 55.078125 49.078125 51.53125 44.71875 
Q 48 40.375 41.703125 38.8125 
Q 48.828125 37.15625 52.796875 32.3125 
Q 56.78125 27.484375 56.78125 20.515625 
Q 56.78125 9.90625 50.3125 4.234375 
Q 43.84375 -1.421875 31.78125 -1.421875 
Q 19.734375 -1.421875 13.25 4.234375 
Q 6.78125 9.90625 6.78125 20.515625 
Q 6.78125 27.484375 10.78125 32.3125 
Q 14.796875 37.15625 21.921875 38.8125 
z
M 18.3125 54.390625 
Q 18.3125 48.734375 21.84375 45.5625 
Q 25.390625 42.390625 31.78125 42.390625 
Q 38.140625 42.390625 41.71875 45.5625 
Q 45.3125 48.734375 45.3125 54.390625 
Q 45.3125 60.0625 41.71875 63.234375 
Q 38.140625 66.40625 31.78125 66.40625 
Q 25.390625 66.40625 21.84375 63.234375 
Q 18.3125 60.0625 18.3125 54.390625 
z
" id="DejaVuSans-56"/>
        <path d="M 10.984375 1.515625 
L 10.984375 10.5 
Q 14.703125 8.734375 18.5 7.8125 
Q 22.3125 6.890625 25.984375 6.890625 
Q 35.75 6.890625 40.890625 13.453125 
Q 46.046875 20.015625 46.78125 33.40625 
Q 43.953125 29.203125 39.59375 26.953125 
Q 35.25 24.703125 29.984375 24.703125 
Q 19.046875 24.703125 12.671875 31.3125 
Q 6.296875 37.9375 6.296875 49.421875 
Q 6.296875 60.640625 12.9375 67.421875 
Q 19.578125 74.21875 30.609375 74.21875 
Q 43.265625 74.21875 49.921875 64.515625 
Q 56.59375 54.828125 56.59375 36.375 
Q 56.59375 19.140625 48.40625 8.859375 
Q 40.234375 -1.421875 26.421875 -1.421875 
Q 22.703125 -1.421875 18.890625 -0.6875 
Q 15.09375 0.046875 10.984375 1.515625 
z
M 30.609375 32.421875 
Q 37.25 32.421875 41.125 36.953125 
Q 45.015625 41.5 45.015625 49.421875 
Q 45.015625 57.28125 41.125 61.84375 
Q 37.25 66.40625 30.609375 66.40625 
Q 23.96875 66.40625 20.09375 61.84375 
Q 16.21875 57.28125 16.21875 49.421875 
Q 16.21875 41.5 20.09375 36.953125 
Q 23.96875 32.421875 30.609375 32.421875 
z
" id="DejaVuSans-57"/>
       </defs>
       <use xlink:href="#DejaVuSans-50"/>
       <use x="63.623047" xlink:href="#DejaVuSans-48"/>
       <use x="127.246094" xlink:href="#DejaVuSans-50"/>
       <use x="190.869141" xlink:href="#DejaVuSans-52"/>
       <use x="254.492188" xlink:href="#DejaVuSans-45"/>
       <use x="290.576172" xlink:href="#DejaVuSans-48"/>
       <use x="354.199219" xlink:href="#DejaVuSans-56"/>
       <use x="417.822266" xlink:href="#DejaVuSans-45"/>
       <use x="453.90625" xlink:href="#DejaVuSans-50"/>
       <use x="517.529297" xlink:href="#DejaVuSans-57"/>
      </g>
     </g>
    </g>
    <g id="xtick_2">
     <g id="line2d_3">
      <path clip-path="url(#p0fa85ad912)" d="M 173.51648 255.638708 
L 173.51648 25.44 
" style="fill:none;stroke:#b0b0b0;stroke-linecap:square;stroke-width:0.8;"/>
     </g>
     <g id="line2d_4">
      <g>
       <use style="stroke:#000000;stroke-width:0.8;" x="173.51648" xlink:href="#ma29d498189" y="255.638708"/>
      </g>
     </g>
     <g id="text_2">
      <!-- 2024-08-31 -->
      <g transform="translate(166.171087 319.848351)rotate(-70)scale(0.1 -0.1)">
       <defs>
        <path d="M 40.578125 39.3125 
Q 47.65625 37.796875 51.625 33 
Q 55.609375 28.21875 55.609375 21.1875 
Q 55.609375 10.40625 48.1875 4.484375 
Q 40.765625 -1.421875 27.09375 -1.421875 
Q 22.515625 -1.421875 17.65625 -0.515625 
Q 12.796875 0.390625 7.625 2.203125 
L 7.625 11.71875 
Q 11.71875 9.328125 16.59375 8.109375 
Q 21.484375 6.890625 26.8125 6.890625 
Q 36.078125 6.890625 40.9375 10.546875 
Q 45.796875 14.203125 45.796875 21.1875 
Q 45.796875 27.640625 41.28125 31.265625 
Q 36.765625 34.90625 28.71875 34.90625 
L 20.21875 34.90625 
L 20.21875 43.015625 
L 29.109375 43.015625 
Q 36.375 43.015625 40.234375 45.921875 
Q 44.09375 48.828125 44.09375 54.296875 
Q 44.09375 59.90625 40.109375 62.90625 
Q 36.140625 65.921875 28.71875 65.921875 
Q 24.65625 65.921875 20.015625 65.03125 
Q 15.375 64.15625 9.8125 62.3125 
L 9.8125 71.09375 
Q 15.4375 72.65625 20.34375 73.4375 
Q 25.25 74.21875 29.59375 74.21875 
Q 40.828125 74.21875 47.359375 69.109375 
Q 53.90625 64.015625 53.90625 55.328125 
Q 53.90625 49.265625 50.4375 45.09375 
Q 46.96875 40.921875 40.578125 39.3125 
z
" id="DejaVuSans-51"/>
        <path d="M 12.40625 8.296875 
L 28.515625 8.296875 
L 28.515625 63.921875 
L 10.984375 60.40625 
L 10.984375 69.390625 
L 28.421875 72.90625 
L 38.28125 72.90625 
L 38.28125 8.296875 
L 54.390625 8.296875 
L 54.390625 0 
L 12.40625 0 
z
" id="DejaVuSans-49"/>
       </defs>
       <use xlink:href="#DejaVuSans-50"/>
       <use x="63.623047" xlink:href="#DejaVuSans-48"/>
       <use x="127.246094" xlink:href="#DejaVuSans-50"/>
       <use x="190.869141" xlink:href="#DejaVuSans-52"/>
       <use x="254.492188" xlink:href="#DejaVuSans-45"/>
       <use x="290.576172" xlink:href="#DejaVuSans-48"/>
       <use x="354.199219" xlink:href="#DejaVuSans-56"/>
       <use x="417.822266" xlink:href="#DejaVuSans-45"/>
       <use x="453.90625" xlink:href="#DejaVuSans-51"/>
       <use x="517.529297" xlink:href="#DejaVuSans-49"/>
      </g>
     </g>
    </g>
    <g id="xtick_3">
     <g id="line2d_5">
      <path clip-path="url(#p0fa85ad912)" d="M 205.77755 255.638708 
L 205.77755 25.44 
" style="fill:none;stroke:#b0b0b0;stroke-linecap:square;stroke-width:0.8;"/>
     </g>
     <g id="line2d_6">
      <g>
       <use style="stroke:#000000;stroke-width:0.8;" x="205.77755" xlink:href="#ma29d498189" y="255.638708"/>
      </g>
     </g>
     <g id="text_3">
      <!-- 2024-09-01 -->
      <g transform="translate(198.432158 319.848351)rotate(-70)scale(0.1 -0.1)">
       <use xlink:href="#DejaVuSans-50"/>
       <use x="63.623047" xlink:href="#DejaVuSans-48"/>
       <use x="127.246094" xlink:href="#DejaVuSans-50"/>
       <use x="190.869141" xlink:href="#DejaVuSans-52"/>
       <use x="254.492188" xlink:href="#DejaVuSans-45"/>
       <use x="290.576172" xlink:href="#DejaVuSans-48"/>
       <use x="354.199219" xlink:href="#DejaVuSans-57"/>
       <use x="417.822266" xlink:href="#DejaVuSans-45"/>
       <use x="453.90625" xlink:href="#DejaVuSans-48"/>
       <use x="517.529297" xlink:href="#DejaVuSans-49"/>
      </g>
     </g>
    </g>
    <g id="xtick_4">
     <g id="line2d_7">
      <path clip-path="url(#p0fa85ad912)" d="M 270.299692 255.638708 
L 270.299692 25.44 
" style="fill:none;stroke:#b0b0b0;stroke-linecap:square;stroke-width:0.8;"/>
     </g>
     <g id="line2d_8">
      <g>
       <use style="stroke:#000000;stroke-width:0.8;" x="270.299692" xlink:href="#ma29d498189" y="255.638708"/>
      </g>
     </g>
     <g id="text_4">
      <!-- 2024-09-03 -->
      <g transform="translate(262.954299 319.848351)rotate(-70)scale(0.1 -0.1)">
       <use xlink:href="#DejaVuSans-50"/>
       <use x="63.623047" xlink:href="#DejaVuSans-48"/>
       <use x="127.246094" xlink:href="#DejaVuSans-50"/>
       <use x="190.869141" xlink:href="#DejaVuSans-52"/>
       <use x="254.492188" xlink:href="#DejaVuSans-45"/>
       <use x="290.576172" xlink:href="#DejaVuSans-48"/>
       <use x="354.199219" xlink:href="#DejaVuSans-57"/>
       <use x="417.822266" xlink:href="#DejaVuSans-45"/>
       <use x="453.90625" xlink:href="#DejaVuSans-48"/>
       <use x="517.529297" xlink:href="#DejaVuSans-51"/>
      </g>
     </g>
    </g>
    <g id="xtick_5">
     <g id="line2d_9">
      <path clip-path="url(#p0fa85ad912)" d="M 334.821834 255.638708 
L 334.821834 25.44 
" style="fill:none;stroke:#b0b0b0;stroke-linecap:square;stroke-width:0.8;"/>
     </g>
     <g id="line2d_10">
      <g>
       <use style="stroke:#000000;stroke-width:0.8;" x="334.821834" xlink:href="#ma29d498189" y="255.638708"/>
      </g>
     </g>
     <g id="text_5">
      <!-- 2024-09-05 -->
      <g transform="translate(327.476441 319.848351)rotate(-70)scale(0.1 -0.1)">
       <defs>
        <path d="M 10.796875 72.90625 
L 49.515625 72.90625 
L 49.515625 64.59375 
L 19.828125 64.59375 
L 19.828125 46.734375 
Q 21.96875 47.46875 24.109375 47.828125 
Q 26.265625 48.1875 28.421875 48.1875 
Q 40.625 48.1875 47.75 41.5 
Q 54.890625 34.8125 54.890625 23.390625 
Q 54.890625 11.625 47.5625 5.09375 
Q 40.234375 -1.421875 26.90625 -1.421875 
Q 22.3125 -1.421875 17.546875 -0.640625 
Q 12.796875 0.140625 7.71875 1.703125 
L 7.71875 11.625 
Q 12.109375 9.234375 16.796875 8.0625 
Q 21.484375 6.890625 26.703125 6.890625 
Q 35.15625 6.890625 40.078125 11.328125 
Q 45.015625 15.765625 45.015625 23.390625 
Q 45.015625 31 40.078125 35.4375 
Q 35.15625 39.890625 26.703125 39.890625 
Q 22.75 39.890625 18.8125 39.015625 
Q 14.890625 38.140625 10.796875 36.28125 
z
" id="DejaVuSans-53"/>
       </defs>
       <use xlink:href="#DejaVuSans-50"/>
       <use x="63.623047" xlink:href="#DejaVuSans-48"/>
       <use x="127.246094" xlink:href="#DejaVuSans-50"/>
       <use x="190.869141" xlink:href="#DejaVuSans-52"/>
       <use x="254.492188" xlink:href="#DejaVuSans-45"/>
       <use x="290.576172" xlink:href="#DejaVuSans-48"/>
       <use x="354.199219" xlink:href="#DejaVuSans-57"/>
       <use x="417.822266" xlink:href="#DejaVuSans-45"/>
       <use x="453.90625" xlink:href="#DejaVuSans-48"/>
       <use x="517.529297" xlink:href="#DejaVuSans-53"/>
      </g>
     </g>
    </g>
    <g id="xtick_6">
     <g id="line2d_11">
      <path clip-path="url(#p0fa85ad912)" d="M 399.343976 255.638708 
L 399.343976 25.44 
" style="fill:none;stroke:#b0b0b0;stroke-linecap:square;stroke-width:0.8;"/>
     </g>
     <g id="line2d_12">
      <g>
       <use style="stroke:#000000;stroke-width:0.8;" x="399.343976" xlink:href="#ma29d498189" y="255.638708"/>
      </g>
     </g>
     <g id="text_6">
      <!-- 2024-09-07 -->
      <g transform="translate(391.998583 319.848351)rotate(-70)scale(0.1 -0.1)">
       <defs>
        <path d="M 8.203125 72.90625 
L 55.078125 72.90625 
L 55.078125 68.703125 
L 28.609375 0 
L 18.3125 0 
L 43.21875 64.59375 
L 8.203125 64.59375 
z
" id="DejaVuSans-55"/>
       </defs>
       <use xlink:href="#DejaVuSans-50"/>
       <use x="63.623047" xlink:href="#DejaVuSans-48"/>
       <use x="127.246094" xlink:href="#DejaVuSans-50"/>
       <use x="190.869141" xlink:href="#DejaVuSans-52"/>
       <use x="254.492188" xlink:href="#DejaVuSans-45"/>
       <use x="290.576172" xlink:href="#DejaVuSans-48"/>
       <use x="354.199219" xlink:href="#DejaVuSans-57"/>
       <use x="417.822266" xlink:href="#DejaVuSans-45"/>
       <use x="453.90625" xlink:href="#DejaVuSans-48"/>
       <use x="517.529297" xlink:href="#DejaVuSans-55"/>
      </g>
     </g>
    </g>
    <g id="text_7">
     <!-- Date -->
     <g transform="translate(235.379219 332.158083)scale(0.1 -0.1)">
      <defs>
       <path d="M 19.671875 64.796875 
L 19.671875 8.109375 
L 31.59375 8.109375 
Q 46.6875 8.109375 53.6875 14.9375 
Q 60.6875 21.78125 60.6875 36.53125 
Q 60.6875 51.171875 53.6875 57.984375 
Q 46.6875 64.796875 31.59375 64.796875 
z
M 9.8125 72.90625 
L 30.078125 72.90625 
Q 51.265625 72.90625 61.171875 64.09375 
Q 71.09375 55.28125 71.09375 36.53125 
Q 71.09375 17.671875 61.125 8.828125 
Q 51.171875 0 30.078125 0 
L 9.8125 0 
z
" id="DejaVuSans-68"/>
       <path d="M 34.28125 27.484375 
Q 23.390625 27.484375 19.1875 25 
Q 14.984375 22.515625 14.984375 16.5 
Q 14.984375 11.71875 18.140625 8.90625 
Q 21.296875 6.109375 26.703125 6.109375 
Q 34.1875 6.109375 38.703125 11.40625 
Q 43.21875 16.703125 43.21875 25.484375 
L 43.21875 27.484375 
z
M 52.203125 31.203125 
L 52.203125 0 
L 43.21875 0 
L 43.21875 8.296875 
Q 40.140625 3.328125 35.546875 0.953125 
Q 30.953125 -1.421875 24.3125 -1.421875 
Q 15.921875 -1.421875 10.953125 3.296875 
Q 6 8.015625 6 15.921875 
Q 6 25.140625 12.171875 29.828125 
Q 18.359375 34.515625 30.609375 34.515625 
L 43.21875 34.515625 
L 43.21875 35.40625 
Q 43.21875 41.609375 39.140625 45 
Q 35.0625 48.390625 27.6875 48.390625 
Q 23 48.390625 18.546875 47.265625 
Q 14.109375 46.140625 10.015625 43.890625 
L 10.015625 52.203125 
Q 14.9375 54.109375 19.578125 55.046875 
Q 24.21875 56 28.609375 56 
Q 40.484375 56 46.34375 49.84375 
Q 52.203125 43.703125 52.203125 31.203125 
z
" id="DejaVuSans-97"/>
       <path d="M 18.3125 70.21875 
L 18.3125 54.6875 
L 36.8125 54.6875 
L 36.8125 47.703125 
L 18.3125 47.703125 
L 18.3125 18.015625 
Q 18.3125 11.328125 20.140625 9.421875 
Q 21.96875 7.515625 27.59375 7.515625 
L 36.8125 7.515625 
L 36.8125 0 
L 27.59375 0 
Q 17.1875 0 13.234375 3.875 
Q 9.28125 7.765625 9.28125 18.015625 
L 9.28125 47.703125 
L 2.6875 47.703125 
L 2.6875 54.6875 
L 9.28125 54.6875 
L 9.28125 70.21875 
z
" id="DejaVuSans-116"/>
       <path d="M 56.203125 29.59375 
L 56.203125 25.203125 
L 14.890625 25.203125 
Q 15.484375 15.921875 20.484375 11.0625 
Q 25.484375 6.203125 34.421875 6.203125 
Q 39.59375 6.203125 44.453125 7.46875 
Q 49.3125 8.734375 54.109375 11.28125 
L 54.109375 2.78125 
Q 49.265625 0.734375 44.1875 -0.34375 
Q 39.109375 -1.421875 33.890625 -1.421875 
Q 20.796875 -1.421875 13.15625 6.1875 
Q 5.515625 13.8125 5.515625 26.8125 
Q 5.515625 40.234375 12.765625 48.109375 
Q 20.015625 56 32.328125 56 
Q 43.359375 56 49.78125 48.890625 
Q 56.203125 41.796875 56.203125 29.59375 
z
M 47.21875 32.234375 
Q 47.125 39.59375 43.09375 43.984375 
Q 39.0625 48.390625 32.421875 48.390625 
Q 24.90625 48.390625 20.390625 44.140625 
Q 15.875 39.890625 15.1875 32.171875 
z
" id="DejaVuSans-101"/>
      </defs>
      <use xlink:href="#DejaVuSans-68"/>
      <use x="77.001953" xlink:href="#DejaVuSans-97"/>
      <use x="138.28125" xlink:href="#DejaVuSans-116"/>
      <use x="177.490234" xlink:href="#DejaVuSans-101"/>
     </g>
    </g>
   </g>
   <g id="matplotlib.axis_2">
    <g id="ytick_1">
     <g id="line2d_13">
      <path clip-path="url(#p0fa85ad912)" d="M 44.66 226.204338 
L 450 226.204338 
" style="fill:none;stroke:#b0b0b0;stroke-linecap:square;stroke-width:0.8;"/>
     </g>
     <g id="line2d_14">
      <defs>
       <path d="M 0 0 
L -3.5 0 
" id="m1d87d2f237" style="stroke:#000000;stroke-width:0.8;"/>
      </defs>
      <g>
       <use style="stroke:#000000;stroke-width:0.8;" x="44.66" xlink:href="#m1d87d2f237" y="226.204338"/>
      </g>
     </g>
     <g id="text_8">
      <!-- 55 -->
      <g transform="translate(24.935 230.003557)scale(0.1 -0.1)">
       <use xlink:href="#DejaVuSans-53"/>
       <use x="63.623047" xlink:href="#DejaVuSans-53"/>
      </g>
     </g>
    </g>
    <g id="ytick_2">
     <g id="line2d_15">
      <path clip-path="url(#p0fa85ad912)" d="M 44.66 196.562475 
L 450 196.562475 
" style="fill:none;stroke:#b0b0b0;stroke-linecap:square;stroke-width:0.8;"/>
     </g>
     <g id="line2d_16">
      <g>
       <use style="stroke:#000000;stroke-width:0.8;" x="44.66" xlink:href="#m1d87d2f237" y="196.562475"/>
      </g>
     </g>
     <g id="text_9">
      <!-- 60 -->
      <g transform="translate(24.935 200.361694)scale(0.1 -0.1)">
       <defs>
        <path d="M 33.015625 40.375 
Q 26.375 40.375 22.484375 35.828125 
Q 18.609375 31.296875 18.609375 23.390625 
Q 18.609375 15.53125 22.484375 10.953125 
Q 26.375 6.390625 33.015625 6.390625 
Q 39.65625 6.390625 43.53125 10.953125 
Q 47.40625 15.53125 47.40625 23.390625 
Q 47.40625 31.296875 43.53125 35.828125 
Q 39.65625 40.375 33.015625 40.375 
z
M 52.59375 71.296875 
L 52.59375 62.3125 
Q 48.875 64.0625 45.09375 64.984375 
Q 41.3125 65.921875 37.59375 65.921875 
Q 27.828125 65.921875 22.671875 59.328125 
Q 17.53125 52.734375 16.796875 39.40625 
Q 19.671875 43.65625 24.015625 45.921875 
Q 28.375 48.1875 33.59375 48.1875 
Q 44.578125 48.1875 50.953125 41.515625 
Q 57.328125 34.859375 57.328125 23.390625 
Q 57.328125 12.15625 50.6875 5.359375 
Q 44.046875 -1.421875 33.015625 -1.421875 
Q 20.359375 -1.421875 13.671875 8.265625 
Q 6.984375 17.96875 6.984375 36.375 
Q 6.984375 53.65625 15.1875 63.9375 
Q 23.390625 74.21875 37.203125 74.21875 
Q 40.921875 74.21875 44.703125 73.484375 
Q 48.484375 72.75 52.59375 71.296875 
z
" id="DejaVuSans-54"/>
       </defs>
       <use xlink:href="#DejaVuSans-54"/>
       <use x="63.623047" xlink:href="#DejaVuSans-48"/>
      </g>
     </g>
    </g>
    <g id="ytick_3">
     <g id="line2d_17">
      <path clip-path="url(#p0fa85ad912)" d="M 44.66 166.920612 
L 450 166.920612 
" style="fill:none;stroke:#b0b0b0;stroke-linecap:square;stroke-width:0.8;"/>
     </g>
     <g id="line2d_18">
      <g>
       <use style="stroke:#000000;stroke-width:0.8;" x="44.66" xlink:href="#m1d87d2f237" y="166.920612"/>
      </g>
     </g>
     <g id="text_10">
      <!-- 65 -->
      <g transform="translate(24.935 170.719831)scale(0.1 -0.1)">
       <use xlink:href="#DejaVuSans-54"/>
       <use x="63.623047" xlink:href="#DejaVuSans-53"/>
      </g>
     </g>
    </g>
    <g id="ytick_4">
     <g id="line2d_19">
      <path clip-path="url(#p0fa85ad912)" d="M 44.66 137.278749 
L 450 137.278749 
" style="fill:none;stroke:#b0b0b0;stroke-linecap:square;stroke-width:0.8;"/>
     </g>
     <g id="line2d_20">
      <g>
       <use style="stroke:#000000;stroke-width:0.8;" x="44.66" xlink:href="#m1d87d2f237" y="137.278749"/>
      </g>
     </g>
     <g id="text_11">
      <!-- 70 -->
      <g transform="translate(24.935 141.077968)scale(0.1 -0.1)">
       <use xlink:href="#DejaVuSans-55"/>
       <use x="63.623047" xlink:href="#DejaVuSans-48"/>
      </g>
     </g>
    </g>
    <g id="ytick_5">
     <g id="line2d_21">
      <path clip-path="url(#p0fa85ad912)" d="M 44.66 107.636886 
L 450 107.636886 
" style="fill:none;stroke:#b0b0b0;stroke-linecap:square;stroke-width:0.8;"/>
     </g>
     <g id="line2d_22">
      <g>
       <use style="stroke:#000000;stroke-width:0.8;" x="44.66" xlink:href="#m1d87d2f237" y="107.636886"/>
      </g>
     </g>
     <g id="text_12">
      <!-- 75 -->
      <g transform="translate(24.935 111.436105)scale(0.1 -0.1)">
       <use xlink:href="#DejaVuSans-55"/>
       <use x="63.623047" xlink:href="#DejaVuSans-53"/>
      </g>
     </g>
    </g>
    <g id="ytick_6">
     <g id="line2d_23">
      <path clip-path="url(#p0fa85ad912)" d="M 44.66 77.995023 
L 450 77.995023 
" style="fill:none;stroke:#b0b0b0;stroke-linecap:square;stroke-width:0.8;"/>
     </g>
     <g id="line2d_24">
      <g>
       <use style="stroke:#000000;stroke-width:0.8;" x="44.66" xlink:href="#m1d87d2f237" y="77.995023"/>
      </g>
     </g>
     <g id="text_13">
      <!-- 80 -->
      <g transform="translate(24.935 81.794242)scale(0.1 -0.1)">
       <use xlink:href="#DejaVuSans-56"/>
       <use x="63.623047" xlink:href="#DejaVuSans-48"/>
      </g>
     </g>
    </g>
    <g id="ytick_7">
     <g id="line2d_25">
      <path clip-path="url(#p0fa85ad912)" d="M 44.66 48.35316 
L 450 48.35316 
" style="fill:none;stroke:#b0b0b0;stroke-linecap:square;stroke-width:0.8;"/>
     </g>
     <g id="line2d_26">
      <g>
       <use style="stroke:#000000;stroke-width:0.8;" x="44.66" xlink:href="#m1d87d2f237" y="48.35316"/>
      </g>
     </g>
     <g id="text_14">
      <!-- 85 -->
      <g transform="translate(24.935 52.152379)scale(0.1 -0.1)">
       <use xlink:href="#DejaVuSans-56"/>
       <use x="63.623047" xlink:href="#DejaVuSans-53"/>
      </g>
     </g>
    </g>
    <g id="text_15">
     <!-- Temperature [F] -->
     <g transform="translate(18.855313 180.575291)rotate(-90)scale(0.1 -0.1)">
      <defs>
       <path d="M -0.296875 72.90625 
L 61.375 72.90625 
L 61.375 64.59375 
L 35.5 64.59375 
L 35.5 0 
L 25.59375 0 
L 25.59375 64.59375 
L -0.296875 64.59375 
z
" id="DejaVuSans-84"/>
       <path d="M 52 44.1875 
Q 55.375 50.25 60.0625 53.125 
Q 64.75 56 71.09375 56 
Q 79.640625 56 84.28125 50.015625 
Q 88.921875 44.046875 88.921875 33.015625 
L 88.921875 0 
L 79.890625 0 
L 79.890625 32.71875 
Q 79.890625 40.578125 77.09375 44.375 
Q 74.3125 48.1875 68.609375 48.1875 
Q 61.625 48.1875 57.5625 43.546875 
Q 53.515625 38.921875 53.515625 30.90625 
L 53.515625 0 
L 44.484375 0 
L 44.484375 32.71875 
Q 44.484375 40.625 41.703125 44.40625 
Q 38.921875 48.1875 33.109375 48.1875 
Q 26.21875 48.1875 22.15625 43.53125 
Q 18.109375 38.875 18.109375 30.90625 
L 18.109375 0 
L 9.078125 0 
L 9.078125 54.6875 
L 18.109375 54.6875 
L 18.109375 46.1875 
Q 21.1875 51.21875 25.484375 53.609375 
Q 29.78125 56 35.6875 56 
Q 41.65625 56 45.828125 52.96875 
Q 50 49.953125 52 44.1875 
z
" id="DejaVuSans-109"/>
       <path d="M 18.109375 8.203125 
L 18.109375 -20.796875 
L 9.078125 -20.796875 
L 9.078125 54.6875 
L 18.109375 54.6875 
L 18.109375 46.390625 
Q 20.953125 51.265625 25.265625 53.625 
Q 29.59375 56 35.59375 56 
Q 45.5625 56 51.78125 48.09375 
Q 58.015625 40.1875 58.015625 27.296875 
Q 58.015625 14.40625 51.78125 6.484375 
Q 45.5625 -1.421875 35.59375 -1.421875 
Q 29.59375 -1.421875 25.265625 0.953125 
Q 20.953125 3.328125 18.109375 8.203125 
z
M 48.6875 27.296875 
Q 48.6875 37.203125 44.609375 42.84375 
Q 40.53125 48.484375 33.40625 48.484375 
Q 26.265625 48.484375 22.1875 42.84375 
Q 18.109375 37.203125 18.109375 27.296875 
Q 18.109375 17.390625 22.1875 11.75 
Q 26.265625 6.109375 33.40625 6.109375 
Q 40.53125 6.109375 44.609375 11.75 
Q 48.6875 17.390625 48.6875 27.296875 
z
" id="DejaVuSans-112"/>
       <path d="M 41.109375 46.296875 
Q 39.59375 47.171875 37.8125 47.578125 
Q 36.03125 48 33.890625 48 
Q 26.265625 48 22.1875 43.046875 
Q 18.109375 38.09375 18.109375 28.8125 
L 18.109375 0 
L 9.078125 0 
L 9.078125 54.6875 
L 18.109375 54.6875 
L 18.109375 46.1875 
Q 20.953125 51.171875 25.484375 53.578125 
Q 30.03125 56 36.53125 56 
Q 37.453125 56 38.578125 55.875 
Q 39.703125 55.765625 41.0625 55.515625 
z
" id="DejaVuSans-114"/>
       <path d="M 8.5 21.578125 
L 8.5 54.6875 
L 17.484375 54.6875 
L 17.484375 21.921875 
Q 17.484375 14.15625 20.5 10.265625 
Q 23.53125 6.390625 29.59375 6.390625 
Q 36.859375 6.390625 41.078125 11.03125 
Q 45.3125 15.671875 45.3125 23.6875 
L 45.3125 54.6875 
L 54.296875 54.6875 
L 54.296875 0 
L 45.3125 0 
L 45.3125 8.40625 
Q 42.046875 3.421875 37.71875 1 
Q 33.40625 -1.421875 27.6875 -1.421875 
Q 18.265625 -1.421875 13.375 4.4375 
Q 8.5 10.296875 8.5 21.578125 
z
M 31.109375 56 
z
" id="DejaVuSans-117"/>
       <path id="DejaVuSans-32"/>
       <path d="M 8.59375 75.984375 
L 29.296875 75.984375 
L 29.296875 69 
L 17.578125 69 
L 17.578125 -6.203125 
L 29.296875 -6.203125 
L 29.296875 -13.1875 
L 8.59375 -13.1875 
z
" id="DejaVuSans-91"/>
       <path d="M 9.8125 72.90625 
L 51.703125 72.90625 
L 51.703125 64.59375 
L 19.671875 64.59375 
L 19.671875 43.109375 
L 48.578125 43.109375 
L 48.578125 34.8125 
L 19.671875 34.8125 
L 19.671875 0 
L 9.8125 0 
z
" id="DejaVuSans-70"/>
       <path d="M 30.421875 75.984375 
L 30.421875 -13.1875 
L 9.71875 -13.1875 
L 9.71875 -6.203125 
L 21.390625 -6.203125 
L 21.390625 69 
L 9.71875 69 
L 9.71875 75.984375 
z
" id="DejaVuSans-93"/>
      </defs>
      <use xlink:href="#DejaVuSans-84"/>
      <use x="44.083984" xlink:href="#DejaVuSans-101"/>
      <use x="105.607422" xlink:href="#DejaVuSans-109"/>
      <use x="203.019531" xlink:href="#DejaVuSans-112"/>
      <use x="266.496094" xlink:href="#DejaVuSans-101"/>
      <use x="328.019531" xlink:href="#DejaVuSans-114"/>
      <use x="369.132812" xlink:href="#DejaVuSans-97"/>
      <use x="430.412109" xlink:href="#DejaVuSans-116"/>
      <use x="469.621094" xlink:href="#DejaVuSans-117"/>
      <use x="533" xlink:href="#DejaVuSans-114"/>
      <use x="571.863281" xlink:href="#DejaVuSans-101"/>
      <use x="633.386719" xlink:href="#DejaVuSans-32"/>
      <use x="665.173828" xlink:href="#DejaVuSans-91"/>
      <use x="704.1875" xlink:href="#DejaVuSans-70"/>
      <use x="761.707031" xlink:href="#DejaVuSans-93"/>
     </g>
    </g>
   </g>
   <g id="line2d_27">
    <path clip-path="url(#p0fa85ad912)" d="M 63.084545 143.799959 
L 63.133784 143.799959 
L 63.250285 143.207122 
L 63.366613 143.207122 
L 63.389887 143.799959 
L 63.436832 142.614284 
L 63.459991 143.207122 
L 63.483179 143.207122 
L 63.600406 142.614284 
L 63.647893 142.614284 
L 63.718932 142.021447 
L 63.742148 142.614284 
L 63.814001 142.614284 
L 63.860593 143.207122 
L 63.883945 142.614284 
L 63.955552 143.207122 
L 64.002239 142.021447 
L 64.050206 142.021447 
L 64.145258 140.835773 
L 64.168389 142.021447 
L 64.192027 140.242935 
L 64.239009 140.835773 
L 64.356456 140.242935 
L 64.379795 140.242935 
L 64.499101 139.650098 
L 64.592527 140.835773 
L 64.712162 139.650098 
L 64.853226 140.835773 
L 64.876485 140.835773 
L 64.899671 140.242935 
L 64.971468 140.835773 
L 64.995464 140.835773 
L 65.161958 139.057261 
L 65.233525 140.242935 
L 65.257553 139.057261 
L 65.353684 139.057261 
L 65.378037 138.464424 
L 65.424769 139.057261 
L 65.448352 139.650098 
L 65.511861 139.057261 
L 65.582826 139.057261 
L 65.630904 138.464424 
L 65.67921 139.057261 
L 65.799412 140.835773 
L 65.822635 140.242935 
L 65.847668 140.242935 
L 65.972705 142.021447 
L 66.113788 140.242935 
L 66.233348 140.835773 
L 66.303828 140.242935 
L 66.328168 140.835773 
L 66.376472 140.242935 
L 66.446742 142.021447 
L 66.473489 142.021447 
L 66.566428 140.242935 
L 66.589585 140.835773 
L 66.613411 140.835773 
L 66.707955 143.207122 
L 66.732905 142.021447 
L 66.756056 140.835773 
L 66.779239 143.207122 
L 66.803377 144.392796 
L 66.851267 142.021447 
L 66.874385 142.614284 
L 66.949191 140.242935 
L 66.972765 143.207122 
L 66.995935 142.021447 
L 67.019035 144.392796 
L 67.092741 142.614284 
L 67.235685 144.392796 
L 67.355034 144.985633 
L 67.568668 144.985633 
L 67.663247 145.578471 
L 67.734848 144.985633 
L 67.758087 145.578471 
L 67.782054 145.578471 
L 67.82857 144.392796 
L 67.876444 145.578471 
L 67.901633 145.578471 
L 67.972434 143.207122 
L 67.996817 144.985633 
L 68.021212 146.764145 
L 68.092908 145.578471 
L 68.140133 145.578471 
L 68.283438 143.799959 
L 68.402662 144.392796 
L 68.425941 144.392796 
L 68.496747 144.985633 
L 68.520177 143.207122 
L 68.591899 145.578471 
L 68.639979 144.392796 
L 68.756975 145.578471 
L 68.780634 144.392796 
L 68.874898 144.985633 
L 68.946014 144.985633 
L 69.067005 145.578471 
L 69.211831 144.392796 
L 69.352329 145.578471 
L 69.659403 145.578471 
L 69.77812 146.764145 
L 70.185337 146.764145 
L 70.28175 147.356982 
L 70.399396 146.764145 
L 70.517678 147.356982 
L 70.895446 147.356982 
L 70.918967 147.94982 
L 70.942253 147.356982 
L 130.561946 147.94982 
L 130.586028 147.356982 
L 130.868172 145.578471 
L 130.990258 147.356982 
L 131.01414 145.578471 
L 131.071496 147.356982 
L 131.256451 143.207122 
L 131.334314 144.985633 
L 131.512756 146.764145 
L 131.588796 146.764145 
L 131.611953 147.356982 
L 131.636193 145.578471 
L 131.660472 145.578471 
L 131.684327 146.764145 
L 131.708575 144.985633 
L 131.734257 144.985633 
L 131.809776 140.242935 
L 131.853449 143.207122 
L 131.976803 145.578471 
L 132.003493 144.392796 
L 132.075017 145.578471 
L 132.098206 145.578471 
L 132.13364 146.764145 
L 132.181001 145.578471 
L 132.209854 144.985633 
L 132.285375 145.578471 
L 132.308548 145.578471 
L 132.429023 139.650098 
L 132.54653 145.578471 
L 132.640621 139.057261 
L 132.712056 140.242935 
L 132.805573 144.985633 
L 132.86407 146.764145 
L 132.887199 144.985633 
L 132.998576 144.392796 
L 133.045818 144.392796 
L 133.07034 143.799959 
L 133.093612 144.392796 
L 133.189144 146.764145 
L 133.212652 145.578471 
L 133.264941 145.578471 
L 133.41522 139.650098 
L 133.573662 146.764145 
L 133.646636 144.392796 
L 133.692882 145.578471 
L 133.716421 145.578471 
L 133.740927 146.764145 
L 133.764025 144.985633 
L 133.788068 145.578471 
L 133.883263 145.578471 
L 133.907357 144.392796 
L 133.957428 145.578471 
L 133.981631 147.356982 
L 134.029028 144.985633 
L 134.052519 144.985633 
L 134.07561 144.985633 
L 134.100002 145.578471 
L 134.125193 142.021447 
L 134.19851 142.614284 
L 134.247231 144.985633 
L 134.318584 143.799959 
L 134.436739 144.985633 
L 134.559508 144.392796 
L 134.63016 143.799959 
L 134.67642 144.985633 
L 134.699851 144.985633 
L 134.722955 144.392796 
L 134.794223 144.985633 
L 134.935573 146.764145 
L 134.958708 145.578471 
L 135.028696 146.764145 
L 135.146416 147.356982 
L 135.454029 147.356982 
L 135.525351 147.94982 
L 135.549303 147.356982 
L 135.786729 147.356982 
L 135.810076 144.985633 
L 135.880607 146.764145 
L 135.927592 146.764145 
L 136.049513 147.356982 
L 136.096582 147.356982 
L 136.120177 146.764145 
L 136.189886 147.356982 
L 136.213474 147.356982 
L 136.332271 147.94982 
L 136.837349 147.94982 
L 136.862531 148.542657 
L 136.915879 147.356982 
L 136.942082 147.94982 
L 137.064549 147.356982 
L 137.259928 147.356982 
L 137.379067 146.764145 
L 137.735765 146.764145 
L 137.75892 147.356982 
L 137.829403 146.764145 
L 138.020239 146.764145 
L 138.092703 147.356982 
L 138.115842 146.764145 
L 138.278745 146.764145 
L 138.34896 147.356982 
L 138.372213 146.764145 
L 138.420344 146.764145 
L 138.538151 147.356982 
L 138.561381 147.356982 
L 138.677678 146.764145 
L 138.700765 146.764145 
L 138.770195 147.356982 
L 138.794116 146.764145 
L 139.104001 146.764145 
L 232.31706 130.164702 
L 232.370913 131.350376 
L 232.483519 131.350376 
L 232.506851 130.164702 
L 232.555139 131.350376 
L 232.631108 131.350376 
L 232.655171 130.164702 
L 232.731273 131.350376 
L 232.92064 131.350376 
L 232.968439 131.943214 
L 233.015695 131.350376 
L 233.138421 131.350376 
L 233.265829 131.943214 
L 233.289356 131.350376 
L 233.336701 131.943214 
L 233.384544 131.943214 
L 233.408404 131.350376 
L 233.478021 131.943214 
L 233.548667 131.943214 
L 233.676932 131.350376 
L 233.80701 131.943214 
L 234.232539 131.943214 
L 234.349008 132.536051 
L 234.41992 131.943214 
L 234.444169 132.536051 
L 234.467863 132.536051 
L 234.588538 131.943214 
L 234.638595 131.943214 
L 234.754912 132.536051 
L 235.183204 132.536051 
L 235.206576 133.128888 
L 235.276856 132.536051 
L 235.350717 132.536051 
L 235.37658 133.128888 
L 235.45795 132.536051 
L 235.651604 132.536051 
L 235.772462 133.128888 
L 236.7549 133.128888 
L 236.779197 133.721726 
L 236.827462 133.128888 
L 237.042592 133.128888 
L 237.140327 133.721726 
L 237.260418 133.128888 
L 237.378623 133.721726 
L 237.694511 133.721726 
L 237.806155 134.314563 
L 237.923159 133.721726 
L 238.590433 133.721726 
L 238.613518 133.128888 
L 238.685485 133.721726 
L 238.829953 133.721726 
L 238.948849 133.128888 
L 238.995977 133.128888 
L 239.114573 133.721726 
L 239.4483 133.721726 
L 239.471413 134.314563 
L 239.540663 133.721726 
L 239.963536 133.721726 
L 239.987343 133.128888 
L 240.058703 133.721726 
L 240.104871 133.721726 
L 240.13593 133.128888 
L 240.210978 133.721726 
L 240.398929 133.721726 
L 240.422773 133.128888 
L 240.494223 133.721726 
L 241.23237 133.721726 
L 241.351238 134.314563 
L 241.374807 134.314563 
L 241.472841 133.721726 
L 241.576785 134.314563 
L 241.696259 133.721726 
L 241.790558 134.314563 
L 241.909158 133.721726 
L 242.004526 133.721726 
L 242.120633 134.314563 
L 242.513944 134.314563 
L 242.537333 134.9074 
L 242.606952 134.314563 
L 242.87357 134.314563 
L 242.945852 134.9074 
L 242.970335 134.314563 
L 243.017831 134.314563 
L 243.088826 134.9074 
L 243.111975 134.314563 
L 243.162661 134.314563 
L 243.285375 134.9074 
L 243.31042 134.314563 
L 243.387832 134.9074 
L 244.101318 134.9074 
L 244.222959 136.093075 
L 244.343287 134.9074 
L 244.586439 134.9074 
L 244.633268 136.093075 
L 244.682279 134.9074 
L 244.878473 134.9074 
L 244.973902 136.093075 
L 245.090638 134.9074 
L 245.209933 136.093075 
L 245.332589 134.9074 
L 245.355802 134.9074 
L 245.473876 136.093075 
L 245.593483 134.9074 
L 245.712666 136.093075 
L 246.331876 136.093075 
L 246.405253 136.685912 
L 246.428767 136.093075 
L 246.552305 136.093075 
L 246.576587 136.685912 
L 246.600073 136.093075 
L 246.858109 136.093075 
L 246.954068 136.685912 
L 247.073651 136.093075 
L 247.193536 136.685912 
L 247.933729 136.685912 
L 248.004284 137.278749 
L 248.029884 136.685912 
L 248.053083 136.685912 
L 248.124217 137.278749 
L 248.147792 136.685912 
L 248.17093 136.685912 
L 248.288735 137.278749 
L 248.737448 137.278749 
L 248.833686 136.685912 
L 248.951765 137.278749 
L 249.904515 137.278749 
L 249.927741 137.871586 
L 250.005263 137.278749 
L 250.817484 137.278749 
L 250.916888 137.871586 
L 250.989019 137.278749 
L 251.0211 137.871586 
L 251.749193 137.871586 
L 251.772388 137.278749 
L 251.845183 137.871586 
L 251.942213 137.871586 
L 252.013089 137.278749 
L 252.036501 137.871586 
L 252.133898 137.871586 
L 252.254473 137.278749 
L 252.348908 137.278749 
L 252.372013 137.871586 
L 252.444292 137.278749 
L 252.49171 137.278749 
L 252.589653 137.871586 
L 252.708951 137.278749 
L 252.873349 137.278749 
L 252.972794 137.871586 
L 253.093262 137.278749 
L 253.824235 137.278749 
L 253.943349 136.685912 
L 254.135528 136.685912 
L 254.183727 136.093075 
L 254.231933 136.685912 
L 254.352721 136.685912 
L 254.40626 136.093075 
L 254.454825 136.685912 
L 254.478185 136.685912 
L 254.502858 136.093075 
L 254.573621 136.685912 
L 255.224489 136.685912 
L 255.343907 136.093075 
L 255.398254 136.093075 
L 255.421601 136.685912 
L 255.491435 136.093075 
L 255.564664 136.093075 
L 255.68396 134.9074 
L 255.900358 134.9074 
L 255.94712 134.314563 
L 255.995265 134.9074 
L 256.540969 134.9074 
L 256.611479 134.314563 
L 256.634724 134.9074 
L 256.754028 134.9074 
L 256.871623 134.314563 
L 256.91908 134.314563 
L 257.035732 133.721726 
L 257.06035 133.721726 
L 257.177954 134.314563 
L 257.224181 134.314563 
L 257.342069 133.721726 
L 257.413781 134.314563 
L 257.443447 133.721726 
L 257.591331 133.721726 
L 257.710378 134.314563 
L 257.735101 134.314563 
L 257.832276 133.721726 
L 257.95465 134.314563 
L 258.030574 134.314563 
L 258.053775 133.721726 
L 258.124585 134.314563 
L 258.438419 134.314563 
L 258.533849 133.721726 
L 258.581696 134.314563 
L 258.629459 133.721726 
L 258.679865 133.721726 
L 258.80176 134.314563 
L 258.900488 133.721726 
L 258.973013 134.314563 
L 258.999382 133.721726 
L 259.121242 133.721726 
L 259.241036 134.314563 
L 259.361919 133.721726 
L 259.507617 133.721726 
L 259.533851 134.314563 
L 259.613244 133.721726 
L 259.688389 133.721726 
L 259.712161 134.314563 
L 259.785217 133.721726 
L 259.945441 133.721726 
L 259.96858 132.536051 
L 260.062774 133.128888 
L 260.086001 133.128888 
L 260.204297 133.721726 
L 260.275388 133.721726 
L 260.322125 134.314563 
L 260.369731 133.721726 
L 260.48722 133.128888 
L 260.534882 133.128888 
L 260.558069 133.721726 
L 260.629866 133.128888 
L 260.654377 133.128888 
L 260.775251 133.721726 
L 261.018196 133.721726 
L 261.04144 134.314563 
L 261.089675 133.721726 
L 261.162379 133.128888 
L 261.185494 133.721726 
L 261.570015 133.721726 
L 261.687624 134.314563 
L 261.712354 134.314563 
L 261.736584 133.721726 
L 261.806418 134.314563 
L 262.066746 134.314563 
L 262.162061 133.721726 
L 262.319211 134.314563 
L 262.557132 134.314563 
L 262.626594 134.9074 
L 262.65004 134.314563 
L 262.817131 134.314563 
L 262.84176 133.721726 
L 262.911878 134.314563 
L 263.176122 134.314563 
L 263.20006 134.9074 
L 263.270013 134.314563 
L 263.569261 134.314563 
L 263.665408 134.9074 
L 263.761151 134.314563 
L 263.881618 134.9074 
L 264.242489 134.9074 
L 264.289912 134.314563 
L 264.340005 134.9074 
L 264.410405 134.9074 
L 264.435067 134.314563 
L 264.506034 134.9074 
L 265.137432 134.9074 
L 265.161525 136.093075 
L 265.24267 134.9074 
L 265.266746 134.9074 
L 265.399227 136.093075 
L 265.422464 136.093075 
L 265.542528 134.9074 
L 265.660478 136.093075 
L 265.787984 136.093075 
L 265.884891 134.9074 
L 266.047727 136.093075 
L 266.600617 136.093075 
L 266.686666 136.685912 
L 266.710349 136.093075 
L 266.734693 136.093075 
L 266.855801 136.685912 
L 266.90405 136.685912 
L 266.974792 136.093075 
L 267.004978 136.685912 
L 267.677797 136.685912 
L 267.700913 137.278749 
L 267.771321 136.685912 
L 268.153586 136.685912 
L 268.271777 137.278749 
L 268.343689 136.685912 
L 268.367999 137.278749 
L 268.415853 137.278749 
L 268.513368 136.685912 
L 268.639101 137.278749 
L 269.940872 137.278749 
L 269.966794 137.871586 
L 270.043049 137.278749 
L 270.092291 137.278749 
L 270.140612 137.871586 
L 270.189717 137.278749 
L 270.216263 137.278749 
L 270.31402 137.871586 
L 270.338106 137.278749 
L 270.410644 137.871586 
L 270.647693 137.871586 
L 270.672406 137.278749 
L 270.743738 137.871586 
L 270.813909 137.871586 
L 270.837046 137.278749 
L 270.907599 137.871586 
L 271.076109 137.871586 
L 271.101167 138.464424 
L 271.172182 137.871586 
L 271.801115 137.871586 
L 271.825341 137.278749 
L 271.899722 137.871586 
L 272.962725 137.871586 
L 272.986579 138.464424 
L 273.060761 137.871586 
L 273.403581 137.871586 
L 273.483751 138.464424 
L 273.507747 137.871586 
L 273.626997 137.871586 
L 273.747998 138.464424 
L 274.017229 138.464424 
L 274.04077 137.871586 
L 274.11366 138.464424 
L 274.403039 138.464424 
L 274.428778 137.871586 
L 274.499185 138.464424 
L 275.592946 138.464424 
L 275.618941 139.057261 
L 275.688921 138.464424 
L 275.760712 138.464424 
L 275.785299 139.057261 
L 275.860459 138.464424 
L 276.001005 138.464424 
L 276.094236 139.057261 
L 276.194959 138.464424 
L 276.29187 139.057261 
L 276.314951 138.464424 
L 276.385904 139.057261 
L 276.409147 139.057261 
L 276.527429 138.464424 
L 276.647966 139.057261 
L 276.744874 139.057261 
L 276.84032 138.464424 
L 276.935777 139.057261 
L 276.95895 138.464424 
L 277.031978 139.057261 
L 277.198902 139.057261 
L 277.223828 138.464424 
L 277.294006 139.057261 
L 278.988022 139.057261 
L 279.012224 139.650098 
L 279.083103 139.057261 
L 279.202361 139.057261 
L 279.225622 139.650098 
L 279.297497 139.057261 
L 279.343894 139.057261 
L 279.46089 139.650098 
L 279.582627 139.057261 
L 279.60789 139.057261 
L 279.729706 139.650098 
L 279.754677 139.650098 
L 279.848898 139.057261 
L 279.967683 139.650098 
L 280.584872 139.650098 
L 280.608381 140.242935 
L 280.679076 139.650098 
L 280.940117 139.650098 
L 281.014973 140.242935 
L 281.041382 139.650098 
L 281.161368 139.650098 
L 281.287604 140.242935 
L 281.360282 139.650098 
L 281.384264 140.242935 
L 281.408348 140.242935 
L 281.511317 139.650098 
L 281.535558 140.242935 
L 281.612964 139.650098 
L 281.683793 139.650098 
L 281.708976 140.242935 
L 281.823085 139.650098 
L 283.112707 139.650098 
L 283.190346 139.057261 
L 283.215875 139.650098 
L 283.285287 139.650098 
L 283.389821 139.057261 
L 283.436169 139.650098 
L 283.482457 139.057261 
L 284.122604 139.057261 
L 284.228452 138.464424 
L 284.353455 139.057261 
L 284.502883 137.871586 
L 284.527715 138.464424 
L 284.600751 137.871586 
L 284.744088 137.871586 
L 284.888188 137.278749 
L 284.986863 137.278749 
L 285.01736 136.685912 
L 285.087034 137.278749 
L 285.160803 137.278749 
L 285.23676 137.871586 
L 285.259879 137.278749 
L 285.312629 137.278749 
L 285.405672 137.871586 
L 285.546386 136.685912 
L 285.592809 136.685912 
L 285.709365 137.278749 
L 285.802425 136.685912 
L 285.825757 137.278749 
L 285.895338 136.685912 
L 285.965434 136.685912 
L 285.989048 137.278749 
L 286.066378 136.685912 
L 286.089565 136.685912 
L 286.207107 137.278749 
L 286.230432 136.685912 
L 286.300183 137.278749 
L 286.611811 137.278749 
L 286.704483 136.685912 
L 286.827922 137.278749 
L 286.95126 137.278749 
L 286.974512 136.685912 
L 287.043936 137.278749 
L 287.186527 137.278749 
L 287.304069 136.685912 
L 287.425112 137.278749 
L 287.541242 136.685912 
L 287.89535 136.685912 
L 287.981071 137.278749 
L 288.106443 136.685912 
L 288.735772 136.685912 
L 288.821503 136.093075 
L 289.091607 136.093075 
L 289.115107 136.685912 
L 289.154051 136.093075 
L 289.77613 136.093075 
L 289.859507 136.685912 
L 289.886038 136.093075 
L 290.199137 136.093075 
L 290.235618 136.685912 
L 290.262777 134.9074 
L 290.346911 136.093075 
L 290.405483 136.093075 
L 290.542429 134.9074 
L 291.040426 134.9074 
L 291.254522 133.721726 
L 291.364358 134.314563 
L 292.055204 134.314563 
L 292.085692 133.721726 
L 292.143451 134.314563 
L 292.268102 134.314563 
L 292.397739 133.721726 
L 292.575817 133.721726 
L 292.599138 134.314563 
L 292.676978 133.721726 
L 292.726691 133.721726 
L 292.829491 133.128888 
L 292.906018 133.721726 
L 292.933299 133.128888 
L 293.099444 133.128888 
L 293.227861 133.721726 
L 293.331522 133.721726 
L 293.355661 134.314563 
L 293.433771 133.721726 
L 293.58269 133.721726 
L 293.711973 133.128888 
L 293.77706 133.721726 
L 293.814371 133.128888 
L 293.843774 133.128888 
L 293.941488 132.536051 
L 293.965505 133.128888 
L 294.043304 132.536051 
L 294.119263 132.536051 
L 294.324088 131.943214 
L 294.438867 132.536051 
L 294.561827 131.943214 
L 294.585794 131.943214 
L 294.61264 132.536051 
L 294.871079 132.536051 
L 294.902767 133.128888 
L 294.97008 132.536051 
L 295.105502 132.536051 
L 295.229866 133.128888 
L 295.692534 133.128888 
L 295.825194 132.536051 
L 295.95444 132.536051 
L 296.063253 133.128888 
L 296.202275 132.536051 
L 296.254242 132.536051 
L 296.365892 133.128888 
L 296.54556 133.128888 
L 296.583366 133.721726 
L 296.638538 133.128888 
L 296.663296 133.128888 
L 296.739601 133.721726 
L 296.766475 133.128888 
L 296.83595 133.128888 
L 296.971147 133.721726 
L 297.108039 133.721726 
L 297.216947 134.314563 
L 297.287385 133.721726 
L 297.327924 134.9074 
L 297.387475 134.314563 
L 297.567573 134.314563 
L 297.697257 134.9074 
L 297.724936 134.314563 
L 297.804774 134.9074 
L 298.010733 134.9074 
L 298.139358 136.093075 
L 298.572828 136.093075 
L 298.703623 136.685912 
L 298.731265 136.093075 
L 298.812311 136.685912 
L 299.211534 136.685912 
L 299.311573 137.278749 
L 299.416124 136.685912 
L 299.463916 137.278749 
L 299.539917 136.685912 
L 299.564121 137.278749 
L 299.619343 137.278749 
L 299.670147 136.685912 
L 299.727785 137.278749 
L 300.233978 137.278749 
L 300.355311 137.871586 
L 300.952685 137.871586 
L 301.02311 138.464424 
L 301.053695 137.871586 
L 301.352153 137.871586 
L 301.468923 138.464424 
L 301.590049 137.871586 
L 301.638383 137.871586 
L 301.757817 138.464424 
L 301.828002 137.871586 
L 301.851341 138.464424 
L 302.578067 138.464424 
L 302.671896 139.057261 
L 302.787775 138.464424 
L 302.810898 138.464424 
L 302.904736 139.057261 
L 302.927864 138.464424 
L 302.999398 139.057261 
L 303.590563 139.057261 
L 303.709173 139.650098 
L 303.756145 139.650098 
L 303.779979 139.057261 
L 303.849375 139.650098 
L 304.011519 139.650098 
L 304.104742 140.242935 
L 304.175566 139.650098 
L 304.19871 140.242935 
L 304.409055 140.242935 
L 304.507733 140.835773 
L 304.626915 140.242935 
L 305.207884 140.242935 
L 305.231788 139.650098 
L 305.300496 140.242935 
L 305.557778 140.242935 
L 305.581808 140.835773 
L 305.660966 140.242935 
L 305.876118 140.242935 
L 305.900439 140.835773 
L 305.972083 140.242935 
L 306.635309 140.242935 
L 306.751774 140.835773 
L 306.799602 140.835773 
L 306.918379 140.242935 
L 306.966317 140.242935 
L 307.087785 140.835773 
L 308.315461 140.835773 
L 308.431674 142.021447 
L 308.550564 140.835773 
L 308.598197 140.835773 
L 308.714844 142.021447 
L 308.737954 142.021447 
L 308.807168 140.835773 
L 308.831032 142.021447 
L 309.877653 142.021447 
L 309.999334 142.614284 
L 310.120218 142.021447 
L 310.425933 142.021447 
L 310.472146 142.614284 
L 310.518648 142.021447 
L 310.68437 142.021447 
L 310.707583 142.614284 
L 310.778955 142.021447 
L 311.040758 142.021447 
L 311.063817 142.614284 
L 311.133559 142.021447 
L 311.227395 142.021447 
L 311.250597 142.614284 
L 311.320158 142.021447 
L 311.36932 142.021447 
L 311.486527 142.614284 
L 311.535871 142.614284 
L 311.652951 142.021447 
L 311.74801 142.614284 
L 311.771336 142.021447 
L 311.842767 142.614284 
L 312.03219 142.614284 
L 312.05604 142.021447 
L 312.126588 142.614284 
L 312.504699 142.614284 
L 312.622658 143.207122 
L 312.742301 142.614284 
L 313.319639 142.614284 
L 313.391065 143.207122 
L 313.415463 142.614284 
L 313.512334 142.614284 
L 313.628297 143.207122 
L 313.749162 142.614284 
L 313.77231 143.207122 
L 313.844395 142.614284 
L 315.166351 142.614284 
L 315.238121 142.021447 
L 315.261407 142.614284 
L 315.287689 142.614284 
L 315.312501 142.021447 
L 315.381845 142.614284 
L 315.546409 142.614284 
L 315.641559 142.021447 
L 315.714032 142.614284 
L 315.738197 142.021447 
L 315.83348 142.021447 
L 315.881571 142.614284 
L 315.928637 142.021447 
L 315.975407 142.021447 
L 315.998533 142.614284 
L 316.071476 142.021447 
L 316.408708 142.021447 
L 316.529583 140.835773 
L 316.854228 140.835773 
L 316.878312 140.242935 
L 316.951383 140.835773 
L 317.022462 140.835773 
L 317.140078 140.242935 
L 317.35667 140.242935 
L 317.482483 139.650098 
L 317.508731 139.650098 
L 317.532655 140.242935 
L 317.602718 139.650098 
L 317.767595 139.650098 
L 317.888876 139.057261 
L 318.084709 139.057261 
L 318.207688 138.464424 
L 318.303296 138.464424 
L 318.434293 137.871586 
L 318.744801 137.871586 
L 318.768051 137.278749 
L 318.8404 137.871586 
L 318.925778 137.871586 
L 319.033939 137.278749 
L 319.187924 137.278749 
L 319.241029 136.685912 
L 319.265034 137.278749 
L 319.35785 137.871586 
L 319.47766 137.278749 
L 319.524449 137.278749 
L 319.547548 136.685912 
L 319.598444 137.278749 
L 319.649011 136.685912 
L 319.729952 137.871586 
L 319.777807 137.871586 
L 319.800874 138.464424 
L 319.827693 137.871586 
L 319.930868 137.871586 
L 320.060662 137.278749 
L 320.084718 137.278749 
L 320.107841 136.685912 
L 320.130933 137.871586 
L 320.253132 138.464424 
L 320.306388 138.464424 
L 320.378929 137.871586 
L 320.402055 138.464424 
L 320.473651 138.464424 
L 320.595765 137.871586 
L 320.643747 137.871586 
L 320.771178 138.464424 
L 320.866701 138.464424 
L 320.984884 137.871586 
L 321.057088 137.871586 
L 321.106575 137.278749 
L 321.186064 138.464424 
L 321.310484 137.871586 
L 321.334137 137.871586 
L 321.434664 133.128888 
L 321.459035 130.164702 
L 321.508301 134.314563 
L 321.531715 133.721726 
L 321.794573 137.871586 
L 321.893551 137.871586 
L 322.013443 138.464424 
L 322.134246 137.871586 
L 322.4988 137.871586 
L 322.522775 138.464424 
L 322.593113 137.871586 
L 322.712634 137.871586 
L 322.73829 138.464424 
L 322.787684 137.871586 
L 322.859801 136.685912 
L 322.884266 137.278749 
L 322.978958 137.871586 
L 323.098265 137.278749 
L 323.144525 137.278749 
L 323.240112 136.685912 
L 323.338299 136.685912 
L 323.392932 136.093075 
L 323.416915 137.278749 
L 323.487313 137.278749 
L 323.511674 137.871586 
L 323.563769 136.685912 
L 323.665126 136.685912 
L 323.714065 134.314563 
L 323.738627 134.9074 
L 323.825375 136.093075 
L 324.119843 134.9074 
L 324.172606 136.093075 
L 324.256985 136.093075 
L 324.380582 129.571865 
L 324.459703 131.350376 
L 324.619612 134.314563 
L 324.750997 134.9074 
L 324.799145 134.9074 
L 324.869192 134.314563 
L 324.905174 134.9074 
L 324.937918 134.9074 
L 325.06173 136.093075 
L 325.120177 134.9074 
L 325.147614 136.093075 
L 325.173855 136.093075 
L 325.294227 134.314563 
L 325.371582 136.093075 
L 325.44268 136.093075 
L 325.588242 137.278749 
L 325.651138 136.093075 
L 325.678927 137.278749 
L 325.769557 137.871586 
L 325.887858 136.685912 
L 325.944364 137.871586 
L 325.9683 136.685912 
L 326.151395 134.314563 
L 326.18493 134.9074 
L 326.246237 134.314563 
L 326.269431 133.721726 
L 326.300316 134.9074 
L 326.337656 134.9074 
L 326.416395 133.721726 
L 326.508435 136.093075 
L 326.645634 136.093075 
L 326.737387 134.9074 
L 326.861211 136.093075 
L 326.999399 134.9074 
L 327.125815 136.093075 
L 327.228753 136.093075 
L 327.27769 134.9074 
L 327.330496 136.093075 
L 327.436867 136.093075 
L 327.551565 136.685912 
L 328.048139 136.685912 
L 328.084348 136.093075 
L 328.131015 136.685912 
L 328.214225 136.685912 
L 328.337455 137.278749 
L 328.460798 136.685912 
L 328.509686 136.685912 
L 328.647669 137.278749 
L 328.774179 137.278749 
L 328.797727 137.871586 
L 328.860371 137.278749 
L 328.885926 137.278749 
L 328.958773 136.685912 
L 328.983898 137.278749 
L 329.043285 137.278749 
L 329.218962 136.685912 
L 329.365953 136.685912 
L 329.4746 137.278749 
L 329.840967 137.278749 
L 329.968516 137.871586 
L 330.149641 137.871586 
L 330.18074 138.464424 
L 330.25762 137.871586 
L 330.28826 137.871586 
L 330.414903 138.464424 
L 330.439753 137.871586 
L 330.516066 138.464424 
L 330.707786 138.464424 
L 330.831962 137.871586 
L 330.856054 137.871586 
L 330.905908 138.464424 
L 330.954208 137.871586 
L 331.025996 137.871586 
L 331.163641 138.464424 
L 331.934347 138.464424 
L 332.064151 137.871586 
L 332.601445 137.871586 
L 332.624596 138.464424 
L 332.699091 137.871586 
L 333.065187 137.871586 
L 333.186406 138.464424 
L 333.271499 138.464424 
L 333.294587 137.871586 
L 333.377616 138.464424 
L 333.478405 138.464424 
L 333.504952 137.871586 
L 333.57565 138.464424 
L 333.88306 138.464424 
L 333.906936 139.057261 
L 333.978641 138.464424 
L 334.284174 138.464424 
L 334.406948 137.871586 
L 334.479787 137.871586 
L 334.60007 138.464424 
L 334.720599 137.871586 
L 334.74415 137.871586 
L 334.875849 138.464424 
L 335.000333 137.871586 
L 335.147741 137.871586 
L 335.271789 138.464424 
L 335.349561 137.871586 
L 335.373247 138.464424 
L 335.39815 138.464424 
L 335.49499 137.871586 
L 335.616117 138.464424 
L 335.695765 138.464424 
L 335.722079 137.871586 
L 335.792871 138.464424 
L 335.865391 138.464424 
L 335.889631 137.871586 
L 335.960211 138.464424 
L 336.320093 138.464424 
L 336.415592 139.057261 
L 336.511096 138.464424 
L 336.605764 139.057261 
L 336.704279 138.464424 
L 336.751312 139.057261 
L 336.797881 138.464424 
L 336.821878 138.464424 
L 336.951356 139.057261 
L 337.044883 138.464424 
L 337.165311 139.057261 
L 337.188484 139.057261 
L 337.211654 138.464424 
L 337.281126 139.057261 
L 338.021885 139.057261 
L 338.138366 139.650098 
L 338.185491 139.650098 
L 338.304848 139.057261 
L 338.42426 139.650098 
L 339.656539 139.650098 
L 339.679714 140.242935 
L 339.750452 139.650098 
L 340.107408 139.650098 
L 340.156032 140.242935 
L 340.202458 139.650098 
L 340.511469 139.650098 
L 340.604456 140.242935 
L 340.722756 139.650098 
L 340.8421 140.242935 
L 340.889553 140.242935 
L 340.986715 139.650098 
L 341.083217 140.242935 
L 341.202415 139.650098 
L 341.321704 140.242935 
L 341.351699 140.242935 
L 341.469261 139.650098 
L 341.586065 140.242935 
L 342.985981 140.242935 
L 343.057737 140.835773 
L 343.080817 140.242935 
L 343.104811 140.242935 
L 343.220586 140.835773 
L 343.360199 140.835773 
L 343.476683 140.242935 
L 343.592905 140.835773 
L 343.685295 140.835773 
L 343.779106 142.021447 
L 343.895809 140.835773 
L 344.479782 140.835773 
L 344.596586 142.021447 
L 345.347342 142.021447 
L 345.422005 140.835773 
L 345.44701 142.021447 
L 345.470273 142.021447 
L 345.57218 140.835773 
L 345.689904 142.021447 
L 345.825485 140.835773 
L 345.849958 140.835773 
L 345.873732 142.021447 
L 345.950118 140.835773 
L 346.074622 140.835773 
L 346.10047 142.021447 
L 346.173697 140.835773 
L 346.222466 140.835773 
L 346.339363 142.021447 
L 346.36277 142.021447 
L 346.483663 140.835773 
L 346.531603 140.835773 
L 346.648465 142.021447 
L 346.67439 142.021447 
L 346.791236 140.835773 
L 347.048608 140.835773 
L 347.165413 140.242935 
L 347.383645 140.242935 
L 347.499383 139.650098 
L 347.546762 139.650098 
L 347.570159 140.242935 
L 347.640518 139.650098 
L 347.786892 139.650098 
L 347.812966 140.242935 
L 347.886964 139.650098 
L 347.960097 139.650098 
L 347.984174 139.057261 
L 348.054818 139.650098 
L 348.247712 139.650098 
L 348.271182 139.057261 
L 348.342759 139.650098 
L 348.390132 139.650098 
L 348.514647 139.057261 
L 348.635106 139.057261 
L 348.756627 138.464424 
L 349.004435 138.464424 
L 349.122724 137.871586 
L 349.28836 137.871586 
L 349.42913 136.685912 
L 349.546007 136.685912 
L 349.668706 137.278749 
L 349.791106 136.685912 
L 349.866073 136.685912 
L 350.004866 134.314563 
L 350.172018 133.128888 
L 350.199098 133.128888 
L 350.246356 132.536051 
L 350.296171 133.128888 
L 350.46473 133.128888 
L 350.562024 132.536051 
L 350.703628 133.721726 
L 350.950248 128.979027 
L 351.000295 132.536051 
L 351.05445 131.350376 
L 351.10173 130.164702 
L 351.124962 133.128888 
L 351.17343 129.571865 
L 351.247553 131.350376 
L 351.370433 132.536051 
L 351.490267 131.350376 
L 351.513427 131.943214 
L 351.538818 131.350376 
L 351.632631 130.164702 
L 351.762973 132.536051 
L 351.786107 132.536051 
L 351.85959 131.943214 
L 351.962291 134.9074 
L 351.988266 134.314563 
L 352.060619 134.9074 
L 352.323045 134.9074 
L 352.446935 131.943214 
L 352.478352 133.721726 
L 352.501606 133.721726 
L 352.524846 134.314563 
L 352.548715 128.38619 
L 352.619948 134.314563 
L 352.643156 134.314563 
L 352.66907 133.128888 
L 352.725489 134.9074 
L 352.74964 134.314563 
L 352.772812 134.314563 
L 352.796067 133.721726 
L 352.820071 134.9074 
L 352.867942 134.314563 
L 353.062297 134.314563 
L 353.179791 134.9074 
L 353.369923 134.9074 
L 353.485958 134.314563 
L 353.510083 134.314563 
L 353.595609 134.9074 
L 353.619567 134.314563 
L 354.120035 134.314563 
L 354.474733 131.350376 
L 354.590956 133.128888 
L 354.745785 131.350376 
L 354.795069 131.943214 
L 354.869788 131.350376 
L 354.941954 133.128888 
L 355.110531 129.571865 
L 355.234612 133.721726 
L 355.258877 131.943214 
L 355.324713 133.721726 
L 355.379737 132.536051 
L 355.485223 123.643492 
L 355.730894 129.571865 
L 355.768091 128.38619 
L 355.832375 131.943214 
L 355.889131 131.350376 
L 355.918791 129.571865 
L 356.056971 129.571865 
L 356.240418 132.536051 
L 356.303448 128.38619 
L 356.374626 128.979027 
L 356.404482 128.38619 
L 356.540598 130.164702 
L 356.571867 129.571865 
L 356.680222 128.38619 
L 356.860891 131.350376 
L 356.97011 129.571865 
L 356.996364 131.350376 
L 357.023381 128.979027 
L 357.047383 129.571865 
L 357.16645 128.979027 
L 357.192738 127.200516 
L 357.222436 128.38619 
L 357.306302 128.38619 
L 357.503761 130.164702 
L 357.626169 131.350376 
L 357.690388 131.350376 
L 357.724122 129.571865 
L 357.754927 130.164702 
L 357.881286 130.164702 
L 357.934325 129.571865 
L 357.958354 130.164702 
L 358.07611 130.164702 
L 358.102327 129.571865 
L 358.18237 130.164702 
L 358.261047 130.164702 
L 358.391485 129.571865 
L 358.479431 129.571865 
L 358.534338 130.164702 
L 358.559613 129.571865 
L 358.645108 130.164702 
L 358.670758 128.979027 
L 358.701251 131.350376 
L 358.736686 130.164702 
L 358.858158 129.571865 
L 358.954125 130.164702 
L 359.072151 127.793353 
L 359.122899 128.38619 
L 359.324462 131.943214 
L 359.430352 131.943214 
L 359.538381 131.350376 
L 359.639622 132.536051 
L 359.66544 131.943214 
L 359.697688 131.943214 
L 359.829152 132.536051 
L 359.853992 132.536051 
L 359.92439 133.128888 
L 359.948479 131.943214 
L 360.026385 133.128888 
L 360.587206 133.128888 
L 360.660861 131.943214 
L 360.686128 133.128888 
L 360.724439 133.128888 
L 360.785837 132.536051 
L 360.811969 133.128888 
L 361.017276 133.128888 
L 361.119633 131.350376 
L 361.143525 132.536051 
L 361.168848 132.536051 
L 361.192367 133.128888 
L 361.243894 131.943214 
L 361.371732 130.164702 
L 361.42498 130.164702 
L 361.501714 131.943214 
L 361.54246 131.350376 
L 361.803875 132.536051 
L 362.297038 132.536051 
L 362.533445 131.350376 
L 362.646316 131.350376 
L 362.79182 129.571865 
L 363.719018 129.571865 
L 363.814189 130.164702 
L 363.886298 129.571865 
L 363.909612 130.164702 
L 364.828687 130.164702 
L 364.852864 131.350376 
L 364.925842 130.164702 
L 364.948963 130.164702 
L 365.021199 131.350376 
L 365.044447 130.164702 
L 365.115239 130.164702 
L 365.209272 131.350376 
L 365.327027 130.164702 
L 365.452487 131.350376 
L 366.400809 131.350376 
L 366.52062 131.943214 
L 366.616465 131.350376 
L 366.738035 131.943214 
L 366.924262 131.943214 
L 367.019767 131.350376 
L 367.137754 131.943214 
L 367.277943 131.943214 
L 367.301271 131.350376 
L 367.371538 131.943214 
L 367.824779 131.943214 
L 367.902415 132.536051 
L 367.926326 131.943214 
L 367.997261 131.943214 
L 368.115612 132.536051 
L 368.631826 132.536051 
L 368.655042 133.128888 
L 368.72478 132.536051 
L 368.887871 132.536051 
L 369.004049 133.128888 
L 369.120965 132.536051 
L 369.150987 132.536051 
L 369.2678 133.128888 
L 369.290934 132.536051 
L 369.364229 133.128888 
L 369.907492 133.128888 
L 370.025165 133.721726 
L 370.094895 133.128888 
L 370.177891 133.128888 
L 370.297684 133.721726 
L 370.675158 133.721726 
L 370.699007 133.128888 
L 370.770112 133.721726 
L 371.782537 133.721726 
L 371.876003 134.314563 
L 371.899118 133.721726 
L 371.971571 134.314563 
L 372.734607 134.314563 
L 372.805654 134.9074 
L 372.829164 134.314563 
L 372.878252 134.314563 
L 372.972129 134.9074 
L 373.070402 134.314563 
L 373.189469 134.9074 
L 373.310296 134.314563 
L 373.430504 134.9074 
L 373.669011 134.9074 
L 373.692111 134.314563 
L 373.763298 134.9074 
L 374.116782 134.9074 
L 374.143397 136.093075 
L 374.214221 134.9074 
L 374.310597 134.9074 
L 374.433569 136.093075 
L 374.551382 134.9074 
L 374.669547 136.093075 
L 374.907461 136.093075 
L 375.02492 136.685912 
L 375.048806 136.685912 
L 375.170394 136.093075 
L 375.217719 136.093075 
L 375.291996 136.685912 
L 375.316307 136.093075 
L 375.413956 136.093075 
L 375.437542 136.685912 
L 375.509307 136.093075 
L 375.827932 136.093075 
L 375.904113 136.685912 
L 375.930167 136.093075 
L 376.052766 136.093075 
L 376.076096 136.685912 
L 376.150362 136.093075 
L 376.17704 136.093075 
L 376.226834 136.685912 
L 376.277629 136.093075 
L 376.394962 136.093075 
L 376.418326 136.685912 
L 376.488884 136.093075 
L 376.560639 136.093075 
L 376.583732 136.685912 
L 376.654013 136.093075 
L 376.700268 136.093075 
L 376.822128 136.685912 
L 377.39195 136.685912 
L 377.415957 136.093075 
L 377.488375 136.685912 
L 378.058078 136.685912 
L 378.178135 137.278749 
L 378.296553 136.685912 
L 379.58893 136.685912 
L 379.667835 136.093075 
L 379.691057 136.685912 
L 379.71702 136.685912 
L 379.816387 136.093075 
L 379.936776 136.685912 
L 379.983763 136.685912 
L 380.106436 136.093075 
L 380.200033 136.093075 
L 380.298182 134.9074 
L 380.344568 136.093075 
L 380.394082 134.9074 
L 380.59004 134.9074 
L 380.70932 134.314563 
L 380.732898 134.9074 
L 380.805506 134.314563 
L 381.118527 134.314563 
L 381.142861 133.721726 
L 381.215268 134.314563 
L 381.310662 134.314563 
L 381.430759 133.721726 
L 381.541659 133.721726 
L 381.658184 133.128888 
L 381.778474 133.128888 
L 381.897682 132.536051 
L 382.184307 132.536051 
L 382.207931 131.943214 
L 382.27968 132.536051 
L 382.459853 132.536051 
L 382.506417 131.943214 
L 382.553811 132.536051 
L 382.576994 132.536051 
L 382.796164 129.571865 
L 382.820397 129.571865 
L 382.940318 130.164702 
L 382.96419 130.164702 
L 383.107333 128.979027 
L 383.190002 129.571865 
L 383.213897 128.979027 
L 383.237003 128.979027 
L 383.355175 129.571865 
L 383.473851 128.979027 
L 383.617703 128.979027 
L 383.738534 128.38619 
L 383.8855 128.38619 
L 383.958766 128.979027 
L 384.00798 127.793353 
L 384.12625 128.38619 
L 384.173607 128.38619 
L 384.197892 127.793353 
L 384.24671 128.979027 
L 384.273649 128.979027 
L 384.418171 126.607678 
L 384.441778 127.200516 
L 384.582303 128.38619 
L 384.606721 127.793353 
L 384.678783 128.38619 
L 384.750486 128.38619 
L 384.773542 128.979027 
L 384.844689 128.38619 
L 384.867933 127.200516 
L 384.892268 128.979027 
L 384.943054 128.979027 
L 385.089094 130.164702 
L 385.247924 128.38619 
L 385.343352 129.571865 
L 385.484969 126.014841 
L 385.629661 128.979027 
L 385.701842 127.200516 
L 385.772885 127.793353 
L 385.820542 127.793353 
L 385.941961 129.571865 
L 386.039154 128.38619 
L 386.06387 128.979027 
L 386.088165 129.571865 
L 386.13567 128.979027 
L 386.182371 128.38619 
L 386.206989 128.979027 
L 386.330912 130.164702 
L 386.452198 129.571865 
L 386.477206 130.164702 
L 386.524623 126.014841 
L 386.598077 127.793353 
L 386.645528 129.571865 
L 386.716459 128.979027 
L 386.765765 126.014841 
L 386.789224 130.164702 
L 386.884551 129.571865 
L 386.908368 129.571865 
L 387.00785 126.014841 
L 387.031937 129.571865 
L 387.128581 128.979027 
L 387.152072 128.979027 
L 387.175158 129.571865 
L 387.198477 124.236329 
L 387.292634 125.422004 
L 387.317083 126.014841 
L 387.34186 124.236329 
L 387.413611 123.643492 
L 387.437264 125.422004 
L 387.485891 122.457818 
L 387.510982 122.457818 
L 387.65195 120.679306 
L 387.920454 126.607678 
L 387.967938 126.014841 
L 387.991563 126.014841 
L 388.137656 127.200516 
L 388.161109 127.200516 
L 388.185197 127.793353 
L 388.21035 127.200516 
L 388.233534 126.014841 
L 388.257563 127.793353 
L 388.328799 126.607678 
L 388.39971 126.607678 
L 388.519666 126.014841 
L 388.639657 126.607678 
L 388.686862 126.607678 
L 388.736671 128.38619 
L 388.785469 127.200516 
L 388.881833 126.014841 
L 388.9522 128.38619 
L 388.998804 127.200516 
L 389.047087 126.607678 
L 389.095522 127.200516 
L 389.120683 127.200516 
L 389.262706 128.38619 
L 389.440314 124.236329 
L 389.463853 126.014841 
L 389.630019 128.38619 
L 389.747121 127.793353 
L 389.839939 128.38619 
L 389.956862 127.793353 
L 390.073238 128.38619 
L 390.119426 128.38619 
L 390.237915 128.979027 
L 390.262031 128.38619 
L 390.332263 128.979027 
L 390.378525 129.571865 
L 390.426865 128.979027 
L 390.474285 127.793353 
L 390.498908 124.236329 
L 390.571201 125.422004 
L 390.594702 127.793353 
L 390.666002 126.014841 
L 390.712758 126.014841 
L 390.809676 127.200516 
L 390.833944 126.607678 
L 390.857012 126.607678 
L 390.975047 127.200516 
L 390.999512 127.200516 
L 391.119162 127.793353 
L 391.142584 127.793353 
L 391.261363 126.014841 
L 391.285202 126.607678 
L 391.309577 126.607678 
L 391.360202 127.200516 
L 391.432069 125.422004 
L 391.557338 126.607678 
L 391.675413 127.200516 
L 391.84113 127.200516 
L 391.960786 127.793353 
L 392.127212 127.793353 
L 392.177299 128.38619 
L 392.226766 127.793353 
L 392.323365 127.793353 
L 392.444806 128.38619 
L 392.468227 128.38619 
L 392.491385 127.793353 
L 392.561327 128.38619 
L 392.632325 128.38619 
L 392.753494 128.979027 
L 392.947756 128.979027 
L 392.985119 128.38619 
L 393.016748 128.979027 
L 393.100189 128.979027 
L 393.289077 128.38619 
L 394.138564 128.38619 
L 394.200999 127.793353 
L 394.247388 128.38619 
L 394.474797 128.38619 
L 394.604785 128.979027 
L 394.652921 128.38619 
L 394.710364 128.979027 
L 394.734645 128.979027 
L 394.860943 128.38619 
L 394.887646 128.979027 
L 394.961557 128.38619 
L 394.987727 128.38619 
L 395.067022 128.979027 
L 395.090204 128.38619 
L 395.140167 128.38619 
L 395.164195 127.793353 
L 395.236982 128.38619 
L 395.433468 128.38619 
L 395.456954 127.793353 
L 395.529097 128.38619 
L 395.730589 128.38619 
L 395.754213 127.793353 
L 395.827924 128.38619 
L 396.910969 128.38619 
L 396.934913 128.979027 
L 397.011224 128.38619 
L 397.085173 128.38619 
L 397.168604 128.979027 
L 397.195265 128.38619 
L 397.220687 128.38619 
L 397.351388 128.979027 
L 397.696125 128.979027 
L 397.796425 129.571865 
L 397.923553 128.979027 
L 398.194952 128.979027 
L 398.316575 129.571865 
L 398.339672 129.571865 
L 398.435262 128.979027 
L 398.553534 129.571865 
L 398.601506 128.979027 
L 398.647979 129.571865 
L 399.223009 129.571865 
L 399.247101 130.164702 
L 399.319264 129.571865 
L 399.602225 129.571865 
L 399.719102 130.164702 
L 399.814466 129.571865 
L 399.909562 131.350376 
L 399.932811 130.164702 
L 400.125353 130.164702 
L 400.148529 129.571865 
L 400.221512 130.164702 
L 400.752533 130.164702 
L 400.781338 131.350376 
L 400.854073 130.164702 
L 401.312936 130.164702 
L 401.337826 131.350376 
L 401.412245 130.164702 
L 401.436173 130.164702 
L 401.560745 131.350376 
L 401.949807 131.350376 
L 401.973625 130.164702 
L 402.021995 131.350376 
L 402.095518 130.164702 
L 402.119555 131.350376 
L 402.219994 131.350376 
L 402.338633 130.164702 
L 402.459697 131.350376 
L 402.768999 131.350376 
L 402.79215 131.943214 
L 402.861803 131.350376 
L 403.192579 131.350376 
L 403.287446 131.943214 
L 403.334442 131.350376 
L 403.381806 131.943214 
L 403.405634 131.943214 
L 403.479137 131.350376 
L 403.502786 131.943214 
L 403.57437 131.943214 
L 403.599229 131.350376 
L 403.671509 131.943214 
L 403.982527 131.943214 
L 404.077089 132.536051 
L 404.194856 131.943214 
L 405.024484 131.943214 
L 405.095498 132.536051 
L 405.118636 131.943214 
L 405.188635 131.943214 
L 405.307813 132.536051 
L 405.331383 132.536051 
L 405.355269 131.943214 
L 405.426695 132.536051 
L 405.735922 132.536051 
L 405.759988 131.943214 
L 405.830529 132.536051 
L 406.330535 132.536051 
L 406.44795 133.128888 
L 406.800633 133.128888 
L 406.919753 132.536051 
L 407.035633 133.128888 
L 407.108513 132.536051 
L 407.133225 133.128888 
L 407.156314 133.128888 
L 407.276153 132.536051 
L 407.324593 132.536051 
L 407.445301 133.128888 
L 407.517553 132.536051 
L 407.541385 133.128888 
L 407.729859 133.128888 
L 407.800113 132.536051 
L 407.824012 133.128888 
L 408.325755 133.128888 
L 408.420156 133.721726 
L 408.539754 133.128888 
L 408.704791 133.128888 
L 408.823707 132.536051 
L 409.80299 132.536051 
L 409.826515 131.943214 
L 409.899048 132.536051 
L 410.06961 132.536051 
L 410.096093 131.943214 
L 410.17242 132.536051 
L 410.270213 132.536051 
L 410.393498 131.943214 
L 410.421416 131.943214 
L 410.497414 132.536051 
L 410.52246 131.943214 
L 410.571163 131.943214 
L 410.618819 132.536051 
L 410.666962 131.943214 
L 410.796292 131.943214 
L 410.897608 132.536051 
L 411.024896 131.943214 
L 411.676028 131.943214 
L 411.700286 131.350376 
L 411.772096 131.943214 
L 411.820728 131.943214 
L 411.844932 131.350376 
L 411.915854 131.943214 
L 411.939175 131.943214 
L 412.060043 131.350376 
L 412.178454 131.943214 
L 412.300199 131.943214 
L 412.323311 132.536051 
L 412.394234 131.943214 
L 412.489381 131.350376 
L 412.609675 131.943214 
L 412.778056 131.943214 
L 412.851677 131.350376 
L 412.877245 131.943214 
L 413.459433 131.943214 
L 413.5298 131.350376 
L 413.554778 131.943214 
L 413.578321 131.943214 
L 413.695125 131.350376 
L 413.815368 131.943214 
L 413.839218 131.943214 
L 413.957367 131.350376 
L 414.365716 131.350376 
L 414.463748 130.164702 
L 414.48686 131.350376 
L 414.558965 130.164702 
L 415.003539 130.164702 
L 415.123813 129.571865 
L 415.242136 129.571865 
L 415.342072 128.979027 
L 415.459315 129.571865 
L 415.482388 129.571865 
L 415.602215 128.979027 
L 415.640281 128.979027 
L 415.734766 128.38619 
L 415.758104 128.979027 
L 415.834784 128.38619 
L 415.978101 128.979027 
L 416.09799 127.793353 
L 416.122243 128.38619 
L 416.195513 127.793353 
L 416.21889 127.200516 
L 416.289425 127.793353 
L 416.336656 127.793353 
L 416.360546 127.200516 
L 416.430639 127.793353 
L 416.455001 127.793353 
L 416.526677 127.200516 
L 416.549837 127.793353 
L 416.597149 127.793353 
L 416.669632 127.200516 
L 416.692739 127.793353 
L 416.740869 127.793353 
L 416.859425 127.200516 
L 416.882901 127.200516 
L 416.932912 127.793353 
L 416.980399 127.200516 
L 417.0035 127.200516 
L 417.099714 127.793353 
L 417.147487 127.200516 
L 417.195048 127.793353 
L 417.266399 127.793353 
L 417.389259 127.200516 
L 417.414467 127.793353 
L 417.463355 127.200516 
L 417.56066 125.422004 
L 417.607262 126.014841 
L 417.631097 126.014841 
L 417.727459 128.38619 
L 417.777006 127.793353 
L 417.823418 123.643492 
L 417.872851 128.38619 
L 417.906611 128.38619 
L 417.931741 127.793353 
L 418.003242 128.38619 
L 418.027095 128.38619 
L 418.121358 128.979027 
L 418.171541 127.793353 
L 418.219321 128.38619 
L 418.339387 128.979027 
L 418.554148 128.979027 
L 418.624969 129.571865 
L 418.659929 128.979027 
L 418.731515 128.979027 
L 418.757063 129.571865 
L 418.780513 128.979027 
L 418.838454 125.422004 
L 418.88493 128.979027 
L 418.937408 128.979027 
L 419.034088 126.607678 
L 419.057289 128.38619 
L 419.08781 128.38619 
L 419.277161 124.236329 
L 419.396165 126.014841 
L 419.419723 125.422004 
L 419.466957 126.014841 
L 419.56287 126.607678 
L 419.633773 125.422004 
L 419.68121 126.014841 
L 419.730607 128.38619 
L 419.776848 126.607678 
L 419.9204 123.643492 
L 419.946146 126.014841 
L 420.047665 125.422004 
L 420.094019 125.422004 
L 420.260171 127.200516 
L 420.403811 126.014841 
L 420.524705 126.607678 
L 420.646745 126.607678 
L 420.772276 127.793353 
L 420.998006 125.422004 
L 421.047125 125.422004 
L 421.147989 127.200516 
L 421.172058 126.607678 
L 421.303049 127.793353 
L 421.352903 127.200516 
L 421.405631 127.200516 
L 421.429791 127.793353 
L 421.476859 127.200516 
L 421.597223 126.607678 
L 421.622308 126.607678 
L 421.64893 127.793353 
L 421.728726 127.200516 
L 421.799098 127.200516 
L 421.846493 126.014841 
L 421.894482 126.607678 
L 421.918692 127.793353 
L 421.998854 127.200516 
L 422.047059 127.200516 
L 422.123026 126.607678 
L 422.147502 127.200516 
L 422.175332 127.200516 
L 422.298001 126.607678 
L 422.445436 127.793353 
L 422.517305 127.793353 
L 422.637154 127.200516 
L 422.684995 127.200516 
L 422.828487 126.014841 
L 422.8776 126.014841 
L 423.044439 127.793353 
L 423.117836 127.793353 
L 423.238558 126.607678 
L 423.419998 128.38619 
L 423.467876 128.38619 
L 423.572247 127.793353 
L 423.608234 128.38619 
L 423.633381 127.200516 
L 423.680916 127.793353 
L 423.85037 127.793353 
L 423.974785 128.38619 
L 424.193266 128.38619 
L 424.216453 127.793353 
L 424.279743 128.38619 
L 424.331173 128.38619 
L 424.35619 127.793353 
L 424.428805 128.38619 
L 425.593143 128.38619 
L 425.712733 128.979027 
L 425.808577 128.38619 
L 425.926534 128.979027 
L 426.884539 128.979027 
L 427.006625 129.571865 
L 427.543943 129.571865 
L 427.638462 130.164702 
L 427.757867 129.571865 
L 427.877572 130.164702 
L 428.376839 130.164702 
L 428.400213 131.350376 
L 428.471735 130.164702 
L 428.542361 130.164702 
L 428.636426 131.350376 
L 428.754726 130.164702 
L 428.802607 131.350376 
L 428.850973 130.164702 
L 428.90454 130.164702 
L 429.041693 131.350376 
L 429.278788 131.350376 
L 429.302645 130.164702 
L 429.380107 131.350376 
L 429.440948 131.350376 
L 429.517214 130.164702 
L 429.653336 131.350376 
L 429.823108 131.350376 
L 429.847488 130.164702 
L 429.92115 131.350376 
L 431.126014 131.350376 
L 431.251815 131.943214 
L 431.300131 131.943214 
L 431.323531 131.350376 
L 431.404832 131.943214 
L 431.42833 131.943214 
L 431.452427 131.350376 
L 431.526168 131.943214 
L 431.575455 131.943214 
L 431.575455 131.943214 
" style="fill:none;stroke:#1f77b4;stroke-linecap:square;stroke-width:1.5;"/>
   </g>
   <g id="line2d_28">
    <path clip-path="url(#p0fa85ad912)" d="M 63.084545 184.112893 
L 65.257553 184.112893 
L 65.378037 160.992239 
L 67.734848 160.992239 
L 67.852436 167.513449 
L 69.400415 167.513449 
L 69.517355 178.777357 
L 70.306137 178.777357 
L 70.422492 190.634102 
L 70.942253 190.634102 
L 130.586028 107.636886 
L 133.692882 107.636886 
L 133.788068 119.493631 
L 135.123276 119.493631 
L 135.242118 130.757539 
L 136.428399 130.757539 
L 136.546255 160.992239 
L 138.325784 160.992239 
L 138.443814 178.777357 
L 139.104001 178.777357 
L 232.506851 114.158096 
L 233.289356 114.158096 
L 233.408404 137.278749 
L 234.588538 137.278749 
L 234.708488 160.992239 
L 237.307541 160.992239 
L 237.426397 172.848985 
L 239.987343 172.848985 
L 240.104871 178.777357 
L 241.673162 178.777357 
L 241.790558 184.112893 
L 242.727365 184.112893 
L 242.849097 195.969638 
L 243.935712 195.969638 
L 244.051962 202.490848 
L 244.75326 202.490848 
L 244.878473 191.819777 
L 245.355802 191.819777 
L 245.473876 195.969638 
L 246.552305 195.969638 
L 246.684004 190.634102 
L 249.927741 190.634102 
L 250.074896 191.819777 
L 250.762247 191.819777 
L 250.891944 190.634102 
L 251.989597 190.634102 
L 252.109721 184.112893 
L 254.691146 184.112893 
L 254.809678 178.777357 
L 256.184348 178.777357 
L 256.303853 172.848985 
L 257.01188 172.848985 
L 257.131002 170.477636 
L 257.366436 170.477636 
L 257.495401 167.513449 
L 260.109493 167.513449 
L 260.228596 160.992239 
L 264.410405 160.992239 
L 264.529541 170.477636 
L 265.708687 170.477636 
L 265.837771 172.848985 
L 266.662645 172.848985 
L 266.783636 170.477636 
L 266.90405 170.477636 
L 267.032833 172.848985 
L 270.410644 172.848985 
L 270.529455 170.477636 
L 270.884434 170.477636 
L 271.00347 172.848985 
L 272.199002 172.848985 
L 272.317603 178.777357 
L 272.914557 178.777357 
L 273.035935 191.819777 
L 273.603791 191.819777 
L 273.724064 195.969638 
L 273.945983 195.969638 
L 274.064693 202.490848 
L 279.437658 202.490848 
L 279.559127 191.819777 
L 280.632634 191.819777 
L 280.750399 202.490848 
L 281.708976 202.490848 
L 281.823085 190.634102 
L 282.996538 190.634102 
L 283.140505 184.112893 
L 283.600477 184.112893 
L 283.71631 181.148706 
L 284.300633 181.148706 
L 284.424626 178.777357 
L 286.11271 178.777357 
L 286.230432 172.848985 
L 287.043936 172.848985 
L 287.163428 167.513449 
L 288.336919 167.513449 
L 288.447191 172.848985 
L 289.62823 172.848985 
L 289.77613 160.992239 
L 292.547152 160.992239 
L 292.676978 155.656704 
L 296.416469 155.656704 
L 296.583366 160.992239 
L 297.615708 160.992239 
L 297.74813 184.112893 
L 299.284335 184.112893 
L 299.416124 195.969638 
L 300.607097 195.969638 
L 300.729964 214.347593 
L 302.17881 214.347593 
L 302.32004 223.832989 
L 303.965144 223.832989 
L 304.081541 234.50406 
L 306.209395 234.50406 
L 306.3277 223.832989 
L 307.513743 223.832989 
L 307.630914 226.204338 
L 309.148798 226.204338 
L 309.265151 223.832989 
L 309.735619 223.832989 
L 309.8545 226.204338 
L 311.984375 226.204338 
L 312.102979 232.132711 
L 315.928637 232.132711 
L 316.048175 223.832989 
L 317.285832 223.832989 
L 317.408659 213.161918 
L 318.791207 213.161918 
L 318.925778 181.148706 
L 319.404394 181.148706 
L 319.524449 172.848985 
L 320.691928 172.848985 
L 320.819269 137.278749 
L 321.965755 137.278749 
L 322.086153 114.158096 
L 323.511674 114.158096 
L 323.641145 102.301351 
L 324.774116 102.301351 
L 324.905174 89.258931 
L 326.068906 89.258931 
L 326.18493 95.780141 
L 327.251909 95.780141 
L 327.384555 107.636886 
L 329.840967 107.636886 
L 329.968516 125.422004 
L 330.18074 125.422004 
L 330.313647 155.656704 
L 331.852375 155.656704 
L 331.96467 167.513449 
L 332.699091 167.513449 
L 332.825806 172.848985 
L 334.002835 172.848985 
L 334.139103 184.112893 
L 335.422158 184.112893 
L 335.543992 190.634102 
L 336.951356 190.634102 
L 337.068881 202.490848 
L 337.661715 202.490848 
L 337.7816 223.832989 
L 338.497225 223.832989 
L 338.616397 214.347593 
L 338.854558 214.347593 
L 338.970974 223.832989 
L 340.722756 223.832989 
L 340.8421 226.204338 
L 341.421486 226.204338 
L 341.538879 223.832989 
L 342.129604 223.832989 
L 342.247496 237.468246 
L 344.130272 237.468246 
L 344.247889 245.17513 
L 344.363895 245.17513 
L 344.479782 234.50406 
L 344.720012 234.50406 
L 344.836855 237.468246 
L 346.339363 237.468246 
L 346.460572 214.347593 
L 347.640518 214.347593 
L 347.762926 190.634102 
L 349.051659 190.634102 
L 349.170287 149.135494 
L 350.320269 149.135494 
L 350.441543 114.158096 
L 351.608697 114.158096 
L 351.737847 83.923396 
L 352.991717 83.923396 
L 353.109538 66.138278 
L 354.383719 66.138278 
L 354.50612 54.281533 
L 355.64663 54.281533 
L 355.768091 35.903578 
L 357.072681 35.903578 
L 357.222436 42.424787 
L 359.568143 42.424787 
L 359.720799 72.06665 
L 360.964688 72.06665 
L 361.095568 95.780141 
L 362.320965 95.780141 
L 362.46142 125.422004 
L 364.805583 125.422004 
L 364.925842 137.278749 
L 365.044447 137.278749 
L 365.162834 155.656704 
L 366.326449 155.656704 
L 366.447083 172.848985 
L 368.655042 172.848985 
L 368.770987 184.112893 
L 369.340495 184.112893 
L 369.457844 190.634102 
L 370.746094 190.634102 
L 370.867317 195.969638 
L 372.521335 195.969638 
L 372.63955 213.161918 
L 373.118214 213.161918 
L 373.237939 202.490848 
L 373.832963 202.490848 
L 373.95023 213.161918 
L 375.363246 213.161918 
L 375.486099 223.832989 
L 375.728165 223.832989 
L 375.854472 209.012057 
L 376.17704 209.012057 
L 376.301543 213.161918 
L 376.84531 213.161918 
L 376.966014 234.50406 
L 377.200919 234.50406 
L 377.319649 226.204338 
L 377.560555 226.204338 
L 377.682074 223.832989 
L 378.514619 223.832989 
L 378.637944 202.490848 
L 379.889125 202.490848 
L 380.007981 184.112893 
L 381.215268 184.112893 
L 381.334714 155.656704 
L 383.567791 155.656704 
L 383.688527 119.493631 
L 383.812179 119.493631 
L 383.931728 95.780141 
L 385.343352 95.780141 
L 385.461004 77.402186 
L 386.548603 77.402186 
L 386.668707 66.138278 
L 388.833705 66.138278 
L 388.9522 54.281533 
L 391.455958 54.281533 
L 391.580526 60.802743 
L 391.817203 60.802743 
L 391.937321 83.923396 
L 393.240962 83.923396 
L 393.364725 102.301351 
L 394.579483 102.301351 
L 394.710364 125.422004 
L 395.875512 125.422004 
L 395.99563 137.278749 
L 397.473451 137.278749 
L 397.619511 149.135494 
L 398.719852 149.135494 
L 398.837758 155.656704 
L 400.854073 155.656704 
L 400.973574 167.513449 
L 401.218331 167.513449 
L 401.337826 184.112893 
L 402.979667 184.112893 
L 403.097917 195.969638 
L 404.053863 195.969638 
L 404.171726 202.490848 
L 405.355269 202.490848 
L 405.474296 209.012057 
L 407.133225 209.012057 
L 407.251789 220.868803 
L 408.798998 220.868803 
L 408.918403 213.161918 
L 411.651375 213.161918 
L 411.772096 202.490848 
L 412.97412 202.490848 
L 413.09664 184.112893 
L 413.43578 184.112893 
L 413.554778 167.513449 
L 417.0035 167.513449 
L 417.122866 125.422004 
L 418.316208 125.422004 
L 418.434902 107.636886 
L 420.094019 107.636886 
L 420.213159 102.301351 
L 421.476859 102.301351 
L 421.597223 107.636886 
L 422.997073 107.636886 
L 423.117836 114.158096 
L 424.25512 114.158096 
L 424.379734 125.422004 
L 426.288238 125.422004 
L 426.407694 130.757539 
L 427.006625 130.757539 
L 427.127193 155.656704 
L 428.18685 155.656704 
L 428.305669 167.513449 
L 431.051866 167.513449 
L 431.178485 178.777357 
L 431.575455 178.777357 
L 431.575455 178.777357 
" style="fill:none;stroke:#ff7f0e;stroke-linecap:square;stroke-width:1.5;"/>
   </g>
   <g id="patch_3">
    <path d="M 44.66 255.638708 
L 44.66 25.44 
" style="fill:none;stroke:#000000;stroke-linecap:square;stroke-linejoin:miter;stroke-width:0.8;"/>
   </g>
   <g id="patch_4">
    <path d="M 450 255.638708 
L 450 25.44 
" style="fill:none;stroke:#000000;stroke-linecap:square;stroke-linejoin:miter;stroke-width:0.8;"/>
   </g>
   <g id="patch_5">
    <path d="M 44.66 255.638708 
L 450 255.638708 
" style="fill:none;stroke:#000000;stroke-linecap:square;stroke-linejoin:miter;stroke-width:0.8;"/>
   </g>
   <g id="patch_6">
    <path d="M 44.66 25.44 
L 450 25.44 
" style="fill:none;stroke:#000000;stroke-linecap:square;stroke-linejoin:miter;stroke-width:0.8;"/>
   </g>
   <g id="text_16">
    <!-- Lake Shoecraft - Water and Air Temperature -->
    <g transform="translate(115.711562 19.44)scale(0.12 -0.12)">
     <defs>
      <path d="M 9.8125 72.90625 
L 19.671875 72.90625 
L 19.671875 8.296875 
L 55.171875 8.296875 
L 55.171875 0 
L 9.8125 0 
z
" id="DejaVuSans-76"/>
      <path d="M 9.078125 75.984375 
L 18.109375 75.984375 
L 18.109375 31.109375 
L 44.921875 54.6875 
L 56.390625 54.6875 
L 27.390625 29.109375 
L 57.625 0 
L 45.90625 0 
L 18.109375 26.703125 
L 18.109375 0 
L 9.078125 0 
z
" id="DejaVuSans-107"/>
      <path d="M 53.515625 70.515625 
L 53.515625 60.890625 
Q 47.90625 63.578125 42.921875 64.890625 
Q 37.9375 66.21875 33.296875 66.21875 
Q 25.25 66.21875 20.875 63.09375 
Q 16.5 59.96875 16.5 54.203125 
Q 16.5 49.359375 19.40625 46.890625 
Q 22.3125 44.4375 30.421875 42.921875 
L 36.375 41.703125 
Q 47.40625 39.59375 52.65625 34.296875 
Q 57.90625 29 57.90625 20.125 
Q 57.90625 9.515625 50.796875 4.046875 
Q 43.703125 -1.421875 29.984375 -1.421875 
Q 24.8125 -1.421875 18.96875 -0.25 
Q 13.140625 0.921875 6.890625 3.21875 
L 6.890625 13.375 
Q 12.890625 10.015625 18.65625 8.296875 
Q 24.421875 6.59375 29.984375 6.59375 
Q 38.421875 6.59375 43.015625 9.90625 
Q 47.609375 13.234375 47.609375 19.390625 
Q 47.609375 24.75 44.3125 27.78125 
Q 41.015625 30.8125 33.5 32.328125 
L 27.484375 33.5 
Q 16.453125 35.6875 11.515625 40.375 
Q 6.59375 45.0625 6.59375 53.421875 
Q 6.59375 63.09375 13.40625 68.65625 
Q 20.21875 74.21875 32.171875 74.21875 
Q 37.3125 74.21875 42.625 73.28125 
Q 47.953125 72.359375 53.515625 70.515625 
z
" id="DejaVuSans-83"/>
      <path d="M 54.890625 33.015625 
L 54.890625 0 
L 45.90625 0 
L 45.90625 32.71875 
Q 45.90625 40.484375 42.875 44.328125 
Q 39.84375 48.1875 33.796875 48.1875 
Q 26.515625 48.1875 22.3125 43.546875 
Q 18.109375 38.921875 18.109375 30.90625 
L 18.109375 0 
L 9.078125 0 
L 9.078125 75.984375 
L 18.109375 75.984375 
L 18.109375 46.1875 
Q 21.34375 51.125 25.703125 53.5625 
Q 30.078125 56 35.796875 56 
Q 45.21875 56 50.046875 50.171875 
Q 54.890625 44.34375 54.890625 33.015625 
z
" id="DejaVuSans-104"/>
      <path d="M 30.609375 48.390625 
Q 23.390625 48.390625 19.1875 42.75 
Q 14.984375 37.109375 14.984375 27.296875 
Q 14.984375 17.484375 19.15625 11.84375 
Q 23.34375 6.203125 30.609375 6.203125 
Q 37.796875 6.203125 41.984375 11.859375 
Q 46.1875 17.53125 46.1875 27.296875 
Q 46.1875 37.015625 41.984375 42.703125 
Q 37.796875 48.390625 30.609375 48.390625 
z
M 30.609375 56 
Q 42.328125 56 49.015625 48.375 
Q 55.71875 40.765625 55.71875 27.296875 
Q 55.71875 13.875 49.015625 6.21875 
Q 42.328125 -1.421875 30.609375 -1.421875 
Q 18.84375 -1.421875 12.171875 6.21875 
Q 5.515625 13.875 5.515625 27.296875 
Q 5.515625 40.765625 12.171875 48.375 
Q 18.84375 56 30.609375 56 
z
" id="DejaVuSans-111"/>
      <path d="M 48.78125 52.59375 
L 48.78125 44.1875 
Q 44.96875 46.296875 41.140625 47.34375 
Q 37.3125 48.390625 33.40625 48.390625 
Q 24.65625 48.390625 19.8125 42.84375 
Q 14.984375 37.3125 14.984375 27.296875 
Q 14.984375 17.28125 19.8125 11.734375 
Q 24.65625 6.203125 33.40625 6.203125 
Q 37.3125 6.203125 41.140625 7.25 
Q 44.96875 8.296875 48.78125 10.40625 
L 48.78125 2.09375 
Q 45.015625 0.34375 40.984375 -0.53125 
Q 36.96875 -1.421875 32.421875 -1.421875 
Q 20.0625 -1.421875 12.78125 6.34375 
Q 5.515625 14.109375 5.515625 27.296875 
Q 5.515625 40.671875 12.859375 48.328125 
Q 20.21875 56 33.015625 56 
Q 37.15625 56 41.109375 55.140625 
Q 45.0625 54.296875 48.78125 52.59375 
z
" id="DejaVuSans-99"/>
      <path d="M 37.109375 75.984375 
L 37.109375 68.5 
L 28.515625 68.5 
Q 23.6875 68.5 21.796875 66.546875 
Q 19.921875 64.59375 19.921875 59.515625 
L 19.921875 54.6875 
L 34.71875 54.6875 
L 34.71875 47.703125 
L 19.921875 47.703125 
L 19.921875 0 
L 10.890625 0 
L 10.890625 47.703125 
L 2.296875 47.703125 
L 2.296875 54.6875 
L 10.890625 54.6875 
L 10.890625 58.5 
Q 10.890625 67.625 15.140625 71.796875 
Q 19.390625 75.984375 28.609375 75.984375 
z
" id="DejaVuSans-102"/>
      <path d="M 3.328125 72.90625 
L 13.28125 72.90625 
L 28.609375 11.28125 
L 43.890625 72.90625 
L 54.984375 72.90625 
L 70.3125 11.28125 
L 85.59375 72.90625 
L 95.609375 72.90625 
L 77.296875 0 
L 64.890625 0 
L 49.515625 63.28125 
L 33.984375 0 
L 21.578125 0 
z
" id="DejaVuSans-87"/>
      <path d="M 54.890625 33.015625 
L 54.890625 0 
L 45.90625 0 
L 45.90625 32.71875 
Q 45.90625 40.484375 42.875 44.328125 
Q 39.84375 48.1875 33.796875 48.1875 
Q 26.515625 48.1875 22.3125 43.546875 
Q 18.109375 38.921875 18.109375 30.90625 
L 18.109375 0 
L 9.078125 0 
L 9.078125 54.6875 
L 18.109375 54.6875 
L 18.109375 46.1875 
Q 21.34375 51.125 25.703125 53.5625 
Q 30.078125 56 35.796875 56 
Q 45.21875 56 50.046875 50.171875 
Q 54.890625 44.34375 54.890625 33.015625 
z
" id="DejaVuSans-110"/>
      <path d="M 45.40625 46.390625 
L 45.40625 75.984375 
L 54.390625 75.984375 
L 54.390625 0 
L 45.40625 0 
L 45.40625 8.203125 
Q 42.578125 3.328125 38.25 0.953125 
Q 33.9375 -1.421875 27.875 -1.421875 
Q 17.96875 -1.421875 11.734375 6.484375 
Q 5.515625 14.40625 5.515625 27.296875 
Q 5.515625 40.1875 11.734375 48.09375 
Q 17.96875 56 27.875 56 
Q 33.9375 56 38.25 53.625 
Q 42.578125 51.265625 45.40625 46.390625 
z
M 14.796875 27.296875 
Q 14.796875 17.390625 18.875 11.75 
Q 22.953125 6.109375 30.078125 6.109375 
Q 37.203125 6.109375 41.296875 11.75 
Q 45.40625 17.390625 45.40625 27.296875 
Q 45.40625 37.203125 41.296875 42.84375 
Q 37.203125 48.484375 30.078125 48.484375 
Q 22.953125 48.484375 18.875 42.84375 
Q 14.796875 37.203125 14.796875 27.296875 
z
" id="DejaVuSans-100"/>
      <path d="M 34.1875 63.1875 
L 20.796875 26.90625 
L 47.609375 26.90625 
z
M 28.609375 72.90625 
L 39.796875 72.90625 
L 67.578125 0 
L 57.328125 0 
L 50.6875 18.703125 
L 17.828125 18.703125 
L 11.1875 0 
L 0.78125 0 
z
" id="DejaVuSans-65"/>
      <path d="M 9.421875 54.6875 
L 18.40625 54.6875 
L 18.40625 0 
L 9.421875 0 
z
M 9.421875 75.984375 
L 18.40625 75.984375 
L 18.40625 64.59375 
L 9.421875 64.59375 
z
" id="DejaVuSans-105"/>
     </defs>
     <use xlink:href="#DejaVuSans-76"/>
     <use x="55.712891" xlink:href="#DejaVuSans-97"/>
     <use x="116.992188" xlink:href="#DejaVuSans-107"/>
     <use x="171.277344" xlink:href="#DejaVuSans-101"/>
     <use x="232.800781" xlink:href="#DejaVuSans-32"/>
     <use x="264.587891" xlink:href="#DejaVuSans-83"/>
     <use x="328.064453" xlink:href="#DejaVuSans-104"/>
     <use x="391.443359" xlink:href="#DejaVuSans-111"/>
     <use x="452.625" xlink:href="#DejaVuSans-101"/>
     <use x="514.148438" xlink:href="#DejaVuSans-99"/>
     <use x="569.128906" xlink:href="#DejaVuSans-114"/>
     <use x="610.242188" xlink:href="#DejaVuSans-97"/>
     <use x="671.521484" xlink:href="#DejaVuSans-102"/>
     <use x="704.976562" xlink:href="#DejaVuSans-116"/>
     <use x="744.185547" xlink:href="#DejaVuSans-32"/>
     <use x="775.972656" xlink:href="#DejaVuSans-45"/>
     <use x="812.056641" xlink:href="#DejaVuSans-32"/>
     <use x="843.84375" xlink:href="#DejaVuSans-87"/>
     <use x="936.345703" xlink:href="#DejaVuSans-97"/>
     <use x="997.625" xlink:href="#DejaVuSans-116"/>
     <use x="1036.833984" xlink:href="#DejaVuSans-101"/>
     <use x="1098.357422" xlink:href="#DejaVuSans-114"/>
     <use x="1139.470703" xlink:href="#DejaVuSans-32"/>
     <use x="1171.257812" xlink:href="#DejaVuSans-97"/>
     <use x="1232.537109" xlink:href="#DejaVuSans-110"/>
     <use x="1295.916016" xlink:href="#DejaVuSans-100"/>
     <use x="1359.392578" xlink:href="#DejaVuSans-32"/>
     <use x="1391.179688" xlink:href="#DejaVuSans-65"/>
     <use x="1459.587891" xlink:href="#DejaVuSans-105"/>
     <use x="1487.371094" xlink:href="#DejaVuSans-114"/>
     <use x="1528.484375" xlink:href="#DejaVuSans-32"/>
     <use x="1560.271484" xlink:href="#DejaVuSans-84"/>
     <use x="1604.355469" xlink:href="#DejaVuSans-101"/>
     <use x="1665.878906" xlink:href="#DejaVuSans-109"/>
     <use x="1763.291016" xlink:href="#DejaVuSans-112"/>
     <use x="1826.767578" xlink:href="#DejaVuSans-101"/>
     <use x="1888.291016" xlink:href="#DejaVuSans-114"/>
     <use x="1929.404297" xlink:href="#DejaVuSans-97"/>
     <use x="1990.683594" xlink:href="#DejaVuSans-116"/>
     <use x="2029.892578" xlink:href="#DejaVuSans-117"/>
     <use x="2093.271484" xlink:href="#DejaVuSans-114"/>
     <use x="2132.134766" xlink:href="#DejaVuSans-101"/>
    </g>
   </g>
   <g id="legend_1">
    <g id="patch_7">
     <path d="M 51.66 62.79625 
L 136.769375 62.79625 
Q 138.769375 62.79625 138.769375 60.79625 
L 138.769375 32.44 
Q 138.769375 30.44 136.769375 30.44 
L 51.66 30.44 
Q 49.66 30.44 49.66 32.44 
L 49.66 60.79625 
Q 49.66 62.79625 51.66 62.79625 
z
" style="fill:#ffffff;opacity:0.8;stroke:#cccccc;stroke-linejoin:miter;"/>
    </g>
    <g id="line2d_29">
     <path d="M 53.66 38.538437 
L 73.66 38.538437 
" style="fill:none;stroke:#1f77b4;stroke-linecap:square;stroke-width:1.5;"/>
    </g>
    <g id="line2d_30"/>
    <g id="text_17">
     <!-- Lake Temp -->
     <g transform="translate(81.66 42.038437)scale(0.1 -0.1)">
      <use xlink:href="#DejaVuSans-76"/>
      <use x="55.712891" xlink:href="#DejaVuSans-97"/>
      <use x="116.992188" xlink:href="#DejaVuSans-107"/>
      <use x="171.277344" xlink:href="#DejaVuSans-101"/>
      <use x="232.800781" xlink:href="#DejaVuSans-32"/>
      <use x="264.587891" xlink:href="#DejaVuSans-84"/>
      <use x="308.671875" xlink:href="#DejaVuSans-101"/>
      <use x="370.195312" xlink:href="#DejaVuSans-109"/>
      <use x="467.607422" xlink:href="#DejaVuSans-112"/>
     </g>
    </g>
    <g id="line2d_31">
     <path d="M 53.66 53.216562 
L 73.66 53.216562 
" style="fill:none;stroke:#ff7f0e;stroke-linecap:square;stroke-width:1.5;"/>
    </g>
    <g id="line2d_32"/>
    <g id="text_18">
     <!-- Air Temp -->
     <g transform="translate(81.66 56.716562)scale(0.1 -0.1)">
      <use xlink:href="#DejaVuSans-65"/>
      <use x="68.408203" xlink:href="#DejaVuSans-105"/>
      <use x="96.191406" xlink:href="#DejaVuSans-114"/>
      <use x="137.304688" xlink:href="#DejaVuSans-32"/>
      <use x="169.091797" xlink:href="#DejaVuSans-84"/>
      <use x="213.175781" xlink:href="#DejaVuSans-101"/>
      <use x="274.699219" xlink:href="#DejaVuSans-109"/>
      <use x="372.111328" xlink:href="#DejaVuSans-112"/>
     </g>
    </g>
   </g>
  </g>
 </g>
 <defs>
  <clipPath id="p0fa85ad912">
   <rect height="230.198708" width="405.34" x="44.66" y="25.44"/>
  </clipPath>
 </defs>
</svg>
