<?xml version="1.0" encoding="utf-8" standalone="no"?>
<!DOCTYPE svg PUBLIC "-//W3C//DTD SVG 1.1//EN"
  "http://www.w3.org/Graphics/SVG/1.1/DTD/svg11.dtd">
<!-- Created with matplotlib (https://matplotlib.org/) -->
<svg height="345.6pt" version="1.1" viewBox="0 0 460.8 345.6" width="460.8pt" xmlns="http://www.w3.org/2000/svg" xmlns:xlink="http://www.w3.org/1999/xlink">
 <metadata>
  <rdf:RDF xmlns:cc="http://creativecommons.org/ns#" xmlns:dc="http://purl.org/dc/elements/1.1/" xmlns:rdf="http://www.w3.org/1999/02/22-rdf-syntax-ns#">
   <cc:Work>
    <dc:type rdf:resource="http://purl.org/dc/dcmitype/StillImage"/>
    <dc:date>2024-11-18T10:54:35.687249</dc:date>
    <dc:format>image/svg+xml</dc:format>
    <dc:creator>
     <cc:Agent>
      <dc:title>Matplotlib v3.3.2, https://matplotlib.org/</dc:title>
     </cc:Agent>
    </dc:creator>
   </cc:Work>
  </rdf:RDF>
 </metadata>
 <defs>
  <style type="text/css">*{stroke-linecap:butt;stroke-linejoin:round;}</style>
 </defs>
 <g id="figure_1">
  <g id="patch_1">
   <path d="M 0 345.6 
L 460.8 345.6 
L 460.8 0 
L 0 0 
z
" style="fill:none;"/>
  </g>
  <g id="axes_1">
   <g id="patch_2">
    <path d="M 54.2 255.638708 
L 450 255.638708 
L 450 25.44 
L 54.2 25.44 
z
" style="fill:none;"/>
   </g>
   <g id="matplotlib.axis_1">
    <g id="xtick_1">
     <g id="line2d_1">
      <path clip-path="url(#pce4079b02a)" d="M 88.960286 255.638708 
L 88.960286 25.44 
" style="fill:none;stroke:#b0b0b0;stroke-linecap:square;stroke-width:0.8;"/>
     </g>
     <g id="line2d_2">
      <defs>
       <path d="M 0 0 
L 0 3.5 
" id="md605b25b52" style="stroke:#000000;stroke-width:0.8;"/>
      </defs>
      <g>
       <use style="stroke:#000000;stroke-width:0.8;" x="88.960286" xlink:href="#md605b25b52" y="255.638708"/>
      </g>
     </g>
     <g id="text_1">
      <!-- 2024-10-29 -->
      <g transform="translate(81.614893 319.848351)rotate(-70)scale(0.1 -0.1)">
       <defs>
        <path d="M 19.1875 8.296875 
L 53.609375 8.296875 
L 53.609375 0 
L 7.328125 0 
L 7.328125 8.296875 
Q 12.9375 14.109375 22.625 23.890625 
Q 32.328125 33.6875 34.8125 36.53125 
Q 39.546875 41.84375 41.421875 45.53125 
Q 43.3125 49.21875 43.3125 52.78125 
Q 43.3125 58.59375 39.234375 62.25 
Q 35.15625 65.921875 28.609375 65.921875 
Q 23.96875 65.921875 18.8125 64.3125 
Q 13.671875 62.703125 7.8125 59.421875 
L 7.8125 69.390625 
Q 13.765625 71.78125 18.9375 73 
Q 24.125 74.21875 28.421875 74.21875 
Q 39.75 74.21875 46.484375 68.546875 
Q 53.21875 62.890625 53.21875 53.421875 
Q 53.21875 48.921875 51.53125 44.890625 
Q 49.859375 40.875 45.40625 35.40625 
Q 44.1875 33.984375 37.640625 27.21875 
Q 31.109375 20.453125 19.1875 8.296875 
z
" id="DejaVuSans-50"/>
        <path d="M 31.78125 66.40625 
Q 24.171875 66.40625 20.328125 58.90625 
Q 16.5 51.421875 16.5 36.375 
Q 16.5 21.390625 20.328125 13.890625 
Q 24.171875 6.390625 31.78125 6.390625 
Q 39.453125 6.390625 43.28125 13.890625 
Q 47.125 21.390625 47.125 36.375 
Q 47.125 51.421875 43.28125 58.90625 
Q 39.453125 66.40625 31.78125 66.40625 
z
M 31.78125 74.21875 
Q 44.046875 74.21875 50.515625 64.515625 
Q 56.984375 54.828125 56.984375 36.375 
Q 56.984375 17.96875 50.515625 8.265625 
Q 44.046875 -1.421875 31.78125 -1.421875 
Q 19.53125 -1.421875 13.0625 8.265625 
Q 6.59375 17.96875 6.59375 36.375 
Q 6.59375 54.828125 13.0625 64.515625 
Q 19.53125 74.21875 31.78125 74.21875 
z
" id="DejaVuSans-48"/>
        <path d="M 37.796875 64.3125 
L 12.890625 25.390625 
L 37.796875 25.390625 
z
M 35.203125 72.90625 
L 47.609375 72.90625 
L 47.609375 25.390625 
L 58.015625 25.390625 
L 58.015625 17.1875 
L 47.609375 17.1875 
L 47.609375 0 
L 37.796875 0 
L 37.796875 17.1875 
L 4.890625 17.1875 
L 4.890625 26.703125 
z
" id="DejaVuSans-52"/>
        <path d="M 4.890625 31.390625 
L 31.203125 31.390625 
L 31.203125 23.390625 
L 4.890625 23.390625 
z
" id="DejaVuSans-45"/>
        <path d="M 12.40625 8.296875 
L 28.515625 8.296875 
L 28.515625 63.921875 
L 10.984375 60.40625 
L 10.984375 69.390625 
L 28.421875 72.90625 
L 38.28125 72.90625 
L 38.28125 8.296875 
L 54.390625 8.296875 
L 54.390625 0 
L 12.40625 0 
z
" id="DejaVuSans-49"/>
        <path d="M 10.984375 1.515625 
L 10.984375 10.5 
Q 14.703125 8.734375 18.5 7.8125 
Q 22.3125 6.890625 25.984375 6.890625 
Q 35.75 6.890625 40.890625 13.453125 
Q 46.046875 20.015625 46.78125 33.40625 
Q 43.953125 29.203125 39.59375 26.953125 
Q 35.25 24.703125 29.984375 24.703125 
Q 19.046875 24.703125 12.671875 31.3125 
Q 6.296875 37.9375 6.296875 49.421875 
Q 6.296875 60.640625 12.9375 67.421875 
Q 19.578125 74.21875 30.609375 74.21875 
Q 43.265625 74.21875 49.921875 64.515625 
Q 56.59375 54.828125 56.59375 36.375 
Q 56.59375 19.140625 48.40625 8.859375 
Q 40.234375 -1.421875 26.421875 -1.421875 
Q 22.703125 -1.421875 18.890625 -0.6875 
Q 15.09375 0.046875 10.984375 1.515625 
z
M 30.609375 32.421875 
Q 37.25 32.421875 41.125 36.953125 
Q 45.015625 41.5 45.015625 49.421875 
Q 45.015625 57.28125 41.125 61.84375 
Q 37.25 66.40625 30.609375 66.40625 
Q 23.96875 66.40625 20.09375 61.84375 
Q 16.21875 57.28125 16.21875 49.421875 
Q 16.21875 41.5 20.09375 36.953125 
Q 23.96875 32.421875 30.609375 32.421875 
z
" id="DejaVuSans-57"/>
       </defs>
       <use xlink:href="#DejaVuSans-50"/>
       <use x="63.623047" xlink:href="#DejaVuSans-48"/>
       <use x="127.246094" xlink:href="#DejaVuSans-50"/>
       <use x="190.869141" xlink:href="#DejaVuSans-52"/>
       <use x="254.492188" xlink:href="#DejaVuSans-45"/>
       <use x="290.576172" xlink:href="#DejaVuSans-49"/>
       <use x="354.199219" xlink:href="#DejaVuSans-48"/>
       <use x="417.822266" xlink:href="#DejaVuSans-45"/>
       <use x="453.90625" xlink:href="#DejaVuSans-50"/>
       <use x="517.529297" xlink:href="#DejaVuSans-57"/>
      </g>
     </g>
    </g>
    <g id="xtick_2">
     <g id="line2d_3">
      <path clip-path="url(#pce4079b02a)" d="M 139.275777 255.638708 
L 139.275777 25.44 
" style="fill:none;stroke:#b0b0b0;stroke-linecap:square;stroke-width:0.8;"/>
     </g>
     <g id="line2d_4">
      <g>
       <use style="stroke:#000000;stroke-width:0.8;" x="139.275777" xlink:href="#md605b25b52" y="255.638708"/>
      </g>
     </g>
     <g id="text_2">
      <!-- 2024-11-01 -->
      <g transform="translate(131.930384 319.848351)rotate(-70)scale(0.1 -0.1)">
       <use xlink:href="#DejaVuSans-50"/>
       <use x="63.623047" xlink:href="#DejaVuSans-48"/>
       <use x="127.246094" xlink:href="#DejaVuSans-50"/>
       <use x="190.869141" xlink:href="#DejaVuSans-52"/>
       <use x="254.492188" xlink:href="#DejaVuSans-45"/>
       <use x="290.576172" xlink:href="#DejaVuSans-49"/>
       <use x="354.199219" xlink:href="#DejaVuSans-49"/>
       <use x="417.822266" xlink:href="#DejaVuSans-45"/>
       <use x="453.90625" xlink:href="#DejaVuSans-48"/>
       <use x="517.529297" xlink:href="#DejaVuSans-49"/>
      </g>
     </g>
    </g>
    <g id="xtick_3">
     <g id="line2d_5">
      <path clip-path="url(#pce4079b02a)" d="M 206.363099 255.638708 
L 206.363099 25.44 
" style="fill:none;stroke:#b0b0b0;stroke-linecap:square;stroke-width:0.8;"/>
     </g>
     <g id="line2d_6">
      <g>
       <use style="stroke:#000000;stroke-width:0.8;" x="206.363099" xlink:href="#md605b25b52" y="255.638708"/>
      </g>
     </g>
     <g id="text_3">
      <!-- 2024-11-05 -->
      <g transform="translate(199.017706 319.848351)rotate(-70)scale(0.1 -0.1)">
       <defs>
        <path d="M 10.796875 72.90625 
L 49.515625 72.90625 
L 49.515625 64.59375 
L 19.828125 64.59375 
L 19.828125 46.734375 
Q 21.96875 47.46875 24.109375 47.828125 
Q 26.265625 48.1875 28.421875 48.1875 
Q 40.625 48.1875 47.75 41.5 
Q 54.890625 34.8125 54.890625 23.390625 
Q 54.890625 11.625 47.5625 5.09375 
Q 40.234375 -1.421875 26.90625 -1.421875 
Q 22.3125 -1.421875 17.546875 -0.640625 
Q 12.796875 0.140625 7.71875 1.703125 
L 7.71875 11.625 
Q 12.109375 9.234375 16.796875 8.0625 
Q 21.484375 6.890625 26.703125 6.890625 
Q 35.15625 6.890625 40.078125 11.328125 
Q 45.015625 15.765625 45.015625 23.390625 
Q 45.015625 31 40.078125 35.4375 
Q 35.15625 39.890625 26.703125 39.890625 
Q 22.75 39.890625 18.8125 39.015625 
Q 14.890625 38.140625 10.796875 36.28125 
z
" id="DejaVuSans-53"/>
       </defs>
       <use xlink:href="#DejaVuSans-50"/>
       <use x="63.623047" xlink:href="#DejaVuSans-48"/>
       <use x="127.246094" xlink:href="#DejaVuSans-50"/>
       <use x="190.869141" xlink:href="#DejaVuSans-52"/>
       <use x="254.492188" xlink:href="#DejaVuSans-45"/>
       <use x="290.576172" xlink:href="#DejaVuSans-49"/>
       <use x="354.199219" xlink:href="#DejaVuSans-49"/>
       <use x="417.822266" xlink:href="#DejaVuSans-45"/>
       <use x="453.90625" xlink:href="#DejaVuSans-48"/>
       <use x="517.529297" xlink:href="#DejaVuSans-53"/>
      </g>
     </g>
    </g>
    <g id="xtick_4">
     <g id="line2d_7">
      <path clip-path="url(#pce4079b02a)" d="M 273.45042 255.638708 
L 273.45042 25.44 
" style="fill:none;stroke:#b0b0b0;stroke-linecap:square;stroke-width:0.8;"/>
     </g>
     <g id="line2d_8">
      <g>
       <use style="stroke:#000000;stroke-width:0.8;" x="273.45042" xlink:href="#md605b25b52" y="255.638708"/>
      </g>
     </g>
     <g id="text_4">
      <!-- 2024-11-09 -->
      <g transform="translate(266.105027 319.848351)rotate(-70)scale(0.1 -0.1)">
       <use xlink:href="#DejaVuSans-50"/>
       <use x="63.623047" xlink:href="#DejaVuSans-48"/>
       <use x="127.246094" xlink:href="#DejaVuSans-50"/>
       <use x="190.869141" xlink:href="#DejaVuSans-52"/>
       <use x="254.492188" xlink:href="#DejaVuSans-45"/>
       <use x="290.576172" xlink:href="#DejaVuSans-49"/>
       <use x="354.199219" xlink:href="#DejaVuSans-49"/>
       <use x="417.822266" xlink:href="#DejaVuSans-45"/>
       <use x="453.90625" xlink:href="#DejaVuSans-48"/>
       <use x="517.529297" xlink:href="#DejaVuSans-57"/>
      </g>
     </g>
    </g>
    <g id="xtick_5">
     <g id="line2d_9">
      <path clip-path="url(#pce4079b02a)" d="M 340.537742 255.638708 
L 340.537742 25.44 
" style="fill:none;stroke:#b0b0b0;stroke-linecap:square;stroke-width:0.8;"/>
     </g>
     <g id="line2d_10">
      <g>
       <use style="stroke:#000000;stroke-width:0.8;" x="340.537742" xlink:href="#md605b25b52" y="255.638708"/>
      </g>
     </g>
     <g id="text_5">
      <!-- 2024-11-13 -->
      <g transform="translate(333.192349 319.848351)rotate(-70)scale(0.1 -0.1)">
       <defs>
        <path d="M 40.578125 39.3125 
Q 47.65625 37.796875 51.625 33 
Q 55.609375 28.21875 55.609375 21.1875 
Q 55.609375 10.40625 48.1875 4.484375 
Q 40.765625 -1.421875 27.09375 -1.421875 
Q 22.515625 -1.421875 17.65625 -0.515625 
Q 12.796875 0.390625 7.625 2.203125 
L 7.625 11.71875 
Q 11.71875 9.328125 16.59375 8.109375 
Q 21.484375 6.890625 26.8125 6.890625 
Q 36.078125 6.890625 40.9375 10.546875 
Q 45.796875 14.203125 45.796875 21.1875 
Q 45.796875 27.640625 41.28125 31.265625 
Q 36.765625 34.90625 28.71875 34.90625 
L 20.21875 34.90625 
L 20.21875 43.015625 
L 29.109375 43.015625 
Q 36.375 43.015625 40.234375 45.921875 
Q 44.09375 48.828125 44.09375 54.296875 
Q 44.09375 59.90625 40.109375 62.90625 
Q 36.140625 65.921875 28.71875 65.921875 
Q 24.65625 65.921875 20.015625 65.03125 
Q 15.375 64.15625 9.8125 62.3125 
L 9.8125 71.09375 
Q 15.4375 72.65625 20.34375 73.4375 
Q 25.25 74.21875 29.59375 74.21875 
Q 40.828125 74.21875 47.359375 69.109375 
Q 53.90625 64.015625 53.90625 55.328125 
Q 53.90625 49.265625 50.4375 45.09375 
Q 46.96875 40.921875 40.578125 39.3125 
z
" id="DejaVuSans-51"/>
       </defs>
       <use xlink:href="#DejaVuSans-50"/>
       <use x="63.623047" xlink:href="#DejaVuSans-48"/>
       <use x="127.246094" xlink:href="#DejaVuSans-50"/>
       <use x="190.869141" xlink:href="#DejaVuSans-52"/>
       <use x="254.492188" xlink:href="#DejaVuSans-45"/>
       <use x="290.576172" xlink:href="#DejaVuSans-49"/>
       <use x="354.199219" xlink:href="#DejaVuSans-49"/>
       <use x="417.822266" xlink:href="#DejaVuSans-45"/>
       <use x="453.90625" xlink:href="#DejaVuSans-49"/>
       <use x="517.529297" xlink:href="#DejaVuSans-51"/>
      </g>
     </g>
    </g>
    <g id="xtick_6">
     <g id="line2d_11">
      <path clip-path="url(#pce4079b02a)" d="M 407.625064 255.638708 
L 407.625064 25.44 
" style="fill:none;stroke:#b0b0b0;stroke-linecap:square;stroke-width:0.8;"/>
     </g>
     <g id="line2d_12">
      <g>
       <use style="stroke:#000000;stroke-width:0.8;" x="407.625064" xlink:href="#md605b25b52" y="255.638708"/>
      </g>
     </g>
     <g id="text_6">
      <!-- 2024-11-17 -->
      <g transform="translate(400.279671 319.848351)rotate(-70)scale(0.1 -0.1)">
       <defs>
        <path d="M 8.203125 72.90625 
L 55.078125 72.90625 
L 55.078125 68.703125 
L 28.609375 0 
L 18.3125 0 
L 43.21875 64.59375 
L 8.203125 64.59375 
z
" id="DejaVuSans-55"/>
       </defs>
       <use xlink:href="#DejaVuSans-50"/>
       <use x="63.623047" xlink:href="#DejaVuSans-48"/>
       <use x="127.246094" xlink:href="#DejaVuSans-50"/>
       <use x="190.869141" xlink:href="#DejaVuSans-52"/>
       <use x="254.492188" xlink:href="#DejaVuSans-45"/>
       <use x="290.576172" xlink:href="#DejaVuSans-49"/>
       <use x="354.199219" xlink:href="#DejaVuSans-49"/>
       <use x="417.822266" xlink:href="#DejaVuSans-45"/>
       <use x="453.90625" xlink:href="#DejaVuSans-49"/>
       <use x="517.529297" xlink:href="#DejaVuSans-55"/>
      </g>
     </g>
    </g>
    <g id="text_7">
     <!-- Date -->
     <g transform="translate(240.149219 332.158083)scale(0.1 -0.1)">
      <defs>
       <path d="M 19.671875 64.796875 
L 19.671875 8.109375 
L 31.59375 8.109375 
Q 46.6875 8.109375 53.6875 14.9375 
Q 60.6875 21.78125 60.6875 36.53125 
Q 60.6875 51.171875 53.6875 57.984375 
Q 46.6875 64.796875 31.59375 64.796875 
z
M 9.8125 72.90625 
L 30.078125 72.90625 
Q 51.265625 72.90625 61.171875 64.09375 
Q 71.09375 55.28125 71.09375 36.53125 
Q 71.09375 17.671875 61.125 8.828125 
Q 51.171875 0 30.078125 0 
L 9.8125 0 
z
" id="DejaVuSans-68"/>
       <path d="M 34.28125 27.484375 
Q 23.390625 27.484375 19.1875 25 
Q 14.984375 22.515625 14.984375 16.5 
Q 14.984375 11.71875 18.140625 8.90625 
Q 21.296875 6.109375 26.703125 6.109375 
Q 34.1875 6.109375 38.703125 11.40625 
Q 43.21875 16.703125 43.21875 25.484375 
L 43.21875 27.484375 
z
M 52.203125 31.203125 
L 52.203125 0 
L 43.21875 0 
L 43.21875 8.296875 
Q 40.140625 3.328125 35.546875 0.953125 
Q 30.953125 -1.421875 24.3125 -1.421875 
Q 15.921875 -1.421875 10.953125 3.296875 
Q 6 8.015625 6 15.921875 
Q 6 25.140625 12.171875 29.828125 
Q 18.359375 34.515625 30.609375 34.515625 
L 43.21875 34.515625 
L 43.21875 35.40625 
Q 43.21875 41.609375 39.140625 45 
Q 35.0625 48.390625 27.6875 48.390625 
Q 23 48.390625 18.546875 47.265625 
Q 14.109375 46.140625 10.015625 43.890625 
L 10.015625 52.203125 
Q 14.9375 54.109375 19.578125 55.046875 
Q 24.21875 56 28.609375 56 
Q 40.484375 56 46.34375 49.84375 
Q 52.203125 43.703125 52.203125 31.203125 
z
" id="DejaVuSans-97"/>
       <path d="M 18.3125 70.21875 
L 18.3125 54.6875 
L 36.8125 54.6875 
L 36.8125 47.703125 
L 18.3125 47.703125 
L 18.3125 18.015625 
Q 18.3125 11.328125 20.140625 9.421875 
Q 21.96875 7.515625 27.59375 7.515625 
L 36.8125 7.515625 
L 36.8125 0 
L 27.59375 0 
Q 17.1875 0 13.234375 3.875 
Q 9.28125 7.765625 9.28125 18.015625 
L 9.28125 47.703125 
L 2.6875 47.703125 
L 2.6875 54.6875 
L 9.28125 54.6875 
L 9.28125 70.21875 
z
" id="DejaVuSans-116"/>
       <path d="M 56.203125 29.59375 
L 56.203125 25.203125 
L 14.890625 25.203125 
Q 15.484375 15.921875 20.484375 11.0625 
Q 25.484375 6.203125 34.421875 6.203125 
Q 39.59375 6.203125 44.453125 7.46875 
Q 49.3125 8.734375 54.109375 11.28125 
L 54.109375 2.78125 
Q 49.265625 0.734375 44.1875 -0.34375 
Q 39.109375 -1.421875 33.890625 -1.421875 
Q 20.796875 -1.421875 13.15625 6.1875 
Q 5.515625 13.8125 5.515625 26.8125 
Q 5.515625 40.234375 12.765625 48.109375 
Q 20.015625 56 32.328125 56 
Q 43.359375 56 49.78125 48.890625 
Q 56.203125 41.796875 56.203125 29.59375 
z
M 47.21875 32.234375 
Q 47.125 39.59375 43.09375 43.984375 
Q 39.0625 48.390625 32.421875 48.390625 
Q 24.90625 48.390625 20.390625 44.140625 
Q 15.875 39.890625 15.1875 32.171875 
z
" id="DejaVuSans-101"/>
      </defs>
      <use xlink:href="#DejaVuSans-68"/>
      <use x="77.001953" xlink:href="#DejaVuSans-97"/>
      <use x="138.28125" xlink:href="#DejaVuSans-116"/>
      <use x="177.490234" xlink:href="#DejaVuSans-101"/>
     </g>
    </g>
   </g>
   <g id="matplotlib.axis_2">
    <g id="ytick_1">
     <g id="line2d_13">
      <path clip-path="url(#pce4079b02a)" d="M 54.2 249.774505 
L 450 249.774505 
" style="fill:none;stroke:#b0b0b0;stroke-linecap:square;stroke-width:0.8;"/>
     </g>
     <g id="line2d_14">
      <defs>
       <path d="M 0 0 
L -3.5 0 
" id="m5fa0690d45" style="stroke:#000000;stroke-width:0.8;"/>
      </defs>
      <g>
       <use style="stroke:#000000;stroke-width:0.8;" x="54.2" xlink:href="#m5fa0690d45" y="249.774505"/>
      </g>
     </g>
     <g id="text_8">
      <!-- 37.5 -->
      <g transform="translate(24.934375 253.573724)scale(0.1 -0.1)">
       <defs>
        <path d="M 10.6875 12.40625 
L 21 12.40625 
L 21 0 
L 10.6875 0 
z
" id="DejaVuSans-46"/>
       </defs>
       <use xlink:href="#DejaVuSans-51"/>
       <use x="63.623047" xlink:href="#DejaVuSans-55"/>
       <use x="127.246094" xlink:href="#DejaVuSans-46"/>
       <use x="159.033203" xlink:href="#DejaVuSans-53"/>
      </g>
     </g>
    </g>
    <g id="ytick_2">
     <g id="line2d_15">
      <path clip-path="url(#pce4079b02a)" d="M 54.2 221.028413 
L 450 221.028413 
" style="fill:none;stroke:#b0b0b0;stroke-linecap:square;stroke-width:0.8;"/>
     </g>
     <g id="line2d_16">
      <g>
       <use style="stroke:#000000;stroke-width:0.8;" x="54.2" xlink:href="#m5fa0690d45" y="221.028413"/>
      </g>
     </g>
     <g id="text_9">
      <!-- 40.0 -->
      <g transform="translate(24.934375 224.827631)scale(0.1 -0.1)">
       <use xlink:href="#DejaVuSans-52"/>
       <use x="63.623047" xlink:href="#DejaVuSans-48"/>
       <use x="127.246094" xlink:href="#DejaVuSans-46"/>
       <use x="159.033203" xlink:href="#DejaVuSans-48"/>
      </g>
     </g>
    </g>
    <g id="ytick_3">
     <g id="line2d_17">
      <path clip-path="url(#pce4079b02a)" d="M 54.2 192.28232 
L 450 192.28232 
" style="fill:none;stroke:#b0b0b0;stroke-linecap:square;stroke-width:0.8;"/>
     </g>
     <g id="line2d_18">
      <g>
       <use style="stroke:#000000;stroke-width:0.8;" x="54.2" xlink:href="#m5fa0690d45" y="192.28232"/>
      </g>
     </g>
     <g id="text_10">
      <!-- 42.5 -->
      <g transform="translate(24.934375 196.081539)scale(0.1 -0.1)">
       <use xlink:href="#DejaVuSans-52"/>
       <use x="63.623047" xlink:href="#DejaVuSans-50"/>
       <use x="127.246094" xlink:href="#DejaVuSans-46"/>
       <use x="159.033203" xlink:href="#DejaVuSans-53"/>
      </g>
     </g>
    </g>
    <g id="ytick_4">
     <g id="line2d_19">
      <path clip-path="url(#pce4079b02a)" d="M 54.2 163.536228 
L 450 163.536228 
" style="fill:none;stroke:#b0b0b0;stroke-linecap:square;stroke-width:0.8;"/>
     </g>
     <g id="line2d_20">
      <g>
       <use style="stroke:#000000;stroke-width:0.8;" x="54.2" xlink:href="#m5fa0690d45" y="163.536228"/>
      </g>
     </g>
     <g id="text_11">
      <!-- 45.0 -->
      <g transform="translate(24.934375 167.335447)scale(0.1 -0.1)">
       <use xlink:href="#DejaVuSans-52"/>
       <use x="63.623047" xlink:href="#DejaVuSans-53"/>
       <use x="127.246094" xlink:href="#DejaVuSans-46"/>
       <use x="159.033203" xlink:href="#DejaVuSans-48"/>
      </g>
     </g>
    </g>
    <g id="ytick_5">
     <g id="line2d_21">
      <path clip-path="url(#pce4079b02a)" d="M 54.2 134.790136 
L 450 134.790136 
" style="fill:none;stroke:#b0b0b0;stroke-linecap:square;stroke-width:0.8;"/>
     </g>
     <g id="line2d_22">
      <g>
       <use style="stroke:#000000;stroke-width:0.8;" x="54.2" xlink:href="#m5fa0690d45" y="134.790136"/>
      </g>
     </g>
     <g id="text_12">
      <!-- 47.5 -->
      <g transform="translate(24.934375 138.589354)scale(0.1 -0.1)">
       <use xlink:href="#DejaVuSans-52"/>
       <use x="63.623047" xlink:href="#DejaVuSans-55"/>
       <use x="127.246094" xlink:href="#DejaVuSans-46"/>
       <use x="159.033203" xlink:href="#DejaVuSans-53"/>
      </g>
     </g>
    </g>
    <g id="ytick_6">
     <g id="line2d_23">
      <path clip-path="url(#pce4079b02a)" d="M 54.2 106.044043 
L 450 106.044043 
" style="fill:none;stroke:#b0b0b0;stroke-linecap:square;stroke-width:0.8;"/>
     </g>
     <g id="line2d_24">
      <g>
       <use style="stroke:#000000;stroke-width:0.8;" x="54.2" xlink:href="#m5fa0690d45" y="106.044043"/>
      </g>
     </g>
     <g id="text_13">
      <!-- 50.0 -->
      <g transform="translate(24.934375 109.843262)scale(0.1 -0.1)">
       <use xlink:href="#DejaVuSans-53"/>
       <use x="63.623047" xlink:href="#DejaVuSans-48"/>
       <use x="127.246094" xlink:href="#DejaVuSans-46"/>
       <use x="159.033203" xlink:href="#DejaVuSans-48"/>
      </g>
     </g>
    </g>
    <g id="ytick_7">
     <g id="line2d_25">
      <path clip-path="url(#pce4079b02a)" d="M 54.2 77.297951 
L 450 77.297951 
" style="fill:none;stroke:#b0b0b0;stroke-linecap:square;stroke-width:0.8;"/>
     </g>
     <g id="line2d_26">
      <g>
       <use style="stroke:#000000;stroke-width:0.8;" x="54.2" xlink:href="#m5fa0690d45" y="77.297951"/>
      </g>
     </g>
     <g id="text_14">
      <!-- 52.5 -->
      <g transform="translate(24.934375 81.097169)scale(0.1 -0.1)">
       <use xlink:href="#DejaVuSans-53"/>
       <use x="63.623047" xlink:href="#DejaVuSans-50"/>
       <use x="127.246094" xlink:href="#DejaVuSans-46"/>
       <use x="159.033203" xlink:href="#DejaVuSans-53"/>
      </g>
     </g>
    </g>
    <g id="ytick_8">
     <g id="line2d_27">
      <path clip-path="url(#pce4079b02a)" d="M 54.2 48.551858 
L 450 48.551858 
" style="fill:none;stroke:#b0b0b0;stroke-linecap:square;stroke-width:0.8;"/>
     </g>
     <g id="line2d_28">
      <g>
       <use style="stroke:#000000;stroke-width:0.8;" x="54.2" xlink:href="#m5fa0690d45" y="48.551858"/>
      </g>
     </g>
     <g id="text_15">
      <!-- 55.0 -->
      <g transform="translate(24.934375 52.351077)scale(0.1 -0.1)">
       <use xlink:href="#DejaVuSans-53"/>
       <use x="63.623047" xlink:href="#DejaVuSans-53"/>
       <use x="127.246094" xlink:href="#DejaVuSans-46"/>
       <use x="159.033203" xlink:href="#DejaVuSans-48"/>
      </g>
     </g>
    </g>
    <g id="text_16">
     <!-- Temperature [F] -->
     <g transform="translate(18.854688 180.575291)rotate(-90)scale(0.1 -0.1)">
      <defs>
       <path d="M -0.296875 72.90625 
L 61.375 72.90625 
L 61.375 64.59375 
L 35.5 64.59375 
L 35.5 0 
L 25.59375 0 
L 25.59375 64.59375 
L -0.296875 64.59375 
z
" id="DejaVuSans-84"/>
       <path d="M 52 44.1875 
Q 55.375 50.25 60.0625 53.125 
Q 64.75 56 71.09375 56 
Q 79.640625 56 84.28125 50.015625 
Q 88.921875 44.046875 88.921875 33.015625 
L 88.921875 0 
L 79.890625 0 
L 79.890625 32.71875 
Q 79.890625 40.578125 77.09375 44.375 
Q 74.3125 48.1875 68.609375 48.1875 
Q 61.625 48.1875 57.5625 43.546875 
Q 53.515625 38.921875 53.515625 30.90625 
L 53.515625 0 
L 44.484375 0 
L 44.484375 32.71875 
Q 44.484375 40.625 41.703125 44.40625 
Q 38.921875 48.1875 33.109375 48.1875 
Q 26.21875 48.1875 22.15625 43.53125 
Q 18.109375 38.875 18.109375 30.90625 
L 18.109375 0 
L 9.078125 0 
L 9.078125 54.6875 
L 18.109375 54.6875 
L 18.109375 46.1875 
Q 21.1875 51.21875 25.484375 53.609375 
Q 29.78125 56 35.6875 56 
Q 41.65625 56 45.828125 52.96875 
Q 50 49.953125 52 44.1875 
z
" id="DejaVuSans-109"/>
       <path d="M 18.109375 8.203125 
L 18.109375 -20.796875 
L 9.078125 -20.796875 
L 9.078125 54.6875 
L 18.109375 54.6875 
L 18.109375 46.390625 
Q 20.953125 51.265625 25.265625 53.625 
Q 29.59375 56 35.59375 56 
Q 45.5625 56 51.78125 48.09375 
Q 58.015625 40.1875 58.015625 27.296875 
Q 58.015625 14.40625 51.78125 6.484375 
Q 45.5625 -1.421875 35.59375 -1.421875 
Q 29.59375 -1.421875 25.265625 0.953125 
Q 20.953125 3.328125 18.109375 8.203125 
z
M 48.6875 27.296875 
Q 48.6875 37.203125 44.609375 42.84375 
Q 40.53125 48.484375 33.40625 48.484375 
Q 26.265625 48.484375 22.1875 42.84375 
Q 18.109375 37.203125 18.109375 27.296875 
Q 18.109375 17.390625 22.1875 11.75 
Q 26.265625 6.109375 33.40625 6.109375 
Q 40.53125 6.109375 44.609375 11.75 
Q 48.6875 17.390625 48.6875 27.296875 
z
" id="DejaVuSans-112"/>
       <path d="M 41.109375 46.296875 
Q 39.59375 47.171875 37.8125 47.578125 
Q 36.03125 48 33.890625 48 
Q 26.265625 48 22.1875 43.046875 
Q 18.109375 38.09375 18.109375 28.8125 
L 18.109375 0 
L 9.078125 0 
L 9.078125 54.6875 
L 18.109375 54.6875 
L 18.109375 46.1875 
Q 20.953125 51.171875 25.484375 53.578125 
Q 30.03125 56 36.53125 56 
Q 37.453125 56 38.578125 55.875 
Q 39.703125 55.765625 41.0625 55.515625 
z
" id="DejaVuSans-114"/>
       <path d="M 8.5 21.578125 
L 8.5 54.6875 
L 17.484375 54.6875 
L 17.484375 21.921875 
Q 17.484375 14.15625 20.5 10.265625 
Q 23.53125 6.390625 29.59375 6.390625 
Q 36.859375 6.390625 41.078125 11.03125 
Q 45.3125 15.671875 45.3125 23.6875 
L 45.3125 54.6875 
L 54.296875 54.6875 
L 54.296875 0 
L 45.3125 0 
L 45.3125 8.40625 
Q 42.046875 3.421875 37.71875 1 
Q 33.40625 -1.421875 27.6875 -1.421875 
Q 18.265625 -1.421875 13.375 4.4375 
Q 8.5 10.296875 8.5 21.578125 
z
M 31.109375 56 
z
" id="DejaVuSans-117"/>
       <path id="DejaVuSans-32"/>
       <path d="M 8.59375 75.984375 
L 29.296875 75.984375 
L 29.296875 69 
L 17.578125 69 
L 17.578125 -6.203125 
L 29.296875 -6.203125 
L 29.296875 -13.1875 
L 8.59375 -13.1875 
z
" id="DejaVuSans-91"/>
       <path d="M 9.8125 72.90625 
L 51.703125 72.90625 
L 51.703125 64.59375 
L 19.671875 64.59375 
L 19.671875 43.109375 
L 48.578125 43.109375 
L 48.578125 34.8125 
L 19.671875 34.8125 
L 19.671875 0 
L 9.8125 0 
z
" id="DejaVuSans-70"/>
       <path d="M 30.421875 75.984375 
L 30.421875 -13.1875 
L 9.71875 -13.1875 
L 9.71875 -6.203125 
L 21.390625 -6.203125 
L 21.390625 69 
L 9.71875 69 
L 9.71875 75.984375 
z
" id="DejaVuSans-93"/>
      </defs>
      <use xlink:href="#DejaVuSans-84"/>
      <use x="44.083984" xlink:href="#DejaVuSans-101"/>
      <use x="105.607422" xlink:href="#DejaVuSans-109"/>
      <use x="203.019531" xlink:href="#DejaVuSans-112"/>
      <use x="266.496094" xlink:href="#DejaVuSans-101"/>
      <use x="328.019531" xlink:href="#DejaVuSans-114"/>
      <use x="369.132812" xlink:href="#DejaVuSans-97"/>
      <use x="430.412109" xlink:href="#DejaVuSans-116"/>
      <use x="469.621094" xlink:href="#DejaVuSans-117"/>
      <use x="533" xlink:href="#DejaVuSans-114"/>
      <use x="571.863281" xlink:href="#DejaVuSans-101"/>
      <use x="633.386719" xlink:href="#DejaVuSans-32"/>
      <use x="665.173828" xlink:href="#DejaVuSans-91"/>
      <use x="704.1875" xlink:href="#DejaVuSans-70"/>
      <use x="761.707031" xlink:href="#DejaVuSans-93"/>
     </g>
    </g>
   </g>
   <g id="line2d_29">
    <path clip-path="url(#pce4079b02a)" d="M 72.190909 50.851546 
L 72.202941 50.851546 
L 72.325124 48.551858 
L 72.349213 48.551858 
L 72.470632 50.851546 
L 72.495242 50.851546 
L 72.616464 48.551858 
L 72.665121 48.551858 
L 72.774883 50.851546 
L 72.885042 48.551858 
L 73.007737 50.851546 
L 73.250956 50.851546 
L 73.263203 48.551858 
L 73.361089 50.851546 
L 73.458005 50.851546 
L 73.580169 48.551858 
L 73.619913 50.851546 
L 73.68063 48.551858 
L 73.692712 48.551858 
L 73.741625 50.851546 
L 73.794939 48.551858 
L 73.970844 48.551858 
L 74.08171 50.851546 
L 74.204666 48.551858 
L 74.216713 48.551858 
L 74.339694 50.851546 
L 74.400863 48.551858 
L 74.449486 50.851546 
L 74.510748 50.851546 
L 74.534838 48.551858 
L 74.571492 52.001389 
L 74.620667 50.851546 
L 74.670188 50.851546 
L 74.682249 52.001389 
L 74.719025 48.551858 
L 74.780167 50.851546 
L 74.804669 50.851546 
L 74.916167 48.551858 
L 75.026395 48.551858 
L 75.038869 50.851546 
L 75.125373 48.551858 
L 75.173758 48.551858 
L 75.210006 47.402015 
L 75.283839 48.551858 
L 75.430931 48.551858 
L 75.442952 50.851546 
L 75.541692 48.551858 
L 75.824236 48.551858 
L 75.898816 50.851546 
L 75.935149 48.551858 
L 76.144406 48.551858 
L 76.267437 50.851546 
L 76.513918 50.851546 
L 76.525984 48.551858 
L 76.623538 50.851546 
L 77.426476 50.851546 
L 77.489007 52.001389 
L 77.537588 50.851546 
L 77.574447 50.851546 
L 77.695974 52.001389 
L 77.80662 50.851546 
L 77.929741 52.001389 
L 77.953953 52.001389 
L 78.076661 50.851546 
L 78.116082 50.851546 
L 78.238854 52.001389 
L 78.263933 50.851546 
L 78.338371 52.001389 
L 78.387889 52.001389 
L 78.399935 50.851546 
L 78.487634 52.001389 
L 78.645535 52.001389 
L 78.757312 53.151233 
L 78.83443 53.151233 
L 78.935112 52.001389 
L 78.959597 53.151233 
L 79.033715 52.001389 
L 79.082498 50.851546 
L 79.143059 52.001389 
L 79.290408 52.001389 
L 79.388165 50.851546 
L 79.400568 52.001389 
L 79.498786 52.001389 
L 79.510811 50.851546 
L 79.608413 52.001389 
L 79.645511 52.001389 
L 79.657548 50.851546 
L 79.754634 52.001389 
L 79.803746 52.001389 
L 79.926941 50.851546 
L 80.036268 50.851546 
L 80.048306 52.001389 
L 80.145482 50.851546 
L 80.327728 50.851546 
L 80.449285 48.551858 
L 80.72217 48.551858 
L 80.734269 50.851546 
L 80.831537 48.551858 
L 80.989961 48.551858 
L 81.102253 47.402015 
L 81.114699 47.402015 
L 81.163991 48.551858 
L 81.224739 47.402015 
L 81.261159 47.402015 
L 81.370827 46.252171 
L 81.419823 47.402015 
L 81.481831 46.252171 
L 81.542235 46.252171 
L 81.65387 45.102327 
L 81.751742 45.102327 
L 81.874113 43.952484 
L 81.898365 43.952484 
L 82.012786 41.652796 
L 82.111413 42.80264 
L 82.200231 40.502952 
L 82.225074 41.652796 
L 82.249574 41.652796 
L 82.289481 39.353109 
L 82.364307 40.502952 
L 82.525735 40.502952 
L 82.63945 39.353109 
L 82.702165 40.502952 
L 82.677716 37.053421 
L 82.71455 39.353109 
L 82.726598 37.053421 
L 82.812752 41.652796 
L 82.837385 41.652796 
L 82.887056 42.80264 
L 82.86193 39.353109 
L 82.935202 40.502952 
L 82.947486 37.053421 
L 82.959564 42.80264 
L 83.033938 42.80264 
L 83.057987 42.80264 
L 83.070681 43.952484 
L 83.119122 41.652796 
L 83.156256 41.652796 
L 83.293418 35.903578 
L 83.317693 35.903578 
L 83.438632 37.053421 
L 83.499723 37.053421 
L 83.610328 39.353109 
L 83.723832 37.053421 
L 83.846883 39.353109 
L 83.858913 39.353109 
L 83.981253 40.502952 
L 84.095154 40.502952 
L 84.217438 41.652796 
L 84.415743 41.652796 
L 84.502769 42.80264 
L 84.515012 41.652796 
L 84.527043 41.652796 
L 84.648831 42.80264 
L 84.722256 42.80264 
L 84.844908 43.952484 
L 85.560799 43.952484 
L 85.573034 45.102327 
L 85.671509 43.952484 
L 85.683556 43.952484 
L 85.72061 45.102327 
L 85.783366 43.952484 
L 85.83294 43.952484 
L 85.95649 45.102327 
L 86.437371 45.102327 
L 86.5593 46.252171 
L 86.57166 46.252171 
L 86.658163 45.102327 
L 86.682317 46.252171 
L 86.843064 46.252171 
L 86.855803 47.402015 
L 86.944015 46.252171 
L 87.262825 46.252171 
L 87.361054 47.402015 
L 87.373222 46.252171 
L 87.410068 46.252171 
L 87.520474 47.402015 
L 87.631041 46.252171 
L 87.729507 47.402015 
L 87.742031 46.252171 
L 87.864597 47.402015 
L 88.037562 47.402015 
L 88.086096 46.252171 
L 88.147576 47.402015 
L 88.198269 47.402015 
L 88.321088 46.252171 
L 88.44337 47.402015 
L 89.091184 47.402015 
L 89.103232 46.252171 
L 89.20027 47.402015 
L 89.285276 47.402015 
L 89.297915 48.551858 
L 89.394836 47.402015 
L 89.687898 47.402015 
L 89.808495 48.551858 
L 89.893535 48.551858 
L 89.989916 47.402015 
L 90.002223 48.551858 
L 90.026316 48.551858 
L 90.111911 47.402015 
L 90.136044 48.551858 
L 90.319241 48.551858 
L 90.43278 50.851546 
L 90.481049 48.551858 
L 90.529501 50.851546 
L 90.634106 50.851546 
L 90.658693 48.551858 
L 90.744269 50.851546 
L 90.780823 50.851546 
L 90.878318 48.551858 
L 90.890603 50.851546 
L 90.903008 50.851546 
L 91.000546 48.551858 
L 91.012612 50.851546 
L 91.024976 50.851546 
L 91.148211 48.551858 
L 91.257944 48.551858 
L 91.2701 50.851546 
L 91.367364 48.551858 
L 91.600721 48.551858 
L 91.649383 50.851546 
L 91.710964 48.551858 
L 91.747576 48.551858 
L 91.833373 50.851546 
L 91.8579 48.551858 
L 92.054931 48.551858 
L 92.177101 50.851546 
L 92.201391 50.851546 
L 92.324042 48.551858 
L 92.336483 48.551858 
L 92.459446 50.851546 
L 92.53372 50.851546 
L 92.595889 48.551858 
L 92.632807 50.851546 
L 92.695361 50.851546 
L 92.708278 48.551858 
L 92.797411 50.851546 
L 92.810534 50.851546 
L 92.886112 48.551858 
L 92.910598 50.851546 
L 92.960726 50.851546 
L 92.972774 48.551858 
L 92.997454 50.851546 
L 93.096205 50.851546 
L 93.132635 48.551858 
L 93.196278 50.851546 
L 93.25786 50.851546 
L 93.331385 48.551858 
L 93.368064 50.851546 
L 93.441657 50.851546 
L 93.50296 48.551858 
L 93.552178 50.851546 
L 93.89992 50.851546 
L 94.01831 52.001389 
L 94.05459 50.851546 
L 94.127122 52.001389 
L 94.540536 52.001389 
L 94.614284 53.151233 
L 94.639813 52.001389 
L 95.091001 52.001389 
L 95.127158 50.851546 
L 95.200156 52.001389 
L 95.547436 52.001389 
L 95.559729 50.851546 
L 95.646509 52.001389 
L 95.658781 52.001389 
L 95.781465 50.851546 
L 95.903434 52.001389 
L 96.02544 50.851546 
L 96.062435 50.851546 
L 96.184171 48.551858 
L 96.30665 48.551858 
L 96.318739 47.402015 
L 96.416558 48.551858 
L 96.456066 48.551858 
L 96.555011 47.402015 
L 96.677869 48.551858 
L 96.726363 48.551858 
L 96.738524 47.402015 
L 96.835564 48.551858 
L 97.06973 48.551858 
L 97.118202 47.402015 
L 97.179535 48.551858 
L 97.216024 48.551858 
L 97.325619 47.402015 
L 97.696156 47.402015 
L 98.242843 46.252171 
L 98.486647 46.252171 
L 98.59732 45.102327 
L 99.005003 45.102327 
L 99.116989 43.952484 
L 99.214344 43.952484 
L 99.348815 41.652796 
L 99.470463 42.80264 
L 99.790105 42.80264 
L 99.802188 41.652796 
L 99.89951 42.80264 
L 99.923721 42.80264 
L 100.045529 41.652796 
L 100.081681 41.652796 
L 100.205231 43.952484 
L 100.229402 43.952484 
L 100.24169 42.80264 
L 100.340167 43.952484 
L 100.515666 43.952484 
L 100.612607 45.102327 
L 100.625108 43.952484 
L 100.661825 43.952484 
L 100.775967 45.102327 
L 101.0467 45.102327 
L 101.146175 46.252171 
L 101.207194 45.102327 
L 101.256106 46.252171 
L 101.452351 46.252171 
L 101.464399 45.102327 
L 101.552314 46.252171 
L 101.873781 46.252171 
L 101.986686 47.402015 
L 102.0396 47.402015 
L 102.088475 46.252171 
L 102.13871 47.402015 
L 102.351092 47.402015 
L 102.461331 48.551858 
L 102.535398 47.402015 
L 102.560704 48.551858 
L 102.585928 48.551858 
L 102.599048 47.402015 
L 102.69681 48.551858 
L 102.796049 48.551858 
L 102.808199 50.851546 
L 102.87205 48.551858 
L 102.996809 48.551858 
L 103.108881 50.851546 
L 103.145169 50.851546 
L 103.268213 48.551858 
L 103.390252 50.851546 
L 103.610277 50.851546 
L 103.622351 52.001389 
L 103.719679 50.851546 
L 104.455836 50.851546 
L 104.566237 52.001389 
L 104.676399 50.851546 
L 104.752612 52.001389 
L 104.777084 50.851546 
L 104.83841 50.851546 
L 104.961494 52.001389 
L 104.998345 52.001389 
L 105.010351 50.851546 
L 105.108679 52.001389 
L 105.133991 52.001389 
L 105.248685 50.851546 
L 105.287627 50.851546 
L 105.402067 52.001389 
L 105.587048 52.001389 
L 105.660392 50.851546 
L 105.69666 52.001389 
L 105.965798 52.001389 
L 105.978404 53.151233 
L 106.076717 52.001389 
L 106.200168 52.001389 
L 106.212424 53.151233 
L 106.31001 52.001389 
L 106.492631 52.001389 
L 106.517337 53.151233 
L 106.603326 52.001389 
L 106.627416 52.001389 
L 106.75046 53.151233 
L 106.775034 53.151233 
L 106.896875 52.001389 
L 107.018616 53.151233 
L 107.030661 53.151233 
L 107.055398 52.001389 
L 107.128021 53.151233 
L 107.167544 53.151233 
L 107.289709 52.001389 
L 107.40563 53.151233 
L 107.540641 53.151233 
L 107.650081 54.301077 
L 107.770882 53.151233 
L 107.783132 53.151233 
L 107.895878 54.301077 
L 107.944739 54.301077 
L 107.982544 53.151233 
L 108.05562 54.301077 
L 108.534836 54.301077 
L 108.583538 55.45092 
L 108.64476 54.301077 
L 108.656806 54.301077 
L 108.76712 55.45092 
L 108.890052 54.301077 
L 108.914185 54.301077 
L 109.037067 55.45092 
L 109.26453 55.45092 
L 109.391044 54.301077 
L 109.462177 55.45092 
L 109.490324 54.301077 
L 109.56761 54.301077 
L 109.683654 55.45092 
L 109.743334 55.45092 
L 109.843136 54.301077 
L 109.93051 55.45092 
L 110.456216 55.45092 
L 110.571051 56.600764 
L 110.752509 56.600764 
L 110.777019 57.750608 
L 110.85569 56.600764 
L 110.923779 56.600764 
L 110.974846 57.750608 
L 111.023346 56.600764 
L 111.035366 56.600764 
L 111.157445 57.750608 
L 111.329009 57.750608 
L 111.42619 56.600764 
L 111.438277 57.750608 
L 111.707064 57.750608 
L 111.828804 56.600764 
L 111.840836 56.600764 
L 111.964251 57.750608 
L 112.062485 57.750608 
L 112.17563 56.600764 
L 112.316782 56.600764 
L 112.416511 57.750608 
L 112.537208 56.600764 
L 113.206094 56.600764 
L 113.218269 57.750608 
L 113.305555 56.600764 
L 113.480175 56.600764 
L 113.492687 57.750608 
L 113.582249 56.600764 
L 113.744748 56.600764 
L 113.756999 57.750608 
L 113.846731 56.600764 
L 113.907838 56.600764 
L 113.920603 55.45092 
L 114.017594 56.600764 
L 114.175781 56.600764 
L 114.187842 57.750608 
L 114.285114 56.600764 
L 114.588664 56.600764 
L 114.617783 57.750608 
L 114.694406 56.600764 
L 115.459795 57.750608 
L 116.26861 57.750608 
L 116.280865 56.600764 
L 116.367926 57.750608 
L 117.191021 57.750608 
L 117.251766 60.050295 
L 117.300171 57.750608 
L 117.324219 57.750608 
L 117.336408 60.050295 
L 117.434443 57.750608 
L 117.556373 57.750608 
L 117.653583 60.050295 
L 117.665628 57.750608 
L 117.702065 57.750608 
L 117.824849 60.050295 
L 117.93601 57.750608 
L 118.05877 60.050295 
L 118.172053 57.750608 
L 118.307452 57.750608 
L 118.403975 60.050295 
L 118.417648 57.750608 
L 118.537631 60.050295 
L 119.380666 61.200139 
L 119.494159 61.200139 
L 119.543053 62.349983 
L 119.947294 61.200139 
L 120.062067 62.349983 
L 120.18702 61.200139 
L 120.238591 62.349983 
L 120.288835 61.200139 
L 120.363846 61.200139 
L 120.402029 62.349983 
L 120.463759 61.200139 
L 120.540886 61.200139 
L 120.662591 62.349983 
L 120.675297 62.349983 
L 120.727324 61.200139 
L 120.776304 62.349983 
L 121.188626 62.349983 
L 121.28897 63.499826 
L 121.39969 62.349983 
L 121.425277 62.349983 
L 121.535575 63.499826 
L 121.656711 62.349983 
L 121.693614 63.499826 
L 121.766796 62.349983 
L 121.778849 62.349983 
L 121.827152 63.499826 
L 121.887926 62.349983 
L 121.912021 62.349983 
L 122.033245 63.499826 
L 122.045604 63.499826 
L 122.154174 62.349983 
L 122.267563 63.499826 
L 122.29551 63.499826 
L 122.418351 64.64967 
L 122.455127 64.64967 
L 122.504695 63.499826 
L 122.565776 64.64967 
L 122.614983 64.64967 
L 122.639514 65.799514 
L 122.65153 63.499826 
L 122.713268 63.499826 
L 122.797987 63.499826 
L 122.810032 64.64967 
L 122.90676 63.499826 
L 123.172834 63.499826 
L 123.233587 65.799514 
L 123.288248 64.64967 
L 123.409484 63.499826 
L 123.542604 63.499826 
L 123.663135 64.64967 
L 123.772276 63.499826 
L 123.784315 64.64967 
L 123.880829 63.499826 
L 123.892856 63.499826 
L 124.043848 64.64967 
L 124.056291 64.64967 
L 124.068494 63.499826 
L 124.161847 64.64967 
L 124.201249 64.64967 
L 124.226253 65.799514 
L 124.250471 63.499826 
L 124.311289 64.64967 
L 124.335898 63.499826 
L 124.421791 64.64967 
L 124.958632 64.64967 
L 124.982899 65.799514 
L 125.069072 64.64967 
L 125.191646 64.64967 
L 125.315629 66.949357 
L 125.427992 65.799514 
L 125.440214 66.949357 
L 125.538626 65.799514 
L 125.860142 65.799514 
L 125.972164 66.949357 
L 126.000519 66.949357 
L 126.121873 68.099201 
L 126.239686 65.799514 
L 126.335883 65.799514 
L 126.449238 66.949357 
L 126.757863 66.949357 
L 126.771773 65.799514 
L 126.863361 66.949357 
L 126.954575 66.949357 
L 127.09453 65.799514 
L 127.419865 65.799514 
L 127.459389 64.64967 
L 127.520882 65.799514 
L 127.790116 65.799514 
L 127.802725 66.949357 
L 127.898538 65.799514 
L 128.203366 65.799514 
L 128.216584 66.949357 
L 128.300669 65.799514 
L 128.428365 65.799514 
L 128.55359 66.949357 
L 128.610131 66.949357 
L 128.680414 65.799514 
L 128.693771 66.949357 
L 128.815992 65.799514 
L 128.938585 66.949357 
L 129.054308 65.799514 
L 129.092876 65.799514 
L 129.192943 66.949357 
L 129.30426 65.799514 
L 129.330023 65.799514 
L 129.435415 66.949357 
L 129.52468 65.799514 
L 129.536686 66.949357 
L 129.615626 66.949357 
L 129.72638 65.799514 
L 130.105461 65.799514 
L 130.219357 64.64967 
L 130.662198 64.64967 
L 130.783935 63.499826 
L 130.795954 63.499826 
L 130.80802 64.64967 
L 130.902982 63.499826 
L 130.915971 63.499826 
L 130.928204 64.64967 
L 131.024898 63.499826 
L 131.286357 63.499826 
L 131.40101 62.349983 
L 131.413294 62.349983 
L 131.522466 63.499826 
L 131.645151 62.349983 
L 131.719098 62.349983 
L 131.841711 61.200139 
L 131.853763 61.200139 
L 131.975535 62.349983 
L 132.036236 62.349983 
L 132.159441 61.200139 
L 132.309568 61.200139 
L 132.42068 60.050295 
L 132.481743 60.050295 
L 132.592689 57.750608 
L 132.605421 57.750608 
L 132.63007 60.050295 
L 132.716096 57.750608 
L 132.777661 57.750608 
L 132.802575 60.050295 
L 133.125383 60.050295 
L 133.180629 57.750608 
L 133.19448 60.050295 
L 133.241699 60.050295 
L 133.357504 57.750608 
L 133.384956 57.750608 
L 133.481273 60.050295 
L 133.493364 57.750608 
L 133.56573 57.750608 
L 133.677401 61.200139 
L 133.793126 60.050295 
L 133.893442 61.200139 
L 133.944658 61.200139 
L 134.037751 60.050295 
L 134.052946 61.200139 
L 134.065014 61.200139 
L 134.119691 60.050295 
L 134.159073 61.200139 
L 134.23937 61.200139 
L 134.251416 60.050295 
L 134.349964 61.200139 
L 134.609251 61.200139 
L 134.72069 62.349983 
L 134.806046 61.200139 
L 134.830338 62.349983 
L 135.14785 62.349983 
L 135.16025 63.499826 
L 135.25684 62.349983 
L 135.269659 62.349983 
L 135.294023 63.499826 
L 135.368337 62.349983 
L 135.542454 62.349983 
L 135.620614 63.499826 
L 135.646996 62.349983 
L 135.757047 62.349983 
L 135.879457 63.499826 
L 135.891542 62.349983 
L 135.989153 63.499826 
L 136.395009 63.499826 
L 136.407488 64.64967 
L 136.506046 63.499826 
L 136.580104 63.499826 
L 136.694328 64.64967 
L 137.011456 64.64967 
L 137.023913 63.499826 
L 137.1211 64.64967 
L 137.312577 64.64967 
L 137.375386 65.799514 
L 137.412293 64.64967 
L 137.449847 64.64967 
L 137.56347 65.799514 
L 137.676575 64.64967 
L 137.689138 64.64967 
L 137.804628 65.799514 
L 137.8296 65.799514 
L 137.932041 64.64967 
L 137.94445 65.799514 
L 138.031906 64.64967 
L 138.092901 64.64967 
L 138.206535 65.799514 
L 138.230695 65.799514 
L 138.353181 64.64967 
L 138.365297 64.64967 
L 138.488817 65.799514 
L 138.500962 64.64967 
L 138.599083 65.799514 
L 138.7008 65.799514 
L 138.825587 66.949357 
L 139.163762 66.949357 
L 139.276031 65.799514 
L 139.350413 65.799514 
L 139.362757 66.949357 
L 139.460488 65.799514 
L 139.509474 65.799514 
L 139.59495 66.949357 
L 139.618965 65.799514 
L 139.715771 65.799514 
L 139.838099 66.949357 
L 139.961219 66.949357 
L 140.07047 68.099201 
L 140.192975 66.949357 
L 140.796209 66.949357 
L 140.808333 65.799514 
L 140.899321 66.949357 
L 141.030206 66.949357 
L 141.129425 68.099201 
L 141.239845 66.949357 
L 141.352932 68.099201 
L 141.475479 66.949357 
L 141.488115 66.949357 
L 141.610661 68.099201 
L 141.683998 68.099201 
L 141.807357 69.249045 
L 141.930082 68.099201 
L 142.077002 68.099201 
L 142.089051 69.249045 
L 142.186673 68.099201 
L 142.260016 68.099201 
L 142.284134 69.249045 
L 142.370377 68.099201 
L 142.430767 68.099201 
L 142.515768 69.249045 
L 142.540435 68.099201 
L 142.638215 68.099201 
L 142.760341 69.249045 
L 143.092168 69.249045 
L 143.214951 68.099201 
L 143.251842 68.099201 
L 143.361155 69.249045 
L 143.471335 68.099201 
L 143.58204 69.249045 
L 143.826555 69.249045 
L 143.838749 71.548732 
L 143.91696 69.249045 
L 144.310325 69.249045 
L 144.323288 71.548732 
L 144.413665 69.249045 
L 144.451475 69.249045 
L 144.560168 71.548732 
L 144.68162 69.249045 
L 144.913198 69.249045 
L 145.035132 71.548732 
L 145.16863 71.548732 
L 145.290806 72.698576 
L 145.302844 72.698576 
L 145.41194 71.548732 
L 145.463641 71.548732 
L 145.475828 72.698576 
L 145.564759 71.548732 
L 145.640711 69.249045 
L 145.653213 71.548732 
L 146.087865 71.548732 
L 146.189298 69.249045 
L 146.304798 71.548732 
L 146.417001 69.249045 
L 146.532768 71.548732 
L 146.650576 69.249045 
L 146.66443 69.249045 
L 146.754905 71.548732 
L 146.769195 69.249045 
L 146.783191 69.249045 
L 146.812018 71.548732 
L 146.877378 69.249045 
L 146.912795 69.249045 
L 147.033588 71.548732 
L 147.154352 69.249045 
L 147.167489 71.548732 
L 147.263992 69.249045 
L 147.417842 69.249045 
L 147.532022 68.099201 
L 147.643762 69.249045 
L 147.759954 68.099201 
L 147.825239 68.099201 
L 147.940933 69.249045 
L 148.062178 68.099201 
L 148.14884 69.249045 
L 148.161781 68.099201 
L 148.261434 69.249045 
L 148.373068 68.099201 
L 148.484279 69.249045 
L 148.532688 69.249045 
L 148.606711 68.099201 
L 148.631759 69.249045 
L 149.554926 69.249045 
L 149.592019 68.099201 
L 149.65773 69.249045 
L 149.958908 69.249045 
L 149.971345 71.548732 
L 150.069922 69.249045 
L 150.400415 69.249045 
L 150.448886 71.548732 
L 150.486053 69.249045 
L 150.963283 69.249045 
L 150.975767 68.099201 
L 151.073926 69.249045 
L 151.43071 69.249045 
L 151.518903 71.548732 
L 151.530945 69.249045 
L 151.658162 69.249045 
L 151.706549 71.548732 
L 151.744635 69.249045 
L 151.772459 69.249045 
L 151.896223 71.548732 
L 151.982038 71.548732 
L 151.994455 69.249045 
L 152.081721 71.548732 
L 152.411062 71.548732 
L 152.423307 69.249045 
L 152.510018 71.548732 
L 152.571836 71.548732 
L 152.5843 69.249045 
L 152.673619 71.548732 
L 153.597176 71.548732 
L 153.62132 72.698576 
L 153.707193 71.548732 
L 153.88652 71.548732 
L 154.030002 72.698576 
L 154.052287 71.548732 
L 154.119397 72.698576 
L 154.506745 72.698576 
L 154.584295 71.548732 
L 154.720226 72.698576 
L 154.732626 71.548732 
L 154.829708 72.698576 
L 154.963048 72.698576 
L 154.975175 73.84842 
L 155.073413 72.698576 
L 155.097662 72.698576 
L 155.182338 71.548732 
L 155.206533 72.698576 
L 155.440517 72.698576 
L 155.562006 73.84842 
L 155.673844 72.698576 
L 155.820902 72.698576 
L 155.929783 73.84842 
L 156.003814 72.698576 
L 156.040801 73.84842 
L 156.101207 73.84842 
L 156.223704 72.698576 
L 156.345273 73.84842 
L 156.442679 72.698576 
L 156.454722 73.84842 
L 156.977496 73.84842 
L 157.074394 74.998263 
L 157.086414 73.84842 
L 157.36616 73.84842 
L 157.378407 74.998263 
L 157.439004 73.84842 
L 157.47861 73.84842 
L 157.490985 74.998263 
L 157.588403 73.84842 
L 157.653745 73.84842 
L 157.765351 74.998263 
L 157.838464 74.998263 
L 157.960227 73.84842 
L 158.021299 74.998263 
L 158.069578 73.84842 
L 158.324861 73.84842 
L 158.36153 74.998263 
L 158.4344 73.84842 
L 158.580823 73.84842 
L 158.679775 74.998263 
L 158.691814 73.84842 
L 158.728549 73.84842 
L 158.789472 74.998263 
L 158.838424 73.84842 
L 158.850471 73.84842 
L 158.972895 74.998263 
L 159.009153 74.998263 
L 159.131241 73.84842 
L 159.143327 73.84842 
L 159.265975 74.998263 
L 159.36271 73.84842 
L 159.37528 74.998263 
L 159.412031 74.998263 
L 159.510153 73.84842 
L 159.522201 74.998263 
L 160.056281 74.998263 
L 160.068945 73.84842 
L 160.155314 74.998263 
L 160.36435 74.998263 
L 160.475373 76.148107 
L 160.550915 74.998263 
L 160.576595 76.148107 
L 160.601373 76.148107 
L 160.613735 74.998263 
L 160.701204 76.148107 
L 161.326558 76.148107 
L 161.435245 74.998263 
L 161.556664 76.148107 
L 161.569105 76.148107 
L 161.691865 74.998263 
L 161.740216 74.998263 
L 161.77703 76.148107 
L 161.849442 74.998263 
L 162.21808 74.998263 
L 162.230129 76.148107 
L 162.328855 74.998263 
L 163.172835 74.998263 
L 163.237783 73.84842 
L 163.274036 74.998263 
L 163.286257 74.998263 
L 163.396038 73.84842 
L 163.445698 74.998263 
L 163.50689 73.84842 
L 164.021922 73.84842 
L 164.05911 72.698576 
L 164.121074 73.84842 
L 164.145167 73.84842 
L 164.267615 72.698576 
L 164.279703 72.698576 
L 164.391731 73.84842 
L 164.403939 73.84842 
L 164.526507 72.698576 
L 164.538745 72.698576 
L 164.57528 73.84842 
L 164.649265 72.698576 
L 164.674338 72.698576 
L 164.795373 71.548732 
L 164.881682 72.698576 
L 164.906266 71.548732 
L 164.991929 71.548732 
L 165.004208 72.698576 
L 165.101845 71.548732 
L 165.273234 71.548732 
L 165.384708 69.249045 
L 165.644437 69.249045 
L 165.76704 68.099201 
L 165.840629 68.099201 
L 165.952441 66.949357 
L 166.074591 68.099201 
L 166.196363 66.949357 
L 166.35425 66.949357 
L 166.367397 68.099201 
L 166.46531 66.949357 
L 166.526462 66.949357 
L 166.648498 68.099201 
L 166.67276 68.099201 
L 166.795531 66.949357 
L 166.821483 66.949357 
L 166.943048 68.099201 
L 166.967189 68.099201 
L 166.979354 66.949357 
L 167.076269 68.099201 
L 167.381968 68.099201 
L 167.394441 69.249045 
L 167.492396 68.099201 
L 167.615694 68.099201 
L 167.725014 69.249045 
L 167.846463 68.099201 
L 167.870758 68.099201 
L 167.982514 69.249045 
L 168.093357 69.249045 
L 168.105416 68.099201 
L 168.203043 69.249045 
L 168.27593 69.249045 
L 168.336713 68.099201 
L 168.385515 69.249045 
L 168.959862 69.249045 
L 169.082233 71.548732 
L 169.118573 71.548732 
L 169.240231 69.249045 
L 169.363353 71.548732 
L 169.424416 69.249045 
L 169.473276 71.548732 
L 169.485481 71.548732 
L 169.498605 69.249045 
L 169.596282 71.548732 
L 169.918853 71.548732 
L 169.943544 72.698576 
L 170.028386 71.548732 
L 170.138885 71.548732 
L 170.226067 72.698576 
L 170.238931 71.548732 
L 170.289102 71.548732 
L 170.412222 72.698576 
L 170.533779 71.548732 
L 170.645314 72.698576 
L 170.879557 72.698576 
L 170.891581 73.84842 
L 170.989343 72.698576 
L 171.0135 72.698576 
L 171.12387 73.84842 
L 171.135945 72.698576 
L 171.233868 73.84842 
L 171.270712 73.84842 
L 171.282759 72.698576 
L 171.368354 73.84842 
L 171.491299 74.998263 
L 171.589889 73.84842 
L 171.60193 74.998263 
L 171.614008 74.998263 
L 171.736252 73.84842 
L 172.140891 73.84842 
L 172.214281 72.698576 
L 172.25141 73.84842 
L 172.312436 73.84842 
L 172.325089 72.698576 
L 172.422202 73.84842 
L 172.666141 73.84842 
L 172.788314 74.998263 
L 172.830954 74.998263 
L 172.952326 73.84842 
L 172.964393 73.84842 
L 173.062509 74.998263 
L 173.074554 73.84842 
L 173.11129 73.84842 
L 173.198753 74.998263 
L 173.21079 73.84842 
L 173.322585 73.84842 
L 173.334996 74.998263 
L 173.43279 73.84842 
L 173.542882 73.84842 
L 173.640944 74.998263 
L 173.653003 73.84842 
L 173.838149 73.84842 
L 173.850209 74.998263 
L 173.947716 73.84842 
L 174.181109 73.84842 
L 174.19325 74.998263 
L 174.205349 73.84842 
L 173.518786 73.84842 
L 173.580211 73.84842 
L 173.690887 74.998263 
L 173.752595 74.998263 
L 173.875156 73.84842 
L 173.996934 74.998263 
L 174.021415 74.998263 
L 174.082211 73.84842 
L 174.130668 74.998263 
L 174.216022 74.998263 
L 174.256428 73.84842 
L 174.317439 74.998263 
L 174.797574 74.998263 
L 174.882987 73.84842 
L 174.907282 74.998263 
L 175.323439 74.998263 
L 175.444906 73.84842 
L 175.566387 74.998263 
L 175.578418 74.998263 
L 175.700089 73.84842 
L 175.822379 74.998263 
L 175.87128 74.998263 
L 175.983226 73.84842 
L 176.093873 74.998263 
L 176.118282 73.84842 
L 176.203632 74.998263 
L 176.691803 74.998263 
L 176.813926 76.148107 
L 176.935087 74.998263 
L 177.057195 76.148107 
L 177.081757 76.148107 
L 177.093836 74.998263 
L 177.19081 76.148107 
L 177.276082 76.148107 
L 177.300177 77.297951 
L 177.384705 76.148107 
L 177.825553 76.148107 
L 177.837597 74.998263 
L 177.925586 76.148107 
L 178.529388 76.148107 
L 178.590099 74.998263 
L 178.638757 76.148107 
L 178.663029 76.148107 
L 178.775933 74.998263 
L 178.813404 74.998263 
L 178.934043 76.148107 
L 179.079489 74.998263 
L 179.189138 76.148107 
L 179.311382 74.998263 
L 179.444448 74.998263 
L 179.456457 76.148107 
L 179.553617 74.998263 
L 180.017571 74.998263 
L 180.12674 73.84842 
L 180.239168 74.998263 
L 180.27539 74.998263 
L 180.349208 73.84842 
L 180.386176 74.998263 
L 180.426779 74.998263 
L 180.475126 73.84842 
L 180.523435 74.998263 
L 180.563415 74.998263 
L 180.684976 73.84842 
L 180.915535 73.84842 
L 180.989765 72.698576 
L 181.014665 73.84842 
L 181.026727 73.84842 
L 181.136971 72.698576 
L 181.173568 73.84842 
L 181.246794 72.698576 
L 181.612312 72.698576 
L 181.735054 71.548732 
L 181.783878 71.548732 
L 181.894121 72.698576 
L 182.015557 71.548732 
L 182.113751 71.548732 
L 182.150676 72.698576 
L 182.22341 71.548732 
L 182.321578 71.548732 
L 182.407624 72.698576 
L 182.431786 71.548732 
L 182.456349 71.548732 
L 182.567695 72.698576 
L 182.690327 72.698576 
L 182.812476 71.548732 
L 182.935165 72.698576 
L 182.984792 72.698576 
L 183.033702 71.548732 
L 183.094676 72.698576 
L 183.401183 72.698576 
L 183.52249 73.84842 
L 183.693905 73.84842 
L 183.706339 72.698576 
L 183.803038 73.84842 
L 184.083957 73.84842 
L 184.169549 72.698576 
L 184.194031 73.84842 
L 184.402913 73.84842 
L 184.427244 72.698576 
L 184.512875 73.84842 
L 184.525072 73.84842 
L 184.537318 72.698576 
L 184.634812 73.84842 
L 185.762088 73.84842 
L 185.774763 74.998263 
L 185.868867 73.84842 
L 185.906996 73.84842 
L 186.013341 74.998263 
L 186.126436 73.84842 
L 186.247613 74.998263 
L 187.552275 74.998263 
L 187.675169 76.148107 
L 187.787355 74.998263 
L 187.898289 76.148107 
L 187.997157 74.998263 
L 188.009395 76.148107 
L 188.034767 76.148107 
L 188.120808 74.998263 
L 188.145721 76.148107 
L 188.220428 76.148107 
L 188.270719 74.998263 
L 188.321537 76.148107 
L 188.334371 76.148107 
L 188.445725 74.998263 
L 188.458161 74.998263 
L 188.573062 76.148107 
L 188.622844 76.148107 
L 188.733377 74.998263 
L 188.856042 76.148107 
L 189.027785 76.148107 
L 189.039835 74.998263 
L 189.138717 76.148107 
L 189.726731 76.148107 
L 189.738808 77.297951 
L 189.837407 76.148107 
L 189.899346 76.148107 
L 189.974289 77.297951 
L 189.998338 76.148107 
L 190.010715 76.148107 
L 190.121938 77.297951 
L 190.183284 76.148107 
L 190.231943 77.297951 
L 190.305826 77.297951 
L 190.318533 76.148107 
L 190.416655 77.297951 
L 190.465273 77.297951 
L 190.588557 78.447794 
L 190.613088 77.297951 
L 190.697808 78.447794 
L 190.7826 78.447794 
L 190.904549 80.747482 
L 191.017176 80.747482 
L 191.138385 78.447794 
L 191.162522 78.447794 
L 191.216123 77.297951 
L 191.265353 78.447794 
L 191.277983 78.447794 
L 191.338495 77.297951 
L 191.387628 78.447794 
L 191.448992 78.447794 
L 191.558102 77.297951 
L 191.679553 78.447794 
L 191.801078 77.297951 
L 191.922913 78.447794 
L 191.935145 78.447794 
L 191.947212 77.297951 
L 192.044141 78.447794 
L 192.359898 78.447794 
L 192.446006 80.747482 
L 192.470356 78.447794 
L 192.519374 78.447794 
L 192.592984 80.747482 
L 192.618067 78.447794 
L 192.63055 78.447794 
L 192.753435 80.747482 
L 193.142847 80.747482 
L 193.154892 81.897325 
L 193.252812 80.747482 
L 193.447055 80.747482 
L 193.459309 81.897325 
L 193.556463 80.747482 
L 193.5808 80.747482 
L 193.702828 81.897325 
L 193.922535 81.897325 
L 194.043947 80.747482 
L 194.055953 80.747482 
L 194.165128 81.897325 
L 194.201421 80.747482 
L 194.275369 81.897325 
L 194.456653 81.897325 
L 194.568688 83.047169 
L 195.113471 83.047169 
L 195.185875 81.897325 
L 195.222352 83.047169 
L 195.525964 83.047169 
L 195.53801 81.897325 
L 195.635392 83.047169 
L 196.109462 83.047169 
L 196.121546 81.897325 
L 196.218986 83.047169 
L 196.66888 83.047169 
L 196.765326 84.197013 
L 196.77736 83.047169 
L 196.789444 83.047169 
L 196.89812 84.197013 
L 196.996039 83.047169 
L 197.008508 84.197013 
L 197.044795 84.197013 
L 197.165891 83.047169 
L 197.189959 84.197013 
L 197.27475 83.047169 
L 197.323207 83.047169 
L 197.432927 84.197013 
L 197.51777 81.897325 
L 197.542015 83.047169 
L 197.566317 83.047169 
L 197.687649 81.897325 
L 197.712181 81.897325 
L 197.736308 83.047169 
L 197.808958 81.897325 
L 197.930187 80.747482 
L 198.040175 80.747482 
L 198.162769 78.447794 
L 198.284611 78.447794 
L 198.360341 80.747482 
L 198.384646 78.447794 
L 198.469596 78.447794 
L 198.566626 80.747482 
L 198.579168 78.447794 
L 198.652419 78.447794 
L 198.664451 80.747482 
L 416.61241 116.392636 
L 416.686193 116.392636 
L 416.698789 117.54248 
L 416.796334 116.392636 
L 416.8088 116.392636 
L 416.932044 117.54248 
L 416.944371 117.54248 
L 416.968422 116.392636 
L 417.055448 117.54248 
L 417.262785 117.54248 
L 417.347972 118.692324 
L 417.372859 117.54248 
L 417.434306 117.54248 
L 417.55664 118.692324 
L 417.678217 117.54248 
L 417.801024 118.692324 
L 417.923875 117.54248 
L 418.00833 118.692324 
L 418.033622 117.54248 
L 418.095138 117.54248 
L 418.107342 118.692324 
L 418.206238 117.54248 
L 418.376612 117.54248 
L 419.925866 119.842167 
L 420.039368 118.692324 
L 420.076459 118.692324 
L 420.12459 119.842167 
L 420.185522 118.692324 
L 420.258454 118.692324 
L 420.274116 119.842167 
L 420.360027 118.692324 
L 420.498415 118.692324 
L 420.534598 119.842167 
L 420.607825 118.692324 
L 420.706318 118.692324 
L 420.79588 119.842167 
L 420.80795 118.692324 
L 420.844133 118.692324 
L 420.929204 119.842167 
L 420.942063 118.692324 
L 420.992767 118.692324 
L 421.105442 119.842167 
L 421.117578 119.842167 
L 421.179043 118.692324 
L 421.228398 119.842167 
L 421.253178 119.842167 
L 421.351337 118.692324 
L 421.364088 119.842167 
L 421.450103 119.842167 
L 421.56001 118.692324 
L 421.682581 119.842167 
L 421.694661 119.842167 
L 421.80511 118.692324 
L 421.927202 119.842167 
L 421.988029 119.842167 
L 422.097674 118.692324 
L 422.146208 119.842167 
L 422.206808 118.692324 
L 422.219287 118.692324 
L 422.3416 119.842167 
L 422.439375 119.842167 
L 422.451425 118.692324 
L 422.544763 119.842167 
L 422.781876 119.842167 
L 422.892094 122.141855 
L 422.990077 119.842167 
L 423.002123 122.141855 
L 423.086621 119.842167 
L 423.111234 122.141855 
L 423.375827 122.141855 
L 423.388254 123.291699 
L 423.475731 122.141855 
L 423.708494 122.141855 
L 423.819744 119.842167 
L 424.112239 119.842167 
L 424.200528 122.141855 
L 424.212587 119.842167 
L 424.249753 119.842167 
L 424.372973 122.141855 
L 424.385699 122.141855 
L 424.434839 119.842167 
L 424.49607 122.141855 
L 424.656588 122.141855 
L 424.729351 119.842167 
L 424.766406 122.141855 
L 424.974889 122.141855 
L 425.049664 123.291699 
L 425.074151 122.141855 
L 425.220544 122.141855 
L 425.233523 123.291699 
L 425.31992 122.141855 
L 425.406975 122.141855 
L 425.519744 123.291699 
L 425.62131 123.291699 
L 425.635176 122.141855 
L 425.722441 123.291699 
L 425.908504 123.291699 
L 425.944644 122.141855 
L 426.011276 123.291699 
L 426.124929 123.291699 
L 426.23704 122.141855 
L 426.249442 122.141855 
L 426.36157 123.291699 
L 426.559297 123.291699 
L 426.607795 122.141855 
L 426.668659 123.291699 
L 426.693237 123.291699 
L 426.790031 122.141855 
L 426.802083 123.291699 
L 426.814123 123.291699 
L 426.912518 122.141855 
L 426.924596 123.291699 
L 427.168618 123.291699 
L 427.180689 122.141855 
L 427.279145 123.291699 
L 427.674601 123.291699 
L 427.686844 122.141855 
L 427.774246 123.291699 
L 427.896798 123.291699 
L 428.019171 122.141855 
L 428.141969 123.291699 
L 428.397401 123.291699 
L 428.409443 124.441542 
L 428.497354 123.291699 
L 428.521556 123.291699 
L 428.546488 124.441542 
L 428.621097 123.291699 
L 428.63359 123.291699 
L 428.645854 124.441542 
L 428.73457 123.291699 
L 428.84875 123.291699 
L 428.887693 124.441542 
L 428.955889 123.291699 
L 428.981297 123.291699 
L 429.093402 124.441542 
L 429.106958 124.441542 
L 429.217786 123.291699 
L 429.282194 123.291699 
L 429.429753 124.441542 
L 429.551502 123.291699 
L 429.67307 124.441542 
L 429.762445 124.441542 
L 429.825262 123.291699 
L 429.862321 124.441542 
L 429.87454 124.441542 
L 429.986181 123.291699 
L 430.098189 124.441542 
L 430.306251 124.441542 
L 430.379622 123.291699 
L 430.416205 124.441542 
L 430.42832 124.441542 
L 430.542677 123.291699 
L 430.645251 123.291699 
L 430.657272 124.441542 
L 430.755751 123.291699 
L 431.022356 123.291699 
L 431.058991 122.141855 
L 431.132518 123.291699 
L 431.282012 123.291699 
L 431.405048 122.141855 
L 431.417158 122.141855 
L 431.516176 123.291699 
L 431.528211 122.141855 
L 431.564823 122.141855 
L 431.687637 123.291699 
L 431.863504 123.291699 
L 431.924173 122.141855 
L 431.972474 123.291699 
L 432.009091 123.291699 
L 432.009091 123.291699 
" style="fill:none;stroke:#1f77b4;stroke-linecap:square;stroke-width:1.5;"/>
   </g>
   <g id="line2d_30">
    <path clip-path="url(#pce4079b02a)" d="M 72.190909 106.044043 
L 75.34501 106.044043 
L 75.467863 118.692324 
L 76.453054 118.692324 
L 76.574863 126.74123 
L 76.758457 126.74123 
L 76.855315 118.692324 
L 78.238854 118.692324 
L 78.35062 126.74123 
L 78.770112 126.74123 
L 78.884379 118.692324 
L 79.693743 118.692324 
L 79.816176 106.044043 
L 80.255001 106.044043 
L 80.376184 93.395762 
L 80.977935 93.395762 
L 81.090006 70.398889 
L 81.530186 70.398889 
L 81.641741 64.64967 
L 81.837817 64.64967 
L 81.960547 70.398889 
L 82.050149 70.398889 
L 82.162378 64.64967 
L 82.376392 64.64967 
L 82.50138 48.551858 
L 83.414137 48.551858 
L 83.536384 60.050295 
L 85.090608 60.050295 
L 85.213762 70.398889 
L 85.263308 70.398889 
L 85.376487 64.64967 
L 85.807952 64.64967 
L 85.918973 93.395762 
L 86.48614 93.395762 
L 86.608804 118.692324 
L 88.933055 118.692324 
L 89.054882 129.040917 
L 90.026316 129.040917 
L 90.148088 141.689198 
L 90.395525 141.689198 
L 90.517297 147.438416 
L 91.367364 147.438416 
L 91.489904 141.689198 
L 91.735095 141.689198 
L 91.8579 147.438416 
L 92.104627 147.438416 
L 92.225485 152.037791 
L 93.404784 152.037791 
L 93.527842 147.438416 
L 93.589264 147.438416 
L 93.712475 163.536228 
L 94.564671 163.536228 
L 94.67622 168.135603 
L 94.871192 168.135603 
L 94.993287 152.037791 
L 95.424556 152.037791 
L 95.547436 147.438416 
L 95.793516 147.438416 
L 95.915838 152.037791 
L 96.404456 152.037791 
L 96.517477 141.689198 
L 96.775058 141.689198 
L 96.896032 126.74123 
L 96.957228 126.74123 
L 97.06973 106.044043 
L 97.696156 106.044043 
L 98.230814 93.395762 
L 98.786817 93.395762 
L 98.907945 85.346857 
L 99.348815 85.346857 
L 99.470463 83.047169 
L 100.750787 83.047169 
L 100.862232 93.395762 
L 101.427675 93.395762 
L 101.540261 70.398889 
L 101.986686 70.398889 
L 102.100817 118.692324 
L 103.280265 118.692324 
L 103.402297 129.040917 
L 104.038956 129.040917 
L 104.161387 196.881695 
L 104.777084 196.881695 
L 104.900138 222.178256 
L 105.525107 222.178256 
L 105.648161 232.52685 
L 106.076717 232.52685 
L 106.188116 245.17513 
L 107.055398 245.17513 
L 107.167544 232.52685 
L 107.442185 232.52685 
L 107.564872 222.178256 
L 109.505546 222.178256 
L 109.620416 209.529976 
L 111.755812 209.529976 
L 111.878613 196.881695 
L 112.698296 196.881695 
L 112.813268 173.884821 
L 113.070371 173.884821 
L 113.193661 152.037791 
L 113.859382 152.037791 
L 113.980939 118.692324 
L 114.655673 118.692324 
L 114.694406 83.047169 
L 115.374735 93.395762 
L 115.627535 93.395762 
L 116.330561 118.692324 
L 116.514069 118.692324 
L 116.63532 129.040917 
L 117.312175 129.040917 
L 117.434443 141.689198 
L 119.380666 141.689198 
L 119.543053 152.037791 
L 120.752156 152.037791 
L 120.866371 141.689198 
L 121.474478 141.689198 
L 121.596325 152.037791 
L 122.081723 152.037791 
L 122.203389 163.536228 
L 123.772276 163.536228 
L 123.892856 141.689198 
L 124.347944 141.689198 
L 124.470243 152.037791 
L 125.302895 152.037791 
L 125.415942 147.438416 
L 125.712881 147.438416 
L 125.835893 152.037791 
L 126.121873 152.037791 
L 126.239686 168.135603 
L 126.449238 168.135603 
L 126.646698 152.037791 
L 127.298183 152.037791 
L 127.419865 168.135603 
L 127.851582 168.135603 
L 127.965932 163.536228 
L 129.205011 163.536228 
L 129.317759 186.533102 
L 130.006918 186.533102 
L 130.118437 152.037791 
L 130.502979 152.037791 
L 130.625107 129.040917 
L 131.902537 129.040917 
L 132.024122 83.047169 
L 134.012689 83.047169 
L 134.1324 93.395762 
L 134.927742 93.395762 
L 135.041953 106.044043 
L 135.39355 106.044043 
L 135.505877 118.692324 
L 136.370598 118.692324 
L 136.481907 141.689198 
L 137.537832 141.689198 
L 137.651687 152.037791 
L 139.618965 152.037791 
L 139.740301 163.536228 
L 142.162025 163.536228 
L 142.284134 168.135603 
L 142.406561 168.135603 
L 142.528011 152.037791 
L 144.778962 152.037791 
L 144.900952 163.536228 
L 146.341264 163.536228 
L 146.455085 168.135603 
L 146.584735 168.135603 
L 146.729565 163.536228 
L 147.355154 163.536228 
L 147.469229 152.037791 
L 148.434032 152.037791 
L 148.544773 141.689198 
L 149.604463 141.689198 
L 149.720195 147.438416 
L 150.08195 147.438416 
L 150.193201 129.040917 
L 150.327143 129.040917 
L 150.448886 126.74123 
L 150.768191 126.74123 
L 150.889451 129.040917 
L 151.012175 129.040917 
L 151.123627 126.74123 
L 151.518903 126.74123 
L 151.631678 129.040917 
L 151.932959 129.040917 
L 152.05648 126.74123 
L 152.179967 126.74123 
L 152.30247 129.040917 
L 152.661564 129.040917 
L 152.735636 126.74123 
L 153.582979 118.692324 
L 153.707193 141.689198 
L 154.506745 141.689198 
L 154.670378 129.040917 
L 155.244318 129.040917 
L 155.367285 141.689198 
L 155.917704 141.689198 
L 156.040801 129.040917 
L 158.25162 129.040917 
L 158.373954 126.74123 
L 158.494986 126.74123 
L 158.617784 129.040917 
L 158.740597 129.040917 
L 158.862869 126.74123 
L 159.168133 126.74123 
L 159.290104 141.689198 
L 160.339978 141.689198 
L 160.46299 147.438416 
L 160.589131 147.438416 
L 160.701204 141.689198 
L 161.020943 141.689198 
L 161.144116 147.438416 
L 161.265931 147.438416 
L 161.386937 163.536228 
L 161.764585 163.536228 
L 161.881308 168.135603 
L 162.193547 168.135603 
L 162.316555 163.536228 
L 162.928557 163.536228 
L 163.049973 168.135603 
L 163.359036 168.135603 
L 163.470233 152.037791 
L 163.800309 152.037791 
L 164.046611 147.438416 
L 164.315997 147.438416 
L 164.428251 141.689198 
L 164.563238 141.689198 
L 164.68636 126.74123 
L 164.807407 126.74123 
L 164.930379 118.692324 
L 165.236666 118.692324 
L 165.348449 106.044043 
L 166.159809 106.044043 
L 166.281396 93.395762 
L 166.404207 93.395762 
L 166.526462 85.346857 
L 167.137066 85.346857 
L 167.260069 93.395762 
L 167.566585 93.395762 
L 167.688589 106.044043 
L 169.646092 106.044043 
L 169.759165 118.692324 
L 170.387537 118.692324 
L 170.508835 141.689198 
L 173.874464 141.689198 
L 173.985608 152.037791 
L 174.205349 152.037791 
L 173.518786 152.037791 
L 173.911731 152.037791 
L 174.033471 141.689198 
L 174.601793 141.689198 
L 174.724203 152.037791 
L 175.957809 152.037791 
L 176.081276 163.536228 
L 177.679059 163.536228 
L 177.801388 168.135603 
L 178.109091 168.135603 
L 178.231931 163.536228 
L 178.357442 163.536228 
L 178.468484 168.135603 
L 178.788758 168.135603 
L 178.909775 163.536228 
L 179.51736 163.536228 
L 179.638147 152.037791 
L 179.759223 152.037791 
L 179.870513 147.438416 
L 180.903486 147.438416 
L 181.014665 93.395762 
L 181.331238 93.395762 
L 181.453949 85.346857 
L 181.821207 85.346857 
L 181.942561 83.047169 
L 182.064834 83.047169 
L 182.187083 64.64967 
L 182.309336 64.64967 
L 182.431786 70.398889 
L 185.351925 70.398889 
L 185.466074 106.044043 
L 187.454517 106.044043 
L 187.601007 129.040917 
L 191.935145 129.040917 
L 192.056559 118.692324 
L 192.850837 118.692324 
L 192.972128 129.040917 
L 196.231073 129.040917 
L 196.352082 141.689198 
L 196.473518 141.689198 
L 196.595676 147.438416 
L 196.959838 147.438416 
L 197.0809 129.040917 
L 198.126038 129.040917 
L 198.247574 126.74123 
L 198.308795 126.74123 
L 198.433337 118.692324 
L 198.664451 118.692324 
L 416.381946 173.884821 
L 416.858801 173.884821 
L 416.980863 168.135603 
L 418.376612 168.135603 
L 419.990788 188.832789 
L 420.486374 188.832789 
L 420.607825 222.178256 
L 421.951712 222.178256 
L 422.073072 232.52685 
L 423.745936 232.52685 
L 423.857494 230.227162 
L 425.086273 230.227162 
L 425.208082 222.178256 
L 425.519744 222.178256 
L 425.635176 209.529976 
L 429.081328 209.529976 
L 429.193549 222.178256 
L 431.30705 222.178256 
L 431.4292 209.529976 
L 431.984519 209.529976 
L 432.009091 188.832789 
L 432.009091 188.832789 
" style="fill:none;stroke:#ff7f0e;stroke-linecap:square;stroke-width:1.5;"/>
   </g>
   <g id="patch_3">
    <path d="M 54.2 255.638708 
L 54.2 25.44 
" style="fill:none;stroke:#000000;stroke-linecap:square;stroke-linejoin:miter;stroke-width:0.8;"/>
   </g>
   <g id="patch_4">
    <path d="M 450 255.638708 
L 450 25.44 
" style="fill:none;stroke:#000000;stroke-linecap:square;stroke-linejoin:miter;stroke-width:0.8;"/>
   </g>
   <g id="patch_5">
    <path d="M 54.2 255.638708 
L 450 255.638708 
" style="fill:none;stroke:#000000;stroke-linecap:square;stroke-linejoin:miter;stroke-width:0.8;"/>
   </g>
   <g id="patch_6">
    <path d="M 54.2 25.44 
L 450 25.44 
" style="fill:none;stroke:#000000;stroke-linecap:square;stroke-linejoin:miter;stroke-width:0.8;"/>
   </g>
   <g id="text_17">
    <!-- Lake Shoecraft - Water and Air Temperature -->
    <g transform="translate(120.481563 19.44)scale(0.12 -0.12)">
     <defs>
      <path d="M 9.8125 72.90625 
L 19.671875 72.90625 
L 19.671875 8.296875 
L 55.171875 8.296875 
L 55.171875 0 
L 9.8125 0 
z
" id="DejaVuSans-76"/>
      <path d="M 9.078125 75.984375 
L 18.109375 75.984375 
L 18.109375 31.109375 
L 44.921875 54.6875 
L 56.390625 54.6875 
L 27.390625 29.109375 
L 57.625 0 
L 45.90625 0 
L 18.109375 26.703125 
L 18.109375 0 
L 9.078125 0 
z
" id="DejaVuSans-107"/>
      <path d="M 53.515625 70.515625 
L 53.515625 60.890625 
Q 47.90625 63.578125 42.921875 64.890625 
Q 37.9375 66.21875 33.296875 66.21875 
Q 25.25 66.21875 20.875 63.09375 
Q 16.5 59.96875 16.5 54.203125 
Q 16.5 49.359375 19.40625 46.890625 
Q 22.3125 44.4375 30.421875 42.921875 
L 36.375 41.703125 
Q 47.40625 39.59375 52.65625 34.296875 
Q 57.90625 29 57.90625 20.125 
Q 57.90625 9.515625 50.796875 4.046875 
Q 43.703125 -1.421875 29.984375 -1.421875 
Q 24.8125 -1.421875 18.96875 -0.25 
Q 13.140625 0.921875 6.890625 3.21875 
L 6.890625 13.375 
Q 12.890625 10.015625 18.65625 8.296875 
Q 24.421875 6.59375 29.984375 6.59375 
Q 38.421875 6.59375 43.015625 9.90625 
Q 47.609375 13.234375 47.609375 19.390625 
Q 47.609375 24.75 44.3125 27.78125 
Q 41.015625 30.8125 33.5 32.328125 
L 27.484375 33.5 
Q 16.453125 35.6875 11.515625 40.375 
Q 6.59375 45.0625 6.59375 53.421875 
Q 6.59375 63.09375 13.40625 68.65625 
Q 20.21875 74.21875 32.171875 74.21875 
Q 37.3125 74.21875 42.625 73.28125 
Q 47.953125 72.359375 53.515625 70.515625 
z
" id="DejaVuSans-83"/>
      <path d="M 54.890625 33.015625 
L 54.890625 0 
L 45.90625 0 
L 45.90625 32.71875 
Q 45.90625 40.484375 42.875 44.328125 
Q 39.84375 48.1875 33.796875 48.1875 
Q 26.515625 48.1875 22.3125 43.546875 
Q 18.109375 38.921875 18.109375 30.90625 
L 18.109375 0 
L 9.078125 0 
L 9.078125 75.984375 
L 18.109375 75.984375 
L 18.109375 46.1875 
Q 21.34375 51.125 25.703125 53.5625 
Q 30.078125 56 35.796875 56 
Q 45.21875 56 50.046875 50.171875 
Q 54.890625 44.34375 54.890625 33.015625 
z
" id="DejaVuSans-104"/>
      <path d="M 30.609375 48.390625 
Q 23.390625 48.390625 19.1875 42.75 
Q 14.984375 37.109375 14.984375 27.296875 
Q 14.984375 17.484375 19.15625 11.84375 
Q 23.34375 6.203125 30.609375 6.203125 
Q 37.796875 6.203125 41.984375 11.859375 
Q 46.1875 17.53125 46.1875 27.296875 
Q 46.1875 37.015625 41.984375 42.703125 
Q 37.796875 48.390625 30.609375 48.390625 
z
M 30.609375 56 
Q 42.328125 56 49.015625 48.375 
Q 55.71875 40.765625 55.71875 27.296875 
Q 55.71875 13.875 49.015625 6.21875 
Q 42.328125 -1.421875 30.609375 -1.421875 
Q 18.84375 -1.421875 12.171875 6.21875 
Q 5.515625 13.875 5.515625 27.296875 
Q 5.515625 40.765625 12.171875 48.375 
Q 18.84375 56 30.609375 56 
z
" id="DejaVuSans-111"/>
      <path d="M 48.78125 52.59375 
L 48.78125 44.1875 
Q 44.96875 46.296875 41.140625 47.34375 
Q 37.3125 48.390625 33.40625 48.390625 
Q 24.65625 48.390625 19.8125 42.84375 
Q 14.984375 37.3125 14.984375 27.296875 
Q 14.984375 17.28125 19.8125 11.734375 
Q 24.65625 6.203125 33.40625 6.203125 
Q 37.3125 6.203125 41.140625 7.25 
Q 44.96875 8.296875 48.78125 10.40625 
L 48.78125 2.09375 
Q 45.015625 0.34375 40.984375 -0.53125 
Q 36.96875 -1.421875 32.421875 -1.421875 
Q 20.0625 -1.421875 12.78125 6.34375 
Q 5.515625 14.109375 5.515625 27.296875 
Q 5.515625 40.671875 12.859375 48.328125 
Q 20.21875 56 33.015625 56 
Q 37.15625 56 41.109375 55.140625 
Q 45.0625 54.296875 48.78125 52.59375 
z
" id="DejaVuSans-99"/>
      <path d="M 37.109375 75.984375 
L 37.109375 68.5 
L 28.515625 68.5 
Q 23.6875 68.5 21.796875 66.546875 
Q 19.921875 64.59375 19.921875 59.515625 
L 19.921875 54.6875 
L 34.71875 54.6875 
L 34.71875 47.703125 
L 19.921875 47.703125 
L 19.921875 0 
L 10.890625 0 
L 10.890625 47.703125 
L 2.296875 47.703125 
L 2.296875 54.6875 
L 10.890625 54.6875 
L 10.890625 58.5 
Q 10.890625 67.625 15.140625 71.796875 
Q 19.390625 75.984375 28.609375 75.984375 
z
" id="DejaVuSans-102"/>
      <path d="M 3.328125 72.90625 
L 13.28125 72.90625 
L 28.609375 11.28125 
L 43.890625 72.90625 
L 54.984375 72.90625 
L 70.3125 11.28125 
L 85.59375 72.90625 
L 95.609375 72.90625 
L 77.296875 0 
L 64.890625 0 
L 49.515625 63.28125 
L 33.984375 0 
L 21.578125 0 
z
" id="DejaVuSans-87"/>
      <path d="M 54.890625 33.015625 
L 54.890625 0 
L 45.90625 0 
L 45.90625 32.71875 
Q 45.90625 40.484375 42.875 44.328125 
Q 39.84375 48.1875 33.796875 48.1875 
Q 26.515625 48.1875 22.3125 43.546875 
Q 18.109375 38.921875 18.109375 30.90625 
L 18.109375 0 
L 9.078125 0 
L 9.078125 54.6875 
L 18.109375 54.6875 
L 18.109375 46.1875 
Q 21.34375 51.125 25.703125 53.5625 
Q 30.078125 56 35.796875 56 
Q 45.21875 56 50.046875 50.171875 
Q 54.890625 44.34375 54.890625 33.015625 
z
" id="DejaVuSans-110"/>
      <path d="M 45.40625 46.390625 
L 45.40625 75.984375 
L 54.390625 75.984375 
L 54.390625 0 
L 45.40625 0 
L 45.40625 8.203125 
Q 42.578125 3.328125 38.25 0.953125 
Q 33.9375 -1.421875 27.875 -1.421875 
Q 17.96875 -1.421875 11.734375 6.484375 
Q 5.515625 14.40625 5.515625 27.296875 
Q 5.515625 40.1875 11.734375 48.09375 
Q 17.96875 56 27.875 56 
Q 33.9375 56 38.25 53.625 
Q 42.578125 51.265625 45.40625 46.390625 
z
M 14.796875 27.296875 
Q 14.796875 17.390625 18.875 11.75 
Q 22.953125 6.109375 30.078125 6.109375 
Q 37.203125 6.109375 41.296875 11.75 
Q 45.40625 17.390625 45.40625 27.296875 
Q 45.40625 37.203125 41.296875 42.84375 
Q 37.203125 48.484375 30.078125 48.484375 
Q 22.953125 48.484375 18.875 42.84375 
Q 14.796875 37.203125 14.796875 27.296875 
z
" id="DejaVuSans-100"/>
      <path d="M 34.1875 63.1875 
L 20.796875 26.90625 
L 47.609375 26.90625 
z
M 28.609375 72.90625 
L 39.796875 72.90625 
L 67.578125 0 
L 57.328125 0 
L 50.6875 18.703125 
L 17.828125 18.703125 
L 11.1875 0 
L 0.78125 0 
z
" id="DejaVuSans-65"/>
      <path d="M 9.421875 54.6875 
L 18.40625 54.6875 
L 18.40625 0 
L 9.421875 0 
z
M 9.421875 75.984375 
L 18.40625 75.984375 
L 18.40625 64.59375 
L 9.421875 64.59375 
z
" id="DejaVuSans-105"/>
     </defs>
     <use xlink:href="#DejaVuSans-76"/>
     <use x="55.712891" xlink:href="#DejaVuSans-97"/>
     <use x="116.992188" xlink:href="#DejaVuSans-107"/>
     <use x="171.277344" xlink:href="#DejaVuSans-101"/>
     <use x="232.800781" xlink:href="#DejaVuSans-32"/>
     <use x="264.587891" xlink:href="#DejaVuSans-83"/>
     <use x="328.064453" xlink:href="#DejaVuSans-104"/>
     <use x="391.443359" xlink:href="#DejaVuSans-111"/>
     <use x="452.625" xlink:href="#DejaVuSans-101"/>
     <use x="514.148438" xlink:href="#DejaVuSans-99"/>
     <use x="569.128906" xlink:href="#DejaVuSans-114"/>
     <use x="610.242188" xlink:href="#DejaVuSans-97"/>
     <use x="671.521484" xlink:href="#DejaVuSans-102"/>
     <use x="704.976562" xlink:href="#DejaVuSans-116"/>
     <use x="744.185547" xlink:href="#DejaVuSans-32"/>
     <use x="775.972656" xlink:href="#DejaVuSans-45"/>
     <use x="812.056641" xlink:href="#DejaVuSans-32"/>
     <use x="843.84375" xlink:href="#DejaVuSans-87"/>
     <use x="936.345703" xlink:href="#DejaVuSans-97"/>
     <use x="997.625" xlink:href="#DejaVuSans-116"/>
     <use x="1036.833984" xlink:href="#DejaVuSans-101"/>
     <use x="1098.357422" xlink:href="#DejaVuSans-114"/>
     <use x="1139.470703" xlink:href="#DejaVuSans-32"/>
     <use x="1171.257812" xlink:href="#DejaVuSans-97"/>
     <use x="1232.537109" xlink:href="#DejaVuSans-110"/>
     <use x="1295.916016" xlink:href="#DejaVuSans-100"/>
     <use x="1359.392578" xlink:href="#DejaVuSans-32"/>
     <use x="1391.179688" xlink:href="#DejaVuSans-65"/>
     <use x="1459.587891" xlink:href="#DejaVuSans-105"/>
     <use x="1487.371094" xlink:href="#DejaVuSans-114"/>
     <use x="1528.484375" xlink:href="#DejaVuSans-32"/>
     <use x="1560.271484" xlink:href="#DejaVuSans-84"/>
     <use x="1604.355469" xlink:href="#DejaVuSans-101"/>
     <use x="1665.878906" xlink:href="#DejaVuSans-109"/>
     <use x="1763.291016" xlink:href="#DejaVuSans-112"/>
     <use x="1826.767578" xlink:href="#DejaVuSans-101"/>
     <use x="1888.291016" xlink:href="#DejaVuSans-114"/>
     <use x="1929.404297" xlink:href="#DejaVuSans-97"/>
     <use x="1990.683594" xlink:href="#DejaVuSans-116"/>
     <use x="2029.892578" xlink:href="#DejaVuSans-117"/>
     <use x="2093.271484" xlink:href="#DejaVuSans-114"/>
     <use x="2132.134766" xlink:href="#DejaVuSans-101"/>
    </g>
   </g>
   <g id="legend_1">
    <g id="patch_7">
     <path d="M 357.890625 62.79625 
L 443 62.79625 
Q 445 62.79625 445 60.79625 
L 445 32.44 
Q 445 30.44 443 30.44 
L 357.890625 30.44 
Q 355.890625 30.44 355.890625 32.44 
L 355.890625 60.79625 
Q 355.890625 62.79625 357.890625 62.79625 
z
" style="fill:#ffffff;opacity:0.8;stroke:#cccccc;stroke-linejoin:miter;"/>
    </g>
    <g id="line2d_31">
     <path d="M 359.890625 38.538437 
L 379.890625 38.538437 
" style="fill:none;stroke:#1f77b4;stroke-linecap:square;stroke-width:1.5;"/>
    </g>
    <g id="line2d_32"/>
    <g id="text_18">
     <!-- Lake Temp -->
     <g transform="translate(387.890625 42.038437)scale(0.1 -0.1)">
      <use xlink:href="#DejaVuSans-76"/>
      <use x="55.712891" xlink:href="#DejaVuSans-97"/>
      <use x="116.992188" xlink:href="#DejaVuSans-107"/>
      <use x="171.277344" xlink:href="#DejaVuSans-101"/>
      <use x="232.800781" xlink:href="#DejaVuSans-32"/>
      <use x="264.587891" xlink:href="#DejaVuSans-84"/>
      <use x="308.671875" xlink:href="#DejaVuSans-101"/>
      <use x="370.195312" xlink:href="#DejaVuSans-109"/>
      <use x="467.607422" xlink:href="#DejaVuSans-112"/>
     </g>
    </g>
    <g id="line2d_33">
     <path d="M 359.890625 53.216562 
L 379.890625 53.216562 
" style="fill:none;stroke:#ff7f0e;stroke-linecap:square;stroke-width:1.5;"/>
    </g>
    <g id="line2d_34"/>
    <g id="text_19">
     <!-- Air Temp -->
     <g transform="translate(387.890625 56.716562)scale(0.1 -0.1)">
      <use xlink:href="#DejaVuSans-65"/>
      <use x="68.408203" xlink:href="#DejaVuSans-105"/>
      <use x="96.191406" xlink:href="#DejaVuSans-114"/>
      <use x="137.304688" xlink:href="#DejaVuSans-32"/>
      <use x="169.091797" xlink:href="#DejaVuSans-84"/>
      <use x="213.175781" xlink:href="#DejaVuSans-101"/>
      <use x="274.699219" xlink:href="#DejaVuSans-109"/>
      <use x="372.111328" xlink:href="#DejaVuSans-112"/>
     </g>
    </g>
   </g>
  </g>
 </g>
 <defs>
  <clipPath id="pce4079b02a">
   <rect height="230.198708" width="395.8" x="54.2" y="25.44"/>
  </clipPath>
 </defs>
</svg>
