<?xml version="1.0" encoding="utf-8" standalone="no"?>
<!DOCTYPE svg PUBLIC "-//W3C//DTD SVG 1.1//EN"
  "http://www.w3.org/Graphics/SVG/1.1/DTD/svg11.dtd">
<!-- Created with matplotlib (https://matplotlib.org/) -->
<svg height="345.6pt" version="1.1" viewBox="0 0 460.8 345.6" width="460.8pt" xmlns="http://www.w3.org/2000/svg" xmlns:xlink="http://www.w3.org/1999/xlink">
 <metadata>
  <rdf:RDF xmlns:cc="http://creativecommons.org/ns#" xmlns:dc="http://purl.org/dc/elements/1.1/" xmlns:rdf="http://www.w3.org/1999/02/22-rdf-syntax-ns#">
   <cc:Work>
    <dc:type rdf:resource="http://purl.org/dc/dcmitype/StillImage"/>
    <dc:date>2024-11-19T10:55:15.067442</dc:date>
    <dc:format>image/svg+xml</dc:format>
    <dc:creator>
     <cc:Agent>
      <dc:title>Matplotlib v3.3.2, https://matplotlib.org/</dc:title>
     </cc:Agent>
    </dc:creator>
   </cc:Work>
  </rdf:RDF>
 </metadata>
 <defs>
  <style type="text/css">*{stroke-linecap:butt;stroke-linejoin:round;}</style>
 </defs>
 <g id="figure_1">
  <g id="patch_1">
   <path d="M 0 345.6 
L 460.8 345.6 
L 460.8 0 
L 0 0 
z
" style="fill:none;"/>
  </g>
  <g id="axes_1">
   <g id="patch_2">
    <path d="M 54.2 255.638708 
L 450 255.638708 
L 450 25.44 
L 54.2 25.44 
z
" style="fill:none;"/>
   </g>
   <g id="matplotlib.axis_1">
    <g id="xtick_1">
     <g id="line2d_1">
      <path clip-path="url(#p071b055d5c)" d="M 72.18191 255.638708 
L 72.18191 25.44 
" style="fill:none;stroke:#b0b0b0;stroke-linecap:square;stroke-width:0.8;"/>
     </g>
     <g id="line2d_2">
      <defs>
       <path d="M 0 0 
L 0 3.5 
" id="mb5e3ead7e3" style="stroke:#000000;stroke-width:0.8;"/>
      </defs>
      <g>
       <use style="stroke:#000000;stroke-width:0.8;" x="72.18191" xlink:href="#mb5e3ead7e3" y="255.638708"/>
      </g>
     </g>
     <g id="text_1">
      <!-- 2024-10-29 -->
      <g transform="translate(64.836517 319.848351)rotate(-70)scale(0.1 -0.1)">
       <defs>
        <path d="M 19.1875 8.296875 
L 53.609375 8.296875 
L 53.609375 0 
L 7.328125 0 
L 7.328125 8.296875 
Q 12.9375 14.109375 22.625 23.890625 
Q 32.328125 33.6875 34.8125 36.53125 
Q 39.546875 41.84375 41.421875 45.53125 
Q 43.3125 49.21875 43.3125 52.78125 
Q 43.3125 58.59375 39.234375 62.25 
Q 35.15625 65.921875 28.609375 65.921875 
Q 23.96875 65.921875 18.8125 64.3125 
Q 13.671875 62.703125 7.8125 59.421875 
L 7.8125 69.390625 
Q 13.765625 71.78125 18.9375 73 
Q 24.125 74.21875 28.421875 74.21875 
Q 39.75 74.21875 46.484375 68.546875 
Q 53.21875 62.890625 53.21875 53.421875 
Q 53.21875 48.921875 51.53125 44.890625 
Q 49.859375 40.875 45.40625 35.40625 
Q 44.1875 33.984375 37.640625 27.21875 
Q 31.109375 20.453125 19.1875 8.296875 
z
" id="DejaVuSans-50"/>
        <path d="M 31.78125 66.40625 
Q 24.171875 66.40625 20.328125 58.90625 
Q 16.5 51.421875 16.5 36.375 
Q 16.5 21.390625 20.328125 13.890625 
Q 24.171875 6.390625 31.78125 6.390625 
Q 39.453125 6.390625 43.28125 13.890625 
Q 47.125 21.390625 47.125 36.375 
Q 47.125 51.421875 43.28125 58.90625 
Q 39.453125 66.40625 31.78125 66.40625 
z
M 31.78125 74.21875 
Q 44.046875 74.21875 50.515625 64.515625 
Q 56.984375 54.828125 56.984375 36.375 
Q 56.984375 17.96875 50.515625 8.265625 
Q 44.046875 -1.421875 31.78125 -1.421875 
Q 19.53125 -1.421875 13.0625 8.265625 
Q 6.59375 17.96875 6.59375 36.375 
Q 6.59375 54.828125 13.0625 64.515625 
Q 19.53125 74.21875 31.78125 74.21875 
z
" id="DejaVuSans-48"/>
        <path d="M 37.796875 64.3125 
L 12.890625 25.390625 
L 37.796875 25.390625 
z
M 35.203125 72.90625 
L 47.609375 72.90625 
L 47.609375 25.390625 
L 58.015625 25.390625 
L 58.015625 17.1875 
L 47.609375 17.1875 
L 47.609375 0 
L 37.796875 0 
L 37.796875 17.1875 
L 4.890625 17.1875 
L 4.890625 26.703125 
z
" id="DejaVuSans-52"/>
        <path d="M 4.890625 31.390625 
L 31.203125 31.390625 
L 31.203125 23.390625 
L 4.890625 23.390625 
z
" id="DejaVuSans-45"/>
        <path d="M 12.40625 8.296875 
L 28.515625 8.296875 
L 28.515625 63.921875 
L 10.984375 60.40625 
L 10.984375 69.390625 
L 28.421875 72.90625 
L 38.28125 72.90625 
L 38.28125 8.296875 
L 54.390625 8.296875 
L 54.390625 0 
L 12.40625 0 
z
" id="DejaVuSans-49"/>
        <path d="M 10.984375 1.515625 
L 10.984375 10.5 
Q 14.703125 8.734375 18.5 7.8125 
Q 22.3125 6.890625 25.984375 6.890625 
Q 35.75 6.890625 40.890625 13.453125 
Q 46.046875 20.015625 46.78125 33.40625 
Q 43.953125 29.203125 39.59375 26.953125 
Q 35.25 24.703125 29.984375 24.703125 
Q 19.046875 24.703125 12.671875 31.3125 
Q 6.296875 37.9375 6.296875 49.421875 
Q 6.296875 60.640625 12.9375 67.421875 
Q 19.578125 74.21875 30.609375 74.21875 
Q 43.265625 74.21875 49.921875 64.515625 
Q 56.59375 54.828125 56.59375 36.375 
Q 56.59375 19.140625 48.40625 8.859375 
Q 40.234375 -1.421875 26.421875 -1.421875 
Q 22.703125 -1.421875 18.890625 -0.6875 
Q 15.09375 0.046875 10.984375 1.515625 
z
M 30.609375 32.421875 
Q 37.25 32.421875 41.125 36.953125 
Q 45.015625 41.5 45.015625 49.421875 
Q 45.015625 57.28125 41.125 61.84375 
Q 37.25 66.40625 30.609375 66.40625 
Q 23.96875 66.40625 20.09375 61.84375 
Q 16.21875 57.28125 16.21875 49.421875 
Q 16.21875 41.5 20.09375 36.953125 
Q 23.96875 32.421875 30.609375 32.421875 
z
" id="DejaVuSans-57"/>
       </defs>
       <use xlink:href="#DejaVuSans-50"/>
       <use x="63.623047" xlink:href="#DejaVuSans-48"/>
       <use x="127.246094" xlink:href="#DejaVuSans-50"/>
       <use x="190.869141" xlink:href="#DejaVuSans-52"/>
       <use x="254.492188" xlink:href="#DejaVuSans-45"/>
       <use x="290.576172" xlink:href="#DejaVuSans-49"/>
       <use x="354.199219" xlink:href="#DejaVuSans-48"/>
       <use x="417.822266" xlink:href="#DejaVuSans-45"/>
       <use x="453.90625" xlink:href="#DejaVuSans-50"/>
       <use x="517.529297" xlink:href="#DejaVuSans-57"/>
      </g>
     </g>
    </g>
    <g id="xtick_2">
     <g id="line2d_3">
      <path clip-path="url(#p071b055d5c)" d="M 122.496027 255.638708 
L 122.496027 25.44 
" style="fill:none;stroke:#b0b0b0;stroke-linecap:square;stroke-width:0.8;"/>
     </g>
     <g id="line2d_4">
      <g>
       <use style="stroke:#000000;stroke-width:0.8;" x="122.496027" xlink:href="#mb5e3ead7e3" y="255.638708"/>
      </g>
     </g>
     <g id="text_2">
      <!-- 2024-11-01 -->
      <g transform="translate(115.150634 319.848351)rotate(-70)scale(0.1 -0.1)">
       <use xlink:href="#DejaVuSans-50"/>
       <use x="63.623047" xlink:href="#DejaVuSans-48"/>
       <use x="127.246094" xlink:href="#DejaVuSans-50"/>
       <use x="190.869141" xlink:href="#DejaVuSans-52"/>
       <use x="254.492188" xlink:href="#DejaVuSans-45"/>
       <use x="290.576172" xlink:href="#DejaVuSans-49"/>
       <use x="354.199219" xlink:href="#DejaVuSans-49"/>
       <use x="417.822266" xlink:href="#DejaVuSans-45"/>
       <use x="453.90625" xlink:href="#DejaVuSans-48"/>
       <use x="517.529297" xlink:href="#DejaVuSans-49"/>
      </g>
     </g>
    </g>
    <g id="xtick_3">
     <g id="line2d_5">
      <path clip-path="url(#p071b055d5c)" d="M 189.581517 255.638708 
L 189.581517 25.44 
" style="fill:none;stroke:#b0b0b0;stroke-linecap:square;stroke-width:0.8;"/>
     </g>
     <g id="line2d_6">
      <g>
       <use style="stroke:#000000;stroke-width:0.8;" x="189.581517" xlink:href="#mb5e3ead7e3" y="255.638708"/>
      </g>
     </g>
     <g id="text_3">
      <!-- 2024-11-05 -->
      <g transform="translate(182.236124 319.848351)rotate(-70)scale(0.1 -0.1)">
       <defs>
        <path d="M 10.796875 72.90625 
L 49.515625 72.90625 
L 49.515625 64.59375 
L 19.828125 64.59375 
L 19.828125 46.734375 
Q 21.96875 47.46875 24.109375 47.828125 
Q 26.265625 48.1875 28.421875 48.1875 
Q 40.625 48.1875 47.75 41.5 
Q 54.890625 34.8125 54.890625 23.390625 
Q 54.890625 11.625 47.5625 5.09375 
Q 40.234375 -1.421875 26.90625 -1.421875 
Q 22.3125 -1.421875 17.546875 -0.640625 
Q 12.796875 0.140625 7.71875 1.703125 
L 7.71875 11.625 
Q 12.109375 9.234375 16.796875 8.0625 
Q 21.484375 6.890625 26.703125 6.890625 
Q 35.15625 6.890625 40.078125 11.328125 
Q 45.015625 15.765625 45.015625 23.390625 
Q 45.015625 31 40.078125 35.4375 
Q 35.15625 39.890625 26.703125 39.890625 
Q 22.75 39.890625 18.8125 39.015625 
Q 14.890625 38.140625 10.796875 36.28125 
z
" id="DejaVuSans-53"/>
       </defs>
       <use xlink:href="#DejaVuSans-50"/>
       <use x="63.623047" xlink:href="#DejaVuSans-48"/>
       <use x="127.246094" xlink:href="#DejaVuSans-50"/>
       <use x="190.869141" xlink:href="#DejaVuSans-52"/>
       <use x="254.492188" xlink:href="#DejaVuSans-45"/>
       <use x="290.576172" xlink:href="#DejaVuSans-49"/>
       <use x="354.199219" xlink:href="#DejaVuSans-49"/>
       <use x="417.822266" xlink:href="#DejaVuSans-45"/>
       <use x="453.90625" xlink:href="#DejaVuSans-48"/>
       <use x="517.529297" xlink:href="#DejaVuSans-53"/>
      </g>
     </g>
    </g>
    <g id="xtick_4">
     <g id="line2d_7">
      <path clip-path="url(#p071b055d5c)" d="M 256.667007 255.638708 
L 256.667007 25.44 
" style="fill:none;stroke:#b0b0b0;stroke-linecap:square;stroke-width:0.8;"/>
     </g>
     <g id="line2d_8">
      <g>
       <use style="stroke:#000000;stroke-width:0.8;" x="256.667007" xlink:href="#mb5e3ead7e3" y="255.638708"/>
      </g>
     </g>
     <g id="text_4">
      <!-- 2024-11-09 -->
      <g transform="translate(249.321614 319.848351)rotate(-70)scale(0.1 -0.1)">
       <use xlink:href="#DejaVuSans-50"/>
       <use x="63.623047" xlink:href="#DejaVuSans-48"/>
       <use x="127.246094" xlink:href="#DejaVuSans-50"/>
       <use x="190.869141" xlink:href="#DejaVuSans-52"/>
       <use x="254.492188" xlink:href="#DejaVuSans-45"/>
       <use x="290.576172" xlink:href="#DejaVuSans-49"/>
       <use x="354.199219" xlink:href="#DejaVuSans-49"/>
       <use x="417.822266" xlink:href="#DejaVuSans-45"/>
       <use x="453.90625" xlink:href="#DejaVuSans-48"/>
       <use x="517.529297" xlink:href="#DejaVuSans-57"/>
      </g>
     </g>
    </g>
    <g id="xtick_5">
     <g id="line2d_9">
      <path clip-path="url(#p071b055d5c)" d="M 323.752497 255.638708 
L 323.752497 25.44 
" style="fill:none;stroke:#b0b0b0;stroke-linecap:square;stroke-width:0.8;"/>
     </g>
     <g id="line2d_10">
      <g>
       <use style="stroke:#000000;stroke-width:0.8;" x="323.752497" xlink:href="#mb5e3ead7e3" y="255.638708"/>
      </g>
     </g>
     <g id="text_5">
      <!-- 2024-11-13 -->
      <g transform="translate(316.407104 319.848351)rotate(-70)scale(0.1 -0.1)">
       <defs>
        <path d="M 40.578125 39.3125 
Q 47.65625 37.796875 51.625 33 
Q 55.609375 28.21875 55.609375 21.1875 
Q 55.609375 10.40625 48.1875 4.484375 
Q 40.765625 -1.421875 27.09375 -1.421875 
Q 22.515625 -1.421875 17.65625 -0.515625 
Q 12.796875 0.390625 7.625 2.203125 
L 7.625 11.71875 
Q 11.71875 9.328125 16.59375 8.109375 
Q 21.484375 6.890625 26.8125 6.890625 
Q 36.078125 6.890625 40.9375 10.546875 
Q 45.796875 14.203125 45.796875 21.1875 
Q 45.796875 27.640625 41.28125 31.265625 
Q 36.765625 34.90625 28.71875 34.90625 
L 20.21875 34.90625 
L 20.21875 43.015625 
L 29.109375 43.015625 
Q 36.375 43.015625 40.234375 45.921875 
Q 44.09375 48.828125 44.09375 54.296875 
Q 44.09375 59.90625 40.109375 62.90625 
Q 36.140625 65.921875 28.71875 65.921875 
Q 24.65625 65.921875 20.015625 65.03125 
Q 15.375 64.15625 9.8125 62.3125 
L 9.8125 71.09375 
Q 15.4375 72.65625 20.34375 73.4375 
Q 25.25 74.21875 29.59375 74.21875 
Q 40.828125 74.21875 47.359375 69.109375 
Q 53.90625 64.015625 53.90625 55.328125 
Q 53.90625 49.265625 50.4375 45.09375 
Q 46.96875 40.921875 40.578125 39.3125 
z
" id="DejaVuSans-51"/>
       </defs>
       <use xlink:href="#DejaVuSans-50"/>
       <use x="63.623047" xlink:href="#DejaVuSans-48"/>
       <use x="127.246094" xlink:href="#DejaVuSans-50"/>
       <use x="190.869141" xlink:href="#DejaVuSans-52"/>
       <use x="254.492188" xlink:href="#DejaVuSans-45"/>
       <use x="290.576172" xlink:href="#DejaVuSans-49"/>
       <use x="354.199219" xlink:href="#DejaVuSans-49"/>
       <use x="417.822266" xlink:href="#DejaVuSans-45"/>
       <use x="453.90625" xlink:href="#DejaVuSans-49"/>
       <use x="517.529297" xlink:href="#DejaVuSans-51"/>
      </g>
     </g>
    </g>
    <g id="xtick_6">
     <g id="line2d_11">
      <path clip-path="url(#p071b055d5c)" d="M 390.837987 255.638708 
L 390.837987 25.44 
" style="fill:none;stroke:#b0b0b0;stroke-linecap:square;stroke-width:0.8;"/>
     </g>
     <g id="line2d_12">
      <g>
       <use style="stroke:#000000;stroke-width:0.8;" x="390.837987" xlink:href="#mb5e3ead7e3" y="255.638708"/>
      </g>
     </g>
     <g id="text_6">
      <!-- 2024-11-17 -->
      <g transform="translate(383.492594 319.848351)rotate(-70)scale(0.1 -0.1)">
       <defs>
        <path d="M 8.203125 72.90625 
L 55.078125 72.90625 
L 55.078125 68.703125 
L 28.609375 0 
L 18.3125 0 
L 43.21875 64.59375 
L 8.203125 64.59375 
z
" id="DejaVuSans-55"/>
       </defs>
       <use xlink:href="#DejaVuSans-50"/>
       <use x="63.623047" xlink:href="#DejaVuSans-48"/>
       <use x="127.246094" xlink:href="#DejaVuSans-50"/>
       <use x="190.869141" xlink:href="#DejaVuSans-52"/>
       <use x="254.492188" xlink:href="#DejaVuSans-45"/>
       <use x="290.576172" xlink:href="#DejaVuSans-49"/>
       <use x="354.199219" xlink:href="#DejaVuSans-49"/>
       <use x="417.822266" xlink:href="#DejaVuSans-45"/>
       <use x="453.90625" xlink:href="#DejaVuSans-49"/>
       <use x="517.529297" xlink:href="#DejaVuSans-55"/>
      </g>
     </g>
    </g>
    <g id="text_7">
     <!-- Date -->
     <g transform="translate(240.149219 332.158083)scale(0.1 -0.1)">
      <defs>
       <path d="M 19.671875 64.796875 
L 19.671875 8.109375 
L 31.59375 8.109375 
Q 46.6875 8.109375 53.6875 14.9375 
Q 60.6875 21.78125 60.6875 36.53125 
Q 60.6875 51.171875 53.6875 57.984375 
Q 46.6875 64.796875 31.59375 64.796875 
z
M 9.8125 72.90625 
L 30.078125 72.90625 
Q 51.265625 72.90625 61.171875 64.09375 
Q 71.09375 55.28125 71.09375 36.53125 
Q 71.09375 17.671875 61.125 8.828125 
Q 51.171875 0 30.078125 0 
L 9.8125 0 
z
" id="DejaVuSans-68"/>
       <path d="M 34.28125 27.484375 
Q 23.390625 27.484375 19.1875 25 
Q 14.984375 22.515625 14.984375 16.5 
Q 14.984375 11.71875 18.140625 8.90625 
Q 21.296875 6.109375 26.703125 6.109375 
Q 34.1875 6.109375 38.703125 11.40625 
Q 43.21875 16.703125 43.21875 25.484375 
L 43.21875 27.484375 
z
M 52.203125 31.203125 
L 52.203125 0 
L 43.21875 0 
L 43.21875 8.296875 
Q 40.140625 3.328125 35.546875 0.953125 
Q 30.953125 -1.421875 24.3125 -1.421875 
Q 15.921875 -1.421875 10.953125 3.296875 
Q 6 8.015625 6 15.921875 
Q 6 25.140625 12.171875 29.828125 
Q 18.359375 34.515625 30.609375 34.515625 
L 43.21875 34.515625 
L 43.21875 35.40625 
Q 43.21875 41.609375 39.140625 45 
Q 35.0625 48.390625 27.6875 48.390625 
Q 23 48.390625 18.546875 47.265625 
Q 14.109375 46.140625 10.015625 43.890625 
L 10.015625 52.203125 
Q 14.9375 54.109375 19.578125 55.046875 
Q 24.21875 56 28.609375 56 
Q 40.484375 56 46.34375 49.84375 
Q 52.203125 43.703125 52.203125 31.203125 
z
" id="DejaVuSans-97"/>
       <path d="M 18.3125 70.21875 
L 18.3125 54.6875 
L 36.8125 54.6875 
L 36.8125 47.703125 
L 18.3125 47.703125 
L 18.3125 18.015625 
Q 18.3125 11.328125 20.140625 9.421875 
Q 21.96875 7.515625 27.59375 7.515625 
L 36.8125 7.515625 
L 36.8125 0 
L 27.59375 0 
Q 17.1875 0 13.234375 3.875 
Q 9.28125 7.765625 9.28125 18.015625 
L 9.28125 47.703125 
L 2.6875 47.703125 
L 2.6875 54.6875 
L 9.28125 54.6875 
L 9.28125 70.21875 
z
" id="DejaVuSans-116"/>
       <path d="M 56.203125 29.59375 
L 56.203125 25.203125 
L 14.890625 25.203125 
Q 15.484375 15.921875 20.484375 11.0625 
Q 25.484375 6.203125 34.421875 6.203125 
Q 39.59375 6.203125 44.453125 7.46875 
Q 49.3125 8.734375 54.109375 11.28125 
L 54.109375 2.78125 
Q 49.265625 0.734375 44.1875 -0.34375 
Q 39.109375 -1.421875 33.890625 -1.421875 
Q 20.796875 -1.421875 13.15625 6.1875 
Q 5.515625 13.8125 5.515625 26.8125 
Q 5.515625 40.234375 12.765625 48.109375 
Q 20.015625 56 32.328125 56 
Q 43.359375 56 49.78125 48.890625 
Q 56.203125 41.796875 56.203125 29.59375 
z
M 47.21875 32.234375 
Q 47.125 39.59375 43.09375 43.984375 
Q 39.0625 48.390625 32.421875 48.390625 
Q 24.90625 48.390625 20.390625 44.140625 
Q 15.875 39.890625 15.1875 32.171875 
z
" id="DejaVuSans-101"/>
      </defs>
      <use xlink:href="#DejaVuSans-68"/>
      <use x="77.001953" xlink:href="#DejaVuSans-97"/>
      <use x="138.28125" xlink:href="#DejaVuSans-116"/>
      <use x="177.490234" xlink:href="#DejaVuSans-101"/>
     </g>
    </g>
   </g>
   <g id="matplotlib.axis_2">
    <g id="ytick_1">
     <g id="line2d_13">
      <path clip-path="url(#p071b055d5c)" d="M 54.2 249.904431 
L 450 249.904431 
" style="fill:none;stroke:#b0b0b0;stroke-linecap:square;stroke-width:0.8;"/>
     </g>
     <g id="line2d_14">
      <defs>
       <path d="M 0 0 
L -3.5 0 
" id="m75146541be" style="stroke:#000000;stroke-width:0.8;"/>
      </defs>
      <g>
       <use style="stroke:#000000;stroke-width:0.8;" x="54.2" xlink:href="#m75146541be" y="249.904431"/>
      </g>
     </g>
     <g id="text_8">
      <!-- 37.5 -->
      <g transform="translate(24.934375 253.70365)scale(0.1 -0.1)">
       <defs>
        <path d="M 10.6875 12.40625 
L 21 12.40625 
L 21 0 
L 10.6875 0 
z
" id="DejaVuSans-46"/>
       </defs>
       <use xlink:href="#DejaVuSans-51"/>
       <use x="63.623047" xlink:href="#DejaVuSans-55"/>
       <use x="127.246094" xlink:href="#DejaVuSans-46"/>
       <use x="159.033203" xlink:href="#DejaVuSans-53"/>
      </g>
     </g>
    </g>
    <g id="ytick_2">
     <g id="line2d_15">
      <path clip-path="url(#p071b055d5c)" d="M 54.2 220.346302 
L 450 220.346302 
" style="fill:none;stroke:#b0b0b0;stroke-linecap:square;stroke-width:0.8;"/>
     </g>
     <g id="line2d_16">
      <g>
       <use style="stroke:#000000;stroke-width:0.8;" x="54.2" xlink:href="#m75146541be" y="220.346302"/>
      </g>
     </g>
     <g id="text_9">
      <!-- 40.0 -->
      <g transform="translate(24.934375 224.145521)scale(0.1 -0.1)">
       <use xlink:href="#DejaVuSans-52"/>
       <use x="63.623047" xlink:href="#DejaVuSans-48"/>
       <use x="127.246094" xlink:href="#DejaVuSans-46"/>
       <use x="159.033203" xlink:href="#DejaVuSans-48"/>
      </g>
     </g>
    </g>
    <g id="ytick_3">
     <g id="line2d_17">
      <path clip-path="url(#p071b055d5c)" d="M 54.2 190.788173 
L 450 190.788173 
" style="fill:none;stroke:#b0b0b0;stroke-linecap:square;stroke-width:0.8;"/>
     </g>
     <g id="line2d_18">
      <g>
       <use style="stroke:#000000;stroke-width:0.8;" x="54.2" xlink:href="#m75146541be" y="190.788173"/>
      </g>
     </g>
     <g id="text_10">
      <!-- 42.5 -->
      <g transform="translate(24.934375 194.587392)scale(0.1 -0.1)">
       <use xlink:href="#DejaVuSans-52"/>
       <use x="63.623047" xlink:href="#DejaVuSans-50"/>
       <use x="127.246094" xlink:href="#DejaVuSans-46"/>
       <use x="159.033203" xlink:href="#DejaVuSans-53"/>
      </g>
     </g>
    </g>
    <g id="ytick_4">
     <g id="line2d_19">
      <path clip-path="url(#p071b055d5c)" d="M 54.2 161.230044 
L 450 161.230044 
" style="fill:none;stroke:#b0b0b0;stroke-linecap:square;stroke-width:0.8;"/>
     </g>
     <g id="line2d_20">
      <g>
       <use style="stroke:#000000;stroke-width:0.8;" x="54.2" xlink:href="#m75146541be" y="161.230044"/>
      </g>
     </g>
     <g id="text_11">
      <!-- 45.0 -->
      <g transform="translate(24.934375 165.029263)scale(0.1 -0.1)">
       <use xlink:href="#DejaVuSans-52"/>
       <use x="63.623047" xlink:href="#DejaVuSans-53"/>
       <use x="127.246094" xlink:href="#DejaVuSans-46"/>
       <use x="159.033203" xlink:href="#DejaVuSans-48"/>
      </g>
     </g>
    </g>
    <g id="ytick_5">
     <g id="line2d_21">
      <path clip-path="url(#p071b055d5c)" d="M 54.2 131.671915 
L 450 131.671915 
" style="fill:none;stroke:#b0b0b0;stroke-linecap:square;stroke-width:0.8;"/>
     </g>
     <g id="line2d_22">
      <g>
       <use style="stroke:#000000;stroke-width:0.8;" x="54.2" xlink:href="#m75146541be" y="131.671915"/>
      </g>
     </g>
     <g id="text_12">
      <!-- 47.5 -->
      <g transform="translate(24.934375 135.471134)scale(0.1 -0.1)">
       <use xlink:href="#DejaVuSans-52"/>
       <use x="63.623047" xlink:href="#DejaVuSans-55"/>
       <use x="127.246094" xlink:href="#DejaVuSans-46"/>
       <use x="159.033203" xlink:href="#DejaVuSans-53"/>
      </g>
     </g>
    </g>
    <g id="ytick_6">
     <g id="line2d_23">
      <path clip-path="url(#p071b055d5c)" d="M 54.2 102.113786 
L 450 102.113786 
" style="fill:none;stroke:#b0b0b0;stroke-linecap:square;stroke-width:0.8;"/>
     </g>
     <g id="line2d_24">
      <g>
       <use style="stroke:#000000;stroke-width:0.8;" x="54.2" xlink:href="#m75146541be" y="102.113786"/>
      </g>
     </g>
     <g id="text_13">
      <!-- 50.0 -->
      <g transform="translate(24.934375 105.913005)scale(0.1 -0.1)">
       <use xlink:href="#DejaVuSans-53"/>
       <use x="63.623047" xlink:href="#DejaVuSans-48"/>
       <use x="127.246094" xlink:href="#DejaVuSans-46"/>
       <use x="159.033203" xlink:href="#DejaVuSans-48"/>
      </g>
     </g>
    </g>
    <g id="ytick_7">
     <g id="line2d_25">
      <path clip-path="url(#p071b055d5c)" d="M 54.2 72.555657 
L 450 72.555657 
" style="fill:none;stroke:#b0b0b0;stroke-linecap:square;stroke-width:0.8;"/>
     </g>
     <g id="line2d_26">
      <g>
       <use style="stroke:#000000;stroke-width:0.8;" x="54.2" xlink:href="#m75146541be" y="72.555657"/>
      </g>
     </g>
     <g id="text_14">
      <!-- 52.5 -->
      <g transform="translate(24.934375 76.354876)scale(0.1 -0.1)">
       <use xlink:href="#DejaVuSans-53"/>
       <use x="63.623047" xlink:href="#DejaVuSans-50"/>
       <use x="127.246094" xlink:href="#DejaVuSans-46"/>
       <use x="159.033203" xlink:href="#DejaVuSans-53"/>
      </g>
     </g>
    </g>
    <g id="ytick_8">
     <g id="line2d_27">
      <path clip-path="url(#p071b055d5c)" d="M 54.2 42.997529 
L 450 42.997529 
" style="fill:none;stroke:#b0b0b0;stroke-linecap:square;stroke-width:0.8;"/>
     </g>
     <g id="line2d_28">
      <g>
       <use style="stroke:#000000;stroke-width:0.8;" x="54.2" xlink:href="#m75146541be" y="42.997529"/>
      </g>
     </g>
     <g id="text_15">
      <!-- 55.0 -->
      <g transform="translate(24.934375 46.796747)scale(0.1 -0.1)">
       <use xlink:href="#DejaVuSans-53"/>
       <use x="63.623047" xlink:href="#DejaVuSans-53"/>
       <use x="127.246094" xlink:href="#DejaVuSans-46"/>
       <use x="159.033203" xlink:href="#DejaVuSans-48"/>
      </g>
     </g>
    </g>
    <g id="text_16">
     <!-- Temperature [F] -->
     <g transform="translate(18.854688 180.575291)rotate(-90)scale(0.1 -0.1)">
      <defs>
       <path d="M -0.296875 72.90625 
L 61.375 72.90625 
L 61.375 64.59375 
L 35.5 64.59375 
L 35.5 0 
L 25.59375 0 
L 25.59375 64.59375 
L -0.296875 64.59375 
z
" id="DejaVuSans-84"/>
       <path d="M 52 44.1875 
Q 55.375 50.25 60.0625 53.125 
Q 64.75 56 71.09375 56 
Q 79.640625 56 84.28125 50.015625 
Q 88.921875 44.046875 88.921875 33.015625 
L 88.921875 0 
L 79.890625 0 
L 79.890625 32.71875 
Q 79.890625 40.578125 77.09375 44.375 
Q 74.3125 48.1875 68.609375 48.1875 
Q 61.625 48.1875 57.5625 43.546875 
Q 53.515625 38.921875 53.515625 30.90625 
L 53.515625 0 
L 44.484375 0 
L 44.484375 32.71875 
Q 44.484375 40.625 41.703125 44.40625 
Q 38.921875 48.1875 33.109375 48.1875 
Q 26.21875 48.1875 22.15625 43.53125 
Q 18.109375 38.875 18.109375 30.90625 
L 18.109375 0 
L 9.078125 0 
L 9.078125 54.6875 
L 18.109375 54.6875 
L 18.109375 46.1875 
Q 21.1875 51.21875 25.484375 53.609375 
Q 29.78125 56 35.6875 56 
Q 41.65625 56 45.828125 52.96875 
Q 50 49.953125 52 44.1875 
z
" id="DejaVuSans-109"/>
       <path d="M 18.109375 8.203125 
L 18.109375 -20.796875 
L 9.078125 -20.796875 
L 9.078125 54.6875 
L 18.109375 54.6875 
L 18.109375 46.390625 
Q 20.953125 51.265625 25.265625 53.625 
Q 29.59375 56 35.59375 56 
Q 45.5625 56 51.78125 48.09375 
Q 58.015625 40.1875 58.015625 27.296875 
Q 58.015625 14.40625 51.78125 6.484375 
Q 45.5625 -1.421875 35.59375 -1.421875 
Q 29.59375 -1.421875 25.265625 0.953125 
Q 20.953125 3.328125 18.109375 8.203125 
z
M 48.6875 27.296875 
Q 48.6875 37.203125 44.609375 42.84375 
Q 40.53125 48.484375 33.40625 48.484375 
Q 26.265625 48.484375 22.1875 42.84375 
Q 18.109375 37.203125 18.109375 27.296875 
Q 18.109375 17.390625 22.1875 11.75 
Q 26.265625 6.109375 33.40625 6.109375 
Q 40.53125 6.109375 44.609375 11.75 
Q 48.6875 17.390625 48.6875 27.296875 
z
" id="DejaVuSans-112"/>
       <path d="M 41.109375 46.296875 
Q 39.59375 47.171875 37.8125 47.578125 
Q 36.03125 48 33.890625 48 
Q 26.265625 48 22.1875 43.046875 
Q 18.109375 38.09375 18.109375 28.8125 
L 18.109375 0 
L 9.078125 0 
L 9.078125 54.6875 
L 18.109375 54.6875 
L 18.109375 46.1875 
Q 20.953125 51.171875 25.484375 53.578125 
Q 30.03125 56 36.53125 56 
Q 37.453125 56 38.578125 55.875 
Q 39.703125 55.765625 41.0625 55.515625 
z
" id="DejaVuSans-114"/>
       <path d="M 8.5 21.578125 
L 8.5 54.6875 
L 17.484375 54.6875 
L 17.484375 21.921875 
Q 17.484375 14.15625 20.5 10.265625 
Q 23.53125 6.390625 29.59375 6.390625 
Q 36.859375 6.390625 41.078125 11.03125 
Q 45.3125 15.671875 45.3125 23.6875 
L 45.3125 54.6875 
L 54.296875 54.6875 
L 54.296875 0 
L 45.3125 0 
L 45.3125 8.40625 
Q 42.046875 3.421875 37.71875 1 
Q 33.40625 -1.421875 27.6875 -1.421875 
Q 18.265625 -1.421875 13.375 4.4375 
Q 8.5 10.296875 8.5 21.578125 
z
M 31.109375 56 
z
" id="DejaVuSans-117"/>
       <path id="DejaVuSans-32"/>
       <path d="M 8.59375 75.984375 
L 29.296875 75.984375 
L 29.296875 69 
L 17.578125 69 
L 17.578125 -6.203125 
L 29.296875 -6.203125 
L 29.296875 -13.1875 
L 8.59375 -13.1875 
z
" id="DejaVuSans-91"/>
       <path d="M 9.8125 72.90625 
L 51.703125 72.90625 
L 51.703125 64.59375 
L 19.671875 64.59375 
L 19.671875 43.109375 
L 48.578125 43.109375 
L 48.578125 34.8125 
L 19.671875 34.8125 
L 19.671875 0 
L 9.8125 0 
z
" id="DejaVuSans-70"/>
       <path d="M 30.421875 75.984375 
L 30.421875 -13.1875 
L 9.71875 -13.1875 
L 9.71875 -6.203125 
L 21.390625 -6.203125 
L 21.390625 69 
L 9.71875 69 
L 9.71875 75.984375 
z
" id="DejaVuSans-93"/>
      </defs>
      <use xlink:href="#DejaVuSans-84"/>
      <use x="44.083984" xlink:href="#DejaVuSans-101"/>
      <use x="105.607422" xlink:href="#DejaVuSans-109"/>
      <use x="203.019531" xlink:href="#DejaVuSans-112"/>
      <use x="266.496094" xlink:href="#DejaVuSans-101"/>
      <use x="328.019531" xlink:href="#DejaVuSans-114"/>
      <use x="369.132812" xlink:href="#DejaVuSans-97"/>
      <use x="430.412109" xlink:href="#DejaVuSans-116"/>
      <use x="469.621094" xlink:href="#DejaVuSans-117"/>
      <use x="533" xlink:href="#DejaVuSans-114"/>
      <use x="571.863281" xlink:href="#DejaVuSans-101"/>
      <use x="633.386719" xlink:href="#DejaVuSans-32"/>
      <use x="665.173828" xlink:href="#DejaVuSans-91"/>
      <use x="704.1875" xlink:href="#DejaVuSans-70"/>
      <use x="761.707031" xlink:href="#DejaVuSans-93"/>
     </g>
    </g>
   </g>
   <g id="line2d_29">
    <path clip-path="url(#p071b055d5c)" d="M 72.190909 41.815203 
L 72.312805 41.815203 
L 72.324853 40.632878 
L 72.421887 41.815203 
L 72.506891 41.815203 
L 72.51953 42.997529 
L 72.616448 41.815203 
L 72.909502 41.815203 
L 73.030096 42.997529 
L 73.115133 42.997529 
L 73.211513 41.815203 
L 73.223818 42.997529 
L 73.247911 42.997529 
L 73.333504 41.815203 
L 73.357636 42.997529 
L 73.540828 42.997529 
L 73.654364 45.362179 
L 73.702632 42.997529 
L 73.751082 45.362179 
L 73.855684 45.362179 
L 73.88027 42.997529 
L 73.965845 45.362179 
L 74.002398 45.362179 
L 74.09989 42.997529 
L 74.112175 45.362179 
L 74.124579 45.362179 
L 74.222115 42.997529 
L 74.23418 45.362179 
L 74.246544 45.362179 
L 74.369775 42.997529 
L 74.479505 42.997529 
L 74.491661 45.362179 
L 74.588922 42.997529 
L 74.822273 42.997529 
L 74.870934 45.362179 
L 74.932513 42.997529 
L 74.969124 42.997529 
L 75.054919 45.362179 
L 75.079445 42.997529 
L 75.276471 42.997529 
L 75.398638 45.362179 
L 75.422927 45.362179 
L 75.545575 42.997529 
L 75.558015 42.997529 
L 75.680975 45.362179 
L 75.755246 45.362179 
L 75.817414 42.997529 
L 75.854331 45.362179 
L 75.916883 45.362179 
L 75.9298 42.997529 
L 76.018931 45.362179 
L 76.032053 45.362179 
L 76.107629 42.997529 
L 76.132115 45.362179 
L 76.182241 45.362179 
L 76.194289 42.997529 
L 76.218968 45.362179 
L 76.317717 45.362179 
L 76.354145 42.997529 
L 76.417787 45.362179 
L 76.479367 45.362179 
L 76.55289 42.997529 
L 76.589568 45.362179 
L 76.663159 45.362179 
L 76.72446 42.997529 
L 76.773676 45.362179 
L 77.121409 45.362179 
L 77.239797 46.544504 
L 77.276075 45.362179 
L 77.348605 46.544504 
L 77.762008 46.544504 
L 77.835754 47.726829 
L 77.861282 46.544504 
L 78.312458 46.544504 
L 78.348614 45.362179 
L 78.42161 46.544504 
L 78.768881 46.544504 
L 78.781173 45.362179 
L 78.867951 46.544504 
L 78.880222 46.544504 
L 79.002903 45.362179 
L 79.124868 46.544504 
L 79.246872 45.362179 
L 79.283865 45.362179 
L 79.405598 42.997529 
L 79.528074 42.997529 
L 79.540162 41.815203 
L 79.637979 42.997529 
L 79.677486 42.997529 
L 79.776428 41.815203 
L 79.899283 42.997529 
L 79.947775 42.997529 
L 79.959935 41.815203 
L 80.056973 42.997529 
L 80.291133 42.997529 
L 80.339603 41.815203 
L 80.400935 42.997529 
L 80.437422 42.997529 
L 80.547014 41.815203 
L 80.917541 41.815203 
L 81.464214 40.632878 
L 81.708011 40.632878 
L 81.818681 39.450553 
L 82.226353 39.450553 
L 82.338335 38.268228 
L 82.435688 38.268228 
L 82.570155 35.903578 
L 82.6918 37.085903 
L 83.011433 37.085903 
L 83.023516 35.903578 
L 83.120835 37.085903 
L 83.145046 37.085903 
L 83.26685 35.903578 
L 83.303001 35.903578 
L 83.426548 38.268228 
L 83.450718 38.268228 
L 83.463006 37.085903 
L 83.56148 38.268228 
L 83.736975 38.268228 
L 83.833913 39.450553 
L 83.846413 38.268228 
L 83.88313 38.268228 
L 83.997269 39.450553 
L 84.267994 39.450553 
L 84.367467 40.632878 
L 84.428484 39.450553 
L 84.477395 40.632878 
L 84.673634 40.632878 
L 84.685682 39.450553 
L 84.773594 40.632878 
L 85.095053 40.632878 
L 85.207954 41.815203 
L 85.260867 41.815203 
L 85.309741 40.632878 
L 85.359974 41.815203 
L 85.57235 41.815203 
L 85.682587 42.997529 
L 85.756652 41.815203 
L 85.781956 42.997529 
L 85.80718 42.997529 
L 85.820299 41.815203 
L 85.918059 42.997529 
L 86.017295 42.997529 
L 86.029445 45.362179 
L 86.093294 42.997529 
L 86.21805 42.997529 
L 86.330119 45.362179 
L 86.366406 45.362179 
L 86.489447 42.997529 
L 86.611482 45.362179 
L 86.831501 45.362179 
L 86.843575 46.544504 
L 86.9409 45.362179 
L 87.677038 45.362179 
L 87.787435 46.544504 
L 87.897594 45.362179 
L 87.973805 46.544504 
L 87.998277 45.362179 
L 88.0596 45.362179 
L 88.182681 46.544504 
L 88.219532 46.544504 
L 88.231537 45.362179 
L 88.329862 46.544504 
L 88.355173 46.544504 
L 88.469865 45.362179 
L 88.508806 45.362179 
L 88.623242 46.544504 
L 88.808218 46.544504 
L 88.88156 45.362179 
L 88.917827 46.544504 
L 89.186958 46.544504 
L 89.199563 47.726829 
L 89.297874 46.544504 
L 89.421322 46.544504 
L 89.433577 47.726829 
L 89.53116 46.544504 
L 89.713776 46.544504 
L 89.738482 47.726829 
L 89.824469 46.544504 
L 89.848558 46.544504 
L 89.971598 47.726829 
L 89.996171 47.726829 
L 90.11801 46.544504 
L 90.239747 47.726829 
L 90.251791 47.726829 
L 90.276528 46.544504 
L 90.349149 47.726829 
L 90.388671 47.726829 
L 90.510833 46.544504 
L 90.626751 47.726829 
L 90.761758 47.726829 
L 90.871195 48.909154 
L 90.991993 47.726829 
L 91.004242 47.726829 
L 91.116985 48.909154 
L 91.165845 48.909154 
L 91.203649 47.726829 
L 91.276722 48.909154 
L 91.755926 48.909154 
L 91.804626 50.09148 
L 91.865847 48.909154 
L 91.877892 48.909154 
L 91.988204 50.09148 
L 92.111132 48.909154 
L 92.135264 48.909154 
L 92.258143 50.09148 
L 92.4856 50.09148 
L 92.612111 48.909154 
L 92.683242 50.09148 
L 92.711388 48.909154 
L 92.788671 48.909154 
L 92.904713 50.09148 
L 92.96439 50.09148 
L 93.06419 48.909154 
L 93.151562 50.09148 
L 93.677253 50.09148 
L 93.792086 51.273805 
L 93.973538 51.273805 
L 93.998048 52.45613 
L 94.076716 51.273805 
L 94.144804 51.273805 
L 94.195869 52.45613 
L 94.244368 51.273805 
L 94.256387 51.273805 
L 94.378463 52.45613 
L 94.550022 52.45613 
L 94.6472 51.273805 
L 94.659288 52.45613 
L 94.928067 52.45613 
L 95.049804 51.273805 
L 95.061836 51.273805 
L 95.185247 52.45613 
L 95.283479 52.45613 
L 95.39662 51.273805 
L 95.537769 51.273805 
L 95.637495 52.45613 
L 95.758189 51.273805 
L 96.427056 51.273805 
L 96.439231 52.45613 
L 96.526514 51.273805 
L 96.70113 51.273805 
L 96.713641 52.45613 
L 96.803201 51.273805 
L 96.965695 51.273805 
L 96.977946 52.45613 
L 97.067675 51.273805 
L 97.128781 51.273805 
L 97.141546 50.09148 
L 97.238534 51.273805 
L 97.396717 51.273805 
L 97.408778 52.45613 
L 97.506047 51.273805 
L 97.809589 51.273805 
L 97.838707 52.45613 
L 97.915327 51.273805 
L 98.680695 52.45613 
L 99.489489 52.45613 
L 99.501743 51.273805 
L 99.588802 52.45613 
L 100.411874 52.45613 
L 100.472618 54.82078 
L 100.521022 52.45613 
L 100.545068 52.45613 
L 100.557257 54.82078 
L 100.65529 52.45613 
L 100.777217 52.45613 
L 100.874424 54.82078 
L 100.886469 52.45613 
L 100.922905 52.45613 
L 101.045685 54.82078 
L 101.156843 52.45613 
L 101.2796 54.82078 
L 101.392879 52.45613 
L 101.528275 52.45613 
L 101.624795 54.82078 
L 101.638468 52.45613 
L 101.758448 54.82078 
L 102.601459 56.003105 
L 102.714949 56.003105 
L 102.763842 57.18543 
L 103.168072 56.003105 
L 103.282842 57.18543 
L 103.407792 56.003105 
L 103.459361 57.18543 
L 103.509604 56.003105 
L 103.584613 56.003105 
L 103.622794 57.18543 
L 103.684523 56.003105 
L 103.761648 56.003105 
L 103.883349 57.18543 
L 103.896056 57.18543 
L 103.948081 56.003105 
L 103.997059 57.18543 
L 104.40937 57.18543 
L 104.509711 58.367756 
L 104.620428 57.18543 
L 104.646015 57.18543 
L 104.75631 58.367756 
L 104.877443 57.18543 
L 104.914344 58.367756 
L 104.987525 57.18543 
L 104.999577 57.18543 
L 105.047878 58.367756 
L 105.108651 57.18543 
L 105.132745 57.18543 
L 105.253966 58.367756 
L 105.266325 58.367756 
L 105.374892 57.18543 
L 105.488277 58.367756 
L 105.516224 58.367756 
L 105.639061 59.550081 
L 105.675837 59.550081 
L 105.725404 58.367756 
L 105.786482 59.550081 
L 105.835688 59.550081 
L 105.860219 60.732406 
L 105.872234 58.367756 
L 105.933971 58.367756 
L 106.018687 58.367756 
L 106.030731 59.550081 
L 106.127457 58.367756 
L 106.393524 58.367756 
L 106.454275 60.732406 
L 106.508935 59.550081 
L 106.630168 58.367756 
L 106.763284 58.367756 
L 106.883811 59.550081 
L 106.99295 58.367756 
L 107.004988 59.550081 
L 107.1015 58.367756 
L 107.113527 58.367756 
L 107.264514 59.550081 
L 107.276957 59.550081 
L 107.28916 58.367756 
L 107.38251 59.550081 
L 107.421911 59.550081 
L 107.446914 60.732406 
L 107.471131 58.367756 
L 107.531948 59.550081 
L 107.556557 58.367756 
L 107.642447 59.550081 
L 108.179273 59.550081 
L 108.20354 60.732406 
L 108.289711 59.550081 
L 108.412281 59.550081 
L 108.536261 61.914731 
L 108.64862 60.732406 
L 108.660842 61.914731 
L 108.759252 60.732406 
L 109.080759 60.732406 
L 109.192778 61.914731 
L 109.221132 61.914731 
L 109.342482 63.097056 
L 109.460292 60.732406 
L 109.556486 60.732406 
L 109.669839 61.914731 
L 109.978455 61.914731 
L 109.992365 60.732406 
L 110.08395 61.914731 
L 110.175161 61.914731 
L 110.315113 60.732406 
L 110.640439 60.732406 
L 110.679962 59.550081 
L 110.741453 60.732406 
L 111.01068 60.732406 
L 111.023289 61.914731 
L 111.119099 60.732406 
L 111.423919 60.732406 
L 111.437137 61.914731 
L 111.521219 60.732406 
L 111.648912 60.732406 
L 111.774133 61.914731 
L 111.830672 61.914731 
L 111.900954 60.732406 
L 111.91431 61.914731 
L 112.036528 60.732406 
L 112.159118 61.914731 
L 112.274837 60.732406 
L 112.313405 60.732406 
L 112.413469 61.914731 
L 112.524782 60.732406 
L 112.550545 60.732406 
L 112.655934 61.914731 
L 112.745197 60.732406 
L 112.757202 61.914731 
L 112.83614 61.914731 
L 112.946891 60.732406 
L 113.325961 60.732406 
L 113.439855 59.550081 
L 113.882684 59.550081 
L 114.004417 58.367756 
L 114.016436 58.367756 
L 114.028501 59.550081 
L 114.123461 58.367756 
L 114.136449 58.367756 
L 114.148682 59.550081 
L 114.245374 58.367756 
L 114.506826 58.367756 
L 114.621476 57.18543 
L 114.633759 57.18543 
L 114.742928 58.367756 
L 114.865609 57.18543 
L 114.939555 57.18543 
L 115.062165 56.003105 
L 115.074215 56.003105 
L 115.195984 57.18543 
L 115.256684 57.18543 
L 115.379886 56.003105 
L 115.530008 56.003105 
L 115.641117 54.82078 
L 115.702179 54.82078 
L 115.813122 52.45613 
L 115.825853 52.45613 
L 115.850502 54.82078 
L 115.936525 52.45613 
L 115.998089 52.45613 
L 116.023002 54.82078 
L 116.345801 54.82078 
L 116.401046 52.45613 
L 116.414896 54.82078 
L 116.462114 54.82078 
L 116.577916 52.45613 
L 116.605367 52.45613 
L 116.701682 54.82078 
L 116.713772 52.45613 
L 116.786136 52.45613 
L 116.897804 56.003105 
L 117.013526 54.82078 
L 117.113839 56.003105 
L 117.165054 56.003105 
L 117.258144 54.82078 
L 117.273339 56.003105 
L 117.285407 56.003105 
L 117.340082 54.82078 
L 117.379463 56.003105 
L 117.459758 56.003105 
L 117.471804 54.82078 
L 117.570349 56.003105 
L 117.829629 56.003105 
L 117.941065 57.18543 
L 118.026419 56.003105 
L 118.05071 57.18543 
L 118.368213 57.18543 
L 118.380613 58.367756 
L 118.4772 57.18543 
L 118.490019 57.18543 
L 118.514383 58.367756 
L 118.588694 57.18543 
L 118.762806 57.18543 
L 118.840965 58.367756 
L 118.867346 57.18543 
L 118.977394 57.18543 
L 119.0998 58.367756 
L 119.111885 57.18543 
L 119.209493 58.367756 
L 119.615338 58.367756 
L 119.627816 59.550081 
L 119.726372 58.367756 
L 119.800428 58.367756 
L 119.914649 59.550081 
L 120.231768 59.550081 
L 120.244225 58.367756 
L 120.34141 59.550081 
L 120.532881 59.550081 
L 120.595688 60.732406 
L 120.632594 59.550081 
L 120.670147 59.550081 
L 120.783767 60.732406 
L 120.896869 59.550081 
L 120.909432 59.550081 
L 121.024919 60.732406 
L 121.049889 60.732406 
L 121.152328 59.550081 
L 121.164737 60.732406 
L 121.25219 59.550081 
L 121.313183 59.550081 
L 121.426814 60.732406 
L 121.450974 60.732406 
L 121.573456 59.550081 
L 121.585572 59.550081 
L 121.709089 60.732406 
L 121.721233 59.550081 
L 121.819351 60.732406 
L 121.921066 60.732406 
L 122.045849 61.914731 
L 122.384015 61.914731 
L 122.496281 60.732406 
L 122.570662 60.732406 
L 122.583005 61.914731 
L 122.680733 60.732406 
L 122.729718 60.732406 
L 122.815192 61.914731 
L 122.839206 60.732406 
L 122.93601 60.732406 
L 123.058334 61.914731 
L 123.181451 61.914731 
L 123.290699 63.097056 
L 123.4132 61.914731 
L 124.016417 61.914731 
L 124.028541 60.732406 
L 124.119527 61.914731 
L 124.250408 61.914731 
L 124.349625 63.097056 
L 124.460042 61.914731 
L 124.573126 63.097056 
L 124.695669 61.914731 
L 124.708305 61.914731 
L 124.830848 63.097056 
L 124.904182 63.097056 
L 125.027538 64.279381 
L 125.15026 63.097056 
L 125.297176 63.097056 
L 125.309225 64.279381 
L 125.406844 63.097056 
L 125.480185 63.097056 
L 125.504302 64.279381 
L 125.590543 63.097056 
L 125.650931 63.097056 
L 125.73593 64.279381 
L 125.760596 63.097056 
L 125.858374 63.097056 
L 125.980496 64.279381 
L 126.312315 64.279381 
L 126.435094 63.097056 
L 126.471984 63.097056 
L 126.581294 64.279381 
L 126.691471 63.097056 
L 126.802173 64.279381 
L 127.046681 64.279381 
L 127.058875 66.644032 
L 127.137083 64.279381 
L 127.530438 64.279381 
L 127.5434 66.644032 
L 127.633776 64.279381 
L 127.671584 64.279381 
L 127.780274 66.644032 
L 127.901722 64.279381 
L 128.133294 64.279381 
L 128.255225 66.644032 
L 128.388719 66.644032 
L 128.510892 67.826357 
L 128.52293 67.826357 
L 128.632023 66.644032 
L 128.683722 66.644032 
L 128.695909 67.826357 
L 128.784838 66.644032 
L 128.860788 64.279381 
L 128.873289 66.644032 
L 129.307929 66.644032 
L 129.40936 64.279381 
L 129.524856 66.644032 
L 129.637057 64.279381 
L 129.75282 66.644032 
L 129.870624 64.279381 
L 129.884479 64.279381 
L 129.974951 66.644032 
L 129.989241 64.279381 
L 130.003236 64.279381 
L 130.032062 66.644032 
L 130.097421 64.279381 
L 130.132837 64.279381 
L 130.253626 66.644032 
L 130.374388 64.279381 
L 130.387524 66.644032 
L 130.484024 64.279381 
L 130.63787 64.279381 
L 130.752047 63.097056 
L 130.863784 64.279381 
L 130.979973 63.097056 
L 131.045256 63.097056 
L 131.160947 64.279381 
L 131.282189 63.097056 
L 131.368848 64.279381 
L 131.381789 63.097056 
L 131.481439 64.279381 
L 131.59307 63.097056 
L 131.704278 64.279381 
L 131.752686 64.279381 
L 131.826706 63.097056 
L 131.851754 64.279381 
L 132.774896 64.279381 
L 132.811988 63.097056 
L 132.877697 64.279381 
L 133.178867 64.279381 
L 133.191303 66.644032 
L 133.289877 64.279381 
L 133.620362 64.279381 
L 133.668831 66.644032 
L 133.705997 64.279381 
L 134.183214 64.279381 
L 134.195697 63.097056 
L 134.293854 64.279381 
L 134.650629 64.279381 
L 134.738819 66.644032 
L 134.750861 64.279381 
L 134.878074 64.279381 
L 134.926459 66.644032 
L 134.964544 64.279381 
L 134.992368 64.279381 
L 135.116128 66.644032 
L 135.201941 66.644032 
L 135.214358 64.279381 
L 135.301622 66.644032 
L 135.630953 66.644032 
L 135.643198 64.279381 
L 135.729907 66.644032 
L 135.791723 66.644032 
L 135.804187 64.279381 
L 135.893504 66.644032 
L 136.817035 66.644032 
L 136.841179 67.826357 
L 136.92705 66.644032 
L 137.106371 66.644032 
L 137.249849 67.826357 
L 137.272134 66.644032 
L 137.339242 67.826357 
L 137.72658 67.826357 
L 137.804127 66.644032 
L 137.940055 67.826357 
L 137.952455 66.644032 
L 138.049534 67.826357 
L 138.18287 67.826357 
L 138.194997 69.008682 
L 138.293232 67.826357 
L 138.317481 67.826357 
L 138.402154 66.644032 
L 138.426348 67.826357 
L 138.660325 67.826357 
L 138.781812 69.008682 
L 138.893647 67.826357 
L 139.0407 67.826357 
L 139.149578 69.008682 
L 139.223608 67.826357 
L 139.260593 69.008682 
L 139.320997 69.008682 
L 139.443492 67.826357 
L 139.565058 69.008682 
L 139.66246 67.826357 
L 139.674503 69.008682 
L 140.197263 69.008682 
L 140.294158 70.191007 
L 140.306178 69.008682 
L 140.585917 69.008682 
L 140.598163 70.191007 
L 140.658759 69.008682 
L 140.698363 69.008682 
L 140.710738 70.191007 
L 140.808153 69.008682 
L 140.873493 69.008682 
L 140.985096 70.191007 
L 141.058207 70.191007 
L 141.179967 69.008682 
L 141.241038 70.191007 
L 141.289315 69.008682 
L 141.544591 69.008682 
L 141.581259 70.191007 
L 141.654127 69.008682 
L 141.800546 69.008682 
L 141.899495 70.191007 
L 141.911534 69.008682 
L 141.948268 69.008682 
L 142.009189 70.191007 
L 142.058141 69.008682 
L 142.070187 69.008682 
L 142.192607 70.191007 
L 142.228864 70.191007 
L 142.350949 69.008682 
L 142.363035 69.008682 
L 142.48568 70.191007 
L 142.582412 69.008682 
L 142.594981 70.191007 
L 142.631731 70.191007 
L 142.729851 69.008682 
L 142.741898 70.191007 
L 143.275963 70.191007 
L 143.288627 69.008682 
L 143.374994 70.191007 
L 143.584024 70.191007 
L 143.695045 71.373332 
L 143.770584 70.191007 
L 143.796264 71.373332 
L 143.821041 71.373332 
L 143.833403 70.191007 
L 143.92087 71.373332 
L 144.546206 71.373332 
L 144.65489 70.191007 
L 144.776306 71.373332 
L 144.788747 71.373332 
L 144.911503 70.191007 
L 144.959853 70.191007 
L 144.996666 71.373332 
L 145.069076 70.191007 
L 145.437704 70.191007 
L 145.449753 71.373332 
L 145.548476 70.191007 
L 146.392433 70.191007 
L 146.457379 69.008682 
L 146.493631 70.191007 
L 146.505851 70.191007 
L 146.61563 69.008682 
L 146.665289 70.191007 
L 146.726479 69.008682 
L 147.241496 69.008682 
L 147.278683 67.826357 
L 147.340646 69.008682 
L 147.364738 69.008682 
L 147.487183 67.826357 
L 147.499271 67.826357 
L 147.611295 69.008682 
L 147.623503 69.008682 
L 147.746068 67.826357 
L 147.758306 67.826357 
L 147.79484 69.008682 
L 147.868822 67.826357 
L 147.893894 67.826357 
L 148.014927 66.644032 
L 148.101233 67.826357 
L 148.125816 66.644032 
L 148.211477 66.644032 
L 148.223756 67.826357 
L 148.32139 66.644032 
L 148.492775 66.644032 
L 148.604246 64.279381 
L 148.863967 64.279381 
L 148.986567 63.097056 
L 149.060154 63.097056 
L 149.171963 61.914731 
L 149.29411 63.097056 
L 149.415878 61.914731 
L 149.573761 61.914731 
L 149.586907 63.097056 
L 149.684818 61.914731 
L 149.745968 61.914731 
L 149.868001 63.097056 
L 149.892263 63.097056 
L 150.01503 61.914731 
L 150.040981 61.914731 
L 150.162543 63.097056 
L 150.186684 63.097056 
L 150.198848 61.914731 
L 150.295761 63.097056 
L 150.601451 63.097056 
L 150.613924 64.279381 
L 150.711876 63.097056 
L 150.835171 63.097056 
L 150.944487 64.279381 
L 151.065933 63.097056 
L 151.090228 63.097056 
L 151.201981 64.279381 
L 151.31282 64.279381 
L 151.324879 63.097056 
L 151.422504 64.279381 
L 151.495389 64.279381 
L 151.55617 63.097056 
L 151.60497 64.279381 
L 152.179302 64.279381 
L 152.301669 66.644032 
L 152.338008 66.644032 
L 152.459663 64.279381 
L 152.582782 66.644032 
L 152.643843 64.279381 
L 152.692702 66.644032 
L 152.704906 66.644032 
L 152.71803 64.279381 
L 152.815705 66.644032 
L 153.138267 66.644032 
L 153.162957 67.826357 
L 153.247797 66.644032 
L 153.358292 66.644032 
L 153.445472 67.826357 
L 153.458336 66.644032 
L 153.508506 66.644032 
L 153.631622 67.826357 
L 153.753176 66.644032 
L 153.864708 67.826357 
L 154.098945 67.826357 
L 154.110968 69.008682 
L 154.208728 67.826357 
L 154.232884 67.826357 
L 154.343251 69.008682 
L 154.355325 67.826357 
L 154.453246 69.008682 
L 154.490088 69.008682 
L 154.502135 67.826357 
L 154.587728 69.008682 
L 154.71067 70.191007 
L 154.809257 69.008682 
L 154.821298 70.191007 
L 154.833375 70.191007 
L 154.955616 69.008682 
L 155.360244 69.008682 
L 155.433632 67.826357 
L 155.47076 69.008682 
L 155.531784 69.008682 
L 155.544437 67.826357 
L 155.641547 69.008682 
L 155.885479 69.008682 
L 156.007649 70.191007 
L 156.050288 70.191007 
L 156.171657 69.008682 
L 156.183724 69.008682 
L 156.281837 70.191007 
L 156.293881 69.008682 
L 156.330616 69.008682 
L 156.418077 70.191007 
L 156.430114 69.008682 
L 156.541906 69.008682 
L 156.554316 70.191007 
L 156.652108 69.008682 
L 156.762197 69.008682 
L 156.860256 70.191007 
L 156.872314 69.008682 
L 157.057456 69.008682 
L 157.069516 70.191007 
L 157.16702 69.008682 
L 157.400406 69.008682 
L 157.412547 70.191007 
L 157.424645 69.008682 
L 156.738102 69.008682 
L 156.799525 69.008682 
L 156.910198 70.191007 
L 156.971904 70.191007 
L 157.094461 69.008682 
L 157.216236 70.191007 
L 157.240717 70.191007 
L 157.301511 69.008682 
L 157.349966 70.191007 
L 157.435318 70.191007 
L 157.475723 69.008682 
L 157.536733 70.191007 
L 158.016855 70.191007 
L 158.102266 69.008682 
L 158.126559 70.191007 
L 158.542705 70.191007 
L 158.664168 69.008682 
L 158.785647 70.191007 
L 158.797677 70.191007 
L 158.919344 69.008682 
L 159.041632 70.191007 
L 159.090531 70.191007 
L 159.202474 69.008682 
L 159.313118 70.191007 
L 159.337526 69.008682 
L 159.422874 70.191007 
L 159.911032 70.191007 
L 160.033152 71.373332 
L 160.154309 70.191007 
L 160.276413 71.373332 
L 160.300975 71.373332 
L 160.313053 70.191007 
L 160.410026 71.373332 
L 160.495295 71.373332 
L 160.519389 72.555657 
L 160.603915 71.373332 
L 161.044751 71.373332 
L 161.056794 70.191007 
L 161.144781 71.373332 
L 161.748566 71.373332 
L 161.809276 70.191007 
L 161.857932 71.373332 
L 161.882204 71.373332 
L 161.995105 70.191007 
L 162.032575 70.191007 
L 162.153211 71.373332 
L 162.298653 70.191007 
L 162.408298 71.373332 
L 162.530539 70.191007 
L 162.663601 70.191007 
L 162.67561 71.373332 
L 162.772768 70.191007 
L 163.236709 70.191007 
L 163.345875 69.008682 
L 163.458299 70.191007 
L 163.494521 70.191007 
L 163.568337 69.008682 
L 163.605304 70.191007 
L 163.645906 70.191007 
L 163.694251 69.008682 
L 163.74256 70.191007 
L 163.782538 70.191007 
L 163.904096 69.008682 
L 164.134649 69.008682 
L 164.208876 67.826357 
L 164.233775 69.008682 
L 164.245837 69.008682 
L 164.356078 67.826357 
L 164.392674 69.008682 
L 164.465899 67.826357 
L 164.831406 67.826357 
L 164.954145 66.644032 
L 165.002968 66.644032 
L 165.113207 67.826357 
L 165.23464 66.644032 
L 165.332831 66.644032 
L 165.369756 67.826357 
L 165.442487 66.644032 
L 165.540653 66.644032 
L 165.626696 67.826357 
L 165.650858 66.644032 
L 165.67542 66.644032 
L 165.786763 67.826357 
L 165.909392 67.826357 
L 166.031537 66.644032 
L 166.154223 67.826357 
L 166.203849 67.826357 
L 166.252758 66.644032 
L 166.31373 67.826357 
L 166.620228 67.826357 
L 166.741533 69.008682 
L 166.912942 69.008682 
L 166.925376 67.826357 
L 167.022072 69.008682 
L 167.302984 69.008682 
L 167.388574 67.826357 
L 167.413055 69.008682 
L 167.621931 69.008682 
L 167.646262 67.826357 
L 167.73189 69.008682 
L 167.744086 69.008682 
L 167.756333 67.826357 
L 167.853824 69.008682 
L 168.981069 69.008682 
L 168.993744 70.191007 
L 169.087845 69.008682 
L 169.125973 69.008682 
L 169.232315 70.191007 
L 169.345407 69.008682 
L 169.46658 70.191007 
L 170.771207 70.191007 
L 170.894098 71.373332 
L 171.00628 70.191007 
L 171.117211 71.373332 
L 171.216077 70.191007 
L 171.228315 71.373332 
L 171.253686 71.373332 
L 171.339725 70.191007 
L 171.364637 71.373332 
L 171.439342 71.373332 
L 171.489631 70.191007 
L 171.540448 71.373332 
L 171.553281 71.373332 
L 171.664633 70.191007 
L 171.677068 70.191007 
L 171.791966 71.373332 
L 171.841747 71.373332 
L 171.952277 70.191007 
L 172.074939 71.373332 
L 172.246677 71.373332 
L 172.258727 70.191007 
L 172.357606 71.373332 
L 172.945604 71.373332 
L 172.957681 72.555657 
L 173.056277 71.373332 
L 173.118214 71.373332 
L 173.193155 72.555657 
L 173.217203 71.373332 
L 173.22958 71.373332 
L 173.3408 72.555657 
L 173.402144 71.373332 
L 173.450802 72.555657 
L 173.524683 72.555657 
L 173.53739 71.373332 
L 173.635509 72.555657 
L 173.684125 72.555657 
L 173.807406 73.737983 
L 173.831937 72.555657 
L 173.916654 73.737983 
L 174.001444 73.737983 
L 174.123389 76.102633 
L 174.236014 76.102633 
L 174.357219 73.737983 
L 174.381355 73.737983 
L 174.434955 72.555657 
L 174.484184 73.737983 
L 174.496813 73.737983 
L 174.557324 72.555657 
L 174.606456 73.737983 
L 174.667818 73.737983 
L 174.776925 72.555657 
L 174.898373 73.737983 
L 175.019895 72.555657 
L 175.141725 73.737983 
L 175.153957 73.737983 
L 175.166024 72.555657 
L 175.26295 73.737983 
L 175.578699 73.737983 
L 175.664805 76.102633 
L 175.689154 73.737983 
L 175.738171 73.737983 
L 175.811778 76.102633 
L 175.836861 73.737983 
L 175.849343 73.737983 
L 175.972225 76.102633 
L 176.361626 76.102633 
L 176.373671 77.284958 
L 176.471589 76.102633 
L 176.665826 76.102633 
L 176.67808 77.284958 
L 176.775232 76.102633 
L 176.799568 76.102633 
L 176.921592 77.284958 
L 177.141294 77.284958 
L 177.262702 76.102633 
L 177.274708 76.102633 
L 177.383879 77.284958 
L 177.420171 76.102633 
L 177.494118 77.284958 
L 177.675397 77.284958 
L 177.787428 78.467283 
L 178.332196 78.467283 
L 178.404598 77.284958 
L 178.441074 78.467283 
L 178.744678 78.467283 
L 178.756724 77.284958 
L 178.854104 78.467283 
L 179.32816 78.467283 
L 179.340244 77.284958 
L 179.437681 78.467283 
L 179.887563 78.467283 
L 179.984007 79.649608 
L 179.99604 78.467283 
L 180.008124 78.467283 
L 180.116797 79.649608 
L 180.214714 78.467283 
L 180.227182 79.649608 
L 180.263468 79.649608 
L 180.384561 78.467283 
L 180.408628 79.649608 
L 180.493416 78.467283 
L 180.541872 78.467283 
L 180.651589 79.649608 
L 180.73643 77.284958 
L 180.760675 78.467283 
L 180.784976 78.467283 
L 180.906305 77.284958 
L 180.930836 77.284958 
L 180.954962 78.467283 
L 181.02761 77.284958 
L 181.148836 76.102633 
L 181.258821 76.102633 
L 181.381411 73.737983 
L 181.50325 73.737983 
L 181.578978 76.102633 
L 181.603282 73.737983 
L 181.68823 73.737983 
L 181.785258 76.102633 
L 181.797799 73.737983 
L 181.871048 73.737983 
L 181.88308 76.102633 
L 399.813035 112.754713 
L 399.898869 112.754713 
L 399.911464 113.937038 
L 400.009007 112.754713 
L 400.021472 112.754713 
L 400.144713 113.937038 
L 400.157039 113.937038 
L 400.18109 112.754713 
L 400.268114 113.937038 
L 400.475445 113.937038 
L 400.560629 115.119363 
L 400.585516 113.937038 
L 400.646962 113.937038 
L 400.769292 115.119363 
L 400.890866 113.937038 
L 401.01367 115.119363 
L 401.136517 113.937038 
L 401.22097 115.119363 
L 401.246261 113.937038 
L 401.307776 113.937038 
L 401.319979 115.119363 
L 401.418873 113.937038 
L 401.589242 113.937038 
L 403.138453 116.301688 
L 403.251952 115.119363 
L 403.289042 115.119363 
L 403.337172 116.301688 
L 403.398102 115.119363 
L 403.471032 115.119363 
L 403.486694 116.301688 
L 403.572602 115.119363 
L 403.710987 115.119363 
L 403.747169 116.301688 
L 403.820393 115.119363 
L 403.918884 115.119363 
L 404.008444 116.301688 
L 404.020514 115.119363 
L 404.056696 115.119363 
L 404.141764 116.301688 
L 404.154623 115.119363 
L 404.205325 115.119363 
L 404.317998 116.301688 
L 404.330133 116.301688 
L 404.391596 115.119363 
L 404.440949 116.301688 
L 404.465729 116.301688 
L 404.563885 115.119363 
L 404.576636 116.301688 
L 404.662648 116.301688 
L 404.772553 115.119363 
L 404.89512 116.301688 
L 404.9072 116.301688 
L 405.017646 115.119363 
L 405.139735 116.301688 
L 405.20056 116.301688 
L 405.310202 115.119363 
L 405.358734 116.301688 
L 405.419333 115.119363 
L 405.431811 115.119363 
L 405.554121 116.301688 
L 405.651894 116.301688 
L 405.663943 115.119363 
L 405.757278 116.301688 
L 405.994385 116.301688 
L 406.1046 118.666339 
L 406.20258 116.301688 
L 406.214627 118.666339 
L 406.299122 116.301688 
L 406.323735 118.666339 
L 406.58832 118.666339 
L 406.600746 119.848664 
L 406.688222 118.666339 
L 406.920978 118.666339 
L 407.032225 116.301688 
L 407.324712 116.301688 
L 407.412999 118.666339 
L 407.425057 116.301688 
L 407.462223 116.301688 
L 407.585439 118.666339 
L 407.598165 118.666339 
L 407.647303 116.301688 
L 407.708533 118.666339 
L 407.869046 118.666339 
L 407.941807 116.301688 
L 407.978862 118.666339 
L 408.187338 118.666339 
L 408.262112 119.848664 
L 408.286598 118.666339 
L 408.432986 118.666339 
L 408.445966 119.848664 
L 408.53236 118.666339 
L 408.619413 118.666339 
L 408.732179 119.848664 
L 408.833742 119.848664 
L 408.847607 118.666339 
L 408.93487 119.848664 
L 409.120928 119.848664 
L 409.157067 118.666339 
L 409.223697 119.848664 
L 409.337347 119.848664 
L 409.449455 118.666339 
L 409.461856 118.666339 
L 409.573982 119.848664 
L 409.771703 119.848664 
L 409.8202 118.666339 
L 409.881063 119.848664 
L 409.90564 119.848664 
L 410.002431 118.666339 
L 410.014482 119.848664 
L 410.026522 119.848664 
L 410.124914 118.666339 
L 410.136992 119.848664 
L 410.381008 119.848664 
L 410.393078 118.666339 
L 410.491532 119.848664 
L 410.886977 119.848664 
L 410.89922 118.666339 
L 410.986619 119.848664 
L 411.109168 119.848664 
L 411.231537 118.666339 
L 411.354332 119.848664 
L 411.609757 119.848664 
L 411.621799 121.030989 
L 411.709708 119.848664 
L 411.733909 119.848664 
L 411.75884 121.030989 
L 411.833447 119.848664 
L 411.84594 119.848664 
L 411.858203 121.030989 
L 411.946917 119.848664 
L 412.061094 119.848664 
L 412.100035 121.030989 
L 412.16823 119.848664 
L 412.193637 119.848664 
L 412.305739 121.030989 
L 412.319294 121.030989 
L 412.43012 119.848664 
L 412.494525 119.848664 
L 412.64208 121.030989 
L 412.763827 119.848664 
L 412.885391 121.030989 
L 412.974764 121.030989 
L 413.037579 119.848664 
L 413.074637 121.030989 
L 413.086856 121.030989 
L 413.198494 119.848664 
L 413.310498 121.030989 
L 413.518555 121.030989 
L 413.591924 119.848664 
L 413.628506 121.030989 
L 413.64062 121.030989 
L 413.754975 119.848664 
L 413.857546 119.848664 
L 413.869566 121.030989 
L 413.968042 119.848664 
L 414.23464 119.848664 
L 414.271274 118.666339 
L 414.344799 119.848664 
L 414.49429 119.848664 
L 414.617322 118.666339 
L 414.629431 118.666339 
L 414.728447 119.848664 
L 414.740482 118.666339 
L 414.777092 118.666339 
L 414.899903 119.848664 
L 415.075766 119.848664 
L 415.136432 118.666339 
L 415.184732 119.848664 
L 415.233993 119.848664 
L 415.319436 118.666339 
L 415.344699 119.848664 
L 415.368758 119.848664 
L 415.441981 118.666339 
L 415.478438 119.848664 
L 415.941795 119.848664 
L 416.038873 118.666339 
L 416.050939 119.848664 
L 416.076039 119.848664 
L 416.197357 118.666339 
L 416.209457 118.666339 
L 416.319161 119.848664 
L 416.428845 118.666339 
L 416.501335 119.848664 
L 416.537861 118.666339 
L 417.112759 118.666339 
L 417.224992 119.848664 
L 417.337833 118.666339 
L 417.349973 118.666339 
L 417.362019 119.848664 
L 417.46002 118.666339 
L 417.472744 118.666339 
L 417.5959 119.848664 
L 417.718429 118.666339 
L 417.730472 118.666339 
L 417.840987 119.848664 
L 417.926317 118.666339 
L 417.950434 119.848664 
L 417.975085 119.848664 
L 418.060712 118.666339 
L 418.085319 119.848664 
L 418.097763 119.848664 
L 418.172988 118.666339 
L 418.197564 119.848664 
L 418.209602 119.848664 
L 418.221653 118.666339 
L 418.308628 119.848664 
L 418.34621 119.848664 
L 418.469356 118.666339 
L 418.482081 118.666339 
L 418.592678 119.848664 
L 418.629738 119.848664 
L 418.66849 118.666339 
L 418.731615 119.848664 
L 419.131 119.848664 
L 419.241624 121.030989 
L 419.291133 119.848664 
L 419.341094 121.030989 
L 419.365585 121.030989 
L 419.462545 119.848664 
L 419.474984 121.030989 
L 420.044116 121.030989 
L 420.16644 123.395639 
L 420.289279 122.213314 
L 420.558386 122.213314 
L 420.67143 123.395639 
L 420.709056 123.395639 
L 420.831554 124.577964 
L 420.944207 123.395639 
L 420.968527 123.395639 
L 420.98058 122.213314 
L 421.072495 123.395639 
L 421.404025 123.395639 
L 421.416054 122.213314 
L 421.502954 123.395639 
L 421.60325 123.395639 
L 421.664921 124.577964 
L 421.701157 123.395639 
L 421.890531 123.395639 
L 422.002444 122.213314 
L 422.050667 123.395639 
L 422.111687 122.213314 
L 422.178376 122.213314 
L 422.278052 123.395639 
L 422.386901 122.213314 
L 422.521266 124.577964 
L 422.643678 123.395639 
L 422.668228 123.395639 
L 422.780038 124.577964 
L 422.816421 124.577964 
L 422.889562 123.395639 
L 422.925828 124.577964 
L 422.937989 124.577964 
L 423.059164 123.395639 
L 423.144171 124.577964 
L 423.16884 123.395639 
L 423.301934 123.395639 
L 423.424992 124.577964 
L 423.547252 123.395639 
L 423.571673 123.395639 
L 423.681189 124.577964 
L 423.693434 123.395639 
L 423.791198 124.577964 
L 423.83963 124.577964 
L 423.961071 123.395639 
L 424.010052 123.395639 
L 424.130751 124.577964 
L 424.228161 124.577964 
L 424.252631 123.395639 
L 424.326982 124.577964 
L 424.658685 124.577964 
L 424.780818 123.395639 
L 424.792864 123.395639 
L 424.914055 124.577964 
L 425.725099 124.577964 
L 425.837568 125.76029 
L 425.874124 125.76029 
L 425.975873 124.577964 
L 426.073135 125.76029 
L 426.085182 124.577964 
L 426.097202 124.577964 
L 426.109231 125.76029 
L 426.206722 124.577964 
L 426.243077 124.577964 
L 426.365258 125.76029 
L 426.377418 125.76029 
L 426.486902 124.577964 
L 426.609207 125.76029 
L 426.829869 125.76029 
L 426.841915 126.942615 
L 426.92969 125.76029 
L 427.063701 125.76029 
L 427.185999 126.942615 
L 427.198243 126.942615 
L 427.283463 125.76029 
L 427.307645 126.942615 
L 427.332134 126.942615 
L 427.443449 125.76029 
L 427.455656 125.76029 
L 427.553075 126.942615 
L 427.565139 125.76029 
L 427.577461 125.76029 
L 427.700106 126.942615 
L 427.736895 126.942615 
L 427.858929 125.76029 
L 427.971601 126.942615 
L 428.032892 126.942615 
L 428.130527 128.12494 
L 428.142972 126.942615 
L 428.252025 126.942615 
L 428.350297 128.12494 
L 428.362336 126.942615 
L 428.399474 126.942615 
L 428.521324 128.12494 
L 428.679339 128.12494 
L 428.751815 125.76029 
L 428.800711 126.942615 
L 428.874052 126.942615 
L 428.99766 125.76029 
L 429.009784 125.76029 
L 429.132829 126.942615 
L 429.168999 126.942615 
L 429.291573 125.76029 
L 429.461168 125.76029 
L 429.473205 126.942615 
L 429.571279 125.76029 
L 429.619945 125.76029 
L 429.705927 126.942615 
L 429.718807 125.76029 
L 429.7559 125.76029 
L 429.856213 126.942615 
L 429.978323 125.76029 
L 429.990532 125.76029 
L 430.101448 126.942615 
L 430.212759 125.76029 
L 430.24993 125.76029 
L 430.346778 126.942615 
L 430.35941 125.76029 
L 430.384543 125.76029 
L 430.507384 126.942615 
L 430.532267 126.942615 
L 430.607525 125.76029 
L 430.631979 126.942615 
L 430.829473 126.942615 
L 430.84188 125.76029 
L 430.92992 126.942615 
L 430.990226 126.942615 
L 431.111938 125.76029 
L 431.162327 125.76029 
L 431.186404 126.942615 
L 431.271057 125.76029 
L 432.009091 125.76029 
L 432.009091 125.76029 
" style="fill:none;stroke:#1f77b4;stroke-linecap:square;stroke-width:1.5;"/>
   </g>
   <g id="line2d_30">
    <path clip-path="url(#p071b055d5c)" d="M 72.190909 125.76029 
L 73.247911 125.76029 
L 73.36968 138.765866 
L 73.61711 138.765866 
L 73.738878 144.677492 
L 74.588922 144.677492 
L 74.711459 138.765866 
L 74.956644 138.765866 
L 75.079445 144.677492 
L 75.326166 144.677492 
L 75.44702 149.406793 
L 76.626287 149.406793 
L 76.749341 144.677492 
L 76.810762 144.677492 
L 76.933969 161.230044 
L 77.786142 161.230044 
L 77.897688 165.959345 
L 78.092655 165.959345 
L 78.214747 149.406793 
L 78.646004 149.406793 
L 78.768881 144.677492 
L 79.014954 144.677492 
L 79.137272 149.406793 
L 79.625877 149.406793 
L 79.738895 138.765866 
L 79.996469 138.765866 
L 80.117439 123.395639 
L 80.178634 123.395639 
L 80.291133 102.113786 
L 80.917541 102.113786 
L 81.452185 89.10821 
L 82.008172 89.10821 
L 82.129298 80.831934 
L 82.570155 80.831934 
L 82.6918 78.467283 
L 83.972089 78.467283 
L 84.083531 89.10821 
L 84.648959 89.10821 
L 84.761542 65.461707 
L 85.207954 65.461707 
L 85.322082 115.119363 
L 86.501498 115.119363 
L 86.623527 125.76029 
L 87.260169 125.76029 
L 87.382596 195.517474 
L 87.998277 195.517474 
L 88.121327 221.528627 
L 88.746279 221.528627 
L 88.86933 232.169554 
L 89.297874 232.169554 
L 89.40927 245.17513 
L 90.276528 245.17513 
L 90.388671 232.169554 
L 90.663304 232.169554 
L 90.785988 221.528627 
L 92.726609 221.528627 
L 92.841476 208.52305 
L 94.976814 208.52305 
L 95.099611 195.517474 
L 95.919272 195.517474 
L 96.034241 171.870971 
L 96.291337 171.870971 
L 96.414623 149.406793 
L 97.080326 149.406793 
L 97.20188 115.119363 
L 97.876596 115.119363 
L 97.915327 78.467283 
L 98.595638 89.10821 
L 98.848431 89.10821 
L 99.551438 115.119363 
L 99.734941 115.119363 
L 99.856188 125.76029 
L 100.533025 125.76029 
L 100.65529 138.765866 
L 102.601459 138.765866 
L 102.763842 149.406793 
L 103.972912 149.406793 
L 104.087124 138.765866 
L 104.695214 138.765866 
L 104.817058 149.406793 
L 105.302443 149.406793 
L 105.424105 161.230044 
L 106.99295 161.230044 
L 107.113527 138.765866 
L 107.568602 138.765866 
L 107.690897 149.406793 
L 108.523527 149.406793 
L 108.636571 144.677492 
L 108.933501 144.677492 
L 109.05651 149.406793 
L 109.342482 149.406793 
L 109.460292 165.959345 
L 109.669839 165.959345 
L 109.867293 149.406793 
L 110.51876 149.406793 
L 110.640439 165.959345 
L 111.072145 165.959345 
L 111.186491 161.230044 
L 112.425537 161.230044 
L 112.538281 184.876547 
L 113.227422 184.876547 
L 113.338938 149.406793 
L 113.723469 149.406793 
L 113.845594 125.76029 
L 115.122989 125.76029 
L 115.24457 78.467283 
L 117.233083 78.467283 
L 117.352791 89.10821 
L 118.148111 89.10821 
L 118.262319 102.113786 
L 118.613907 102.113786 
L 118.72623 115.119363 
L 119.590927 115.119363 
L 119.702234 138.765866 
L 120.758129 138.765866 
L 120.871981 149.406793 
L 122.839206 149.406793 
L 122.960539 161.230044 
L 125.382196 161.230044 
L 125.504302 165.959345 
L 125.626726 165.959345 
L 125.748173 149.406793 
L 127.999062 149.406793 
L 128.121049 161.230044 
L 129.561321 161.230044 
L 129.675139 165.959345 
L 129.804785 165.959345 
L 129.949612 161.230044 
L 130.575184 161.230044 
L 130.689256 149.406793 
L 131.654032 149.406793 
L 131.76477 138.765866 
L 132.824431 138.765866 
L 132.94016 144.677492 
L 133.301905 144.677492 
L 133.413153 125.76029 
L 133.547092 125.76029 
L 133.668831 123.395639 
L 133.988127 123.395639 
L 134.109384 125.76029 
L 134.232105 125.76029 
L 134.343554 123.395639 
L 134.738819 123.395639 
L 134.851591 125.76029 
L 135.152863 125.76029 
L 135.276382 123.395639 
L 135.399865 123.395639 
L 135.522365 125.76029 
L 135.881449 125.76029 
L 135.955518 123.395639 
L 136.802838 115.119363 
L 136.92705 138.765866 
L 137.72658 138.765866 
L 137.890208 125.76029 
L 138.464132 125.76029 
L 138.587096 138.765866 
L 139.137499 138.765866 
L 139.260593 125.76029 
L 141.471353 125.76029 
L 141.593683 123.395639 
L 141.714712 123.395639 
L 141.837506 125.76029 
L 141.960316 125.76029 
L 142.082585 123.395639 
L 142.38784 123.395639 
L 142.509808 138.765866 
L 143.559653 138.765866 
L 143.682662 144.677492 
L 143.8088 144.677492 
L 143.92087 138.765866 
L 144.240599 138.765866 
L 144.363769 144.677492 
L 144.485581 144.677492 
L 144.606584 161.230044 
L 144.984222 161.230044 
L 145.100941 165.959345 
L 145.413171 165.959345 
L 145.536176 161.230044 
L 146.148161 161.230044 
L 146.269574 165.959345 
L 146.578628 165.959345 
L 146.689823 149.406793 
L 147.019889 149.406793 
L 147.266185 144.677492 
L 147.535564 144.677492 
L 147.647815 138.765866 
L 147.782798 138.765866 
L 147.905917 123.395639 
L 148.02696 123.395639 
L 148.149929 115.119363 
L 148.456208 115.119363 
L 148.567987 102.113786 
L 149.379326 102.113786 
L 149.500909 89.10821 
L 149.623717 89.10821 
L 149.745968 80.831934 
L 150.356555 80.831934 
L 150.479556 89.10821 
L 150.786063 89.10821 
L 150.908064 102.113786 
L 152.865513 102.113786 
L 152.978583 115.119363 
L 153.606938 115.119363 
L 153.728232 138.765866 
L 157.093769 138.765866 
L 157.21694 149.406793 
L 157.424645 149.406793 
L 156.738102 149.406793 
L 157.131036 149.406793 
L 157.252772 138.765866 
L 157.821079 138.765866 
L 157.943485 149.406793 
L 159.177058 149.406793 
L 159.300522 161.230044 
L 160.898261 161.230044 
L 161.020587 165.959345 
L 161.328281 165.959345 
L 161.451117 161.230044 
L 161.576625 161.230044 
L 161.687664 165.959345 
L 162.007929 165.959345 
L 162.128943 161.230044 
L 162.736511 161.230044 
L 162.857295 149.406793 
L 162.978368 149.406793 
L 163.089655 144.677492 
L 164.122599 144.677492 
L 164.233775 89.10821 
L 164.55034 89.10821 
L 164.673048 80.831934 
L 165.040296 80.831934 
L 165.161646 78.467283 
L 165.283916 78.467283 
L 165.406162 59.550081 
L 165.528411 59.550081 
L 165.650858 65.461707 
L 168.570917 65.461707 
L 168.685063 102.113786 
L 170.673452 102.113786 
L 170.819938 125.76029 
L 175.153957 125.76029 
L 175.275368 115.119363 
L 176.069624 115.119363 
L 176.190912 125.76029 
L 179.449768 125.76029 
L 179.570774 138.765866 
L 179.692207 138.765866 
L 179.814361 144.677492 
L 180.178513 144.677492 
L 180.299572 125.76029 
L 181.344681 125.76029 
L 181.466214 123.395639 
L 181.527433 123.395639 
L 181.651972 115.119363 
L 181.88308 115.119363 
L 399.58219 171.870971 
L 400.071472 171.870971 
L 400.19353 165.959345 
L 401.589242 165.959345 
L 403.203373 187.241198 
L 403.698946 187.241198 
L 403.820393 221.528627 
L 405.164244 221.528627 
L 405.285601 232.169554 
L 406.958419 232.169554 
L 407.069974 229.804903 
L 408.298719 229.804903 
L 408.420525 221.528627 
L 408.732179 221.528627 
L 408.847607 208.52305 
L 412.293666 208.52305 
L 412.405884 221.528627 
L 414.519326 221.528627 
L 414.641474 208.52305 
L 415.196777 208.52305 
L 415.319436 187.241198 
L 417.015875 187.241198 
L 417.138281 208.52305 
L 420.944207 208.52305 
L 421.060253 221.528627 
L 423.339281 221.528627 
L 423.46183 245.17513 
L 426.474446 245.17513 
L 426.596983 232.169554 
L 426.966749 232.169554 
L 427.087703 245.17513 
L 432.009091 245.17513 
L 432.009091 245.17513 
" style="fill:none;stroke:#ff7f0e;stroke-linecap:square;stroke-width:1.5;"/>
   </g>
   <g id="patch_3">
    <path d="M 54.2 255.638708 
L 54.2 25.44 
" style="fill:none;stroke:#000000;stroke-linecap:square;stroke-linejoin:miter;stroke-width:0.8;"/>
   </g>
   <g id="patch_4">
    <path d="M 450 255.638708 
L 450 25.44 
" style="fill:none;stroke:#000000;stroke-linecap:square;stroke-linejoin:miter;stroke-width:0.8;"/>
   </g>
   <g id="patch_5">
    <path d="M 54.2 255.638708 
L 450 255.638708 
" style="fill:none;stroke:#000000;stroke-linecap:square;stroke-linejoin:miter;stroke-width:0.8;"/>
   </g>
   <g id="patch_6">
    <path d="M 54.2 25.44 
L 450 25.44 
" style="fill:none;stroke:#000000;stroke-linecap:square;stroke-linejoin:miter;stroke-width:0.8;"/>
   </g>
   <g id="text_17">
    <!-- Lake Shoecraft - Water and Air Temperature -->
    <g transform="translate(120.481563 19.44)scale(0.12 -0.12)">
     <defs>
      <path d="M 9.8125 72.90625 
L 19.671875 72.90625 
L 19.671875 8.296875 
L 55.171875 8.296875 
L 55.171875 0 
L 9.8125 0 
z
" id="DejaVuSans-76"/>
      <path d="M 9.078125 75.984375 
L 18.109375 75.984375 
L 18.109375 31.109375 
L 44.921875 54.6875 
L 56.390625 54.6875 
L 27.390625 29.109375 
L 57.625 0 
L 45.90625 0 
L 18.109375 26.703125 
L 18.109375 0 
L 9.078125 0 
z
" id="DejaVuSans-107"/>
      <path d="M 53.515625 70.515625 
L 53.515625 60.890625 
Q 47.90625 63.578125 42.921875 64.890625 
Q 37.9375 66.21875 33.296875 66.21875 
Q 25.25 66.21875 20.875 63.09375 
Q 16.5 59.96875 16.5 54.203125 
Q 16.5 49.359375 19.40625 46.890625 
Q 22.3125 44.4375 30.421875 42.921875 
L 36.375 41.703125 
Q 47.40625 39.59375 52.65625 34.296875 
Q 57.90625 29 57.90625 20.125 
Q 57.90625 9.515625 50.796875 4.046875 
Q 43.703125 -1.421875 29.984375 -1.421875 
Q 24.8125 -1.421875 18.96875 -0.25 
Q 13.140625 0.921875 6.890625 3.21875 
L 6.890625 13.375 
Q 12.890625 10.015625 18.65625 8.296875 
Q 24.421875 6.59375 29.984375 6.59375 
Q 38.421875 6.59375 43.015625 9.90625 
Q 47.609375 13.234375 47.609375 19.390625 
Q 47.609375 24.75 44.3125 27.78125 
Q 41.015625 30.8125 33.5 32.328125 
L 27.484375 33.5 
Q 16.453125 35.6875 11.515625 40.375 
Q 6.59375 45.0625 6.59375 53.421875 
Q 6.59375 63.09375 13.40625 68.65625 
Q 20.21875 74.21875 32.171875 74.21875 
Q 37.3125 74.21875 42.625 73.28125 
Q 47.953125 72.359375 53.515625 70.515625 
z
" id="DejaVuSans-83"/>
      <path d="M 54.890625 33.015625 
L 54.890625 0 
L 45.90625 0 
L 45.90625 32.71875 
Q 45.90625 40.484375 42.875 44.328125 
Q 39.84375 48.1875 33.796875 48.1875 
Q 26.515625 48.1875 22.3125 43.546875 
Q 18.109375 38.921875 18.109375 30.90625 
L 18.109375 0 
L 9.078125 0 
L 9.078125 75.984375 
L 18.109375 75.984375 
L 18.109375 46.1875 
Q 21.34375 51.125 25.703125 53.5625 
Q 30.078125 56 35.796875 56 
Q 45.21875 56 50.046875 50.171875 
Q 54.890625 44.34375 54.890625 33.015625 
z
" id="DejaVuSans-104"/>
      <path d="M 30.609375 48.390625 
Q 23.390625 48.390625 19.1875 42.75 
Q 14.984375 37.109375 14.984375 27.296875 
Q 14.984375 17.484375 19.15625 11.84375 
Q 23.34375 6.203125 30.609375 6.203125 
Q 37.796875 6.203125 41.984375 11.859375 
Q 46.1875 17.53125 46.1875 27.296875 
Q 46.1875 37.015625 41.984375 42.703125 
Q 37.796875 48.390625 30.609375 48.390625 
z
M 30.609375 56 
Q 42.328125 56 49.015625 48.375 
Q 55.71875 40.765625 55.71875 27.296875 
Q 55.71875 13.875 49.015625 6.21875 
Q 42.328125 -1.421875 30.609375 -1.421875 
Q 18.84375 -1.421875 12.171875 6.21875 
Q 5.515625 13.875 5.515625 27.296875 
Q 5.515625 40.765625 12.171875 48.375 
Q 18.84375 56 30.609375 56 
z
" id="DejaVuSans-111"/>
      <path d="M 48.78125 52.59375 
L 48.78125 44.1875 
Q 44.96875 46.296875 41.140625 47.34375 
Q 37.3125 48.390625 33.40625 48.390625 
Q 24.65625 48.390625 19.8125 42.84375 
Q 14.984375 37.3125 14.984375 27.296875 
Q 14.984375 17.28125 19.8125 11.734375 
Q 24.65625 6.203125 33.40625 6.203125 
Q 37.3125 6.203125 41.140625 7.25 
Q 44.96875 8.296875 48.78125 10.40625 
L 48.78125 2.09375 
Q 45.015625 0.34375 40.984375 -0.53125 
Q 36.96875 -1.421875 32.421875 -1.421875 
Q 20.0625 -1.421875 12.78125 6.34375 
Q 5.515625 14.109375 5.515625 27.296875 
Q 5.515625 40.671875 12.859375 48.328125 
Q 20.21875 56 33.015625 56 
Q 37.15625 56 41.109375 55.140625 
Q 45.0625 54.296875 48.78125 52.59375 
z
" id="DejaVuSans-99"/>
      <path d="M 37.109375 75.984375 
L 37.109375 68.5 
L 28.515625 68.5 
Q 23.6875 68.5 21.796875 66.546875 
Q 19.921875 64.59375 19.921875 59.515625 
L 19.921875 54.6875 
L 34.71875 54.6875 
L 34.71875 47.703125 
L 19.921875 47.703125 
L 19.921875 0 
L 10.890625 0 
L 10.890625 47.703125 
L 2.296875 47.703125 
L 2.296875 54.6875 
L 10.890625 54.6875 
L 10.890625 58.5 
Q 10.890625 67.625 15.140625 71.796875 
Q 19.390625 75.984375 28.609375 75.984375 
z
" id="DejaVuSans-102"/>
      <path d="M 3.328125 72.90625 
L 13.28125 72.90625 
L 28.609375 11.28125 
L 43.890625 72.90625 
L 54.984375 72.90625 
L 70.3125 11.28125 
L 85.59375 72.90625 
L 95.609375 72.90625 
L 77.296875 0 
L 64.890625 0 
L 49.515625 63.28125 
L 33.984375 0 
L 21.578125 0 
z
" id="DejaVuSans-87"/>
      <path d="M 54.890625 33.015625 
L 54.890625 0 
L 45.90625 0 
L 45.90625 32.71875 
Q 45.90625 40.484375 42.875 44.328125 
Q 39.84375 48.1875 33.796875 48.1875 
Q 26.515625 48.1875 22.3125 43.546875 
Q 18.109375 38.921875 18.109375 30.90625 
L 18.109375 0 
L 9.078125 0 
L 9.078125 54.6875 
L 18.109375 54.6875 
L 18.109375 46.1875 
Q 21.34375 51.125 25.703125 53.5625 
Q 30.078125 56 35.796875 56 
Q 45.21875 56 50.046875 50.171875 
Q 54.890625 44.34375 54.890625 33.015625 
z
" id="DejaVuSans-110"/>
      <path d="M 45.40625 46.390625 
L 45.40625 75.984375 
L 54.390625 75.984375 
L 54.390625 0 
L 45.40625 0 
L 45.40625 8.203125 
Q 42.578125 3.328125 38.25 0.953125 
Q 33.9375 -1.421875 27.875 -1.421875 
Q 17.96875 -1.421875 11.734375 6.484375 
Q 5.515625 14.40625 5.515625 27.296875 
Q 5.515625 40.1875 11.734375 48.09375 
Q 17.96875 56 27.875 56 
Q 33.9375 56 38.25 53.625 
Q 42.578125 51.265625 45.40625 46.390625 
z
M 14.796875 27.296875 
Q 14.796875 17.390625 18.875 11.75 
Q 22.953125 6.109375 30.078125 6.109375 
Q 37.203125 6.109375 41.296875 11.75 
Q 45.40625 17.390625 45.40625 27.296875 
Q 45.40625 37.203125 41.296875 42.84375 
Q 37.203125 48.484375 30.078125 48.484375 
Q 22.953125 48.484375 18.875 42.84375 
Q 14.796875 37.203125 14.796875 27.296875 
z
" id="DejaVuSans-100"/>
      <path d="M 34.1875 63.1875 
L 20.796875 26.90625 
L 47.609375 26.90625 
z
M 28.609375 72.90625 
L 39.796875 72.90625 
L 67.578125 0 
L 57.328125 0 
L 50.6875 18.703125 
L 17.828125 18.703125 
L 11.1875 0 
L 0.78125 0 
z
" id="DejaVuSans-65"/>
      <path d="M 9.421875 54.6875 
L 18.40625 54.6875 
L 18.40625 0 
L 9.421875 0 
z
M 9.421875 75.984375 
L 18.40625 75.984375 
L 18.40625 64.59375 
L 9.421875 64.59375 
z
" id="DejaVuSans-105"/>
     </defs>
     <use xlink:href="#DejaVuSans-76"/>
     <use x="55.712891" xlink:href="#DejaVuSans-97"/>
     <use x="116.992188" xlink:href="#DejaVuSans-107"/>
     <use x="171.277344" xlink:href="#DejaVuSans-101"/>
     <use x="232.800781" xlink:href="#DejaVuSans-32"/>
     <use x="264.587891" xlink:href="#DejaVuSans-83"/>
     <use x="328.064453" xlink:href="#DejaVuSans-104"/>
     <use x="391.443359" xlink:href="#DejaVuSans-111"/>
     <use x="452.625" xlink:href="#DejaVuSans-101"/>
     <use x="514.148438" xlink:href="#DejaVuSans-99"/>
     <use x="569.128906" xlink:href="#DejaVuSans-114"/>
     <use x="610.242188" xlink:href="#DejaVuSans-97"/>
     <use x="671.521484" xlink:href="#DejaVuSans-102"/>
     <use x="704.976562" xlink:href="#DejaVuSans-116"/>
     <use x="744.185547" xlink:href="#DejaVuSans-32"/>
     <use x="775.972656" xlink:href="#DejaVuSans-45"/>
     <use x="812.056641" xlink:href="#DejaVuSans-32"/>
     <use x="843.84375" xlink:href="#DejaVuSans-87"/>
     <use x="936.345703" xlink:href="#DejaVuSans-97"/>
     <use x="997.625" xlink:href="#DejaVuSans-116"/>
     <use x="1036.833984" xlink:href="#DejaVuSans-101"/>
     <use x="1098.357422" xlink:href="#DejaVuSans-114"/>
     <use x="1139.470703" xlink:href="#DejaVuSans-32"/>
     <use x="1171.257812" xlink:href="#DejaVuSans-97"/>
     <use x="1232.537109" xlink:href="#DejaVuSans-110"/>
     <use x="1295.916016" xlink:href="#DejaVuSans-100"/>
     <use x="1359.392578" xlink:href="#DejaVuSans-32"/>
     <use x="1391.179688" xlink:href="#DejaVuSans-65"/>
     <use x="1459.587891" xlink:href="#DejaVuSans-105"/>
     <use x="1487.371094" xlink:href="#DejaVuSans-114"/>
     <use x="1528.484375" xlink:href="#DejaVuSans-32"/>
     <use x="1560.271484" xlink:href="#DejaVuSans-84"/>
     <use x="1604.355469" xlink:href="#DejaVuSans-101"/>
     <use x="1665.878906" xlink:href="#DejaVuSans-109"/>
     <use x="1763.291016" xlink:href="#DejaVuSans-112"/>
     <use x="1826.767578" xlink:href="#DejaVuSans-101"/>
     <use x="1888.291016" xlink:href="#DejaVuSans-114"/>
     <use x="1929.404297" xlink:href="#DejaVuSans-97"/>
     <use x="1990.683594" xlink:href="#DejaVuSans-116"/>
     <use x="2029.892578" xlink:href="#DejaVuSans-117"/>
     <use x="2093.271484" xlink:href="#DejaVuSans-114"/>
     <use x="2132.134766" xlink:href="#DejaVuSans-101"/>
    </g>
   </g>
   <g id="legend_1">
    <g id="patch_7">
     <path d="M 357.890625 62.79625 
L 443 62.79625 
Q 445 62.79625 445 60.79625 
L 445 32.44 
Q 445 30.44 443 30.44 
L 357.890625 30.44 
Q 355.890625 30.44 355.890625 32.44 
L 355.890625 60.79625 
Q 355.890625 62.79625 357.890625 62.79625 
z
" style="fill:#ffffff;opacity:0.8;stroke:#cccccc;stroke-linejoin:miter;"/>
    </g>
    <g id="line2d_31">
     <path d="M 359.890625 38.538437 
L 379.890625 38.538437 
" style="fill:none;stroke:#1f77b4;stroke-linecap:square;stroke-width:1.5;"/>
    </g>
    <g id="line2d_32"/>
    <g id="text_18">
     <!-- Lake Temp -->
     <g transform="translate(387.890625 42.038437)scale(0.1 -0.1)">
      <use xlink:href="#DejaVuSans-76"/>
      <use x="55.712891" xlink:href="#DejaVuSans-97"/>
      <use x="116.992188" xlink:href="#DejaVuSans-107"/>
      <use x="171.277344" xlink:href="#DejaVuSans-101"/>
      <use x="232.800781" xlink:href="#DejaVuSans-32"/>
      <use x="264.587891" xlink:href="#DejaVuSans-84"/>
      <use x="308.671875" xlink:href="#DejaVuSans-101"/>
      <use x="370.195312" xlink:href="#DejaVuSans-109"/>
      <use x="467.607422" xlink:href="#DejaVuSans-112"/>
     </g>
    </g>
    <g id="line2d_33">
     <path d="M 359.890625 53.216562 
L 379.890625 53.216562 
" style="fill:none;stroke:#ff7f0e;stroke-linecap:square;stroke-width:1.5;"/>
    </g>
    <g id="line2d_34"/>
    <g id="text_19">
     <!-- Air Temp -->
     <g transform="translate(387.890625 56.716562)scale(0.1 -0.1)">
      <use xlink:href="#DejaVuSans-65"/>
      <use x="68.408203" xlink:href="#DejaVuSans-105"/>
      <use x="96.191406" xlink:href="#DejaVuSans-114"/>
      <use x="137.304688" xlink:href="#DejaVuSans-32"/>
      <use x="169.091797" xlink:href="#DejaVuSans-84"/>
      <use x="213.175781" xlink:href="#DejaVuSans-101"/>
      <use x="274.699219" xlink:href="#DejaVuSans-109"/>
      <use x="372.111328" xlink:href="#DejaVuSans-112"/>
     </g>
    </g>
   </g>
  </g>
 </g>
 <defs>
  <clipPath id="p071b055d5c">
   <rect height="230.198708" width="395.8" x="54.2" y="25.44"/>
  </clipPath>
 </defs>
</svg>
