<?xml version="1.0" encoding="utf-8" standalone="no"?>
<!DOCTYPE svg PUBLIC "-//W3C//DTD SVG 1.1//EN"
  "http://www.w3.org/Graphics/SVG/1.1/DTD/svg11.dtd">
<!-- Created with matplotlib (https://matplotlib.org/) -->
<svg height="345.6pt" version="1.1" viewBox="0 0 460.8 345.6" width="460.8pt" xmlns="http://www.w3.org/2000/svg" xmlns:xlink="http://www.w3.org/1999/xlink">
 <metadata>
  <rdf:RDF xmlns:cc="http://creativecommons.org/ns#" xmlns:dc="http://purl.org/dc/elements/1.1/" xmlns:rdf="http://www.w3.org/1999/02/22-rdf-syntax-ns#">
   <cc:Work>
    <dc:type rdf:resource="http://purl.org/dc/dcmitype/StillImage"/>
    <dc:date>2024-09-05T20:57:27.373698</dc:date>
    <dc:format>image/svg+xml</dc:format>
    <dc:creator>
     <cc:Agent>
      <dc:title>Matplotlib v3.3.2, https://matplotlib.org/</dc:title>
     </cc:Agent>
    </dc:creator>
   </cc:Work>
  </rdf:RDF>
 </metadata>
 <defs>
  <style type="text/css">*{stroke-linecap:butt;stroke-linejoin:round;}</style>
 </defs>
 <g id="figure_1">
  <g id="patch_1">
   <path d="M 0 345.6 
L 460.8 345.6 
L 460.8 0 
L 0 0 
z
" style="fill:none;"/>
  </g>
  <g id="axes_1">
   <g id="patch_2">
    <path d="M 44.66 255.638708 
L 447.096654 255.638708 
L 447.096654 25.44 
L 44.66 25.44 
z
" style="fill:none;"/>
   </g>
   <g id="matplotlib.axis_1">
    <g id="xtick_1">
     <g id="line2d_1">
      <path clip-path="url(#p37aa4651a0)" d="M 79.603864 255.638708 
L 79.603864 25.44 
" style="fill:none;stroke:#b0b0b0;stroke-linecap:square;stroke-width:0.8;"/>
     </g>
     <g id="line2d_2">
      <defs>
       <path d="M 0 0 
L 0 3.5 
" id="mc71e72fc7b" style="stroke:#000000;stroke-width:0.8;"/>
      </defs>
      <g>
       <use style="stroke:#000000;stroke-width:0.8;" x="79.603864" xlink:href="#mc71e72fc7b" y="255.638708"/>
      </g>
     </g>
     <g id="text_1">
      <!-- 2024-08-28 -->
      <g transform="translate(72.258471 319.848351)rotate(-70)scale(0.1 -0.1)">
       <defs>
        <path d="M 19.1875 8.296875 
L 53.609375 8.296875 
L 53.609375 0 
L 7.328125 0 
L 7.328125 8.296875 
Q 12.9375 14.109375 22.625 23.890625 
Q 32.328125 33.6875 34.8125 36.53125 
Q 39.546875 41.84375 41.421875 45.53125 
Q 43.3125 49.21875 43.3125 52.78125 
Q 43.3125 58.59375 39.234375 62.25 
Q 35.15625 65.921875 28.609375 65.921875 
Q 23.96875 65.921875 18.8125 64.3125 
Q 13.671875 62.703125 7.8125 59.421875 
L 7.8125 69.390625 
Q 13.765625 71.78125 18.9375 73 
Q 24.125 74.21875 28.421875 74.21875 
Q 39.75 74.21875 46.484375 68.546875 
Q 53.21875 62.890625 53.21875 53.421875 
Q 53.21875 48.921875 51.53125 44.890625 
Q 49.859375 40.875 45.40625 35.40625 
Q 44.1875 33.984375 37.640625 27.21875 
Q 31.109375 20.453125 19.1875 8.296875 
z
" id="DejaVuSans-50"/>
        <path d="M 31.78125 66.40625 
Q 24.171875 66.40625 20.328125 58.90625 
Q 16.5 51.421875 16.5 36.375 
Q 16.5 21.390625 20.328125 13.890625 
Q 24.171875 6.390625 31.78125 6.390625 
Q 39.453125 6.390625 43.28125 13.890625 
Q 47.125 21.390625 47.125 36.375 
Q 47.125 51.421875 43.28125 58.90625 
Q 39.453125 66.40625 31.78125 66.40625 
z
M 31.78125 74.21875 
Q 44.046875 74.21875 50.515625 64.515625 
Q 56.984375 54.828125 56.984375 36.375 
Q 56.984375 17.96875 50.515625 8.265625 
Q 44.046875 -1.421875 31.78125 -1.421875 
Q 19.53125 -1.421875 13.0625 8.265625 
Q 6.59375 17.96875 6.59375 36.375 
Q 6.59375 54.828125 13.0625 64.515625 
Q 19.53125 74.21875 31.78125 74.21875 
z
" id="DejaVuSans-48"/>
        <path d="M 37.796875 64.3125 
L 12.890625 25.390625 
L 37.796875 25.390625 
z
M 35.203125 72.90625 
L 47.609375 72.90625 
L 47.609375 25.390625 
L 58.015625 25.390625 
L 58.015625 17.1875 
L 47.609375 17.1875 
L 47.609375 0 
L 37.796875 0 
L 37.796875 17.1875 
L 4.890625 17.1875 
L 4.890625 26.703125 
z
" id="DejaVuSans-52"/>
        <path d="M 4.890625 31.390625 
L 31.203125 31.390625 
L 31.203125 23.390625 
L 4.890625 23.390625 
z
" id="DejaVuSans-45"/>
        <path d="M 31.78125 34.625 
Q 24.75 34.625 20.71875 30.859375 
Q 16.703125 27.09375 16.703125 20.515625 
Q 16.703125 13.921875 20.71875 10.15625 
Q 24.75 6.390625 31.78125 6.390625 
Q 38.8125 6.390625 42.859375 10.171875 
Q 46.921875 13.96875 46.921875 20.515625 
Q 46.921875 27.09375 42.890625 30.859375 
Q 38.875 34.625 31.78125 34.625 
z
M 21.921875 38.8125 
Q 15.578125 40.375 12.03125 44.71875 
Q 8.5 49.078125 8.5 55.328125 
Q 8.5 64.0625 14.71875 69.140625 
Q 20.953125 74.21875 31.78125 74.21875 
Q 42.671875 74.21875 48.875 69.140625 
Q 55.078125 64.0625 55.078125 55.328125 
Q 55.078125 49.078125 51.53125 44.71875 
Q 48 40.375 41.703125 38.8125 
Q 48.828125 37.15625 52.796875 32.3125 
Q 56.78125 27.484375 56.78125 20.515625 
Q 56.78125 9.90625 50.3125 4.234375 
Q 43.84375 -1.421875 31.78125 -1.421875 
Q 19.734375 -1.421875 13.25 4.234375 
Q 6.78125 9.90625 6.78125 20.515625 
Q 6.78125 27.484375 10.78125 32.3125 
Q 14.796875 37.15625 21.921875 38.8125 
z
M 18.3125 54.390625 
Q 18.3125 48.734375 21.84375 45.5625 
Q 25.390625 42.390625 31.78125 42.390625 
Q 38.140625 42.390625 41.71875 45.5625 
Q 45.3125 48.734375 45.3125 54.390625 
Q 45.3125 60.0625 41.71875 63.234375 
Q 38.140625 66.40625 31.78125 66.40625 
Q 25.390625 66.40625 21.84375 63.234375 
Q 18.3125 60.0625 18.3125 54.390625 
z
" id="DejaVuSans-56"/>
       </defs>
       <use xlink:href="#DejaVuSans-50"/>
       <use x="63.623047" xlink:href="#DejaVuSans-48"/>
       <use x="127.246094" xlink:href="#DejaVuSans-50"/>
       <use x="190.869141" xlink:href="#DejaVuSans-52"/>
       <use x="254.492188" xlink:href="#DejaVuSans-45"/>
       <use x="290.576172" xlink:href="#DejaVuSans-48"/>
       <use x="354.199219" xlink:href="#DejaVuSans-56"/>
       <use x="417.822266" xlink:href="#DejaVuSans-45"/>
       <use x="453.90625" xlink:href="#DejaVuSans-50"/>
       <use x="517.529297" xlink:href="#DejaVuSans-56"/>
      </g>
     </g>
    </g>
    <g id="xtick_2">
     <g id="line2d_3">
      <path clip-path="url(#p37aa4651a0)" d="M 118.962014 255.638708 
L 118.962014 25.44 
" style="fill:none;stroke:#b0b0b0;stroke-linecap:square;stroke-width:0.8;"/>
     </g>
     <g id="line2d_4">
      <g>
       <use style="stroke:#000000;stroke-width:0.8;" x="118.962014" xlink:href="#mc71e72fc7b" y="255.638708"/>
      </g>
     </g>
     <g id="text_2">
      <!-- 2024-08-29 -->
      <g transform="translate(111.616621 319.848351)rotate(-70)scale(0.1 -0.1)">
       <defs>
        <path d="M 10.984375 1.515625 
L 10.984375 10.5 
Q 14.703125 8.734375 18.5 7.8125 
Q 22.3125 6.890625 25.984375 6.890625 
Q 35.75 6.890625 40.890625 13.453125 
Q 46.046875 20.015625 46.78125 33.40625 
Q 43.953125 29.203125 39.59375 26.953125 
Q 35.25 24.703125 29.984375 24.703125 
Q 19.046875 24.703125 12.671875 31.3125 
Q 6.296875 37.9375 6.296875 49.421875 
Q 6.296875 60.640625 12.9375 67.421875 
Q 19.578125 74.21875 30.609375 74.21875 
Q 43.265625 74.21875 49.921875 64.515625 
Q 56.59375 54.828125 56.59375 36.375 
Q 56.59375 19.140625 48.40625 8.859375 
Q 40.234375 -1.421875 26.421875 -1.421875 
Q 22.703125 -1.421875 18.890625 -0.6875 
Q 15.09375 0.046875 10.984375 1.515625 
z
M 30.609375 32.421875 
Q 37.25 32.421875 41.125 36.953125 
Q 45.015625 41.5 45.015625 49.421875 
Q 45.015625 57.28125 41.125 61.84375 
Q 37.25 66.40625 30.609375 66.40625 
Q 23.96875 66.40625 20.09375 61.84375 
Q 16.21875 57.28125 16.21875 49.421875 
Q 16.21875 41.5 20.09375 36.953125 
Q 23.96875 32.421875 30.609375 32.421875 
z
" id="DejaVuSans-57"/>
       </defs>
       <use xlink:href="#DejaVuSans-50"/>
       <use x="63.623047" xlink:href="#DejaVuSans-48"/>
       <use x="127.246094" xlink:href="#DejaVuSans-50"/>
       <use x="190.869141" xlink:href="#DejaVuSans-52"/>
       <use x="254.492188" xlink:href="#DejaVuSans-45"/>
       <use x="290.576172" xlink:href="#DejaVuSans-48"/>
       <use x="354.199219" xlink:href="#DejaVuSans-56"/>
       <use x="417.822266" xlink:href="#DejaVuSans-45"/>
       <use x="453.90625" xlink:href="#DejaVuSans-50"/>
       <use x="517.529297" xlink:href="#DejaVuSans-57"/>
      </g>
     </g>
    </g>
    <g id="xtick_3">
     <g id="line2d_5">
      <path clip-path="url(#p37aa4651a0)" d="M 158.320163 255.638708 
L 158.320163 25.44 
" style="fill:none;stroke:#b0b0b0;stroke-linecap:square;stroke-width:0.8;"/>
     </g>
     <g id="line2d_6">
      <g>
       <use style="stroke:#000000;stroke-width:0.8;" x="158.320163" xlink:href="#mc71e72fc7b" y="255.638708"/>
      </g>
     </g>
     <g id="text_3">
      <!-- 2024-08-30 -->
      <g transform="translate(150.97477 319.848351)rotate(-70)scale(0.1 -0.1)">
       <defs>
        <path d="M 40.578125 39.3125 
Q 47.65625 37.796875 51.625 33 
Q 55.609375 28.21875 55.609375 21.1875 
Q 55.609375 10.40625 48.1875 4.484375 
Q 40.765625 -1.421875 27.09375 -1.421875 
Q 22.515625 -1.421875 17.65625 -0.515625 
Q 12.796875 0.390625 7.625 2.203125 
L 7.625 11.71875 
Q 11.71875 9.328125 16.59375 8.109375 
Q 21.484375 6.890625 26.8125 6.890625 
Q 36.078125 6.890625 40.9375 10.546875 
Q 45.796875 14.203125 45.796875 21.1875 
Q 45.796875 27.640625 41.28125 31.265625 
Q 36.765625 34.90625 28.71875 34.90625 
L 20.21875 34.90625 
L 20.21875 43.015625 
L 29.109375 43.015625 
Q 36.375 43.015625 40.234375 45.921875 
Q 44.09375 48.828125 44.09375 54.296875 
Q 44.09375 59.90625 40.109375 62.90625 
Q 36.140625 65.921875 28.71875 65.921875 
Q 24.65625 65.921875 20.015625 65.03125 
Q 15.375 64.15625 9.8125 62.3125 
L 9.8125 71.09375 
Q 15.4375 72.65625 20.34375 73.4375 
Q 25.25 74.21875 29.59375 74.21875 
Q 40.828125 74.21875 47.359375 69.109375 
Q 53.90625 64.015625 53.90625 55.328125 
Q 53.90625 49.265625 50.4375 45.09375 
Q 46.96875 40.921875 40.578125 39.3125 
z
" id="DejaVuSans-51"/>
       </defs>
       <use xlink:href="#DejaVuSans-50"/>
       <use x="63.623047" xlink:href="#DejaVuSans-48"/>
       <use x="127.246094" xlink:href="#DejaVuSans-50"/>
       <use x="190.869141" xlink:href="#DejaVuSans-52"/>
       <use x="254.492188" xlink:href="#DejaVuSans-45"/>
       <use x="290.576172" xlink:href="#DejaVuSans-48"/>
       <use x="354.199219" xlink:href="#DejaVuSans-56"/>
       <use x="417.822266" xlink:href="#DejaVuSans-45"/>
       <use x="453.90625" xlink:href="#DejaVuSans-51"/>
       <use x="517.529297" xlink:href="#DejaVuSans-48"/>
      </g>
     </g>
    </g>
    <g id="xtick_4">
     <g id="line2d_7">
      <path clip-path="url(#p37aa4651a0)" d="M 197.678312 255.638708 
L 197.678312 25.44 
" style="fill:none;stroke:#b0b0b0;stroke-linecap:square;stroke-width:0.8;"/>
     </g>
     <g id="line2d_8">
      <g>
       <use style="stroke:#000000;stroke-width:0.8;" x="197.678312" xlink:href="#mc71e72fc7b" y="255.638708"/>
      </g>
     </g>
     <g id="text_4">
      <!-- 2024-08-31 -->
      <g transform="translate(190.332919 319.848351)rotate(-70)scale(0.1 -0.1)">
       <defs>
        <path d="M 12.40625 8.296875 
L 28.515625 8.296875 
L 28.515625 63.921875 
L 10.984375 60.40625 
L 10.984375 69.390625 
L 28.421875 72.90625 
L 38.28125 72.90625 
L 38.28125 8.296875 
L 54.390625 8.296875 
L 54.390625 0 
L 12.40625 0 
z
" id="DejaVuSans-49"/>
       </defs>
       <use xlink:href="#DejaVuSans-50"/>
       <use x="63.623047" xlink:href="#DejaVuSans-48"/>
       <use x="127.246094" xlink:href="#DejaVuSans-50"/>
       <use x="190.869141" xlink:href="#DejaVuSans-52"/>
       <use x="254.492188" xlink:href="#DejaVuSans-45"/>
       <use x="290.576172" xlink:href="#DejaVuSans-48"/>
       <use x="354.199219" xlink:href="#DejaVuSans-56"/>
       <use x="417.822266" xlink:href="#DejaVuSans-45"/>
       <use x="453.90625" xlink:href="#DejaVuSans-51"/>
       <use x="517.529297" xlink:href="#DejaVuSans-49"/>
      </g>
     </g>
    </g>
    <g id="xtick_5">
     <g id="line2d_9">
      <path clip-path="url(#p37aa4651a0)" d="M 237.036462 255.638708 
L 237.036462 25.44 
" style="fill:none;stroke:#b0b0b0;stroke-linecap:square;stroke-width:0.8;"/>
     </g>
     <g id="line2d_10">
      <g>
       <use style="stroke:#000000;stroke-width:0.8;" x="237.036462" xlink:href="#mc71e72fc7b" y="255.638708"/>
      </g>
     </g>
     <g id="text_5">
      <!-- 2024-09-01 -->
      <g transform="translate(229.691069 319.848351)rotate(-70)scale(0.1 -0.1)">
       <use xlink:href="#DejaVuSans-50"/>
       <use x="63.623047" xlink:href="#DejaVuSans-48"/>
       <use x="127.246094" xlink:href="#DejaVuSans-50"/>
       <use x="190.869141" xlink:href="#DejaVuSans-52"/>
       <use x="254.492188" xlink:href="#DejaVuSans-45"/>
       <use x="290.576172" xlink:href="#DejaVuSans-48"/>
       <use x="354.199219" xlink:href="#DejaVuSans-57"/>
       <use x="417.822266" xlink:href="#DejaVuSans-45"/>
       <use x="453.90625" xlink:href="#DejaVuSans-48"/>
       <use x="517.529297" xlink:href="#DejaVuSans-49"/>
      </g>
     </g>
    </g>
    <g id="xtick_6">
     <g id="line2d_11">
      <path clip-path="url(#p37aa4651a0)" d="M 276.394611 255.638708 
L 276.394611 25.44 
" style="fill:none;stroke:#b0b0b0;stroke-linecap:square;stroke-width:0.8;"/>
     </g>
     <g id="line2d_12">
      <g>
       <use style="stroke:#000000;stroke-width:0.8;" x="276.394611" xlink:href="#mc71e72fc7b" y="255.638708"/>
      </g>
     </g>
     <g id="text_6">
      <!-- 2024-09-02 -->
      <g transform="translate(269.049218 319.848351)rotate(-70)scale(0.1 -0.1)">
       <use xlink:href="#DejaVuSans-50"/>
       <use x="63.623047" xlink:href="#DejaVuSans-48"/>
       <use x="127.246094" xlink:href="#DejaVuSans-50"/>
       <use x="190.869141" xlink:href="#DejaVuSans-52"/>
       <use x="254.492188" xlink:href="#DejaVuSans-45"/>
       <use x="290.576172" xlink:href="#DejaVuSans-48"/>
       <use x="354.199219" xlink:href="#DejaVuSans-57"/>
       <use x="417.822266" xlink:href="#DejaVuSans-45"/>
       <use x="453.90625" xlink:href="#DejaVuSans-48"/>
       <use x="517.529297" xlink:href="#DejaVuSans-50"/>
      </g>
     </g>
    </g>
    <g id="xtick_7">
     <g id="line2d_13">
      <path clip-path="url(#p37aa4651a0)" d="M 315.75276 255.638708 
L 315.75276 25.44 
" style="fill:none;stroke:#b0b0b0;stroke-linecap:square;stroke-width:0.8;"/>
     </g>
     <g id="line2d_14">
      <g>
       <use style="stroke:#000000;stroke-width:0.8;" x="315.75276" xlink:href="#mc71e72fc7b" y="255.638708"/>
      </g>
     </g>
     <g id="text_7">
      <!-- 2024-09-03 -->
      <g transform="translate(308.407368 319.848351)rotate(-70)scale(0.1 -0.1)">
       <use xlink:href="#DejaVuSans-50"/>
       <use x="63.623047" xlink:href="#DejaVuSans-48"/>
       <use x="127.246094" xlink:href="#DejaVuSans-50"/>
       <use x="190.869141" xlink:href="#DejaVuSans-52"/>
       <use x="254.492188" xlink:href="#DejaVuSans-45"/>
       <use x="290.576172" xlink:href="#DejaVuSans-48"/>
       <use x="354.199219" xlink:href="#DejaVuSans-57"/>
       <use x="417.822266" xlink:href="#DejaVuSans-45"/>
       <use x="453.90625" xlink:href="#DejaVuSans-48"/>
       <use x="517.529297" xlink:href="#DejaVuSans-51"/>
      </g>
     </g>
    </g>
    <g id="xtick_8">
     <g id="line2d_15">
      <path clip-path="url(#p37aa4651a0)" d="M 355.11091 255.638708 
L 355.11091 25.44 
" style="fill:none;stroke:#b0b0b0;stroke-linecap:square;stroke-width:0.8;"/>
     </g>
     <g id="line2d_16">
      <g>
       <use style="stroke:#000000;stroke-width:0.8;" x="355.11091" xlink:href="#mc71e72fc7b" y="255.638708"/>
      </g>
     </g>
     <g id="text_8">
      <!-- 2024-09-04 -->
      <g transform="translate(347.765517 319.848351)rotate(-70)scale(0.1 -0.1)">
       <use xlink:href="#DejaVuSans-50"/>
       <use x="63.623047" xlink:href="#DejaVuSans-48"/>
       <use x="127.246094" xlink:href="#DejaVuSans-50"/>
       <use x="190.869141" xlink:href="#DejaVuSans-52"/>
       <use x="254.492188" xlink:href="#DejaVuSans-45"/>
       <use x="290.576172" xlink:href="#DejaVuSans-48"/>
       <use x="354.199219" xlink:href="#DejaVuSans-57"/>
       <use x="417.822266" xlink:href="#DejaVuSans-45"/>
       <use x="453.90625" xlink:href="#DejaVuSans-48"/>
       <use x="517.529297" xlink:href="#DejaVuSans-52"/>
      </g>
     </g>
    </g>
    <g id="xtick_9">
     <g id="line2d_17">
      <path clip-path="url(#p37aa4651a0)" d="M 394.469059 255.638708 
L 394.469059 25.44 
" style="fill:none;stroke:#b0b0b0;stroke-linecap:square;stroke-width:0.8;"/>
     </g>
     <g id="line2d_18">
      <g>
       <use style="stroke:#000000;stroke-width:0.8;" x="394.469059" xlink:href="#mc71e72fc7b" y="255.638708"/>
      </g>
     </g>
     <g id="text_9">
      <!-- 2024-09-05 -->
      <g transform="translate(387.123666 319.848351)rotate(-70)scale(0.1 -0.1)">
       <defs>
        <path d="M 10.796875 72.90625 
L 49.515625 72.90625 
L 49.515625 64.59375 
L 19.828125 64.59375 
L 19.828125 46.734375 
Q 21.96875 47.46875 24.109375 47.828125 
Q 26.265625 48.1875 28.421875 48.1875 
Q 40.625 48.1875 47.75 41.5 
Q 54.890625 34.8125 54.890625 23.390625 
Q 54.890625 11.625 47.5625 5.09375 
Q 40.234375 -1.421875 26.90625 -1.421875 
Q 22.3125 -1.421875 17.546875 -0.640625 
Q 12.796875 0.140625 7.71875 1.703125 
L 7.71875 11.625 
Q 12.109375 9.234375 16.796875 8.0625 
Q 21.484375 6.890625 26.703125 6.890625 
Q 35.15625 6.890625 40.078125 11.328125 
Q 45.015625 15.765625 45.015625 23.390625 
Q 45.015625 31 40.078125 35.4375 
Q 35.15625 39.890625 26.703125 39.890625 
Q 22.75 39.890625 18.8125 39.015625 
Q 14.890625 38.140625 10.796875 36.28125 
z
" id="DejaVuSans-53"/>
       </defs>
       <use xlink:href="#DejaVuSans-50"/>
       <use x="63.623047" xlink:href="#DejaVuSans-48"/>
       <use x="127.246094" xlink:href="#DejaVuSans-50"/>
       <use x="190.869141" xlink:href="#DejaVuSans-52"/>
       <use x="254.492188" xlink:href="#DejaVuSans-45"/>
       <use x="290.576172" xlink:href="#DejaVuSans-48"/>
       <use x="354.199219" xlink:href="#DejaVuSans-57"/>
       <use x="417.822266" xlink:href="#DejaVuSans-45"/>
       <use x="453.90625" xlink:href="#DejaVuSans-48"/>
       <use x="517.529297" xlink:href="#DejaVuSans-53"/>
      </g>
     </g>
    </g>
    <g id="xtick_10">
     <g id="line2d_19">
      <path clip-path="url(#p37aa4651a0)" d="M 433.827209 255.638708 
L 433.827209 25.44 
" style="fill:none;stroke:#b0b0b0;stroke-linecap:square;stroke-width:0.8;"/>
     </g>
     <g id="line2d_20">
      <g>
       <use style="stroke:#000000;stroke-width:0.8;" x="433.827209" xlink:href="#mc71e72fc7b" y="255.638708"/>
      </g>
     </g>
     <g id="text_10">
      <!-- 2024-09-06 -->
      <g transform="translate(426.481816 319.848351)rotate(-70)scale(0.1 -0.1)">
       <defs>
        <path d="M 33.015625 40.375 
Q 26.375 40.375 22.484375 35.828125 
Q 18.609375 31.296875 18.609375 23.390625 
Q 18.609375 15.53125 22.484375 10.953125 
Q 26.375 6.390625 33.015625 6.390625 
Q 39.65625 6.390625 43.53125 10.953125 
Q 47.40625 15.53125 47.40625 23.390625 
Q 47.40625 31.296875 43.53125 35.828125 
Q 39.65625 40.375 33.015625 40.375 
z
M 52.59375 71.296875 
L 52.59375 62.3125 
Q 48.875 64.0625 45.09375 64.984375 
Q 41.3125 65.921875 37.59375 65.921875 
Q 27.828125 65.921875 22.671875 59.328125 
Q 17.53125 52.734375 16.796875 39.40625 
Q 19.671875 43.65625 24.015625 45.921875 
Q 28.375 48.1875 33.59375 48.1875 
Q 44.578125 48.1875 50.953125 41.515625 
Q 57.328125 34.859375 57.328125 23.390625 
Q 57.328125 12.15625 50.6875 5.359375 
Q 44.046875 -1.421875 33.015625 -1.421875 
Q 20.359375 -1.421875 13.671875 8.265625 
Q 6.984375 17.96875 6.984375 36.375 
Q 6.984375 53.65625 15.1875 63.9375 
Q 23.390625 74.21875 37.203125 74.21875 
Q 40.921875 74.21875 44.703125 73.484375 
Q 48.484375 72.75 52.59375 71.296875 
z
" id="DejaVuSans-54"/>
       </defs>
       <use xlink:href="#DejaVuSans-50"/>
       <use x="63.623047" xlink:href="#DejaVuSans-48"/>
       <use x="127.246094" xlink:href="#DejaVuSans-50"/>
       <use x="190.869141" xlink:href="#DejaVuSans-52"/>
       <use x="254.492188" xlink:href="#DejaVuSans-45"/>
       <use x="290.576172" xlink:href="#DejaVuSans-48"/>
       <use x="354.199219" xlink:href="#DejaVuSans-57"/>
       <use x="417.822266" xlink:href="#DejaVuSans-45"/>
       <use x="453.90625" xlink:href="#DejaVuSans-48"/>
       <use x="517.529297" xlink:href="#DejaVuSans-54"/>
      </g>
     </g>
    </g>
    <g id="text_11">
     <!-- Date -->
     <g transform="translate(233.927546 332.158083)scale(0.1 -0.1)">
      <defs>
       <path d="M 19.671875 64.796875 
L 19.671875 8.109375 
L 31.59375 8.109375 
Q 46.6875 8.109375 53.6875 14.9375 
Q 60.6875 21.78125 60.6875 36.53125 
Q 60.6875 51.171875 53.6875 57.984375 
Q 46.6875 64.796875 31.59375 64.796875 
z
M 9.8125 72.90625 
L 30.078125 72.90625 
Q 51.265625 72.90625 61.171875 64.09375 
Q 71.09375 55.28125 71.09375 36.53125 
Q 71.09375 17.671875 61.125 8.828125 
Q 51.171875 0 30.078125 0 
L 9.8125 0 
z
" id="DejaVuSans-68"/>
       <path d="M 34.28125 27.484375 
Q 23.390625 27.484375 19.1875 25 
Q 14.984375 22.515625 14.984375 16.5 
Q 14.984375 11.71875 18.140625 8.90625 
Q 21.296875 6.109375 26.703125 6.109375 
Q 34.1875 6.109375 38.703125 11.40625 
Q 43.21875 16.703125 43.21875 25.484375 
L 43.21875 27.484375 
z
M 52.203125 31.203125 
L 52.203125 0 
L 43.21875 0 
L 43.21875 8.296875 
Q 40.140625 3.328125 35.546875 0.953125 
Q 30.953125 -1.421875 24.3125 -1.421875 
Q 15.921875 -1.421875 10.953125 3.296875 
Q 6 8.015625 6 15.921875 
Q 6 25.140625 12.171875 29.828125 
Q 18.359375 34.515625 30.609375 34.515625 
L 43.21875 34.515625 
L 43.21875 35.40625 
Q 43.21875 41.609375 39.140625 45 
Q 35.0625 48.390625 27.6875 48.390625 
Q 23 48.390625 18.546875 47.265625 
Q 14.109375 46.140625 10.015625 43.890625 
L 10.015625 52.203125 
Q 14.9375 54.109375 19.578125 55.046875 
Q 24.21875 56 28.609375 56 
Q 40.484375 56 46.34375 49.84375 
Q 52.203125 43.703125 52.203125 31.203125 
z
" id="DejaVuSans-97"/>
       <path d="M 18.3125 70.21875 
L 18.3125 54.6875 
L 36.8125 54.6875 
L 36.8125 47.703125 
L 18.3125 47.703125 
L 18.3125 18.015625 
Q 18.3125 11.328125 20.140625 9.421875 
Q 21.96875 7.515625 27.59375 7.515625 
L 36.8125 7.515625 
L 36.8125 0 
L 27.59375 0 
Q 17.1875 0 13.234375 3.875 
Q 9.28125 7.765625 9.28125 18.015625 
L 9.28125 47.703125 
L 2.6875 47.703125 
L 2.6875 54.6875 
L 9.28125 54.6875 
L 9.28125 70.21875 
z
" id="DejaVuSans-116"/>
       <path d="M 56.203125 29.59375 
L 56.203125 25.203125 
L 14.890625 25.203125 
Q 15.484375 15.921875 20.484375 11.0625 
Q 25.484375 6.203125 34.421875 6.203125 
Q 39.59375 6.203125 44.453125 7.46875 
Q 49.3125 8.734375 54.109375 11.28125 
L 54.109375 2.78125 
Q 49.265625 0.734375 44.1875 -0.34375 
Q 39.109375 -1.421875 33.890625 -1.421875 
Q 20.796875 -1.421875 13.15625 6.1875 
Q 5.515625 13.8125 5.515625 26.8125 
Q 5.515625 40.234375 12.765625 48.109375 
Q 20.015625 56 32.328125 56 
Q 43.359375 56 49.78125 48.890625 
Q 56.203125 41.796875 56.203125 29.59375 
z
M 47.21875 32.234375 
Q 47.125 39.59375 43.09375 43.984375 
Q 39.0625 48.390625 32.421875 48.390625 
Q 24.90625 48.390625 20.390625 44.140625 
Q 15.875 39.890625 15.1875 32.171875 
z
" id="DejaVuSans-101"/>
      </defs>
      <use xlink:href="#DejaVuSans-68"/>
      <use x="77.001953" xlink:href="#DejaVuSans-97"/>
      <use x="138.28125" xlink:href="#DejaVuSans-116"/>
      <use x="177.490234" xlink:href="#DejaVuSans-101"/>
     </g>
    </g>
   </g>
   <g id="matplotlib.axis_2">
    <g id="ytick_1">
     <g id="line2d_21">
      <path clip-path="url(#p37aa4651a0)" d="M 44.66 226.204338 
L 447.096654 226.204338 
" style="fill:none;stroke:#b0b0b0;stroke-linecap:square;stroke-width:0.8;"/>
     </g>
     <g id="line2d_22">
      <defs>
       <path d="M 0 0 
L -3.5 0 
" id="m5717e8669f" style="stroke:#000000;stroke-width:0.8;"/>
      </defs>
      <g>
       <use style="stroke:#000000;stroke-width:0.8;" x="44.66" xlink:href="#m5717e8669f" y="226.204338"/>
      </g>
     </g>
     <g id="text_12">
      <!-- 55 -->
      <g transform="translate(24.935 230.003557)scale(0.1 -0.1)">
       <use xlink:href="#DejaVuSans-53"/>
       <use x="63.623047" xlink:href="#DejaVuSans-53"/>
      </g>
     </g>
    </g>
    <g id="ytick_2">
     <g id="line2d_23">
      <path clip-path="url(#p37aa4651a0)" d="M 44.66 196.562475 
L 447.096654 196.562475 
" style="fill:none;stroke:#b0b0b0;stroke-linecap:square;stroke-width:0.8;"/>
     </g>
     <g id="line2d_24">
      <g>
       <use style="stroke:#000000;stroke-width:0.8;" x="44.66" xlink:href="#m5717e8669f" y="196.562475"/>
      </g>
     </g>
     <g id="text_13">
      <!-- 60 -->
      <g transform="translate(24.935 200.361694)scale(0.1 -0.1)">
       <use xlink:href="#DejaVuSans-54"/>
       <use x="63.623047" xlink:href="#DejaVuSans-48"/>
      </g>
     </g>
    </g>
    <g id="ytick_3">
     <g id="line2d_25">
      <path clip-path="url(#p37aa4651a0)" d="M 44.66 166.920612 
L 447.096654 166.920612 
" style="fill:none;stroke:#b0b0b0;stroke-linecap:square;stroke-width:0.8;"/>
     </g>
     <g id="line2d_26">
      <g>
       <use style="stroke:#000000;stroke-width:0.8;" x="44.66" xlink:href="#m5717e8669f" y="166.920612"/>
      </g>
     </g>
     <g id="text_14">
      <!-- 65 -->
      <g transform="translate(24.935 170.719831)scale(0.1 -0.1)">
       <use xlink:href="#DejaVuSans-54"/>
       <use x="63.623047" xlink:href="#DejaVuSans-53"/>
      </g>
     </g>
    </g>
    <g id="ytick_4">
     <g id="line2d_27">
      <path clip-path="url(#p37aa4651a0)" d="M 44.66 137.278749 
L 447.096654 137.278749 
" style="fill:none;stroke:#b0b0b0;stroke-linecap:square;stroke-width:0.8;"/>
     </g>
     <g id="line2d_28">
      <g>
       <use style="stroke:#000000;stroke-width:0.8;" x="44.66" xlink:href="#m5717e8669f" y="137.278749"/>
      </g>
     </g>
     <g id="text_15">
      <!-- 70 -->
      <g transform="translate(24.935 141.077968)scale(0.1 -0.1)">
       <defs>
        <path d="M 8.203125 72.90625 
L 55.078125 72.90625 
L 55.078125 68.703125 
L 28.609375 0 
L 18.3125 0 
L 43.21875 64.59375 
L 8.203125 64.59375 
z
" id="DejaVuSans-55"/>
       </defs>
       <use xlink:href="#DejaVuSans-55"/>
       <use x="63.623047" xlink:href="#DejaVuSans-48"/>
      </g>
     </g>
    </g>
    <g id="ytick_5">
     <g id="line2d_29">
      <path clip-path="url(#p37aa4651a0)" d="M 44.66 107.636886 
L 447.096654 107.636886 
" style="fill:none;stroke:#b0b0b0;stroke-linecap:square;stroke-width:0.8;"/>
     </g>
     <g id="line2d_30">
      <g>
       <use style="stroke:#000000;stroke-width:0.8;" x="44.66" xlink:href="#m5717e8669f" y="107.636886"/>
      </g>
     </g>
     <g id="text_16">
      <!-- 75 -->
      <g transform="translate(24.935 111.436105)scale(0.1 -0.1)">
       <use xlink:href="#DejaVuSans-55"/>
       <use x="63.623047" xlink:href="#DejaVuSans-53"/>
      </g>
     </g>
    </g>
    <g id="ytick_6">
     <g id="line2d_31">
      <path clip-path="url(#p37aa4651a0)" d="M 44.66 77.995023 
L 447.096654 77.995023 
" style="fill:none;stroke:#b0b0b0;stroke-linecap:square;stroke-width:0.8;"/>
     </g>
     <g id="line2d_32">
      <g>
       <use style="stroke:#000000;stroke-width:0.8;" x="44.66" xlink:href="#m5717e8669f" y="77.995023"/>
      </g>
     </g>
     <g id="text_17">
      <!-- 80 -->
      <g transform="translate(24.935 81.794242)scale(0.1 -0.1)">
       <use xlink:href="#DejaVuSans-56"/>
       <use x="63.623047" xlink:href="#DejaVuSans-48"/>
      </g>
     </g>
    </g>
    <g id="ytick_7">
     <g id="line2d_33">
      <path clip-path="url(#p37aa4651a0)" d="M 44.66 48.35316 
L 447.096654 48.35316 
" style="fill:none;stroke:#b0b0b0;stroke-linecap:square;stroke-width:0.8;"/>
     </g>
     <g id="line2d_34">
      <g>
       <use style="stroke:#000000;stroke-width:0.8;" x="44.66" xlink:href="#m5717e8669f" y="48.35316"/>
      </g>
     </g>
     <g id="text_18">
      <!-- 85 -->
      <g transform="translate(24.935 52.152379)scale(0.1 -0.1)">
       <use xlink:href="#DejaVuSans-56"/>
       <use x="63.623047" xlink:href="#DejaVuSans-53"/>
      </g>
     </g>
    </g>
    <g id="text_19">
     <!-- Temperature [F] -->
     <g transform="translate(18.855313 180.575291)rotate(-90)scale(0.1 -0.1)">
      <defs>
       <path d="M -0.296875 72.90625 
L 61.375 72.90625 
L 61.375 64.59375 
L 35.5 64.59375 
L 35.5 0 
L 25.59375 0 
L 25.59375 64.59375 
L -0.296875 64.59375 
z
" id="DejaVuSans-84"/>
       <path d="M 52 44.1875 
Q 55.375 50.25 60.0625 53.125 
Q 64.75 56 71.09375 56 
Q 79.640625 56 84.28125 50.015625 
Q 88.921875 44.046875 88.921875 33.015625 
L 88.921875 0 
L 79.890625 0 
L 79.890625 32.71875 
Q 79.890625 40.578125 77.09375 44.375 
Q 74.3125 48.1875 68.609375 48.1875 
Q 61.625 48.1875 57.5625 43.546875 
Q 53.515625 38.921875 53.515625 30.90625 
L 53.515625 0 
L 44.484375 0 
L 44.484375 32.71875 
Q 44.484375 40.625 41.703125 44.40625 
Q 38.921875 48.1875 33.109375 48.1875 
Q 26.21875 48.1875 22.15625 43.53125 
Q 18.109375 38.875 18.109375 30.90625 
L 18.109375 0 
L 9.078125 0 
L 9.078125 54.6875 
L 18.109375 54.6875 
L 18.109375 46.1875 
Q 21.1875 51.21875 25.484375 53.609375 
Q 29.78125 56 35.6875 56 
Q 41.65625 56 45.828125 52.96875 
Q 50 49.953125 52 44.1875 
z
" id="DejaVuSans-109"/>
       <path d="M 18.109375 8.203125 
L 18.109375 -20.796875 
L 9.078125 -20.796875 
L 9.078125 54.6875 
L 18.109375 54.6875 
L 18.109375 46.390625 
Q 20.953125 51.265625 25.265625 53.625 
Q 29.59375 56 35.59375 56 
Q 45.5625 56 51.78125 48.09375 
Q 58.015625 40.1875 58.015625 27.296875 
Q 58.015625 14.40625 51.78125 6.484375 
Q 45.5625 -1.421875 35.59375 -1.421875 
Q 29.59375 -1.421875 25.265625 0.953125 
Q 20.953125 3.328125 18.109375 8.203125 
z
M 48.6875 27.296875 
Q 48.6875 37.203125 44.609375 42.84375 
Q 40.53125 48.484375 33.40625 48.484375 
Q 26.265625 48.484375 22.1875 42.84375 
Q 18.109375 37.203125 18.109375 27.296875 
Q 18.109375 17.390625 22.1875 11.75 
Q 26.265625 6.109375 33.40625 6.109375 
Q 40.53125 6.109375 44.609375 11.75 
Q 48.6875 17.390625 48.6875 27.296875 
z
" id="DejaVuSans-112"/>
       <path d="M 41.109375 46.296875 
Q 39.59375 47.171875 37.8125 47.578125 
Q 36.03125 48 33.890625 48 
Q 26.265625 48 22.1875 43.046875 
Q 18.109375 38.09375 18.109375 28.8125 
L 18.109375 0 
L 9.078125 0 
L 9.078125 54.6875 
L 18.109375 54.6875 
L 18.109375 46.1875 
Q 20.953125 51.171875 25.484375 53.578125 
Q 30.03125 56 36.53125 56 
Q 37.453125 56 38.578125 55.875 
Q 39.703125 55.765625 41.0625 55.515625 
z
" id="DejaVuSans-114"/>
       <path d="M 8.5 21.578125 
L 8.5 54.6875 
L 17.484375 54.6875 
L 17.484375 21.921875 
Q 17.484375 14.15625 20.5 10.265625 
Q 23.53125 6.390625 29.59375 6.390625 
Q 36.859375 6.390625 41.078125 11.03125 
Q 45.3125 15.671875 45.3125 23.6875 
L 45.3125 54.6875 
L 54.296875 54.6875 
L 54.296875 0 
L 45.3125 0 
L 45.3125 8.40625 
Q 42.046875 3.421875 37.71875 1 
Q 33.40625 -1.421875 27.6875 -1.421875 
Q 18.265625 -1.421875 13.375 4.4375 
Q 8.5 10.296875 8.5 21.578125 
z
M 31.109375 56 
z
" id="DejaVuSans-117"/>
       <path id="DejaVuSans-32"/>
       <path d="M 8.59375 75.984375 
L 29.296875 75.984375 
L 29.296875 69 
L 17.578125 69 
L 17.578125 -6.203125 
L 29.296875 -6.203125 
L 29.296875 -13.1875 
L 8.59375 -13.1875 
z
" id="DejaVuSans-91"/>
       <path d="M 9.8125 72.90625 
L 51.703125 72.90625 
L 51.703125 64.59375 
L 19.671875 64.59375 
L 19.671875 43.109375 
L 48.578125 43.109375 
L 48.578125 34.8125 
L 19.671875 34.8125 
L 19.671875 0 
L 9.8125 0 
z
" id="DejaVuSans-70"/>
       <path d="M 30.421875 75.984375 
L 30.421875 -13.1875 
L 9.71875 -13.1875 
L 9.71875 -6.203125 
L 21.390625 -6.203125 
L 21.390625 69 
L 9.71875 69 
L 9.71875 75.984375 
z
" id="DejaVuSans-93"/>
      </defs>
      <use xlink:href="#DejaVuSans-84"/>
      <use x="44.083984" xlink:href="#DejaVuSans-101"/>
      <use x="105.607422" xlink:href="#DejaVuSans-109"/>
      <use x="203.019531" xlink:href="#DejaVuSans-112"/>
      <use x="266.496094" xlink:href="#DejaVuSans-101"/>
      <use x="328.019531" xlink:href="#DejaVuSans-114"/>
      <use x="369.132812" xlink:href="#DejaVuSans-97"/>
      <use x="430.412109" xlink:href="#DejaVuSans-116"/>
      <use x="469.621094" xlink:href="#DejaVuSans-117"/>
      <use x="533" xlink:href="#DejaVuSans-114"/>
      <use x="571.863281" xlink:href="#DejaVuSans-101"/>
      <use x="633.386719" xlink:href="#DejaVuSans-32"/>
      <use x="665.173828" xlink:href="#DejaVuSans-91"/>
      <use x="704.1875" xlink:href="#DejaVuSans-70"/>
      <use x="761.707031" xlink:href="#DejaVuSans-93"/>
     </g>
    </g>
   </g>
   <g id="line2d_35">
    <path clip-path="url(#p37aa4651a0)" d="M 62.952575 143.799959 
L 63.012645 143.799959 
L 63.069256 143.207122 
L 63.098119 143.799959 
L 63.126441 143.799959 
L 63.23989 143.207122 
L 63.296694 143.207122 
L 63.325088 143.799959 
L 63.353995 143.207122 
L 63.468182 142.614284 
L 63.639853 142.614284 
L 63.72652 142.021447 
L 63.87092 143.207122 
L 63.899344 143.207122 
L 63.986848 142.021447 
L 64.015194 143.207122 
L 64.072151 142.021447 
L 64.13067 142.021447 
L 64.246633 140.835773 
L 64.274853 142.021447 
L 64.303691 140.242935 
L 64.331977 140.242935 
L 64.361008 140.835773 
L 64.418565 140.242935 
L 64.532765 140.242935 
L 64.590834 139.650098 
L 64.620164 140.242935 
L 64.649337 140.242935 
L 64.678317 139.650098 
L 64.706659 140.835773 
L 64.792296 140.835773 
L 64.909678 139.650098 
L 64.938249 139.650098 
L 65.052447 140.242935 
L 65.081019 140.242935 
L 65.197223 140.835773 
L 65.283874 140.835773 
L 65.429884 139.057261 
L 65.574306 140.242935 
L 65.690971 139.057261 
L 65.720899 139.057261 
L 65.75061 138.464424 
L 65.807622 139.057261 
L 65.836393 139.650098 
L 65.913873 139.057261 
L 66.00045 139.057261 
L 66.059104 138.464424 
L 66.087687 139.057261 
L 66.118037 139.057261 
L 66.264682 140.835773 
L 66.323554 140.242935 
L 66.354632 140.835773 
L 66.447677 140.835773 
L 66.476098 142.021447 
L 66.534309 140.835773 
L 66.619567 140.835773 
L 66.73578 140.242935 
L 66.794079 140.835773 
L 66.823658 140.242935 
L 66.880064 140.242935 
L 66.938991 142.021447 
L 66.968689 140.242935 
L 67.025174 140.242935 
L 67.087048 142.021447 
L 67.143549 140.835773 
L 67.171941 142.021447 
L 67.200433 140.242935 
L 67.228684 140.835773 
L 67.257752 140.835773 
L 67.373095 143.207122 
L 67.431777 140.835773 
L 67.46006 143.207122 
L 67.489509 144.392796 
L 67.51925 142.614284 
L 67.6674 140.242935 
L 67.783683 144.392796 
L 67.842529 142.614284 
L 67.871644 143.799959 
L 67.932255 144.392796 
L 67.960471 143.799959 
L 67.98866 143.799959 
L 68.134276 144.985633 
L 68.423155 144.985633 
L 68.538541 145.578471 
L 68.625892 144.985633 
L 68.683483 145.578471 
L 68.711915 144.985633 
L 68.740232 144.392796 
L 68.769348 145.578471 
L 68.829368 145.578471 
L 68.915745 143.207122 
L 68.945492 144.985633 
L 68.975254 146.764145 
L 69.062722 145.578471 
L 69.120336 145.578471 
L 69.295167 143.799959 
L 69.410634 144.392796 
L 69.469019 144.392796 
L 69.497684 143.799959 
L 69.525895 144.392796 
L 69.555401 144.985633 
L 69.583985 143.207122 
L 69.641926 145.578471 
L 69.671486 145.578471 
L 69.730143 144.392796 
L 69.786608 144.985633 
L 69.814787 144.392796 
L 69.843183 145.578471 
L 69.872877 145.578471 
L 69.90174 144.392796 
L 69.986909 144.985633 
L 70.103501 144.985633 
L 70.193204 145.578471 
L 70.27936 144.985633 
L 70.369386 145.578471 
L 70.427796 144.392796 
L 70.4848 144.985633 
L 70.542323 144.985633 
L 70.657866 145.578471 
L 70.973829 145.578471 
L 71.060785 146.764145 
L 71.090439 145.578471 
L 71.147539 146.764145 
L 71.615463 146.764145 
L 71.733085 147.356982 
L 71.762837 146.764145 
L 71.819943 147.356982 
L 71.848306 147.356982 
L 71.876612 146.764145 
L 71.93362 147.356982 
L 72.481787 147.356982 
L 72.510483 147.94982 
L 72.538891 147.356982 
L 145.274257 147.94982 
L 145.303637 147.356982 
L 145.647849 145.578471 
L 145.676393 147.356982 
L 145.736247 146.764145 
L 145.796793 147.356982 
L 145.825929 145.578471 
L 145.895902 147.356982 
L 145.945348 146.764145 
L 145.974628 146.764145 
L 146.121545 143.207122 
L 146.245728 145.578471 
L 146.273917 144.985633 
L 146.405641 146.764145 
L 146.527002 146.764145 
L 146.555254 147.356982 
L 146.704463 144.985633 
L 146.796596 140.242935 
L 146.849877 143.207122 
L 147.000367 145.578471 
L 147.032928 144.392796 
L 147.090945 144.985633 
L 147.191706 146.764145 
L 147.220367 145.578471 
L 147.249486 145.578471 
L 147.284687 144.985633 
L 147.341688 145.578471 
L 147.405091 145.578471 
L 147.55207 139.650098 
L 147.667201 144.985633 
L 147.695428 145.578471 
L 147.810217 139.057261 
L 147.869103 140.835773 
L 147.897368 140.242935 
L 147.925602 140.835773 
L 148.082823 146.764145 
L 148.217076 144.392796 
L 148.304553 144.392796 
L 148.334469 143.799959 
L 148.362862 144.392796 
L 148.47941 146.764145 
L 148.629198 144.392796 
L 148.658163 144.392796 
L 148.755219 139.650098 
L 148.78344 142.614284 
L 148.948517 146.764145 
L 149.00825 144.985633 
L 149.037544 144.392796 
L 149.06577 144.985633 
L 149.152578 146.764145 
L 149.180758 144.985633 
L 149.210089 145.578471 
L 149.326227 145.578471 
L 149.355622 144.392796 
L 149.416707 145.578471 
L 149.446235 147.356982 
L 149.504058 144.985633 
L 149.560888 144.985633 
L 149.590646 145.578471 
L 149.621379 142.021447 
L 149.710824 142.614284 
L 149.770264 144.985633 
L 149.829142 143.207122 
L 150.001461 144.985633 
L 150.122979 144.392796 
L 150.151238 144.392796 
L 150.208326 144.985633 
L 150.237432 143.799959 
L 150.293869 144.985633 
L 150.322456 144.985633 
L 150.350642 144.392796 
L 150.408502 144.985633 
L 150.437588 144.985633 
L 150.550906 145.578471 
L 150.580209 145.578471 
L 150.694989 146.764145 
L 150.723642 146.764145 
L 150.839029 147.356982 
L 151.242544 147.356982 
L 151.329556 147.94982 
L 151.44545 147.356982 
L 151.648435 147.356982 
L 151.676917 144.985633 
L 151.762965 146.764145 
L 151.820285 146.764145 
L 151.940163 147.356982 
L 152.026452 147.356982 
L 152.055237 146.764145 
L 152.112024 147.356982 
L 152.169058 147.356982 
L 152.256341 147.94982 
L 152.285734 147.356982 
L 152.344388 147.94982 
L 152.930179 147.94982 
L 152.960901 148.542657 
L 152.989208 147.94982 
L 153.115801 147.356982 
L 153.445721 147.356982 
L 153.530736 146.764145 
L 153.559479 147.356982 
L 153.620556 146.764145 
L 154.026236 146.764145 
L 154.054486 147.356982 
L 154.111652 146.764145 
L 154.373292 146.764145 
L 154.461697 147.356982 
L 154.575556 146.764145 
L 154.688666 146.764145 
L 154.774328 147.356982 
L 154.861416 146.764145 
L 154.976893 147.356982 
L 155.033479 147.356982 
L 155.146698 146.764145 
L 155.203526 146.764145 
L 155.288229 147.356982 
L 155.409225 146.764145 
L 155.69547 146.764145 
L 269.41437 130.164702 
L 269.480069 131.350376 
L 269.617447 131.350376 
L 269.645913 130.164702 
L 269.704823 131.350376 
L 269.797504 131.350376 
L 269.826861 130.164702 
L 269.891439 131.350376 
L 270.15073 131.350376 
L 270.209045 131.943214 
L 270.237549 131.350376 
L 270.416421 131.350376 
L 270.44624 131.943214 
L 270.508369 131.350376 
L 270.542545 131.350376 
L 270.65832 131.943214 
L 270.716688 131.943214 
L 270.745798 131.350376 
L 270.802546 131.943214 
L 270.916917 131.943214 
L 271.002575 131.350376 
L 271.10177 131.943214 
L 271.751232 131.943214 
L 271.779802 132.536051 
L 271.836258 131.943214 
L 271.864417 131.943214 
L 271.893324 132.536051 
L 271.950654 131.943214 
L 271.979836 131.943214 
L 272.098592 132.536051 
L 272.218376 131.943214 
L 272.246617 131.943214 
L 272.360293 132.536051 
L 272.911033 132.536051 
L 272.939548 133.128888 
L 272.996178 132.536051 
L 273.115397 132.536051 
L 273.146949 133.128888 
L 273.217842 132.536051 
L 273.482477 132.536051 
L 273.601702 133.128888 
L 274.828485 133.128888 
L 274.858127 133.721726 
L 274.91701 133.128888 
L 275.179466 133.128888 
L 275.298701 133.721726 
L 275.416142 133.128888 
L 275.445211 133.128888 
L 275.560726 133.721726 
L 275.9748 133.721726 
L 276.111004 134.314563 
L 276.224749 133.721726 
L 277.067815 133.721726 
L 277.095979 133.128888 
L 277.154683 133.721726 
L 277.360027 133.721726 
L 277.388463 133.128888 
L 277.447058 133.721726 
L 277.476607 133.721726 
L 277.562574 133.128888 
L 277.67858 133.721726 
L 278.114403 133.721726 
L 278.142601 134.314563 
L 278.198968 133.721726 
L 278.742985 133.721726 
L 278.772029 133.128888 
L 278.829397 133.721726 
L 278.915413 133.721726 
L 278.953304 133.128888 
L 279.015607 133.721726 
L 279.27416 133.721726 
L 279.30325 133.128888 
L 279.362093 133.721726 
L 280.290949 133.721726 
L 280.40667 134.314563 
L 280.464721 134.314563 
L 280.584321 133.721726 
L 280.711132 134.314563 
L 280.82871 133.721726 
L 280.856888 133.721726 
L 280.971932 134.314563 
L 281.088349 133.721726 
L 281.23297 133.721726 
L 281.346255 134.314563 
L 281.854455 134.314563 
L 281.88299 134.9074 
L 281.939549 134.314563 
L 282.293195 134.314563 
L 282.381378 134.9074 
L 282.469191 134.314563 
L 282.555805 134.9074 
L 282.645883 134.314563 
L 282.767403 134.9074 
L 282.795593 134.9074 
L 282.826148 134.314563 
L 282.884234 134.9074 
L 283.791034 134.9074 
L 283.820242 136.093075 
L 283.877991 134.9074 
L 283.906223 134.9074 
L 283.939435 136.093075 
L 283.997738 134.9074 
L 284.382876 134.9074 
L 284.440006 136.093075 
L 284.469168 134.9074 
L 284.739155 134.9074 
L 284.855577 136.093075 
L 284.941 134.9074 
L 285.026677 136.093075 
L 285.114884 134.9074 
L 285.20127 136.093075 
L 285.32149 134.9074 
L 285.43728 136.093075 
L 285.46554 136.093075 
L 285.493717 134.9074 
L 285.551341 136.093075 
L 285.582137 136.093075 
L 285.611458 134.9074 
L 285.67112 136.093075 
L 286.51229 136.093075 
L 286.601809 136.685912 
L 286.723848 136.093075 
L 286.78121 136.093075 
L 286.810835 136.685912 
L 286.839487 136.093075 
L 287.154289 136.093075 
L 287.271357 136.685912 
L 287.357752 136.093075 
L 287.474272 136.685912 
L 288.466532 136.685912 
L 288.55261 137.278749 
L 288.612143 136.685912 
L 288.640932 137.278749 
L 288.698926 137.278749 
L 288.755916 136.685912 
L 288.784283 137.278749 
L 289.447061 137.278749 
L 289.564471 136.685912 
L 289.679606 137.278749 
L 290.87087 137.278749 
L 290.899205 137.871586 
L 290.964609 137.278749 
L 291.984682 137.278749 
L 292.105954 137.871586 
L 292.193953 137.278749 
L 292.324074 137.871586 
L 293.121357 137.871586 
L 293.149654 137.278749 
L 293.209092 137.871586 
L 293.356839 137.871586 
L 293.443307 137.278749 
L 293.561197 137.871586 
L 293.590693 137.871586 
L 293.709063 137.278749 
L 293.853002 137.278749 
L 293.88119 137.871586 
L 293.939866 137.278749 
L 294.02722 137.278749 
L 294.146709 137.871586 
L 294.263006 137.278749 
L 294.492814 137.278749 
L 294.614137 137.871586 
L 294.732846 137.278749 
L 295.652884 137.278749 
L 295.769464 136.685912 
L 296.032659 136.685912 
L 296.091461 136.093075 
L 296.120372 136.685912 
L 296.297632 136.685912 
L 296.362949 136.093075 
L 296.392105 136.685912 
L 296.450697 136.685912 
L 296.480798 136.093075 
L 296.538411 136.685912 
L 297.36118 136.685912 
L 297.478535 136.093075 
L 297.573171 136.093075 
L 297.601653 136.685912 
L 297.658494 136.093075 
L 297.77619 136.093075 
L 297.893489 134.9074 
L 298.185731 134.9074 
L 298.242782 134.314563 
L 298.271393 134.9074 
L 298.967271 134.9074 
L 299.053292 134.314563 
L 299.170639 134.9074 
L 299.227199 134.9074 
L 299.313567 134.314563 
L 299.342248 134.9074 
L 299.400328 134.314563 
L 299.428562 134.314563 
L 299.541777 133.721726 
L 299.600909 133.721726 
L 299.715433 134.314563 
L 299.800781 134.314563 
L 299.916432 133.721726 
L 299.944603 133.721726 
L 300.032092 134.314563 
L 300.160006 133.721726 
L 300.248701 133.721726 
L 300.337441 134.314563 
L 300.452947 133.721726 
L 300.57375 134.314563 
L 300.605277 133.721726 
L 300.663216 134.314563 
L 300.784572 134.314563 
L 300.812877 133.721726 
L 300.87104 134.314563 
L 301.282139 134.314563 
L 301.398562 133.721726 
L 301.456934 134.314563 
L 301.485375 133.721726 
L 301.5767 133.721726 
L 301.695245 134.314563 
L 301.72541 134.314563 
L 301.845857 133.721726 
L 301.934337 134.314563 
L 302.054033 133.721726 
L 302.115175 133.721726 
L 302.232007 134.314563 
L 302.261322 134.314563 
L 302.377534 133.721726 
L 302.586549 133.721726 
L 302.618553 134.314563 
L 302.686779 133.721726 
L 302.807088 133.721726 
L 302.83609 134.314563 
L 302.894669 133.721726 
L 303.120689 133.721726 
L 303.148918 132.536051 
L 303.235463 133.128888 
L 303.292171 133.128888 
L 303.407318 133.721726 
L 303.52322 133.721726 
L 303.580239 134.314563 
L 303.609008 133.721726 
L 303.638318 133.721726 
L 303.666582 133.128888 
L 303.724176 133.721726 
L 303.752958 133.721726 
L 303.839801 133.128888 
L 303.868088 133.721726 
L 303.926958 133.128888 
L 303.985582 133.128888 
L 304.102309 133.721726 
L 304.429438 133.721726 
L 304.457795 134.314563 
L 304.516642 133.721726 
L 304.605339 133.128888 
L 304.722472 133.721726 
L 305.102651 133.721726 
L 305.217387 134.314563 
L 305.276303 134.314563 
L 305.305863 133.721726 
L 305.362866 134.314563 
L 305.708657 134.314563 
L 305.824941 133.721726 
L 305.987007 134.314563 
L 306.306923 134.314563 
L 306.391665 134.9074 
L 306.50682 134.314563 
L 306.624118 134.314563 
L 306.654166 133.721726 
L 306.71115 134.314563 
L 307.062084 134.314563 
L 307.091287 134.9074 
L 307.148238 134.314563 
L 307.541708 134.314563 
L 307.659007 134.9074 
L 307.775813 134.314563 
L 307.894611 134.9074 
L 308.363039 134.9074 
L 308.420895 134.314563 
L 308.449567 134.9074 
L 308.567895 134.9074 
L 308.597982 134.314563 
L 308.656324 134.9074 
L 309.454859 134.9074 
L 309.484253 136.093075 
L 309.55461 134.9074 
L 309.612621 134.9074 
L 309.709676 136.093075 
L 309.83134 134.9074 
L 309.920757 136.093075 
L 310.035155 134.9074 
L 310.151785 136.093075 
L 310.248527 136.093075 
L 310.366751 134.9074 
L 310.527002 136.093075 
L 311.23993 136.093075 
L 311.344909 136.685912 
L 311.403501 136.093075 
L 311.43495 136.685912 
L 311.46321 136.685912 
L 311.522444 136.093075 
L 311.551251 136.685912 
L 311.610115 136.685912 
L 311.696418 136.093075 
L 311.824341 136.685912 
L 312.554077 136.685912 
L 312.582278 137.278749 
L 312.639562 136.685912 
L 313.134535 136.685912 
L 313.162897 137.278749 
L 313.221331 136.685912 
L 313.25052 136.685912 
L 313.337677 137.278749 
L 313.366458 136.685912 
L 313.424859 137.278749 
L 313.454498 137.278749 
L 313.573464 136.685912 
L 313.696724 137.278749 
L 315.315004 137.278749 
L 315.346628 137.871586 
L 315.407663 137.278749 
L 315.499733 137.278749 
L 315.558684 137.871586 
L 315.588039 137.278749 
L 315.650977 137.278749 
L 315.77024 137.871586 
L 315.799625 137.278749 
L 315.857997 137.871586 
L 316.177317 137.871586 
L 316.207467 137.278749 
L 316.26585 137.871586 
L 316.380099 137.871586 
L 316.408326 137.278749 
L 316.466138 137.871586 
L 316.69998 137.871586 
L 316.73055 138.464424 
L 316.788782 137.871586 
L 317.584479 137.871586 
L 317.614035 137.278749 
L 317.675403 137.871586 
L 319.001631 137.871586 
L 319.030732 138.464424 
L 319.090947 137.871586 
L 319.539471 137.871586 
L 319.637277 138.464424 
L 319.754745 137.871586 
L 319.812036 137.871586 
L 319.930456 138.464424 
L 320.288113 138.464424 
L 320.316834 137.871586 
L 320.375542 138.464424 
L 320.758799 138.464424 
L 320.790199 137.871586 
L 320.847817 138.464424 
L 322.210472 138.464424 
L 322.242184 139.057261 
L 322.298836 138.464424 
L 322.415144 138.464424 
L 322.44514 139.057261 
L 322.505756 138.464424 
L 322.708299 138.464424 
L 322.82204 139.057261 
L 322.944921 138.464424 
L 323.063151 139.057261 
L 323.091309 138.464424 
L 323.148271 139.057261 
L 323.206227 139.057261 
L 323.320946 138.464424 
L 323.35053 138.464424 
L 323.439225 139.057261 
L 323.469123 138.464424 
L 323.527164 139.057261 
L 323.615811 139.057261 
L 323.732254 138.464424 
L 323.84871 139.057261 
L 323.876981 138.464424 
L 323.937422 139.057261 
L 324.16972 139.057261 
L 324.200129 138.464424 
L 324.257428 139.057261 
L 326.352426 139.057261 
L 326.381953 139.650098 
L 326.439762 139.057261 
L 326.613918 139.057261 
L 326.642295 139.650098 
L 326.701632 139.057261 
L 326.786586 139.057261 
L 326.900978 139.650098 
L 326.92932 139.650098 
L 326.959893 139.057261 
L 327.019956 139.650098 
L 327.049168 139.650098 
L 327.108659 139.057261 
L 327.136793 139.650098 
L 327.167019 139.650098 
L 327.196157 139.057261 
L 327.257273 139.650098 
L 327.287737 139.650098 
L 327.402686 139.057261 
L 327.519445 139.650098 
L 328.300566 139.650098 
L 328.329246 140.242935 
L 328.387047 139.650098 
L 328.733961 139.650098 
L 328.825284 140.242935 
L 328.94452 139.650098 
L 329.003884 139.650098 
L 329.032613 140.242935 
L 329.064595 139.650098 
L 329.157891 140.242935 
L 329.246557 139.650098 
L 329.364608 140.242935 
L 329.430819 139.650098 
L 329.460393 140.242935 
L 329.588074 139.650098 
L 329.641238 139.650098 
L 329.67196 140.242935 
L 329.811172 139.650098 
L 331.384496 139.650098 
L 331.479215 139.057261 
L 331.595042 139.650098 
L 331.722572 139.057261 
L 331.779116 139.650098 
L 331.807298 139.057261 
L 332.61656 139.057261 
L 332.745693 138.464424 
L 332.865198 139.057261 
L 332.898195 139.057261 
L 333.047828 137.871586 
L 333.080496 137.871586 
L 333.11079 138.464424 
L 333.170076 137.871586 
L 333.374763 137.871586 
L 333.463052 137.278749 
L 333.491805 137.871586 
L 333.550564 137.278749 
L 333.670947 137.278749 
L 333.708153 136.685912 
L 333.764593 137.278749 
L 333.883152 137.278749 
L 333.975818 137.871586 
L 334.068377 137.278749 
L 334.181888 137.871586 
L 334.296764 137.278749 
L 334.324942 137.278749 
L 334.410193 136.685912 
L 334.466713 137.278749 
L 334.495927 136.685912 
L 334.524161 136.685912 
L 334.608918 137.278749 
L 334.722621 136.685912 
L 334.864792 136.685912 
L 334.893601 137.278749 
L 334.951468 136.685912 
L 335.01623 136.685912 
L 335.044467 137.278749 
L 335.103102 136.685912 
L 335.131412 136.685912 
L 335.244743 137.278749 
L 335.653365 137.278749 
L 335.766423 136.685912 
L 335.885389 137.278749 
L 336.067488 137.278749 
L 336.095856 136.685912 
L 336.152265 137.278749 
L 336.354511 137.278749 
L 336.469631 136.685912 
L 336.497912 136.685912 
L 336.526398 137.278749 
L 336.587293 136.685912 
L 336.615556 136.685912 
L 336.645583 137.278749 
L 336.702603 136.685912 
L 337.219268 136.685912 
L 337.323847 137.278749 
L 337.388637 136.685912 
L 338.244573 136.685912 
L 338.349164 136.093075 
L 338.678689 136.093075 
L 338.707358 136.685912 
L 338.754869 136.093075 
L 339.513799 136.093075 
L 339.615518 136.685912 
L 339.731463 136.093075 
L 340.029863 136.093075 
L 340.07437 136.685912 
L 340.107502 134.9074 
L 340.177375 136.093075 
L 340.281602 136.093075 
L 340.411039 134.9074 
L 341.056226 134.9074 
L 341.317421 133.721726 
L 341.451419 134.314563 
L 342.294244 134.314563 
L 342.331439 133.721726 
L 342.401904 134.314563 
L 342.553978 134.314563 
L 342.618113 133.721726 
L 342.65039 134.314563 
L 342.67957 134.314563 
L 342.746677 133.721726 
L 342.929386 133.721726 
L 342.957838 134.314563 
L 343.018615 133.721726 
L 343.113451 133.721726 
L 343.238866 133.128888 
L 343.332227 133.721726 
L 343.459986 133.128888 
L 343.568205 133.128888 
L 343.688172 133.721726 
L 343.851338 133.721726 
L 343.880788 134.314563 
L 343.913573 133.721726 
L 344.15776 133.721726 
L 344.315484 133.128888 
L 344.394889 133.721726 
L 344.595489 132.536051 
L 344.62479 133.128888 
L 344.812373 132.536051 
L 345.062257 131.943214 
L 345.202287 132.536051 
L 345.321977 131.943214 
L 345.381536 131.943214 
L 345.414287 132.536051 
L 345.72958 132.536051 
L 345.768239 133.128888 
L 345.81701 132.536051 
L 346.015574 132.536051 
L 346.133043 133.128888 
L 346.731747 133.128888 
L 346.791401 132.536051 
L 346.822277 133.128888 
L 346.857425 133.128888 
L 346.958722 132.536051 
L 347.051268 132.536051 
L 347.184019 133.128888 
L 347.311499 132.536051 
L 347.417023 132.536051 
L 347.553235 133.128888 
L 347.772428 133.128888 
L 347.818551 133.721726 
L 347.85329 133.128888 
L 347.916065 133.128888 
L 348.009156 133.721726 
L 348.126701 133.128888 
L 348.177226 133.721726 
L 348.206559 133.128888 
L 348.392011 133.721726 
L 348.458646 133.721726 
L 348.591514 134.314563 
L 348.677447 133.721726 
L 348.726904 134.9074 
L 348.799556 134.314563 
L 349.019273 134.314563 
L 349.144146 134.9074 
L 349.177486 134.9074 
L 349.211255 134.314563 
L 349.27961 134.9074 
L 349.559924 134.9074 
L 349.592738 136.093075 
L 349.625421 134.9074 
L 349.805758 136.093075 
L 350.245673 136.093075 
L 350.311523 136.685912 
L 350.339839 136.093075 
L 350.370075 136.093075 
L 350.507646 136.685912 
L 351.024888 136.685912 
L 351.146934 137.278749 
L 351.274485 136.685912 
L 351.332791 137.278749 
L 351.425511 136.685912 
L 351.52241 137.278749 
L 351.58439 136.685912 
L 351.62218 137.278749 
L 352.272258 137.278749 
L 352.361824 137.871586 
L 352.392092 137.278749 
L 352.44984 137.871586 
L 353.149072 137.871586 
L 353.234989 138.464424 
L 353.369612 137.871586 
L 353.636418 137.871586 
L 353.665972 138.464424 
L 353.722453 137.871586 
L 353.75066 137.871586 
L 353.778877 138.464424 
L 353.835709 137.871586 
L 353.869002 137.871586 
L 353.898333 138.464424 
L 353.956373 137.871586 
L 353.985616 137.871586 
L 354.073881 138.464424 
L 354.15957 137.871586 
L 354.275966 138.464424 
L 355.13202 138.464424 
L 355.24649 139.057261 
L 355.274727 138.464424 
L 355.331354 139.057261 
L 355.359552 139.057261 
L 355.473251 138.464424 
L 355.502409 138.464424 
L 355.617813 139.057261 
L 356.367254 139.057261 
L 356.395419 139.650098 
L 356.452094 139.057261 
L 356.480358 139.057261 
L 356.569262 139.650098 
L 356.598339 139.057261 
L 356.654776 139.650098 
L 356.880816 139.650098 
L 356.994547 140.242935 
L 357.080951 139.650098 
L 357.196091 140.242935 
L 357.365805 140.242935 
L 357.486192 140.835773 
L 357.603338 140.242935 
L 358.340368 140.242935 
L 358.369531 139.650098 
L 358.53888 140.242935 
L 358.767235 140.242935 
L 358.796551 140.835773 
L 358.980026 140.242935 
L 359.155605 140.242935 
L 359.185277 140.835773 
L 359.244063 140.242935 
L 360.081811 140.242935 
L 360.195668 140.835773 
L 360.282246 140.835773 
L 360.399024 140.242935 
L 360.485637 140.242935 
L 360.604408 140.835773 
L 362.131577 140.835773 
L 362.245074 142.021447 
L 362.273356 142.021447 
L 362.389256 140.835773 
L 362.476513 140.835773 
L 362.56222 142.021447 
L 362.675132 140.835773 
L 362.731454 140.835773 
L 362.846365 142.021447 
L 364.037434 142.021447 
L 364.067767 142.614284 
L 364.127525 142.021447 
L 364.155754 142.021447 
L 364.185884 142.614284 
L 364.244043 142.021447 
L 364.70633 142.021447 
L 364.762709 142.614284 
L 364.791173 142.021447 
L 365.02162 142.021447 
L 365.04994 142.614284 
L 365.107214 142.021447 
L 365.456409 142.021447 
L 365.484542 142.614284 
L 365.541125 142.021447 
L 365.684104 142.021447 
L 365.712411 142.614284 
L 365.768773 142.021447 
L 365.857252 142.021447 
L 365.942432 142.614284 
L 365.970603 142.021447 
L 366.03076 142.614284 
L 366.060442 142.614284 
L 366.174598 142.021447 
L 366.203278 142.021447 
L 366.319249 142.614284 
L 366.347707 142.021447 
L 366.404006 142.614284 
L 366.665945 142.614284 
L 366.695042 142.021447 
L 366.752308 142.614284 
L 367.242401 142.614284 
L 367.356592 143.207122 
L 367.38631 143.207122 
L 367.502477 142.614284 
L 368.236619 142.614284 
L 368.323758 143.207122 
L 368.442145 142.614284 
L 368.471705 142.614284 
L 368.499886 143.207122 
L 368.556614 142.614284 
L 368.584979 142.614284 
L 368.613179 143.207122 
L 368.670519 142.614284 
L 368.760632 142.614284 
L 368.788873 143.207122 
L 368.847802 142.614284 
L 370.489587 142.614284 
L 370.577146 142.021447 
L 370.696136 142.614284 
L 370.953254 142.614284 
L 371.069336 142.021447 
L 371.157753 142.614284 
L 371.274644 142.021447 
L 371.303478 142.021447 
L 371.362148 142.614284 
L 371.391277 142.021447 
L 371.476627 142.021447 
L 371.504841 142.614284 
L 371.565403 142.021447 
L 372.005249 142.021447 
L 372.122092 140.835773 
L 372.548779 140.835773 
L 372.578161 140.242935 
L 372.637111 140.835773 
L 372.754023 140.835773 
L 372.868769 140.242935 
L 373.161752 140.242935 
L 373.284113 139.650098 
L 373.347265 139.650098 
L 373.376453 140.242935 
L 373.43375 139.650098 
L 373.663077 139.650098 
L 373.782839 139.057261 
L 374.049952 139.057261 
L 374.171782 138.464424 
L 374.316626 138.464424 
L 374.438891 137.871586 
L 374.855257 137.871586 
L 374.883621 137.278749 
L 374.942797 137.871586 
L 375.076047 137.871586 
L 375.208002 137.278749 
L 375.395862 137.278749 
L 375.460649 136.685912 
L 375.489935 137.278749 
L 375.603169 137.871586 
L 375.721072 137.278749 
L 375.806418 137.278749 
L 375.834599 136.685912 
L 375.896691 137.278749 
L 375.958383 136.685912 
L 376.019863 137.871586 
L 376.115513 137.871586 
L 376.143654 138.464424 
L 376.176372 137.871586 
L 376.302246 137.871586 
L 376.428299 137.278749 
L 376.48994 137.278749 
L 376.51815 136.685912 
L 376.546323 137.871586 
L 376.633408 138.464424 
L 376.663933 137.871586 
L 376.732123 138.464424 
L 376.760376 138.464424 
L 376.848875 137.871586 
L 376.964435 138.464424 
L 377.084327 137.871586 
L 377.17195 137.871586 
L 377.298753 138.464424 
L 377.443952 138.464424 
L 377.559965 137.871586 
L 377.676221 137.871586 
L 377.706923 138.464424 
L 377.736595 137.278749 
L 377.774271 137.871586 
L 377.804357 137.871586 
L 377.895188 138.464424 
L 378.071109 136.685912 
L 378.108629 136.685912 
L 378.166592 130.164702 
L 378.226696 134.314563 
L 378.255261 133.721726 
L 378.284588 134.314563 
L 378.431197 137.278749 
L 378.488512 137.278749 
L 378.606499 137.871586 
L 378.696697 137.871586 
L 378.813283 138.464424 
L 378.842963 138.464424 
L 378.960963 137.871586 
L 379.435095 137.871586 
L 379.464344 138.464424 
L 379.521465 137.871586 
L 379.69597 137.871586 
L 379.727269 138.464424 
L 379.78753 137.871586 
L 379.875511 136.685912 
L 379.905358 137.278749 
L 380.020881 137.871586 
L 380.137505 137.278749 
L 380.222871 137.278749 
L 380.339487 136.685912 
L 380.459274 136.685912 
L 380.525925 136.093075 
L 380.670789 137.871586 
L 380.828742 136.685912 
L 380.857998 136.685912 
L 380.917703 134.314563 
L 380.947669 134.9074 
L 381.053501 136.093075 
L 381.412748 134.9074 
L 381.477118 136.093075 
L 381.58006 136.093075 
L 381.730847 129.571865 
L 381.827374 131.350376 
L 381.983337 134.314563 
L 382.022461 134.314563 
L 382.154514 134.9074 
L 382.241489 134.9074 
L 382.326946 134.314563 
L 382.56184 136.093075 
L 382.633145 134.9074 
L 382.666617 136.093075 
L 382.698631 136.093075 
L 382.845484 134.314563 
L 382.939856 136.093075 
L 383.026595 136.093075 
L 383.170053 137.278749 
L 383.204179 137.278749 
L 383.280912 136.093075 
L 383.314814 137.278749 
L 383.425381 137.871586 
L 383.569707 136.685912 
L 383.638644 137.871586 
L 383.667846 136.685912 
L 383.891219 134.314563 
L 383.932132 134.9074 
L 383.971807 134.314563 
L 384.006926 134.314563 
L 384.035222 133.721726 
L 384.072901 134.9074 
L 384.118456 134.9074 
L 384.214516 133.721726 
L 384.326804 136.093075 
L 384.494185 136.093075 
L 384.606123 134.9074 
L 384.757187 136.093075 
L 384.89224 134.9074 
L 384.925775 134.9074 
L 384.959866 136.093075 
L 385.018912 134.9074 
L 385.04858 134.9074 
L 385.173268 136.093075 
L 385.205584 136.093075 
L 385.265287 134.9074 
L 385.299902 136.093075 
L 385.459481 136.093075 
L 385.599411 136.685912 
L 386.205226 136.685912 
L 386.249401 136.093075 
L 386.306334 136.685912 
L 386.407849 136.685912 
L 386.488206 137.278749 
L 386.588862 136.685912 
L 386.768308 136.685912 
L 386.897471 137.278749 
L 387.090987 137.278749 
L 387.119716 137.871586 
L 387.19614 137.278749 
L 387.227318 137.278749 
L 387.31619 136.685912 
L 387.419294 137.278749 
L 387.602068 136.685912 
L 387.812945 136.685912 
L 387.945493 137.278749 
L 388.392457 137.278749 
L 388.518691 137.871586 
L 388.769036 137.871586 
L 388.806975 138.464424 
L 388.871258 137.871586 
L 388.938149 137.871586 
L 389.060521 138.464424 
L 389.092652 138.464424 
L 389.122969 137.871586 
L 389.182229 138.464424 
L 389.449966 138.464424 
L 389.542699 137.871586 
L 389.660701 138.464424 
L 389.691672 138.464424 
L 389.809113 137.871586 
L 389.838178 137.871586 
L 389.97635 138.464424 
L 390.946356 138.464424 
L 391.073833 137.871586 
L 391.760209 137.871586 
L 391.788452 138.464424 
L 391.848589 137.871586 
L 392.325969 137.871586 
L 392.444344 138.464424 
L 392.577667 138.464424 
L 392.605834 137.871586 
L 392.669504 138.464424 
L 392.83009 138.464424 
L 392.862478 137.871586 
L 393.044923 138.464424 
L 393.323765 138.464424 
L 393.352894 139.057261 
L 393.412184 138.464424 
L 393.81312 138.464424 
L 393.850091 137.871586 
L 393.879347 138.464424 
L 394.051765 137.871586 
L 394.170296 138.464424 
L 394.19851 138.464424 
L 394.317194 137.871586 
L 394.374285 137.871586 
L 394.47369 138.464424 
L 394.592615 137.871586 
L 394.625773 137.871586 
L 394.653995 138.464424 
L 394.720383 137.871586 
L 394.866662 137.871586 
L 394.958382 138.464424 
L 395.054321 137.871586 
L 395.172159 138.464424 
L 395.290301 137.871586 
L 395.407232 138.464424 
L 395.535245 138.464424 
L 395.567348 137.871586 
L 395.624636 138.464424 
L 395.742188 138.464424 
L 395.771759 137.871586 
L 395.82953 138.464424 
L 396.296918 138.464424 
L 396.413427 139.057261 
L 396.529939 138.464424 
L 396.645434 139.057261 
L 396.765621 138.464424 
L 396.823001 139.057261 
L 396.851498 138.464424 
L 396.909091 138.464424 
L 397.036092 139.057261 
L 397.067052 139.057261 
L 397.181155 138.464424 
L 397.297839 139.057261 
L 397.356346 139.057261 
L 397.384613 138.464424 
L 397.441055 139.057261 
L 398.373086 139.057261 
L 398.486538 139.650098 
L 398.572683 139.650098 
L 398.603091 139.057261 
L 398.659901 139.650098 
L 398.688988 139.650098 
L 398.718297 139.057261 
L 398.776924 139.650098 
L 400.367345 139.650098 
L 400.395619 140.242935 
L 400.453736 139.650098 
L 400.9174 139.650098 
L 400.976722 140.242935 
L 401.005127 139.650098 
L 401.41035 139.650098 
L 401.523794 140.242935 
L 401.610236 139.650098 
L 401.72588 140.242935 
L 401.785493 139.650098 
L 401.813717 140.242935 
L 401.871609 140.242935 
L 401.990145 139.650098 
L 402.107877 140.242935 
L 402.136909 139.650098 
L 402.195584 140.242935 
L 402.22503 140.242935 
L 402.253298 139.650098 
L 402.311598 140.242935 
L 402.435422 140.242935 
L 402.492441 139.650098 
L 402.520561 140.242935 
L 402.549937 140.242935 
L 402.635599 139.650098 
L 402.749973 140.242935 
L 404.429228 140.242935 
L 404.516769 140.835773 
L 404.630775 140.242935 
L 404.687233 140.242935 
L 404.800879 140.835773 
L 404.885769 140.835773 
L 404.998463 140.242935 
L 405.027878 140.242935 
L 405.140705 140.835773 
L 405.282384 140.835773 
L 405.396832 142.021447 
L 405.511027 140.835773 
L 406.251648 140.835773 
L 406.337707 142.021447 
L 406.36598 140.835773 
L 406.422371 142.021447 
L 407.310063 142.021447 
L 407.401151 140.835773 
L 407.460037 142.021447 
L 407.48916 140.835773 
L 407.518072 140.835773 
L 407.612627 142.021447 
L 407.699008 140.835773 
L 407.796424 142.021447 
L 407.923248 140.835773 
L 407.952253 142.021447 
L 408.012257 140.835773 
L 408.197336 140.835773 
L 408.22887 142.021447 
L 408.288872 140.835773 
L 408.377704 140.835773 
L 408.491986 142.021447 
L 408.548873 142.021447 
L 408.66819 140.835773 
L 408.754847 140.835773 
L 408.868053 142.021447 
L 408.929046 142.021447 
L 409.043414 140.835773 
L 409.385588 140.835773 
L 409.499806 140.242935 
L 409.794329 140.242935 
L 409.907216 139.650098 
L 409.99333 139.650098 
L 410.021874 140.242935 
L 410.07942 139.650098 
L 410.286286 139.650098 
L 410.318096 140.242935 
L 410.378274 139.650098 
L 410.497595 139.650098 
L 410.526968 139.057261 
L 410.584915 139.650098 
L 410.848481 139.650098 
L 410.877115 139.057261 
L 410.933612 139.650098 
L 411.022233 139.650098 
L 411.143029 139.057261 
L 411.321098 139.057261 
L 411.380871 138.464424 
L 411.409125 139.057261 
L 411.440881 139.057261 
L 411.557336 138.464424 
L 411.771675 138.464424 
L 411.887779 137.871586 
L 412.11806 137.871586 
L 412.233348 137.278749 
L 412.26157 137.278749 
L 412.374786 136.685912 
L 412.432387 136.685912 
L 412.521061 137.278749 
L 412.613971 136.685912 
L 412.822864 136.685912 
L 412.912903 134.314563 
L 412.962817 134.9074 
L 413.15661 133.128888 
L 413.229151 133.128888 
L 413.286805 132.536051 
L 413.315048 133.128888 
L 413.553219 133.128888 
L 413.671917 132.536051 
L 413.757634 133.128888 
L 413.787131 132.536051 
L 413.8154 133.128888 
L 413.844671 133.721726 
L 413.904541 133.128888 
L 413.966646 133.128888 
L 414.145546 128.979027 
L 414.206602 132.536051 
L 414.272671 131.350376 
L 414.330352 130.164702 
L 414.358695 133.128888 
L 414.417826 129.571865 
L 414.658167 132.536051 
L 414.804363 131.350376 
L 414.832618 131.943214 
L 414.863594 131.350376 
L 414.978045 130.164702 
L 415.106407 132.536051 
L 415.165284 132.536051 
L 415.226721 133.128888 
L 415.254933 131.943214 
L 415.284939 134.9074 
L 415.411916 134.314563 
L 415.528391 134.9074 
L 415.820343 134.9074 
L 415.971487 131.943214 
L 416.066538 134.314563 
L 416.095657 128.38619 
L 416.154338 131.943214 
L 416.271923 134.314563 
L 416.31132 134.9074 
L 416.369053 134.314563 
L 416.397424 133.721726 
L 416.426709 134.9074 
L 416.456287 134.9074 
L 416.574517 134.314563 
L 416.722221 134.314563 
L 416.75149 134.9074 
L 416.809141 134.314563 
L 416.837352 134.314563 
L 416.952935 134.9074 
L 417.097523 134.9074 
L 417.210727 134.314563 
L 417.268516 134.314563 
L 417.372857 134.9074 
L 417.498259 134.314563 
L 418.012651 134.314563 
L 418.14013 133.128888 
L 418.203663 133.721726 
L 418.243515 133.721726 
L 418.415515 132.536051 
L 418.445378 131.350376 
L 418.48367 133.128888 
L 418.51583 132.536051 
L 418.54753 132.536051 
L 418.587169 133.128888 
L 418.653564 132.536051 
L 418.776059 131.350376 
L 418.836184 131.943214 
L 418.927342 131.350376 
L 419.015383 133.128888 
L 419.221045 129.571865 
L 419.372422 133.721726 
L 419.402025 131.943214 
L 419.482344 133.721726 
L 419.549473 132.536051 
L 419.678165 123.643492 
L 419.948049 129.571865 
L 419.977881 129.571865 
L 420.023261 128.38619 
L 420.101686 131.943214 
L 420.141456 129.571865 
L 420.170929 131.350376 
L 420.207113 129.571865 
L 420.375691 129.571865 
L 420.599494 132.536051 
L 420.676391 128.38619 
L 420.763226 128.979027 
L 420.799651 128.38619 
L 420.965711 130.164702 
L 421.003858 129.571865 
L 421.13605 128.38619 
L 421.356465 131.350376 
L 421.489711 129.571865 
L 421.52174 131.350376 
L 421.554701 128.979027 
L 421.583982 129.571865 
L 421.729243 128.979027 
L 421.761314 127.200516 
L 421.797545 128.38619 
L 421.899861 128.38619 
L 422.140759 130.164702 
L 422.240575 131.350376 
L 422.368442 131.350376 
L 422.409597 129.571865 
L 422.447178 130.164702 
L 422.601335 130.164702 
L 422.666043 129.571865 
L 422.695357 130.164702 
L 422.839018 130.164702 
L 422.871003 129.571865 
L 423.06464 130.164702 
L 423.223773 129.571865 
L 423.331066 129.571865 
L 423.398051 130.164702 
L 423.428887 129.571865 
L 423.533189 130.164702 
L 423.564482 128.979027 
L 423.601684 131.350376 
L 423.644914 130.164702 
L 423.793108 129.571865 
L 423.910187 130.164702 
L 424.054178 127.793353 
L 424.11609 128.38619 
L 424.361994 131.943214 
L 424.491179 131.943214 
L 424.622973 131.350376 
L 424.746485 132.536051 
L 424.817325 131.943214 
L 424.845521 132.536051 
L 424.883827 132.536051 
L 424.916417 131.943214 
L 424.97771 132.536051 
L 425.008015 132.536051 
L 425.0939 133.128888 
L 425.123288 131.943214 
L 425.218332 133.128888 
L 425.902527 133.128888 
L 425.992386 131.943214 
L 426.069951 133.128888 
L 426.116628 132.536051 
L 426.144856 132.536051 
L 426.277158 133.128888 
L 426.427208 133.128888 
L 426.552083 131.350376 
L 426.581231 132.536051 
L 426.612124 132.536051 
L 426.640817 133.128888 
L 426.672805 132.536051 
L 426.887876 130.164702 
L 426.924602 130.164702 
L 427.018217 131.943214 
L 427.067927 131.350376 
L 427.300894 132.536051 
L 427.988504 132.536051 
L 428.189048 131.350376 
L 428.414619 131.350376 
L 428.563964 129.571865 
L 428.804079 129.571865 
L 428.804079 129.571865 
" style="fill:none;stroke:#1f77b4;stroke-linecap:square;stroke-width:1.5;"/>
   </g>
   <g id="line2d_36">
    <path clip-path="url(#p37aa4651a0)" d="M 62.952575 184.112893 
L 65.60362 184.112893 
L 65.720899 160.992239 
L 68.625892 160.992239 
L 68.740232 167.513449 
L 70.657866 167.513449 
L 70.771879 178.777357 
L 71.762837 178.777357 
L 71.876612 190.634102 
L 72.538891 190.634102 
L 145.274257 107.636886 
L 149.093965 107.636886 
L 149.210089 119.493631 
L 150.839029 119.493631 
L 150.955326 130.757539 
L 152.431265 130.757539 
L 152.545706 160.992239 
L 154.746054 160.992239 
L 154.861416 178.777357 
L 155.69547 178.777357 
L 269.617447 114.158096 
L 270.600559 114.158096 
L 270.716688 137.278749 
L 272.185548 137.278749 
L 272.303599 160.992239 
L 275.502702 160.992239 
L 275.617665 172.848985 
L 278.772029 172.848985 
L 278.887297 178.777357 
L 280.82871 178.777357 
L 280.943353 184.112893 
L 282.114827 184.112893 
L 282.234141 195.969638 
L 283.588996 195.969638 
L 283.702538 202.490848 
L 284.586396 202.490848 
L 284.709885 191.819777 
L 285.32149 191.819777 
L 285.43728 195.969638 
L 286.78121 195.969638 
L 286.839487 190.634102 
L 290.899205 190.634102 
L 291.050421 191.819777 
L 291.917294 191.819777 
L 292.044669 190.634102 
L 293.414647 190.634102 
L 293.532557 184.112893 
L 296.710507 184.112893 
L 296.826905 178.777357 
L 298.532196 178.777357 
L 298.648383 172.848985 
L 299.541777 172.848985 
L 299.658916 170.477636 
L 299.974331 170.477636 
L 300.096496 167.513449 
L 303.32083 167.513449 
L 303.43649 160.992239 
L 308.567895 160.992239 
L 308.684561 170.477636 
L 310.151785 170.477636 
L 310.279208 172.848985 
L 311.315603 172.848985 
L 311.43495 170.477636 
L 311.610115 170.477636 
L 311.733245 172.848985 
L 315.88812 172.848985 
L 316.003984 170.477636 
L 316.466138 170.477636 
L 316.582184 172.848985 
L 318.069898 172.848985 
L 318.184571 178.777357 
L 318.942867 178.777357 
L 319.030732 191.819777 
L 319.783724 191.819777 
L 319.901166 195.969638 
L 320.201195 195.969638 
L 320.316834 202.490848 
L 326.900978 202.490848 
L 327.019956 191.819777 
L 328.358835 191.819777 
L 328.473559 202.490848 
L 329.67196 202.490848 
L 329.811172 190.634102 
L 331.242772 190.634102 
L 331.384496 184.112893 
L 331.979571 184.112893 
L 332.092595 181.148706 
L 332.833753 181.148706 
L 332.956807 178.777357 
L 335.044467 178.777357 
L 335.15963 172.848985 
L 336.180552 172.848985 
L 336.294121 167.513449 
L 337.757977 167.513449 
L 337.892508 172.848985 
L 339.333363 172.848985 
L 339.513799 160.992239 
L 342.894415 160.992239 
L 343.018615 155.656704 
L 347.614939 155.656704 
L 347.772428 160.992239 
L 349.077998 160.992239 
L 349.211255 184.112893 
L 351.113703 184.112893 
L 351.24421 195.969638 
L 352.727458 195.969638 
L 352.848656 214.347593 
L 354.644931 214.347593 
L 354.786328 223.832989 
L 356.824239 223.832989 
L 356.93717 234.50406 
L 359.5622 234.50406 
L 359.678335 223.832989 
L 361.15349 223.832989 
L 361.267945 226.204338 
L 363.148239 226.204338 
L 363.261923 223.832989 
L 363.864155 223.832989 
L 363.979964 226.204338 
L 366.607612 226.204338 
L 366.723262 232.132711 
L 371.419568 232.132711 
L 371.535314 223.832989 
L 373.07533 223.832989 
L 373.196852 213.161918 
L 374.911872 213.161918 
L 375.047827 181.148706 
L 375.659953 181.148706 
L 375.778094 172.848985 
L 377.23073 172.848985 
L 377.356453 137.278749 
L 378.784785 137.278749 
L 378.902516 114.158096 
L 380.670789 114.158096 
L 380.798487 102.301351 
L 382.210955 102.301351 
L 382.326946 89.258931 
L 383.790584 89.258931 
L 383.891219 95.780141 
L 385.233834 95.780141 
L 385.363978 107.636886 
L 388.392457 107.636886 
L 388.518691 125.422004 
L 388.806975 125.422004 
L 388.938149 155.656704 
L 390.846352 155.656704 
L 390.983351 167.513449 
L 391.879336 167.513449 
L 392.002117 172.848985 
L 393.469889 172.848985 
L 393.605176 184.112893 
L 395.201448 184.112893 
L 395.320658 190.634102 
L 397.067052 190.634102 
L 397.181155 202.490848 
L 397.933683 202.490848 
L 398.051752 223.832989 
L 398.952995 223.832989 
L 399.069227 214.347593 
L 399.388937 214.347593 
L 399.502706 223.832989 
L 401.668118 223.832989 
L 401.785493 226.204338 
L 402.520561 226.204338 
L 402.635599 223.832989 
L 403.384458 223.832989 
L 403.499643 237.468246 
L 405.825251 237.468246 
L 405.939712 245.17513 
L 406.110267 245.17513 
L 406.223413 234.50406 
L 406.544726 234.50406 
L 406.658064 237.468246 
L 408.520317 237.468246 
L 408.639942 214.347593 
L 410.107711 214.347593 
L 410.227748 190.634102 
L 411.829288 190.634102 
L 411.945075 149.135494 
L 413.376979 149.135494 
L 413.496702 114.158096 
L 414.948846 114.158096 
L 415.076099 83.923396 
L 416.636115 83.923396 
L 416.75149 66.138278 
L 418.334343 66.138278 
L 418.48367 54.281533 
L 419.875079 54.281533 
L 420.023261 35.903578 
L 421.614846 35.903578 
L 421.797545 42.424787 
L 424.659282 42.424787 
L 424.845521 72.06665 
L 426.363051 72.06665 
L 426.427208 95.780141 
L 428.017694 95.780141 
L 428.151084 125.422004 
L 428.804079 125.422004 
L 428.804079 125.422004 
" style="fill:none;stroke:#ff7f0e;stroke-linecap:square;stroke-width:1.5;"/>
   </g>
   <g id="patch_3">
    <path d="M 44.66 255.638708 
L 44.66 25.44 
" style="fill:none;stroke:#000000;stroke-linecap:square;stroke-linejoin:miter;stroke-width:0.8;"/>
   </g>
   <g id="patch_4">
    <path d="M 447.096654 255.638708 
L 447.096654 25.44 
" style="fill:none;stroke:#000000;stroke-linecap:square;stroke-linejoin:miter;stroke-width:0.8;"/>
   </g>
   <g id="patch_5">
    <path d="M 44.66 255.638708 
L 447.096654 255.638708 
" style="fill:none;stroke:#000000;stroke-linecap:square;stroke-linejoin:miter;stroke-width:0.8;"/>
   </g>
   <g id="patch_6">
    <path d="M 44.66 25.44 
L 447.096654 25.44 
" style="fill:none;stroke:#000000;stroke-linecap:square;stroke-linejoin:miter;stroke-width:0.8;"/>
   </g>
   <g id="text_20">
    <!-- Lake Shoecraft - Water and Air Temperature -->
    <g transform="translate(114.25989 19.44)scale(0.12 -0.12)">
     <defs>
      <path d="M 9.8125 72.90625 
L 19.671875 72.90625 
L 19.671875 8.296875 
L 55.171875 8.296875 
L 55.171875 0 
L 9.8125 0 
z
" id="DejaVuSans-76"/>
      <path d="M 9.078125 75.984375 
L 18.109375 75.984375 
L 18.109375 31.109375 
L 44.921875 54.6875 
L 56.390625 54.6875 
L 27.390625 29.109375 
L 57.625 0 
L 45.90625 0 
L 18.109375 26.703125 
L 18.109375 0 
L 9.078125 0 
z
" id="DejaVuSans-107"/>
      <path d="M 53.515625 70.515625 
L 53.515625 60.890625 
Q 47.90625 63.578125 42.921875 64.890625 
Q 37.9375 66.21875 33.296875 66.21875 
Q 25.25 66.21875 20.875 63.09375 
Q 16.5 59.96875 16.5 54.203125 
Q 16.5 49.359375 19.40625 46.890625 
Q 22.3125 44.4375 30.421875 42.921875 
L 36.375 41.703125 
Q 47.40625 39.59375 52.65625 34.296875 
Q 57.90625 29 57.90625 20.125 
Q 57.90625 9.515625 50.796875 4.046875 
Q 43.703125 -1.421875 29.984375 -1.421875 
Q 24.8125 -1.421875 18.96875 -0.25 
Q 13.140625 0.921875 6.890625 3.21875 
L 6.890625 13.375 
Q 12.890625 10.015625 18.65625 8.296875 
Q 24.421875 6.59375 29.984375 6.59375 
Q 38.421875 6.59375 43.015625 9.90625 
Q 47.609375 13.234375 47.609375 19.390625 
Q 47.609375 24.75 44.3125 27.78125 
Q 41.015625 30.8125 33.5 32.328125 
L 27.484375 33.5 
Q 16.453125 35.6875 11.515625 40.375 
Q 6.59375 45.0625 6.59375 53.421875 
Q 6.59375 63.09375 13.40625 68.65625 
Q 20.21875 74.21875 32.171875 74.21875 
Q 37.3125 74.21875 42.625 73.28125 
Q 47.953125 72.359375 53.515625 70.515625 
z
" id="DejaVuSans-83"/>
      <path d="M 54.890625 33.015625 
L 54.890625 0 
L 45.90625 0 
L 45.90625 32.71875 
Q 45.90625 40.484375 42.875 44.328125 
Q 39.84375 48.1875 33.796875 48.1875 
Q 26.515625 48.1875 22.3125 43.546875 
Q 18.109375 38.921875 18.109375 30.90625 
L 18.109375 0 
L 9.078125 0 
L 9.078125 75.984375 
L 18.109375 75.984375 
L 18.109375 46.1875 
Q 21.34375 51.125 25.703125 53.5625 
Q 30.078125 56 35.796875 56 
Q 45.21875 56 50.046875 50.171875 
Q 54.890625 44.34375 54.890625 33.015625 
z
" id="DejaVuSans-104"/>
      <path d="M 30.609375 48.390625 
Q 23.390625 48.390625 19.1875 42.75 
Q 14.984375 37.109375 14.984375 27.296875 
Q 14.984375 17.484375 19.15625 11.84375 
Q 23.34375 6.203125 30.609375 6.203125 
Q 37.796875 6.203125 41.984375 11.859375 
Q 46.1875 17.53125 46.1875 27.296875 
Q 46.1875 37.015625 41.984375 42.703125 
Q 37.796875 48.390625 30.609375 48.390625 
z
M 30.609375 56 
Q 42.328125 56 49.015625 48.375 
Q 55.71875 40.765625 55.71875 27.296875 
Q 55.71875 13.875 49.015625 6.21875 
Q 42.328125 -1.421875 30.609375 -1.421875 
Q 18.84375 -1.421875 12.171875 6.21875 
Q 5.515625 13.875 5.515625 27.296875 
Q 5.515625 40.765625 12.171875 48.375 
Q 18.84375 56 30.609375 56 
z
" id="DejaVuSans-111"/>
      <path d="M 48.78125 52.59375 
L 48.78125 44.1875 
Q 44.96875 46.296875 41.140625 47.34375 
Q 37.3125 48.390625 33.40625 48.390625 
Q 24.65625 48.390625 19.8125 42.84375 
Q 14.984375 37.3125 14.984375 27.296875 
Q 14.984375 17.28125 19.8125 11.734375 
Q 24.65625 6.203125 33.40625 6.203125 
Q 37.3125 6.203125 41.140625 7.25 
Q 44.96875 8.296875 48.78125 10.40625 
L 48.78125 2.09375 
Q 45.015625 0.34375 40.984375 -0.53125 
Q 36.96875 -1.421875 32.421875 -1.421875 
Q 20.0625 -1.421875 12.78125 6.34375 
Q 5.515625 14.109375 5.515625 27.296875 
Q 5.515625 40.671875 12.859375 48.328125 
Q 20.21875 56 33.015625 56 
Q 37.15625 56 41.109375 55.140625 
Q 45.0625 54.296875 48.78125 52.59375 
z
" id="DejaVuSans-99"/>
      <path d="M 37.109375 75.984375 
L 37.109375 68.5 
L 28.515625 68.5 
Q 23.6875 68.5 21.796875 66.546875 
Q 19.921875 64.59375 19.921875 59.515625 
L 19.921875 54.6875 
L 34.71875 54.6875 
L 34.71875 47.703125 
L 19.921875 47.703125 
L 19.921875 0 
L 10.890625 0 
L 10.890625 47.703125 
L 2.296875 47.703125 
L 2.296875 54.6875 
L 10.890625 54.6875 
L 10.890625 58.5 
Q 10.890625 67.625 15.140625 71.796875 
Q 19.390625 75.984375 28.609375 75.984375 
z
" id="DejaVuSans-102"/>
      <path d="M 3.328125 72.90625 
L 13.28125 72.90625 
L 28.609375 11.28125 
L 43.890625 72.90625 
L 54.984375 72.90625 
L 70.3125 11.28125 
L 85.59375 72.90625 
L 95.609375 72.90625 
L 77.296875 0 
L 64.890625 0 
L 49.515625 63.28125 
L 33.984375 0 
L 21.578125 0 
z
" id="DejaVuSans-87"/>
      <path d="M 54.890625 33.015625 
L 54.890625 0 
L 45.90625 0 
L 45.90625 32.71875 
Q 45.90625 40.484375 42.875 44.328125 
Q 39.84375 48.1875 33.796875 48.1875 
Q 26.515625 48.1875 22.3125 43.546875 
Q 18.109375 38.921875 18.109375 30.90625 
L 18.109375 0 
L 9.078125 0 
L 9.078125 54.6875 
L 18.109375 54.6875 
L 18.109375 46.1875 
Q 21.34375 51.125 25.703125 53.5625 
Q 30.078125 56 35.796875 56 
Q 45.21875 56 50.046875 50.171875 
Q 54.890625 44.34375 54.890625 33.015625 
z
" id="DejaVuSans-110"/>
      <path d="M 45.40625 46.390625 
L 45.40625 75.984375 
L 54.390625 75.984375 
L 54.390625 0 
L 45.40625 0 
L 45.40625 8.203125 
Q 42.578125 3.328125 38.25 0.953125 
Q 33.9375 -1.421875 27.875 -1.421875 
Q 17.96875 -1.421875 11.734375 6.484375 
Q 5.515625 14.40625 5.515625 27.296875 
Q 5.515625 40.1875 11.734375 48.09375 
Q 17.96875 56 27.875 56 
Q 33.9375 56 38.25 53.625 
Q 42.578125 51.265625 45.40625 46.390625 
z
M 14.796875 27.296875 
Q 14.796875 17.390625 18.875 11.75 
Q 22.953125 6.109375 30.078125 6.109375 
Q 37.203125 6.109375 41.296875 11.75 
Q 45.40625 17.390625 45.40625 27.296875 
Q 45.40625 37.203125 41.296875 42.84375 
Q 37.203125 48.484375 30.078125 48.484375 
Q 22.953125 48.484375 18.875 42.84375 
Q 14.796875 37.203125 14.796875 27.296875 
z
" id="DejaVuSans-100"/>
      <path d="M 34.1875 63.1875 
L 20.796875 26.90625 
L 47.609375 26.90625 
z
M 28.609375 72.90625 
L 39.796875 72.90625 
L 67.578125 0 
L 57.328125 0 
L 50.6875 18.703125 
L 17.828125 18.703125 
L 11.1875 0 
L 0.78125 0 
z
" id="DejaVuSans-65"/>
      <path d="M 9.421875 54.6875 
L 18.40625 54.6875 
L 18.40625 0 
L 9.421875 0 
z
M 9.421875 75.984375 
L 18.40625 75.984375 
L 18.40625 64.59375 
L 9.421875 64.59375 
z
" id="DejaVuSans-105"/>
     </defs>
     <use xlink:href="#DejaVuSans-76"/>
     <use x="55.712891" xlink:href="#DejaVuSans-97"/>
     <use x="116.992188" xlink:href="#DejaVuSans-107"/>
     <use x="171.277344" xlink:href="#DejaVuSans-101"/>
     <use x="232.800781" xlink:href="#DejaVuSans-32"/>
     <use x="264.587891" xlink:href="#DejaVuSans-83"/>
     <use x="328.064453" xlink:href="#DejaVuSans-104"/>
     <use x="391.443359" xlink:href="#DejaVuSans-111"/>
     <use x="452.625" xlink:href="#DejaVuSans-101"/>
     <use x="514.148438" xlink:href="#DejaVuSans-99"/>
     <use x="569.128906" xlink:href="#DejaVuSans-114"/>
     <use x="610.242188" xlink:href="#DejaVuSans-97"/>
     <use x="671.521484" xlink:href="#DejaVuSans-102"/>
     <use x="704.976562" xlink:href="#DejaVuSans-116"/>
     <use x="744.185547" xlink:href="#DejaVuSans-32"/>
     <use x="775.972656" xlink:href="#DejaVuSans-45"/>
     <use x="812.056641" xlink:href="#DejaVuSans-32"/>
     <use x="843.84375" xlink:href="#DejaVuSans-87"/>
     <use x="936.345703" xlink:href="#DejaVuSans-97"/>
     <use x="997.625" xlink:href="#DejaVuSans-116"/>
     <use x="1036.833984" xlink:href="#DejaVuSans-101"/>
     <use x="1098.357422" xlink:href="#DejaVuSans-114"/>
     <use x="1139.470703" xlink:href="#DejaVuSans-32"/>
     <use x="1171.257812" xlink:href="#DejaVuSans-97"/>
     <use x="1232.537109" xlink:href="#DejaVuSans-110"/>
     <use x="1295.916016" xlink:href="#DejaVuSans-100"/>
     <use x="1359.392578" xlink:href="#DejaVuSans-32"/>
     <use x="1391.179688" xlink:href="#DejaVuSans-65"/>
     <use x="1459.587891" xlink:href="#DejaVuSans-105"/>
     <use x="1487.371094" xlink:href="#DejaVuSans-114"/>
     <use x="1528.484375" xlink:href="#DejaVuSans-32"/>
     <use x="1560.271484" xlink:href="#DejaVuSans-84"/>
     <use x="1604.355469" xlink:href="#DejaVuSans-101"/>
     <use x="1665.878906" xlink:href="#DejaVuSans-109"/>
     <use x="1763.291016" xlink:href="#DejaVuSans-112"/>
     <use x="1826.767578" xlink:href="#DejaVuSans-101"/>
     <use x="1888.291016" xlink:href="#DejaVuSans-114"/>
     <use x="1929.404297" xlink:href="#DejaVuSans-97"/>
     <use x="1990.683594" xlink:href="#DejaVuSans-116"/>
     <use x="2029.892578" xlink:href="#DejaVuSans-117"/>
     <use x="2093.271484" xlink:href="#DejaVuSans-114"/>
     <use x="2132.134766" xlink:href="#DejaVuSans-101"/>
    </g>
   </g>
   <g id="legend_1">
    <g id="patch_7">
     <path d="M 51.66 62.79625 
L 136.769375 62.79625 
Q 138.769375 62.79625 138.769375 60.79625 
L 138.769375 32.44 
Q 138.769375 30.44 136.769375 30.44 
L 51.66 30.44 
Q 49.66 30.44 49.66 32.44 
L 49.66 60.79625 
Q 49.66 62.79625 51.66 62.79625 
z
" style="fill:#ffffff;opacity:0.8;stroke:#cccccc;stroke-linejoin:miter;"/>
    </g>
    <g id="line2d_37">
     <path d="M 53.66 38.538437 
L 73.66 38.538437 
" style="fill:none;stroke:#1f77b4;stroke-linecap:square;stroke-width:1.5;"/>
    </g>
    <g id="line2d_38"/>
    <g id="text_21">
     <!-- Lake Temp -->
     <g transform="translate(81.66 42.038437)scale(0.1 -0.1)">
      <use xlink:href="#DejaVuSans-76"/>
      <use x="55.712891" xlink:href="#DejaVuSans-97"/>
      <use x="116.992188" xlink:href="#DejaVuSans-107"/>
      <use x="171.277344" xlink:href="#DejaVuSans-101"/>
      <use x="232.800781" xlink:href="#DejaVuSans-32"/>
      <use x="264.587891" xlink:href="#DejaVuSans-84"/>
      <use x="308.671875" xlink:href="#DejaVuSans-101"/>
      <use x="370.195312" xlink:href="#DejaVuSans-109"/>
      <use x="467.607422" xlink:href="#DejaVuSans-112"/>
     </g>
    </g>
    <g id="line2d_39">
     <path d="M 53.66 53.216562 
L 73.66 53.216562 
" style="fill:none;stroke:#ff7f0e;stroke-linecap:square;stroke-width:1.5;"/>
    </g>
    <g id="line2d_40"/>
    <g id="text_22">
     <!-- Air Temp -->
     <g transform="translate(81.66 56.716562)scale(0.1 -0.1)">
      <use xlink:href="#DejaVuSans-65"/>
      <use x="68.408203" xlink:href="#DejaVuSans-105"/>
      <use x="96.191406" xlink:href="#DejaVuSans-114"/>
      <use x="137.304688" xlink:href="#DejaVuSans-32"/>
      <use x="169.091797" xlink:href="#DejaVuSans-84"/>
      <use x="213.175781" xlink:href="#DejaVuSans-101"/>
      <use x="274.699219" xlink:href="#DejaVuSans-109"/>
      <use x="372.111328" xlink:href="#DejaVuSans-112"/>
     </g>
    </g>
   </g>
  </g>
 </g>
 <defs>
  <clipPath id="p37aa4651a0">
   <rect height="230.198708" width="402.436654" x="44.66" y="25.44"/>
  </clipPath>
 </defs>
</svg>
