<?xml version="1.0" encoding="utf-8" standalone="no"?>
<!DOCTYPE svg PUBLIC "-//W3C//DTD SVG 1.1//EN"
  "http://www.w3.org/Graphics/SVG/1.1/DTD/svg11.dtd">
<!-- Created with matplotlib (https://matplotlib.org/) -->
<svg height="345.6pt" version="1.1" viewBox="0 0 460.8 345.6" width="460.8pt" xmlns="http://www.w3.org/2000/svg" xmlns:xlink="http://www.w3.org/1999/xlink">
 <metadata>
  <rdf:RDF xmlns:cc="http://creativecommons.org/ns#" xmlns:dc="http://purl.org/dc/elements/1.1/" xmlns:rdf="http://www.w3.org/1999/02/22-rdf-syntax-ns#">
   <cc:Work>
    <dc:type rdf:resource="http://purl.org/dc/dcmitype/StillImage"/>
    <dc:date>2024-09-02T21:55:36.595085</dc:date>
    <dc:format>image/svg+xml</dc:format>
    <dc:creator>
     <cc:Agent>
      <dc:title>Matplotlib v3.3.2, https://matplotlib.org/</dc:title>
     </cc:Agent>
    </dc:creator>
   </cc:Work>
  </rdf:RDF>
 </metadata>
 <defs>
  <style type="text/css">*{stroke-linecap:butt;stroke-linejoin:round;}</style>
 </defs>
 <g id="figure_1">
  <g id="patch_1">
   <path d="M 0 345.6 
L 460.8 345.6 
L 460.8 0 
L 0 0 
z
" style="fill:none;"/>
  </g>
  <g id="axes_1">
   <g id="patch_2">
    <path d="M 44.66 255.638708 
L 447.118206 255.638708 
L 447.118206 25.44 
L 44.66 25.44 
z
" style="fill:none;"/>
   </g>
   <g id="matplotlib.axis_1">
    <g id="xtick_1">
     <g id="line2d_1">
      <path clip-path="url(#p3931e0de6d)" d="M 87.381808 255.638708 
L 87.381808 25.44 
" style="fill:none;stroke:#b0b0b0;stroke-linecap:square;stroke-width:0.8;"/>
     </g>
     <g id="line2d_2">
      <defs>
       <path d="M 0 0 
L 0 3.5 
" id="m75cd14fbd1" style="stroke:#000000;stroke-width:0.8;"/>
      </defs>
      <g>
       <use style="stroke:#000000;stroke-width:0.8;" x="87.381808" xlink:href="#m75cd14fbd1" y="255.638708"/>
      </g>
     </g>
     <g id="text_1">
      <!-- 2024-08-28 -->
      <g transform="translate(80.036415 319.848351)rotate(-70)scale(0.1 -0.1)">
       <defs>
        <path d="M 19.1875 8.296875 
L 53.609375 8.296875 
L 53.609375 0 
L 7.328125 0 
L 7.328125 8.296875 
Q 12.9375 14.109375 22.625 23.890625 
Q 32.328125 33.6875 34.8125 36.53125 
Q 39.546875 41.84375 41.421875 45.53125 
Q 43.3125 49.21875 43.3125 52.78125 
Q 43.3125 58.59375 39.234375 62.25 
Q 35.15625 65.921875 28.609375 65.921875 
Q 23.96875 65.921875 18.8125 64.3125 
Q 13.671875 62.703125 7.8125 59.421875 
L 7.8125 69.390625 
Q 13.765625 71.78125 18.9375 73 
Q 24.125 74.21875 28.421875 74.21875 
Q 39.75 74.21875 46.484375 68.546875 
Q 53.21875 62.890625 53.21875 53.421875 
Q 53.21875 48.921875 51.53125 44.890625 
Q 49.859375 40.875 45.40625 35.40625 
Q 44.1875 33.984375 37.640625 27.21875 
Q 31.109375 20.453125 19.1875 8.296875 
z
" id="DejaVuSans-50"/>
        <path d="M 31.78125 66.40625 
Q 24.171875 66.40625 20.328125 58.90625 
Q 16.5 51.421875 16.5 36.375 
Q 16.5 21.390625 20.328125 13.890625 
Q 24.171875 6.390625 31.78125 6.390625 
Q 39.453125 6.390625 43.28125 13.890625 
Q 47.125 21.390625 47.125 36.375 
Q 47.125 51.421875 43.28125 58.90625 
Q 39.453125 66.40625 31.78125 66.40625 
z
M 31.78125 74.21875 
Q 44.046875 74.21875 50.515625 64.515625 
Q 56.984375 54.828125 56.984375 36.375 
Q 56.984375 17.96875 50.515625 8.265625 
Q 44.046875 -1.421875 31.78125 -1.421875 
Q 19.53125 -1.421875 13.0625 8.265625 
Q 6.59375 17.96875 6.59375 36.375 
Q 6.59375 54.828125 13.0625 64.515625 
Q 19.53125 74.21875 31.78125 74.21875 
z
" id="DejaVuSans-48"/>
        <path d="M 37.796875 64.3125 
L 12.890625 25.390625 
L 37.796875 25.390625 
z
M 35.203125 72.90625 
L 47.609375 72.90625 
L 47.609375 25.390625 
L 58.015625 25.390625 
L 58.015625 17.1875 
L 47.609375 17.1875 
L 47.609375 0 
L 37.796875 0 
L 37.796875 17.1875 
L 4.890625 17.1875 
L 4.890625 26.703125 
z
" id="DejaVuSans-52"/>
        <path d="M 4.890625 31.390625 
L 31.203125 31.390625 
L 31.203125 23.390625 
L 4.890625 23.390625 
z
" id="DejaVuSans-45"/>
        <path d="M 31.78125 34.625 
Q 24.75 34.625 20.71875 30.859375 
Q 16.703125 27.09375 16.703125 20.515625 
Q 16.703125 13.921875 20.71875 10.15625 
Q 24.75 6.390625 31.78125 6.390625 
Q 38.8125 6.390625 42.859375 10.171875 
Q 46.921875 13.96875 46.921875 20.515625 
Q 46.921875 27.09375 42.890625 30.859375 
Q 38.875 34.625 31.78125 34.625 
z
M 21.921875 38.8125 
Q 15.578125 40.375 12.03125 44.71875 
Q 8.5 49.078125 8.5 55.328125 
Q 8.5 64.0625 14.71875 69.140625 
Q 20.953125 74.21875 31.78125 74.21875 
Q 42.671875 74.21875 48.875 69.140625 
Q 55.078125 64.0625 55.078125 55.328125 
Q 55.078125 49.078125 51.53125 44.71875 
Q 48 40.375 41.703125 38.8125 
Q 48.828125 37.15625 52.796875 32.3125 
Q 56.78125 27.484375 56.78125 20.515625 
Q 56.78125 9.90625 50.3125 4.234375 
Q 43.84375 -1.421875 31.78125 -1.421875 
Q 19.734375 -1.421875 13.25 4.234375 
Q 6.78125 9.90625 6.78125 20.515625 
Q 6.78125 27.484375 10.78125 32.3125 
Q 14.796875 37.15625 21.921875 38.8125 
z
M 18.3125 54.390625 
Q 18.3125 48.734375 21.84375 45.5625 
Q 25.390625 42.390625 31.78125 42.390625 
Q 38.140625 42.390625 41.71875 45.5625 
Q 45.3125 48.734375 45.3125 54.390625 
Q 45.3125 60.0625 41.71875 63.234375 
Q 38.140625 66.40625 31.78125 66.40625 
Q 25.390625 66.40625 21.84375 63.234375 
Q 18.3125 60.0625 18.3125 54.390625 
z
" id="DejaVuSans-56"/>
       </defs>
       <use xlink:href="#DejaVuSans-50"/>
       <use x="63.623047" xlink:href="#DejaVuSans-48"/>
       <use x="127.246094" xlink:href="#DejaVuSans-50"/>
       <use x="190.869141" xlink:href="#DejaVuSans-52"/>
       <use x="254.492188" xlink:href="#DejaVuSans-45"/>
       <use x="290.576172" xlink:href="#DejaVuSans-48"/>
       <use x="354.199219" xlink:href="#DejaVuSans-56"/>
       <use x="417.822266" xlink:href="#DejaVuSans-45"/>
       <use x="453.90625" xlink:href="#DejaVuSans-50"/>
       <use x="517.529297" xlink:href="#DejaVuSans-56"/>
      </g>
     </g>
    </g>
    <g id="xtick_2">
     <g id="line2d_3">
      <path clip-path="url(#p3931e0de6d)" d="M 145.122134 255.638708 
L 145.122134 25.44 
" style="fill:none;stroke:#b0b0b0;stroke-linecap:square;stroke-width:0.8;"/>
     </g>
     <g id="line2d_4">
      <g>
       <use style="stroke:#000000;stroke-width:0.8;" x="145.122134" xlink:href="#m75cd14fbd1" y="255.638708"/>
      </g>
     </g>
     <g id="text_2">
      <!-- 2024-08-29 -->
      <g transform="translate(137.776741 319.848351)rotate(-70)scale(0.1 -0.1)">
       <defs>
        <path d="M 10.984375 1.515625 
L 10.984375 10.5 
Q 14.703125 8.734375 18.5 7.8125 
Q 22.3125 6.890625 25.984375 6.890625 
Q 35.75 6.890625 40.890625 13.453125 
Q 46.046875 20.015625 46.78125 33.40625 
Q 43.953125 29.203125 39.59375 26.953125 
Q 35.25 24.703125 29.984375 24.703125 
Q 19.046875 24.703125 12.671875 31.3125 
Q 6.296875 37.9375 6.296875 49.421875 
Q 6.296875 60.640625 12.9375 67.421875 
Q 19.578125 74.21875 30.609375 74.21875 
Q 43.265625 74.21875 49.921875 64.515625 
Q 56.59375 54.828125 56.59375 36.375 
Q 56.59375 19.140625 48.40625 8.859375 
Q 40.234375 -1.421875 26.421875 -1.421875 
Q 22.703125 -1.421875 18.890625 -0.6875 
Q 15.09375 0.046875 10.984375 1.515625 
z
M 30.609375 32.421875 
Q 37.25 32.421875 41.125 36.953125 
Q 45.015625 41.5 45.015625 49.421875 
Q 45.015625 57.28125 41.125 61.84375 
Q 37.25 66.40625 30.609375 66.40625 
Q 23.96875 66.40625 20.09375 61.84375 
Q 16.21875 57.28125 16.21875 49.421875 
Q 16.21875 41.5 20.09375 36.953125 
Q 23.96875 32.421875 30.609375 32.421875 
z
" id="DejaVuSans-57"/>
       </defs>
       <use xlink:href="#DejaVuSans-50"/>
       <use x="63.623047" xlink:href="#DejaVuSans-48"/>
       <use x="127.246094" xlink:href="#DejaVuSans-50"/>
       <use x="190.869141" xlink:href="#DejaVuSans-52"/>
       <use x="254.492188" xlink:href="#DejaVuSans-45"/>
       <use x="290.576172" xlink:href="#DejaVuSans-48"/>
       <use x="354.199219" xlink:href="#DejaVuSans-56"/>
       <use x="417.822266" xlink:href="#DejaVuSans-45"/>
       <use x="453.90625" xlink:href="#DejaVuSans-50"/>
       <use x="517.529297" xlink:href="#DejaVuSans-57"/>
      </g>
     </g>
    </g>
    <g id="xtick_3">
     <g id="line2d_5">
      <path clip-path="url(#p3931e0de6d)" d="M 202.862459 255.638708 
L 202.862459 25.44 
" style="fill:none;stroke:#b0b0b0;stroke-linecap:square;stroke-width:0.8;"/>
     </g>
     <g id="line2d_6">
      <g>
       <use style="stroke:#000000;stroke-width:0.8;" x="202.862459" xlink:href="#m75cd14fbd1" y="255.638708"/>
      </g>
     </g>
     <g id="text_3">
      <!-- 2024-08-30 -->
      <g transform="translate(195.517067 319.848351)rotate(-70)scale(0.1 -0.1)">
       <defs>
        <path d="M 40.578125 39.3125 
Q 47.65625 37.796875 51.625 33 
Q 55.609375 28.21875 55.609375 21.1875 
Q 55.609375 10.40625 48.1875 4.484375 
Q 40.765625 -1.421875 27.09375 -1.421875 
Q 22.515625 -1.421875 17.65625 -0.515625 
Q 12.796875 0.390625 7.625 2.203125 
L 7.625 11.71875 
Q 11.71875 9.328125 16.59375 8.109375 
Q 21.484375 6.890625 26.8125 6.890625 
Q 36.078125 6.890625 40.9375 10.546875 
Q 45.796875 14.203125 45.796875 21.1875 
Q 45.796875 27.640625 41.28125 31.265625 
Q 36.765625 34.90625 28.71875 34.90625 
L 20.21875 34.90625 
L 20.21875 43.015625 
L 29.109375 43.015625 
Q 36.375 43.015625 40.234375 45.921875 
Q 44.09375 48.828125 44.09375 54.296875 
Q 44.09375 59.90625 40.109375 62.90625 
Q 36.140625 65.921875 28.71875 65.921875 
Q 24.65625 65.921875 20.015625 65.03125 
Q 15.375 64.15625 9.8125 62.3125 
L 9.8125 71.09375 
Q 15.4375 72.65625 20.34375 73.4375 
Q 25.25 74.21875 29.59375 74.21875 
Q 40.828125 74.21875 47.359375 69.109375 
Q 53.90625 64.015625 53.90625 55.328125 
Q 53.90625 49.265625 50.4375 45.09375 
Q 46.96875 40.921875 40.578125 39.3125 
z
" id="DejaVuSans-51"/>
       </defs>
       <use xlink:href="#DejaVuSans-50"/>
       <use x="63.623047" xlink:href="#DejaVuSans-48"/>
       <use x="127.246094" xlink:href="#DejaVuSans-50"/>
       <use x="190.869141" xlink:href="#DejaVuSans-52"/>
       <use x="254.492188" xlink:href="#DejaVuSans-45"/>
       <use x="290.576172" xlink:href="#DejaVuSans-48"/>
       <use x="354.199219" xlink:href="#DejaVuSans-56"/>
       <use x="417.822266" xlink:href="#DejaVuSans-45"/>
       <use x="453.90625" xlink:href="#DejaVuSans-51"/>
       <use x="517.529297" xlink:href="#DejaVuSans-48"/>
      </g>
     </g>
    </g>
    <g id="xtick_4">
     <g id="line2d_7">
      <path clip-path="url(#p3931e0de6d)" d="M 260.602785 255.638708 
L 260.602785 25.44 
" style="fill:none;stroke:#b0b0b0;stroke-linecap:square;stroke-width:0.8;"/>
     </g>
     <g id="line2d_8">
      <g>
       <use style="stroke:#000000;stroke-width:0.8;" x="260.602785" xlink:href="#m75cd14fbd1" y="255.638708"/>
      </g>
     </g>
     <g id="text_4">
      <!-- 2024-08-31 -->
      <g transform="translate(253.257392 319.848351)rotate(-70)scale(0.1 -0.1)">
       <defs>
        <path d="M 12.40625 8.296875 
L 28.515625 8.296875 
L 28.515625 63.921875 
L 10.984375 60.40625 
L 10.984375 69.390625 
L 28.421875 72.90625 
L 38.28125 72.90625 
L 38.28125 8.296875 
L 54.390625 8.296875 
L 54.390625 0 
L 12.40625 0 
z
" id="DejaVuSans-49"/>
       </defs>
       <use xlink:href="#DejaVuSans-50"/>
       <use x="63.623047" xlink:href="#DejaVuSans-48"/>
       <use x="127.246094" xlink:href="#DejaVuSans-50"/>
       <use x="190.869141" xlink:href="#DejaVuSans-52"/>
       <use x="254.492188" xlink:href="#DejaVuSans-45"/>
       <use x="290.576172" xlink:href="#DejaVuSans-48"/>
       <use x="354.199219" xlink:href="#DejaVuSans-56"/>
       <use x="417.822266" xlink:href="#DejaVuSans-45"/>
       <use x="453.90625" xlink:href="#DejaVuSans-51"/>
       <use x="517.529297" xlink:href="#DejaVuSans-49"/>
      </g>
     </g>
    </g>
    <g id="xtick_5">
     <g id="line2d_9">
      <path clip-path="url(#p3931e0de6d)" d="M 318.343111 255.638708 
L 318.343111 25.44 
" style="fill:none;stroke:#b0b0b0;stroke-linecap:square;stroke-width:0.8;"/>
     </g>
     <g id="line2d_10">
      <g>
       <use style="stroke:#000000;stroke-width:0.8;" x="318.343111" xlink:href="#m75cd14fbd1" y="255.638708"/>
      </g>
     </g>
     <g id="text_5">
      <!-- 2024-09-01 -->
      <g transform="translate(310.997718 319.848351)rotate(-70)scale(0.1 -0.1)">
       <use xlink:href="#DejaVuSans-50"/>
       <use x="63.623047" xlink:href="#DejaVuSans-48"/>
       <use x="127.246094" xlink:href="#DejaVuSans-50"/>
       <use x="190.869141" xlink:href="#DejaVuSans-52"/>
       <use x="254.492188" xlink:href="#DejaVuSans-45"/>
       <use x="290.576172" xlink:href="#DejaVuSans-48"/>
       <use x="354.199219" xlink:href="#DejaVuSans-57"/>
       <use x="417.822266" xlink:href="#DejaVuSans-45"/>
       <use x="453.90625" xlink:href="#DejaVuSans-48"/>
       <use x="517.529297" xlink:href="#DejaVuSans-49"/>
      </g>
     </g>
    </g>
    <g id="xtick_6">
     <g id="line2d_11">
      <path clip-path="url(#p3931e0de6d)" d="M 376.083436 255.638708 
L 376.083436 25.44 
" style="fill:none;stroke:#b0b0b0;stroke-linecap:square;stroke-width:0.8;"/>
     </g>
     <g id="line2d_12">
      <g>
       <use style="stroke:#000000;stroke-width:0.8;" x="376.083436" xlink:href="#m75cd14fbd1" y="255.638708"/>
      </g>
     </g>
     <g id="text_6">
      <!-- 2024-09-02 -->
      <g transform="translate(368.738043 319.848351)rotate(-70)scale(0.1 -0.1)">
       <use xlink:href="#DejaVuSans-50"/>
       <use x="63.623047" xlink:href="#DejaVuSans-48"/>
       <use x="127.246094" xlink:href="#DejaVuSans-50"/>
       <use x="190.869141" xlink:href="#DejaVuSans-52"/>
       <use x="254.492188" xlink:href="#DejaVuSans-45"/>
       <use x="290.576172" xlink:href="#DejaVuSans-48"/>
       <use x="354.199219" xlink:href="#DejaVuSans-57"/>
       <use x="417.822266" xlink:href="#DejaVuSans-45"/>
       <use x="453.90625" xlink:href="#DejaVuSans-48"/>
       <use x="517.529297" xlink:href="#DejaVuSans-50"/>
      </g>
     </g>
    </g>
    <g id="xtick_7">
     <g id="line2d_13">
      <path clip-path="url(#p3931e0de6d)" d="M 433.823762 255.638708 
L 433.823762 25.44 
" style="fill:none;stroke:#b0b0b0;stroke-linecap:square;stroke-width:0.8;"/>
     </g>
     <g id="line2d_14">
      <g>
       <use style="stroke:#000000;stroke-width:0.8;" x="433.823762" xlink:href="#m75cd14fbd1" y="255.638708"/>
      </g>
     </g>
     <g id="text_7">
      <!-- 2024-09-03 -->
      <g transform="translate(426.478369 319.848351)rotate(-70)scale(0.1 -0.1)">
       <use xlink:href="#DejaVuSans-50"/>
       <use x="63.623047" xlink:href="#DejaVuSans-48"/>
       <use x="127.246094" xlink:href="#DejaVuSans-50"/>
       <use x="190.869141" xlink:href="#DejaVuSans-52"/>
       <use x="254.492188" xlink:href="#DejaVuSans-45"/>
       <use x="290.576172" xlink:href="#DejaVuSans-48"/>
       <use x="354.199219" xlink:href="#DejaVuSans-57"/>
       <use x="417.822266" xlink:href="#DejaVuSans-45"/>
       <use x="453.90625" xlink:href="#DejaVuSans-48"/>
       <use x="517.529297" xlink:href="#DejaVuSans-51"/>
      </g>
     </g>
    </g>
    <g id="text_8">
     <!-- Date -->
     <g transform="translate(233.938322 332.158083)scale(0.1 -0.1)">
      <defs>
       <path d="M 19.671875 64.796875 
L 19.671875 8.109375 
L 31.59375 8.109375 
Q 46.6875 8.109375 53.6875 14.9375 
Q 60.6875 21.78125 60.6875 36.53125 
Q 60.6875 51.171875 53.6875 57.984375 
Q 46.6875 64.796875 31.59375 64.796875 
z
M 9.8125 72.90625 
L 30.078125 72.90625 
Q 51.265625 72.90625 61.171875 64.09375 
Q 71.09375 55.28125 71.09375 36.53125 
Q 71.09375 17.671875 61.125 8.828125 
Q 51.171875 0 30.078125 0 
L 9.8125 0 
z
" id="DejaVuSans-68"/>
       <path d="M 34.28125 27.484375 
Q 23.390625 27.484375 19.1875 25 
Q 14.984375 22.515625 14.984375 16.5 
Q 14.984375 11.71875 18.140625 8.90625 
Q 21.296875 6.109375 26.703125 6.109375 
Q 34.1875 6.109375 38.703125 11.40625 
Q 43.21875 16.703125 43.21875 25.484375 
L 43.21875 27.484375 
z
M 52.203125 31.203125 
L 52.203125 0 
L 43.21875 0 
L 43.21875 8.296875 
Q 40.140625 3.328125 35.546875 0.953125 
Q 30.953125 -1.421875 24.3125 -1.421875 
Q 15.921875 -1.421875 10.953125 3.296875 
Q 6 8.015625 6 15.921875 
Q 6 25.140625 12.171875 29.828125 
Q 18.359375 34.515625 30.609375 34.515625 
L 43.21875 34.515625 
L 43.21875 35.40625 
Q 43.21875 41.609375 39.140625 45 
Q 35.0625 48.390625 27.6875 48.390625 
Q 23 48.390625 18.546875 47.265625 
Q 14.109375 46.140625 10.015625 43.890625 
L 10.015625 52.203125 
Q 14.9375 54.109375 19.578125 55.046875 
Q 24.21875 56 28.609375 56 
Q 40.484375 56 46.34375 49.84375 
Q 52.203125 43.703125 52.203125 31.203125 
z
" id="DejaVuSans-97"/>
       <path d="M 18.3125 70.21875 
L 18.3125 54.6875 
L 36.8125 54.6875 
L 36.8125 47.703125 
L 18.3125 47.703125 
L 18.3125 18.015625 
Q 18.3125 11.328125 20.140625 9.421875 
Q 21.96875 7.515625 27.59375 7.515625 
L 36.8125 7.515625 
L 36.8125 0 
L 27.59375 0 
Q 17.1875 0 13.234375 3.875 
Q 9.28125 7.765625 9.28125 18.015625 
L 9.28125 47.703125 
L 2.6875 47.703125 
L 2.6875 54.6875 
L 9.28125 54.6875 
L 9.28125 70.21875 
z
" id="DejaVuSans-116"/>
       <path d="M 56.203125 29.59375 
L 56.203125 25.203125 
L 14.890625 25.203125 
Q 15.484375 15.921875 20.484375 11.0625 
Q 25.484375 6.203125 34.421875 6.203125 
Q 39.59375 6.203125 44.453125 7.46875 
Q 49.3125 8.734375 54.109375 11.28125 
L 54.109375 2.78125 
Q 49.265625 0.734375 44.1875 -0.34375 
Q 39.109375 -1.421875 33.890625 -1.421875 
Q 20.796875 -1.421875 13.15625 6.1875 
Q 5.515625 13.8125 5.515625 26.8125 
Q 5.515625 40.234375 12.765625 48.109375 
Q 20.015625 56 32.328125 56 
Q 43.359375 56 49.78125 48.890625 
Q 56.203125 41.796875 56.203125 29.59375 
z
M 47.21875 32.234375 
Q 47.125 39.59375 43.09375 43.984375 
Q 39.0625 48.390625 32.421875 48.390625 
Q 24.90625 48.390625 20.390625 44.140625 
Q 15.875 39.890625 15.1875 32.171875 
z
" id="DejaVuSans-101"/>
      </defs>
      <use xlink:href="#DejaVuSans-68"/>
      <use x="77.001953" xlink:href="#DejaVuSans-97"/>
      <use x="138.28125" xlink:href="#DejaVuSans-116"/>
      <use x="177.490234" xlink:href="#DejaVuSans-101"/>
     </g>
    </g>
   </g>
   <g id="matplotlib.axis_2">
    <g id="ytick_1">
     <g id="line2d_15">
      <path clip-path="url(#p3931e0de6d)" d="M 44.66 232.095658 
L 447.118206 232.095658 
" style="fill:none;stroke:#b0b0b0;stroke-linecap:square;stroke-width:0.8;"/>
     </g>
     <g id="line2d_16">
      <defs>
       <path d="M 0 0 
L -3.5 0 
" id="m1b92773da4" style="stroke:#000000;stroke-width:0.8;"/>
      </defs>
      <g>
       <use style="stroke:#000000;stroke-width:0.8;" x="44.66" xlink:href="#m1b92773da4" y="232.095658"/>
      </g>
     </g>
     <g id="text_9">
      <!-- 60 -->
      <g transform="translate(24.935 235.894877)scale(0.1 -0.1)">
       <defs>
        <path d="M 33.015625 40.375 
Q 26.375 40.375 22.484375 35.828125 
Q 18.609375 31.296875 18.609375 23.390625 
Q 18.609375 15.53125 22.484375 10.953125 
Q 26.375 6.390625 33.015625 6.390625 
Q 39.65625 6.390625 43.53125 10.953125 
Q 47.40625 15.53125 47.40625 23.390625 
Q 47.40625 31.296875 43.53125 35.828125 
Q 39.65625 40.375 33.015625 40.375 
z
M 52.59375 71.296875 
L 52.59375 62.3125 
Q 48.875 64.0625 45.09375 64.984375 
Q 41.3125 65.921875 37.59375 65.921875 
Q 27.828125 65.921875 22.671875 59.328125 
Q 17.53125 52.734375 16.796875 39.40625 
Q 19.671875 43.65625 24.015625 45.921875 
Q 28.375 48.1875 33.59375 48.1875 
Q 44.578125 48.1875 50.953125 41.515625 
Q 57.328125 34.859375 57.328125 23.390625 
Q 57.328125 12.15625 50.6875 5.359375 
Q 44.046875 -1.421875 33.015625 -1.421875 
Q 20.359375 -1.421875 13.671875 8.265625 
Q 6.984375 17.96875 6.984375 36.375 
Q 6.984375 53.65625 15.1875 63.9375 
Q 23.390625 74.21875 37.203125 74.21875 
Q 40.921875 74.21875 44.703125 73.484375 
Q 48.484375 72.75 52.59375 71.296875 
z
" id="DejaVuSans-54"/>
       </defs>
       <use xlink:href="#DejaVuSans-54"/>
       <use x="63.623047" xlink:href="#DejaVuSans-48"/>
      </g>
     </g>
    </g>
    <g id="ytick_2">
     <g id="line2d_17">
      <path clip-path="url(#p3931e0de6d)" d="M 44.66 205.936714 
L 447.118206 205.936714 
" style="fill:none;stroke:#b0b0b0;stroke-linecap:square;stroke-width:0.8;"/>
     </g>
     <g id="line2d_18">
      <g>
       <use style="stroke:#000000;stroke-width:0.8;" x="44.66" xlink:href="#m1b92773da4" y="205.936714"/>
      </g>
     </g>
     <g id="text_10">
      <!-- 62 -->
      <g transform="translate(24.935 209.735933)scale(0.1 -0.1)">
       <use xlink:href="#DejaVuSans-54"/>
       <use x="63.623047" xlink:href="#DejaVuSans-50"/>
      </g>
     </g>
    </g>
    <g id="ytick_3">
     <g id="line2d_19">
      <path clip-path="url(#p3931e0de6d)" d="M 44.66 179.77777 
L 447.118206 179.77777 
" style="fill:none;stroke:#b0b0b0;stroke-linecap:square;stroke-width:0.8;"/>
     </g>
     <g id="line2d_20">
      <g>
       <use style="stroke:#000000;stroke-width:0.8;" x="44.66" xlink:href="#m1b92773da4" y="179.77777"/>
      </g>
     </g>
     <g id="text_11">
      <!-- 64 -->
      <g transform="translate(24.935 183.576989)scale(0.1 -0.1)">
       <use xlink:href="#DejaVuSans-54"/>
       <use x="63.623047" xlink:href="#DejaVuSans-52"/>
      </g>
     </g>
    </g>
    <g id="ytick_4">
     <g id="line2d_21">
      <path clip-path="url(#p3931e0de6d)" d="M 44.66 153.618826 
L 447.118206 153.618826 
" style="fill:none;stroke:#b0b0b0;stroke-linecap:square;stroke-width:0.8;"/>
     </g>
     <g id="line2d_22">
      <g>
       <use style="stroke:#000000;stroke-width:0.8;" x="44.66" xlink:href="#m1b92773da4" y="153.618826"/>
      </g>
     </g>
     <g id="text_12">
      <!-- 66 -->
      <g transform="translate(24.935 157.418045)scale(0.1 -0.1)">
       <use xlink:href="#DejaVuSans-54"/>
       <use x="63.623047" xlink:href="#DejaVuSans-54"/>
      </g>
     </g>
    </g>
    <g id="ytick_5">
     <g id="line2d_23">
      <path clip-path="url(#p3931e0de6d)" d="M 44.66 127.459882 
L 447.118206 127.459882 
" style="fill:none;stroke:#b0b0b0;stroke-linecap:square;stroke-width:0.8;"/>
     </g>
     <g id="line2d_24">
      <g>
       <use style="stroke:#000000;stroke-width:0.8;" x="44.66" xlink:href="#m1b92773da4" y="127.459882"/>
      </g>
     </g>
     <g id="text_13">
      <!-- 68 -->
      <g transform="translate(24.935 131.259101)scale(0.1 -0.1)">
       <use xlink:href="#DejaVuSans-54"/>
       <use x="63.623047" xlink:href="#DejaVuSans-56"/>
      </g>
     </g>
    </g>
    <g id="ytick_6">
     <g id="line2d_25">
      <path clip-path="url(#p3931e0de6d)" d="M 44.66 101.300938 
L 447.118206 101.300938 
" style="fill:none;stroke:#b0b0b0;stroke-linecap:square;stroke-width:0.8;"/>
     </g>
     <g id="line2d_26">
      <g>
       <use style="stroke:#000000;stroke-width:0.8;" x="44.66" xlink:href="#m1b92773da4" y="101.300938"/>
      </g>
     </g>
     <g id="text_14">
      <!-- 70 -->
      <g transform="translate(24.935 105.100157)scale(0.1 -0.1)">
       <defs>
        <path d="M 8.203125 72.90625 
L 55.078125 72.90625 
L 55.078125 68.703125 
L 28.609375 0 
L 18.3125 0 
L 43.21875 64.59375 
L 8.203125 64.59375 
z
" id="DejaVuSans-55"/>
       </defs>
       <use xlink:href="#DejaVuSans-55"/>
       <use x="63.623047" xlink:href="#DejaVuSans-48"/>
      </g>
     </g>
    </g>
    <g id="ytick_7">
     <g id="line2d_27">
      <path clip-path="url(#p3931e0de6d)" d="M 44.66 75.141994 
L 447.118206 75.141994 
" style="fill:none;stroke:#b0b0b0;stroke-linecap:square;stroke-width:0.8;"/>
     </g>
     <g id="line2d_28">
      <g>
       <use style="stroke:#000000;stroke-width:0.8;" x="44.66" xlink:href="#m1b92773da4" y="75.141994"/>
      </g>
     </g>
     <g id="text_15">
      <!-- 72 -->
      <g transform="translate(24.935 78.941213)scale(0.1 -0.1)">
       <use xlink:href="#DejaVuSans-55"/>
       <use x="63.623047" xlink:href="#DejaVuSans-50"/>
      </g>
     </g>
    </g>
    <g id="ytick_8">
     <g id="line2d_29">
      <path clip-path="url(#p3931e0de6d)" d="M 44.66 48.98305 
L 447.118206 48.98305 
" style="fill:none;stroke:#b0b0b0;stroke-linecap:square;stroke-width:0.8;"/>
     </g>
     <g id="line2d_30">
      <g>
       <use style="stroke:#000000;stroke-width:0.8;" x="44.66" xlink:href="#m1b92773da4" y="48.98305"/>
      </g>
     </g>
     <g id="text_16">
      <!-- 74 -->
      <g transform="translate(24.935 52.782268)scale(0.1 -0.1)">
       <use xlink:href="#DejaVuSans-55"/>
       <use x="63.623047" xlink:href="#DejaVuSans-52"/>
      </g>
     </g>
    </g>
    <g id="text_17">
     <!-- Temperature [F] -->
     <g transform="translate(18.855313 180.575291)rotate(-90)scale(0.1 -0.1)">
      <defs>
       <path d="M -0.296875 72.90625 
L 61.375 72.90625 
L 61.375 64.59375 
L 35.5 64.59375 
L 35.5 0 
L 25.59375 0 
L 25.59375 64.59375 
L -0.296875 64.59375 
z
" id="DejaVuSans-84"/>
       <path d="M 52 44.1875 
Q 55.375 50.25 60.0625 53.125 
Q 64.75 56 71.09375 56 
Q 79.640625 56 84.28125 50.015625 
Q 88.921875 44.046875 88.921875 33.015625 
L 88.921875 0 
L 79.890625 0 
L 79.890625 32.71875 
Q 79.890625 40.578125 77.09375 44.375 
Q 74.3125 48.1875 68.609375 48.1875 
Q 61.625 48.1875 57.5625 43.546875 
Q 53.515625 38.921875 53.515625 30.90625 
L 53.515625 0 
L 44.484375 0 
L 44.484375 32.71875 
Q 44.484375 40.625 41.703125 44.40625 
Q 38.921875 48.1875 33.109375 48.1875 
Q 26.21875 48.1875 22.15625 43.53125 
Q 18.109375 38.875 18.109375 30.90625 
L 18.109375 0 
L 9.078125 0 
L 9.078125 54.6875 
L 18.109375 54.6875 
L 18.109375 46.1875 
Q 21.1875 51.21875 25.484375 53.609375 
Q 29.78125 56 35.6875 56 
Q 41.65625 56 45.828125 52.96875 
Q 50 49.953125 52 44.1875 
z
" id="DejaVuSans-109"/>
       <path d="M 18.109375 8.203125 
L 18.109375 -20.796875 
L 9.078125 -20.796875 
L 9.078125 54.6875 
L 18.109375 54.6875 
L 18.109375 46.390625 
Q 20.953125 51.265625 25.265625 53.625 
Q 29.59375 56 35.59375 56 
Q 45.5625 56 51.78125 48.09375 
Q 58.015625 40.1875 58.015625 27.296875 
Q 58.015625 14.40625 51.78125 6.484375 
Q 45.5625 -1.421875 35.59375 -1.421875 
Q 29.59375 -1.421875 25.265625 0.953125 
Q 20.953125 3.328125 18.109375 8.203125 
z
M 48.6875 27.296875 
Q 48.6875 37.203125 44.609375 42.84375 
Q 40.53125 48.484375 33.40625 48.484375 
Q 26.265625 48.484375 22.1875 42.84375 
Q 18.109375 37.203125 18.109375 27.296875 
Q 18.109375 17.390625 22.1875 11.75 
Q 26.265625 6.109375 33.40625 6.109375 
Q 40.53125 6.109375 44.609375 11.75 
Q 48.6875 17.390625 48.6875 27.296875 
z
" id="DejaVuSans-112"/>
       <path d="M 41.109375 46.296875 
Q 39.59375 47.171875 37.8125 47.578125 
Q 36.03125 48 33.890625 48 
Q 26.265625 48 22.1875 43.046875 
Q 18.109375 38.09375 18.109375 28.8125 
L 18.109375 0 
L 9.078125 0 
L 9.078125 54.6875 
L 18.109375 54.6875 
L 18.109375 46.1875 
Q 20.953125 51.171875 25.484375 53.578125 
Q 30.03125 56 36.53125 56 
Q 37.453125 56 38.578125 55.875 
Q 39.703125 55.765625 41.0625 55.515625 
z
" id="DejaVuSans-114"/>
       <path d="M 8.5 21.578125 
L 8.5 54.6875 
L 17.484375 54.6875 
L 17.484375 21.921875 
Q 17.484375 14.15625 20.5 10.265625 
Q 23.53125 6.390625 29.59375 6.390625 
Q 36.859375 6.390625 41.078125 11.03125 
Q 45.3125 15.671875 45.3125 23.6875 
L 45.3125 54.6875 
L 54.296875 54.6875 
L 54.296875 0 
L 45.3125 0 
L 45.3125 8.40625 
Q 42.046875 3.421875 37.71875 1 
Q 33.40625 -1.421875 27.6875 -1.421875 
Q 18.265625 -1.421875 13.375 4.4375 
Q 8.5 10.296875 8.5 21.578125 
z
M 31.109375 56 
z
" id="DejaVuSans-117"/>
       <path id="DejaVuSans-32"/>
       <path d="M 8.59375 75.984375 
L 29.296875 75.984375 
L 29.296875 69 
L 17.578125 69 
L 17.578125 -6.203125 
L 29.296875 -6.203125 
L 29.296875 -13.1875 
L 8.59375 -13.1875 
z
" id="DejaVuSans-91"/>
       <path d="M 9.8125 72.90625 
L 51.703125 72.90625 
L 51.703125 64.59375 
L 19.671875 64.59375 
L 19.671875 43.109375 
L 48.578125 43.109375 
L 48.578125 34.8125 
L 19.671875 34.8125 
L 19.671875 0 
L 9.8125 0 
z
" id="DejaVuSans-70"/>
       <path d="M 30.421875 75.984375 
L 30.421875 -13.1875 
L 9.71875 -13.1875 
L 9.71875 -6.203125 
L 21.390625 -6.203125 
L 21.390625 69 
L 9.71875 69 
L 9.71875 75.984375 
z
" id="DejaVuSans-93"/>
      </defs>
      <use xlink:href="#DejaVuSans-84"/>
      <use x="44.083984" xlink:href="#DejaVuSans-101"/>
      <use x="105.607422" xlink:href="#DejaVuSans-109"/>
      <use x="203.019531" xlink:href="#DejaVuSans-112"/>
      <use x="266.496094" xlink:href="#DejaVuSans-101"/>
      <use x="328.019531" xlink:href="#DejaVuSans-114"/>
      <use x="369.132812" xlink:href="#DejaVuSans-97"/>
      <use x="430.412109" xlink:href="#DejaVuSans-116"/>
      <use x="469.621094" xlink:href="#DejaVuSans-117"/>
      <use x="533" xlink:href="#DejaVuSans-114"/>
      <use x="571.863281" xlink:href="#DejaVuSans-101"/>
      <use x="633.386719" xlink:href="#DejaVuSans-32"/>
      <use x="665.173828" xlink:href="#DejaVuSans-91"/>
      <use x="704.1875" xlink:href="#DejaVuSans-70"/>
      <use x="761.707031" xlink:href="#DejaVuSans-93"/>
     </g>
    </g>
   </g>
   <g id="line2d_31">
    <path clip-path="url(#p3931e0de6d)" d="M 62.953555 115.688357 
L 63.04168 115.688357 
L 63.124731 114.38041 
L 63.208625 115.688357 
L 63.333454 114.38041 
L 63.458395 114.38041 
L 63.50005 115.688357 
L 63.542457 114.38041 
L 63.584071 113.072463 
L 63.625521 114.38041 
L 63.667022 114.38041 
L 63.793127 113.072463 
L 63.961824 113.072463 
L 64.088969 111.764515 
L 64.217683 113.072463 
L 64.259122 113.072463 
L 64.342511 114.38041 
L 64.470884 111.764515 
L 64.512468 114.38041 
L 64.554155 111.764515 
L 64.681878 111.764515 
L 64.80927 109.148621 
L 64.852 109.148621 
L 64.8934 111.764515 
L 64.935707 107.840674 
L 64.977205 107.840674 
L 65.019795 109.148621 
L 65.061938 107.840674 
L 65.27177 107.840674 
L 65.35696 106.532727 
L 65.442787 107.840674 
L 65.485302 106.532727 
L 65.610909 109.148621 
L 65.652515 109.148621 
L 65.737392 106.532727 
L 65.781182 107.840674 
L 65.866636 106.532727 
L 65.992459 107.840674 
L 66.076086 107.840674 
L 66.160738 109.148621 
L 66.202235 107.840674 
L 66.246563 109.148621 
L 66.373685 109.148621 
L 66.587887 105.224779 
L 66.71363 106.532727 
L 66.755464 106.532727 
L 66.799762 107.840674 
L 66.92948 105.224779 
L 67.014821 105.224779 
L 67.058408 103.916832 
L 67.099971 105.224779 
L 67.142048 105.224779 
L 67.184257 106.532727 
L 67.341788 105.224779 
L 67.424936 105.224779 
L 67.510984 103.916832 
L 67.64096 106.532727 
L 67.684769 105.224779 
L 67.727812 106.532727 
L 67.769272 106.532727 
L 67.812577 109.148621 
L 67.898945 107.840674 
L 67.987313 109.148621 
L 68.08104 109.148621 
L 68.122735 111.764515 
L 68.165208 109.148621 
L 68.33321 109.148621 
L 68.375243 107.840674 
L 68.416727 109.148621 
L 68.458389 109.148621 
L 68.503701 107.840674 
L 68.545784 109.148621 
L 68.589229 109.148621 
L 68.715372 107.840674 
L 68.801821 111.764515 
L 68.928255 107.840674 
L 69.019029 111.764515 
L 69.101918 109.148621 
L 69.14357 111.764515 
L 69.18537 107.840674 
L 69.438673 114.38041 
L 69.524763 109.148621 
L 69.609458 116.996304 
L 69.653089 113.072463 
L 69.779364 107.840674 
L 69.912625 114.38041 
L 69.954095 111.764515 
L 70.041026 116.996304 
L 70.127356 113.072463 
L 70.258988 116.996304 
L 70.341737 115.688357 
L 70.47102 118.304252 
L 70.513971 116.996304 
L 70.555362 118.304252 
L 70.979163 118.304252 
L 71.106195 119.612199 
L 71.148439 119.612199 
L 71.276588 118.304252 
L 71.361077 119.612199 
L 71.44433 116.996304 
L 71.575097 119.612199 
L 71.701815 114.38041 
L 71.789118 122.228093 
L 71.831142 119.612199 
L 72.001961 119.612199 
L 72.089614 115.688357 
L 72.131076 119.612199 
L 72.173123 118.304252 
L 72.258446 115.688357 
L 72.300065 116.996304 
L 72.384139 115.688357 
L 72.513495 116.996304 
L 72.555549 115.688357 
L 72.596936 116.996304 
L 72.640223 118.304252 
L 72.682157 114.38041 
L 72.724398 118.304252 
L 72.810525 119.612199 
L 72.896577 116.996304 
L 72.937913 118.304252 
L 72.979415 118.304252 
L 73.020754 116.996304 
L 73.105975 119.612199 
L 73.148319 116.996304 
L 73.231476 118.304252 
L 73.444313 118.304252 
L 73.575911 119.612199 
L 73.702305 118.304252 
L 73.834378 119.612199 
L 73.920068 116.996304 
L 73.96235 118.304252 
L 74.088086 118.304252 
L 74.214404 119.612199 
L 74.721126 119.612199 
L 74.848695 122.228093 
L 74.892198 119.612199 
L 74.933602 122.228093 
L 75.662434 122.228093 
L 75.751425 123.53604 
L 75.878639 122.228093 
L 76.004027 123.53604 
L 76.045552 122.228093 
L 76.086889 123.53604 
L 76.933374 123.53604 
L 76.975471 124.843988 
L 77.017148 123.53604 
L 183.723479 124.843988 
L 183.76658 123.53604 
L 184.271557 119.612199 
L 184.313432 123.53604 
L 184.401241 122.228093 
L 184.445932 119.612199 
L 184.585622 123.53604 
L 184.635463 123.53604 
L 184.835262 118.304252 
L 184.966492 114.38041 
L 185.105851 118.304252 
L 185.341998 122.228093 
L 185.561317 122.228093 
L 185.602764 123.53604 
L 185.689603 119.612199 
L 185.732297 122.228093 
L 185.775696 118.304252 
L 185.821661 118.304252 
L 185.956824 107.840674 
L 186.07831 118.304252 
L 186.119883 115.688357 
L 186.255766 119.612199 
L 186.303535 116.996304 
L 186.388649 118.304252 
L 186.536471 122.228093 
L 186.672877 118.304252 
L 186.808042 119.612199 
L 186.849517 119.612199 
L 186.895845 116.996304 
L 186.980301 118.304252 
L 187.022558 116.996304 
L 187.065142 106.532727 
L 187.106489 118.304252 
L 187.147943 111.764515 
L 187.275454 119.612199 
L 187.316846 115.688357 
L 187.401809 114.38041 
L 187.443856 105.224779 
L 187.530245 109.148621 
L 187.57171 107.840674 
L 187.613131 109.148621 
L 187.843782 122.228093 
L 187.926658 116.996304 
L 187.995847 118.304252 
L 188.12614 116.996304 
L 188.169071 116.996304 
L 188.21296 115.688357 
L 188.254613 116.996304 
L 188.425594 122.228093 
L 188.60263 116.996304 
L 188.687835 116.996304 
L 188.830221 106.532727 
L 188.97468 119.612199 
L 189.019478 116.996304 
L 189.060753 119.612199 
L 189.113797 122.228093 
L 189.244405 116.996304 
L 189.413166 122.228093 
L 189.454507 118.304252 
L 189.497537 119.612199 
L 189.667917 119.612199 
L 189.71104 116.996304 
L 189.75587 118.304252 
L 189.843974 123.53604 
L 189.886632 122.228093 
L 190.012176 118.304252 
L 190.055832 119.612199 
L 190.100919 111.764515 
L 190.188913 114.38041 
L 190.23214 113.072463 
L 190.319341 118.304252 
L 190.361004 115.688357 
L 190.405718 114.38041 
L 190.447047 115.688357 
L 190.572834 116.996304 
L 190.61585 116.996304 
L 190.658518 118.304252 
L 190.700377 116.996304 
L 190.878248 116.996304 
L 190.961998 118.304252 
L 191.004699 115.688357 
L 191.046113 116.996304 
L 191.129433 118.304252 
L 191.170783 116.996304 
L 191.212255 118.304252 
L 191.298337 118.304252 
L 191.42254 119.612199 
L 191.507569 119.612199 
L 191.634656 122.228093 
L 191.717993 122.228093 
L 191.843864 123.53604 
L 192.479247 123.53604 
L 192.606897 124.843988 
L 192.733348 123.53604 
L 193.074709 123.53604 
L 193.116493 118.304252 
L 193.158077 123.53604 
L 193.199669 123.53604 
L 193.326822 122.228093 
L 193.416615 123.53604 
L 193.459435 122.228093 
L 193.502688 123.53604 
L 193.629278 123.53604 
L 193.671507 122.228093 
L 193.71318 123.53604 
L 193.838489 123.53604 
L 193.966537 124.843988 
L 194.009657 123.53604 
L 194.05111 124.843988 
L 194.955089 124.843988 
L 195.00016 126.151935 
L 195.041688 124.843988 
L 195.184513 123.53604 
L 195.711415 123.53604 
L 195.836137 122.228093 
L 195.878304 123.53604 
L 195.924648 122.228093 
L 196.563059 122.228093 
L 196.604503 123.53604 
L 196.646837 122.228093 
L 197.072207 122.228093 
L 197.201901 123.53604 
L 197.326246 122.228093 
L 197.534877 122.228093 
L 197.660547 123.53604 
L 197.788308 122.228093 
L 197.914231 123.53604 
L 198.040733 123.53604 
L 198.123989 122.228093 
L 198.165362 123.53604 
L 198.206831 122.228093 
L 198.290201 122.228093 
L 198.414465 123.53604 
L 198.550647 122.228093 
L 199.011907 122.228093 
L 365.843082 85.605571 
L 365.939466 88.221466 
L 366.141007 88.221466 
L 366.182767 85.605571 
L 366.225593 88.221466 
L 366.405159 88.221466 
L 366.448226 85.605571 
L 366.4898 88.221466 
L 366.923358 88.221466 
L 367.008909 89.529413 
L 367.138609 88.221466 
L 367.31314 88.221466 
L 367.356886 89.529413 
L 367.406461 88.221466 
L 367.49817 88.221466 
L 367.624748 89.529413 
L 367.753646 89.529413 
L 367.796351 88.221466 
L 367.837768 89.529413 
L 368.047391 89.529413 
L 368.173056 88.221466 
L 368.31858 89.529413 
L 369.271373 89.529413 
L 369.313286 90.83736 
L 369.3546 89.529413 
L 369.437421 89.529413 
L 369.479828 90.83736 
L 369.522299 89.529413 
L 369.606746 89.529413 
L 369.692552 90.83736 
L 369.82402 89.529413 
L 369.998126 89.529413 
L 370.081722 90.83736 
L 370.12322 89.529413 
L 370.164896 90.83736 
L 370.972857 90.83736 
L 371.01469 92.145307 
L 371.056162 90.83736 
L 371.272669 90.83736 
L 371.318958 92.145307 
L 371.38142 90.83736 
L 371.811193 90.83736 
L 371.899942 92.145307 
L 371.942935 90.83736 
L 371.986102 92.145307 
L 373.785853 92.145307 
L 373.829339 93.453255 
L 373.872887 92.145307 
L 374.300759 92.145307 
L 374.387807 93.453255 
L 374.520431 92.145307 
L 374.563318 93.453255 
L 374.604671 92.145307 
L 374.690621 92.145307 
L 374.818381 93.453255 
L 375.467553 93.453255 
L 375.667371 94.761202 
L 375.792862 93.453255 
L 377.071059 93.453255 
L 377.112377 92.145307 
L 377.155062 93.453255 
L 377.499749 93.453255 
L 377.541465 92.145307 
L 377.586089 93.453255 
L 377.670778 93.453255 
L 377.796895 92.145307 
L 377.922447 93.453255 
L 378.606455 93.453255 
L 378.647823 94.761202 
L 378.68913 93.453255 
L 379.528616 93.453255 
L 379.571225 92.145307 
L 379.613417 93.453255 
L 379.781575 93.453255 
L 379.837164 92.145307 
L 379.88389 93.453255 
L 380.307875 93.453255 
L 380.350551 92.145307 
L 380.393347 93.453255 
L 381.799554 93.453255 
L 381.841137 94.761202 
L 381.882797 93.453255 
L 381.927963 93.453255 
L 382.054486 94.761202 
L 382.229945 93.453255 
L 382.415983 94.761202 
L 382.542752 93.453255 
L 382.629815 93.453255 
L 382.756663 94.761202 
L 382.79859 94.761202 
L 382.885603 93.453255 
L 382.927219 94.761202 
L 382.969379 93.453255 
L 383.181545 93.453255 
L 383.306073 94.761202 
L 384.093294 94.761202 
L 384.135155 96.069149 
L 384.176642 94.761202 
L 384.736947 94.761202 
L 384.866315 96.069149 
L 384.995142 94.761202 
L 385.122208 96.069149 
L 385.254357 94.761202 
L 385.38549 96.069149 
L 385.473989 96.069149 
L 385.518814 94.761202 
L 385.560555 96.069149 
L 386.934349 96.069149 
L 386.9772 98.685043 
L 387.020463 96.069149 
L 387.103338 96.069149 
L 387.152061 98.685043 
L 387.193672 96.069149 
L 387.80261 96.069149 
L 387.886424 98.685043 
L 388.01686 96.069149 
L 388.325289 96.069149 
L 388.45215 98.685043 
L 388.496086 98.685043 
L 388.621406 96.069149 
L 388.747098 98.685043 
L 388.876502 96.069149 
L 389.003234 98.685043 
L 389.138058 96.069149 
L 389.179603 96.069149 
L 389.263159 98.685043 
L 389.306603 96.069149 
L 389.349473 98.685043 
L 389.390932 98.685043 
L 389.432268 96.069149 
L 389.475263 98.685043 
L 389.561985 98.685043 
L 389.605001 96.069149 
L 389.650901 98.685043 
L 390.926565 98.685043 
L 391.057893 99.992991 
L 391.194235 98.685043 
L 391.321084 98.685043 
L 391.364544 99.992991 
L 391.406579 98.685043 
L 391.868409 98.685043 
L 391.998751 99.992991 
L 392.040153 99.992991 
L 392.166899 98.685043 
L 392.296298 99.992991 
L 393.793534 99.992991 
L 393.919813 101.300938 
L 394.007152 99.992991 
L 394.134467 101.300938 
L 394.218074 99.992991 
L 394.34312 101.300938 
L 395.232018 101.300938 
L 395.362392 99.992991 
L 395.404263 99.992991 
L 395.530425 101.300938 
L 397.320814 101.300938 
L 397.362384 102.608885 
L 397.542842 101.300938 
L 398.95483 101.300938 
L 398.997981 102.608885 
L 399.042835 101.300938 
L 399.132743 102.608885 
L 399.261842 101.300938 
L 399.406337 102.608885 
L 400.622389 102.608885 
L 400.663902 101.300938 
L 400.708797 102.608885 
L 400.967853 102.608885 
L 401.094705 101.300938 
L 401.225639 102.608885 
L 401.310928 102.608885 
L 401.441843 101.300938 
L 401.695748 101.300938 
L 401.737101 102.608885 
L 401.779641 101.300938 
L 401.951333 101.300938 
L 402.083112 102.608885 
L 402.12663 102.608885 
L 402.254925 101.300938 
L 402.634384 101.300938 
L 402.675883 102.608885 
L 402.72336 101.300938 
L 402.768334 101.300938 
L 402.81237 102.608885 
L 402.856147 101.300938 
L 404.336263 101.300938 
L 404.377691 99.992991 
L 404.421603 101.300938 
L 404.462998 101.300938 
L 404.591658 99.992991 
L 404.893411 99.992991 
L 404.979676 98.685043 
L 405.108824 99.992991 
L 405.28214 99.992991 
L 405.377963 98.685043 
L 405.506693 99.992991 
L 405.550852 98.685043 
L 405.59238 99.992991 
L 406.842416 99.992991 
L 406.8859 98.685043 
L 406.927514 99.992991 
L 406.972573 99.992991 
L 407.097803 98.685043 
L 407.153417 98.685043 
L 407.195202 99.992991 
L 407.23711 98.685043 
L 407.451255 98.685043 
L 407.580372 96.069149 
L 408.052073 96.069149 
L 408.135769 94.761202 
L 408.263376 96.069149 
L 409.19863 96.069149 
L 409.324827 94.761202 
L 409.454214 96.069149 
L 409.579957 96.069149 
L 409.706663 94.761202 
L 409.748739 96.069149 
L 409.790428 94.761202 
L 409.875366 94.761202 
L 409.917149 93.453255 
L 409.95854 94.761202 
L 410.000118 94.761202 
L 410.128208 93.453255 
L 410.213306 94.761202 
L 410.254659 93.453255 
L 410.29622 94.761202 
L 410.42143 94.761202 
L 410.508413 93.453255 
L 410.549706 94.761202 
L 410.591095 93.453255 
L 410.632424 93.453255 
L 410.760774 94.761202 
L 410.906855 93.453255 
L 411.07855 93.453255 
L 411.208735 94.761202 
L 411.250217 93.453255 
L 411.291617 94.761202 
L 411.335866 94.761202 
L 411.46503 93.453255 
L 411.509789 93.453255 
L 411.645298 94.761202 
L 411.8647 94.761202 
L 411.906224 93.453255 
L 411.949851 94.761202 
L 412.594654 94.761202 
L 412.723913 93.453255 
L 412.765452 93.453255 
L 412.851088 94.761202 
L 412.980356 93.453255 
L 413.02679 93.453255 
L 413.117703 94.761202 
L 413.159212 93.453255 
L 413.200701 94.761202 
L 413.244954 94.761202 
L 413.289593 93.453255 
L 413.332605 94.761202 
L 413.37808 94.761202 
L 413.421656 93.453255 
L 413.464431 94.761202 
L 413.551461 94.761202 
L 413.683555 93.453255 
L 413.816759 93.453255 
L 413.946468 94.761202 
L 414.031163 94.761202 
L 414.115312 93.453255 
L 414.508287 93.453255 
L 414.555238 94.761202 
L 414.596772 93.453255 
L 414.831829 93.453255 
L 414.874376 94.761202 
L 414.917147 93.453255 
L 415.291896 93.453255 
L 415.33331 90.83736 
L 415.418228 92.145307 
L 415.543469 92.145307 
L 415.671122 93.453255 
L 415.882429 93.453255 
L 415.96608 94.761202 
L 416.092749 92.145307 
L 416.219466 93.453255 
L 416.346868 92.145307 
L 416.388367 93.453255 
L 416.431944 92.145307 
L 416.560737 92.145307 
L 416.688382 93.453255 
L 417.211895 93.453255 
L 417.253497 94.761202 
L 417.297554 93.453255 
L 417.339828 93.453255 
L 417.469951 92.145307 
L 417.598173 93.453255 
L 418.199532 93.453255 
L 418.326426 94.761202 
L 418.454287 94.761202 
L 418.497653 93.453255 
L 418.539104 94.761202 
L 419.088572 94.761202 
L 419.13337 93.453255 
L 419.17487 94.761202 
L 419.216381 94.761202 
L 419.259166 93.453255 
L 419.441293 94.761202 
L 419.966258 94.761202 
L 420.090579 96.069149 
L 420.216676 94.761202 
L 420.431598 94.761202 
L 420.47568 93.453255 
L 420.517131 94.761202 
L 421.074116 94.761202 
L 421.116958 96.069149 
L 421.158418 94.761202 
L 421.777748 94.761202 
L 421.861581 96.069149 
L 421.99311 94.761202 
L 422.12119 94.761202 
L 422.253761 96.069149 
L 422.98268 96.069149 
L 423.067558 94.761202 
L 423.198809 96.069149 
L 423.283213 96.069149 
L 423.327353 94.761202 
L 423.37139 96.069149 
L 424.584434 96.069149 
L 424.627555 98.685043 
L 424.815878 96.069149 
L 424.958262 98.685043 
L 424.999675 96.069149 
L 425.052992 98.685043 
L 425.094581 98.685043 
L 425.13675 96.069149 
L 425.179524 98.685043 
L 425.267929 98.685043 
L 425.309469 96.069149 
L 425.352852 98.685043 
L 425.394237 98.685043 
L 425.435756 96.069149 
L 425.477255 98.685043 
L 425.748783 98.685043 
L 425.793794 96.069149 
L 425.837891 98.685043 
L 425.880842 98.685043 
L 425.922224 96.069149 
L 426.114484 98.685043 
L 427.203219 98.685043 
L 427.357228 99.992991 
L 427.443186 98.685043 
L 427.530782 99.992991 
L 427.617682 98.685043 
L 427.746299 99.992991 
L 427.87291 98.685043 
L 428.018334 99.992991 
L 428.824651 99.992991 
L 428.824651 99.992991 
" style="fill:none;stroke:#1f77b4;stroke-linecap:square;stroke-width:1.5;"/>
   </g>
   <g id="line2d_32">
    <path clip-path="url(#p3931e0de6d)" d="M 62.953555 204.628767 
L 66.842767 204.628767 
L 66.970915 153.618826 
L 71.276588 153.618826 
L 71.402788 168.006245 
L 74.257592 168.006245 
L 74.382747 192.857242 
L 75.878639 192.857242 
L 76.004027 219.016186 
L 77.017148 219.016186 
L 183.663843 35.903578 
L 189.327176 35.903578 
L 189.454507 62.062522 
L 191.887271 62.062522 
L 192.016241 86.913519 
L 194.223159 86.913519 
L 194.3494 153.618826 
L 197.619067 153.618826 
L 197.744221 192.857242 
L 199.011907 192.857242 
L 365.939466 50.290997 
L 367.58328 50.290997 
L 367.668018 101.300938 
L 369.908535 101.300938 
L 370.039683 153.618826 
L 374.774961 153.618826 
L 374.902183 179.77777 
L 379.571225 179.77777 
L 379.698945 192.857242 
L 382.588476 192.857242 
L 382.714656 204.628767 
L 384.475272 204.628767 
L 384.6072 230.787711 
L 386.63795 230.787711 
L 386.762665 245.17513 
L 388.101184 245.17513 
L 388.23005 221.632081 
L 389.179603 221.632081 
L 389.306603 230.787711 
L 391.321084 230.787711 
L 391.406579 219.016186 
L 397.362384 219.016186 
L 397.542842 221.632081 
L 398.855969 221.632081 
L 398.997981 219.016186 
L 401.05266 219.016186 
L 401.182297 204.628767 
L 405.887847 204.628767 
L 406.014602 192.857242 
L 408.560354 192.857242 
L 408.68869 179.77777 
L 410.041458 179.77777 
L 410.17156 174.545981 
L 410.676037 174.545981 
L 410.813869 168.006245 
L 415.585514 168.006245 
L 415.712396 153.618826 
L 423.283213 153.618826 
L 423.412944 174.545981 
L 425.606858 174.545981 
L 425.748783 179.77777 
L 427.314236 179.77777 
L 427.443186 174.545981 
L 427.746299 174.545981 
L 427.87291 179.77777 
L 428.824651 179.77777 
L 428.824651 179.77777 
" style="fill:none;stroke:#ff7f0e;stroke-linecap:square;stroke-width:1.5;"/>
   </g>
   <g id="patch_3">
    <path d="M 44.66 255.638708 
L 44.66 25.44 
" style="fill:none;stroke:#000000;stroke-linecap:square;stroke-linejoin:miter;stroke-width:0.8;"/>
   </g>
   <g id="patch_4">
    <path d="M 447.118206 255.638708 
L 447.118206 25.44 
" style="fill:none;stroke:#000000;stroke-linecap:square;stroke-linejoin:miter;stroke-width:0.8;"/>
   </g>
   <g id="patch_5">
    <path d="M 44.66 255.638708 
L 447.118206 255.638708 
" style="fill:none;stroke:#000000;stroke-linecap:square;stroke-linejoin:miter;stroke-width:0.8;"/>
   </g>
   <g id="patch_6">
    <path d="M 44.66 25.44 
L 447.118206 25.44 
" style="fill:none;stroke:#000000;stroke-linecap:square;stroke-linejoin:miter;stroke-width:0.8;"/>
   </g>
   <g id="text_18">
    <!-- Lake Shoecraft - Water and Air Temperature -->
    <g transform="translate(114.270665 19.44)scale(0.12 -0.12)">
     <defs>
      <path d="M 9.8125 72.90625 
L 19.671875 72.90625 
L 19.671875 8.296875 
L 55.171875 8.296875 
L 55.171875 0 
L 9.8125 0 
z
" id="DejaVuSans-76"/>
      <path d="M 9.078125 75.984375 
L 18.109375 75.984375 
L 18.109375 31.109375 
L 44.921875 54.6875 
L 56.390625 54.6875 
L 27.390625 29.109375 
L 57.625 0 
L 45.90625 0 
L 18.109375 26.703125 
L 18.109375 0 
L 9.078125 0 
z
" id="DejaVuSans-107"/>
      <path d="M 53.515625 70.515625 
L 53.515625 60.890625 
Q 47.90625 63.578125 42.921875 64.890625 
Q 37.9375 66.21875 33.296875 66.21875 
Q 25.25 66.21875 20.875 63.09375 
Q 16.5 59.96875 16.5 54.203125 
Q 16.5 49.359375 19.40625 46.890625 
Q 22.3125 44.4375 30.421875 42.921875 
L 36.375 41.703125 
Q 47.40625 39.59375 52.65625 34.296875 
Q 57.90625 29 57.90625 20.125 
Q 57.90625 9.515625 50.796875 4.046875 
Q 43.703125 -1.421875 29.984375 -1.421875 
Q 24.8125 -1.421875 18.96875 -0.25 
Q 13.140625 0.921875 6.890625 3.21875 
L 6.890625 13.375 
Q 12.890625 10.015625 18.65625 8.296875 
Q 24.421875 6.59375 29.984375 6.59375 
Q 38.421875 6.59375 43.015625 9.90625 
Q 47.609375 13.234375 47.609375 19.390625 
Q 47.609375 24.75 44.3125 27.78125 
Q 41.015625 30.8125 33.5 32.328125 
L 27.484375 33.5 
Q 16.453125 35.6875 11.515625 40.375 
Q 6.59375 45.0625 6.59375 53.421875 
Q 6.59375 63.09375 13.40625 68.65625 
Q 20.21875 74.21875 32.171875 74.21875 
Q 37.3125 74.21875 42.625 73.28125 
Q 47.953125 72.359375 53.515625 70.515625 
z
" id="DejaVuSans-83"/>
      <path d="M 54.890625 33.015625 
L 54.890625 0 
L 45.90625 0 
L 45.90625 32.71875 
Q 45.90625 40.484375 42.875 44.328125 
Q 39.84375 48.1875 33.796875 48.1875 
Q 26.515625 48.1875 22.3125 43.546875 
Q 18.109375 38.921875 18.109375 30.90625 
L 18.109375 0 
L 9.078125 0 
L 9.078125 75.984375 
L 18.109375 75.984375 
L 18.109375 46.1875 
Q 21.34375 51.125 25.703125 53.5625 
Q 30.078125 56 35.796875 56 
Q 45.21875 56 50.046875 50.171875 
Q 54.890625 44.34375 54.890625 33.015625 
z
" id="DejaVuSans-104"/>
      <path d="M 30.609375 48.390625 
Q 23.390625 48.390625 19.1875 42.75 
Q 14.984375 37.109375 14.984375 27.296875 
Q 14.984375 17.484375 19.15625 11.84375 
Q 23.34375 6.203125 30.609375 6.203125 
Q 37.796875 6.203125 41.984375 11.859375 
Q 46.1875 17.53125 46.1875 27.296875 
Q 46.1875 37.015625 41.984375 42.703125 
Q 37.796875 48.390625 30.609375 48.390625 
z
M 30.609375 56 
Q 42.328125 56 49.015625 48.375 
Q 55.71875 40.765625 55.71875 27.296875 
Q 55.71875 13.875 49.015625 6.21875 
Q 42.328125 -1.421875 30.609375 -1.421875 
Q 18.84375 -1.421875 12.171875 6.21875 
Q 5.515625 13.875 5.515625 27.296875 
Q 5.515625 40.765625 12.171875 48.375 
Q 18.84375 56 30.609375 56 
z
" id="DejaVuSans-111"/>
      <path d="M 48.78125 52.59375 
L 48.78125 44.1875 
Q 44.96875 46.296875 41.140625 47.34375 
Q 37.3125 48.390625 33.40625 48.390625 
Q 24.65625 48.390625 19.8125 42.84375 
Q 14.984375 37.3125 14.984375 27.296875 
Q 14.984375 17.28125 19.8125 11.734375 
Q 24.65625 6.203125 33.40625 6.203125 
Q 37.3125 6.203125 41.140625 7.25 
Q 44.96875 8.296875 48.78125 10.40625 
L 48.78125 2.09375 
Q 45.015625 0.34375 40.984375 -0.53125 
Q 36.96875 -1.421875 32.421875 -1.421875 
Q 20.0625 -1.421875 12.78125 6.34375 
Q 5.515625 14.109375 5.515625 27.296875 
Q 5.515625 40.671875 12.859375 48.328125 
Q 20.21875 56 33.015625 56 
Q 37.15625 56 41.109375 55.140625 
Q 45.0625 54.296875 48.78125 52.59375 
z
" id="DejaVuSans-99"/>
      <path d="M 37.109375 75.984375 
L 37.109375 68.5 
L 28.515625 68.5 
Q 23.6875 68.5 21.796875 66.546875 
Q 19.921875 64.59375 19.921875 59.515625 
L 19.921875 54.6875 
L 34.71875 54.6875 
L 34.71875 47.703125 
L 19.921875 47.703125 
L 19.921875 0 
L 10.890625 0 
L 10.890625 47.703125 
L 2.296875 47.703125 
L 2.296875 54.6875 
L 10.890625 54.6875 
L 10.890625 58.5 
Q 10.890625 67.625 15.140625 71.796875 
Q 19.390625 75.984375 28.609375 75.984375 
z
" id="DejaVuSans-102"/>
      <path d="M 3.328125 72.90625 
L 13.28125 72.90625 
L 28.609375 11.28125 
L 43.890625 72.90625 
L 54.984375 72.90625 
L 70.3125 11.28125 
L 85.59375 72.90625 
L 95.609375 72.90625 
L 77.296875 0 
L 64.890625 0 
L 49.515625 63.28125 
L 33.984375 0 
L 21.578125 0 
z
" id="DejaVuSans-87"/>
      <path d="M 54.890625 33.015625 
L 54.890625 0 
L 45.90625 0 
L 45.90625 32.71875 
Q 45.90625 40.484375 42.875 44.328125 
Q 39.84375 48.1875 33.796875 48.1875 
Q 26.515625 48.1875 22.3125 43.546875 
Q 18.109375 38.921875 18.109375 30.90625 
L 18.109375 0 
L 9.078125 0 
L 9.078125 54.6875 
L 18.109375 54.6875 
L 18.109375 46.1875 
Q 21.34375 51.125 25.703125 53.5625 
Q 30.078125 56 35.796875 56 
Q 45.21875 56 50.046875 50.171875 
Q 54.890625 44.34375 54.890625 33.015625 
z
" id="DejaVuSans-110"/>
      <path d="M 45.40625 46.390625 
L 45.40625 75.984375 
L 54.390625 75.984375 
L 54.390625 0 
L 45.40625 0 
L 45.40625 8.203125 
Q 42.578125 3.328125 38.25 0.953125 
Q 33.9375 -1.421875 27.875 -1.421875 
Q 17.96875 -1.421875 11.734375 6.484375 
Q 5.515625 14.40625 5.515625 27.296875 
Q 5.515625 40.1875 11.734375 48.09375 
Q 17.96875 56 27.875 56 
Q 33.9375 56 38.25 53.625 
Q 42.578125 51.265625 45.40625 46.390625 
z
M 14.796875 27.296875 
Q 14.796875 17.390625 18.875 11.75 
Q 22.953125 6.109375 30.078125 6.109375 
Q 37.203125 6.109375 41.296875 11.75 
Q 45.40625 17.390625 45.40625 27.296875 
Q 45.40625 37.203125 41.296875 42.84375 
Q 37.203125 48.484375 30.078125 48.484375 
Q 22.953125 48.484375 18.875 42.84375 
Q 14.796875 37.203125 14.796875 27.296875 
z
" id="DejaVuSans-100"/>
      <path d="M 34.1875 63.1875 
L 20.796875 26.90625 
L 47.609375 26.90625 
z
M 28.609375 72.90625 
L 39.796875 72.90625 
L 67.578125 0 
L 57.328125 0 
L 50.6875 18.703125 
L 17.828125 18.703125 
L 11.1875 0 
L 0.78125 0 
z
" id="DejaVuSans-65"/>
      <path d="M 9.421875 54.6875 
L 18.40625 54.6875 
L 18.40625 0 
L 9.421875 0 
z
M 9.421875 75.984375 
L 18.40625 75.984375 
L 18.40625 64.59375 
L 9.421875 64.59375 
z
" id="DejaVuSans-105"/>
     </defs>
     <use xlink:href="#DejaVuSans-76"/>
     <use x="55.712891" xlink:href="#DejaVuSans-97"/>
     <use x="116.992188" xlink:href="#DejaVuSans-107"/>
     <use x="171.277344" xlink:href="#DejaVuSans-101"/>
     <use x="232.800781" xlink:href="#DejaVuSans-32"/>
     <use x="264.587891" xlink:href="#DejaVuSans-83"/>
     <use x="328.064453" xlink:href="#DejaVuSans-104"/>
     <use x="391.443359" xlink:href="#DejaVuSans-111"/>
     <use x="452.625" xlink:href="#DejaVuSans-101"/>
     <use x="514.148438" xlink:href="#DejaVuSans-99"/>
     <use x="569.128906" xlink:href="#DejaVuSans-114"/>
     <use x="610.242188" xlink:href="#DejaVuSans-97"/>
     <use x="671.521484" xlink:href="#DejaVuSans-102"/>
     <use x="704.976562" xlink:href="#DejaVuSans-116"/>
     <use x="744.185547" xlink:href="#DejaVuSans-32"/>
     <use x="775.972656" xlink:href="#DejaVuSans-45"/>
     <use x="812.056641" xlink:href="#DejaVuSans-32"/>
     <use x="843.84375" xlink:href="#DejaVuSans-87"/>
     <use x="936.345703" xlink:href="#DejaVuSans-97"/>
     <use x="997.625" xlink:href="#DejaVuSans-116"/>
     <use x="1036.833984" xlink:href="#DejaVuSans-101"/>
     <use x="1098.357422" xlink:href="#DejaVuSans-114"/>
     <use x="1139.470703" xlink:href="#DejaVuSans-32"/>
     <use x="1171.257812" xlink:href="#DejaVuSans-97"/>
     <use x="1232.537109" xlink:href="#DejaVuSans-110"/>
     <use x="1295.916016" xlink:href="#DejaVuSans-100"/>
     <use x="1359.392578" xlink:href="#DejaVuSans-32"/>
     <use x="1391.179688" xlink:href="#DejaVuSans-65"/>
     <use x="1459.587891" xlink:href="#DejaVuSans-105"/>
     <use x="1487.371094" xlink:href="#DejaVuSans-114"/>
     <use x="1528.484375" xlink:href="#DejaVuSans-32"/>
     <use x="1560.271484" xlink:href="#DejaVuSans-84"/>
     <use x="1604.355469" xlink:href="#DejaVuSans-101"/>
     <use x="1665.878906" xlink:href="#DejaVuSans-109"/>
     <use x="1763.291016" xlink:href="#DejaVuSans-112"/>
     <use x="1826.767578" xlink:href="#DejaVuSans-101"/>
     <use x="1888.291016" xlink:href="#DejaVuSans-114"/>
     <use x="1929.404297" xlink:href="#DejaVuSans-97"/>
     <use x="1990.683594" xlink:href="#DejaVuSans-116"/>
     <use x="2029.892578" xlink:href="#DejaVuSans-117"/>
     <use x="2093.271484" xlink:href="#DejaVuSans-114"/>
     <use x="2132.134766" xlink:href="#DejaVuSans-101"/>
    </g>
   </g>
   <g id="legend_1">
    <g id="patch_7">
     <path d="M 51.66 62.79625 
L 136.769375 62.79625 
Q 138.769375 62.79625 138.769375 60.79625 
L 138.769375 32.44 
Q 138.769375 30.44 136.769375 30.44 
L 51.66 30.44 
Q 49.66 30.44 49.66 32.44 
L 49.66 60.79625 
Q 49.66 62.79625 51.66 62.79625 
z
" style="fill:#ffffff;opacity:0.8;stroke:#cccccc;stroke-linejoin:miter;"/>
    </g>
    <g id="line2d_33">
     <path d="M 53.66 38.538437 
L 73.66 38.538437 
" style="fill:none;stroke:#1f77b4;stroke-linecap:square;stroke-width:1.5;"/>
    </g>
    <g id="line2d_34"/>
    <g id="text_19">
     <!-- Lake Temp -->
     <g transform="translate(81.66 42.038437)scale(0.1 -0.1)">
      <use xlink:href="#DejaVuSans-76"/>
      <use x="55.712891" xlink:href="#DejaVuSans-97"/>
      <use x="116.992188" xlink:href="#DejaVuSans-107"/>
      <use x="171.277344" xlink:href="#DejaVuSans-101"/>
      <use x="232.800781" xlink:href="#DejaVuSans-32"/>
      <use x="264.587891" xlink:href="#DejaVuSans-84"/>
      <use x="308.671875" xlink:href="#DejaVuSans-101"/>
      <use x="370.195312" xlink:href="#DejaVuSans-109"/>
      <use x="467.607422" xlink:href="#DejaVuSans-112"/>
     </g>
    </g>
    <g id="line2d_35">
     <path d="M 53.66 53.216562 
L 73.66 53.216562 
" style="fill:none;stroke:#ff7f0e;stroke-linecap:square;stroke-width:1.5;"/>
    </g>
    <g id="line2d_36"/>
    <g id="text_20">
     <!-- Air Temp -->
     <g transform="translate(81.66 56.716562)scale(0.1 -0.1)">
      <use xlink:href="#DejaVuSans-65"/>
      <use x="68.408203" xlink:href="#DejaVuSans-105"/>
      <use x="96.191406" xlink:href="#DejaVuSans-114"/>
      <use x="137.304688" xlink:href="#DejaVuSans-32"/>
      <use x="169.091797" xlink:href="#DejaVuSans-84"/>
      <use x="213.175781" xlink:href="#DejaVuSans-101"/>
      <use x="274.699219" xlink:href="#DejaVuSans-109"/>
      <use x="372.111328" xlink:href="#DejaVuSans-112"/>
     </g>
    </g>
   </g>
  </g>
 </g>
 <defs>
  <clipPath id="p3931e0de6d">
   <rect height="230.198708" width="402.458206" x="44.66" y="25.44"/>
  </clipPath>
 </defs>
</svg>
