<?xml version="1.0" encoding="utf-8" standalone="no"?>
<!DOCTYPE svg PUBLIC "-//W3C//DTD SVG 1.1//EN"
  "http://www.w3.org/Graphics/SVG/1.1/DTD/svg11.dtd">
<!-- Created with matplotlib (https://matplotlib.org/) -->
<svg height="345.6pt" version="1.1" viewBox="0 0 460.8 345.6" width="460.8pt" xmlns="http://www.w3.org/2000/svg" xmlns:xlink="http://www.w3.org/1999/xlink">
 <metadata>
  <rdf:RDF xmlns:cc="http://creativecommons.org/ns#" xmlns:dc="http://purl.org/dc/elements/1.1/" xmlns:rdf="http://www.w3.org/1999/02/22-rdf-syntax-ns#">
   <cc:Work>
    <dc:type rdf:resource="http://purl.org/dc/dcmitype/StillImage"/>
    <dc:date>2024-11-18T11:54:37.329606</dc:date>
    <dc:format>image/svg+xml</dc:format>
    <dc:creator>
     <cc:Agent>
      <dc:title>Matplotlib v3.3.2, https://matplotlib.org/</dc:title>
     </cc:Agent>
    </dc:creator>
   </cc:Work>
  </rdf:RDF>
 </metadata>
 <defs>
  <style type="text/css">*{stroke-linecap:butt;stroke-linejoin:round;}</style>
 </defs>
 <g id="figure_1">
  <g id="patch_1">
   <path d="M 0 345.6 
L 460.8 345.6 
L 460.8 0 
L 0 0 
z
" style="fill:none;"/>
  </g>
  <g id="axes_1">
   <g id="patch_2">
    <path d="M 54.2 255.638708 
L 450 255.638708 
L 450 25.44 
L 54.2 25.44 
z
" style="fill:none;"/>
   </g>
   <g id="matplotlib.axis_1">
    <g id="xtick_1">
     <g id="line2d_1">
      <path clip-path="url(#pb7d25bd2bd)" d="M 88.927336 255.638708 
L 88.927336 25.44 
" style="fill:none;stroke:#b0b0b0;stroke-linecap:square;stroke-width:0.8;"/>
     </g>
     <g id="line2d_2">
      <defs>
       <path d="M 0 0 
L 0 3.5 
" id="m17165107f9" style="stroke:#000000;stroke-width:0.8;"/>
      </defs>
      <g>
       <use style="stroke:#000000;stroke-width:0.8;" x="88.927336" xlink:href="#m17165107f9" y="255.638708"/>
      </g>
     </g>
     <g id="text_1">
      <!-- 2024-10-29 -->
      <g transform="translate(81.581943 319.848351)rotate(-70)scale(0.1 -0.1)">
       <defs>
        <path d="M 19.1875 8.296875 
L 53.609375 8.296875 
L 53.609375 0 
L 7.328125 0 
L 7.328125 8.296875 
Q 12.9375 14.109375 22.625 23.890625 
Q 32.328125 33.6875 34.8125 36.53125 
Q 39.546875 41.84375 41.421875 45.53125 
Q 43.3125 49.21875 43.3125 52.78125 
Q 43.3125 58.59375 39.234375 62.25 
Q 35.15625 65.921875 28.609375 65.921875 
Q 23.96875 65.921875 18.8125 64.3125 
Q 13.671875 62.703125 7.8125 59.421875 
L 7.8125 69.390625 
Q 13.765625 71.78125 18.9375 73 
Q 24.125 74.21875 28.421875 74.21875 
Q 39.75 74.21875 46.484375 68.546875 
Q 53.21875 62.890625 53.21875 53.421875 
Q 53.21875 48.921875 51.53125 44.890625 
Q 49.859375 40.875 45.40625 35.40625 
Q 44.1875 33.984375 37.640625 27.21875 
Q 31.109375 20.453125 19.1875 8.296875 
z
" id="DejaVuSans-50"/>
        <path d="M 31.78125 66.40625 
Q 24.171875 66.40625 20.328125 58.90625 
Q 16.5 51.421875 16.5 36.375 
Q 16.5 21.390625 20.328125 13.890625 
Q 24.171875 6.390625 31.78125 6.390625 
Q 39.453125 6.390625 43.28125 13.890625 
Q 47.125 21.390625 47.125 36.375 
Q 47.125 51.421875 43.28125 58.90625 
Q 39.453125 66.40625 31.78125 66.40625 
z
M 31.78125 74.21875 
Q 44.046875 74.21875 50.515625 64.515625 
Q 56.984375 54.828125 56.984375 36.375 
Q 56.984375 17.96875 50.515625 8.265625 
Q 44.046875 -1.421875 31.78125 -1.421875 
Q 19.53125 -1.421875 13.0625 8.265625 
Q 6.59375 17.96875 6.59375 36.375 
Q 6.59375 54.828125 13.0625 64.515625 
Q 19.53125 74.21875 31.78125 74.21875 
z
" id="DejaVuSans-48"/>
        <path d="M 37.796875 64.3125 
L 12.890625 25.390625 
L 37.796875 25.390625 
z
M 35.203125 72.90625 
L 47.609375 72.90625 
L 47.609375 25.390625 
L 58.015625 25.390625 
L 58.015625 17.1875 
L 47.609375 17.1875 
L 47.609375 0 
L 37.796875 0 
L 37.796875 17.1875 
L 4.890625 17.1875 
L 4.890625 26.703125 
z
" id="DejaVuSans-52"/>
        <path d="M 4.890625 31.390625 
L 31.203125 31.390625 
L 31.203125 23.390625 
L 4.890625 23.390625 
z
" id="DejaVuSans-45"/>
        <path d="M 12.40625 8.296875 
L 28.515625 8.296875 
L 28.515625 63.921875 
L 10.984375 60.40625 
L 10.984375 69.390625 
L 28.421875 72.90625 
L 38.28125 72.90625 
L 38.28125 8.296875 
L 54.390625 8.296875 
L 54.390625 0 
L 12.40625 0 
z
" id="DejaVuSans-49"/>
        <path d="M 10.984375 1.515625 
L 10.984375 10.5 
Q 14.703125 8.734375 18.5 7.8125 
Q 22.3125 6.890625 25.984375 6.890625 
Q 35.75 6.890625 40.890625 13.453125 
Q 46.046875 20.015625 46.78125 33.40625 
Q 43.953125 29.203125 39.59375 26.953125 
Q 35.25 24.703125 29.984375 24.703125 
Q 19.046875 24.703125 12.671875 31.3125 
Q 6.296875 37.9375 6.296875 49.421875 
Q 6.296875 60.640625 12.9375 67.421875 
Q 19.578125 74.21875 30.609375 74.21875 
Q 43.265625 74.21875 49.921875 64.515625 
Q 56.59375 54.828125 56.59375 36.375 
Q 56.59375 19.140625 48.40625 8.859375 
Q 40.234375 -1.421875 26.421875 -1.421875 
Q 22.703125 -1.421875 18.890625 -0.6875 
Q 15.09375 0.046875 10.984375 1.515625 
z
M 30.609375 32.421875 
Q 37.25 32.421875 41.125 36.953125 
Q 45.015625 41.5 45.015625 49.421875 
Q 45.015625 57.28125 41.125 61.84375 
Q 37.25 66.40625 30.609375 66.40625 
Q 23.96875 66.40625 20.09375 61.84375 
Q 16.21875 57.28125 16.21875 49.421875 
Q 16.21875 41.5 20.09375 36.953125 
Q 23.96875 32.421875 30.609375 32.421875 
z
" id="DejaVuSans-57"/>
       </defs>
       <use xlink:href="#DejaVuSans-50"/>
       <use x="63.623047" xlink:href="#DejaVuSans-48"/>
       <use x="127.246094" xlink:href="#DejaVuSans-50"/>
       <use x="190.869141" xlink:href="#DejaVuSans-52"/>
       <use x="254.492188" xlink:href="#DejaVuSans-45"/>
       <use x="290.576172" xlink:href="#DejaVuSans-49"/>
       <use x="354.199219" xlink:href="#DejaVuSans-48"/>
       <use x="417.822266" xlink:href="#DejaVuSans-45"/>
       <use x="453.90625" xlink:href="#DejaVuSans-50"/>
       <use x="517.529297" xlink:href="#DejaVuSans-57"/>
      </g>
     </g>
    </g>
    <g id="xtick_2">
     <g id="line2d_3">
      <path clip-path="url(#pb7d25bd2bd)" d="M 139.143963 255.638708 
L 139.143963 25.44 
" style="fill:none;stroke:#b0b0b0;stroke-linecap:square;stroke-width:0.8;"/>
     </g>
     <g id="line2d_4">
      <g>
       <use style="stroke:#000000;stroke-width:0.8;" x="139.143963" xlink:href="#m17165107f9" y="255.638708"/>
      </g>
     </g>
     <g id="text_2">
      <!-- 2024-11-01 -->
      <g transform="translate(131.798571 319.848351)rotate(-70)scale(0.1 -0.1)">
       <use xlink:href="#DejaVuSans-50"/>
       <use x="63.623047" xlink:href="#DejaVuSans-48"/>
       <use x="127.246094" xlink:href="#DejaVuSans-50"/>
       <use x="190.869141" xlink:href="#DejaVuSans-52"/>
       <use x="254.492188" xlink:href="#DejaVuSans-45"/>
       <use x="290.576172" xlink:href="#DejaVuSans-49"/>
       <use x="354.199219" xlink:href="#DejaVuSans-49"/>
       <use x="417.822266" xlink:href="#DejaVuSans-45"/>
       <use x="453.90625" xlink:href="#DejaVuSans-48"/>
       <use x="517.529297" xlink:href="#DejaVuSans-49"/>
      </g>
     </g>
    </g>
    <g id="xtick_3">
     <g id="line2d_5">
      <path clip-path="url(#pb7d25bd2bd)" d="M 206.099467 255.638708 
L 206.099467 25.44 
" style="fill:none;stroke:#b0b0b0;stroke-linecap:square;stroke-width:0.8;"/>
     </g>
     <g id="line2d_6">
      <g>
       <use style="stroke:#000000;stroke-width:0.8;" x="206.099467" xlink:href="#m17165107f9" y="255.638708"/>
      </g>
     </g>
     <g id="text_3">
      <!-- 2024-11-05 -->
      <g transform="translate(198.754074 319.848351)rotate(-70)scale(0.1 -0.1)">
       <defs>
        <path d="M 10.796875 72.90625 
L 49.515625 72.90625 
L 49.515625 64.59375 
L 19.828125 64.59375 
L 19.828125 46.734375 
Q 21.96875 47.46875 24.109375 47.828125 
Q 26.265625 48.1875 28.421875 48.1875 
Q 40.625 48.1875 47.75 41.5 
Q 54.890625 34.8125 54.890625 23.390625 
Q 54.890625 11.625 47.5625 5.09375 
Q 40.234375 -1.421875 26.90625 -1.421875 
Q 22.3125 -1.421875 17.546875 -0.640625 
Q 12.796875 0.140625 7.71875 1.703125 
L 7.71875 11.625 
Q 12.109375 9.234375 16.796875 8.0625 
Q 21.484375 6.890625 26.703125 6.890625 
Q 35.15625 6.890625 40.078125 11.328125 
Q 45.015625 15.765625 45.015625 23.390625 
Q 45.015625 31 40.078125 35.4375 
Q 35.15625 39.890625 26.703125 39.890625 
Q 22.75 39.890625 18.8125 39.015625 
Q 14.890625 38.140625 10.796875 36.28125 
z
" id="DejaVuSans-53"/>
       </defs>
       <use xlink:href="#DejaVuSans-50"/>
       <use x="63.623047" xlink:href="#DejaVuSans-48"/>
       <use x="127.246094" xlink:href="#DejaVuSans-50"/>
       <use x="190.869141" xlink:href="#DejaVuSans-52"/>
       <use x="254.492188" xlink:href="#DejaVuSans-45"/>
       <use x="290.576172" xlink:href="#DejaVuSans-49"/>
       <use x="354.199219" xlink:href="#DejaVuSans-49"/>
       <use x="417.822266" xlink:href="#DejaVuSans-45"/>
       <use x="453.90625" xlink:href="#DejaVuSans-48"/>
       <use x="517.529297" xlink:href="#DejaVuSans-53"/>
      </g>
     </g>
    </g>
    <g id="xtick_4">
     <g id="line2d_7">
      <path clip-path="url(#pb7d25bd2bd)" d="M 273.054971 255.638708 
L 273.054971 25.44 
" style="fill:none;stroke:#b0b0b0;stroke-linecap:square;stroke-width:0.8;"/>
     </g>
     <g id="line2d_8">
      <g>
       <use style="stroke:#000000;stroke-width:0.8;" x="273.054971" xlink:href="#m17165107f9" y="255.638708"/>
      </g>
     </g>
     <g id="text_4">
      <!-- 2024-11-09 -->
      <g transform="translate(265.709578 319.848351)rotate(-70)scale(0.1 -0.1)">
       <use xlink:href="#DejaVuSans-50"/>
       <use x="63.623047" xlink:href="#DejaVuSans-48"/>
       <use x="127.246094" xlink:href="#DejaVuSans-50"/>
       <use x="190.869141" xlink:href="#DejaVuSans-52"/>
       <use x="254.492188" xlink:href="#DejaVuSans-45"/>
       <use x="290.576172" xlink:href="#DejaVuSans-49"/>
       <use x="354.199219" xlink:href="#DejaVuSans-49"/>
       <use x="417.822266" xlink:href="#DejaVuSans-45"/>
       <use x="453.90625" xlink:href="#DejaVuSans-48"/>
       <use x="517.529297" xlink:href="#DejaVuSans-57"/>
      </g>
     </g>
    </g>
    <g id="xtick_5">
     <g id="line2d_9">
      <path clip-path="url(#pb7d25bd2bd)" d="M 340.010474 255.638708 
L 340.010474 25.44 
" style="fill:none;stroke:#b0b0b0;stroke-linecap:square;stroke-width:0.8;"/>
     </g>
     <g id="line2d_10">
      <g>
       <use style="stroke:#000000;stroke-width:0.8;" x="340.010474" xlink:href="#m17165107f9" y="255.638708"/>
      </g>
     </g>
     <g id="text_5">
      <!-- 2024-11-13 -->
      <g transform="translate(332.665081 319.848351)rotate(-70)scale(0.1 -0.1)">
       <defs>
        <path d="M 40.578125 39.3125 
Q 47.65625 37.796875 51.625 33 
Q 55.609375 28.21875 55.609375 21.1875 
Q 55.609375 10.40625 48.1875 4.484375 
Q 40.765625 -1.421875 27.09375 -1.421875 
Q 22.515625 -1.421875 17.65625 -0.515625 
Q 12.796875 0.390625 7.625 2.203125 
L 7.625 11.71875 
Q 11.71875 9.328125 16.59375 8.109375 
Q 21.484375 6.890625 26.8125 6.890625 
Q 36.078125 6.890625 40.9375 10.546875 
Q 45.796875 14.203125 45.796875 21.1875 
Q 45.796875 27.640625 41.28125 31.265625 
Q 36.765625 34.90625 28.71875 34.90625 
L 20.21875 34.90625 
L 20.21875 43.015625 
L 29.109375 43.015625 
Q 36.375 43.015625 40.234375 45.921875 
Q 44.09375 48.828125 44.09375 54.296875 
Q 44.09375 59.90625 40.109375 62.90625 
Q 36.140625 65.921875 28.71875 65.921875 
Q 24.65625 65.921875 20.015625 65.03125 
Q 15.375 64.15625 9.8125 62.3125 
L 9.8125 71.09375 
Q 15.4375 72.65625 20.34375 73.4375 
Q 25.25 74.21875 29.59375 74.21875 
Q 40.828125 74.21875 47.359375 69.109375 
Q 53.90625 64.015625 53.90625 55.328125 
Q 53.90625 49.265625 50.4375 45.09375 
Q 46.96875 40.921875 40.578125 39.3125 
z
" id="DejaVuSans-51"/>
       </defs>
       <use xlink:href="#DejaVuSans-50"/>
       <use x="63.623047" xlink:href="#DejaVuSans-48"/>
       <use x="127.246094" xlink:href="#DejaVuSans-50"/>
       <use x="190.869141" xlink:href="#DejaVuSans-52"/>
       <use x="254.492188" xlink:href="#DejaVuSans-45"/>
       <use x="290.576172" xlink:href="#DejaVuSans-49"/>
       <use x="354.199219" xlink:href="#DejaVuSans-49"/>
       <use x="417.822266" xlink:href="#DejaVuSans-45"/>
       <use x="453.90625" xlink:href="#DejaVuSans-49"/>
       <use x="517.529297" xlink:href="#DejaVuSans-51"/>
      </g>
     </g>
    </g>
    <g id="xtick_6">
     <g id="line2d_11">
      <path clip-path="url(#pb7d25bd2bd)" d="M 406.965978 255.638708 
L 406.965978 25.44 
" style="fill:none;stroke:#b0b0b0;stroke-linecap:square;stroke-width:0.8;"/>
     </g>
     <g id="line2d_12">
      <g>
       <use style="stroke:#000000;stroke-width:0.8;" x="406.965978" xlink:href="#m17165107f9" y="255.638708"/>
      </g>
     </g>
     <g id="text_6">
      <!-- 2024-11-17 -->
      <g transform="translate(399.620585 319.848351)rotate(-70)scale(0.1 -0.1)">
       <defs>
        <path d="M 8.203125 72.90625 
L 55.078125 72.90625 
L 55.078125 68.703125 
L 28.609375 0 
L 18.3125 0 
L 43.21875 64.59375 
L 8.203125 64.59375 
z
" id="DejaVuSans-55"/>
       </defs>
       <use xlink:href="#DejaVuSans-50"/>
       <use x="63.623047" xlink:href="#DejaVuSans-48"/>
       <use x="127.246094" xlink:href="#DejaVuSans-50"/>
       <use x="190.869141" xlink:href="#DejaVuSans-52"/>
       <use x="254.492188" xlink:href="#DejaVuSans-45"/>
       <use x="290.576172" xlink:href="#DejaVuSans-49"/>
       <use x="354.199219" xlink:href="#DejaVuSans-49"/>
       <use x="417.822266" xlink:href="#DejaVuSans-45"/>
       <use x="453.90625" xlink:href="#DejaVuSans-49"/>
       <use x="517.529297" xlink:href="#DejaVuSans-55"/>
      </g>
     </g>
    </g>
    <g id="text_7">
     <!-- Date -->
     <g transform="translate(240.149219 332.158083)scale(0.1 -0.1)">
      <defs>
       <path d="M 19.671875 64.796875 
L 19.671875 8.109375 
L 31.59375 8.109375 
Q 46.6875 8.109375 53.6875 14.9375 
Q 60.6875 21.78125 60.6875 36.53125 
Q 60.6875 51.171875 53.6875 57.984375 
Q 46.6875 64.796875 31.59375 64.796875 
z
M 9.8125 72.90625 
L 30.078125 72.90625 
Q 51.265625 72.90625 61.171875 64.09375 
Q 71.09375 55.28125 71.09375 36.53125 
Q 71.09375 17.671875 61.125 8.828125 
Q 51.171875 0 30.078125 0 
L 9.8125 0 
z
" id="DejaVuSans-68"/>
       <path d="M 34.28125 27.484375 
Q 23.390625 27.484375 19.1875 25 
Q 14.984375 22.515625 14.984375 16.5 
Q 14.984375 11.71875 18.140625 8.90625 
Q 21.296875 6.109375 26.703125 6.109375 
Q 34.1875 6.109375 38.703125 11.40625 
Q 43.21875 16.703125 43.21875 25.484375 
L 43.21875 27.484375 
z
M 52.203125 31.203125 
L 52.203125 0 
L 43.21875 0 
L 43.21875 8.296875 
Q 40.140625 3.328125 35.546875 0.953125 
Q 30.953125 -1.421875 24.3125 -1.421875 
Q 15.921875 -1.421875 10.953125 3.296875 
Q 6 8.015625 6 15.921875 
Q 6 25.140625 12.171875 29.828125 
Q 18.359375 34.515625 30.609375 34.515625 
L 43.21875 34.515625 
L 43.21875 35.40625 
Q 43.21875 41.609375 39.140625 45 
Q 35.0625 48.390625 27.6875 48.390625 
Q 23 48.390625 18.546875 47.265625 
Q 14.109375 46.140625 10.015625 43.890625 
L 10.015625 52.203125 
Q 14.9375 54.109375 19.578125 55.046875 
Q 24.21875 56 28.609375 56 
Q 40.484375 56 46.34375 49.84375 
Q 52.203125 43.703125 52.203125 31.203125 
z
" id="DejaVuSans-97"/>
       <path d="M 18.3125 70.21875 
L 18.3125 54.6875 
L 36.8125 54.6875 
L 36.8125 47.703125 
L 18.3125 47.703125 
L 18.3125 18.015625 
Q 18.3125 11.328125 20.140625 9.421875 
Q 21.96875 7.515625 27.59375 7.515625 
L 36.8125 7.515625 
L 36.8125 0 
L 27.59375 0 
Q 17.1875 0 13.234375 3.875 
Q 9.28125 7.765625 9.28125 18.015625 
L 9.28125 47.703125 
L 2.6875 47.703125 
L 2.6875 54.6875 
L 9.28125 54.6875 
L 9.28125 70.21875 
z
" id="DejaVuSans-116"/>
       <path d="M 56.203125 29.59375 
L 56.203125 25.203125 
L 14.890625 25.203125 
Q 15.484375 15.921875 20.484375 11.0625 
Q 25.484375 6.203125 34.421875 6.203125 
Q 39.59375 6.203125 44.453125 7.46875 
Q 49.3125 8.734375 54.109375 11.28125 
L 54.109375 2.78125 
Q 49.265625 0.734375 44.1875 -0.34375 
Q 39.109375 -1.421875 33.890625 -1.421875 
Q 20.796875 -1.421875 13.15625 6.1875 
Q 5.515625 13.8125 5.515625 26.8125 
Q 5.515625 40.234375 12.765625 48.109375 
Q 20.015625 56 32.328125 56 
Q 43.359375 56 49.78125 48.890625 
Q 56.203125 41.796875 56.203125 29.59375 
z
M 47.21875 32.234375 
Q 47.125 39.59375 43.09375 43.984375 
Q 39.0625 48.390625 32.421875 48.390625 
Q 24.90625 48.390625 20.390625 44.140625 
Q 15.875 39.890625 15.1875 32.171875 
z
" id="DejaVuSans-101"/>
      </defs>
      <use xlink:href="#DejaVuSans-68"/>
      <use x="77.001953" xlink:href="#DejaVuSans-97"/>
      <use x="138.28125" xlink:href="#DejaVuSans-116"/>
      <use x="177.490234" xlink:href="#DejaVuSans-101"/>
     </g>
    </g>
   </g>
   <g id="matplotlib.axis_2">
    <g id="ytick_1">
     <g id="line2d_13">
      <path clip-path="url(#pb7d25bd2bd)" d="M 54.2 249.774505 
L 450 249.774505 
" style="fill:none;stroke:#b0b0b0;stroke-linecap:square;stroke-width:0.8;"/>
     </g>
     <g id="line2d_14">
      <defs>
       <path d="M 0 0 
L -3.5 0 
" id="m2d52478993" style="stroke:#000000;stroke-width:0.8;"/>
      </defs>
      <g>
       <use style="stroke:#000000;stroke-width:0.8;" x="54.2" xlink:href="#m2d52478993" y="249.774505"/>
      </g>
     </g>
     <g id="text_8">
      <!-- 37.5 -->
      <g transform="translate(24.934375 253.573724)scale(0.1 -0.1)">
       <defs>
        <path d="M 10.6875 12.40625 
L 21 12.40625 
L 21 0 
L 10.6875 0 
z
" id="DejaVuSans-46"/>
       </defs>
       <use xlink:href="#DejaVuSans-51"/>
       <use x="63.623047" xlink:href="#DejaVuSans-55"/>
       <use x="127.246094" xlink:href="#DejaVuSans-46"/>
       <use x="159.033203" xlink:href="#DejaVuSans-53"/>
      </g>
     </g>
    </g>
    <g id="ytick_2">
     <g id="line2d_15">
      <path clip-path="url(#pb7d25bd2bd)" d="M 54.2 221.028413 
L 450 221.028413 
" style="fill:none;stroke:#b0b0b0;stroke-linecap:square;stroke-width:0.8;"/>
     </g>
     <g id="line2d_16">
      <g>
       <use style="stroke:#000000;stroke-width:0.8;" x="54.2" xlink:href="#m2d52478993" y="221.028413"/>
      </g>
     </g>
     <g id="text_9">
      <!-- 40.0 -->
      <g transform="translate(24.934375 224.827631)scale(0.1 -0.1)">
       <use xlink:href="#DejaVuSans-52"/>
       <use x="63.623047" xlink:href="#DejaVuSans-48"/>
       <use x="127.246094" xlink:href="#DejaVuSans-46"/>
       <use x="159.033203" xlink:href="#DejaVuSans-48"/>
      </g>
     </g>
    </g>
    <g id="ytick_3">
     <g id="line2d_17">
      <path clip-path="url(#pb7d25bd2bd)" d="M 54.2 192.28232 
L 450 192.28232 
" style="fill:none;stroke:#b0b0b0;stroke-linecap:square;stroke-width:0.8;"/>
     </g>
     <g id="line2d_18">
      <g>
       <use style="stroke:#000000;stroke-width:0.8;" x="54.2" xlink:href="#m2d52478993" y="192.28232"/>
      </g>
     </g>
     <g id="text_10">
      <!-- 42.5 -->
      <g transform="translate(24.934375 196.081539)scale(0.1 -0.1)">
       <use xlink:href="#DejaVuSans-52"/>
       <use x="63.623047" xlink:href="#DejaVuSans-50"/>
       <use x="127.246094" xlink:href="#DejaVuSans-46"/>
       <use x="159.033203" xlink:href="#DejaVuSans-53"/>
      </g>
     </g>
    </g>
    <g id="ytick_4">
     <g id="line2d_19">
      <path clip-path="url(#pb7d25bd2bd)" d="M 54.2 163.536228 
L 450 163.536228 
" style="fill:none;stroke:#b0b0b0;stroke-linecap:square;stroke-width:0.8;"/>
     </g>
     <g id="line2d_20">
      <g>
       <use style="stroke:#000000;stroke-width:0.8;" x="54.2" xlink:href="#m2d52478993" y="163.536228"/>
      </g>
     </g>
     <g id="text_11">
      <!-- 45.0 -->
      <g transform="translate(24.934375 167.335447)scale(0.1 -0.1)">
       <use xlink:href="#DejaVuSans-52"/>
       <use x="63.623047" xlink:href="#DejaVuSans-53"/>
       <use x="127.246094" xlink:href="#DejaVuSans-46"/>
       <use x="159.033203" xlink:href="#DejaVuSans-48"/>
      </g>
     </g>
    </g>
    <g id="ytick_5">
     <g id="line2d_21">
      <path clip-path="url(#pb7d25bd2bd)" d="M 54.2 134.790136 
L 450 134.790136 
" style="fill:none;stroke:#b0b0b0;stroke-linecap:square;stroke-width:0.8;"/>
     </g>
     <g id="line2d_22">
      <g>
       <use style="stroke:#000000;stroke-width:0.8;" x="54.2" xlink:href="#m2d52478993" y="134.790136"/>
      </g>
     </g>
     <g id="text_12">
      <!-- 47.5 -->
      <g transform="translate(24.934375 138.589354)scale(0.1 -0.1)">
       <use xlink:href="#DejaVuSans-52"/>
       <use x="63.623047" xlink:href="#DejaVuSans-55"/>
       <use x="127.246094" xlink:href="#DejaVuSans-46"/>
       <use x="159.033203" xlink:href="#DejaVuSans-53"/>
      </g>
     </g>
    </g>
    <g id="ytick_6">
     <g id="line2d_23">
      <path clip-path="url(#pb7d25bd2bd)" d="M 54.2 106.044043 
L 450 106.044043 
" style="fill:none;stroke:#b0b0b0;stroke-linecap:square;stroke-width:0.8;"/>
     </g>
     <g id="line2d_24">
      <g>
       <use style="stroke:#000000;stroke-width:0.8;" x="54.2" xlink:href="#m2d52478993" y="106.044043"/>
      </g>
     </g>
     <g id="text_13">
      <!-- 50.0 -->
      <g transform="translate(24.934375 109.843262)scale(0.1 -0.1)">
       <use xlink:href="#DejaVuSans-53"/>
       <use x="63.623047" xlink:href="#DejaVuSans-48"/>
       <use x="127.246094" xlink:href="#DejaVuSans-46"/>
       <use x="159.033203" xlink:href="#DejaVuSans-48"/>
      </g>
     </g>
    </g>
    <g id="ytick_7">
     <g id="line2d_25">
      <path clip-path="url(#pb7d25bd2bd)" d="M 54.2 77.297951 
L 450 77.297951 
" style="fill:none;stroke:#b0b0b0;stroke-linecap:square;stroke-width:0.8;"/>
     </g>
     <g id="line2d_26">
      <g>
       <use style="stroke:#000000;stroke-width:0.8;" x="54.2" xlink:href="#m2d52478993" y="77.297951"/>
      </g>
     </g>
     <g id="text_14">
      <!-- 52.5 -->
      <g transform="translate(24.934375 81.097169)scale(0.1 -0.1)">
       <use xlink:href="#DejaVuSans-53"/>
       <use x="63.623047" xlink:href="#DejaVuSans-50"/>
       <use x="127.246094" xlink:href="#DejaVuSans-46"/>
       <use x="159.033203" xlink:href="#DejaVuSans-53"/>
      </g>
     </g>
    </g>
    <g id="ytick_8">
     <g id="line2d_27">
      <path clip-path="url(#pb7d25bd2bd)" d="M 54.2 48.551858 
L 450 48.551858 
" style="fill:none;stroke:#b0b0b0;stroke-linecap:square;stroke-width:0.8;"/>
     </g>
     <g id="line2d_28">
      <g>
       <use style="stroke:#000000;stroke-width:0.8;" x="54.2" xlink:href="#m2d52478993" y="48.551858"/>
      </g>
     </g>
     <g id="text_15">
      <!-- 55.0 -->
      <g transform="translate(24.934375 52.351077)scale(0.1 -0.1)">
       <use xlink:href="#DejaVuSans-53"/>
       <use x="63.623047" xlink:href="#DejaVuSans-53"/>
       <use x="127.246094" xlink:href="#DejaVuSans-46"/>
       <use x="159.033203" xlink:href="#DejaVuSans-48"/>
      </g>
     </g>
    </g>
    <g id="text_16">
     <!-- Temperature [F] -->
     <g transform="translate(18.854688 180.575291)rotate(-90)scale(0.1 -0.1)">
      <defs>
       <path d="M -0.296875 72.90625 
L 61.375 72.90625 
L 61.375 64.59375 
L 35.5 64.59375 
L 35.5 0 
L 25.59375 0 
L 25.59375 64.59375 
L -0.296875 64.59375 
z
" id="DejaVuSans-84"/>
       <path d="M 52 44.1875 
Q 55.375 50.25 60.0625 53.125 
Q 64.75 56 71.09375 56 
Q 79.640625 56 84.28125 50.015625 
Q 88.921875 44.046875 88.921875 33.015625 
L 88.921875 0 
L 79.890625 0 
L 79.890625 32.71875 
Q 79.890625 40.578125 77.09375 44.375 
Q 74.3125 48.1875 68.609375 48.1875 
Q 61.625 48.1875 57.5625 43.546875 
Q 53.515625 38.921875 53.515625 30.90625 
L 53.515625 0 
L 44.484375 0 
L 44.484375 32.71875 
Q 44.484375 40.625 41.703125 44.40625 
Q 38.921875 48.1875 33.109375 48.1875 
Q 26.21875 48.1875 22.15625 43.53125 
Q 18.109375 38.875 18.109375 30.90625 
L 18.109375 0 
L 9.078125 0 
L 9.078125 54.6875 
L 18.109375 54.6875 
L 18.109375 46.1875 
Q 21.1875 51.21875 25.484375 53.609375 
Q 29.78125 56 35.6875 56 
Q 41.65625 56 45.828125 52.96875 
Q 50 49.953125 52 44.1875 
z
" id="DejaVuSans-109"/>
       <path d="M 18.109375 8.203125 
L 18.109375 -20.796875 
L 9.078125 -20.796875 
L 9.078125 54.6875 
L 18.109375 54.6875 
L 18.109375 46.390625 
Q 20.953125 51.265625 25.265625 53.625 
Q 29.59375 56 35.59375 56 
Q 45.5625 56 51.78125 48.09375 
Q 58.015625 40.1875 58.015625 27.296875 
Q 58.015625 14.40625 51.78125 6.484375 
Q 45.5625 -1.421875 35.59375 -1.421875 
Q 29.59375 -1.421875 25.265625 0.953125 
Q 20.953125 3.328125 18.109375 8.203125 
z
M 48.6875 27.296875 
Q 48.6875 37.203125 44.609375 42.84375 
Q 40.53125 48.484375 33.40625 48.484375 
Q 26.265625 48.484375 22.1875 42.84375 
Q 18.109375 37.203125 18.109375 27.296875 
Q 18.109375 17.390625 22.1875 11.75 
Q 26.265625 6.109375 33.40625 6.109375 
Q 40.53125 6.109375 44.609375 11.75 
Q 48.6875 17.390625 48.6875 27.296875 
z
" id="DejaVuSans-112"/>
       <path d="M 41.109375 46.296875 
Q 39.59375 47.171875 37.8125 47.578125 
Q 36.03125 48 33.890625 48 
Q 26.265625 48 22.1875 43.046875 
Q 18.109375 38.09375 18.109375 28.8125 
L 18.109375 0 
L 9.078125 0 
L 9.078125 54.6875 
L 18.109375 54.6875 
L 18.109375 46.1875 
Q 20.953125 51.171875 25.484375 53.578125 
Q 30.03125 56 36.53125 56 
Q 37.453125 56 38.578125 55.875 
Q 39.703125 55.765625 41.0625 55.515625 
z
" id="DejaVuSans-114"/>
       <path d="M 8.5 21.578125 
L 8.5 54.6875 
L 17.484375 54.6875 
L 17.484375 21.921875 
Q 17.484375 14.15625 20.5 10.265625 
Q 23.53125 6.390625 29.59375 6.390625 
Q 36.859375 6.390625 41.078125 11.03125 
Q 45.3125 15.671875 45.3125 23.6875 
L 45.3125 54.6875 
L 54.296875 54.6875 
L 54.296875 0 
L 45.3125 0 
L 45.3125 8.40625 
Q 42.046875 3.421875 37.71875 1 
Q 33.40625 -1.421875 27.6875 -1.421875 
Q 18.265625 -1.421875 13.375 4.4375 
Q 8.5 10.296875 8.5 21.578125 
z
M 31.109375 56 
z
" id="DejaVuSans-117"/>
       <path id="DejaVuSans-32"/>
       <path d="M 8.59375 75.984375 
L 29.296875 75.984375 
L 29.296875 69 
L 17.578125 69 
L 17.578125 -6.203125 
L 29.296875 -6.203125 
L 29.296875 -13.1875 
L 8.59375 -13.1875 
z
" id="DejaVuSans-91"/>
       <path d="M 9.8125 72.90625 
L 51.703125 72.90625 
L 51.703125 64.59375 
L 19.671875 64.59375 
L 19.671875 43.109375 
L 48.578125 43.109375 
L 48.578125 34.8125 
L 19.671875 34.8125 
L 19.671875 0 
L 9.8125 0 
z
" id="DejaVuSans-70"/>
       <path d="M 30.421875 75.984375 
L 30.421875 -13.1875 
L 9.71875 -13.1875 
L 9.71875 -6.203125 
L 21.390625 -6.203125 
L 21.390625 69 
L 9.71875 69 
L 9.71875 75.984375 
z
" id="DejaVuSans-93"/>
      </defs>
      <use xlink:href="#DejaVuSans-84"/>
      <use x="44.083984" xlink:href="#DejaVuSans-101"/>
      <use x="105.607422" xlink:href="#DejaVuSans-109"/>
      <use x="203.019531" xlink:href="#DejaVuSans-112"/>
      <use x="266.496094" xlink:href="#DejaVuSans-101"/>
      <use x="328.019531" xlink:href="#DejaVuSans-114"/>
      <use x="369.132812" xlink:href="#DejaVuSans-97"/>
      <use x="430.412109" xlink:href="#DejaVuSans-116"/>
      <use x="469.621094" xlink:href="#DejaVuSans-117"/>
      <use x="533" xlink:href="#DejaVuSans-114"/>
      <use x="571.863281" xlink:href="#DejaVuSans-101"/>
      <use x="633.386719" xlink:href="#DejaVuSans-32"/>
      <use x="665.173828" xlink:href="#DejaVuSans-91"/>
      <use x="704.1875" xlink:href="#DejaVuSans-70"/>
      <use x="761.707031" xlink:href="#DejaVuSans-93"/>
     </g>
    </g>
   </g>
   <g id="line2d_29">
    <path clip-path="url(#pb7d25bd2bd)" d="M 72.190909 50.851546 
L 72.202917 50.851546 
L 72.324861 48.551858 
L 72.348902 48.551858 
L 72.470082 50.851546 
L 72.494644 50.851546 
L 72.615627 48.551858 
L 72.66419 48.551858 
L 72.773736 50.851546 
L 72.883678 48.551858 
L 73.006132 50.851546 
L 73.248873 50.851546 
L 73.261096 48.551858 
L 73.35879 50.851546 
L 73.455516 50.851546 
L 73.57744 48.551858 
L 73.617105 50.851546 
L 73.677703 48.551858 
L 73.689761 48.551858 
L 73.738578 50.851546 
L 73.791788 48.551858 
L 73.967347 48.551858 
L 74.077995 50.851546 
L 74.200709 48.551858 
L 74.212732 48.551858 
L 74.335472 50.851546 
L 74.396521 48.551858 
L 74.445048 50.851546 
L 74.50619 50.851546 
L 74.530233 48.551858 
L 74.566814 52.001389 
L 74.615893 50.851546 
L 74.665317 50.851546 
L 74.677354 52.001389 
L 74.714058 48.551858 
L 74.77508 50.851546 
L 74.799533 50.851546 
L 74.910812 48.551858 
L 75.020823 48.551858 
L 75.033273 50.851546 
L 75.131859 48.551858 
L 75.167897 48.551858 
L 75.204074 47.402015 
L 75.277762 48.551858 
L 75.424565 48.551858 
L 75.436562 50.851546 
L 75.535108 48.551858 
L 75.817097 48.551858 
L 75.89153 50.851546 
L 75.927792 48.551858 
L 76.136638 48.551858 
L 76.259428 50.851546 
L 76.505424 50.851546 
L 76.517466 48.551858 
L 76.614828 50.851546 
L 77.416189 50.851546 
L 77.478597 52.001389 
L 77.527082 50.851546 
L 77.563869 50.851546 
L 77.685157 52.001389 
L 77.795585 50.851546 
L 77.918465 52.001389 
L 77.94263 52.001389 
L 78.065096 50.851546 
L 78.10444 50.851546 
L 78.226971 52.001389 
L 78.252 50.851546 
L 78.326292 52.001389 
L 78.375712 52.001389 
L 78.387735 50.851546 
L 78.475261 52.001389 
L 78.632853 52.001389 
L 78.74441 53.151233 
L 78.821377 53.151233 
L 78.921861 52.001389 
L 78.946297 53.151233 
L 79.02027 52.001389 
L 79.068957 50.851546 
L 79.129399 52.001389 
L 79.276459 52.001389 
L 79.374023 50.851546 
L 79.386402 52.001389 
L 79.484427 52.001389 
L 79.496428 50.851546 
L 79.593839 52.001389 
L 79.630864 52.001389 
L 79.642877 50.851546 
L 79.739772 52.001389 
L 79.788788 52.001389 
L 79.911741 50.851546 
L 80.020853 50.851546 
L 80.032867 52.001389 
L 80.129852 50.851546 
L 80.31174 50.851546 
L 80.433058 48.551858 
L 80.705407 48.551858 
L 80.717483 50.851546 
L 80.814559 48.551858 
L 80.972672 48.551858 
L 81.084743 47.402015 
L 81.097165 47.402015 
L 81.14636 48.551858 
L 81.206989 47.402015 
L 81.243337 47.402015 
L 81.352789 46.252171 
L 81.40169 47.402015 
L 81.463576 46.252171 
L 81.523861 46.252171 
L 81.635276 45.102327 
L 81.732956 45.102327 
L 81.855087 43.952484 
L 81.879291 43.952484 
L 81.993487 41.652796 
L 82.091921 42.80264 
L 82.180564 40.502952 
L 82.205359 41.652796 
L 82.22981 41.652796 
L 82.269638 39.353109 
L 82.344317 40.502952 
L 82.505429 40.502952 
L 82.61892 39.353109 
L 82.681511 40.502952 
L 82.657111 37.053421 
L 82.693873 39.353109 
L 82.705897 37.053421 
L 82.791881 41.652796 
L 82.816466 41.652796 
L 82.866039 42.80264 
L 82.840963 39.353109 
L 82.914091 40.502952 
L 82.92635 37.053421 
L 82.938405 42.80264 
L 83.012633 42.80264 
L 83.036634 42.80264 
L 83.049304 43.952484 
L 83.097649 41.652796 
L 83.134711 41.652796 
L 83.271603 35.903578 
L 83.295831 35.903578 
L 83.416532 37.053421 
L 83.477502 37.053421 
L 83.58789 39.353109 
L 83.701171 37.053421 
L 83.82398 39.353109 
L 83.835987 39.353109 
L 83.958087 40.502952 
L 84.071764 40.502952 
L 84.193807 41.652796 
L 84.391723 41.652796 
L 84.478577 42.80264 
L 84.502804 41.652796 
L 84.624352 42.80264 
L 84.697633 42.80264 
L 84.820045 43.952484 
L 85.534529 43.952484 
L 85.546739 45.102327 
L 85.645021 43.952484 
L 85.657045 43.952484 
L 85.694026 45.102327 
L 85.756659 43.952484 
L 85.806135 43.952484 
L 85.929442 45.102327 
L 86.409379 45.102327 
L 86.531068 46.252171 
L 86.543403 46.252171 
L 86.629736 45.102327 
L 86.653843 46.252171 
L 86.814275 46.252171 
L 86.826988 47.402015 
L 86.915027 46.252171 
L 87.23321 46.252171 
L 87.331246 47.402015 
L 87.343391 46.252171 
L 87.380164 46.252171 
L 87.490353 47.402015 
L 87.600704 46.252171 
L 87.698976 47.402015 
L 87.711475 46.252171 
L 87.8338 47.402015 
L 88.006425 47.402015 
L 88.054864 46.252171 
L 88.116223 47.402015 
L 88.166816 47.402015 
L 88.289394 46.252171 
L 88.411436 47.402015 
L 89.057977 47.402015 
L 89.070002 46.252171 
L 89.166848 47.402015 
L 89.251687 47.402015 
L 89.264302 48.551858 
L 89.361032 47.402015 
L 89.653519 47.402015 
L 89.773879 48.551858 
L 89.858751 48.551858 
L 89.954944 47.402015 
L 89.967226 48.551858 
L 89.991272 48.551858 
L 90.076699 47.402015 
L 90.100784 48.551858 
L 90.283621 48.551858 
L 90.396937 50.851546 
L 90.445111 48.551858 
L 90.493468 50.851546 
L 90.597867 50.851546 
L 90.622406 48.551858 
L 90.707814 50.851546 
L 90.744296 50.851546 
L 90.8416 48.551858 
L 90.853861 50.851546 
L 90.866241 50.851546 
L 90.963588 48.551858 
L 90.97563 50.851546 
L 90.987969 50.851546 
L 91.110962 48.551858 
L 91.22048 48.551858 
L 91.232612 50.851546 
L 91.329684 48.551858 
L 91.562583 48.551858 
L 91.61115 50.851546 
L 91.672609 48.551858 
L 91.70915 48.551858 
L 91.794778 50.851546 
L 91.819257 48.551858 
L 92.015901 48.551858 
L 92.137831 50.851546 
L 92.162073 50.851546 
L 92.284483 48.551858 
L 92.2969 48.551858 
L 92.419621 50.851546 
L 92.493749 50.851546 
L 92.555796 48.551858 
L 92.592641 50.851546 
L 92.655072 50.851546 
L 92.667964 48.551858 
L 92.756922 50.851546 
L 92.770019 50.851546 
L 92.845448 48.551858 
L 92.869887 50.851546 
L 92.919916 50.851546 
L 92.93194 48.551858 
L 92.956572 50.851546 
L 93.055129 50.851546 
L 93.091487 48.551858 
L 93.155005 50.851546 
L 93.216466 50.851546 
L 93.289847 48.551858 
L 93.326454 50.851546 
L 93.399902 50.851546 
L 93.461084 48.551858 
L 93.510205 50.851546 
L 93.857264 50.851546 
L 93.975422 52.001389 
L 94.01163 50.851546 
L 94.08402 52.001389 
L 94.496622 52.001389 
L 94.570225 53.151233 
L 94.595703 52.001389 
L 95.046005 52.001389 
L 95.082091 50.851546 
L 95.154946 52.001389 
L 95.501544 52.001389 
L 95.513812 50.851546 
L 95.600422 52.001389 
L 95.61267 52.001389 
L 95.735112 50.851546 
L 95.856841 52.001389 
L 95.978608 50.851546 
L 96.01553 50.851546 
L 96.137027 48.551858 
L 96.259266 48.551858 
L 96.271331 47.402015 
L 96.368958 48.551858 
L 96.408388 48.551858 
L 96.507139 47.402015 
L 96.629755 48.551858 
L 96.678153 48.551858 
L 96.690291 47.402015 
L 96.78714 48.551858 
L 97.020846 48.551858 
L 97.069223 47.402015 
L 97.130436 48.551858 
L 97.166852 48.551858 
L 97.276232 47.402015 
L 97.646041 47.402015 
L 98.191654 46.252171 
L 98.434979 46.252171 
L 98.558052 45.102327 
L 98.952317 45.102327 
L 99.064082 43.952484 
L 99.161246 43.952484 
L 99.295453 41.652796 
L 99.416862 42.80264 
L 99.735876 42.80264 
L 99.747936 41.652796 
L 99.845066 42.80264 
L 99.86923 42.80264 
L 99.990798 41.652796 
L 100.026879 41.652796 
L 100.150186 43.952484 
L 100.17431 43.952484 
L 100.186573 42.80264 
L 100.284857 43.952484 
L 100.460012 43.952484 
L 100.556762 45.102327 
L 100.569238 43.952484 
L 100.605884 43.952484 
L 100.719801 45.102327 
L 100.990002 45.102327 
L 101.089282 46.252171 
L 101.150181 45.102327 
L 101.198997 46.252171 
L 101.394856 46.252171 
L 101.40688 45.102327 
L 101.494622 46.252171 
L 101.815458 46.252171 
L 101.928141 47.402015 
L 101.980951 47.402015 
L 102.02973 46.252171 
L 102.079866 47.402015 
L 102.291831 47.402015 
L 102.401854 48.551858 
L 102.475775 47.402015 
L 102.501031 48.551858 
L 102.526206 48.551858 
L 102.539299 47.402015 
L 102.63687 48.551858 
L 102.735914 48.551858 
L 102.74804 50.851546 
L 102.811765 48.551858 
L 102.936279 48.551858 
L 103.048131 50.851546 
L 103.084348 50.851546 
L 103.20715 48.551858 
L 103.328949 50.851546 
L 103.548542 50.851546 
L 103.560593 52.001389 
L 103.657729 50.851546 
L 104.39244 50.851546 
L 104.502623 52.001389 
L 104.612569 50.851546 
L 104.688632 52.001389 
L 104.713056 50.851546 
L 104.774262 50.851546 
L 104.897104 52.001389 
L 104.933883 52.001389 
L 104.945865 50.851546 
L 105.043999 52.001389 
L 105.069262 52.001389 
L 105.183731 50.851546 
L 105.222597 50.851546 
L 105.336811 52.001389 
L 105.521428 52.001389 
L 105.594628 50.851546 
L 105.630825 52.001389 
L 105.899434 52.001389 
L 105.912015 53.151233 
L 106.010136 52.001389 
L 106.133344 52.001389 
L 106.145576 53.151233 
L 106.24297 52.001389 
L 106.425232 52.001389 
L 106.44989 53.151233 
L 106.53571 52.001389 
L 106.559752 52.001389 
L 106.682555 53.151233 
L 106.70708 53.151233 
L 106.828682 52.001389 
L 106.950184 53.151233 
L 106.962205 53.151233 
L 106.986894 52.001389 
L 107.059374 53.151233 
L 107.098819 53.151233 
L 107.220744 52.001389 
L 107.336438 53.151233 
L 107.471184 53.151233 
L 107.580409 54.301077 
L 107.700972 53.151233 
L 107.713198 53.151233 
L 107.825722 54.301077 
L 107.874487 54.301077 
L 107.912218 53.151233 
L 107.98515 54.301077 
L 108.463425 54.301077 
L 108.512031 55.45092 
L 108.573133 54.301077 
L 108.585155 54.301077 
L 108.695253 55.45092 
L 108.817943 54.301077 
L 108.842028 54.301077 
L 108.964669 55.45092 
L 109.191685 55.45092 
L 109.317951 54.301077 
L 109.388944 55.45092 
L 109.417036 54.301077 
L 109.494169 54.301077 
L 109.609986 55.45092 
L 109.669548 55.45092 
L 109.769154 54.301077 
L 109.856356 55.45092 
L 110.381029 55.45092 
L 110.495639 56.600764 
L 110.67674 56.600764 
L 110.701203 57.750608 
L 110.779718 56.600764 
L 110.847674 56.600764 
L 110.898641 57.750608 
L 110.947045 56.600764 
L 110.959041 56.600764 
L 111.080881 57.750608 
L 111.252107 57.750608 
L 111.349097 56.600764 
L 111.361161 57.750608 
L 111.62942 57.750608 
L 111.750921 56.600764 
L 111.762929 56.600764 
L 111.886101 57.750608 
L 111.984143 57.750608 
L 112.097065 56.600764 
L 112.23794 56.600764 
L 112.337473 57.750608 
L 112.457933 56.600764 
L 113.125504 56.600764 
L 113.137656 57.750608 
L 113.224769 56.600764 
L 113.399047 56.600764 
L 113.411534 57.750608 
L 113.50092 56.600764 
L 113.6631 56.600764 
L 113.675326 57.750608 
L 113.764882 56.600764 
L 113.825869 56.600764 
L 113.83861 55.45092 
L 113.93541 56.600764 
L 114.093286 56.600764 
L 114.105324 57.750608 
L 114.202404 56.600764 
L 114.505358 56.600764 
L 114.53442 57.750608 
L 114.610892 56.600764 
L 115.374777 57.750608 
L 116.182003 57.750608 
L 116.194233 56.600764 
L 116.281124 57.750608 
L 117.102601 57.750608 
L 117.163227 60.050295 
L 117.211537 57.750608 
L 117.235537 57.750608 
L 117.247702 60.050295 
L 117.345545 57.750608 
L 117.467236 57.750608 
L 117.564254 60.050295 
L 117.576276 57.750608 
L 117.612641 57.750608 
L 117.735184 60.050295 
L 117.846127 57.750608 
L 117.968645 60.050295 
L 118.081706 57.750608 
L 118.216839 57.750608 
L 118.313172 60.050295 
L 118.326818 57.750608 
L 118.446566 60.050295 
L 119.287944 61.200139 
L 119.401214 61.200139 
L 119.450012 62.349983 
L 119.853459 61.200139 
L 119.968006 62.349983 
L 120.092714 61.200139 
L 120.144184 62.349983 
L 120.194329 61.200139 
L 120.269192 61.200139 
L 120.3073 62.349983 
L 120.368909 61.200139 
L 120.445885 61.200139 
L 120.56735 62.349983 
L 120.580032 62.349983 
L 120.631956 61.200139 
L 120.68084 62.349983 
L 121.092351 62.349983 
L 121.192498 63.499826 
L 121.303001 62.349983 
L 121.328537 62.349983 
L 121.438619 63.499826 
L 121.559517 62.349983 
L 121.596347 63.499826 
L 121.669386 62.349983 
L 121.681415 62.349983 
L 121.729623 63.499826 
L 121.790277 62.349983 
L 121.814325 62.349983 
L 121.935311 63.499826 
L 121.947646 63.499826 
L 122.056003 62.349983 
L 122.169168 63.499826 
L 122.197061 63.499826 
L 122.31966 64.64967 
L 122.356364 64.64967 
L 122.405835 63.499826 
L 122.466796 64.64967 
L 122.515906 64.64967 
L 122.540389 65.799514 
L 122.552381 63.499826 
L 122.613998 63.499826 
L 122.69855 63.499826 
L 122.710571 64.64967 
L 122.80711 63.499826 
L 123.072661 63.499826 
L 123.133294 65.799514 
L 123.187848 64.64967 
L 123.308846 63.499826 
L 123.441704 63.499826 
L 123.561998 64.64967 
L 123.670925 63.499826 
L 123.68294 64.64967 
L 123.779265 63.499826 
L 123.791268 63.499826 
L 123.941964 64.64967 
L 123.954382 64.64967 
L 123.966562 63.499826 
L 124.059731 64.64967 
L 124.099055 64.64967 
L 124.12401 65.799514 
L 124.14818 63.499826 
L 124.208879 64.64967 
L 124.23344 63.499826 
L 124.319164 64.64967 
L 124.85495 64.64967 
L 124.879169 65.799514 
L 124.965174 64.64967 
L 125.087506 64.64967 
L 125.211246 66.949357 
L 125.323388 65.799514 
L 125.335586 66.949357 
L 125.433805 65.799514 
L 125.754689 65.799514 
L 125.866491 66.949357 
L 125.89479 66.949357 
L 126.015905 68.099201 
L 126.133487 65.799514 
L 126.229495 65.799514 
L 126.342627 66.949357 
L 126.650646 66.949357 
L 126.664529 65.799514 
L 126.755936 66.949357 
L 126.846971 66.949357 
L 126.986651 65.799514 
L 127.311347 65.799514 
L 127.350794 64.64967 
L 127.412165 65.799514 
L 127.680871 65.799514 
L 127.693455 66.949357 
L 127.789079 65.799514 
L 128.093308 65.799514 
L 128.106501 66.949357 
L 128.19042 65.799514 
L 128.317866 65.799514 
L 128.442844 66.949357 
L 128.499274 66.949357 
L 128.56942 65.799514 
L 128.58275 66.949357 
L 128.704731 65.799514 
L 128.827083 66.949357 
L 128.942578 65.799514 
L 128.981071 65.799514 
L 129.080942 66.949357 
L 129.192039 65.799514 
L 129.217752 65.799514 
L 129.322937 66.949357 
L 129.412027 65.799514 
L 129.424009 66.949357 
L 129.502793 66.949357 
L 129.61333 65.799514 
L 129.991666 65.799514 
L 130.105339 64.64967 
L 130.547309 64.64967 
L 130.668807 63.499826 
L 130.680802 63.499826 
L 130.692845 64.64967 
L 130.78762 63.499826 
L 130.800583 63.499826 
L 130.812792 64.64967 
L 130.909297 63.499826 
L 131.170242 63.499826 
L 131.28467 62.349983 
L 131.296929 62.349983 
L 131.405887 63.499826 
L 131.52833 62.349983 
L 131.602133 62.349983 
L 131.724505 61.200139 
L 131.736532 61.200139 
L 131.858066 62.349983 
L 131.918647 62.349983 
L 132.04161 61.200139 
L 132.191442 61.200139 
L 132.314398 60.050295 
L 132.363279 60.050295 
L 132.474007 57.750608 
L 132.486714 57.750608 
L 132.511315 60.050295 
L 132.597172 57.750608 
L 132.658616 57.750608 
L 132.683481 60.050295 
L 133.005655 60.050295 
L 133.060792 57.750608 
L 133.074616 60.050295 
L 133.121742 60.050295 
L 133.237319 57.750608 
L 133.264718 57.750608 
L 133.360845 60.050295 
L 133.372912 57.750608 
L 133.445136 57.750608 
L 133.556587 61.200139 
L 133.672085 60.050295 
L 133.772204 61.200139 
L 133.823319 61.200139 
L 133.91623 60.050295 
L 133.931395 61.200139 
L 133.943439 61.200139 
L 133.998009 60.050295 
L 134.037314 61.200139 
L 134.117452 61.200139 
L 134.129475 60.050295 
L 134.227829 61.200139 
L 134.486607 61.200139 
L 134.597827 62.349983 
L 134.683015 61.200139 
L 134.70726 62.349983 
L 135.024147 62.349983 
L 135.036523 63.499826 
L 135.132924 62.349983 
L 135.145717 62.349983 
L 135.170034 63.499826 
L 135.244202 62.349983 
L 135.417976 62.349983 
L 135.495983 63.499826 
L 135.522313 62.349983 
L 135.632148 62.349983 
L 135.754317 63.499826 
L 135.766378 62.349983 
L 135.863797 63.499826 
L 136.268856 63.499826 
L 136.28131 64.64967 
L 136.379675 63.499826 
L 136.453587 63.499826 
L 136.567587 64.64967 
L 136.884092 64.64967 
L 136.896524 63.499826 
L 136.993521 64.64967 
L 137.184621 64.64967 
L 137.247306 65.799514 
L 137.284141 64.64967 
L 137.321621 64.64967 
L 137.435021 65.799514 
L 137.547904 64.64967 
L 137.560443 64.64967 
L 137.675705 65.799514 
L 137.700628 65.799514 
L 137.802868 64.64967 
L 137.815253 65.799514 
L 137.902536 64.64967 
L 137.963412 64.64967 
L 138.076822 65.799514 
L 138.100935 65.799514 
L 138.22318 64.64967 
L 138.235273 64.64967 
L 138.35855 65.799514 
L 138.370671 64.64967 
L 138.468599 65.799514 
L 138.570117 65.799514 
L 138.694658 66.949357 
L 139.032168 66.949357 
L 139.144217 65.799514 
L 139.218453 65.799514 
L 139.230773 66.949357 
L 139.328312 65.799514 
L 139.377201 65.799514 
L 139.46251 66.949357 
L 139.486477 65.799514 
L 139.583094 65.799514 
L 139.705181 66.949357 
L 139.828059 66.949357 
L 139.937095 68.099201 
L 140.059359 66.949357 
L 140.661408 66.949357 
L 140.673508 65.799514 
L 140.764318 66.949357 
L 140.894945 66.949357 
L 140.993969 68.099201 
L 141.104173 66.949357 
L 141.217037 68.099201 
L 141.339343 66.949357 
L 141.351955 66.949357 
L 141.47426 68.099201 
L 141.547452 68.099201 
L 141.670569 69.249045 
L 141.793053 68.099201 
L 141.939685 68.099201 
L 141.95171 69.249045 
L 142.04914 68.099201 
L 142.122339 68.099201 
L 142.146409 69.249045 
L 142.232483 68.099201 
L 142.292755 68.099201 
L 142.377588 69.249045 
L 142.402207 68.099201 
L 142.499795 68.099201 
L 142.621681 69.249045 
L 142.952856 69.249045 
L 143.075398 68.099201 
L 143.112216 68.099201 
L 143.221315 69.249045 
L 143.331278 68.099201 
L 143.454238 69.249045 
L 143.6858 69.249045 
L 143.69797 71.548732 
L 143.776027 69.249045 
L 144.16862 69.249045 
L 144.181557 71.548732 
L 144.271757 69.249045 
L 144.309492 69.249045 
L 144.417972 71.548732 
L 144.539185 69.249045 
L 144.770307 69.249045 
L 144.892002 71.548732 
L 145.025237 71.548732 
L 145.147174 72.698576 
L 145.159188 72.698576 
L 145.26807 71.548732 
L 145.319669 71.548732 
L 145.331832 72.698576 
L 145.420588 71.548732 
L 145.496391 69.249045 
L 145.508869 71.548732 
L 145.942666 71.548732 
L 146.043901 69.249045 
L 146.159173 71.548732 
L 146.271156 69.249045 
L 146.386695 71.548732 
L 146.504272 69.249045 
L 146.518099 69.249045 
L 146.608396 71.548732 
L 146.622658 69.249045 
L 146.636626 69.249045 
L 146.665397 71.548732 
L 146.730629 69.249045 
L 146.765976 69.249045 
L 146.886531 71.548732 
L 147.007059 69.249045 
L 147.020169 71.548732 
L 147.116483 69.249045 
L 147.27003 69.249045 
L 147.383987 68.099201 
L 147.495507 69.249045 
L 147.61147 68.099201 
L 147.676627 68.099201 
L 147.792094 69.249045 
L 147.913101 68.099201 
L 147.999592 69.249045 
L 148.012508 68.099201 
L 148.111965 69.249045 
L 148.22338 68.099201 
L 148.346409 69.249045 
L 148.382686 69.249045 
L 148.456563 68.099201 
L 148.493741 69.249045 
L 149.402915 69.249045 
L 149.439936 68.099201 
L 149.505518 69.249045 
L 149.806104 69.249045 
L 149.818516 71.548732 
L 149.916899 69.249045 
L 150.246743 69.249045 
L 150.295119 71.548732 
L 150.332212 69.249045 
L 150.808505 69.249045 
L 150.820964 68.099201 
L 150.918931 69.249045 
L 151.275014 69.249045 
L 151.363033 71.548732 
L 151.375052 69.249045 
L 151.502019 69.249045 
L 151.55031 71.548732 
L 151.588321 69.249045 
L 151.616091 69.249045 
L 151.739612 71.548732 
L 151.825258 71.548732 
L 151.837651 69.249045 
L 151.924746 71.548732 
L 152.253439 71.548732 
L 152.26566 69.249045 
L 152.364539 71.548732 
L 152.413898 71.548732 
L 152.426337 69.249045 
L 152.515481 71.548732 
L 153.437223 71.548732 
L 153.46132 72.698576 
L 153.547024 71.548732 
L 153.725998 71.548732 
L 153.869198 72.698576 
L 153.89144 71.548732 
L 153.958417 72.698576 
L 154.345005 72.698576 
L 154.422402 71.548732 
L 154.558066 72.698576 
L 154.570442 71.548732 
L 154.667333 72.698576 
L 154.800411 72.698576 
L 154.812514 73.84842 
L 154.910559 72.698576 
L 154.934761 72.698576 
L 155.01927 71.548732 
L 155.043418 72.698576 
L 155.276941 72.698576 
L 155.398193 73.84842 
L 155.509811 72.698576 
L 155.656579 72.698576 
L 155.765246 73.84842 
L 155.839132 72.698576 
L 155.876046 73.84842 
L 155.936333 73.84842 
L 156.05859 72.698576 
L 156.179921 73.84842 
L 156.277135 72.698576 
L 156.289154 73.84842 
L 156.810901 73.84842 
L 156.907609 74.998263 
L 156.919605 73.84842 
L 157.198801 73.84842 
L 157.211024 74.998263 
L 157.271502 73.84842 
L 157.31103 73.84842 
L 157.323381 74.998263 
L 157.420607 73.84842 
L 157.485821 73.84842 
L 157.609186 74.998263 
L 157.670177 74.998263 
L 157.791701 73.84842 
L 157.852653 74.998263 
L 157.900837 73.84842 
L 158.155619 73.84842 
L 158.192216 74.998263 
L 158.264942 73.84842 
L 158.411078 73.84842 
L 158.509835 74.998263 
L 158.521851 73.84842 
L 158.558514 73.84842 
L 158.619316 74.998263 
L 158.668173 73.84842 
L 158.680196 73.84842 
L 158.802379 74.998263 
L 158.838566 74.998263 
L 158.960414 73.84842 
L 158.972477 73.84842 
L 159.094884 74.998263 
L 159.191429 73.84842 
L 159.203973 74.998263 
L 159.240652 74.998263 
L 159.338582 73.84842 
L 159.350606 74.998263 
L 159.883636 74.998263 
L 159.896275 73.84842 
L 159.982475 74.998263 
L 160.1911 74.998263 
L 160.301905 76.148107 
L 160.377298 74.998263 
L 160.402928 76.148107 
L 160.427658 76.148107 
L 160.439995 74.998263 
L 160.527293 76.148107 
L 161.151418 76.148107 
L 161.259891 74.998263 
L 161.381071 76.148107 
L 161.393488 76.148107 
L 161.516007 74.998263 
L 161.564263 74.998263 
L 161.601004 76.148107 
L 161.673274 74.998263 
L 162.041188 74.998263 
L 162.053213 76.148107 
L 162.151745 74.998263 
L 162.994067 74.998263 
L 163.058887 73.84842 
L 163.095069 74.998263 
L 163.107266 74.998263 
L 163.216831 73.84842 
L 163.266394 74.998263 
L 163.327466 73.84842 
L 163.841485 73.84842 
L 163.8786 72.698576 
L 163.952463 73.84842 
L 163.964488 73.84842 
L 164.086696 72.698576 
L 164.09876 72.698576 
L 164.210568 73.84842 
L 164.222752 73.84842 
L 164.345079 72.698576 
L 164.357293 72.698576 
L 164.393756 73.84842 
L 164.467596 72.698576 
L 164.492619 72.698576 
L 164.613417 71.548732 
L 164.699556 72.698576 
L 164.724091 71.548732 
L 164.809587 71.548732 
L 164.821842 72.698576 
L 164.919287 71.548732 
L 165.090339 71.548732 
L 165.213656 69.249045 
L 165.460812 69.249045 
L 165.583175 68.099201 
L 165.656619 68.099201 
L 165.768211 66.949357 
L 165.890122 68.099201 
L 166.011654 66.949357 
L 166.169231 66.949357 
L 166.182352 68.099201 
L 166.280072 66.949357 
L 166.341104 66.949357 
L 166.462901 68.099201 
L 166.487115 68.099201 
L 166.609645 66.949357 
L 166.635546 66.949357 
L 166.756872 68.099201 
L 166.780966 68.099201 
L 166.793107 66.949357 
L 166.889832 68.099201 
L 167.194929 68.099201 
L 167.207378 69.249045 
L 167.30514 68.099201 
L 167.428197 68.099201 
L 167.537301 69.249045 
L 167.658512 68.099201 
L 167.682759 68.099201 
L 167.794296 69.249045 
L 167.90492 69.249045 
L 167.916956 68.099201 
L 168.014391 69.249045 
L 168.087135 69.249045 
L 168.147798 68.099201 
L 168.196505 69.249045 
L 168.769723 69.249045 
L 168.891853 71.548732 
L 168.928122 71.548732 
L 169.049541 69.249045 
L 169.172422 71.548732 
L 169.233364 69.249045 
L 169.282129 71.548732 
L 169.294309 71.548732 
L 169.307407 69.249045 
L 169.404893 71.548732 
L 169.72683 71.548732 
L 169.751472 72.698576 
L 169.836148 71.548732 
L 169.946429 71.548732 
L 170.03344 72.698576 
L 170.046279 71.548732 
L 170.096351 71.548732 
L 170.21923 72.698576 
L 170.340548 71.548732 
L 170.451864 72.698576 
L 170.685647 72.698576 
L 170.697646 73.84842 
L 170.795217 72.698576 
L 170.819326 72.698576 
L 170.929479 73.84842 
L 170.94153 72.698576 
L 171.039261 73.84842 
L 171.076032 73.84842 
L 171.088056 72.698576 
L 171.173483 73.84842 
L 171.296186 74.998263 
L 171.394583 73.84842 
L 171.4066 74.998263 
L 171.418654 74.998263 
L 171.540658 73.84842 
L 171.944502 73.84842 
L 172.017748 72.698576 
L 172.054803 73.84842 
L 172.115709 73.84842 
L 172.128338 72.698576 
L 172.22526 73.84842 
L 172.46872 73.84842 
L 172.590652 74.998263 
L 172.633209 74.998263 
L 172.754342 73.84842 
L 172.766386 73.84842 
L 172.864309 74.998263 
L 172.87633 73.84842 
L 172.912994 73.84842 
L 173.000285 74.998263 
L 173.012299 73.84842 
L 173.123874 73.84842 
L 173.13626 74.998263 
L 173.233863 73.84842 
L 173.343738 73.84842 
L 173.441607 74.998263 
L 173.453642 73.84842 
L 173.638425 73.84842 
L 173.650462 74.998263 
L 173.747777 73.84842 
L 173.980711 73.84842 
L 173.992828 74.998263 
L 174.004903 73.84842 
L 173.31969 73.84842 
L 173.380994 73.84842 
L 173.504075 74.998263 
L 173.553039 74.998263 
L 173.675359 73.84842 
L 173.796897 74.998263 
L 173.821331 74.998263 
L 173.882008 73.84842 
L 173.930369 74.998263 
L 174.015555 74.998263 
L 174.055882 73.84842 
L 174.116773 74.998263 
L 174.595965 74.998263 
L 174.68121 73.84842 
L 174.705457 74.998263 
L 175.120797 74.998263 
L 175.242024 73.84842 
L 175.363268 74.998263 
L 175.375274 74.998263 
L 175.496706 73.84842 
L 175.618756 74.998263 
L 175.667561 74.998263 
L 175.779287 73.84842 
L 175.889717 74.998263 
L 175.914077 73.84842 
L 175.99926 74.998263 
L 176.486472 74.998263 
L 176.608355 76.148107 
L 176.729278 74.998263 
L 176.851145 76.148107 
L 176.87566 76.148107 
L 176.887715 74.998263 
L 176.984499 76.148107 
L 177.069603 76.148107 
L 177.09365 77.297951 
L 177.178012 76.148107 
L 177.617994 76.148107 
L 177.630014 74.998263 
L 177.717831 76.148107 
L 178.320446 76.148107 
L 178.381038 74.998263 
L 178.4296 76.148107 
L 178.453824 76.148107 
L 178.566507 74.998263 
L 178.603905 74.998263 
L 178.724306 76.148107 
L 178.869467 74.998263 
L 178.978899 76.148107 
L 179.100903 74.998263 
L 179.233708 74.998263 
L 179.245694 76.148107 
L 179.342663 74.998263 
L 179.805705 74.998263 
L 179.91466 73.84842 
L 180.026866 74.998263 
L 180.063018 74.998263 
L 180.13669 73.84842 
L 180.173586 74.998263 
L 180.214109 74.998263 
L 180.262361 73.84842 
L 180.310576 74.998263 
L 180.350476 74.998263 
L 180.471799 73.84842 
L 180.701905 73.84842 
L 180.824906 72.698576 
L 180.935292 73.84842 
L 181.05654 72.698576 
L 181.397312 72.698576 
L 181.519814 71.548732 
L 181.568542 71.548732 
L 181.678567 72.698576 
L 181.799765 71.548732 
L 181.897766 71.548732 
L 181.934619 72.698576 
L 182.00721 71.548732 
L 182.105185 71.548732 
L 182.191062 72.698576 
L 182.215176 71.548732 
L 182.239691 71.548732 
L 182.350818 72.698576 
L 182.473209 72.698576 
L 182.595118 71.548732 
L 182.717566 72.698576 
L 182.767096 72.698576 
L 182.81591 71.548732 
L 182.876764 72.698576 
L 183.182669 72.698576 
L 183.303738 73.84842 
L 183.474815 73.84842 
L 183.487225 72.698576 
L 183.583734 73.84842 
L 183.864101 73.84842 
L 183.949525 72.698576 
L 183.973959 73.84842 
L 184.18243 73.84842 
L 184.206714 72.698576 
L 184.292177 73.84842 
L 184.304349 73.84842 
L 184.316571 72.698576 
L 184.413874 73.84842 
L 185.538935 73.84842 
L 185.551585 74.998263 
L 185.645504 73.84842 
L 185.683558 73.84842 
L 185.789694 74.998263 
L 185.902567 73.84842 
L 186.023505 74.998263 
L 187.325604 74.998263 
L 187.448257 76.148107 
L 187.560222 74.998263 
L 187.670938 76.148107 
L 187.769612 74.998263 
L 187.781826 76.148107 
L 187.807148 76.148107 
L 187.893021 74.998263 
L 187.917885 76.148107 
L 187.992445 76.148107 
L 188.042636 74.998263 
L 188.093355 76.148107 
L 188.106163 76.148107 
L 188.217299 74.998263 
L 188.22971 74.998263 
L 188.344385 76.148107 
L 188.39407 76.148107 
L 188.504386 74.998263 
L 188.62681 76.148107 
L 188.798215 76.148107 
L 188.810242 74.998263 
L 188.908929 76.148107 
L 189.495788 76.148107 
L 189.507841 77.297951 
L 189.606247 76.148107 
L 189.668063 76.148107 
L 189.742859 77.297951 
L 189.766861 76.148107 
L 189.779214 76.148107 
L 189.890218 77.297951 
L 189.951443 76.148107 
L 190.000007 77.297951 
L 190.073745 77.297951 
L 190.086427 76.148107 
L 190.184356 77.297951 
L 190.232879 77.297951 
L 190.35592 78.447794 
L 190.380403 77.297951 
L 190.464956 78.447794 
L 190.549583 78.447794 
L 190.671291 80.747482 
L 190.783698 80.747482 
L 190.904668 78.447794 
L 190.928757 78.447794 
L 190.982254 77.297951 
L 191.031387 78.447794 
L 191.043992 78.447794 
L 191.104385 77.297951 
L 191.153422 78.447794 
L 191.214665 78.447794 
L 191.32356 77.297951 
L 191.444773 78.447794 
L 191.566059 77.297951 
L 191.687654 78.447794 
L 191.699862 78.447794 
L 191.711906 77.297951 
L 191.808644 78.447794 
L 192.123781 78.447794 
L 192.20972 80.747482 
L 192.234022 78.447794 
L 192.282944 78.447794 
L 192.405964 80.747482 
L 192.479091 78.447794 
L 192.516545 80.747482 
L 192.905191 80.747482 
L 192.917213 81.897325 
L 193.014941 80.747482 
L 193.208802 80.747482 
L 193.221032 81.897325 
L 193.317995 80.747482 
L 193.342284 80.747482 
L 193.464072 81.897325 
L 193.683348 81.897325 
L 193.804521 80.747482 
L 193.816504 80.747482 
L 193.925464 81.897325 
L 193.961685 80.747482 
L 194.035488 81.897325 
L 194.216416 81.897325 
L 194.328231 83.047169 
L 194.871943 83.047169 
L 194.944205 81.897325 
L 194.98061 83.047169 
L 195.283626 83.047169 
L 195.295648 81.897325 
L 195.392839 83.047169 
L 195.865977 83.047169 
L 195.878038 81.897325 
L 195.975286 83.047169 
L 196.424296 83.047169 
L 196.520553 84.197013 
L 196.532563 83.047169 
L 196.544623 83.047169 
L 196.653086 84.197013 
L 196.750813 83.047169 
L 196.763257 84.197013 
L 196.799473 84.197013 
L 196.920331 83.047169 
L 196.944352 84.197013 
L 197.028975 83.047169 
L 197.077337 83.047169 
L 197.186842 84.197013 
L 197.271518 81.897325 
L 197.295716 83.047169 
L 197.31997 83.047169 
L 197.441064 81.897325 
L 197.465547 81.897325 
L 197.489627 83.047169 
L 197.562135 81.897325 
L 197.683125 80.747482 
L 197.792897 80.747482 
L 197.91525 78.447794 
L 198.036853 78.447794 
L 198.112434 80.747482 
L 198.136691 78.447794 
L 198.221474 78.447794 
L 198.318314 80.747482 
L 198.330831 78.447794 
L 198.403938 78.447794 
L 198.415946 80.747482 
L 415.935665 116.392636 
L 416.009303 116.392636 
L 416.021874 117.54248 
L 416.119228 116.392636 
L 416.131669 116.392636 
L 416.254671 117.54248 
L 416.266973 117.54248 
L 416.290978 116.392636 
L 416.377833 117.54248 
L 416.584762 117.54248 
L 416.669781 118.692324 
L 416.69462 117.54248 
L 416.755946 117.54248 
L 416.87804 118.692324 
L 416.999378 117.54248 
L 417.121944 118.692324 
L 417.244553 117.54248 
L 417.328842 118.692324 
L 417.354085 117.54248 
L 417.41548 117.54248 
L 417.42766 118.692324 
L 417.526361 117.54248 
L 417.696401 117.54248 
L 419.24261 119.842167 
L 419.355889 118.692324 
L 419.392907 118.692324 
L 419.440944 119.842167 
L 419.501756 118.692324 
L 419.574545 118.692324 
L 419.590176 119.842167 
L 419.675918 118.692324 
L 419.814035 118.692324 
L 419.850146 119.842167 
L 419.923229 118.692324 
L 420.021529 118.692324 
L 420.110915 119.842167 
L 420.122961 118.692324 
L 420.159073 118.692324 
L 420.243977 119.842167 
L 420.256811 118.692324 
L 420.307415 118.692324 
L 420.419869 119.842167 
L 420.431981 119.842167 
L 420.493325 118.692324 
L 420.542583 119.842167 
L 420.567314 119.842167 
L 420.66528 118.692324 
L 420.678007 119.842167 
L 420.763852 119.842167 
L 420.873544 118.692324 
L 420.995873 119.842167 
L 421.00793 119.842167 
L 421.118162 118.692324 
L 421.240014 119.842167 
L 421.300722 119.842167 
L 421.410151 118.692324 
L 421.458589 119.842167 
L 421.519071 118.692324 
L 421.531525 118.692324 
L 421.653598 119.842167 
L 421.751181 119.842167 
L 421.763207 118.692324 
L 421.856361 119.842167 
L 422.093009 119.842167 
L 422.20301 122.141855 
L 422.3008 119.842167 
L 422.312823 122.141855 
L 422.397155 119.842167 
L 422.42172 122.141855 
L 422.685793 122.141855 
L 422.698195 123.291699 
L 422.7855 122.141855 
L 423.017806 122.141855 
L 423.128837 119.842167 
L 423.420757 119.842167 
L 423.508873 122.141855 
L 423.520908 119.842167 
L 423.558002 119.842167 
L 423.680979 122.141855 
L 423.69368 122.141855 
L 423.742724 119.842167 
L 423.803835 122.141855 
L 423.964037 122.141855 
L 424.036657 119.842167 
L 424.07364 122.141855 
L 424.281713 122.141855 
L 424.356341 123.291699 
L 424.38078 122.141855 
L 424.526885 122.141855 
L 424.539839 123.291699 
L 424.626066 122.141855 
L 424.71295 122.141855 
L 424.825497 123.291699 
L 424.926863 123.291699 
L 424.940702 122.141855 
L 425.027796 123.291699 
L 425.213493 123.291699 
L 425.249562 122.141855 
L 425.316063 123.291699 
L 425.429492 123.291699 
L 425.541384 122.141855 
L 425.553761 122.141855 
L 425.665669 123.291699 
L 425.863007 123.291699 
L 425.911411 122.141855 
L 425.972155 123.291699 
L 425.996684 123.291699 
L 426.093288 122.141855 
L 426.105316 123.291699 
L 426.117333 123.291699 
L 426.215534 122.141855 
L 426.227588 123.291699 
L 426.471131 123.291699 
L 426.483178 122.141855 
L 426.581441 123.291699 
L 426.97612 123.291699 
L 426.988339 122.141855 
L 427.075569 123.291699 
L 427.197881 123.291699 
L 427.320013 122.141855 
L 427.442569 123.291699 
L 427.6975 123.291699 
L 427.709518 124.441542 
L 427.797257 123.291699 
L 427.821411 123.291699 
L 427.846294 124.441542 
L 427.920757 123.291699 
L 427.933225 123.291699 
L 427.945464 124.441542 
L 428.034007 123.291699 
L 428.147962 123.291699 
L 428.186828 124.441542 
L 428.254891 123.291699 
L 428.280248 123.291699 
L 428.392133 124.441542 
L 428.405662 124.441542 
L 428.528843 123.291699 
L 428.580554 123.291699 
L 428.727823 124.441542 
L 428.849333 123.291699 
L 428.970662 124.441542 
L 429.059862 124.441542 
L 429.122555 123.291699 
L 429.159542 124.441542 
L 429.171736 124.441542 
L 429.283158 123.291699 
L 429.394946 124.441542 
L 429.602599 124.441542 
L 429.675826 123.291699 
L 429.712337 124.441542 
L 429.724428 124.441542 
L 429.838561 123.291699 
L 429.940933 123.291699 
L 429.952931 124.441542 
L 430.051216 123.291699 
L 430.317297 123.291699 
L 430.35386 122.141855 
L 430.427242 123.291699 
L 430.576443 123.291699 
L 430.699237 122.141855 
L 430.711323 122.141855 
L 430.810147 123.291699 
L 430.822158 122.141855 
L 430.858698 122.141855 
L 430.981271 123.291699 
L 431.156793 123.291699 
L 431.217342 122.141855 
L 431.265548 123.291699 
L 431.314713 123.291699 
L 431.399991 122.141855 
L 431.425205 123.291699 
L 431.449218 123.291699 
L 431.522298 122.141855 
L 431.558685 123.291699 
L 432.009091 123.291699 
L 432.009091 123.291699 
" style="fill:none;stroke:#1f77b4;stroke-linecap:square;stroke-width:1.5;"/>
   </g>
   <g id="line2d_30">
    <path clip-path="url(#pb7d25bd2bd)" d="M 72.190909 106.044043 
L 75.338813 106.044043 
L 75.461424 118.692324 
L 76.44468 118.692324 
L 76.566249 126.74123 
L 76.749483 126.74123 
L 76.846151 118.692324 
L 78.226971 118.692324 
L 78.338517 126.74123 
L 78.757184 126.74123 
L 78.871228 118.692324 
L 79.679001 118.692324 
L 79.801193 106.044043 
L 80.239156 106.044043 
L 80.360101 93.395762 
L 80.960669 93.395762 
L 81.07252 70.398889 
L 81.511835 70.398889 
L 81.623171 64.64967 
L 81.818862 64.64967 
L 81.941351 70.398889 
L 82.030777 70.398889 
L 82.142785 64.64967 
L 82.356379 64.64967 
L 82.481121 48.551858 
L 83.392084 48.551858 
L 83.514092 60.050295 
L 85.065262 60.050295 
L 85.188174 70.398889 
L 85.237622 70.398889 
L 85.350579 64.64967 
L 85.781196 64.64967 
L 85.891999 93.395762 
L 86.458051 93.395762 
L 86.580475 118.692324 
L 88.900158 118.692324 
L 89.021746 129.040917 
L 89.991272 129.040917 
L 90.112805 141.689198 
L 90.359756 141.689198 
L 90.481287 147.438416 
L 91.329684 147.438416 
L 91.451983 141.689198 
L 91.696693 141.689198 
L 91.819257 147.438416 
L 92.065499 147.438416 
L 92.18612 152.037791 
L 93.363101 152.037791 
L 93.485917 147.438416 
L 93.547219 147.438416 
L 93.670187 163.536228 
L 94.520709 163.536228 
L 94.644037 168.135603 
L 94.826629 168.135603 
L 94.948483 152.037791 
L 95.378905 152.037791 
L 95.501544 147.438416 
L 95.74714 147.438416 
L 95.869221 152.037791 
L 96.356879 152.037791 
L 96.469678 141.689198 
L 96.726753 141.689198 
L 96.847489 126.74123 
L 96.908565 126.74123 
L 97.020846 106.044043 
L 97.646041 106.044043 
L 98.179648 93.395762 
L 98.734559 93.395762 
L 98.855449 85.346857 
L 99.295453 85.346857 
L 99.416862 83.047169 
L 100.69467 83.047169 
L 100.805896 93.395762 
L 101.370229 93.395762 
L 101.482593 70.398889 
L 101.928141 70.398889 
L 102.042048 118.692324 
L 103.219178 118.692324 
L 103.34097 129.040917 
L 103.976379 129.040917 
L 104.098569 196.881695 
L 104.713056 196.881695 
L 104.835868 222.178256 
L 105.459609 222.178256 
L 105.582422 232.52685 
L 106.010136 232.52685 
L 106.121316 245.17513 
L 106.986894 245.17513 
L 107.098819 232.52685 
L 107.37292 232.52685 
L 107.495366 222.178256 
L 109.432227 222.178256 
L 109.546872 209.529976 
L 111.678072 209.529976 
L 111.800632 196.881695 
L 112.618704 196.881695 
L 112.73345 173.884821 
L 112.990048 173.884821 
L 113.113095 152.037791 
L 113.777509 152.037791 
L 113.898827 118.692324 
L 114.572235 118.692324 
L 114.610892 83.047169 
L 115.289884 93.395762 
L 115.542188 93.395762 
L 116.243832 118.692324 
L 116.42698 118.692324 
L 116.547992 129.040917 
L 117.223518 129.040917 
L 117.345545 141.689198 
L 119.287944 141.689198 
L 119.450012 152.037791 
L 120.656739 152.037791 
L 120.77073 141.689198 
L 121.377642 141.689198 
L 121.49925 152.037791 
L 121.983694 152.037791 
L 122.105121 163.536228 
L 123.670925 163.536228 
L 123.791268 141.689198 
L 124.245462 141.689198 
L 124.36752 152.037791 
L 125.198536 152.037791 
L 125.311362 147.438416 
L 125.607717 147.438416 
L 125.730487 152.037791 
L 126.015905 152.037791 
L 126.133487 168.135603 
L 126.342627 168.135603 
L 126.539699 152.037791 
L 127.189904 152.037791 
L 127.311347 168.135603 
L 127.742216 168.135603 
L 127.856341 163.536228 
L 129.092986 163.536228 
L 129.205512 186.533102 
L 129.893317 186.533102 
L 130.004617 152.037791 
L 130.388403 152.037791 
L 130.510291 129.040917 
L 131.785211 129.040917 
L 131.906557 83.047169 
L 133.891217 83.047169 
L 134.010693 93.395762 
L 134.804472 93.395762 
L 134.918458 106.044043 
L 135.269365 106.044043 
L 135.381471 118.692324 
L 136.244492 118.692324 
L 136.367647 141.689198 
L 137.409433 141.689198 
L 137.523064 152.037791 
L 139.486477 152.037791 
L 139.607575 163.536228 
L 142.02454 163.536228 
L 142.146409 168.135603 
L 142.268596 168.135603 
L 142.389807 152.037791 
L 144.636336 152.037791 
L 144.758086 163.536228 
L 146.195568 163.536228 
L 146.309165 168.135603 
L 146.43856 168.135603 
L 146.583106 163.536228 
L 147.207466 163.536228 
L 147.321317 152.037791 
L 148.284224 152.037791 
L 148.394747 141.689198 
L 149.452355 141.689198 
L 149.567859 147.438416 
L 149.928903 147.438416 
L 150.052353 129.040917 
L 150.173615 129.040917 
L 150.295119 126.74123 
L 150.613796 126.74123 
L 150.734818 129.040917 
L 150.857302 129.040917 
L 150.968534 126.74123 
L 151.363033 126.74123 
L 151.475587 129.040917 
L 151.776276 129.040917 
L 151.899554 126.74123 
L 152.022799 126.74123 
L 152.145061 129.040917 
L 152.503449 129.040917 
L 152.577375 126.74123 
L 153.423053 118.692324 
L 153.547024 141.689198 
L 154.345005 141.689198 
L 154.508316 129.040917 
L 155.081128 129.040917 
L 155.203854 141.689198 
L 155.753191 141.689198 
L 155.876046 129.040917 
L 158.082522 129.040917 
L 158.204615 126.74123 
L 158.32541 126.74123 
L 158.447966 129.040917 
L 158.570538 129.040917 
L 158.69257 126.74123 
L 158.997233 126.74123 
L 159.118965 141.689198 
L 160.166776 141.689198 
L 160.289546 147.438416 
L 160.41544 147.438416 
L 160.527293 141.689198 
L 160.846403 141.689198 
L 160.969334 147.438416 
L 161.09091 147.438416 
L 161.211678 163.536228 
L 161.588584 163.536228 
L 161.705077 168.135603 
L 162.016703 168.135603 
L 162.139469 163.536228 
L 162.750269 163.536228 
L 162.871446 168.135603 
L 163.179902 168.135603 
L 163.290881 152.037791 
L 163.620308 152.037791 
L 163.8786 147.438416 
L 164.134983 147.438416 
L 164.247016 141.689198 
L 164.381738 141.689198 
L 164.504618 126.74123 
L 164.625427 126.74123 
L 164.748157 118.692324 
L 165.053843 118.692324 
L 165.165406 106.044043 
L 165.975172 106.044043 
L 166.09652 93.395762 
L 166.21909 93.395762 
L 166.341104 85.346857 
L 166.950508 85.346857 
L 167.07327 93.395762 
L 167.379184 93.395762 
L 167.500948 106.044043 
L 169.454604 106.044043 
L 169.567456 118.692324 
L 170.194593 118.692324 
L 170.315652 141.689198 
L 173.674668 141.689198 
L 173.7976 152.037791 
L 174.004903 152.037791 
L 173.31969 152.037791 
L 173.711863 152.037791 
L 173.833363 141.689198 
L 174.400568 141.689198 
L 174.522738 152.037791 
L 175.75392 152.037791 
L 175.877145 163.536228 
L 177.471788 163.536228 
L 177.593877 168.135603 
L 177.900975 168.135603 
L 178.023574 163.536228 
L 178.148838 163.536228 
L 178.271967 168.135603 
L 178.579306 168.135603 
L 178.700086 163.536228 
L 179.306477 163.536228 
L 179.427027 152.037791 
L 179.547865 152.037791 
L 179.658936 147.438416 
L 180.689879 147.438416 
L 180.812878 93.395762 
L 181.116791 93.395762 
L 181.239261 85.346857 
L 181.605797 85.346857 
L 181.726913 83.047169 
L 181.848945 83.047169 
L 181.970955 64.64967 
L 182.092967 64.64967 
L 182.215176 70.398889 
L 185.129577 70.398889 
L 185.243503 106.044043 
L 187.228039 106.044043 
L 187.37424 129.040917 
L 191.699862 129.040917 
L 191.821038 118.692324 
L 192.613755 118.692324 
L 192.734808 129.040917 
L 195.987349 129.040917 
L 196.108121 141.689198 
L 196.229318 141.689198 
L 196.351236 147.438416 
L 196.714682 147.438416 
L 196.835506 129.040917 
L 197.878591 129.040917 
L 197.999888 126.74123 
L 198.060989 126.74123 
L 198.185287 118.692324 
L 198.415946 118.692324 
L 415.705654 173.884821 
L 416.181572 173.884821 
L 416.303393 168.135603 
L 417.696401 168.135603 
L 419.307404 188.832789 
L 419.802017 188.832789 
L 419.923229 222.178256 
L 421.264476 222.178256 
L 421.385597 232.52685 
L 423.055174 232.52685 
L 423.166514 230.227162 
L 424.392877 230.227162 
L 424.514448 222.178256 
L 424.825497 222.178256 
L 424.940702 209.529976 
L 428.380083 209.529976 
L 428.492084 222.178256 
L 430.601432 222.178256 
L 430.723342 209.529976 
L 431.27757 209.529976 
L 431.399991 188.832789 
L 432.009091 188.832789 
L 432.009091 188.832789 
" style="fill:none;stroke:#ff7f0e;stroke-linecap:square;stroke-width:1.5;"/>
   </g>
   <g id="patch_3">
    <path d="M 54.2 255.638708 
L 54.2 25.44 
" style="fill:none;stroke:#000000;stroke-linecap:square;stroke-linejoin:miter;stroke-width:0.8;"/>
   </g>
   <g id="patch_4">
    <path d="M 450 255.638708 
L 450 25.44 
" style="fill:none;stroke:#000000;stroke-linecap:square;stroke-linejoin:miter;stroke-width:0.8;"/>
   </g>
   <g id="patch_5">
    <path d="M 54.2 255.638708 
L 450 255.638708 
" style="fill:none;stroke:#000000;stroke-linecap:square;stroke-linejoin:miter;stroke-width:0.8;"/>
   </g>
   <g id="patch_6">
    <path d="M 54.2 25.44 
L 450 25.44 
" style="fill:none;stroke:#000000;stroke-linecap:square;stroke-linejoin:miter;stroke-width:0.8;"/>
   </g>
   <g id="text_17">
    <!-- Lake Shoecraft - Water and Air Temperature -->
    <g transform="translate(120.481563 19.44)scale(0.12 -0.12)">
     <defs>
      <path d="M 9.8125 72.90625 
L 19.671875 72.90625 
L 19.671875 8.296875 
L 55.171875 8.296875 
L 55.171875 0 
L 9.8125 0 
z
" id="DejaVuSans-76"/>
      <path d="M 9.078125 75.984375 
L 18.109375 75.984375 
L 18.109375 31.109375 
L 44.921875 54.6875 
L 56.390625 54.6875 
L 27.390625 29.109375 
L 57.625 0 
L 45.90625 0 
L 18.109375 26.703125 
L 18.109375 0 
L 9.078125 0 
z
" id="DejaVuSans-107"/>
      <path d="M 53.515625 70.515625 
L 53.515625 60.890625 
Q 47.90625 63.578125 42.921875 64.890625 
Q 37.9375 66.21875 33.296875 66.21875 
Q 25.25 66.21875 20.875 63.09375 
Q 16.5 59.96875 16.5 54.203125 
Q 16.5 49.359375 19.40625 46.890625 
Q 22.3125 44.4375 30.421875 42.921875 
L 36.375 41.703125 
Q 47.40625 39.59375 52.65625 34.296875 
Q 57.90625 29 57.90625 20.125 
Q 57.90625 9.515625 50.796875 4.046875 
Q 43.703125 -1.421875 29.984375 -1.421875 
Q 24.8125 -1.421875 18.96875 -0.25 
Q 13.140625 0.921875 6.890625 3.21875 
L 6.890625 13.375 
Q 12.890625 10.015625 18.65625 8.296875 
Q 24.421875 6.59375 29.984375 6.59375 
Q 38.421875 6.59375 43.015625 9.90625 
Q 47.609375 13.234375 47.609375 19.390625 
Q 47.609375 24.75 44.3125 27.78125 
Q 41.015625 30.8125 33.5 32.328125 
L 27.484375 33.5 
Q 16.453125 35.6875 11.515625 40.375 
Q 6.59375 45.0625 6.59375 53.421875 
Q 6.59375 63.09375 13.40625 68.65625 
Q 20.21875 74.21875 32.171875 74.21875 
Q 37.3125 74.21875 42.625 73.28125 
Q 47.953125 72.359375 53.515625 70.515625 
z
" id="DejaVuSans-83"/>
      <path d="M 54.890625 33.015625 
L 54.890625 0 
L 45.90625 0 
L 45.90625 32.71875 
Q 45.90625 40.484375 42.875 44.328125 
Q 39.84375 48.1875 33.796875 48.1875 
Q 26.515625 48.1875 22.3125 43.546875 
Q 18.109375 38.921875 18.109375 30.90625 
L 18.109375 0 
L 9.078125 0 
L 9.078125 75.984375 
L 18.109375 75.984375 
L 18.109375 46.1875 
Q 21.34375 51.125 25.703125 53.5625 
Q 30.078125 56 35.796875 56 
Q 45.21875 56 50.046875 50.171875 
Q 54.890625 44.34375 54.890625 33.015625 
z
" id="DejaVuSans-104"/>
      <path d="M 30.609375 48.390625 
Q 23.390625 48.390625 19.1875 42.75 
Q 14.984375 37.109375 14.984375 27.296875 
Q 14.984375 17.484375 19.15625 11.84375 
Q 23.34375 6.203125 30.609375 6.203125 
Q 37.796875 6.203125 41.984375 11.859375 
Q 46.1875 17.53125 46.1875 27.296875 
Q 46.1875 37.015625 41.984375 42.703125 
Q 37.796875 48.390625 30.609375 48.390625 
z
M 30.609375 56 
Q 42.328125 56 49.015625 48.375 
Q 55.71875 40.765625 55.71875 27.296875 
Q 55.71875 13.875 49.015625 6.21875 
Q 42.328125 -1.421875 30.609375 -1.421875 
Q 18.84375 -1.421875 12.171875 6.21875 
Q 5.515625 13.875 5.515625 27.296875 
Q 5.515625 40.765625 12.171875 48.375 
Q 18.84375 56 30.609375 56 
z
" id="DejaVuSans-111"/>
      <path d="M 48.78125 52.59375 
L 48.78125 44.1875 
Q 44.96875 46.296875 41.140625 47.34375 
Q 37.3125 48.390625 33.40625 48.390625 
Q 24.65625 48.390625 19.8125 42.84375 
Q 14.984375 37.3125 14.984375 27.296875 
Q 14.984375 17.28125 19.8125 11.734375 
Q 24.65625 6.203125 33.40625 6.203125 
Q 37.3125 6.203125 41.140625 7.25 
Q 44.96875 8.296875 48.78125 10.40625 
L 48.78125 2.09375 
Q 45.015625 0.34375 40.984375 -0.53125 
Q 36.96875 -1.421875 32.421875 -1.421875 
Q 20.0625 -1.421875 12.78125 6.34375 
Q 5.515625 14.109375 5.515625 27.296875 
Q 5.515625 40.671875 12.859375 48.328125 
Q 20.21875 56 33.015625 56 
Q 37.15625 56 41.109375 55.140625 
Q 45.0625 54.296875 48.78125 52.59375 
z
" id="DejaVuSans-99"/>
      <path d="M 37.109375 75.984375 
L 37.109375 68.5 
L 28.515625 68.5 
Q 23.6875 68.5 21.796875 66.546875 
Q 19.921875 64.59375 19.921875 59.515625 
L 19.921875 54.6875 
L 34.71875 54.6875 
L 34.71875 47.703125 
L 19.921875 47.703125 
L 19.921875 0 
L 10.890625 0 
L 10.890625 47.703125 
L 2.296875 47.703125 
L 2.296875 54.6875 
L 10.890625 54.6875 
L 10.890625 58.5 
Q 10.890625 67.625 15.140625 71.796875 
Q 19.390625 75.984375 28.609375 75.984375 
z
" id="DejaVuSans-102"/>
      <path d="M 3.328125 72.90625 
L 13.28125 72.90625 
L 28.609375 11.28125 
L 43.890625 72.90625 
L 54.984375 72.90625 
L 70.3125 11.28125 
L 85.59375 72.90625 
L 95.609375 72.90625 
L 77.296875 0 
L 64.890625 0 
L 49.515625 63.28125 
L 33.984375 0 
L 21.578125 0 
z
" id="DejaVuSans-87"/>
      <path d="M 54.890625 33.015625 
L 54.890625 0 
L 45.90625 0 
L 45.90625 32.71875 
Q 45.90625 40.484375 42.875 44.328125 
Q 39.84375 48.1875 33.796875 48.1875 
Q 26.515625 48.1875 22.3125 43.546875 
Q 18.109375 38.921875 18.109375 30.90625 
L 18.109375 0 
L 9.078125 0 
L 9.078125 54.6875 
L 18.109375 54.6875 
L 18.109375 46.1875 
Q 21.34375 51.125 25.703125 53.5625 
Q 30.078125 56 35.796875 56 
Q 45.21875 56 50.046875 50.171875 
Q 54.890625 44.34375 54.890625 33.015625 
z
" id="DejaVuSans-110"/>
      <path d="M 45.40625 46.390625 
L 45.40625 75.984375 
L 54.390625 75.984375 
L 54.390625 0 
L 45.40625 0 
L 45.40625 8.203125 
Q 42.578125 3.328125 38.25 0.953125 
Q 33.9375 -1.421875 27.875 -1.421875 
Q 17.96875 -1.421875 11.734375 6.484375 
Q 5.515625 14.40625 5.515625 27.296875 
Q 5.515625 40.1875 11.734375 48.09375 
Q 17.96875 56 27.875 56 
Q 33.9375 56 38.25 53.625 
Q 42.578125 51.265625 45.40625 46.390625 
z
M 14.796875 27.296875 
Q 14.796875 17.390625 18.875 11.75 
Q 22.953125 6.109375 30.078125 6.109375 
Q 37.203125 6.109375 41.296875 11.75 
Q 45.40625 17.390625 45.40625 27.296875 
Q 45.40625 37.203125 41.296875 42.84375 
Q 37.203125 48.484375 30.078125 48.484375 
Q 22.953125 48.484375 18.875 42.84375 
Q 14.796875 37.203125 14.796875 27.296875 
z
" id="DejaVuSans-100"/>
      <path d="M 34.1875 63.1875 
L 20.796875 26.90625 
L 47.609375 26.90625 
z
M 28.609375 72.90625 
L 39.796875 72.90625 
L 67.578125 0 
L 57.328125 0 
L 50.6875 18.703125 
L 17.828125 18.703125 
L 11.1875 0 
L 0.78125 0 
z
" id="DejaVuSans-65"/>
      <path d="M 9.421875 54.6875 
L 18.40625 54.6875 
L 18.40625 0 
L 9.421875 0 
z
M 9.421875 75.984375 
L 18.40625 75.984375 
L 18.40625 64.59375 
L 9.421875 64.59375 
z
" id="DejaVuSans-105"/>
     </defs>
     <use xlink:href="#DejaVuSans-76"/>
     <use x="55.712891" xlink:href="#DejaVuSans-97"/>
     <use x="116.992188" xlink:href="#DejaVuSans-107"/>
     <use x="171.277344" xlink:href="#DejaVuSans-101"/>
     <use x="232.800781" xlink:href="#DejaVuSans-32"/>
     <use x="264.587891" xlink:href="#DejaVuSans-83"/>
     <use x="328.064453" xlink:href="#DejaVuSans-104"/>
     <use x="391.443359" xlink:href="#DejaVuSans-111"/>
     <use x="452.625" xlink:href="#DejaVuSans-101"/>
     <use x="514.148438" xlink:href="#DejaVuSans-99"/>
     <use x="569.128906" xlink:href="#DejaVuSans-114"/>
     <use x="610.242188" xlink:href="#DejaVuSans-97"/>
     <use x="671.521484" xlink:href="#DejaVuSans-102"/>
     <use x="704.976562" xlink:href="#DejaVuSans-116"/>
     <use x="744.185547" xlink:href="#DejaVuSans-32"/>
     <use x="775.972656" xlink:href="#DejaVuSans-45"/>
     <use x="812.056641" xlink:href="#DejaVuSans-32"/>
     <use x="843.84375" xlink:href="#DejaVuSans-87"/>
     <use x="936.345703" xlink:href="#DejaVuSans-97"/>
     <use x="997.625" xlink:href="#DejaVuSans-116"/>
     <use x="1036.833984" xlink:href="#DejaVuSans-101"/>
     <use x="1098.357422" xlink:href="#DejaVuSans-114"/>
     <use x="1139.470703" xlink:href="#DejaVuSans-32"/>
     <use x="1171.257812" xlink:href="#DejaVuSans-97"/>
     <use x="1232.537109" xlink:href="#DejaVuSans-110"/>
     <use x="1295.916016" xlink:href="#DejaVuSans-100"/>
     <use x="1359.392578" xlink:href="#DejaVuSans-32"/>
     <use x="1391.179688" xlink:href="#DejaVuSans-65"/>
     <use x="1459.587891" xlink:href="#DejaVuSans-105"/>
     <use x="1487.371094" xlink:href="#DejaVuSans-114"/>
     <use x="1528.484375" xlink:href="#DejaVuSans-32"/>
     <use x="1560.271484" xlink:href="#DejaVuSans-84"/>
     <use x="1604.355469" xlink:href="#DejaVuSans-101"/>
     <use x="1665.878906" xlink:href="#DejaVuSans-109"/>
     <use x="1763.291016" xlink:href="#DejaVuSans-112"/>
     <use x="1826.767578" xlink:href="#DejaVuSans-101"/>
     <use x="1888.291016" xlink:href="#DejaVuSans-114"/>
     <use x="1929.404297" xlink:href="#DejaVuSans-97"/>
     <use x="1990.683594" xlink:href="#DejaVuSans-116"/>
     <use x="2029.892578" xlink:href="#DejaVuSans-117"/>
     <use x="2093.271484" xlink:href="#DejaVuSans-114"/>
     <use x="2132.134766" xlink:href="#DejaVuSans-101"/>
    </g>
   </g>
   <g id="legend_1">
    <g id="patch_7">
     <path d="M 357.890625 62.79625 
L 443 62.79625 
Q 445 62.79625 445 60.79625 
L 445 32.44 
Q 445 30.44 443 30.44 
L 357.890625 30.44 
Q 355.890625 30.44 355.890625 32.44 
L 355.890625 60.79625 
Q 355.890625 62.79625 357.890625 62.79625 
z
" style="fill:#ffffff;opacity:0.8;stroke:#cccccc;stroke-linejoin:miter;"/>
    </g>
    <g id="line2d_31">
     <path d="M 359.890625 38.538437 
L 379.890625 38.538437 
" style="fill:none;stroke:#1f77b4;stroke-linecap:square;stroke-width:1.5;"/>
    </g>
    <g id="line2d_32"/>
    <g id="text_18">
     <!-- Lake Temp -->
     <g transform="translate(387.890625 42.038437)scale(0.1 -0.1)">
      <use xlink:href="#DejaVuSans-76"/>
      <use x="55.712891" xlink:href="#DejaVuSans-97"/>
      <use x="116.992188" xlink:href="#DejaVuSans-107"/>
      <use x="171.277344" xlink:href="#DejaVuSans-101"/>
      <use x="232.800781" xlink:href="#DejaVuSans-32"/>
      <use x="264.587891" xlink:href="#DejaVuSans-84"/>
      <use x="308.671875" xlink:href="#DejaVuSans-101"/>
      <use x="370.195312" xlink:href="#DejaVuSans-109"/>
      <use x="467.607422" xlink:href="#DejaVuSans-112"/>
     </g>
    </g>
    <g id="line2d_33">
     <path d="M 359.890625 53.216562 
L 379.890625 53.216562 
" style="fill:none;stroke:#ff7f0e;stroke-linecap:square;stroke-width:1.5;"/>
    </g>
    <g id="line2d_34"/>
    <g id="text_19">
     <!-- Air Temp -->
     <g transform="translate(387.890625 56.716562)scale(0.1 -0.1)">
      <use xlink:href="#DejaVuSans-65"/>
      <use x="68.408203" xlink:href="#DejaVuSans-105"/>
      <use x="96.191406" xlink:href="#DejaVuSans-114"/>
      <use x="137.304688" xlink:href="#DejaVuSans-32"/>
      <use x="169.091797" xlink:href="#DejaVuSans-84"/>
      <use x="213.175781" xlink:href="#DejaVuSans-101"/>
      <use x="274.699219" xlink:href="#DejaVuSans-109"/>
      <use x="372.111328" xlink:href="#DejaVuSans-112"/>
     </g>
    </g>
   </g>
  </g>
 </g>
 <defs>
  <clipPath id="pb7d25bd2bd">
   <rect height="230.198708" width="395.8" x="54.2" y="25.44"/>
  </clipPath>
 </defs>
</svg>
