<?xml version="1.0" encoding="utf-8" standalone="no"?>
<!DOCTYPE svg PUBLIC "-//W3C//DTD SVG 1.1//EN"
  "http://www.w3.org/Graphics/SVG/1.1/DTD/svg11.dtd">
<!-- Created with matplotlib (https://matplotlib.org/) -->
<svg height="345.6pt" version="1.1" viewBox="0 0 460.8 345.6" width="460.8pt" xmlns="http://www.w3.org/2000/svg" xmlns:xlink="http://www.w3.org/1999/xlink">
 <metadata>
  <rdf:RDF xmlns:cc="http://creativecommons.org/ns#" xmlns:dc="http://purl.org/dc/elements/1.1/" xmlns:rdf="http://www.w3.org/1999/02/22-rdf-syntax-ns#">
   <cc:Work>
    <dc:type rdf:resource="http://purl.org/dc/dcmitype/StillImage"/>
    <dc:date>2024-09-05T12:57:14.234155</dc:date>
    <dc:format>image/svg+xml</dc:format>
    <dc:creator>
     <cc:Agent>
      <dc:title>Matplotlib v3.3.2, https://matplotlib.org/</dc:title>
     </cc:Agent>
    </dc:creator>
   </cc:Work>
  </rdf:RDF>
 </metadata>
 <defs>
  <style type="text/css">*{stroke-linecap:butt;stroke-linejoin:round;}</style>
 </defs>
 <g id="figure_1">
  <g id="patch_1">
   <path d="M 0 345.6 
L 460.8 345.6 
L 460.8 0 
L 0 0 
z
" style="fill:none;"/>
  </g>
  <g id="axes_1">
   <g id="patch_2">
    <path d="M 44.66 255.638708 
L 450 255.638708 
L 450 25.44 
L 44.66 25.44 
z
" style="fill:none;"/>
   </g>
   <g id="matplotlib.axis_1">
    <g id="xtick_1">
     <g id="line2d_1">
      <path clip-path="url(#pc480cbeefe)" d="M 80.478939 255.638708 
L 80.478939 25.44 
" style="fill:none;stroke:#b0b0b0;stroke-linecap:square;stroke-width:0.8;"/>
     </g>
     <g id="line2d_2">
      <defs>
       <path d="M 0 0 
L 0 3.5 
" id="m85e9a1e91a" style="stroke:#000000;stroke-width:0.8;"/>
      </defs>
      <g>
       <use style="stroke:#000000;stroke-width:0.8;" x="80.478939" xlink:href="#m85e9a1e91a" y="255.638708"/>
      </g>
     </g>
     <g id="text_1">
      <!-- 2024-08-28 -->
      <g transform="translate(73.133546 319.848351)rotate(-70)scale(0.1 -0.1)">
       <defs>
        <path d="M 19.1875 8.296875 
L 53.609375 8.296875 
L 53.609375 0 
L 7.328125 0 
L 7.328125 8.296875 
Q 12.9375 14.109375 22.625 23.890625 
Q 32.328125 33.6875 34.8125 36.53125 
Q 39.546875 41.84375 41.421875 45.53125 
Q 43.3125 49.21875 43.3125 52.78125 
Q 43.3125 58.59375 39.234375 62.25 
Q 35.15625 65.921875 28.609375 65.921875 
Q 23.96875 65.921875 18.8125 64.3125 
Q 13.671875 62.703125 7.8125 59.421875 
L 7.8125 69.390625 
Q 13.765625 71.78125 18.9375 73 
Q 24.125 74.21875 28.421875 74.21875 
Q 39.75 74.21875 46.484375 68.546875 
Q 53.21875 62.890625 53.21875 53.421875 
Q 53.21875 48.921875 51.53125 44.890625 
Q 49.859375 40.875 45.40625 35.40625 
Q 44.1875 33.984375 37.640625 27.21875 
Q 31.109375 20.453125 19.1875 8.296875 
z
" id="DejaVuSans-50"/>
        <path d="M 31.78125 66.40625 
Q 24.171875 66.40625 20.328125 58.90625 
Q 16.5 51.421875 16.5 36.375 
Q 16.5 21.390625 20.328125 13.890625 
Q 24.171875 6.390625 31.78125 6.390625 
Q 39.453125 6.390625 43.28125 13.890625 
Q 47.125 21.390625 47.125 36.375 
Q 47.125 51.421875 43.28125 58.90625 
Q 39.453125 66.40625 31.78125 66.40625 
z
M 31.78125 74.21875 
Q 44.046875 74.21875 50.515625 64.515625 
Q 56.984375 54.828125 56.984375 36.375 
Q 56.984375 17.96875 50.515625 8.265625 
Q 44.046875 -1.421875 31.78125 -1.421875 
Q 19.53125 -1.421875 13.0625 8.265625 
Q 6.59375 17.96875 6.59375 36.375 
Q 6.59375 54.828125 13.0625 64.515625 
Q 19.53125 74.21875 31.78125 74.21875 
z
" id="DejaVuSans-48"/>
        <path d="M 37.796875 64.3125 
L 12.890625 25.390625 
L 37.796875 25.390625 
z
M 35.203125 72.90625 
L 47.609375 72.90625 
L 47.609375 25.390625 
L 58.015625 25.390625 
L 58.015625 17.1875 
L 47.609375 17.1875 
L 47.609375 0 
L 37.796875 0 
L 37.796875 17.1875 
L 4.890625 17.1875 
L 4.890625 26.703125 
z
" id="DejaVuSans-52"/>
        <path d="M 4.890625 31.390625 
L 31.203125 31.390625 
L 31.203125 23.390625 
L 4.890625 23.390625 
z
" id="DejaVuSans-45"/>
        <path d="M 31.78125 34.625 
Q 24.75 34.625 20.71875 30.859375 
Q 16.703125 27.09375 16.703125 20.515625 
Q 16.703125 13.921875 20.71875 10.15625 
Q 24.75 6.390625 31.78125 6.390625 
Q 38.8125 6.390625 42.859375 10.171875 
Q 46.921875 13.96875 46.921875 20.515625 
Q 46.921875 27.09375 42.890625 30.859375 
Q 38.875 34.625 31.78125 34.625 
z
M 21.921875 38.8125 
Q 15.578125 40.375 12.03125 44.71875 
Q 8.5 49.078125 8.5 55.328125 
Q 8.5 64.0625 14.71875 69.140625 
Q 20.953125 74.21875 31.78125 74.21875 
Q 42.671875 74.21875 48.875 69.140625 
Q 55.078125 64.0625 55.078125 55.328125 
Q 55.078125 49.078125 51.53125 44.71875 
Q 48 40.375 41.703125 38.8125 
Q 48.828125 37.15625 52.796875 32.3125 
Q 56.78125 27.484375 56.78125 20.515625 
Q 56.78125 9.90625 50.3125 4.234375 
Q 43.84375 -1.421875 31.78125 -1.421875 
Q 19.734375 -1.421875 13.25 4.234375 
Q 6.78125 9.90625 6.78125 20.515625 
Q 6.78125 27.484375 10.78125 32.3125 
Q 14.796875 37.15625 21.921875 38.8125 
z
M 18.3125 54.390625 
Q 18.3125 48.734375 21.84375 45.5625 
Q 25.390625 42.390625 31.78125 42.390625 
Q 38.140625 42.390625 41.71875 45.5625 
Q 45.3125 48.734375 45.3125 54.390625 
Q 45.3125 60.0625 41.71875 63.234375 
Q 38.140625 66.40625 31.78125 66.40625 
Q 25.390625 66.40625 21.84375 63.234375 
Q 18.3125 60.0625 18.3125 54.390625 
z
" id="DejaVuSans-56"/>
       </defs>
       <use xlink:href="#DejaVuSans-50"/>
       <use x="63.623047" xlink:href="#DejaVuSans-48"/>
       <use x="127.246094" xlink:href="#DejaVuSans-50"/>
       <use x="190.869141" xlink:href="#DejaVuSans-52"/>
       <use x="254.492188" xlink:href="#DejaVuSans-45"/>
       <use x="290.576172" xlink:href="#DejaVuSans-48"/>
       <use x="354.199219" xlink:href="#DejaVuSans-56"/>
       <use x="417.822266" xlink:href="#DejaVuSans-45"/>
       <use x="453.90625" xlink:href="#DejaVuSans-50"/>
       <use x="517.529297" xlink:href="#DejaVuSans-56"/>
      </g>
     </g>
    </g>
    <g id="xtick_2">
     <g id="line2d_3">
      <path clip-path="url(#pc480cbeefe)" d="M 121.593541 255.638708 
L 121.593541 25.44 
" style="fill:none;stroke:#b0b0b0;stroke-linecap:square;stroke-width:0.8;"/>
     </g>
     <g id="line2d_4">
      <g>
       <use style="stroke:#000000;stroke-width:0.8;" x="121.593541" xlink:href="#m85e9a1e91a" y="255.638708"/>
      </g>
     </g>
     <g id="text_2">
      <!-- 2024-08-29 -->
      <g transform="translate(114.248149 319.848351)rotate(-70)scale(0.1 -0.1)">
       <defs>
        <path d="M 10.984375 1.515625 
L 10.984375 10.5 
Q 14.703125 8.734375 18.5 7.8125 
Q 22.3125 6.890625 25.984375 6.890625 
Q 35.75 6.890625 40.890625 13.453125 
Q 46.046875 20.015625 46.78125 33.40625 
Q 43.953125 29.203125 39.59375 26.953125 
Q 35.25 24.703125 29.984375 24.703125 
Q 19.046875 24.703125 12.671875 31.3125 
Q 6.296875 37.9375 6.296875 49.421875 
Q 6.296875 60.640625 12.9375 67.421875 
Q 19.578125 74.21875 30.609375 74.21875 
Q 43.265625 74.21875 49.921875 64.515625 
Q 56.59375 54.828125 56.59375 36.375 
Q 56.59375 19.140625 48.40625 8.859375 
Q 40.234375 -1.421875 26.421875 -1.421875 
Q 22.703125 -1.421875 18.890625 -0.6875 
Q 15.09375 0.046875 10.984375 1.515625 
z
M 30.609375 32.421875 
Q 37.25 32.421875 41.125 36.953125 
Q 45.015625 41.5 45.015625 49.421875 
Q 45.015625 57.28125 41.125 61.84375 
Q 37.25 66.40625 30.609375 66.40625 
Q 23.96875 66.40625 20.09375 61.84375 
Q 16.21875 57.28125 16.21875 49.421875 
Q 16.21875 41.5 20.09375 36.953125 
Q 23.96875 32.421875 30.609375 32.421875 
z
" id="DejaVuSans-57"/>
       </defs>
       <use xlink:href="#DejaVuSans-50"/>
       <use x="63.623047" xlink:href="#DejaVuSans-48"/>
       <use x="127.246094" xlink:href="#DejaVuSans-50"/>
       <use x="190.869141" xlink:href="#DejaVuSans-52"/>
       <use x="254.492188" xlink:href="#DejaVuSans-45"/>
       <use x="290.576172" xlink:href="#DejaVuSans-48"/>
       <use x="354.199219" xlink:href="#DejaVuSans-56"/>
       <use x="417.822266" xlink:href="#DejaVuSans-45"/>
       <use x="453.90625" xlink:href="#DejaVuSans-50"/>
       <use x="517.529297" xlink:href="#DejaVuSans-57"/>
      </g>
     </g>
    </g>
    <g id="xtick_3">
     <g id="line2d_5">
      <path clip-path="url(#pc480cbeefe)" d="M 162.708144 255.638708 
L 162.708144 25.44 
" style="fill:none;stroke:#b0b0b0;stroke-linecap:square;stroke-width:0.8;"/>
     </g>
     <g id="line2d_6">
      <g>
       <use style="stroke:#000000;stroke-width:0.8;" x="162.708144" xlink:href="#m85e9a1e91a" y="255.638708"/>
      </g>
     </g>
     <g id="text_3">
      <!-- 2024-08-30 -->
      <g transform="translate(155.362751 319.848351)rotate(-70)scale(0.1 -0.1)">
       <defs>
        <path d="M 40.578125 39.3125 
Q 47.65625 37.796875 51.625 33 
Q 55.609375 28.21875 55.609375 21.1875 
Q 55.609375 10.40625 48.1875 4.484375 
Q 40.765625 -1.421875 27.09375 -1.421875 
Q 22.515625 -1.421875 17.65625 -0.515625 
Q 12.796875 0.390625 7.625 2.203125 
L 7.625 11.71875 
Q 11.71875 9.328125 16.59375 8.109375 
Q 21.484375 6.890625 26.8125 6.890625 
Q 36.078125 6.890625 40.9375 10.546875 
Q 45.796875 14.203125 45.796875 21.1875 
Q 45.796875 27.640625 41.28125 31.265625 
Q 36.765625 34.90625 28.71875 34.90625 
L 20.21875 34.90625 
L 20.21875 43.015625 
L 29.109375 43.015625 
Q 36.375 43.015625 40.234375 45.921875 
Q 44.09375 48.828125 44.09375 54.296875 
Q 44.09375 59.90625 40.109375 62.90625 
Q 36.140625 65.921875 28.71875 65.921875 
Q 24.65625 65.921875 20.015625 65.03125 
Q 15.375 64.15625 9.8125 62.3125 
L 9.8125 71.09375 
Q 15.4375 72.65625 20.34375 73.4375 
Q 25.25 74.21875 29.59375 74.21875 
Q 40.828125 74.21875 47.359375 69.109375 
Q 53.90625 64.015625 53.90625 55.328125 
Q 53.90625 49.265625 50.4375 45.09375 
Q 46.96875 40.921875 40.578125 39.3125 
z
" id="DejaVuSans-51"/>
       </defs>
       <use xlink:href="#DejaVuSans-50"/>
       <use x="63.623047" xlink:href="#DejaVuSans-48"/>
       <use x="127.246094" xlink:href="#DejaVuSans-50"/>
       <use x="190.869141" xlink:href="#DejaVuSans-52"/>
       <use x="254.492188" xlink:href="#DejaVuSans-45"/>
       <use x="290.576172" xlink:href="#DejaVuSans-48"/>
       <use x="354.199219" xlink:href="#DejaVuSans-56"/>
       <use x="417.822266" xlink:href="#DejaVuSans-45"/>
       <use x="453.90625" xlink:href="#DejaVuSans-51"/>
       <use x="517.529297" xlink:href="#DejaVuSans-48"/>
      </g>
     </g>
    </g>
    <g id="xtick_4">
     <g id="line2d_7">
      <path clip-path="url(#pc480cbeefe)" d="M 203.822747 255.638708 
L 203.822747 25.44 
" style="fill:none;stroke:#b0b0b0;stroke-linecap:square;stroke-width:0.8;"/>
     </g>
     <g id="line2d_8">
      <g>
       <use style="stroke:#000000;stroke-width:0.8;" x="203.822747" xlink:href="#m85e9a1e91a" y="255.638708"/>
      </g>
     </g>
     <g id="text_4">
      <!-- 2024-08-31 -->
      <g transform="translate(196.477354 319.848351)rotate(-70)scale(0.1 -0.1)">
       <defs>
        <path d="M 12.40625 8.296875 
L 28.515625 8.296875 
L 28.515625 63.921875 
L 10.984375 60.40625 
L 10.984375 69.390625 
L 28.421875 72.90625 
L 38.28125 72.90625 
L 38.28125 8.296875 
L 54.390625 8.296875 
L 54.390625 0 
L 12.40625 0 
z
" id="DejaVuSans-49"/>
       </defs>
       <use xlink:href="#DejaVuSans-50"/>
       <use x="63.623047" xlink:href="#DejaVuSans-48"/>
       <use x="127.246094" xlink:href="#DejaVuSans-50"/>
       <use x="190.869141" xlink:href="#DejaVuSans-52"/>
       <use x="254.492188" xlink:href="#DejaVuSans-45"/>
       <use x="290.576172" xlink:href="#DejaVuSans-48"/>
       <use x="354.199219" xlink:href="#DejaVuSans-56"/>
       <use x="417.822266" xlink:href="#DejaVuSans-45"/>
       <use x="453.90625" xlink:href="#DejaVuSans-51"/>
       <use x="517.529297" xlink:href="#DejaVuSans-49"/>
      </g>
     </g>
    </g>
    <g id="xtick_5">
     <g id="line2d_9">
      <path clip-path="url(#pc480cbeefe)" d="M 244.937349 255.638708 
L 244.937349 25.44 
" style="fill:none;stroke:#b0b0b0;stroke-linecap:square;stroke-width:0.8;"/>
     </g>
     <g id="line2d_10">
      <g>
       <use style="stroke:#000000;stroke-width:0.8;" x="244.937349" xlink:href="#m85e9a1e91a" y="255.638708"/>
      </g>
     </g>
     <g id="text_5">
      <!-- 2024-09-01 -->
      <g transform="translate(237.591957 319.848351)rotate(-70)scale(0.1 -0.1)">
       <use xlink:href="#DejaVuSans-50"/>
       <use x="63.623047" xlink:href="#DejaVuSans-48"/>
       <use x="127.246094" xlink:href="#DejaVuSans-50"/>
       <use x="190.869141" xlink:href="#DejaVuSans-52"/>
       <use x="254.492188" xlink:href="#DejaVuSans-45"/>
       <use x="290.576172" xlink:href="#DejaVuSans-48"/>
       <use x="354.199219" xlink:href="#DejaVuSans-57"/>
       <use x="417.822266" xlink:href="#DejaVuSans-45"/>
       <use x="453.90625" xlink:href="#DejaVuSans-48"/>
       <use x="517.529297" xlink:href="#DejaVuSans-49"/>
      </g>
     </g>
    </g>
    <g id="xtick_6">
     <g id="line2d_11">
      <path clip-path="url(#pc480cbeefe)" d="M 286.051952 255.638708 
L 286.051952 25.44 
" style="fill:none;stroke:#b0b0b0;stroke-linecap:square;stroke-width:0.8;"/>
     </g>
     <g id="line2d_12">
      <g>
       <use style="stroke:#000000;stroke-width:0.8;" x="286.051952" xlink:href="#m85e9a1e91a" y="255.638708"/>
      </g>
     </g>
     <g id="text_6">
      <!-- 2024-09-02 -->
      <g transform="translate(278.706559 319.848351)rotate(-70)scale(0.1 -0.1)">
       <use xlink:href="#DejaVuSans-50"/>
       <use x="63.623047" xlink:href="#DejaVuSans-48"/>
       <use x="127.246094" xlink:href="#DejaVuSans-50"/>
       <use x="190.869141" xlink:href="#DejaVuSans-52"/>
       <use x="254.492188" xlink:href="#DejaVuSans-45"/>
       <use x="290.576172" xlink:href="#DejaVuSans-48"/>
       <use x="354.199219" xlink:href="#DejaVuSans-57"/>
       <use x="417.822266" xlink:href="#DejaVuSans-45"/>
       <use x="453.90625" xlink:href="#DejaVuSans-48"/>
       <use x="517.529297" xlink:href="#DejaVuSans-50"/>
      </g>
     </g>
    </g>
    <g id="xtick_7">
     <g id="line2d_13">
      <path clip-path="url(#pc480cbeefe)" d="M 327.166555 255.638708 
L 327.166555 25.44 
" style="fill:none;stroke:#b0b0b0;stroke-linecap:square;stroke-width:0.8;"/>
     </g>
     <g id="line2d_14">
      <g>
       <use style="stroke:#000000;stroke-width:0.8;" x="327.166555" xlink:href="#m85e9a1e91a" y="255.638708"/>
      </g>
     </g>
     <g id="text_7">
      <!-- 2024-09-03 -->
      <g transform="translate(319.821162 319.848351)rotate(-70)scale(0.1 -0.1)">
       <use xlink:href="#DejaVuSans-50"/>
       <use x="63.623047" xlink:href="#DejaVuSans-48"/>
       <use x="127.246094" xlink:href="#DejaVuSans-50"/>
       <use x="190.869141" xlink:href="#DejaVuSans-52"/>
       <use x="254.492188" xlink:href="#DejaVuSans-45"/>
       <use x="290.576172" xlink:href="#DejaVuSans-48"/>
       <use x="354.199219" xlink:href="#DejaVuSans-57"/>
       <use x="417.822266" xlink:href="#DejaVuSans-45"/>
       <use x="453.90625" xlink:href="#DejaVuSans-48"/>
       <use x="517.529297" xlink:href="#DejaVuSans-51"/>
      </g>
     </g>
    </g>
    <g id="xtick_8">
     <g id="line2d_15">
      <path clip-path="url(#pc480cbeefe)" d="M 368.281157 255.638708 
L 368.281157 25.44 
" style="fill:none;stroke:#b0b0b0;stroke-linecap:square;stroke-width:0.8;"/>
     </g>
     <g id="line2d_16">
      <g>
       <use style="stroke:#000000;stroke-width:0.8;" x="368.281157" xlink:href="#m85e9a1e91a" y="255.638708"/>
      </g>
     </g>
     <g id="text_8">
      <!-- 2024-09-04 -->
      <g transform="translate(360.935765 319.848351)rotate(-70)scale(0.1 -0.1)">
       <use xlink:href="#DejaVuSans-50"/>
       <use x="63.623047" xlink:href="#DejaVuSans-48"/>
       <use x="127.246094" xlink:href="#DejaVuSans-50"/>
       <use x="190.869141" xlink:href="#DejaVuSans-52"/>
       <use x="254.492188" xlink:href="#DejaVuSans-45"/>
       <use x="290.576172" xlink:href="#DejaVuSans-48"/>
       <use x="354.199219" xlink:href="#DejaVuSans-57"/>
       <use x="417.822266" xlink:href="#DejaVuSans-45"/>
       <use x="453.90625" xlink:href="#DejaVuSans-48"/>
       <use x="517.529297" xlink:href="#DejaVuSans-52"/>
      </g>
     </g>
    </g>
    <g id="xtick_9">
     <g id="line2d_17">
      <path clip-path="url(#pc480cbeefe)" d="M 409.39576 255.638708 
L 409.39576 25.44 
" style="fill:none;stroke:#b0b0b0;stroke-linecap:square;stroke-width:0.8;"/>
     </g>
     <g id="line2d_18">
      <g>
       <use style="stroke:#000000;stroke-width:0.8;" x="409.39576" xlink:href="#m85e9a1e91a" y="255.638708"/>
      </g>
     </g>
     <g id="text_9">
      <!-- 2024-09-05 -->
      <g transform="translate(402.050367 319.848351)rotate(-70)scale(0.1 -0.1)">
       <defs>
        <path d="M 10.796875 72.90625 
L 49.515625 72.90625 
L 49.515625 64.59375 
L 19.828125 64.59375 
L 19.828125 46.734375 
Q 21.96875 47.46875 24.109375 47.828125 
Q 26.265625 48.1875 28.421875 48.1875 
Q 40.625 48.1875 47.75 41.5 
Q 54.890625 34.8125 54.890625 23.390625 
Q 54.890625 11.625 47.5625 5.09375 
Q 40.234375 -1.421875 26.90625 -1.421875 
Q 22.3125 -1.421875 17.546875 -0.640625 
Q 12.796875 0.140625 7.71875 1.703125 
L 7.71875 11.625 
Q 12.109375 9.234375 16.796875 8.0625 
Q 21.484375 6.890625 26.703125 6.890625 
Q 35.15625 6.890625 40.078125 11.328125 
Q 45.015625 15.765625 45.015625 23.390625 
Q 45.015625 31 40.078125 35.4375 
Q 35.15625 39.890625 26.703125 39.890625 
Q 22.75 39.890625 18.8125 39.015625 
Q 14.890625 38.140625 10.796875 36.28125 
z
" id="DejaVuSans-53"/>
       </defs>
       <use xlink:href="#DejaVuSans-50"/>
       <use x="63.623047" xlink:href="#DejaVuSans-48"/>
       <use x="127.246094" xlink:href="#DejaVuSans-50"/>
       <use x="190.869141" xlink:href="#DejaVuSans-52"/>
       <use x="254.492188" xlink:href="#DejaVuSans-45"/>
       <use x="290.576172" xlink:href="#DejaVuSans-48"/>
       <use x="354.199219" xlink:href="#DejaVuSans-57"/>
       <use x="417.822266" xlink:href="#DejaVuSans-45"/>
       <use x="453.90625" xlink:href="#DejaVuSans-48"/>
       <use x="517.529297" xlink:href="#DejaVuSans-53"/>
      </g>
     </g>
    </g>
    <g id="text_10">
     <!-- Date -->
     <g transform="translate(235.379219 332.158083)scale(0.1 -0.1)">
      <defs>
       <path d="M 19.671875 64.796875 
L 19.671875 8.109375 
L 31.59375 8.109375 
Q 46.6875 8.109375 53.6875 14.9375 
Q 60.6875 21.78125 60.6875 36.53125 
Q 60.6875 51.171875 53.6875 57.984375 
Q 46.6875 64.796875 31.59375 64.796875 
z
M 9.8125 72.90625 
L 30.078125 72.90625 
Q 51.265625 72.90625 61.171875 64.09375 
Q 71.09375 55.28125 71.09375 36.53125 
Q 71.09375 17.671875 61.125 8.828125 
Q 51.171875 0 30.078125 0 
L 9.8125 0 
z
" id="DejaVuSans-68"/>
       <path d="M 34.28125 27.484375 
Q 23.390625 27.484375 19.1875 25 
Q 14.984375 22.515625 14.984375 16.5 
Q 14.984375 11.71875 18.140625 8.90625 
Q 21.296875 6.109375 26.703125 6.109375 
Q 34.1875 6.109375 38.703125 11.40625 
Q 43.21875 16.703125 43.21875 25.484375 
L 43.21875 27.484375 
z
M 52.203125 31.203125 
L 52.203125 0 
L 43.21875 0 
L 43.21875 8.296875 
Q 40.140625 3.328125 35.546875 0.953125 
Q 30.953125 -1.421875 24.3125 -1.421875 
Q 15.921875 -1.421875 10.953125 3.296875 
Q 6 8.015625 6 15.921875 
Q 6 25.140625 12.171875 29.828125 
Q 18.359375 34.515625 30.609375 34.515625 
L 43.21875 34.515625 
L 43.21875 35.40625 
Q 43.21875 41.609375 39.140625 45 
Q 35.0625 48.390625 27.6875 48.390625 
Q 23 48.390625 18.546875 47.265625 
Q 14.109375 46.140625 10.015625 43.890625 
L 10.015625 52.203125 
Q 14.9375 54.109375 19.578125 55.046875 
Q 24.21875 56 28.609375 56 
Q 40.484375 56 46.34375 49.84375 
Q 52.203125 43.703125 52.203125 31.203125 
z
" id="DejaVuSans-97"/>
       <path d="M 18.3125 70.21875 
L 18.3125 54.6875 
L 36.8125 54.6875 
L 36.8125 47.703125 
L 18.3125 47.703125 
L 18.3125 18.015625 
Q 18.3125 11.328125 20.140625 9.421875 
Q 21.96875 7.515625 27.59375 7.515625 
L 36.8125 7.515625 
L 36.8125 0 
L 27.59375 0 
Q 17.1875 0 13.234375 3.875 
Q 9.28125 7.765625 9.28125 18.015625 
L 9.28125 47.703125 
L 2.6875 47.703125 
L 2.6875 54.6875 
L 9.28125 54.6875 
L 9.28125 70.21875 
z
" id="DejaVuSans-116"/>
       <path d="M 56.203125 29.59375 
L 56.203125 25.203125 
L 14.890625 25.203125 
Q 15.484375 15.921875 20.484375 11.0625 
Q 25.484375 6.203125 34.421875 6.203125 
Q 39.59375 6.203125 44.453125 7.46875 
Q 49.3125 8.734375 54.109375 11.28125 
L 54.109375 2.78125 
Q 49.265625 0.734375 44.1875 -0.34375 
Q 39.109375 -1.421875 33.890625 -1.421875 
Q 20.796875 -1.421875 13.15625 6.1875 
Q 5.515625 13.8125 5.515625 26.8125 
Q 5.515625 40.234375 12.765625 48.109375 
Q 20.015625 56 32.328125 56 
Q 43.359375 56 49.78125 48.890625 
Q 56.203125 41.796875 56.203125 29.59375 
z
M 47.21875 32.234375 
Q 47.125 39.59375 43.09375 43.984375 
Q 39.0625 48.390625 32.421875 48.390625 
Q 24.90625 48.390625 20.390625 44.140625 
Q 15.875 39.890625 15.1875 32.171875 
z
" id="DejaVuSans-101"/>
      </defs>
      <use xlink:href="#DejaVuSans-68"/>
      <use x="77.001953" xlink:href="#DejaVuSans-97"/>
      <use x="138.28125" xlink:href="#DejaVuSans-116"/>
      <use x="177.490234" xlink:href="#DejaVuSans-101"/>
     </g>
    </g>
   </g>
   <g id="matplotlib.axis_2">
    <g id="ytick_1">
     <g id="line2d_19">
      <path clip-path="url(#pc480cbeefe)" d="M 44.66 220.554948 
L 450 220.554948 
" style="fill:none;stroke:#b0b0b0;stroke-linecap:square;stroke-width:0.8;"/>
     </g>
     <g id="line2d_20">
      <defs>
       <path d="M 0 0 
L -3.5 0 
" id="m41524677d3" style="stroke:#000000;stroke-width:0.8;"/>
      </defs>
      <g>
       <use style="stroke:#000000;stroke-width:0.8;" x="44.66" xlink:href="#m41524677d3" y="220.554948"/>
      </g>
     </g>
     <g id="text_11">
      <!-- 55 -->
      <g transform="translate(24.935 224.354166)scale(0.1 -0.1)">
       <use xlink:href="#DejaVuSans-53"/>
       <use x="63.623047" xlink:href="#DejaVuSans-53"/>
      </g>
     </g>
    </g>
    <g id="ytick_2">
     <g id="line2d_21">
      <path clip-path="url(#pc480cbeefe)" d="M 44.66 182.085912 
L 450 182.085912 
" style="fill:none;stroke:#b0b0b0;stroke-linecap:square;stroke-width:0.8;"/>
     </g>
     <g id="line2d_22">
      <g>
       <use style="stroke:#000000;stroke-width:0.8;" x="44.66" xlink:href="#m41524677d3" y="182.085912"/>
      </g>
     </g>
     <g id="text_12">
      <!-- 60 -->
      <g transform="translate(24.935 185.885131)scale(0.1 -0.1)">
       <defs>
        <path d="M 33.015625 40.375 
Q 26.375 40.375 22.484375 35.828125 
Q 18.609375 31.296875 18.609375 23.390625 
Q 18.609375 15.53125 22.484375 10.953125 
Q 26.375 6.390625 33.015625 6.390625 
Q 39.65625 6.390625 43.53125 10.953125 
Q 47.40625 15.53125 47.40625 23.390625 
Q 47.40625 31.296875 43.53125 35.828125 
Q 39.65625 40.375 33.015625 40.375 
z
M 52.59375 71.296875 
L 52.59375 62.3125 
Q 48.875 64.0625 45.09375 64.984375 
Q 41.3125 65.921875 37.59375 65.921875 
Q 27.828125 65.921875 22.671875 59.328125 
Q 17.53125 52.734375 16.796875 39.40625 
Q 19.671875 43.65625 24.015625 45.921875 
Q 28.375 48.1875 33.59375 48.1875 
Q 44.578125 48.1875 50.953125 41.515625 
Q 57.328125 34.859375 57.328125 23.390625 
Q 57.328125 12.15625 50.6875 5.359375 
Q 44.046875 -1.421875 33.015625 -1.421875 
Q 20.359375 -1.421875 13.671875 8.265625 
Q 6.984375 17.96875 6.984375 36.375 
Q 6.984375 53.65625 15.1875 63.9375 
Q 23.390625 74.21875 37.203125 74.21875 
Q 40.921875 74.21875 44.703125 73.484375 
Q 48.484375 72.75 52.59375 71.296875 
z
" id="DejaVuSans-54"/>
       </defs>
       <use xlink:href="#DejaVuSans-54"/>
       <use x="63.623047" xlink:href="#DejaVuSans-48"/>
      </g>
     </g>
    </g>
    <g id="ytick_3">
     <g id="line2d_23">
      <path clip-path="url(#pc480cbeefe)" d="M 44.66 143.616877 
L 450 143.616877 
" style="fill:none;stroke:#b0b0b0;stroke-linecap:square;stroke-width:0.8;"/>
     </g>
     <g id="line2d_24">
      <g>
       <use style="stroke:#000000;stroke-width:0.8;" x="44.66" xlink:href="#m41524677d3" y="143.616877"/>
      </g>
     </g>
     <g id="text_13">
      <!-- 65 -->
      <g transform="translate(24.935 147.416096)scale(0.1 -0.1)">
       <use xlink:href="#DejaVuSans-54"/>
       <use x="63.623047" xlink:href="#DejaVuSans-53"/>
      </g>
     </g>
    </g>
    <g id="ytick_4">
     <g id="line2d_25">
      <path clip-path="url(#pc480cbeefe)" d="M 44.66 105.147841 
L 450 105.147841 
" style="fill:none;stroke:#b0b0b0;stroke-linecap:square;stroke-width:0.8;"/>
     </g>
     <g id="line2d_26">
      <g>
       <use style="stroke:#000000;stroke-width:0.8;" x="44.66" xlink:href="#m41524677d3" y="105.147841"/>
      </g>
     </g>
     <g id="text_14">
      <!-- 70 -->
      <g transform="translate(24.935 108.94706)scale(0.1 -0.1)">
       <defs>
        <path d="M 8.203125 72.90625 
L 55.078125 72.90625 
L 55.078125 68.703125 
L 28.609375 0 
L 18.3125 0 
L 43.21875 64.59375 
L 8.203125 64.59375 
z
" id="DejaVuSans-55"/>
       </defs>
       <use xlink:href="#DejaVuSans-55"/>
       <use x="63.623047" xlink:href="#DejaVuSans-48"/>
      </g>
     </g>
    </g>
    <g id="ytick_5">
     <g id="line2d_27">
      <path clip-path="url(#pc480cbeefe)" d="M 44.66 66.678806 
L 450 66.678806 
" style="fill:none;stroke:#b0b0b0;stroke-linecap:square;stroke-width:0.8;"/>
     </g>
     <g id="line2d_28">
      <g>
       <use style="stroke:#000000;stroke-width:0.8;" x="44.66" xlink:href="#m41524677d3" y="66.678806"/>
      </g>
     </g>
     <g id="text_15">
      <!-- 75 -->
      <g transform="translate(24.935 70.478025)scale(0.1 -0.1)">
       <use xlink:href="#DejaVuSans-55"/>
       <use x="63.623047" xlink:href="#DejaVuSans-53"/>
      </g>
     </g>
    </g>
    <g id="ytick_6">
     <g id="line2d_29">
      <path clip-path="url(#pc480cbeefe)" d="M 44.66 28.209771 
L 450 28.209771 
" style="fill:none;stroke:#b0b0b0;stroke-linecap:square;stroke-width:0.8;"/>
     </g>
     <g id="line2d_30">
      <g>
       <use style="stroke:#000000;stroke-width:0.8;" x="44.66" xlink:href="#m41524677d3" y="28.209771"/>
      </g>
     </g>
     <g id="text_16">
      <!-- 80 -->
      <g transform="translate(24.935 32.008989)scale(0.1 -0.1)">
       <use xlink:href="#DejaVuSans-56"/>
       <use x="63.623047" xlink:href="#DejaVuSans-48"/>
      </g>
     </g>
    </g>
    <g id="text_17">
     <!-- Temperature [F] -->
     <g transform="translate(18.855313 180.575291)rotate(-90)scale(0.1 -0.1)">
      <defs>
       <path d="M -0.296875 72.90625 
L 61.375 72.90625 
L 61.375 64.59375 
L 35.5 64.59375 
L 35.5 0 
L 25.59375 0 
L 25.59375 64.59375 
L -0.296875 64.59375 
z
" id="DejaVuSans-84"/>
       <path d="M 52 44.1875 
Q 55.375 50.25 60.0625 53.125 
Q 64.75 56 71.09375 56 
Q 79.640625 56 84.28125 50.015625 
Q 88.921875 44.046875 88.921875 33.015625 
L 88.921875 0 
L 79.890625 0 
L 79.890625 32.71875 
Q 79.890625 40.578125 77.09375 44.375 
Q 74.3125 48.1875 68.609375 48.1875 
Q 61.625 48.1875 57.5625 43.546875 
Q 53.515625 38.921875 53.515625 30.90625 
L 53.515625 0 
L 44.484375 0 
L 44.484375 32.71875 
Q 44.484375 40.625 41.703125 44.40625 
Q 38.921875 48.1875 33.109375 48.1875 
Q 26.21875 48.1875 22.15625 43.53125 
Q 18.109375 38.875 18.109375 30.90625 
L 18.109375 0 
L 9.078125 0 
L 9.078125 54.6875 
L 18.109375 54.6875 
L 18.109375 46.1875 
Q 21.1875 51.21875 25.484375 53.609375 
Q 29.78125 56 35.6875 56 
Q 41.65625 56 45.828125 52.96875 
Q 50 49.953125 52 44.1875 
z
" id="DejaVuSans-109"/>
       <path d="M 18.109375 8.203125 
L 18.109375 -20.796875 
L 9.078125 -20.796875 
L 9.078125 54.6875 
L 18.109375 54.6875 
L 18.109375 46.390625 
Q 20.953125 51.265625 25.265625 53.625 
Q 29.59375 56 35.59375 56 
Q 45.5625 56 51.78125 48.09375 
Q 58.015625 40.1875 58.015625 27.296875 
Q 58.015625 14.40625 51.78125 6.484375 
Q 45.5625 -1.421875 35.59375 -1.421875 
Q 29.59375 -1.421875 25.265625 0.953125 
Q 20.953125 3.328125 18.109375 8.203125 
z
M 48.6875 27.296875 
Q 48.6875 37.203125 44.609375 42.84375 
Q 40.53125 48.484375 33.40625 48.484375 
Q 26.265625 48.484375 22.1875 42.84375 
Q 18.109375 37.203125 18.109375 27.296875 
Q 18.109375 17.390625 22.1875 11.75 
Q 26.265625 6.109375 33.40625 6.109375 
Q 40.53125 6.109375 44.609375 11.75 
Q 48.6875 17.390625 48.6875 27.296875 
z
" id="DejaVuSans-112"/>
       <path d="M 41.109375 46.296875 
Q 39.59375 47.171875 37.8125 47.578125 
Q 36.03125 48 33.890625 48 
Q 26.265625 48 22.1875 43.046875 
Q 18.109375 38.09375 18.109375 28.8125 
L 18.109375 0 
L 9.078125 0 
L 9.078125 54.6875 
L 18.109375 54.6875 
L 18.109375 46.1875 
Q 20.953125 51.171875 25.484375 53.578125 
Q 30.03125 56 36.53125 56 
Q 37.453125 56 38.578125 55.875 
Q 39.703125 55.765625 41.0625 55.515625 
z
" id="DejaVuSans-114"/>
       <path d="M 8.5 21.578125 
L 8.5 54.6875 
L 17.484375 54.6875 
L 17.484375 21.921875 
Q 17.484375 14.15625 20.5 10.265625 
Q 23.53125 6.390625 29.59375 6.390625 
Q 36.859375 6.390625 41.078125 11.03125 
Q 45.3125 15.671875 45.3125 23.6875 
L 45.3125 54.6875 
L 54.296875 54.6875 
L 54.296875 0 
L 45.3125 0 
L 45.3125 8.40625 
Q 42.046875 3.421875 37.71875 1 
Q 33.40625 -1.421875 27.6875 -1.421875 
Q 18.265625 -1.421875 13.375 4.4375 
Q 8.5 10.296875 8.5 21.578125 
z
M 31.109375 56 
z
" id="DejaVuSans-117"/>
       <path id="DejaVuSans-32"/>
       <path d="M 8.59375 75.984375 
L 29.296875 75.984375 
L 29.296875 69 
L 17.578125 69 
L 17.578125 -6.203125 
L 29.296875 -6.203125 
L 29.296875 -13.1875 
L 8.59375 -13.1875 
z
" id="DejaVuSans-91"/>
       <path d="M 9.8125 72.90625 
L 51.703125 72.90625 
L 51.703125 64.59375 
L 19.671875 64.59375 
L 19.671875 43.109375 
L 48.578125 43.109375 
L 48.578125 34.8125 
L 19.671875 34.8125 
L 19.671875 0 
L 9.8125 0 
z
" id="DejaVuSans-70"/>
       <path d="M 30.421875 75.984375 
L 30.421875 -13.1875 
L 9.71875 -13.1875 
L 9.71875 -6.203125 
L 21.390625 -6.203125 
L 21.390625 69 
L 9.71875 69 
L 9.71875 75.984375 
z
" id="DejaVuSans-93"/>
      </defs>
      <use xlink:href="#DejaVuSans-84"/>
      <use x="44.083984" xlink:href="#DejaVuSans-101"/>
      <use x="105.607422" xlink:href="#DejaVuSans-109"/>
      <use x="203.019531" xlink:href="#DejaVuSans-112"/>
      <use x="266.496094" xlink:href="#DejaVuSans-101"/>
      <use x="328.019531" xlink:href="#DejaVuSans-114"/>
      <use x="369.132812" xlink:href="#DejaVuSans-97"/>
      <use x="430.412109" xlink:href="#DejaVuSans-116"/>
      <use x="469.621094" xlink:href="#DejaVuSans-117"/>
      <use x="533" xlink:href="#DejaVuSans-114"/>
      <use x="571.863281" xlink:href="#DejaVuSans-101"/>
      <use x="633.386719" xlink:href="#DejaVuSans-32"/>
      <use x="665.173828" xlink:href="#DejaVuSans-91"/>
      <use x="704.1875" xlink:href="#DejaVuSans-70"/>
      <use x="761.707031" xlink:href="#DejaVuSans-93"/>
     </g>
    </g>
   </g>
   <g id="line2d_31">
    <path clip-path="url(#pc480cbeefe)" d="M 63.084545 113.611029 
L 63.147296 113.611029 
L 63.206433 112.841648 
L 63.236585 113.611029 
L 63.266171 113.611029 
L 63.384682 112.841648 
L 63.444022 112.841648 
L 63.473683 113.611029 
L 63.503879 112.841648 
L 63.623162 112.072268 
L 63.802494 112.072268 
L 63.893029 111.302887 
L 64.043874 112.841648 
L 64.073566 112.841648 
L 64.164975 111.302887 
L 64.194586 112.841648 
L 64.254086 111.302887 
L 64.315216 111.302887 
L 64.436353 109.764126 
L 64.465833 111.302887 
L 64.495958 108.994745 
L 64.525506 108.994745 
L 64.555833 109.764126 
L 64.615959 108.994745 
L 64.735255 108.994745 
L 64.795915 108.225364 
L 64.826555 108.994745 
L 64.857029 108.994745 
L 64.887303 108.225364 
L 64.916909 109.764126 
L 65.006368 109.764126 
L 65.128989 108.225364 
L 65.158835 108.225364 
L 65.278129 108.994745 
L 65.307977 108.994745 
L 65.429367 109.764126 
L 65.519885 109.764126 
L 65.67241 107.455984 
L 65.823278 108.994745 
L 65.945149 107.455984 
L 65.976413 107.455984 
L 66.007449 106.686603 
L 66.067006 107.455984 
L 66.097061 108.225364 
L 66.177999 107.455984 
L 66.268439 107.455984 
L 66.329711 106.686603 
L 66.359569 107.455984 
L 66.391274 107.455984 
L 66.544463 109.764126 
L 66.605963 108.994745 
L 66.638427 109.764126 
L 66.735625 109.764126 
L 66.765314 111.302887 
L 66.826123 109.764126 
L 66.915185 109.764126 
L 67.036585 108.994745 
L 67.097486 109.764126 
L 67.128385 108.994745 
L 67.187308 108.994745 
L 67.248864 111.302887 
L 67.279888 108.994745 
L 67.338893 108.994745 
L 67.403529 111.302887 
L 67.433057 109.764126 
L 67.462552 109.764126 
L 67.492211 111.302887 
L 67.521974 108.994745 
L 67.551486 109.764126 
L 67.581851 109.764126 
L 67.702342 112.841648 
L 67.763643 109.764126 
L 67.793188 112.841648 
L 67.823951 114.38041 
L 67.855019 112.072268 
L 68.009781 108.994745 
L 68.131253 114.38041 
L 68.192725 112.072268 
L 68.22314 113.611029 
L 68.286455 114.38041 
L 68.31593 113.611029 
L 68.345378 113.611029 
L 68.497492 115.149791 
L 68.799264 115.149791 
L 68.919798 115.919171 
L 69.011048 115.149791 
L 69.071209 115.919171 
L 69.10091 115.149791 
L 69.130491 114.38041 
L 69.160906 115.919171 
L 69.223605 115.919171 
L 69.313836 112.841648 
L 69.344911 115.149791 
L 69.376001 117.457933 
L 69.435423 115.919171 
L 69.527558 115.919171 
L 69.710191 113.611029 
L 69.830811 114.38041 
L 69.891801 114.38041 
L 69.921746 113.611029 
L 69.951216 114.38041 
L 69.982039 115.149791 
L 70.011898 112.841648 
L 70.072425 115.919171 
L 70.103304 115.919171 
L 70.164579 114.38041 
L 70.223564 115.149791 
L 70.253 114.38041 
L 70.282664 115.919171 
L 70.313682 115.919171 
L 70.343834 114.38041 
L 70.432804 115.149791 
L 70.554599 115.149791 
L 70.648305 115.919171 
L 70.738305 115.149791 
L 70.83235 115.919171 
L 70.893366 114.38041 
L 70.952914 115.149791 
L 71.013005 115.149791 
L 71.133703 115.919171 
L 71.463767 115.919171 
L 71.554604 117.457933 
L 71.585581 115.919171 
L 71.645229 117.457933 
L 72.134035 117.457933 
L 72.256907 118.227313 
L 72.287987 117.457933 
L 72.347641 118.227313 
L 72.37727 118.227313 
L 72.406839 117.457933 
L 72.466391 118.227313 
L 73.039022 118.227313 
L 73.068998 118.996694 
L 73.098674 118.227313 
L 149.080033 118.996694 
L 149.110724 118.227313 
L 149.470298 115.919171 
L 149.500115 118.227313 
L 149.562641 117.457933 
L 149.625888 118.227313 
L 149.656324 115.919171 
L 149.729421 118.227313 
L 149.781073 117.457933 
L 149.81166 117.457933 
L 149.965133 112.841648 
L 150.094859 115.919171 
L 150.124305 115.149791 
L 150.261908 117.457933 
L 150.388685 117.457933 
L 150.418197 118.227313 
L 150.541336 115.149791 
L 150.574065 115.149791 
L 150.67031 108.994745 
L 150.725968 112.841648 
L 150.756815 115.149791 
L 150.786417 113.611029 
L 150.883174 115.919171 
L 150.948281 115.149791 
L 150.977795 115.149791 
L 151.083053 117.457933 
L 151.112993 115.919171 
L 151.143411 115.919171 
L 151.180183 115.149791 
L 151.239728 115.919171 
L 151.305961 115.919171 
L 151.459499 108.225364 
L 151.579768 115.149791 
L 151.609254 115.919171 
L 151.729167 107.455984 
L 151.79068 109.764126 
L 151.820206 108.994745 
L 151.849701 109.764126 
L 152.013937 117.457933 
L 152.154182 114.38041 
L 152.245563 114.38041 
L 152.276815 113.611029 
L 152.306474 114.38041 
L 152.428223 117.457933 
L 152.584696 114.38041 
L 152.614954 114.38041 
L 152.716342 108.225364 
L 152.745822 112.072268 
L 152.918265 117.457933 
L 152.947866 114.38041 
L 153.131434 117.457933 
L 153.160871 115.149791 
L 153.191511 115.919171 
L 153.312832 115.919171 
L 153.343539 114.38041 
L 153.40735 115.919171 
L 153.438196 118.227313 
L 153.498599 115.149791 
L 153.557965 115.149791 
L 153.589051 115.919171 
L 153.621155 111.302887 
L 153.714593 112.072268 
L 153.776685 115.149791 
L 153.806352 113.611029 
L 153.838191 112.841648 
L 153.86762 113.611029 
L 154.0182 115.149791 
L 154.14514 114.38041 
L 154.174661 114.38041 
L 154.234296 115.149791 
L 154.264702 113.611029 
L 154.323657 115.149791 
L 154.35352 115.149791 
L 154.382964 114.38041 
L 154.443406 115.149791 
L 154.47379 115.149791 
L 154.592165 115.919171 
L 154.622776 115.919171 
L 154.742678 117.457933 
L 154.77261 117.457933 
L 154.893147 118.227313 
L 155.314669 118.227313 
L 155.405564 118.996694 
L 155.52663 118.227313 
L 155.738674 118.227313 
L 155.768427 115.149791 
L 155.827653 118.227313 
L 155.918194 117.457933 
L 156.043421 118.227313 
L 156.133561 118.227313 
L 156.163631 117.457933 
L 156.222951 118.227313 
L 156.282531 118.227313 
L 156.373709 118.996694 
L 156.404414 118.227313 
L 156.465686 118.996694 
L 157.077618 118.996694 
L 157.109712 119.766075 
L 157.139282 118.996694 
L 157.271525 118.227313 
L 157.616168 118.227313 
L 157.704978 117.457933 
L 157.735003 118.227313 
L 157.798806 117.457933 
L 158.22259 117.457933 
L 158.2521 118.227313 
L 158.311818 117.457933 
L 158.585134 117.457933 
L 158.677485 118.227313 
L 158.796425 117.457933 
L 158.914583 117.457933 
L 159.004068 118.227313 
L 159.095042 117.457933 
L 159.215673 118.227313 
L 159.274784 118.227313 
L 159.393055 117.457933 
L 159.45242 117.457933 
L 159.540903 118.227313 
L 159.667299 117.457933 
L 159.966318 117.457933 
L 278.760201 95.915273 
L 278.828832 97.454034 
L 278.972341 97.454034 
L 279.002077 95.915273 
L 279.063616 97.454034 
L 279.160433 97.454034 
L 279.1911 95.915273 
L 279.25856 97.454034 
L 279.529422 97.454034 
L 279.59034 98.223415 
L 279.620116 97.454034 
L 279.806971 97.454034 
L 279.838121 98.223415 
L 279.903023 97.454034 
L 279.938723 97.454034 
L 280.059665 98.223415 
L 280.120638 98.223415 
L 280.151047 97.454034 
L 280.210327 98.223415 
L 280.329802 98.223415 
L 280.419283 97.454034 
L 280.522905 98.223415 
L 281.201351 98.223415 
L 281.231196 98.992796 
L 281.290172 98.223415 
L 281.319587 98.223415 
L 281.349784 98.992796 
L 281.409673 98.223415 
L 281.440157 98.223415 
L 281.564213 98.992796 
L 281.689342 98.223415 
L 281.718844 98.223415 
L 281.837593 98.992796 
L 282.412911 98.992796 
L 282.442698 99.762176 
L 282.501855 98.992796 
L 282.626395 98.992796 
L 282.659356 99.762176 
L 282.733412 98.992796 
L 283.009857 98.992796 
L 283.134403 99.762176 
L 284.415934 99.762176 
L 284.446899 100.531557 
L 284.508409 99.762176 
L 284.782578 99.762176 
L 284.907135 100.531557 
L 285.029817 99.762176 
L 285.060183 99.762176 
L 285.180853 100.531557 
L 285.613406 100.531557 
L 285.755689 101.300938 
L 285.87451 100.531557 
L 286.755199 100.531557 
L 286.78462 99.762176 
L 286.845944 100.531557 
L 287.060452 100.531557 
L 287.090157 99.762176 
L 287.151368 100.531557 
L 287.182235 100.531557 
L 287.272038 99.762176 
L 287.393222 100.531557 
L 287.848494 100.531557 
L 287.87795 101.300938 
L 287.936833 100.531557 
L 288.505128 100.531557 
L 288.535469 99.762176 
L 288.595396 100.531557 
L 288.685251 100.531557 
L 288.724833 99.762176 
L 288.789916 100.531557 
L 289.060008 100.531557 
L 289.090396 99.762176 
L 289.151865 100.531557 
L 290.122173 100.531557 
L 290.243059 101.300938 
L 290.3037 101.300938 
L 290.428638 100.531557 
L 290.561108 101.300938 
L 290.683934 100.531557 
L 290.713369 100.531557 
L 290.833548 101.300938 
L 290.95516 100.531557 
L 291.106235 100.531557 
L 291.224576 101.300938 
L 291.755455 101.300938 
L 291.785263 102.070319 
L 291.844347 101.300938 
L 292.213775 101.300938 
L 292.305893 102.070319 
L 292.397625 101.300938 
L 292.488104 102.070319 
L 292.582202 101.300938 
L 292.709146 102.070319 
L 292.738593 102.070319 
L 292.770512 101.300938 
L 292.83119 102.070319 
L 293.778458 102.070319 
L 293.80897 103.60908 
L 293.869296 102.070319 
L 293.898788 102.070319 
L 293.933482 103.60908 
L 293.994387 102.070319 
L 294.396712 102.070319 
L 294.456393 103.60908 
L 294.486856 102.070319 
L 294.768891 102.070319 
L 294.890509 103.60908 
L 294.979744 102.070319 
L 295.069245 103.60908 
L 295.161388 102.070319 
L 295.251629 103.60908 
L 295.377215 102.070319 
L 295.498172 103.60908 
L 295.527693 103.60908 
L 295.557127 102.070319 
L 295.617323 103.60908 
L 295.649494 103.60908 
L 295.680123 102.070319 
L 295.742448 103.60908 
L 296.621157 103.60908 
L 296.714671 104.378461 
L 296.842156 103.60908 
L 296.902079 103.60908 
L 296.933025 104.378461 
L 296.962956 103.60908 
L 297.291807 103.60908 
L 297.414099 104.378461 
L 297.50435 103.60908 
L 297.626069 104.378461 
L 298.662612 104.378461 
L 298.752531 105.147841 
L 298.814721 104.378461 
L 298.844794 105.147841 
L 298.905377 105.147841 
L 298.96491 104.378461 
L 298.994544 105.147841 
L 299.6869 105.147841 
L 299.809549 104.378461 
L 299.929822 105.147841 
L 301.174249 105.147841 
L 301.203849 105.917222 
L 301.272172 105.147841 
L 302.337767 105.147841 
L 302.464452 105.917222 
L 302.556378 105.147841 
L 302.692306 105.917222 
L 303.52517 105.917222 
L 303.554729 105.147841 
L 303.61682 105.917222 
L 303.771161 105.917222 
L 303.861487 105.147841 
L 303.984639 105.917222 
L 304.015451 105.917222 
L 304.139103 105.147841 
L 304.289467 105.147841 
L 304.318913 105.917222 
L 304.380207 105.147841 
L 304.471459 105.147841 
L 304.596281 105.917222 
L 304.717767 105.147841 
L 304.957832 105.147841 
L 305.084568 105.917222 
L 305.208575 105.147841 
L 306.169673 105.147841 
L 306.291455 104.378461 
L 306.566396 104.378461 
L 306.627822 103.60908 
L 306.658024 104.378461 
L 306.843194 104.378461 
L 306.911426 103.60908 
L 306.941883 104.378461 
L 307.00309 104.378461 
L 307.034534 103.60908 
L 307.094718 104.378461 
L 307.954205 104.378461 
L 308.076797 103.60908 
L 308.175656 103.60908 
L 308.20541 104.378461 
L 308.264787 103.60908 
L 308.387736 103.60908 
L 308.510269 102.070319 
L 308.815554 102.070319 
L 308.87515 101.300938 
L 308.905039 102.070319 
L 309.631972 102.070319 
L 309.721832 101.300938 
L 309.844416 102.070319 
L 309.9035 102.070319 
L 309.993722 101.300938 
L 310.023683 102.070319 
L 310.084355 101.300938 
L 310.113849 101.300938 
L 310.232117 100.531557 
L 310.293888 100.531557 
L 310.413522 101.300938 
L 310.50268 101.300938 
L 310.623491 100.531557 
L 310.65292 100.531557 
L 310.744313 101.300938 
L 310.877936 100.531557 
L 310.970588 100.531557 
L 311.063289 101.300938 
L 311.18395 100.531557 
L 311.310144 101.300938 
L 311.343078 100.531557 
L 311.403602 101.300938 
L 311.530375 101.300938 
L 311.559943 100.531557 
L 311.620701 101.300938 
L 312.050146 101.300938 
L 312.171765 100.531557 
L 312.232743 101.300938 
L 312.262452 100.531557 
L 312.357853 100.531557 
L 312.481688 101.300938 
L 312.5132 101.300938 
L 312.639022 100.531557 
L 312.731451 101.300938 
L 312.856489 100.531557 
L 312.920359 100.531557 
L 313.042405 101.300938 
L 313.073028 101.300938 
L 313.194426 100.531557 
L 313.412769 100.531557 
L 313.446201 101.300938 
L 313.517472 100.531557 
L 313.643151 100.531557 
L 313.673446 101.300938 
L 313.73464 100.531557 
L 313.970746 100.531557 
L 314.000235 98.992796 
L 314.090642 99.762176 
L 314.149881 99.762176 
L 314.270167 100.531557 
L 314.391241 100.531557 
L 314.450805 101.300938 
L 314.480857 100.531557 
L 314.511476 100.531557 
L 314.541001 99.762176 
L 314.601165 100.531557 
L 314.631232 100.531557 
L 314.72195 99.762176 
L 314.7515 100.531557 
L 314.812998 99.762176 
L 314.874237 99.762176 
L 314.996173 100.531557 
L 315.337901 100.531557 
L 315.367524 101.300938 
L 315.428997 100.531557 
L 315.521653 99.762176 
L 315.644013 100.531557 
L 316.041158 100.531557 
L 316.161014 101.300938 
L 316.222559 101.300938 
L 316.253439 100.531557 
L 316.312986 101.300938 
L 316.674208 101.300938 
L 316.795682 100.531557 
L 316.964981 101.300938 
L 317.299174 101.300938 
L 317.387698 102.070319 
L 317.507991 101.300938 
L 317.630524 101.300938 
L 317.661914 100.531557 
L 317.721441 101.300938 
L 318.088036 101.300938 
L 318.118542 102.070319 
L 318.178034 101.300938 
L 318.589064 101.300938 
L 318.711597 102.070319 
L 318.833616 101.300938 
L 318.957717 102.070319 
L 319.447049 102.070319 
L 319.507487 101.300938 
L 319.537438 102.070319 
L 319.661047 102.070319 
L 319.692477 101.300938 
L 319.753423 102.070319 
L 320.587595 102.070319 
L 320.6183 103.60908 
L 320.691796 102.070319 
L 320.752397 102.070319 
L 320.853783 103.60908 
L 320.980877 102.070319 
L 321.074284 103.60908 
L 321.193788 102.070319 
L 321.315622 103.60908 
L 321.416681 103.60908 
L 321.540182 102.070319 
L 321.707584 103.60908 
L 322.452328 103.60908 
L 322.561992 104.378461 
L 322.623199 103.60908 
L 322.656051 104.378461 
L 322.685573 104.378461 
L 322.74745 103.60908 
L 322.777543 104.378461 
L 322.839034 104.378461 
L 322.929189 103.60908 
L 323.06282 104.378461 
L 323.825123 104.378461 
L 323.854582 105.147841 
L 323.914423 104.378461 
L 324.431484 104.378461 
L 324.461112 105.147841 
L 324.522154 104.378461 
L 324.552645 104.378461 
L 324.643692 105.147841 
L 324.673758 104.378461 
L 324.734766 105.147841 
L 324.765726 105.147841 
L 324.890002 104.378461 
L 325.018763 105.147841 
L 326.709262 105.147841 
L 326.742298 105.917222 
L 326.806057 105.147841 
L 326.902235 105.147841 
L 326.963817 105.917222 
L 326.994482 105.147841 
L 327.060229 105.147841 
L 327.184815 105.917222 
L 327.215511 105.147841 
L 327.276488 105.917222 
L 327.610059 105.917222 
L 327.641554 105.147841 
L 327.702543 105.917222 
L 327.82189 105.917222 
L 327.851377 105.147841 
L 327.911769 105.917222 
L 328.156047 105.917222 
L 328.187981 106.686603 
L 328.248811 105.917222 
L 329.080018 105.917222 
L 329.110894 105.147841 
L 329.175 105.917222 
L 330.560414 105.917222 
L 330.590814 106.686603 
L 330.653716 105.917222 
L 331.122256 105.917222 
L 331.224427 106.686603 
L 331.347138 105.917222 
L 331.406985 105.917222 
L 331.53069 106.686603 
L 331.904309 106.686603 
L 331.934311 105.917222 
L 331.995639 106.686603 
L 332.396 106.686603 
L 332.428802 105.917222 
L 332.488991 106.686603 
L 333.912457 106.686603 
L 333.945585 107.455984 
L 334.004765 106.686603 
L 334.126263 106.686603 
L 334.157598 107.455984 
L 334.220919 106.686603 
L 334.432501 106.686603 
L 334.551318 107.455984 
L 334.679683 106.686603 
L 334.80319 107.455984 
L 334.832604 106.686603 
L 334.892108 107.455984 
L 334.95265 107.455984 
L 335.072489 106.686603 
L 335.103393 106.686603 
L 335.196046 107.455984 
L 335.227279 106.686603 
L 335.28791 107.455984 
L 335.380513 107.455984 
L 335.502152 106.686603 
L 335.623806 107.455984 
L 335.653338 106.686603 
L 335.716476 107.455984 
L 335.959142 107.455984 
L 335.990908 106.686603 
L 336.050764 107.455984 
L 338.239257 107.455984 
L 338.270101 108.225364 
L 338.33049 107.455984 
L 338.512418 107.455984 
L 338.542062 108.225364 
L 338.604046 107.455984 
L 338.692791 107.455984 
L 338.812288 108.225364 
L 338.841896 108.225364 
L 338.873833 107.455984 
L 338.936577 108.225364 
L 338.967092 108.225364 
L 339.029238 107.455984 
L 339.058628 108.225364 
L 339.090203 108.225364 
L 339.120641 107.455984 
L 339.184484 108.225364 
L 339.216307 108.225364 
L 339.336386 107.455984 
L 339.458357 108.225364 
L 340.274337 108.225364 
L 340.304297 108.994745 
L 340.364677 108.225364 
L 340.727073 108.225364 
L 340.822472 108.994745 
L 340.947029 108.225364 
L 341.009042 108.225364 
L 341.039053 108.994745 
L 341.072462 108.225364 
L 341.169922 108.994745 
L 341.262545 108.225364 
L 341.385864 108.994745 
L 341.45503 108.225364 
L 341.485924 108.994745 
L 341.619302 108.225364 
L 341.674839 108.225364 
L 341.706933 108.994745 
L 341.852357 108.225364 
L 343.495895 108.225364 
L 343.594841 107.455984 
L 343.715836 108.225364 
L 343.849058 107.455984 
L 343.908126 108.225364 
L 343.937566 107.455984 
L 344.782943 107.455984 
L 344.917838 106.686603 
L 345.042676 107.455984 
L 345.077146 107.455984 
L 345.233457 105.917222 
L 345.267582 105.917222 
L 345.299229 106.686603 
L 345.361161 105.917222 
L 345.574982 105.917222 
L 345.667211 105.147841 
L 345.697248 105.917222 
L 345.758629 105.147841 
L 345.884384 105.147841 
L 345.92325 104.378461 
L 345.982209 105.147841 
L 346.106059 105.147841 
L 346.20286 105.917222 
L 346.29955 105.147841 
L 346.418127 105.917222 
L 346.53813 105.147841 
L 346.567566 105.147841 
L 346.656621 104.378461 
L 346.715663 105.147841 
L 346.746181 104.378461 
L 346.775675 104.378461 
L 346.864215 105.147841 
L 346.982991 104.378461 
L 347.131508 104.378461 
L 347.161602 105.147841 
L 347.222051 104.378461 
L 347.289704 104.378461 
L 347.319201 105.147841 
L 347.380452 104.378461 
L 347.410026 104.378461 
L 347.528415 105.147841 
L 347.955272 105.147841 
L 348.073376 104.378461 
L 348.197651 105.147841 
L 348.387877 105.147841 
L 348.41751 104.378461 
L 348.476437 105.147841 
L 348.687709 105.147841 
L 348.807966 104.378461 
L 348.837509 104.378461 
L 348.867266 105.147841 
L 348.930879 104.378461 
L 348.960404 104.378461 
L 348.991771 105.147841 
L 349.051335 104.378461 
L 349.591057 104.378461 
L 349.700303 105.147841 
L 349.767985 104.378461 
L 350.66212 104.378461 
L 350.771378 103.60908 
L 351.115608 103.60908 
L 351.145557 104.378461 
L 351.195188 103.60908 
L 351.987987 103.60908 
L 352.094246 104.378461 
L 352.215366 103.60908 
L 352.527082 103.60908 
L 352.573575 104.378461 
L 352.608186 102.070319 
L 352.681177 103.60908 
L 352.790056 103.60908 
L 352.925269 102.070319 
L 353.599249 102.070319 
L 353.872101 100.531557 
L 354.012078 101.300938 
L 354.892516 101.300938 
L 354.931371 100.531557 
L 354.970201 101.300938 
L 355.163841 101.300938 
L 355.230839 100.531557 
L 355.264556 101.300938 
L 355.295039 101.300938 
L 355.365141 100.531557 
L 355.556003 100.531557 
L 355.585725 101.300938 
L 355.649214 100.531557 
L 355.748282 100.531557 
L 355.879294 99.762176 
L 355.976822 100.531557 
L 356.110283 99.762176 
L 356.223331 99.762176 
L 356.348652 100.531557 
L 356.5191 100.531557 
L 356.549864 101.300938 
L 356.584112 100.531557 
L 356.839197 100.531557 
L 357.003959 99.762176 
L 357.086908 100.531557 
L 357.256766 98.992796 
L 357.296461 98.992796 
L 357.327068 99.762176 
L 357.523023 98.992796 
L 357.784059 98.223415 
L 357.930338 98.992796 
L 358.055369 98.223415 
L 358.117587 98.223415 
L 358.151799 98.992796 
L 358.481163 98.992796 
L 358.521547 99.762176 
L 358.572495 98.992796 
L 358.77992 98.992796 
L 358.902632 99.762176 
L 359.528054 99.762176 
L 359.59037 98.992796 
L 359.622625 99.762176 
L 359.659341 99.762176 
L 359.765158 98.992796 
L 359.861835 98.992796 
L 360.00051 99.762176 
L 360.133679 98.992796 
L 360.243912 98.992796 
L 360.35431 99.762176 
L 360.615178 99.762176 
L 360.66336 100.531557 
L 360.699648 99.762176 
L 360.765225 99.762176 
L 360.86247 100.531557 
L 360.985261 99.762176 
L 361.038041 100.531557 
L 361.068683 99.762176 
L 361.262411 100.531557 
L 361.33202 100.531557 
L 361.470817 101.300938 
L 361.560585 100.531557 
L 361.61225 102.070319 
L 361.688144 101.300938 
L 361.917666 101.300938 
L 362.048112 102.070319 
L 362.08294 102.070319 
L 362.118216 101.300938 
L 362.189621 102.070319 
L 362.482445 102.070319 
L 362.516724 103.60908 
L 362.550865 102.070319 
L 362.739251 103.60908 
L 363.198798 103.60908 
L 363.267586 104.378461 
L 363.297166 103.60908 
L 363.328751 103.60908 
L 363.472462 104.378461 
L 364.012787 104.378461 
L 364.140279 105.147841 
L 364.273523 104.378461 
L 364.33443 105.147841 
L 364.431289 104.378461 
L 364.532512 105.147841 
L 364.597258 104.378461 
L 364.636734 105.147841 
L 365.315824 105.147841 
L 365.409387 105.917222 
L 365.441005 105.147841 
L 365.501331 105.917222 
L 366.231768 105.917222 
L 366.321519 106.686603 
L 366.46215 105.917222 
L 366.740863 105.917222 
L 366.771736 106.686603 
L 366.830737 105.917222 
L 366.860204 105.917222 
L 366.889679 106.686603 
L 366.949047 105.917222 
L 366.983827 105.917222 
L 367.014467 106.686603 
L 367.075096 105.917222 
L 367.105645 105.917222 
L 367.197849 106.686603 
L 367.287361 105.917222 
L 367.408952 106.686603 
L 368.303209 106.686603 
L 368.422788 107.455984 
L 368.452285 106.686603 
L 368.51144 107.455984 
L 368.540896 107.455984 
L 368.659669 106.686603 
L 368.690128 106.686603 
L 368.810682 107.455984 
L 369.593569 107.455984 
L 369.622991 108.225364 
L 369.682195 107.455984 
L 369.711721 107.455984 
L 369.804592 108.225364 
L 369.834967 107.455984 
L 369.893922 108.225364 
L 370.13005 108.225364 
L 370.248857 108.994745 
L 370.339116 108.225364 
L 370.459395 108.994745 
L 370.636683 108.994745 
L 370.762442 109.764126 
L 370.884817 108.994745 
L 371.654738 108.994745 
L 371.685202 108.225364 
L 371.862109 108.994745 
L 372.100655 108.994745 
L 372.131279 109.764126 
L 372.322942 108.994745 
L 372.506357 108.994745 
L 372.537354 109.764126 
L 372.598763 108.994745 
L 373.473897 108.994745 
L 373.592836 109.764126 
L 373.683277 109.764126 
L 373.805267 108.994745 
L 373.895745 108.994745 
L 374.019817 109.764126 
L 375.615139 109.764126 
L 375.733701 111.302887 
L 375.763245 111.302887 
L 375.884318 109.764126 
L 375.975468 109.764126 
L 376.065001 111.302887 
L 376.182951 109.764126 
L 376.241787 109.764126 
L 376.361826 111.302887 
L 377.60605 111.302887 
L 377.637736 112.072268 
L 377.700161 111.302887 
L 377.72965 111.302887 
L 377.761124 112.072268 
L 377.821879 111.302887 
L 378.304797 111.302887 
L 378.363692 112.072268 
L 378.393426 111.302887 
L 378.634157 111.302887 
L 378.663741 112.072268 
L 378.723571 111.302887 
L 379.08835 111.302887 
L 379.117738 112.072268 
L 379.176847 111.302887 
L 379.326206 111.302887 
L 379.355776 112.072268 
L 379.414654 111.302887 
L 379.507081 111.302887 
L 379.596063 112.072268 
L 379.62549 111.302887 
L 379.688332 112.072268 
L 379.719339 112.072268 
L 379.838589 111.302887 
L 379.86855 111.302887 
L 379.989696 112.072268 
L 380.019424 111.302887 
L 380.078236 112.072268 
L 380.351864 112.072268 
L 380.38226 111.302887 
L 380.442081 112.072268 
L 380.954046 112.072268 
L 381.073333 112.841648 
L 381.104378 112.841648 
L 381.225729 112.072268 
L 381.992633 112.072268 
L 382.083662 112.841648 
L 382.207331 112.072268 
L 382.238211 112.072268 
L 382.267649 112.841648 
L 382.326909 112.072268 
L 382.35654 112.072268 
L 382.385998 112.841648 
L 382.445897 112.072268 
L 382.540032 112.072268 
L 382.569533 112.841648 
L 382.631092 112.072268 
L 384.346146 112.072268 
L 384.437612 111.302887 
L 384.561912 112.072268 
L 384.830505 112.072268 
L 384.951768 111.302887 
L 385.04413 112.072268 
L 385.166238 111.302887 
L 385.196358 111.302887 
L 385.257647 112.072268 
L 385.288076 111.302887 
L 385.377234 111.302887 
L 385.406707 112.072268 
L 385.469973 111.302887 
L 385.929448 111.302887 
L 386.051505 109.764126 
L 386.497234 109.764126 
L 386.527928 108.994745 
L 386.589508 109.764126 
L 386.711637 109.764126 
L 386.831504 108.994745 
L 387.137562 108.994745 
L 387.265384 108.225364 
L 387.331354 108.225364 
L 387.361845 108.994745 
L 387.421699 108.225364 
L 387.66126 108.225364 
L 387.786367 107.455984 
L 388.065401 107.455984 
L 388.192667 106.686603 
L 388.343975 106.686603 
L 388.471697 105.917222 
L 388.906644 105.917222 
L 388.936274 105.147841 
L 388.998091 105.917222 
L 389.137287 105.917222 
L 389.275131 105.147841 
L 389.471375 105.147841 
L 389.539053 104.378461 
L 389.569646 105.147841 
L 389.687934 105.917222 
L 389.811099 105.147841 
L 389.900254 105.147841 
L 389.929692 104.378461 
L 389.994555 105.147841 
L 390.059 104.378461 
L 390.123224 105.917222 
L 390.223142 105.917222 
L 390.252539 106.686603 
L 390.286718 105.917222 
L 390.418208 105.917222 
L 390.549887 105.147841 
L 390.614279 105.147841 
L 390.643748 104.378461 
L 390.673178 105.917222 
L 390.76415 106.686603 
L 390.796037 105.917222 
L 390.86727 106.686603 
L 390.896783 106.686603 
L 390.989232 105.917222 
L 391.109949 106.686603 
L 391.235192 105.917222 
L 391.326725 105.917222 
L 391.459188 106.686603 
L 391.610866 106.686603 
L 391.732056 105.917222 
L 391.8535 105.917222 
L 391.885573 106.686603 
L 391.916569 105.147841 
L 391.955927 105.917222 
L 391.987355 105.917222 
L 392.08224 106.686603 
L 392.266012 104.378461 
L 392.305206 104.378461 
L 392.365755 95.915273 
L 392.428542 101.300938 
L 392.458381 100.531557 
L 392.489017 101.300938 
L 392.642169 105.147841 
L 392.702042 105.147841 
L 392.825294 105.917222 
L 392.919518 105.917222 
L 393.041306 106.686603 
L 393.072312 106.686603 
L 393.195578 105.917222 
L 393.690868 105.917222 
L 393.721422 106.686603 
L 393.781093 105.917222 
L 393.963385 105.917222 
L 393.996082 106.686603 
L 394.059031 105.917222 
L 394.150939 104.378461 
L 394.182118 105.147841 
L 394.302797 105.917222 
L 394.424625 105.147841 
L 394.513801 105.147841 
L 394.635621 104.378461 
L 394.760754 104.378461 
L 394.83038 103.60908 
L 394.981709 105.917222 
L 395.146711 104.378461 
L 395.177273 104.378461 
L 395.239642 101.300938 
L 395.270945 102.070319 
L 395.381499 103.60908 
L 395.756779 102.070319 
L 395.824022 103.60908 
L 395.931558 103.60908 
L 396.089074 95.145892 
L 396.189909 97.454034 
L 396.352832 101.300938 
L 396.393702 101.300938 
L 396.531648 102.070319 
L 396.622505 102.070319 
L 396.711775 101.300938 
L 396.957152 103.60908 
L 397.03164 102.070319 
L 397.066605 103.60908 
L 397.100048 103.60908 
L 397.253454 101.300938 
L 397.352038 103.60908 
L 397.442648 103.60908 
L 397.592508 105.147841 
L 397.628157 105.147841 
L 397.708314 103.60908 
L 397.859231 105.917222 
L 398.009997 104.378461 
L 398.082011 105.917222 
L 398.112516 104.378461 
L 398.345858 101.300938 
L 398.388596 102.070319 
L 398.430043 101.300938 
L 398.466728 101.300938 
L 398.496288 100.531557 
L 398.535648 102.070319 
L 398.583236 102.070319 
L 398.683583 100.531557 
L 398.800882 103.60908 
L 398.975733 103.60908 
L 399.092666 102.070319 
L 399.250472 103.60908 
L 399.391552 102.070319 
L 399.426583 102.070319 
L 399.462196 103.60908 
L 399.523877 102.070319 
L 399.554869 102.070319 
L 399.685122 103.60908 
L 399.718879 103.60908 
L 399.781247 102.070319 
L 399.817407 103.60908 
L 399.984108 103.60908 
L 400.063766 104.378461 
L 400.094919 103.60908 
L 400.221931 104.378461 
L 400.763133 104.378461 
L 400.809279 103.60908 
L 400.868753 104.378461 
L 400.974799 104.378461 
L 401.058742 105.147841 
L 401.163889 104.378461 
L 401.351344 104.378461 
L 401.486271 105.147841 
L 401.688424 105.147841 
L 401.718434 105.917222 
L 401.798269 105.147841 
L 401.830838 105.147841 
L 401.923676 104.378461 
L 402.031382 105.147841 
L 402.222313 104.378461 
L 402.4426 104.378461 
L 402.581064 105.147841 
L 403.047975 105.147841 
L 403.179842 105.917222 
L 403.441359 105.917222 
L 403.480992 106.686603 
L 403.548143 105.917222 
L 403.61802 105.917222 
L 403.745852 106.686603 
L 403.779417 106.686603 
L 403.811087 105.917222 
L 403.872993 106.686603 
L 404.152677 106.686603 
L 404.249549 105.917222 
L 404.372817 106.686603 
L 404.405171 106.686603 
L 404.527853 105.917222 
L 404.558215 105.917222 
L 404.702553 106.686603 
L 405.715848 106.686603 
L 405.849014 105.917222 
L 406.56602 105.917222 
L 406.595525 106.686603 
L 406.658345 105.917222 
L 407.157029 105.917222 
L 407.280688 106.686603 
L 407.41996 106.686603 
L 407.449384 105.917222 
L 407.515895 106.686603 
L 407.683648 106.686603 
L 407.717481 105.917222 
L 407.908068 106.686603 
L 408.199354 106.686603 
L 408.229783 107.455984 
L 408.29172 106.686603 
L 408.710548 106.686603 
L 408.749169 105.917222 
L 408.779731 106.686603 
L 408.959844 105.917222 
L 409.083664 106.686603 
L 409.113137 106.686603 
L 409.237118 105.917222 
L 409.296756 105.917222 
L 409.400598 106.686603 
L 409.52483 105.917222 
L 409.559468 105.917222 
L 409.588949 106.686603 
L 409.6583 105.917222 
L 409.811107 105.917222 
L 409.90692 106.686603 
L 410.00714 105.917222 
L 410.130237 106.686603 
L 410.253652 105.917222 
L 410.375801 106.686603 
L 410.509527 106.686603 
L 410.543063 105.917222 
L 410.602907 106.686603 
L 410.725705 106.686603 
L 410.756596 105.917222 
L 410.816945 106.686603 
L 411.305192 106.686603 
L 411.4269 107.455984 
L 411.548612 106.686603 
L 411.669261 107.455984 
L 411.794812 106.686603 
L 411.854752 107.455984 
L 411.884521 106.686603 
L 411.944684 106.686603 
L 412.077353 107.455984 
L 412.109695 107.455984 
L 412.228889 106.686603 
L 412.350781 107.455984 
L 412.411899 107.455984 
L 412.441428 106.686603 
L 412.500389 107.455984 
L 413.474013 107.455984 
L 413.592529 108.225364 
L 413.682518 108.225364 
L 413.714283 107.455984 
L 413.773628 108.225364 
L 413.804013 108.225364 
L 413.834631 107.455984 
L 413.895874 108.225364 
L 415.557271 108.225364 
L 415.586807 108.994745 
L 415.647518 108.225364 
L 416.131874 108.225364 
L 416.193843 108.994745 
L 416.223516 108.225364 
L 416.646823 108.225364 
L 416.76533 108.994745 
L 416.855629 108.225364 
L 416.976434 108.994745 
L 417.038708 108.225364 
L 417.068191 108.994745 
L 417.128667 108.994745 
L 417.252493 108.225364 
L 417.375479 108.994745 
L 417.405807 108.225364 
L 417.4671 108.994745 
L 417.49786 108.994745 
L 417.527389 108.225364 
L 417.588291 108.994745 
L 417.717641 108.994745 
L 417.777205 108.225364 
L 417.80658 108.994745 
L 417.837266 108.994745 
L 417.926752 108.225364 
L 418.04623 108.994745 
L 419.800426 108.994745 
L 419.891874 109.764126 
L 420.010967 108.994745 
L 420.069945 108.994745 
L 420.188663 109.764126 
L 420.277341 109.764126 
L 420.395064 108.994745 
L 420.425792 108.994745 
L 420.543654 109.764126 
L 420.691655 109.764126 
L 420.811211 111.302887 
L 420.930503 109.764126 
L 421.704176 109.764126 
L 421.794075 111.302887 
L 421.82361 109.764126 
L 421.882518 111.302887 
L 422.809825 111.302887 
L 422.904978 109.764126 
L 422.966492 111.302887 
L 422.996915 109.764126 
L 423.027116 109.764126 
L 423.125891 111.302887 
L 423.216127 109.764126 
L 423.317891 111.302887 
L 423.450375 109.764126 
L 423.480674 111.302887 
L 423.543356 109.764126 
L 423.736694 109.764126 
L 423.769636 111.302887 
L 423.832316 109.764126 
L 423.925112 109.764126 
L 424.044494 111.302887 
L 424.10392 111.302887 
L 424.228562 109.764126 
L 424.319086 109.764126 
L 424.437344 111.302887 
L 424.50106 111.302887 
L 424.620531 109.764126 
L 424.977975 109.764126 
L 425.097291 108.994745 
L 425.404957 108.994745 
L 425.522882 108.225364 
L 425.61284 108.225364 
L 425.642657 108.994745 
L 425.702772 108.225364 
L 425.91887 108.225364 
L 425.952099 108.994745 
L 426.014962 108.225364 
L 426.139608 108.225364 
L 426.170293 107.455984 
L 426.230825 108.225364 
L 426.506154 108.225364 
L 426.536065 107.455984 
L 426.595084 108.225364 
L 426.687659 108.225364 
L 426.813846 107.455984 
L 426.999862 107.455984 
L 427.062303 106.686603 
L 427.091818 107.455984 
L 427.124991 107.455984 
L 427.246643 106.686603 
L 427.470548 106.686603 
L 427.591833 105.917222 
L 427.832391 105.917222 
L 427.952824 105.147841 
L 427.982305 105.147841 
L 428.100574 104.378461 
L 428.160745 104.378461 
L 428.253377 105.147841 
L 428.350433 104.378461 
L 428.568648 104.378461 
L 428.662705 101.300938 
L 428.714846 102.070319 
L 428.74553 101.300938 
L 428.917289 99.762176 
L 428.993067 99.762176 
L 429.053294 98.992796 
L 429.082797 99.762176 
L 429.331597 99.762176 
L 429.455592 98.992796 
L 429.545134 99.762176 
L 429.575948 98.992796 
L 429.605479 99.762176 
L 429.636056 100.531557 
L 429.698597 99.762176 
L 429.763474 99.762176 
L 429.950358 94.376511 
L 430.014139 98.992796 
L 430.083157 97.454034 
L 430.143412 95.915273 
L 430.17302 99.762176 
L 430.234789 95.145892 
L 430.485855 98.992796 
L 430.638576 97.454034 
L 430.668093 98.223415 
L 430.700451 97.454034 
L 430.820009 95.915273 
L 430.9541 98.992796 
L 431.015605 98.992796 
L 431.079783 99.762176 
L 431.109254 98.223415 
L 431.140599 102.070319 
L 431.273243 101.300938 
L 431.394916 102.070319 
L 431.575455 102.070319 
L 431.575455 102.070319 
" style="fill:none;stroke:#1f77b4;stroke-linecap:square;stroke-width:1.5;"/>
   </g>
   <g id="line2d_32">
    <path clip-path="url(#pc480cbeefe)" d="M 63.084545 165.928917 
L 65.8539 165.928917 
L 65.976413 135.92307 
L 69.011048 135.92307 
L 69.130491 144.386258 
L 71.133703 144.386258 
L 71.252805 159.004491 
L 72.287987 159.004491 
L 72.406839 174.392105 
L 73.098674 174.392105 
L 149.080033 66.678806 
L 153.070204 66.678806 
L 153.191511 82.06642 
L 154.893147 82.06642 
L 155.014634 96.684654 
L 156.55644 96.684654 
L 156.675988 135.92307 
L 158.974532 135.92307 
L 159.095042 159.004491 
L 159.966318 159.004491 
L 278.828832 75.141994 
L 279.999327 75.141994 
L 280.120638 105.147841 
L 281.655049 105.147841 
L 281.778368 135.92307 
L 285.120239 135.92307 
L 285.240333 151.310684 
L 288.535469 151.310684 
L 288.65588 159.004491 
L 290.683934 159.004491 
L 290.803693 165.928917 
L 292.027446 165.928917 
L 292.152085 181.316532 
L 293.567404 181.316532 
L 293.686013 189.779719 
L 294.609315 189.779719 
L 294.738315 175.930867 
L 295.377215 175.930867 
L 295.498172 181.316532 
L 296.902079 181.316532 
L 296.962956 174.392105 
L 301.203849 174.392105 
L 301.361814 175.930867 
L 302.267372 175.930867 
L 302.400432 174.392105 
L 303.831549 174.392105 
L 303.95472 165.928917 
L 307.274494 165.928917 
L 307.396086 159.004491 
L 309.177481 159.004491 
L 309.298853 151.310684 
L 310.232117 151.310684 
L 310.354483 148.233161 
L 310.683975 148.233161 
L 310.811591 144.386258 
L 314.179819 144.386258 
L 314.30064 135.92307 
L 319.661047 135.92307 
L 319.78292 148.233161 
L 321.315622 148.233161 
L 321.448732 151.310684 
L 322.531379 151.310684 
L 322.656051 148.233161 
L 322.839034 148.233161 
L 322.967659 151.310684 
L 327.307955 151.310684 
L 327.42899 148.233161 
L 327.911769 148.233161 
L 328.032993 151.310684 
L 329.5871 151.310684 
L 329.706891 159.004491 
L 330.499027 159.004491 
L 330.590814 175.930867 
L 331.37741 175.930867 
L 331.500093 181.316532 
L 331.813512 181.316532 
L 331.934311 189.779719 
L 338.812288 189.779719 
L 338.936577 175.930867 
L 340.335206 175.930867 
L 340.45505 189.779719 
L 341.706933 189.779719 
L 341.852357 174.392105 
L 343.347845 174.392105 
L 343.495895 165.928917 
L 344.117526 165.928917 
L 344.235594 162.082014 
L 345.009828 162.082014 
L 345.138373 159.004491 
L 347.319201 159.004491 
L 347.439503 151.310684 
L 348.505986 151.310684 
L 348.624623 144.386258 
L 350.153808 144.386258 
L 350.294343 151.310684 
L 351.799499 151.310684 
L 351.987987 135.92307 
L 355.519472 135.92307 
L 355.649214 128.998643 
L 360.450661 128.998643 
L 360.615178 135.92307 
L 361.979012 135.92307 
L 362.118216 165.928917 
L 364.105566 165.928917 
L 364.241897 181.316532 
L 365.791338 181.316532 
L 365.917945 205.167334 
L 367.794383 205.167334 
L 367.94209 217.477425 
L 370.070948 217.477425 
L 370.188919 231.326278 
L 372.931097 231.326278 
L 373.052415 217.477425 
L 374.593403 217.477425 
L 374.712965 220.554948 
L 376.677172 220.554948 
L 376.79593 217.477425 
L 377.425037 217.477425 
L 377.546015 220.554948 
L 380.290928 220.554948 
L 380.411739 228.248755 
L 385.31763 228.248755 
L 385.438541 217.477425 
L 387.047284 217.477425 
L 387.174228 203.628572 
L 388.965786 203.628572 
L 389.107808 162.082014 
L 389.747252 162.082014 
L 389.870665 151.310684 
L 391.388129 151.310684 
L 391.519462 105.147841 
L 393.011537 105.147841 
L 393.134522 75.141994 
L 394.981709 75.141994 
L 395.115106 59.75438 
L 396.590608 59.75438 
L 396.711775 42.828004 
L 398.240732 42.828004 
L 398.345858 51.291192 
L 399.748391 51.291192 
L 399.884342 66.678806 
L 403.047975 66.678806 
L 403.179842 89.760227 
L 403.480992 89.760227 
L 403.61802 128.998643 
L 405.611381 128.998643 
L 405.715848 144.386258 
L 406.690464 144.386258 
L 406.818724 151.310684 
L 408.352 151.310684 
L 408.493324 165.928917 
L 410.160834 165.928917 
L 410.285364 174.392105 
L 412.109695 174.392105 
L 412.228889 189.779719 
L 413.015001 189.779719 
L 413.138339 217.477425 
L 414.079802 217.477425 
L 414.201222 205.167334 
L 414.5352 205.167334 
L 414.654045 217.477425 
L 416.916094 217.477425 
L 417.038708 220.554948 
L 417.80658 220.554948 
L 417.926752 217.477425 
L 418.70903 217.477425 
L 418.829355 235.173181 
L 421.258749 235.173181 
L 421.378319 245.17513 
L 421.556486 245.17513 
L 421.674681 231.326278 
L 422.010333 231.326278 
L 422.128729 235.173181 
L 424.074089 235.173181 
L 424.199053 205.167334 
L 425.732325 205.167334 
L 425.857719 174.392105 
L 427.530731 174.392105 
L 427.651686 120.535456 
L 429.147492 120.535456 
L 429.272558 75.141994 
L 430.789507 75.141994 
L 430.922439 35.903578 
L 431.575455 35.903578 
L 431.575455 35.903578 
" style="fill:none;stroke:#ff7f0e;stroke-linecap:square;stroke-width:1.5;"/>
   </g>
   <g id="patch_3">
    <path d="M 44.66 255.638708 
L 44.66 25.44 
" style="fill:none;stroke:#000000;stroke-linecap:square;stroke-linejoin:miter;stroke-width:0.8;"/>
   </g>
   <g id="patch_4">
    <path d="M 450 255.638708 
L 450 25.44 
" style="fill:none;stroke:#000000;stroke-linecap:square;stroke-linejoin:miter;stroke-width:0.8;"/>
   </g>
   <g id="patch_5">
    <path d="M 44.66 255.638708 
L 450 255.638708 
" style="fill:none;stroke:#000000;stroke-linecap:square;stroke-linejoin:miter;stroke-width:0.8;"/>
   </g>
   <g id="patch_6">
    <path d="M 44.66 25.44 
L 450 25.44 
" style="fill:none;stroke:#000000;stroke-linecap:square;stroke-linejoin:miter;stroke-width:0.8;"/>
   </g>
   <g id="text_18">
    <!-- Lake Shoecraft - Water and Air Temperature -->
    <g transform="translate(115.711562 19.44)scale(0.12 -0.12)">
     <defs>
      <path d="M 9.8125 72.90625 
L 19.671875 72.90625 
L 19.671875 8.296875 
L 55.171875 8.296875 
L 55.171875 0 
L 9.8125 0 
z
" id="DejaVuSans-76"/>
      <path d="M 9.078125 75.984375 
L 18.109375 75.984375 
L 18.109375 31.109375 
L 44.921875 54.6875 
L 56.390625 54.6875 
L 27.390625 29.109375 
L 57.625 0 
L 45.90625 0 
L 18.109375 26.703125 
L 18.109375 0 
L 9.078125 0 
z
" id="DejaVuSans-107"/>
      <path d="M 53.515625 70.515625 
L 53.515625 60.890625 
Q 47.90625 63.578125 42.921875 64.890625 
Q 37.9375 66.21875 33.296875 66.21875 
Q 25.25 66.21875 20.875 63.09375 
Q 16.5 59.96875 16.5 54.203125 
Q 16.5 49.359375 19.40625 46.890625 
Q 22.3125 44.4375 30.421875 42.921875 
L 36.375 41.703125 
Q 47.40625 39.59375 52.65625 34.296875 
Q 57.90625 29 57.90625 20.125 
Q 57.90625 9.515625 50.796875 4.046875 
Q 43.703125 -1.421875 29.984375 -1.421875 
Q 24.8125 -1.421875 18.96875 -0.25 
Q 13.140625 0.921875 6.890625 3.21875 
L 6.890625 13.375 
Q 12.890625 10.015625 18.65625 8.296875 
Q 24.421875 6.59375 29.984375 6.59375 
Q 38.421875 6.59375 43.015625 9.90625 
Q 47.609375 13.234375 47.609375 19.390625 
Q 47.609375 24.75 44.3125 27.78125 
Q 41.015625 30.8125 33.5 32.328125 
L 27.484375 33.5 
Q 16.453125 35.6875 11.515625 40.375 
Q 6.59375 45.0625 6.59375 53.421875 
Q 6.59375 63.09375 13.40625 68.65625 
Q 20.21875 74.21875 32.171875 74.21875 
Q 37.3125 74.21875 42.625 73.28125 
Q 47.953125 72.359375 53.515625 70.515625 
z
" id="DejaVuSans-83"/>
      <path d="M 54.890625 33.015625 
L 54.890625 0 
L 45.90625 0 
L 45.90625 32.71875 
Q 45.90625 40.484375 42.875 44.328125 
Q 39.84375 48.1875 33.796875 48.1875 
Q 26.515625 48.1875 22.3125 43.546875 
Q 18.109375 38.921875 18.109375 30.90625 
L 18.109375 0 
L 9.078125 0 
L 9.078125 75.984375 
L 18.109375 75.984375 
L 18.109375 46.1875 
Q 21.34375 51.125 25.703125 53.5625 
Q 30.078125 56 35.796875 56 
Q 45.21875 56 50.046875 50.171875 
Q 54.890625 44.34375 54.890625 33.015625 
z
" id="DejaVuSans-104"/>
      <path d="M 30.609375 48.390625 
Q 23.390625 48.390625 19.1875 42.75 
Q 14.984375 37.109375 14.984375 27.296875 
Q 14.984375 17.484375 19.15625 11.84375 
Q 23.34375 6.203125 30.609375 6.203125 
Q 37.796875 6.203125 41.984375 11.859375 
Q 46.1875 17.53125 46.1875 27.296875 
Q 46.1875 37.015625 41.984375 42.703125 
Q 37.796875 48.390625 30.609375 48.390625 
z
M 30.609375 56 
Q 42.328125 56 49.015625 48.375 
Q 55.71875 40.765625 55.71875 27.296875 
Q 55.71875 13.875 49.015625 6.21875 
Q 42.328125 -1.421875 30.609375 -1.421875 
Q 18.84375 -1.421875 12.171875 6.21875 
Q 5.515625 13.875 5.515625 27.296875 
Q 5.515625 40.765625 12.171875 48.375 
Q 18.84375 56 30.609375 56 
z
" id="DejaVuSans-111"/>
      <path d="M 48.78125 52.59375 
L 48.78125 44.1875 
Q 44.96875 46.296875 41.140625 47.34375 
Q 37.3125 48.390625 33.40625 48.390625 
Q 24.65625 48.390625 19.8125 42.84375 
Q 14.984375 37.3125 14.984375 27.296875 
Q 14.984375 17.28125 19.8125 11.734375 
Q 24.65625 6.203125 33.40625 6.203125 
Q 37.3125 6.203125 41.140625 7.25 
Q 44.96875 8.296875 48.78125 10.40625 
L 48.78125 2.09375 
Q 45.015625 0.34375 40.984375 -0.53125 
Q 36.96875 -1.421875 32.421875 -1.421875 
Q 20.0625 -1.421875 12.78125 6.34375 
Q 5.515625 14.109375 5.515625 27.296875 
Q 5.515625 40.671875 12.859375 48.328125 
Q 20.21875 56 33.015625 56 
Q 37.15625 56 41.109375 55.140625 
Q 45.0625 54.296875 48.78125 52.59375 
z
" id="DejaVuSans-99"/>
      <path d="M 37.109375 75.984375 
L 37.109375 68.5 
L 28.515625 68.5 
Q 23.6875 68.5 21.796875 66.546875 
Q 19.921875 64.59375 19.921875 59.515625 
L 19.921875 54.6875 
L 34.71875 54.6875 
L 34.71875 47.703125 
L 19.921875 47.703125 
L 19.921875 0 
L 10.890625 0 
L 10.890625 47.703125 
L 2.296875 47.703125 
L 2.296875 54.6875 
L 10.890625 54.6875 
L 10.890625 58.5 
Q 10.890625 67.625 15.140625 71.796875 
Q 19.390625 75.984375 28.609375 75.984375 
z
" id="DejaVuSans-102"/>
      <path d="M 3.328125 72.90625 
L 13.28125 72.90625 
L 28.609375 11.28125 
L 43.890625 72.90625 
L 54.984375 72.90625 
L 70.3125 11.28125 
L 85.59375 72.90625 
L 95.609375 72.90625 
L 77.296875 0 
L 64.890625 0 
L 49.515625 63.28125 
L 33.984375 0 
L 21.578125 0 
z
" id="DejaVuSans-87"/>
      <path d="M 54.890625 33.015625 
L 54.890625 0 
L 45.90625 0 
L 45.90625 32.71875 
Q 45.90625 40.484375 42.875 44.328125 
Q 39.84375 48.1875 33.796875 48.1875 
Q 26.515625 48.1875 22.3125 43.546875 
Q 18.109375 38.921875 18.109375 30.90625 
L 18.109375 0 
L 9.078125 0 
L 9.078125 54.6875 
L 18.109375 54.6875 
L 18.109375 46.1875 
Q 21.34375 51.125 25.703125 53.5625 
Q 30.078125 56 35.796875 56 
Q 45.21875 56 50.046875 50.171875 
Q 54.890625 44.34375 54.890625 33.015625 
z
" id="DejaVuSans-110"/>
      <path d="M 45.40625 46.390625 
L 45.40625 75.984375 
L 54.390625 75.984375 
L 54.390625 0 
L 45.40625 0 
L 45.40625 8.203125 
Q 42.578125 3.328125 38.25 0.953125 
Q 33.9375 -1.421875 27.875 -1.421875 
Q 17.96875 -1.421875 11.734375 6.484375 
Q 5.515625 14.40625 5.515625 27.296875 
Q 5.515625 40.1875 11.734375 48.09375 
Q 17.96875 56 27.875 56 
Q 33.9375 56 38.25 53.625 
Q 42.578125 51.265625 45.40625 46.390625 
z
M 14.796875 27.296875 
Q 14.796875 17.390625 18.875 11.75 
Q 22.953125 6.109375 30.078125 6.109375 
Q 37.203125 6.109375 41.296875 11.75 
Q 45.40625 17.390625 45.40625 27.296875 
Q 45.40625 37.203125 41.296875 42.84375 
Q 37.203125 48.484375 30.078125 48.484375 
Q 22.953125 48.484375 18.875 42.84375 
Q 14.796875 37.203125 14.796875 27.296875 
z
" id="DejaVuSans-100"/>
      <path d="M 34.1875 63.1875 
L 20.796875 26.90625 
L 47.609375 26.90625 
z
M 28.609375 72.90625 
L 39.796875 72.90625 
L 67.578125 0 
L 57.328125 0 
L 50.6875 18.703125 
L 17.828125 18.703125 
L 11.1875 0 
L 0.78125 0 
z
" id="DejaVuSans-65"/>
      <path d="M 9.421875 54.6875 
L 18.40625 54.6875 
L 18.40625 0 
L 9.421875 0 
z
M 9.421875 75.984375 
L 18.40625 75.984375 
L 18.40625 64.59375 
L 9.421875 64.59375 
z
" id="DejaVuSans-105"/>
     </defs>
     <use xlink:href="#DejaVuSans-76"/>
     <use x="55.712891" xlink:href="#DejaVuSans-97"/>
     <use x="116.992188" xlink:href="#DejaVuSans-107"/>
     <use x="171.277344" xlink:href="#DejaVuSans-101"/>
     <use x="232.800781" xlink:href="#DejaVuSans-32"/>
     <use x="264.587891" xlink:href="#DejaVuSans-83"/>
     <use x="328.064453" xlink:href="#DejaVuSans-104"/>
     <use x="391.443359" xlink:href="#DejaVuSans-111"/>
     <use x="452.625" xlink:href="#DejaVuSans-101"/>
     <use x="514.148438" xlink:href="#DejaVuSans-99"/>
     <use x="569.128906" xlink:href="#DejaVuSans-114"/>
     <use x="610.242188" xlink:href="#DejaVuSans-97"/>
     <use x="671.521484" xlink:href="#DejaVuSans-102"/>
     <use x="704.976562" xlink:href="#DejaVuSans-116"/>
     <use x="744.185547" xlink:href="#DejaVuSans-32"/>
     <use x="775.972656" xlink:href="#DejaVuSans-45"/>
     <use x="812.056641" xlink:href="#DejaVuSans-32"/>
     <use x="843.84375" xlink:href="#DejaVuSans-87"/>
     <use x="936.345703" xlink:href="#DejaVuSans-97"/>
     <use x="997.625" xlink:href="#DejaVuSans-116"/>
     <use x="1036.833984" xlink:href="#DejaVuSans-101"/>
     <use x="1098.357422" xlink:href="#DejaVuSans-114"/>
     <use x="1139.470703" xlink:href="#DejaVuSans-32"/>
     <use x="1171.257812" xlink:href="#DejaVuSans-97"/>
     <use x="1232.537109" xlink:href="#DejaVuSans-110"/>
     <use x="1295.916016" xlink:href="#DejaVuSans-100"/>
     <use x="1359.392578" xlink:href="#DejaVuSans-32"/>
     <use x="1391.179688" xlink:href="#DejaVuSans-65"/>
     <use x="1459.587891" xlink:href="#DejaVuSans-105"/>
     <use x="1487.371094" xlink:href="#DejaVuSans-114"/>
     <use x="1528.484375" xlink:href="#DejaVuSans-32"/>
     <use x="1560.271484" xlink:href="#DejaVuSans-84"/>
     <use x="1604.355469" xlink:href="#DejaVuSans-101"/>
     <use x="1665.878906" xlink:href="#DejaVuSans-109"/>
     <use x="1763.291016" xlink:href="#DejaVuSans-112"/>
     <use x="1826.767578" xlink:href="#DejaVuSans-101"/>
     <use x="1888.291016" xlink:href="#DejaVuSans-114"/>
     <use x="1929.404297" xlink:href="#DejaVuSans-97"/>
     <use x="1990.683594" xlink:href="#DejaVuSans-116"/>
     <use x="2029.892578" xlink:href="#DejaVuSans-117"/>
     <use x="2093.271484" xlink:href="#DejaVuSans-114"/>
     <use x="2132.134766" xlink:href="#DejaVuSans-101"/>
    </g>
   </g>
   <g id="legend_1">
    <g id="patch_7">
     <path d="M 51.66 62.79625 
L 136.769375 62.79625 
Q 138.769375 62.79625 138.769375 60.79625 
L 138.769375 32.44 
Q 138.769375 30.44 136.769375 30.44 
L 51.66 30.44 
Q 49.66 30.44 49.66 32.44 
L 49.66 60.79625 
Q 49.66 62.79625 51.66 62.79625 
z
" style="fill:#ffffff;opacity:0.8;stroke:#cccccc;stroke-linejoin:miter;"/>
    </g>
    <g id="line2d_33">
     <path d="M 53.66 38.538437 
L 73.66 38.538437 
" style="fill:none;stroke:#1f77b4;stroke-linecap:square;stroke-width:1.5;"/>
    </g>
    <g id="line2d_34"/>
    <g id="text_19">
     <!-- Lake Temp -->
     <g transform="translate(81.66 42.038437)scale(0.1 -0.1)">
      <use xlink:href="#DejaVuSans-76"/>
      <use x="55.712891" xlink:href="#DejaVuSans-97"/>
      <use x="116.992188" xlink:href="#DejaVuSans-107"/>
      <use x="171.277344" xlink:href="#DejaVuSans-101"/>
      <use x="232.800781" xlink:href="#DejaVuSans-32"/>
      <use x="264.587891" xlink:href="#DejaVuSans-84"/>
      <use x="308.671875" xlink:href="#DejaVuSans-101"/>
      <use x="370.195312" xlink:href="#DejaVuSans-109"/>
      <use x="467.607422" xlink:href="#DejaVuSans-112"/>
     </g>
    </g>
    <g id="line2d_35">
     <path d="M 53.66 53.216562 
L 73.66 53.216562 
" style="fill:none;stroke:#ff7f0e;stroke-linecap:square;stroke-width:1.5;"/>
    </g>
    <g id="line2d_36"/>
    <g id="text_20">
     <!-- Air Temp -->
     <g transform="translate(81.66 56.716562)scale(0.1 -0.1)">
      <use xlink:href="#DejaVuSans-65"/>
      <use x="68.408203" xlink:href="#DejaVuSans-105"/>
      <use x="96.191406" xlink:href="#DejaVuSans-114"/>
      <use x="137.304688" xlink:href="#DejaVuSans-32"/>
      <use x="169.091797" xlink:href="#DejaVuSans-84"/>
      <use x="213.175781" xlink:href="#DejaVuSans-101"/>
      <use x="274.699219" xlink:href="#DejaVuSans-109"/>
      <use x="372.111328" xlink:href="#DejaVuSans-112"/>
     </g>
    </g>
   </g>
  </g>
 </g>
 <defs>
  <clipPath id="pc480cbeefe">
   <rect height="230.198708" width="405.34" x="44.66" y="25.44"/>
  </clipPath>
 </defs>
</svg>
