<?xml version="1.0" encoding="utf-8" standalone="no"?>
<!DOCTYPE svg PUBLIC "-//W3C//DTD SVG 1.1//EN"
  "http://www.w3.org/Graphics/SVG/1.1/DTD/svg11.dtd">
<!-- Created with matplotlib (https://matplotlib.org/) -->
<svg height="345.6pt" version="1.1" viewBox="0 0 460.8 345.6" width="460.8pt" xmlns="http://www.w3.org/2000/svg" xmlns:xlink="http://www.w3.org/1999/xlink">
 <metadata>
  <rdf:RDF xmlns:cc="http://creativecommons.org/ns#" xmlns:dc="http://purl.org/dc/elements/1.1/" xmlns:rdf="http://www.w3.org/1999/02/22-rdf-syntax-ns#">
   <cc:Work>
    <dc:type rdf:resource="http://purl.org/dc/dcmitype/StillImage"/>
    <dc:date>2024-09-02T22:55:38.010910</dc:date>
    <dc:format>image/svg+xml</dc:format>
    <dc:creator>
     <cc:Agent>
      <dc:title>Matplotlib v3.3.2, https://matplotlib.org/</dc:title>
     </cc:Agent>
    </dc:creator>
   </cc:Work>
  </rdf:RDF>
 </metadata>
 <defs>
  <style type="text/css">*{stroke-linecap:butt;stroke-linejoin:round;}</style>
 </defs>
 <g id="figure_1">
  <g id="patch_1">
   <path d="M 0 345.6 
L 460.8 345.6 
L 460.8 0 
L 0 0 
z
" style="fill:none;"/>
  </g>
  <g id="axes_1">
   <g id="patch_2">
    <path d="M 44.66 255.638708 
L 449.247065 255.638708 
L 449.247065 25.44 
L 44.66 25.44 
z
" style="fill:none;"/>
   </g>
   <g id="matplotlib.axis_1">
    <g id="xtick_1">
     <g id="line2d_1">
      <path clip-path="url(#pbd2c596d4b)" d="M 87.448931 255.638708 
L 87.448931 25.44 
" style="fill:none;stroke:#b0b0b0;stroke-linecap:square;stroke-width:0.8;"/>
     </g>
     <g id="line2d_2">
      <defs>
       <path d="M 0 0 
L 0 3.5 
" id="m389268610b" style="stroke:#000000;stroke-width:0.8;"/>
      </defs>
      <g>
       <use style="stroke:#000000;stroke-width:0.8;" x="87.448931" xlink:href="#m389268610b" y="255.638708"/>
      </g>
     </g>
     <g id="text_1">
      <!-- 2024-08-28 -->
      <g transform="translate(80.103538 319.848351)rotate(-70)scale(0.1 -0.1)">
       <defs>
        <path d="M 19.1875 8.296875 
L 53.609375 8.296875 
L 53.609375 0 
L 7.328125 0 
L 7.328125 8.296875 
Q 12.9375 14.109375 22.625 23.890625 
Q 32.328125 33.6875 34.8125 36.53125 
Q 39.546875 41.84375 41.421875 45.53125 
Q 43.3125 49.21875 43.3125 52.78125 
Q 43.3125 58.59375 39.234375 62.25 
Q 35.15625 65.921875 28.609375 65.921875 
Q 23.96875 65.921875 18.8125 64.3125 
Q 13.671875 62.703125 7.8125 59.421875 
L 7.8125 69.390625 
Q 13.765625 71.78125 18.9375 73 
Q 24.125 74.21875 28.421875 74.21875 
Q 39.75 74.21875 46.484375 68.546875 
Q 53.21875 62.890625 53.21875 53.421875 
Q 53.21875 48.921875 51.53125 44.890625 
Q 49.859375 40.875 45.40625 35.40625 
Q 44.1875 33.984375 37.640625 27.21875 
Q 31.109375 20.453125 19.1875 8.296875 
z
" id="DejaVuSans-50"/>
        <path d="M 31.78125 66.40625 
Q 24.171875 66.40625 20.328125 58.90625 
Q 16.5 51.421875 16.5 36.375 
Q 16.5 21.390625 20.328125 13.890625 
Q 24.171875 6.390625 31.78125 6.390625 
Q 39.453125 6.390625 43.28125 13.890625 
Q 47.125 21.390625 47.125 36.375 
Q 47.125 51.421875 43.28125 58.90625 
Q 39.453125 66.40625 31.78125 66.40625 
z
M 31.78125 74.21875 
Q 44.046875 74.21875 50.515625 64.515625 
Q 56.984375 54.828125 56.984375 36.375 
Q 56.984375 17.96875 50.515625 8.265625 
Q 44.046875 -1.421875 31.78125 -1.421875 
Q 19.53125 -1.421875 13.0625 8.265625 
Q 6.59375 17.96875 6.59375 36.375 
Q 6.59375 54.828125 13.0625 64.515625 
Q 19.53125 74.21875 31.78125 74.21875 
z
" id="DejaVuSans-48"/>
        <path d="M 37.796875 64.3125 
L 12.890625 25.390625 
L 37.796875 25.390625 
z
M 35.203125 72.90625 
L 47.609375 72.90625 
L 47.609375 25.390625 
L 58.015625 25.390625 
L 58.015625 17.1875 
L 47.609375 17.1875 
L 47.609375 0 
L 37.796875 0 
L 37.796875 17.1875 
L 4.890625 17.1875 
L 4.890625 26.703125 
z
" id="DejaVuSans-52"/>
        <path d="M 4.890625 31.390625 
L 31.203125 31.390625 
L 31.203125 23.390625 
L 4.890625 23.390625 
z
" id="DejaVuSans-45"/>
        <path d="M 31.78125 34.625 
Q 24.75 34.625 20.71875 30.859375 
Q 16.703125 27.09375 16.703125 20.515625 
Q 16.703125 13.921875 20.71875 10.15625 
Q 24.75 6.390625 31.78125 6.390625 
Q 38.8125 6.390625 42.859375 10.171875 
Q 46.921875 13.96875 46.921875 20.515625 
Q 46.921875 27.09375 42.890625 30.859375 
Q 38.875 34.625 31.78125 34.625 
z
M 21.921875 38.8125 
Q 15.578125 40.375 12.03125 44.71875 
Q 8.5 49.078125 8.5 55.328125 
Q 8.5 64.0625 14.71875 69.140625 
Q 20.953125 74.21875 31.78125 74.21875 
Q 42.671875 74.21875 48.875 69.140625 
Q 55.078125 64.0625 55.078125 55.328125 
Q 55.078125 49.078125 51.53125 44.71875 
Q 48 40.375 41.703125 38.8125 
Q 48.828125 37.15625 52.796875 32.3125 
Q 56.78125 27.484375 56.78125 20.515625 
Q 56.78125 9.90625 50.3125 4.234375 
Q 43.84375 -1.421875 31.78125 -1.421875 
Q 19.734375 -1.421875 13.25 4.234375 
Q 6.78125 9.90625 6.78125 20.515625 
Q 6.78125 27.484375 10.78125 32.3125 
Q 14.796875 37.15625 21.921875 38.8125 
z
M 18.3125 54.390625 
Q 18.3125 48.734375 21.84375 45.5625 
Q 25.390625 42.390625 31.78125 42.390625 
Q 38.140625 42.390625 41.71875 45.5625 
Q 45.3125 48.734375 45.3125 54.390625 
Q 45.3125 60.0625 41.71875 63.234375 
Q 38.140625 66.40625 31.78125 66.40625 
Q 25.390625 66.40625 21.84375 63.234375 
Q 18.3125 60.0625 18.3125 54.390625 
z
" id="DejaVuSans-56"/>
       </defs>
       <use xlink:href="#DejaVuSans-50"/>
       <use x="63.623047" xlink:href="#DejaVuSans-48"/>
       <use x="127.246094" xlink:href="#DejaVuSans-50"/>
       <use x="190.869141" xlink:href="#DejaVuSans-52"/>
       <use x="254.492188" xlink:href="#DejaVuSans-45"/>
       <use x="290.576172" xlink:href="#DejaVuSans-48"/>
       <use x="354.199219" xlink:href="#DejaVuSans-56"/>
       <use x="417.822266" xlink:href="#DejaVuSans-45"/>
       <use x="453.90625" xlink:href="#DejaVuSans-50"/>
       <use x="517.529297" xlink:href="#DejaVuSans-56"/>
      </g>
     </g>
    </g>
    <g id="xtick_2">
     <g id="line2d_3">
      <path clip-path="url(#pbd2c596d4b)" d="M 145.119189 255.638708 
L 145.119189 25.44 
" style="fill:none;stroke:#b0b0b0;stroke-linecap:square;stroke-width:0.8;"/>
     </g>
     <g id="line2d_4">
      <g>
       <use style="stroke:#000000;stroke-width:0.8;" x="145.119189" xlink:href="#m389268610b" y="255.638708"/>
      </g>
     </g>
     <g id="text_2">
      <!-- 2024-08-29 -->
      <g transform="translate(137.773796 319.848351)rotate(-70)scale(0.1 -0.1)">
       <defs>
        <path d="M 10.984375 1.515625 
L 10.984375 10.5 
Q 14.703125 8.734375 18.5 7.8125 
Q 22.3125 6.890625 25.984375 6.890625 
Q 35.75 6.890625 40.890625 13.453125 
Q 46.046875 20.015625 46.78125 33.40625 
Q 43.953125 29.203125 39.59375 26.953125 
Q 35.25 24.703125 29.984375 24.703125 
Q 19.046875 24.703125 12.671875 31.3125 
Q 6.296875 37.9375 6.296875 49.421875 
Q 6.296875 60.640625 12.9375 67.421875 
Q 19.578125 74.21875 30.609375 74.21875 
Q 43.265625 74.21875 49.921875 64.515625 
Q 56.59375 54.828125 56.59375 36.375 
Q 56.59375 19.140625 48.40625 8.859375 
Q 40.234375 -1.421875 26.421875 -1.421875 
Q 22.703125 -1.421875 18.890625 -0.6875 
Q 15.09375 0.046875 10.984375 1.515625 
z
M 30.609375 32.421875 
Q 37.25 32.421875 41.125 36.953125 
Q 45.015625 41.5 45.015625 49.421875 
Q 45.015625 57.28125 41.125 61.84375 
Q 37.25 66.40625 30.609375 66.40625 
Q 23.96875 66.40625 20.09375 61.84375 
Q 16.21875 57.28125 16.21875 49.421875 
Q 16.21875 41.5 20.09375 36.953125 
Q 23.96875 32.421875 30.609375 32.421875 
z
" id="DejaVuSans-57"/>
       </defs>
       <use xlink:href="#DejaVuSans-50"/>
       <use x="63.623047" xlink:href="#DejaVuSans-48"/>
       <use x="127.246094" xlink:href="#DejaVuSans-50"/>
       <use x="190.869141" xlink:href="#DejaVuSans-52"/>
       <use x="254.492188" xlink:href="#DejaVuSans-45"/>
       <use x="290.576172" xlink:href="#DejaVuSans-48"/>
       <use x="354.199219" xlink:href="#DejaVuSans-56"/>
       <use x="417.822266" xlink:href="#DejaVuSans-45"/>
       <use x="453.90625" xlink:href="#DejaVuSans-50"/>
       <use x="517.529297" xlink:href="#DejaVuSans-57"/>
      </g>
     </g>
    </g>
    <g id="xtick_3">
     <g id="line2d_5">
      <path clip-path="url(#pbd2c596d4b)" d="M 202.789447 255.638708 
L 202.789447 25.44 
" style="fill:none;stroke:#b0b0b0;stroke-linecap:square;stroke-width:0.8;"/>
     </g>
     <g id="line2d_6">
      <g>
       <use style="stroke:#000000;stroke-width:0.8;" x="202.789447" xlink:href="#m389268610b" y="255.638708"/>
      </g>
     </g>
     <g id="text_3">
      <!-- 2024-08-30 -->
      <g transform="translate(195.444054 319.848351)rotate(-70)scale(0.1 -0.1)">
       <defs>
        <path d="M 40.578125 39.3125 
Q 47.65625 37.796875 51.625 33 
Q 55.609375 28.21875 55.609375 21.1875 
Q 55.609375 10.40625 48.1875 4.484375 
Q 40.765625 -1.421875 27.09375 -1.421875 
Q 22.515625 -1.421875 17.65625 -0.515625 
Q 12.796875 0.390625 7.625 2.203125 
L 7.625 11.71875 
Q 11.71875 9.328125 16.59375 8.109375 
Q 21.484375 6.890625 26.8125 6.890625 
Q 36.078125 6.890625 40.9375 10.546875 
Q 45.796875 14.203125 45.796875 21.1875 
Q 45.796875 27.640625 41.28125 31.265625 
Q 36.765625 34.90625 28.71875 34.90625 
L 20.21875 34.90625 
L 20.21875 43.015625 
L 29.109375 43.015625 
Q 36.375 43.015625 40.234375 45.921875 
Q 44.09375 48.828125 44.09375 54.296875 
Q 44.09375 59.90625 40.109375 62.90625 
Q 36.140625 65.921875 28.71875 65.921875 
Q 24.65625 65.921875 20.015625 65.03125 
Q 15.375 64.15625 9.8125 62.3125 
L 9.8125 71.09375 
Q 15.4375 72.65625 20.34375 73.4375 
Q 25.25 74.21875 29.59375 74.21875 
Q 40.828125 74.21875 47.359375 69.109375 
Q 53.90625 64.015625 53.90625 55.328125 
Q 53.90625 49.265625 50.4375 45.09375 
Q 46.96875 40.921875 40.578125 39.3125 
z
" id="DejaVuSans-51"/>
       </defs>
       <use xlink:href="#DejaVuSans-50"/>
       <use x="63.623047" xlink:href="#DejaVuSans-48"/>
       <use x="127.246094" xlink:href="#DejaVuSans-50"/>
       <use x="190.869141" xlink:href="#DejaVuSans-52"/>
       <use x="254.492188" xlink:href="#DejaVuSans-45"/>
       <use x="290.576172" xlink:href="#DejaVuSans-48"/>
       <use x="354.199219" xlink:href="#DejaVuSans-56"/>
       <use x="417.822266" xlink:href="#DejaVuSans-45"/>
       <use x="453.90625" xlink:href="#DejaVuSans-51"/>
       <use x="517.529297" xlink:href="#DejaVuSans-48"/>
      </g>
     </g>
    </g>
    <g id="xtick_4">
     <g id="line2d_7">
      <path clip-path="url(#pbd2c596d4b)" d="M 260.459705 255.638708 
L 260.459705 25.44 
" style="fill:none;stroke:#b0b0b0;stroke-linecap:square;stroke-width:0.8;"/>
     </g>
     <g id="line2d_8">
      <g>
       <use style="stroke:#000000;stroke-width:0.8;" x="260.459705" xlink:href="#m389268610b" y="255.638708"/>
      </g>
     </g>
     <g id="text_4">
      <!-- 2024-08-31 -->
      <g transform="translate(253.114312 319.848351)rotate(-70)scale(0.1 -0.1)">
       <defs>
        <path d="M 12.40625 8.296875 
L 28.515625 8.296875 
L 28.515625 63.921875 
L 10.984375 60.40625 
L 10.984375 69.390625 
L 28.421875 72.90625 
L 38.28125 72.90625 
L 38.28125 8.296875 
L 54.390625 8.296875 
L 54.390625 0 
L 12.40625 0 
z
" id="DejaVuSans-49"/>
       </defs>
       <use xlink:href="#DejaVuSans-50"/>
       <use x="63.623047" xlink:href="#DejaVuSans-48"/>
       <use x="127.246094" xlink:href="#DejaVuSans-50"/>
       <use x="190.869141" xlink:href="#DejaVuSans-52"/>
       <use x="254.492188" xlink:href="#DejaVuSans-45"/>
       <use x="290.576172" xlink:href="#DejaVuSans-48"/>
       <use x="354.199219" xlink:href="#DejaVuSans-56"/>
       <use x="417.822266" xlink:href="#DejaVuSans-45"/>
       <use x="453.90625" xlink:href="#DejaVuSans-51"/>
       <use x="517.529297" xlink:href="#DejaVuSans-49"/>
      </g>
     </g>
    </g>
    <g id="xtick_5">
     <g id="line2d_9">
      <path clip-path="url(#pbd2c596d4b)" d="M 318.129963 255.638708 
L 318.129963 25.44 
" style="fill:none;stroke:#b0b0b0;stroke-linecap:square;stroke-width:0.8;"/>
     </g>
     <g id="line2d_10">
      <g>
       <use style="stroke:#000000;stroke-width:0.8;" x="318.129963" xlink:href="#m389268610b" y="255.638708"/>
      </g>
     </g>
     <g id="text_5">
      <!-- 2024-09-01 -->
      <g transform="translate(310.78457 319.848351)rotate(-70)scale(0.1 -0.1)">
       <use xlink:href="#DejaVuSans-50"/>
       <use x="63.623047" xlink:href="#DejaVuSans-48"/>
       <use x="127.246094" xlink:href="#DejaVuSans-50"/>
       <use x="190.869141" xlink:href="#DejaVuSans-52"/>
       <use x="254.492188" xlink:href="#DejaVuSans-45"/>
       <use x="290.576172" xlink:href="#DejaVuSans-48"/>
       <use x="354.199219" xlink:href="#DejaVuSans-57"/>
       <use x="417.822266" xlink:href="#DejaVuSans-45"/>
       <use x="453.90625" xlink:href="#DejaVuSans-48"/>
       <use x="517.529297" xlink:href="#DejaVuSans-49"/>
      </g>
     </g>
    </g>
    <g id="xtick_6">
     <g id="line2d_11">
      <path clip-path="url(#pbd2c596d4b)" d="M 375.800221 255.638708 
L 375.800221 25.44 
" style="fill:none;stroke:#b0b0b0;stroke-linecap:square;stroke-width:0.8;"/>
     </g>
     <g id="line2d_12">
      <g>
       <use style="stroke:#000000;stroke-width:0.8;" x="375.800221" xlink:href="#m389268610b" y="255.638708"/>
      </g>
     </g>
     <g id="text_6">
      <!-- 2024-09-02 -->
      <g transform="translate(368.454828 319.848351)rotate(-70)scale(0.1 -0.1)">
       <use xlink:href="#DejaVuSans-50"/>
       <use x="63.623047" xlink:href="#DejaVuSans-48"/>
       <use x="127.246094" xlink:href="#DejaVuSans-50"/>
       <use x="190.869141" xlink:href="#DejaVuSans-52"/>
       <use x="254.492188" xlink:href="#DejaVuSans-45"/>
       <use x="290.576172" xlink:href="#DejaVuSans-48"/>
       <use x="354.199219" xlink:href="#DejaVuSans-57"/>
       <use x="417.822266" xlink:href="#DejaVuSans-45"/>
       <use x="453.90625" xlink:href="#DejaVuSans-48"/>
       <use x="517.529297" xlink:href="#DejaVuSans-50"/>
      </g>
     </g>
    </g>
    <g id="xtick_7">
     <g id="line2d_13">
      <path clip-path="url(#pbd2c596d4b)" d="M 433.470479 255.638708 
L 433.470479 25.44 
" style="fill:none;stroke:#b0b0b0;stroke-linecap:square;stroke-width:0.8;"/>
     </g>
     <g id="line2d_14">
      <g>
       <use style="stroke:#000000;stroke-width:0.8;" x="433.470479" xlink:href="#m389268610b" y="255.638708"/>
      </g>
     </g>
     <g id="text_7">
      <!-- 2024-09-03 -->
      <g transform="translate(426.125086 319.848351)rotate(-70)scale(0.1 -0.1)">
       <use xlink:href="#DejaVuSans-50"/>
       <use x="63.623047" xlink:href="#DejaVuSans-48"/>
       <use x="127.246094" xlink:href="#DejaVuSans-50"/>
       <use x="190.869141" xlink:href="#DejaVuSans-52"/>
       <use x="254.492188" xlink:href="#DejaVuSans-45"/>
       <use x="290.576172" xlink:href="#DejaVuSans-48"/>
       <use x="354.199219" xlink:href="#DejaVuSans-57"/>
       <use x="417.822266" xlink:href="#DejaVuSans-45"/>
       <use x="453.90625" xlink:href="#DejaVuSans-48"/>
       <use x="517.529297" xlink:href="#DejaVuSans-51"/>
      </g>
     </g>
    </g>
    <g id="text_8">
     <!-- Date -->
     <g transform="translate(235.002751 332.158083)scale(0.1 -0.1)">
      <defs>
       <path d="M 19.671875 64.796875 
L 19.671875 8.109375 
L 31.59375 8.109375 
Q 46.6875 8.109375 53.6875 14.9375 
Q 60.6875 21.78125 60.6875 36.53125 
Q 60.6875 51.171875 53.6875 57.984375 
Q 46.6875 64.796875 31.59375 64.796875 
z
M 9.8125 72.90625 
L 30.078125 72.90625 
Q 51.265625 72.90625 61.171875 64.09375 
Q 71.09375 55.28125 71.09375 36.53125 
Q 71.09375 17.671875 61.125 8.828125 
Q 51.171875 0 30.078125 0 
L 9.8125 0 
z
" id="DejaVuSans-68"/>
       <path d="M 34.28125 27.484375 
Q 23.390625 27.484375 19.1875 25 
Q 14.984375 22.515625 14.984375 16.5 
Q 14.984375 11.71875 18.140625 8.90625 
Q 21.296875 6.109375 26.703125 6.109375 
Q 34.1875 6.109375 38.703125 11.40625 
Q 43.21875 16.703125 43.21875 25.484375 
L 43.21875 27.484375 
z
M 52.203125 31.203125 
L 52.203125 0 
L 43.21875 0 
L 43.21875 8.296875 
Q 40.140625 3.328125 35.546875 0.953125 
Q 30.953125 -1.421875 24.3125 -1.421875 
Q 15.921875 -1.421875 10.953125 3.296875 
Q 6 8.015625 6 15.921875 
Q 6 25.140625 12.171875 29.828125 
Q 18.359375 34.515625 30.609375 34.515625 
L 43.21875 34.515625 
L 43.21875 35.40625 
Q 43.21875 41.609375 39.140625 45 
Q 35.0625 48.390625 27.6875 48.390625 
Q 23 48.390625 18.546875 47.265625 
Q 14.109375 46.140625 10.015625 43.890625 
L 10.015625 52.203125 
Q 14.9375 54.109375 19.578125 55.046875 
Q 24.21875 56 28.609375 56 
Q 40.484375 56 46.34375 49.84375 
Q 52.203125 43.703125 52.203125 31.203125 
z
" id="DejaVuSans-97"/>
       <path d="M 18.3125 70.21875 
L 18.3125 54.6875 
L 36.8125 54.6875 
L 36.8125 47.703125 
L 18.3125 47.703125 
L 18.3125 18.015625 
Q 18.3125 11.328125 20.140625 9.421875 
Q 21.96875 7.515625 27.59375 7.515625 
L 36.8125 7.515625 
L 36.8125 0 
L 27.59375 0 
Q 17.1875 0 13.234375 3.875 
Q 9.28125 7.765625 9.28125 18.015625 
L 9.28125 47.703125 
L 2.6875 47.703125 
L 2.6875 54.6875 
L 9.28125 54.6875 
L 9.28125 70.21875 
z
" id="DejaVuSans-116"/>
       <path d="M 56.203125 29.59375 
L 56.203125 25.203125 
L 14.890625 25.203125 
Q 15.484375 15.921875 20.484375 11.0625 
Q 25.484375 6.203125 34.421875 6.203125 
Q 39.59375 6.203125 44.453125 7.46875 
Q 49.3125 8.734375 54.109375 11.28125 
L 54.109375 2.78125 
Q 49.265625 0.734375 44.1875 -0.34375 
Q 39.109375 -1.421875 33.890625 -1.421875 
Q 20.796875 -1.421875 13.15625 6.1875 
Q 5.515625 13.8125 5.515625 26.8125 
Q 5.515625 40.234375 12.765625 48.109375 
Q 20.015625 56 32.328125 56 
Q 43.359375 56 49.78125 48.890625 
Q 56.203125 41.796875 56.203125 29.59375 
z
M 47.21875 32.234375 
Q 47.125 39.59375 43.09375 43.984375 
Q 39.0625 48.390625 32.421875 48.390625 
Q 24.90625 48.390625 20.390625 44.140625 
Q 15.875 39.890625 15.1875 32.171875 
z
" id="DejaVuSans-101"/>
      </defs>
      <use xlink:href="#DejaVuSans-68"/>
      <use x="77.001953" xlink:href="#DejaVuSans-97"/>
      <use x="138.28125" xlink:href="#DejaVuSans-116"/>
      <use x="177.490234" xlink:href="#DejaVuSans-101"/>
     </g>
    </g>
   </g>
   <g id="matplotlib.axis_2">
    <g id="ytick_1">
     <g id="line2d_15">
      <path clip-path="url(#pbd2c596d4b)" d="M 44.66 232.095658 
L 449.247065 232.095658 
" style="fill:none;stroke:#b0b0b0;stroke-linecap:square;stroke-width:0.8;"/>
     </g>
     <g id="line2d_16">
      <defs>
       <path d="M 0 0 
L -3.5 0 
" id="m1aecdabb6b" style="stroke:#000000;stroke-width:0.8;"/>
      </defs>
      <g>
       <use style="stroke:#000000;stroke-width:0.8;" x="44.66" xlink:href="#m1aecdabb6b" y="232.095658"/>
      </g>
     </g>
     <g id="text_9">
      <!-- 60 -->
      <g transform="translate(24.935 235.894877)scale(0.1 -0.1)">
       <defs>
        <path d="M 33.015625 40.375 
Q 26.375 40.375 22.484375 35.828125 
Q 18.609375 31.296875 18.609375 23.390625 
Q 18.609375 15.53125 22.484375 10.953125 
Q 26.375 6.390625 33.015625 6.390625 
Q 39.65625 6.390625 43.53125 10.953125 
Q 47.40625 15.53125 47.40625 23.390625 
Q 47.40625 31.296875 43.53125 35.828125 
Q 39.65625 40.375 33.015625 40.375 
z
M 52.59375 71.296875 
L 52.59375 62.3125 
Q 48.875 64.0625 45.09375 64.984375 
Q 41.3125 65.921875 37.59375 65.921875 
Q 27.828125 65.921875 22.671875 59.328125 
Q 17.53125 52.734375 16.796875 39.40625 
Q 19.671875 43.65625 24.015625 45.921875 
Q 28.375 48.1875 33.59375 48.1875 
Q 44.578125 48.1875 50.953125 41.515625 
Q 57.328125 34.859375 57.328125 23.390625 
Q 57.328125 12.15625 50.6875 5.359375 
Q 44.046875 -1.421875 33.015625 -1.421875 
Q 20.359375 -1.421875 13.671875 8.265625 
Q 6.984375 17.96875 6.984375 36.375 
Q 6.984375 53.65625 15.1875 63.9375 
Q 23.390625 74.21875 37.203125 74.21875 
Q 40.921875 74.21875 44.703125 73.484375 
Q 48.484375 72.75 52.59375 71.296875 
z
" id="DejaVuSans-54"/>
       </defs>
       <use xlink:href="#DejaVuSans-54"/>
       <use x="63.623047" xlink:href="#DejaVuSans-48"/>
      </g>
     </g>
    </g>
    <g id="ytick_2">
     <g id="line2d_17">
      <path clip-path="url(#pbd2c596d4b)" d="M 44.66 205.936714 
L 449.247065 205.936714 
" style="fill:none;stroke:#b0b0b0;stroke-linecap:square;stroke-width:0.8;"/>
     </g>
     <g id="line2d_18">
      <g>
       <use style="stroke:#000000;stroke-width:0.8;" x="44.66" xlink:href="#m1aecdabb6b" y="205.936714"/>
      </g>
     </g>
     <g id="text_10">
      <!-- 62 -->
      <g transform="translate(24.935 209.735933)scale(0.1 -0.1)">
       <use xlink:href="#DejaVuSans-54"/>
       <use x="63.623047" xlink:href="#DejaVuSans-50"/>
      </g>
     </g>
    </g>
    <g id="ytick_3">
     <g id="line2d_19">
      <path clip-path="url(#pbd2c596d4b)" d="M 44.66 179.77777 
L 449.247065 179.77777 
" style="fill:none;stroke:#b0b0b0;stroke-linecap:square;stroke-width:0.8;"/>
     </g>
     <g id="line2d_20">
      <g>
       <use style="stroke:#000000;stroke-width:0.8;" x="44.66" xlink:href="#m1aecdabb6b" y="179.77777"/>
      </g>
     </g>
     <g id="text_11">
      <!-- 64 -->
      <g transform="translate(24.935 183.576989)scale(0.1 -0.1)">
       <use xlink:href="#DejaVuSans-54"/>
       <use x="63.623047" xlink:href="#DejaVuSans-52"/>
      </g>
     </g>
    </g>
    <g id="ytick_4">
     <g id="line2d_21">
      <path clip-path="url(#pbd2c596d4b)" d="M 44.66 153.618826 
L 449.247065 153.618826 
" style="fill:none;stroke:#b0b0b0;stroke-linecap:square;stroke-width:0.8;"/>
     </g>
     <g id="line2d_22">
      <g>
       <use style="stroke:#000000;stroke-width:0.8;" x="44.66" xlink:href="#m1aecdabb6b" y="153.618826"/>
      </g>
     </g>
     <g id="text_12">
      <!-- 66 -->
      <g transform="translate(24.935 157.418045)scale(0.1 -0.1)">
       <use xlink:href="#DejaVuSans-54"/>
       <use x="63.623047" xlink:href="#DejaVuSans-54"/>
      </g>
     </g>
    </g>
    <g id="ytick_5">
     <g id="line2d_23">
      <path clip-path="url(#pbd2c596d4b)" d="M 44.66 127.459882 
L 449.247065 127.459882 
" style="fill:none;stroke:#b0b0b0;stroke-linecap:square;stroke-width:0.8;"/>
     </g>
     <g id="line2d_24">
      <g>
       <use style="stroke:#000000;stroke-width:0.8;" x="44.66" xlink:href="#m1aecdabb6b" y="127.459882"/>
      </g>
     </g>
     <g id="text_13">
      <!-- 68 -->
      <g transform="translate(24.935 131.259101)scale(0.1 -0.1)">
       <use xlink:href="#DejaVuSans-54"/>
       <use x="63.623047" xlink:href="#DejaVuSans-56"/>
      </g>
     </g>
    </g>
    <g id="ytick_6">
     <g id="line2d_25">
      <path clip-path="url(#pbd2c596d4b)" d="M 44.66 101.300938 
L 449.247065 101.300938 
" style="fill:none;stroke:#b0b0b0;stroke-linecap:square;stroke-width:0.8;"/>
     </g>
     <g id="line2d_26">
      <g>
       <use style="stroke:#000000;stroke-width:0.8;" x="44.66" xlink:href="#m1aecdabb6b" y="101.300938"/>
      </g>
     </g>
     <g id="text_14">
      <!-- 70 -->
      <g transform="translate(24.935 105.100157)scale(0.1 -0.1)">
       <defs>
        <path d="M 8.203125 72.90625 
L 55.078125 72.90625 
L 55.078125 68.703125 
L 28.609375 0 
L 18.3125 0 
L 43.21875 64.59375 
L 8.203125 64.59375 
z
" id="DejaVuSans-55"/>
       </defs>
       <use xlink:href="#DejaVuSans-55"/>
       <use x="63.623047" xlink:href="#DejaVuSans-48"/>
      </g>
     </g>
    </g>
    <g id="ytick_7">
     <g id="line2d_27">
      <path clip-path="url(#pbd2c596d4b)" d="M 44.66 75.141994 
L 449.247065 75.141994 
" style="fill:none;stroke:#b0b0b0;stroke-linecap:square;stroke-width:0.8;"/>
     </g>
     <g id="line2d_28">
      <g>
       <use style="stroke:#000000;stroke-width:0.8;" x="44.66" xlink:href="#m1aecdabb6b" y="75.141994"/>
      </g>
     </g>
     <g id="text_15">
      <!-- 72 -->
      <g transform="translate(24.935 78.941213)scale(0.1 -0.1)">
       <use xlink:href="#DejaVuSans-55"/>
       <use x="63.623047" xlink:href="#DejaVuSans-50"/>
      </g>
     </g>
    </g>
    <g id="ytick_8">
     <g id="line2d_29">
      <path clip-path="url(#pbd2c596d4b)" d="M 44.66 48.98305 
L 449.247065 48.98305 
" style="fill:none;stroke:#b0b0b0;stroke-linecap:square;stroke-width:0.8;"/>
     </g>
     <g id="line2d_30">
      <g>
       <use style="stroke:#000000;stroke-width:0.8;" x="44.66" xlink:href="#m1aecdabb6b" y="48.98305"/>
      </g>
     </g>
     <g id="text_16">
      <!-- 74 -->
      <g transform="translate(24.935 52.782268)scale(0.1 -0.1)">
       <use xlink:href="#DejaVuSans-55"/>
       <use x="63.623047" xlink:href="#DejaVuSans-52"/>
      </g>
     </g>
    </g>
    <g id="text_17">
     <!-- Temperature [F] -->
     <g transform="translate(18.855313 180.575291)rotate(-90)scale(0.1 -0.1)">
      <defs>
       <path d="M -0.296875 72.90625 
L 61.375 72.90625 
L 61.375 64.59375 
L 35.5 64.59375 
L 35.5 0 
L 25.59375 0 
L 25.59375 64.59375 
L -0.296875 64.59375 
z
" id="DejaVuSans-84"/>
       <path d="M 52 44.1875 
Q 55.375 50.25 60.0625 53.125 
Q 64.75 56 71.09375 56 
Q 79.640625 56 84.28125 50.015625 
Q 88.921875 44.046875 88.921875 33.015625 
L 88.921875 0 
L 79.890625 0 
L 79.890625 32.71875 
Q 79.890625 40.578125 77.09375 44.375 
Q 74.3125 48.1875 68.609375 48.1875 
Q 61.625 48.1875 57.5625 43.546875 
Q 53.515625 38.921875 53.515625 30.90625 
L 53.515625 0 
L 44.484375 0 
L 44.484375 32.71875 
Q 44.484375 40.625 41.703125 44.40625 
Q 38.921875 48.1875 33.109375 48.1875 
Q 26.21875 48.1875 22.15625 43.53125 
Q 18.109375 38.875 18.109375 30.90625 
L 18.109375 0 
L 9.078125 0 
L 9.078125 54.6875 
L 18.109375 54.6875 
L 18.109375 46.1875 
Q 21.1875 51.21875 25.484375 53.609375 
Q 29.78125 56 35.6875 56 
Q 41.65625 56 45.828125 52.96875 
Q 50 49.953125 52 44.1875 
z
" id="DejaVuSans-109"/>
       <path d="M 18.109375 8.203125 
L 18.109375 -20.796875 
L 9.078125 -20.796875 
L 9.078125 54.6875 
L 18.109375 54.6875 
L 18.109375 46.390625 
Q 20.953125 51.265625 25.265625 53.625 
Q 29.59375 56 35.59375 56 
Q 45.5625 56 51.78125 48.09375 
Q 58.015625 40.1875 58.015625 27.296875 
Q 58.015625 14.40625 51.78125 6.484375 
Q 45.5625 -1.421875 35.59375 -1.421875 
Q 29.59375 -1.421875 25.265625 0.953125 
Q 20.953125 3.328125 18.109375 8.203125 
z
M 48.6875 27.296875 
Q 48.6875 37.203125 44.609375 42.84375 
Q 40.53125 48.484375 33.40625 48.484375 
Q 26.265625 48.484375 22.1875 42.84375 
Q 18.109375 37.203125 18.109375 27.296875 
Q 18.109375 17.390625 22.1875 11.75 
Q 26.265625 6.109375 33.40625 6.109375 
Q 40.53125 6.109375 44.609375 11.75 
Q 48.6875 17.390625 48.6875 27.296875 
z
" id="DejaVuSans-112"/>
       <path d="M 41.109375 46.296875 
Q 39.59375 47.171875 37.8125 47.578125 
Q 36.03125 48 33.890625 48 
Q 26.265625 48 22.1875 43.046875 
Q 18.109375 38.09375 18.109375 28.8125 
L 18.109375 0 
L 9.078125 0 
L 9.078125 54.6875 
L 18.109375 54.6875 
L 18.109375 46.1875 
Q 20.953125 51.171875 25.484375 53.578125 
Q 30.03125 56 36.53125 56 
Q 37.453125 56 38.578125 55.875 
Q 39.703125 55.765625 41.0625 55.515625 
z
" id="DejaVuSans-114"/>
       <path d="M 8.5 21.578125 
L 8.5 54.6875 
L 17.484375 54.6875 
L 17.484375 21.921875 
Q 17.484375 14.15625 20.5 10.265625 
Q 23.53125 6.390625 29.59375 6.390625 
Q 36.859375 6.390625 41.078125 11.03125 
Q 45.3125 15.671875 45.3125 23.6875 
L 45.3125 54.6875 
L 54.296875 54.6875 
L 54.296875 0 
L 45.3125 0 
L 45.3125 8.40625 
Q 42.046875 3.421875 37.71875 1 
Q 33.40625 -1.421875 27.6875 -1.421875 
Q 18.265625 -1.421875 13.375 4.4375 
Q 8.5 10.296875 8.5 21.578125 
z
M 31.109375 56 
z
" id="DejaVuSans-117"/>
       <path id="DejaVuSans-32"/>
       <path d="M 8.59375 75.984375 
L 29.296875 75.984375 
L 29.296875 69 
L 17.578125 69 
L 17.578125 -6.203125 
L 29.296875 -6.203125 
L 29.296875 -13.1875 
L 8.59375 -13.1875 
z
" id="DejaVuSans-91"/>
       <path d="M 9.8125 72.90625 
L 51.703125 72.90625 
L 51.703125 64.59375 
L 19.671875 64.59375 
L 19.671875 43.109375 
L 48.578125 43.109375 
L 48.578125 34.8125 
L 19.671875 34.8125 
L 19.671875 0 
L 9.8125 0 
z
" id="DejaVuSans-70"/>
       <path d="M 30.421875 75.984375 
L 30.421875 -13.1875 
L 9.71875 -13.1875 
L 9.71875 -6.203125 
L 21.390625 -6.203125 
L 21.390625 69 
L 9.71875 69 
L 9.71875 75.984375 
z
" id="DejaVuSans-93"/>
      </defs>
      <use xlink:href="#DejaVuSans-84"/>
      <use x="44.083984" xlink:href="#DejaVuSans-101"/>
      <use x="105.607422" xlink:href="#DejaVuSans-109"/>
      <use x="203.019531" xlink:href="#DejaVuSans-112"/>
      <use x="266.496094" xlink:href="#DejaVuSans-101"/>
      <use x="328.019531" xlink:href="#DejaVuSans-114"/>
      <use x="369.132812" xlink:href="#DejaVuSans-97"/>
      <use x="430.412109" xlink:href="#DejaVuSans-116"/>
      <use x="469.621094" xlink:href="#DejaVuSans-117"/>
      <use x="533" xlink:href="#DejaVuSans-114"/>
      <use x="571.863281" xlink:href="#DejaVuSans-101"/>
      <use x="633.386719" xlink:href="#DejaVuSans-32"/>
      <use x="665.173828" xlink:href="#DejaVuSans-91"/>
      <use x="704.1875" xlink:href="#DejaVuSans-70"/>
      <use x="761.707031" xlink:href="#DejaVuSans-93"/>
     </g>
    </g>
   </g>
   <g id="line2d_31">
    <path clip-path="url(#pbd2c596d4b)" d="M 63.050321 115.688357 
L 63.13834 115.688357 
L 63.221289 114.38041 
L 63.305082 115.688357 
L 63.429759 114.38041 
L 63.554548 114.38041 
L 63.596153 115.688357 
L 63.638508 114.38041 
L 63.680072 113.072463 
L 63.721471 114.38041 
L 63.762923 114.38041 
L 63.888875 113.072463 
L 64.057367 113.072463 
L 64.184357 111.764515 
L 64.312915 113.072463 
L 64.354304 113.072463 
L 64.437592 114.38041 
L 64.565809 111.764515 
L 64.607342 114.38041 
L 64.648979 111.764515 
L 64.776547 111.764515 
L 64.903784 109.148621 
L 64.946463 109.148621 
L 64.987813 111.764515 
L 65.030068 107.840674 
L 65.071515 107.840674 
L 65.114054 109.148621 
L 65.156146 107.840674 
L 65.365723 107.840674 
L 65.45081 106.532727 
L 65.536533 107.840674 
L 65.578996 106.532727 
L 65.704451 109.148621 
L 65.746006 109.148621 
L 65.83078 106.532727 
L 65.874517 107.840674 
L 65.959867 106.532727 
L 66.085538 107.840674 
L 66.169064 107.840674 
L 66.253612 109.148621 
L 66.295059 107.840674 
L 66.339334 109.148621 
L 66.466301 109.148621 
L 66.680244 105.224779 
L 66.805833 106.532727 
L 66.847617 106.532727 
L 66.891861 107.840674 
L 67.021421 105.224779 
L 67.106659 105.224779 
L 67.150193 103.916832 
L 67.191706 105.224779 
L 67.233732 105.224779 
L 67.275889 106.532727 
L 67.433229 105.224779 
L 67.516276 105.224779 
L 67.60222 103.916832 
L 67.732038 106.532727 
L 67.775794 105.224779 
L 67.818785 106.532727 
L 67.860195 106.532727 
L 67.903447 109.148621 
L 67.989711 107.840674 
L 68.077971 109.148621 
L 68.171584 109.148621 
L 68.213228 111.764515 
L 68.25565 109.148621 
L 68.423448 109.148621 
L 68.46543 107.840674 
L 68.506864 109.148621 
L 68.548475 109.148621 
L 68.593732 107.840674 
L 68.635764 109.148621 
L 68.679157 109.148621 
L 68.805147 107.840674 
L 68.89149 111.764515 
L 69.017771 107.840674 
L 69.108435 111.764515 
L 69.191224 109.148621 
L 69.232825 111.764515 
L 69.274574 107.840674 
L 69.52757 114.38041 
L 69.613555 109.148621 
L 69.698147 116.996304 
L 69.741726 113.072463 
L 69.867847 107.840674 
L 70.000946 114.38041 
L 70.042366 111.764515 
L 70.129192 116.996304 
L 70.215417 113.072463 
L 70.346889 116.996304 
L 70.429538 115.688357 
L 70.558664 118.304252 
L 70.601563 116.996304 
L 70.642904 118.304252 
L 71.06619 118.304252 
L 71.193068 119.612199 
L 71.235261 119.612199 
L 71.363254 118.304252 
L 71.447641 119.612199 
L 71.530793 116.996304 
L 71.661401 119.612199 
L 71.787966 114.38041 
L 71.875162 122.228093 
L 71.917136 119.612199 
L 72.087748 119.612199 
L 72.175293 115.688357 
L 72.216705 119.612199 
L 72.258702 118.304252 
L 72.343921 115.688357 
L 72.38549 116.996304 
L 72.469461 115.688357 
L 72.598661 116.996304 
L 72.640664 115.688357 
L 72.682001 116.996304 
L 72.725234 118.304252 
L 72.767118 114.38041 
L 72.809307 118.304252 
L 72.89533 119.612199 
L 72.981278 116.996304 
L 73.022563 118.304252 
L 73.064015 118.304252 
L 73.105304 116.996304 
L 73.190421 119.612199 
L 73.232714 116.996304 
L 73.31577 118.304252 
L 73.528348 118.304252 
L 73.659787 119.612199 
L 73.786028 118.304252 
L 73.917941 119.612199 
L 74.003527 116.996304 
L 74.045757 118.304252 
L 74.17134 118.304252 
L 74.297505 119.612199 
L 74.803612 119.612199 
L 74.931026 122.228093 
L 74.974477 119.612199 
L 75.01583 122.228093 
L 75.743778 122.228093 
L 75.832662 123.53604 
L 75.95972 122.228093 
L 76.084956 123.53604 
L 76.126431 122.228093 
L 76.167718 123.53604 
L 77.013175 123.53604 
L 77.055222 124.843988 
L 77.096848 123.53604 
L 183.673691 124.843988 
L 183.71674 123.53604 
L 184.221104 119.612199 
L 184.262928 123.53604 
L 184.350632 122.228093 
L 184.439347 123.53604 
L 184.482039 119.612199 
L 184.584569 123.53604 
L 184.784125 118.304252 
L 184.915196 114.38041 
L 185.054386 118.304252 
L 185.290247 122.228093 
L 185.5093 122.228093 
L 185.550696 123.53604 
L 185.637429 119.612199 
L 185.680072 122.228093 
L 185.723419 118.304252 
L 185.769327 118.304252 
L 185.904327 107.840674 
L 186.025665 118.304252 
L 186.067187 115.688357 
L 186.202906 119.612199 
L 186.250616 116.996304 
L 186.335628 118.304252 
L 186.48327 122.228093 
L 186.619511 118.304252 
L 186.754512 119.612199 
L 186.795936 119.612199 
L 186.842208 116.996304 
L 186.926561 118.304252 
L 186.968768 116.996304 
L 187.0113 106.532727 
L 187.052596 118.304252 
L 187.094 111.764515 
L 187.221357 119.612199 
L 187.262698 115.688357 
L 187.347558 114.38041 
L 187.389554 105.224779 
L 187.475838 109.148621 
L 187.517253 107.840674 
L 187.558624 109.148621 
L 187.788994 122.228093 
L 187.87177 116.996304 
L 187.940875 118.304252 
L 188.07101 116.996304 
L 188.113889 116.996304 
L 188.157724 115.688357 
L 188.199327 116.996304 
L 188.370101 122.228093 
L 188.546922 116.996304 
L 188.632023 116.996304 
L 188.774236 106.532727 
L 188.918521 119.612199 
L 188.963264 116.996304 
L 189.004489 119.612199 
L 189.057469 122.228093 
L 189.187918 116.996304 
L 189.356474 122.228093 
L 189.397765 118.304252 
L 189.440743 119.612199 
L 189.610916 119.612199 
L 189.653987 116.996304 
L 189.698762 118.304252 
L 189.78676 123.53604 
L 189.829366 122.228093 
L 189.954757 118.304252 
L 189.99836 119.612199 
L 190.043392 111.764515 
L 190.13128 114.38041 
L 190.174454 113.072463 
L 190.261549 118.304252 
L 190.303162 115.688357 
L 190.347822 114.38041 
L 190.3891 115.688357 
L 190.514734 116.996304 
L 190.557698 116.996304 
L 190.600315 118.304252 
L 190.642123 116.996304 
L 190.819778 116.996304 
L 190.903427 118.304252 
L 190.946076 115.688357 
L 190.98744 116.996304 
L 191.070658 118.304252 
L 191.111959 116.996304 
L 191.15338 118.304252 
L 191.239357 118.304252 
L 191.36341 119.612199 
L 191.448336 119.612199 
L 191.575269 122.228093 
L 191.658504 122.228093 
L 191.784222 123.53604 
L 192.418835 123.53604 
L 192.54633 124.843988 
L 192.672627 123.53604 
L 193.013574 123.53604 
L 193.055308 118.304252 
L 193.096841 123.53604 
L 193.138383 123.53604 
L 193.265381 122.228093 
L 193.355065 123.53604 
L 193.397833 122.228093 
L 193.441034 123.53604 
L 193.56747 123.53604 
L 193.609648 122.228093 
L 193.65127 123.53604 
L 193.776427 123.53604 
L 193.904319 124.843988 
L 193.947388 123.53604 
L 193.98879 124.843988 
L 194.891672 124.843988 
L 194.936689 126.151935 
L 194.978166 124.843988 
L 195.120818 123.53604 
L 195.647081 123.53604 
L 195.771651 122.228093 
L 195.813766 123.53604 
L 195.860054 122.228093 
L 196.497691 122.228093 
L 196.539084 123.53604 
L 196.581367 122.228093 
L 197.00622 122.228093 
L 197.135758 123.53604 
L 197.259951 122.228093 
L 197.468329 122.228093 
L 197.593847 123.53604 
L 197.721453 122.228093 
L 197.847223 123.53604 
L 197.973572 123.53604 
L 198.056726 122.228093 
L 198.098049 123.53604 
L 198.139468 122.228093 
L 198.222737 122.228093 
L 198.34685 123.53604 
L 198.482867 122.228093 
L 198.943567 122.228093 
L 365.572293 85.605571 
L 365.66856 88.221466 
L 365.869856 88.221466 
L 365.911566 85.605571 
L 365.95434 88.221466 
L 366.133688 88.221466 
L 366.176703 85.605571 
L 366.218227 88.221466 
L 366.651258 88.221466 
L 366.736706 89.529413 
L 366.866248 88.221466 
L 367.040568 88.221466 
L 367.08426 89.529413 
L 367.133775 88.221466 
L 367.225373 88.221466 
L 367.351797 89.529413 
L 367.480539 89.529413 
L 367.523192 88.221466 
L 367.564558 89.529413 
L 367.773928 89.529413 
L 367.89944 88.221466 
L 368.044787 89.529413 
L 368.996424 89.529413 
L 369.038286 90.83736 
L 369.07955 89.529413 
L 369.16227 89.529413 
L 369.204626 90.83736 
L 369.247046 89.529413 
L 369.33139 89.529413 
L 369.417092 90.83736 
L 369.5484 89.529413 
L 369.722296 89.529413 
L 369.805789 90.83736 
L 369.847237 89.529413 
L 369.888862 90.83736 
L 370.695843 90.83736 
L 370.737625 92.145307 
L 370.779047 90.83736 
L 370.995292 90.83736 
L 371.041525 92.145307 
L 371.103911 90.83736 
L 371.533162 90.83736 
L 371.621804 92.145307 
L 371.664744 90.83736 
L 371.707859 92.145307 
L 373.505425 92.145307 
L 373.548859 93.453255 
L 373.592354 92.145307 
L 374.019707 92.145307 
L 374.10665 93.453255 
L 374.239112 92.145307 
L 374.281947 93.453255 
L 374.32325 92.145307 
L 374.409095 92.145307 
L 374.536701 93.453255 
L 375.185085 93.453255 
L 375.384661 94.761202 
L 375.51 93.453255 
L 376.786645 93.453255 
L 376.827913 92.145307 
L 376.870546 93.453255 
L 377.214815 93.453255 
L 377.256481 92.145307 
L 377.30105 93.453255 
L 377.385636 93.453255 
L 377.5116 92.145307 
L 377.637 93.453255 
L 378.320178 93.453255 
L 378.361495 94.761202 
L 378.402752 93.453255 
L 379.241219 93.453255 
L 379.283777 92.145307 
L 379.325918 93.453255 
L 379.493872 93.453255 
L 379.549393 92.145307 
L 379.596062 93.453255 
L 380.019533 93.453255 
L 380.062158 92.145307 
L 380.104902 93.453255 
L 381.509402 93.453255 
L 381.550935 94.761202 
L 381.592544 93.453255 
L 381.637655 93.453255 
L 381.764025 94.761202 
L 381.939271 93.453255 
L 382.125083 94.761202 
L 382.251698 93.453255 
L 382.338655 93.453255 
L 382.46535 94.761202 
L 382.507226 94.761202 
L 382.594133 93.453255 
L 382.635699 94.761202 
L 382.677808 93.453255 
L 382.889717 93.453255 
L 383.014093 94.761202 
L 383.800359 94.761202 
L 383.842169 96.069149 
L 383.883606 94.761202 
L 384.443231 94.761202 
L 384.572442 96.069149 
L 384.701113 94.761202 
L 384.828024 96.069149 
L 384.960013 94.761202 
L 385.090987 96.069149 
L 385.179378 96.069149 
L 385.224149 94.761202 
L 385.265839 96.069149 
L 386.637966 96.069149 
L 386.680765 98.685043 
L 386.723976 96.069149 
L 386.80675 96.069149 
L 386.855413 98.685043 
L 386.896974 96.069149 
L 387.505174 96.069149 
L 387.588886 98.685043 
L 387.719163 96.069149 
L 388.027218 96.069149 
L 388.153926 98.685043 
L 388.197808 98.685043 
L 388.322976 96.069149 
L 388.448515 98.685043 
L 388.577762 96.069149 
L 388.704341 98.685043 
L 388.839001 96.069149 
L 388.880496 96.069149 
L 388.96395 98.685043 
L 389.007342 96.069149 
L 389.05016 98.685043 
L 389.091568 98.685043 
L 389.132854 96.069149 
L 389.175797 98.685043 
L 389.262414 98.685043 
L 389.305377 96.069149 
L 389.351222 98.685043 
L 390.625337 98.685043 
L 390.756506 99.992991 
L 390.892683 98.685043 
L 391.019378 98.685043 
L 391.062785 99.992991 
L 391.104769 98.685043 
L 391.566038 98.685043 
L 391.696222 99.992991 
L 391.737574 99.992991 
L 391.864166 98.685043 
L 391.993408 99.992991 
L 393.488828 99.992991 
L 393.614954 101.300938 
L 393.702186 99.992991 
L 393.829347 101.300938 
L 393.912852 99.992991 
L 394.037747 101.300938 
L 394.925566 101.300938 
L 395.055782 99.992991 
L 395.097602 99.992991 
L 395.22361 101.300938 
L 397.011827 101.300938 
L 397.053346 102.608885 
L 397.233586 101.300938 
L 398.643861 101.300938 
L 398.686959 102.608885 
L 398.731758 101.300938 
L 398.821557 102.608885 
L 398.9505 101.300938 
L 399.094819 102.608885 
L 400.309396 102.608885 
L 400.350858 101.300938 
L 400.395699 102.608885 
L 400.654441 102.608885 
L 400.781138 101.300938 
L 400.911914 102.608885 
L 400.997099 102.608885 
L 401.127855 101.300938 
L 401.381452 101.300938 
L 401.422755 102.608885 
L 401.465244 101.300938 
L 401.636727 101.300938 
L 401.768346 102.608885 
L 401.811812 102.608885 
L 401.939951 101.300938 
L 402.318949 101.300938 
L 402.360398 102.608885 
L 402.407818 101.300938 
L 402.452737 101.300938 
L 402.496719 102.608885 
L 402.540443 101.300938 
L 404.018763 101.300938 
L 404.060141 99.992991 
L 404.104 101.300938 
L 404.145344 101.300938 
L 404.273848 99.992991 
L 404.575235 99.992991 
L 404.661395 98.685043 
L 404.790386 99.992991 
L 404.963492 99.992991 
L 405.059199 98.685043 
L 405.187773 99.992991 
L 405.231878 98.685043 
L 405.273356 99.992991 
L 406.521875 99.992991 
L 406.565306 98.685043 
L 406.606869 99.992991 
L 406.651874 99.992991 
L 406.776952 98.685043 
L 406.832498 98.685043 
L 406.874233 99.992991 
L 406.91609 98.685043 
L 407.129975 98.685043 
L 407.258935 96.069149 
L 407.730064 96.069149 
L 407.813658 94.761202 
L 407.94111 96.069149 
L 408.875229 96.069149 
L 409.001274 94.761202 
L 409.130503 96.069149 
L 409.256094 96.069149 
L 409.382646 94.761202 
L 409.424671 96.069149 
L 409.466309 94.761202 
L 409.551145 94.761202 
L 409.592877 93.453255 
L 409.634218 94.761202 
L 409.675745 94.761202 
L 409.803679 93.453255 
L 409.888674 94.761202 
L 409.929977 93.453255 
L 409.971487 94.761202 
L 410.096546 94.761202 
L 410.183423 93.453255 
L 410.224666 94.761202 
L 410.266004 93.453255 
L 410.307284 93.453255 
L 410.435478 94.761202 
L 410.581381 93.453255 
L 410.752868 93.453255 
L 410.882896 94.761202 
L 410.924327 93.453255 
L 410.965677 94.761202 
L 411.009872 94.761202 
L 411.138879 93.453255 
L 411.183584 93.453255 
L 411.318928 94.761202 
L 411.538064 94.761202 
L 411.579538 93.453255 
L 411.623111 94.761202 
L 412.267132 94.761202 
L 412.396235 93.453255 
L 412.437724 93.453255 
L 412.523255 94.761202 
L 412.652366 93.453255 
L 412.698744 93.453255 
L 412.789546 94.761202 
L 412.831006 93.453255 
L 412.872444 94.761202 
L 412.916644 94.761202 
L 412.961228 93.453255 
L 413.004188 94.761202 
L 413.049608 94.761202 
L 413.093131 93.453255 
L 413.135854 94.761202 
L 413.222778 94.761202 
L 413.354712 93.453255 
L 413.487755 93.453255 
L 413.617306 94.761202 
L 413.701899 94.761202 
L 413.785945 93.453255 
L 414.178443 93.453255 
L 414.225338 94.761202 
L 414.266821 93.453255 
L 414.501593 93.453255 
L 414.544088 94.761202 
L 414.586807 93.453255 
L 414.961102 93.453255 
L 415.002465 90.83736 
L 415.08728 92.145307 
L 415.212369 92.145307 
L 415.339867 93.453255 
L 415.550918 93.453255 
L 415.634467 94.761202 
L 415.760982 92.145307 
L 415.887546 93.453255 
L 416.014794 92.145307 
L 416.056242 93.453255 
L 416.099766 92.145307 
L 416.228403 92.145307 
L 416.355893 93.453255 
L 416.878771 93.453255 
L 416.920322 94.761202 
L 416.964325 93.453255 
L 417.006548 93.453255 
L 417.136513 92.145307 
L 417.264579 93.453255 
L 417.865209 93.453255 
L 417.991949 94.761202 
L 418.119655 94.761202 
L 418.162968 93.453255 
L 418.204369 94.761202 
L 418.75317 94.761202 
L 418.797914 93.453255 
L 418.839364 94.761202 
L 418.880824 94.761202 
L 418.923557 93.453255 
L 419.105463 94.761202 
L 419.629791 94.761202 
L 419.753961 96.069149 
L 419.879905 94.761202 
L 420.094567 94.761202 
L 420.138595 93.453255 
L 420.179996 94.761202 
L 420.736304 94.761202 
L 420.779095 96.069149 
L 420.820505 94.761202 
L 421.439083 94.761202 
L 421.522814 96.069149 
L 421.654183 94.761202 
L 421.782108 94.761202 
L 421.914519 96.069149 
L 422.642553 96.069149 
L 422.727328 94.761202 
L 422.858419 96.069149 
L 422.942721 96.069149 
L 422.986808 94.761202 
L 423.030791 96.069149 
L 424.242363 96.069149 
L 424.285432 98.685043 
L 424.473526 96.069149 
L 424.615737 98.685043 
L 424.6571 96.069149 
L 424.710352 98.685043 
L 424.751891 98.685043 
L 424.794008 96.069149 
L 424.83673 98.685043 
L 424.925029 98.685043 
L 424.966518 96.069149 
L 425.009848 98.685043 
L 425.051183 98.685043 
L 425.092652 96.069149 
L 425.1341 98.685043 
L 425.405299 98.685043 
L 425.450255 96.069149 
L 425.494298 98.685043 
L 425.537197 98.685043 
L 425.578529 96.069149 
L 425.770556 98.685043 
L 426.85797 98.685043 
L 427.011792 99.992991 
L 427.097645 98.685043 
L 427.185136 99.992991 
L 427.27193 98.685043 
L 427.400391 99.992991 
L 427.526849 98.685043 
L 427.672096 99.992991 
L 428.783549 99.992991 
L 428.824871 101.300938 
L 428.866512 99.992991 
L 429.634075 99.992991 
L 429.675633 101.300938 
L 429.718592 99.992991 
L 429.804024 99.992991 
L 429.931733 101.300938 
L 429.973905 99.992991 
L 430.017361 101.300938 
L 430.102907 101.300938 
L 430.235058 99.992991 
L 430.277225 99.992991 
L 430.415199 101.300938 
L 430.856744 101.300938 
L 430.856744 101.300938 
" style="fill:none;stroke:#1f77b4;stroke-linecap:square;stroke-width:1.5;"/>
   </g>
   <g id="line2d_32">
    <path clip-path="url(#pbd2c596d4b)" d="M 63.050321 204.628767 
L 66.934814 204.628767 
L 67.062806 153.618826 
L 71.363254 153.618826 
L 71.489301 168.006245 
L 74.340641 168.006245 
L 74.465644 192.857242 
L 75.95972 192.857242 
L 76.084956 219.016186 
L 77.096848 219.016186 
L 183.614128 35.903578 
L 189.270589 35.903578 
L 189.397765 62.062522 
L 191.827577 62.062522 
L 191.95639 86.913519 
L 194.16063 86.913519 
L 194.286718 153.618826 
L 197.552417 153.618826 
L 197.677419 192.857242 
L 198.943567 192.857242 
L 365.66856 50.290997 
L 367.310379 50.290997 
L 367.395014 101.300938 
L 369.632813 101.300938 
L 369.763802 153.618826 
L 374.493334 153.618826 
L 374.620401 179.77777 
L 379.283777 179.77777 
L 379.411343 192.857242 
L 382.297367 192.857242 
L 382.423394 204.628767 
L 384.181873 204.628767 
L 384.313641 230.787711 
L 386.341927 230.787711 
L 386.46649 245.17513 
L 387.803385 245.17513 
L 387.932094 221.632081 
L 388.880496 221.632081 
L 389.007342 230.787711 
L 391.019378 230.787711 
L 391.104769 219.016186 
L 397.053346 219.016186 
L 397.233586 221.632081 
L 398.545119 221.632081 
L 398.686959 219.016186 
L 400.739144 219.016186 
L 400.868624 204.628767 
L 405.568464 204.628767 
L 405.695065 192.857242 
L 408.237728 192.857242 
L 408.365908 179.77777 
L 409.717035 179.77777 
L 409.846979 174.545981 
L 410.350843 174.545981 
L 410.488508 168.006245 
L 415.254363 168.006245 
L 415.381091 153.618826 
L 422.942721 153.618826 
L 423.072295 174.545981 
L 425.263546 174.545981 
L 425.405299 179.77777 
L 426.968852 179.77777 
L 427.097645 174.545981 
L 427.400391 174.545981 
L 427.526849 179.77777 
L 430.856744 179.77777 
L 430.856744 179.77777 
" style="fill:none;stroke:#ff7f0e;stroke-linecap:square;stroke-width:1.5;"/>
   </g>
   <g id="patch_3">
    <path d="M 44.66 255.638708 
L 44.66 25.44 
" style="fill:none;stroke:#000000;stroke-linecap:square;stroke-linejoin:miter;stroke-width:0.8;"/>
   </g>
   <g id="patch_4">
    <path d="M 449.247065 255.638708 
L 449.247065 25.44 
" style="fill:none;stroke:#000000;stroke-linecap:square;stroke-linejoin:miter;stroke-width:0.8;"/>
   </g>
   <g id="patch_5">
    <path d="M 44.66 255.638708 
L 449.247065 255.638708 
" style="fill:none;stroke:#000000;stroke-linecap:square;stroke-linejoin:miter;stroke-width:0.8;"/>
   </g>
   <g id="patch_6">
    <path d="M 44.66 25.44 
L 449.247065 25.44 
" style="fill:none;stroke:#000000;stroke-linecap:square;stroke-linejoin:miter;stroke-width:0.8;"/>
   </g>
   <g id="text_18">
    <!-- Lake Shoecraft - Water and Air Temperature -->
    <g transform="translate(115.335095 19.44)scale(0.12 -0.12)">
     <defs>
      <path d="M 9.8125 72.90625 
L 19.671875 72.90625 
L 19.671875 8.296875 
L 55.171875 8.296875 
L 55.171875 0 
L 9.8125 0 
z
" id="DejaVuSans-76"/>
      <path d="M 9.078125 75.984375 
L 18.109375 75.984375 
L 18.109375 31.109375 
L 44.921875 54.6875 
L 56.390625 54.6875 
L 27.390625 29.109375 
L 57.625 0 
L 45.90625 0 
L 18.109375 26.703125 
L 18.109375 0 
L 9.078125 0 
z
" id="DejaVuSans-107"/>
      <path d="M 53.515625 70.515625 
L 53.515625 60.890625 
Q 47.90625 63.578125 42.921875 64.890625 
Q 37.9375 66.21875 33.296875 66.21875 
Q 25.25 66.21875 20.875 63.09375 
Q 16.5 59.96875 16.5 54.203125 
Q 16.5 49.359375 19.40625 46.890625 
Q 22.3125 44.4375 30.421875 42.921875 
L 36.375 41.703125 
Q 47.40625 39.59375 52.65625 34.296875 
Q 57.90625 29 57.90625 20.125 
Q 57.90625 9.515625 50.796875 4.046875 
Q 43.703125 -1.421875 29.984375 -1.421875 
Q 24.8125 -1.421875 18.96875 -0.25 
Q 13.140625 0.921875 6.890625 3.21875 
L 6.890625 13.375 
Q 12.890625 10.015625 18.65625 8.296875 
Q 24.421875 6.59375 29.984375 6.59375 
Q 38.421875 6.59375 43.015625 9.90625 
Q 47.609375 13.234375 47.609375 19.390625 
Q 47.609375 24.75 44.3125 27.78125 
Q 41.015625 30.8125 33.5 32.328125 
L 27.484375 33.5 
Q 16.453125 35.6875 11.515625 40.375 
Q 6.59375 45.0625 6.59375 53.421875 
Q 6.59375 63.09375 13.40625 68.65625 
Q 20.21875 74.21875 32.171875 74.21875 
Q 37.3125 74.21875 42.625 73.28125 
Q 47.953125 72.359375 53.515625 70.515625 
z
" id="DejaVuSans-83"/>
      <path d="M 54.890625 33.015625 
L 54.890625 0 
L 45.90625 0 
L 45.90625 32.71875 
Q 45.90625 40.484375 42.875 44.328125 
Q 39.84375 48.1875 33.796875 48.1875 
Q 26.515625 48.1875 22.3125 43.546875 
Q 18.109375 38.921875 18.109375 30.90625 
L 18.109375 0 
L 9.078125 0 
L 9.078125 75.984375 
L 18.109375 75.984375 
L 18.109375 46.1875 
Q 21.34375 51.125 25.703125 53.5625 
Q 30.078125 56 35.796875 56 
Q 45.21875 56 50.046875 50.171875 
Q 54.890625 44.34375 54.890625 33.015625 
z
" id="DejaVuSans-104"/>
      <path d="M 30.609375 48.390625 
Q 23.390625 48.390625 19.1875 42.75 
Q 14.984375 37.109375 14.984375 27.296875 
Q 14.984375 17.484375 19.15625 11.84375 
Q 23.34375 6.203125 30.609375 6.203125 
Q 37.796875 6.203125 41.984375 11.859375 
Q 46.1875 17.53125 46.1875 27.296875 
Q 46.1875 37.015625 41.984375 42.703125 
Q 37.796875 48.390625 30.609375 48.390625 
z
M 30.609375 56 
Q 42.328125 56 49.015625 48.375 
Q 55.71875 40.765625 55.71875 27.296875 
Q 55.71875 13.875 49.015625 6.21875 
Q 42.328125 -1.421875 30.609375 -1.421875 
Q 18.84375 -1.421875 12.171875 6.21875 
Q 5.515625 13.875 5.515625 27.296875 
Q 5.515625 40.765625 12.171875 48.375 
Q 18.84375 56 30.609375 56 
z
" id="DejaVuSans-111"/>
      <path d="M 48.78125 52.59375 
L 48.78125 44.1875 
Q 44.96875 46.296875 41.140625 47.34375 
Q 37.3125 48.390625 33.40625 48.390625 
Q 24.65625 48.390625 19.8125 42.84375 
Q 14.984375 37.3125 14.984375 27.296875 
Q 14.984375 17.28125 19.8125 11.734375 
Q 24.65625 6.203125 33.40625 6.203125 
Q 37.3125 6.203125 41.140625 7.25 
Q 44.96875 8.296875 48.78125 10.40625 
L 48.78125 2.09375 
Q 45.015625 0.34375 40.984375 -0.53125 
Q 36.96875 -1.421875 32.421875 -1.421875 
Q 20.0625 -1.421875 12.78125 6.34375 
Q 5.515625 14.109375 5.515625 27.296875 
Q 5.515625 40.671875 12.859375 48.328125 
Q 20.21875 56 33.015625 56 
Q 37.15625 56 41.109375 55.140625 
Q 45.0625 54.296875 48.78125 52.59375 
z
" id="DejaVuSans-99"/>
      <path d="M 37.109375 75.984375 
L 37.109375 68.5 
L 28.515625 68.5 
Q 23.6875 68.5 21.796875 66.546875 
Q 19.921875 64.59375 19.921875 59.515625 
L 19.921875 54.6875 
L 34.71875 54.6875 
L 34.71875 47.703125 
L 19.921875 47.703125 
L 19.921875 0 
L 10.890625 0 
L 10.890625 47.703125 
L 2.296875 47.703125 
L 2.296875 54.6875 
L 10.890625 54.6875 
L 10.890625 58.5 
Q 10.890625 67.625 15.140625 71.796875 
Q 19.390625 75.984375 28.609375 75.984375 
z
" id="DejaVuSans-102"/>
      <path d="M 3.328125 72.90625 
L 13.28125 72.90625 
L 28.609375 11.28125 
L 43.890625 72.90625 
L 54.984375 72.90625 
L 70.3125 11.28125 
L 85.59375 72.90625 
L 95.609375 72.90625 
L 77.296875 0 
L 64.890625 0 
L 49.515625 63.28125 
L 33.984375 0 
L 21.578125 0 
z
" id="DejaVuSans-87"/>
      <path d="M 54.890625 33.015625 
L 54.890625 0 
L 45.90625 0 
L 45.90625 32.71875 
Q 45.90625 40.484375 42.875 44.328125 
Q 39.84375 48.1875 33.796875 48.1875 
Q 26.515625 48.1875 22.3125 43.546875 
Q 18.109375 38.921875 18.109375 30.90625 
L 18.109375 0 
L 9.078125 0 
L 9.078125 54.6875 
L 18.109375 54.6875 
L 18.109375 46.1875 
Q 21.34375 51.125 25.703125 53.5625 
Q 30.078125 56 35.796875 56 
Q 45.21875 56 50.046875 50.171875 
Q 54.890625 44.34375 54.890625 33.015625 
z
" id="DejaVuSans-110"/>
      <path d="M 45.40625 46.390625 
L 45.40625 75.984375 
L 54.390625 75.984375 
L 54.390625 0 
L 45.40625 0 
L 45.40625 8.203125 
Q 42.578125 3.328125 38.25 0.953125 
Q 33.9375 -1.421875 27.875 -1.421875 
Q 17.96875 -1.421875 11.734375 6.484375 
Q 5.515625 14.40625 5.515625 27.296875 
Q 5.515625 40.1875 11.734375 48.09375 
Q 17.96875 56 27.875 56 
Q 33.9375 56 38.25 53.625 
Q 42.578125 51.265625 45.40625 46.390625 
z
M 14.796875 27.296875 
Q 14.796875 17.390625 18.875 11.75 
Q 22.953125 6.109375 30.078125 6.109375 
Q 37.203125 6.109375 41.296875 11.75 
Q 45.40625 17.390625 45.40625 27.296875 
Q 45.40625 37.203125 41.296875 42.84375 
Q 37.203125 48.484375 30.078125 48.484375 
Q 22.953125 48.484375 18.875 42.84375 
Q 14.796875 37.203125 14.796875 27.296875 
z
" id="DejaVuSans-100"/>
      <path d="M 34.1875 63.1875 
L 20.796875 26.90625 
L 47.609375 26.90625 
z
M 28.609375 72.90625 
L 39.796875 72.90625 
L 67.578125 0 
L 57.328125 0 
L 50.6875 18.703125 
L 17.828125 18.703125 
L 11.1875 0 
L 0.78125 0 
z
" id="DejaVuSans-65"/>
      <path d="M 9.421875 54.6875 
L 18.40625 54.6875 
L 18.40625 0 
L 9.421875 0 
z
M 9.421875 75.984375 
L 18.40625 75.984375 
L 18.40625 64.59375 
L 9.421875 64.59375 
z
" id="DejaVuSans-105"/>
     </defs>
     <use xlink:href="#DejaVuSans-76"/>
     <use x="55.712891" xlink:href="#DejaVuSans-97"/>
     <use x="116.992188" xlink:href="#DejaVuSans-107"/>
     <use x="171.277344" xlink:href="#DejaVuSans-101"/>
     <use x="232.800781" xlink:href="#DejaVuSans-32"/>
     <use x="264.587891" xlink:href="#DejaVuSans-83"/>
     <use x="328.064453" xlink:href="#DejaVuSans-104"/>
     <use x="391.443359" xlink:href="#DejaVuSans-111"/>
     <use x="452.625" xlink:href="#DejaVuSans-101"/>
     <use x="514.148438" xlink:href="#DejaVuSans-99"/>
     <use x="569.128906" xlink:href="#DejaVuSans-114"/>
     <use x="610.242188" xlink:href="#DejaVuSans-97"/>
     <use x="671.521484" xlink:href="#DejaVuSans-102"/>
     <use x="704.976562" xlink:href="#DejaVuSans-116"/>
     <use x="744.185547" xlink:href="#DejaVuSans-32"/>
     <use x="775.972656" xlink:href="#DejaVuSans-45"/>
     <use x="812.056641" xlink:href="#DejaVuSans-32"/>
     <use x="843.84375" xlink:href="#DejaVuSans-87"/>
     <use x="936.345703" xlink:href="#DejaVuSans-97"/>
     <use x="997.625" xlink:href="#DejaVuSans-116"/>
     <use x="1036.833984" xlink:href="#DejaVuSans-101"/>
     <use x="1098.357422" xlink:href="#DejaVuSans-114"/>
     <use x="1139.470703" xlink:href="#DejaVuSans-32"/>
     <use x="1171.257812" xlink:href="#DejaVuSans-97"/>
     <use x="1232.537109" xlink:href="#DejaVuSans-110"/>
     <use x="1295.916016" xlink:href="#DejaVuSans-100"/>
     <use x="1359.392578" xlink:href="#DejaVuSans-32"/>
     <use x="1391.179688" xlink:href="#DejaVuSans-65"/>
     <use x="1459.587891" xlink:href="#DejaVuSans-105"/>
     <use x="1487.371094" xlink:href="#DejaVuSans-114"/>
     <use x="1528.484375" xlink:href="#DejaVuSans-32"/>
     <use x="1560.271484" xlink:href="#DejaVuSans-84"/>
     <use x="1604.355469" xlink:href="#DejaVuSans-101"/>
     <use x="1665.878906" xlink:href="#DejaVuSans-109"/>
     <use x="1763.291016" xlink:href="#DejaVuSans-112"/>
     <use x="1826.767578" xlink:href="#DejaVuSans-101"/>
     <use x="1888.291016" xlink:href="#DejaVuSans-114"/>
     <use x="1929.404297" xlink:href="#DejaVuSans-97"/>
     <use x="1990.683594" xlink:href="#DejaVuSans-116"/>
     <use x="2029.892578" xlink:href="#DejaVuSans-117"/>
     <use x="2093.271484" xlink:href="#DejaVuSans-114"/>
     <use x="2132.134766" xlink:href="#DejaVuSans-101"/>
    </g>
   </g>
   <g id="legend_1">
    <g id="patch_7">
     <path d="M 51.66 62.79625 
L 136.769375 62.79625 
Q 138.769375 62.79625 138.769375 60.79625 
L 138.769375 32.44 
Q 138.769375 30.44 136.769375 30.44 
L 51.66 30.44 
Q 49.66 30.44 49.66 32.44 
L 49.66 60.79625 
Q 49.66 62.79625 51.66 62.79625 
z
" style="fill:#ffffff;opacity:0.8;stroke:#cccccc;stroke-linejoin:miter;"/>
    </g>
    <g id="line2d_33">
     <path d="M 53.66 38.538437 
L 73.66 38.538437 
" style="fill:none;stroke:#1f77b4;stroke-linecap:square;stroke-width:1.5;"/>
    </g>
    <g id="line2d_34"/>
    <g id="text_19">
     <!-- Lake Temp -->
     <g transform="translate(81.66 42.038437)scale(0.1 -0.1)">
      <use xlink:href="#DejaVuSans-76"/>
      <use x="55.712891" xlink:href="#DejaVuSans-97"/>
      <use x="116.992188" xlink:href="#DejaVuSans-107"/>
      <use x="171.277344" xlink:href="#DejaVuSans-101"/>
      <use x="232.800781" xlink:href="#DejaVuSans-32"/>
      <use x="264.587891" xlink:href="#DejaVuSans-84"/>
      <use x="308.671875" xlink:href="#DejaVuSans-101"/>
      <use x="370.195312" xlink:href="#DejaVuSans-109"/>
      <use x="467.607422" xlink:href="#DejaVuSans-112"/>
     </g>
    </g>
    <g id="line2d_35">
     <path d="M 53.66 53.216562 
L 73.66 53.216562 
" style="fill:none;stroke:#ff7f0e;stroke-linecap:square;stroke-width:1.5;"/>
    </g>
    <g id="line2d_36"/>
    <g id="text_20">
     <!-- Air Temp -->
     <g transform="translate(81.66 56.716562)scale(0.1 -0.1)">
      <use xlink:href="#DejaVuSans-65"/>
      <use x="68.408203" xlink:href="#DejaVuSans-105"/>
      <use x="96.191406" xlink:href="#DejaVuSans-114"/>
      <use x="137.304688" xlink:href="#DejaVuSans-32"/>
      <use x="169.091797" xlink:href="#DejaVuSans-84"/>
      <use x="213.175781" xlink:href="#DejaVuSans-101"/>
      <use x="274.699219" xlink:href="#DejaVuSans-109"/>
      <use x="372.111328" xlink:href="#DejaVuSans-112"/>
     </g>
    </g>
   </g>
  </g>
 </g>
 <defs>
  <clipPath id="pbd2c596d4b">
   <rect height="230.198708" width="404.587065" x="44.66" y="25.44"/>
  </clipPath>
 </defs>
</svg>
