<?xml version="1.0" encoding="utf-8" standalone="no"?>
<!DOCTYPE svg PUBLIC "-//W3C//DTD SVG 1.1//EN"
  "http://www.w3.org/Graphics/SVG/1.1/DTD/svg11.dtd">
<!-- Created with matplotlib (https://matplotlib.org/) -->
<svg height="345.6pt" version="1.1" viewBox="0 0 460.8 345.6" width="460.8pt" xmlns="http://www.w3.org/2000/svg" xmlns:xlink="http://www.w3.org/1999/xlink">
 <metadata>
  <rdf:RDF xmlns:cc="http://creativecommons.org/ns#" xmlns:dc="http://purl.org/dc/elements/1.1/" xmlns:rdf="http://www.w3.org/1999/02/22-rdf-syntax-ns#">
   <cc:Work>
    <dc:type rdf:resource="http://purl.org/dc/dcmitype/StillImage"/>
    <dc:date>2024-09-04T07:56:29.331913</dc:date>
    <dc:format>image/svg+xml</dc:format>
    <dc:creator>
     <cc:Agent>
      <dc:title>Matplotlib v3.3.2, https://matplotlib.org/</dc:title>
     </cc:Agent>
    </dc:creator>
   </cc:Work>
  </rdf:RDF>
 </metadata>
 <defs>
  <style type="text/css">*{stroke-linecap:butt;stroke-linejoin:round;}</style>
 </defs>
 <g id="figure_1">
  <g id="patch_1">
   <path d="M 0 345.6 
L 460.8 345.6 
L 460.8 0 
L 0 0 
z
" style="fill:none;"/>
  </g>
  <g id="axes_1">
   <g id="patch_2">
    <path d="M 44.66 255.638708 
L 450 255.638708 
L 450 25.44 
L 44.66 25.44 
z
" style="fill:none;"/>
   </g>
   <g id="matplotlib.axis_1">
    <g id="xtick_1">
     <g id="line2d_1">
      <path clip-path="url(#p05e978d1b1)" d="M 83.191563 255.638708 
L 83.191563 25.44 
" style="fill:none;stroke:#b0b0b0;stroke-linecap:square;stroke-width:0.8;"/>
     </g>
     <g id="line2d_2">
      <defs>
       <path d="M 0 0 
L 0 3.5 
" id="m6cfb0643ef" style="stroke:#000000;stroke-width:0.8;"/>
      </defs>
      <g>
       <use style="stroke:#000000;stroke-width:0.8;" x="83.191563" xlink:href="#m6cfb0643ef" y="255.638708"/>
      </g>
     </g>
     <g id="text_1">
      <!-- 2024-08-28 -->
      <g transform="translate(75.84617 319.848351)rotate(-70)scale(0.1 -0.1)">
       <defs>
        <path d="M 19.1875 8.296875 
L 53.609375 8.296875 
L 53.609375 0 
L 7.328125 0 
L 7.328125 8.296875 
Q 12.9375 14.109375 22.625 23.890625 
Q 32.328125 33.6875 34.8125 36.53125 
Q 39.546875 41.84375 41.421875 45.53125 
Q 43.3125 49.21875 43.3125 52.78125 
Q 43.3125 58.59375 39.234375 62.25 
Q 35.15625 65.921875 28.609375 65.921875 
Q 23.96875 65.921875 18.8125 64.3125 
Q 13.671875 62.703125 7.8125 59.421875 
L 7.8125 69.390625 
Q 13.765625 71.78125 18.9375 73 
Q 24.125 74.21875 28.421875 74.21875 
Q 39.75 74.21875 46.484375 68.546875 
Q 53.21875 62.890625 53.21875 53.421875 
Q 53.21875 48.921875 51.53125 44.890625 
Q 49.859375 40.875 45.40625 35.40625 
Q 44.1875 33.984375 37.640625 27.21875 
Q 31.109375 20.453125 19.1875 8.296875 
z
" id="DejaVuSans-50"/>
        <path d="M 31.78125 66.40625 
Q 24.171875 66.40625 20.328125 58.90625 
Q 16.5 51.421875 16.5 36.375 
Q 16.5 21.390625 20.328125 13.890625 
Q 24.171875 6.390625 31.78125 6.390625 
Q 39.453125 6.390625 43.28125 13.890625 
Q 47.125 21.390625 47.125 36.375 
Q 47.125 51.421875 43.28125 58.90625 
Q 39.453125 66.40625 31.78125 66.40625 
z
M 31.78125 74.21875 
Q 44.046875 74.21875 50.515625 64.515625 
Q 56.984375 54.828125 56.984375 36.375 
Q 56.984375 17.96875 50.515625 8.265625 
Q 44.046875 -1.421875 31.78125 -1.421875 
Q 19.53125 -1.421875 13.0625 8.265625 
Q 6.59375 17.96875 6.59375 36.375 
Q 6.59375 54.828125 13.0625 64.515625 
Q 19.53125 74.21875 31.78125 74.21875 
z
" id="DejaVuSans-48"/>
        <path d="M 37.796875 64.3125 
L 12.890625 25.390625 
L 37.796875 25.390625 
z
M 35.203125 72.90625 
L 47.609375 72.90625 
L 47.609375 25.390625 
L 58.015625 25.390625 
L 58.015625 17.1875 
L 47.609375 17.1875 
L 47.609375 0 
L 37.796875 0 
L 37.796875 17.1875 
L 4.890625 17.1875 
L 4.890625 26.703125 
z
" id="DejaVuSans-52"/>
        <path d="M 4.890625 31.390625 
L 31.203125 31.390625 
L 31.203125 23.390625 
L 4.890625 23.390625 
z
" id="DejaVuSans-45"/>
        <path d="M 31.78125 34.625 
Q 24.75 34.625 20.71875 30.859375 
Q 16.703125 27.09375 16.703125 20.515625 
Q 16.703125 13.921875 20.71875 10.15625 
Q 24.75 6.390625 31.78125 6.390625 
Q 38.8125 6.390625 42.859375 10.171875 
Q 46.921875 13.96875 46.921875 20.515625 
Q 46.921875 27.09375 42.890625 30.859375 
Q 38.875 34.625 31.78125 34.625 
z
M 21.921875 38.8125 
Q 15.578125 40.375 12.03125 44.71875 
Q 8.5 49.078125 8.5 55.328125 
Q 8.5 64.0625 14.71875 69.140625 
Q 20.953125 74.21875 31.78125 74.21875 
Q 42.671875 74.21875 48.875 69.140625 
Q 55.078125 64.0625 55.078125 55.328125 
Q 55.078125 49.078125 51.53125 44.71875 
Q 48 40.375 41.703125 38.8125 
Q 48.828125 37.15625 52.796875 32.3125 
Q 56.78125 27.484375 56.78125 20.515625 
Q 56.78125 9.90625 50.3125 4.234375 
Q 43.84375 -1.421875 31.78125 -1.421875 
Q 19.734375 -1.421875 13.25 4.234375 
Q 6.78125 9.90625 6.78125 20.515625 
Q 6.78125 27.484375 10.78125 32.3125 
Q 14.796875 37.15625 21.921875 38.8125 
z
M 18.3125 54.390625 
Q 18.3125 48.734375 21.84375 45.5625 
Q 25.390625 42.390625 31.78125 42.390625 
Q 38.140625 42.390625 41.71875 45.5625 
Q 45.3125 48.734375 45.3125 54.390625 
Q 45.3125 60.0625 41.71875 63.234375 
Q 38.140625 66.40625 31.78125 66.40625 
Q 25.390625 66.40625 21.84375 63.234375 
Q 18.3125 60.0625 18.3125 54.390625 
z
" id="DejaVuSans-56"/>
       </defs>
       <use xlink:href="#DejaVuSans-50"/>
       <use x="63.623047" xlink:href="#DejaVuSans-48"/>
       <use x="127.246094" xlink:href="#DejaVuSans-50"/>
       <use x="190.869141" xlink:href="#DejaVuSans-52"/>
       <use x="254.492188" xlink:href="#DejaVuSans-45"/>
       <use x="290.576172" xlink:href="#DejaVuSans-48"/>
       <use x="354.199219" xlink:href="#DejaVuSans-56"/>
       <use x="417.822266" xlink:href="#DejaVuSans-45"/>
       <use x="453.90625" xlink:href="#DejaVuSans-50"/>
       <use x="517.529297" xlink:href="#DejaVuSans-56"/>
      </g>
     </g>
    </g>
    <g id="xtick_2">
     <g id="line2d_3">
      <path clip-path="url(#p05e978d1b1)" d="M 130.717912 255.638708 
L 130.717912 25.44 
" style="fill:none;stroke:#b0b0b0;stroke-linecap:square;stroke-width:0.8;"/>
     </g>
     <g id="line2d_4">
      <g>
       <use style="stroke:#000000;stroke-width:0.8;" x="130.717912" xlink:href="#m6cfb0643ef" y="255.638708"/>
      </g>
     </g>
     <g id="text_2">
      <!-- 2024-08-29 -->
      <g transform="translate(123.372519 319.848351)rotate(-70)scale(0.1 -0.1)">
       <defs>
        <path d="M 10.984375 1.515625 
L 10.984375 10.5 
Q 14.703125 8.734375 18.5 7.8125 
Q 22.3125 6.890625 25.984375 6.890625 
Q 35.75 6.890625 40.890625 13.453125 
Q 46.046875 20.015625 46.78125 33.40625 
Q 43.953125 29.203125 39.59375 26.953125 
Q 35.25 24.703125 29.984375 24.703125 
Q 19.046875 24.703125 12.671875 31.3125 
Q 6.296875 37.9375 6.296875 49.421875 
Q 6.296875 60.640625 12.9375 67.421875 
Q 19.578125 74.21875 30.609375 74.21875 
Q 43.265625 74.21875 49.921875 64.515625 
Q 56.59375 54.828125 56.59375 36.375 
Q 56.59375 19.140625 48.40625 8.859375 
Q 40.234375 -1.421875 26.421875 -1.421875 
Q 22.703125 -1.421875 18.890625 -0.6875 
Q 15.09375 0.046875 10.984375 1.515625 
z
M 30.609375 32.421875 
Q 37.25 32.421875 41.125 36.953125 
Q 45.015625 41.5 45.015625 49.421875 
Q 45.015625 57.28125 41.125 61.84375 
Q 37.25 66.40625 30.609375 66.40625 
Q 23.96875 66.40625 20.09375 61.84375 
Q 16.21875 57.28125 16.21875 49.421875 
Q 16.21875 41.5 20.09375 36.953125 
Q 23.96875 32.421875 30.609375 32.421875 
z
" id="DejaVuSans-57"/>
       </defs>
       <use xlink:href="#DejaVuSans-50"/>
       <use x="63.623047" xlink:href="#DejaVuSans-48"/>
       <use x="127.246094" xlink:href="#DejaVuSans-50"/>
       <use x="190.869141" xlink:href="#DejaVuSans-52"/>
       <use x="254.492188" xlink:href="#DejaVuSans-45"/>
       <use x="290.576172" xlink:href="#DejaVuSans-48"/>
       <use x="354.199219" xlink:href="#DejaVuSans-56"/>
       <use x="417.822266" xlink:href="#DejaVuSans-45"/>
       <use x="453.90625" xlink:href="#DejaVuSans-50"/>
       <use x="517.529297" xlink:href="#DejaVuSans-57"/>
      </g>
     </g>
    </g>
    <g id="xtick_3">
     <g id="line2d_5">
      <path clip-path="url(#p05e978d1b1)" d="M 178.244262 255.638708 
L 178.244262 25.44 
" style="fill:none;stroke:#b0b0b0;stroke-linecap:square;stroke-width:0.8;"/>
     </g>
     <g id="line2d_6">
      <g>
       <use style="stroke:#000000;stroke-width:0.8;" x="178.244262" xlink:href="#m6cfb0643ef" y="255.638708"/>
      </g>
     </g>
     <g id="text_3">
      <!-- 2024-08-30 -->
      <g transform="translate(170.898869 319.848351)rotate(-70)scale(0.1 -0.1)">
       <defs>
        <path d="M 40.578125 39.3125 
Q 47.65625 37.796875 51.625 33 
Q 55.609375 28.21875 55.609375 21.1875 
Q 55.609375 10.40625 48.1875 4.484375 
Q 40.765625 -1.421875 27.09375 -1.421875 
Q 22.515625 -1.421875 17.65625 -0.515625 
Q 12.796875 0.390625 7.625 2.203125 
L 7.625 11.71875 
Q 11.71875 9.328125 16.59375 8.109375 
Q 21.484375 6.890625 26.8125 6.890625 
Q 36.078125 6.890625 40.9375 10.546875 
Q 45.796875 14.203125 45.796875 21.1875 
Q 45.796875 27.640625 41.28125 31.265625 
Q 36.765625 34.90625 28.71875 34.90625 
L 20.21875 34.90625 
L 20.21875 43.015625 
L 29.109375 43.015625 
Q 36.375 43.015625 40.234375 45.921875 
Q 44.09375 48.828125 44.09375 54.296875 
Q 44.09375 59.90625 40.109375 62.90625 
Q 36.140625 65.921875 28.71875 65.921875 
Q 24.65625 65.921875 20.015625 65.03125 
Q 15.375 64.15625 9.8125 62.3125 
L 9.8125 71.09375 
Q 15.4375 72.65625 20.34375 73.4375 
Q 25.25 74.21875 29.59375 74.21875 
Q 40.828125 74.21875 47.359375 69.109375 
Q 53.90625 64.015625 53.90625 55.328125 
Q 53.90625 49.265625 50.4375 45.09375 
Q 46.96875 40.921875 40.578125 39.3125 
z
" id="DejaVuSans-51"/>
       </defs>
       <use xlink:href="#DejaVuSans-50"/>
       <use x="63.623047" xlink:href="#DejaVuSans-48"/>
       <use x="127.246094" xlink:href="#DejaVuSans-50"/>
       <use x="190.869141" xlink:href="#DejaVuSans-52"/>
       <use x="254.492188" xlink:href="#DejaVuSans-45"/>
       <use x="290.576172" xlink:href="#DejaVuSans-48"/>
       <use x="354.199219" xlink:href="#DejaVuSans-56"/>
       <use x="417.822266" xlink:href="#DejaVuSans-45"/>
       <use x="453.90625" xlink:href="#DejaVuSans-51"/>
       <use x="517.529297" xlink:href="#DejaVuSans-48"/>
      </g>
     </g>
    </g>
    <g id="xtick_4">
     <g id="line2d_7">
      <path clip-path="url(#p05e978d1b1)" d="M 225.770611 255.638708 
L 225.770611 25.44 
" style="fill:none;stroke:#b0b0b0;stroke-linecap:square;stroke-width:0.8;"/>
     </g>
     <g id="line2d_8">
      <g>
       <use style="stroke:#000000;stroke-width:0.8;" x="225.770611" xlink:href="#m6cfb0643ef" y="255.638708"/>
      </g>
     </g>
     <g id="text_4">
      <!-- 2024-08-31 -->
      <g transform="translate(218.425218 319.848351)rotate(-70)scale(0.1 -0.1)">
       <defs>
        <path d="M 12.40625 8.296875 
L 28.515625 8.296875 
L 28.515625 63.921875 
L 10.984375 60.40625 
L 10.984375 69.390625 
L 28.421875 72.90625 
L 38.28125 72.90625 
L 38.28125 8.296875 
L 54.390625 8.296875 
L 54.390625 0 
L 12.40625 0 
z
" id="DejaVuSans-49"/>
       </defs>
       <use xlink:href="#DejaVuSans-50"/>
       <use x="63.623047" xlink:href="#DejaVuSans-48"/>
       <use x="127.246094" xlink:href="#DejaVuSans-50"/>
       <use x="190.869141" xlink:href="#DejaVuSans-52"/>
       <use x="254.492188" xlink:href="#DejaVuSans-45"/>
       <use x="290.576172" xlink:href="#DejaVuSans-48"/>
       <use x="354.199219" xlink:href="#DejaVuSans-56"/>
       <use x="417.822266" xlink:href="#DejaVuSans-45"/>
       <use x="453.90625" xlink:href="#DejaVuSans-51"/>
       <use x="517.529297" xlink:href="#DejaVuSans-49"/>
      </g>
     </g>
    </g>
    <g id="xtick_5">
     <g id="line2d_9">
      <path clip-path="url(#p05e978d1b1)" d="M 273.296961 255.638708 
L 273.296961 25.44 
" style="fill:none;stroke:#b0b0b0;stroke-linecap:square;stroke-width:0.8;"/>
     </g>
     <g id="line2d_10">
      <g>
       <use style="stroke:#000000;stroke-width:0.8;" x="273.296961" xlink:href="#m6cfb0643ef" y="255.638708"/>
      </g>
     </g>
     <g id="text_5">
      <!-- 2024-09-01 -->
      <g transform="translate(265.951568 319.848351)rotate(-70)scale(0.1 -0.1)">
       <use xlink:href="#DejaVuSans-50"/>
       <use x="63.623047" xlink:href="#DejaVuSans-48"/>
       <use x="127.246094" xlink:href="#DejaVuSans-50"/>
       <use x="190.869141" xlink:href="#DejaVuSans-52"/>
       <use x="254.492188" xlink:href="#DejaVuSans-45"/>
       <use x="290.576172" xlink:href="#DejaVuSans-48"/>
       <use x="354.199219" xlink:href="#DejaVuSans-57"/>
       <use x="417.822266" xlink:href="#DejaVuSans-45"/>
       <use x="453.90625" xlink:href="#DejaVuSans-48"/>
       <use x="517.529297" xlink:href="#DejaVuSans-49"/>
      </g>
     </g>
    </g>
    <g id="xtick_6">
     <g id="line2d_11">
      <path clip-path="url(#p05e978d1b1)" d="M 320.823311 255.638708 
L 320.823311 25.44 
" style="fill:none;stroke:#b0b0b0;stroke-linecap:square;stroke-width:0.8;"/>
     </g>
     <g id="line2d_12">
      <g>
       <use style="stroke:#000000;stroke-width:0.8;" x="320.823311" xlink:href="#m6cfb0643ef" y="255.638708"/>
      </g>
     </g>
     <g id="text_6">
      <!-- 2024-09-02 -->
      <g transform="translate(313.477918 319.848351)rotate(-70)scale(0.1 -0.1)">
       <use xlink:href="#DejaVuSans-50"/>
       <use x="63.623047" xlink:href="#DejaVuSans-48"/>
       <use x="127.246094" xlink:href="#DejaVuSans-50"/>
       <use x="190.869141" xlink:href="#DejaVuSans-52"/>
       <use x="254.492188" xlink:href="#DejaVuSans-45"/>
       <use x="290.576172" xlink:href="#DejaVuSans-48"/>
       <use x="354.199219" xlink:href="#DejaVuSans-57"/>
       <use x="417.822266" xlink:href="#DejaVuSans-45"/>
       <use x="453.90625" xlink:href="#DejaVuSans-48"/>
       <use x="517.529297" xlink:href="#DejaVuSans-50"/>
      </g>
     </g>
    </g>
    <g id="xtick_7">
     <g id="line2d_13">
      <path clip-path="url(#p05e978d1b1)" d="M 368.34966 255.638708 
L 368.34966 25.44 
" style="fill:none;stroke:#b0b0b0;stroke-linecap:square;stroke-width:0.8;"/>
     </g>
     <g id="line2d_14">
      <g>
       <use style="stroke:#000000;stroke-width:0.8;" x="368.34966" xlink:href="#m6cfb0643ef" y="255.638708"/>
      </g>
     </g>
     <g id="text_7">
      <!-- 2024-09-03 -->
      <g transform="translate(361.004267 319.848351)rotate(-70)scale(0.1 -0.1)">
       <use xlink:href="#DejaVuSans-50"/>
       <use x="63.623047" xlink:href="#DejaVuSans-48"/>
       <use x="127.246094" xlink:href="#DejaVuSans-50"/>
       <use x="190.869141" xlink:href="#DejaVuSans-52"/>
       <use x="254.492188" xlink:href="#DejaVuSans-45"/>
       <use x="290.576172" xlink:href="#DejaVuSans-48"/>
       <use x="354.199219" xlink:href="#DejaVuSans-57"/>
       <use x="417.822266" xlink:href="#DejaVuSans-45"/>
       <use x="453.90625" xlink:href="#DejaVuSans-48"/>
       <use x="517.529297" xlink:href="#DejaVuSans-51"/>
      </g>
     </g>
    </g>
    <g id="xtick_8">
     <g id="line2d_15">
      <path clip-path="url(#p05e978d1b1)" d="M 415.87601 255.638708 
L 415.87601 25.44 
" style="fill:none;stroke:#b0b0b0;stroke-linecap:square;stroke-width:0.8;"/>
     </g>
     <g id="line2d_16">
      <g>
       <use style="stroke:#000000;stroke-width:0.8;" x="415.87601" xlink:href="#m6cfb0643ef" y="255.638708"/>
      </g>
     </g>
     <g id="text_8">
      <!-- 2024-09-04 -->
      <g transform="translate(408.530617 319.848351)rotate(-70)scale(0.1 -0.1)">
       <use xlink:href="#DejaVuSans-50"/>
       <use x="63.623047" xlink:href="#DejaVuSans-48"/>
       <use x="127.246094" xlink:href="#DejaVuSans-50"/>
       <use x="190.869141" xlink:href="#DejaVuSans-52"/>
       <use x="254.492188" xlink:href="#DejaVuSans-45"/>
       <use x="290.576172" xlink:href="#DejaVuSans-48"/>
       <use x="354.199219" xlink:href="#DejaVuSans-57"/>
       <use x="417.822266" xlink:href="#DejaVuSans-45"/>
       <use x="453.90625" xlink:href="#DejaVuSans-48"/>
       <use x="517.529297" xlink:href="#DejaVuSans-52"/>
      </g>
     </g>
    </g>
    <g id="text_9">
     <!-- Date -->
     <g transform="translate(235.379219 332.158083)scale(0.1 -0.1)">
      <defs>
       <path d="M 19.671875 64.796875 
L 19.671875 8.109375 
L 31.59375 8.109375 
Q 46.6875 8.109375 53.6875 14.9375 
Q 60.6875 21.78125 60.6875 36.53125 
Q 60.6875 51.171875 53.6875 57.984375 
Q 46.6875 64.796875 31.59375 64.796875 
z
M 9.8125 72.90625 
L 30.078125 72.90625 
Q 51.265625 72.90625 61.171875 64.09375 
Q 71.09375 55.28125 71.09375 36.53125 
Q 71.09375 17.671875 61.125 8.828125 
Q 51.171875 0 30.078125 0 
L 9.8125 0 
z
" id="DejaVuSans-68"/>
       <path d="M 34.28125 27.484375 
Q 23.390625 27.484375 19.1875 25 
Q 14.984375 22.515625 14.984375 16.5 
Q 14.984375 11.71875 18.140625 8.90625 
Q 21.296875 6.109375 26.703125 6.109375 
Q 34.1875 6.109375 38.703125 11.40625 
Q 43.21875 16.703125 43.21875 25.484375 
L 43.21875 27.484375 
z
M 52.203125 31.203125 
L 52.203125 0 
L 43.21875 0 
L 43.21875 8.296875 
Q 40.140625 3.328125 35.546875 0.953125 
Q 30.953125 -1.421875 24.3125 -1.421875 
Q 15.921875 -1.421875 10.953125 3.296875 
Q 6 8.015625 6 15.921875 
Q 6 25.140625 12.171875 29.828125 
Q 18.359375 34.515625 30.609375 34.515625 
L 43.21875 34.515625 
L 43.21875 35.40625 
Q 43.21875 41.609375 39.140625 45 
Q 35.0625 48.390625 27.6875 48.390625 
Q 23 48.390625 18.546875 47.265625 
Q 14.109375 46.140625 10.015625 43.890625 
L 10.015625 52.203125 
Q 14.9375 54.109375 19.578125 55.046875 
Q 24.21875 56 28.609375 56 
Q 40.484375 56 46.34375 49.84375 
Q 52.203125 43.703125 52.203125 31.203125 
z
" id="DejaVuSans-97"/>
       <path d="M 18.3125 70.21875 
L 18.3125 54.6875 
L 36.8125 54.6875 
L 36.8125 47.703125 
L 18.3125 47.703125 
L 18.3125 18.015625 
Q 18.3125 11.328125 20.140625 9.421875 
Q 21.96875 7.515625 27.59375 7.515625 
L 36.8125 7.515625 
L 36.8125 0 
L 27.59375 0 
Q 17.1875 0 13.234375 3.875 
Q 9.28125 7.765625 9.28125 18.015625 
L 9.28125 47.703125 
L 2.6875 47.703125 
L 2.6875 54.6875 
L 9.28125 54.6875 
L 9.28125 70.21875 
z
" id="DejaVuSans-116"/>
       <path d="M 56.203125 29.59375 
L 56.203125 25.203125 
L 14.890625 25.203125 
Q 15.484375 15.921875 20.484375 11.0625 
Q 25.484375 6.203125 34.421875 6.203125 
Q 39.59375 6.203125 44.453125 7.46875 
Q 49.3125 8.734375 54.109375 11.28125 
L 54.109375 2.78125 
Q 49.265625 0.734375 44.1875 -0.34375 
Q 39.109375 -1.421875 33.890625 -1.421875 
Q 20.796875 -1.421875 13.15625 6.1875 
Q 5.515625 13.8125 5.515625 26.8125 
Q 5.515625 40.234375 12.765625 48.109375 
Q 20.015625 56 32.328125 56 
Q 43.359375 56 49.78125 48.890625 
Q 56.203125 41.796875 56.203125 29.59375 
z
M 47.21875 32.234375 
Q 47.125 39.59375 43.09375 43.984375 
Q 39.0625 48.390625 32.421875 48.390625 
Q 24.90625 48.390625 20.390625 44.140625 
Q 15.875 39.890625 15.1875 32.171875 
z
" id="DejaVuSans-101"/>
      </defs>
      <use xlink:href="#DejaVuSans-68"/>
      <use x="77.001953" xlink:href="#DejaVuSans-97"/>
      <use x="138.28125" xlink:href="#DejaVuSans-116"/>
      <use x="177.490234" xlink:href="#DejaVuSans-101"/>
     </g>
    </g>
   </g>
   <g id="matplotlib.axis_2">
    <g id="ytick_1">
     <g id="line2d_17">
      <path clip-path="url(#p05e978d1b1)" d="M 44.66 231.484468 
L 450 231.484468 
" style="fill:none;stroke:#b0b0b0;stroke-linecap:square;stroke-width:0.8;"/>
     </g>
     <g id="line2d_18">
      <defs>
       <path d="M 0 0 
L -3.5 0 
" id="mfae14d757c" style="stroke:#000000;stroke-width:0.8;"/>
      </defs>
      <g>
       <use style="stroke:#000000;stroke-width:0.8;" x="44.66" xlink:href="#mfae14d757c" y="231.484468"/>
      </g>
     </g>
     <g id="text_10">
      <!-- 55 -->
      <g transform="translate(24.935 235.283687)scale(0.1 -0.1)">
       <defs>
        <path d="M 10.796875 72.90625 
L 49.515625 72.90625 
L 49.515625 64.59375 
L 19.828125 64.59375 
L 19.828125 46.734375 
Q 21.96875 47.46875 24.109375 47.828125 
Q 26.265625 48.1875 28.421875 48.1875 
Q 40.625 48.1875 47.75 41.5 
Q 54.890625 34.8125 54.890625 23.390625 
Q 54.890625 11.625 47.5625 5.09375 
Q 40.234375 -1.421875 26.90625 -1.421875 
Q 22.3125 -1.421875 17.546875 -0.640625 
Q 12.796875 0.140625 7.71875 1.703125 
L 7.71875 11.625 
Q 12.109375 9.234375 16.796875 8.0625 
Q 21.484375 6.890625 26.703125 6.890625 
Q 35.15625 6.890625 40.078125 11.328125 
Q 45.015625 15.765625 45.015625 23.390625 
Q 45.015625 31 40.078125 35.4375 
Q 35.15625 39.890625 26.703125 39.890625 
Q 22.75 39.890625 18.8125 39.015625 
Q 14.890625 38.140625 10.796875 36.28125 
z
" id="DejaVuSans-53"/>
       </defs>
       <use xlink:href="#DejaVuSans-53"/>
       <use x="63.623047" xlink:href="#DejaVuSans-53"/>
      </g>
     </g>
    </g>
    <g id="ytick_2">
     <g id="line2d_19">
      <path clip-path="url(#p05e978d1b1)" d="M 44.66 182.589245 
L 450 182.589245 
" style="fill:none;stroke:#b0b0b0;stroke-linecap:square;stroke-width:0.8;"/>
     </g>
     <g id="line2d_20">
      <g>
       <use style="stroke:#000000;stroke-width:0.8;" x="44.66" xlink:href="#mfae14d757c" y="182.589245"/>
      </g>
     </g>
     <g id="text_11">
      <!-- 60 -->
      <g transform="translate(24.935 186.388464)scale(0.1 -0.1)">
       <defs>
        <path d="M 33.015625 40.375 
Q 26.375 40.375 22.484375 35.828125 
Q 18.609375 31.296875 18.609375 23.390625 
Q 18.609375 15.53125 22.484375 10.953125 
Q 26.375 6.390625 33.015625 6.390625 
Q 39.65625 6.390625 43.53125 10.953125 
Q 47.40625 15.53125 47.40625 23.390625 
Q 47.40625 31.296875 43.53125 35.828125 
Q 39.65625 40.375 33.015625 40.375 
z
M 52.59375 71.296875 
L 52.59375 62.3125 
Q 48.875 64.0625 45.09375 64.984375 
Q 41.3125 65.921875 37.59375 65.921875 
Q 27.828125 65.921875 22.671875 59.328125 
Q 17.53125 52.734375 16.796875 39.40625 
Q 19.671875 43.65625 24.015625 45.921875 
Q 28.375 48.1875 33.59375 48.1875 
Q 44.578125 48.1875 50.953125 41.515625 
Q 57.328125 34.859375 57.328125 23.390625 
Q 57.328125 12.15625 50.6875 5.359375 
Q 44.046875 -1.421875 33.015625 -1.421875 
Q 20.359375 -1.421875 13.671875 8.265625 
Q 6.984375 17.96875 6.984375 36.375 
Q 6.984375 53.65625 15.1875 63.9375 
Q 23.390625 74.21875 37.203125 74.21875 
Q 40.921875 74.21875 44.703125 73.484375 
Q 48.484375 72.75 52.59375 71.296875 
z
" id="DejaVuSans-54"/>
       </defs>
       <use xlink:href="#DejaVuSans-54"/>
       <use x="63.623047" xlink:href="#DejaVuSans-48"/>
      </g>
     </g>
    </g>
    <g id="ytick_3">
     <g id="line2d_21">
      <path clip-path="url(#p05e978d1b1)" d="M 44.66 133.694023 
L 450 133.694023 
" style="fill:none;stroke:#b0b0b0;stroke-linecap:square;stroke-width:0.8;"/>
     </g>
     <g id="line2d_22">
      <g>
       <use style="stroke:#000000;stroke-width:0.8;" x="44.66" xlink:href="#mfae14d757c" y="133.694023"/>
      </g>
     </g>
     <g id="text_12">
      <!-- 65 -->
      <g transform="translate(24.935 137.493242)scale(0.1 -0.1)">
       <use xlink:href="#DejaVuSans-54"/>
       <use x="63.623047" xlink:href="#DejaVuSans-53"/>
      </g>
     </g>
    </g>
    <g id="ytick_4">
     <g id="line2d_23">
      <path clip-path="url(#p05e978d1b1)" d="M 44.66 84.7988 
L 450 84.7988 
" style="fill:none;stroke:#b0b0b0;stroke-linecap:square;stroke-width:0.8;"/>
     </g>
     <g id="line2d_24">
      <g>
       <use style="stroke:#000000;stroke-width:0.8;" x="44.66" xlink:href="#mfae14d757c" y="84.7988"/>
      </g>
     </g>
     <g id="text_13">
      <!-- 70 -->
      <g transform="translate(24.935 88.598019)scale(0.1 -0.1)">
       <defs>
        <path d="M 8.203125 72.90625 
L 55.078125 72.90625 
L 55.078125 68.703125 
L 28.609375 0 
L 18.3125 0 
L 43.21875 64.59375 
L 8.203125 64.59375 
z
" id="DejaVuSans-55"/>
       </defs>
       <use xlink:href="#DejaVuSans-55"/>
       <use x="63.623047" xlink:href="#DejaVuSans-48"/>
      </g>
     </g>
    </g>
    <g id="ytick_5">
     <g id="line2d_25">
      <path clip-path="url(#p05e978d1b1)" d="M 44.66 35.903578 
L 450 35.903578 
" style="fill:none;stroke:#b0b0b0;stroke-linecap:square;stroke-width:0.8;"/>
     </g>
     <g id="line2d_26">
      <g>
       <use style="stroke:#000000;stroke-width:0.8;" x="44.66" xlink:href="#mfae14d757c" y="35.903578"/>
      </g>
     </g>
     <g id="text_14">
      <!-- 75 -->
      <g transform="translate(24.935 39.702796)scale(0.1 -0.1)">
       <use xlink:href="#DejaVuSans-55"/>
       <use x="63.623047" xlink:href="#DejaVuSans-53"/>
      </g>
     </g>
    </g>
    <g id="text_15">
     <!-- Temperature [F] -->
     <g transform="translate(18.855313 180.575291)rotate(-90)scale(0.1 -0.1)">
      <defs>
       <path d="M -0.296875 72.90625 
L 61.375 72.90625 
L 61.375 64.59375 
L 35.5 64.59375 
L 35.5 0 
L 25.59375 0 
L 25.59375 64.59375 
L -0.296875 64.59375 
z
" id="DejaVuSans-84"/>
       <path d="M 52 44.1875 
Q 55.375 50.25 60.0625 53.125 
Q 64.75 56 71.09375 56 
Q 79.640625 56 84.28125 50.015625 
Q 88.921875 44.046875 88.921875 33.015625 
L 88.921875 0 
L 79.890625 0 
L 79.890625 32.71875 
Q 79.890625 40.578125 77.09375 44.375 
Q 74.3125 48.1875 68.609375 48.1875 
Q 61.625 48.1875 57.5625 43.546875 
Q 53.515625 38.921875 53.515625 30.90625 
L 53.515625 0 
L 44.484375 0 
L 44.484375 32.71875 
Q 44.484375 40.625 41.703125 44.40625 
Q 38.921875 48.1875 33.109375 48.1875 
Q 26.21875 48.1875 22.15625 43.53125 
Q 18.109375 38.875 18.109375 30.90625 
L 18.109375 0 
L 9.078125 0 
L 9.078125 54.6875 
L 18.109375 54.6875 
L 18.109375 46.1875 
Q 21.1875 51.21875 25.484375 53.609375 
Q 29.78125 56 35.6875 56 
Q 41.65625 56 45.828125 52.96875 
Q 50 49.953125 52 44.1875 
z
" id="DejaVuSans-109"/>
       <path d="M 18.109375 8.203125 
L 18.109375 -20.796875 
L 9.078125 -20.796875 
L 9.078125 54.6875 
L 18.109375 54.6875 
L 18.109375 46.390625 
Q 20.953125 51.265625 25.265625 53.625 
Q 29.59375 56 35.59375 56 
Q 45.5625 56 51.78125 48.09375 
Q 58.015625 40.1875 58.015625 27.296875 
Q 58.015625 14.40625 51.78125 6.484375 
Q 45.5625 -1.421875 35.59375 -1.421875 
Q 29.59375 -1.421875 25.265625 0.953125 
Q 20.953125 3.328125 18.109375 8.203125 
z
M 48.6875 27.296875 
Q 48.6875 37.203125 44.609375 42.84375 
Q 40.53125 48.484375 33.40625 48.484375 
Q 26.265625 48.484375 22.1875 42.84375 
Q 18.109375 37.203125 18.109375 27.296875 
Q 18.109375 17.390625 22.1875 11.75 
Q 26.265625 6.109375 33.40625 6.109375 
Q 40.53125 6.109375 44.609375 11.75 
Q 48.6875 17.390625 48.6875 27.296875 
z
" id="DejaVuSans-112"/>
       <path d="M 41.109375 46.296875 
Q 39.59375 47.171875 37.8125 47.578125 
Q 36.03125 48 33.890625 48 
Q 26.265625 48 22.1875 43.046875 
Q 18.109375 38.09375 18.109375 28.8125 
L 18.109375 0 
L 9.078125 0 
L 9.078125 54.6875 
L 18.109375 54.6875 
L 18.109375 46.1875 
Q 20.953125 51.171875 25.484375 53.578125 
Q 30.03125 56 36.53125 56 
Q 37.453125 56 38.578125 55.875 
Q 39.703125 55.765625 41.0625 55.515625 
z
" id="DejaVuSans-114"/>
       <path d="M 8.5 21.578125 
L 8.5 54.6875 
L 17.484375 54.6875 
L 17.484375 21.921875 
Q 17.484375 14.15625 20.5 10.265625 
Q 23.53125 6.390625 29.59375 6.390625 
Q 36.859375 6.390625 41.078125 11.03125 
Q 45.3125 15.671875 45.3125 23.6875 
L 45.3125 54.6875 
L 54.296875 54.6875 
L 54.296875 0 
L 45.3125 0 
L 45.3125 8.40625 
Q 42.046875 3.421875 37.71875 1 
Q 33.40625 -1.421875 27.6875 -1.421875 
Q 18.265625 -1.421875 13.375 4.4375 
Q 8.5 10.296875 8.5 21.578125 
z
M 31.109375 56 
z
" id="DejaVuSans-117"/>
       <path id="DejaVuSans-32"/>
       <path d="M 8.59375 75.984375 
L 29.296875 75.984375 
L 29.296875 69 
L 17.578125 69 
L 17.578125 -6.203125 
L 29.296875 -6.203125 
L 29.296875 -13.1875 
L 8.59375 -13.1875 
z
" id="DejaVuSans-91"/>
       <path d="M 9.8125 72.90625 
L 51.703125 72.90625 
L 51.703125 64.59375 
L 19.671875 64.59375 
L 19.671875 43.109375 
L 48.578125 43.109375 
L 48.578125 34.8125 
L 19.671875 34.8125 
L 19.671875 0 
L 9.8125 0 
z
" id="DejaVuSans-70"/>
       <path d="M 30.421875 75.984375 
L 30.421875 -13.1875 
L 9.71875 -13.1875 
L 9.71875 -6.203125 
L 21.390625 -6.203125 
L 21.390625 69 
L 9.71875 69 
L 9.71875 75.984375 
z
" id="DejaVuSans-93"/>
      </defs>
      <use xlink:href="#DejaVuSans-84"/>
      <use x="44.083984" xlink:href="#DejaVuSans-101"/>
      <use x="105.607422" xlink:href="#DejaVuSans-109"/>
      <use x="203.019531" xlink:href="#DejaVuSans-112"/>
      <use x="266.496094" xlink:href="#DejaVuSans-101"/>
      <use x="328.019531" xlink:href="#DejaVuSans-114"/>
      <use x="369.132812" xlink:href="#DejaVuSans-97"/>
      <use x="430.412109" xlink:href="#DejaVuSans-116"/>
      <use x="469.621094" xlink:href="#DejaVuSans-117"/>
      <use x="533" xlink:href="#DejaVuSans-114"/>
      <use x="571.863281" xlink:href="#DejaVuSans-101"/>
      <use x="633.386719" xlink:href="#DejaVuSans-32"/>
      <use x="665.173828" xlink:href="#DejaVuSans-91"/>
      <use x="704.1875" xlink:href="#DejaVuSans-70"/>
      <use x="761.707031" xlink:href="#DejaVuSans-93"/>
     </g>
    </g>
   </g>
   <g id="line2d_27">
    <path clip-path="url(#p05e978d1b1)" d="M 63.084545 95.555749 
L 63.157082 95.555749 
L 63.225441 94.577845 
L 63.260295 95.555749 
L 63.294495 95.555749 
L 63.431488 94.577845 
L 63.500082 94.577845 
L 63.534368 95.555749 
L 63.569273 94.577845 
L 63.707158 93.59994 
L 63.914457 93.59994 
L 64.01911 92.622036 
L 64.193479 94.577845 
L 64.227802 94.577845 
L 64.333466 92.622036 
L 64.367694 94.577845 
L 64.436473 92.622036 
L 64.507137 92.622036 
L 64.647165 90.666227 
L 64.681242 92.622036 
L 64.716065 89.688322 
L 64.750222 89.688322 
L 64.785278 90.666227 
L 64.85478 89.688322 
L 64.99268 89.688322 
L 65.0628 88.710418 
L 65.098218 89.688322 
L 65.133445 89.688322 
L 65.168439 88.710418 
L 65.202663 90.666227 
L 65.306073 90.666227 
L 65.447816 88.710418 
L 65.482317 88.710418 
L 65.620214 89.688322 
L 65.654717 89.688322 
L 65.795037 90.666227 
L 65.899671 90.666227 
L 66.075983 87.732514 
L 66.250378 89.688322 
L 66.391254 87.732514 
L 66.427394 87.732514 
L 66.46327 86.754609 
L 66.532115 87.732514 
L 66.566857 88.710418 
L 66.624328 87.732514 
L 66.764961 87.732514 
L 66.835789 86.754609 
L 66.870303 87.732514 
L 66.906952 87.732514 
L 67.084031 90.666227 
L 67.155121 89.688322 
L 67.192649 90.666227 
L 67.305004 90.666227 
L 67.339323 92.622036 
L 67.409615 90.666227 
L 67.512567 90.666227 
L 67.652898 89.688322 
L 67.723297 90.666227 
L 67.759014 89.688322 
L 67.827126 89.688322 
L 67.898282 92.622036 
L 67.934144 89.688322 
L 68.002351 89.688322 
L 68.077067 92.622036 
L 68.1112 90.666227 
L 68.145294 90.666227 
L 68.179578 92.622036 
L 68.213983 89.688322 
L 68.248098 90.666227 
L 68.283198 90.666227 
L 68.422479 94.577845 
L 68.493339 90.666227 
L 68.527492 94.577845 
L 68.563052 96.533654 
L 68.598966 93.59994 
L 68.777862 89.688322 
L 68.918278 96.533654 
L 68.989337 93.59994 
L 69.024495 95.555749 
L 69.097684 96.533654 
L 69.131755 95.555749 
L 69.165795 95.555749 
L 69.341631 97.511558 
L 69.690464 97.511558 
L 69.829795 98.489463 
L 69.935276 97.511558 
L 70.004819 98.489463 
L 70.039151 97.511558 
L 70.073345 96.533654 
L 70.108504 98.489463 
L 70.18098 98.489463 
L 70.285282 94.577845 
L 70.321203 97.511558 
L 70.357141 100.445271 
L 70.425831 98.489463 
L 70.532334 98.489463 
L 70.743448 95.555749 
L 70.882879 96.533654 
L 70.95338 96.533654 
L 70.987995 95.555749 
L 71.022061 96.533654 
L 71.05769 97.511558 
L 71.092206 94.577845 
L 71.126975 97.511558 
L 71.197867 98.489463 
L 71.268697 96.533654 
L 71.30272 97.511558 
L 71.336881 97.511558 
L 71.370907 96.533654 
L 71.405197 98.489463 
L 71.441053 98.489463 
L 71.475907 96.533654 
L 71.544354 97.511558 
L 71.71954 97.511558 
L 71.827859 98.489463 
L 71.931895 97.511558 
L 72.040605 98.489463 
L 72.111137 96.533654 
L 72.179972 97.511558 
L 72.249433 97.511558 
L 72.388955 98.489463 
L 72.770492 98.489463 
L 72.875494 100.445271 
L 72.911302 98.489463 
L 72.980252 100.445271 
L 73.545287 100.445271 
L 73.68732 101.423176 
L 73.723246 100.445271 
L 73.792203 101.423176 
L 73.826454 101.423176 
L 73.860633 100.445271 
L 73.929473 101.423176 
L 74.591404 101.423176 
L 74.626055 102.40108 
L 74.660359 101.423176 
L 162.490871 102.40108 
L 162.526348 101.423176 
L 162.941997 98.489463 
L 162.976464 101.423176 
L 163.048741 100.445271 
L 163.121852 101.423176 
L 163.157035 98.489463 
L 163.24153 101.423176 
L 163.405985 97.511558 
L 163.514002 94.577845 
L 163.663957 98.489463 
L 163.697996 97.511558 
L 163.857058 100.445271 
L 164.003605 100.445271 
L 164.03772 101.423176 
L 164.180062 97.511558 
L 164.217895 97.511558 
L 164.329149 89.688322 
L 164.429145 97.511558 
L 164.463364 95.555749 
L 164.57521 98.489463 
L 164.614528 96.533654 
L 164.684586 97.511558 
L 164.806259 100.445271 
L 164.918536 97.511558 
L 165.029791 98.489463 
L 165.063929 98.489463 
L 165.241411 88.710418 
L 165.380436 97.511558 
L 165.41452 98.489463 
L 165.553133 87.732514 
L 165.58885 88.710418 
L 165.882313 100.445271 
L 165.950529 96.533654 
L 166.007479 97.511558 
L 166.186186 95.555749 
L 166.361206 100.445271 
L 166.395837 98.489463 
L 166.472869 98.489463 
L 166.694256 88.710418 
L 166.813161 98.489463 
L 166.850035 96.533654 
L 166.927669 100.445271 
L 167.035173 96.533654 
L 167.174081 100.445271 
L 167.208109 97.511558 
L 167.243528 98.489463 
L 167.383768 98.489463 
L 167.419263 96.533654 
L 167.493025 98.489463 
L 167.528682 101.423176 
L 167.563794 100.445271 
L 167.667129 97.511558 
L 167.703063 98.489463 
L 167.740174 92.622036 
L 167.812603 94.577845 
L 167.848183 93.59994 
L 167.919958 97.511558 
L 167.954251 95.555749 
L 167.991056 94.577845 
L 168.025074 95.555749 
L 168.199137 97.511558 
L 168.311909 96.533654 
L 168.379998 96.533654 
L 168.448933 97.511558 
L 168.48408 95.555749 
L 168.55223 97.511558 
L 168.586749 97.511558 
L 168.620785 96.533654 
L 168.690653 97.511558 
L 168.725775 97.511558 
L 168.862611 98.489463 
L 168.897995 98.489463 
L 169.036596 100.445271 
L 169.071196 100.445271 
L 169.21053 101.423176 
L 169.697788 101.423176 
L 169.802858 102.40108 
L 169.942804 101.423176 
L 170.187915 101.423176 
L 170.222309 97.511558 
L 170.290771 101.423176 
L 170.395431 100.445271 
L 170.540187 101.423176 
L 170.644384 101.423176 
L 170.679143 100.445271 
L 170.747715 101.423176 
L 170.816587 101.423176 
L 170.921983 102.40108 
L 170.957476 101.423176 
L 171.028304 102.40108 
L 171.735666 102.40108 
L 171.772764 103.378985 
L 171.806946 102.40108 
L 171.959812 101.423176 
L 172.358202 101.423176 
L 172.460861 100.445271 
L 172.495568 101.423176 
L 172.569322 100.445271 
L 173.059194 100.445271 
L 173.093306 101.423176 
L 173.162337 100.445271 
L 173.478276 100.445271 
L 173.585028 101.423176 
L 173.722517 100.445271 
L 173.859102 100.445271 
L 173.962542 101.423176 
L 174.067703 100.445271 
L 174.207146 101.423176 
L 174.275475 101.423176 
L 174.412191 100.445271 
L 174.480813 100.445271 
L 174.583095 101.423176 
L 174.729202 100.445271 
L 175.074853 100.445271 
L 312.394424 73.063947 
L 312.473758 75.019756 
L 312.639647 75.019756 
L 312.67402 73.063947 
L 312.745157 75.019756 
L 312.857072 75.019756 
L 312.892521 73.063947 
L 312.926741 75.019756 
L 313.283604 75.019756 
L 313.354022 75.99766 
L 313.388441 75.019756 
L 313.604436 75.019756 
L 313.640444 75.99766 
L 313.715467 75.019756 
L 313.756735 75.019756 
L 313.896538 75.99766 
L 313.967019 75.99766 
L 314.00217 75.019756 
L 314.070695 75.99766 
L 314.208802 75.99766 
L 314.312237 75.019756 
L 314.432018 75.99766 
L 315.216268 75.99766 
L 315.250766 76.975565 
L 315.318939 75.99766 
L 315.352942 75.99766 
L 315.387848 76.975565 
L 315.457076 75.99766 
L 315.492314 75.99766 
L 315.635716 76.975565 
L 315.78036 75.99766 
L 315.814462 75.99766 
L 315.95173 76.975565 
L 316.616767 76.975565 
L 316.6512 77.953469 
L 316.719583 76.975565 
L 316.863544 76.975565 
L 316.901645 77.953469 
L 316.953058 76.975565 
L 317.306806 76.975565 
L 317.450774 77.953469 
L 318.932158 77.953469 
L 318.967952 78.931374 
L 319.039055 77.953469 
L 319.35598 77.953469 
L 319.499961 78.931374 
L 319.641775 77.953469 
L 319.676877 77.953469 
L 319.816365 78.931374 
L 320.316374 78.931374 
L 320.480845 79.909278 
L 320.618196 78.931374 
L 321.636228 78.931374 
L 321.670236 77.953469 
L 321.741124 78.931374 
L 321.989084 78.931374 
L 322.023421 77.953469 
L 322.094178 78.931374 
L 322.129859 78.931374 
L 322.233667 77.953469 
L 322.373749 78.931374 
L 322.90002 78.931374 
L 322.93407 79.909278 
L 323.002135 78.931374 
L 323.659055 78.931374 
L 323.694127 77.953469 
L 323.7634 78.931374 
L 323.867267 78.931374 
L 323.913022 77.953469 
L 323.951483 78.931374 
L 324.300467 78.931374 
L 324.335594 77.953469 
L 324.406649 78.931374 
L 325.528275 78.931374 
L 325.668013 79.909278 
L 325.738111 79.909278 
L 325.882533 78.931374 
L 326.035661 79.909278 
L 326.177641 78.931374 
L 326.211667 78.931374 
L 326.350587 79.909278 
L 326.491164 78.931374 
L 326.665799 78.931374 
L 326.802595 79.909278 
L 327.416264 79.909278 
L 327.450721 80.887182 
L 327.519018 79.909278 
L 327.946058 79.909278 
L 328.052542 80.887182 
L 328.15858 79.909278 
L 328.263168 80.887182 
L 328.371941 79.909278 
L 328.479877 80.887182 
L 328.552721 80.887182 
L 328.589617 79.909278 
L 328.659758 80.887182 
L 329.754751 80.887182 
L 329.790021 82.842991 
L 329.859755 80.887182 
L 329.893846 80.887182 
L 329.93395 82.842991 
L 330.004354 80.887182 
L 330.469421 80.887182 
L 330.538408 82.842991 
L 330.573622 80.887182 
L 330.899641 80.887182 
L 331.040224 82.842991 
L 331.143376 80.887182 
L 331.246833 82.842991 
L 331.353346 80.887182 
L 331.457661 82.842991 
L 331.602831 80.887182 
L 331.742652 82.842991 
L 331.776776 82.842991 
L 331.810801 80.887182 
L 331.880384 82.842991 
L 331.917571 82.842991 
L 331.952978 80.887182 
L 332.025022 82.842991 
L 333.040763 82.842991 
L 333.14886 83.820896 
L 333.261084 82.842991 
L 333.365494 82.842991 
L 333.401267 83.820896 
L 333.435865 82.842991 
L 333.816 82.842991 
L 333.957363 83.820896 
L 334.061689 82.842991 
L 334.20239 83.820896 
L 335.40058 83.820896 
L 335.504521 84.7988 
L 335.57641 83.820896 
L 335.611173 84.7988 
L 335.681204 84.7988 
L 335.750021 83.820896 
L 335.784276 84.7988 
L 336.584603 84.7988 
L 336.726379 83.820896 
L 336.865409 84.7988 
L 338.303902 84.7988 
L 338.338118 85.776705 
L 338.520717 84.7988 
L 339.648869 84.7988 
L 339.79531 85.776705 
L 339.901572 84.7988 
L 340.058697 85.776705 
L 341.021445 85.776705 
L 341.055614 84.7988 
L 341.127387 85.776705 
L 341.305798 85.776705 
L 341.41021 84.7988 
L 341.552567 85.776705 
L 341.588184 85.776705 
L 341.73112 84.7988 
L 341.904932 84.7988 
L 341.93897 85.776705 
L 342.009823 84.7988 
L 342.115305 84.7988 
L 342.259593 85.776705 
L 342.400025 84.7988 
L 342.677528 84.7988 
L 342.711686 85.776705 
L 342.787783 84.7988 
L 342.824029 85.776705 
L 342.897105 84.7988 
L 344.078353 84.7988 
L 344.219126 83.820896 
L 344.536944 83.820896 
L 344.607949 82.842991 
L 344.642861 83.820896 
L 344.856909 83.820896 
L 344.935781 82.842991 
L 345.04174 83.820896 
L 345.078087 82.842991 
L 345.147658 83.820896 
L 346.14118 83.820896 
L 346.28289 82.842991 
L 346.397166 82.842991 
L 346.43156 83.820896 
L 346.500197 82.842991 
L 346.642319 82.842991 
L 346.783961 80.887182 
L 347.136855 80.887182 
L 347.205745 79.909278 
L 347.240295 80.887182 
L 348.080591 80.887182 
L 348.184465 79.909278 
L 348.326165 80.887182 
L 348.394464 80.887182 
L 348.498756 79.909278 
L 348.533389 80.887182 
L 348.603523 79.909278 
L 348.637617 79.909278 
L 348.774328 78.931374 
L 348.845732 78.931374 
L 348.984023 79.909278 
L 349.087084 79.909278 
L 349.226736 78.931374 
L 349.260755 78.931374 
L 349.3664 79.909278 
L 349.520861 78.931374 
L 349.627963 78.931374 
L 349.735119 79.909278 
L 349.874598 78.931374 
L 350.020471 79.909278 
L 350.058542 78.931374 
L 350.128504 79.909278 
L 350.275047 79.909278 
L 350.309225 78.931374 
L 350.379459 79.909278 
L 350.875876 79.909278 
L 351.016461 78.931374 
L 351.086947 79.909278 
L 351.12129 78.931374 
L 351.231569 78.931374 
L 351.374716 79.909278 
L 351.411141 79.909278 
L 351.556585 78.931374 
L 351.663428 79.909278 
L 351.807965 78.931374 
L 351.881796 78.931374 
L 352.022875 79.909278 
L 352.058274 79.909278 
L 352.198604 78.931374 
L 352.450996 78.931374 
L 352.489642 79.909278 
L 352.523829 78.931374 
L 352.717306 78.931374 
L 352.752326 79.909278 
L 352.823063 78.931374 
L 353.095989 78.931374 
L 353.130077 76.975565 
L 353.199974 77.953469 
L 353.30306 77.953469 
L 353.442105 78.931374 
L 353.58206 78.931374 
L 353.650913 79.909278 
L 353.685652 78.931374 
L 353.721045 78.931374 
L 353.755175 77.953469 
L 353.824721 78.931374 
L 353.859477 78.931374 
L 353.964342 77.953469 
L 353.9985 78.931374 
L 354.069588 77.953469 
L 354.140378 77.953469 
L 354.28133 78.931374 
L 354.67635 78.931374 
L 354.710593 79.909278 
L 354.781652 78.931374 
L 354.888757 77.953469 
L 355.030199 78.931374 
L 355.489278 78.931374 
L 355.627826 79.909278 
L 355.698969 79.909278 
L 355.734664 78.931374 
L 355.803498 79.909278 
L 356.221052 79.909278 
L 356.361469 78.931374 
L 356.511379 79.909278 
L 356.943479 79.909278 
L 357.045808 80.887182 
L 357.184861 79.909278 
L 357.326503 79.909278 
L 357.362788 78.931374 
L 357.431598 79.909278 
L 357.855363 79.909278 
L 357.890627 80.887182 
L 357.959396 79.909278 
L 358.434526 79.909278 
L 358.576168 80.887182 
L 358.717215 79.909278 
L 358.860669 80.887182 
L 359.426312 80.887182 
L 359.496175 79.909278 
L 359.530797 80.887182 
L 359.673682 80.887182 
L 359.710014 79.909278 
L 359.780464 80.887182 
L 360.744723 80.887182 
L 360.780217 82.842991 
L 360.935226 80.887182 
L 361.052423 82.842991 
L 361.08651 80.887182 
L 361.130395 82.842991 
L 361.164628 82.842991 
L 361.199337 80.887182 
L 361.2703 82.842991 
L 361.307311 82.842991 
L 361.445451 80.887182 
L 361.586286 82.842991 
L 361.703104 82.842991 
L 361.845865 80.887182 
L 362.039373 82.842991 
L 362.900259 82.842991 
L 363.027024 83.820896 
L 363.097776 82.842991 
L 363.135752 83.820896 
L 363.169877 83.820896 
L 363.241405 82.842991 
L 363.27619 83.820896 
L 363.34727 83.820896 
L 363.451484 82.842991 
L 363.605955 83.820896 
L 364.487138 83.820896 
L 364.521191 84.7988 
L 364.590364 83.820896 
L 365.188061 83.820896 
L 365.222308 84.7988 
L 365.29287 83.820896 
L 365.328117 83.820896 
L 365.433362 84.7988 
L 365.468116 83.820896 
L 365.538638 84.7988 
L 365.574427 84.7988 
L 365.718083 83.820896 
L 365.866924 84.7988 
L 367.821053 84.7988 
L 367.859241 85.776705 
L 367.898814 84.7988 
L 368.044121 84.7988 
L 368.115306 85.776705 
L 368.150753 84.7988 
L 368.226753 84.7988 
L 368.370768 85.776705 
L 368.406251 84.7988 
L 368.476737 85.776705 
L 368.862328 85.776705 
L 368.898734 84.7988 
L 368.969234 85.776705 
L 369.107194 85.776705 
L 369.141279 84.7988 
L 369.211089 85.776705 
L 369.493461 85.776705 
L 369.530376 86.754609 
L 369.600693 85.776705 
L 370.561525 85.776705 
L 370.597215 84.7988 
L 370.671319 85.776705 
L 372.272786 85.776705 
L 372.307926 86.754609 
L 372.380638 85.776705 
L 372.922246 85.776705 
L 373.04035 86.754609 
L 373.182198 85.776705 
L 373.251378 85.776705 
L 373.394375 86.754609 
L 373.826258 86.754609 
L 373.860939 85.776705 
L 373.931831 86.754609 
L 374.394627 86.754609 
L 374.432545 85.776705 
L 374.502121 86.754609 
L 376.147574 86.754609 
L 376.185868 87.732514 
L 376.254277 86.754609 
L 376.394722 86.754609 
L 376.430943 87.732514 
L 376.50414 86.754609 
L 376.748718 86.754609 
L 376.886063 87.732514 
L 377.034447 86.754609 
L 377.177214 87.732514 
L 377.211216 86.754609 
L 377.28 87.732514 
L 377.349983 87.732514 
L 377.48851 86.754609 
L 377.524234 86.754609 
L 377.631336 87.732514 
L 377.667439 86.754609 
L 377.737526 87.732514 
L 377.84457 87.732514 
L 377.985179 86.754609 
L 378.125804 87.732514 
L 378.159942 86.754609 
L 378.232926 87.732514 
L 378.513435 87.732514 
L 378.550155 86.754609 
L 378.619346 87.732514 
L 381.14913 87.732514 
L 381.184784 88.710418 
L 381.25459 87.732514 
L 381.464889 87.732514 
L 381.499156 88.710418 
L 381.570807 87.732514 
L 381.673392 87.732514 
L 381.811524 88.710418 
L 381.845749 88.710418 
L 381.882667 87.732514 
L 381.955196 88.710418 
L 381.99047 88.710418 
L 382.062307 87.732514 
L 382.09628 88.710418 
L 382.132779 88.710418 
L 382.167964 87.732514 
L 382.241763 88.710418 
L 382.27855 88.710418 
L 382.417354 87.732514 
L 382.558346 88.710418 
L 383.501577 88.710418 
L 383.536209 89.688322 
L 383.606005 88.710418 
L 384.024916 88.710418 
L 384.135193 89.688322 
L 384.279174 88.710418 
L 384.350858 88.710418 
L 384.385549 89.688322 
L 384.424168 88.710418 
L 384.536827 89.688322 
L 384.643894 88.710418 
L 384.786445 89.688322 
L 384.866397 88.710418 
L 384.902108 89.688322 
L 385.056287 88.710418 
L 385.120485 88.710418 
L 385.157583 89.688322 
L 385.325686 88.710418 
L 387.225531 88.710418 
L 387.339907 87.732514 
L 387.479772 88.710418 
L 387.599652 87.732514 
L 387.633769 87.732514 
L 387.702049 88.710418 
L 387.736079 87.732514 
L 388.713292 87.732514 
L 388.747356 86.754609 
L 388.797595 87.732514 
L 388.832998 87.732514 
L 388.937525 86.754609 
L 389.053376 87.732514 
L 389.234062 85.776705 
L 389.27351 85.776705 
L 389.310092 86.754609 
L 389.381681 85.776705 
L 389.628848 85.776705 
L 389.73546 84.7988 
L 389.770181 85.776705 
L 389.841134 84.7988 
L 389.9865 84.7988 
L 390.031428 83.820896 
L 390.065442 84.7988 
L 390.242745 84.7988 
L 390.354643 85.776705 
L 390.466411 84.7988 
L 390.60348 85.776705 
L 390.742197 84.7988 
L 390.776223 84.7988 
L 390.879166 83.820896 
L 390.947416 84.7988 
L 390.982693 83.820896 
L 391.016786 83.820896 
L 391.119134 84.7988 
L 391.256434 83.820896 
L 391.428111 83.820896 
L 391.462898 84.7988 
L 391.532774 83.820896 
L 391.610977 83.820896 
L 391.645075 84.7988 
L 391.715878 83.820896 
L 391.750063 83.820896 
L 391.886915 84.7988 
L 392.38034 84.7988 
L 392.516862 83.820896 
L 392.660518 84.7988 
L 392.880408 84.7988 
L 392.914663 83.820896 
L 392.982779 84.7988 
L 393.226999 84.7988 
L 393.36601 83.820896 
L 393.40016 83.820896 
L 393.434558 84.7988 
L 393.508091 83.820896 
L 393.54222 83.820896 
L 393.578479 84.7988 
L 393.647332 83.820896 
L 394.271223 83.820896 
L 394.397505 84.7988 
L 394.475742 83.820896 
L 395.509315 83.820896 
L 395.635612 82.842991 
L 396.033525 82.842991 
L 396.068144 83.820896 
L 396.125515 82.842991 
L 397.04195 82.842991 
L 397.164779 83.820896 
L 397.304787 82.842991 
L 397.665115 82.842991 
L 397.718858 83.820896 
L 397.758868 80.887182 
L 397.843241 82.842991 
L 397.969099 82.842991 
L 398.012188 80.887182 
L 398.904484 80.887182 
L 399.219887 78.931374 
L 399.332652 79.909278 
L 400.399435 79.909278 
L 400.444349 78.931374 
L 400.489234 79.909278 
L 400.713072 79.909278 
L 400.790518 78.931374 
L 400.864729 79.909278 
L 400.945764 78.931374 
L 401.166391 78.931374 
L 401.200748 79.909278 
L 401.274138 78.931374 
L 401.388656 78.931374 
L 401.505409 77.953469 
L 401.540099 77.953469 
L 401.652836 78.931374 
L 401.768073 77.953469 
L 401.937787 77.953469 
L 402.082652 78.931374 
L 402.279681 78.931374 
L 402.315242 79.909278 
L 402.354832 78.931374 
L 402.649696 78.931374 
L 402.840153 77.953469 
L 402.936037 78.931374 
L 403.132385 76.975565 
L 403.17827 76.975565 
L 403.213651 77.953469 
L 403.328263 76.975565 
L 403.440164 76.975565 
L 403.704998 75.99766 
L 403.741908 75.99766 
L 403.910999 76.975565 
L 404.055529 75.99766 
L 404.127449 75.99766 
L 404.166997 76.975565 
L 404.547725 76.975565 
L 404.594406 77.953469 
L 404.653299 76.975565 
L 404.893072 76.975565 
L 405.03492 77.953469 
L 405.757875 77.953469 
L 405.82991 76.975565 
L 405.867195 77.953469 
L 405.909637 77.953469 
L 406.031956 76.975565 
L 406.143709 76.975565 
L 406.30401 77.953469 
L 406.346262 76.975565 
L 406.585371 76.975565 
L 406.712985 77.953469 
L 407.014535 77.953469 
L 407.07023 78.931374 
L 407.112178 77.953469 
L 407.187981 77.953469 
L 407.300392 78.931374 
L 407.442331 77.953469 
L 407.503343 78.931374 
L 407.538764 77.953469 
L 407.724651 78.931374 
L 407.843168 78.931374 
L 407.879613 79.909278 
L 407.92798 78.931374 
L 407.966181 78.931374 
L 408.00361 79.909278 
L 408.107377 78.931374 
L 408.167099 80.887182 
L 408.207325 79.909278 
L 408.520144 79.909278 
L 408.626594 80.887182 
L 408.711192 80.887182 
L 408.751969 79.909278 
L 408.786137 80.887182 
L 409.172999 80.887182 
L 409.212623 82.842991 
L 409.252089 80.887182 
L 409.469853 82.842991 
L 410.001066 82.842991 
L 410.080581 83.820896 
L 410.151284 82.842991 
L 410.281764 83.820896 
L 410.941994 83.820896 
L 411.089369 84.7988 
L 411.124013 83.820896 
L 411.162246 84.7988 
L 411.206834 84.7988 
L 411.243392 83.820896 
L 411.313798 84.7988 
L 411.425761 83.820896 
L 411.54277 84.7988 
L 411.617613 83.820896 
L 411.745709 84.7988 
L 412.448237 84.7988 
L 412.556392 85.776705 
L 412.592941 84.7988 
L 412.662674 85.776705 
L 413.507022 85.776705 
L 413.61077 86.754609 
L 413.739244 85.776705 
L 414.095509 85.776705 
L 414.131197 86.754609 
L 414.199399 85.776705 
L 414.233461 85.776705 
L 414.267533 86.754609 
L 414.336159 85.776705 
L 414.376363 85.776705 
L 414.411781 86.754609 
L 414.481866 85.776705 
L 414.517178 85.776705 
L 414.623761 86.754609 
L 414.727233 85.776705 
L 414.867785 86.754609 
L 415.901501 86.754609 
L 416.039728 87.732514 
L 416.073825 86.754609 
L 416.142204 87.732514 
L 416.176254 87.732514 
L 416.31355 86.754609 
L 416.348759 86.754609 
L 416.488113 87.732514 
L 417.393089 87.732514 
L 417.4271 88.710418 
L 417.495537 87.732514 
L 417.529667 87.732514 
L 417.637021 88.710418 
L 417.672133 87.732514 
L 417.740282 88.710418 
L 418.013234 88.710418 
L 418.150568 89.688322 
L 418.254904 88.710418 
L 418.393939 89.688322 
L 418.598875 89.688322 
L 418.632937 90.666227 
L 418.705507 89.688322 
L 418.744246 90.666227 
L 418.78165 89.688322 
L 419.775694 89.688322 
L 419.810909 88.710418 
L 420.015404 89.688322 
L 420.291151 89.688322 
L 420.326551 90.666227 
L 420.548103 89.688322 
L 420.760122 89.688322 
L 420.795952 90.666227 
L 420.866938 89.688322 
L 421.878548 89.688322 
L 422.016034 90.666227 
L 422.120581 90.666227 
L 422.261594 89.688322 
L 422.366182 89.688322 
L 422.509603 90.666227 
L 424.353713 90.666227 
L 424.490764 92.622036 
L 424.524915 92.622036 
L 424.664869 90.666227 
L 424.770234 90.666227 
L 424.873729 92.622036 
L 425.010074 90.666227 
L 425.078085 90.666227 
L 425.216843 92.622036 
L 426.655102 92.622036 
L 426.69173 93.59994 
L 426.763889 92.622036 
L 426.797977 92.622036 
L 426.83436 93.59994 
L 426.90459 92.622036 
L 427.462817 92.622036 
L 427.530897 93.59994 
L 427.565269 92.622036 
L 427.843541 92.622036 
L 427.877739 93.59994 
L 427.946899 92.622036 
L 428.368564 92.622036 
L 428.402535 93.59994 
L 428.470862 92.622036 
L 428.643514 92.622036 
L 428.677695 93.59994 
L 428.745755 92.622036 
L 428.852596 92.622036 
L 428.955454 93.59994 
L 428.989471 92.622036 
L 429.062113 93.59994 
L 429.097955 93.59994 
L 429.235802 92.622036 
L 429.270435 92.622036 
L 429.410473 93.59994 
L 429.444838 92.622036 
L 429.512821 93.59994 
L 429.829121 93.59994 
L 429.864257 92.622036 
L 429.933407 93.59994 
L 430.525213 93.59994 
L 430.663101 94.577845 
L 430.698988 94.577845 
L 430.839263 93.59994 
L 431.575455 93.59994 
L 431.575455 93.59994 
" style="fill:none;stroke:#1f77b4;stroke-linecap:square;stroke-width:1.5;"/>
   </g>
   <g id="line2d_28">
    <path clip-path="url(#p05e978d1b1)" d="M 63.084545 162.053252 
L 66.285775 162.053252 
L 66.427394 123.914978 
L 69.935276 123.914978 
L 70.073345 134.671927 
L 72.388955 134.671927 
L 72.52663 153.252112 
L 73.723246 153.252112 
L 73.860633 172.810201 
L 74.660359 172.810201 
L 162.441785 35.903578 
L 167.103303 35.903578 
L 167.243528 55.461667 
L 169.21053 55.461667 
L 169.350962 74.041851 
L 171.13321 74.041851 
L 171.271402 123.914978 
L 173.928399 123.914978 
L 174.067703 153.252112 
L 175.074853 153.252112 
L 312.473758 46.660527 
L 313.826789 46.660527 
L 313.967019 84.7988 
L 315.740719 84.7988 
L 315.883269 123.914978 
L 319.746298 123.914978 
L 319.885121 143.473067 
L 323.694127 143.473067 
L 323.833317 153.252112 
L 326.177641 153.252112 
L 326.316077 162.053252 
L 327.730672 162.053252 
L 327.874748 181.611341 
L 329.510784 181.611341 
L 329.647889 192.36829 
L 330.715178 192.36829 
L 330.821248 174.76601 
L 331.602831 174.76601 
L 331.742652 181.611341 
L 333.365494 181.611341 
L 333.435865 172.810201 
L 338.338118 172.810201 
L 338.520717 174.76601 
L 339.567496 174.76601 
L 339.721306 172.810201 
L 341.375603 172.810201 
L 341.517983 162.053252 
L 345.355469 162.053252 
L 345.496024 153.252112 
L 347.555223 153.252112 
L 347.695523 143.473067 
L 348.774328 143.473067 
L 348.915776 139.56145 
L 349.296652 139.56145 
L 349.410102 134.671927 
L 353.337667 134.671927 
L 353.47733 123.914978 
L 359.673682 123.914978 
L 359.814561 139.56145 
L 361.586286 139.56145 
L 361.703104 143.473067 
L 362.991637 143.473067 
L 363.135752 139.56145 
L 363.34727 139.56145 
L 363.451484 143.473067 
L 368.513111 143.473067 
L 368.653021 139.56145 
L 369.211089 139.56145 
L 369.351218 143.473067 
L 371.147685 143.473067 
L 371.286157 153.252112 
L 372.201826 153.252112 
L 372.307926 174.76601 
L 373.21719 174.76601 
L 373.359006 181.611341 
L 373.721302 181.611341 
L 373.860939 192.36829 
L 381.811524 192.36829 
L 381.955196 174.76601 
L 383.571939 174.76601 
L 383.710472 192.36829 
L 385.157583 192.36829 
L 385.325686 172.810201 
L 387.054393 172.810201 
L 387.225531 162.053252 
L 387.944104 162.053252 
L 388.080585 157.16373 
L 388.975559 157.16373 
L 389.124151 153.252112 
L 391.645075 153.252112 
L 391.784138 143.473067 
L 393.016937 143.473067 
L 393.154075 134.671927 
L 394.921734 134.671927 
L 395.048195 143.473067 
L 396.824067 143.473067 
L 396.927636 123.914978 
L 401.124163 123.914978 
L 401.274138 115.113838 
L 406.824361 115.113838 
L 407.014535 123.914978 
L 408.591056 123.914978 
L 408.711192 162.053252 
L 411.049242 162.053252 
L 411.162246 181.611341 
L 412.997908 181.611341 
L 413.144259 211.926379 
L 415.313324 211.926379 
L 415.450005 227.57285 
L 417.944915 227.57285 
L 418.081283 245.17513 
L 421.251099 245.17513 
L 421.391336 227.57285 
L 423.172638 227.57285 
L 423.310846 231.484468 
L 425.581367 231.484468 
L 425.718645 227.57285 
L 426.445861 227.57285 
L 426.585704 231.484468 
L 429.758682 231.484468 
L 429.898333 241.263513 
L 431.575455 241.263513 
L 431.575455 241.263513 
" style="fill:none;stroke:#ff7f0e;stroke-linecap:square;stroke-width:1.5;"/>
   </g>
   <g id="patch_3">
    <path d="M 44.66 255.638708 
L 44.66 25.44 
" style="fill:none;stroke:#000000;stroke-linecap:square;stroke-linejoin:miter;stroke-width:0.8;"/>
   </g>
   <g id="patch_4">
    <path d="M 450 255.638708 
L 450 25.44 
" style="fill:none;stroke:#000000;stroke-linecap:square;stroke-linejoin:miter;stroke-width:0.8;"/>
   </g>
   <g id="patch_5">
    <path d="M 44.66 255.638708 
L 450 255.638708 
" style="fill:none;stroke:#000000;stroke-linecap:square;stroke-linejoin:miter;stroke-width:0.8;"/>
   </g>
   <g id="patch_6">
    <path d="M 44.66 25.44 
L 450 25.44 
" style="fill:none;stroke:#000000;stroke-linecap:square;stroke-linejoin:miter;stroke-width:0.8;"/>
   </g>
   <g id="text_16">
    <!-- Lake Shoecraft - Water and Air Temperature -->
    <g transform="translate(115.711562 19.44)scale(0.12 -0.12)">
     <defs>
      <path d="M 9.8125 72.90625 
L 19.671875 72.90625 
L 19.671875 8.296875 
L 55.171875 8.296875 
L 55.171875 0 
L 9.8125 0 
z
" id="DejaVuSans-76"/>
      <path d="M 9.078125 75.984375 
L 18.109375 75.984375 
L 18.109375 31.109375 
L 44.921875 54.6875 
L 56.390625 54.6875 
L 27.390625 29.109375 
L 57.625 0 
L 45.90625 0 
L 18.109375 26.703125 
L 18.109375 0 
L 9.078125 0 
z
" id="DejaVuSans-107"/>
      <path d="M 53.515625 70.515625 
L 53.515625 60.890625 
Q 47.90625 63.578125 42.921875 64.890625 
Q 37.9375 66.21875 33.296875 66.21875 
Q 25.25 66.21875 20.875 63.09375 
Q 16.5 59.96875 16.5 54.203125 
Q 16.5 49.359375 19.40625 46.890625 
Q 22.3125 44.4375 30.421875 42.921875 
L 36.375 41.703125 
Q 47.40625 39.59375 52.65625 34.296875 
Q 57.90625 29 57.90625 20.125 
Q 57.90625 9.515625 50.796875 4.046875 
Q 43.703125 -1.421875 29.984375 -1.421875 
Q 24.8125 -1.421875 18.96875 -0.25 
Q 13.140625 0.921875 6.890625 3.21875 
L 6.890625 13.375 
Q 12.890625 10.015625 18.65625 8.296875 
Q 24.421875 6.59375 29.984375 6.59375 
Q 38.421875 6.59375 43.015625 9.90625 
Q 47.609375 13.234375 47.609375 19.390625 
Q 47.609375 24.75 44.3125 27.78125 
Q 41.015625 30.8125 33.5 32.328125 
L 27.484375 33.5 
Q 16.453125 35.6875 11.515625 40.375 
Q 6.59375 45.0625 6.59375 53.421875 
Q 6.59375 63.09375 13.40625 68.65625 
Q 20.21875 74.21875 32.171875 74.21875 
Q 37.3125 74.21875 42.625 73.28125 
Q 47.953125 72.359375 53.515625 70.515625 
z
" id="DejaVuSans-83"/>
      <path d="M 54.890625 33.015625 
L 54.890625 0 
L 45.90625 0 
L 45.90625 32.71875 
Q 45.90625 40.484375 42.875 44.328125 
Q 39.84375 48.1875 33.796875 48.1875 
Q 26.515625 48.1875 22.3125 43.546875 
Q 18.109375 38.921875 18.109375 30.90625 
L 18.109375 0 
L 9.078125 0 
L 9.078125 75.984375 
L 18.109375 75.984375 
L 18.109375 46.1875 
Q 21.34375 51.125 25.703125 53.5625 
Q 30.078125 56 35.796875 56 
Q 45.21875 56 50.046875 50.171875 
Q 54.890625 44.34375 54.890625 33.015625 
z
" id="DejaVuSans-104"/>
      <path d="M 30.609375 48.390625 
Q 23.390625 48.390625 19.1875 42.75 
Q 14.984375 37.109375 14.984375 27.296875 
Q 14.984375 17.484375 19.15625 11.84375 
Q 23.34375 6.203125 30.609375 6.203125 
Q 37.796875 6.203125 41.984375 11.859375 
Q 46.1875 17.53125 46.1875 27.296875 
Q 46.1875 37.015625 41.984375 42.703125 
Q 37.796875 48.390625 30.609375 48.390625 
z
M 30.609375 56 
Q 42.328125 56 49.015625 48.375 
Q 55.71875 40.765625 55.71875 27.296875 
Q 55.71875 13.875 49.015625 6.21875 
Q 42.328125 -1.421875 30.609375 -1.421875 
Q 18.84375 -1.421875 12.171875 6.21875 
Q 5.515625 13.875 5.515625 27.296875 
Q 5.515625 40.765625 12.171875 48.375 
Q 18.84375 56 30.609375 56 
z
" id="DejaVuSans-111"/>
      <path d="M 48.78125 52.59375 
L 48.78125 44.1875 
Q 44.96875 46.296875 41.140625 47.34375 
Q 37.3125 48.390625 33.40625 48.390625 
Q 24.65625 48.390625 19.8125 42.84375 
Q 14.984375 37.3125 14.984375 27.296875 
Q 14.984375 17.28125 19.8125 11.734375 
Q 24.65625 6.203125 33.40625 6.203125 
Q 37.3125 6.203125 41.140625 7.25 
Q 44.96875 8.296875 48.78125 10.40625 
L 48.78125 2.09375 
Q 45.015625 0.34375 40.984375 -0.53125 
Q 36.96875 -1.421875 32.421875 -1.421875 
Q 20.0625 -1.421875 12.78125 6.34375 
Q 5.515625 14.109375 5.515625 27.296875 
Q 5.515625 40.671875 12.859375 48.328125 
Q 20.21875 56 33.015625 56 
Q 37.15625 56 41.109375 55.140625 
Q 45.0625 54.296875 48.78125 52.59375 
z
" id="DejaVuSans-99"/>
      <path d="M 37.109375 75.984375 
L 37.109375 68.5 
L 28.515625 68.5 
Q 23.6875 68.5 21.796875 66.546875 
Q 19.921875 64.59375 19.921875 59.515625 
L 19.921875 54.6875 
L 34.71875 54.6875 
L 34.71875 47.703125 
L 19.921875 47.703125 
L 19.921875 0 
L 10.890625 0 
L 10.890625 47.703125 
L 2.296875 47.703125 
L 2.296875 54.6875 
L 10.890625 54.6875 
L 10.890625 58.5 
Q 10.890625 67.625 15.140625 71.796875 
Q 19.390625 75.984375 28.609375 75.984375 
z
" id="DejaVuSans-102"/>
      <path d="M 3.328125 72.90625 
L 13.28125 72.90625 
L 28.609375 11.28125 
L 43.890625 72.90625 
L 54.984375 72.90625 
L 70.3125 11.28125 
L 85.59375 72.90625 
L 95.609375 72.90625 
L 77.296875 0 
L 64.890625 0 
L 49.515625 63.28125 
L 33.984375 0 
L 21.578125 0 
z
" id="DejaVuSans-87"/>
      <path d="M 54.890625 33.015625 
L 54.890625 0 
L 45.90625 0 
L 45.90625 32.71875 
Q 45.90625 40.484375 42.875 44.328125 
Q 39.84375 48.1875 33.796875 48.1875 
Q 26.515625 48.1875 22.3125 43.546875 
Q 18.109375 38.921875 18.109375 30.90625 
L 18.109375 0 
L 9.078125 0 
L 9.078125 54.6875 
L 18.109375 54.6875 
L 18.109375 46.1875 
Q 21.34375 51.125 25.703125 53.5625 
Q 30.078125 56 35.796875 56 
Q 45.21875 56 50.046875 50.171875 
Q 54.890625 44.34375 54.890625 33.015625 
z
" id="DejaVuSans-110"/>
      <path d="M 45.40625 46.390625 
L 45.40625 75.984375 
L 54.390625 75.984375 
L 54.390625 0 
L 45.40625 0 
L 45.40625 8.203125 
Q 42.578125 3.328125 38.25 0.953125 
Q 33.9375 -1.421875 27.875 -1.421875 
Q 17.96875 -1.421875 11.734375 6.484375 
Q 5.515625 14.40625 5.515625 27.296875 
Q 5.515625 40.1875 11.734375 48.09375 
Q 17.96875 56 27.875 56 
Q 33.9375 56 38.25 53.625 
Q 42.578125 51.265625 45.40625 46.390625 
z
M 14.796875 27.296875 
Q 14.796875 17.390625 18.875 11.75 
Q 22.953125 6.109375 30.078125 6.109375 
Q 37.203125 6.109375 41.296875 11.75 
Q 45.40625 17.390625 45.40625 27.296875 
Q 45.40625 37.203125 41.296875 42.84375 
Q 37.203125 48.484375 30.078125 48.484375 
Q 22.953125 48.484375 18.875 42.84375 
Q 14.796875 37.203125 14.796875 27.296875 
z
" id="DejaVuSans-100"/>
      <path d="M 34.1875 63.1875 
L 20.796875 26.90625 
L 47.609375 26.90625 
z
M 28.609375 72.90625 
L 39.796875 72.90625 
L 67.578125 0 
L 57.328125 0 
L 50.6875 18.703125 
L 17.828125 18.703125 
L 11.1875 0 
L 0.78125 0 
z
" id="DejaVuSans-65"/>
      <path d="M 9.421875 54.6875 
L 18.40625 54.6875 
L 18.40625 0 
L 9.421875 0 
z
M 9.421875 75.984375 
L 18.40625 75.984375 
L 18.40625 64.59375 
L 9.421875 64.59375 
z
" id="DejaVuSans-105"/>
     </defs>
     <use xlink:href="#DejaVuSans-76"/>
     <use x="55.712891" xlink:href="#DejaVuSans-97"/>
     <use x="116.992188" xlink:href="#DejaVuSans-107"/>
     <use x="171.277344" xlink:href="#DejaVuSans-101"/>
     <use x="232.800781" xlink:href="#DejaVuSans-32"/>
     <use x="264.587891" xlink:href="#DejaVuSans-83"/>
     <use x="328.064453" xlink:href="#DejaVuSans-104"/>
     <use x="391.443359" xlink:href="#DejaVuSans-111"/>
     <use x="452.625" xlink:href="#DejaVuSans-101"/>
     <use x="514.148438" xlink:href="#DejaVuSans-99"/>
     <use x="569.128906" xlink:href="#DejaVuSans-114"/>
     <use x="610.242188" xlink:href="#DejaVuSans-97"/>
     <use x="671.521484" xlink:href="#DejaVuSans-102"/>
     <use x="704.976562" xlink:href="#DejaVuSans-116"/>
     <use x="744.185547" xlink:href="#DejaVuSans-32"/>
     <use x="775.972656" xlink:href="#DejaVuSans-45"/>
     <use x="812.056641" xlink:href="#DejaVuSans-32"/>
     <use x="843.84375" xlink:href="#DejaVuSans-87"/>
     <use x="936.345703" xlink:href="#DejaVuSans-97"/>
     <use x="997.625" xlink:href="#DejaVuSans-116"/>
     <use x="1036.833984" xlink:href="#DejaVuSans-101"/>
     <use x="1098.357422" xlink:href="#DejaVuSans-114"/>
     <use x="1139.470703" xlink:href="#DejaVuSans-32"/>
     <use x="1171.257812" xlink:href="#DejaVuSans-97"/>
     <use x="1232.537109" xlink:href="#DejaVuSans-110"/>
     <use x="1295.916016" xlink:href="#DejaVuSans-100"/>
     <use x="1359.392578" xlink:href="#DejaVuSans-32"/>
     <use x="1391.179688" xlink:href="#DejaVuSans-65"/>
     <use x="1459.587891" xlink:href="#DejaVuSans-105"/>
     <use x="1487.371094" xlink:href="#DejaVuSans-114"/>
     <use x="1528.484375" xlink:href="#DejaVuSans-32"/>
     <use x="1560.271484" xlink:href="#DejaVuSans-84"/>
     <use x="1604.355469" xlink:href="#DejaVuSans-101"/>
     <use x="1665.878906" xlink:href="#DejaVuSans-109"/>
     <use x="1763.291016" xlink:href="#DejaVuSans-112"/>
     <use x="1826.767578" xlink:href="#DejaVuSans-101"/>
     <use x="1888.291016" xlink:href="#DejaVuSans-114"/>
     <use x="1929.404297" xlink:href="#DejaVuSans-97"/>
     <use x="1990.683594" xlink:href="#DejaVuSans-116"/>
     <use x="2029.892578" xlink:href="#DejaVuSans-117"/>
     <use x="2093.271484" xlink:href="#DejaVuSans-114"/>
     <use x="2132.134766" xlink:href="#DejaVuSans-101"/>
    </g>
   </g>
   <g id="legend_1">
    <g id="patch_7">
     <path d="M 357.890625 62.79625 
L 443 62.79625 
Q 445 62.79625 445 60.79625 
L 445 32.44 
Q 445 30.44 443 30.44 
L 357.890625 30.44 
Q 355.890625 30.44 355.890625 32.44 
L 355.890625 60.79625 
Q 355.890625 62.79625 357.890625 62.79625 
z
" style="fill:#ffffff;opacity:0.8;stroke:#cccccc;stroke-linejoin:miter;"/>
    </g>
    <g id="line2d_29">
     <path d="M 359.890625 38.538437 
L 379.890625 38.538437 
" style="fill:none;stroke:#1f77b4;stroke-linecap:square;stroke-width:1.5;"/>
    </g>
    <g id="line2d_30"/>
    <g id="text_17">
     <!-- Lake Temp -->
     <g transform="translate(387.890625 42.038437)scale(0.1 -0.1)">
      <use xlink:href="#DejaVuSans-76"/>
      <use x="55.712891" xlink:href="#DejaVuSans-97"/>
      <use x="116.992188" xlink:href="#DejaVuSans-107"/>
      <use x="171.277344" xlink:href="#DejaVuSans-101"/>
      <use x="232.800781" xlink:href="#DejaVuSans-32"/>
      <use x="264.587891" xlink:href="#DejaVuSans-84"/>
      <use x="308.671875" xlink:href="#DejaVuSans-101"/>
      <use x="370.195312" xlink:href="#DejaVuSans-109"/>
      <use x="467.607422" xlink:href="#DejaVuSans-112"/>
     </g>
    </g>
    <g id="line2d_31">
     <path d="M 359.890625 53.216562 
L 379.890625 53.216562 
" style="fill:none;stroke:#ff7f0e;stroke-linecap:square;stroke-width:1.5;"/>
    </g>
    <g id="line2d_32"/>
    <g id="text_18">
     <!-- Air Temp -->
     <g transform="translate(387.890625 56.716562)scale(0.1 -0.1)">
      <use xlink:href="#DejaVuSans-65"/>
      <use x="68.408203" xlink:href="#DejaVuSans-105"/>
      <use x="96.191406" xlink:href="#DejaVuSans-114"/>
      <use x="137.304688" xlink:href="#DejaVuSans-32"/>
      <use x="169.091797" xlink:href="#DejaVuSans-84"/>
      <use x="213.175781" xlink:href="#DejaVuSans-101"/>
      <use x="274.699219" xlink:href="#DejaVuSans-109"/>
      <use x="372.111328" xlink:href="#DejaVuSans-112"/>
     </g>
    </g>
   </g>
  </g>
 </g>
 <defs>
  <clipPath id="p05e978d1b1">
   <rect height="230.198708" width="405.34" x="44.66" y="25.44"/>
  </clipPath>
 </defs>
</svg>
