<?xml version="1.0" encoding="utf-8" standalone="no"?>
<!DOCTYPE svg PUBLIC "-//W3C//DTD SVG 1.1//EN"
  "http://www.w3.org/Graphics/SVG/1.1/DTD/svg11.dtd">
<!-- Created with matplotlib (https://matplotlib.org/) -->
<svg height="345.6pt" version="1.1" viewBox="0 0 460.8 345.6" width="460.8pt" xmlns="http://www.w3.org/2000/svg" xmlns:xlink="http://www.w3.org/1999/xlink">
 <metadata>
  <rdf:RDF xmlns:cc="http://creativecommons.org/ns#" xmlns:dc="http://purl.org/dc/elements/1.1/" xmlns:rdf="http://www.w3.org/1999/02/22-rdf-syntax-ns#">
   <cc:Work>
    <dc:type rdf:resource="http://purl.org/dc/dcmitype/StillImage"/>
    <dc:date>2024-09-06T01:57:35.249466</dc:date>
    <dc:format>image/svg+xml</dc:format>
    <dc:creator>
     <cc:Agent>
      <dc:title>Matplotlib v3.3.2, https://matplotlib.org/</dc:title>
     </cc:Agent>
    </dc:creator>
   </cc:Work>
  </rdf:RDF>
 </metadata>
 <defs>
  <style type="text/css">*{stroke-linecap:butt;stroke-linejoin:round;}</style>
 </defs>
 <g id="figure_1">
  <g id="patch_1">
   <path d="M 0 345.6 
L 460.8 345.6 
L 460.8 0 
L 0 0 
z
" style="fill:none;"/>
  </g>
  <g id="axes_1">
   <g id="patch_2">
    <path d="M 44.66 255.638708 
L 450 255.638708 
L 450 25.44 
L 44.66 25.44 
z
" style="fill:none;"/>
   </g>
   <g id="matplotlib.axis_1">
    <g id="xtick_1">
     <g id="line2d_1">
      <path clip-path="url(#p1a99765d35)" d="M 79.487905 255.638708 
L 79.487905 25.44 
" style="fill:none;stroke:#b0b0b0;stroke-linecap:square;stroke-width:0.8;"/>
     </g>
     <g id="line2d_2">
      <defs>
       <path d="M 0 0 
L 0 3.5 
" id="m2f694428ef" style="stroke:#000000;stroke-width:0.8;"/>
      </defs>
      <g>
       <use style="stroke:#000000;stroke-width:0.8;" x="79.487905" xlink:href="#m2f694428ef" y="255.638708"/>
      </g>
     </g>
     <g id="text_1">
      <!-- 2024-08-28 -->
      <g transform="translate(72.142512 319.848351)rotate(-70)scale(0.1 -0.1)">
       <defs>
        <path d="M 19.1875 8.296875 
L 53.609375 8.296875 
L 53.609375 0 
L 7.328125 0 
L 7.328125 8.296875 
Q 12.9375 14.109375 22.625 23.890625 
Q 32.328125 33.6875 34.8125 36.53125 
Q 39.546875 41.84375 41.421875 45.53125 
Q 43.3125 49.21875 43.3125 52.78125 
Q 43.3125 58.59375 39.234375 62.25 
Q 35.15625 65.921875 28.609375 65.921875 
Q 23.96875 65.921875 18.8125 64.3125 
Q 13.671875 62.703125 7.8125 59.421875 
L 7.8125 69.390625 
Q 13.765625 71.78125 18.9375 73 
Q 24.125 74.21875 28.421875 74.21875 
Q 39.75 74.21875 46.484375 68.546875 
Q 53.21875 62.890625 53.21875 53.421875 
Q 53.21875 48.921875 51.53125 44.890625 
Q 49.859375 40.875 45.40625 35.40625 
Q 44.1875 33.984375 37.640625 27.21875 
Q 31.109375 20.453125 19.1875 8.296875 
z
" id="DejaVuSans-50"/>
        <path d="M 31.78125 66.40625 
Q 24.171875 66.40625 20.328125 58.90625 
Q 16.5 51.421875 16.5 36.375 
Q 16.5 21.390625 20.328125 13.890625 
Q 24.171875 6.390625 31.78125 6.390625 
Q 39.453125 6.390625 43.28125 13.890625 
Q 47.125 21.390625 47.125 36.375 
Q 47.125 51.421875 43.28125 58.90625 
Q 39.453125 66.40625 31.78125 66.40625 
z
M 31.78125 74.21875 
Q 44.046875 74.21875 50.515625 64.515625 
Q 56.984375 54.828125 56.984375 36.375 
Q 56.984375 17.96875 50.515625 8.265625 
Q 44.046875 -1.421875 31.78125 -1.421875 
Q 19.53125 -1.421875 13.0625 8.265625 
Q 6.59375 17.96875 6.59375 36.375 
Q 6.59375 54.828125 13.0625 64.515625 
Q 19.53125 74.21875 31.78125 74.21875 
z
" id="DejaVuSans-48"/>
        <path d="M 37.796875 64.3125 
L 12.890625 25.390625 
L 37.796875 25.390625 
z
M 35.203125 72.90625 
L 47.609375 72.90625 
L 47.609375 25.390625 
L 58.015625 25.390625 
L 58.015625 17.1875 
L 47.609375 17.1875 
L 47.609375 0 
L 37.796875 0 
L 37.796875 17.1875 
L 4.890625 17.1875 
L 4.890625 26.703125 
z
" id="DejaVuSans-52"/>
        <path d="M 4.890625 31.390625 
L 31.203125 31.390625 
L 31.203125 23.390625 
L 4.890625 23.390625 
z
" id="DejaVuSans-45"/>
        <path d="M 31.78125 34.625 
Q 24.75 34.625 20.71875 30.859375 
Q 16.703125 27.09375 16.703125 20.515625 
Q 16.703125 13.921875 20.71875 10.15625 
Q 24.75 6.390625 31.78125 6.390625 
Q 38.8125 6.390625 42.859375 10.171875 
Q 46.921875 13.96875 46.921875 20.515625 
Q 46.921875 27.09375 42.890625 30.859375 
Q 38.875 34.625 31.78125 34.625 
z
M 21.921875 38.8125 
Q 15.578125 40.375 12.03125 44.71875 
Q 8.5 49.078125 8.5 55.328125 
Q 8.5 64.0625 14.71875 69.140625 
Q 20.953125 74.21875 31.78125 74.21875 
Q 42.671875 74.21875 48.875 69.140625 
Q 55.078125 64.0625 55.078125 55.328125 
Q 55.078125 49.078125 51.53125 44.71875 
Q 48 40.375 41.703125 38.8125 
Q 48.828125 37.15625 52.796875 32.3125 
Q 56.78125 27.484375 56.78125 20.515625 
Q 56.78125 9.90625 50.3125 4.234375 
Q 43.84375 -1.421875 31.78125 -1.421875 
Q 19.734375 -1.421875 13.25 4.234375 
Q 6.78125 9.90625 6.78125 20.515625 
Q 6.78125 27.484375 10.78125 32.3125 
Q 14.796875 37.15625 21.921875 38.8125 
z
M 18.3125 54.390625 
Q 18.3125 48.734375 21.84375 45.5625 
Q 25.390625 42.390625 31.78125 42.390625 
Q 38.140625 42.390625 41.71875 45.5625 
Q 45.3125 48.734375 45.3125 54.390625 
Q 45.3125 60.0625 41.71875 63.234375 
Q 38.140625 66.40625 31.78125 66.40625 
Q 25.390625 66.40625 21.84375 63.234375 
Q 18.3125 60.0625 18.3125 54.390625 
z
" id="DejaVuSans-56"/>
       </defs>
       <use xlink:href="#DejaVuSans-50"/>
       <use x="63.623047" xlink:href="#DejaVuSans-48"/>
       <use x="127.246094" xlink:href="#DejaVuSans-50"/>
       <use x="190.869141" xlink:href="#DejaVuSans-52"/>
       <use x="254.492188" xlink:href="#DejaVuSans-45"/>
       <use x="290.576172" xlink:href="#DejaVuSans-48"/>
       <use x="354.199219" xlink:href="#DejaVuSans-56"/>
       <use x="417.822266" xlink:href="#DejaVuSans-45"/>
       <use x="453.90625" xlink:href="#DejaVuSans-50"/>
       <use x="517.529297" xlink:href="#DejaVuSans-56"/>
      </g>
     </g>
    </g>
    <g id="xtick_2">
     <g id="line2d_3">
      <path clip-path="url(#p1a99765d35)" d="M 118.260031 255.638708 
L 118.260031 25.44 
" style="fill:none;stroke:#b0b0b0;stroke-linecap:square;stroke-width:0.8;"/>
     </g>
     <g id="line2d_4">
      <g>
       <use style="stroke:#000000;stroke-width:0.8;" x="118.260031" xlink:href="#m2f694428ef" y="255.638708"/>
      </g>
     </g>
     <g id="text_2">
      <!-- 2024-08-29 -->
      <g transform="translate(110.914638 319.848351)rotate(-70)scale(0.1 -0.1)">
       <defs>
        <path d="M 10.984375 1.515625 
L 10.984375 10.5 
Q 14.703125 8.734375 18.5 7.8125 
Q 22.3125 6.890625 25.984375 6.890625 
Q 35.75 6.890625 40.890625 13.453125 
Q 46.046875 20.015625 46.78125 33.40625 
Q 43.953125 29.203125 39.59375 26.953125 
Q 35.25 24.703125 29.984375 24.703125 
Q 19.046875 24.703125 12.671875 31.3125 
Q 6.296875 37.9375 6.296875 49.421875 
Q 6.296875 60.640625 12.9375 67.421875 
Q 19.578125 74.21875 30.609375 74.21875 
Q 43.265625 74.21875 49.921875 64.515625 
Q 56.59375 54.828125 56.59375 36.375 
Q 56.59375 19.140625 48.40625 8.859375 
Q 40.234375 -1.421875 26.421875 -1.421875 
Q 22.703125 -1.421875 18.890625 -0.6875 
Q 15.09375 0.046875 10.984375 1.515625 
z
M 30.609375 32.421875 
Q 37.25 32.421875 41.125 36.953125 
Q 45.015625 41.5 45.015625 49.421875 
Q 45.015625 57.28125 41.125 61.84375 
Q 37.25 66.40625 30.609375 66.40625 
Q 23.96875 66.40625 20.09375 61.84375 
Q 16.21875 57.28125 16.21875 49.421875 
Q 16.21875 41.5 20.09375 36.953125 
Q 23.96875 32.421875 30.609375 32.421875 
z
" id="DejaVuSans-57"/>
       </defs>
       <use xlink:href="#DejaVuSans-50"/>
       <use x="63.623047" xlink:href="#DejaVuSans-48"/>
       <use x="127.246094" xlink:href="#DejaVuSans-50"/>
       <use x="190.869141" xlink:href="#DejaVuSans-52"/>
       <use x="254.492188" xlink:href="#DejaVuSans-45"/>
       <use x="290.576172" xlink:href="#DejaVuSans-48"/>
       <use x="354.199219" xlink:href="#DejaVuSans-56"/>
       <use x="417.822266" xlink:href="#DejaVuSans-45"/>
       <use x="453.90625" xlink:href="#DejaVuSans-50"/>
       <use x="517.529297" xlink:href="#DejaVuSans-57"/>
      </g>
     </g>
    </g>
    <g id="xtick_3">
     <g id="line2d_5">
      <path clip-path="url(#p1a99765d35)" d="M 157.032157 255.638708 
L 157.032157 25.44 
" style="fill:none;stroke:#b0b0b0;stroke-linecap:square;stroke-width:0.8;"/>
     </g>
     <g id="line2d_6">
      <g>
       <use style="stroke:#000000;stroke-width:0.8;" x="157.032157" xlink:href="#m2f694428ef" y="255.638708"/>
      </g>
     </g>
     <g id="text_3">
      <!-- 2024-08-30 -->
      <g transform="translate(149.686764 319.848351)rotate(-70)scale(0.1 -0.1)">
       <defs>
        <path d="M 40.578125 39.3125 
Q 47.65625 37.796875 51.625 33 
Q 55.609375 28.21875 55.609375 21.1875 
Q 55.609375 10.40625 48.1875 4.484375 
Q 40.765625 -1.421875 27.09375 -1.421875 
Q 22.515625 -1.421875 17.65625 -0.515625 
Q 12.796875 0.390625 7.625 2.203125 
L 7.625 11.71875 
Q 11.71875 9.328125 16.59375 8.109375 
Q 21.484375 6.890625 26.8125 6.890625 
Q 36.078125 6.890625 40.9375 10.546875 
Q 45.796875 14.203125 45.796875 21.1875 
Q 45.796875 27.640625 41.28125 31.265625 
Q 36.765625 34.90625 28.71875 34.90625 
L 20.21875 34.90625 
L 20.21875 43.015625 
L 29.109375 43.015625 
Q 36.375 43.015625 40.234375 45.921875 
Q 44.09375 48.828125 44.09375 54.296875 
Q 44.09375 59.90625 40.109375 62.90625 
Q 36.140625 65.921875 28.71875 65.921875 
Q 24.65625 65.921875 20.015625 65.03125 
Q 15.375 64.15625 9.8125 62.3125 
L 9.8125 71.09375 
Q 15.4375 72.65625 20.34375 73.4375 
Q 25.25 74.21875 29.59375 74.21875 
Q 40.828125 74.21875 47.359375 69.109375 
Q 53.90625 64.015625 53.90625 55.328125 
Q 53.90625 49.265625 50.4375 45.09375 
Q 46.96875 40.921875 40.578125 39.3125 
z
" id="DejaVuSans-51"/>
       </defs>
       <use xlink:href="#DejaVuSans-50"/>
       <use x="63.623047" xlink:href="#DejaVuSans-48"/>
       <use x="127.246094" xlink:href="#DejaVuSans-50"/>
       <use x="190.869141" xlink:href="#DejaVuSans-52"/>
       <use x="254.492188" xlink:href="#DejaVuSans-45"/>
       <use x="290.576172" xlink:href="#DejaVuSans-48"/>
       <use x="354.199219" xlink:href="#DejaVuSans-56"/>
       <use x="417.822266" xlink:href="#DejaVuSans-45"/>
       <use x="453.90625" xlink:href="#DejaVuSans-51"/>
       <use x="517.529297" xlink:href="#DejaVuSans-48"/>
      </g>
     </g>
    </g>
    <g id="xtick_4">
     <g id="line2d_7">
      <path clip-path="url(#p1a99765d35)" d="M 195.804283 255.638708 
L 195.804283 25.44 
" style="fill:none;stroke:#b0b0b0;stroke-linecap:square;stroke-width:0.8;"/>
     </g>
     <g id="line2d_8">
      <g>
       <use style="stroke:#000000;stroke-width:0.8;" x="195.804283" xlink:href="#m2f694428ef" y="255.638708"/>
      </g>
     </g>
     <g id="text_4">
      <!-- 2024-08-31 -->
      <g transform="translate(188.45889 319.848351)rotate(-70)scale(0.1 -0.1)">
       <defs>
        <path d="M 12.40625 8.296875 
L 28.515625 8.296875 
L 28.515625 63.921875 
L 10.984375 60.40625 
L 10.984375 69.390625 
L 28.421875 72.90625 
L 38.28125 72.90625 
L 38.28125 8.296875 
L 54.390625 8.296875 
L 54.390625 0 
L 12.40625 0 
z
" id="DejaVuSans-49"/>
       </defs>
       <use xlink:href="#DejaVuSans-50"/>
       <use x="63.623047" xlink:href="#DejaVuSans-48"/>
       <use x="127.246094" xlink:href="#DejaVuSans-50"/>
       <use x="190.869141" xlink:href="#DejaVuSans-52"/>
       <use x="254.492188" xlink:href="#DejaVuSans-45"/>
       <use x="290.576172" xlink:href="#DejaVuSans-48"/>
       <use x="354.199219" xlink:href="#DejaVuSans-56"/>
       <use x="417.822266" xlink:href="#DejaVuSans-45"/>
       <use x="453.90625" xlink:href="#DejaVuSans-51"/>
       <use x="517.529297" xlink:href="#DejaVuSans-49"/>
      </g>
     </g>
    </g>
    <g id="xtick_5">
     <g id="line2d_9">
      <path clip-path="url(#p1a99765d35)" d="M 234.576409 255.638708 
L 234.576409 25.44 
" style="fill:none;stroke:#b0b0b0;stroke-linecap:square;stroke-width:0.8;"/>
     </g>
     <g id="line2d_10">
      <g>
       <use style="stroke:#000000;stroke-width:0.8;" x="234.576409" xlink:href="#m2f694428ef" y="255.638708"/>
      </g>
     </g>
     <g id="text_5">
      <!-- 2024-09-01 -->
      <g transform="translate(227.231016 319.848351)rotate(-70)scale(0.1 -0.1)">
       <use xlink:href="#DejaVuSans-50"/>
       <use x="63.623047" xlink:href="#DejaVuSans-48"/>
       <use x="127.246094" xlink:href="#DejaVuSans-50"/>
       <use x="190.869141" xlink:href="#DejaVuSans-52"/>
       <use x="254.492188" xlink:href="#DejaVuSans-45"/>
       <use x="290.576172" xlink:href="#DejaVuSans-48"/>
       <use x="354.199219" xlink:href="#DejaVuSans-57"/>
       <use x="417.822266" xlink:href="#DejaVuSans-45"/>
       <use x="453.90625" xlink:href="#DejaVuSans-48"/>
       <use x="517.529297" xlink:href="#DejaVuSans-49"/>
      </g>
     </g>
    </g>
    <g id="xtick_6">
     <g id="line2d_11">
      <path clip-path="url(#p1a99765d35)" d="M 273.348535 255.638708 
L 273.348535 25.44 
" style="fill:none;stroke:#b0b0b0;stroke-linecap:square;stroke-width:0.8;"/>
     </g>
     <g id="line2d_12">
      <g>
       <use style="stroke:#000000;stroke-width:0.8;" x="273.348535" xlink:href="#m2f694428ef" y="255.638708"/>
      </g>
     </g>
     <g id="text_6">
      <!-- 2024-09-02 -->
      <g transform="translate(266.003142 319.848351)rotate(-70)scale(0.1 -0.1)">
       <use xlink:href="#DejaVuSans-50"/>
       <use x="63.623047" xlink:href="#DejaVuSans-48"/>
       <use x="127.246094" xlink:href="#DejaVuSans-50"/>
       <use x="190.869141" xlink:href="#DejaVuSans-52"/>
       <use x="254.492188" xlink:href="#DejaVuSans-45"/>
       <use x="290.576172" xlink:href="#DejaVuSans-48"/>
       <use x="354.199219" xlink:href="#DejaVuSans-57"/>
       <use x="417.822266" xlink:href="#DejaVuSans-45"/>
       <use x="453.90625" xlink:href="#DejaVuSans-48"/>
       <use x="517.529297" xlink:href="#DejaVuSans-50"/>
      </g>
     </g>
    </g>
    <g id="xtick_7">
     <g id="line2d_13">
      <path clip-path="url(#p1a99765d35)" d="M 312.120661 255.638708 
L 312.120661 25.44 
" style="fill:none;stroke:#b0b0b0;stroke-linecap:square;stroke-width:0.8;"/>
     </g>
     <g id="line2d_14">
      <g>
       <use style="stroke:#000000;stroke-width:0.8;" x="312.120661" xlink:href="#m2f694428ef" y="255.638708"/>
      </g>
     </g>
     <g id="text_7">
      <!-- 2024-09-03 -->
      <g transform="translate(304.775268 319.848351)rotate(-70)scale(0.1 -0.1)">
       <use xlink:href="#DejaVuSans-50"/>
       <use x="63.623047" xlink:href="#DejaVuSans-48"/>
       <use x="127.246094" xlink:href="#DejaVuSans-50"/>
       <use x="190.869141" xlink:href="#DejaVuSans-52"/>
       <use x="254.492188" xlink:href="#DejaVuSans-45"/>
       <use x="290.576172" xlink:href="#DejaVuSans-48"/>
       <use x="354.199219" xlink:href="#DejaVuSans-57"/>
       <use x="417.822266" xlink:href="#DejaVuSans-45"/>
       <use x="453.90625" xlink:href="#DejaVuSans-48"/>
       <use x="517.529297" xlink:href="#DejaVuSans-51"/>
      </g>
     </g>
    </g>
    <g id="xtick_8">
     <g id="line2d_15">
      <path clip-path="url(#p1a99765d35)" d="M 350.892787 255.638708 
L 350.892787 25.44 
" style="fill:none;stroke:#b0b0b0;stroke-linecap:square;stroke-width:0.8;"/>
     </g>
     <g id="line2d_16">
      <g>
       <use style="stroke:#000000;stroke-width:0.8;" x="350.892787" xlink:href="#m2f694428ef" y="255.638708"/>
      </g>
     </g>
     <g id="text_8">
      <!-- 2024-09-04 -->
      <g transform="translate(343.547394 319.848351)rotate(-70)scale(0.1 -0.1)">
       <use xlink:href="#DejaVuSans-50"/>
       <use x="63.623047" xlink:href="#DejaVuSans-48"/>
       <use x="127.246094" xlink:href="#DejaVuSans-50"/>
       <use x="190.869141" xlink:href="#DejaVuSans-52"/>
       <use x="254.492188" xlink:href="#DejaVuSans-45"/>
       <use x="290.576172" xlink:href="#DejaVuSans-48"/>
       <use x="354.199219" xlink:href="#DejaVuSans-57"/>
       <use x="417.822266" xlink:href="#DejaVuSans-45"/>
       <use x="453.90625" xlink:href="#DejaVuSans-48"/>
       <use x="517.529297" xlink:href="#DejaVuSans-52"/>
      </g>
     </g>
    </g>
    <g id="xtick_9">
     <g id="line2d_17">
      <path clip-path="url(#p1a99765d35)" d="M 389.664913 255.638708 
L 389.664913 25.44 
" style="fill:none;stroke:#b0b0b0;stroke-linecap:square;stroke-width:0.8;"/>
     </g>
     <g id="line2d_18">
      <g>
       <use style="stroke:#000000;stroke-width:0.8;" x="389.664913" xlink:href="#m2f694428ef" y="255.638708"/>
      </g>
     </g>
     <g id="text_9">
      <!-- 2024-09-05 -->
      <g transform="translate(382.31952 319.848351)rotate(-70)scale(0.1 -0.1)">
       <defs>
        <path d="M 10.796875 72.90625 
L 49.515625 72.90625 
L 49.515625 64.59375 
L 19.828125 64.59375 
L 19.828125 46.734375 
Q 21.96875 47.46875 24.109375 47.828125 
Q 26.265625 48.1875 28.421875 48.1875 
Q 40.625 48.1875 47.75 41.5 
Q 54.890625 34.8125 54.890625 23.390625 
Q 54.890625 11.625 47.5625 5.09375 
Q 40.234375 -1.421875 26.90625 -1.421875 
Q 22.3125 -1.421875 17.546875 -0.640625 
Q 12.796875 0.140625 7.71875 1.703125 
L 7.71875 11.625 
Q 12.109375 9.234375 16.796875 8.0625 
Q 21.484375 6.890625 26.703125 6.890625 
Q 35.15625 6.890625 40.078125 11.328125 
Q 45.015625 15.765625 45.015625 23.390625 
Q 45.015625 31 40.078125 35.4375 
Q 35.15625 39.890625 26.703125 39.890625 
Q 22.75 39.890625 18.8125 39.015625 
Q 14.890625 38.140625 10.796875 36.28125 
z
" id="DejaVuSans-53"/>
       </defs>
       <use xlink:href="#DejaVuSans-50"/>
       <use x="63.623047" xlink:href="#DejaVuSans-48"/>
       <use x="127.246094" xlink:href="#DejaVuSans-50"/>
       <use x="190.869141" xlink:href="#DejaVuSans-52"/>
       <use x="254.492188" xlink:href="#DejaVuSans-45"/>
       <use x="290.576172" xlink:href="#DejaVuSans-48"/>
       <use x="354.199219" xlink:href="#DejaVuSans-57"/>
       <use x="417.822266" xlink:href="#DejaVuSans-45"/>
       <use x="453.90625" xlink:href="#DejaVuSans-48"/>
       <use x="517.529297" xlink:href="#DejaVuSans-53"/>
      </g>
     </g>
    </g>
    <g id="xtick_10">
     <g id="line2d_19">
      <path clip-path="url(#p1a99765d35)" d="M 428.437038 255.638708 
L 428.437038 25.44 
" style="fill:none;stroke:#b0b0b0;stroke-linecap:square;stroke-width:0.8;"/>
     </g>
     <g id="line2d_20">
      <g>
       <use style="stroke:#000000;stroke-width:0.8;" x="428.437038" xlink:href="#m2f694428ef" y="255.638708"/>
      </g>
     </g>
     <g id="text_10">
      <!-- 2024-09-06 -->
      <g transform="translate(421.091646 319.848351)rotate(-70)scale(0.1 -0.1)">
       <defs>
        <path d="M 33.015625 40.375 
Q 26.375 40.375 22.484375 35.828125 
Q 18.609375 31.296875 18.609375 23.390625 
Q 18.609375 15.53125 22.484375 10.953125 
Q 26.375 6.390625 33.015625 6.390625 
Q 39.65625 6.390625 43.53125 10.953125 
Q 47.40625 15.53125 47.40625 23.390625 
Q 47.40625 31.296875 43.53125 35.828125 
Q 39.65625 40.375 33.015625 40.375 
z
M 52.59375 71.296875 
L 52.59375 62.3125 
Q 48.875 64.0625 45.09375 64.984375 
Q 41.3125 65.921875 37.59375 65.921875 
Q 27.828125 65.921875 22.671875 59.328125 
Q 17.53125 52.734375 16.796875 39.40625 
Q 19.671875 43.65625 24.015625 45.921875 
Q 28.375 48.1875 33.59375 48.1875 
Q 44.578125 48.1875 50.953125 41.515625 
Q 57.328125 34.859375 57.328125 23.390625 
Q 57.328125 12.15625 50.6875 5.359375 
Q 44.046875 -1.421875 33.015625 -1.421875 
Q 20.359375 -1.421875 13.671875 8.265625 
Q 6.984375 17.96875 6.984375 36.375 
Q 6.984375 53.65625 15.1875 63.9375 
Q 23.390625 74.21875 37.203125 74.21875 
Q 40.921875 74.21875 44.703125 73.484375 
Q 48.484375 72.75 52.59375 71.296875 
z
" id="DejaVuSans-54"/>
       </defs>
       <use xlink:href="#DejaVuSans-50"/>
       <use x="63.623047" xlink:href="#DejaVuSans-48"/>
       <use x="127.246094" xlink:href="#DejaVuSans-50"/>
       <use x="190.869141" xlink:href="#DejaVuSans-52"/>
       <use x="254.492188" xlink:href="#DejaVuSans-45"/>
       <use x="290.576172" xlink:href="#DejaVuSans-48"/>
       <use x="354.199219" xlink:href="#DejaVuSans-57"/>
       <use x="417.822266" xlink:href="#DejaVuSans-45"/>
       <use x="453.90625" xlink:href="#DejaVuSans-48"/>
       <use x="517.529297" xlink:href="#DejaVuSans-54"/>
      </g>
     </g>
    </g>
    <g id="text_11">
     <!-- Date -->
     <g transform="translate(235.379219 332.158083)scale(0.1 -0.1)">
      <defs>
       <path d="M 19.671875 64.796875 
L 19.671875 8.109375 
L 31.59375 8.109375 
Q 46.6875 8.109375 53.6875 14.9375 
Q 60.6875 21.78125 60.6875 36.53125 
Q 60.6875 51.171875 53.6875 57.984375 
Q 46.6875 64.796875 31.59375 64.796875 
z
M 9.8125 72.90625 
L 30.078125 72.90625 
Q 51.265625 72.90625 61.171875 64.09375 
Q 71.09375 55.28125 71.09375 36.53125 
Q 71.09375 17.671875 61.125 8.828125 
Q 51.171875 0 30.078125 0 
L 9.8125 0 
z
" id="DejaVuSans-68"/>
       <path d="M 34.28125 27.484375 
Q 23.390625 27.484375 19.1875 25 
Q 14.984375 22.515625 14.984375 16.5 
Q 14.984375 11.71875 18.140625 8.90625 
Q 21.296875 6.109375 26.703125 6.109375 
Q 34.1875 6.109375 38.703125 11.40625 
Q 43.21875 16.703125 43.21875 25.484375 
L 43.21875 27.484375 
z
M 52.203125 31.203125 
L 52.203125 0 
L 43.21875 0 
L 43.21875 8.296875 
Q 40.140625 3.328125 35.546875 0.953125 
Q 30.953125 -1.421875 24.3125 -1.421875 
Q 15.921875 -1.421875 10.953125 3.296875 
Q 6 8.015625 6 15.921875 
Q 6 25.140625 12.171875 29.828125 
Q 18.359375 34.515625 30.609375 34.515625 
L 43.21875 34.515625 
L 43.21875 35.40625 
Q 43.21875 41.609375 39.140625 45 
Q 35.0625 48.390625 27.6875 48.390625 
Q 23 48.390625 18.546875 47.265625 
Q 14.109375 46.140625 10.015625 43.890625 
L 10.015625 52.203125 
Q 14.9375 54.109375 19.578125 55.046875 
Q 24.21875 56 28.609375 56 
Q 40.484375 56 46.34375 49.84375 
Q 52.203125 43.703125 52.203125 31.203125 
z
" id="DejaVuSans-97"/>
       <path d="M 18.3125 70.21875 
L 18.3125 54.6875 
L 36.8125 54.6875 
L 36.8125 47.703125 
L 18.3125 47.703125 
L 18.3125 18.015625 
Q 18.3125 11.328125 20.140625 9.421875 
Q 21.96875 7.515625 27.59375 7.515625 
L 36.8125 7.515625 
L 36.8125 0 
L 27.59375 0 
Q 17.1875 0 13.234375 3.875 
Q 9.28125 7.765625 9.28125 18.015625 
L 9.28125 47.703125 
L 2.6875 47.703125 
L 2.6875 54.6875 
L 9.28125 54.6875 
L 9.28125 70.21875 
z
" id="DejaVuSans-116"/>
       <path d="M 56.203125 29.59375 
L 56.203125 25.203125 
L 14.890625 25.203125 
Q 15.484375 15.921875 20.484375 11.0625 
Q 25.484375 6.203125 34.421875 6.203125 
Q 39.59375 6.203125 44.453125 7.46875 
Q 49.3125 8.734375 54.109375 11.28125 
L 54.109375 2.78125 
Q 49.265625 0.734375 44.1875 -0.34375 
Q 39.109375 -1.421875 33.890625 -1.421875 
Q 20.796875 -1.421875 13.15625 6.1875 
Q 5.515625 13.8125 5.515625 26.8125 
Q 5.515625 40.234375 12.765625 48.109375 
Q 20.015625 56 32.328125 56 
Q 43.359375 56 49.78125 48.890625 
Q 56.203125 41.796875 56.203125 29.59375 
z
M 47.21875 32.234375 
Q 47.125 39.59375 43.09375 43.984375 
Q 39.0625 48.390625 32.421875 48.390625 
Q 24.90625 48.390625 20.390625 44.140625 
Q 15.875 39.890625 15.1875 32.171875 
z
" id="DejaVuSans-101"/>
      </defs>
      <use xlink:href="#DejaVuSans-68"/>
      <use x="77.001953" xlink:href="#DejaVuSans-97"/>
      <use x="138.28125" xlink:href="#DejaVuSans-116"/>
      <use x="177.490234" xlink:href="#DejaVuSans-101"/>
     </g>
    </g>
   </g>
   <g id="matplotlib.axis_2">
    <g id="ytick_1">
     <g id="line2d_21">
      <path clip-path="url(#p1a99765d35)" d="M 44.66 226.204338 
L 450 226.204338 
" style="fill:none;stroke:#b0b0b0;stroke-linecap:square;stroke-width:0.8;"/>
     </g>
     <g id="line2d_22">
      <defs>
       <path d="M 0 0 
L -3.5 0 
" id="m0af84c2076" style="stroke:#000000;stroke-width:0.8;"/>
      </defs>
      <g>
       <use style="stroke:#000000;stroke-width:0.8;" x="44.66" xlink:href="#m0af84c2076" y="226.204338"/>
      </g>
     </g>
     <g id="text_12">
      <!-- 55 -->
      <g transform="translate(24.935 230.003557)scale(0.1 -0.1)">
       <use xlink:href="#DejaVuSans-53"/>
       <use x="63.623047" xlink:href="#DejaVuSans-53"/>
      </g>
     </g>
    </g>
    <g id="ytick_2">
     <g id="line2d_23">
      <path clip-path="url(#p1a99765d35)" d="M 44.66 196.562475 
L 450 196.562475 
" style="fill:none;stroke:#b0b0b0;stroke-linecap:square;stroke-width:0.8;"/>
     </g>
     <g id="line2d_24">
      <g>
       <use style="stroke:#000000;stroke-width:0.8;" x="44.66" xlink:href="#m0af84c2076" y="196.562475"/>
      </g>
     </g>
     <g id="text_13">
      <!-- 60 -->
      <g transform="translate(24.935 200.361694)scale(0.1 -0.1)">
       <use xlink:href="#DejaVuSans-54"/>
       <use x="63.623047" xlink:href="#DejaVuSans-48"/>
      </g>
     </g>
    </g>
    <g id="ytick_3">
     <g id="line2d_25">
      <path clip-path="url(#p1a99765d35)" d="M 44.66 166.920612 
L 450 166.920612 
" style="fill:none;stroke:#b0b0b0;stroke-linecap:square;stroke-width:0.8;"/>
     </g>
     <g id="line2d_26">
      <g>
       <use style="stroke:#000000;stroke-width:0.8;" x="44.66" xlink:href="#m0af84c2076" y="166.920612"/>
      </g>
     </g>
     <g id="text_14">
      <!-- 65 -->
      <g transform="translate(24.935 170.719831)scale(0.1 -0.1)">
       <use xlink:href="#DejaVuSans-54"/>
       <use x="63.623047" xlink:href="#DejaVuSans-53"/>
      </g>
     </g>
    </g>
    <g id="ytick_4">
     <g id="line2d_27">
      <path clip-path="url(#p1a99765d35)" d="M 44.66 137.278749 
L 450 137.278749 
" style="fill:none;stroke:#b0b0b0;stroke-linecap:square;stroke-width:0.8;"/>
     </g>
     <g id="line2d_28">
      <g>
       <use style="stroke:#000000;stroke-width:0.8;" x="44.66" xlink:href="#m0af84c2076" y="137.278749"/>
      </g>
     </g>
     <g id="text_15">
      <!-- 70 -->
      <g transform="translate(24.935 141.077968)scale(0.1 -0.1)">
       <defs>
        <path d="M 8.203125 72.90625 
L 55.078125 72.90625 
L 55.078125 68.703125 
L 28.609375 0 
L 18.3125 0 
L 43.21875 64.59375 
L 8.203125 64.59375 
z
" id="DejaVuSans-55"/>
       </defs>
       <use xlink:href="#DejaVuSans-55"/>
       <use x="63.623047" xlink:href="#DejaVuSans-48"/>
      </g>
     </g>
    </g>
    <g id="ytick_5">
     <g id="line2d_29">
      <path clip-path="url(#p1a99765d35)" d="M 44.66 107.636886 
L 450 107.636886 
" style="fill:none;stroke:#b0b0b0;stroke-linecap:square;stroke-width:0.8;"/>
     </g>
     <g id="line2d_30">
      <g>
       <use style="stroke:#000000;stroke-width:0.8;" x="44.66" xlink:href="#m0af84c2076" y="107.636886"/>
      </g>
     </g>
     <g id="text_16">
      <!-- 75 -->
      <g transform="translate(24.935 111.436105)scale(0.1 -0.1)">
       <use xlink:href="#DejaVuSans-55"/>
       <use x="63.623047" xlink:href="#DejaVuSans-53"/>
      </g>
     </g>
    </g>
    <g id="ytick_6">
     <g id="line2d_31">
      <path clip-path="url(#p1a99765d35)" d="M 44.66 77.995023 
L 450 77.995023 
" style="fill:none;stroke:#b0b0b0;stroke-linecap:square;stroke-width:0.8;"/>
     </g>
     <g id="line2d_32">
      <g>
       <use style="stroke:#000000;stroke-width:0.8;" x="44.66" xlink:href="#m0af84c2076" y="77.995023"/>
      </g>
     </g>
     <g id="text_17">
      <!-- 80 -->
      <g transform="translate(24.935 81.794242)scale(0.1 -0.1)">
       <use xlink:href="#DejaVuSans-56"/>
       <use x="63.623047" xlink:href="#DejaVuSans-48"/>
      </g>
     </g>
    </g>
    <g id="ytick_7">
     <g id="line2d_33">
      <path clip-path="url(#p1a99765d35)" d="M 44.66 48.35316 
L 450 48.35316 
" style="fill:none;stroke:#b0b0b0;stroke-linecap:square;stroke-width:0.8;"/>
     </g>
     <g id="line2d_34">
      <g>
       <use style="stroke:#000000;stroke-width:0.8;" x="44.66" xlink:href="#m0af84c2076" y="48.35316"/>
      </g>
     </g>
     <g id="text_18">
      <!-- 85 -->
      <g transform="translate(24.935 52.152379)scale(0.1 -0.1)">
       <use xlink:href="#DejaVuSans-56"/>
       <use x="63.623047" xlink:href="#DejaVuSans-53"/>
      </g>
     </g>
    </g>
    <g id="text_19">
     <!-- Temperature [F] -->
     <g transform="translate(18.855313 180.575291)rotate(-90)scale(0.1 -0.1)">
      <defs>
       <path d="M -0.296875 72.90625 
L 61.375 72.90625 
L 61.375 64.59375 
L 35.5 64.59375 
L 35.5 0 
L 25.59375 0 
L 25.59375 64.59375 
L -0.296875 64.59375 
z
" id="DejaVuSans-84"/>
       <path d="M 52 44.1875 
Q 55.375 50.25 60.0625 53.125 
Q 64.75 56 71.09375 56 
Q 79.640625 56 84.28125 50.015625 
Q 88.921875 44.046875 88.921875 33.015625 
L 88.921875 0 
L 79.890625 0 
L 79.890625 32.71875 
Q 79.890625 40.578125 77.09375 44.375 
Q 74.3125 48.1875 68.609375 48.1875 
Q 61.625 48.1875 57.5625 43.546875 
Q 53.515625 38.921875 53.515625 30.90625 
L 53.515625 0 
L 44.484375 0 
L 44.484375 32.71875 
Q 44.484375 40.625 41.703125 44.40625 
Q 38.921875 48.1875 33.109375 48.1875 
Q 26.21875 48.1875 22.15625 43.53125 
Q 18.109375 38.875 18.109375 30.90625 
L 18.109375 0 
L 9.078125 0 
L 9.078125 54.6875 
L 18.109375 54.6875 
L 18.109375 46.1875 
Q 21.1875 51.21875 25.484375 53.609375 
Q 29.78125 56 35.6875 56 
Q 41.65625 56 45.828125 52.96875 
Q 50 49.953125 52 44.1875 
z
" id="DejaVuSans-109"/>
       <path d="M 18.109375 8.203125 
L 18.109375 -20.796875 
L 9.078125 -20.796875 
L 9.078125 54.6875 
L 18.109375 54.6875 
L 18.109375 46.390625 
Q 20.953125 51.265625 25.265625 53.625 
Q 29.59375 56 35.59375 56 
Q 45.5625 56 51.78125 48.09375 
Q 58.015625 40.1875 58.015625 27.296875 
Q 58.015625 14.40625 51.78125 6.484375 
Q 45.5625 -1.421875 35.59375 -1.421875 
Q 29.59375 -1.421875 25.265625 0.953125 
Q 20.953125 3.328125 18.109375 8.203125 
z
M 48.6875 27.296875 
Q 48.6875 37.203125 44.609375 42.84375 
Q 40.53125 48.484375 33.40625 48.484375 
Q 26.265625 48.484375 22.1875 42.84375 
Q 18.109375 37.203125 18.109375 27.296875 
Q 18.109375 17.390625 22.1875 11.75 
Q 26.265625 6.109375 33.40625 6.109375 
Q 40.53125 6.109375 44.609375 11.75 
Q 48.6875 17.390625 48.6875 27.296875 
z
" id="DejaVuSans-112"/>
       <path d="M 41.109375 46.296875 
Q 39.59375 47.171875 37.8125 47.578125 
Q 36.03125 48 33.890625 48 
Q 26.265625 48 22.1875 43.046875 
Q 18.109375 38.09375 18.109375 28.8125 
L 18.109375 0 
L 9.078125 0 
L 9.078125 54.6875 
L 18.109375 54.6875 
L 18.109375 46.1875 
Q 20.953125 51.171875 25.484375 53.578125 
Q 30.03125 56 36.53125 56 
Q 37.453125 56 38.578125 55.875 
Q 39.703125 55.765625 41.0625 55.515625 
z
" id="DejaVuSans-114"/>
       <path d="M 8.5 21.578125 
L 8.5 54.6875 
L 17.484375 54.6875 
L 17.484375 21.921875 
Q 17.484375 14.15625 20.5 10.265625 
Q 23.53125 6.390625 29.59375 6.390625 
Q 36.859375 6.390625 41.078125 11.03125 
Q 45.3125 15.671875 45.3125 23.6875 
L 45.3125 54.6875 
L 54.296875 54.6875 
L 54.296875 0 
L 45.3125 0 
L 45.3125 8.40625 
Q 42.046875 3.421875 37.71875 1 
Q 33.40625 -1.421875 27.6875 -1.421875 
Q 18.265625 -1.421875 13.375 4.4375 
Q 8.5 10.296875 8.5 21.578125 
z
M 31.109375 56 
z
" id="DejaVuSans-117"/>
       <path id="DejaVuSans-32"/>
       <path d="M 8.59375 75.984375 
L 29.296875 75.984375 
L 29.296875 69 
L 17.578125 69 
L 17.578125 -6.203125 
L 29.296875 -6.203125 
L 29.296875 -13.1875 
L 8.59375 -13.1875 
z
" id="DejaVuSans-91"/>
       <path d="M 9.8125 72.90625 
L 51.703125 72.90625 
L 51.703125 64.59375 
L 19.671875 64.59375 
L 19.671875 43.109375 
L 48.578125 43.109375 
L 48.578125 34.8125 
L 19.671875 34.8125 
L 19.671875 0 
L 9.8125 0 
z
" id="DejaVuSans-70"/>
       <path d="M 30.421875 75.984375 
L 30.421875 -13.1875 
L 9.71875 -13.1875 
L 9.71875 -6.203125 
L 21.390625 -6.203125 
L 21.390625 69 
L 9.71875 69 
L 9.71875 75.984375 
z
" id="DejaVuSans-93"/>
      </defs>
      <use xlink:href="#DejaVuSans-84"/>
      <use x="44.083984" xlink:href="#DejaVuSans-101"/>
      <use x="105.607422" xlink:href="#DejaVuSans-109"/>
      <use x="203.019531" xlink:href="#DejaVuSans-112"/>
      <use x="266.496094" xlink:href="#DejaVuSans-101"/>
      <use x="328.019531" xlink:href="#DejaVuSans-114"/>
      <use x="369.132812" xlink:href="#DejaVuSans-97"/>
      <use x="430.412109" xlink:href="#DejaVuSans-116"/>
      <use x="469.621094" xlink:href="#DejaVuSans-117"/>
      <use x="533" xlink:href="#DejaVuSans-114"/>
      <use x="571.863281" xlink:href="#DejaVuSans-101"/>
      <use x="633.386719" xlink:href="#DejaVuSans-32"/>
      <use x="665.173828" xlink:href="#DejaVuSans-91"/>
      <use x="704.1875" xlink:href="#DejaVuSans-70"/>
      <use x="761.707031" xlink:href="#DejaVuSans-93"/>
     </g>
    </g>
   </g>
   <g id="line2d_35">
    <path clip-path="url(#p1a99765d35)" d="M 63.084545 143.799959 
L 63.143721 143.799959 
L 63.199489 143.207122 
L 63.227922 143.799959 
L 63.255823 143.799959 
L 63.367582 143.207122 
L 63.423541 143.207122 
L 63.451512 143.799959 
L 63.479988 143.207122 
L 63.592475 142.614284 
L 63.76159 142.614284 
L 63.846966 142.021447 
L 63.989217 143.207122 
L 64.017217 143.207122 
L 64.103419 142.021447 
L 64.131342 143.207122 
L 64.187452 142.021447 
L 64.245099 142.021447 
L 64.359335 140.835773 
L 64.387135 142.021447 
L 64.415543 140.242935 
L 64.443409 140.242935 
L 64.472008 140.835773 
L 64.528708 140.242935 
L 64.641207 140.242935 
L 64.698411 139.650098 
L 64.727305 140.242935 
L 64.756043 140.242935 
L 64.784592 139.650098 
L 64.812511 140.835773 
L 64.896874 140.835773 
L 65.012508 139.650098 
L 65.040654 139.650098 
L 65.153151 140.242935 
L 65.181298 140.242935 
L 65.295772 140.835773 
L 65.381133 140.835773 
L 65.524968 139.057261 
L 65.66724 140.242935 
L 65.782168 139.057261 
L 65.81165 139.057261 
L 65.840918 138.464424 
L 65.897082 139.057261 
L 65.925425 139.650098 
L 66.001751 139.057261 
L 66.087039 139.057261 
L 66.14482 138.464424 
L 66.172977 139.057261 
L 66.202875 139.057261 
L 66.347337 140.835773 
L 66.405332 140.242935 
L 66.435947 140.835773 
L 66.527607 140.835773 
L 66.555605 142.021447 
L 66.612949 140.835773 
L 66.696937 140.835773 
L 66.81142 140.242935 
L 66.868852 140.835773 
L 66.89799 140.242935 
L 66.953556 140.242935 
L 67.011605 142.021447 
L 67.040861 140.242935 
L 67.096505 140.242935 
L 67.157458 142.021447 
L 67.213118 140.835773 
L 67.241087 142.021447 
L 67.269155 140.242935 
L 67.296985 140.835773 
L 67.32562 140.835773 
L 67.439246 143.207122 
L 67.497054 140.835773 
L 67.524916 143.207122 
L 67.553926 144.392796 
L 67.583225 142.614284 
L 67.729169 140.242935 
L 67.843721 144.392796 
L 67.90169 142.614284 
L 67.930372 143.799959 
L 67.99008 144.392796 
L 68.017876 143.799959 
L 68.045645 143.799959 
L 68.189093 144.985633 
L 68.473671 144.985633 
L 68.587339 145.578471 
L 68.67339 144.985633 
L 68.730123 145.578471 
L 68.758132 144.985633 
L 68.786027 144.392796 
L 68.81471 145.578471 
L 68.873836 145.578471 
L 68.958926 143.207122 
L 68.988231 144.985633 
L 69.017549 146.764145 
L 69.103715 145.578471 
L 69.160472 145.578471 
L 69.332699 143.799959 
L 69.446447 144.392796 
L 69.503962 144.392796 
L 69.532201 143.799959 
L 69.559992 144.392796 
L 69.589059 144.985633 
L 69.617217 143.207122 
L 69.674295 145.578471 
L 69.703415 145.578471 
L 69.761198 144.392796 
L 69.816823 144.985633 
L 69.844582 144.392796 
L 69.872556 145.578471 
L 69.901807 145.578471 
L 69.930241 144.392796 
L 70.014142 144.985633 
L 70.128998 144.985633 
L 70.217365 145.578471 
L 70.302238 144.985633 
L 70.390924 145.578471 
L 70.448464 144.392796 
L 70.504619 144.985633 
L 70.561286 144.985633 
L 70.675108 145.578471 
L 70.986367 145.578471 
L 71.072028 146.764145 
L 71.101241 145.578471 
L 71.15749 146.764145 
L 71.618447 146.764145 
L 71.734318 147.356982 
L 71.763627 146.764145 
L 71.819882 147.356982 
L 71.847824 147.356982 
L 71.875707 146.764145 
L 71.931867 147.356982 
L 72.471872 147.356982 
L 72.50014 147.94982 
L 72.528126 147.356982 
L 144.180498 147.94982 
L 144.20944 147.356982 
L 144.548528 145.578471 
L 144.576646 147.356982 
L 144.63561 146.764145 
L 144.695254 147.356982 
L 144.723956 145.578471 
L 144.792887 147.356982 
L 144.841597 146.764145 
L 144.870441 146.764145 
L 145.01517 143.207122 
L 145.137505 145.578471 
L 145.165274 144.985633 
L 145.295036 146.764145 
L 145.41459 146.764145 
L 145.442421 147.356982 
L 145.589409 144.985633 
L 145.68017 140.242935 
L 145.732658 143.207122 
L 145.880907 145.578471 
L 145.912983 144.392796 
L 145.970137 144.985633 
L 146.069398 146.764145 
L 146.097632 145.578471 
L 146.126316 145.578471 
L 146.160993 144.985633 
L 146.217146 145.578471 
L 146.279605 145.578471 
L 146.424396 139.650098 
L 146.565619 145.578471 
L 146.678699 139.057261 
L 146.736708 140.835773 
L 146.764552 140.242935 
L 146.792366 140.835773 
L 146.947245 146.764145 
L 147.0795 144.392796 
L 147.165675 144.392796 
L 147.195145 143.799959 
L 147.223115 144.392796 
L 147.337928 146.764145 
L 147.485486 144.392796 
L 147.51402 144.392796 
L 147.609631 139.650098 
L 147.637431 142.614284 
L 147.80005 146.764145 
L 147.858893 144.985633 
L 147.887752 144.392796 
L 147.915557 144.985633 
L 148.001073 146.764145 
L 148.028833 144.985633 
L 148.057728 145.578471 
L 148.172136 145.578471 
L 148.201093 144.392796 
L 148.261269 145.578471 
L 148.290357 147.356982 
L 148.34732 144.985633 
L 148.403303 144.985633 
L 148.432618 145.578471 
L 148.462893 142.021447 
L 148.551007 142.614284 
L 148.609562 144.985633 
L 148.667563 143.207122 
L 148.837317 144.985633 
L 148.957024 144.392796 
L 148.984863 144.392796 
L 149.041101 144.985633 
L 149.069774 143.799959 
L 149.125371 144.985633 
L 149.153532 144.985633 
L 149.181298 144.392796 
L 149.238297 144.985633 
L 149.266949 144.985633 
L 149.37858 145.578471 
L 149.407447 145.578471 
L 149.520518 146.764145 
L 149.548745 146.764145 
L 149.662413 147.356982 
L 150.05992 147.356982 
L 150.145636 147.94982 
L 150.259805 147.356982 
L 150.459767 147.356982 
L 150.487826 144.985633 
L 150.572592 146.764145 
L 150.629059 146.764145 
L 150.747152 147.356982 
L 150.832156 147.356982 
L 150.860513 146.764145 
L 150.916454 147.356982 
L 150.972639 147.356982 
L 151.058622 147.94982 
L 151.087577 147.356982 
L 151.145358 147.94982 
L 151.722427 147.94982 
L 151.752691 148.542657 
L 151.780577 147.94982 
L 151.905285 147.356982 
L 152.230293 147.356982 
L 152.314043 146.764145 
L 152.342357 147.356982 
L 152.402525 146.764145 
L 152.802164 146.764145 
L 152.829993 147.356982 
L 152.886308 146.764145 
L 153.144052 146.764145 
L 153.231141 147.356982 
L 153.343305 146.764145 
L 153.454731 146.764145 
L 153.539118 147.356982 
L 153.624908 146.764145 
L 153.738667 147.356982 
L 153.79441 147.356982 
L 153.905943 146.764145 
L 153.961925 146.764145 
L 154.045367 147.356982 
L 154.164562 146.764145 
L 154.446544 146.764145 
L 266.472226 130.164702 
L 266.536947 131.350376 
L 266.67228 131.350376 
L 266.700321 130.164702 
L 266.758355 131.350376 
L 266.849656 131.350376 
L 266.878575 130.164702 
L 266.942192 131.350376 
L 267.197622 131.350376 
L 267.255069 131.943214 
L 267.283148 131.350376 
L 267.459357 131.350376 
L 267.488732 131.943214 
L 267.549936 131.350376 
L 267.583603 131.350376 
L 267.697654 131.943214 
L 267.755153 131.943214 
L 267.783829 131.350376 
L 267.839733 131.943214 
L 267.9524 131.943214 
L 268.036783 131.350376 
L 268.134501 131.943214 
L 268.774294 131.943214 
L 268.802438 132.536051 
L 268.858054 131.943214 
L 268.885793 131.943214 
L 268.914269 132.536051 
L 268.970746 131.943214 
L 268.999493 131.943214 
L 269.116481 132.536051 
L 269.234482 131.943214 
L 269.262302 131.943214 
L 269.374286 132.536051 
L 269.916825 132.536051 
L 269.944915 133.128888 
L 270.000702 132.536051 
L 270.118147 132.536051 
L 270.149229 133.128888 
L 270.219067 132.536051 
L 270.479761 132.536051 
L 270.597211 133.128888 
L 271.805727 133.128888 
L 271.834928 133.721726 
L 271.892934 133.128888 
L 272.151483 133.128888 
L 272.268942 133.721726 
L 272.384635 133.128888 
L 272.413271 133.128888 
L 272.527066 133.721726 
L 272.934974 133.721726 
L 273.069151 134.314563 
L 273.181202 133.721726 
L 274.011715 133.721726 
L 274.039459 133.128888 
L 274.097289 133.721726 
L 274.299576 133.721726 
L 274.327588 133.128888 
L 274.385312 133.721726 
L 274.414421 133.721726 
L 274.499107 133.128888 
L 274.613386 133.721726 
L 275.04272 133.721726 
L 275.070498 134.314563 
L 275.153724 133.721726 
L 275.661943 133.721726 
L 275.690555 133.128888 
L 275.747068 133.721726 
L 275.831803 133.721726 
L 275.86913 133.128888 
L 275.930505 133.721726 
L 276.185208 133.721726 
L 276.213865 133.128888 
L 276.271832 133.721726 
L 277.186858 133.721726 
L 277.300856 134.314563 
L 277.358043 134.314563 
L 277.475862 133.721726 
L 277.600784 134.314563 
L 277.716612 133.721726 
L 277.744371 133.721726 
L 277.857702 134.314563 
L 277.972385 133.721726 
L 278.114853 133.721726 
L 278.226452 134.314563 
L 278.727084 134.314563 
L 278.755194 134.9074 
L 278.810911 134.314563 
L 279.159292 134.314563 
L 279.246161 134.9074 
L 279.332668 134.314563 
L 279.417991 134.9074 
L 279.506728 134.314563 
L 279.626439 134.9074 
L 279.654209 134.9074 
L 279.684309 134.314563 
L 279.74153 134.9074 
L 280.634828 134.9074 
L 280.663602 136.093075 
L 280.720491 134.9074 
L 280.748303 134.9074 
L 280.781019 136.093075 
L 280.838455 134.9074 
L 281.217858 134.9074 
L 281.274138 136.093075 
L 281.302865 134.9074 
L 281.568832 134.9074 
L 281.683521 136.093075 
L 281.767672 134.9074 
L 281.852073 136.093075 
L 281.938967 134.9074 
L 282.024067 136.093075 
L 282.142497 134.9074 
L 282.256563 136.093075 
L 282.284402 136.093075 
L 282.312159 134.9074 
L 282.368925 136.093075 
L 282.399263 136.093075 
L 282.428147 134.9074 
L 282.486921 136.093075 
L 283.315566 136.093075 
L 283.403752 136.685912 
L 283.523974 136.093075 
L 283.580482 136.093075 
L 283.609666 136.685912 
L 283.637891 136.093075 
L 283.948006 136.093075 
L 284.063331 136.685912 
L 284.14844 136.093075 
L 284.263224 136.685912 
L 285.240711 136.685912 
L 285.325507 137.278749 
L 285.384154 136.685912 
L 285.412513 137.278749 
L 285.469645 137.278749 
L 285.525786 136.685912 
L 285.553731 137.278749 
L 286.20664 137.278749 
L 286.322302 136.685912 
L 286.435723 137.278749 
L 287.609249 137.278749 
L 287.637162 137.871586 
L 287.701593 137.278749 
L 288.706477 137.278749 
L 288.825943 137.871586 
L 288.912632 137.278749 
L 289.040816 137.871586 
L 289.826228 137.871586 
L 289.854103 137.278749 
L 289.912656 137.871586 
L 290.058204 137.871586 
L 290.143384 137.278749 
L 290.259519 137.871586 
L 290.288575 137.871586 
L 290.405183 137.278749 
L 290.546979 137.278749 
L 290.574747 137.871586 
L 290.63255 137.278749 
L 290.718602 137.278749 
L 290.836313 137.871586 
L 290.950878 137.278749 
L 291.177265 137.278749 
L 291.296781 137.871586 
L 291.413722 137.278749 
L 292.320062 137.278749 
L 292.434905 136.685912 
L 292.694182 136.685912 
L 292.752108 136.093075 
L 292.780589 136.685912 
L 292.95521 136.685912 
L 293.019554 136.093075 
L 293.048276 136.685912 
L 293.105995 136.685912 
L 293.135648 136.093075 
L 293.192403 136.685912 
L 294.002922 136.685912 
L 294.118529 136.093075 
L 294.211756 136.093075 
L 294.239815 136.685912 
L 294.295809 136.093075 
L 294.411752 136.093075 
L 294.527305 134.9074 
L 294.815196 134.9074 
L 294.871397 134.314563 
L 294.899583 134.9074 
L 295.585099 134.9074 
L 295.669839 134.314563 
L 295.785439 134.9074 
L 295.841157 134.9074 
L 295.926239 134.314563 
L 295.954492 134.9074 
L 296.011708 134.314563 
L 296.039522 134.314563 
L 296.151051 133.721726 
L 296.209302 133.721726 
L 296.322121 134.314563 
L 296.406199 134.314563 
L 296.520127 133.721726 
L 296.547879 133.721726 
L 296.634065 134.314563 
L 296.760075 133.721726 
L 296.847449 133.721726 
L 296.934867 134.314563 
L 297.048654 133.721726 
L 297.167658 134.314563 
L 297.198716 133.721726 
L 297.255792 134.314563 
L 297.375342 134.314563 
L 297.403225 133.721726 
L 297.460522 134.314563 
L 297.865499 134.314563 
L 297.980189 133.721726 
L 298.037692 134.314563 
L 298.065709 133.721726 
L 298.155675 133.721726 
L 298.272455 134.314563 
L 298.302171 134.314563 
L 298.420824 133.721726 
L 298.507987 134.314563 
L 298.625901 133.721726 
L 298.686132 133.721726 
L 298.801224 134.314563 
L 298.830103 134.314563 
L 298.944585 133.721726 
L 299.150487 133.721726 
L 299.182015 134.314563 
L 299.249225 133.721726 
L 299.367743 133.721726 
L 299.396313 134.314563 
L 299.45402 133.721726 
L 299.676674 133.721726 
L 299.704483 132.536051 
L 299.789739 133.128888 
L 299.845603 133.128888 
L 299.959036 133.721726 
L 300.073212 133.721726 
L 300.129382 134.314563 
L 300.157722 133.721726 
L 300.186596 133.721726 
L 300.21444 133.128888 
L 300.271176 133.721726 
L 300.299529 133.721726 
L 300.385079 133.128888 
L 300.412945 133.721726 
L 300.470939 133.128888 
L 300.52869 133.128888 
L 300.643678 133.721726 
L 300.965937 133.721726 
L 300.993872 134.314563 
L 301.051842 133.721726 
L 301.139219 133.128888 
L 301.254607 133.721726 
L 301.629126 133.721726 
L 301.742154 134.314563 
L 301.800192 134.314563 
L 301.829312 133.721726 
L 301.885467 134.314563 
L 302.226109 134.314563 
L 302.340661 133.721726 
L 302.500314 134.314563 
L 302.815467 134.314563 
L 302.898947 134.9074 
L 303.012387 134.314563 
L 303.127939 134.314563 
L 303.15754 133.721726 
L 303.213675 134.314563 
L 303.559384 134.314563 
L 303.588153 134.9074 
L 303.644255 134.314563 
L 304.031867 134.314563 
L 304.147419 134.9074 
L 304.262486 134.314563 
L 304.379515 134.9074 
L 304.840969 134.9074 
L 304.897963 134.314563 
L 304.926208 134.9074 
L 305.042774 134.9074 
L 305.072414 134.314563 
L 305.129887 134.9074 
L 305.916532 134.9074 
L 305.945488 136.093075 
L 306.014797 134.9074 
L 306.071945 134.9074 
L 306.167554 136.093075 
L 306.287408 134.9074 
L 306.375493 136.093075 
L 306.488188 134.9074 
L 306.603081 136.093075 
L 306.698382 136.093075 
L 306.814847 134.9074 
L 306.972711 136.093075 
L 307.675024 136.093075 
L 307.77844 136.685912 
L 307.836159 136.093075 
L 307.86714 136.685912 
L 307.89498 136.685912 
L 307.953332 136.093075 
L 307.981709 136.685912 
L 308.039697 136.685912 
L 308.124715 136.093075 
L 308.250733 136.685912 
L 308.969604 136.685912 
L 308.997385 137.278749 
L 309.053816 136.685912 
L 309.541419 136.685912 
L 309.569359 137.278749 
L 309.626923 136.685912 
L 309.655677 136.685912 
L 309.741537 137.278749 
L 309.769889 136.685912 
L 309.827421 137.278749 
L 309.856618 137.278749 
L 309.973813 136.685912 
L 310.095238 137.278749 
L 311.689422 137.278749 
L 311.720575 137.871586 
L 311.780702 137.278749 
L 311.871401 137.278749 
L 311.929474 137.871586 
L 311.958391 137.278749 
L 312.020393 137.278749 
L 312.13788 137.871586 
L 312.166827 137.278749 
L 312.22433 137.871586 
L 312.538896 137.871586 
L 312.568597 137.278749 
L 312.626111 137.871586 
L 312.738658 137.871586 
L 312.766465 137.278749 
L 312.823417 137.871586 
L 313.053777 137.871586 
L 313.083891 138.464424 
L 313.141256 137.871586 
L 313.925106 137.871586 
L 313.954222 137.278749 
L 314.014676 137.871586 
L 315.321157 137.871586 
L 315.349825 138.464424 
L 315.409143 137.871586 
L 315.850989 137.871586 
L 315.947338 138.464424 
L 316.063058 137.871586 
L 316.119495 137.871586 
L 316.236153 138.464424 
L 316.588484 138.464424 
L 316.616777 137.871586 
L 316.674611 138.464424 
L 317.052161 138.464424 
L 317.083095 137.871586 
L 317.139855 138.464424 
L 318.48222 138.464424 
L 318.51346 139.057261 
L 318.569268 138.464424 
L 318.683844 138.464424 
L 318.713394 139.057261 
L 318.773107 138.464424 
L 318.972635 138.464424 
L 319.084682 139.057261 
L 319.205734 138.464424 
L 319.322203 139.057261 
L 319.349942 138.464424 
L 319.406056 139.057261 
L 319.463149 139.057261 
L 319.576159 138.464424 
L 319.605303 138.464424 
L 319.692677 139.057261 
L 319.72213 138.464424 
L 319.779308 139.057261 
L 319.866634 139.057261 
L 319.981343 138.464424 
L 320.096065 139.057261 
L 320.123915 138.464424 
L 320.183456 139.057261 
L 320.412296 139.057261 
L 320.442252 138.464424 
L 320.498698 139.057261 
L 322.562503 139.057261 
L 322.59159 139.650098 
L 322.648538 139.057261 
L 322.820101 139.057261 
L 322.848056 139.650098 
L 322.906508 139.057261 
L 322.990198 139.057261 
L 323.102886 139.650098 
L 323.130807 139.650098 
L 323.160925 139.057261 
L 323.220094 139.650098 
L 323.248871 139.650098 
L 323.307475 139.057261 
L 323.335191 139.650098 
L 323.364967 139.650098 
L 323.393671 139.057261 
L 323.453876 139.650098 
L 323.483887 139.650098 
L 323.597124 139.057261 
L 323.712145 139.650098 
L 324.481635 139.650098 
L 324.509889 140.242935 
L 324.566828 139.650098 
L 324.908577 139.650098 
L 324.998541 140.242935 
L 325.116002 139.650098 
L 325.174481 139.650098 
L 325.202782 140.242935 
L 325.234288 139.650098 
L 325.326195 140.242935 
L 325.413541 139.650098 
L 325.529835 140.242935 
L 325.595059 139.650098 
L 325.624193 140.242935 
L 325.749973 139.650098 
L 325.802345 139.650098 
L 325.83261 140.242935 
L 325.969749 139.650098 
L 327.519648 139.650098 
L 327.612956 139.057261 
L 327.727058 139.650098 
L 327.85269 139.057261 
L 327.908392 139.650098 
L 327.936154 139.057261 
L 328.733367 139.057261 
L 328.860577 138.464424 
L 328.978302 139.057261 
L 329.010808 139.057261 
L 329.158213 137.871586 
L 329.190394 137.871586 
L 329.220238 138.464424 
L 329.278641 137.871586 
L 329.48028 137.871586 
L 329.567254 137.278749 
L 329.59558 137.871586 
L 329.653464 137.278749 
L 329.772054 137.278749 
L 329.808706 136.685912 
L 329.864306 137.278749 
L 329.981099 137.278749 
L 330.072386 137.871586 
L 330.163566 137.278749 
L 330.275388 137.871586 
L 330.388553 137.278749 
L 330.416312 137.278749 
L 330.500293 136.685912 
L 330.555972 137.278749 
L 330.58475 136.685912 
L 330.612564 136.685912 
L 330.69606 137.278749 
L 330.808069 136.685912 
L 330.948124 136.685912 
L 330.976503 137.278749 
L 331.033509 136.685912 
L 331.097307 136.685912 
L 331.125123 137.278749 
L 331.182885 136.685912 
L 331.210773 136.685912 
L 331.322418 137.278749 
L 331.724955 137.278749 
L 331.83633 136.685912 
L 331.953525 137.278749 
L 332.132912 137.278749 
L 332.160857 136.685912 
L 332.216427 137.278749 
L 332.415662 137.278749 
L 332.529067 136.685912 
L 332.556927 136.685912 
L 332.584989 137.278749 
L 332.644977 136.685912 
L 332.67282 136.685912 
L 332.7024 137.278749 
L 332.758571 136.685912 
L 333.267542 136.685912 
L 333.370564 137.278749 
L 333.43439 136.685912 
L 334.277582 136.685912 
L 334.380615 136.093075 
L 334.705233 136.093075 
L 334.733476 136.685912 
L 334.780279 136.093075 
L 335.527909 136.093075 
L 335.628113 136.685912 
L 335.742332 136.093075 
L 336.036289 136.093075 
L 336.080133 136.685912 
L 336.112772 134.9074 
L 336.181605 136.093075 
L 336.28428 136.093075 
L 336.41179 134.9074 
L 337.04737 134.9074 
L 337.304676 133.721726 
L 337.436679 134.314563 
L 338.266954 134.314563 
L 338.303595 133.721726 
L 338.373012 134.314563 
L 338.522821 134.314563 
L 338.586001 133.721726 
L 338.617797 134.314563 
L 338.646543 134.314563 
L 338.712651 133.721726 
L 338.892639 133.721726 
L 338.920668 134.314563 
L 338.98054 133.721726 
L 339.073963 133.721726 
L 339.197511 133.128888 
L 339.289483 133.721726 
L 339.41534 133.128888 
L 339.521946 133.128888 
L 339.640127 133.721726 
L 339.800864 133.721726 
L 339.829875 134.314563 
L 339.862173 133.721726 
L 340.102724 133.721726 
L 340.258099 133.128888 
L 340.336322 133.721726 
L 340.533935 132.536051 
L 340.562799 133.128888 
L 340.74759 132.536051 
L 340.993754 131.943214 
L 341.131698 132.536051 
L 341.249606 131.943214 
L 341.308278 131.943214 
L 341.340542 132.536051 
L 341.651141 132.536051 
L 341.689224 133.128888 
L 341.737269 132.536051 
L 341.932876 132.536051 
L 342.048596 133.128888 
L 342.638385 133.128888 
L 342.697151 132.536051 
L 342.727568 133.128888 
L 342.762192 133.128888 
L 342.86198 132.536051 
L 342.953149 132.536051 
L 343.083923 133.128888 
L 343.209505 132.536051 
L 343.313458 132.536051 
L 343.447642 133.128888 
L 343.663571 133.128888 
L 343.709008 133.721726 
L 343.743229 133.128888 
L 343.805069 133.128888 
L 343.896774 133.721726 
L 344.012569 133.128888 
L 344.062342 133.721726 
L 344.091238 133.128888 
L 344.273929 133.721726 
L 344.339572 133.721726 
L 344.470461 134.314563 
L 344.555115 133.721726 
L 344.603836 134.9074 
L 344.675405 134.314563 
L 344.891851 134.314563 
L 345.014865 134.9074 
L 345.047709 134.9074 
L 345.080974 134.314563 
L 345.148311 134.9074 
L 345.424452 134.9074 
L 345.456778 136.093075 
L 345.488974 134.9074 
L 345.666626 136.093075 
L 346.099991 136.093075 
L 346.16486 136.685912 
L 346.192755 136.093075 
L 346.22254 136.093075 
L 346.358063 136.685912 
L 346.867603 136.685912 
L 346.987832 137.278749 
L 347.113484 136.685912 
L 347.170922 137.278749 
L 347.262262 136.685912 
L 347.357717 137.278749 
L 347.418775 136.685912 
L 347.456002 137.278749 
L 348.096401 137.278749 
L 348.184633 137.871586 
L 348.21445 137.278749 
L 348.271338 137.871586 
L 348.96016 137.871586 
L 349.044798 138.464424 
L 349.177416 137.871586 
L 349.440249 137.871586 
L 349.469364 138.464424 
L 349.525003 137.871586 
L 349.552791 137.871586 
L 349.580587 138.464424 
L 349.636573 137.871586 
L 349.66937 137.871586 
L 349.698265 138.464424 
L 349.75544 137.871586 
L 349.784248 137.871586 
L 349.871199 138.464424 
L 349.955611 137.871586 
L 350.070274 138.464424 
L 350.913582 138.464424 
L 351.026348 139.057261 
L 351.054165 138.464424 
L 351.109949 139.057261 
L 351.137727 139.057261 
L 351.249733 138.464424 
L 351.278457 138.464424 
L 351.392142 139.057261 
L 352.130424 139.057261 
L 352.15817 139.650098 
L 352.214001 139.057261 
L 352.241844 139.057261 
L 352.329424 139.650098 
L 352.358069 139.057261 
L 352.413665 139.650098 
L 352.63634 139.650098 
L 352.748378 140.242935 
L 352.833495 139.650098 
L 352.94692 140.242935 
L 353.114107 140.242935 
L 353.232702 140.835773 
L 353.348104 140.242935 
L 354.074159 140.242935 
L 354.102888 139.650098 
L 354.297482 140.242935 
L 354.494671 140.242935 
L 354.52355 140.835773 
L 354.704293 140.242935 
L 354.877259 140.242935 
L 354.906489 140.835773 
L 354.964399 140.242935 
L 355.789673 140.242935 
L 355.901835 140.835773 
L 355.987124 140.835773 
L 356.102164 140.242935 
L 356.187487 140.242935 
L 356.30449 140.835773 
L 357.80892 140.835773 
L 357.920726 142.021447 
L 357.948587 142.021447 
L 358.062762 140.835773 
L 358.148719 140.835773 
L 358.233151 142.021447 
L 358.372122 140.835773 
L 358.399865 140.835773 
L 358.513064 142.021447 
L 359.686399 142.021447 
L 359.71628 142.614284 
L 359.775148 142.021447 
L 359.802958 142.021447 
L 359.832639 142.614284 
L 359.889932 142.021447 
L 360.345336 142.021447 
L 360.400876 142.614284 
L 360.428916 142.021447 
L 360.655931 142.021447 
L 360.68383 142.614284 
L 360.740251 142.021447 
L 361.084247 142.021447 
L 361.11196 142.614284 
L 361.167701 142.021447 
L 361.308551 142.021447 
L 361.336436 142.614284 
L 361.39196 142.021447 
L 361.479121 142.021447 
L 361.563033 142.614284 
L 361.590784 142.021447 
L 361.650045 142.614284 
L 361.679286 142.614284 
L 361.791742 142.021447 
L 361.819995 142.021447 
L 361.934239 142.614284 
L 361.962274 142.021447 
L 362.017734 142.614284 
L 362.275773 142.614284 
L 362.304437 142.021447 
L 362.36085 142.614284 
L 362.843646 142.614284 
L 362.956136 143.207122 
L 362.985412 143.207122 
L 363.09985 142.614284 
L 363.82306 142.614284 
L 363.908902 143.207122 
L 364.025526 142.614284 
L 364.054646 142.614284 
L 364.082408 143.207122 
L 364.138291 142.614284 
L 364.166233 142.614284 
L 364.194013 143.207122 
L 364.2505 142.614284 
L 364.339271 142.614284 
L 364.367092 143.207122 
L 364.425143 142.614284 
L 366.042483 142.614284 
L 366.128738 142.021447 
L 366.245956 142.614284 
L 366.499246 142.614284 
L 366.6136 142.021447 
L 366.7007 142.614284 
L 366.815851 142.021447 
L 366.844255 142.021447 
L 366.902052 142.614284 
L 366.930747 142.021447 
L 367.014826 142.021447 
L 367.04262 142.614284 
L 367.102281 142.021447 
L 367.535577 142.021447 
L 367.650681 140.835773 
L 368.071014 140.835773 
L 368.099959 140.242935 
L 368.158031 140.835773 
L 368.273202 140.835773 
L 368.38624 140.242935 
L 368.67486 140.242935 
L 368.795399 139.650098 
L 368.857611 139.650098 
L 368.886364 140.242935 
L 368.942809 139.650098 
L 369.168721 139.650098 
L 369.2867 139.057261 
L 369.549836 139.057261 
L 369.669852 138.464424 
L 369.812539 138.464424 
L 369.932984 137.871586 
L 370.34315 137.871586 
L 370.371092 137.278749 
L 370.429387 137.871586 
L 370.560652 137.871586 
L 370.690643 137.278749 
L 370.875706 137.278749 
L 370.939528 136.685912 
L 370.968378 137.278749 
L 371.079926 137.871586 
L 371.196074 137.278749 
L 371.280149 137.278749 
L 371.30791 136.685912 
L 371.369078 137.278749 
L 371.429851 136.685912 
L 371.490416 137.871586 
L 371.584642 137.871586 
L 371.612364 138.464424 
L 371.644595 137.871586 
L 371.768594 137.871586 
L 371.89277 137.278749 
L 371.953494 137.278749 
L 371.981284 136.685912 
L 372.009037 137.871586 
L 372.094826 138.464424 
L 372.124896 137.871586 
L 372.192071 138.464424 
L 372.219903 138.464424 
L 372.307084 137.871586 
L 372.420924 138.464424 
L 372.539031 137.871586 
L 372.625348 137.871586 
L 372.750264 138.464424 
L 372.893301 138.464424 
L 373.007586 137.871586 
L 373.122111 137.871586 
L 373.152356 138.464424 
L 373.181587 137.278749 
L 373.218702 137.871586 
L 373.248339 137.871586 
L 373.337818 138.464424 
L 373.51112 136.685912 
L 373.548081 136.685912 
L 373.605181 130.164702 
L 373.66439 134.314563 
L 373.692529 133.721726 
L 373.72142 134.314563 
L 373.865846 137.278749 
L 373.922308 137.278749 
L 374.038538 137.871586 
L 374.127393 137.871586 
L 374.242243 138.464424 
L 374.271482 138.464424 
L 374.387725 137.871586 
L 374.854796 137.871586 
L 374.88361 138.464424 
L 374.939881 137.871586 
L 375.111787 137.871586 
L 375.14262 138.464424 
L 375.201984 137.871586 
L 375.288655 136.685912 
L 375.318058 137.278749 
L 375.431861 137.871586 
L 375.546748 137.278749 
L 375.630843 137.278749 
L 375.745723 136.685912 
L 375.863726 136.685912 
L 375.929385 136.093075 
L 376.072092 137.871586 
L 376.227693 136.685912 
L 376.256514 136.685912 
L 376.31533 134.314563 
L 376.344849 134.9074 
L 376.449105 136.093075 
L 376.803004 134.9074 
L 376.866415 136.093075 
L 376.967824 136.093075 
L 377.116366 129.571865 
L 377.211455 131.350376 
L 377.365097 134.314563 
L 377.403638 134.314563 
L 377.533724 134.9074 
L 377.619405 134.9074 
L 377.703589 134.314563 
L 377.934986 136.093075 
L 378.00523 134.9074 
L 378.038203 136.093075 
L 378.06974 136.093075 
L 378.214406 134.314563 
L 378.307374 136.093075 
L 378.392821 136.093075 
L 378.534143 137.278749 
L 378.567761 137.278749 
L 378.643351 136.093075 
L 378.676748 137.278749 
L 378.785669 137.871586 
L 378.927846 136.685912 
L 378.995757 137.871586 
L 379.024524 136.685912 
L 379.244571 134.314563 
L 379.284875 134.9074 
L 379.323959 134.314563 
L 379.358555 134.314563 
L 379.38643 133.721726 
L 379.423548 134.9074 
L 379.468424 134.9074 
L 379.563055 133.721726 
L 379.67367 136.093075 
L 379.83856 136.093075 
L 379.948831 134.9074 
L 380.097646 136.093075 
L 380.230688 134.9074 
L 380.263723 134.9074 
L 380.297306 136.093075 
L 380.355473 134.9074 
L 380.384699 134.9074 
L 380.507531 136.093075 
L 380.539366 136.093075 
L 380.59818 134.9074 
L 380.63228 136.093075 
L 380.789483 136.093075 
L 380.927329 136.685912 
L 381.524123 136.685912 
L 381.567641 136.093075 
L 381.623726 136.685912 
L 381.72373 136.685912 
L 381.80289 137.278749 
L 381.902047 136.685912 
L 382.078822 136.685912 
L 382.206061 137.278749 
L 382.396696 137.278749 
L 382.424997 137.871586 
L 382.500284 137.278749 
L 382.530997 137.278749 
L 382.618546 136.685912 
L 382.720115 137.278749 
L 382.900168 136.685912 
L 383.107904 136.685912 
L 383.238479 137.278749 
L 383.678788 137.278749 
L 383.803142 137.871586 
L 384.049759 137.871586 
L 384.087134 138.464424 
L 384.15046 137.871586 
L 384.216355 137.871586 
L 384.336904 138.464424 
L 384.368557 138.464424 
L 384.398422 137.871586 
L 384.456801 138.464424 
L 384.720551 138.464424 
L 384.811903 137.871586 
L 384.928148 138.464424 
L 384.958659 138.464424 
L 385.074351 137.871586 
L 385.102983 137.871586 
L 385.239098 138.464424 
L 386.194661 138.464424 
L 386.32024 137.871586 
L 386.996395 137.871586 
L 387.024219 138.464424 
L 387.08346 137.871586 
L 387.553732 137.871586 
L 387.670345 138.464424 
L 387.801682 138.464424 
L 387.82943 137.871586 
L 387.892152 138.464424 
L 388.050347 138.464424 
L 388.082252 137.871586 
L 388.261981 138.464424 
L 388.536671 138.464424 
L 388.565366 139.057261 
L 388.623774 138.464424 
L 389.01874 138.464424 
L 389.166292 137.871586 
L 389.253832 137.871586 
L 389.370598 138.464424 
L 389.398391 138.464424 
L 389.515309 137.871586 
L 389.571549 137.871586 
L 389.669475 138.464424 
L 389.786628 137.871586 
L 389.819293 137.871586 
L 389.847095 138.464424 
L 389.912494 137.871586 
L 390.056595 137.871586 
L 390.146949 138.464424 
L 390.24146 137.871586 
L 390.357543 138.464424 
L 390.473927 137.871586 
L 390.589116 138.464424 
L 390.715224 138.464424 
L 390.746848 137.871586 
L 390.803283 138.464424 
L 390.919085 138.464424 
L 390.948216 137.871586 
L 391.005127 138.464424 
L 391.465556 138.464424 
L 391.580329 139.057261 
L 391.695107 138.464424 
L 391.808882 139.057261 
L 391.92728 138.464424 
L 391.983805 139.057261 
L 392.011878 138.464424 
L 392.068613 138.464424 
L 392.193723 139.057261 
L 392.224223 139.057261 
L 392.336626 138.464424 
L 392.451573 139.057261 
L 392.509209 139.057261 
L 392.537056 138.464424 
L 392.592657 139.057261 
L 393.51081 139.057261 
L 393.622573 139.650098 
L 393.707436 139.650098 
L 393.73739 139.057261 
L 393.793354 139.650098 
L 393.822008 139.650098 
L 393.850881 139.057261 
L 393.908635 139.650098 
L 395.475376 139.650098 
L 395.503228 140.242935 
L 395.560481 139.650098 
L 396.017241 139.650098 
L 396.075679 140.242935 
L 396.103662 139.650098 
L 396.502851 139.650098 
L 396.614606 140.242935 
L 396.699761 139.650098 
L 396.813683 140.242935 
L 396.872408 139.650098 
L 396.900212 140.242935 
L 396.957242 140.242935 
L 397.074013 139.650098 
L 397.189992 140.242935 
L 397.218592 139.650098 
L 397.276393 140.242935 
L 397.3054 140.242935 
L 397.333248 139.650098 
L 397.390679 140.242935 
L 397.51266 140.242935 
L 397.56883 139.650098 
L 397.596531 140.242935 
L 397.62547 140.242935 
L 397.709857 139.650098 
L 397.822528 140.242935 
L 399.476779 140.242935 
L 399.563017 140.835773 
L 399.675325 140.242935 
L 399.730943 140.242935 
L 399.842897 140.835773 
L 399.926523 140.835773 
L 400.037539 140.242935 
L 400.066516 140.242935 
L 400.177663 140.835773 
L 400.317232 140.835773 
L 400.429976 142.021447 
L 400.542471 140.835773 
L 401.272065 140.835773 
L 401.356842 142.021447 
L 401.384694 140.835773 
L 401.440246 142.021447 
L 402.31472 142.021447 
L 402.404452 140.835773 
L 402.462461 142.021447 
L 402.491151 140.835773 
L 402.519632 140.835773 
L 402.612779 142.021447 
L 402.697874 140.835773 
L 402.793839 142.021447 
L 402.918775 140.835773 
L 402.947348 142.021447 
L 403.006458 140.835773 
L 403.188782 140.835773 
L 403.219846 142.021447 
L 403.278955 140.835773 
L 403.366464 140.835773 
L 403.479045 142.021447 
L 403.535085 142.021447 
L 403.652625 140.835773 
L 403.737992 140.835773 
L 403.849512 142.021447 
L 403.909598 142.021447 
L 404.022262 140.835773 
L 404.359341 140.835773 
L 404.499721 140.242935 
L 404.761996 140.242935 
L 404.873202 139.650098 
L 404.958035 139.650098 
L 404.986154 140.242935 
L 405.042843 139.650098 
L 405.246629 139.650098 
L 405.277965 140.242935 
L 405.337247 139.650098 
L 405.454791 139.650098 
L 405.483727 139.057261 
L 405.540811 139.650098 
L 405.800453 139.650098 
L 405.82866 139.057261 
L 405.884317 139.650098 
L 405.971618 139.650098 
L 406.090615 139.057261 
L 406.266032 139.057261 
L 406.324916 138.464424 
L 406.352749 139.057261 
L 406.384032 139.057261 
L 406.498753 138.464424 
L 406.709901 138.464424 
L 406.824276 137.871586 
L 407.051129 137.871586 
L 407.1647 137.278749 
L 407.192501 137.278749 
L 407.304032 136.685912 
L 407.360775 136.685912 
L 407.448129 137.278749 
L 407.539656 136.685912 
L 407.745438 136.685912 
L 407.834137 134.314563 
L 407.883307 134.9074 
L 408.074215 133.128888 
L 408.145676 133.128888 
L 408.202472 132.536051 
L 408.230294 133.128888 
L 408.464919 133.128888 
L 408.581849 132.536051 
L 408.66629 133.128888 
L 408.695348 132.536051 
L 408.723196 133.128888 
L 408.752031 133.721726 
L 408.811009 133.128888 
L 408.87219 133.128888 
L 409.048426 128.979027 
L 409.108573 132.536051 
L 409.173659 131.350376 
L 409.230481 130.164702 
L 409.258402 133.128888 
L 409.316652 129.571865 
L 409.553414 132.536051 
L 409.697434 131.350376 
L 409.725268 131.943214 
L 409.755783 131.350376 
L 409.868529 130.164702 
L 409.994981 132.536051 
L 410.052981 132.536051 
L 410.113503 133.128888 
L 410.141295 131.943214 
L 410.170854 134.9074 
L 410.29594 134.314563 
L 410.410681 134.9074 
L 410.698286 134.9074 
L 410.84718 131.943214 
L 410.940815 134.314563 
L 410.969501 128.38619 
L 411.027309 131.943214 
L 411.143142 134.314563 
L 411.181953 134.9074 
L 411.238826 134.314563 
L 411.266775 133.721726 
L 411.295624 134.9074 
L 411.324761 134.9074 
L 411.441231 134.314563 
L 411.586736 134.314563 
L 411.615569 134.9074 
L 411.672362 134.314563 
L 411.700152 134.314563 
L 411.814015 134.9074 
L 411.956449 134.9074 
L 412.067968 134.314563 
L 412.124897 134.314563 
L 412.227684 134.9074 
L 412.351219 134.314563 
L 412.857952 134.314563 
L 412.983532 133.128888 
L 413.04612 133.721726 
L 413.085378 133.721726 
L 413.254818 132.536051 
L 413.284235 131.350376 
L 413.321958 133.128888 
L 413.353639 132.536051 
L 413.384867 132.536051 
L 413.423916 133.128888 
L 413.489322 132.536051 
L 413.609993 131.350376 
L 413.669223 131.943214 
L 413.759023 131.350376 
L 413.845754 133.128888 
L 414.048353 129.571865 
L 414.197476 133.721726 
L 414.226639 131.943214 
L 414.305762 133.721726 
L 414.371891 132.536051 
L 414.498667 123.643492 
L 414.764533 129.571865 
L 414.793921 129.571865 
L 414.838625 128.38619 
L 414.915883 131.943214 
L 414.95506 129.571865 
L 414.984094 131.350376 
L 415.01974 129.571865 
L 415.185807 129.571865 
L 415.406278 132.536051 
L 415.48203 128.38619 
L 415.567572 128.979027 
L 415.603454 128.38619 
L 415.767042 130.164702 
L 415.804621 129.571865 
L 415.934845 128.38619 
L 416.151978 131.350376 
L 416.28324 129.571865 
L 416.314792 131.350376 
L 416.347262 128.979027 
L 416.376108 129.571865 
L 416.519206 128.979027 
L 416.5508 127.200516 
L 416.586491 128.38619 
L 416.687284 128.38619 
L 416.924594 130.164702 
L 417.022924 131.350376 
L 417.148887 131.350376 
L 417.189429 129.571865 
L 417.226451 130.164702 
L 417.378313 130.164702 
L 417.442057 129.571865 
L 417.470935 130.164702 
L 417.612456 130.164702 
L 417.643965 129.571865 
L 417.834719 130.164702 
L 417.991483 129.571865 
L 418.097178 129.571865 
L 418.163166 130.164702 
L 418.193542 129.571865 
L 418.296292 130.164702 
L 418.327119 128.979027 
L 418.363767 131.350376 
L 418.406353 130.164702 
L 418.55234 129.571865 
L 418.667677 130.164702 
L 418.809523 127.793353 
L 418.870514 128.38619 
L 419.112756 131.943214 
L 419.240017 131.943214 
L 419.369849 131.350376 
L 419.491522 132.536051 
L 419.561308 131.943214 
L 419.589084 132.536051 
L 419.62682 132.536051 
L 419.658924 131.943214 
L 419.719305 132.536051 
L 419.749159 132.536051 
L 419.833764 133.128888 
L 419.862715 131.943214 
L 419.956344 133.128888 
L 420.630352 133.128888 
L 420.718873 131.943214 
L 420.795283 133.128888 
L 420.841265 132.536051 
L 420.869072 132.536051 
L 420.999404 133.128888 
L 421.14722 133.128888 
L 421.270236 131.350376 
L 421.29895 132.536051 
L 421.329383 132.536051 
L 421.357649 133.128888 
L 421.389161 132.536051 
L 421.601029 130.164702 
L 421.637209 130.164702 
L 421.72943 131.943214 
L 421.778399 131.350376 
L 422.007897 132.536051 
L 422.685269 132.536051 
L 422.882828 131.350376 
L 423.10504 131.350376 
L 423.252161 129.571865 
L 424.394239 129.571865 
L 424.508618 130.164702 
L 424.59528 129.571865 
L 424.707238 130.164702 
L 425.727865 130.164702 
L 425.756921 131.350376 
L 425.816309 130.164702 
L 425.872415 130.164702 
L 425.959231 131.350376 
L 426.07225 130.164702 
L 426.185262 131.350376 
L 426.298727 130.164702 
L 426.326783 130.164702 
L 426.384726 131.350376 
L 426.420282 130.164702 
L 426.448095 130.164702 
L 426.565464 131.350376 
L 427.61728 131.350376 
L 427.705614 131.943214 
L 427.820168 131.350376 
L 427.87646 131.350376 
L 427.961512 131.943214 
L 427.994677 131.350376 
L 428.050335 131.943214 
L 428.246377 131.943214 
L 428.361157 131.350376 
L 428.475133 131.943214 
L 428.67144 131.943214 
L 428.699475 131.350376 
L 428.75505 131.943214 
L 429.32864 131.943214 
L 429.421945 132.536051 
L 429.535934 131.943214 
L 429.621295 132.536051 
L 429.649981 131.943214 
L 429.707971 132.536051 
L 430.298568 132.536051 
L 430.32647 133.128888 
L 430.382476 132.536051 
L 430.60629 132.536051 
L 430.718025 133.128888 
L 430.745916 133.128888 
L 430.858583 132.536051 
L 430.922508 132.536051 
L 431.034866 133.128888 
L 431.062898 133.128888 
L 431.0907 132.536051 
L 431.150264 133.128888 
L 431.575455 133.128888 
L 431.575455 133.128888 
" style="fill:none;stroke:#1f77b4;stroke-linecap:square;stroke-width:1.5;"/>
   </g>
   <g id="line2d_36">
    <path clip-path="url(#p1a99765d35)" d="M 63.084545 184.112893 
L 65.696118 184.112893 
L 65.81165 160.992239 
L 68.67339 160.992239 
L 68.786027 167.513449 
L 70.675108 167.513449 
L 70.787424 178.777357 
L 71.763627 178.777357 
L 71.875707 190.634102 
L 72.528126 190.634102 
L 144.180498 107.636886 
L 147.943332 107.636886 
L 148.057728 119.493631 
L 149.662413 119.493631 
L 149.776979 130.757539 
L 151.230942 130.757539 
L 151.343679 160.992239 
L 153.511264 160.992239 
L 153.624908 178.777357 
L 154.446544 178.777357 
L 266.67228 114.158096 
L 267.640754 114.158096 
L 267.755153 137.278749 
L 269.202142 137.278749 
L 269.318435 160.992239 
L 272.469905 160.992239 
L 272.583157 172.848985 
L 275.690555 172.848985 
L 275.804106 178.777357 
L 277.716612 178.777357 
L 277.829548 184.112893 
L 278.983579 184.112893 
L 279.101117 195.969638 
L 280.435799 195.969638 
L 280.54765 202.490848 
L 281.418348 202.490848 
L 281.539998 191.819777 
L 282.142497 191.819777 
L 282.256563 195.969638 
L 283.580482 195.969638 
L 283.637891 190.634102 
L 287.637162 190.634102 
L 287.786127 191.819777 
L 288.640092 191.819777 
L 288.765571 190.634102 
L 290.115151 190.634102 
L 290.231305 184.112893 
L 293.361937 184.112893 
L 293.476601 178.777357 
L 295.156502 178.777357 
L 295.270959 172.848985 
L 296.151051 172.848985 
L 296.266445 170.477636 
L 296.577165 170.477636 
L 296.69751 167.513449 
L 299.873836 167.513449 
L 299.987773 160.992239 
L 305.042774 160.992239 
L 305.157703 170.477636 
L 306.603081 170.477636 
L 306.728607 172.848985 
L 307.74957 172.848985 
L 307.86714 170.477636 
L 308.039697 170.477636 
L 308.160994 172.848985 
L 312.254005 172.848985 
L 312.368143 170.477636 
L 312.823417 170.477636 
L 312.937734 172.848985 
L 314.403297 172.848985 
L 314.516263 178.777357 
L 315.263268 178.777357 
L 315.349825 191.819777 
L 316.091605 191.819777 
L 316.207299 195.969638 
L 316.50286 195.969638 
L 316.616777 202.490848 
L 323.102886 202.490848 
L 323.220094 191.819777 
L 324.539037 191.819777 
L 324.652053 202.490848 
L 325.83261 202.490848 
L 325.969749 190.634102 
L 327.380033 190.634102 
L 327.519648 184.112893 
L 328.105862 184.112893 
L 328.217203 181.148706 
L 328.947325 181.148706 
L 329.068547 178.777357 
L 331.125123 178.777357 
L 331.238571 172.848985 
L 332.244292 172.848985 
L 332.35617 167.513449 
L 333.798231 167.513449 
L 333.930759 172.848985 
L 335.35016 172.848985 
L 335.527909 160.992239 
L 338.85819 160.992239 
L 338.98054 155.656704 
L 343.508427 155.656704 
L 343.709008 160.992239 
L 344.949701 160.992239 
L 345.080974 184.112893 
L 346.955096 184.112893 
L 347.08366 195.969638 
L 348.544823 195.969638 
L 348.664217 214.347593 
L 350.433746 214.347593 
L 350.573037 223.832989 
L 352.580605 223.832989 
L 352.691854 234.50406 
L 355.277799 234.50406 
L 355.392205 223.832989 
L 356.845396 223.832989 
L 356.958146 226.204338 
L 358.810444 226.204338 
L 358.922436 223.832989 
L 359.5157 223.832989 
L 359.629785 226.204338 
L 362.218308 226.204338 
L 362.332236 232.132711 
L 366.958617 232.132711 
L 367.07264 223.832989 
L 368.589726 223.832989 
L 368.709438 213.161918 
L 370.398922 213.161918 
L 370.532852 181.148706 
L 371.135865 181.148706 
L 371.252247 172.848985 
L 372.683254 172.848985 
L 372.807104 137.278749 
L 374.214169 137.278749 
L 374.330148 114.158096 
L 376.072092 114.158096 
L 376.197889 102.301351 
L 377.589325 102.301351 
L 377.703589 89.258931 
L 379.145435 89.258931 
L 379.244571 95.780141 
L 380.567195 95.780141 
L 380.695401 107.636886 
L 383.678788 107.636886 
L 383.803142 125.422004 
L 384.087134 125.422004 
L 384.216355 155.656704 
L 386.096146 155.656704 
L 386.231104 167.513449 
L 387.113749 167.513449 
L 387.234702 172.848985 
L 388.68062 172.848985 
L 388.813892 184.112893 
L 390.386396 184.112893 
L 390.503831 190.634102 
L 392.224223 190.634102 
L 392.336626 202.490848 
L 393.07795 202.490848 
L 393.19426 223.832989 
L 394.082085 223.832989 
L 394.196587 214.347593 
L 394.511536 214.347593 
L 394.623611 223.832989 
L 396.756781 223.832989 
L 396.872408 226.204338 
L 397.596531 226.204338 
L 397.709857 223.832989 
L 398.447565 223.832989 
L 398.561035 237.468246 
L 400.852016 237.468246 
L 400.964773 245.17513 
L 401.132789 245.17513 
L 401.24425 234.50406 
L 401.560779 234.50406 
L 401.672429 237.468246 
L 403.506954 237.468246 
L 403.624797 214.347593 
L 405.070713 214.347593 
L 405.188962 190.634102 
L 406.766656 190.634102 
L 406.880719 149.135494 
L 408.291302 149.135494 
L 408.409243 114.158096 
L 409.839765 114.158096 
L 409.965123 83.923396 
L 411.501912 83.923396 
L 411.615569 66.138278 
L 413.174854 66.138278 
L 413.321958 54.281533 
L 414.692649 54.281533 
L 414.838625 35.903578 
L 416.406512 35.903578 
L 416.586491 42.424787 
L 419.405618 42.424787 
L 419.589084 72.06665 
L 421.084019 72.06665 
L 421.14722 95.780141 
L 422.714025 95.780141 
L 422.845428 125.422004 
L 425.700099 125.422004 
L 425.816309 137.278749 
L 425.987171 137.278749 
L 426.101512 155.656704 
L 427.527911 155.656704 
L 427.645039 172.848985 
L 430.32647 172.848985 
L 430.438079 184.112893 
L 431.150264 184.112893 
L 431.263545 190.634102 
L 431.575455 190.634102 
L 431.575455 190.634102 
" style="fill:none;stroke:#ff7f0e;stroke-linecap:square;stroke-width:1.5;"/>
   </g>
   <g id="patch_3">
    <path d="M 44.66 255.638708 
L 44.66 25.44 
" style="fill:none;stroke:#000000;stroke-linecap:square;stroke-linejoin:miter;stroke-width:0.8;"/>
   </g>
   <g id="patch_4">
    <path d="M 450 255.638708 
L 450 25.44 
" style="fill:none;stroke:#000000;stroke-linecap:square;stroke-linejoin:miter;stroke-width:0.8;"/>
   </g>
   <g id="patch_5">
    <path d="M 44.66 255.638708 
L 450 255.638708 
" style="fill:none;stroke:#000000;stroke-linecap:square;stroke-linejoin:miter;stroke-width:0.8;"/>
   </g>
   <g id="patch_6">
    <path d="M 44.66 25.44 
L 450 25.44 
" style="fill:none;stroke:#000000;stroke-linecap:square;stroke-linejoin:miter;stroke-width:0.8;"/>
   </g>
   <g id="text_20">
    <!-- Lake Shoecraft - Water and Air Temperature -->
    <g transform="translate(115.711562 19.44)scale(0.12 -0.12)">
     <defs>
      <path d="M 9.8125 72.90625 
L 19.671875 72.90625 
L 19.671875 8.296875 
L 55.171875 8.296875 
L 55.171875 0 
L 9.8125 0 
z
" id="DejaVuSans-76"/>
      <path d="M 9.078125 75.984375 
L 18.109375 75.984375 
L 18.109375 31.109375 
L 44.921875 54.6875 
L 56.390625 54.6875 
L 27.390625 29.109375 
L 57.625 0 
L 45.90625 0 
L 18.109375 26.703125 
L 18.109375 0 
L 9.078125 0 
z
" id="DejaVuSans-107"/>
      <path d="M 53.515625 70.515625 
L 53.515625 60.890625 
Q 47.90625 63.578125 42.921875 64.890625 
Q 37.9375 66.21875 33.296875 66.21875 
Q 25.25 66.21875 20.875 63.09375 
Q 16.5 59.96875 16.5 54.203125 
Q 16.5 49.359375 19.40625 46.890625 
Q 22.3125 44.4375 30.421875 42.921875 
L 36.375 41.703125 
Q 47.40625 39.59375 52.65625 34.296875 
Q 57.90625 29 57.90625 20.125 
Q 57.90625 9.515625 50.796875 4.046875 
Q 43.703125 -1.421875 29.984375 -1.421875 
Q 24.8125 -1.421875 18.96875 -0.25 
Q 13.140625 0.921875 6.890625 3.21875 
L 6.890625 13.375 
Q 12.890625 10.015625 18.65625 8.296875 
Q 24.421875 6.59375 29.984375 6.59375 
Q 38.421875 6.59375 43.015625 9.90625 
Q 47.609375 13.234375 47.609375 19.390625 
Q 47.609375 24.75 44.3125 27.78125 
Q 41.015625 30.8125 33.5 32.328125 
L 27.484375 33.5 
Q 16.453125 35.6875 11.515625 40.375 
Q 6.59375 45.0625 6.59375 53.421875 
Q 6.59375 63.09375 13.40625 68.65625 
Q 20.21875 74.21875 32.171875 74.21875 
Q 37.3125 74.21875 42.625 73.28125 
Q 47.953125 72.359375 53.515625 70.515625 
z
" id="DejaVuSans-83"/>
      <path d="M 54.890625 33.015625 
L 54.890625 0 
L 45.90625 0 
L 45.90625 32.71875 
Q 45.90625 40.484375 42.875 44.328125 
Q 39.84375 48.1875 33.796875 48.1875 
Q 26.515625 48.1875 22.3125 43.546875 
Q 18.109375 38.921875 18.109375 30.90625 
L 18.109375 0 
L 9.078125 0 
L 9.078125 75.984375 
L 18.109375 75.984375 
L 18.109375 46.1875 
Q 21.34375 51.125 25.703125 53.5625 
Q 30.078125 56 35.796875 56 
Q 45.21875 56 50.046875 50.171875 
Q 54.890625 44.34375 54.890625 33.015625 
z
" id="DejaVuSans-104"/>
      <path d="M 30.609375 48.390625 
Q 23.390625 48.390625 19.1875 42.75 
Q 14.984375 37.109375 14.984375 27.296875 
Q 14.984375 17.484375 19.15625 11.84375 
Q 23.34375 6.203125 30.609375 6.203125 
Q 37.796875 6.203125 41.984375 11.859375 
Q 46.1875 17.53125 46.1875 27.296875 
Q 46.1875 37.015625 41.984375 42.703125 
Q 37.796875 48.390625 30.609375 48.390625 
z
M 30.609375 56 
Q 42.328125 56 49.015625 48.375 
Q 55.71875 40.765625 55.71875 27.296875 
Q 55.71875 13.875 49.015625 6.21875 
Q 42.328125 -1.421875 30.609375 -1.421875 
Q 18.84375 -1.421875 12.171875 6.21875 
Q 5.515625 13.875 5.515625 27.296875 
Q 5.515625 40.765625 12.171875 48.375 
Q 18.84375 56 30.609375 56 
z
" id="DejaVuSans-111"/>
      <path d="M 48.78125 52.59375 
L 48.78125 44.1875 
Q 44.96875 46.296875 41.140625 47.34375 
Q 37.3125 48.390625 33.40625 48.390625 
Q 24.65625 48.390625 19.8125 42.84375 
Q 14.984375 37.3125 14.984375 27.296875 
Q 14.984375 17.28125 19.8125 11.734375 
Q 24.65625 6.203125 33.40625 6.203125 
Q 37.3125 6.203125 41.140625 7.25 
Q 44.96875 8.296875 48.78125 10.40625 
L 48.78125 2.09375 
Q 45.015625 0.34375 40.984375 -0.53125 
Q 36.96875 -1.421875 32.421875 -1.421875 
Q 20.0625 -1.421875 12.78125 6.34375 
Q 5.515625 14.109375 5.515625 27.296875 
Q 5.515625 40.671875 12.859375 48.328125 
Q 20.21875 56 33.015625 56 
Q 37.15625 56 41.109375 55.140625 
Q 45.0625 54.296875 48.78125 52.59375 
z
" id="DejaVuSans-99"/>
      <path d="M 37.109375 75.984375 
L 37.109375 68.5 
L 28.515625 68.5 
Q 23.6875 68.5 21.796875 66.546875 
Q 19.921875 64.59375 19.921875 59.515625 
L 19.921875 54.6875 
L 34.71875 54.6875 
L 34.71875 47.703125 
L 19.921875 47.703125 
L 19.921875 0 
L 10.890625 0 
L 10.890625 47.703125 
L 2.296875 47.703125 
L 2.296875 54.6875 
L 10.890625 54.6875 
L 10.890625 58.5 
Q 10.890625 67.625 15.140625 71.796875 
Q 19.390625 75.984375 28.609375 75.984375 
z
" id="DejaVuSans-102"/>
      <path d="M 3.328125 72.90625 
L 13.28125 72.90625 
L 28.609375 11.28125 
L 43.890625 72.90625 
L 54.984375 72.90625 
L 70.3125 11.28125 
L 85.59375 72.90625 
L 95.609375 72.90625 
L 77.296875 0 
L 64.890625 0 
L 49.515625 63.28125 
L 33.984375 0 
L 21.578125 0 
z
" id="DejaVuSans-87"/>
      <path d="M 54.890625 33.015625 
L 54.890625 0 
L 45.90625 0 
L 45.90625 32.71875 
Q 45.90625 40.484375 42.875 44.328125 
Q 39.84375 48.1875 33.796875 48.1875 
Q 26.515625 48.1875 22.3125 43.546875 
Q 18.109375 38.921875 18.109375 30.90625 
L 18.109375 0 
L 9.078125 0 
L 9.078125 54.6875 
L 18.109375 54.6875 
L 18.109375 46.1875 
Q 21.34375 51.125 25.703125 53.5625 
Q 30.078125 56 35.796875 56 
Q 45.21875 56 50.046875 50.171875 
Q 54.890625 44.34375 54.890625 33.015625 
z
" id="DejaVuSans-110"/>
      <path d="M 45.40625 46.390625 
L 45.40625 75.984375 
L 54.390625 75.984375 
L 54.390625 0 
L 45.40625 0 
L 45.40625 8.203125 
Q 42.578125 3.328125 38.25 0.953125 
Q 33.9375 -1.421875 27.875 -1.421875 
Q 17.96875 -1.421875 11.734375 6.484375 
Q 5.515625 14.40625 5.515625 27.296875 
Q 5.515625 40.1875 11.734375 48.09375 
Q 17.96875 56 27.875 56 
Q 33.9375 56 38.25 53.625 
Q 42.578125 51.265625 45.40625 46.390625 
z
M 14.796875 27.296875 
Q 14.796875 17.390625 18.875 11.75 
Q 22.953125 6.109375 30.078125 6.109375 
Q 37.203125 6.109375 41.296875 11.75 
Q 45.40625 17.390625 45.40625 27.296875 
Q 45.40625 37.203125 41.296875 42.84375 
Q 37.203125 48.484375 30.078125 48.484375 
Q 22.953125 48.484375 18.875 42.84375 
Q 14.796875 37.203125 14.796875 27.296875 
z
" id="DejaVuSans-100"/>
      <path d="M 34.1875 63.1875 
L 20.796875 26.90625 
L 47.609375 26.90625 
z
M 28.609375 72.90625 
L 39.796875 72.90625 
L 67.578125 0 
L 57.328125 0 
L 50.6875 18.703125 
L 17.828125 18.703125 
L 11.1875 0 
L 0.78125 0 
z
" id="DejaVuSans-65"/>
      <path d="M 9.421875 54.6875 
L 18.40625 54.6875 
L 18.40625 0 
L 9.421875 0 
z
M 9.421875 75.984375 
L 18.40625 75.984375 
L 18.40625 64.59375 
L 9.421875 64.59375 
z
" id="DejaVuSans-105"/>
     </defs>
     <use xlink:href="#DejaVuSans-76"/>
     <use x="55.712891" xlink:href="#DejaVuSans-97"/>
     <use x="116.992188" xlink:href="#DejaVuSans-107"/>
     <use x="171.277344" xlink:href="#DejaVuSans-101"/>
     <use x="232.800781" xlink:href="#DejaVuSans-32"/>
     <use x="264.587891" xlink:href="#DejaVuSans-83"/>
     <use x="328.064453" xlink:href="#DejaVuSans-104"/>
     <use x="391.443359" xlink:href="#DejaVuSans-111"/>
     <use x="452.625" xlink:href="#DejaVuSans-101"/>
     <use x="514.148438" xlink:href="#DejaVuSans-99"/>
     <use x="569.128906" xlink:href="#DejaVuSans-114"/>
     <use x="610.242188" xlink:href="#DejaVuSans-97"/>
     <use x="671.521484" xlink:href="#DejaVuSans-102"/>
     <use x="704.976562" xlink:href="#DejaVuSans-116"/>
     <use x="744.185547" xlink:href="#DejaVuSans-32"/>
     <use x="775.972656" xlink:href="#DejaVuSans-45"/>
     <use x="812.056641" xlink:href="#DejaVuSans-32"/>
     <use x="843.84375" xlink:href="#DejaVuSans-87"/>
     <use x="936.345703" xlink:href="#DejaVuSans-97"/>
     <use x="997.625" xlink:href="#DejaVuSans-116"/>
     <use x="1036.833984" xlink:href="#DejaVuSans-101"/>
     <use x="1098.357422" xlink:href="#DejaVuSans-114"/>
     <use x="1139.470703" xlink:href="#DejaVuSans-32"/>
     <use x="1171.257812" xlink:href="#DejaVuSans-97"/>
     <use x="1232.537109" xlink:href="#DejaVuSans-110"/>
     <use x="1295.916016" xlink:href="#DejaVuSans-100"/>
     <use x="1359.392578" xlink:href="#DejaVuSans-32"/>
     <use x="1391.179688" xlink:href="#DejaVuSans-65"/>
     <use x="1459.587891" xlink:href="#DejaVuSans-105"/>
     <use x="1487.371094" xlink:href="#DejaVuSans-114"/>
     <use x="1528.484375" xlink:href="#DejaVuSans-32"/>
     <use x="1560.271484" xlink:href="#DejaVuSans-84"/>
     <use x="1604.355469" xlink:href="#DejaVuSans-101"/>
     <use x="1665.878906" xlink:href="#DejaVuSans-109"/>
     <use x="1763.291016" xlink:href="#DejaVuSans-112"/>
     <use x="1826.767578" xlink:href="#DejaVuSans-101"/>
     <use x="1888.291016" xlink:href="#DejaVuSans-114"/>
     <use x="1929.404297" xlink:href="#DejaVuSans-97"/>
     <use x="1990.683594" xlink:href="#DejaVuSans-116"/>
     <use x="2029.892578" xlink:href="#DejaVuSans-117"/>
     <use x="2093.271484" xlink:href="#DejaVuSans-114"/>
     <use x="2132.134766" xlink:href="#DejaVuSans-101"/>
    </g>
   </g>
   <g id="legend_1">
    <g id="patch_7">
     <path d="M 51.66 62.79625 
L 136.769375 62.79625 
Q 138.769375 62.79625 138.769375 60.79625 
L 138.769375 32.44 
Q 138.769375 30.44 136.769375 30.44 
L 51.66 30.44 
Q 49.66 30.44 49.66 32.44 
L 49.66 60.79625 
Q 49.66 62.79625 51.66 62.79625 
z
" style="fill:#ffffff;opacity:0.8;stroke:#cccccc;stroke-linejoin:miter;"/>
    </g>
    <g id="line2d_37">
     <path d="M 53.66 38.538437 
L 73.66 38.538437 
" style="fill:none;stroke:#1f77b4;stroke-linecap:square;stroke-width:1.5;"/>
    </g>
    <g id="line2d_38"/>
    <g id="text_21">
     <!-- Lake Temp -->
     <g transform="translate(81.66 42.038437)scale(0.1 -0.1)">
      <use xlink:href="#DejaVuSans-76"/>
      <use x="55.712891" xlink:href="#DejaVuSans-97"/>
      <use x="116.992188" xlink:href="#DejaVuSans-107"/>
      <use x="171.277344" xlink:href="#DejaVuSans-101"/>
      <use x="232.800781" xlink:href="#DejaVuSans-32"/>
      <use x="264.587891" xlink:href="#DejaVuSans-84"/>
      <use x="308.671875" xlink:href="#DejaVuSans-101"/>
      <use x="370.195312" xlink:href="#DejaVuSans-109"/>
      <use x="467.607422" xlink:href="#DejaVuSans-112"/>
     </g>
    </g>
    <g id="line2d_39">
     <path d="M 53.66 53.216562 
L 73.66 53.216562 
" style="fill:none;stroke:#ff7f0e;stroke-linecap:square;stroke-width:1.5;"/>
    </g>
    <g id="line2d_40"/>
    <g id="text_22">
     <!-- Air Temp -->
     <g transform="translate(81.66 56.716562)scale(0.1 -0.1)">
      <use xlink:href="#DejaVuSans-65"/>
      <use x="68.408203" xlink:href="#DejaVuSans-105"/>
      <use x="96.191406" xlink:href="#DejaVuSans-114"/>
      <use x="137.304688" xlink:href="#DejaVuSans-32"/>
      <use x="169.091797" xlink:href="#DejaVuSans-84"/>
      <use x="213.175781" xlink:href="#DejaVuSans-101"/>
      <use x="274.699219" xlink:href="#DejaVuSans-109"/>
      <use x="372.111328" xlink:href="#DejaVuSans-112"/>
     </g>
    </g>
   </g>
  </g>
 </g>
 <defs>
  <clipPath id="p1a99765d35">
   <rect height="230.198708" width="405.34" x="44.66" y="25.44"/>
  </clipPath>
 </defs>
</svg>
