<?xml version="1.0" encoding="utf-8" standalone="no"?>
<!DOCTYPE svg PUBLIC "-//W3C//DTD SVG 1.1//EN"
  "http://www.w3.org/Graphics/SVG/1.1/DTD/svg11.dtd">
<!-- Created with matplotlib (https://matplotlib.org/) -->
<svg height="345.6pt" version="1.1" viewBox="0 0 460.8 345.6" width="460.8pt" xmlns="http://www.w3.org/2000/svg" xmlns:xlink="http://www.w3.org/1999/xlink">
 <metadata>
  <rdf:RDF xmlns:cc="http://creativecommons.org/ns#" xmlns:dc="http://purl.org/dc/elements/1.1/" xmlns:rdf="http://www.w3.org/1999/02/22-rdf-syntax-ns#">
   <cc:Work>
    <dc:type rdf:resource="http://purl.org/dc/dcmitype/StillImage"/>
    <dc:date>2024-11-18T00:54:18.745450</dc:date>
    <dc:format>image/svg+xml</dc:format>
    <dc:creator>
     <cc:Agent>
      <dc:title>Matplotlib v3.3.2, https://matplotlib.org/</dc:title>
     </cc:Agent>
    </dc:creator>
   </cc:Work>
  </rdf:RDF>
 </metadata>
 <defs>
  <style type="text/css">*{stroke-linecap:butt;stroke-linejoin:round;}</style>
 </defs>
 <g id="figure_1">
  <g id="patch_1">
   <path d="M 0 345.6 
L 460.8 345.6 
L 460.8 0 
L 0 0 
z
" style="fill:none;"/>
  </g>
  <g id="axes_1">
   <g id="patch_2">
    <path d="M 54.2 255.638708 
L 450 255.638708 
L 450 25.44 
L 54.2 25.44 
z
" style="fill:none;"/>
   </g>
   <g id="matplotlib.axis_1">
    <g id="xtick_1">
     <g id="line2d_1">
      <path clip-path="url(#p85586ebe13)" d="M 89.292203 255.638708 
L 89.292203 25.44 
" style="fill:none;stroke:#b0b0b0;stroke-linecap:square;stroke-width:0.8;"/>
     </g>
     <g id="line2d_2">
      <defs>
       <path d="M 0 0 
L 0 3.5 
" id="m0fd00ab6a0" style="stroke:#000000;stroke-width:0.8;"/>
      </defs>
      <g>
       <use style="stroke:#000000;stroke-width:0.8;" x="89.292203" xlink:href="#m0fd00ab6a0" y="255.638708"/>
      </g>
     </g>
     <g id="text_1">
      <!-- 2024-10-29 -->
      <g transform="translate(81.94681 319.848351)rotate(-70)scale(0.1 -0.1)">
       <defs>
        <path d="M 19.1875 8.296875 
L 53.609375 8.296875 
L 53.609375 0 
L 7.328125 0 
L 7.328125 8.296875 
Q 12.9375 14.109375 22.625 23.890625 
Q 32.328125 33.6875 34.8125 36.53125 
Q 39.546875 41.84375 41.421875 45.53125 
Q 43.3125 49.21875 43.3125 52.78125 
Q 43.3125 58.59375 39.234375 62.25 
Q 35.15625 65.921875 28.609375 65.921875 
Q 23.96875 65.921875 18.8125 64.3125 
Q 13.671875 62.703125 7.8125 59.421875 
L 7.8125 69.390625 
Q 13.765625 71.78125 18.9375 73 
Q 24.125 74.21875 28.421875 74.21875 
Q 39.75 74.21875 46.484375 68.546875 
Q 53.21875 62.890625 53.21875 53.421875 
Q 53.21875 48.921875 51.53125 44.890625 
Q 49.859375 40.875 45.40625 35.40625 
Q 44.1875 33.984375 37.640625 27.21875 
Q 31.109375 20.453125 19.1875 8.296875 
z
" id="DejaVuSans-50"/>
        <path d="M 31.78125 66.40625 
Q 24.171875 66.40625 20.328125 58.90625 
Q 16.5 51.421875 16.5 36.375 
Q 16.5 21.390625 20.328125 13.890625 
Q 24.171875 6.390625 31.78125 6.390625 
Q 39.453125 6.390625 43.28125 13.890625 
Q 47.125 21.390625 47.125 36.375 
Q 47.125 51.421875 43.28125 58.90625 
Q 39.453125 66.40625 31.78125 66.40625 
z
M 31.78125 74.21875 
Q 44.046875 74.21875 50.515625 64.515625 
Q 56.984375 54.828125 56.984375 36.375 
Q 56.984375 17.96875 50.515625 8.265625 
Q 44.046875 -1.421875 31.78125 -1.421875 
Q 19.53125 -1.421875 13.0625 8.265625 
Q 6.59375 17.96875 6.59375 36.375 
Q 6.59375 54.828125 13.0625 64.515625 
Q 19.53125 74.21875 31.78125 74.21875 
z
" id="DejaVuSans-48"/>
        <path d="M 37.796875 64.3125 
L 12.890625 25.390625 
L 37.796875 25.390625 
z
M 35.203125 72.90625 
L 47.609375 72.90625 
L 47.609375 25.390625 
L 58.015625 25.390625 
L 58.015625 17.1875 
L 47.609375 17.1875 
L 47.609375 0 
L 37.796875 0 
L 37.796875 17.1875 
L 4.890625 17.1875 
L 4.890625 26.703125 
z
" id="DejaVuSans-52"/>
        <path d="M 4.890625 31.390625 
L 31.203125 31.390625 
L 31.203125 23.390625 
L 4.890625 23.390625 
z
" id="DejaVuSans-45"/>
        <path d="M 12.40625 8.296875 
L 28.515625 8.296875 
L 28.515625 63.921875 
L 10.984375 60.40625 
L 10.984375 69.390625 
L 28.421875 72.90625 
L 38.28125 72.90625 
L 38.28125 8.296875 
L 54.390625 8.296875 
L 54.390625 0 
L 12.40625 0 
z
" id="DejaVuSans-49"/>
        <path d="M 10.984375 1.515625 
L 10.984375 10.5 
Q 14.703125 8.734375 18.5 7.8125 
Q 22.3125 6.890625 25.984375 6.890625 
Q 35.75 6.890625 40.890625 13.453125 
Q 46.046875 20.015625 46.78125 33.40625 
Q 43.953125 29.203125 39.59375 26.953125 
Q 35.25 24.703125 29.984375 24.703125 
Q 19.046875 24.703125 12.671875 31.3125 
Q 6.296875 37.9375 6.296875 49.421875 
Q 6.296875 60.640625 12.9375 67.421875 
Q 19.578125 74.21875 30.609375 74.21875 
Q 43.265625 74.21875 49.921875 64.515625 
Q 56.59375 54.828125 56.59375 36.375 
Q 56.59375 19.140625 48.40625 8.859375 
Q 40.234375 -1.421875 26.421875 -1.421875 
Q 22.703125 -1.421875 18.890625 -0.6875 
Q 15.09375 0.046875 10.984375 1.515625 
z
M 30.609375 32.421875 
Q 37.25 32.421875 41.125 36.953125 
Q 45.015625 41.5 45.015625 49.421875 
Q 45.015625 57.28125 41.125 61.84375 
Q 37.25 66.40625 30.609375 66.40625 
Q 23.96875 66.40625 20.09375 61.84375 
Q 16.21875 57.28125 16.21875 49.421875 
Q 16.21875 41.5 20.09375 36.953125 
Q 23.96875 32.421875 30.609375 32.421875 
z
" id="DejaVuSans-57"/>
       </defs>
       <use xlink:href="#DejaVuSans-50"/>
       <use x="63.623047" xlink:href="#DejaVuSans-48"/>
       <use x="127.246094" xlink:href="#DejaVuSans-50"/>
       <use x="190.869141" xlink:href="#DejaVuSans-52"/>
       <use x="254.492188" xlink:href="#DejaVuSans-45"/>
       <use x="290.576172" xlink:href="#DejaVuSans-49"/>
       <use x="354.199219" xlink:href="#DejaVuSans-48"/>
       <use x="417.822266" xlink:href="#DejaVuSans-45"/>
       <use x="453.90625" xlink:href="#DejaVuSans-50"/>
       <use x="517.529297" xlink:href="#DejaVuSans-57"/>
      </g>
     </g>
    </g>
    <g id="xtick_2">
     <g id="line2d_3">
      <path clip-path="url(#p85586ebe13)" d="M 140.603592 255.638708 
L 140.603592 25.44 
" style="fill:none;stroke:#b0b0b0;stroke-linecap:square;stroke-width:0.8;"/>
     </g>
     <g id="line2d_4">
      <g>
       <use style="stroke:#000000;stroke-width:0.8;" x="140.603592" xlink:href="#m0fd00ab6a0" y="255.638708"/>
      </g>
     </g>
     <g id="text_2">
      <!-- 2024-11-01 -->
      <g transform="translate(133.258199 319.848351)rotate(-70)scale(0.1 -0.1)">
       <use xlink:href="#DejaVuSans-50"/>
       <use x="63.623047" xlink:href="#DejaVuSans-48"/>
       <use x="127.246094" xlink:href="#DejaVuSans-50"/>
       <use x="190.869141" xlink:href="#DejaVuSans-52"/>
       <use x="254.492188" xlink:href="#DejaVuSans-45"/>
       <use x="290.576172" xlink:href="#DejaVuSans-49"/>
       <use x="354.199219" xlink:href="#DejaVuSans-49"/>
       <use x="417.822266" xlink:href="#DejaVuSans-45"/>
       <use x="453.90625" xlink:href="#DejaVuSans-48"/>
       <use x="517.529297" xlink:href="#DejaVuSans-49"/>
      </g>
     </g>
    </g>
    <g id="xtick_3">
     <g id="line2d_5">
      <path clip-path="url(#p85586ebe13)" d="M 209.018778 255.638708 
L 209.018778 25.44 
" style="fill:none;stroke:#b0b0b0;stroke-linecap:square;stroke-width:0.8;"/>
     </g>
     <g id="line2d_6">
      <g>
       <use style="stroke:#000000;stroke-width:0.8;" x="209.018778" xlink:href="#m0fd00ab6a0" y="255.638708"/>
      </g>
     </g>
     <g id="text_3">
      <!-- 2024-11-05 -->
      <g transform="translate(201.673385 319.848351)rotate(-70)scale(0.1 -0.1)">
       <defs>
        <path d="M 10.796875 72.90625 
L 49.515625 72.90625 
L 49.515625 64.59375 
L 19.828125 64.59375 
L 19.828125 46.734375 
Q 21.96875 47.46875 24.109375 47.828125 
Q 26.265625 48.1875 28.421875 48.1875 
Q 40.625 48.1875 47.75 41.5 
Q 54.890625 34.8125 54.890625 23.390625 
Q 54.890625 11.625 47.5625 5.09375 
Q 40.234375 -1.421875 26.90625 -1.421875 
Q 22.3125 -1.421875 17.546875 -0.640625 
Q 12.796875 0.140625 7.71875 1.703125 
L 7.71875 11.625 
Q 12.109375 9.234375 16.796875 8.0625 
Q 21.484375 6.890625 26.703125 6.890625 
Q 35.15625 6.890625 40.078125 11.328125 
Q 45.015625 15.765625 45.015625 23.390625 
Q 45.015625 31 40.078125 35.4375 
Q 35.15625 39.890625 26.703125 39.890625 
Q 22.75 39.890625 18.8125 39.015625 
Q 14.890625 38.140625 10.796875 36.28125 
z
" id="DejaVuSans-53"/>
       </defs>
       <use xlink:href="#DejaVuSans-50"/>
       <use x="63.623047" xlink:href="#DejaVuSans-48"/>
       <use x="127.246094" xlink:href="#DejaVuSans-50"/>
       <use x="190.869141" xlink:href="#DejaVuSans-52"/>
       <use x="254.492188" xlink:href="#DejaVuSans-45"/>
       <use x="290.576172" xlink:href="#DejaVuSans-49"/>
       <use x="354.199219" xlink:href="#DejaVuSans-49"/>
       <use x="417.822266" xlink:href="#DejaVuSans-45"/>
       <use x="453.90625" xlink:href="#DejaVuSans-48"/>
       <use x="517.529297" xlink:href="#DejaVuSans-53"/>
      </g>
     </g>
    </g>
    <g id="xtick_4">
     <g id="line2d_7">
      <path clip-path="url(#p85586ebe13)" d="M 277.433964 255.638708 
L 277.433964 25.44 
" style="fill:none;stroke:#b0b0b0;stroke-linecap:square;stroke-width:0.8;"/>
     </g>
     <g id="line2d_8">
      <g>
       <use style="stroke:#000000;stroke-width:0.8;" x="277.433964" xlink:href="#m0fd00ab6a0" y="255.638708"/>
      </g>
     </g>
     <g id="text_4">
      <!-- 2024-11-09 -->
      <g transform="translate(270.088571 319.848351)rotate(-70)scale(0.1 -0.1)">
       <use xlink:href="#DejaVuSans-50"/>
       <use x="63.623047" xlink:href="#DejaVuSans-48"/>
       <use x="127.246094" xlink:href="#DejaVuSans-50"/>
       <use x="190.869141" xlink:href="#DejaVuSans-52"/>
       <use x="254.492188" xlink:href="#DejaVuSans-45"/>
       <use x="290.576172" xlink:href="#DejaVuSans-49"/>
       <use x="354.199219" xlink:href="#DejaVuSans-49"/>
       <use x="417.822266" xlink:href="#DejaVuSans-45"/>
       <use x="453.90625" xlink:href="#DejaVuSans-48"/>
       <use x="517.529297" xlink:href="#DejaVuSans-57"/>
      </g>
     </g>
    </g>
    <g id="xtick_5">
     <g id="line2d_9">
      <path clip-path="url(#p85586ebe13)" d="M 345.84915 255.638708 
L 345.84915 25.44 
" style="fill:none;stroke:#b0b0b0;stroke-linecap:square;stroke-width:0.8;"/>
     </g>
     <g id="line2d_10">
      <g>
       <use style="stroke:#000000;stroke-width:0.8;" x="345.84915" xlink:href="#m0fd00ab6a0" y="255.638708"/>
      </g>
     </g>
     <g id="text_5">
      <!-- 2024-11-13 -->
      <g transform="translate(338.503757 319.848351)rotate(-70)scale(0.1 -0.1)">
       <defs>
        <path d="M 40.578125 39.3125 
Q 47.65625 37.796875 51.625 33 
Q 55.609375 28.21875 55.609375 21.1875 
Q 55.609375 10.40625 48.1875 4.484375 
Q 40.765625 -1.421875 27.09375 -1.421875 
Q 22.515625 -1.421875 17.65625 -0.515625 
Q 12.796875 0.390625 7.625 2.203125 
L 7.625 11.71875 
Q 11.71875 9.328125 16.59375 8.109375 
Q 21.484375 6.890625 26.8125 6.890625 
Q 36.078125 6.890625 40.9375 10.546875 
Q 45.796875 14.203125 45.796875 21.1875 
Q 45.796875 27.640625 41.28125 31.265625 
Q 36.765625 34.90625 28.71875 34.90625 
L 20.21875 34.90625 
L 20.21875 43.015625 
L 29.109375 43.015625 
Q 36.375 43.015625 40.234375 45.921875 
Q 44.09375 48.828125 44.09375 54.296875 
Q 44.09375 59.90625 40.109375 62.90625 
Q 36.140625 65.921875 28.71875 65.921875 
Q 24.65625 65.921875 20.015625 65.03125 
Q 15.375 64.15625 9.8125 62.3125 
L 9.8125 71.09375 
Q 15.4375 72.65625 20.34375 73.4375 
Q 25.25 74.21875 29.59375 74.21875 
Q 40.828125 74.21875 47.359375 69.109375 
Q 53.90625 64.015625 53.90625 55.328125 
Q 53.90625 49.265625 50.4375 45.09375 
Q 46.96875 40.921875 40.578125 39.3125 
z
" id="DejaVuSans-51"/>
       </defs>
       <use xlink:href="#DejaVuSans-50"/>
       <use x="63.623047" xlink:href="#DejaVuSans-48"/>
       <use x="127.246094" xlink:href="#DejaVuSans-50"/>
       <use x="190.869141" xlink:href="#DejaVuSans-52"/>
       <use x="254.492188" xlink:href="#DejaVuSans-45"/>
       <use x="290.576172" xlink:href="#DejaVuSans-49"/>
       <use x="354.199219" xlink:href="#DejaVuSans-49"/>
       <use x="417.822266" xlink:href="#DejaVuSans-45"/>
       <use x="453.90625" xlink:href="#DejaVuSans-49"/>
       <use x="517.529297" xlink:href="#DejaVuSans-51"/>
      </g>
     </g>
    </g>
    <g id="xtick_6">
     <g id="line2d_11">
      <path clip-path="url(#p85586ebe13)" d="M 414.264335 255.638708 
L 414.264335 25.44 
" style="fill:none;stroke:#b0b0b0;stroke-linecap:square;stroke-width:0.8;"/>
     </g>
     <g id="line2d_12">
      <g>
       <use style="stroke:#000000;stroke-width:0.8;" x="414.264335" xlink:href="#m0fd00ab6a0" y="255.638708"/>
      </g>
     </g>
     <g id="text_6">
      <!-- 2024-11-17 -->
      <g transform="translate(406.918943 319.848351)rotate(-70)scale(0.1 -0.1)">
       <defs>
        <path d="M 8.203125 72.90625 
L 55.078125 72.90625 
L 55.078125 68.703125 
L 28.609375 0 
L 18.3125 0 
L 43.21875 64.59375 
L 8.203125 64.59375 
z
" id="DejaVuSans-55"/>
       </defs>
       <use xlink:href="#DejaVuSans-50"/>
       <use x="63.623047" xlink:href="#DejaVuSans-48"/>
       <use x="127.246094" xlink:href="#DejaVuSans-50"/>
       <use x="190.869141" xlink:href="#DejaVuSans-52"/>
       <use x="254.492188" xlink:href="#DejaVuSans-45"/>
       <use x="290.576172" xlink:href="#DejaVuSans-49"/>
       <use x="354.199219" xlink:href="#DejaVuSans-49"/>
       <use x="417.822266" xlink:href="#DejaVuSans-45"/>
       <use x="453.90625" xlink:href="#DejaVuSans-49"/>
       <use x="517.529297" xlink:href="#DejaVuSans-55"/>
      </g>
     </g>
    </g>
    <g id="text_7">
     <!-- Date -->
     <g transform="translate(240.149219 332.158083)scale(0.1 -0.1)">
      <defs>
       <path d="M 19.671875 64.796875 
L 19.671875 8.109375 
L 31.59375 8.109375 
Q 46.6875 8.109375 53.6875 14.9375 
Q 60.6875 21.78125 60.6875 36.53125 
Q 60.6875 51.171875 53.6875 57.984375 
Q 46.6875 64.796875 31.59375 64.796875 
z
M 9.8125 72.90625 
L 30.078125 72.90625 
Q 51.265625 72.90625 61.171875 64.09375 
Q 71.09375 55.28125 71.09375 36.53125 
Q 71.09375 17.671875 61.125 8.828125 
Q 51.171875 0 30.078125 0 
L 9.8125 0 
z
" id="DejaVuSans-68"/>
       <path d="M 34.28125 27.484375 
Q 23.390625 27.484375 19.1875 25 
Q 14.984375 22.515625 14.984375 16.5 
Q 14.984375 11.71875 18.140625 8.90625 
Q 21.296875 6.109375 26.703125 6.109375 
Q 34.1875 6.109375 38.703125 11.40625 
Q 43.21875 16.703125 43.21875 25.484375 
L 43.21875 27.484375 
z
M 52.203125 31.203125 
L 52.203125 0 
L 43.21875 0 
L 43.21875 8.296875 
Q 40.140625 3.328125 35.546875 0.953125 
Q 30.953125 -1.421875 24.3125 -1.421875 
Q 15.921875 -1.421875 10.953125 3.296875 
Q 6 8.015625 6 15.921875 
Q 6 25.140625 12.171875 29.828125 
Q 18.359375 34.515625 30.609375 34.515625 
L 43.21875 34.515625 
L 43.21875 35.40625 
Q 43.21875 41.609375 39.140625 45 
Q 35.0625 48.390625 27.6875 48.390625 
Q 23 48.390625 18.546875 47.265625 
Q 14.109375 46.140625 10.015625 43.890625 
L 10.015625 52.203125 
Q 14.9375 54.109375 19.578125 55.046875 
Q 24.21875 56 28.609375 56 
Q 40.484375 56 46.34375 49.84375 
Q 52.203125 43.703125 52.203125 31.203125 
z
" id="DejaVuSans-97"/>
       <path d="M 18.3125 70.21875 
L 18.3125 54.6875 
L 36.8125 54.6875 
L 36.8125 47.703125 
L 18.3125 47.703125 
L 18.3125 18.015625 
Q 18.3125 11.328125 20.140625 9.421875 
Q 21.96875 7.515625 27.59375 7.515625 
L 36.8125 7.515625 
L 36.8125 0 
L 27.59375 0 
Q 17.1875 0 13.234375 3.875 
Q 9.28125 7.765625 9.28125 18.015625 
L 9.28125 47.703125 
L 2.6875 47.703125 
L 2.6875 54.6875 
L 9.28125 54.6875 
L 9.28125 70.21875 
z
" id="DejaVuSans-116"/>
       <path d="M 56.203125 29.59375 
L 56.203125 25.203125 
L 14.890625 25.203125 
Q 15.484375 15.921875 20.484375 11.0625 
Q 25.484375 6.203125 34.421875 6.203125 
Q 39.59375 6.203125 44.453125 7.46875 
Q 49.3125 8.734375 54.109375 11.28125 
L 54.109375 2.78125 
Q 49.265625 0.734375 44.1875 -0.34375 
Q 39.109375 -1.421875 33.890625 -1.421875 
Q 20.796875 -1.421875 13.15625 6.1875 
Q 5.515625 13.8125 5.515625 26.8125 
Q 5.515625 40.234375 12.765625 48.109375 
Q 20.015625 56 32.328125 56 
Q 43.359375 56 49.78125 48.890625 
Q 56.203125 41.796875 56.203125 29.59375 
z
M 47.21875 32.234375 
Q 47.125 39.59375 43.09375 43.984375 
Q 39.0625 48.390625 32.421875 48.390625 
Q 24.90625 48.390625 20.390625 44.140625 
Q 15.875 39.890625 15.1875 32.171875 
z
" id="DejaVuSans-101"/>
      </defs>
      <use xlink:href="#DejaVuSans-68"/>
      <use x="77.001953" xlink:href="#DejaVuSans-97"/>
      <use x="138.28125" xlink:href="#DejaVuSans-116"/>
      <use x="177.490234" xlink:href="#DejaVuSans-101"/>
     </g>
    </g>
   </g>
   <g id="matplotlib.axis_2">
    <g id="ytick_1">
     <g id="line2d_13">
      <path clip-path="url(#p85586ebe13)" d="M 54.2 249.774505 
L 450 249.774505 
" style="fill:none;stroke:#b0b0b0;stroke-linecap:square;stroke-width:0.8;"/>
     </g>
     <g id="line2d_14">
      <defs>
       <path d="M 0 0 
L -3.5 0 
" id="m535f46de4e" style="stroke:#000000;stroke-width:0.8;"/>
      </defs>
      <g>
       <use style="stroke:#000000;stroke-width:0.8;" x="54.2" xlink:href="#m535f46de4e" y="249.774505"/>
      </g>
     </g>
     <g id="text_8">
      <!-- 37.5 -->
      <g transform="translate(24.934375 253.573724)scale(0.1 -0.1)">
       <defs>
        <path d="M 10.6875 12.40625 
L 21 12.40625 
L 21 0 
L 10.6875 0 
z
" id="DejaVuSans-46"/>
       </defs>
       <use xlink:href="#DejaVuSans-51"/>
       <use x="63.623047" xlink:href="#DejaVuSans-55"/>
       <use x="127.246094" xlink:href="#DejaVuSans-46"/>
       <use x="159.033203" xlink:href="#DejaVuSans-53"/>
      </g>
     </g>
    </g>
    <g id="ytick_2">
     <g id="line2d_15">
      <path clip-path="url(#p85586ebe13)" d="M 54.2 221.028413 
L 450 221.028413 
" style="fill:none;stroke:#b0b0b0;stroke-linecap:square;stroke-width:0.8;"/>
     </g>
     <g id="line2d_16">
      <g>
       <use style="stroke:#000000;stroke-width:0.8;" x="54.2" xlink:href="#m535f46de4e" y="221.028413"/>
      </g>
     </g>
     <g id="text_9">
      <!-- 40.0 -->
      <g transform="translate(24.934375 224.827631)scale(0.1 -0.1)">
       <use xlink:href="#DejaVuSans-52"/>
       <use x="63.623047" xlink:href="#DejaVuSans-48"/>
       <use x="127.246094" xlink:href="#DejaVuSans-46"/>
       <use x="159.033203" xlink:href="#DejaVuSans-48"/>
      </g>
     </g>
    </g>
    <g id="ytick_3">
     <g id="line2d_17">
      <path clip-path="url(#p85586ebe13)" d="M 54.2 192.28232 
L 450 192.28232 
" style="fill:none;stroke:#b0b0b0;stroke-linecap:square;stroke-width:0.8;"/>
     </g>
     <g id="line2d_18">
      <g>
       <use style="stroke:#000000;stroke-width:0.8;" x="54.2" xlink:href="#m535f46de4e" y="192.28232"/>
      </g>
     </g>
     <g id="text_10">
      <!-- 42.5 -->
      <g transform="translate(24.934375 196.081539)scale(0.1 -0.1)">
       <use xlink:href="#DejaVuSans-52"/>
       <use x="63.623047" xlink:href="#DejaVuSans-50"/>
       <use x="127.246094" xlink:href="#DejaVuSans-46"/>
       <use x="159.033203" xlink:href="#DejaVuSans-53"/>
      </g>
     </g>
    </g>
    <g id="ytick_4">
     <g id="line2d_19">
      <path clip-path="url(#p85586ebe13)" d="M 54.2 163.536228 
L 450 163.536228 
" style="fill:none;stroke:#b0b0b0;stroke-linecap:square;stroke-width:0.8;"/>
     </g>
     <g id="line2d_20">
      <g>
       <use style="stroke:#000000;stroke-width:0.8;" x="54.2" xlink:href="#m535f46de4e" y="163.536228"/>
      </g>
     </g>
     <g id="text_11">
      <!-- 45.0 -->
      <g transform="translate(24.934375 167.335447)scale(0.1 -0.1)">
       <use xlink:href="#DejaVuSans-52"/>
       <use x="63.623047" xlink:href="#DejaVuSans-53"/>
       <use x="127.246094" xlink:href="#DejaVuSans-46"/>
       <use x="159.033203" xlink:href="#DejaVuSans-48"/>
      </g>
     </g>
    </g>
    <g id="ytick_5">
     <g id="line2d_21">
      <path clip-path="url(#p85586ebe13)" d="M 54.2 134.790136 
L 450 134.790136 
" style="fill:none;stroke:#b0b0b0;stroke-linecap:square;stroke-width:0.8;"/>
     </g>
     <g id="line2d_22">
      <g>
       <use style="stroke:#000000;stroke-width:0.8;" x="54.2" xlink:href="#m535f46de4e" y="134.790136"/>
      </g>
     </g>
     <g id="text_12">
      <!-- 47.5 -->
      <g transform="translate(24.934375 138.589354)scale(0.1 -0.1)">
       <use xlink:href="#DejaVuSans-52"/>
       <use x="63.623047" xlink:href="#DejaVuSans-55"/>
       <use x="127.246094" xlink:href="#DejaVuSans-46"/>
       <use x="159.033203" xlink:href="#DejaVuSans-53"/>
      </g>
     </g>
    </g>
    <g id="ytick_6">
     <g id="line2d_23">
      <path clip-path="url(#p85586ebe13)" d="M 54.2 106.044043 
L 450 106.044043 
" style="fill:none;stroke:#b0b0b0;stroke-linecap:square;stroke-width:0.8;"/>
     </g>
     <g id="line2d_24">
      <g>
       <use style="stroke:#000000;stroke-width:0.8;" x="54.2" xlink:href="#m535f46de4e" y="106.044043"/>
      </g>
     </g>
     <g id="text_13">
      <!-- 50.0 -->
      <g transform="translate(24.934375 109.843262)scale(0.1 -0.1)">
       <use xlink:href="#DejaVuSans-53"/>
       <use x="63.623047" xlink:href="#DejaVuSans-48"/>
       <use x="127.246094" xlink:href="#DejaVuSans-46"/>
       <use x="159.033203" xlink:href="#DejaVuSans-48"/>
      </g>
     </g>
    </g>
    <g id="ytick_7">
     <g id="line2d_25">
      <path clip-path="url(#p85586ebe13)" d="M 54.2 77.297951 
L 450 77.297951 
" style="fill:none;stroke:#b0b0b0;stroke-linecap:square;stroke-width:0.8;"/>
     </g>
     <g id="line2d_26">
      <g>
       <use style="stroke:#000000;stroke-width:0.8;" x="54.2" xlink:href="#m535f46de4e" y="77.297951"/>
      </g>
     </g>
     <g id="text_14">
      <!-- 52.5 -->
      <g transform="translate(24.934375 81.097169)scale(0.1 -0.1)">
       <use xlink:href="#DejaVuSans-53"/>
       <use x="63.623047" xlink:href="#DejaVuSans-50"/>
       <use x="127.246094" xlink:href="#DejaVuSans-46"/>
       <use x="159.033203" xlink:href="#DejaVuSans-53"/>
      </g>
     </g>
    </g>
    <g id="ytick_8">
     <g id="line2d_27">
      <path clip-path="url(#p85586ebe13)" d="M 54.2 48.551858 
L 450 48.551858 
" style="fill:none;stroke:#b0b0b0;stroke-linecap:square;stroke-width:0.8;"/>
     </g>
     <g id="line2d_28">
      <g>
       <use style="stroke:#000000;stroke-width:0.8;" x="54.2" xlink:href="#m535f46de4e" y="48.551858"/>
      </g>
     </g>
     <g id="text_15">
      <!-- 55.0 -->
      <g transform="translate(24.934375 52.351077)scale(0.1 -0.1)">
       <use xlink:href="#DejaVuSans-53"/>
       <use x="63.623047" xlink:href="#DejaVuSans-53"/>
       <use x="127.246094" xlink:href="#DejaVuSans-46"/>
       <use x="159.033203" xlink:href="#DejaVuSans-48"/>
      </g>
     </g>
    </g>
    <g id="text_16">
     <!-- Temperature [F] -->
     <g transform="translate(18.854688 180.575291)rotate(-90)scale(0.1 -0.1)">
      <defs>
       <path d="M -0.296875 72.90625 
L 61.375 72.90625 
L 61.375 64.59375 
L 35.5 64.59375 
L 35.5 0 
L 25.59375 0 
L 25.59375 64.59375 
L -0.296875 64.59375 
z
" id="DejaVuSans-84"/>
       <path d="M 52 44.1875 
Q 55.375 50.25 60.0625 53.125 
Q 64.75 56 71.09375 56 
Q 79.640625 56 84.28125 50.015625 
Q 88.921875 44.046875 88.921875 33.015625 
L 88.921875 0 
L 79.890625 0 
L 79.890625 32.71875 
Q 79.890625 40.578125 77.09375 44.375 
Q 74.3125 48.1875 68.609375 48.1875 
Q 61.625 48.1875 57.5625 43.546875 
Q 53.515625 38.921875 53.515625 30.90625 
L 53.515625 0 
L 44.484375 0 
L 44.484375 32.71875 
Q 44.484375 40.625 41.703125 44.40625 
Q 38.921875 48.1875 33.109375 48.1875 
Q 26.21875 48.1875 22.15625 43.53125 
Q 18.109375 38.875 18.109375 30.90625 
L 18.109375 0 
L 9.078125 0 
L 9.078125 54.6875 
L 18.109375 54.6875 
L 18.109375 46.1875 
Q 21.1875 51.21875 25.484375 53.609375 
Q 29.78125 56 35.6875 56 
Q 41.65625 56 45.828125 52.96875 
Q 50 49.953125 52 44.1875 
z
" id="DejaVuSans-109"/>
       <path d="M 18.109375 8.203125 
L 18.109375 -20.796875 
L 9.078125 -20.796875 
L 9.078125 54.6875 
L 18.109375 54.6875 
L 18.109375 46.390625 
Q 20.953125 51.265625 25.265625 53.625 
Q 29.59375 56 35.59375 56 
Q 45.5625 56 51.78125 48.09375 
Q 58.015625 40.1875 58.015625 27.296875 
Q 58.015625 14.40625 51.78125 6.484375 
Q 45.5625 -1.421875 35.59375 -1.421875 
Q 29.59375 -1.421875 25.265625 0.953125 
Q 20.953125 3.328125 18.109375 8.203125 
z
M 48.6875 27.296875 
Q 48.6875 37.203125 44.609375 42.84375 
Q 40.53125 48.484375 33.40625 48.484375 
Q 26.265625 48.484375 22.1875 42.84375 
Q 18.109375 37.203125 18.109375 27.296875 
Q 18.109375 17.390625 22.1875 11.75 
Q 26.265625 6.109375 33.40625 6.109375 
Q 40.53125 6.109375 44.609375 11.75 
Q 48.6875 17.390625 48.6875 27.296875 
z
" id="DejaVuSans-112"/>
       <path d="M 41.109375 46.296875 
Q 39.59375 47.171875 37.8125 47.578125 
Q 36.03125 48 33.890625 48 
Q 26.265625 48 22.1875 43.046875 
Q 18.109375 38.09375 18.109375 28.8125 
L 18.109375 0 
L 9.078125 0 
L 9.078125 54.6875 
L 18.109375 54.6875 
L 18.109375 46.1875 
Q 20.953125 51.171875 25.484375 53.578125 
Q 30.03125 56 36.53125 56 
Q 37.453125 56 38.578125 55.875 
Q 39.703125 55.765625 41.0625 55.515625 
z
" id="DejaVuSans-114"/>
       <path d="M 8.5 21.578125 
L 8.5 54.6875 
L 17.484375 54.6875 
L 17.484375 21.921875 
Q 17.484375 14.15625 20.5 10.265625 
Q 23.53125 6.390625 29.59375 6.390625 
Q 36.859375 6.390625 41.078125 11.03125 
Q 45.3125 15.671875 45.3125 23.6875 
L 45.3125 54.6875 
L 54.296875 54.6875 
L 54.296875 0 
L 45.3125 0 
L 45.3125 8.40625 
Q 42.046875 3.421875 37.71875 1 
Q 33.40625 -1.421875 27.6875 -1.421875 
Q 18.265625 -1.421875 13.375 4.4375 
Q 8.5 10.296875 8.5 21.578125 
z
M 31.109375 56 
z
" id="DejaVuSans-117"/>
       <path id="DejaVuSans-32"/>
       <path d="M 8.59375 75.984375 
L 29.296875 75.984375 
L 29.296875 69 
L 17.578125 69 
L 17.578125 -6.203125 
L 29.296875 -6.203125 
L 29.296875 -13.1875 
L 8.59375 -13.1875 
z
" id="DejaVuSans-91"/>
       <path d="M 9.8125 72.90625 
L 51.703125 72.90625 
L 51.703125 64.59375 
L 19.671875 64.59375 
L 19.671875 43.109375 
L 48.578125 43.109375 
L 48.578125 34.8125 
L 19.671875 34.8125 
L 19.671875 0 
L 9.8125 0 
z
" id="DejaVuSans-70"/>
       <path d="M 30.421875 75.984375 
L 30.421875 -13.1875 
L 9.71875 -13.1875 
L 9.71875 -6.203125 
L 21.390625 -6.203125 
L 21.390625 69 
L 9.71875 69 
L 9.71875 75.984375 
z
" id="DejaVuSans-93"/>
      </defs>
      <use xlink:href="#DejaVuSans-84"/>
      <use x="44.083984" xlink:href="#DejaVuSans-101"/>
      <use x="105.607422" xlink:href="#DejaVuSans-109"/>
      <use x="203.019531" xlink:href="#DejaVuSans-112"/>
      <use x="266.496094" xlink:href="#DejaVuSans-101"/>
      <use x="328.019531" xlink:href="#DejaVuSans-114"/>
      <use x="369.132812" xlink:href="#DejaVuSans-97"/>
      <use x="430.412109" xlink:href="#DejaVuSans-116"/>
      <use x="469.621094" xlink:href="#DejaVuSans-117"/>
      <use x="533" xlink:href="#DejaVuSans-114"/>
      <use x="571.863281" xlink:href="#DejaVuSans-101"/>
      <use x="633.386719" xlink:href="#DejaVuSans-32"/>
      <use x="665.173828" xlink:href="#DejaVuSans-91"/>
      <use x="704.1875" xlink:href="#DejaVuSans-70"/>
      <use x="761.707031" xlink:href="#DejaVuSans-93"/>
     </g>
    </g>
   </g>
   <g id="line2d_29">
    <path clip-path="url(#p85586ebe13)" d="M 72.190909 50.851546 
L 72.203179 50.851546 
L 72.315498 48.551858 
L 72.352347 48.551858 
L 72.451602 50.851546 
L 72.550646 48.551858 
L 72.612275 50.851546 
L 72.649744 48.551858 
L 72.674507 48.551858 
L 72.786442 50.851546 
L 72.898781 48.551858 
L 73.011214 50.851546 
L 73.271937 50.851546 
L 73.284427 48.551858 
L 73.371309 50.851546 
L 73.483085 50.851546 
L 73.583106 48.551858 
L 73.648197 50.851546 
L 73.685557 48.551858 
L 73.722437 48.551858 
L 73.772319 50.851546 
L 73.826688 48.551858 
L 74.006075 48.551858 
L 74.119135 50.851546 
L 74.143777 48.551858 
L 74.219794 50.851546 
L 74.232037 50.851546 
L 74.34462 48.551858 
L 74.45707 50.851546 
L 74.556665 50.851546 
L 74.581232 48.551858 
L 74.618611 52.001389 
L 74.656479 50.851546 
L 74.719261 50.851546 
L 74.731561 52.001389 
L 74.769064 48.551858 
L 74.819096 50.851546 
L 74.856403 50.851546 
L 74.970108 48.551858 
L 75.082518 48.551858 
L 75.095239 50.851546 
L 75.183455 48.551858 
L 75.232797 48.551858 
L 75.269763 47.402015 
L 75.332767 48.551858 
L 75.495061 48.551858 
L 75.50732 50.851546 
L 75.595727 48.551858 
L 75.896151 48.551858 
L 75.972207 50.851546 
L 75.996983 48.551858 
L 76.222657 48.551858 
L 76.335418 50.851546 
L 76.599483 50.851546 
L 76.611788 48.551858 
L 76.699015 50.851546 
L 77.530104 50.851546 
L 77.593873 52.001389 
L 77.63077 50.851546 
L 77.681003 50.851546 
L 77.792659 52.001389 
L 77.804936 52.001389 
L 77.917772 50.851546 
L 78.030846 52.001389 
L 78.068022 52.001389 
L 78.180728 50.851546 
L 78.233359 50.851546 
L 78.333378 52.001389 
L 78.384137 50.851546 
L 78.434648 52.001389 
L 78.510546 52.001389 
L 78.522831 50.851546 
L 78.612265 52.001389 
L 78.773292 52.001389 
L 78.887281 53.151233 
L 78.965926 53.151233 
L 79.068601 52.001389 
L 79.09357 53.151233 
L 79.169156 52.001389 
L 79.218904 50.851546 
L 79.268397 52.001389 
L 79.430929 52.001389 
L 79.530621 50.851546 
L 79.643431 52.001389 
L 79.655694 50.851546 
L 79.742901 52.001389 
L 79.793061 52.001389 
L 79.805336 50.851546 
L 79.89205 52.001389 
L 79.954427 52.001389 
L 80.067755 50.851546 
L 80.191552 50.851546 
L 80.203828 52.001389 
L 80.290247 50.851546 
L 80.48878 50.851546 
L 80.600466 48.551858 
L 80.89103 48.551858 
L 80.903369 50.851546 
L 80.990278 48.551858 
L 81.164121 48.551858 
L 81.278636 47.402015 
L 81.291328 47.402015 
L 81.341595 48.551858 
L 81.391247 47.402015 
L 81.440687 47.402015 
L 81.552526 46.252171 
L 81.602492 47.402015 
L 81.652848 46.252171 
L 81.727327 46.252171 
L 81.841171 45.102327 
L 81.94098 45.102327 
L 82.053534 43.952484 
L 82.090506 43.952484 
L 82.207191 41.652796 
L 82.30777 42.80264 
L 82.398346 40.502952 
L 82.423681 41.652796 
L 82.448666 41.652796 
L 82.489362 39.353109 
L 82.56567 40.502952 
L 82.730293 40.502952 
L 82.846259 39.353109 
L 82.910215 40.502952 
L 82.885283 37.053421 
L 82.922846 39.353109 
L 82.935132 37.053421 
L 82.947595 40.502952 
L 83.0105 39.353109 
L 83.098765 42.80264 
L 83.123331 41.652796 
L 83.160391 37.053421 
L 83.172709 42.80264 
L 83.210507 42.80264 
L 83.273079 42.80264 
L 83.286025 43.952484 
L 83.335425 41.652796 
L 83.360641 41.652796 
L 83.373294 41.652796 
L 83.513171 35.903578 
L 83.537926 35.903578 
L 83.661259 37.053421 
L 83.723559 37.053421 
L 83.836354 39.353109 
L 83.952104 37.053421 
L 84.064268 39.353109 
L 84.089859 39.353109 
L 84.201929 40.502952 
L 84.330775 40.502952 
L 84.430307 41.652796 
L 84.44263 40.502952 
L 84.531432 41.652796 
L 84.65771 41.652796 
L 84.746458 42.80264 
L 84.758944 41.652796 
L 84.771213 41.652796 
L 84.883126 42.80264 
L 84.97029 42.80264 
L 85.082557 43.952484 
L 85.82543 43.952484 
L 85.837907 45.102327 
L 85.926043 43.952484 
L 85.950617 43.952484 
L 85.988404 45.102327 
L 86.052403 43.952484 
L 86.102958 43.952484 
L 86.216523 45.102327 
L 86.719352 45.102327 
L 86.831403 46.252171 
L 86.856299 46.252171 
L 86.944514 45.102327 
L 86.956848 46.252171 
L 87.133075 46.252171 
L 87.146066 47.402015 
L 87.236024 46.252171 
L 87.561144 46.252171 
L 87.661318 47.402015 
L 87.774122 46.252171 
L 87.886897 47.402015 
L 87.936649 46.252171 
L 87.986467 47.402015 
L 88.037063 47.402015 
L 88.075174 46.252171 
L 88.137182 47.402015 
L 88.351216 47.402015 
L 88.40071 46.252171 
L 88.450785 47.402015 
L 88.515104 47.402015 
L 88.528399 46.252171 
L 88.615782 47.402015 
L 88.628078 47.402015 
L 88.640353 46.252171 
L 88.72775 47.402015 
L 89.425692 47.402015 
L 89.437979 46.252171 
L 89.524537 47.402015 
L 89.623626 47.402015 
L 89.636515 48.551858 
L 89.72311 47.402015 
L 90.034217 47.402015 
L 90.157201 48.551858 
L 90.243924 48.551858 
L 90.342213 47.402015 
L 90.354763 48.551858 
L 90.379334 48.551858 
L 90.466623 47.402015 
L 90.478947 48.551858 
L 90.678056 48.551858 
L 90.793843 50.851546 
L 90.843067 48.551858 
L 90.892478 50.851546 
L 90.999153 50.851546 
L 91.024227 48.551858 
L 91.09922 50.851546 
L 91.148775 50.851546 
L 91.248199 48.551858 
L 91.360582 50.851546 
L 91.472948 48.551858 
L 91.635339 48.551858 
L 91.647736 50.851546 
L 91.734637 48.551858 
L 91.9849 48.551858 
L 92.034526 50.851546 
L 92.084836 48.551858 
L 92.134663 48.551858 
L 92.222158 50.851546 
L 92.234446 48.551858 
L 92.448101 48.551858 
L 92.548139 50.851546 
L 92.660542 48.551858 
L 92.760202 50.851546 
L 92.848297 48.551858 
L 92.860623 50.851546 
L 92.936366 50.851546 
L 92.999767 48.551858 
L 93.037415 50.851546 
L 93.101207 50.851546 
L 93.11438 48.551858 
L 93.205277 50.851546 
L 93.218659 50.851546 
L 93.295733 48.551858 
L 93.320705 50.851546 
L 93.371824 50.851546 
L 93.384111 48.551858 
L 93.40928 50.851546 
L 93.509985 50.851546 
L 93.547136 48.551858 
L 93.612039 50.851546 
L 93.674839 50.851546 
L 93.74982 48.551858 
L 93.774769 50.851546 
L 93.862275 50.851546 
L 93.924791 48.551858 
L 93.962699 50.851546 
L 94.329608 50.851546 
L 94.450342 52.001389 
L 94.487339 50.851546 
L 94.561307 52.001389 
L 94.982904 52.001389 
L 95.058112 53.151233 
L 95.084145 52.001389 
L 95.544264 52.001389 
L 95.581137 50.851546 
L 95.64319 52.001389 
L 96.009734 52.001389 
L 96.02227 50.851546 
L 96.110767 52.001389 
L 96.123282 52.001389 
L 96.135583 50.851546 
L 96.223797 52.001389 
L 96.23608 52.001389 
L 96.323476 50.851546 
L 96.335754 52.001389 
L 96.372777 52.001389 
L 96.484556 50.851546 
L 96.534926 50.851546 
L 96.646161 48.551858 
L 96.783975 48.551858 
L 96.796303 47.402015 
L 96.883717 48.551858 
L 96.936348 48.551858 
L 97.037251 47.402015 
L 97.149434 48.551858 
L 97.211995 48.551858 
L 97.224396 47.402015 
L 97.311075 48.551858 
L 97.562158 48.551858 
L 97.611589 47.402015 
L 97.661845 48.551858 
L 97.711348 48.551858 
L 97.823112 47.402015 
L 98.200983 47.402015 
L 98.758491 46.252171 
L 99.00712 46.252171 
L 99.119984 45.102327 
L 99.535737 45.102327 
L 99.649938 43.952484 
L 99.74922 43.952484 
L 99.873618 41.652796 
L 99.886353 41.652796 
L 99.998062 42.80264 
L 100.336377 42.80264 
L 100.3487 41.652796 
L 100.435206 42.80264 
L 100.472639 42.80264 
L 100.584333 41.652796 
L 100.633725 41.652796 
L 100.747426 43.952484 
L 100.78437 43.952484 
L 100.796901 42.80264 
L 100.884952 43.952484 
L 101.0763 43.952484 
L 101.17516 45.102327 
L 101.290543 43.952484 
L 101.403645 45.102327 
L 101.617845 45.102327 
L 101.719289 46.252171 
L 101.781515 45.102327 
L 101.818777 46.252171 
L 102.031525 46.252171 
L 102.043811 45.102327 
L 102.133466 46.252171 
L 102.461296 46.252171 
L 102.576436 47.402015 
L 102.630397 47.402015 
L 102.68024 46.252171 
L 102.731469 47.402015 
L 102.948054 47.402015 
L 103.060476 48.551858 
L 103.136009 47.402015 
L 103.161815 48.551858 
L 103.187539 48.551858 
L 103.200918 47.402015 
L 103.2881 48.551858 
L 103.401819 48.551858 
L 103.414209 50.851546 
L 103.479324 48.551858 
L 103.606552 48.551858 
L 103.720843 50.851546 
L 103.757849 50.851546 
L 103.845504 48.551858 
L 103.858356 50.851546 
L 103.871031 50.851546 
L 103.907882 48.551858 
L 103.970297 50.851546 
L 104.232163 50.851546 
L 104.244476 52.001389 
L 104.331469 50.851546 
L 105.094458 50.851546 
L 105.207044 52.001389 
L 105.319387 50.851546 
L 105.397108 52.001389 
L 105.422065 50.851546 
L 105.484604 50.851546 
L 105.597833 52.001389 
L 105.647705 52.001389 
L 105.659949 50.851546 
L 105.747601 52.001389 
L 105.786035 52.001389 
L 105.903 50.851546 
L 105.942713 50.851546 
L 106.059418 52.001389 
L 106.24806 52.001389 
L 106.322855 50.851546 
L 106.347549 52.001389 
L 106.634307 52.001389 
L 106.647162 53.151233 
L 106.735067 52.001389 
L 106.873316 52.001389 
L 106.885814 53.151233 
L 106.972417 52.001389 
L 107.171567 52.001389 
L 107.196762 53.151233 
L 107.272207 52.001389 
L 107.30902 52.001389 
L 107.409363 53.151233 
L 107.497582 52.001389 
L 107.509869 53.151233 
L 107.571447 53.151233 
L 107.583813 52.001389 
L 107.670461 53.151233 
L 107.720246 53.151233 
L 107.745473 52.001389 
L 107.819533 53.151233 
L 107.859839 53.151233 
L 107.946882 52.001389 
L 107.959385 53.151233 
L 107.97169 53.151233 
L 107.984422 52.001389 
L 108.077343 53.151233 
L 108.240321 53.151233 
L 108.351927 54.301077 
L 108.475119 53.151233 
L 108.487611 53.151233 
L 108.602589 54.301077 
L 108.652417 54.301077 
L 108.69097 53.151233 
L 108.753208 54.301077 
L 109.254194 54.301077 
L 109.303859 55.45092 
L 109.353521 54.301077 
L 109.378578 54.301077 
L 109.491076 55.45092 
L 109.503367 54.301077 
L 109.591262 55.45092 
L 109.603671 55.45092 
L 109.716054 54.301077 
L 109.828068 55.45092 
L 109.998331 55.45092 
L 110.064317 54.301077 
L 110.127349 54.301077 
L 110.19989 55.45092 
L 110.228594 54.301077 
L 110.30741 54.301077 
L 110.425751 55.45092 
L 110.486612 55.45092 
L 110.58839 54.301077 
L 110.677493 55.45092 
L 111.213604 55.45092 
L 111.330712 56.600764 
L 111.515762 56.600764 
L 111.540757 57.750608 
L 111.620985 56.600764 
L 111.690422 56.600764 
L 111.742499 57.750608 
L 111.791959 56.600764 
L 111.804217 56.600764 
L 111.91626 57.750608 
L 112.103672 57.750608 
L 112.202776 56.600764 
L 112.315224 57.750608 
L 112.48921 57.750608 
L 112.60049 56.600764 
L 112.62563 56.600764 
L 112.739172 57.750608 
L 112.851666 57.750608 
L 112.96705 56.600764 
L 113.110997 56.600764 
L 113.212699 57.750608 
L 113.335785 56.600764 
L 114.01791 56.600764 
L 114.030327 57.750608 
L 114.11934 56.600764 
L 114.297416 56.600764 
L 114.310176 57.750608 
L 114.401511 56.600764 
L 114.567226 56.600764 
L 114.579719 57.750608 
L 114.671227 56.600764 
L 114.733544 56.600764 
L 114.746562 55.45092 
L 114.832783 56.600764 
L 115.00679 56.600764 
L 115.019091 57.750608 
L 115.105759 56.600764 
L 115.427846 56.600764 
L 115.457541 57.750608 
L 115.53568 56.600764 
L 116.316219 57.750608 
L 117.141043 57.750608 
L 117.15354 56.600764 
L 117.242325 57.750608 
L 118.081711 57.750608 
L 118.143659 60.050295 
L 118.180761 57.750608 
L 118.217545 57.750608 
L 118.229976 60.050295 
L 118.317674 57.750608 
L 118.454295 57.750608 
L 118.553429 60.050295 
L 118.666139 57.750608 
L 118.728085 60.050295 
L 118.765677 57.750608 
L 118.816875 57.750608 
L 118.904321 60.050295 
L 118.91698 57.750608 
L 118.929302 57.750608 
L 119.004179 60.050295 
L 119.016453 57.750608 
L 119.22024 57.750608 
L 119.318673 60.050295 
L 119.332617 57.750608 
L 119.429643 60.050295 
L 119.454975 60.050295 
L 120.314696 61.200139 
L 120.430435 61.200139 
L 120.480297 62.349983 
L 120.89254 61.200139 
L 121.009584 62.349983 
L 121.137011 61.200139 
L 121.189602 62.349983 
L 121.240841 61.200139 
L 121.317337 61.200139 
L 121.356275 62.349983 
L 121.419227 61.200139 
L 121.497881 61.200139 
L 121.535746 62.349983 
L 121.608075 61.200139 
L 121.725644 62.349983 
L 122.158441 62.349983 
L 122.260771 63.499826 
L 122.373682 62.349983 
L 122.399776 62.349983 
L 122.512258 63.499826 
L 122.561922 62.349983 
L 122.61123 63.499826 
L 122.62351 63.499826 
L 122.735767 62.349983 
L 122.760347 62.349983 
L 122.809605 63.499826 
L 122.859308 62.349983 
L 122.896154 62.349983 
L 123.007494 63.499826 
L 123.032382 63.499826 
L 123.1431 62.349983 
L 123.258733 63.499826 
L 123.287234 63.499826 
L 123.399782 64.64967 
L 123.450011 64.64967 
L 123.50056 63.499826 
L 123.550158 64.64967 
L 123.61303 64.64967 
L 123.638047 65.799514 
L 123.6503 63.499826 
L 123.699953 63.499826 
L 123.799656 63.499826 
L 123.811939 64.64967 
L 123.910583 63.499826 
L 124.181923 63.499826 
L 124.243878 65.799514 
L 124.299621 64.64967 
L 124.410993 63.499826 
L 124.559012 63.499826 
L 124.681928 64.64967 
L 124.79323 63.499826 
L 124.805507 64.64967 
L 124.903932 63.499826 
L 124.916196 63.499826 
L 125.05787 64.64967 
L 125.082866 64.64967 
L 125.095311 63.499826 
L 125.190511 64.64967 
L 125.230693 64.64967 
L 125.256192 65.799514 
L 125.280889 63.499826 
L 125.318185 64.64967 
L 125.368008 63.499826 
L 125.418414 64.64967 
L 126.003067 64.64967 
L 126.027815 65.799514 
L 126.102949 64.64967 
L 126.240693 64.64967 
L 126.367131 66.949357 
L 126.481717 65.799514 
L 126.494181 66.949357 
L 126.581861 65.799514 
L 126.922421 65.799514 
L 127.03666 66.949357 
L 127.065576 66.949357 
L 127.189332 68.099201 
L 127.309477 65.799514 
L 127.407578 65.799514 
L 127.523177 66.949357 
L 127.83791 66.949357 
L 127.852096 65.799514 
L 127.945497 66.949357 
L 128.038516 66.949357 
L 128.165948 65.799514 
L 128.513016 65.799514 
L 128.553322 64.64967 
L 128.616032 65.799514 
L 128.890595 65.799514 
L 128.903454 66.949357 
L 129.001163 65.799514 
L 129.312024 65.799514 
L 129.325504 66.949357 
L 129.411253 65.799514 
L 129.541477 65.799514 
L 129.655476 66.949357 
L 129.72684 66.949357 
L 129.798515 65.799514 
L 129.812136 66.949357 
L 129.936776 65.799514 
L 130.047527 66.949357 
L 130.061796 66.949357 
L 130.179809 65.799514 
L 130.219141 65.799514 
L 130.321189 66.949357 
L 130.434708 65.799514 
L 130.460981 65.799514 
L 130.56846 66.949357 
L 130.659492 65.799514 
L 130.671735 66.949357 
L 130.752237 66.949357 
L 130.865184 65.799514 
L 131.251767 65.799514 
L 131.367918 64.64967 
L 131.819524 64.64967 
L 131.906285 63.499826 
L 131.918997 64.64967 
L 131.931404 64.64967 
L 132.052244 63.499826 
L 132.07832 63.499826 
L 132.090795 64.64967 
L 132.189404 63.499826 
L 132.456038 63.499826 
L 132.57296 62.349983 
L 132.585487 62.349983 
L 132.69682 63.499826 
L 132.80966 62.349983 
L 132.897344 62.349983 
L 132.909676 61.200139 
L 132.997512 62.349983 
L 133.009838 62.349983 
L 133.109592 61.200139 
L 133.220758 62.349983 
L 133.334121 61.200139 
L 133.499501 61.200139 
L 133.612812 60.050295 
L 133.675084 60.050295 
L 133.788226 57.750608 
L 133.801209 57.750608 
L 133.826347 60.050295 
L 133.90175 57.750608 
L 133.976859 57.750608 
L 134.002266 60.050295 
L 134.331463 60.050295 
L 134.387803 57.750608 
L 134.401928 60.050295 
L 134.450082 60.050295 
L 134.568179 57.750608 
L 134.596174 57.750608 
L 134.694397 60.050295 
L 134.706728 57.750608 
L 134.780526 57.750608 
L 134.894407 61.200139 
L 135.012423 60.050295 
L 135.114724 61.200139 
L 135.166954 61.200139 
L 135.26189 60.050295 
L 135.277385 61.200139 
L 135.289693 61.200139 
L 135.345452 60.050295 
L 135.385613 61.200139 
L 135.467499 61.200139 
L 135.479784 60.050295 
L 135.567555 61.200139 
L 135.844702 61.200139 
L 135.958346 62.349983 
L 136.045392 61.200139 
L 136.057646 62.349983 
L 136.393961 62.349983 
L 136.406607 63.499826 
L 136.492784 62.349983 
L 136.518181 62.349983 
L 136.543028 63.499826 
L 136.618813 62.349983 
L 136.796376 62.349983 
L 136.876083 63.499826 
L 136.902987 62.349983 
L 137.015216 62.349983 
L 137.127759 63.499826 
L 137.140049 63.499826 
L 137.152373 62.349983 
L 137.239635 63.499826 
L 137.665805 63.499826 
L 137.678531 64.64967 
L 137.766749 63.499826 
L 137.854564 63.499826 
L 137.971049 64.64967 
L 138.294454 64.64967 
L 138.307157 63.499826 
L 138.332141 64.64967 
L 138.601534 64.64967 
L 138.665587 65.799514 
L 138.703225 64.64967 
L 138.741521 64.64967 
L 138.857394 65.799514 
L 138.972737 64.64967 
L 138.985549 64.64967 
L 139.103325 65.799514 
L 139.128791 65.799514 
L 139.23326 64.64967 
L 139.245915 65.799514 
L 139.335101 64.64967 
L 139.397303 64.64967 
L 139.513186 65.799514 
L 139.537825 65.799514 
L 139.650246 64.64967 
L 139.675091 64.64967 
L 139.788654 65.799514 
L 139.801056 65.799514 
L 139.813441 64.64967 
L 139.901205 65.799514 
L 140.017235 65.799514 
L 140.130555 66.949357 
L 140.48936 66.949357 
L 140.603852 65.799514 
L 140.679706 65.799514 
L 140.692294 66.949357 
L 140.779562 65.799514 
L 140.841915 65.799514 
L 140.929083 66.949357 
L 140.941329 65.799514 
L 141.052296 65.799514 
L 141.164719 66.949357 
L 141.302602 66.949357 
L 141.414015 68.099201 
L 141.525971 66.949357 
L 142.154118 66.949357 
L 142.166482 65.799514 
L 142.259272 66.949357 
L 142.392747 66.949357 
L 142.49393 68.099201 
L 142.606536 66.949357 
L 142.721861 68.099201 
L 142.834553 66.949357 
L 142.85972 66.949357 
L 142.971636 68.099201 
L 143.059479 68.099201 
L 143.172989 69.249045 
L 143.18528 69.249045 
L 143.298069 68.099201 
L 143.460263 68.099201 
L 143.47255 69.249045 
L 143.55925 68.099201 
L 143.646899 68.099201 
L 143.671494 69.249045 
L 143.746992 68.099201 
L 143.821029 68.099201 
L 143.907712 69.249045 
L 143.920198 68.099201 
L 144.032584 68.099201 
L 144.131951 69.249045 
L 144.144217 68.099201 
L 144.232707 69.249045 
L 144.495522 69.249045 
L 144.608431 68.099201 
L 144.658356 68.099201 
L 144.769833 69.249045 
L 144.882194 68.099201 
L 144.99509 69.249045 
L 145.244445 69.249045 
L 145.25688 71.548732 
L 145.336638 69.249045 
L 145.73779 69.249045 
L 145.751009 71.548732 
L 145.843176 69.249045 
L 145.881734 69.249045 
L 145.992578 71.548732 
L 146.104027 69.249045 
L 146.352595 69.249045 
L 146.452191 71.548732 
L 146.464676 69.249045 
L 146.551097 71.548732 
L 146.613083 71.548732 
L 146.725263 72.698576 
L 146.749954 72.698576 
L 146.861209 71.548732 
L 146.913933 71.548732 
L 146.926362 72.698576 
L 147.017053 71.548732 
L 147.094508 69.249045 
L 147.107257 71.548732 
L 147.550512 71.548732 
L 147.653954 69.249045 
L 147.771739 71.548732 
L 147.886164 69.249045 
L 148.004221 71.548732 
L 148.124361 69.249045 
L 148.13849 69.249045 
L 148.230755 71.548732 
L 148.245328 69.249045 
L 148.259601 69.249045 
L 148.288999 71.548732 
L 148.355653 69.249045 
L 148.391771 69.249045 
L 148.514954 71.548732 
L 148.638109 69.249045 
L 148.651505 71.548732 
L 148.733036 69.249045 
L 148.906814 69.249045 
L 149.023254 68.099201 
L 149.137206 69.249045 
L 149.255697 68.099201 
L 149.322274 68.099201 
L 149.440259 69.249045 
L 149.514564 68.099201 
L 149.539351 69.249045 
L 149.551616 69.249045 
L 149.665478 68.099201 
L 149.767104 69.249045 
L 149.880947 68.099201 
L 149.994359 69.249045 
L 150.043726 69.249045 
L 150.119214 68.099201 
L 150.144758 69.249045 
L 151.086197 69.249045 
L 151.124025 68.099201 
L 151.191037 69.249045 
L 151.498175 69.249045 
L 151.510859 71.548732 
L 151.59915 69.249045 
L 151.948421 69.249045 
L 151.997852 71.548732 
L 152.035754 69.249045 
L 152.52243 69.249045 
L 152.535161 68.099201 
L 152.622969 69.249045 
L 152.999109 69.249045 
L 153.089047 71.548732 
L 153.101328 69.249045 
L 153.231063 69.249045 
L 153.280407 71.548732 
L 153.319247 69.249045 
L 153.347622 69.249045 
L 153.461189 71.548732 
L 153.561349 71.548732 
L 153.574012 69.249045 
L 153.663006 71.548732 
L 153.998865 71.548732 
L 154.011352 69.249045 
L 154.09978 71.548732 
L 154.162821 71.548732 
L 154.175532 69.249045 
L 154.266619 71.548732 
L 155.208456 71.548732 
L 155.233078 72.698576 
L 155.282572 71.548732 
L 155.503527 71.548732 
L 155.649849 72.698576 
L 155.672575 71.548732 
L 155.741013 72.698576 
L 156.136028 72.698576 
L 156.215113 71.548732 
L 156.353735 72.698576 
L 156.36638 71.548732 
L 156.453099 72.698576 
L 156.601363 72.698576 
L 156.61373 73.84842 
L 156.701665 72.698576 
L 156.738642 72.698576 
L 156.824993 71.548732 
L 156.849667 72.698576 
L 157.088282 72.698576 
L 157.19951 73.84842 
L 157.212176 73.84842 
L 157.326228 72.698576 
L 157.476196 72.698576 
L 157.587232 73.84842 
L 157.662729 72.698576 
L 157.687759 73.84842 
L 157.762049 73.84842 
L 157.774302 72.698576 
L 157.861918 73.84842 
L 157.874607 73.84842 
L 157.97401 72.698576 
L 158.085346 73.84842 
L 158.097752 73.84842 
L 158.11028 72.698576 
L 158.196798 73.84842 
L 158.655683 73.84842 
L 158.754499 74.998263 
L 158.766757 73.84842 
L 159.05204 73.84842 
L 159.064529 74.998263 
L 159.126326 73.84842 
L 159.166715 73.84842 
L 159.179335 74.998263 
L 159.266395 73.84842 
L 159.345316 73.84842 
L 159.459132 74.998263 
L 159.533692 74.998263 
L 159.633301 73.84842 
L 159.720146 74.998263 
L 159.732536 73.84842 
L 160.029716 73.84842 
L 160.067111 74.998263 
L 160.129143 73.84842 
L 160.290745 73.84842 
L 160.391655 74.998263 
L 160.491036 73.84842 
L 160.603813 74.998263 
L 160.678287 73.84842 
L 160.702891 74.998263 
L 160.727552 74.998263 
L 160.839491 73.84842 
L 160.864383 73.84842 
L 160.97665 74.998263 
L 160.989458 74.998263 
L 161.088108 73.84842 
L 161.200606 74.998263 
L 161.226106 74.998263 
L 161.238469 73.84842 
L 161.336905 74.998263 
L 161.795406 74.998263 
L 161.808321 73.84842 
L 161.8964 74.998263 
L 162.109573 74.998263 
L 162.222794 76.148107 
L 162.29983 74.998263 
L 162.326019 76.148107 
L 162.351288 76.148107 
L 162.363894 74.998263 
L 162.453095 76.148107 
L 163.090826 76.148107 
L 163.201664 74.998263 
L 163.30071 76.148107 
L 163.413828 74.998263 
L 163.426116 74.998263 
L 163.537523 76.148107 
L 163.550214 76.148107 
L 163.670501 74.998263 
L 163.999994 74.998263 
L 164.012281 76.148107 
L 164.100418 74.998263 
L 164.973646 74.998263 
L 165.03988 73.84842 
L 165.076851 74.998263 
L 165.089313 74.998263 
L 165.201267 73.84842 
L 165.251911 74.998263 
L 165.301704 73.84842 
L 165.839539 73.84842 
L 165.877463 72.698576 
L 165.940654 73.84842 
L 165.965224 73.84842 
L 166.027763 72.698576 
L 166.065247 73.84842 
L 166.077569 73.84842 
L 166.102423 72.698576 
L 166.176411 73.84842 
L 166.229118 73.84842 
L 166.241641 72.698576 
L 166.329205 73.84842 
L 166.341492 73.84842 
L 166.454562 72.698576 
L 166.504869 72.698576 
L 166.616029 71.548732 
L 166.6283 71.548732 
L 166.716316 72.698576 
L 166.72912 71.548732 
L 166.828746 71.548732 
L 166.841269 72.698576 
L 166.928554 71.548732 
L 167.115619 71.548732 
L 167.2293 69.249045 
L 167.494169 69.249045 
L 167.594617 68.099201 
L 167.606918 69.249045 
L 167.694244 68.099201 
L 167.80827 66.949357 
L 167.9197 68.099201 
L 167.932838 68.099201 
L 168.044418 66.949357 
L 168.218031 66.949357 
L 168.231438 68.099201 
L 168.319001 66.949357 
L 168.393652 66.949357 
L 168.505828 68.099201 
L 168.542846 68.099201 
L 168.655268 66.949357 
L 168.694513 66.949357 
L 168.79344 68.099201 
L 168.855508 66.949357 
L 168.892605 68.099201 
L 169.266091 68.099201 
L 169.278812 69.249045 
L 169.365974 68.099201 
L 169.504444 68.099201 
L 169.615927 69.249045 
L 169.702156 68.099201 
L 169.726895 69.249045 
L 169.790828 68.099201 
L 169.828166 69.249045 
L 169.991561 69.249045 
L 170.003858 68.099201 
L 170.090972 69.249045 
L 170.177748 69.249045 
L 170.239733 68.099201 
L 170.276973 69.249045 
L 170.875216 69.249045 
L 170.987721 71.548732 
L 171.037069 71.548732 
L 171.148643 69.249045 
L 171.161135 69.249045 
L 171.211727 71.548732 
L 171.26123 69.249045 
L 171.273593 69.249045 
L 171.385899 71.548732 
L 171.411239 71.548732 
L 171.424623 69.249045 
L 171.51193 71.548732 
L 171.853189 71.548732 
L 171.878369 72.698576 
L 171.952597 71.548732 
L 172.077576 71.548732 
L 172.166483 72.698576 
L 172.179603 71.548732 
L 172.230766 71.548732 
L 172.33115 72.698576 
L 172.41794 71.548732 
L 172.430236 72.698576 
L 172.442565 72.698576 
L 172.544678 71.548732 
L 172.65751 72.698576 
L 172.832909 72.698576 
L 172.84517 73.84842 
L 172.932595 72.698576 
L 172.969503 72.698576 
L 173.082057 73.84842 
L 173.094371 72.698576 
L 173.181858 73.84842 
L 173.231805 73.84842 
L 173.244091 72.698576 
L 173.33138 73.84842 
L 173.344777 74.998263 
L 173.43221 73.84842 
L 173.444497 73.84842 
L 173.519455 74.998263 
L 173.544799 73.84842 
L 173.5573 73.84842 
L 173.581896 74.998263 
L 173.657117 73.84842 
L 174.119208 73.84842 
L 174.194051 72.698576 
L 174.218615 73.84842 
L 174.294148 73.84842 
L 174.307052 72.698576 
L 174.393795 73.84842 
L 174.654854 73.84842 
L 174.767159 74.998263 
L 174.82293 74.998263 
L 174.946703 73.84842 
L 174.95901 73.84842 
L 175.059068 74.998263 
L 175.159813 73.84842 
L 175.198008 74.998263 
L 175.260405 73.84842 
L 175.324292 73.84842 
L 175.336947 74.998263 
L 175.424398 73.84842 
L 175.548949 73.84842 
L 175.648952 74.998263 
L 175.763007 73.84842 
L 175.85006 73.84842 
L 175.862359 74.998263 
L 175.949101 73.84842 
L 176.199808 73.84842 
L 176.212189 74.998263 
L 176.224527 73.84842 
L 175.524376 73.84842 
L 175.587017 73.84842 
L 175.699883 74.998263 
L 175.762813 74.998263 
L 175.862902 73.84842 
L 175.962103 74.998263 
L 176.049248 73.84842 
L 176.06173 74.998263 
L 176.074135 74.998263 
L 176.098953 73.84842 
L 176.173381 74.998263 
L 176.235412 74.998263 
L 176.276618 73.84842 
L 176.338837 74.998263 
L 176.828475 74.998263 
L 176.915579 73.84842 
L 176.928053 74.998263 
L 177.364748 74.998263 
L 177.377028 73.84842 
L 177.463918 74.998263 
L 177.476325 74.998263 
L 177.538272 73.84842 
L 177.575549 74.998263 
L 177.624774 74.998263 
L 177.736527 73.84842 
L 177.748853 73.84842 
L 177.861061 74.998263 
L 177.923433 74.998263 
L 178.037595 73.84842 
L 178.150432 74.998263 
L 178.175323 73.84842 
L 178.250046 74.998263 
L 178.760197 74.998263 
L 178.847764 76.148107 
L 178.86013 74.998263 
L 178.872457 74.998263 
L 178.971462 76.148107 
L 179.082741 74.998263 
L 179.194768 76.148107 
L 179.356041 76.148107 
L 179.380612 77.297951 
L 179.466813 76.148107 
L 179.916387 76.148107 
L 179.928669 74.998263 
L 180.0184 76.148107 
L 180.634153 76.148107 
L 180.696066 74.998263 
L 180.733403 76.148107 
L 180.770439 76.148107 
L 180.885578 74.998263 
L 180.923791 74.998263 
L 181.046817 76.148107 
L 181.195143 74.998263 
L 181.306961 76.148107 
L 181.381722 74.998263 
L 181.406269 76.148107 
L 181.418897 76.148107 
L 181.530336 74.998263 
L 181.567324 74.998263 
L 181.579572 76.148107 
L 181.666413 74.998263 
L 182.151792 74.998263 
L 182.263122 73.84842 
L 182.377774 74.998263 
L 182.414714 74.998263 
L 182.489993 73.84842 
L 182.515414 74.998263 
L 182.569099 74.998263 
L 182.618403 73.84842 
L 182.667669 74.998263 
L 182.708439 74.998263 
L 182.820002 73.84842 
L 183.067529 73.84842 
L 183.143228 72.698576 
L 183.168621 73.84842 
L 183.180922 73.84842 
L 183.293348 72.698576 
L 183.330669 73.84842 
L 183.39301 72.698576 
L 183.778097 72.698576 
L 183.890583 71.548732 
L 183.953059 71.548732 
L 184.065484 72.698576 
L 184.176957 71.548732 
L 184.289461 71.548732 
L 184.327118 72.698576 
L 184.389 71.548732 
L 184.501402 71.548732 
L 184.589151 72.698576 
L 184.60146 71.548732 
L 184.638841 71.548732 
L 184.75239 72.698576 
L 184.87745 72.698576 
L 184.989733 71.548732 
L 185.002016 71.548732 
L 185.113919 72.698576 
L 185.177743 72.698576 
L 185.227622 71.548732 
L 185.277513 72.698576 
L 185.602376 72.698576 
L 185.71379 73.84842 
L 185.900891 73.84842 
L 185.913572 72.698576 
L 185.999774 73.84842 
L 186.298664 73.84842 
L 186.38595 72.698576 
L 186.39824 73.84842 
L 186.623933 73.84842 
L 186.648746 72.698576 
L 186.723603 73.84842 
L 186.74851 73.84842 
L 186.760998 72.698576 
L 186.847735 73.84842 
L 188.010011 73.84842 
L 188.022936 74.998263 
L 188.118903 73.84842 
L 188.157786 73.84842 
L 188.266236 74.998263 
L 188.38157 73.84842 
L 188.505145 74.998263 
L 189.83563 74.998263 
L 189.847932 76.148107 
L 189.935213 74.998263 
L 189.9475 74.998263 
L 190.0627 76.148107 
L 190.176235 74.998263 
L 190.264331 76.148107 
L 190.276621 74.998263 
L 190.289318 74.998263 
L 190.403124 76.148107 
L 190.415417 74.998263 
L 190.504324 76.148107 
L 190.517009 76.148107 
L 190.568294 74.998263 
L 190.620119 76.148107 
L 190.633206 76.148107 
L 190.746765 74.998263 
L 190.759447 74.998263 
L 190.876622 76.148107 
L 190.927389 76.148107 
L 191.04011 74.998263 
L 191.152515 76.148107 
L 191.340345 76.148107 
L 191.352634 74.998263 
L 191.440725 76.148107 
L 192.053126 76.148107 
L 192.065442 77.297951 
L 192.153494 76.148107 
L 192.229157 76.148107 
L 192.305583 77.297951 
L 192.330109 76.148107 
L 192.342731 76.148107 
L 192.456155 77.297951 
L 192.518715 76.148107 
L 192.555682 77.297951 
L 192.643683 77.297951 
L 192.656642 76.148107 
L 192.744415 77.297951 
L 192.806286 77.297951 
L 192.894665 78.447794 
L 192.907076 77.297951 
L 192.919318 77.297951 
L 193.031172 78.447794 
L 193.129894 78.447794 
L 193.241979 80.747482 
L 193.369113 80.747482 
L 193.49272 78.447794 
L 193.517335 78.447794 
L 193.571998 77.297951 
L 193.622202 78.447794 
L 193.635082 78.447794 
L 193.696791 77.297951 
L 193.734568 78.447794 
L 193.809476 78.447794 
L 193.920745 77.297951 
L 194.00748 78.447794 
L 194.019871 77.297951 
L 194.032135 77.297951 
L 194.144013 78.447794 
L 194.230287 77.297951 
L 194.242571 78.447794 
L 194.305251 78.447794 
L 194.317557 77.297951 
L 194.40417 78.447794 
L 194.738411 78.447794 
L 194.826224 80.747482 
L 194.83877 78.447794 
L 194.901044 78.447794 
L 194.97611 80.747482 
L 195.00169 78.447794 
L 195.01442 78.447794 
L 195.127208 80.747482 
L 195.536857 80.747482 
L 195.54914 81.897325 
L 195.636695 80.747482 
L 195.847087 80.747482 
L 195.859583 81.897325 
L 195.946381 80.747482 
L 195.983479 80.747482 
L 196.083248 81.897325 
L 196.095657 80.747482 
L 196.182462 81.897325 
L 196.331978 81.897325 
L 196.443512 80.747482 
L 196.468037 80.747482 
L 196.579372 81.897325 
L 196.616383 80.747482 
L 196.679515 81.897325 
L 196.876667 81.897325 
L 196.99092 83.047169 
L 197.546486 83.047169 
L 197.620323 81.897325 
L 197.657521 83.047169 
L 197.967143 83.047169 
L 197.979427 81.897325 
L 198.066474 83.047169 
L 198.56219 83.047169 
L 198.574514 81.897325 
L 198.661154 83.047169 
L 199.132681 83.047169 
L 199.231036 84.197013 
L 199.243309 83.047169 
L 199.255631 83.047169 
L 199.366459 84.197013 
L 199.466316 83.047169 
L 199.565178 84.197013 
L 199.688671 83.047169 
L 199.799959 83.047169 
L 199.91185 84.197013 
L 199.998373 81.897325 
L 200.023098 83.047169 
L 200.047881 83.047169 
L 200.158723 81.897325 
L 200.196632 81.897325 
L 200.221237 83.047169 
L 200.295325 81.897325 
L 200.406683 80.747482 
L 200.531119 80.747482 
L 200.643858 78.447794 
L 200.780393 78.447794 
L 200.857621 80.747482 
L 200.882407 78.447794 
L 200.969039 78.447794 
L 201.06799 80.747482 
L 201.15548 78.447794 
L 201.16775 80.747482 
L 423.429569 116.392636 
L 423.504812 116.392636 
L 423.517657 117.54248 
L 423.604873 116.392636 
L 423.629846 116.392636 
L 423.742644 117.54248 
L 423.7681 117.54248 
L 423.792628 116.392636 
L 423.869096 117.54248 
L 424.092817 117.54248 
L 424.17969 118.692324 
L 424.192667 117.54248 
L 424.267733 117.54248 
L 424.355126 118.692324 
L 424.367776 117.54248 
L 424.380079 117.54248 
L 424.392488 118.692324 
L 424.479432 117.54248 
L 424.516472 117.54248 
L 424.628954 118.692324 
L 424.641709 118.692324 
L 424.654191 117.54248 
L 424.74164 118.692324 
L 424.75441 118.692324 
L 424.866184 117.54248 
L 424.941645 117.54248 
L 424.95409 118.692324 
L 425.042551 117.54248 
L 425.22869 117.54248 
L 426.808608 119.842167 
L 426.924356 118.692324 
L 426.962181 118.692324 
L 427.011266 119.842167 
L 427.061138 118.692324 
L 427.147779 118.692324 
L 427.163751 119.842167 
L 427.251362 118.692324 
L 427.39249 118.692324 
L 427.429389 119.842167 
L 427.491785 118.692324 
L 427.604508 118.692324 
L 427.695843 119.842167 
L 427.708152 118.692324 
L 427.745051 118.692324 
L 427.831806 119.842167 
L 427.844919 118.692324 
L 427.896626 118.692324 
L 428.011532 119.842167 
L 428.023908 119.842167 
L 428.08659 118.692324 
L 428.123974 119.842167 
L 428.162192 119.842167 
L 428.262293 118.692324 
L 428.363014 119.842167 
L 428.475097 118.692324 
L 428.587562 119.842167 
L 428.612413 119.842167 
L 428.725048 118.692324 
L 428.837269 119.842167 
L 428.911588 119.842167 
L 429.023402 118.692324 
L 429.072897 119.842167 
L 429.122411 118.692324 
L 429.147423 118.692324 
L 429.259685 119.842167 
L 429.371867 119.842167 
L 429.384156 118.692324 
L 429.479341 119.842167 
L 429.721147 119.842167 
L 429.833547 122.141855 
L 429.933469 119.842167 
L 430.044755 122.141855 
L 430.326855 122.141855 
L 430.339527 123.291699 
L 430.428736 122.141855 
L 430.666106 122.141855 
L 430.779558 119.842167 
L 431.077842 119.842167 
L 431.167879 122.141855 
L 431.180176 119.842167 
L 431.218079 119.842167 
L 431.331149 122.141855 
L 431.356715 122.141855 
L 431.406828 119.842167 
L 431.456867 122.141855 
L 431.632966 122.141855 
L 431.707169 119.842167 
L 431.732223 122.141855 
L 431.957567 122.141855 
L 431.996402 123.291699 
L 432.009091 122.141855 
" style="fill:none;stroke:#1f77b4;stroke-linecap:square;stroke-width:1.5;"/>
   </g>
   <g id="line2d_30">
    <path clip-path="url(#p85586ebe13)" d="M 72.190909 106.044043 
L 75.407439 106.044043 
L 75.519997 118.692324 
L 76.537415 118.692324 
L 76.649294 126.74123 
L 76.848863 126.74123 
L 76.947638 118.692324 
L 78.358562 118.692324 
L 78.472539 126.74123 
L 78.900334 126.74123 
L 79.016864 118.692324 
L 79.842247 118.692324 
L 79.954427 106.044043 
L 80.414614 106.044043 
L 80.525922 93.395762 
L 81.151857 93.395762 
L 81.266146 70.398889 
L 81.715039 70.398889 
L 81.828802 64.64967 
L 82.028758 64.64967 
L 82.140586 70.398889 
L 82.245293 70.398889 
L 82.359744 64.64967 
L 82.577994 64.64967 
L 82.693136 48.551858 
L 83.636279 48.551858 
L 83.74868 60.050295 
L 85.345933 60.050295 
L 85.459247 70.398889 
L 85.522051 70.398889 
L 85.63747 64.64967 
L 86.077475 64.64967 
L 86.190694 93.395762 
L 86.769086 93.395762 
L 86.881312 118.692324 
L 89.264433 118.692324 
L 89.376379 129.040917 
L 90.379334 129.040917 
L 90.491233 141.689198 
L 90.755851 141.689198 
L 90.867802 147.438416 
L 91.746924 147.438416 
L 91.859386 141.689198 
L 92.121935 141.689198 
L 92.234446 147.438416 
L 92.498781 147.438416 
L 92.622031 152.037791 
L 93.824672 152.037791 
L 93.93707 147.438416 
L 94.012804 147.438416 
L 94.126203 163.536228 
L 95.007516 163.536228 
L 95.121274 168.135603 
L 95.320105 168.135603 
L 95.431752 152.037791 
L 95.884421 152.037791 
L 95.99742 147.438416 
L 96.260684 147.438416 
L 96.372777 152.037791 
L 96.883717 152.037791 
L 96.998974 141.689198 
L 97.261653 141.689198 
L 97.385022 126.74123 
L 97.447429 126.74123 
L 97.562158 106.044043 
L 98.200983 106.044043 
L 98.746223 93.395762 
L 99.313231 93.395762 
L 99.424452 85.346857 
L 99.886353 85.346857 
L 99.998062 83.047169 
L 101.316075 83.047169 
L 101.429725 93.395762 
L 102.006361 93.395762 
L 102.121175 70.398889 
L 102.576436 70.398889 
L 102.692826 118.692324 
L 103.895618 118.692324 
L 104.007783 129.040917 
L 104.669327 129.040917 
L 104.781832 196.881695 
L 105.422065 196.881695 
L 105.535076 222.178256 
L 106.184893 222.178256 
L 106.298109 232.52685 
L 106.747422 232.52685 
L 106.861025 245.17513 
L 107.745473 245.17513 
L 107.859839 232.52685 
L 108.139916 232.52685 
L 108.252786 222.178256 
L 110.244117 222.178256 
L 110.361261 209.529976 
L 112.538923 209.529976 
L 112.651091 196.881695 
L 113.500061 196.881695 
L 113.617309 173.884821 
L 113.879501 173.884821 
L 113.992503 152.037791 
L 114.684129 152.037791 
L 114.795764 118.692324 
L 115.496181 118.692324 
L 115.53568 83.047169 
L 116.229475 93.395762 
L 116.487279 93.395762 
L 117.191891 118.692324 
L 117.39136 118.692324 
L 117.502727 129.040917 
L 118.205264 129.040917 
L 118.317674 141.689198 
L 120.314696 141.689198 
L 120.480297 152.037791 
L 121.713332 152.037791 
L 121.829808 141.689198 
L 122.449951 141.689198 
L 122.561922 152.037791 
L 123.069215 152.037791 
L 123.180484 163.536228 
L 124.79323 163.536228 
L 124.916196 141.689198 
L 125.380292 141.689198 
L 125.492557 152.037791 
L 126.354144 152.037791 
L 126.469429 147.438416 
L 126.772245 147.438416 
L 126.860907 152.037791 
L 127.189332 152.037791 
L 127.309477 168.135603 
L 127.523177 168.135603 
L 127.724545 152.037791 
L 128.388925 152.037791 
L 128.498354 168.135603 
L 128.953278 168.135603 
L 129.069891 163.536228 
L 130.333495 163.536228 
L 130.448475 186.533102 
L 131.151275 186.533102 
L 131.265001 152.037791 
L 131.657154 152.037791 
L 131.769418 129.040917 
L 133.084414 129.040917 
L 133.196094 83.047169 
L 135.236332 83.047169 
L 135.358412 93.395762 
L 136.169496 93.395762 
L 136.285968 106.044043 
L 136.644524 106.044043 
L 136.759074 118.692324 
L 137.640911 118.692324 
L 137.754423 141.689198 
L 138.831248 141.689198 
L 138.947356 152.037791 
L 140.953573 152.037791 
L 141.064564 163.536228 
L 143.546968 163.536228 
L 143.659244 168.135603 
L 143.796344 168.135603 
L 143.907712 152.037791 
L 146.215703 152.037791 
L 146.32713 163.536228 
L 147.808927 163.536228 
L 147.925001 168.135603 
L 148.057217 168.135603 
L 148.204914 163.536228 
L 148.842885 163.536228 
L 148.959218 152.037791 
L 149.943118 152.037791 
L 150.05605 141.689198 
L 151.136715 141.689198 
L 151.254737 147.438416 
L 151.623652 147.438416 
L 151.737106 129.040917 
L 151.873699 129.040917 
L 151.985556 126.74123 
L 152.323476 126.74123 
L 152.447137 129.040917 
L 152.57229 129.040917 
L 152.685948 126.74123 
L 153.089047 126.74123 
L 153.204055 129.040917 
L 153.511299 129.040917 
L 153.624378 126.74123 
L 153.763196 126.74123 
L 153.875817 129.040917 
L 154.254325 129.040917 
L 154.329863 126.74123 
L 155.193978 118.692324 
L 155.282572 141.689198 
L 156.136028 141.689198 
L 156.3029 129.040917 
L 156.8882 129.040917 
L 157.001315 141.689198 
L 157.574914 141.689198 
L 157.687759 129.040917 
L 159.955026 129.040917 
L 160.067111 126.74123 
L 160.203209 126.74123 
L 160.316163 129.040917 
L 160.453681 129.040917 
L 160.56573 126.74123 
L 160.889679 126.74123 
L 161.001743 141.689198 
L 162.084719 141.689198 
L 162.19727 147.438416 
L 162.338804 147.438416 
L 162.453095 141.689198 
L 162.779162 141.689198 
L 162.891842 147.438416 
L 163.028999 147.438416 
L 163.14014 163.536228 
L 163.537523 163.536228 
L 163.656556 168.135603 
L 163.974975 168.135603 
L 164.088136 163.536228 
L 164.724534 163.536228 
L 164.836068 168.135603 
L 165.163533 168.135603 
L 165.276931 152.037791 
L 165.61354 152.037791 
L 165.864717 147.438416 
L 166.139435 147.438416 
L 166.253911 141.689198 
L 166.39157 141.689198 
L 166.504869 126.74123 
L 166.640572 126.74123 
L 166.753655 118.692324 
L 167.078327 118.692324 
L 167.192323 106.044043 
L 168.019742 106.044043 
L 168.131455 93.395762 
L 168.268977 93.395762 
L 168.381359 85.346857 
L 169.016341 85.346857 
L 169.129529 93.395762 
L 169.454363 93.395762 
L 169.566501 106.044043 
L 171.575029 106.044043 
L 171.69034 118.692324 
L 172.33115 118.692324 
L 172.442565 141.689198 
L 175.887093 141.689198 
L 176.000437 152.037791 
L 176.224527 152.037791 
L 175.524376 152.037791 
L 175.925099 152.037791 
L 176.036954 141.689198 
L 176.628819 141.689198 
L 176.741371 152.037791 
L 178.011675 152.037791 
L 178.124929 163.536228 
L 179.766994 163.536228 
L 179.879395 168.135603 
L 180.205537 168.135603 
L 180.318527 163.536228 
L 180.458804 163.536228 
L 180.572044 168.135603 
L 180.898657 168.135603 
L 181.022069 163.536228 
L 181.64168 163.536228 
L 181.764858 152.037791 
L 181.88833 152.037791 
L 182.001823 147.438416 
L 183.055241 147.438416 
L 183.168621 93.395762 
L 183.49146 93.395762 
L 183.604313 85.346857 
L 183.991127 85.346857 
L 184.10242 83.047169 
L 184.239576 83.047169 
L 184.35196 64.64967 
L 184.488917 64.64967 
L 184.60146 70.398889 
L 187.591729 70.398889 
L 187.708137 106.044043 
L 189.735938 106.044043 
L 189.872542 129.040917 
L 194.305251 129.040917 
L 194.416404 118.692324 
L 195.239067 118.692324 
L 195.350502 129.040917 
L 198.686208 129.040917 
L 198.796938 141.689198 
L 198.933452 141.689198 
L 199.045754 147.438416 
L 199.429398 147.438416 
L 199.540524 129.040917 
L 200.618681 129.040917 
L 200.730205 126.74123 
L 200.805055 126.74123 
L 200.919743 118.692324 
L 201.16775 118.692324 
L 423.194543 173.884821 
L 423.680836 173.884821 
L 423.792628 168.135603 
L 425.22869 168.135603 
L 426.874815 188.832789 
L 427.38021 188.832789 
L 427.491785 222.178256 
L 428.874552 222.178256 
L 428.985643 232.52685 
L 430.704289 232.52685 
L 430.818056 230.227162 
L 432.009091 230.227162 
L 432.009091 230.227162 
" style="fill:none;stroke:#ff7f0e;stroke-linecap:square;stroke-width:1.5;"/>
   </g>
   <g id="patch_3">
    <path d="M 54.2 255.638708 
L 54.2 25.44 
" style="fill:none;stroke:#000000;stroke-linecap:square;stroke-linejoin:miter;stroke-width:0.8;"/>
   </g>
   <g id="patch_4">
    <path d="M 450 255.638708 
L 450 25.44 
" style="fill:none;stroke:#000000;stroke-linecap:square;stroke-linejoin:miter;stroke-width:0.8;"/>
   </g>
   <g id="patch_5">
    <path d="M 54.2 255.638708 
L 450 255.638708 
" style="fill:none;stroke:#000000;stroke-linecap:square;stroke-linejoin:miter;stroke-width:0.8;"/>
   </g>
   <g id="patch_6">
    <path d="M 54.2 25.44 
L 450 25.44 
" style="fill:none;stroke:#000000;stroke-linecap:square;stroke-linejoin:miter;stroke-width:0.8;"/>
   </g>
   <g id="text_17">
    <!-- Lake Shoecraft - Water and Air Temperature -->
    <g transform="translate(120.481563 19.44)scale(0.12 -0.12)">
     <defs>
      <path d="M 9.8125 72.90625 
L 19.671875 72.90625 
L 19.671875 8.296875 
L 55.171875 8.296875 
L 55.171875 0 
L 9.8125 0 
z
" id="DejaVuSans-76"/>
      <path d="M 9.078125 75.984375 
L 18.109375 75.984375 
L 18.109375 31.109375 
L 44.921875 54.6875 
L 56.390625 54.6875 
L 27.390625 29.109375 
L 57.625 0 
L 45.90625 0 
L 18.109375 26.703125 
L 18.109375 0 
L 9.078125 0 
z
" id="DejaVuSans-107"/>
      <path d="M 53.515625 70.515625 
L 53.515625 60.890625 
Q 47.90625 63.578125 42.921875 64.890625 
Q 37.9375 66.21875 33.296875 66.21875 
Q 25.25 66.21875 20.875 63.09375 
Q 16.5 59.96875 16.5 54.203125 
Q 16.5 49.359375 19.40625 46.890625 
Q 22.3125 44.4375 30.421875 42.921875 
L 36.375 41.703125 
Q 47.40625 39.59375 52.65625 34.296875 
Q 57.90625 29 57.90625 20.125 
Q 57.90625 9.515625 50.796875 4.046875 
Q 43.703125 -1.421875 29.984375 -1.421875 
Q 24.8125 -1.421875 18.96875 -0.25 
Q 13.140625 0.921875 6.890625 3.21875 
L 6.890625 13.375 
Q 12.890625 10.015625 18.65625 8.296875 
Q 24.421875 6.59375 29.984375 6.59375 
Q 38.421875 6.59375 43.015625 9.90625 
Q 47.609375 13.234375 47.609375 19.390625 
Q 47.609375 24.75 44.3125 27.78125 
Q 41.015625 30.8125 33.5 32.328125 
L 27.484375 33.5 
Q 16.453125 35.6875 11.515625 40.375 
Q 6.59375 45.0625 6.59375 53.421875 
Q 6.59375 63.09375 13.40625 68.65625 
Q 20.21875 74.21875 32.171875 74.21875 
Q 37.3125 74.21875 42.625 73.28125 
Q 47.953125 72.359375 53.515625 70.515625 
z
" id="DejaVuSans-83"/>
      <path d="M 54.890625 33.015625 
L 54.890625 0 
L 45.90625 0 
L 45.90625 32.71875 
Q 45.90625 40.484375 42.875 44.328125 
Q 39.84375 48.1875 33.796875 48.1875 
Q 26.515625 48.1875 22.3125 43.546875 
Q 18.109375 38.921875 18.109375 30.90625 
L 18.109375 0 
L 9.078125 0 
L 9.078125 75.984375 
L 18.109375 75.984375 
L 18.109375 46.1875 
Q 21.34375 51.125 25.703125 53.5625 
Q 30.078125 56 35.796875 56 
Q 45.21875 56 50.046875 50.171875 
Q 54.890625 44.34375 54.890625 33.015625 
z
" id="DejaVuSans-104"/>
      <path d="M 30.609375 48.390625 
Q 23.390625 48.390625 19.1875 42.75 
Q 14.984375 37.109375 14.984375 27.296875 
Q 14.984375 17.484375 19.15625 11.84375 
Q 23.34375 6.203125 30.609375 6.203125 
Q 37.796875 6.203125 41.984375 11.859375 
Q 46.1875 17.53125 46.1875 27.296875 
Q 46.1875 37.015625 41.984375 42.703125 
Q 37.796875 48.390625 30.609375 48.390625 
z
M 30.609375 56 
Q 42.328125 56 49.015625 48.375 
Q 55.71875 40.765625 55.71875 27.296875 
Q 55.71875 13.875 49.015625 6.21875 
Q 42.328125 -1.421875 30.609375 -1.421875 
Q 18.84375 -1.421875 12.171875 6.21875 
Q 5.515625 13.875 5.515625 27.296875 
Q 5.515625 40.765625 12.171875 48.375 
Q 18.84375 56 30.609375 56 
z
" id="DejaVuSans-111"/>
      <path d="M 48.78125 52.59375 
L 48.78125 44.1875 
Q 44.96875 46.296875 41.140625 47.34375 
Q 37.3125 48.390625 33.40625 48.390625 
Q 24.65625 48.390625 19.8125 42.84375 
Q 14.984375 37.3125 14.984375 27.296875 
Q 14.984375 17.28125 19.8125 11.734375 
Q 24.65625 6.203125 33.40625 6.203125 
Q 37.3125 6.203125 41.140625 7.25 
Q 44.96875 8.296875 48.78125 10.40625 
L 48.78125 2.09375 
Q 45.015625 0.34375 40.984375 -0.53125 
Q 36.96875 -1.421875 32.421875 -1.421875 
Q 20.0625 -1.421875 12.78125 6.34375 
Q 5.515625 14.109375 5.515625 27.296875 
Q 5.515625 40.671875 12.859375 48.328125 
Q 20.21875 56 33.015625 56 
Q 37.15625 56 41.109375 55.140625 
Q 45.0625 54.296875 48.78125 52.59375 
z
" id="DejaVuSans-99"/>
      <path d="M 37.109375 75.984375 
L 37.109375 68.5 
L 28.515625 68.5 
Q 23.6875 68.5 21.796875 66.546875 
Q 19.921875 64.59375 19.921875 59.515625 
L 19.921875 54.6875 
L 34.71875 54.6875 
L 34.71875 47.703125 
L 19.921875 47.703125 
L 19.921875 0 
L 10.890625 0 
L 10.890625 47.703125 
L 2.296875 47.703125 
L 2.296875 54.6875 
L 10.890625 54.6875 
L 10.890625 58.5 
Q 10.890625 67.625 15.140625 71.796875 
Q 19.390625 75.984375 28.609375 75.984375 
z
" id="DejaVuSans-102"/>
      <path d="M 3.328125 72.90625 
L 13.28125 72.90625 
L 28.609375 11.28125 
L 43.890625 72.90625 
L 54.984375 72.90625 
L 70.3125 11.28125 
L 85.59375 72.90625 
L 95.609375 72.90625 
L 77.296875 0 
L 64.890625 0 
L 49.515625 63.28125 
L 33.984375 0 
L 21.578125 0 
z
" id="DejaVuSans-87"/>
      <path d="M 54.890625 33.015625 
L 54.890625 0 
L 45.90625 0 
L 45.90625 32.71875 
Q 45.90625 40.484375 42.875 44.328125 
Q 39.84375 48.1875 33.796875 48.1875 
Q 26.515625 48.1875 22.3125 43.546875 
Q 18.109375 38.921875 18.109375 30.90625 
L 18.109375 0 
L 9.078125 0 
L 9.078125 54.6875 
L 18.109375 54.6875 
L 18.109375 46.1875 
Q 21.34375 51.125 25.703125 53.5625 
Q 30.078125 56 35.796875 56 
Q 45.21875 56 50.046875 50.171875 
Q 54.890625 44.34375 54.890625 33.015625 
z
" id="DejaVuSans-110"/>
      <path d="M 45.40625 46.390625 
L 45.40625 75.984375 
L 54.390625 75.984375 
L 54.390625 0 
L 45.40625 0 
L 45.40625 8.203125 
Q 42.578125 3.328125 38.25 0.953125 
Q 33.9375 -1.421875 27.875 -1.421875 
Q 17.96875 -1.421875 11.734375 6.484375 
Q 5.515625 14.40625 5.515625 27.296875 
Q 5.515625 40.1875 11.734375 48.09375 
Q 17.96875 56 27.875 56 
Q 33.9375 56 38.25 53.625 
Q 42.578125 51.265625 45.40625 46.390625 
z
M 14.796875 27.296875 
Q 14.796875 17.390625 18.875 11.75 
Q 22.953125 6.109375 30.078125 6.109375 
Q 37.203125 6.109375 41.296875 11.75 
Q 45.40625 17.390625 45.40625 27.296875 
Q 45.40625 37.203125 41.296875 42.84375 
Q 37.203125 48.484375 30.078125 48.484375 
Q 22.953125 48.484375 18.875 42.84375 
Q 14.796875 37.203125 14.796875 27.296875 
z
" id="DejaVuSans-100"/>
      <path d="M 34.1875 63.1875 
L 20.796875 26.90625 
L 47.609375 26.90625 
z
M 28.609375 72.90625 
L 39.796875 72.90625 
L 67.578125 0 
L 57.328125 0 
L 50.6875 18.703125 
L 17.828125 18.703125 
L 11.1875 0 
L 0.78125 0 
z
" id="DejaVuSans-65"/>
      <path d="M 9.421875 54.6875 
L 18.40625 54.6875 
L 18.40625 0 
L 9.421875 0 
z
M 9.421875 75.984375 
L 18.40625 75.984375 
L 18.40625 64.59375 
L 9.421875 64.59375 
z
" id="DejaVuSans-105"/>
     </defs>
     <use xlink:href="#DejaVuSans-76"/>
     <use x="55.712891" xlink:href="#DejaVuSans-97"/>
     <use x="116.992188" xlink:href="#DejaVuSans-107"/>
     <use x="171.277344" xlink:href="#DejaVuSans-101"/>
     <use x="232.800781" xlink:href="#DejaVuSans-32"/>
     <use x="264.587891" xlink:href="#DejaVuSans-83"/>
     <use x="328.064453" xlink:href="#DejaVuSans-104"/>
     <use x="391.443359" xlink:href="#DejaVuSans-111"/>
     <use x="452.625" xlink:href="#DejaVuSans-101"/>
     <use x="514.148438" xlink:href="#DejaVuSans-99"/>
     <use x="569.128906" xlink:href="#DejaVuSans-114"/>
     <use x="610.242188" xlink:href="#DejaVuSans-97"/>
     <use x="671.521484" xlink:href="#DejaVuSans-102"/>
     <use x="704.976562" xlink:href="#DejaVuSans-116"/>
     <use x="744.185547" xlink:href="#DejaVuSans-32"/>
     <use x="775.972656" xlink:href="#DejaVuSans-45"/>
     <use x="812.056641" xlink:href="#DejaVuSans-32"/>
     <use x="843.84375" xlink:href="#DejaVuSans-87"/>
     <use x="936.345703" xlink:href="#DejaVuSans-97"/>
     <use x="997.625" xlink:href="#DejaVuSans-116"/>
     <use x="1036.833984" xlink:href="#DejaVuSans-101"/>
     <use x="1098.357422" xlink:href="#DejaVuSans-114"/>
     <use x="1139.470703" xlink:href="#DejaVuSans-32"/>
     <use x="1171.257812" xlink:href="#DejaVuSans-97"/>
     <use x="1232.537109" xlink:href="#DejaVuSans-110"/>
     <use x="1295.916016" xlink:href="#DejaVuSans-100"/>
     <use x="1359.392578" xlink:href="#DejaVuSans-32"/>
     <use x="1391.179688" xlink:href="#DejaVuSans-65"/>
     <use x="1459.587891" xlink:href="#DejaVuSans-105"/>
     <use x="1487.371094" xlink:href="#DejaVuSans-114"/>
     <use x="1528.484375" xlink:href="#DejaVuSans-32"/>
     <use x="1560.271484" xlink:href="#DejaVuSans-84"/>
     <use x="1604.355469" xlink:href="#DejaVuSans-101"/>
     <use x="1665.878906" xlink:href="#DejaVuSans-109"/>
     <use x="1763.291016" xlink:href="#DejaVuSans-112"/>
     <use x="1826.767578" xlink:href="#DejaVuSans-101"/>
     <use x="1888.291016" xlink:href="#DejaVuSans-114"/>
     <use x="1929.404297" xlink:href="#DejaVuSans-97"/>
     <use x="1990.683594" xlink:href="#DejaVuSans-116"/>
     <use x="2029.892578" xlink:href="#DejaVuSans-117"/>
     <use x="2093.271484" xlink:href="#DejaVuSans-114"/>
     <use x="2132.134766" xlink:href="#DejaVuSans-101"/>
    </g>
   </g>
   <g id="legend_1">
    <g id="patch_7">
     <path d="M 357.890625 62.79625 
L 443 62.79625 
Q 445 62.79625 445 60.79625 
L 445 32.44 
Q 445 30.44 443 30.44 
L 357.890625 30.44 
Q 355.890625 30.44 355.890625 32.44 
L 355.890625 60.79625 
Q 355.890625 62.79625 357.890625 62.79625 
z
" style="fill:#ffffff;opacity:0.8;stroke:#cccccc;stroke-linejoin:miter;"/>
    </g>
    <g id="line2d_31">
     <path d="M 359.890625 38.538437 
L 379.890625 38.538437 
" style="fill:none;stroke:#1f77b4;stroke-linecap:square;stroke-width:1.5;"/>
    </g>
    <g id="line2d_32"/>
    <g id="text_18">
     <!-- Lake Temp -->
     <g transform="translate(387.890625 42.038437)scale(0.1 -0.1)">
      <use xlink:href="#DejaVuSans-76"/>
      <use x="55.712891" xlink:href="#DejaVuSans-97"/>
      <use x="116.992188" xlink:href="#DejaVuSans-107"/>
      <use x="171.277344" xlink:href="#DejaVuSans-101"/>
      <use x="232.800781" xlink:href="#DejaVuSans-32"/>
      <use x="264.587891" xlink:href="#DejaVuSans-84"/>
      <use x="308.671875" xlink:href="#DejaVuSans-101"/>
      <use x="370.195312" xlink:href="#DejaVuSans-109"/>
      <use x="467.607422" xlink:href="#DejaVuSans-112"/>
     </g>
    </g>
    <g id="line2d_33">
     <path d="M 359.890625 53.216562 
L 379.890625 53.216562 
" style="fill:none;stroke:#ff7f0e;stroke-linecap:square;stroke-width:1.5;"/>
    </g>
    <g id="line2d_34"/>
    <g id="text_19">
     <!-- Air Temp -->
     <g transform="translate(387.890625 56.716562)scale(0.1 -0.1)">
      <use xlink:href="#DejaVuSans-65"/>
      <use x="68.408203" xlink:href="#DejaVuSans-105"/>
      <use x="96.191406" xlink:href="#DejaVuSans-114"/>
      <use x="137.304688" xlink:href="#DejaVuSans-32"/>
      <use x="169.091797" xlink:href="#DejaVuSans-84"/>
      <use x="213.175781" xlink:href="#DejaVuSans-101"/>
      <use x="274.699219" xlink:href="#DejaVuSans-109"/>
      <use x="372.111328" xlink:href="#DejaVuSans-112"/>
     </g>
    </g>
   </g>
  </g>
 </g>
 <defs>
  <clipPath id="p85586ebe13">
   <rect height="230.198708" width="395.8" x="54.2" y="25.44"/>
  </clipPath>
 </defs>
</svg>
