<?xml version="1.0" encoding="utf-8" standalone="no"?>
<!DOCTYPE svg PUBLIC "-//W3C//DTD SVG 1.1//EN"
  "http://www.w3.org/Graphics/SVG/1.1/DTD/svg11.dtd">
<!-- Created with matplotlib (https://matplotlib.org/) -->
<svg height="345.6pt" version="1.1" viewBox="0 0 460.8 345.6" width="460.8pt" xmlns="http://www.w3.org/2000/svg" xmlns:xlink="http://www.w3.org/1999/xlink">
 <metadata>
  <rdf:RDF xmlns:cc="http://creativecommons.org/ns#" xmlns:dc="http://purl.org/dc/elements/1.1/" xmlns:rdf="http://www.w3.org/1999/02/22-rdf-syntax-ns#">
   <cc:Work>
    <dc:type rdf:resource="http://purl.org/dc/dcmitype/StillImage"/>
    <dc:date>2024-09-04T17:56:44.922424</dc:date>
    <dc:format>image/svg+xml</dc:format>
    <dc:creator>
     <cc:Agent>
      <dc:title>Matplotlib v3.3.2, https://matplotlib.org/</dc:title>
     </cc:Agent>
    </dc:creator>
   </cc:Work>
  </rdf:RDF>
 </metadata>
 <defs>
  <style type="text/css">*{stroke-linecap:butt;stroke-linejoin:round;}</style>
 </defs>
 <g id="figure_1">
  <g id="patch_1">
   <path d="M 0 345.6 
L 460.8 345.6 
L 460.8 0 
L 0 0 
z
" style="fill:none;"/>
  </g>
  <g id="axes_1">
   <g id="patch_2">
    <path d="M 44.66 255.638708 
L 441.516951 255.638708 
L 441.516951 25.44 
L 44.66 25.44 
z
" style="fill:none;"/>
   </g>
   <g id="matplotlib.axis_1">
    <g id="xtick_1">
     <g id="line2d_1">
      <path clip-path="url(#pc155bcd44e)" d="M 81.380272 255.638708 
L 81.380272 25.44 
" style="fill:none;stroke:#b0b0b0;stroke-linecap:square;stroke-width:0.8;"/>
     </g>
     <g id="line2d_2">
      <defs>
       <path d="M 0 0 
L 0 3.5 
" id="mde92794b32" style="stroke:#000000;stroke-width:0.8;"/>
      </defs>
      <g>
       <use style="stroke:#000000;stroke-width:0.8;" x="81.380272" xlink:href="#mde92794b32" y="255.638708"/>
      </g>
     </g>
     <g id="text_1">
      <!-- 2024-08-28 -->
      <g transform="translate(74.034879 319.848351)rotate(-70)scale(0.1 -0.1)">
       <defs>
        <path d="M 19.1875 8.296875 
L 53.609375 8.296875 
L 53.609375 0 
L 7.328125 0 
L 7.328125 8.296875 
Q 12.9375 14.109375 22.625 23.890625 
Q 32.328125 33.6875 34.8125 36.53125 
Q 39.546875 41.84375 41.421875 45.53125 
Q 43.3125 49.21875 43.3125 52.78125 
Q 43.3125 58.59375 39.234375 62.25 
Q 35.15625 65.921875 28.609375 65.921875 
Q 23.96875 65.921875 18.8125 64.3125 
Q 13.671875 62.703125 7.8125 59.421875 
L 7.8125 69.390625 
Q 13.765625 71.78125 18.9375 73 
Q 24.125 74.21875 28.421875 74.21875 
Q 39.75 74.21875 46.484375 68.546875 
Q 53.21875 62.890625 53.21875 53.421875 
Q 53.21875 48.921875 51.53125 44.890625 
Q 49.859375 40.875 45.40625 35.40625 
Q 44.1875 33.984375 37.640625 27.21875 
Q 31.109375 20.453125 19.1875 8.296875 
z
" id="DejaVuSans-50"/>
        <path d="M 31.78125 66.40625 
Q 24.171875 66.40625 20.328125 58.90625 
Q 16.5 51.421875 16.5 36.375 
Q 16.5 21.390625 20.328125 13.890625 
Q 24.171875 6.390625 31.78125 6.390625 
Q 39.453125 6.390625 43.28125 13.890625 
Q 47.125 21.390625 47.125 36.375 
Q 47.125 51.421875 43.28125 58.90625 
Q 39.453125 66.40625 31.78125 66.40625 
z
M 31.78125 74.21875 
Q 44.046875 74.21875 50.515625 64.515625 
Q 56.984375 54.828125 56.984375 36.375 
Q 56.984375 17.96875 50.515625 8.265625 
Q 44.046875 -1.421875 31.78125 -1.421875 
Q 19.53125 -1.421875 13.0625 8.265625 
Q 6.59375 17.96875 6.59375 36.375 
Q 6.59375 54.828125 13.0625 64.515625 
Q 19.53125 74.21875 31.78125 74.21875 
z
" id="DejaVuSans-48"/>
        <path d="M 37.796875 64.3125 
L 12.890625 25.390625 
L 37.796875 25.390625 
z
M 35.203125 72.90625 
L 47.609375 72.90625 
L 47.609375 25.390625 
L 58.015625 25.390625 
L 58.015625 17.1875 
L 47.609375 17.1875 
L 47.609375 0 
L 37.796875 0 
L 37.796875 17.1875 
L 4.890625 17.1875 
L 4.890625 26.703125 
z
" id="DejaVuSans-52"/>
        <path d="M 4.890625 31.390625 
L 31.203125 31.390625 
L 31.203125 23.390625 
L 4.890625 23.390625 
z
" id="DejaVuSans-45"/>
        <path d="M 31.78125 34.625 
Q 24.75 34.625 20.71875 30.859375 
Q 16.703125 27.09375 16.703125 20.515625 
Q 16.703125 13.921875 20.71875 10.15625 
Q 24.75 6.390625 31.78125 6.390625 
Q 38.8125 6.390625 42.859375 10.171875 
Q 46.921875 13.96875 46.921875 20.515625 
Q 46.921875 27.09375 42.890625 30.859375 
Q 38.875 34.625 31.78125 34.625 
z
M 21.921875 38.8125 
Q 15.578125 40.375 12.03125 44.71875 
Q 8.5 49.078125 8.5 55.328125 
Q 8.5 64.0625 14.71875 69.140625 
Q 20.953125 74.21875 31.78125 74.21875 
Q 42.671875 74.21875 48.875 69.140625 
Q 55.078125 64.0625 55.078125 55.328125 
Q 55.078125 49.078125 51.53125 44.71875 
Q 48 40.375 41.703125 38.8125 
Q 48.828125 37.15625 52.796875 32.3125 
Q 56.78125 27.484375 56.78125 20.515625 
Q 56.78125 9.90625 50.3125 4.234375 
Q 43.84375 -1.421875 31.78125 -1.421875 
Q 19.734375 -1.421875 13.25 4.234375 
Q 6.78125 9.90625 6.78125 20.515625 
Q 6.78125 27.484375 10.78125 32.3125 
Q 14.796875 37.15625 21.921875 38.8125 
z
M 18.3125 54.390625 
Q 18.3125 48.734375 21.84375 45.5625 
Q 25.390625 42.390625 31.78125 42.390625 
Q 38.140625 42.390625 41.71875 45.5625 
Q 45.3125 48.734375 45.3125 54.390625 
Q 45.3125 60.0625 41.71875 63.234375 
Q 38.140625 66.40625 31.78125 66.40625 
Q 25.390625 66.40625 21.84375 63.234375 
Q 18.3125 60.0625 18.3125 54.390625 
z
" id="DejaVuSans-56"/>
       </defs>
       <use xlink:href="#DejaVuSans-50"/>
       <use x="63.623047" xlink:href="#DejaVuSans-48"/>
       <use x="127.246094" xlink:href="#DejaVuSans-50"/>
       <use x="190.869141" xlink:href="#DejaVuSans-52"/>
       <use x="254.492188" xlink:href="#DejaVuSans-45"/>
       <use x="290.576172" xlink:href="#DejaVuSans-48"/>
       <use x="354.199219" xlink:href="#DejaVuSans-56"/>
       <use x="417.822266" xlink:href="#DejaVuSans-45"/>
       <use x="453.90625" xlink:href="#DejaVuSans-50"/>
       <use x="517.529297" xlink:href="#DejaVuSans-56"/>
      </g>
     </g>
    </g>
    <g id="xtick_2">
     <g id="line2d_3">
      <path clip-path="url(#pc155bcd44e)" d="M 125.536743 255.638708 
L 125.536743 25.44 
" style="fill:none;stroke:#b0b0b0;stroke-linecap:square;stroke-width:0.8;"/>
     </g>
     <g id="line2d_4">
      <g>
       <use style="stroke:#000000;stroke-width:0.8;" x="125.536743" xlink:href="#mde92794b32" y="255.638708"/>
      </g>
     </g>
     <g id="text_2">
      <!-- 2024-08-29 -->
      <g transform="translate(118.19135 319.848351)rotate(-70)scale(0.1 -0.1)">
       <defs>
        <path d="M 10.984375 1.515625 
L 10.984375 10.5 
Q 14.703125 8.734375 18.5 7.8125 
Q 22.3125 6.890625 25.984375 6.890625 
Q 35.75 6.890625 40.890625 13.453125 
Q 46.046875 20.015625 46.78125 33.40625 
Q 43.953125 29.203125 39.59375 26.953125 
Q 35.25 24.703125 29.984375 24.703125 
Q 19.046875 24.703125 12.671875 31.3125 
Q 6.296875 37.9375 6.296875 49.421875 
Q 6.296875 60.640625 12.9375 67.421875 
Q 19.578125 74.21875 30.609375 74.21875 
Q 43.265625 74.21875 49.921875 64.515625 
Q 56.59375 54.828125 56.59375 36.375 
Q 56.59375 19.140625 48.40625 8.859375 
Q 40.234375 -1.421875 26.421875 -1.421875 
Q 22.703125 -1.421875 18.890625 -0.6875 
Q 15.09375 0.046875 10.984375 1.515625 
z
M 30.609375 32.421875 
Q 37.25 32.421875 41.125 36.953125 
Q 45.015625 41.5 45.015625 49.421875 
Q 45.015625 57.28125 41.125 61.84375 
Q 37.25 66.40625 30.609375 66.40625 
Q 23.96875 66.40625 20.09375 61.84375 
Q 16.21875 57.28125 16.21875 49.421875 
Q 16.21875 41.5 20.09375 36.953125 
Q 23.96875 32.421875 30.609375 32.421875 
z
" id="DejaVuSans-57"/>
       </defs>
       <use xlink:href="#DejaVuSans-50"/>
       <use x="63.623047" xlink:href="#DejaVuSans-48"/>
       <use x="127.246094" xlink:href="#DejaVuSans-50"/>
       <use x="190.869141" xlink:href="#DejaVuSans-52"/>
       <use x="254.492188" xlink:href="#DejaVuSans-45"/>
       <use x="290.576172" xlink:href="#DejaVuSans-48"/>
       <use x="354.199219" xlink:href="#DejaVuSans-56"/>
       <use x="417.822266" xlink:href="#DejaVuSans-45"/>
       <use x="453.90625" xlink:href="#DejaVuSans-50"/>
       <use x="517.529297" xlink:href="#DejaVuSans-57"/>
      </g>
     </g>
    </g>
    <g id="xtick_3">
     <g id="line2d_5">
      <path clip-path="url(#pc155bcd44e)" d="M 169.693215 255.638708 
L 169.693215 25.44 
" style="fill:none;stroke:#b0b0b0;stroke-linecap:square;stroke-width:0.8;"/>
     </g>
     <g id="line2d_6">
      <g>
       <use style="stroke:#000000;stroke-width:0.8;" x="169.693215" xlink:href="#mde92794b32" y="255.638708"/>
      </g>
     </g>
     <g id="text_3">
      <!-- 2024-08-30 -->
      <g transform="translate(162.347822 319.848351)rotate(-70)scale(0.1 -0.1)">
       <defs>
        <path d="M 40.578125 39.3125 
Q 47.65625 37.796875 51.625 33 
Q 55.609375 28.21875 55.609375 21.1875 
Q 55.609375 10.40625 48.1875 4.484375 
Q 40.765625 -1.421875 27.09375 -1.421875 
Q 22.515625 -1.421875 17.65625 -0.515625 
Q 12.796875 0.390625 7.625 2.203125 
L 7.625 11.71875 
Q 11.71875 9.328125 16.59375 8.109375 
Q 21.484375 6.890625 26.8125 6.890625 
Q 36.078125 6.890625 40.9375 10.546875 
Q 45.796875 14.203125 45.796875 21.1875 
Q 45.796875 27.640625 41.28125 31.265625 
Q 36.765625 34.90625 28.71875 34.90625 
L 20.21875 34.90625 
L 20.21875 43.015625 
L 29.109375 43.015625 
Q 36.375 43.015625 40.234375 45.921875 
Q 44.09375 48.828125 44.09375 54.296875 
Q 44.09375 59.90625 40.109375 62.90625 
Q 36.140625 65.921875 28.71875 65.921875 
Q 24.65625 65.921875 20.015625 65.03125 
Q 15.375 64.15625 9.8125 62.3125 
L 9.8125 71.09375 
Q 15.4375 72.65625 20.34375 73.4375 
Q 25.25 74.21875 29.59375 74.21875 
Q 40.828125 74.21875 47.359375 69.109375 
Q 53.90625 64.015625 53.90625 55.328125 
Q 53.90625 49.265625 50.4375 45.09375 
Q 46.96875 40.921875 40.578125 39.3125 
z
" id="DejaVuSans-51"/>
       </defs>
       <use xlink:href="#DejaVuSans-50"/>
       <use x="63.623047" xlink:href="#DejaVuSans-48"/>
       <use x="127.246094" xlink:href="#DejaVuSans-50"/>
       <use x="190.869141" xlink:href="#DejaVuSans-52"/>
       <use x="254.492188" xlink:href="#DejaVuSans-45"/>
       <use x="290.576172" xlink:href="#DejaVuSans-48"/>
       <use x="354.199219" xlink:href="#DejaVuSans-56"/>
       <use x="417.822266" xlink:href="#DejaVuSans-45"/>
       <use x="453.90625" xlink:href="#DejaVuSans-51"/>
       <use x="517.529297" xlink:href="#DejaVuSans-48"/>
      </g>
     </g>
    </g>
    <g id="xtick_4">
     <g id="line2d_7">
      <path clip-path="url(#pc155bcd44e)" d="M 213.849686 255.638708 
L 213.849686 25.44 
" style="fill:none;stroke:#b0b0b0;stroke-linecap:square;stroke-width:0.8;"/>
     </g>
     <g id="line2d_8">
      <g>
       <use style="stroke:#000000;stroke-width:0.8;" x="213.849686" xlink:href="#mde92794b32" y="255.638708"/>
      </g>
     </g>
     <g id="text_4">
      <!-- 2024-08-31 -->
      <g transform="translate(206.504293 319.848351)rotate(-70)scale(0.1 -0.1)">
       <defs>
        <path d="M 12.40625 8.296875 
L 28.515625 8.296875 
L 28.515625 63.921875 
L 10.984375 60.40625 
L 10.984375 69.390625 
L 28.421875 72.90625 
L 38.28125 72.90625 
L 38.28125 8.296875 
L 54.390625 8.296875 
L 54.390625 0 
L 12.40625 0 
z
" id="DejaVuSans-49"/>
       </defs>
       <use xlink:href="#DejaVuSans-50"/>
       <use x="63.623047" xlink:href="#DejaVuSans-48"/>
       <use x="127.246094" xlink:href="#DejaVuSans-50"/>
       <use x="190.869141" xlink:href="#DejaVuSans-52"/>
       <use x="254.492188" xlink:href="#DejaVuSans-45"/>
       <use x="290.576172" xlink:href="#DejaVuSans-48"/>
       <use x="354.199219" xlink:href="#DejaVuSans-56"/>
       <use x="417.822266" xlink:href="#DejaVuSans-45"/>
       <use x="453.90625" xlink:href="#DejaVuSans-51"/>
       <use x="517.529297" xlink:href="#DejaVuSans-49"/>
      </g>
     </g>
    </g>
    <g id="xtick_5">
     <g id="line2d_9">
      <path clip-path="url(#pc155bcd44e)" d="M 258.006158 255.638708 
L 258.006158 25.44 
" style="fill:none;stroke:#b0b0b0;stroke-linecap:square;stroke-width:0.8;"/>
     </g>
     <g id="line2d_10">
      <g>
       <use style="stroke:#000000;stroke-width:0.8;" x="258.006158" xlink:href="#mde92794b32" y="255.638708"/>
      </g>
     </g>
     <g id="text_5">
      <!-- 2024-09-01 -->
      <g transform="translate(250.660765 319.848351)rotate(-70)scale(0.1 -0.1)">
       <use xlink:href="#DejaVuSans-50"/>
       <use x="63.623047" xlink:href="#DejaVuSans-48"/>
       <use x="127.246094" xlink:href="#DejaVuSans-50"/>
       <use x="190.869141" xlink:href="#DejaVuSans-52"/>
       <use x="254.492188" xlink:href="#DejaVuSans-45"/>
       <use x="290.576172" xlink:href="#DejaVuSans-48"/>
       <use x="354.199219" xlink:href="#DejaVuSans-57"/>
       <use x="417.822266" xlink:href="#DejaVuSans-45"/>
       <use x="453.90625" xlink:href="#DejaVuSans-48"/>
       <use x="517.529297" xlink:href="#DejaVuSans-49"/>
      </g>
     </g>
    </g>
    <g id="xtick_6">
     <g id="line2d_11">
      <path clip-path="url(#pc155bcd44e)" d="M 302.162629 255.638708 
L 302.162629 25.44 
" style="fill:none;stroke:#b0b0b0;stroke-linecap:square;stroke-width:0.8;"/>
     </g>
     <g id="line2d_12">
      <g>
       <use style="stroke:#000000;stroke-width:0.8;" x="302.162629" xlink:href="#mde92794b32" y="255.638708"/>
      </g>
     </g>
     <g id="text_6">
      <!-- 2024-09-02 -->
      <g transform="translate(294.817236 319.848351)rotate(-70)scale(0.1 -0.1)">
       <use xlink:href="#DejaVuSans-50"/>
       <use x="63.623047" xlink:href="#DejaVuSans-48"/>
       <use x="127.246094" xlink:href="#DejaVuSans-50"/>
       <use x="190.869141" xlink:href="#DejaVuSans-52"/>
       <use x="254.492188" xlink:href="#DejaVuSans-45"/>
       <use x="290.576172" xlink:href="#DejaVuSans-48"/>
       <use x="354.199219" xlink:href="#DejaVuSans-57"/>
       <use x="417.822266" xlink:href="#DejaVuSans-45"/>
       <use x="453.90625" xlink:href="#DejaVuSans-48"/>
       <use x="517.529297" xlink:href="#DejaVuSans-50"/>
      </g>
     </g>
    </g>
    <g id="xtick_7">
     <g id="line2d_13">
      <path clip-path="url(#pc155bcd44e)" d="M 346.319101 255.638708 
L 346.319101 25.44 
" style="fill:none;stroke:#b0b0b0;stroke-linecap:square;stroke-width:0.8;"/>
     </g>
     <g id="line2d_14">
      <g>
       <use style="stroke:#000000;stroke-width:0.8;" x="346.319101" xlink:href="#mde92794b32" y="255.638708"/>
      </g>
     </g>
     <g id="text_7">
      <!-- 2024-09-03 -->
      <g transform="translate(338.973708 319.848351)rotate(-70)scale(0.1 -0.1)">
       <use xlink:href="#DejaVuSans-50"/>
       <use x="63.623047" xlink:href="#DejaVuSans-48"/>
       <use x="127.246094" xlink:href="#DejaVuSans-50"/>
       <use x="190.869141" xlink:href="#DejaVuSans-52"/>
       <use x="254.492188" xlink:href="#DejaVuSans-45"/>
       <use x="290.576172" xlink:href="#DejaVuSans-48"/>
       <use x="354.199219" xlink:href="#DejaVuSans-57"/>
       <use x="417.822266" xlink:href="#DejaVuSans-45"/>
       <use x="453.90625" xlink:href="#DejaVuSans-48"/>
       <use x="517.529297" xlink:href="#DejaVuSans-51"/>
      </g>
     </g>
    </g>
    <g id="xtick_8">
     <g id="line2d_15">
      <path clip-path="url(#pc155bcd44e)" d="M 390.475572 255.638708 
L 390.475572 25.44 
" style="fill:none;stroke:#b0b0b0;stroke-linecap:square;stroke-width:0.8;"/>
     </g>
     <g id="line2d_16">
      <g>
       <use style="stroke:#000000;stroke-width:0.8;" x="390.475572" xlink:href="#mde92794b32" y="255.638708"/>
      </g>
     </g>
     <g id="text_8">
      <!-- 2024-09-04 -->
      <g transform="translate(383.130179 319.848351)rotate(-70)scale(0.1 -0.1)">
       <use xlink:href="#DejaVuSans-50"/>
       <use x="63.623047" xlink:href="#DejaVuSans-48"/>
       <use x="127.246094" xlink:href="#DejaVuSans-50"/>
       <use x="190.869141" xlink:href="#DejaVuSans-52"/>
       <use x="254.492188" xlink:href="#DejaVuSans-45"/>
       <use x="290.576172" xlink:href="#DejaVuSans-48"/>
       <use x="354.199219" xlink:href="#DejaVuSans-57"/>
       <use x="417.822266" xlink:href="#DejaVuSans-45"/>
       <use x="453.90625" xlink:href="#DejaVuSans-48"/>
       <use x="517.529297" xlink:href="#DejaVuSans-52"/>
      </g>
     </g>
    </g>
    <g id="xtick_9">
     <g id="line2d_17">
      <path clip-path="url(#pc155bcd44e)" d="M 434.632044 255.638708 
L 434.632044 25.44 
" style="fill:none;stroke:#b0b0b0;stroke-linecap:square;stroke-width:0.8;"/>
     </g>
     <g id="line2d_18">
      <g>
       <use style="stroke:#000000;stroke-width:0.8;" x="434.632044" xlink:href="#mde92794b32" y="255.638708"/>
      </g>
     </g>
     <g id="text_9">
      <!-- 2024-09-05 -->
      <g transform="translate(427.286651 319.848351)rotate(-70)scale(0.1 -0.1)">
       <defs>
        <path d="M 10.796875 72.90625 
L 49.515625 72.90625 
L 49.515625 64.59375 
L 19.828125 64.59375 
L 19.828125 46.734375 
Q 21.96875 47.46875 24.109375 47.828125 
Q 26.265625 48.1875 28.421875 48.1875 
Q 40.625 48.1875 47.75 41.5 
Q 54.890625 34.8125 54.890625 23.390625 
Q 54.890625 11.625 47.5625 5.09375 
Q 40.234375 -1.421875 26.90625 -1.421875 
Q 22.3125 -1.421875 17.546875 -0.640625 
Q 12.796875 0.140625 7.71875 1.703125 
L 7.71875 11.625 
Q 12.109375 9.234375 16.796875 8.0625 
Q 21.484375 6.890625 26.703125 6.890625 
Q 35.15625 6.890625 40.078125 11.328125 
Q 45.015625 15.765625 45.015625 23.390625 
Q 45.015625 31 40.078125 35.4375 
Q 35.15625 39.890625 26.703125 39.890625 
Q 22.75 39.890625 18.8125 39.015625 
Q 14.890625 38.140625 10.796875 36.28125 
z
" id="DejaVuSans-53"/>
       </defs>
       <use xlink:href="#DejaVuSans-50"/>
       <use x="63.623047" xlink:href="#DejaVuSans-48"/>
       <use x="127.246094" xlink:href="#DejaVuSans-50"/>
       <use x="190.869141" xlink:href="#DejaVuSans-52"/>
       <use x="254.492188" xlink:href="#DejaVuSans-45"/>
       <use x="290.576172" xlink:href="#DejaVuSans-48"/>
       <use x="354.199219" xlink:href="#DejaVuSans-57"/>
       <use x="417.822266" xlink:href="#DejaVuSans-45"/>
       <use x="453.90625" xlink:href="#DejaVuSans-48"/>
       <use x="517.529297" xlink:href="#DejaVuSans-53"/>
      </g>
     </g>
    </g>
    <g id="text_10">
     <!-- Date -->
     <g transform="translate(231.137694 332.158083)scale(0.1 -0.1)">
      <defs>
       <path d="M 19.671875 64.796875 
L 19.671875 8.109375 
L 31.59375 8.109375 
Q 46.6875 8.109375 53.6875 14.9375 
Q 60.6875 21.78125 60.6875 36.53125 
Q 60.6875 51.171875 53.6875 57.984375 
Q 46.6875 64.796875 31.59375 64.796875 
z
M 9.8125 72.90625 
L 30.078125 72.90625 
Q 51.265625 72.90625 61.171875 64.09375 
Q 71.09375 55.28125 71.09375 36.53125 
Q 71.09375 17.671875 61.125 8.828125 
Q 51.171875 0 30.078125 0 
L 9.8125 0 
z
" id="DejaVuSans-68"/>
       <path d="M 34.28125 27.484375 
Q 23.390625 27.484375 19.1875 25 
Q 14.984375 22.515625 14.984375 16.5 
Q 14.984375 11.71875 18.140625 8.90625 
Q 21.296875 6.109375 26.703125 6.109375 
Q 34.1875 6.109375 38.703125 11.40625 
Q 43.21875 16.703125 43.21875 25.484375 
L 43.21875 27.484375 
z
M 52.203125 31.203125 
L 52.203125 0 
L 43.21875 0 
L 43.21875 8.296875 
Q 40.140625 3.328125 35.546875 0.953125 
Q 30.953125 -1.421875 24.3125 -1.421875 
Q 15.921875 -1.421875 10.953125 3.296875 
Q 6 8.015625 6 15.921875 
Q 6 25.140625 12.171875 29.828125 
Q 18.359375 34.515625 30.609375 34.515625 
L 43.21875 34.515625 
L 43.21875 35.40625 
Q 43.21875 41.609375 39.140625 45 
Q 35.0625 48.390625 27.6875 48.390625 
Q 23 48.390625 18.546875 47.265625 
Q 14.109375 46.140625 10.015625 43.890625 
L 10.015625 52.203125 
Q 14.9375 54.109375 19.578125 55.046875 
Q 24.21875 56 28.609375 56 
Q 40.484375 56 46.34375 49.84375 
Q 52.203125 43.703125 52.203125 31.203125 
z
" id="DejaVuSans-97"/>
       <path d="M 18.3125 70.21875 
L 18.3125 54.6875 
L 36.8125 54.6875 
L 36.8125 47.703125 
L 18.3125 47.703125 
L 18.3125 18.015625 
Q 18.3125 11.328125 20.140625 9.421875 
Q 21.96875 7.515625 27.59375 7.515625 
L 36.8125 7.515625 
L 36.8125 0 
L 27.59375 0 
Q 17.1875 0 13.234375 3.875 
Q 9.28125 7.765625 9.28125 18.015625 
L 9.28125 47.703125 
L 2.6875 47.703125 
L 2.6875 54.6875 
L 9.28125 54.6875 
L 9.28125 70.21875 
z
" id="DejaVuSans-116"/>
       <path d="M 56.203125 29.59375 
L 56.203125 25.203125 
L 14.890625 25.203125 
Q 15.484375 15.921875 20.484375 11.0625 
Q 25.484375 6.203125 34.421875 6.203125 
Q 39.59375 6.203125 44.453125 7.46875 
Q 49.3125 8.734375 54.109375 11.28125 
L 54.109375 2.78125 
Q 49.265625 0.734375 44.1875 -0.34375 
Q 39.109375 -1.421875 33.890625 -1.421875 
Q 20.796875 -1.421875 13.15625 6.1875 
Q 5.515625 13.8125 5.515625 26.8125 
Q 5.515625 40.234375 12.765625 48.109375 
Q 20.015625 56 32.328125 56 
Q 43.359375 56 49.78125 48.890625 
Q 56.203125 41.796875 56.203125 29.59375 
z
M 47.21875 32.234375 
Q 47.125 39.59375 43.09375 43.984375 
Q 39.0625 48.390625 32.421875 48.390625 
Q 24.90625 48.390625 20.390625 44.140625 
Q 15.875 39.890625 15.1875 32.171875 
z
" id="DejaVuSans-101"/>
      </defs>
      <use xlink:href="#DejaVuSans-68"/>
      <use x="77.001953" xlink:href="#DejaVuSans-97"/>
      <use x="138.28125" xlink:href="#DejaVuSans-116"/>
      <use x="177.490234" xlink:href="#DejaVuSans-101"/>
     </g>
    </g>
   </g>
   <g id="matplotlib.axis_2">
    <g id="ytick_1">
     <g id="line2d_19">
      <path clip-path="url(#pc155bcd44e)" d="M 44.66 233.216756 
L 441.516951 233.216756 
" style="fill:none;stroke:#b0b0b0;stroke-linecap:square;stroke-width:0.8;"/>
     </g>
     <g id="line2d_20">
      <defs>
       <path d="M 0 0 
L -3.5 0 
" id="maa6891b2bd" style="stroke:#000000;stroke-width:0.8;"/>
      </defs>
      <g>
       <use style="stroke:#000000;stroke-width:0.8;" x="44.66" xlink:href="#maa6891b2bd" y="233.216756"/>
      </g>
     </g>
     <g id="text_11">
      <!-- 55 -->
      <g transform="translate(24.935 237.015975)scale(0.1 -0.1)">
       <use xlink:href="#DejaVuSans-53"/>
       <use x="63.623047" xlink:href="#DejaVuSans-53"/>
      </g>
     </g>
    </g>
    <g id="ytick_2">
     <g id="line2d_21">
      <path clip-path="url(#pc155bcd44e)" d="M 44.66 190.508276 
L 441.516951 190.508276 
" style="fill:none;stroke:#b0b0b0;stroke-linecap:square;stroke-width:0.8;"/>
     </g>
     <g id="line2d_22">
      <g>
       <use style="stroke:#000000;stroke-width:0.8;" x="44.66" xlink:href="#maa6891b2bd" y="190.508276"/>
      </g>
     </g>
     <g id="text_12">
      <!-- 60 -->
      <g transform="translate(24.935 194.307495)scale(0.1 -0.1)">
       <defs>
        <path d="M 33.015625 40.375 
Q 26.375 40.375 22.484375 35.828125 
Q 18.609375 31.296875 18.609375 23.390625 
Q 18.609375 15.53125 22.484375 10.953125 
Q 26.375 6.390625 33.015625 6.390625 
Q 39.65625 6.390625 43.53125 10.953125 
Q 47.40625 15.53125 47.40625 23.390625 
Q 47.40625 31.296875 43.53125 35.828125 
Q 39.65625 40.375 33.015625 40.375 
z
M 52.59375 71.296875 
L 52.59375 62.3125 
Q 48.875 64.0625 45.09375 64.984375 
Q 41.3125 65.921875 37.59375 65.921875 
Q 27.828125 65.921875 22.671875 59.328125 
Q 17.53125 52.734375 16.796875 39.40625 
Q 19.671875 43.65625 24.015625 45.921875 
Q 28.375 48.1875 33.59375 48.1875 
Q 44.578125 48.1875 50.953125 41.515625 
Q 57.328125 34.859375 57.328125 23.390625 
Q 57.328125 12.15625 50.6875 5.359375 
Q 44.046875 -1.421875 33.015625 -1.421875 
Q 20.359375 -1.421875 13.671875 8.265625 
Q 6.984375 17.96875 6.984375 36.375 
Q 6.984375 53.65625 15.1875 63.9375 
Q 23.390625 74.21875 37.203125 74.21875 
Q 40.921875 74.21875 44.703125 73.484375 
Q 48.484375 72.75 52.59375 71.296875 
z
" id="DejaVuSans-54"/>
       </defs>
       <use xlink:href="#DejaVuSans-54"/>
       <use x="63.623047" xlink:href="#DejaVuSans-48"/>
      </g>
     </g>
    </g>
    <g id="ytick_3">
     <g id="line2d_23">
      <path clip-path="url(#pc155bcd44e)" d="M 44.66 147.799796 
L 441.516951 147.799796 
" style="fill:none;stroke:#b0b0b0;stroke-linecap:square;stroke-width:0.8;"/>
     </g>
     <g id="line2d_24">
      <g>
       <use style="stroke:#000000;stroke-width:0.8;" x="44.66" xlink:href="#maa6891b2bd" y="147.799796"/>
      </g>
     </g>
     <g id="text_13">
      <!-- 65 -->
      <g transform="translate(24.935 151.599014)scale(0.1 -0.1)">
       <use xlink:href="#DejaVuSans-54"/>
       <use x="63.623047" xlink:href="#DejaVuSans-53"/>
      </g>
     </g>
    </g>
    <g id="ytick_4">
     <g id="line2d_25">
      <path clip-path="url(#pc155bcd44e)" d="M 44.66 105.091315 
L 441.516951 105.091315 
" style="fill:none;stroke:#b0b0b0;stroke-linecap:square;stroke-width:0.8;"/>
     </g>
     <g id="line2d_26">
      <g>
       <use style="stroke:#000000;stroke-width:0.8;" x="44.66" xlink:href="#maa6891b2bd" y="105.091315"/>
      </g>
     </g>
     <g id="text_14">
      <!-- 70 -->
      <g transform="translate(24.935 108.890534)scale(0.1 -0.1)">
       <defs>
        <path d="M 8.203125 72.90625 
L 55.078125 72.90625 
L 55.078125 68.703125 
L 28.609375 0 
L 18.3125 0 
L 43.21875 64.59375 
L 8.203125 64.59375 
z
" id="DejaVuSans-55"/>
       </defs>
       <use xlink:href="#DejaVuSans-55"/>
       <use x="63.623047" xlink:href="#DejaVuSans-48"/>
      </g>
     </g>
    </g>
    <g id="ytick_5">
     <g id="line2d_27">
      <path clip-path="url(#pc155bcd44e)" d="M 44.66 62.382835 
L 441.516951 62.382835 
" style="fill:none;stroke:#b0b0b0;stroke-linecap:square;stroke-width:0.8;"/>
     </g>
     <g id="line2d_28">
      <g>
       <use style="stroke:#000000;stroke-width:0.8;" x="44.66" xlink:href="#maa6891b2bd" y="62.382835"/>
      </g>
     </g>
     <g id="text_15">
      <!-- 75 -->
      <g transform="translate(24.935 66.182054)scale(0.1 -0.1)">
       <use xlink:href="#DejaVuSans-55"/>
       <use x="63.623047" xlink:href="#DejaVuSans-53"/>
      </g>
     </g>
    </g>
    <g id="text_16">
     <!-- Temperature [F] -->
     <g transform="translate(18.855313 180.575291)rotate(-90)scale(0.1 -0.1)">
      <defs>
       <path d="M -0.296875 72.90625 
L 61.375 72.90625 
L 61.375 64.59375 
L 35.5 64.59375 
L 35.5 0 
L 25.59375 0 
L 25.59375 64.59375 
L -0.296875 64.59375 
z
" id="DejaVuSans-84"/>
       <path d="M 52 44.1875 
Q 55.375 50.25 60.0625 53.125 
Q 64.75 56 71.09375 56 
Q 79.640625 56 84.28125 50.015625 
Q 88.921875 44.046875 88.921875 33.015625 
L 88.921875 0 
L 79.890625 0 
L 79.890625 32.71875 
Q 79.890625 40.578125 77.09375 44.375 
Q 74.3125 48.1875 68.609375 48.1875 
Q 61.625 48.1875 57.5625 43.546875 
Q 53.515625 38.921875 53.515625 30.90625 
L 53.515625 0 
L 44.484375 0 
L 44.484375 32.71875 
Q 44.484375 40.625 41.703125 44.40625 
Q 38.921875 48.1875 33.109375 48.1875 
Q 26.21875 48.1875 22.15625 43.53125 
Q 18.109375 38.875 18.109375 30.90625 
L 18.109375 0 
L 9.078125 0 
L 9.078125 54.6875 
L 18.109375 54.6875 
L 18.109375 46.1875 
Q 21.1875 51.21875 25.484375 53.609375 
Q 29.78125 56 35.6875 56 
Q 41.65625 56 45.828125 52.96875 
Q 50 49.953125 52 44.1875 
z
" id="DejaVuSans-109"/>
       <path d="M 18.109375 8.203125 
L 18.109375 -20.796875 
L 9.078125 -20.796875 
L 9.078125 54.6875 
L 18.109375 54.6875 
L 18.109375 46.390625 
Q 20.953125 51.265625 25.265625 53.625 
Q 29.59375 56 35.59375 56 
Q 45.5625 56 51.78125 48.09375 
Q 58.015625 40.1875 58.015625 27.296875 
Q 58.015625 14.40625 51.78125 6.484375 
Q 45.5625 -1.421875 35.59375 -1.421875 
Q 29.59375 -1.421875 25.265625 0.953125 
Q 20.953125 3.328125 18.109375 8.203125 
z
M 48.6875 27.296875 
Q 48.6875 37.203125 44.609375 42.84375 
Q 40.53125 48.484375 33.40625 48.484375 
Q 26.265625 48.484375 22.1875 42.84375 
Q 18.109375 37.203125 18.109375 27.296875 
Q 18.109375 17.390625 22.1875 11.75 
Q 26.265625 6.109375 33.40625 6.109375 
Q 40.53125 6.109375 44.609375 11.75 
Q 48.6875 17.390625 48.6875 27.296875 
z
" id="DejaVuSans-112"/>
       <path d="M 41.109375 46.296875 
Q 39.59375 47.171875 37.8125 47.578125 
Q 36.03125 48 33.890625 48 
Q 26.265625 48 22.1875 43.046875 
Q 18.109375 38.09375 18.109375 28.8125 
L 18.109375 0 
L 9.078125 0 
L 9.078125 54.6875 
L 18.109375 54.6875 
L 18.109375 46.1875 
Q 20.953125 51.171875 25.484375 53.578125 
Q 30.03125 56 36.53125 56 
Q 37.453125 56 38.578125 55.875 
Q 39.703125 55.765625 41.0625 55.515625 
z
" id="DejaVuSans-114"/>
       <path d="M 8.5 21.578125 
L 8.5 54.6875 
L 17.484375 54.6875 
L 17.484375 21.921875 
Q 17.484375 14.15625 20.5 10.265625 
Q 23.53125 6.390625 29.59375 6.390625 
Q 36.859375 6.390625 41.078125 11.03125 
Q 45.3125 15.671875 45.3125 23.6875 
L 45.3125 54.6875 
L 54.296875 54.6875 
L 54.296875 0 
L 45.3125 0 
L 45.3125 8.40625 
Q 42.046875 3.421875 37.71875 1 
Q 33.40625 -1.421875 27.6875 -1.421875 
Q 18.265625 -1.421875 13.375 4.4375 
Q 8.5 10.296875 8.5 21.578125 
z
M 31.109375 56 
z
" id="DejaVuSans-117"/>
       <path id="DejaVuSans-32"/>
       <path d="M 8.59375 75.984375 
L 29.296875 75.984375 
L 29.296875 69 
L 17.578125 69 
L 17.578125 -6.203125 
L 29.296875 -6.203125 
L 29.296875 -13.1875 
L 8.59375 -13.1875 
z
" id="DejaVuSans-91"/>
       <path d="M 9.8125 72.90625 
L 51.703125 72.90625 
L 51.703125 64.59375 
L 19.671875 64.59375 
L 19.671875 43.109375 
L 48.578125 43.109375 
L 48.578125 34.8125 
L 19.671875 34.8125 
L 19.671875 0 
L 9.8125 0 
z
" id="DejaVuSans-70"/>
       <path d="M 30.421875 75.984375 
L 30.421875 -13.1875 
L 9.71875 -13.1875 
L 9.71875 -6.203125 
L 21.390625 -6.203125 
L 21.390625 69 
L 9.71875 69 
L 9.71875 75.984375 
z
" id="DejaVuSans-93"/>
      </defs>
      <use xlink:href="#DejaVuSans-84"/>
      <use x="44.083984" xlink:href="#DejaVuSans-101"/>
      <use x="105.607422" xlink:href="#DejaVuSans-109"/>
      <use x="203.019531" xlink:href="#DejaVuSans-112"/>
      <use x="266.496094" xlink:href="#DejaVuSans-101"/>
      <use x="328.019531" xlink:href="#DejaVuSans-114"/>
      <use x="369.132812" xlink:href="#DejaVuSans-97"/>
      <use x="430.412109" xlink:href="#DejaVuSans-116"/>
      <use x="469.621094" xlink:href="#DejaVuSans-117"/>
      <use x="533" xlink:href="#DejaVuSans-114"/>
      <use x="571.863281" xlink:href="#DejaVuSans-101"/>
      <use x="633.386719" xlink:href="#DejaVuSans-32"/>
      <use x="665.173828" xlink:href="#DejaVuSans-91"/>
      <use x="704.1875" xlink:href="#DejaVuSans-70"/>
      <use x="761.707031" xlink:href="#DejaVuSans-93"/>
     </g>
    </g>
   </g>
   <g id="line2d_29">
    <path clip-path="url(#pc155bcd44e)" d="M 62.698952 114.487181 
L 62.766346 114.487181 
L 62.829858 113.633011 
L 62.86224 114.487181 
L 62.894015 114.487181 
L 63.021295 113.633011 
L 63.085025 113.633011 
L 63.11688 114.487181 
L 63.14931 113.633011 
L 63.277419 112.778842 
L 63.470019 112.778842 
L 63.567252 111.924672 
L 63.729256 113.633011 
L 63.761146 113.633011 
L 63.859318 111.924672 
L 63.891119 113.633011 
L 63.955021 111.924672 
L 64.020674 111.924672 
L 64.150774 110.216333 
L 64.182434 111.924672 
L 64.214788 109.362163 
L 64.246523 109.362163 
L 64.279094 110.216333 
L 64.343667 109.362163 
L 64.47179 109.362163 
L 64.536938 108.507994 
L 64.569845 109.362163 
L 64.602574 109.362163 
L 64.635087 108.507994 
L 64.666884 110.216333 
L 64.762962 110.216333 
L 64.894654 108.507994 
L 64.926709 108.507994 
L 65.054829 109.362163 
L 65.086884 109.362163 
L 65.217255 110.216333 
L 65.31447 110.216333 
L 65.47828 107.653824 
L 65.64031 109.362163 
L 65.771197 107.653824 
L 65.804775 107.653824 
L 65.838107 106.799655 
L 65.902071 107.653824 
L 65.934349 108.507994 
L 65.987745 107.653824 
L 66.118407 107.653824 
L 66.184212 106.799655 
L 66.216279 107.653824 
L 66.25033 107.653824 
L 66.414853 110.216333 
L 66.480902 109.362163 
L 66.515769 110.216333 
L 66.620157 110.216333 
L 66.652043 111.924672 
L 66.717351 110.216333 
L 66.813003 110.216333 
L 66.943384 109.362163 
L 67.008791 110.216333 
L 67.041976 109.362163 
L 67.105258 109.362163 
L 67.171369 111.924672 
L 67.204688 109.362163 
L 67.268059 109.362163 
L 67.337477 111.924672 
L 67.369189 110.216333 
L 67.400866 110.216333 
L 67.432719 111.924672 
L 67.464685 109.362163 
L 67.49638 110.216333 
L 67.528992 110.216333 
L 67.658397 113.633011 
L 67.724233 110.216333 
L 67.755964 113.633011 
L 67.789003 115.341351 
L 67.82237 112.778842 
L 67.988582 109.362163 
L 68.119041 115.341351 
L 68.185062 112.778842 
L 68.217727 114.487181 
L 68.285726 115.341351 
L 68.317382 114.487181 
L 68.349008 114.487181 
L 68.512376 116.19552 
L 68.836475 116.19552 
L 68.965927 117.04969 
L 69.063928 116.19552 
L 69.12854 117.04969 
L 69.160438 116.19552 
L 69.192208 115.341351 
L 69.224873 117.04969 
L 69.29221 117.04969 
L 69.389118 113.633011 
L 69.422492 116.19552 
L 69.455881 118.758029 
L 69.519701 117.04969 
L 69.618652 117.04969 
L 69.814797 114.487181 
L 69.944341 115.341351 
L 70.009844 115.341351 
L 70.042004 114.487181 
L 70.073654 115.341351 
L 70.106757 116.19552 
L 70.138826 113.633011 
L 70.203831 117.04969 
L 70.236995 117.04969 
L 70.302803 115.341351 
L 70.334414 116.19552 
L 70.366152 116.19552 
L 70.397765 115.341351 
L 70.429624 117.04969 
L 70.462938 117.04969 
L 70.49532 115.341351 
L 70.558914 116.19552 
L 70.721679 116.19552 
L 70.822317 117.04969 
L 70.918977 116.19552 
L 71.019979 117.04969 
L 71.08551 115.341351 
L 71.149463 116.19552 
L 71.213999 116.19552 
L 71.343628 117.04969 
L 71.698112 117.04969 
L 71.795669 118.758029 
L 71.828939 117.04969 
L 71.892999 118.758029 
L 72.41797 118.758029 
L 72.549932 119.612199 
L 72.583311 118.758029 
L 72.647379 119.612199 
L 72.679201 119.612199 
L 72.710957 118.758029 
L 72.774915 119.612199 
L 73.389912 119.612199 
L 73.422105 120.466368 
L 73.453977 119.612199 
L 155.056826 120.466368 
L 155.089787 119.612199 
L 155.475965 117.04969 
L 155.507988 119.612199 
L 155.57514 118.758029 
L 155.643067 119.612199 
L 155.675755 117.04969 
L 155.754259 119.612199 
L 155.809733 118.758029 
L 155.842582 118.758029 
L 156.007411 113.633011 
L 156.146734 117.04969 
L 156.178359 116.19552 
L 156.326142 118.758029 
L 156.462299 118.758029 
L 156.493995 119.612199 
L 156.626244 116.19552 
L 156.661395 116.19552 
L 156.76476 109.362163 
L 156.824536 113.633011 
L 156.857665 116.19552 
L 156.889458 114.487181 
L 156.993373 117.04969 
L 157.063297 116.19552 
L 157.094995 116.19552 
L 157.20804 118.758029 
L 157.312356 116.19552 
L 157.344028 117.04969 
L 157.44744 117.04969 
L 157.612337 108.507994 
L 157.741504 116.19552 
L 157.773172 117.04969 
L 157.901956 107.653824 
L 157.968021 110.216333 
L 157.999731 109.362163 
L 158.031408 110.216333 
L 158.207796 118.758029 
L 158.358417 115.341351 
L 158.456559 115.341351 
L 158.490122 114.487181 
L 158.521976 115.341351 
L 158.652733 118.758029 
L 158.820783 115.341351 
L 158.853279 115.341351 
L 158.962168 108.507994 
L 159.072642 117.04969 
L 159.106901 115.341351 
L 159.179031 118.758029 
L 159.210822 115.341351 
L 159.40797 118.758029 
L 159.439586 116.19552 
L 159.472493 117.04969 
L 159.60279 117.04969 
L 159.635768 115.341351 
L 159.7043 117.04969 
L 159.737428 119.612199 
L 159.802301 116.19552 
L 159.866059 116.19552 
L 159.899444 117.04969 
L 159.933924 111.924672 
L 160.034275 112.778842 
L 160.100961 116.19552 
L 160.132822 114.487181 
L 160.167017 113.633011 
L 160.198623 114.487181 
L 160.360344 116.19552 
L 160.496676 115.341351 
L 160.528381 115.341351 
L 160.592428 116.19552 
L 160.625084 114.487181 
L 160.688401 116.19552 
L 160.720473 116.19552 
L 160.752095 115.341351 
L 160.817009 116.19552 
L 160.849641 116.19552 
L 160.976774 117.04969 
L 161.009649 117.04969 
L 161.138423 118.758029 
L 161.170569 118.758029 
L 161.300024 119.612199 
L 161.752733 119.612199 
L 161.850352 120.466368 
L 161.980376 119.612199 
L 162.208107 119.612199 
L 162.240062 116.19552 
L 162.30367 119.612199 
L 162.400909 118.758029 
L 162.535402 119.612199 
L 162.63221 119.612199 
L 162.664505 118.758029 
L 162.728214 119.612199 
L 162.792202 119.612199 
L 162.890126 120.466368 
L 162.923102 119.612199 
L 162.988908 120.466368 
L 163.646114 120.466368 
L 163.680582 121.320538 
L 163.71234 120.466368 
L 163.854367 119.612199 
L 164.224509 119.612199 
L 164.319889 118.758029 
L 164.352135 119.612199 
L 164.420659 118.758029 
L 164.875797 118.758029 
L 164.90749 119.612199 
L 164.971626 118.758029 
L 165.265163 118.758029 
L 165.364346 119.612199 
L 165.492086 118.758029 
L 165.618987 118.758029 
L 165.715092 119.612199 
L 165.812797 118.758029 
L 165.942353 119.612199 
L 166.005837 119.612199 
L 166.132859 118.758029 
L 166.196615 118.758029 
L 166.291645 119.612199 
L 166.427392 118.758029 
L 166.748534 118.758029 
L 294.331397 94.84128 
L 294.405106 96.549619 
L 294.559232 96.549619 
L 294.591168 94.84128 
L 294.657261 96.549619 
L 294.761241 96.549619 
L 294.794176 94.84128 
L 294.866627 96.549619 
L 295.157529 96.549619 
L 295.222954 97.403789 
L 295.254933 96.549619 
L 295.455613 96.549619 
L 295.489067 97.403789 
L 295.558771 96.549619 
L 295.597113 96.549619 
L 295.727002 97.403789 
L 295.792486 97.403789 
L 295.825144 96.549619 
L 295.888811 97.403789 
L 296.017125 97.403789 
L 296.113227 96.549619 
L 296.224515 97.403789 
L 296.953156 97.403789 
L 296.985209 98.257959 
L 297.048548 97.403789 
L 297.08014 97.403789 
L 297.112571 98.257959 
L 297.17689 97.403789 
L 297.20963 97.403789 
L 297.342864 98.257959 
L 297.477251 97.403789 
L 297.508935 97.403789 
L 297.636471 98.257959 
L 298.254353 98.257959 
L 298.286344 99.112128 
L 298.349878 98.257959 
L 298.483632 98.257959 
L 298.519031 99.112128 
L 298.566799 98.257959 
L 298.895464 98.257959 
L 299.029224 99.112128 
L 300.40557 99.112128 
L 300.438826 99.966298 
L 300.504887 99.112128 
L 300.799341 99.112128 
L 300.933112 99.966298 
L 301.064871 99.112128 
L 301.097484 99.112128 
L 301.227081 99.966298 
L 301.691637 99.966298 
L 301.844447 100.820467 
L 301.972059 99.966298 
L 302.917906 99.966298 
L 302.949503 99.112128 
L 303.015365 99.966298 
L 303.245743 99.966298 
L 303.277646 99.112128 
L 303.343385 99.966298 
L 303.376536 99.966298 
L 303.472983 99.112128 
L 303.603133 99.966298 
L 304.092088 99.966298 
L 304.123724 100.820467 
L 304.186963 99.966298 
L 304.797304 99.966298 
L 304.829889 99.112128 
L 304.89425 99.966298 
L 304.990753 99.966298 
L 305.033264 99.112128 
L 305.068997 99.966298 
L 305.393236 99.966298 
L 305.425873 99.112128 
L 305.49189 99.966298 
L 306.533986 99.966298 
L 306.663816 100.820467 
L 306.728944 100.820467 
L 306.863125 99.966298 
L 307.005396 100.820467 
L 307.137308 99.966298 
L 307.168922 99.966298 
L 307.297992 100.820467 
L 307.428601 99.966298 
L 307.590854 99.966298 
L 307.71795 100.820467 
L 308.288106 100.820467 
L 308.32012 101.674637 
L 308.383575 100.820467 
L 308.780335 100.820467 
L 308.879268 101.674637 
L 308.977788 100.820467 
L 309.074961 101.674637 
L 309.17602 100.820467 
L 309.312356 101.674637 
L 309.343982 101.674637 
L 309.378262 100.820467 
L 309.44343 101.674637 
L 310.460782 101.674637 
L 310.493551 103.382976 
L 310.558341 101.674637 
L 310.590015 101.674637 
L 310.627275 103.382976 
L 310.692686 101.674637 
L 311.124778 101.674637 
L 311.188873 103.382976 
L 311.22159 101.674637 
L 311.524492 101.674637 
L 311.655108 103.382976 
L 311.750945 101.674637 
L 311.847067 103.382976 
L 311.946028 101.674637 
L 312.042946 103.382976 
L 312.177822 101.674637 
L 312.307729 103.382976 
L 312.339434 103.382976 
L 312.371046 101.674637 
L 312.435696 103.382976 
L 312.470246 103.382976 
L 312.503142 101.674637 
L 312.570078 103.382976 
L 313.513798 103.382976 
L 313.61423 104.237146 
L 313.751148 103.382976 
L 313.815504 103.382976 
L 313.84874 104.237146 
L 313.880885 103.382976 
L 314.234066 103.382976 
L 314.365406 104.237146 
L 314.462334 103.382976 
L 314.593059 104.237146 
L 315.706291 104.237146 
L 315.802862 105.091315 
L 315.869653 104.237146 
L 315.901952 105.091315 
L 315.967017 105.091315 
L 316.030954 104.237146 
L 316.06278 105.091315 
L 316.80636 105.091315 
L 316.938083 104.237146 
L 317.067255 105.091315 
L 318.403751 105.091315 
L 318.435541 105.945485 
L 318.508919 105.091315 
L 319.653353 105.091315 
L 319.78941 105.945485 
L 319.888137 105.091315 
L 320.034122 105.945485 
L 320.928605 105.945485 
L 320.960352 105.091315 
L 321.027036 105.945485 
L 321.192796 105.945485 
L 321.289805 105.091315 
L 321.422068 105.945485 
L 321.45516 105.945485 
L 321.587961 105.091315 
L 321.749448 105.091315 
L 321.781073 105.945485 
L 321.846902 105.091315 
L 321.944905 105.091315 
L 322.078962 105.945485 
L 322.209437 105.091315 
L 322.467263 105.091315 
L 322.603376 105.945485 
L 322.736557 105.091315 
L 323.768762 105.091315 
L 323.899554 104.237146 
L 324.194837 104.237146 
L 324.260807 103.382976 
L 324.293243 104.237146 
L 324.492114 104.237146 
L 324.565394 103.382976 
L 324.598104 104.237146 
L 324.663839 104.237146 
L 324.69761 103.382976 
L 324.762247 104.237146 
L 325.685323 104.237146 
L 325.816985 103.382976 
L 325.923159 103.382976 
L 325.955114 104.237146 
L 326.018884 103.382976 
L 326.150928 103.382976 
L 326.282528 101.674637 
L 326.610399 101.674637 
L 326.674405 100.820467 
L 326.706505 101.674637 
L 327.48722 101.674637 
L 327.583728 100.820467 
L 327.715381 101.674637 
L 327.778837 101.674637 
L 327.875734 100.820467 
L 327.907911 101.674637 
L 327.973073 100.820467 
L 328.004749 100.820467 
L 328.131766 99.966298 
L 328.198107 99.966298 
L 328.326593 100.820467 
L 328.422347 100.820467 
L 328.552097 99.966298 
L 328.583703 99.966298 
L 328.681857 100.820467 
L 328.825366 99.966298 
L 328.924874 99.966298 
L 329.024433 100.820467 
L 329.154021 99.966298 
L 329.289551 100.820467 
L 329.324923 99.966298 
L 329.389924 100.820467 
L 329.526076 100.820467 
L 329.557832 99.966298 
L 329.623085 100.820467 
L 330.084303 100.820467 
L 330.21492 99.966298 
L 330.280409 100.820467 
L 330.312316 99.966298 
L 330.414775 99.966298 
L 330.547773 100.820467 
L 330.581615 100.820467 
L 330.716747 99.966298 
L 330.816014 100.820467 
L 330.950303 99.966298 
L 331.018899 99.966298 
L 331.149974 100.820467 
L 331.182863 100.820467 
L 331.313243 99.966298 
L 331.547739 99.966298 
L 331.583645 100.820467 
L 331.615407 99.966298 
L 331.795166 99.966298 
L 331.827703 100.820467 
L 331.893424 99.966298 
L 332.146999 99.966298 
L 332.17867 98.257959 
L 332.24361 99.112128 
L 332.339387 99.112128 
L 332.468572 99.966298 
L 332.598604 99.966298 
L 332.662575 100.820467 
L 332.69485 99.966298 
L 332.727734 99.966298 
L 332.759444 99.112128 
L 332.82406 99.966298 
L 332.85635 99.966298 
L 332.95378 99.112128 
L 332.985516 99.966298 
L 333.051564 99.112128 
L 333.117335 99.112128 
L 333.248292 99.966298 
L 333.615303 99.966298 
L 333.647118 100.820467 
L 333.713138 99.966298 
L 333.812649 99.112128 
L 333.944062 99.966298 
L 334.37059 99.966298 
L 334.499314 100.820467 
L 334.565413 100.820467 
L 334.598576 99.966298 
L 334.66253 100.820467 
L 335.050477 100.820467 
L 335.180938 99.966298 
L 335.362762 100.820467 
L 335.721681 100.820467 
L 335.816754 101.674637 
L 335.945947 100.820467 
L 336.077546 100.820467 
L 336.111258 99.966298 
L 336.175189 100.820467 
L 336.568906 100.820467 
L 336.60167 101.674637 
L 336.665563 100.820467 
L 337.107004 100.820467 
L 337.238602 101.674637 
L 337.369649 100.820467 
L 337.502931 101.674637 
L 338.028466 101.674637 
L 338.093376 100.820467 
L 338.125543 101.674637 
L 338.258297 101.674637 
L 338.292053 100.820467 
L 338.357507 101.674637 
L 339.253395 101.674637 
L 339.286372 103.382976 
L 339.430391 101.674637 
L 339.539277 103.382976 
L 339.675775 101.674637 
L 339.776093 103.382976 
L 339.904438 101.674637 
L 340.035286 103.382976 
L 340.143822 103.382976 
L 340.27646 101.674637 
L 340.456247 103.382976 
L 341.256092 103.382976 
L 341.373869 104.237146 
L 341.439604 103.382976 
L 341.474887 104.237146 
L 341.506593 104.237146 
L 341.573048 103.382976 
L 341.605367 104.237146 
L 341.671407 104.237146 
L 341.768232 103.382976 
L 341.91175 104.237146 
L 342.730452 104.237146 
L 342.762091 105.091315 
L 342.826359 104.237146 
L 343.381676 104.237146 
L 343.413495 105.091315 
L 343.479054 104.237146 
L 343.511801 104.237146 
L 343.609584 105.091315 
L 343.641874 104.237146 
L 343.707395 105.091315 
L 343.740647 105.091315 
L 343.874117 104.237146 
L 344.012404 105.091315 
L 345.827975 105.091315 
L 345.863455 105.945485 
L 345.931931 105.091315 
L 346.035226 105.091315 
L 346.101364 105.945485 
L 346.134297 105.091315 
L 346.204909 105.091315 
L 346.338712 105.945485 
L 346.371679 105.091315 
L 346.437167 105.945485 
L 346.795417 105.945485 
L 346.829243 105.091315 
L 346.894744 105.945485 
L 347.022921 105.945485 
L 347.05459 105.091315 
L 347.11945 105.945485 
L 347.3818 105.945485 
L 347.416097 106.799655 
L 347.481428 105.945485 
L 348.374132 105.945485 
L 348.407292 105.091315 
L 348.476141 105.945485 
L 349.964055 105.945485 
L 349.996704 106.799655 
L 350.06426 105.945485 
L 350.567465 105.945485 
L 350.677195 106.799655 
L 350.808985 105.945485 
L 350.87326 105.945485 
L 351.006117 106.799655 
L 351.407378 106.799655 
L 351.4396 105.945485 
L 351.505465 106.799655 
L 351.935447 106.799655 
L 351.970676 105.945485 
L 352.035318 106.799655 
L 353.5641 106.799655 
L 353.599678 107.653824 
L 353.663237 106.799655 
L 353.793724 106.799655 
L 353.827377 107.653824 
L 353.895383 106.799655 
L 354.122619 106.799655 
L 354.250226 107.653824 
L 354.388089 106.799655 
L 354.520733 107.653824 
L 354.552324 106.799655 
L 354.61623 107.653824 
L 354.681252 107.653824 
L 354.809956 106.799655 
L 354.843147 106.799655 
L 354.942655 107.653824 
L 354.976198 106.799655 
L 355.041316 107.653824 
L 355.14077 107.653824 
L 355.271409 106.799655 
L 355.402062 107.653824 
L 355.43378 106.799655 
L 355.501589 107.653824 
L 355.762208 107.653824 
L 355.796324 106.799655 
L 355.860609 107.653824 
L 358.211018 107.653824 
L 358.244144 108.507994 
L 358.309001 107.653824 
L 358.504388 107.653824 
L 358.536226 108.507994 
L 358.602796 107.653824 
L 358.698107 107.653824 
L 358.826445 108.507994 
L 358.858243 108.507994 
L 358.892543 107.653824 
L 358.959929 108.507994 
L 358.992703 108.507994 
L 359.059445 107.653824 
L 359.09101 108.507994 
L 359.124921 108.507994 
L 359.157611 107.653824 
L 359.226178 108.507994 
L 359.260356 108.507994 
L 359.389318 107.653824 
L 359.520313 108.507994 
L 360.396663 108.507994 
L 360.42884 109.362163 
L 360.493687 108.507994 
L 360.882895 108.507994 
L 360.985352 109.362163 
L 361.119125 108.507994 
L 361.185726 108.507994 
L 361.217957 109.362163 
L 361.253838 108.507994 
L 361.358509 109.362163 
L 361.457984 108.507994 
L 361.590428 109.362163 
L 361.66471 108.507994 
L 361.69789 109.362163 
L 361.841137 108.507994 
L 361.900782 108.507994 
L 361.93525 109.362163 
L 362.091434 108.507994 
L 363.856569 108.507994 
L 363.962835 107.653824 
L 364.092783 108.507994 
L 364.235861 107.653824 
L 364.299299 108.507994 
L 364.330917 107.653824 
L 365.238839 107.653824 
L 365.270489 106.799655 
L 365.317165 107.653824 
L 365.350058 107.653824 
L 365.447173 106.799655 
L 365.554809 107.653824 
L 365.722685 105.945485 
L 365.759335 105.945485 
L 365.793323 106.799655 
L 365.859837 105.945485 
L 366.089478 105.945485 
L 366.18853 105.091315 
L 366.220789 105.945485 
L 366.286712 105.091315 
L 366.42177 105.091315 
L 366.463512 104.237146 
L 366.526834 105.091315 
L 366.659846 105.091315 
L 366.76381 105.945485 
L 366.867653 105.091315 
L 366.995003 105.945485 
L 367.123884 105.091315 
L 367.155498 105.091315 
L 367.251141 104.237146 
L 367.314552 105.091315 
L 367.347327 104.237146 
L 367.379004 104.237146 
L 367.474094 105.091315 
L 367.601659 104.237146 
L 367.761163 104.237146 
L 367.793484 105.091315 
L 367.858405 104.237146 
L 367.931063 104.237146 
L 367.962743 105.091315 
L 368.028526 104.237146 
L 368.060287 104.237146 
L 368.187435 105.091315 
L 368.645874 105.091315 
L 368.772716 104.237146 
L 368.906185 105.091315 
L 369.110485 105.091315 
L 369.142311 104.237146 
L 369.205597 105.091315 
L 369.4325 105.091315 
L 369.561654 104.237146 
L 369.593383 104.237146 
L 369.625342 105.091315 
L 369.693661 104.237146 
L 369.72537 104.237146 
L 369.759058 105.091315 
L 369.823029 104.237146 
L 370.402683 104.237146 
L 370.520011 105.091315 
L 370.592701 104.237146 
L 371.552988 104.237146 
L 371.670329 103.382976 
L 372.040028 103.382976 
L 372.072193 104.237146 
L 372.125496 103.382976 
L 372.97695 103.382976 
L 373.09107 104.237146 
L 373.221151 103.382976 
L 373.555929 103.382976 
L 373.605862 104.237146 
L 373.643034 101.674637 
L 373.721426 103.382976 
L 373.83836 103.382976 
L 373.983577 101.674637 
L 374.707421 101.674637 
L 375.00046 99.966298 
L 375.105229 100.820467 
L 376.096371 100.820467 
L 376.1381 99.966298 
L 376.179803 100.820467 
L 376.38777 100.820467 
L 376.459724 99.966298 
L 376.495936 100.820467 
L 376.528674 100.820467 
L 376.603962 99.966298 
L 376.808946 99.966298 
L 376.840867 100.820467 
L 376.909053 99.966298 
L 377.015451 99.966298 
L 377.156156 99.112128 
L 377.2609 99.966298 
L 377.404234 99.112128 
L 377.525646 99.112128 
L 377.660239 99.966298 
L 377.843298 99.966298 
L 377.876337 100.820467 
L 377.91312 99.966298 
L 378.187077 99.966298 
L 378.364029 99.112128 
L 378.453115 99.966298 
L 378.63554 98.257959 
L 378.678171 98.257959 
L 378.711044 99.112128 
L 378.921496 98.257959 
L 379.167552 97.403789 
L 379.201845 97.403789 
L 379.358946 98.257959 
L 379.493228 97.403789 
L 379.560048 97.403789 
L 379.596792 98.257959 
L 379.950524 98.257959 
L 379.993896 99.112128 
L 380.048613 98.257959 
L 380.271385 98.257959 
L 380.403175 99.112128 
L 381.074869 99.112128 
L 381.141796 98.257959 
L 381.176437 99.112128 
L 381.21587 99.112128 
L 381.329515 98.257959 
L 381.433345 98.257959 
L 381.58228 99.112128 
L 381.725301 98.257959 
L 381.843691 98.257959 
L 381.962256 99.112128 
L 382.242424 99.112128 
L 382.294171 99.966298 
L 382.333144 99.112128 
L 382.403572 99.112128 
L 382.508013 99.966298 
L 382.639888 99.112128 
L 382.696573 99.966298 
L 382.729482 99.112128 
L 382.902189 99.966298 
L 383.012302 99.966298 
L 383.046164 100.820467 
L 383.091101 99.966298 
L 383.126593 99.966298 
L 383.161368 100.820467 
L 383.257778 99.966298 
L 383.313265 101.674637 
L 383.394774 100.820467 
L 383.641277 100.820467 
L 383.781374 101.674637 
L 383.818779 101.674637 
L 383.856665 100.820467 
L 383.88841 101.674637 
L 384.247841 101.674637 
L 384.284656 103.382976 
L 384.321324 101.674637 
L 384.523647 103.382976 
L 385.017194 103.382976 
L 385.091071 104.237146 
L 385.12284 103.382976 
L 385.156761 103.382976 
L 385.277989 104.237146 
L 385.891405 104.237146 
L 386.02833 105.091315 
L 386.171432 104.237146 
L 386.236846 105.091315 
L 386.340871 104.237146 
L 386.449583 105.091315 
L 386.519119 104.237146 
L 386.638133 105.091315 
L 387.290848 105.091315 
L 387.391333 105.945485 
L 387.425291 105.091315 
L 387.49008 105.945485 
L 388.274558 105.945485 
L 388.37095 106.799655 
L 388.521985 105.945485 
L 388.821319 105.945485 
L 388.854476 106.799655 
L 388.917843 105.945485 
L 388.949489 105.945485 
L 388.981145 106.799655 
L 389.044906 105.945485 
L 389.082258 105.945485 
L 389.115165 106.799655 
L 389.18028 105.945485 
L 389.213089 105.945485 
L 389.312115 106.799655 
L 389.40825 105.945485 
L 389.538836 106.799655 
L 390.499256 106.799655 
L 390.627682 107.653824 
L 390.659361 106.799655 
L 390.722892 107.653824 
L 390.754528 107.653824 
L 390.882088 106.799655 
L 390.914801 106.799655 
L 391.044274 107.653824 
L 391.885083 107.653824 
L 391.916682 108.507994 
L 391.980266 107.653824 
L 392.011976 107.653824 
L 392.111718 108.507994 
L 392.144341 107.653824 
L 392.207658 108.507994 
L 392.461255 108.507994 
L 392.588852 109.362163 
L 392.68579 108.507994 
L 392.814967 109.362163 
L 393.005371 109.362163 
L 393.140435 110.216333 
L 393.271863 109.362163 
L 394.098747 109.362163 
L 394.131466 108.507994 
L 394.321461 109.362163 
L 394.577656 109.362163 
L 394.610545 110.216333 
L 394.816389 109.362163 
L 395.013374 109.362163 
L 395.046664 110.216333 
L 395.112616 109.362163 
L 396.052497 109.362163 
L 396.180235 110.216333 
L 396.277369 110.216333 
L 396.408383 109.362163 
L 396.505556 109.362163 
L 396.638807 110.216333 
L 398.352159 110.216333 
L 398.479493 111.924672 
L 398.511223 111.924672 
L 398.641254 110.216333 
L 398.739147 110.216333 
L 398.835304 111.924672 
L 398.961981 110.216333 
L 399.02517 110.216333 
L 399.15409 111.924672 
L 400.490368 111.924672 
L 400.524398 112.778842 
L 400.591441 111.924672 
L 400.623113 111.924672 
L 400.656916 112.778842 
L 400.722165 111.924672 
L 401.240812 111.924672 
L 401.304064 112.778842 
L 401.335999 111.924672 
L 401.59454 111.924672 
L 401.626313 112.778842 
L 401.690569 111.924672 
L 402.082336 111.924672 
L 402.113898 112.778842 
L 402.17738 111.924672 
L 402.337791 111.924672 
L 402.369548 112.778842 
L 402.432782 111.924672 
L 402.532047 111.924672 
L 402.627613 112.778842 
L 402.659217 111.924672 
L 402.726708 112.778842 
L 402.760009 112.778842 
L 402.888082 111.924672 
L 402.920259 111.924672 
L 403.050368 112.778842 
L 403.082296 111.924672 
L 403.145459 112.778842 
L 403.439332 112.778842 
L 403.471976 111.924672 
L 403.536223 112.778842 
L 404.086066 112.778842 
L 404.214178 113.633011 
L 404.24752 113.633011 
L 404.377849 112.778842 
L 405.201493 112.778842 
L 405.299256 113.633011 
L 405.432076 112.778842 
L 405.46524 112.778842 
L 405.496856 113.633011 
L 405.5605 112.778842 
L 405.592323 112.778842 
L 405.623961 113.633011 
L 405.688292 112.778842 
L 405.789391 112.778842 
L 405.821075 113.633011 
L 405.887188 112.778842 
L 407.729131 112.778842 
L 407.827364 111.924672 
L 407.96086 112.778842 
L 408.249325 112.778842 
L 408.379559 111.924672 
L 408.478755 112.778842 
L 408.609897 111.924672 
L 408.642246 111.924672 
L 408.708069 112.778842 
L 408.740749 111.924672 
L 408.836504 111.924672 
L 408.868158 112.778842 
L 408.936104 111.924672 
L 409.429573 111.924672 
L 409.560661 110.216333 
L 410.039367 110.216333 
L 410.072332 109.362163 
L 410.138469 110.216333 
L 410.269633 110.216333 
L 410.398368 109.362163 
L 410.72707 109.362163 
L 410.864349 108.507994 
L 410.9352 108.507994 
L 410.967946 109.362163 
L 411.032229 108.507994 
L 411.289514 108.507994 
L 411.423877 107.653824 
L 411.723555 107.653824 
L 411.860237 106.799655 
L 412.02274 106.799655 
L 412.159911 105.945485 
L 412.627038 105.945485 
L 412.65886 105.091315 
L 412.725251 105.945485 
L 412.874745 105.945485 
L 412.980512 105.091315 
L 413.233551 105.091315 
L 413.306236 104.237146 
L 413.339093 105.091315 
L 413.466132 105.945485 
L 413.598409 105.091315 
L 413.69416 105.091315 
L 413.725776 104.237146 
L 413.795438 105.091315 
L 413.864651 104.237146 
L 413.933626 105.945485 
L 414.040937 105.945485 
L 414.072509 106.799655 
L 414.109216 105.945485 
L 414.250435 105.945485 
L 414.391856 105.091315 
L 414.461013 105.091315 
L 414.492662 104.237146 
L 414.524269 105.945485 
L 414.621971 106.799655 
L 414.656218 105.945485 
L 414.732721 106.799655 
L 414.764418 106.799655 
L 414.863707 105.945485 
L 414.993355 106.799655 
L 415.127864 105.945485 
L 415.226169 105.945485 
L 415.368432 106.799655 
L 415.531332 106.799655 
L 415.661488 105.945485 
L 415.791918 105.945485 
L 415.826363 106.799655 
L 415.859653 105.091315 
L 415.901922 105.945485 
L 415.935675 105.945485 
L 416.03758 106.799655 
L 416.234949 104.237146 
L 416.277043 104.237146 
L 416.342072 94.84128 
L 416.376313 96.549619 
L 416.507691 103.382976 
L 416.574487 103.382976 
L 416.736711 105.945485 
L 416.769609 105.091315 
L 416.83561 105.945485 
L 416.936804 105.945485 
L 417.067604 106.799655 
L 417.100903 106.799655 
L 417.233289 105.945485 
L 417.765223 105.945485 
L 417.798038 106.799655 
L 417.862124 105.945485 
L 418.057903 105.945485 
L 418.093018 106.799655 
L 418.160625 105.945485 
L 418.259333 104.237146 
L 418.292819 105.091315 
L 418.422426 105.945485 
L 418.553267 105.091315 
L 418.649041 105.091315 
L 418.779874 104.237146 
L 418.914265 104.237146 
L 418.989042 103.382976 
L 419.118223 105.091315 
L 419.151567 105.945485 
L 419.18546 105.091315 
L 419.328777 104.237146 
L 419.3616 104.237146 
L 419.428584 100.820467 
L 419.462202 101.674637 
L 419.580936 103.382976 
L 419.983981 101.674637 
L 420.056199 103.382976 
L 420.171691 103.382976 
L 420.340861 93.987111 
L 420.372621 99.112128 
L 420.449156 96.549619 
L 420.484555 98.257959 
L 420.778739 101.674637 
L 420.913758 101.674637 
L 421.009633 100.820467 
L 421.235264 103.382976 
L 421.273163 103.382976 
L 421.353162 101.674637 
L 421.426632 103.382976 
L 421.591388 100.820467 
L 421.697266 103.382976 
L 421.794579 103.382976 
L 421.955527 105.091315 
L 421.993813 105.091315 
L 422.079901 103.382976 
L 422.241983 105.945485 
L 422.403904 104.237146 
L 422.481246 105.945485 
L 422.514007 104.237146 
L 422.764613 100.820467 
L 422.810514 101.674637 
L 422.855026 100.820467 
L 422.894426 100.820467 
L 422.926173 99.966298 
L 422.968445 101.674637 
L 423.019553 101.674637 
L 423.127325 99.966298 
L 423.253302 103.382976 
L 423.44109 103.382976 
L 423.477999 101.674637 
L 423.477999 101.674637 
" style="fill:none;stroke:#1f77b4;stroke-linecap:square;stroke-width:1.5;"/>
   </g>
   <g id="line2d_30">
    <path clip-path="url(#pc155bcd44e)" d="M 62.698952 172.570714 
L 65.673198 172.570714 
L 65.804775 139.2581 
L 69.063928 139.2581 
L 69.192208 148.653965 
L 71.343628 148.653965 
L 71.471542 164.883188 
L 72.583311 164.883188 
L 72.710957 181.96658 
L 73.453977 181.96658 
L 155.01122 62.382835 
L 159.342211 62.382835 
L 159.472493 79.466227 
L 161.300024 79.466227 
L 161.430499 95.69545 
L 163.086376 95.69545 
L 163.214769 139.2581 
L 165.68337 139.2581 
L 165.812797 164.883188 
L 166.748534 164.883188 
L 294.405106 71.778701 
L 295.6622 71.778701 
L 295.792486 105.091315 
L 297.440421 105.091315 
L 297.572864 139.2581 
L 301.161983 139.2581 
L 301.290962 156.341492 
L 304.829889 156.341492 
L 304.959209 164.883188 
L 307.137308 164.883188 
L 307.265928 172.570714 
L 308.580221 172.570714 
L 308.714081 189.654106 
L 310.234113 189.654106 
L 310.361497 199.049972 
L 311.35311 199.049972 
L 311.491654 183.674919 
L 312.177822 183.674919 
L 312.307729 189.654106 
L 313.815504 189.654106 
L 313.880885 181.96658 
L 318.435541 181.96658 
L 318.605193 183.674919 
L 319.577749 183.674919 
L 319.720653 181.96658 
L 321.257651 181.96658 
L 321.389936 172.570714 
L 324.955324 172.570714 
L 325.085912 164.883188 
L 326.999103 164.883188 
L 327.129455 156.341492 
L 328.131766 156.341492 
L 328.263186 152.924813 
L 328.617055 152.924813 
L 328.754113 148.653965 
L 332.37154 148.653965 
L 332.5013 139.2581 
L 338.258297 139.2581 
L 338.389187 152.924813 
L 340.035286 152.924813 
L 340.178244 156.341492 
L 341.34099 156.341492 
L 341.474887 152.924813 
L 341.671407 152.924813 
L 341.809549 156.341492 
L 346.470962 156.341492 
L 346.600952 152.924813 
L 347.11945 152.924813 
L 347.249642 156.341492 
L 348.91873 156.341492 
L 349.047384 164.883188 
L 349.898126 164.883188 
L 349.996704 183.674919 
L 350.841496 183.674919 
L 350.973257 189.654106 
L 351.309863 189.654106 
L 351.4396 199.049972 
L 358.826445 199.049972 
L 358.959929 183.674919 
L 360.462036 183.674919 
L 360.590747 199.049972 
L 361.93525 199.049972 
L 362.091434 181.96658 
L 363.697566 181.96658 
L 363.856569 172.570714 
L 364.524192 172.570714 
L 364.650995 168.299866 
L 365.48251 168.299866 
L 365.620567 164.883188 
L 367.962743 164.883188 
L 368.091946 156.341492 
L 369.237333 156.341492 
L 369.364747 148.653965 
L 371.007069 148.653965 
L 371.124564 156.341492 
L 372.774516 156.341492 
L 372.97695 139.2581 
L 376.769712 139.2581 
L 376.909053 131.570573 
L 382.065735 131.570573 
L 382.242424 139.2581 
L 383.707161 139.2581 
L 383.818779 172.570714 
L 385.991049 172.570714 
L 386.137466 189.654106 
L 387.801544 189.654106 
L 387.937517 216.133364 
L 389.952784 216.133364 
L 390.079774 229.800077 
L 392.397781 229.800077 
L 392.524479 245.17513 
L 395.469539 245.17513 
L 395.599832 229.800077 
L 397.25483 229.800077 
L 397.383238 233.216756 
L 399.492767 233.216756 
L 399.620311 229.800077 
L 400.295963 229.800077 
L 400.425891 233.216756 
L 403.373887 233.216756 
L 403.503636 241.758452 
L 408.77249 241.758452 
L 408.902347 229.800077 
L 410.630113 229.800077 
L 410.766449 214.425025 
L 412.690555 214.425025 
L 412.793619 168.299866 
L 413.529838 168.299866 
L 413.662382 156.341492 
L 415.292116 156.341492 
L 415.433165 105.091315 
L 417.035632 105.091315 
L 417.167716 71.778701 
L 419.151567 71.778701 
L 419.294833 54.695309 
L 420.879501 54.695309 
L 421.009633 35.903578 
L 422.651709 35.903578 
L 422.764613 45.299443 
L 423.477999 45.299443 
L 423.477999 45.299443 
" style="fill:none;stroke:#ff7f0e;stroke-linecap:square;stroke-width:1.5;"/>
   </g>
   <g id="patch_3">
    <path d="M 44.66 255.638708 
L 44.66 25.44 
" style="fill:none;stroke:#000000;stroke-linecap:square;stroke-linejoin:miter;stroke-width:0.8;"/>
   </g>
   <g id="patch_4">
    <path d="M 441.516951 255.638708 
L 441.516951 25.44 
" style="fill:none;stroke:#000000;stroke-linecap:square;stroke-linejoin:miter;stroke-width:0.8;"/>
   </g>
   <g id="patch_5">
    <path d="M 44.66 255.638708 
L 441.516951 255.638708 
" style="fill:none;stroke:#000000;stroke-linecap:square;stroke-linejoin:miter;stroke-width:0.8;"/>
   </g>
   <g id="patch_6">
    <path d="M 44.66 25.44 
L 441.516951 25.44 
" style="fill:none;stroke:#000000;stroke-linecap:square;stroke-linejoin:miter;stroke-width:0.8;"/>
   </g>
   <g id="text_17">
    <!-- Lake Shoecraft - Water and Air Temperature -->
    <g transform="translate(111.470038 19.44)scale(0.12 -0.12)">
     <defs>
      <path d="M 9.8125 72.90625 
L 19.671875 72.90625 
L 19.671875 8.296875 
L 55.171875 8.296875 
L 55.171875 0 
L 9.8125 0 
z
" id="DejaVuSans-76"/>
      <path d="M 9.078125 75.984375 
L 18.109375 75.984375 
L 18.109375 31.109375 
L 44.921875 54.6875 
L 56.390625 54.6875 
L 27.390625 29.109375 
L 57.625 0 
L 45.90625 0 
L 18.109375 26.703125 
L 18.109375 0 
L 9.078125 0 
z
" id="DejaVuSans-107"/>
      <path d="M 53.515625 70.515625 
L 53.515625 60.890625 
Q 47.90625 63.578125 42.921875 64.890625 
Q 37.9375 66.21875 33.296875 66.21875 
Q 25.25 66.21875 20.875 63.09375 
Q 16.5 59.96875 16.5 54.203125 
Q 16.5 49.359375 19.40625 46.890625 
Q 22.3125 44.4375 30.421875 42.921875 
L 36.375 41.703125 
Q 47.40625 39.59375 52.65625 34.296875 
Q 57.90625 29 57.90625 20.125 
Q 57.90625 9.515625 50.796875 4.046875 
Q 43.703125 -1.421875 29.984375 -1.421875 
Q 24.8125 -1.421875 18.96875 -0.25 
Q 13.140625 0.921875 6.890625 3.21875 
L 6.890625 13.375 
Q 12.890625 10.015625 18.65625 8.296875 
Q 24.421875 6.59375 29.984375 6.59375 
Q 38.421875 6.59375 43.015625 9.90625 
Q 47.609375 13.234375 47.609375 19.390625 
Q 47.609375 24.75 44.3125 27.78125 
Q 41.015625 30.8125 33.5 32.328125 
L 27.484375 33.5 
Q 16.453125 35.6875 11.515625 40.375 
Q 6.59375 45.0625 6.59375 53.421875 
Q 6.59375 63.09375 13.40625 68.65625 
Q 20.21875 74.21875 32.171875 74.21875 
Q 37.3125 74.21875 42.625 73.28125 
Q 47.953125 72.359375 53.515625 70.515625 
z
" id="DejaVuSans-83"/>
      <path d="M 54.890625 33.015625 
L 54.890625 0 
L 45.90625 0 
L 45.90625 32.71875 
Q 45.90625 40.484375 42.875 44.328125 
Q 39.84375 48.1875 33.796875 48.1875 
Q 26.515625 48.1875 22.3125 43.546875 
Q 18.109375 38.921875 18.109375 30.90625 
L 18.109375 0 
L 9.078125 0 
L 9.078125 75.984375 
L 18.109375 75.984375 
L 18.109375 46.1875 
Q 21.34375 51.125 25.703125 53.5625 
Q 30.078125 56 35.796875 56 
Q 45.21875 56 50.046875 50.171875 
Q 54.890625 44.34375 54.890625 33.015625 
z
" id="DejaVuSans-104"/>
      <path d="M 30.609375 48.390625 
Q 23.390625 48.390625 19.1875 42.75 
Q 14.984375 37.109375 14.984375 27.296875 
Q 14.984375 17.484375 19.15625 11.84375 
Q 23.34375 6.203125 30.609375 6.203125 
Q 37.796875 6.203125 41.984375 11.859375 
Q 46.1875 17.53125 46.1875 27.296875 
Q 46.1875 37.015625 41.984375 42.703125 
Q 37.796875 48.390625 30.609375 48.390625 
z
M 30.609375 56 
Q 42.328125 56 49.015625 48.375 
Q 55.71875 40.765625 55.71875 27.296875 
Q 55.71875 13.875 49.015625 6.21875 
Q 42.328125 -1.421875 30.609375 -1.421875 
Q 18.84375 -1.421875 12.171875 6.21875 
Q 5.515625 13.875 5.515625 27.296875 
Q 5.515625 40.765625 12.171875 48.375 
Q 18.84375 56 30.609375 56 
z
" id="DejaVuSans-111"/>
      <path d="M 48.78125 52.59375 
L 48.78125 44.1875 
Q 44.96875 46.296875 41.140625 47.34375 
Q 37.3125 48.390625 33.40625 48.390625 
Q 24.65625 48.390625 19.8125 42.84375 
Q 14.984375 37.3125 14.984375 27.296875 
Q 14.984375 17.28125 19.8125 11.734375 
Q 24.65625 6.203125 33.40625 6.203125 
Q 37.3125 6.203125 41.140625 7.25 
Q 44.96875 8.296875 48.78125 10.40625 
L 48.78125 2.09375 
Q 45.015625 0.34375 40.984375 -0.53125 
Q 36.96875 -1.421875 32.421875 -1.421875 
Q 20.0625 -1.421875 12.78125 6.34375 
Q 5.515625 14.109375 5.515625 27.296875 
Q 5.515625 40.671875 12.859375 48.328125 
Q 20.21875 56 33.015625 56 
Q 37.15625 56 41.109375 55.140625 
Q 45.0625 54.296875 48.78125 52.59375 
z
" id="DejaVuSans-99"/>
      <path d="M 37.109375 75.984375 
L 37.109375 68.5 
L 28.515625 68.5 
Q 23.6875 68.5 21.796875 66.546875 
Q 19.921875 64.59375 19.921875 59.515625 
L 19.921875 54.6875 
L 34.71875 54.6875 
L 34.71875 47.703125 
L 19.921875 47.703125 
L 19.921875 0 
L 10.890625 0 
L 10.890625 47.703125 
L 2.296875 47.703125 
L 2.296875 54.6875 
L 10.890625 54.6875 
L 10.890625 58.5 
Q 10.890625 67.625 15.140625 71.796875 
Q 19.390625 75.984375 28.609375 75.984375 
z
" id="DejaVuSans-102"/>
      <path d="M 3.328125 72.90625 
L 13.28125 72.90625 
L 28.609375 11.28125 
L 43.890625 72.90625 
L 54.984375 72.90625 
L 70.3125 11.28125 
L 85.59375 72.90625 
L 95.609375 72.90625 
L 77.296875 0 
L 64.890625 0 
L 49.515625 63.28125 
L 33.984375 0 
L 21.578125 0 
z
" id="DejaVuSans-87"/>
      <path d="M 54.890625 33.015625 
L 54.890625 0 
L 45.90625 0 
L 45.90625 32.71875 
Q 45.90625 40.484375 42.875 44.328125 
Q 39.84375 48.1875 33.796875 48.1875 
Q 26.515625 48.1875 22.3125 43.546875 
Q 18.109375 38.921875 18.109375 30.90625 
L 18.109375 0 
L 9.078125 0 
L 9.078125 54.6875 
L 18.109375 54.6875 
L 18.109375 46.1875 
Q 21.34375 51.125 25.703125 53.5625 
Q 30.078125 56 35.796875 56 
Q 45.21875 56 50.046875 50.171875 
Q 54.890625 44.34375 54.890625 33.015625 
z
" id="DejaVuSans-110"/>
      <path d="M 45.40625 46.390625 
L 45.40625 75.984375 
L 54.390625 75.984375 
L 54.390625 0 
L 45.40625 0 
L 45.40625 8.203125 
Q 42.578125 3.328125 38.25 0.953125 
Q 33.9375 -1.421875 27.875 -1.421875 
Q 17.96875 -1.421875 11.734375 6.484375 
Q 5.515625 14.40625 5.515625 27.296875 
Q 5.515625 40.1875 11.734375 48.09375 
Q 17.96875 56 27.875 56 
Q 33.9375 56 38.25 53.625 
Q 42.578125 51.265625 45.40625 46.390625 
z
M 14.796875 27.296875 
Q 14.796875 17.390625 18.875 11.75 
Q 22.953125 6.109375 30.078125 6.109375 
Q 37.203125 6.109375 41.296875 11.75 
Q 45.40625 17.390625 45.40625 27.296875 
Q 45.40625 37.203125 41.296875 42.84375 
Q 37.203125 48.484375 30.078125 48.484375 
Q 22.953125 48.484375 18.875 42.84375 
Q 14.796875 37.203125 14.796875 27.296875 
z
" id="DejaVuSans-100"/>
      <path d="M 34.1875 63.1875 
L 20.796875 26.90625 
L 47.609375 26.90625 
z
M 28.609375 72.90625 
L 39.796875 72.90625 
L 67.578125 0 
L 57.328125 0 
L 50.6875 18.703125 
L 17.828125 18.703125 
L 11.1875 0 
L 0.78125 0 
z
" id="DejaVuSans-65"/>
      <path d="M 9.421875 54.6875 
L 18.40625 54.6875 
L 18.40625 0 
L 9.421875 0 
z
M 9.421875 75.984375 
L 18.40625 75.984375 
L 18.40625 64.59375 
L 9.421875 64.59375 
z
" id="DejaVuSans-105"/>
     </defs>
     <use xlink:href="#DejaVuSans-76"/>
     <use x="55.712891" xlink:href="#DejaVuSans-97"/>
     <use x="116.992188" xlink:href="#DejaVuSans-107"/>
     <use x="171.277344" xlink:href="#DejaVuSans-101"/>
     <use x="232.800781" xlink:href="#DejaVuSans-32"/>
     <use x="264.587891" xlink:href="#DejaVuSans-83"/>
     <use x="328.064453" xlink:href="#DejaVuSans-104"/>
     <use x="391.443359" xlink:href="#DejaVuSans-111"/>
     <use x="452.625" xlink:href="#DejaVuSans-101"/>
     <use x="514.148438" xlink:href="#DejaVuSans-99"/>
     <use x="569.128906" xlink:href="#DejaVuSans-114"/>
     <use x="610.242188" xlink:href="#DejaVuSans-97"/>
     <use x="671.521484" xlink:href="#DejaVuSans-102"/>
     <use x="704.976562" xlink:href="#DejaVuSans-116"/>
     <use x="744.185547" xlink:href="#DejaVuSans-32"/>
     <use x="775.972656" xlink:href="#DejaVuSans-45"/>
     <use x="812.056641" xlink:href="#DejaVuSans-32"/>
     <use x="843.84375" xlink:href="#DejaVuSans-87"/>
     <use x="936.345703" xlink:href="#DejaVuSans-97"/>
     <use x="997.625" xlink:href="#DejaVuSans-116"/>
     <use x="1036.833984" xlink:href="#DejaVuSans-101"/>
     <use x="1098.357422" xlink:href="#DejaVuSans-114"/>
     <use x="1139.470703" xlink:href="#DejaVuSans-32"/>
     <use x="1171.257812" xlink:href="#DejaVuSans-97"/>
     <use x="1232.537109" xlink:href="#DejaVuSans-110"/>
     <use x="1295.916016" xlink:href="#DejaVuSans-100"/>
     <use x="1359.392578" xlink:href="#DejaVuSans-32"/>
     <use x="1391.179688" xlink:href="#DejaVuSans-65"/>
     <use x="1459.587891" xlink:href="#DejaVuSans-105"/>
     <use x="1487.371094" xlink:href="#DejaVuSans-114"/>
     <use x="1528.484375" xlink:href="#DejaVuSans-32"/>
     <use x="1560.271484" xlink:href="#DejaVuSans-84"/>
     <use x="1604.355469" xlink:href="#DejaVuSans-101"/>
     <use x="1665.878906" xlink:href="#DejaVuSans-109"/>
     <use x="1763.291016" xlink:href="#DejaVuSans-112"/>
     <use x="1826.767578" xlink:href="#DejaVuSans-101"/>
     <use x="1888.291016" xlink:href="#DejaVuSans-114"/>
     <use x="1929.404297" xlink:href="#DejaVuSans-97"/>
     <use x="1990.683594" xlink:href="#DejaVuSans-116"/>
     <use x="2029.892578" xlink:href="#DejaVuSans-117"/>
     <use x="2093.271484" xlink:href="#DejaVuSans-114"/>
     <use x="2132.134766" xlink:href="#DejaVuSans-101"/>
    </g>
   </g>
   <g id="legend_1">
    <g id="patch_7">
     <path d="M 51.66 62.79625 
L 136.769375 62.79625 
Q 138.769375 62.79625 138.769375 60.79625 
L 138.769375 32.44 
Q 138.769375 30.44 136.769375 30.44 
L 51.66 30.44 
Q 49.66 30.44 49.66 32.44 
L 49.66 60.79625 
Q 49.66 62.79625 51.66 62.79625 
z
" style="fill:#ffffff;opacity:0.8;stroke:#cccccc;stroke-linejoin:miter;"/>
    </g>
    <g id="line2d_31">
     <path d="M 53.66 38.538437 
L 73.66 38.538437 
" style="fill:none;stroke:#1f77b4;stroke-linecap:square;stroke-width:1.5;"/>
    </g>
    <g id="line2d_32"/>
    <g id="text_18">
     <!-- Lake Temp -->
     <g transform="translate(81.66 42.038437)scale(0.1 -0.1)">
      <use xlink:href="#DejaVuSans-76"/>
      <use x="55.712891" xlink:href="#DejaVuSans-97"/>
      <use x="116.992188" xlink:href="#DejaVuSans-107"/>
      <use x="171.277344" xlink:href="#DejaVuSans-101"/>
      <use x="232.800781" xlink:href="#DejaVuSans-32"/>
      <use x="264.587891" xlink:href="#DejaVuSans-84"/>
      <use x="308.671875" xlink:href="#DejaVuSans-101"/>
      <use x="370.195312" xlink:href="#DejaVuSans-109"/>
      <use x="467.607422" xlink:href="#DejaVuSans-112"/>
     </g>
    </g>
    <g id="line2d_33">
     <path d="M 53.66 53.216562 
L 73.66 53.216562 
" style="fill:none;stroke:#ff7f0e;stroke-linecap:square;stroke-width:1.5;"/>
    </g>
    <g id="line2d_34"/>
    <g id="text_19">
     <!-- Air Temp -->
     <g transform="translate(81.66 56.716562)scale(0.1 -0.1)">
      <use xlink:href="#DejaVuSans-65"/>
      <use x="68.408203" xlink:href="#DejaVuSans-105"/>
      <use x="96.191406" xlink:href="#DejaVuSans-114"/>
      <use x="137.304688" xlink:href="#DejaVuSans-32"/>
      <use x="169.091797" xlink:href="#DejaVuSans-84"/>
      <use x="213.175781" xlink:href="#DejaVuSans-101"/>
      <use x="274.699219" xlink:href="#DejaVuSans-109"/>
      <use x="372.111328" xlink:href="#DejaVuSans-112"/>
     </g>
    </g>
   </g>
  </g>
 </g>
 <defs>
  <clipPath id="pc155bcd44e">
   <rect height="230.198708" width="396.856951" x="44.66" y="25.44"/>
  </clipPath>
 </defs>
</svg>
