<?xml version="1.0" encoding="utf-8" standalone="no"?>
<!DOCTYPE svg PUBLIC "-//W3C//DTD SVG 1.1//EN"
  "http://www.w3.org/Graphics/SVG/1.1/DTD/svg11.dtd">
<!-- Created with matplotlib (https://matplotlib.org/) -->
<svg height="345.6pt" version="1.1" viewBox="0 0 460.8 345.6" width="460.8pt" xmlns="http://www.w3.org/2000/svg" xmlns:xlink="http://www.w3.org/1999/xlink">
 <metadata>
  <rdf:RDF xmlns:cc="http://creativecommons.org/ns#" xmlns:dc="http://purl.org/dc/elements/1.1/" xmlns:rdf="http://www.w3.org/1999/02/22-rdf-syntax-ns#">
   <cc:Work>
    <dc:type rdf:resource="http://purl.org/dc/dcmitype/StillImage"/>
    <dc:date>2024-09-03T21:56:14.165549</dc:date>
    <dc:format>image/svg+xml</dc:format>
    <dc:creator>
     <cc:Agent>
      <dc:title>Matplotlib v3.3.2, https://matplotlib.org/</dc:title>
     </cc:Agent>
    </dc:creator>
   </cc:Work>
  </rdf:RDF>
 </metadata>
 <defs>
  <style type="text/css">*{stroke-linecap:butt;stroke-linejoin:round;}</style>
 </defs>
 <g id="figure_1">
  <g id="patch_1">
   <path d="M 0 345.6 
L 460.8 345.6 
L 460.8 0 
L 0 0 
z
" style="fill:none;"/>
  </g>
  <g id="axes_1">
   <g id="patch_2">
    <path d="M 44.66 255.638708 
L 447.746089 255.638708 
L 447.746089 25.44 
L 44.66 25.44 
z
" style="fill:none;"/>
   </g>
   <g id="matplotlib.axis_1">
    <g id="xtick_1">
     <g id="line2d_1">
      <path clip-path="url(#pa089cd755d)" d="M 84.112078 255.638708 
L 84.112078 25.44 
" style="fill:none;stroke:#b0b0b0;stroke-linecap:square;stroke-width:0.8;"/>
     </g>
     <g id="line2d_2">
      <defs>
       <path d="M 0 0 
L 0 3.5 
" id="m21bdc6e2a5" style="stroke:#000000;stroke-width:0.8;"/>
      </defs>
      <g>
       <use style="stroke:#000000;stroke-width:0.8;" x="84.112078" xlink:href="#m21bdc6e2a5" y="255.638708"/>
      </g>
     </g>
     <g id="text_1">
      <!-- 2024-08-28 -->
      <g transform="translate(76.766685 319.848351)rotate(-70)scale(0.1 -0.1)">
       <defs>
        <path d="M 19.1875 8.296875 
L 53.609375 8.296875 
L 53.609375 0 
L 7.328125 0 
L 7.328125 8.296875 
Q 12.9375 14.109375 22.625 23.890625 
Q 32.328125 33.6875 34.8125 36.53125 
Q 39.546875 41.84375 41.421875 45.53125 
Q 43.3125 49.21875 43.3125 52.78125 
Q 43.3125 58.59375 39.234375 62.25 
Q 35.15625 65.921875 28.609375 65.921875 
Q 23.96875 65.921875 18.8125 64.3125 
Q 13.671875 62.703125 7.8125 59.421875 
L 7.8125 69.390625 
Q 13.765625 71.78125 18.9375 73 
Q 24.125 74.21875 28.421875 74.21875 
Q 39.75 74.21875 46.484375 68.546875 
Q 53.21875 62.890625 53.21875 53.421875 
Q 53.21875 48.921875 51.53125 44.890625 
Q 49.859375 40.875 45.40625 35.40625 
Q 44.1875 33.984375 37.640625 27.21875 
Q 31.109375 20.453125 19.1875 8.296875 
z
" id="DejaVuSans-50"/>
        <path d="M 31.78125 66.40625 
Q 24.171875 66.40625 20.328125 58.90625 
Q 16.5 51.421875 16.5 36.375 
Q 16.5 21.390625 20.328125 13.890625 
Q 24.171875 6.390625 31.78125 6.390625 
Q 39.453125 6.390625 43.28125 13.890625 
Q 47.125 21.390625 47.125 36.375 
Q 47.125 51.421875 43.28125 58.90625 
Q 39.453125 66.40625 31.78125 66.40625 
z
M 31.78125 74.21875 
Q 44.046875 74.21875 50.515625 64.515625 
Q 56.984375 54.828125 56.984375 36.375 
Q 56.984375 17.96875 50.515625 8.265625 
Q 44.046875 -1.421875 31.78125 -1.421875 
Q 19.53125 -1.421875 13.0625 8.265625 
Q 6.59375 17.96875 6.59375 36.375 
Q 6.59375 54.828125 13.0625 64.515625 
Q 19.53125 74.21875 31.78125 74.21875 
z
" id="DejaVuSans-48"/>
        <path d="M 37.796875 64.3125 
L 12.890625 25.390625 
L 37.796875 25.390625 
z
M 35.203125 72.90625 
L 47.609375 72.90625 
L 47.609375 25.390625 
L 58.015625 25.390625 
L 58.015625 17.1875 
L 47.609375 17.1875 
L 47.609375 0 
L 37.796875 0 
L 37.796875 17.1875 
L 4.890625 17.1875 
L 4.890625 26.703125 
z
" id="DejaVuSans-52"/>
        <path d="M 4.890625 31.390625 
L 31.203125 31.390625 
L 31.203125 23.390625 
L 4.890625 23.390625 
z
" id="DejaVuSans-45"/>
        <path d="M 31.78125 34.625 
Q 24.75 34.625 20.71875 30.859375 
Q 16.703125 27.09375 16.703125 20.515625 
Q 16.703125 13.921875 20.71875 10.15625 
Q 24.75 6.390625 31.78125 6.390625 
Q 38.8125 6.390625 42.859375 10.171875 
Q 46.921875 13.96875 46.921875 20.515625 
Q 46.921875 27.09375 42.890625 30.859375 
Q 38.875 34.625 31.78125 34.625 
z
M 21.921875 38.8125 
Q 15.578125 40.375 12.03125 44.71875 
Q 8.5 49.078125 8.5 55.328125 
Q 8.5 64.0625 14.71875 69.140625 
Q 20.953125 74.21875 31.78125 74.21875 
Q 42.671875 74.21875 48.875 69.140625 
Q 55.078125 64.0625 55.078125 55.328125 
Q 55.078125 49.078125 51.53125 44.71875 
Q 48 40.375 41.703125 38.8125 
Q 48.828125 37.15625 52.796875 32.3125 
Q 56.78125 27.484375 56.78125 20.515625 
Q 56.78125 9.90625 50.3125 4.234375 
Q 43.84375 -1.421875 31.78125 -1.421875 
Q 19.734375 -1.421875 13.25 4.234375 
Q 6.78125 9.90625 6.78125 20.515625 
Q 6.78125 27.484375 10.78125 32.3125 
Q 14.796875 37.15625 21.921875 38.8125 
z
M 18.3125 54.390625 
Q 18.3125 48.734375 21.84375 45.5625 
Q 25.390625 42.390625 31.78125 42.390625 
Q 38.140625 42.390625 41.71875 45.5625 
Q 45.3125 48.734375 45.3125 54.390625 
Q 45.3125 60.0625 41.71875 63.234375 
Q 38.140625 66.40625 31.78125 66.40625 
Q 25.390625 66.40625 21.84375 63.234375 
Q 18.3125 60.0625 18.3125 54.390625 
z
" id="DejaVuSans-56"/>
       </defs>
       <use xlink:href="#DejaVuSans-50"/>
       <use x="63.623047" xlink:href="#DejaVuSans-48"/>
       <use x="127.246094" xlink:href="#DejaVuSans-50"/>
       <use x="190.869141" xlink:href="#DejaVuSans-52"/>
       <use x="254.492188" xlink:href="#DejaVuSans-45"/>
       <use x="290.576172" xlink:href="#DejaVuSans-48"/>
       <use x="354.199219" xlink:href="#DejaVuSans-56"/>
       <use x="417.822266" xlink:href="#DejaVuSans-45"/>
       <use x="453.90625" xlink:href="#DejaVuSans-50"/>
       <use x="517.529297" xlink:href="#DejaVuSans-56"/>
      </g>
     </g>
    </g>
    <g id="xtick_2">
     <g id="line2d_3">
      <path clip-path="url(#pa089cd755d)" d="M 134.056382 255.638708 
L 134.056382 25.44 
" style="fill:none;stroke:#b0b0b0;stroke-linecap:square;stroke-width:0.8;"/>
     </g>
     <g id="line2d_4">
      <g>
       <use style="stroke:#000000;stroke-width:0.8;" x="134.056382" xlink:href="#m21bdc6e2a5" y="255.638708"/>
      </g>
     </g>
     <g id="text_2">
      <!-- 2024-08-29 -->
      <g transform="translate(126.710989 319.848351)rotate(-70)scale(0.1 -0.1)">
       <defs>
        <path d="M 10.984375 1.515625 
L 10.984375 10.5 
Q 14.703125 8.734375 18.5 7.8125 
Q 22.3125 6.890625 25.984375 6.890625 
Q 35.75 6.890625 40.890625 13.453125 
Q 46.046875 20.015625 46.78125 33.40625 
Q 43.953125 29.203125 39.59375 26.953125 
Q 35.25 24.703125 29.984375 24.703125 
Q 19.046875 24.703125 12.671875 31.3125 
Q 6.296875 37.9375 6.296875 49.421875 
Q 6.296875 60.640625 12.9375 67.421875 
Q 19.578125 74.21875 30.609375 74.21875 
Q 43.265625 74.21875 49.921875 64.515625 
Q 56.59375 54.828125 56.59375 36.375 
Q 56.59375 19.140625 48.40625 8.859375 
Q 40.234375 -1.421875 26.421875 -1.421875 
Q 22.703125 -1.421875 18.890625 -0.6875 
Q 15.09375 0.046875 10.984375 1.515625 
z
M 30.609375 32.421875 
Q 37.25 32.421875 41.125 36.953125 
Q 45.015625 41.5 45.015625 49.421875 
Q 45.015625 57.28125 41.125 61.84375 
Q 37.25 66.40625 30.609375 66.40625 
Q 23.96875 66.40625 20.09375 61.84375 
Q 16.21875 57.28125 16.21875 49.421875 
Q 16.21875 41.5 20.09375 36.953125 
Q 23.96875 32.421875 30.609375 32.421875 
z
" id="DejaVuSans-57"/>
       </defs>
       <use xlink:href="#DejaVuSans-50"/>
       <use x="63.623047" xlink:href="#DejaVuSans-48"/>
       <use x="127.246094" xlink:href="#DejaVuSans-50"/>
       <use x="190.869141" xlink:href="#DejaVuSans-52"/>
       <use x="254.492188" xlink:href="#DejaVuSans-45"/>
       <use x="290.576172" xlink:href="#DejaVuSans-48"/>
       <use x="354.199219" xlink:href="#DejaVuSans-56"/>
       <use x="417.822266" xlink:href="#DejaVuSans-45"/>
       <use x="453.90625" xlink:href="#DejaVuSans-50"/>
       <use x="517.529297" xlink:href="#DejaVuSans-57"/>
      </g>
     </g>
    </g>
    <g id="xtick_3">
     <g id="line2d_5">
      <path clip-path="url(#pa089cd755d)" d="M 184.000686 255.638708 
L 184.000686 25.44 
" style="fill:none;stroke:#b0b0b0;stroke-linecap:square;stroke-width:0.8;"/>
     </g>
     <g id="line2d_6">
      <g>
       <use style="stroke:#000000;stroke-width:0.8;" x="184.000686" xlink:href="#m21bdc6e2a5" y="255.638708"/>
      </g>
     </g>
     <g id="text_3">
      <!-- 2024-08-30 -->
      <g transform="translate(176.655293 319.848351)rotate(-70)scale(0.1 -0.1)">
       <defs>
        <path d="M 40.578125 39.3125 
Q 47.65625 37.796875 51.625 33 
Q 55.609375 28.21875 55.609375 21.1875 
Q 55.609375 10.40625 48.1875 4.484375 
Q 40.765625 -1.421875 27.09375 -1.421875 
Q 22.515625 -1.421875 17.65625 -0.515625 
Q 12.796875 0.390625 7.625 2.203125 
L 7.625 11.71875 
Q 11.71875 9.328125 16.59375 8.109375 
Q 21.484375 6.890625 26.8125 6.890625 
Q 36.078125 6.890625 40.9375 10.546875 
Q 45.796875 14.203125 45.796875 21.1875 
Q 45.796875 27.640625 41.28125 31.265625 
Q 36.765625 34.90625 28.71875 34.90625 
L 20.21875 34.90625 
L 20.21875 43.015625 
L 29.109375 43.015625 
Q 36.375 43.015625 40.234375 45.921875 
Q 44.09375 48.828125 44.09375 54.296875 
Q 44.09375 59.90625 40.109375 62.90625 
Q 36.140625 65.921875 28.71875 65.921875 
Q 24.65625 65.921875 20.015625 65.03125 
Q 15.375 64.15625 9.8125 62.3125 
L 9.8125 71.09375 
Q 15.4375 72.65625 20.34375 73.4375 
Q 25.25 74.21875 29.59375 74.21875 
Q 40.828125 74.21875 47.359375 69.109375 
Q 53.90625 64.015625 53.90625 55.328125 
Q 53.90625 49.265625 50.4375 45.09375 
Q 46.96875 40.921875 40.578125 39.3125 
z
" id="DejaVuSans-51"/>
       </defs>
       <use xlink:href="#DejaVuSans-50"/>
       <use x="63.623047" xlink:href="#DejaVuSans-48"/>
       <use x="127.246094" xlink:href="#DejaVuSans-50"/>
       <use x="190.869141" xlink:href="#DejaVuSans-52"/>
       <use x="254.492188" xlink:href="#DejaVuSans-45"/>
       <use x="290.576172" xlink:href="#DejaVuSans-48"/>
       <use x="354.199219" xlink:href="#DejaVuSans-56"/>
       <use x="417.822266" xlink:href="#DejaVuSans-45"/>
       <use x="453.90625" xlink:href="#DejaVuSans-51"/>
       <use x="517.529297" xlink:href="#DejaVuSans-48"/>
      </g>
     </g>
    </g>
    <g id="xtick_4">
     <g id="line2d_7">
      <path clip-path="url(#pa089cd755d)" d="M 233.944989 255.638708 
L 233.944989 25.44 
" style="fill:none;stroke:#b0b0b0;stroke-linecap:square;stroke-width:0.8;"/>
     </g>
     <g id="line2d_8">
      <g>
       <use style="stroke:#000000;stroke-width:0.8;" x="233.944989" xlink:href="#m21bdc6e2a5" y="255.638708"/>
      </g>
     </g>
     <g id="text_4">
      <!-- 2024-08-31 -->
      <g transform="translate(226.599596 319.848351)rotate(-70)scale(0.1 -0.1)">
       <defs>
        <path d="M 12.40625 8.296875 
L 28.515625 8.296875 
L 28.515625 63.921875 
L 10.984375 60.40625 
L 10.984375 69.390625 
L 28.421875 72.90625 
L 38.28125 72.90625 
L 38.28125 8.296875 
L 54.390625 8.296875 
L 54.390625 0 
L 12.40625 0 
z
" id="DejaVuSans-49"/>
       </defs>
       <use xlink:href="#DejaVuSans-50"/>
       <use x="63.623047" xlink:href="#DejaVuSans-48"/>
       <use x="127.246094" xlink:href="#DejaVuSans-50"/>
       <use x="190.869141" xlink:href="#DejaVuSans-52"/>
       <use x="254.492188" xlink:href="#DejaVuSans-45"/>
       <use x="290.576172" xlink:href="#DejaVuSans-48"/>
       <use x="354.199219" xlink:href="#DejaVuSans-56"/>
       <use x="417.822266" xlink:href="#DejaVuSans-45"/>
       <use x="453.90625" xlink:href="#DejaVuSans-51"/>
       <use x="517.529297" xlink:href="#DejaVuSans-49"/>
      </g>
     </g>
    </g>
    <g id="xtick_5">
     <g id="line2d_9">
      <path clip-path="url(#pa089cd755d)" d="M 283.889293 255.638708 
L 283.889293 25.44 
" style="fill:none;stroke:#b0b0b0;stroke-linecap:square;stroke-width:0.8;"/>
     </g>
     <g id="line2d_10">
      <g>
       <use style="stroke:#000000;stroke-width:0.8;" x="283.889293" xlink:href="#m21bdc6e2a5" y="255.638708"/>
      </g>
     </g>
     <g id="text_5">
      <!-- 2024-09-01 -->
      <g transform="translate(276.5439 319.848351)rotate(-70)scale(0.1 -0.1)">
       <use xlink:href="#DejaVuSans-50"/>
       <use x="63.623047" xlink:href="#DejaVuSans-48"/>
       <use x="127.246094" xlink:href="#DejaVuSans-50"/>
       <use x="190.869141" xlink:href="#DejaVuSans-52"/>
       <use x="254.492188" xlink:href="#DejaVuSans-45"/>
       <use x="290.576172" xlink:href="#DejaVuSans-48"/>
       <use x="354.199219" xlink:href="#DejaVuSans-57"/>
       <use x="417.822266" xlink:href="#DejaVuSans-45"/>
       <use x="453.90625" xlink:href="#DejaVuSans-48"/>
       <use x="517.529297" xlink:href="#DejaVuSans-49"/>
      </g>
     </g>
    </g>
    <g id="xtick_6">
     <g id="line2d_11">
      <path clip-path="url(#pa089cd755d)" d="M 333.833597 255.638708 
L 333.833597 25.44 
" style="fill:none;stroke:#b0b0b0;stroke-linecap:square;stroke-width:0.8;"/>
     </g>
     <g id="line2d_12">
      <g>
       <use style="stroke:#000000;stroke-width:0.8;" x="333.833597" xlink:href="#m21bdc6e2a5" y="255.638708"/>
      </g>
     </g>
     <g id="text_6">
      <!-- 2024-09-02 -->
      <g transform="translate(326.488204 319.848351)rotate(-70)scale(0.1 -0.1)">
       <use xlink:href="#DejaVuSans-50"/>
       <use x="63.623047" xlink:href="#DejaVuSans-48"/>
       <use x="127.246094" xlink:href="#DejaVuSans-50"/>
       <use x="190.869141" xlink:href="#DejaVuSans-52"/>
       <use x="254.492188" xlink:href="#DejaVuSans-45"/>
       <use x="290.576172" xlink:href="#DejaVuSans-48"/>
       <use x="354.199219" xlink:href="#DejaVuSans-57"/>
       <use x="417.822266" xlink:href="#DejaVuSans-45"/>
       <use x="453.90625" xlink:href="#DejaVuSans-48"/>
       <use x="517.529297" xlink:href="#DejaVuSans-50"/>
      </g>
     </g>
    </g>
    <g id="xtick_7">
     <g id="line2d_13">
      <path clip-path="url(#pa089cd755d)" d="M 383.7779 255.638708 
L 383.7779 25.44 
" style="fill:none;stroke:#b0b0b0;stroke-linecap:square;stroke-width:0.8;"/>
     </g>
     <g id="line2d_14">
      <g>
       <use style="stroke:#000000;stroke-width:0.8;" x="383.7779" xlink:href="#m21bdc6e2a5" y="255.638708"/>
      </g>
     </g>
     <g id="text_7">
      <!-- 2024-09-03 -->
      <g transform="translate(376.432508 319.848351)rotate(-70)scale(0.1 -0.1)">
       <use xlink:href="#DejaVuSans-50"/>
       <use x="63.623047" xlink:href="#DejaVuSans-48"/>
       <use x="127.246094" xlink:href="#DejaVuSans-50"/>
       <use x="190.869141" xlink:href="#DejaVuSans-52"/>
       <use x="254.492188" xlink:href="#DejaVuSans-45"/>
       <use x="290.576172" xlink:href="#DejaVuSans-48"/>
       <use x="354.199219" xlink:href="#DejaVuSans-57"/>
       <use x="417.822266" xlink:href="#DejaVuSans-45"/>
       <use x="453.90625" xlink:href="#DejaVuSans-48"/>
       <use x="517.529297" xlink:href="#DejaVuSans-51"/>
      </g>
     </g>
    </g>
    <g id="xtick_8">
     <g id="line2d_15">
      <path clip-path="url(#pa089cd755d)" d="M 433.722204 255.638708 
L 433.722204 25.44 
" style="fill:none;stroke:#b0b0b0;stroke-linecap:square;stroke-width:0.8;"/>
     </g>
     <g id="line2d_16">
      <g>
       <use style="stroke:#000000;stroke-width:0.8;" x="433.722204" xlink:href="#m21bdc6e2a5" y="255.638708"/>
      </g>
     </g>
     <g id="text_8">
      <!-- 2024-09-04 -->
      <g transform="translate(426.376811 319.848351)rotate(-70)scale(0.1 -0.1)">
       <use xlink:href="#DejaVuSans-50"/>
       <use x="63.623047" xlink:href="#DejaVuSans-48"/>
       <use x="127.246094" xlink:href="#DejaVuSans-50"/>
       <use x="190.869141" xlink:href="#DejaVuSans-52"/>
       <use x="254.492188" xlink:href="#DejaVuSans-45"/>
       <use x="290.576172" xlink:href="#DejaVuSans-48"/>
       <use x="354.199219" xlink:href="#DejaVuSans-57"/>
       <use x="417.822266" xlink:href="#DejaVuSans-45"/>
       <use x="453.90625" xlink:href="#DejaVuSans-48"/>
       <use x="517.529297" xlink:href="#DejaVuSans-52"/>
      </g>
     </g>
    </g>
    <g id="text_9">
     <!-- Date -->
     <g transform="translate(234.252263 332.158083)scale(0.1 -0.1)">
      <defs>
       <path d="M 19.671875 64.796875 
L 19.671875 8.109375 
L 31.59375 8.109375 
Q 46.6875 8.109375 53.6875 14.9375 
Q 60.6875 21.78125 60.6875 36.53125 
Q 60.6875 51.171875 53.6875 57.984375 
Q 46.6875 64.796875 31.59375 64.796875 
z
M 9.8125 72.90625 
L 30.078125 72.90625 
Q 51.265625 72.90625 61.171875 64.09375 
Q 71.09375 55.28125 71.09375 36.53125 
Q 71.09375 17.671875 61.125 8.828125 
Q 51.171875 0 30.078125 0 
L 9.8125 0 
z
" id="DejaVuSans-68"/>
       <path d="M 34.28125 27.484375 
Q 23.390625 27.484375 19.1875 25 
Q 14.984375 22.515625 14.984375 16.5 
Q 14.984375 11.71875 18.140625 8.90625 
Q 21.296875 6.109375 26.703125 6.109375 
Q 34.1875 6.109375 38.703125 11.40625 
Q 43.21875 16.703125 43.21875 25.484375 
L 43.21875 27.484375 
z
M 52.203125 31.203125 
L 52.203125 0 
L 43.21875 0 
L 43.21875 8.296875 
Q 40.140625 3.328125 35.546875 0.953125 
Q 30.953125 -1.421875 24.3125 -1.421875 
Q 15.921875 -1.421875 10.953125 3.296875 
Q 6 8.015625 6 15.921875 
Q 6 25.140625 12.171875 29.828125 
Q 18.359375 34.515625 30.609375 34.515625 
L 43.21875 34.515625 
L 43.21875 35.40625 
Q 43.21875 41.609375 39.140625 45 
Q 35.0625 48.390625 27.6875 48.390625 
Q 23 48.390625 18.546875 47.265625 
Q 14.109375 46.140625 10.015625 43.890625 
L 10.015625 52.203125 
Q 14.9375 54.109375 19.578125 55.046875 
Q 24.21875 56 28.609375 56 
Q 40.484375 56 46.34375 49.84375 
Q 52.203125 43.703125 52.203125 31.203125 
z
" id="DejaVuSans-97"/>
       <path d="M 18.3125 70.21875 
L 18.3125 54.6875 
L 36.8125 54.6875 
L 36.8125 47.703125 
L 18.3125 47.703125 
L 18.3125 18.015625 
Q 18.3125 11.328125 20.140625 9.421875 
Q 21.96875 7.515625 27.59375 7.515625 
L 36.8125 7.515625 
L 36.8125 0 
L 27.59375 0 
Q 17.1875 0 13.234375 3.875 
Q 9.28125 7.765625 9.28125 18.015625 
L 9.28125 47.703125 
L 2.6875 47.703125 
L 2.6875 54.6875 
L 9.28125 54.6875 
L 9.28125 70.21875 
z
" id="DejaVuSans-116"/>
       <path d="M 56.203125 29.59375 
L 56.203125 25.203125 
L 14.890625 25.203125 
Q 15.484375 15.921875 20.484375 11.0625 
Q 25.484375 6.203125 34.421875 6.203125 
Q 39.59375 6.203125 44.453125 7.46875 
Q 49.3125 8.734375 54.109375 11.28125 
L 54.109375 2.78125 
Q 49.265625 0.734375 44.1875 -0.34375 
Q 39.109375 -1.421875 33.890625 -1.421875 
Q 20.796875 -1.421875 13.15625 6.1875 
Q 5.515625 13.8125 5.515625 26.8125 
Q 5.515625 40.234375 12.765625 48.109375 
Q 20.015625 56 32.328125 56 
Q 43.359375 56 49.78125 48.890625 
Q 56.203125 41.796875 56.203125 29.59375 
z
M 47.21875 32.234375 
Q 47.125 39.59375 43.09375 43.984375 
Q 39.0625 48.390625 32.421875 48.390625 
Q 24.90625 48.390625 20.390625 44.140625 
Q 15.875 39.890625 15.1875 32.171875 
z
" id="DejaVuSans-101"/>
      </defs>
      <use xlink:href="#DejaVuSans-68"/>
      <use x="77.001953" xlink:href="#DejaVuSans-97"/>
      <use x="138.28125" xlink:href="#DejaVuSans-116"/>
      <use x="177.490234" xlink:href="#DejaVuSans-101"/>
     </g>
    </g>
   </g>
   <g id="matplotlib.axis_2">
    <g id="ytick_1">
     <g id="line2d_17">
      <path clip-path="url(#pa089cd755d)" d="M 44.66 232.095658 
L 447.746089 232.095658 
" style="fill:none;stroke:#b0b0b0;stroke-linecap:square;stroke-width:0.8;"/>
     </g>
     <g id="line2d_18">
      <defs>
       <path d="M 0 0 
L -3.5 0 
" id="mca3c117aa8" style="stroke:#000000;stroke-width:0.8;"/>
      </defs>
      <g>
       <use style="stroke:#000000;stroke-width:0.8;" x="44.66" xlink:href="#mca3c117aa8" y="232.095658"/>
      </g>
     </g>
     <g id="text_10">
      <!-- 60 -->
      <g transform="translate(24.935 235.894877)scale(0.1 -0.1)">
       <defs>
        <path d="M 33.015625 40.375 
Q 26.375 40.375 22.484375 35.828125 
Q 18.609375 31.296875 18.609375 23.390625 
Q 18.609375 15.53125 22.484375 10.953125 
Q 26.375 6.390625 33.015625 6.390625 
Q 39.65625 6.390625 43.53125 10.953125 
Q 47.40625 15.53125 47.40625 23.390625 
Q 47.40625 31.296875 43.53125 35.828125 
Q 39.65625 40.375 33.015625 40.375 
z
M 52.59375 71.296875 
L 52.59375 62.3125 
Q 48.875 64.0625 45.09375 64.984375 
Q 41.3125 65.921875 37.59375 65.921875 
Q 27.828125 65.921875 22.671875 59.328125 
Q 17.53125 52.734375 16.796875 39.40625 
Q 19.671875 43.65625 24.015625 45.921875 
Q 28.375 48.1875 33.59375 48.1875 
Q 44.578125 48.1875 50.953125 41.515625 
Q 57.328125 34.859375 57.328125 23.390625 
Q 57.328125 12.15625 50.6875 5.359375 
Q 44.046875 -1.421875 33.015625 -1.421875 
Q 20.359375 -1.421875 13.671875 8.265625 
Q 6.984375 17.96875 6.984375 36.375 
Q 6.984375 53.65625 15.1875 63.9375 
Q 23.390625 74.21875 37.203125 74.21875 
Q 40.921875 74.21875 44.703125 73.484375 
Q 48.484375 72.75 52.59375 71.296875 
z
" id="DejaVuSans-54"/>
       </defs>
       <use xlink:href="#DejaVuSans-54"/>
       <use x="63.623047" xlink:href="#DejaVuSans-48"/>
      </g>
     </g>
    </g>
    <g id="ytick_2">
     <g id="line2d_19">
      <path clip-path="url(#pa089cd755d)" d="M 44.66 205.936714 
L 447.746089 205.936714 
" style="fill:none;stroke:#b0b0b0;stroke-linecap:square;stroke-width:0.8;"/>
     </g>
     <g id="line2d_20">
      <g>
       <use style="stroke:#000000;stroke-width:0.8;" x="44.66" xlink:href="#mca3c117aa8" y="205.936714"/>
      </g>
     </g>
     <g id="text_11">
      <!-- 62 -->
      <g transform="translate(24.935 209.735933)scale(0.1 -0.1)">
       <use xlink:href="#DejaVuSans-54"/>
       <use x="63.623047" xlink:href="#DejaVuSans-50"/>
      </g>
     </g>
    </g>
    <g id="ytick_3">
     <g id="line2d_21">
      <path clip-path="url(#pa089cd755d)" d="M 44.66 179.77777 
L 447.746089 179.77777 
" style="fill:none;stroke:#b0b0b0;stroke-linecap:square;stroke-width:0.8;"/>
     </g>
     <g id="line2d_22">
      <g>
       <use style="stroke:#000000;stroke-width:0.8;" x="44.66" xlink:href="#mca3c117aa8" y="179.77777"/>
      </g>
     </g>
     <g id="text_12">
      <!-- 64 -->
      <g transform="translate(24.935 183.576989)scale(0.1 -0.1)">
       <use xlink:href="#DejaVuSans-54"/>
       <use x="63.623047" xlink:href="#DejaVuSans-52"/>
      </g>
     </g>
    </g>
    <g id="ytick_4">
     <g id="line2d_23">
      <path clip-path="url(#pa089cd755d)" d="M 44.66 153.618826 
L 447.746089 153.618826 
" style="fill:none;stroke:#b0b0b0;stroke-linecap:square;stroke-width:0.8;"/>
     </g>
     <g id="line2d_24">
      <g>
       <use style="stroke:#000000;stroke-width:0.8;" x="44.66" xlink:href="#mca3c117aa8" y="153.618826"/>
      </g>
     </g>
     <g id="text_13">
      <!-- 66 -->
      <g transform="translate(24.935 157.418045)scale(0.1 -0.1)">
       <use xlink:href="#DejaVuSans-54"/>
       <use x="63.623047" xlink:href="#DejaVuSans-54"/>
      </g>
     </g>
    </g>
    <g id="ytick_5">
     <g id="line2d_25">
      <path clip-path="url(#pa089cd755d)" d="M 44.66 127.459882 
L 447.746089 127.459882 
" style="fill:none;stroke:#b0b0b0;stroke-linecap:square;stroke-width:0.8;"/>
     </g>
     <g id="line2d_26">
      <g>
       <use style="stroke:#000000;stroke-width:0.8;" x="44.66" xlink:href="#mca3c117aa8" y="127.459882"/>
      </g>
     </g>
     <g id="text_14">
      <!-- 68 -->
      <g transform="translate(24.935 131.259101)scale(0.1 -0.1)">
       <use xlink:href="#DejaVuSans-54"/>
       <use x="63.623047" xlink:href="#DejaVuSans-56"/>
      </g>
     </g>
    </g>
    <g id="ytick_6">
     <g id="line2d_27">
      <path clip-path="url(#pa089cd755d)" d="M 44.66 101.300938 
L 447.746089 101.300938 
" style="fill:none;stroke:#b0b0b0;stroke-linecap:square;stroke-width:0.8;"/>
     </g>
     <g id="line2d_28">
      <g>
       <use style="stroke:#000000;stroke-width:0.8;" x="44.66" xlink:href="#mca3c117aa8" y="101.300938"/>
      </g>
     </g>
     <g id="text_15">
      <!-- 70 -->
      <g transform="translate(24.935 105.100157)scale(0.1 -0.1)">
       <defs>
        <path d="M 8.203125 72.90625 
L 55.078125 72.90625 
L 55.078125 68.703125 
L 28.609375 0 
L 18.3125 0 
L 43.21875 64.59375 
L 8.203125 64.59375 
z
" id="DejaVuSans-55"/>
       </defs>
       <use xlink:href="#DejaVuSans-55"/>
       <use x="63.623047" xlink:href="#DejaVuSans-48"/>
      </g>
     </g>
    </g>
    <g id="ytick_7">
     <g id="line2d_29">
      <path clip-path="url(#pa089cd755d)" d="M 44.66 75.141994 
L 447.746089 75.141994 
" style="fill:none;stroke:#b0b0b0;stroke-linecap:square;stroke-width:0.8;"/>
     </g>
     <g id="line2d_30">
      <g>
       <use style="stroke:#000000;stroke-width:0.8;" x="44.66" xlink:href="#mca3c117aa8" y="75.141994"/>
      </g>
     </g>
     <g id="text_16">
      <!-- 72 -->
      <g transform="translate(24.935 78.941213)scale(0.1 -0.1)">
       <use xlink:href="#DejaVuSans-55"/>
       <use x="63.623047" xlink:href="#DejaVuSans-50"/>
      </g>
     </g>
    </g>
    <g id="ytick_8">
     <g id="line2d_31">
      <path clip-path="url(#pa089cd755d)" d="M 44.66 48.98305 
L 447.746089 48.98305 
" style="fill:none;stroke:#b0b0b0;stroke-linecap:square;stroke-width:0.8;"/>
     </g>
     <g id="line2d_32">
      <g>
       <use style="stroke:#000000;stroke-width:0.8;" x="44.66" xlink:href="#mca3c117aa8" y="48.98305"/>
      </g>
     </g>
     <g id="text_17">
      <!-- 74 -->
      <g transform="translate(24.935 52.782268)scale(0.1 -0.1)">
       <use xlink:href="#DejaVuSans-55"/>
       <use x="63.623047" xlink:href="#DejaVuSans-52"/>
      </g>
     </g>
    </g>
    <g id="text_18">
     <!-- Temperature [F] -->
     <g transform="translate(18.855313 180.575291)rotate(-90)scale(0.1 -0.1)">
      <defs>
       <path d="M -0.296875 72.90625 
L 61.375 72.90625 
L 61.375 64.59375 
L 35.5 64.59375 
L 35.5 0 
L 25.59375 0 
L 25.59375 64.59375 
L -0.296875 64.59375 
z
" id="DejaVuSans-84"/>
       <path d="M 52 44.1875 
Q 55.375 50.25 60.0625 53.125 
Q 64.75 56 71.09375 56 
Q 79.640625 56 84.28125 50.015625 
Q 88.921875 44.046875 88.921875 33.015625 
L 88.921875 0 
L 79.890625 0 
L 79.890625 32.71875 
Q 79.890625 40.578125 77.09375 44.375 
Q 74.3125 48.1875 68.609375 48.1875 
Q 61.625 48.1875 57.5625 43.546875 
Q 53.515625 38.921875 53.515625 30.90625 
L 53.515625 0 
L 44.484375 0 
L 44.484375 32.71875 
Q 44.484375 40.625 41.703125 44.40625 
Q 38.921875 48.1875 33.109375 48.1875 
Q 26.21875 48.1875 22.15625 43.53125 
Q 18.109375 38.875 18.109375 30.90625 
L 18.109375 0 
L 9.078125 0 
L 9.078125 54.6875 
L 18.109375 54.6875 
L 18.109375 46.1875 
Q 21.1875 51.21875 25.484375 53.609375 
Q 29.78125 56 35.6875 56 
Q 41.65625 56 45.828125 52.96875 
Q 50 49.953125 52 44.1875 
z
" id="DejaVuSans-109"/>
       <path d="M 18.109375 8.203125 
L 18.109375 -20.796875 
L 9.078125 -20.796875 
L 9.078125 54.6875 
L 18.109375 54.6875 
L 18.109375 46.390625 
Q 20.953125 51.265625 25.265625 53.625 
Q 29.59375 56 35.59375 56 
Q 45.5625 56 51.78125 48.09375 
Q 58.015625 40.1875 58.015625 27.296875 
Q 58.015625 14.40625 51.78125 6.484375 
Q 45.5625 -1.421875 35.59375 -1.421875 
Q 29.59375 -1.421875 25.265625 0.953125 
Q 20.953125 3.328125 18.109375 8.203125 
z
M 48.6875 27.296875 
Q 48.6875 37.203125 44.609375 42.84375 
Q 40.53125 48.484375 33.40625 48.484375 
Q 26.265625 48.484375 22.1875 42.84375 
Q 18.109375 37.203125 18.109375 27.296875 
Q 18.109375 17.390625 22.1875 11.75 
Q 26.265625 6.109375 33.40625 6.109375 
Q 40.53125 6.109375 44.609375 11.75 
Q 48.6875 17.390625 48.6875 27.296875 
z
" id="DejaVuSans-112"/>
       <path d="M 41.109375 46.296875 
Q 39.59375 47.171875 37.8125 47.578125 
Q 36.03125 48 33.890625 48 
Q 26.265625 48 22.1875 43.046875 
Q 18.109375 38.09375 18.109375 28.8125 
L 18.109375 0 
L 9.078125 0 
L 9.078125 54.6875 
L 18.109375 54.6875 
L 18.109375 46.1875 
Q 20.953125 51.171875 25.484375 53.578125 
Q 30.03125 56 36.53125 56 
Q 37.453125 56 38.578125 55.875 
Q 39.703125 55.765625 41.0625 55.515625 
z
" id="DejaVuSans-114"/>
       <path d="M 8.5 21.578125 
L 8.5 54.6875 
L 17.484375 54.6875 
L 17.484375 21.921875 
Q 17.484375 14.15625 20.5 10.265625 
Q 23.53125 6.390625 29.59375 6.390625 
Q 36.859375 6.390625 41.078125 11.03125 
Q 45.3125 15.671875 45.3125 23.6875 
L 45.3125 54.6875 
L 54.296875 54.6875 
L 54.296875 0 
L 45.3125 0 
L 45.3125 8.40625 
Q 42.046875 3.421875 37.71875 1 
Q 33.40625 -1.421875 27.6875 -1.421875 
Q 18.265625 -1.421875 13.375 4.4375 
Q 8.5 10.296875 8.5 21.578125 
z
M 31.109375 56 
z
" id="DejaVuSans-117"/>
       <path id="DejaVuSans-32"/>
       <path d="M 8.59375 75.984375 
L 29.296875 75.984375 
L 29.296875 69 
L 17.578125 69 
L 17.578125 -6.203125 
L 29.296875 -6.203125 
L 29.296875 -13.1875 
L 8.59375 -13.1875 
z
" id="DejaVuSans-91"/>
       <path d="M 9.8125 72.90625 
L 51.703125 72.90625 
L 51.703125 64.59375 
L 19.671875 64.59375 
L 19.671875 43.109375 
L 48.578125 43.109375 
L 48.578125 34.8125 
L 19.671875 34.8125 
L 19.671875 0 
L 9.8125 0 
z
" id="DejaVuSans-70"/>
       <path d="M 30.421875 75.984375 
L 30.421875 -13.1875 
L 9.71875 -13.1875 
L 9.71875 -6.203125 
L 21.390625 -6.203125 
L 21.390625 69 
L 9.71875 69 
L 9.71875 75.984375 
z
" id="DejaVuSans-93"/>
      </defs>
      <use xlink:href="#DejaVuSans-84"/>
      <use x="44.083984" xlink:href="#DejaVuSans-101"/>
      <use x="105.607422" xlink:href="#DejaVuSans-109"/>
      <use x="203.019531" xlink:href="#DejaVuSans-112"/>
      <use x="266.496094" xlink:href="#DejaVuSans-101"/>
      <use x="328.019531" xlink:href="#DejaVuSans-114"/>
      <use x="369.132812" xlink:href="#DejaVuSans-97"/>
      <use x="430.412109" xlink:href="#DejaVuSans-116"/>
      <use x="469.621094" xlink:href="#DejaVuSans-117"/>
      <use x="533" xlink:href="#DejaVuSans-114"/>
      <use x="571.863281" xlink:href="#DejaVuSans-101"/>
      <use x="633.386719" xlink:href="#DejaVuSans-32"/>
      <use x="665.173828" xlink:href="#DejaVuSans-91"/>
      <use x="704.1875" xlink:href="#DejaVuSans-70"/>
      <use x="761.707031" xlink:href="#DejaVuSans-93"/>
     </g>
    </g>
   </g>
   <g id="line2d_33">
    <path clip-path="url(#pa089cd755d)" d="M 62.982095 115.688357 
L 63.058322 115.688357 
L 63.130159 114.38041 
L 63.166786 115.688357 
L 63.202726 115.688357 
L 63.346689 114.38041 
L 63.418772 114.38041 
L 63.454803 115.688357 
L 63.491484 114.38041 
L 63.636384 113.072463 
L 63.854229 113.072463 
L 63.964207 111.764515 
L 64.075542 113.072463 
L 64.111386 113.072463 
L 64.183516 114.38041 
L 64.219669 113.072463 
L 64.294556 111.764515 
L 64.330526 114.38041 
L 64.402803 111.764515 
L 64.477062 111.764515 
L 64.624215 109.148621 
L 64.660025 111.764515 
L 64.69662 107.840674 
L 64.732514 107.840674 
L 64.769354 109.148621 
L 64.842392 107.840674 
L 64.987308 107.840674 
L 65.060996 106.532727 
L 65.098215 107.840674 
L 65.135234 107.840674 
L 65.172009 106.532727 
L 65.207974 109.148621 
L 65.316645 109.148621 
L 65.390062 106.532727 
L 65.42794 107.840674 
L 65.501856 106.532727 
L 65.537828 107.840674 
L 65.683027 107.840674 
L 65.830486 109.148621 
L 65.940443 109.148621 
L 66.125725 105.224779 
L 66.308993 107.840674 
L 66.457036 105.224779 
L 66.495015 105.224779 
L 66.532716 103.916832 
L 66.605064 105.224779 
L 66.641573 106.532727 
L 66.701968 105.224779 
L 66.849756 105.224779 
L 66.924187 103.916832 
L 66.960457 105.224779 
L 66.998971 105.224779 
L 67.185059 109.148621 
L 67.259766 107.840674 
L 67.336202 109.148621 
L 67.417274 109.148621 
L 67.453339 111.764515 
L 67.527207 109.148621 
L 67.635396 109.148621 
L 67.782868 107.840674 
L 67.856848 109.148621 
L 67.96596 107.840674 
L 68.040736 111.764515 
L 68.150099 107.840674 
L 68.228617 111.764515 
L 68.264485 109.148621 
L 68.300315 109.148621 
L 68.336343 111.764515 
L 68.372498 107.840674 
L 68.408348 109.148621 
L 68.445234 109.148621 
L 68.591601 114.38041 
L 68.666067 109.148621 
L 68.701957 114.38041 
L 68.739327 116.996304 
L 68.777067 113.072463 
L 68.965065 107.840674 
L 69.112625 116.996304 
L 69.187299 113.072463 
L 69.224245 115.688357 
L 69.301158 116.996304 
L 69.372735 115.688357 
L 69.408594 116.996304 
L 69.484562 118.304252 
L 69.521714 116.996304 
L 69.593362 118.304252 
L 69.924096 118.304252 
L 70.070517 119.612199 
L 70.181363 118.304252 
L 70.254444 119.612199 
L 70.290524 118.304252 
L 70.326457 116.996304 
L 70.363404 119.612199 
L 70.439568 119.612199 
L 70.549177 114.38041 
L 70.586926 118.304252 
L 70.624692 122.228093 
L 70.696876 119.612199 
L 70.808798 119.612199 
L 70.884615 115.688357 
L 70.920479 119.612199 
L 70.994495 115.688357 
L 71.030653 115.688357 
L 71.177177 116.996304 
L 71.251265 116.996304 
L 71.287641 115.688357 
L 71.32344 116.996304 
L 71.360882 118.304252 
L 71.397154 114.38041 
L 71.433692 118.304252 
L 71.50819 119.612199 
L 71.582624 116.996304 
L 71.618378 118.304252 
L 71.654277 118.304252 
L 71.690034 116.996304 
L 71.726069 119.612199 
L 71.763749 119.612199 
L 71.800376 116.996304 
L 71.872305 118.304252 
L 72.056405 118.304252 
L 72.170234 119.612199 
L 72.279563 118.304252 
L 72.393804 119.612199 
L 72.467924 116.996304 
L 72.540261 118.304252 
L 72.613256 118.304252 
L 72.759876 119.612199 
L 73.160824 119.612199 
L 73.271169 122.228093 
L 73.308799 119.612199 
L 73.381257 122.228093 
L 73.975038 122.228093 
L 74.052014 123.53604 
L 74.162051 122.228093 
L 74.270509 123.53604 
L 74.306428 122.228093 
L 74.37877 123.53604 
L 75.074377 123.53604 
L 75.110791 124.843988 
L 75.146841 123.53604 
L 167.445825 124.843988 
L 167.483106 123.53604 
L 167.919902 119.612199 
L 167.956123 123.53604 
L 168.032077 122.228093 
L 168.108907 123.53604 
L 168.145879 119.612199 
L 168.234674 123.53604 
L 168.407496 118.304252 
L 168.521008 114.38041 
L 168.678593 119.612199 
L 168.714363 118.304252 
L 168.881517 122.228093 
L 169.035521 122.228093 
L 169.071371 123.53604 
L 169.220954 118.304252 
L 169.260713 118.304252 
L 169.377627 107.840674 
L 169.48271 118.304252 
L 169.518669 115.688357 
L 169.636206 119.612199 
L 169.677525 116.996304 
L 169.751147 118.304252 
L 169.87901 122.228093 
L 169.996999 118.304252 
L 170.113914 119.612199 
L 170.149789 119.612199 
L 170.336301 106.532727 
L 170.482398 118.304252 
L 170.518217 119.612199 
L 170.663882 105.224779 
L 170.701416 106.532727 
L 171.00981 122.228093 
L 171.081496 116.996304 
L 171.141343 118.304252 
L 171.329142 115.688357 
L 171.513067 122.228093 
L 171.6662 116.996304 
L 171.7399 116.996304 
L 171.863061 106.532727 
L 171.988016 119.612199 
L 172.026765 116.996304 
L 172.108349 122.228093 
L 172.221322 116.996304 
L 172.367297 122.228093 
L 172.403057 118.304252 
L 172.440277 119.612199 
L 172.587653 119.612199 
L 172.624953 116.996304 
L 172.66373 118.304252 
L 172.739939 123.53604 
L 172.776837 122.228093 
L 172.88543 118.304252 
L 172.923192 119.612199 
L 172.962191 111.764515 
L 173.038304 114.38041 
L 173.075695 113.072463 
L 173.151122 118.304252 
L 173.18716 115.688357 
L 173.225837 114.38041 
L 173.261585 115.688357 
L 173.444504 118.304252 
L 173.563014 116.996304 
L 173.634566 116.996304 
L 173.707009 118.304252 
L 173.743945 115.688357 
L 173.815561 118.304252 
L 173.851837 118.304252 
L 173.887604 116.996304 
L 173.961027 118.304252 
L 173.997935 118.304252 
L 174.141733 119.612199 
L 174.178917 119.612199 
L 174.324569 122.228093 
L 174.36093 122.228093 
L 174.507353 123.53604 
L 175.019401 123.53604 
L 175.129816 124.843988 
L 175.276882 123.53604 
L 175.534464 123.53604 
L 175.570607 118.304252 
L 175.642552 123.53604 
L 175.752537 122.228093 
L 175.830206 123.53604 
L 175.867245 122.228093 
L 175.941287 123.53604 
L 176.014156 123.53604 
L 176.050684 122.228093 
L 176.122744 123.53604 
L 176.195119 123.53604 
L 176.305878 124.843988 
L 176.343177 123.53604 
L 176.379033 124.843988 
L 177.160958 124.843988 
L 177.199943 126.151935 
L 177.235865 124.843988 
L 177.359405 123.53604 
L 177.815166 123.53604 
L 177.923048 122.228093 
L 177.959521 123.53604 
L 177.999608 122.228093 
L 178.551822 122.228093 
L 178.58767 123.53604 
L 178.660212 122.228093 
L 178.992225 122.228093 
L 179.104409 123.53604 
L 179.248892 122.228093 
L 179.392426 122.228093 
L 179.501128 123.53604 
L 179.611639 122.228093 
L 179.758177 123.53604 
L 179.829983 123.53604 
L 179.973654 122.228093 
L 180.045768 122.228093 
L 180.153253 123.53604 
L 180.271049 122.228093 
L 180.670029 122.228093 
L 324.975881 85.605571 
L 325.059252 88.221466 
L 325.233581 88.221466 
L 325.269702 85.605571 
L 325.344458 88.221466 
L 325.462067 88.221466 
L 325.49932 85.605571 
L 325.535281 88.221466 
L 325.9103 88.221466 
L 325.9843 89.529413 
L 326.02047 88.221466 
L 326.247454 88.221466 
L 326.285294 89.529413 
L 326.328175 88.221466 
L 326.407502 88.221466 
L 326.554417 89.529413 
L 326.628484 89.529413 
L 326.665423 88.221466 
L 326.737435 89.529413 
L 326.882568 89.529413 
L 326.991265 88.221466 
L 327.117141 89.529413 
L 327.941289 89.529413 
L 327.977543 90.83736 
L 328.049185 89.529413 
L 328.084917 89.529413 
L 328.121599 90.83736 
L 328.194349 89.529413 
L 328.23138 89.529413 
L 328.305601 90.83736 
L 328.341668 89.529413 
L 328.382078 90.83736 
L 328.419318 89.529413 
L 328.569917 89.529413 
L 328.714169 90.83736 
L 329.413041 90.83736 
L 329.449225 92.145307 
L 329.521087 90.83736 
L 329.672373 90.83736 
L 329.712412 92.145307 
L 329.766441 90.83736 
L 330.138186 90.83736 
L 330.214953 92.145307 
L 330.25214 90.83736 
L 330.325289 92.145307 
L 331.84623 92.145307 
L 331.883845 93.453255 
L 331.921512 92.145307 
L 332.291614 92.145307 
L 332.366909 93.453255 
L 332.481626 92.145307 
L 332.518723 93.453255 
L 332.591949 92.145307 
L 332.628837 92.145307 
L 332.775421 93.453255 
L 333.300869 93.453255 
L 333.473708 94.761202 
L 333.618047 93.453255 
L 334.687872 93.453255 
L 334.723611 92.145307 
L 334.798105 93.453255 
L 335.058681 93.453255 
L 335.094764 92.145307 
L 335.169121 93.453255 
L 335.206617 93.453255 
L 335.315706 92.145307 
L 335.424306 93.453255 
L 336.01596 93.453255 
L 336.051743 94.761202 
L 336.123271 93.453255 
L 336.813612 93.453255 
L 336.850469 92.145307 
L 336.923266 93.453255 
L 337.032418 93.453255 
L 337.080501 92.145307 
L 337.120918 93.453255 
L 337.487657 93.453255 
L 337.524571 92.145307 
L 337.561589 93.453255 
L 338.777931 93.453255 
L 338.924778 94.761202 
L 338.998443 94.761202 
L 339.150212 93.453255 
L 339.311131 94.761202 
L 339.420784 93.453255 
L 339.496092 93.453255 
L 339.642079 94.761202 
L 339.717344 93.453255 
L 339.753341 94.761202 
L 339.825687 93.453255 
L 339.973329 93.453255 
L 340.117084 94.761202 
L 340.761974 94.761202 
L 340.798183 96.069149 
L 340.869956 94.761202 
L 341.318722 94.761202 
L 341.430623 96.069149 
L 341.542056 94.761202 
L 341.651965 96.069149 
L 341.766272 94.761202 
L 341.8797 96.069149 
L 341.956249 96.069149 
L 341.995022 94.761202 
L 342.031127 96.069149 
L 343.219434 96.069149 
L 343.256499 98.685043 
L 343.32978 96.069149 
L 343.365606 96.069149 
L 343.40775 98.685043 
L 343.443743 96.069149 
L 343.970463 96.069149 
L 344.04296 98.685043 
L 344.079966 96.069149 
L 344.422571 96.069149 
L 344.532303 98.685043 
L 344.570307 98.685043 
L 344.678706 96.069149 
L 344.787427 98.685043 
L 344.899359 96.069149 
L 345.008981 98.685043 
L 345.125601 96.069149 
L 345.161536 96.069149 
L 345.233811 98.685043 
L 345.271389 96.069149 
L 345.417277 98.685043 
L 345.49229 98.685043 
L 345.529498 96.069149 
L 345.5692 98.685043 
L 346.672626 98.685043 
L 346.786222 99.992991 
L 346.904155 98.685043 
L 347.013878 98.685043 
L 347.05147 99.992991 
L 347.087829 98.685043 
L 347.487303 98.685043 
L 347.600047 99.992991 
L 347.635859 99.992991 
L 347.745492 98.685043 
L 347.893351 99.992991 
L 349.152501 99.992991 
L 349.26173 101.300938 
L 349.337276 99.992991 
L 349.447401 101.300938 
L 349.519719 99.992991 
L 349.555717 101.300938 
L 350.396762 101.300938 
L 350.509533 99.992991 
L 350.545751 99.992991 
L 350.691855 101.300938 
L 352.203532 101.300938 
L 352.239489 102.608885 
L 352.431378 101.300938 
L 353.616926 101.300938 
L 353.65425 102.608885 
L 353.693048 101.300938 
L 353.770817 102.608885 
L 353.882485 101.300938 
L 354.00747 102.608885 
L 355.059332 102.608885 
L 355.09524 101.300938 
L 355.134074 102.608885 
L 355.358153 102.608885 
L 355.467877 101.300938 
L 355.581132 102.608885 
L 355.654906 102.608885 
L 355.805113 101.300938 
L 355.987768 101.300938 
L 356.023538 102.608885 
L 356.097996 101.300938 
L 356.208845 101.300938 
L 356.32283 102.608885 
L 356.360473 102.608885 
L 356.50805 101.300938 
L 356.799671 101.300938 
L 356.835567 102.608885 
L 356.876634 101.300938 
L 356.915535 101.300938 
L 356.953625 102.608885 
L 356.991491 101.300938 
L 358.271764 101.300938 
L 358.307599 99.992991 
L 358.381388 101.300938 
L 358.530038 99.992991 
L 358.753687 99.992991 
L 358.828304 98.685043 
L 358.940015 99.992991 
L 359.08993 99.992991 
L 359.172815 98.685043 
L 359.284164 99.992991 
L 359.322361 98.685043 
L 359.358282 99.992991 
L 360.43954 99.992991 
L 360.477152 98.685043 
L 360.513148 99.992991 
L 360.552123 99.992991 
L 360.660445 98.685043 
L 360.70855 98.685043 
L 360.744693 99.992991 
L 360.816822 98.685043 
L 360.966175 98.685043 
L 361.077858 96.069149 
L 361.485871 96.069149 
L 361.558266 94.761202 
L 361.594573 96.069149 
L 362.477621 96.069149 
L 362.586779 94.761202 
L 362.698696 96.069149 
L 362.807462 96.069149 
L 362.91706 94.761202 
L 362.953455 96.069149 
L 363.027157 94.761202 
L 363.062985 94.761202 
L 363.206652 93.453255 
L 363.281689 93.453255 
L 363.427016 94.761202 
L 363.53532 94.761202 
L 363.682077 93.453255 
L 363.717826 93.453255 
L 363.828846 94.761202 
L 363.955203 93.453255 
L 364.103716 93.453255 
L 364.216325 94.761202 
L 364.362899 93.453255 
L 364.399929 94.761202 
L 364.438014 93.453255 
L 364.476731 93.453255 
L 364.593943 94.761202 
L 364.783722 94.761202 
L 364.819639 93.453255 
L 364.893446 94.761202 
L 365.415118 94.761202 
L 365.526925 93.453255 
L 365.562856 93.453255 
L 365.636929 94.761202 
L 365.673019 93.453255 
L 365.788908 93.453255 
L 365.867546 94.761202 
L 365.903451 93.453255 
L 365.977616 94.761202 
L 366.016227 93.453255 
L 366.053432 94.761202 
L 366.092767 94.761202 
L 366.13046 93.453255 
L 366.203539 94.761202 
L 366.242738 94.761202 
L 366.394629 93.453255 
L 366.472216 93.453255 
L 366.620472 94.761202 
L 366.657672 94.761202 
L 366.805142 93.453255 
L 367.070375 93.453255 
L 367.110987 94.761202 
L 367.146913 93.453255 
L 367.350233 93.453255 
L 367.387035 94.761202 
L 367.46137 93.453255 
L 367.748183 93.453255 
L 367.784005 90.83736 
L 367.857457 92.145307 
L 367.965788 92.145307 
L 368.111907 93.453255 
L 368.258983 93.453255 
L 368.331339 94.761202 
L 368.367845 93.453255 
L 368.405039 93.453255 
L 368.440905 92.145307 
L 368.51399 93.453255 
L 368.550513 93.453255 
L 368.660714 92.145307 
L 368.69661 93.453255 
L 368.771315 92.145307 
L 368.845706 92.145307 
L 368.956117 93.453255 
L 369.408946 93.453255 
L 369.444931 94.761202 
L 369.519605 93.453255 
L 369.632159 92.145307 
L 369.743069 93.453255 
L 370.263233 93.453255 
L 370.408829 94.761202 
L 370.483592 94.761202 
L 370.521102 93.453255 
L 370.593438 94.761202 
L 371.032236 94.761202 
L 371.179797 93.453255 
L 371.337333 94.761202 
L 371.791418 94.761202 
L 371.898953 96.069149 
L 372.045081 94.761202 
L 372.193929 94.761202 
L 372.232059 93.453255 
L 372.30437 94.761202 
L 372.749694 94.761202 
L 372.786753 96.069149 
L 372.859021 94.761202 
L 373.358323 94.761202 
L 373.430837 96.069149 
L 373.544607 94.761202 
L 373.655395 94.761202 
L 373.806146 96.069149 
L 374.400567 96.069149 
L 374.473985 94.761202 
L 374.510368 96.069149 
L 374.660523 96.069149 
L 374.698703 94.761202 
L 374.736794 96.069149 
L 375.786054 96.069149 
L 375.823353 98.685043 
L 375.986249 96.069149 
L 376.109408 98.685043 
L 376.14523 96.069149 
L 376.191348 98.685043 
L 376.227322 98.685043 
L 376.263797 96.069149 
L 376.33837 98.685043 
L 376.377265 98.685043 
L 376.522432 96.069149 
L 376.632828 98.685043 
L 376.793194 98.685043 
L 376.832128 96.069149 
L 376.870271 98.685043 
L 376.907423 98.685043 
L 376.943217 96.069149 
L 377.109519 98.685043 
L 378.051255 98.685043 
L 378.184469 99.992991 
L 378.258821 98.685043 
L 378.334591 99.992991 
L 378.409757 98.685043 
L 378.521008 99.992991 
L 378.630525 98.685043 
L 378.756314 99.992991 
L 379.718868 99.992991 
L 379.754654 101.300938 
L 379.827346 99.992991 
L 380.455451 99.992991 
L 380.491441 101.300938 
L 380.565593 99.992991 
L 380.602633 99.992991 
L 380.713232 101.300938 
L 380.749755 99.992991 
L 380.823864 101.300938 
L 380.861474 101.300938 
L 380.975922 99.992991 
L 381.012439 99.992991 
L 381.168852 101.300938 
L 383.2224 101.300938 
L 383.26253 102.608885 
L 383.304117 101.300938 
L 383.456816 101.300938 
L 383.531623 102.608885 
L 383.648741 101.300938 
L 383.689483 102.608885 
L 383.728446 101.300938 
L 383.764278 101.300938 
L 383.874313 102.608885 
L 384.31665 102.608885 
L 384.354909 101.300938 
L 384.392075 102.608885 
L 384.573974 102.608885 
L 384.609794 101.300938 
L 384.683155 102.608885 
L 384.979894 102.608885 
L 385.018686 103.916832 
L 385.056722 102.608885 
L 386.102296 102.608885 
L 386.139802 101.300938 
L 386.177202 102.608885 
L 387.90062 102.608885 
L 387.937547 103.916832 
L 388.09032 102.608885 
L 388.583121 102.608885 
L 388.707234 103.916832 
L 388.818692 102.608885 
L 388.928998 102.608885 
L 389.042102 103.916832 
L 389.533127 103.916832 
L 389.569572 102.608885 
L 389.64407 103.916832 
L 390.130412 103.916832 
L 390.170258 102.608885 
L 390.206121 103.916832 
L 391.972541 103.916832 
L 392.012784 105.224779 
L 392.048532 103.916832 
L 392.232264 103.916832 
L 392.270328 105.224779 
L 392.310778 103.916832 
L 392.604269 103.916832 
L 392.748602 105.224779 
L 392.904535 103.916832 
L 392.94029 105.224779 
L 392.979251 103.916832 
L 393.016771 103.916832 
L 393.16258 105.224779 
L 393.236124 105.224779 
L 393.381699 103.916832 
L 393.41924 103.916832 
L 393.531792 105.224779 
L 393.569732 103.916832 
L 393.605848 105.224779 
L 393.755874 105.224779 
L 393.903637 103.916832 
L 394.051416 105.224779 
L 394.08729 103.916832 
L 394.123629 105.224779 
L 394.458768 105.224779 
L 394.497356 103.916832 
L 394.534329 105.224779 
L 397.228557 105.224779 
L 397.266025 106.532727 
L 397.339383 105.224779 
L 397.560381 105.224779 
L 397.596391 106.532727 
L 397.633501 105.224779 
L 397.779492 105.224779 
L 397.924651 106.532727 
L 397.960618 106.532727 
L 397.999413 105.224779 
L 398.036398 106.532727 
L 398.112701 106.532727 
L 398.188192 105.224779 
L 398.262251 106.532727 
L 398.299225 105.224779 
L 398.415437 106.532727 
L 398.561304 105.224779 
L 398.671696 106.532727 
L 399.700687 106.532727 
L 399.737082 107.840674 
L 399.810428 106.532727 
L 400.250652 106.532727 
L 400.366539 107.840674 
L 400.517845 106.532727 
L 400.593176 106.532727 
L 400.629632 107.840674 
L 400.670216 106.532727 
L 400.788606 107.840674 
L 400.901121 106.532727 
L 400.975534 107.840674 
L 401.098248 106.532727 
L 401.134944 106.532727 
L 401.172472 107.840674 
L 401.334495 106.532727 
L 401.401959 106.532727 
L 401.440945 107.840674 
L 401.6176 106.532727 
L 403.614102 106.532727 
L 403.734296 105.224779 
L 403.881277 106.532727 
L 404.007257 105.224779 
L 404.04311 105.224779 
L 404.114862 106.532727 
L 404.150625 105.224779 
L 405.177553 105.224779 
L 405.213351 103.916832 
L 405.266146 105.224779 
L 405.30335 105.224779 
L 405.413195 103.916832 
L 405.53494 105.224779 
L 405.645123 103.916832 
L 405.686449 103.916832 
L 405.766274 102.608885 
L 405.804717 103.916832 
L 405.842734 102.608885 
L 406.13969 102.608885 
L 406.251726 101.300938 
L 406.288213 102.608885 
L 406.362776 101.300938 
L 406.515538 101.300938 
L 406.562751 99.992991 
L 406.598496 101.300938 
L 406.78482 101.300938 
L 406.90241 102.608885 
L 407.019865 101.300938 
L 407.163908 102.608885 
L 407.309681 101.300938 
L 407.345439 101.300938 
L 407.453619 99.992991 
L 407.525341 101.300938 
L 407.562413 99.992991 
L 407.598241 99.992991 
L 407.705796 101.300938 
L 407.850081 99.992991 
L 408.030492 99.992991 
L 408.067049 101.300938 
L 408.14048 99.992991 
L 408.222662 99.992991 
L 408.258494 101.300938 
L 408.3329 99.992991 
L 408.368824 99.992991 
L 408.512638 101.300938 
L 409.031167 101.300938 
L 409.174635 99.992991 
L 409.246669 101.300938 
L 409.289873 99.992991 
L 409.325599 101.300938 
L 409.556677 101.300938 
L 409.592675 99.992991 
L 409.664256 101.300938 
L 409.920901 101.300938 
L 410.066983 99.992991 
L 410.102872 99.992991 
L 410.139019 101.300938 
L 410.180405 99.992991 
L 410.252159 99.992991 
L 410.290262 101.300938 
L 410.362619 99.992991 
L 411.01825 99.992991 
L 411.150958 101.300938 
L 411.233175 99.992991 
L 412.319332 99.992991 
L 412.452054 98.685043 
L 412.870211 98.685043 
L 412.906592 99.992991 
L 412.966882 98.685043 
L 413.929941 98.685043 
L 414.059019 99.992991 
L 414.206151 98.685043 
L 414.58481 98.685043 
L 414.641288 99.992991 
L 414.683333 96.069149 
L 414.731118 98.685043 
L 414.90426 98.685043 
L 414.949542 96.069149 
L 415.887234 96.069149 
L 416.218683 93.453255 
L 416.337185 94.761202 
L 417.458242 94.761202 
L 417.505441 93.453255 
L 417.552609 94.761202 
L 417.787836 94.761202 
L 417.869222 93.453255 
L 417.947209 94.761202 
L 418.032366 93.453255 
L 418.264217 93.453255 
L 418.300323 94.761202 
L 418.337256 93.453255 
L 418.49779 93.453255 
L 418.620484 92.145307 
L 418.656938 92.145307 
L 418.775411 93.453255 
L 418.896511 92.145307 
L 419.07486 92.145307 
L 419.149799 93.453255 
L 419.434148 93.453255 
L 419.471518 94.761202 
L 419.513122 93.453255 
L 419.822988 93.453255 
L 420.023134 92.145307 
L 420.123897 93.453255 
L 420.330233 90.83736 
L 420.378453 90.83736 
L 420.415634 92.145307 
L 420.536077 90.83736 
L 420.653672 90.83736 
L 420.93198 89.529413 
L 420.970767 89.529413 
L 421.14846 90.83736 
L 421.300344 89.529413 
L 421.375922 89.529413 
L 421.417482 90.83736 
L 421.81758 90.83736 
L 421.866637 92.145307 
L 421.928526 90.83736 
L 422.180498 90.83736 
L 422.223438 92.145307 
L 422.291891 90.83736 
L 422.329563 92.145307 
L 423.089299 92.145307 
L 423.164998 90.83736 
L 423.248781 92.145307 
L 423.377323 90.83736 
L 423.494762 90.83736 
L 423.663219 92.145307 
L 423.70762 90.83736 
L 423.958894 90.83736 
L 424.093001 92.145307 
L 424.409892 92.145307 
L 424.468421 93.453255 
L 424.512503 92.145307 
L 424.592163 92.145307 
L 424.710293 93.453255 
L 424.859453 92.145307 
L 424.923569 93.453255 
L 424.960792 92.145307 
L 425.156136 93.453255 
L 425.280682 93.453255 
L 425.318982 94.761202 
L 425.369809 93.453255 
L 425.409954 93.453255 
L 425.449287 94.761202 
L 425.558334 93.453255 
L 425.621094 96.069149 
L 425.663367 94.761202 
L 425.992101 94.761202 
L 426.103966 96.069149 
L 426.192869 96.069149 
L 426.23572 94.761202 
L 426.271626 96.069149 
L 426.67817 96.069149 
L 426.719811 98.685043 
L 426.761285 96.069149 
L 426.954355 98.685043 
L 427.548366 98.685043 
L 427.631927 99.992991 
L 427.706227 98.685043 
L 427.843345 99.992991 
L 428.537165 99.992991 
L 428.692038 101.300938 
L 428.728445 99.992991 
L 428.768623 101.300938 
L 428.815479 101.300938 
L 428.853897 99.992991 
L 428.88977 101.300938 
L 428.927885 101.300938 
L 429.045544 99.992991 
L 429.168506 101.300938 
L 429.247157 99.992991 
L 429.38177 101.300938 
L 429.423994 101.300938 
L 429.423994 101.300938 
" style="fill:none;stroke:#1f77b4;stroke-linecap:square;stroke-width:1.5;"/>
   </g>
   <g id="line2d_34">
    <path clip-path="url(#pa089cd755d)" d="M 62.982095 204.628767 
L 66.346191 204.628767 
L 66.457036 153.618826 
L 70.181363 153.618826 
L 70.326457 168.006245 
L 72.759876 168.006245 
L 72.904556 192.857242 
L 74.162051 192.857242 
L 74.306428 219.016186 
L 75.146841 219.016186 
L 167.394241 35.903578 
L 172.292918 35.903578 
L 172.440277 62.062522 
L 174.507353 62.062522 
L 174.618909 86.913519 
L 176.527852 86.913519 
L 176.673075 153.618826 
L 179.465249 153.618826 
L 179.611639 192.857242 
L 180.670029 192.857242 
L 325.059252 50.290997 
L 326.48112 50.290997 
L 326.554417 101.300938 
L 328.492423 101.300938 
L 328.642225 153.618826 
L 332.70179 153.618826 
L 332.847676 179.77777 
L 336.850469 179.77777 
L 336.99674 192.857242 
L 339.460335 192.857242 
L 339.605813 204.628767 
L 341.092378 204.628767 
L 341.206493 230.787711 
L 342.963054 230.787711 
L 343.107135 245.17513 
L 344.228724 245.17513 
L 344.34019 221.632081 
L 345.161536 221.632081 
L 345.271389 230.787711 
L 347.013878 230.787711 
L 347.087829 219.016186 
L 352.239489 219.016186 
L 352.431378 221.632081 
L 353.531412 221.632081 
L 353.65425 219.016186 
L 355.431509 219.016186 
L 355.543643 204.628767 
L 359.613856 204.628767 
L 359.76156 192.857242 
L 361.925524 192.857242 
L 362.072961 179.77777 
L 363.206652 179.77777 
L 363.319187 174.545981 
L 363.75555 174.545981 
L 363.874772 168.006245 
L 368.002156 168.006245 
L 368.148924 153.618826 
L 374.660523 153.618826 
L 374.808569 174.545981 
L 376.670432 174.545981 
L 376.793194 179.77777 
L 378.147282 179.77777 
L 378.258821 174.545981 
L 378.521008 174.545981 
L 378.630525 179.77777 
L 383.949667 179.77777 
L 384.096695 174.545981 
L 384.683155 174.545981 
L 384.79411 179.77777 
L 386.718277 179.77777 
L 386.863795 192.857242 
L 387.826049 192.857242 
L 387.937547 221.632081 
L 388.893071 221.632081 
L 389.005161 230.787711 
L 389.42283 230.787711 
L 389.569572 245.17513 
L 397.924651 245.17513 
L 398.036398 221.632081 
L 399.774629 221.632081 
L 399.92021 245.17513 
L 401.440945 245.17513 
L 401.6176 219.016186 
L 403.434257 219.016186 
L 403.578355 204.628767 
L 404.369233 204.628767 
L 404.512657 198.089031 
L 405.453164 198.089031 
L 405.57225 192.857242 
L 408.258494 192.857242 
L 408.404632 179.77777 
L 409.700151 179.77777 
L 409.844267 168.006245 
L 411.701857 168.006245 
L 411.834752 179.77777 
L 413.700973 179.77777 
L 413.809812 153.618826 
L 418.219841 153.618826 
L 418.337256 141.847301 
L 424.210043 141.847301 
L 424.409892 153.618826 
L 426.066621 153.618826 
L 426.192869 204.628767 
L 428.64987 204.628767 
L 428.768623 230.787711 
L 429.423994 230.787711 
L 429.423994 230.787711 
" style="fill:none;stroke:#ff7f0e;stroke-linecap:square;stroke-width:1.5;"/>
   </g>
   <g id="patch_3">
    <path d="M 44.66 255.638708 
L 44.66 25.44 
" style="fill:none;stroke:#000000;stroke-linecap:square;stroke-linejoin:miter;stroke-width:0.8;"/>
   </g>
   <g id="patch_4">
    <path d="M 447.746089 255.638708 
L 447.746089 25.44 
" style="fill:none;stroke:#000000;stroke-linecap:square;stroke-linejoin:miter;stroke-width:0.8;"/>
   </g>
   <g id="patch_5">
    <path d="M 44.66 255.638708 
L 447.746089 255.638708 
" style="fill:none;stroke:#000000;stroke-linecap:square;stroke-linejoin:miter;stroke-width:0.8;"/>
   </g>
   <g id="patch_6">
    <path d="M 44.66 25.44 
L 447.746089 25.44 
" style="fill:none;stroke:#000000;stroke-linecap:square;stroke-linejoin:miter;stroke-width:0.8;"/>
   </g>
   <g id="text_19">
    <!-- Lake Shoecraft - Water and Air Temperature -->
    <g transform="translate(114.584607 19.44)scale(0.12 -0.12)">
     <defs>
      <path d="M 9.8125 72.90625 
L 19.671875 72.90625 
L 19.671875 8.296875 
L 55.171875 8.296875 
L 55.171875 0 
L 9.8125 0 
z
" id="DejaVuSans-76"/>
      <path d="M 9.078125 75.984375 
L 18.109375 75.984375 
L 18.109375 31.109375 
L 44.921875 54.6875 
L 56.390625 54.6875 
L 27.390625 29.109375 
L 57.625 0 
L 45.90625 0 
L 18.109375 26.703125 
L 18.109375 0 
L 9.078125 0 
z
" id="DejaVuSans-107"/>
      <path d="M 53.515625 70.515625 
L 53.515625 60.890625 
Q 47.90625 63.578125 42.921875 64.890625 
Q 37.9375 66.21875 33.296875 66.21875 
Q 25.25 66.21875 20.875 63.09375 
Q 16.5 59.96875 16.5 54.203125 
Q 16.5 49.359375 19.40625 46.890625 
Q 22.3125 44.4375 30.421875 42.921875 
L 36.375 41.703125 
Q 47.40625 39.59375 52.65625 34.296875 
Q 57.90625 29 57.90625 20.125 
Q 57.90625 9.515625 50.796875 4.046875 
Q 43.703125 -1.421875 29.984375 -1.421875 
Q 24.8125 -1.421875 18.96875 -0.25 
Q 13.140625 0.921875 6.890625 3.21875 
L 6.890625 13.375 
Q 12.890625 10.015625 18.65625 8.296875 
Q 24.421875 6.59375 29.984375 6.59375 
Q 38.421875 6.59375 43.015625 9.90625 
Q 47.609375 13.234375 47.609375 19.390625 
Q 47.609375 24.75 44.3125 27.78125 
Q 41.015625 30.8125 33.5 32.328125 
L 27.484375 33.5 
Q 16.453125 35.6875 11.515625 40.375 
Q 6.59375 45.0625 6.59375 53.421875 
Q 6.59375 63.09375 13.40625 68.65625 
Q 20.21875 74.21875 32.171875 74.21875 
Q 37.3125 74.21875 42.625 73.28125 
Q 47.953125 72.359375 53.515625 70.515625 
z
" id="DejaVuSans-83"/>
      <path d="M 54.890625 33.015625 
L 54.890625 0 
L 45.90625 0 
L 45.90625 32.71875 
Q 45.90625 40.484375 42.875 44.328125 
Q 39.84375 48.1875 33.796875 48.1875 
Q 26.515625 48.1875 22.3125 43.546875 
Q 18.109375 38.921875 18.109375 30.90625 
L 18.109375 0 
L 9.078125 0 
L 9.078125 75.984375 
L 18.109375 75.984375 
L 18.109375 46.1875 
Q 21.34375 51.125 25.703125 53.5625 
Q 30.078125 56 35.796875 56 
Q 45.21875 56 50.046875 50.171875 
Q 54.890625 44.34375 54.890625 33.015625 
z
" id="DejaVuSans-104"/>
      <path d="M 30.609375 48.390625 
Q 23.390625 48.390625 19.1875 42.75 
Q 14.984375 37.109375 14.984375 27.296875 
Q 14.984375 17.484375 19.15625 11.84375 
Q 23.34375 6.203125 30.609375 6.203125 
Q 37.796875 6.203125 41.984375 11.859375 
Q 46.1875 17.53125 46.1875 27.296875 
Q 46.1875 37.015625 41.984375 42.703125 
Q 37.796875 48.390625 30.609375 48.390625 
z
M 30.609375 56 
Q 42.328125 56 49.015625 48.375 
Q 55.71875 40.765625 55.71875 27.296875 
Q 55.71875 13.875 49.015625 6.21875 
Q 42.328125 -1.421875 30.609375 -1.421875 
Q 18.84375 -1.421875 12.171875 6.21875 
Q 5.515625 13.875 5.515625 27.296875 
Q 5.515625 40.765625 12.171875 48.375 
Q 18.84375 56 30.609375 56 
z
" id="DejaVuSans-111"/>
      <path d="M 48.78125 52.59375 
L 48.78125 44.1875 
Q 44.96875 46.296875 41.140625 47.34375 
Q 37.3125 48.390625 33.40625 48.390625 
Q 24.65625 48.390625 19.8125 42.84375 
Q 14.984375 37.3125 14.984375 27.296875 
Q 14.984375 17.28125 19.8125 11.734375 
Q 24.65625 6.203125 33.40625 6.203125 
Q 37.3125 6.203125 41.140625 7.25 
Q 44.96875 8.296875 48.78125 10.40625 
L 48.78125 2.09375 
Q 45.015625 0.34375 40.984375 -0.53125 
Q 36.96875 -1.421875 32.421875 -1.421875 
Q 20.0625 -1.421875 12.78125 6.34375 
Q 5.515625 14.109375 5.515625 27.296875 
Q 5.515625 40.671875 12.859375 48.328125 
Q 20.21875 56 33.015625 56 
Q 37.15625 56 41.109375 55.140625 
Q 45.0625 54.296875 48.78125 52.59375 
z
" id="DejaVuSans-99"/>
      <path d="M 37.109375 75.984375 
L 37.109375 68.5 
L 28.515625 68.5 
Q 23.6875 68.5 21.796875 66.546875 
Q 19.921875 64.59375 19.921875 59.515625 
L 19.921875 54.6875 
L 34.71875 54.6875 
L 34.71875 47.703125 
L 19.921875 47.703125 
L 19.921875 0 
L 10.890625 0 
L 10.890625 47.703125 
L 2.296875 47.703125 
L 2.296875 54.6875 
L 10.890625 54.6875 
L 10.890625 58.5 
Q 10.890625 67.625 15.140625 71.796875 
Q 19.390625 75.984375 28.609375 75.984375 
z
" id="DejaVuSans-102"/>
      <path d="M 3.328125 72.90625 
L 13.28125 72.90625 
L 28.609375 11.28125 
L 43.890625 72.90625 
L 54.984375 72.90625 
L 70.3125 11.28125 
L 85.59375 72.90625 
L 95.609375 72.90625 
L 77.296875 0 
L 64.890625 0 
L 49.515625 63.28125 
L 33.984375 0 
L 21.578125 0 
z
" id="DejaVuSans-87"/>
      <path d="M 54.890625 33.015625 
L 54.890625 0 
L 45.90625 0 
L 45.90625 32.71875 
Q 45.90625 40.484375 42.875 44.328125 
Q 39.84375 48.1875 33.796875 48.1875 
Q 26.515625 48.1875 22.3125 43.546875 
Q 18.109375 38.921875 18.109375 30.90625 
L 18.109375 0 
L 9.078125 0 
L 9.078125 54.6875 
L 18.109375 54.6875 
L 18.109375 46.1875 
Q 21.34375 51.125 25.703125 53.5625 
Q 30.078125 56 35.796875 56 
Q 45.21875 56 50.046875 50.171875 
Q 54.890625 44.34375 54.890625 33.015625 
z
" id="DejaVuSans-110"/>
      <path d="M 45.40625 46.390625 
L 45.40625 75.984375 
L 54.390625 75.984375 
L 54.390625 0 
L 45.40625 0 
L 45.40625 8.203125 
Q 42.578125 3.328125 38.25 0.953125 
Q 33.9375 -1.421875 27.875 -1.421875 
Q 17.96875 -1.421875 11.734375 6.484375 
Q 5.515625 14.40625 5.515625 27.296875 
Q 5.515625 40.1875 11.734375 48.09375 
Q 17.96875 56 27.875 56 
Q 33.9375 56 38.25 53.625 
Q 42.578125 51.265625 45.40625 46.390625 
z
M 14.796875 27.296875 
Q 14.796875 17.390625 18.875 11.75 
Q 22.953125 6.109375 30.078125 6.109375 
Q 37.203125 6.109375 41.296875 11.75 
Q 45.40625 17.390625 45.40625 27.296875 
Q 45.40625 37.203125 41.296875 42.84375 
Q 37.203125 48.484375 30.078125 48.484375 
Q 22.953125 48.484375 18.875 42.84375 
Q 14.796875 37.203125 14.796875 27.296875 
z
" id="DejaVuSans-100"/>
      <path d="M 34.1875 63.1875 
L 20.796875 26.90625 
L 47.609375 26.90625 
z
M 28.609375 72.90625 
L 39.796875 72.90625 
L 67.578125 0 
L 57.328125 0 
L 50.6875 18.703125 
L 17.828125 18.703125 
L 11.1875 0 
L 0.78125 0 
z
" id="DejaVuSans-65"/>
      <path d="M 9.421875 54.6875 
L 18.40625 54.6875 
L 18.40625 0 
L 9.421875 0 
z
M 9.421875 75.984375 
L 18.40625 75.984375 
L 18.40625 64.59375 
L 9.421875 64.59375 
z
" id="DejaVuSans-105"/>
     </defs>
     <use xlink:href="#DejaVuSans-76"/>
     <use x="55.712891" xlink:href="#DejaVuSans-97"/>
     <use x="116.992188" xlink:href="#DejaVuSans-107"/>
     <use x="171.277344" xlink:href="#DejaVuSans-101"/>
     <use x="232.800781" xlink:href="#DejaVuSans-32"/>
     <use x="264.587891" xlink:href="#DejaVuSans-83"/>
     <use x="328.064453" xlink:href="#DejaVuSans-104"/>
     <use x="391.443359" xlink:href="#DejaVuSans-111"/>
     <use x="452.625" xlink:href="#DejaVuSans-101"/>
     <use x="514.148438" xlink:href="#DejaVuSans-99"/>
     <use x="569.128906" xlink:href="#DejaVuSans-114"/>
     <use x="610.242188" xlink:href="#DejaVuSans-97"/>
     <use x="671.521484" xlink:href="#DejaVuSans-102"/>
     <use x="704.976562" xlink:href="#DejaVuSans-116"/>
     <use x="744.185547" xlink:href="#DejaVuSans-32"/>
     <use x="775.972656" xlink:href="#DejaVuSans-45"/>
     <use x="812.056641" xlink:href="#DejaVuSans-32"/>
     <use x="843.84375" xlink:href="#DejaVuSans-87"/>
     <use x="936.345703" xlink:href="#DejaVuSans-97"/>
     <use x="997.625" xlink:href="#DejaVuSans-116"/>
     <use x="1036.833984" xlink:href="#DejaVuSans-101"/>
     <use x="1098.357422" xlink:href="#DejaVuSans-114"/>
     <use x="1139.470703" xlink:href="#DejaVuSans-32"/>
     <use x="1171.257812" xlink:href="#DejaVuSans-97"/>
     <use x="1232.537109" xlink:href="#DejaVuSans-110"/>
     <use x="1295.916016" xlink:href="#DejaVuSans-100"/>
     <use x="1359.392578" xlink:href="#DejaVuSans-32"/>
     <use x="1391.179688" xlink:href="#DejaVuSans-65"/>
     <use x="1459.587891" xlink:href="#DejaVuSans-105"/>
     <use x="1487.371094" xlink:href="#DejaVuSans-114"/>
     <use x="1528.484375" xlink:href="#DejaVuSans-32"/>
     <use x="1560.271484" xlink:href="#DejaVuSans-84"/>
     <use x="1604.355469" xlink:href="#DejaVuSans-101"/>
     <use x="1665.878906" xlink:href="#DejaVuSans-109"/>
     <use x="1763.291016" xlink:href="#DejaVuSans-112"/>
     <use x="1826.767578" xlink:href="#DejaVuSans-101"/>
     <use x="1888.291016" xlink:href="#DejaVuSans-114"/>
     <use x="1929.404297" xlink:href="#DejaVuSans-97"/>
     <use x="1990.683594" xlink:href="#DejaVuSans-116"/>
     <use x="2029.892578" xlink:href="#DejaVuSans-117"/>
     <use x="2093.271484" xlink:href="#DejaVuSans-114"/>
     <use x="2132.134766" xlink:href="#DejaVuSans-101"/>
    </g>
   </g>
   <g id="legend_1">
    <g id="patch_7">
     <path d="M 355.636714 62.79625 
L 440.746089 62.79625 
Q 442.746089 62.79625 442.746089 60.79625 
L 442.746089 32.44 
Q 442.746089 30.44 440.746089 30.44 
L 355.636714 30.44 
Q 353.636714 30.44 353.636714 32.44 
L 353.636714 60.79625 
Q 353.636714 62.79625 355.636714 62.79625 
z
" style="fill:#ffffff;opacity:0.8;stroke:#cccccc;stroke-linejoin:miter;"/>
    </g>
    <g id="line2d_35">
     <path d="M 357.636714 38.538437 
L 377.636714 38.538437 
" style="fill:none;stroke:#1f77b4;stroke-linecap:square;stroke-width:1.5;"/>
    </g>
    <g id="line2d_36"/>
    <g id="text_20">
     <!-- Lake Temp -->
     <g transform="translate(385.636714 42.038437)scale(0.1 -0.1)">
      <use xlink:href="#DejaVuSans-76"/>
      <use x="55.712891" xlink:href="#DejaVuSans-97"/>
      <use x="116.992188" xlink:href="#DejaVuSans-107"/>
      <use x="171.277344" xlink:href="#DejaVuSans-101"/>
      <use x="232.800781" xlink:href="#DejaVuSans-32"/>
      <use x="264.587891" xlink:href="#DejaVuSans-84"/>
      <use x="308.671875" xlink:href="#DejaVuSans-101"/>
      <use x="370.195312" xlink:href="#DejaVuSans-109"/>
      <use x="467.607422" xlink:href="#DejaVuSans-112"/>
     </g>
    </g>
    <g id="line2d_37">
     <path d="M 357.636714 53.216562 
L 377.636714 53.216562 
" style="fill:none;stroke:#ff7f0e;stroke-linecap:square;stroke-width:1.5;"/>
    </g>
    <g id="line2d_38"/>
    <g id="text_21">
     <!-- Air Temp -->
     <g transform="translate(385.636714 56.716562)scale(0.1 -0.1)">
      <use xlink:href="#DejaVuSans-65"/>
      <use x="68.408203" xlink:href="#DejaVuSans-105"/>
      <use x="96.191406" xlink:href="#DejaVuSans-114"/>
      <use x="137.304688" xlink:href="#DejaVuSans-32"/>
      <use x="169.091797" xlink:href="#DejaVuSans-84"/>
      <use x="213.175781" xlink:href="#DejaVuSans-101"/>
      <use x="274.699219" xlink:href="#DejaVuSans-109"/>
      <use x="372.111328" xlink:href="#DejaVuSans-112"/>
     </g>
    </g>
   </g>
  </g>
 </g>
 <defs>
  <clipPath id="pa089cd755d">
   <rect height="230.198708" width="403.086089" x="44.66" y="25.44"/>
  </clipPath>
 </defs>
</svg>
