<?xml version="1.0" encoding="utf-8" standalone="no"?>
<!DOCTYPE svg PUBLIC "-//W3C//DTD SVG 1.1//EN"
  "http://www.w3.org/Graphics/SVG/1.1/DTD/svg11.dtd">
<!-- Created with matplotlib (https://matplotlib.org/) -->
<svg height="345.6pt" version="1.1" viewBox="0 0 460.8 345.6" width="460.8pt" xmlns="http://www.w3.org/2000/svg" xmlns:xlink="http://www.w3.org/1999/xlink">
 <metadata>
  <rdf:RDF xmlns:cc="http://creativecommons.org/ns#" xmlns:dc="http://purl.org/dc/elements/1.1/" xmlns:rdf="http://www.w3.org/1999/02/22-rdf-syntax-ns#">
   <cc:Work>
    <dc:type rdf:resource="http://purl.org/dc/dcmitype/StillImage"/>
    <dc:date>2024-09-03T19:56:11.236636</dc:date>
    <dc:format>image/svg+xml</dc:format>
    <dc:creator>
     <cc:Agent>
      <dc:title>Matplotlib v3.3.2, https://matplotlib.org/</dc:title>
     </cc:Agent>
    </dc:creator>
   </cc:Work>
  </rdf:RDF>
 </metadata>
 <defs>
  <style type="text/css">*{stroke-linecap:butt;stroke-linejoin:round;}</style>
 </defs>
 <g id="figure_1">
  <g id="patch_1">
   <path d="M 0 345.6 
L 460.8 345.6 
L 460.8 0 
L 0 0 
z
" style="fill:none;"/>
  </g>
  <g id="axes_1">
   <g id="patch_2">
    <path d="M 44.66 255.638708 
L 443.95679 255.638708 
L 443.95679 25.44 
L 44.66 25.44 
z
" style="fill:none;"/>
   </g>
   <g id="matplotlib.axis_1">
    <g id="xtick_1">
     <g id="line2d_1">
      <path clip-path="url(#pb7cb03a48a)" d="M 83.982674 255.638708 
L 83.982674 25.44 
" style="fill:none;stroke:#b0b0b0;stroke-linecap:square;stroke-width:0.8;"/>
     </g>
     <g id="line2d_2">
      <defs>
       <path d="M 0 0 
L 0 3.5 
" id="m4ca4810afd" style="stroke:#000000;stroke-width:0.8;"/>
      </defs>
      <g>
       <use style="stroke:#000000;stroke-width:0.8;" x="83.982674" xlink:href="#m4ca4810afd" y="255.638708"/>
      </g>
     </g>
     <g id="text_1">
      <!-- 2024-08-28 -->
      <g transform="translate(76.637281 319.848351)rotate(-70)scale(0.1 -0.1)">
       <defs>
        <path d="M 19.1875 8.296875 
L 53.609375 8.296875 
L 53.609375 0 
L 7.328125 0 
L 7.328125 8.296875 
Q 12.9375 14.109375 22.625 23.890625 
Q 32.328125 33.6875 34.8125 36.53125 
Q 39.546875 41.84375 41.421875 45.53125 
Q 43.3125 49.21875 43.3125 52.78125 
Q 43.3125 58.59375 39.234375 62.25 
Q 35.15625 65.921875 28.609375 65.921875 
Q 23.96875 65.921875 18.8125 64.3125 
Q 13.671875 62.703125 7.8125 59.421875 
L 7.8125 69.390625 
Q 13.765625 71.78125 18.9375 73 
Q 24.125 74.21875 28.421875 74.21875 
Q 39.75 74.21875 46.484375 68.546875 
Q 53.21875 62.890625 53.21875 53.421875 
Q 53.21875 48.921875 51.53125 44.890625 
Q 49.859375 40.875 45.40625 35.40625 
Q 44.1875 33.984375 37.640625 27.21875 
Q 31.109375 20.453125 19.1875 8.296875 
z
" id="DejaVuSans-50"/>
        <path d="M 31.78125 66.40625 
Q 24.171875 66.40625 20.328125 58.90625 
Q 16.5 51.421875 16.5 36.375 
Q 16.5 21.390625 20.328125 13.890625 
Q 24.171875 6.390625 31.78125 6.390625 
Q 39.453125 6.390625 43.28125 13.890625 
Q 47.125 21.390625 47.125 36.375 
Q 47.125 51.421875 43.28125 58.90625 
Q 39.453125 66.40625 31.78125 66.40625 
z
M 31.78125 74.21875 
Q 44.046875 74.21875 50.515625 64.515625 
Q 56.984375 54.828125 56.984375 36.375 
Q 56.984375 17.96875 50.515625 8.265625 
Q 44.046875 -1.421875 31.78125 -1.421875 
Q 19.53125 -1.421875 13.0625 8.265625 
Q 6.59375 17.96875 6.59375 36.375 
Q 6.59375 54.828125 13.0625 64.515625 
Q 19.53125 74.21875 31.78125 74.21875 
z
" id="DejaVuSans-48"/>
        <path d="M 37.796875 64.3125 
L 12.890625 25.390625 
L 37.796875 25.390625 
z
M 35.203125 72.90625 
L 47.609375 72.90625 
L 47.609375 25.390625 
L 58.015625 25.390625 
L 58.015625 17.1875 
L 47.609375 17.1875 
L 47.609375 0 
L 37.796875 0 
L 37.796875 17.1875 
L 4.890625 17.1875 
L 4.890625 26.703125 
z
" id="DejaVuSans-52"/>
        <path d="M 4.890625 31.390625 
L 31.203125 31.390625 
L 31.203125 23.390625 
L 4.890625 23.390625 
z
" id="DejaVuSans-45"/>
        <path d="M 31.78125 34.625 
Q 24.75 34.625 20.71875 30.859375 
Q 16.703125 27.09375 16.703125 20.515625 
Q 16.703125 13.921875 20.71875 10.15625 
Q 24.75 6.390625 31.78125 6.390625 
Q 38.8125 6.390625 42.859375 10.171875 
Q 46.921875 13.96875 46.921875 20.515625 
Q 46.921875 27.09375 42.890625 30.859375 
Q 38.875 34.625 31.78125 34.625 
z
M 21.921875 38.8125 
Q 15.578125 40.375 12.03125 44.71875 
Q 8.5 49.078125 8.5 55.328125 
Q 8.5 64.0625 14.71875 69.140625 
Q 20.953125 74.21875 31.78125 74.21875 
Q 42.671875 74.21875 48.875 69.140625 
Q 55.078125 64.0625 55.078125 55.328125 
Q 55.078125 49.078125 51.53125 44.71875 
Q 48 40.375 41.703125 38.8125 
Q 48.828125 37.15625 52.796875 32.3125 
Q 56.78125 27.484375 56.78125 20.515625 
Q 56.78125 9.90625 50.3125 4.234375 
Q 43.84375 -1.421875 31.78125 -1.421875 
Q 19.734375 -1.421875 13.25 4.234375 
Q 6.78125 9.90625 6.78125 20.515625 
Q 6.78125 27.484375 10.78125 32.3125 
Q 14.796875 37.15625 21.921875 38.8125 
z
M 18.3125 54.390625 
Q 18.3125 48.734375 21.84375 45.5625 
Q 25.390625 42.390625 31.78125 42.390625 
Q 38.140625 42.390625 41.71875 45.5625 
Q 45.3125 48.734375 45.3125 54.390625 
Q 45.3125 60.0625 41.71875 63.234375 
Q 38.140625 66.40625 31.78125 66.40625 
Q 25.390625 66.40625 21.84375 63.234375 
Q 18.3125 60.0625 18.3125 54.390625 
z
" id="DejaVuSans-56"/>
       </defs>
       <use xlink:href="#DejaVuSans-50"/>
       <use x="63.623047" xlink:href="#DejaVuSans-48"/>
       <use x="127.246094" xlink:href="#DejaVuSans-50"/>
       <use x="190.869141" xlink:href="#DejaVuSans-52"/>
       <use x="254.492188" xlink:href="#DejaVuSans-45"/>
       <use x="290.576172" xlink:href="#DejaVuSans-48"/>
       <use x="354.199219" xlink:href="#DejaVuSans-56"/>
       <use x="417.822266" xlink:href="#DejaVuSans-45"/>
       <use x="453.90625" xlink:href="#DejaVuSans-50"/>
       <use x="517.529297" xlink:href="#DejaVuSans-56"/>
      </g>
     </g>
    </g>
    <g id="xtick_2">
     <g id="line2d_3">
      <path clip-path="url(#pb7cb03a48a)" d="M 134.02823 255.638708 
L 134.02823 25.44 
" style="fill:none;stroke:#b0b0b0;stroke-linecap:square;stroke-width:0.8;"/>
     </g>
     <g id="line2d_4">
      <g>
       <use style="stroke:#000000;stroke-width:0.8;" x="134.02823" xlink:href="#m4ca4810afd" y="255.638708"/>
      </g>
     </g>
     <g id="text_2">
      <!-- 2024-08-29 -->
      <g transform="translate(126.682837 319.848351)rotate(-70)scale(0.1 -0.1)">
       <defs>
        <path d="M 10.984375 1.515625 
L 10.984375 10.5 
Q 14.703125 8.734375 18.5 7.8125 
Q 22.3125 6.890625 25.984375 6.890625 
Q 35.75 6.890625 40.890625 13.453125 
Q 46.046875 20.015625 46.78125 33.40625 
Q 43.953125 29.203125 39.59375 26.953125 
Q 35.25 24.703125 29.984375 24.703125 
Q 19.046875 24.703125 12.671875 31.3125 
Q 6.296875 37.9375 6.296875 49.421875 
Q 6.296875 60.640625 12.9375 67.421875 
Q 19.578125 74.21875 30.609375 74.21875 
Q 43.265625 74.21875 49.921875 64.515625 
Q 56.59375 54.828125 56.59375 36.375 
Q 56.59375 19.140625 48.40625 8.859375 
Q 40.234375 -1.421875 26.421875 -1.421875 
Q 22.703125 -1.421875 18.890625 -0.6875 
Q 15.09375 0.046875 10.984375 1.515625 
z
M 30.609375 32.421875 
Q 37.25 32.421875 41.125 36.953125 
Q 45.015625 41.5 45.015625 49.421875 
Q 45.015625 57.28125 41.125 61.84375 
Q 37.25 66.40625 30.609375 66.40625 
Q 23.96875 66.40625 20.09375 61.84375 
Q 16.21875 57.28125 16.21875 49.421875 
Q 16.21875 41.5 20.09375 36.953125 
Q 23.96875 32.421875 30.609375 32.421875 
z
" id="DejaVuSans-57"/>
       </defs>
       <use xlink:href="#DejaVuSans-50"/>
       <use x="63.623047" xlink:href="#DejaVuSans-48"/>
       <use x="127.246094" xlink:href="#DejaVuSans-50"/>
       <use x="190.869141" xlink:href="#DejaVuSans-52"/>
       <use x="254.492188" xlink:href="#DejaVuSans-45"/>
       <use x="290.576172" xlink:href="#DejaVuSans-48"/>
       <use x="354.199219" xlink:href="#DejaVuSans-56"/>
       <use x="417.822266" xlink:href="#DejaVuSans-45"/>
       <use x="453.90625" xlink:href="#DejaVuSans-50"/>
       <use x="517.529297" xlink:href="#DejaVuSans-57"/>
      </g>
     </g>
    </g>
    <g id="xtick_3">
     <g id="line2d_5">
      <path clip-path="url(#pb7cb03a48a)" d="M 184.073786 255.638708 
L 184.073786 25.44 
" style="fill:none;stroke:#b0b0b0;stroke-linecap:square;stroke-width:0.8;"/>
     </g>
     <g id="line2d_6">
      <g>
       <use style="stroke:#000000;stroke-width:0.8;" x="184.073786" xlink:href="#m4ca4810afd" y="255.638708"/>
      </g>
     </g>
     <g id="text_3">
      <!-- 2024-08-30 -->
      <g transform="translate(176.728393 319.848351)rotate(-70)scale(0.1 -0.1)">
       <defs>
        <path d="M 40.578125 39.3125 
Q 47.65625 37.796875 51.625 33 
Q 55.609375 28.21875 55.609375 21.1875 
Q 55.609375 10.40625 48.1875 4.484375 
Q 40.765625 -1.421875 27.09375 -1.421875 
Q 22.515625 -1.421875 17.65625 -0.515625 
Q 12.796875 0.390625 7.625 2.203125 
L 7.625 11.71875 
Q 11.71875 9.328125 16.59375 8.109375 
Q 21.484375 6.890625 26.8125 6.890625 
Q 36.078125 6.890625 40.9375 10.546875 
Q 45.796875 14.203125 45.796875 21.1875 
Q 45.796875 27.640625 41.28125 31.265625 
Q 36.765625 34.90625 28.71875 34.90625 
L 20.21875 34.90625 
L 20.21875 43.015625 
L 29.109375 43.015625 
Q 36.375 43.015625 40.234375 45.921875 
Q 44.09375 48.828125 44.09375 54.296875 
Q 44.09375 59.90625 40.109375 62.90625 
Q 36.140625 65.921875 28.71875 65.921875 
Q 24.65625 65.921875 20.015625 65.03125 
Q 15.375 64.15625 9.8125 62.3125 
L 9.8125 71.09375 
Q 15.4375 72.65625 20.34375 73.4375 
Q 25.25 74.21875 29.59375 74.21875 
Q 40.828125 74.21875 47.359375 69.109375 
Q 53.90625 64.015625 53.90625 55.328125 
Q 53.90625 49.265625 50.4375 45.09375 
Q 46.96875 40.921875 40.578125 39.3125 
z
" id="DejaVuSans-51"/>
       </defs>
       <use xlink:href="#DejaVuSans-50"/>
       <use x="63.623047" xlink:href="#DejaVuSans-48"/>
       <use x="127.246094" xlink:href="#DejaVuSans-50"/>
       <use x="190.869141" xlink:href="#DejaVuSans-52"/>
       <use x="254.492188" xlink:href="#DejaVuSans-45"/>
       <use x="290.576172" xlink:href="#DejaVuSans-48"/>
       <use x="354.199219" xlink:href="#DejaVuSans-56"/>
       <use x="417.822266" xlink:href="#DejaVuSans-45"/>
       <use x="453.90625" xlink:href="#DejaVuSans-51"/>
       <use x="517.529297" xlink:href="#DejaVuSans-48"/>
      </g>
     </g>
    </g>
    <g id="xtick_4">
     <g id="line2d_7">
      <path clip-path="url(#pb7cb03a48a)" d="M 234.119341 255.638708 
L 234.119341 25.44 
" style="fill:none;stroke:#b0b0b0;stroke-linecap:square;stroke-width:0.8;"/>
     </g>
     <g id="line2d_8">
      <g>
       <use style="stroke:#000000;stroke-width:0.8;" x="234.119341" xlink:href="#m4ca4810afd" y="255.638708"/>
      </g>
     </g>
     <g id="text_4">
      <!-- 2024-08-31 -->
      <g transform="translate(226.773949 319.848351)rotate(-70)scale(0.1 -0.1)">
       <defs>
        <path d="M 12.40625 8.296875 
L 28.515625 8.296875 
L 28.515625 63.921875 
L 10.984375 60.40625 
L 10.984375 69.390625 
L 28.421875 72.90625 
L 38.28125 72.90625 
L 38.28125 8.296875 
L 54.390625 8.296875 
L 54.390625 0 
L 12.40625 0 
z
" id="DejaVuSans-49"/>
       </defs>
       <use xlink:href="#DejaVuSans-50"/>
       <use x="63.623047" xlink:href="#DejaVuSans-48"/>
       <use x="127.246094" xlink:href="#DejaVuSans-50"/>
       <use x="190.869141" xlink:href="#DejaVuSans-52"/>
       <use x="254.492188" xlink:href="#DejaVuSans-45"/>
       <use x="290.576172" xlink:href="#DejaVuSans-48"/>
       <use x="354.199219" xlink:href="#DejaVuSans-56"/>
       <use x="417.822266" xlink:href="#DejaVuSans-45"/>
       <use x="453.90625" xlink:href="#DejaVuSans-51"/>
       <use x="517.529297" xlink:href="#DejaVuSans-49"/>
      </g>
     </g>
    </g>
    <g id="xtick_5">
     <g id="line2d_9">
      <path clip-path="url(#pb7cb03a48a)" d="M 284.164897 255.638708 
L 284.164897 25.44 
" style="fill:none;stroke:#b0b0b0;stroke-linecap:square;stroke-width:0.8;"/>
     </g>
     <g id="line2d_10">
      <g>
       <use style="stroke:#000000;stroke-width:0.8;" x="284.164897" xlink:href="#m4ca4810afd" y="255.638708"/>
      </g>
     </g>
     <g id="text_5">
      <!-- 2024-09-01 -->
      <g transform="translate(276.819504 319.848351)rotate(-70)scale(0.1 -0.1)">
       <use xlink:href="#DejaVuSans-50"/>
       <use x="63.623047" xlink:href="#DejaVuSans-48"/>
       <use x="127.246094" xlink:href="#DejaVuSans-50"/>
       <use x="190.869141" xlink:href="#DejaVuSans-52"/>
       <use x="254.492188" xlink:href="#DejaVuSans-45"/>
       <use x="290.576172" xlink:href="#DejaVuSans-48"/>
       <use x="354.199219" xlink:href="#DejaVuSans-57"/>
       <use x="417.822266" xlink:href="#DejaVuSans-45"/>
       <use x="453.90625" xlink:href="#DejaVuSans-48"/>
       <use x="517.529297" xlink:href="#DejaVuSans-49"/>
      </g>
     </g>
    </g>
    <g id="xtick_6">
     <g id="line2d_11">
      <path clip-path="url(#pb7cb03a48a)" d="M 334.210453 255.638708 
L 334.210453 25.44 
" style="fill:none;stroke:#b0b0b0;stroke-linecap:square;stroke-width:0.8;"/>
     </g>
     <g id="line2d_12">
      <g>
       <use style="stroke:#000000;stroke-width:0.8;" x="334.210453" xlink:href="#m4ca4810afd" y="255.638708"/>
      </g>
     </g>
     <g id="text_6">
      <!-- 2024-09-02 -->
      <g transform="translate(326.86506 319.848351)rotate(-70)scale(0.1 -0.1)">
       <use xlink:href="#DejaVuSans-50"/>
       <use x="63.623047" xlink:href="#DejaVuSans-48"/>
       <use x="127.246094" xlink:href="#DejaVuSans-50"/>
       <use x="190.869141" xlink:href="#DejaVuSans-52"/>
       <use x="254.492188" xlink:href="#DejaVuSans-45"/>
       <use x="290.576172" xlink:href="#DejaVuSans-48"/>
       <use x="354.199219" xlink:href="#DejaVuSans-57"/>
       <use x="417.822266" xlink:href="#DejaVuSans-45"/>
       <use x="453.90625" xlink:href="#DejaVuSans-48"/>
       <use x="517.529297" xlink:href="#DejaVuSans-50"/>
      </g>
     </g>
    </g>
    <g id="xtick_7">
     <g id="line2d_13">
      <path clip-path="url(#pb7cb03a48a)" d="M 384.256009 255.638708 
L 384.256009 25.44 
" style="fill:none;stroke:#b0b0b0;stroke-linecap:square;stroke-width:0.8;"/>
     </g>
     <g id="line2d_14">
      <g>
       <use style="stroke:#000000;stroke-width:0.8;" x="384.256009" xlink:href="#m4ca4810afd" y="255.638708"/>
      </g>
     </g>
     <g id="text_7">
      <!-- 2024-09-03 -->
      <g transform="translate(376.910616 319.848351)rotate(-70)scale(0.1 -0.1)">
       <use xlink:href="#DejaVuSans-50"/>
       <use x="63.623047" xlink:href="#DejaVuSans-48"/>
       <use x="127.246094" xlink:href="#DejaVuSans-50"/>
       <use x="190.869141" xlink:href="#DejaVuSans-52"/>
       <use x="254.492188" xlink:href="#DejaVuSans-45"/>
       <use x="290.576172" xlink:href="#DejaVuSans-48"/>
       <use x="354.199219" xlink:href="#DejaVuSans-57"/>
       <use x="417.822266" xlink:href="#DejaVuSans-45"/>
       <use x="453.90625" xlink:href="#DejaVuSans-48"/>
       <use x="517.529297" xlink:href="#DejaVuSans-51"/>
      </g>
     </g>
    </g>
    <g id="xtick_8">
     <g id="line2d_15">
      <path clip-path="url(#pb7cb03a48a)" d="M 434.301565 255.638708 
L 434.301565 25.44 
" style="fill:none;stroke:#b0b0b0;stroke-linecap:square;stroke-width:0.8;"/>
     </g>
     <g id="line2d_16">
      <g>
       <use style="stroke:#000000;stroke-width:0.8;" x="434.301565" xlink:href="#m4ca4810afd" y="255.638708"/>
      </g>
     </g>
     <g id="text_8">
      <!-- 2024-09-04 -->
      <g transform="translate(426.956172 319.848351)rotate(-70)scale(0.1 -0.1)">
       <use xlink:href="#DejaVuSans-50"/>
       <use x="63.623047" xlink:href="#DejaVuSans-48"/>
       <use x="127.246094" xlink:href="#DejaVuSans-50"/>
       <use x="190.869141" xlink:href="#DejaVuSans-52"/>
       <use x="254.492188" xlink:href="#DejaVuSans-45"/>
       <use x="290.576172" xlink:href="#DejaVuSans-48"/>
       <use x="354.199219" xlink:href="#DejaVuSans-57"/>
       <use x="417.822266" xlink:href="#DejaVuSans-45"/>
       <use x="453.90625" xlink:href="#DejaVuSans-48"/>
       <use x="517.529297" xlink:href="#DejaVuSans-52"/>
      </g>
     </g>
    </g>
    <g id="text_9">
     <!-- Date -->
     <g transform="translate(232.357614 332.158083)scale(0.1 -0.1)">
      <defs>
       <path d="M 19.671875 64.796875 
L 19.671875 8.109375 
L 31.59375 8.109375 
Q 46.6875 8.109375 53.6875 14.9375 
Q 60.6875 21.78125 60.6875 36.53125 
Q 60.6875 51.171875 53.6875 57.984375 
Q 46.6875 64.796875 31.59375 64.796875 
z
M 9.8125 72.90625 
L 30.078125 72.90625 
Q 51.265625 72.90625 61.171875 64.09375 
Q 71.09375 55.28125 71.09375 36.53125 
Q 71.09375 17.671875 61.125 8.828125 
Q 51.171875 0 30.078125 0 
L 9.8125 0 
z
" id="DejaVuSans-68"/>
       <path d="M 34.28125 27.484375 
Q 23.390625 27.484375 19.1875 25 
Q 14.984375 22.515625 14.984375 16.5 
Q 14.984375 11.71875 18.140625 8.90625 
Q 21.296875 6.109375 26.703125 6.109375 
Q 34.1875 6.109375 38.703125 11.40625 
Q 43.21875 16.703125 43.21875 25.484375 
L 43.21875 27.484375 
z
M 52.203125 31.203125 
L 52.203125 0 
L 43.21875 0 
L 43.21875 8.296875 
Q 40.140625 3.328125 35.546875 0.953125 
Q 30.953125 -1.421875 24.3125 -1.421875 
Q 15.921875 -1.421875 10.953125 3.296875 
Q 6 8.015625 6 15.921875 
Q 6 25.140625 12.171875 29.828125 
Q 18.359375 34.515625 30.609375 34.515625 
L 43.21875 34.515625 
L 43.21875 35.40625 
Q 43.21875 41.609375 39.140625 45 
Q 35.0625 48.390625 27.6875 48.390625 
Q 23 48.390625 18.546875 47.265625 
Q 14.109375 46.140625 10.015625 43.890625 
L 10.015625 52.203125 
Q 14.9375 54.109375 19.578125 55.046875 
Q 24.21875 56 28.609375 56 
Q 40.484375 56 46.34375 49.84375 
Q 52.203125 43.703125 52.203125 31.203125 
z
" id="DejaVuSans-97"/>
       <path d="M 18.3125 70.21875 
L 18.3125 54.6875 
L 36.8125 54.6875 
L 36.8125 47.703125 
L 18.3125 47.703125 
L 18.3125 18.015625 
Q 18.3125 11.328125 20.140625 9.421875 
Q 21.96875 7.515625 27.59375 7.515625 
L 36.8125 7.515625 
L 36.8125 0 
L 27.59375 0 
Q 17.1875 0 13.234375 3.875 
Q 9.28125 7.765625 9.28125 18.015625 
L 9.28125 47.703125 
L 2.6875 47.703125 
L 2.6875 54.6875 
L 9.28125 54.6875 
L 9.28125 70.21875 
z
" id="DejaVuSans-116"/>
       <path d="M 56.203125 29.59375 
L 56.203125 25.203125 
L 14.890625 25.203125 
Q 15.484375 15.921875 20.484375 11.0625 
Q 25.484375 6.203125 34.421875 6.203125 
Q 39.59375 6.203125 44.453125 7.46875 
Q 49.3125 8.734375 54.109375 11.28125 
L 54.109375 2.78125 
Q 49.265625 0.734375 44.1875 -0.34375 
Q 39.109375 -1.421875 33.890625 -1.421875 
Q 20.796875 -1.421875 13.15625 6.1875 
Q 5.515625 13.8125 5.515625 26.8125 
Q 5.515625 40.234375 12.765625 48.109375 
Q 20.015625 56 32.328125 56 
Q 43.359375 56 49.78125 48.890625 
Q 56.203125 41.796875 56.203125 29.59375 
z
M 47.21875 32.234375 
Q 47.125 39.59375 43.09375 43.984375 
Q 39.0625 48.390625 32.421875 48.390625 
Q 24.90625 48.390625 20.390625 44.140625 
Q 15.875 39.890625 15.1875 32.171875 
z
" id="DejaVuSans-101"/>
      </defs>
      <use xlink:href="#DejaVuSans-68"/>
      <use x="77.001953" xlink:href="#DejaVuSans-97"/>
      <use x="138.28125" xlink:href="#DejaVuSans-116"/>
      <use x="177.490234" xlink:href="#DejaVuSans-101"/>
     </g>
    </g>
   </g>
   <g id="matplotlib.axis_2">
    <g id="ytick_1">
     <g id="line2d_17">
      <path clip-path="url(#pb7cb03a48a)" d="M 44.66 232.095658 
L 443.95679 232.095658 
" style="fill:none;stroke:#b0b0b0;stroke-linecap:square;stroke-width:0.8;"/>
     </g>
     <g id="line2d_18">
      <defs>
       <path d="M 0 0 
L -3.5 0 
" id="m8810e653d8" style="stroke:#000000;stroke-width:0.8;"/>
      </defs>
      <g>
       <use style="stroke:#000000;stroke-width:0.8;" x="44.66" xlink:href="#m8810e653d8" y="232.095658"/>
      </g>
     </g>
     <g id="text_10">
      <!-- 60 -->
      <g transform="translate(24.935 235.894877)scale(0.1 -0.1)">
       <defs>
        <path d="M 33.015625 40.375 
Q 26.375 40.375 22.484375 35.828125 
Q 18.609375 31.296875 18.609375 23.390625 
Q 18.609375 15.53125 22.484375 10.953125 
Q 26.375 6.390625 33.015625 6.390625 
Q 39.65625 6.390625 43.53125 10.953125 
Q 47.40625 15.53125 47.40625 23.390625 
Q 47.40625 31.296875 43.53125 35.828125 
Q 39.65625 40.375 33.015625 40.375 
z
M 52.59375 71.296875 
L 52.59375 62.3125 
Q 48.875 64.0625 45.09375 64.984375 
Q 41.3125 65.921875 37.59375 65.921875 
Q 27.828125 65.921875 22.671875 59.328125 
Q 17.53125 52.734375 16.796875 39.40625 
Q 19.671875 43.65625 24.015625 45.921875 
Q 28.375 48.1875 33.59375 48.1875 
Q 44.578125 48.1875 50.953125 41.515625 
Q 57.328125 34.859375 57.328125 23.390625 
Q 57.328125 12.15625 50.6875 5.359375 
Q 44.046875 -1.421875 33.015625 -1.421875 
Q 20.359375 -1.421875 13.671875 8.265625 
Q 6.984375 17.96875 6.984375 36.375 
Q 6.984375 53.65625 15.1875 63.9375 
Q 23.390625 74.21875 37.203125 74.21875 
Q 40.921875 74.21875 44.703125 73.484375 
Q 48.484375 72.75 52.59375 71.296875 
z
" id="DejaVuSans-54"/>
       </defs>
       <use xlink:href="#DejaVuSans-54"/>
       <use x="63.623047" xlink:href="#DejaVuSans-48"/>
      </g>
     </g>
    </g>
    <g id="ytick_2">
     <g id="line2d_19">
      <path clip-path="url(#pb7cb03a48a)" d="M 44.66 205.936714 
L 443.95679 205.936714 
" style="fill:none;stroke:#b0b0b0;stroke-linecap:square;stroke-width:0.8;"/>
     </g>
     <g id="line2d_20">
      <g>
       <use style="stroke:#000000;stroke-width:0.8;" x="44.66" xlink:href="#m8810e653d8" y="205.936714"/>
      </g>
     </g>
     <g id="text_11">
      <!-- 62 -->
      <g transform="translate(24.935 209.735933)scale(0.1 -0.1)">
       <use xlink:href="#DejaVuSans-54"/>
       <use x="63.623047" xlink:href="#DejaVuSans-50"/>
      </g>
     </g>
    </g>
    <g id="ytick_3">
     <g id="line2d_21">
      <path clip-path="url(#pb7cb03a48a)" d="M 44.66 179.77777 
L 443.95679 179.77777 
" style="fill:none;stroke:#b0b0b0;stroke-linecap:square;stroke-width:0.8;"/>
     </g>
     <g id="line2d_22">
      <g>
       <use style="stroke:#000000;stroke-width:0.8;" x="44.66" xlink:href="#m8810e653d8" y="179.77777"/>
      </g>
     </g>
     <g id="text_12">
      <!-- 64 -->
      <g transform="translate(24.935 183.576989)scale(0.1 -0.1)">
       <use xlink:href="#DejaVuSans-54"/>
       <use x="63.623047" xlink:href="#DejaVuSans-52"/>
      </g>
     </g>
    </g>
    <g id="ytick_4">
     <g id="line2d_23">
      <path clip-path="url(#pb7cb03a48a)" d="M 44.66 153.618826 
L 443.95679 153.618826 
" style="fill:none;stroke:#b0b0b0;stroke-linecap:square;stroke-width:0.8;"/>
     </g>
     <g id="line2d_24">
      <g>
       <use style="stroke:#000000;stroke-width:0.8;" x="44.66" xlink:href="#m8810e653d8" y="153.618826"/>
      </g>
     </g>
     <g id="text_13">
      <!-- 66 -->
      <g transform="translate(24.935 157.418045)scale(0.1 -0.1)">
       <use xlink:href="#DejaVuSans-54"/>
       <use x="63.623047" xlink:href="#DejaVuSans-54"/>
      </g>
     </g>
    </g>
    <g id="ytick_5">
     <g id="line2d_25">
      <path clip-path="url(#pb7cb03a48a)" d="M 44.66 127.459882 
L 443.95679 127.459882 
" style="fill:none;stroke:#b0b0b0;stroke-linecap:square;stroke-width:0.8;"/>
     </g>
     <g id="line2d_26">
      <g>
       <use style="stroke:#000000;stroke-width:0.8;" x="44.66" xlink:href="#m8810e653d8" y="127.459882"/>
      </g>
     </g>
     <g id="text_14">
      <!-- 68 -->
      <g transform="translate(24.935 131.259101)scale(0.1 -0.1)">
       <use xlink:href="#DejaVuSans-54"/>
       <use x="63.623047" xlink:href="#DejaVuSans-56"/>
      </g>
     </g>
    </g>
    <g id="ytick_6">
     <g id="line2d_27">
      <path clip-path="url(#pb7cb03a48a)" d="M 44.66 101.300938 
L 443.95679 101.300938 
" style="fill:none;stroke:#b0b0b0;stroke-linecap:square;stroke-width:0.8;"/>
     </g>
     <g id="line2d_28">
      <g>
       <use style="stroke:#000000;stroke-width:0.8;" x="44.66" xlink:href="#m8810e653d8" y="101.300938"/>
      </g>
     </g>
     <g id="text_15">
      <!-- 70 -->
      <g transform="translate(24.935 105.100157)scale(0.1 -0.1)">
       <defs>
        <path d="M 8.203125 72.90625 
L 55.078125 72.90625 
L 55.078125 68.703125 
L 28.609375 0 
L 18.3125 0 
L 43.21875 64.59375 
L 8.203125 64.59375 
z
" id="DejaVuSans-55"/>
       </defs>
       <use xlink:href="#DejaVuSans-55"/>
       <use x="63.623047" xlink:href="#DejaVuSans-48"/>
      </g>
     </g>
    </g>
    <g id="ytick_7">
     <g id="line2d_29">
      <path clip-path="url(#pb7cb03a48a)" d="M 44.66 75.141994 
L 443.95679 75.141994 
" style="fill:none;stroke:#b0b0b0;stroke-linecap:square;stroke-width:0.8;"/>
     </g>
     <g id="line2d_30">
      <g>
       <use style="stroke:#000000;stroke-width:0.8;" x="44.66" xlink:href="#m8810e653d8" y="75.141994"/>
      </g>
     </g>
     <g id="text_16">
      <!-- 72 -->
      <g transform="translate(24.935 78.941213)scale(0.1 -0.1)">
       <use xlink:href="#DejaVuSans-55"/>
       <use x="63.623047" xlink:href="#DejaVuSans-50"/>
      </g>
     </g>
    </g>
    <g id="ytick_8">
     <g id="line2d_31">
      <path clip-path="url(#pb7cb03a48a)" d="M 44.66 48.98305 
L 443.95679 48.98305 
" style="fill:none;stroke:#b0b0b0;stroke-linecap:square;stroke-width:0.8;"/>
     </g>
     <g id="line2d_32">
      <g>
       <use style="stroke:#000000;stroke-width:0.8;" x="44.66" xlink:href="#m8810e653d8" y="48.98305"/>
      </g>
     </g>
     <g id="text_17">
      <!-- 74 -->
      <g transform="translate(24.935 52.782268)scale(0.1 -0.1)">
       <use xlink:href="#DejaVuSans-55"/>
       <use x="63.623047" xlink:href="#DejaVuSans-52"/>
      </g>
     </g>
    </g>
    <g id="text_18">
     <!-- Temperature [F] -->
     <g transform="translate(18.855313 180.575291)rotate(-90)scale(0.1 -0.1)">
      <defs>
       <path d="M -0.296875 72.90625 
L 61.375 72.90625 
L 61.375 64.59375 
L 35.5 64.59375 
L 35.5 0 
L 25.59375 0 
L 25.59375 64.59375 
L -0.296875 64.59375 
z
" id="DejaVuSans-84"/>
       <path d="M 52 44.1875 
Q 55.375 50.25 60.0625 53.125 
Q 64.75 56 71.09375 56 
Q 79.640625 56 84.28125 50.015625 
Q 88.921875 44.046875 88.921875 33.015625 
L 88.921875 0 
L 79.890625 0 
L 79.890625 32.71875 
Q 79.890625 40.578125 77.09375 44.375 
Q 74.3125 48.1875 68.609375 48.1875 
Q 61.625 48.1875 57.5625 43.546875 
Q 53.515625 38.921875 53.515625 30.90625 
L 53.515625 0 
L 44.484375 0 
L 44.484375 32.71875 
Q 44.484375 40.625 41.703125 44.40625 
Q 38.921875 48.1875 33.109375 48.1875 
Q 26.21875 48.1875 22.15625 43.53125 
Q 18.109375 38.875 18.109375 30.90625 
L 18.109375 0 
L 9.078125 0 
L 9.078125 54.6875 
L 18.109375 54.6875 
L 18.109375 46.1875 
Q 21.1875 51.21875 25.484375 53.609375 
Q 29.78125 56 35.6875 56 
Q 41.65625 56 45.828125 52.96875 
Q 50 49.953125 52 44.1875 
z
" id="DejaVuSans-109"/>
       <path d="M 18.109375 8.203125 
L 18.109375 -20.796875 
L 9.078125 -20.796875 
L 9.078125 54.6875 
L 18.109375 54.6875 
L 18.109375 46.390625 
Q 20.953125 51.265625 25.265625 53.625 
Q 29.59375 56 35.59375 56 
Q 45.5625 56 51.78125 48.09375 
Q 58.015625 40.1875 58.015625 27.296875 
Q 58.015625 14.40625 51.78125 6.484375 
Q 45.5625 -1.421875 35.59375 -1.421875 
Q 29.59375 -1.421875 25.265625 0.953125 
Q 20.953125 3.328125 18.109375 8.203125 
z
M 48.6875 27.296875 
Q 48.6875 37.203125 44.609375 42.84375 
Q 40.53125 48.484375 33.40625 48.484375 
Q 26.265625 48.484375 22.1875 42.84375 
Q 18.109375 37.203125 18.109375 27.296875 
Q 18.109375 17.390625 22.1875 11.75 
Q 26.265625 6.109375 33.40625 6.109375 
Q 40.53125 6.109375 44.609375 11.75 
Q 48.6875 17.390625 48.6875 27.296875 
z
" id="DejaVuSans-112"/>
       <path d="M 41.109375 46.296875 
Q 39.59375 47.171875 37.8125 47.578125 
Q 36.03125 48 33.890625 48 
Q 26.265625 48 22.1875 43.046875 
Q 18.109375 38.09375 18.109375 28.8125 
L 18.109375 0 
L 9.078125 0 
L 9.078125 54.6875 
L 18.109375 54.6875 
L 18.109375 46.1875 
Q 20.953125 51.171875 25.484375 53.578125 
Q 30.03125 56 36.53125 56 
Q 37.453125 56 38.578125 55.875 
Q 39.703125 55.765625 41.0625 55.515625 
z
" id="DejaVuSans-114"/>
       <path d="M 8.5 21.578125 
L 8.5 54.6875 
L 17.484375 54.6875 
L 17.484375 21.921875 
Q 17.484375 14.15625 20.5 10.265625 
Q 23.53125 6.390625 29.59375 6.390625 
Q 36.859375 6.390625 41.078125 11.03125 
Q 45.3125 15.671875 45.3125 23.6875 
L 45.3125 54.6875 
L 54.296875 54.6875 
L 54.296875 0 
L 45.3125 0 
L 45.3125 8.40625 
Q 42.046875 3.421875 37.71875 1 
Q 33.40625 -1.421875 27.6875 -1.421875 
Q 18.265625 -1.421875 13.375 4.4375 
Q 8.5 10.296875 8.5 21.578125 
z
M 31.109375 56 
z
" id="DejaVuSans-117"/>
       <path id="DejaVuSans-32"/>
       <path d="M 8.59375 75.984375 
L 29.296875 75.984375 
L 29.296875 69 
L 17.578125 69 
L 17.578125 -6.203125 
L 29.296875 -6.203125 
L 29.296875 -13.1875 
L 8.59375 -13.1875 
z
" id="DejaVuSans-91"/>
       <path d="M 9.8125 72.90625 
L 51.703125 72.90625 
L 51.703125 64.59375 
L 19.671875 64.59375 
L 19.671875 43.109375 
L 48.578125 43.109375 
L 48.578125 34.8125 
L 19.671875 34.8125 
L 19.671875 0 
L 9.8125 0 
z
" id="DejaVuSans-70"/>
       <path d="M 30.421875 75.984375 
L 30.421875 -13.1875 
L 9.71875 -13.1875 
L 9.71875 -6.203125 
L 21.390625 -6.203125 
L 21.390625 69 
L 9.71875 69 
L 9.71875 75.984375 
z
" id="DejaVuSans-93"/>
      </defs>
      <use xlink:href="#DejaVuSans-84"/>
      <use x="44.083984" xlink:href="#DejaVuSans-101"/>
      <use x="105.607422" xlink:href="#DejaVuSans-109"/>
      <use x="203.019531" xlink:href="#DejaVuSans-112"/>
      <use x="266.496094" xlink:href="#DejaVuSans-101"/>
      <use x="328.019531" xlink:href="#DejaVuSans-114"/>
      <use x="369.132812" xlink:href="#DejaVuSans-97"/>
      <use x="430.412109" xlink:href="#DejaVuSans-116"/>
      <use x="469.621094" xlink:href="#DejaVuSans-117"/>
      <use x="533" xlink:href="#DejaVuSans-114"/>
      <use x="571.863281" xlink:href="#DejaVuSans-101"/>
      <use x="633.386719" xlink:href="#DejaVuSans-32"/>
      <use x="665.173828" xlink:href="#DejaVuSans-91"/>
      <use x="704.1875" xlink:href="#DejaVuSans-70"/>
      <use x="761.707031" xlink:href="#DejaVuSans-93"/>
     </g>
    </g>
   </g>
   <g id="line2d_33">
    <path clip-path="url(#pb7cb03a48a)" d="M 62.809854 115.688357 
L 62.886236 115.688357 
L 62.958218 114.38041 
L 62.994919 115.688357 
L 63.030932 115.688357 
L 63.175187 114.38041 
L 63.247416 114.38041 
L 63.28352 115.688357 
L 63.320276 114.38041 
L 63.465469 113.072463 
L 63.683757 113.072463 
L 63.793957 111.764515 
L 63.905518 113.072463 
L 63.941435 113.072463 
L 64.013711 114.38041 
L 64.049937 113.072463 
L 64.124976 111.764515 
L 64.161018 114.38041 
L 64.233443 111.764515 
L 64.307852 111.764515 
L 64.418267 109.148621 
L 64.455303 109.148621 
L 64.491186 111.764515 
L 64.527855 107.840674 
L 64.563822 107.840674 
L 64.600737 109.148621 
L 64.673922 107.840674 
L 64.819132 107.840674 
L 64.892969 106.532727 
L 64.930265 107.840674 
L 64.967359 107.840674 
L 65.004208 106.532727 
L 65.040245 109.148621 
L 65.149137 109.148621 
L 65.222703 106.532727 
L 65.260657 107.840674 
L 65.334723 106.532727 
L 65.370768 107.840674 
L 65.516261 107.840674 
L 65.66402 109.148621 
L 65.7742 109.148621 
L 65.959857 105.224779 
L 66.105101 106.532727 
L 66.143496 107.840674 
L 66.29184 105.224779 
L 66.329895 105.224779 
L 66.367673 103.916832 
L 66.440168 105.224779 
L 66.476751 106.532727 
L 66.537268 105.224779 
L 66.685356 105.224779 
L 66.759937 103.916832 
L 66.796282 105.224779 
L 66.834873 105.224779 
L 66.94787 106.532727 
L 66.983805 106.532727 
L 67.021339 109.148621 
L 67.096197 107.840674 
L 67.172788 109.148621 
L 67.254024 109.148621 
L 67.290163 111.764515 
L 67.36418 109.148621 
L 67.472589 109.148621 
L 67.509021 107.840674 
L 67.581086 109.148621 
L 67.620359 107.840674 
L 67.656835 109.148621 
L 67.69449 109.148621 
L 67.803822 107.840674 
L 67.87875 111.764515 
L 67.988336 107.840674 
L 68.067012 111.764515 
L 68.102954 109.148621 
L 68.138855 109.148621 
L 68.174957 111.764515 
L 68.211186 107.840674 
L 68.247108 109.148621 
L 68.284069 109.148621 
L 68.430733 114.38041 
L 68.505349 109.148621 
L 68.541312 114.38041 
L 68.578757 116.996304 
L 68.616575 113.072463 
L 68.804954 107.840674 
L 68.952813 116.996304 
L 69.027638 113.072463 
L 69.064659 115.688357 
L 69.141728 116.996304 
L 69.213449 115.688357 
L 69.249382 116.996304 
L 69.325504 118.304252 
L 69.362731 116.996304 
L 69.434524 118.304252 
L 69.765929 118.304252 
L 69.912646 119.612199 
L 70.023718 118.304252 
L 70.096947 119.612199 
L 70.133099 118.304252 
L 70.169106 116.996304 
L 70.206128 119.612199 
L 70.282445 119.612199 
L 70.392277 114.38041 
L 70.430102 118.304252 
L 70.467945 122.228093 
L 70.540276 119.612199 
L 70.652424 119.612199 
L 70.728395 115.688357 
L 70.764332 119.612199 
L 70.838497 115.688357 
L 70.874729 115.688357 
L 71.02155 116.996304 
L 71.095788 116.996304 
L 71.132238 115.688357 
L 71.16811 116.996304 
L 71.205627 118.304252 
L 71.241973 114.38041 
L 71.278585 118.304252 
L 71.353234 119.612199 
L 71.427819 116.996304 
L 71.463646 118.304252 
L 71.499617 118.304252 
L 71.535447 116.996304 
L 71.571554 119.612199 
L 71.609311 119.612199 
L 71.646012 116.996304 
L 71.718087 118.304252 
L 71.90256 118.304252 
L 72.016621 119.612199 
L 72.126171 118.304252 
L 72.240644 119.612199 
L 72.314914 116.996304 
L 72.387398 118.304252 
L 72.460541 118.304252 
L 72.607458 119.612199 
L 73.009219 119.612199 
L 73.119787 122.228093 
L 73.157493 119.612199 
L 73.230098 122.228093 
L 73.825083 122.228093 
L 73.902215 123.53604 
L 74.012475 122.228093 
L 74.121154 123.53604 
L 74.157145 122.228093 
L 74.229633 123.53604 
L 74.926651 123.53604 
L 74.963139 124.843988 
L 74.999261 123.53604 
L 167.485363 124.843988 
L 167.52272 123.53604 
L 167.960401 119.612199 
L 167.996696 123.53604 
L 168.072804 122.228093 
L 168.14979 123.53604 
L 168.186837 119.612199 
L 168.275811 123.53604 
L 168.448984 118.304252 
L 168.562726 114.38041 
L 168.72063 119.612199 
L 168.756473 118.304252 
L 168.923966 122.228093 
L 169.078282 122.228093 
L 169.114205 123.53604 
L 169.264092 118.304252 
L 169.30393 118.304252 
L 169.421082 107.840674 
L 169.526377 118.304252 
L 169.56241 115.688357 
L 169.680185 119.612199 
L 169.721588 116.996304 
L 169.795359 118.304252 
L 169.923481 122.228093 
L 170.04171 118.304252 
L 170.158862 119.612199 
L 170.194809 119.612199 
L 170.381699 106.532727 
L 170.528093 118.304252 
L 170.563984 119.612199 
L 170.709944 105.224779 
L 170.747555 106.532727 
L 171.056573 122.228093 
L 171.128405 116.996304 
L 171.188374 118.304252 
L 171.301303 116.996304 
L 171.338513 116.996304 
L 171.376553 115.688357 
L 171.412655 116.996304 
L 171.560851 122.228093 
L 171.714294 116.996304 
L 171.788144 116.996304 
L 171.911554 106.532727 
L 172.036763 119.612199 
L 172.075591 116.996304 
L 172.15734 122.228093 
L 172.270542 116.996304 
L 172.416813 122.228093 
L 172.452645 118.304252 
L 172.489941 119.612199 
L 172.637615 119.612199 
L 172.674992 116.996304 
L 172.713847 118.304252 
L 172.79021 123.53604 
L 172.827183 122.228093 
L 172.935996 118.304252 
L 172.973834 119.612199 
L 173.012913 111.764515 
L 173.089181 114.38041 
L 173.126647 113.072463 
L 173.202227 118.304252 
L 173.238337 115.688357 
L 173.277093 114.38041 
L 173.312914 115.688357 
L 173.496204 118.304252 
L 173.614953 116.996304 
L 173.686651 116.996304 
L 173.75924 118.304252 
L 173.796251 115.688357 
L 173.868013 118.304252 
L 173.904362 118.304252 
L 173.940202 116.996304 
L 174.013774 118.304252 
L 174.050757 118.304252 
L 174.194846 119.612199 
L 174.232106 119.612199 
L 174.378053 122.228093 
L 174.414488 122.228093 
L 174.561207 123.53604 
L 175.074293 123.53604 
L 175.184932 124.843988 
L 175.332296 123.53604 
L 175.5904 123.53604 
L 175.626617 118.304252 
L 175.698708 123.53604 
L 175.808916 122.228093 
L 175.886742 123.53604 
L 175.923856 122.228093 
L 175.961345 123.53604 
L 176.071065 123.53604 
L 176.107667 122.228093 
L 176.179873 123.53604 
L 176.252395 123.53604 
L 176.363379 124.843988 
L 176.400753 123.53604 
L 176.436681 124.843988 
L 177.220192 124.843988 
L 177.259256 126.151935 
L 177.29525 124.843988 
L 177.419042 123.53604 
L 177.875726 123.53604 
L 177.983827 122.228093 
L 178.020374 123.53604 
L 178.060542 122.228093 
L 178.613876 122.228093 
L 178.649796 123.53604 
L 178.722485 122.228093 
L 179.055171 122.228093 
L 179.167582 123.53604 
L 179.312359 122.228093 
L 179.456184 122.228093 
L 179.565107 123.53604 
L 179.675842 122.228093 
L 179.822677 123.53604 
L 179.894627 123.53604 
L 180.03859 122.228093 
L 180.11085 122.228093 
L 180.218554 123.53604 
L 180.336588 122.228093 
L 180.736377 122.228093 
L 325.334781 85.605571 
L 325.41832 88.221466 
L 325.593002 88.221466 
L 325.629197 85.605571 
L 325.704104 88.221466 
L 325.821952 88.221466 
L 325.85928 85.605571 
L 325.895314 88.221466 
L 326.271093 88.221466 
L 326.345244 89.529413 
L 326.381487 88.221466 
L 326.608931 88.221466 
L 326.646847 89.529413 
L 326.689816 88.221466 
L 326.769303 88.221466 
L 326.916516 89.529413 
L 326.990733 89.529413 
L 327.027747 88.221466 
L 327.099905 89.529413 
L 327.245332 89.529413 
L 327.35425 88.221466 
L 327.480381 89.529413 
L 328.3062 89.529413 
L 328.342528 90.83736 
L 328.414314 89.529413 
L 328.450119 89.529413 
L 328.486875 90.83736 
L 328.559773 89.529413 
L 328.596879 89.529413 
L 328.671251 90.83736 
L 328.70739 89.529413 
L 328.747883 90.83736 
L 328.785198 89.529413 
L 328.936103 89.529413 
L 329.080647 90.83736 
L 329.780936 90.83736 
L 329.817193 92.145307 
L 329.889201 90.83736 
L 330.040793 90.83736 
L 330.080914 92.145307 
L 330.135052 90.83736 
L 330.507551 90.83736 
L 330.584473 92.145307 
L 330.621736 90.83736 
L 330.695033 92.145307 
L 332.219057 92.145307 
L 332.256749 93.453255 
L 332.294492 92.145307 
L 332.665345 92.145307 
L 332.740792 93.453255 
L 332.855741 92.145307 
L 332.892914 93.453255 
L 332.966289 92.145307 
L 333.003251 92.145307 
L 333.150133 93.453255 
L 333.676645 93.453255 
L 333.849835 94.761202 
L 333.994467 93.453255 
L 335.06646 93.453255 
L 335.102272 92.145307 
L 335.176916 93.453255 
L 335.438021 93.453255 
L 335.474178 92.145307 
L 335.548685 93.453255 
L 335.586257 93.453255 
L 335.695567 92.145307 
L 335.804388 93.453255 
L 336.397241 93.453255 
L 336.433096 94.761202 
L 336.50477 93.453255 
L 337.19651 93.453255 
L 337.233441 92.145307 
L 337.306386 93.453255 
L 337.415759 93.453255 
L 337.46394 92.145307 
L 337.504439 93.453255 
L 337.871921 93.453255 
L 337.90891 92.145307 
L 337.946003 93.453255 
L 339.164811 93.453255 
L 339.200853 94.761202 
L 339.236962 93.453255 
L 339.276108 93.453255 
L 339.38577 94.761202 
L 339.537847 93.453255 
L 339.699092 94.761202 
L 339.808967 93.453255 
L 339.884428 93.453255 
L 340.030711 94.761202 
L 340.106128 93.453255 
L 340.142198 94.761202 
L 340.214691 93.453255 
L 340.362632 93.453255 
L 340.506679 94.761202 
L 341.152876 94.761202 
L 341.189159 96.069149 
L 341.261077 94.761202 
L 341.710753 94.761202 
L 341.822881 96.069149 
L 341.93454 94.761202 
L 342.044672 96.069149 
L 342.15921 94.761202 
L 342.272868 96.069149 
L 342.349572 96.069149 
L 342.388424 94.761202 
L 342.424602 96.069149 
L 343.615318 96.069149 
L 343.652458 98.685043 
L 343.725888 96.069149 
L 343.761787 96.069149 
L 343.804016 98.685043 
L 343.840082 96.069149 
L 344.36787 96.069149 
L 344.440514 98.685043 
L 344.477595 96.069149 
L 344.820894 96.069149 
L 344.930849 98.685043 
L 344.96893 98.685043 
L 345.077549 96.069149 
L 345.18649 98.685043 
L 345.298649 96.069149 
L 345.408493 98.685043 
L 345.52535 96.069149 
L 345.561358 96.069149 
L 345.633779 98.685043 
L 345.671434 96.069149 
L 345.817617 98.685043 
L 345.892782 98.685043 
L 345.930065 96.069149 
L 345.969848 98.685043 
L 347.075511 98.685043 
L 347.189337 99.992991 
L 347.30751 98.685043 
L 347.417454 98.685043 
L 347.455123 99.992991 
L 347.491555 98.685043 
L 347.89184 98.685043 
L 348.004812 99.992991 
L 348.040696 99.992991 
L 348.150552 98.685043 
L 348.298711 99.992991 
L 349.560413 99.992991 
L 349.669864 101.300938 
L 349.745563 99.992991 
L 349.855911 101.300938 
L 349.928376 99.992991 
L 349.964447 101.300938 
L 350.807197 101.300938 
L 350.920197 99.992991 
L 350.956488 99.992991 
L 351.102888 101.300938 
L 352.61763 101.300938 
L 352.653659 102.608885 
L 352.845937 101.300938 
L 354.033889 101.300938 
L 354.071289 102.608885 
L 354.110165 101.300938 
L 354.188092 102.608885 
L 354.299986 101.300938 
L 354.425225 102.608885 
L 355.47922 102.608885 
L 355.5152 101.300938 
L 355.554113 102.608885 
L 355.778646 102.608885 
L 355.888592 101.300938 
L 356.002078 102.608885 
L 356.076 102.608885 
L 356.189469 101.300938 
L 356.409538 101.300938 
L 356.44538 102.608885 
L 356.519989 101.300938 
L 356.631062 101.300938 
L 356.745279 102.608885 
L 356.782998 102.608885 
L 356.930874 101.300938 
L 357.223086 101.300938 
L 357.259055 102.608885 
L 357.300205 101.300938 
L 357.339186 101.300938 
L 357.377353 102.608885 
L 357.415296 101.300938 
L 358.698164 101.300938 
L 358.734072 99.992991 
L 358.80801 101.300938 
L 358.956961 99.992991 
L 359.181064 99.992991 
L 359.255833 98.685043 
L 359.36777 99.992991 
L 359.517989 99.992991 
L 359.601042 98.685043 
L 359.712617 99.992991 
L 359.750891 98.685043 
L 359.786885 99.992991 
L 360.870334 99.992991 
L 360.908023 98.685043 
L 360.944092 99.992991 
L 360.983146 99.992991 
L 361.091688 98.685043 
L 361.13989 98.685043 
L 361.176107 99.992991 
L 361.248381 98.685043 
L 361.398037 98.685043 
L 361.509947 96.069149 
L 361.918787 96.069149 
L 361.991328 94.761202 
L 362.02771 96.069149 
L 362.912547 96.069149 
L 363.021927 94.761202 
L 363.134071 96.069149 
L 363.243057 96.069149 
L 363.352878 94.761202 
L 363.389346 96.069149 
L 363.463198 94.761202 
L 363.499099 94.761202 
L 363.643056 93.453255 
L 363.718245 93.453255 
L 363.863867 94.761202 
L 363.972391 94.761202 
L 364.047782 93.453255 
L 364.193067 94.761202 
L 364.312531 93.453255 
L 364.541939 93.453255 
L 364.654776 94.761202 
L 364.801648 93.453255 
L 364.838753 94.761202 
L 364.876915 93.453255 
L 364.91571 93.453255 
L 365.03316 94.761202 
L 365.223323 94.761202 
L 365.259314 93.453255 
L 365.33327 94.761202 
L 365.856 94.761202 
L 365.968034 93.453255 
L 366.004037 93.453255 
L 366.07826 94.761202 
L 366.114423 93.453255 
L 366.230547 93.453255 
L 366.309345 94.761202 
L 366.345322 93.453255 
L 366.419638 94.761202 
L 366.458327 93.453255 
L 366.495608 94.761202 
L 366.535023 94.761202 
L 366.572792 93.453255 
L 366.646019 94.761202 
L 366.685298 94.761202 
L 366.799788 93.453255 
L 366.915241 93.453255 
L 367.063797 94.761202 
L 367.101073 94.761202 
L 367.248841 93.453255 
L 367.514612 93.453255 
L 367.555307 94.761202 
L 367.591305 93.453255 
L 367.795038 93.453255 
L 367.831914 94.761202 
L 367.868986 93.453255 
L 368.193794 93.453255 
L 368.229689 90.83736 
L 368.30329 92.145307 
L 368.411841 92.145307 
L 368.558256 93.453255 
L 368.70563 93.453255 
L 368.778132 94.761202 
L 368.814712 93.453255 
L 368.851982 93.453255 
L 368.887921 92.145307 
L 368.961154 93.453255 
L 368.997751 93.453255 
L 369.108175 92.145307 
L 369.144144 93.453255 
L 369.219 92.145307 
L 369.293543 92.145307 
L 369.404177 93.453255 
L 369.857924 93.453255 
L 369.893982 94.761202 
L 369.968808 93.453255 
L 370.08159 92.145307 
L 370.192724 93.453255 
L 370.713943 93.453255 
L 370.859835 94.761202 
L 370.934748 94.761202 
L 370.972335 93.453255 
L 371.044818 94.761202 
L 371.484505 94.761202 
L 371.632365 93.453255 
L 371.790221 94.761202 
L 372.245226 94.761202 
L 372.352979 96.069149 
L 372.499403 94.761202 
L 372.648553 94.761202 
L 372.68676 93.453255 
L 372.759218 94.761202 
L 373.205445 94.761202 
L 373.242579 96.069149 
L 373.314993 94.761202 
L 373.815308 94.761202 
L 373.887969 96.069149 
L 374.00197 94.761202 
L 374.112982 94.761202 
L 374.264039 96.069149 
L 374.859665 96.069149 
L 374.933231 94.761202 
L 374.969688 96.069149 
L 375.120148 96.069149 
L 375.158405 94.761202 
L 375.196573 96.069149 
L 376.247961 96.069149 
L 376.285335 98.685043 
L 376.448561 96.069149 
L 376.57197 98.685043 
L 376.607864 96.069149 
L 376.654076 98.685043 
L 376.690123 98.685043 
L 376.726672 96.069149 
L 376.763746 98.685043 
L 376.84037 98.685043 
L 376.985832 96.069149 
L 377.096451 98.685043 
L 377.257142 98.685043 
L 377.296155 96.069149 
L 377.334375 98.685043 
L 377.371603 98.685043 
L 377.40747 96.069149 
L 377.574108 98.685043 
L 378.517754 98.685043 
L 378.651238 99.992991 
L 378.725741 98.685043 
L 378.801664 99.992991 
L 378.876982 98.685043 
L 378.98846 99.992991 
L 379.098198 98.685043 
L 379.224242 99.992991 
L 380.188748 99.992991 
L 380.224606 101.300938 
L 380.297445 99.992991 
L 380.926824 99.992991 
L 380.962887 101.300938 
L 381.037189 99.992991 
L 381.074304 99.992991 
L 381.185128 101.300938 
L 381.221724 99.992991 
L 381.295984 101.300938 
L 381.33367 101.300938 
L 381.44835 99.992991 
L 381.484941 99.992991 
L 381.641671 101.300938 
L 383.699383 101.300938 
L 383.739594 102.608885 
L 383.781265 101.300938 
L 383.934274 101.300938 
L 384.009233 102.608885 
L 384.126587 101.300938 
L 384.167412 102.608885 
L 384.206455 101.300938 
L 384.242359 101.300938 
L 384.352617 102.608885 
L 384.795851 102.608885 
L 384.834188 101.300938 
L 384.871429 102.608885 
L 385.053697 102.608885 
L 385.089589 101.300938 
L 385.163099 102.608885 
L 385.460439 102.608885 
L 385.49931 103.916832 
L 385.537423 102.608885 
L 386.585117 102.608885 
L 386.622699 101.300938 
L 386.660175 102.608885 
L 388.387086 102.608885 
L 388.424089 103.916832 
L 388.577171 102.608885 
L 389.070972 102.608885 
L 389.195336 103.916832 
L 389.30702 102.608885 
L 389.41755 102.608885 
L 389.530883 103.916832 
L 390.022903 103.916832 
L 390.059422 102.608885 
L 390.096533 103.916832 
L 390.621399 103.916832 
L 390.661326 102.608885 
L 390.697261 103.916832 
L 392.467263 103.916832 
L 392.507587 105.224779 
L 392.543408 103.916832 
L 392.727512 103.916832 
L 392.765653 105.224779 
L 392.806185 103.916832 
L 393.100271 103.916832 
L 393.244897 105.224779 
L 393.401146 103.916832 
L 393.436973 105.224779 
L 393.476014 103.916832 
L 393.513609 103.916832 
L 393.659714 105.224779 
L 393.733408 105.224779 
L 393.879277 103.916832 
L 393.916895 103.916832 
L 394.029674 105.224779 
L 394.067691 103.916832 
L 394.103881 105.224779 
L 394.254211 105.224779 
L 394.402273 103.916832 
L 394.550352 105.224779 
L 394.586299 103.916832 
L 394.622712 105.224779 
L 394.95853 105.224779 
L 394.997196 103.916832 
L 395.034244 105.224779 
L 397.733934 105.224779 
L 397.771478 106.532727 
L 397.844984 105.224779 
L 398.066431 105.224779 
L 398.102514 106.532727 
L 398.139699 105.224779 
L 398.285986 105.224779 
L 398.43144 106.532727 
L 398.467479 106.532727 
L 398.506353 105.224779 
L 398.543413 106.532727 
L 398.619871 106.532727 
L 398.695515 105.224779 
L 398.769723 106.532727 
L 398.806773 105.224779 
L 398.844941 106.532727 
L 398.92322 106.532727 
L 399.069383 105.224779 
L 399.179999 106.532727 
L 400.211076 106.532727 
L 400.247544 107.840674 
L 400.321039 106.532727 
L 400.762155 106.532727 
L 400.878277 107.840674 
L 401.029891 106.532727 
L 401.105374 106.532727 
L 401.141904 107.840674 
L 401.182571 106.532727 
L 401.301201 107.840674 
L 401.413943 106.532727 
L 401.488508 107.840674 
L 401.61147 106.532727 
L 401.64824 106.532727 
L 401.685845 107.840674 
L 401.848196 106.532727 
L 401.915796 106.532727 
L 401.954862 107.840674 
L 402.131875 106.532727 
L 404.132424 106.532727 
L 404.252863 105.224779 
L 404.400141 106.532727 
L 404.526376 105.224779 
L 404.562302 105.224779 
L 404.6342 106.532727 
L 404.670035 105.224779 
L 405.699045 105.224779 
L 405.734916 103.916832 
L 405.787818 105.224779 
L 405.825097 105.224779 
L 405.935165 103.916832 
L 406.057156 105.224779 
L 406.167562 103.916832 
L 406.208972 103.916832 
L 406.288959 102.608885 
L 406.32748 103.916832 
L 406.365575 102.608885 
L 406.663132 102.608885 
L 406.775395 101.300938 
L 406.811957 102.608885 
L 406.849495 101.300938 
L 407.039742 101.300938 
L 407.087051 99.992991 
L 407.122868 101.300938 
L 407.30957 101.300938 
L 407.427399 102.608885 
L 407.545091 101.300938 
L 407.689426 102.608885 
L 407.835496 101.300938 
L 407.871326 101.300938 
L 407.979725 99.992991 
L 408.051593 101.300938 
L 408.08874 99.992991 
L 408.12464 99.992991 
L 408.232413 101.300938 
L 408.376991 99.992991 
L 408.557768 99.992991 
L 408.594399 101.300938 
L 408.667979 99.992991 
L 408.750328 99.992991 
L 408.786232 101.300938 
L 408.860788 99.992991 
L 408.896786 99.992991 
L 409.040892 101.300938 
L 409.560471 101.300938 
L 409.70423 99.992991 
L 409.776411 101.300938 
L 409.819702 99.992991 
L 409.8555 101.300938 
L 410.087047 101.300938 
L 410.123117 99.992991 
L 410.194844 101.300938 
L 410.452009 101.300938 
L 410.598388 99.992991 
L 410.634349 99.992991 
L 410.67057 101.300938 
L 410.71204 99.992991 
L 410.783939 99.992991 
L 410.822119 101.300938 
L 410.894622 99.992991 
L 411.551583 99.992991 
L 411.68456 101.300938 
L 411.766943 99.992991 
L 412.855303 99.992991 
L 412.988294 98.685043 
L 413.407299 98.685043 
L 413.443753 99.992991 
L 413.504165 98.685043 
L 414.469177 98.685043 
L 414.598517 99.992991 
L 414.745946 98.685043 
L 415.125374 98.685043 
L 415.181966 99.992991 
L 415.224096 96.069149 
L 415.271978 98.685043 
L 415.445471 98.685043 
L 415.490844 96.069149 
L 416.430438 96.069149 
L 416.762559 93.453255 
L 416.881301 94.761202 
L 418.00463 94.761202 
L 418.051925 93.453255 
L 418.099189 94.761202 
L 418.334893 94.761202 
L 418.416444 93.453255 
L 418.494589 94.761202 
L 418.579918 93.453255 
L 418.81224 93.453255 
L 418.848418 94.761202 
L 418.885427 93.453255 
L 419.046286 93.453255 
L 419.169229 92.145307 
L 419.205757 92.145307 
L 419.32447 93.453255 
L 419.445815 92.145307 
L 419.624526 92.145307 
L 419.699617 93.453255 
L 419.984542 93.453255 
L 420.021988 94.761202 
L 420.063676 93.453255 
L 420.374171 93.453255 
L 420.574723 92.145307 
L 420.675689 93.453255 
L 420.882444 90.83736 
L 420.930761 90.83736 
L 420.968018 92.145307 
L 421.088705 90.83736 
L 421.206538 90.83736 
L 421.48541 89.529413 
L 421.524277 89.529413 
L 421.70233 90.83736 
L 421.854521 89.529413 
L 421.930253 89.529413 
L 421.971897 90.83736 
L 422.372807 90.83736 
L 422.421963 92.145307 
L 422.483977 90.83736 
L 422.73646 90.83736 
L 422.779487 92.145307 
L 422.848079 90.83736 
L 422.885827 92.145307 
L 423.647103 92.145307 
L 423.722956 90.83736 
L 423.806909 92.145307 
L 423.935712 90.83736 
L 424.053388 90.83736 
L 424.222187 92.145307 
L 424.266678 90.83736 
L 424.518462 90.83736 
L 424.65284 92.145307 
L 424.970374 92.145307 
L 425.029022 93.453255 
L 425.073193 92.145307 
L 425.153014 92.145307 
L 425.271383 93.453255 
L 425.420846 92.145307 
L 425.485092 93.453255 
L 425.52239 92.145307 
L 425.71813 93.453255 
L 425.806935 93.453255 
L 425.806935 93.453255 
" style="fill:none;stroke:#1f77b4;stroke-linecap:square;stroke-width:1.5;"/>
   </g>
   <g id="line2d_34">
    <path clip-path="url(#pb7cb03a48a)" d="M 62.809854 204.628767 
L 66.18077 204.628767 
L 66.29184 153.618826 
L 70.023718 153.618826 
L 70.169106 168.006245 
L 72.607458 168.006245 
L 72.752431 192.857242 
L 74.012475 192.857242 
L 74.157145 219.016186 
L 74.999261 219.016186 
L 167.433674 35.903578 
L 172.342283 35.903578 
L 172.452645 62.062522 
L 174.561207 62.062522 
L 174.672989 86.913519 
L 176.585802 86.913519 
L 176.731319 153.618826 
L 179.529154 153.618826 
L 179.675842 192.857242 
L 180.736377 192.857242 
L 325.41832 50.290997 
L 326.843071 50.290997 
L 326.916516 101.300938 
L 328.858451 101.300938 
L 329.008557 153.618826 
L 333.076352 153.618826 
L 333.222533 179.77777 
L 337.233441 179.77777 
L 337.380009 192.857242 
L 339.848598 192.857242 
L 339.994372 204.628767 
L 341.48395 204.628767 
L 341.598296 230.787711 
L 343.358419 230.787711 
L 343.502792 245.17513 
L 344.626654 245.17513 
L 344.738347 221.632081 
L 345.561358 221.632081 
L 345.671434 230.787711 
L 347.417454 230.787711 
L 347.491555 219.016186 
L 352.653659 219.016186 
L 352.845937 221.632081 
L 353.948202 221.632081 
L 354.071289 219.016186 
L 355.852151 219.016186 
L 355.964512 204.628767 
L 360.042976 204.628767 
L 360.190981 192.857242 
L 362.359332 192.857242 
L 362.507068 179.77777 
L 363.643056 179.77777 
L 363.75582 174.545981 
L 364.193067 174.545981 
L 364.312531 168.006245 
L 368.448282 168.006245 
L 368.595348 153.618826 
L 375.120148 153.618826 
L 375.268494 174.545981 
L 377.134131 174.545981 
L 377.257142 179.77777 
L 378.613975 179.77777 
L 378.725741 174.545981 
L 378.98846 174.545981 
L 379.098198 179.77777 
L 384.428124 179.77777 
L 384.537596 174.545981 
L 385.163099 174.545981 
L 385.274278 179.77777 
L 387.202347 179.77777 
L 387.34816 192.857242 
L 388.312364 192.857242 
L 388.424089 221.632081 
L 389.38155 221.632081 
L 389.493866 230.787711 
L 389.912382 230.787711 
L 390.059422 245.17513 
L 398.43144 245.17513 
L 398.543413 221.632081 
L 400.285167 221.632081 
L 400.431044 245.17513 
L 401.954862 245.17513 
L 402.131875 219.016186 
L 403.952215 219.016186 
L 404.096605 204.628767 
L 404.889086 204.628767 
L 405.032801 198.089031 
L 405.975215 198.089031 
L 406.094542 192.857242 
L 408.786232 192.857242 
L 408.932666 179.77777 
L 410.230812 179.77777 
L 410.375219 168.006245 
L 412.236575 168.006245 
L 412.36974 179.77777 
L 414.239745 179.77777 
L 414.348804 153.618826 
L 418.767774 153.618826 
L 418.885427 141.847301 
L 424.77012 141.847301 
L 424.970374 153.618826 
L 425.806935 153.618826 
L 425.806935 153.618826 
" style="fill:none;stroke:#ff7f0e;stroke-linecap:square;stroke-width:1.5;"/>
   </g>
   <g id="patch_3">
    <path d="M 44.66 255.638708 
L 44.66 25.44 
" style="fill:none;stroke:#000000;stroke-linecap:square;stroke-linejoin:miter;stroke-width:0.8;"/>
   </g>
   <g id="patch_4">
    <path d="M 443.95679 255.638708 
L 443.95679 25.44 
" style="fill:none;stroke:#000000;stroke-linecap:square;stroke-linejoin:miter;stroke-width:0.8;"/>
   </g>
   <g id="patch_5">
    <path d="M 44.66 255.638708 
L 443.95679 255.638708 
" style="fill:none;stroke:#000000;stroke-linecap:square;stroke-linejoin:miter;stroke-width:0.8;"/>
   </g>
   <g id="patch_6">
    <path d="M 44.66 25.44 
L 443.95679 25.44 
" style="fill:none;stroke:#000000;stroke-linecap:square;stroke-linejoin:miter;stroke-width:0.8;"/>
   </g>
   <g id="text_19">
    <!-- Lake Shoecraft - Water and Air Temperature -->
    <g transform="translate(112.689957 19.44)scale(0.12 -0.12)">
     <defs>
      <path d="M 9.8125 72.90625 
L 19.671875 72.90625 
L 19.671875 8.296875 
L 55.171875 8.296875 
L 55.171875 0 
L 9.8125 0 
z
" id="DejaVuSans-76"/>
      <path d="M 9.078125 75.984375 
L 18.109375 75.984375 
L 18.109375 31.109375 
L 44.921875 54.6875 
L 56.390625 54.6875 
L 27.390625 29.109375 
L 57.625 0 
L 45.90625 0 
L 18.109375 26.703125 
L 18.109375 0 
L 9.078125 0 
z
" id="DejaVuSans-107"/>
      <path d="M 53.515625 70.515625 
L 53.515625 60.890625 
Q 47.90625 63.578125 42.921875 64.890625 
Q 37.9375 66.21875 33.296875 66.21875 
Q 25.25 66.21875 20.875 63.09375 
Q 16.5 59.96875 16.5 54.203125 
Q 16.5 49.359375 19.40625 46.890625 
Q 22.3125 44.4375 30.421875 42.921875 
L 36.375 41.703125 
Q 47.40625 39.59375 52.65625 34.296875 
Q 57.90625 29 57.90625 20.125 
Q 57.90625 9.515625 50.796875 4.046875 
Q 43.703125 -1.421875 29.984375 -1.421875 
Q 24.8125 -1.421875 18.96875 -0.25 
Q 13.140625 0.921875 6.890625 3.21875 
L 6.890625 13.375 
Q 12.890625 10.015625 18.65625 8.296875 
Q 24.421875 6.59375 29.984375 6.59375 
Q 38.421875 6.59375 43.015625 9.90625 
Q 47.609375 13.234375 47.609375 19.390625 
Q 47.609375 24.75 44.3125 27.78125 
Q 41.015625 30.8125 33.5 32.328125 
L 27.484375 33.5 
Q 16.453125 35.6875 11.515625 40.375 
Q 6.59375 45.0625 6.59375 53.421875 
Q 6.59375 63.09375 13.40625 68.65625 
Q 20.21875 74.21875 32.171875 74.21875 
Q 37.3125 74.21875 42.625 73.28125 
Q 47.953125 72.359375 53.515625 70.515625 
z
" id="DejaVuSans-83"/>
      <path d="M 54.890625 33.015625 
L 54.890625 0 
L 45.90625 0 
L 45.90625 32.71875 
Q 45.90625 40.484375 42.875 44.328125 
Q 39.84375 48.1875 33.796875 48.1875 
Q 26.515625 48.1875 22.3125 43.546875 
Q 18.109375 38.921875 18.109375 30.90625 
L 18.109375 0 
L 9.078125 0 
L 9.078125 75.984375 
L 18.109375 75.984375 
L 18.109375 46.1875 
Q 21.34375 51.125 25.703125 53.5625 
Q 30.078125 56 35.796875 56 
Q 45.21875 56 50.046875 50.171875 
Q 54.890625 44.34375 54.890625 33.015625 
z
" id="DejaVuSans-104"/>
      <path d="M 30.609375 48.390625 
Q 23.390625 48.390625 19.1875 42.75 
Q 14.984375 37.109375 14.984375 27.296875 
Q 14.984375 17.484375 19.15625 11.84375 
Q 23.34375 6.203125 30.609375 6.203125 
Q 37.796875 6.203125 41.984375 11.859375 
Q 46.1875 17.53125 46.1875 27.296875 
Q 46.1875 37.015625 41.984375 42.703125 
Q 37.796875 48.390625 30.609375 48.390625 
z
M 30.609375 56 
Q 42.328125 56 49.015625 48.375 
Q 55.71875 40.765625 55.71875 27.296875 
Q 55.71875 13.875 49.015625 6.21875 
Q 42.328125 -1.421875 30.609375 -1.421875 
Q 18.84375 -1.421875 12.171875 6.21875 
Q 5.515625 13.875 5.515625 27.296875 
Q 5.515625 40.765625 12.171875 48.375 
Q 18.84375 56 30.609375 56 
z
" id="DejaVuSans-111"/>
      <path d="M 48.78125 52.59375 
L 48.78125 44.1875 
Q 44.96875 46.296875 41.140625 47.34375 
Q 37.3125 48.390625 33.40625 48.390625 
Q 24.65625 48.390625 19.8125 42.84375 
Q 14.984375 37.3125 14.984375 27.296875 
Q 14.984375 17.28125 19.8125 11.734375 
Q 24.65625 6.203125 33.40625 6.203125 
Q 37.3125 6.203125 41.140625 7.25 
Q 44.96875 8.296875 48.78125 10.40625 
L 48.78125 2.09375 
Q 45.015625 0.34375 40.984375 -0.53125 
Q 36.96875 -1.421875 32.421875 -1.421875 
Q 20.0625 -1.421875 12.78125 6.34375 
Q 5.515625 14.109375 5.515625 27.296875 
Q 5.515625 40.671875 12.859375 48.328125 
Q 20.21875 56 33.015625 56 
Q 37.15625 56 41.109375 55.140625 
Q 45.0625 54.296875 48.78125 52.59375 
z
" id="DejaVuSans-99"/>
      <path d="M 37.109375 75.984375 
L 37.109375 68.5 
L 28.515625 68.5 
Q 23.6875 68.5 21.796875 66.546875 
Q 19.921875 64.59375 19.921875 59.515625 
L 19.921875 54.6875 
L 34.71875 54.6875 
L 34.71875 47.703125 
L 19.921875 47.703125 
L 19.921875 0 
L 10.890625 0 
L 10.890625 47.703125 
L 2.296875 47.703125 
L 2.296875 54.6875 
L 10.890625 54.6875 
L 10.890625 58.5 
Q 10.890625 67.625 15.140625 71.796875 
Q 19.390625 75.984375 28.609375 75.984375 
z
" id="DejaVuSans-102"/>
      <path d="M 3.328125 72.90625 
L 13.28125 72.90625 
L 28.609375 11.28125 
L 43.890625 72.90625 
L 54.984375 72.90625 
L 70.3125 11.28125 
L 85.59375 72.90625 
L 95.609375 72.90625 
L 77.296875 0 
L 64.890625 0 
L 49.515625 63.28125 
L 33.984375 0 
L 21.578125 0 
z
" id="DejaVuSans-87"/>
      <path d="M 54.890625 33.015625 
L 54.890625 0 
L 45.90625 0 
L 45.90625 32.71875 
Q 45.90625 40.484375 42.875 44.328125 
Q 39.84375 48.1875 33.796875 48.1875 
Q 26.515625 48.1875 22.3125 43.546875 
Q 18.109375 38.921875 18.109375 30.90625 
L 18.109375 0 
L 9.078125 0 
L 9.078125 54.6875 
L 18.109375 54.6875 
L 18.109375 46.1875 
Q 21.34375 51.125 25.703125 53.5625 
Q 30.078125 56 35.796875 56 
Q 45.21875 56 50.046875 50.171875 
Q 54.890625 44.34375 54.890625 33.015625 
z
" id="DejaVuSans-110"/>
      <path d="M 45.40625 46.390625 
L 45.40625 75.984375 
L 54.390625 75.984375 
L 54.390625 0 
L 45.40625 0 
L 45.40625 8.203125 
Q 42.578125 3.328125 38.25 0.953125 
Q 33.9375 -1.421875 27.875 -1.421875 
Q 17.96875 -1.421875 11.734375 6.484375 
Q 5.515625 14.40625 5.515625 27.296875 
Q 5.515625 40.1875 11.734375 48.09375 
Q 17.96875 56 27.875 56 
Q 33.9375 56 38.25 53.625 
Q 42.578125 51.265625 45.40625 46.390625 
z
M 14.796875 27.296875 
Q 14.796875 17.390625 18.875 11.75 
Q 22.953125 6.109375 30.078125 6.109375 
Q 37.203125 6.109375 41.296875 11.75 
Q 45.40625 17.390625 45.40625 27.296875 
Q 45.40625 37.203125 41.296875 42.84375 
Q 37.203125 48.484375 30.078125 48.484375 
Q 22.953125 48.484375 18.875 42.84375 
Q 14.796875 37.203125 14.796875 27.296875 
z
" id="DejaVuSans-100"/>
      <path d="M 34.1875 63.1875 
L 20.796875 26.90625 
L 47.609375 26.90625 
z
M 28.609375 72.90625 
L 39.796875 72.90625 
L 67.578125 0 
L 57.328125 0 
L 50.6875 18.703125 
L 17.828125 18.703125 
L 11.1875 0 
L 0.78125 0 
z
" id="DejaVuSans-65"/>
      <path d="M 9.421875 54.6875 
L 18.40625 54.6875 
L 18.40625 0 
L 9.421875 0 
z
M 9.421875 75.984375 
L 18.40625 75.984375 
L 18.40625 64.59375 
L 9.421875 64.59375 
z
" id="DejaVuSans-105"/>
     </defs>
     <use xlink:href="#DejaVuSans-76"/>
     <use x="55.712891" xlink:href="#DejaVuSans-97"/>
     <use x="116.992188" xlink:href="#DejaVuSans-107"/>
     <use x="171.277344" xlink:href="#DejaVuSans-101"/>
     <use x="232.800781" xlink:href="#DejaVuSans-32"/>
     <use x="264.587891" xlink:href="#DejaVuSans-83"/>
     <use x="328.064453" xlink:href="#DejaVuSans-104"/>
     <use x="391.443359" xlink:href="#DejaVuSans-111"/>
     <use x="452.625" xlink:href="#DejaVuSans-101"/>
     <use x="514.148438" xlink:href="#DejaVuSans-99"/>
     <use x="569.128906" xlink:href="#DejaVuSans-114"/>
     <use x="610.242188" xlink:href="#DejaVuSans-97"/>
     <use x="671.521484" xlink:href="#DejaVuSans-102"/>
     <use x="704.976562" xlink:href="#DejaVuSans-116"/>
     <use x="744.185547" xlink:href="#DejaVuSans-32"/>
     <use x="775.972656" xlink:href="#DejaVuSans-45"/>
     <use x="812.056641" xlink:href="#DejaVuSans-32"/>
     <use x="843.84375" xlink:href="#DejaVuSans-87"/>
     <use x="936.345703" xlink:href="#DejaVuSans-97"/>
     <use x="997.625" xlink:href="#DejaVuSans-116"/>
     <use x="1036.833984" xlink:href="#DejaVuSans-101"/>
     <use x="1098.357422" xlink:href="#DejaVuSans-114"/>
     <use x="1139.470703" xlink:href="#DejaVuSans-32"/>
     <use x="1171.257812" xlink:href="#DejaVuSans-97"/>
     <use x="1232.537109" xlink:href="#DejaVuSans-110"/>
     <use x="1295.916016" xlink:href="#DejaVuSans-100"/>
     <use x="1359.392578" xlink:href="#DejaVuSans-32"/>
     <use x="1391.179688" xlink:href="#DejaVuSans-65"/>
     <use x="1459.587891" xlink:href="#DejaVuSans-105"/>
     <use x="1487.371094" xlink:href="#DejaVuSans-114"/>
     <use x="1528.484375" xlink:href="#DejaVuSans-32"/>
     <use x="1560.271484" xlink:href="#DejaVuSans-84"/>
     <use x="1604.355469" xlink:href="#DejaVuSans-101"/>
     <use x="1665.878906" xlink:href="#DejaVuSans-109"/>
     <use x="1763.291016" xlink:href="#DejaVuSans-112"/>
     <use x="1826.767578" xlink:href="#DejaVuSans-101"/>
     <use x="1888.291016" xlink:href="#DejaVuSans-114"/>
     <use x="1929.404297" xlink:href="#DejaVuSans-97"/>
     <use x="1990.683594" xlink:href="#DejaVuSans-116"/>
     <use x="2029.892578" xlink:href="#DejaVuSans-117"/>
     <use x="2093.271484" xlink:href="#DejaVuSans-114"/>
     <use x="2132.134766" xlink:href="#DejaVuSans-101"/>
    </g>
   </g>
   <g id="legend_1">
    <g id="patch_7">
     <path d="M 351.847415 62.79625 
L 436.95679 62.79625 
Q 438.95679 62.79625 438.95679 60.79625 
L 438.95679 32.44 
Q 438.95679 30.44 436.95679 30.44 
L 351.847415 30.44 
Q 349.847415 30.44 349.847415 32.44 
L 349.847415 60.79625 
Q 349.847415 62.79625 351.847415 62.79625 
z
" style="fill:#ffffff;opacity:0.8;stroke:#cccccc;stroke-linejoin:miter;"/>
    </g>
    <g id="line2d_35">
     <path d="M 353.847415 38.538437 
L 373.847415 38.538437 
" style="fill:none;stroke:#1f77b4;stroke-linecap:square;stroke-width:1.5;"/>
    </g>
    <g id="line2d_36"/>
    <g id="text_20">
     <!-- Lake Temp -->
     <g transform="translate(381.847415 42.038437)scale(0.1 -0.1)">
      <use xlink:href="#DejaVuSans-76"/>
      <use x="55.712891" xlink:href="#DejaVuSans-97"/>
      <use x="116.992188" xlink:href="#DejaVuSans-107"/>
      <use x="171.277344" xlink:href="#DejaVuSans-101"/>
      <use x="232.800781" xlink:href="#DejaVuSans-32"/>
      <use x="264.587891" xlink:href="#DejaVuSans-84"/>
      <use x="308.671875" xlink:href="#DejaVuSans-101"/>
      <use x="370.195312" xlink:href="#DejaVuSans-109"/>
      <use x="467.607422" xlink:href="#DejaVuSans-112"/>
     </g>
    </g>
    <g id="line2d_37">
     <path d="M 353.847415 53.216562 
L 373.847415 53.216562 
" style="fill:none;stroke:#ff7f0e;stroke-linecap:square;stroke-width:1.5;"/>
    </g>
    <g id="line2d_38"/>
    <g id="text_21">
     <!-- Air Temp -->
     <g transform="translate(381.847415 56.716562)scale(0.1 -0.1)">
      <use xlink:href="#DejaVuSans-65"/>
      <use x="68.408203" xlink:href="#DejaVuSans-105"/>
      <use x="96.191406" xlink:href="#DejaVuSans-114"/>
      <use x="137.304688" xlink:href="#DejaVuSans-32"/>
      <use x="169.091797" xlink:href="#DejaVuSans-84"/>
      <use x="213.175781" xlink:href="#DejaVuSans-101"/>
      <use x="274.699219" xlink:href="#DejaVuSans-109"/>
      <use x="372.111328" xlink:href="#DejaVuSans-112"/>
     </g>
    </g>
   </g>
  </g>
 </g>
 <defs>
  <clipPath id="pb7cb03a48a">
   <rect height="230.198708" width="399.29679" x="44.66" y="25.44"/>
  </clipPath>
 </defs>
</svg>
