<?xml version="1.0" encoding="utf-8" standalone="no"?>
<!DOCTYPE svg PUBLIC "-//W3C//DTD SVG 1.1//EN"
  "http://www.w3.org/Graphics/SVG/1.1/DTD/svg11.dtd">
<!-- Created with matplotlib (https://matplotlib.org/) -->
<svg height="345.6pt" version="1.1" viewBox="0 0 460.8 345.6" width="460.8pt" xmlns="http://www.w3.org/2000/svg" xmlns:xlink="http://www.w3.org/1999/xlink">
 <metadata>
  <rdf:RDF xmlns:cc="http://creativecommons.org/ns#" xmlns:dc="http://purl.org/dc/elements/1.1/" xmlns:rdf="http://www.w3.org/1999/02/22-rdf-syntax-ns#">
   <cc:Work>
    <dc:type rdf:resource="http://purl.org/dc/dcmitype/StillImage"/>
    <dc:date>2024-09-05T07:57:06.284333</dc:date>
    <dc:format>image/svg+xml</dc:format>
    <dc:creator>
     <cc:Agent>
      <dc:title>Matplotlib v3.3.2, https://matplotlib.org/</dc:title>
     </cc:Agent>
    </dc:creator>
   </cc:Work>
  </rdf:RDF>
 </metadata>
 <defs>
  <style type="text/css">*{stroke-linecap:butt;stroke-linejoin:round;}</style>
 </defs>
 <g id="figure_1">
  <g id="patch_1">
   <path d="M 0 345.6 
L 460.8 345.6 
L 460.8 0 
L 0 0 
z
" style="fill:none;"/>
  </g>
  <g id="axes_1">
   <g id="patch_2">
    <path d="M 44.66 255.638708 
L 450 255.638708 
L 450 25.44 
L 44.66 25.44 
z
" style="fill:none;"/>
   </g>
   <g id="matplotlib.axis_1">
    <g id="xtick_1">
     <g id="line2d_1">
      <path clip-path="url(#p44651947cb)" d="M 80.893535 255.638708 
L 80.893535 25.44 
" style="fill:none;stroke:#b0b0b0;stroke-linecap:square;stroke-width:0.8;"/>
     </g>
     <g id="line2d_2">
      <defs>
       <path d="M 0 0 
L 0 3.5 
" id="mb983720e41" style="stroke:#000000;stroke-width:0.8;"/>
      </defs>
      <g>
       <use style="stroke:#000000;stroke-width:0.8;" x="80.893535" xlink:href="#mb983720e41" y="255.638708"/>
      </g>
     </g>
     <g id="text_1">
      <!-- 2024-08-28 -->
      <g transform="translate(73.548143 319.848351)rotate(-70)scale(0.1 -0.1)">
       <defs>
        <path d="M 19.1875 8.296875 
L 53.609375 8.296875 
L 53.609375 0 
L 7.328125 0 
L 7.328125 8.296875 
Q 12.9375 14.109375 22.625 23.890625 
Q 32.328125 33.6875 34.8125 36.53125 
Q 39.546875 41.84375 41.421875 45.53125 
Q 43.3125 49.21875 43.3125 52.78125 
Q 43.3125 58.59375 39.234375 62.25 
Q 35.15625 65.921875 28.609375 65.921875 
Q 23.96875 65.921875 18.8125 64.3125 
Q 13.671875 62.703125 7.8125 59.421875 
L 7.8125 69.390625 
Q 13.765625 71.78125 18.9375 73 
Q 24.125 74.21875 28.421875 74.21875 
Q 39.75 74.21875 46.484375 68.546875 
Q 53.21875 62.890625 53.21875 53.421875 
Q 53.21875 48.921875 51.53125 44.890625 
Q 49.859375 40.875 45.40625 35.40625 
Q 44.1875 33.984375 37.640625 27.21875 
Q 31.109375 20.453125 19.1875 8.296875 
z
" id="DejaVuSans-50"/>
        <path d="M 31.78125 66.40625 
Q 24.171875 66.40625 20.328125 58.90625 
Q 16.5 51.421875 16.5 36.375 
Q 16.5 21.390625 20.328125 13.890625 
Q 24.171875 6.390625 31.78125 6.390625 
Q 39.453125 6.390625 43.28125 13.890625 
Q 47.125 21.390625 47.125 36.375 
Q 47.125 51.421875 43.28125 58.90625 
Q 39.453125 66.40625 31.78125 66.40625 
z
M 31.78125 74.21875 
Q 44.046875 74.21875 50.515625 64.515625 
Q 56.984375 54.828125 56.984375 36.375 
Q 56.984375 17.96875 50.515625 8.265625 
Q 44.046875 -1.421875 31.78125 -1.421875 
Q 19.53125 -1.421875 13.0625 8.265625 
Q 6.59375 17.96875 6.59375 36.375 
Q 6.59375 54.828125 13.0625 64.515625 
Q 19.53125 74.21875 31.78125 74.21875 
z
" id="DejaVuSans-48"/>
        <path d="M 37.796875 64.3125 
L 12.890625 25.390625 
L 37.796875 25.390625 
z
M 35.203125 72.90625 
L 47.609375 72.90625 
L 47.609375 25.390625 
L 58.015625 25.390625 
L 58.015625 17.1875 
L 47.609375 17.1875 
L 47.609375 0 
L 37.796875 0 
L 37.796875 17.1875 
L 4.890625 17.1875 
L 4.890625 26.703125 
z
" id="DejaVuSans-52"/>
        <path d="M 4.890625 31.390625 
L 31.203125 31.390625 
L 31.203125 23.390625 
L 4.890625 23.390625 
z
" id="DejaVuSans-45"/>
        <path d="M 31.78125 34.625 
Q 24.75 34.625 20.71875 30.859375 
Q 16.703125 27.09375 16.703125 20.515625 
Q 16.703125 13.921875 20.71875 10.15625 
Q 24.75 6.390625 31.78125 6.390625 
Q 38.8125 6.390625 42.859375 10.171875 
Q 46.921875 13.96875 46.921875 20.515625 
Q 46.921875 27.09375 42.890625 30.859375 
Q 38.875 34.625 31.78125 34.625 
z
M 21.921875 38.8125 
Q 15.578125 40.375 12.03125 44.71875 
Q 8.5 49.078125 8.5 55.328125 
Q 8.5 64.0625 14.71875 69.140625 
Q 20.953125 74.21875 31.78125 74.21875 
Q 42.671875 74.21875 48.875 69.140625 
Q 55.078125 64.0625 55.078125 55.328125 
Q 55.078125 49.078125 51.53125 44.71875 
Q 48 40.375 41.703125 38.8125 
Q 48.828125 37.15625 52.796875 32.3125 
Q 56.78125 27.484375 56.78125 20.515625 
Q 56.78125 9.90625 50.3125 4.234375 
Q 43.84375 -1.421875 31.78125 -1.421875 
Q 19.734375 -1.421875 13.25 4.234375 
Q 6.78125 9.90625 6.78125 20.515625 
Q 6.78125 27.484375 10.78125 32.3125 
Q 14.796875 37.15625 21.921875 38.8125 
z
M 18.3125 54.390625 
Q 18.3125 48.734375 21.84375 45.5625 
Q 25.390625 42.390625 31.78125 42.390625 
Q 38.140625 42.390625 41.71875 45.5625 
Q 45.3125 48.734375 45.3125 54.390625 
Q 45.3125 60.0625 41.71875 63.234375 
Q 38.140625 66.40625 31.78125 66.40625 
Q 25.390625 66.40625 21.84375 63.234375 
Q 18.3125 60.0625 18.3125 54.390625 
z
" id="DejaVuSans-56"/>
       </defs>
       <use xlink:href="#DejaVuSans-50"/>
       <use x="63.623047" xlink:href="#DejaVuSans-48"/>
       <use x="127.246094" xlink:href="#DejaVuSans-50"/>
       <use x="190.869141" xlink:href="#DejaVuSans-52"/>
       <use x="254.492188" xlink:href="#DejaVuSans-45"/>
       <use x="290.576172" xlink:href="#DejaVuSans-48"/>
       <use x="354.199219" xlink:href="#DejaVuSans-56"/>
       <use x="417.822266" xlink:href="#DejaVuSans-45"/>
       <use x="453.90625" xlink:href="#DejaVuSans-50"/>
       <use x="517.529297" xlink:href="#DejaVuSans-56"/>
      </g>
     </g>
    </g>
    <g id="xtick_2">
     <g id="line2d_3">
      <path clip-path="url(#p44651947cb)" d="M 122.988108 255.638708 
L 122.988108 25.44 
" style="fill:none;stroke:#b0b0b0;stroke-linecap:square;stroke-width:0.8;"/>
     </g>
     <g id="line2d_4">
      <g>
       <use style="stroke:#000000;stroke-width:0.8;" x="122.988108" xlink:href="#mb983720e41" y="255.638708"/>
      </g>
     </g>
     <g id="text_2">
      <!-- 2024-08-29 -->
      <g transform="translate(115.642715 319.848351)rotate(-70)scale(0.1 -0.1)">
       <defs>
        <path d="M 10.984375 1.515625 
L 10.984375 10.5 
Q 14.703125 8.734375 18.5 7.8125 
Q 22.3125 6.890625 25.984375 6.890625 
Q 35.75 6.890625 40.890625 13.453125 
Q 46.046875 20.015625 46.78125 33.40625 
Q 43.953125 29.203125 39.59375 26.953125 
Q 35.25 24.703125 29.984375 24.703125 
Q 19.046875 24.703125 12.671875 31.3125 
Q 6.296875 37.9375 6.296875 49.421875 
Q 6.296875 60.640625 12.9375 67.421875 
Q 19.578125 74.21875 30.609375 74.21875 
Q 43.265625 74.21875 49.921875 64.515625 
Q 56.59375 54.828125 56.59375 36.375 
Q 56.59375 19.140625 48.40625 8.859375 
Q 40.234375 -1.421875 26.421875 -1.421875 
Q 22.703125 -1.421875 18.890625 -0.6875 
Q 15.09375 0.046875 10.984375 1.515625 
z
M 30.609375 32.421875 
Q 37.25 32.421875 41.125 36.953125 
Q 45.015625 41.5 45.015625 49.421875 
Q 45.015625 57.28125 41.125 61.84375 
Q 37.25 66.40625 30.609375 66.40625 
Q 23.96875 66.40625 20.09375 61.84375 
Q 16.21875 57.28125 16.21875 49.421875 
Q 16.21875 41.5 20.09375 36.953125 
Q 23.96875 32.421875 30.609375 32.421875 
z
" id="DejaVuSans-57"/>
       </defs>
       <use xlink:href="#DejaVuSans-50"/>
       <use x="63.623047" xlink:href="#DejaVuSans-48"/>
       <use x="127.246094" xlink:href="#DejaVuSans-50"/>
       <use x="190.869141" xlink:href="#DejaVuSans-52"/>
       <use x="254.492188" xlink:href="#DejaVuSans-45"/>
       <use x="290.576172" xlink:href="#DejaVuSans-48"/>
       <use x="354.199219" xlink:href="#DejaVuSans-56"/>
       <use x="417.822266" xlink:href="#DejaVuSans-45"/>
       <use x="453.90625" xlink:href="#DejaVuSans-50"/>
       <use x="517.529297" xlink:href="#DejaVuSans-57"/>
      </g>
     </g>
    </g>
    <g id="xtick_3">
     <g id="line2d_5">
      <path clip-path="url(#p44651947cb)" d="M 165.08268 255.638708 
L 165.08268 25.44 
" style="fill:none;stroke:#b0b0b0;stroke-linecap:square;stroke-width:0.8;"/>
     </g>
     <g id="line2d_6">
      <g>
       <use style="stroke:#000000;stroke-width:0.8;" x="165.08268" xlink:href="#mb983720e41" y="255.638708"/>
      </g>
     </g>
     <g id="text_3">
      <!-- 2024-08-30 -->
      <g transform="translate(157.737288 319.848351)rotate(-70)scale(0.1 -0.1)">
       <defs>
        <path d="M 40.578125 39.3125 
Q 47.65625 37.796875 51.625 33 
Q 55.609375 28.21875 55.609375 21.1875 
Q 55.609375 10.40625 48.1875 4.484375 
Q 40.765625 -1.421875 27.09375 -1.421875 
Q 22.515625 -1.421875 17.65625 -0.515625 
Q 12.796875 0.390625 7.625 2.203125 
L 7.625 11.71875 
Q 11.71875 9.328125 16.59375 8.109375 
Q 21.484375 6.890625 26.8125 6.890625 
Q 36.078125 6.890625 40.9375 10.546875 
Q 45.796875 14.203125 45.796875 21.1875 
Q 45.796875 27.640625 41.28125 31.265625 
Q 36.765625 34.90625 28.71875 34.90625 
L 20.21875 34.90625 
L 20.21875 43.015625 
L 29.109375 43.015625 
Q 36.375 43.015625 40.234375 45.921875 
Q 44.09375 48.828125 44.09375 54.296875 
Q 44.09375 59.90625 40.109375 62.90625 
Q 36.140625 65.921875 28.71875 65.921875 
Q 24.65625 65.921875 20.015625 65.03125 
Q 15.375 64.15625 9.8125 62.3125 
L 9.8125 71.09375 
Q 15.4375 72.65625 20.34375 73.4375 
Q 25.25 74.21875 29.59375 74.21875 
Q 40.828125 74.21875 47.359375 69.109375 
Q 53.90625 64.015625 53.90625 55.328125 
Q 53.90625 49.265625 50.4375 45.09375 
Q 46.96875 40.921875 40.578125 39.3125 
z
" id="DejaVuSans-51"/>
       </defs>
       <use xlink:href="#DejaVuSans-50"/>
       <use x="63.623047" xlink:href="#DejaVuSans-48"/>
       <use x="127.246094" xlink:href="#DejaVuSans-50"/>
       <use x="190.869141" xlink:href="#DejaVuSans-52"/>
       <use x="254.492188" xlink:href="#DejaVuSans-45"/>
       <use x="290.576172" xlink:href="#DejaVuSans-48"/>
       <use x="354.199219" xlink:href="#DejaVuSans-56"/>
       <use x="417.822266" xlink:href="#DejaVuSans-45"/>
       <use x="453.90625" xlink:href="#DejaVuSans-51"/>
       <use x="517.529297" xlink:href="#DejaVuSans-48"/>
      </g>
     </g>
    </g>
    <g id="xtick_4">
     <g id="line2d_7">
      <path clip-path="url(#p44651947cb)" d="M 207.177253 255.638708 
L 207.177253 25.44 
" style="fill:none;stroke:#b0b0b0;stroke-linecap:square;stroke-width:0.8;"/>
     </g>
     <g id="line2d_8">
      <g>
       <use style="stroke:#000000;stroke-width:0.8;" x="207.177253" xlink:href="#mb983720e41" y="255.638708"/>
      </g>
     </g>
     <g id="text_4">
      <!-- 2024-08-31 -->
      <g transform="translate(199.83186 319.848351)rotate(-70)scale(0.1 -0.1)">
       <defs>
        <path d="M 12.40625 8.296875 
L 28.515625 8.296875 
L 28.515625 63.921875 
L 10.984375 60.40625 
L 10.984375 69.390625 
L 28.421875 72.90625 
L 38.28125 72.90625 
L 38.28125 8.296875 
L 54.390625 8.296875 
L 54.390625 0 
L 12.40625 0 
z
" id="DejaVuSans-49"/>
       </defs>
       <use xlink:href="#DejaVuSans-50"/>
       <use x="63.623047" xlink:href="#DejaVuSans-48"/>
       <use x="127.246094" xlink:href="#DejaVuSans-50"/>
       <use x="190.869141" xlink:href="#DejaVuSans-52"/>
       <use x="254.492188" xlink:href="#DejaVuSans-45"/>
       <use x="290.576172" xlink:href="#DejaVuSans-48"/>
       <use x="354.199219" xlink:href="#DejaVuSans-56"/>
       <use x="417.822266" xlink:href="#DejaVuSans-45"/>
       <use x="453.90625" xlink:href="#DejaVuSans-51"/>
       <use x="517.529297" xlink:href="#DejaVuSans-49"/>
      </g>
     </g>
    </g>
    <g id="xtick_5">
     <g id="line2d_9">
      <path clip-path="url(#p44651947cb)" d="M 249.271825 255.638708 
L 249.271825 25.44 
" style="fill:none;stroke:#b0b0b0;stroke-linecap:square;stroke-width:0.8;"/>
     </g>
     <g id="line2d_10">
      <g>
       <use style="stroke:#000000;stroke-width:0.8;" x="249.271825" xlink:href="#mb983720e41" y="255.638708"/>
      </g>
     </g>
     <g id="text_5">
      <!-- 2024-09-01 -->
      <g transform="translate(241.926432 319.848351)rotate(-70)scale(0.1 -0.1)">
       <use xlink:href="#DejaVuSans-50"/>
       <use x="63.623047" xlink:href="#DejaVuSans-48"/>
       <use x="127.246094" xlink:href="#DejaVuSans-50"/>
       <use x="190.869141" xlink:href="#DejaVuSans-52"/>
       <use x="254.492188" xlink:href="#DejaVuSans-45"/>
       <use x="290.576172" xlink:href="#DejaVuSans-48"/>
       <use x="354.199219" xlink:href="#DejaVuSans-57"/>
       <use x="417.822266" xlink:href="#DejaVuSans-45"/>
       <use x="453.90625" xlink:href="#DejaVuSans-48"/>
       <use x="517.529297" xlink:href="#DejaVuSans-49"/>
      </g>
     </g>
    </g>
    <g id="xtick_6">
     <g id="line2d_11">
      <path clip-path="url(#p44651947cb)" d="M 291.366398 255.638708 
L 291.366398 25.44 
" style="fill:none;stroke:#b0b0b0;stroke-linecap:square;stroke-width:0.8;"/>
     </g>
     <g id="line2d_12">
      <g>
       <use style="stroke:#000000;stroke-width:0.8;" x="291.366398" xlink:href="#mb983720e41" y="255.638708"/>
      </g>
     </g>
     <g id="text_6">
      <!-- 2024-09-02 -->
      <g transform="translate(284.021005 319.848351)rotate(-70)scale(0.1 -0.1)">
       <use xlink:href="#DejaVuSans-50"/>
       <use x="63.623047" xlink:href="#DejaVuSans-48"/>
       <use x="127.246094" xlink:href="#DejaVuSans-50"/>
       <use x="190.869141" xlink:href="#DejaVuSans-52"/>
       <use x="254.492188" xlink:href="#DejaVuSans-45"/>
       <use x="290.576172" xlink:href="#DejaVuSans-48"/>
       <use x="354.199219" xlink:href="#DejaVuSans-57"/>
       <use x="417.822266" xlink:href="#DejaVuSans-45"/>
       <use x="453.90625" xlink:href="#DejaVuSans-48"/>
       <use x="517.529297" xlink:href="#DejaVuSans-50"/>
      </g>
     </g>
    </g>
    <g id="xtick_7">
     <g id="line2d_13">
      <path clip-path="url(#p44651947cb)" d="M 333.46097 255.638708 
L 333.46097 25.44 
" style="fill:none;stroke:#b0b0b0;stroke-linecap:square;stroke-width:0.8;"/>
     </g>
     <g id="line2d_14">
      <g>
       <use style="stroke:#000000;stroke-width:0.8;" x="333.46097" xlink:href="#mb983720e41" y="255.638708"/>
      </g>
     </g>
     <g id="text_7">
      <!-- 2024-09-03 -->
      <g transform="translate(326.115577 319.848351)rotate(-70)scale(0.1 -0.1)">
       <use xlink:href="#DejaVuSans-50"/>
       <use x="63.623047" xlink:href="#DejaVuSans-48"/>
       <use x="127.246094" xlink:href="#DejaVuSans-50"/>
       <use x="190.869141" xlink:href="#DejaVuSans-52"/>
       <use x="254.492188" xlink:href="#DejaVuSans-45"/>
       <use x="290.576172" xlink:href="#DejaVuSans-48"/>
       <use x="354.199219" xlink:href="#DejaVuSans-57"/>
       <use x="417.822266" xlink:href="#DejaVuSans-45"/>
       <use x="453.90625" xlink:href="#DejaVuSans-48"/>
       <use x="517.529297" xlink:href="#DejaVuSans-51"/>
      </g>
     </g>
    </g>
    <g id="xtick_8">
     <g id="line2d_15">
      <path clip-path="url(#p44651947cb)" d="M 375.555543 255.638708 
L 375.555543 25.44 
" style="fill:none;stroke:#b0b0b0;stroke-linecap:square;stroke-width:0.8;"/>
     </g>
     <g id="line2d_16">
      <g>
       <use style="stroke:#000000;stroke-width:0.8;" x="375.555543" xlink:href="#mb983720e41" y="255.638708"/>
      </g>
     </g>
     <g id="text_8">
      <!-- 2024-09-04 -->
      <g transform="translate(368.21015 319.848351)rotate(-70)scale(0.1 -0.1)">
       <use xlink:href="#DejaVuSans-50"/>
       <use x="63.623047" xlink:href="#DejaVuSans-48"/>
       <use x="127.246094" xlink:href="#DejaVuSans-50"/>
       <use x="190.869141" xlink:href="#DejaVuSans-52"/>
       <use x="254.492188" xlink:href="#DejaVuSans-45"/>
       <use x="290.576172" xlink:href="#DejaVuSans-48"/>
       <use x="354.199219" xlink:href="#DejaVuSans-57"/>
       <use x="417.822266" xlink:href="#DejaVuSans-45"/>
       <use x="453.90625" xlink:href="#DejaVuSans-48"/>
       <use x="517.529297" xlink:href="#DejaVuSans-52"/>
      </g>
     </g>
    </g>
    <g id="xtick_9">
     <g id="line2d_17">
      <path clip-path="url(#p44651947cb)" d="M 417.650115 255.638708 
L 417.650115 25.44 
" style="fill:none;stroke:#b0b0b0;stroke-linecap:square;stroke-width:0.8;"/>
     </g>
     <g id="line2d_18">
      <g>
       <use style="stroke:#000000;stroke-width:0.8;" x="417.650115" xlink:href="#mb983720e41" y="255.638708"/>
      </g>
     </g>
     <g id="text_9">
      <!-- 2024-09-05 -->
      <g transform="translate(410.304722 319.848351)rotate(-70)scale(0.1 -0.1)">
       <defs>
        <path d="M 10.796875 72.90625 
L 49.515625 72.90625 
L 49.515625 64.59375 
L 19.828125 64.59375 
L 19.828125 46.734375 
Q 21.96875 47.46875 24.109375 47.828125 
Q 26.265625 48.1875 28.421875 48.1875 
Q 40.625 48.1875 47.75 41.5 
Q 54.890625 34.8125 54.890625 23.390625 
Q 54.890625 11.625 47.5625 5.09375 
Q 40.234375 -1.421875 26.90625 -1.421875 
Q 22.3125 -1.421875 17.546875 -0.640625 
Q 12.796875 0.140625 7.71875 1.703125 
L 7.71875 11.625 
Q 12.109375 9.234375 16.796875 8.0625 
Q 21.484375 6.890625 26.703125 6.890625 
Q 35.15625 6.890625 40.078125 11.328125 
Q 45.015625 15.765625 45.015625 23.390625 
Q 45.015625 31 40.078125 35.4375 
Q 35.15625 39.890625 26.703125 39.890625 
Q 22.75 39.890625 18.8125 39.015625 
Q 14.890625 38.140625 10.796875 36.28125 
z
" id="DejaVuSans-53"/>
       </defs>
       <use xlink:href="#DejaVuSans-50"/>
       <use x="63.623047" xlink:href="#DejaVuSans-48"/>
       <use x="127.246094" xlink:href="#DejaVuSans-50"/>
       <use x="190.869141" xlink:href="#DejaVuSans-52"/>
       <use x="254.492188" xlink:href="#DejaVuSans-45"/>
       <use x="290.576172" xlink:href="#DejaVuSans-48"/>
       <use x="354.199219" xlink:href="#DejaVuSans-57"/>
       <use x="417.822266" xlink:href="#DejaVuSans-45"/>
       <use x="453.90625" xlink:href="#DejaVuSans-48"/>
       <use x="517.529297" xlink:href="#DejaVuSans-53"/>
      </g>
     </g>
    </g>
    <g id="text_10">
     <!-- Date -->
     <g transform="translate(235.379219 332.158083)scale(0.1 -0.1)">
      <defs>
       <path d="M 19.671875 64.796875 
L 19.671875 8.109375 
L 31.59375 8.109375 
Q 46.6875 8.109375 53.6875 14.9375 
Q 60.6875 21.78125 60.6875 36.53125 
Q 60.6875 51.171875 53.6875 57.984375 
Q 46.6875 64.796875 31.59375 64.796875 
z
M 9.8125 72.90625 
L 30.078125 72.90625 
Q 51.265625 72.90625 61.171875 64.09375 
Q 71.09375 55.28125 71.09375 36.53125 
Q 71.09375 17.671875 61.125 8.828125 
Q 51.171875 0 30.078125 0 
L 9.8125 0 
z
" id="DejaVuSans-68"/>
       <path d="M 34.28125 27.484375 
Q 23.390625 27.484375 19.1875 25 
Q 14.984375 22.515625 14.984375 16.5 
Q 14.984375 11.71875 18.140625 8.90625 
Q 21.296875 6.109375 26.703125 6.109375 
Q 34.1875 6.109375 38.703125 11.40625 
Q 43.21875 16.703125 43.21875 25.484375 
L 43.21875 27.484375 
z
M 52.203125 31.203125 
L 52.203125 0 
L 43.21875 0 
L 43.21875 8.296875 
Q 40.140625 3.328125 35.546875 0.953125 
Q 30.953125 -1.421875 24.3125 -1.421875 
Q 15.921875 -1.421875 10.953125 3.296875 
Q 6 8.015625 6 15.921875 
Q 6 25.140625 12.171875 29.828125 
Q 18.359375 34.515625 30.609375 34.515625 
L 43.21875 34.515625 
L 43.21875 35.40625 
Q 43.21875 41.609375 39.140625 45 
Q 35.0625 48.390625 27.6875 48.390625 
Q 23 48.390625 18.546875 47.265625 
Q 14.109375 46.140625 10.015625 43.890625 
L 10.015625 52.203125 
Q 14.9375 54.109375 19.578125 55.046875 
Q 24.21875 56 28.609375 56 
Q 40.484375 56 46.34375 49.84375 
Q 52.203125 43.703125 52.203125 31.203125 
z
" id="DejaVuSans-97"/>
       <path d="M 18.3125 70.21875 
L 18.3125 54.6875 
L 36.8125 54.6875 
L 36.8125 47.703125 
L 18.3125 47.703125 
L 18.3125 18.015625 
Q 18.3125 11.328125 20.140625 9.421875 
Q 21.96875 7.515625 27.59375 7.515625 
L 36.8125 7.515625 
L 36.8125 0 
L 27.59375 0 
Q 17.1875 0 13.234375 3.875 
Q 9.28125 7.765625 9.28125 18.015625 
L 9.28125 47.703125 
L 2.6875 47.703125 
L 2.6875 54.6875 
L 9.28125 54.6875 
L 9.28125 70.21875 
z
" id="DejaVuSans-116"/>
       <path d="M 56.203125 29.59375 
L 56.203125 25.203125 
L 14.890625 25.203125 
Q 15.484375 15.921875 20.484375 11.0625 
Q 25.484375 6.203125 34.421875 6.203125 
Q 39.59375 6.203125 44.453125 7.46875 
Q 49.3125 8.734375 54.109375 11.28125 
L 54.109375 2.78125 
Q 49.265625 0.734375 44.1875 -0.34375 
Q 39.109375 -1.421875 33.890625 -1.421875 
Q 20.796875 -1.421875 13.15625 6.1875 
Q 5.515625 13.8125 5.515625 26.8125 
Q 5.515625 40.234375 12.765625 48.109375 
Q 20.015625 56 32.328125 56 
Q 43.359375 56 49.78125 48.890625 
Q 56.203125 41.796875 56.203125 29.59375 
z
M 47.21875 32.234375 
Q 47.125 39.59375 43.09375 43.984375 
Q 39.0625 48.390625 32.421875 48.390625 
Q 24.90625 48.390625 20.390625 44.140625 
Q 15.875 39.890625 15.1875 32.171875 
z
" id="DejaVuSans-101"/>
      </defs>
      <use xlink:href="#DejaVuSans-68"/>
      <use x="77.001953" xlink:href="#DejaVuSans-97"/>
      <use x="138.28125" xlink:href="#DejaVuSans-116"/>
      <use x="177.490234" xlink:href="#DejaVuSans-101"/>
     </g>
    </g>
   </g>
   <g id="matplotlib.axis_2">
    <g id="ytick_1">
     <g id="line2d_19">
      <path clip-path="url(#p44651947cb)" d="M 44.66 219.712432 
L 450 219.712432 
" style="fill:none;stroke:#b0b0b0;stroke-linecap:square;stroke-width:0.8;"/>
     </g>
     <g id="line2d_20">
      <defs>
       <path d="M 0 0 
L -3.5 0 
" id="m66be17d0d1" style="stroke:#000000;stroke-width:0.8;"/>
      </defs>
      <g>
       <use style="stroke:#000000;stroke-width:0.8;" x="44.66" xlink:href="#m66be17d0d1" y="219.712432"/>
      </g>
     </g>
     <g id="text_11">
      <!-- 55 -->
      <g transform="translate(24.935 223.511651)scale(0.1 -0.1)">
       <use xlink:href="#DejaVuSans-53"/>
       <use x="63.623047" xlink:href="#DejaVuSans-53"/>
      </g>
     </g>
    </g>
    <g id="ytick_2">
     <g id="line2d_21">
      <path clip-path="url(#p44651947cb)" d="M 44.66 179.926966 
L 450 179.926966 
" style="fill:none;stroke:#b0b0b0;stroke-linecap:square;stroke-width:0.8;"/>
     </g>
     <g id="line2d_22">
      <g>
       <use style="stroke:#000000;stroke-width:0.8;" x="44.66" xlink:href="#m66be17d0d1" y="179.926966"/>
      </g>
     </g>
     <g id="text_12">
      <!-- 60 -->
      <g transform="translate(24.935 183.726184)scale(0.1 -0.1)">
       <defs>
        <path d="M 33.015625 40.375 
Q 26.375 40.375 22.484375 35.828125 
Q 18.609375 31.296875 18.609375 23.390625 
Q 18.609375 15.53125 22.484375 10.953125 
Q 26.375 6.390625 33.015625 6.390625 
Q 39.65625 6.390625 43.53125 10.953125 
Q 47.40625 15.53125 47.40625 23.390625 
Q 47.40625 31.296875 43.53125 35.828125 
Q 39.65625 40.375 33.015625 40.375 
z
M 52.59375 71.296875 
L 52.59375 62.3125 
Q 48.875 64.0625 45.09375 64.984375 
Q 41.3125 65.921875 37.59375 65.921875 
Q 27.828125 65.921875 22.671875 59.328125 
Q 17.53125 52.734375 16.796875 39.40625 
Q 19.671875 43.65625 24.015625 45.921875 
Q 28.375 48.1875 33.59375 48.1875 
Q 44.578125 48.1875 50.953125 41.515625 
Q 57.328125 34.859375 57.328125 23.390625 
Q 57.328125 12.15625 50.6875 5.359375 
Q 44.046875 -1.421875 33.015625 -1.421875 
Q 20.359375 -1.421875 13.671875 8.265625 
Q 6.984375 17.96875 6.984375 36.375 
Q 6.984375 53.65625 15.1875 63.9375 
Q 23.390625 74.21875 37.203125 74.21875 
Q 40.921875 74.21875 44.703125 73.484375 
Q 48.484375 72.75 52.59375 71.296875 
z
" id="DejaVuSans-54"/>
       </defs>
       <use xlink:href="#DejaVuSans-54"/>
       <use x="63.623047" xlink:href="#DejaVuSans-48"/>
      </g>
     </g>
    </g>
    <g id="ytick_3">
     <g id="line2d_23">
      <path clip-path="url(#p44651947cb)" d="M 44.66 140.141499 
L 450 140.141499 
" style="fill:none;stroke:#b0b0b0;stroke-linecap:square;stroke-width:0.8;"/>
     </g>
     <g id="line2d_24">
      <g>
       <use style="stroke:#000000;stroke-width:0.8;" x="44.66" xlink:href="#m66be17d0d1" y="140.141499"/>
      </g>
     </g>
     <g id="text_13">
      <!-- 65 -->
      <g transform="translate(24.935 143.940718)scale(0.1 -0.1)">
       <use xlink:href="#DejaVuSans-54"/>
       <use x="63.623047" xlink:href="#DejaVuSans-53"/>
      </g>
     </g>
    </g>
    <g id="ytick_4">
     <g id="line2d_25">
      <path clip-path="url(#p44651947cb)" d="M 44.66 100.356033 
L 450 100.356033 
" style="fill:none;stroke:#b0b0b0;stroke-linecap:square;stroke-width:0.8;"/>
     </g>
     <g id="line2d_26">
      <g>
       <use style="stroke:#000000;stroke-width:0.8;" x="44.66" xlink:href="#m66be17d0d1" y="100.356033"/>
      </g>
     </g>
     <g id="text_14">
      <!-- 70 -->
      <g transform="translate(24.935 104.155252)scale(0.1 -0.1)">
       <defs>
        <path d="M 8.203125 72.90625 
L 55.078125 72.90625 
L 55.078125 68.703125 
L 28.609375 0 
L 18.3125 0 
L 43.21875 64.59375 
L 8.203125 64.59375 
z
" id="DejaVuSans-55"/>
       </defs>
       <use xlink:href="#DejaVuSans-55"/>
       <use x="63.623047" xlink:href="#DejaVuSans-48"/>
      </g>
     </g>
    </g>
    <g id="ytick_5">
     <g id="line2d_27">
      <path clip-path="url(#p44651947cb)" d="M 44.66 60.570567 
L 450 60.570567 
" style="fill:none;stroke:#b0b0b0;stroke-linecap:square;stroke-width:0.8;"/>
     </g>
     <g id="line2d_28">
      <g>
       <use style="stroke:#000000;stroke-width:0.8;" x="44.66" xlink:href="#m66be17d0d1" y="60.570567"/>
      </g>
     </g>
     <g id="text_15">
      <!-- 75 -->
      <g transform="translate(24.935 64.369785)scale(0.1 -0.1)">
       <use xlink:href="#DejaVuSans-55"/>
       <use x="63.623047" xlink:href="#DejaVuSans-53"/>
      </g>
     </g>
    </g>
    <g id="text_16">
     <!-- Temperature [F] -->
     <g transform="translate(18.855313 180.575291)rotate(-90)scale(0.1 -0.1)">
      <defs>
       <path d="M -0.296875 72.90625 
L 61.375 72.90625 
L 61.375 64.59375 
L 35.5 64.59375 
L 35.5 0 
L 25.59375 0 
L 25.59375 64.59375 
L -0.296875 64.59375 
z
" id="DejaVuSans-84"/>
       <path d="M 52 44.1875 
Q 55.375 50.25 60.0625 53.125 
Q 64.75 56 71.09375 56 
Q 79.640625 56 84.28125 50.015625 
Q 88.921875 44.046875 88.921875 33.015625 
L 88.921875 0 
L 79.890625 0 
L 79.890625 32.71875 
Q 79.890625 40.578125 77.09375 44.375 
Q 74.3125 48.1875 68.609375 48.1875 
Q 61.625 48.1875 57.5625 43.546875 
Q 53.515625 38.921875 53.515625 30.90625 
L 53.515625 0 
L 44.484375 0 
L 44.484375 32.71875 
Q 44.484375 40.625 41.703125 44.40625 
Q 38.921875 48.1875 33.109375 48.1875 
Q 26.21875 48.1875 22.15625 43.53125 
Q 18.109375 38.875 18.109375 30.90625 
L 18.109375 0 
L 9.078125 0 
L 9.078125 54.6875 
L 18.109375 54.6875 
L 18.109375 46.1875 
Q 21.1875 51.21875 25.484375 53.609375 
Q 29.78125 56 35.6875 56 
Q 41.65625 56 45.828125 52.96875 
Q 50 49.953125 52 44.1875 
z
" id="DejaVuSans-109"/>
       <path d="M 18.109375 8.203125 
L 18.109375 -20.796875 
L 9.078125 -20.796875 
L 9.078125 54.6875 
L 18.109375 54.6875 
L 18.109375 46.390625 
Q 20.953125 51.265625 25.265625 53.625 
Q 29.59375 56 35.59375 56 
Q 45.5625 56 51.78125 48.09375 
Q 58.015625 40.1875 58.015625 27.296875 
Q 58.015625 14.40625 51.78125 6.484375 
Q 45.5625 -1.421875 35.59375 -1.421875 
Q 29.59375 -1.421875 25.265625 0.953125 
Q 20.953125 3.328125 18.109375 8.203125 
z
M 48.6875 27.296875 
Q 48.6875 37.203125 44.609375 42.84375 
Q 40.53125 48.484375 33.40625 48.484375 
Q 26.265625 48.484375 22.1875 42.84375 
Q 18.109375 37.203125 18.109375 27.296875 
Q 18.109375 17.390625 22.1875 11.75 
Q 26.265625 6.109375 33.40625 6.109375 
Q 40.53125 6.109375 44.609375 11.75 
Q 48.6875 17.390625 48.6875 27.296875 
z
" id="DejaVuSans-112"/>
       <path d="M 41.109375 46.296875 
Q 39.59375 47.171875 37.8125 47.578125 
Q 36.03125 48 33.890625 48 
Q 26.265625 48 22.1875 43.046875 
Q 18.109375 38.09375 18.109375 28.8125 
L 18.109375 0 
L 9.078125 0 
L 9.078125 54.6875 
L 18.109375 54.6875 
L 18.109375 46.1875 
Q 20.953125 51.171875 25.484375 53.578125 
Q 30.03125 56 36.53125 56 
Q 37.453125 56 38.578125 55.875 
Q 39.703125 55.765625 41.0625 55.515625 
z
" id="DejaVuSans-114"/>
       <path d="M 8.5 21.578125 
L 8.5 54.6875 
L 17.484375 54.6875 
L 17.484375 21.921875 
Q 17.484375 14.15625 20.5 10.265625 
Q 23.53125 6.390625 29.59375 6.390625 
Q 36.859375 6.390625 41.078125 11.03125 
Q 45.3125 15.671875 45.3125 23.6875 
L 45.3125 54.6875 
L 54.296875 54.6875 
L 54.296875 0 
L 45.3125 0 
L 45.3125 8.40625 
Q 42.046875 3.421875 37.71875 1 
Q 33.40625 -1.421875 27.6875 -1.421875 
Q 18.265625 -1.421875 13.375 4.4375 
Q 8.5 10.296875 8.5 21.578125 
z
M 31.109375 56 
z
" id="DejaVuSans-117"/>
       <path id="DejaVuSans-32"/>
       <path d="M 8.59375 75.984375 
L 29.296875 75.984375 
L 29.296875 69 
L 17.578125 69 
L 17.578125 -6.203125 
L 29.296875 -6.203125 
L 29.296875 -13.1875 
L 8.59375 -13.1875 
z
" id="DejaVuSans-91"/>
       <path d="M 9.8125 72.90625 
L 51.703125 72.90625 
L 51.703125 64.59375 
L 19.671875 64.59375 
L 19.671875 43.109375 
L 48.578125 43.109375 
L 48.578125 34.8125 
L 19.671875 34.8125 
L 19.671875 0 
L 9.8125 0 
z
" id="DejaVuSans-70"/>
       <path d="M 30.421875 75.984375 
L 30.421875 -13.1875 
L 9.71875 -13.1875 
L 9.71875 -6.203125 
L 21.390625 -6.203125 
L 21.390625 69 
L 9.71875 69 
L 9.71875 75.984375 
z
" id="DejaVuSans-93"/>
      </defs>
      <use xlink:href="#DejaVuSans-84"/>
      <use x="44.083984" xlink:href="#DejaVuSans-101"/>
      <use x="105.607422" xlink:href="#DejaVuSans-109"/>
      <use x="203.019531" xlink:href="#DejaVuSans-112"/>
      <use x="266.496094" xlink:href="#DejaVuSans-101"/>
      <use x="328.019531" xlink:href="#DejaVuSans-114"/>
      <use x="369.132812" xlink:href="#DejaVuSans-97"/>
      <use x="430.412109" xlink:href="#DejaVuSans-116"/>
      <use x="469.621094" xlink:href="#DejaVuSans-117"/>
      <use x="533" xlink:href="#DejaVuSans-114"/>
      <use x="571.863281" xlink:href="#DejaVuSans-101"/>
      <use x="633.386719" xlink:href="#DejaVuSans-32"/>
      <use x="665.173828" xlink:href="#DejaVuSans-91"/>
      <use x="704.1875" xlink:href="#DejaVuSans-70"/>
      <use x="761.707031" xlink:href="#DejaVuSans-93"/>
     </g>
    </g>
   </g>
   <g id="line2d_29">
    <path clip-path="url(#p44651947cb)" d="M 63.084545 109.108836 
L 63.148792 109.108836 
L 63.209338 108.313126 
L 63.240208 109.108836 
L 63.2705 109.108836 
L 63.391836 108.313126 
L 63.45259 108.313126 
L 63.482958 109.108836 
L 63.513874 108.313126 
L 63.636 107.517417 
L 63.819607 107.517417 
L 63.912299 106.721708 
L 64.066739 108.313126 
L 64.09714 108.313126 
L 64.190728 106.721708 
L 64.221044 108.313126 
L 64.281962 106.721708 
L 64.344549 106.721708 
L 64.468574 105.130289 
L 64.498756 106.721708 
L 64.529599 104.33458 
L 64.559852 104.33458 
L 64.590902 105.130289 
L 64.65246 104.33458 
L 64.7746 104.33458 
L 64.836706 103.53887 
L 64.868076 104.33458 
L 64.899277 104.33458 
L 64.930272 103.53887 
L 64.960584 105.130289 
L 65.052175 105.130289 
L 65.177718 103.53887 
L 65.208276 103.53887 
L 65.330413 104.33458 
L 65.360972 104.33458 
L 65.485256 105.130289 
L 65.577931 105.130289 
L 65.734092 102.743161 
L 65.888556 104.33458 
L 66.013331 102.743161 
L 66.045341 102.743161 
L 66.077117 101.947452 
L 66.138093 102.743161 
L 66.168865 103.53887 
L 66.219767 102.743161 
L 66.344327 102.743161 
L 66.40706 101.947452 
L 66.43763 102.743161 
L 66.47009 102.743161 
L 66.626931 105.130289 
L 66.689896 104.33458 
L 66.723134 105.130289 
L 66.822648 105.130289 
L 66.853045 106.721708 
L 66.915304 105.130289 
L 67.006489 105.130289 
L 67.130782 104.33458 
L 67.193135 105.130289 
L 67.22477 104.33458 
L 67.285098 104.33458 
L 67.348121 106.721708 
L 67.379884 104.33458 
L 67.440296 104.33458 
L 67.506473 106.721708 
L 67.536704 105.130289 
L 67.566902 105.130289 
L 67.597268 106.721708 
L 67.627741 104.33458 
L 67.657956 105.130289 
L 67.689045 105.130289 
L 67.812407 108.313126 
L 67.875169 105.130289 
L 67.905419 108.313126 
L 67.936915 109.904545 
L 67.968724 107.517417 
L 68.127174 104.33458 
L 68.251542 109.904545 
L 68.314479 107.517417 
L 68.345619 109.108836 
L 68.410443 109.904545 
L 68.440621 109.108836 
L 68.47077 109.108836 
L 68.62651 110.700254 
L 68.935474 110.700254 
L 69.058882 111.495964 
L 69.152307 110.700254 
L 69.213902 111.495964 
L 69.244311 110.700254 
L 69.274597 109.904545 
L 69.305737 111.495964 
L 69.36993 111.495964 
L 69.462312 108.313126 
L 69.494127 110.700254 
L 69.525958 113.087382 
L 69.586797 111.495964 
L 69.681128 111.495964 
L 69.868114 109.108836 
L 69.991609 109.904545 
L 70.054053 109.904545 
L 70.084711 109.108836 
L 70.114884 109.904545 
L 70.146441 110.700254 
L 70.177012 108.313126 
L 70.238982 111.495964 
L 70.270597 111.495964 
L 70.333332 109.904545 
L 70.393723 110.700254 
L 70.42386 109.904545 
L 70.454231 111.495964 
L 70.48599 111.495964 
L 70.51686 109.904545 
L 70.60795 110.700254 
L 70.732649 110.700254 
L 70.828588 111.495964 
L 70.920733 110.700254 
L 71.017019 111.495964 
L 71.07949 109.904545 
L 71.140458 110.700254 
L 71.20198 110.700254 
L 71.325556 111.495964 
L 71.663487 111.495964 
L 71.756489 113.087382 
L 71.788204 111.495964 
L 71.849274 113.087382 
L 72.349731 113.087382 
L 72.475531 113.883092 
L 72.507351 113.087382 
L 72.568427 113.883092 
L 72.598763 113.883092 
L 72.629036 113.087382 
L 72.690008 113.883092 
L 73.276287 113.883092 
L 73.306978 114.678801 
L 73.337362 113.883092 
L 151.129742 114.678801 
L 151.161164 113.883092 
L 151.529309 111.495964 
L 151.559837 113.883092 
L 151.623853 113.087382 
L 151.688608 113.883092 
L 151.719769 111.495964 
L 151.794608 113.883092 
L 151.847492 113.087382 
L 151.878807 113.087382 
L 152.035939 108.313126 
L 152.168756 111.495964 
L 152.198905 110.700254 
L 152.339787 113.087382 
L 152.469586 113.087382 
L 152.499802 113.883092 
L 152.625875 110.700254 
L 152.659385 110.700254 
L 152.757923 104.33458 
L 152.814909 108.313126 
L 152.84649 110.700254 
L 152.876798 109.108836 
L 152.975862 111.495964 
L 153.04252 110.700254 
L 153.072738 110.700254 
L 153.180504 113.087382 
L 153.211158 111.495964 
L 153.242301 111.495964 
L 153.279949 110.700254 
L 153.340913 111.495964 
L 153.408725 111.495964 
L 153.565923 103.53887 
L 153.689058 110.700254 
L 153.719247 111.495964 
L 153.842018 102.743161 
L 153.904998 105.130289 
L 153.935227 104.33458 
L 153.965425 105.130289 
L 154.133577 113.087382 
L 154.277164 109.904545 
L 154.370723 109.904545 
L 154.402719 109.108836 
L 154.433086 109.904545 
L 154.557737 113.087382 
L 154.717939 109.904545 
L 154.748919 109.904545 
L 154.852723 103.53887 
L 155.020788 111.495964 
L 155.059459 113.087382 
L 155.089765 109.904545 
L 155.277708 113.087382 
L 155.307848 110.700254 
L 155.339218 111.495964 
L 155.46343 111.495964 
L 155.494869 109.904545 
L 155.560201 111.495964 
L 155.591782 113.883092 
L 155.653626 110.700254 
L 155.714406 110.700254 
L 155.746233 111.495964 
L 155.779103 106.721708 
L 155.874767 107.517417 
L 155.93834 110.700254 
L 155.968713 109.108836 
L 156.001311 108.313126 
L 156.031441 109.108836 
L 156.185611 110.700254 
L 156.315577 109.904545 
L 156.345801 109.904545 
L 156.406858 110.700254 
L 156.437988 109.108836 
L 156.498349 110.700254 
L 156.528923 110.700254 
L 156.559069 109.904545 
L 156.620952 110.700254 
L 156.652059 110.700254 
L 156.773257 111.495964 
L 156.804596 111.495964 
L 156.927357 113.087382 
L 156.958002 113.087382 
L 157.081412 113.883092 
L 157.512981 113.883092 
L 157.606043 114.678801 
L 157.729995 113.883092 
L 157.947092 113.883092 
L 157.977555 110.700254 
L 158.038193 113.883092 
L 158.130891 113.087382 
L 158.259103 113.883092 
L 158.351391 113.883092 
L 158.382178 113.087382 
L 158.442913 113.883092 
L 158.503913 113.883092 
L 158.597264 114.678801 
L 158.6287 113.883092 
L 158.691433 114.678801 
L 159.317951 114.678801 
L 159.350809 115.47451 
L 159.381084 114.678801 
L 159.516479 113.883092 
L 159.869337 113.883092 
L 159.960263 113.087382 
L 159.991004 113.883092 
L 160.056328 113.087382 
L 160.490213 113.087382 
L 160.520427 113.883092 
L 160.581567 113.087382 
L 160.861398 113.087382 
L 160.95595 113.883092 
L 161.077725 113.087382 
L 161.1987 113.087382 
L 161.290317 113.883092 
L 161.383459 113.087382 
L 161.506966 113.883092 
L 161.567486 113.883092 
L 161.688576 113.087382 
L 161.749356 113.087382 
L 161.839948 113.883092 
L 161.969356 113.087382 
L 162.275502 113.087382 
L 283.900847 90.807521 
L 283.971114 92.39894 
L 284.118044 92.39894 
L 284.148488 90.807521 
L 284.211494 92.39894 
L 284.310619 92.39894 
L 284.342017 90.807521 
L 284.411085 92.39894 
L 284.688403 92.39894 
L 284.750773 93.194649 
L 284.781258 92.39894 
L 284.972567 92.39894 
L 285.004459 93.194649 
L 285.070908 92.39894 
L 285.10746 92.39894 
L 285.231284 93.194649 
L 285.29371 93.194649 
L 285.324844 92.39894 
L 285.385537 93.194649 
L 285.50786 93.194649 
L 285.599474 92.39894 
L 285.705565 93.194649 
L 286.400183 93.194649 
L 286.430738 93.990358 
L 286.49112 93.194649 
L 286.521236 93.194649 
L 286.552153 93.990358 
L 286.613469 93.194649 
L 286.64468 93.194649 
L 286.771693 93.990358 
L 286.899805 93.194649 
L 286.930009 93.194649 
L 287.051589 93.990358 
L 287.64062 93.990358 
L 287.671117 94.786068 
L 287.731684 93.990358 
L 287.859192 93.990358 
L 287.892939 94.786068 
L 287.96876 93.990358 
L 288.251794 93.990358 
L 288.379308 94.786068 
L 289.691385 94.786068 
L 289.723088 95.581777 
L 289.786065 94.786068 
L 290.066768 94.786068 
L 290.194293 95.581777 
L 290.3199 94.786068 
L 290.35099 94.786068 
L 290.474536 95.581777 
L 290.917399 95.581777 
L 291.063073 96.377486 
L 291.184726 95.581777 
L 292.086407 95.581777 
L 292.116529 94.786068 
L 292.179314 95.581777 
L 292.398936 95.581777 
L 292.429348 94.786068 
L 292.492018 95.581777 
L 292.523621 95.581777 
L 292.615564 94.786068 
L 292.739637 95.581777 
L 293.20576 95.581777 
L 293.235919 96.377486 
L 293.296205 95.581777 
L 293.878045 95.581777 
L 293.909109 94.786068 
L 293.970465 95.581777 
L 294.062461 95.581777 
L 294.102987 94.786068 
L 294.169622 95.581777 
L 294.446151 95.581777 
L 294.477263 94.786068 
L 294.540197 95.581777 
L 295.533633 95.581777 
L 295.6574 96.377486 
L 295.719487 96.377486 
L 295.847402 95.581777 
L 295.98303 96.377486 
L 296.108783 95.581777 
L 296.13892 95.581777 
L 296.261963 96.377486 
L 296.386474 95.581777 
L 296.54115 95.581777 
L 296.662311 96.377486 
L 297.205844 96.377486 
L 297.236362 97.173196 
L 297.296854 96.377486 
L 297.675088 96.377486 
L 297.769402 97.173196 
L 297.863321 96.377486 
L 297.955956 97.173196 
L 298.052297 96.377486 
L 298.182266 97.173196 
L 298.212415 97.173196 
L 298.245095 96.377486 
L 298.307219 97.173196 
L 299.277065 97.173196 
L 299.308305 98.764614 
L 299.370069 97.173196 
L 299.400264 97.173196 
L 299.435784 98.764614 
L 299.498141 97.173196 
L 299.910056 97.173196 
L 299.971159 98.764614 
L 300.002348 97.173196 
L 300.291106 97.173196 
L 300.415622 98.764614 
L 300.506985 97.173196 
L 300.598618 98.764614 
L 300.692958 97.173196 
L 300.78535 98.764614 
L 300.913929 97.173196 
L 301.037769 98.764614 
L 301.067994 98.764614 
L 301.09813 97.173196 
L 301.15976 98.764614 
L 301.192697 98.764614 
L 301.224057 97.173196 
L 301.287868 98.764614 
L 302.18752 98.764614 
L 302.283263 99.560324 
L 302.413787 98.764614 
L 302.475138 98.764614 
L 302.506822 99.560324 
L 302.537466 98.764614 
L 302.874155 98.764614 
L 302.999362 99.560324 
L 303.091764 98.764614 
L 303.216385 99.560324 
L 304.277634 99.560324 
L 304.369696 100.356033 
L 304.433368 99.560324 
L 304.464159 100.356033 
L 304.526185 100.356033 
L 304.587137 99.560324 
L 304.617477 100.356033 
L 305.326336 100.356033 
L 305.451908 99.560324 
L 305.575048 100.356033 
L 306.849136 100.356033 
L 306.879441 101.151742 
L 306.949393 100.356033 
L 308.040387 100.356033 
L 308.170091 101.151742 
L 308.264208 100.356033 
L 308.403376 101.151742 
L 309.256091 101.151742 
L 309.286355 100.356033 
L 309.349925 101.151742 
L 309.507946 101.151742 
L 309.600425 100.356033 
L 309.726511 101.151742 
L 309.758058 101.151742 
L 309.884658 100.356033 
L 310.038605 100.356033 
L 310.068753 101.151742 
L 310.131508 100.356033 
L 310.224935 100.356033 
L 310.352732 101.151742 
L 310.477114 100.356033 
L 310.722901 100.356033 
L 310.852658 101.151742 
L 310.97962 100.356033 
L 311.963626 100.356033 
L 312.08831 99.560324 
L 312.369805 99.560324 
L 312.432695 98.764614 
L 312.463617 99.560324 
L 312.653201 99.560324 
L 312.723059 98.764614 
L 312.754242 99.560324 
L 312.816907 99.560324 
L 312.849101 98.764614 
L 312.91072 99.560324 
L 313.790693 99.560324 
L 313.916207 98.764614 
L 314.017422 98.764614 
L 314.047885 99.560324 
L 314.108678 98.764614 
L 314.234556 98.764614 
L 314.360011 97.173196 
L 314.672572 97.173196 
L 314.733589 96.377486 
L 314.76419 97.173196 
L 315.508449 97.173196 
L 315.600451 96.377486 
L 315.725957 97.173196 
L 315.786449 97.173196 
L 315.878822 96.377486 
L 315.909496 97.173196 
L 315.971615 96.377486 
L 316.001812 96.377486 
L 316.122899 95.581777 
L 316.186142 95.581777 
L 316.308628 96.377486 
L 316.39991 96.377486 
L 316.523601 95.581777 
L 316.553732 95.581777 
L 316.647303 96.377486 
L 316.784111 95.581777 
L 316.878972 95.581777 
L 316.973881 96.377486 
L 317.097419 95.581777 
L 317.22662 96.377486 
L 317.26034 95.581777 
L 317.322307 96.377486 
L 317.452101 96.377486 
L 317.482373 95.581777 
L 317.54458 96.377486 
L 317.984261 96.377486 
L 318.108779 95.581777 
L 318.171209 96.377486 
L 318.201627 95.581777 
L 318.299302 95.581777 
L 318.426089 96.377486 
L 318.458351 96.377486 
L 318.587173 95.581777 
L 318.681804 96.377486 
L 318.809822 95.581777 
L 318.875215 95.581777 
L 319.00017 96.377486 
L 319.031523 96.377486 
L 319.155815 95.581777 
L 319.379361 95.581777 
L 319.413591 96.377486 
L 319.48656 95.581777 
L 319.615235 95.581777 
L 319.646252 96.377486 
L 319.708904 95.581777 
L 319.950638 95.581777 
L 319.980831 93.990358 
L 320.073392 94.786068 
L 320.134043 94.786068 
L 320.257196 95.581777 
L 320.381156 95.581777 
L 320.44214 96.377486 
L 320.472908 95.581777 
L 320.504257 95.581777 
L 320.534486 94.786068 
L 320.596084 95.581777 
L 320.626867 95.581777 
L 320.719747 94.786068 
L 320.750001 95.581777 
L 320.812965 94.786068 
L 320.875664 94.786068 
L 321.000507 95.581777 
L 321.35038 95.581777 
L 321.380709 96.377486 
L 321.443647 95.581777 
L 321.538511 94.786068 
L 321.663787 95.581777 
L 322.070399 95.581777 
L 322.193112 96.377486 
L 322.256124 96.377486 
L 322.287739 95.581777 
L 322.348706 96.377486 
L 322.718538 96.377486 
L 322.842907 95.581777 
L 323.016241 96.377486 
L 323.3584 96.377486 
L 323.449033 97.173196 
L 323.572194 96.377486 
L 323.697648 96.377486 
L 323.729785 95.581777 
L 323.790731 96.377486 
L 324.166064 96.377486 
L 324.197298 97.173196 
L 324.258208 96.377486 
L 324.679035 96.377486 
L 324.804488 97.173196 
L 324.929416 96.377486 
L 325.056474 97.173196 
L 325.557469 97.173196 
L 325.619348 96.377486 
L 325.650013 97.173196 
L 325.776568 97.173196 
L 325.808747 96.377486 
L 325.871146 97.173196 
L 326.7252 97.173196 
L 326.756637 98.764614 
L 326.831885 97.173196 
L 326.89393 97.173196 
L 326.997733 98.764614 
L 327.127856 97.173196 
L 327.22349 98.764614 
L 327.345842 97.173196 
L 327.47058 98.764614 
L 327.574048 98.764614 
L 327.700492 97.173196 
L 327.871884 98.764614 
L 328.63438 98.764614 
L 328.746657 99.560324 
L 328.809323 98.764614 
L 328.842959 99.560324 
L 328.873184 99.560324 
L 328.936536 98.764614 
L 328.967346 99.560324 
L 329.030302 99.560324 
L 329.122606 98.764614 
L 329.259422 99.560324 
L 330.039895 99.560324 
L 330.070056 100.356033 
L 330.131323 99.560324 
L 330.660709 99.560324 
L 330.691043 100.356033 
L 330.75354 99.560324 
L 330.784758 99.560324 
L 330.877975 100.356033 
L 330.908757 99.560324 
L 330.971219 100.356033 
L 331.002918 100.356033 
L 331.130156 99.560324 
L 331.261985 100.356033 
L 332.992778 100.356033 
L 333.026601 101.151742 
L 333.09188 100.356033 
L 333.190351 100.356033 
L 333.253401 101.151742 
L 333.284796 100.356033 
L 333.35211 100.356033 
L 333.479666 101.151742 
L 333.511093 100.356033 
L 333.573523 101.151742 
L 333.915045 101.151742 
L 333.947291 100.356033 
L 334.009733 101.151742 
L 334.131925 101.151742 
L 334.162115 100.356033 
L 334.223947 101.151742 
L 334.474047 101.151742 
L 334.506742 101.947452 
L 334.569023 101.151742 
L 335.420041 101.151742 
L 335.451653 100.356033 
L 335.517287 101.151742 
L 336.935723 101.151742 
L 336.966847 101.947452 
L 337.031248 101.151742 
L 337.510956 101.151742 
L 337.615562 101.947452 
L 337.741198 101.151742 
L 337.802472 101.151742 
L 337.929125 101.947452 
L 338.311649 101.947452 
L 338.342366 101.151742 
L 338.405156 101.947452 
L 338.815059 101.947452 
L 338.848643 101.151742 
L 338.910267 101.947452 
L 340.367662 101.947452 
L 340.401579 102.743161 
L 340.46217 101.947452 
L 340.586564 101.947452 
L 340.618645 102.743161 
L 340.683476 101.947452 
L 340.900101 101.947452 
L 341.02175 102.743161 
L 341.153175 101.947452 
L 341.279625 102.743161 
L 341.30974 101.947452 
L 341.370663 102.743161 
L 341.432648 102.743161 
L 341.555343 101.947452 
L 341.586984 101.947452 
L 341.681845 102.743161 
L 341.713822 101.947452 
L 341.775899 102.743161 
L 341.870709 102.743161 
L 341.995247 101.947452 
L 342.1198 102.743161 
L 342.150037 101.947452 
L 342.21468 102.743161 
L 342.463129 102.743161 
L 342.495652 101.947452 
L 342.556935 102.743161 
L 344.797591 102.743161 
L 344.82917 103.53887 
L 344.890998 102.743161 
L 345.077262 102.743161 
L 345.107613 103.53887 
L 345.171075 102.743161 
L 345.261936 102.743161 
L 345.384281 103.53887 
L 345.414594 103.53887 
L 345.447292 102.743161 
L 345.511532 103.53887 
L 345.542775 103.53887 
L 345.606401 102.743161 
L 345.636492 103.53887 
L 345.668819 103.53887 
L 345.699983 102.743161 
L 345.765348 103.53887 
L 345.79793 103.53887 
L 345.92087 102.743161 
L 346.045748 103.53887 
L 346.881177 103.53887 
L 346.911852 104.33458 
L 346.97367 103.53887 
L 347.344704 103.53887 
L 347.442377 104.33458 
L 347.569903 103.53887 
L 347.633394 103.53887 
L 347.66412 104.33458 
L 347.698326 103.53887 
L 347.798109 104.33458 
L 347.892939 103.53887 
L 348.019198 104.33458 
L 348.090012 103.53887 
L 348.121642 104.33458 
L 348.2582 103.53887 
L 348.31506 103.53887 
L 348.347919 104.33458 
L 348.496809 103.53887 
L 350.179522 103.53887 
L 350.280825 102.743161 
L 350.404705 103.53887 
L 350.541102 102.743161 
L 350.601578 103.53887 
L 350.631719 102.743161 
L 351.497246 102.743161 
L 351.635357 101.947452 
L 351.76317 102.743161 
L 351.798462 102.743161 
L 351.958498 101.151742 
L 351.993437 101.151742 
L 352.025838 101.947452 
L 352.089246 101.151742 
L 352.308164 101.151742 
L 352.402591 100.356033 
L 352.433344 101.151742 
L 352.496188 100.356033 
L 352.62494 100.356033 
L 352.664733 99.560324 
L 352.725097 100.356033 
L 352.851899 100.356033 
L 352.951008 101.151742 
L 353.050002 100.356033 
L 353.171406 101.151742 
L 353.294268 100.356033 
L 353.324406 100.356033 
L 353.415583 99.560324 
L 353.476033 100.356033 
L 353.507278 99.560324 
L 353.537475 99.560324 
L 353.628125 100.356033 
L 353.749733 99.560324 
L 353.901789 99.560324 
L 353.932601 100.356033 
L 353.994491 99.560324 
L 354.063756 99.560324 
L 354.093956 100.356033 
L 354.156667 99.560324 
L 354.186946 99.560324 
L 354.308157 100.356033 
L 354.745188 100.356033 
L 354.866107 99.560324 
L 354.993345 100.356033 
L 355.188104 100.356033 
L 355.218444 99.560324 
L 355.278775 100.356033 
L 355.495083 100.356033 
L 355.618206 99.560324 
L 355.648454 99.560324 
L 355.67892 100.356033 
L 355.744049 99.560324 
L 355.774277 99.560324 
L 355.806392 100.356033 
L 355.867376 99.560324 
L 356.419963 99.560324 
L 356.531812 100.356033 
L 356.601107 99.560324 
L 357.516554 99.560324 
L 357.628416 98.764614 
L 357.980851 98.764614 
L 358.011514 99.560324 
L 358.062328 98.764614 
L 358.874024 98.764614 
L 358.982815 99.560324 
L 359.106821 98.764614 
L 359.425967 98.764614 
L 359.473569 99.560324 
L 359.509005 97.173196 
L 359.583736 98.764614 
L 359.695209 98.764614 
L 359.833645 97.173196 
L 360.523689 97.173196 
L 360.803045 95.581777 
L 360.902922 96.377486 
L 361.847782 96.377486 
L 361.887563 95.581777 
L 361.927318 96.377486 
L 362.125574 96.377486 
L 362.194169 95.581777 
L 362.22869 96.377486 
L 362.259899 96.377486 
L 362.331672 95.581777 
L 362.527083 95.581777 
L 362.557514 96.377486 
L 362.622516 95.581777 
L 362.723945 95.581777 
L 362.85808 94.786068 
L 362.957933 95.581777 
L 363.094575 94.786068 
L 363.210317 94.786068 
L 363.338625 95.581777 
L 363.513136 95.581777 
L 363.544633 96.377486 
L 363.579698 95.581777 
L 363.840862 95.581777 
L 364.009551 94.786068 
L 364.094477 95.581777 
L 364.268384 93.990358 
L 364.309025 93.990358 
L 364.340362 94.786068 
L 364.540988 93.990358 
L 364.808245 93.194649 
L 364.95801 93.990358 
L 365.086022 93.194649 
L 365.149722 93.194649 
L 365.18475 93.990358 
L 365.521965 93.990358 
L 365.563312 94.786068 
L 365.615474 93.990358 
L 365.827843 93.990358 
L 365.953479 94.786068 
L 366.593808 94.786068 
L 366.65761 93.990358 
L 366.690633 94.786068 
L 366.728224 94.786068 
L 366.836564 93.990358 
L 366.935545 93.990358 
L 367.077525 94.786068 
L 367.213868 93.990358 
L 367.326729 93.990358 
L 367.439758 94.786068 
L 367.706844 94.786068 
L 367.756174 95.581777 
L 367.793328 94.786068 
L 367.860467 94.786068 
L 367.960031 95.581777 
L 368.085748 94.786068 
L 368.139786 95.581777 
L 368.171159 94.786068 
L 368.369504 95.581777 
L 368.440772 95.581777 
L 368.582878 96.377486 
L 368.674785 95.581777 
L 368.727681 97.173196 
L 368.805384 96.377486 
L 369.040377 96.377486 
L 369.173932 97.173196 
L 369.209591 97.173196 
L 369.245707 96.377486 
L 369.318814 97.173196 
L 369.618618 97.173196 
L 369.653713 98.764614 
L 369.688669 97.173196 
L 369.881544 98.764614 
L 370.352045 98.764614 
L 370.422472 99.560324 
L 370.452757 98.764614 
L 370.485095 98.764614 
L 370.632231 99.560324 
L 371.185435 99.560324 
L 371.315966 100.356033 
L 371.452386 99.560324 
L 371.514745 100.356033 
L 371.613912 99.560324 
L 371.717548 100.356033 
L 371.783837 99.560324 
L 371.824255 100.356033 
L 372.51953 100.356033 
L 372.615323 101.151742 
L 372.647695 100.356033 
L 372.709458 101.151742 
L 373.457306 101.151742 
L 373.549197 101.947452 
L 373.693179 101.151742 
L 373.978535 101.151742 
L 374.010144 101.947452 
L 374.070552 101.151742 
L 374.10072 101.151742 
L 374.130899 101.947452 
L 374.191682 101.151742 
L 374.22729 101.151742 
L 374.25866 101.947452 
L 374.320735 101.151742 
L 374.352011 101.151742 
L 374.446413 101.947452 
L 374.538059 101.151742 
L 374.662548 101.947452 
L 375.57812 101.947452 
L 375.70055 102.743161 
L 375.73075 101.947452 
L 375.791314 102.743161 
L 375.821472 102.743161 
L 375.943076 101.947452 
L 375.974262 101.947452 
L 376.097689 102.743161 
L 376.899236 102.743161 
L 376.929359 103.53887 
L 376.989974 102.743161 
L 377.020204 102.743161 
L 377.115288 103.53887 
L 377.146388 102.743161 
L 377.206748 103.53887 
L 377.448504 103.53887 
L 377.570142 104.33458 
L 377.662553 103.53887 
L 377.785698 104.33458 
L 377.967212 104.33458 
L 378.095969 105.130289 
L 378.22126 104.33458 
L 379.009533 104.33458 
L 379.040723 103.53887 
L 379.221846 104.33458 
L 379.466078 104.33458 
L 379.497432 105.130289 
L 379.693664 104.33458 
L 379.881451 104.33458 
L 379.913186 105.130289 
L 379.976058 104.33458 
L 380.872052 104.33458 
L 380.993825 105.130289 
L 381.086423 105.130289 
L 381.21132 104.33458 
L 381.303955 104.33458 
L 381.430983 105.130289 
L 383.06433 105.130289 
L 383.185718 106.721708 
L 383.215966 106.721708 
L 383.339925 105.130289 
L 383.433248 105.130289 
L 383.524915 106.721708 
L 383.645676 105.130289 
L 383.705915 105.130289 
L 383.828814 106.721708 
L 385.102695 106.721708 
L 385.135136 107.517417 
L 385.199049 106.721708 
L 385.229241 106.721708 
L 385.261465 107.517417 
L 385.323668 106.721708 
L 385.818096 106.721708 
L 385.878395 107.517417 
L 385.908838 106.721708 
L 386.155307 106.721708 
L 386.185596 107.517417 
L 386.246852 106.721708 
L 386.620326 106.721708 
L 386.650414 107.517417 
L 386.710931 106.721708 
L 386.863851 106.721708 
L 386.894126 107.517417 
L 386.954407 106.721708 
L 387.049037 106.721708 
L 387.14014 107.517417 
L 387.170269 106.721708 
L 387.234609 107.517417 
L 387.266354 107.517417 
L 387.388447 106.721708 
L 387.419122 106.721708 
L 387.543155 107.517417 
L 387.573592 106.721708 
L 387.633805 107.517417 
L 387.913956 107.517417 
L 387.945076 106.721708 
L 388.006323 107.517417 
L 388.530491 107.517417 
L 388.65262 108.313126 
L 388.684405 108.313126 
L 388.808649 107.517417 
L 389.593833 107.517417 
L 389.687031 108.313126 
L 389.813648 107.517417 
L 389.845263 107.517417 
L 389.875404 108.313126 
L 389.936076 107.517417 
L 389.966413 107.517417 
L 389.996573 108.313126 
L 390.0579 107.517417 
L 390.154279 107.517417 
L 390.184483 108.313126 
L 390.247509 107.517417 
L 392.003442 107.517417 
L 392.097087 106.721708 
L 392.22435 107.517417 
L 392.499345 107.517417 
L 392.623498 106.721708 
L 392.718062 107.517417 
L 392.84308 106.721708 
L 392.873918 106.721708 
L 392.936668 107.517417 
L 392.967822 106.721708 
L 393.059106 106.721708 
L 393.089281 107.517417 
L 393.154055 106.721708 
L 393.624481 106.721708 
L 393.749448 105.130289 
L 394.205801 105.130289 
L 394.237226 104.33458 
L 394.300274 105.130289 
L 394.425314 105.130289 
L 394.548038 104.33458 
L 394.861391 104.33458 
L 394.992259 103.53887 
L 395.059802 103.53887 
L 395.091019 104.33458 
L 395.1523 103.53887 
L 395.397571 103.53887 
L 395.52566 102.743161 
L 395.811345 102.743161 
L 395.941645 101.947452 
L 396.096559 101.947452 
L 396.227325 101.151742 
L 396.67264 101.151742 
L 396.702976 100.356033 
L 396.766266 101.151742 
L 396.90878 101.151742 
L 397.049909 100.356033 
L 397.250831 100.356033 
L 397.320122 99.560324 
L 397.351444 100.356033 
L 397.472551 101.151742 
L 397.598652 100.356033 
L 397.689932 100.356033 
L 397.720072 99.560324 
L 397.786481 100.356033 
L 397.852462 99.560324 
L 397.918216 101.151742 
L 398.020516 101.151742 
L 398.050614 101.947452 
L 398.085607 101.151742 
L 398.220232 101.151742 
L 398.355049 100.356033 
L 398.420976 100.356033 
L 398.451148 99.560324 
L 398.481279 101.151742 
L 398.574419 101.947452 
L 398.607066 101.151742 
L 398.679997 101.947452 
L 398.710214 101.947452 
L 398.804866 101.151742 
L 398.928461 101.947452 
L 399.056689 101.151742 
L 399.150403 101.151742 
L 399.286023 101.947452 
L 399.441316 101.947452 
L 399.565395 101.151742 
L 399.689734 101.151742 
L 399.722571 101.947452 
L 399.754306 100.356033 
L 399.794602 101.151742 
L 399.826779 101.151742 
L 399.923926 101.947452 
L 400.112078 99.560324 
L 400.152206 99.560324 
L 400.214199 90.807521 
L 400.278482 96.377486 
L 400.309032 95.581777 
L 400.340399 96.377486 
L 400.497201 100.356033 
L 400.558501 100.356033 
L 400.684691 101.151742 
L 400.78116 101.151742 
L 400.905852 101.947452 
L 400.937596 101.947452 
L 401.0638 101.151742 
L 401.570896 101.151742 
L 401.602178 101.947452 
L 401.663272 101.151742 
L 401.849909 101.151742 
L 401.883384 101.947452 
L 401.947834 101.151742 
L 402.041932 99.560324 
L 402.073855 100.356033 
L 402.19741 101.151742 
L 402.322142 100.356033 
L 402.413444 100.356033 
L 402.538167 99.560324 
L 402.666283 99.560324 
L 402.737568 98.764614 
L 402.892504 101.151742 
L 403.061438 99.560324 
L 403.092729 99.560324 
L 403.156585 96.377486 
L 403.188633 97.173196 
L 403.301823 98.764614 
L 403.686048 97.173196 
L 403.754894 98.764614 
L 403.864992 98.764614 
L 404.026263 90.011812 
L 404.056541 94.786068 
L 404.129501 92.39894 
L 404.163248 93.990358 
L 404.443695 97.173196 
L 404.572409 97.173196 
L 404.663807 96.377486 
L 404.915032 98.764614 
L 404.991295 97.173196 
L 405.061334 98.764614 
L 405.218397 96.377486 
L 405.31933 98.764614 
L 405.4121 98.764614 
L 405.565532 100.356033 
L 405.602031 100.356033 
L 405.684098 98.764614 
L 405.838612 101.151742 
L 405.992972 99.560324 
L 406.066702 101.151742 
L 406.097934 99.560324 
L 406.336838 96.377486 
L 406.380595 97.173196 
L 406.423029 96.377486 
L 406.460589 96.377486 
L 406.490853 95.581777 
L 406.531152 97.173196 
L 406.579873 97.173196 
L 406.682613 95.581777 
L 406.802707 98.764614 
L 406.981726 98.764614 
L 407.101446 97.173196 
L 407.263013 98.764614 
L 407.407456 97.173196 
L 407.443322 97.173196 
L 407.479783 98.764614 
L 407.542935 97.173196 
L 407.574665 97.173196 
L 407.708023 98.764614 
L 407.742585 98.764614 
L 407.80644 97.173196 
L 407.843461 98.764614 
L 408.014135 98.764614 
L 408.095692 99.560324 
L 408.127588 98.764614 
L 408.163794 99.560324 
L 408.811728 99.560324 
L 408.858975 98.764614 
L 408.919866 99.560324 
L 409.02844 99.560324 
L 409.114383 100.356033 
L 409.222037 99.560324 
L 409.41396 99.560324 
L 409.552103 100.356033 
L 409.759074 100.356033 
L 409.7898 101.151742 
L 409.830082 100.356033 
L 409.904883 100.356033 
L 409.999934 99.560324 
L 410.110206 100.356033 
L 410.305688 99.560324 
L 410.531226 99.560324 
L 410.642251 100.356033 
L 411.15103 100.356033 
L 411.28604 101.151742 
L 411.55379 101.151742 
L 411.594368 101.947452 
L 411.66312 101.151742 
L 411.734662 101.151742 
L 411.865541 101.947452 
L 411.899906 101.947452 
L 411.932331 101.151742 
L 411.995712 101.947452 
L 412.282063 101.947452 
L 412.381244 101.151742 
L 412.50745 101.947452 
L 412.540575 101.947452 
L 412.666181 101.151742 
L 412.697267 101.151742 
L 412.812521 101.947452 
L 413.882492 101.947452 
L 414.018832 101.151742 
L 414.752928 101.151742 
L 414.783136 101.947452 
L 414.847454 101.151742 
L 415.358024 101.151742 
L 415.48463 101.947452 
L 415.627221 101.947452 
L 415.657347 101.151742 
L 415.725443 101.947452 
L 415.897195 101.947452 
L 415.931834 101.151742 
L 416.126964 101.947452 
L 416.425193 101.947452 
L 416.456347 102.743161 
L 416.51976 101.947452 
L 416.948571 101.947452 
L 416.988113 101.151742 
L 417.019403 101.947452 
L 417.203808 101.151742 
L 417.33058 101.947452 
L 417.360755 101.947452 
L 417.487692 101.151742 
L 417.548752 101.151742 
L 417.655068 101.947452 
L 417.782261 101.151742 
L 417.817725 101.151742 
L 417.847909 101.947452 
L 417.918912 101.151742 
L 418.075361 101.151742 
L 418.173458 101.947452 
L 418.276067 101.151742 
L 418.402098 101.947452 
L 418.528455 101.151742 
L 418.653516 101.947452 
L 418.790429 101.947452 
L 418.824764 101.151742 
L 418.886035 101.947452 
L 419.011759 101.947452 
L 419.043387 101.151742 
L 419.105175 101.947452 
L 419.605058 101.947452 
L 419.729667 102.743161 
L 419.854281 101.947452 
L 419.977805 102.743161 
L 420.106348 101.947452 
L 420.167717 102.743161 
L 420.198196 101.947452 
L 420.259793 101.947452 
L 420.395624 102.743161 
L 420.428737 102.743161 
L 420.550772 101.947452 
L 420.675569 102.743161 
L 420.738144 102.743161 
L 420.768377 101.947452 
L 420.828743 102.743161 
L 421.825574 102.743161 
L 421.946914 103.53887 
L 422.039048 103.53887 
L 422.07157 102.743161 
L 422.13233 103.53887 
L 422.163439 103.53887 
L 422.194787 102.743161 
L 422.257489 103.53887 
L 423.958487 103.53887 
L 423.988726 104.33458 
L 424.050884 103.53887 
L 424.546785 103.53887 
L 424.610231 104.33458 
L 424.640611 103.53887 
L 425.074008 103.53887 
L 425.195339 104.33458 
L 425.287791 103.53887 
L 425.411475 104.33458 
L 425.475233 103.53887 
L 425.505419 104.33458 
L 425.567336 104.33458 
L 425.694114 103.53887 
L 425.820031 104.33458 
L 425.851082 103.53887 
L 425.913836 104.33458 
L 425.945329 104.33458 
L 425.975562 103.53887 
L 426.037915 104.33458 
L 426.170349 104.33458 
L 426.231332 103.53887 
L 426.261407 104.33458 
L 426.292825 104.33458 
L 426.384444 103.53887 
L 426.50677 104.33458 
L 428.302777 104.33458 
L 428.396405 105.130289 
L 428.518336 104.33458 
L 428.57872 104.33458 
L 428.700268 105.130289 
L 428.79106 105.130289 
L 428.911588 104.33458 
L 428.943049 104.33458 
L 429.06372 105.130289 
L 429.215249 105.130289 
L 429.337654 106.721708 
L 429.459789 105.130289 
L 430.251903 105.130289 
L 430.343945 106.721708 
L 430.374184 105.130289 
L 430.434496 106.721708 
L 431.383905 106.721708 
L 431.481326 105.130289 
L 431.544307 106.721708 
L 431.575455 105.130289 
" style="fill:none;stroke:#1f77b4;stroke-linecap:square;stroke-width:1.5;"/>
   </g>
   <g id="line2d_30">
    <path clip-path="url(#p44651947cb)" d="M 63.084545 163.21707 
L 65.919907 163.21707 
L 66.045341 132.184406 
L 69.152307 132.184406 
L 69.274597 140.937209 
L 71.325556 140.937209 
L 71.447496 156.055686 
L 72.507351 156.055686 
L 72.629036 171.969872 
L 73.337362 171.969872 
L 151.129742 60.570567 
L 155.21502 60.570567 
L 155.339218 76.484753 
L 157.081412 76.484753 
L 157.205794 91.60323 
L 158.78435 91.60323 
L 158.906748 132.184406 
L 161.260077 132.184406 
L 161.383459 156.055686 
L 162.275502 156.055686 
L 283.971114 69.323369 
L 285.169508 69.323369 
L 285.29371 100.356033 
L 286.864694 100.356033 
L 286.990953 132.184406 
L 290.412477 132.184406 
L 290.535434 148.098593 
L 293.909109 148.098593 
L 294.032391 156.055686 
L 296.108783 156.055686 
L 296.231397 163.21707 
L 297.484318 163.21707 
L 297.611928 179.131256 
L 299.060981 179.131256 
L 299.182417 187.884059 
L 300.127726 187.884059 
L 300.259801 173.561291 
L 300.913929 173.561291 
L 301.037769 179.131256 
L 302.475138 179.131256 
L 302.537466 171.969872 
L 306.879441 171.969872 
L 307.041171 173.561291 
L 307.968314 173.561291 
L 308.104545 171.969872 
L 309.569772 171.969872 
L 309.69588 163.21707 
L 313.094781 163.21707 
L 313.219271 156.055686 
L 315.043126 156.055686 
L 315.16739 148.098593 
L 316.122899 148.098593 
L 316.248181 144.915755 
L 316.585527 144.915755 
L 316.716185 140.937209 
L 320.164695 140.937209 
L 320.288396 132.184406 
L 325.776568 132.184406 
L 325.901346 144.915755 
L 327.47058 144.915755 
L 327.606863 148.098593 
L 328.715314 148.098593 
L 328.842959 144.915755 
L 329.030302 144.915755 
L 329.161993 148.098593 
L 333.605741 148.098593 
L 333.72966 144.915755 
L 334.223947 144.915755 
L 334.34806 148.098593 
L 335.939209 148.098593 
L 336.061856 156.055686 
L 336.872872 156.055686 
L 336.966847 173.561291 
L 337.772191 173.561291 
L 337.897799 179.131256 
L 338.218688 179.131256 
L 338.342366 187.884059 
L 345.384281 187.884059 
L 345.511532 173.561291 
L 346.943498 173.561291 
L 347.066198 187.884059 
L 348.347919 187.884059 
L 348.496809 171.969872 
L 350.027943 171.969872 
L 350.179522 163.21707 
L 350.815969 163.21707 
L 350.936852 159.238523 
L 351.729539 159.238523 
L 351.861149 156.055686 
L 354.093956 156.055686 
L 354.217126 148.098593 
L 355.309029 148.098593 
L 355.430493 140.937209 
L 356.996127 140.937209 
L 357.108135 148.098593 
L 358.681043 148.098593 
L 358.874024 132.184406 
L 362.489681 132.184406 
L 362.622516 125.023022 
L 367.538405 125.023022 
L 367.706844 132.184406 
L 369.103185 132.184406 
L 369.245707 163.21707 
L 371.280425 163.21707 
L 371.420006 179.131256 
L 373.006379 179.131256 
L 373.136003 203.798245 
L 375.057166 203.798245 
L 375.208394 216.529595 
L 377.387994 216.529595 
L 377.508776 230.852362 
L 380.316314 230.852362 
L 380.440523 216.529595 
L 382.018241 216.529595 
L 382.140653 219.712432 
L 384.151677 219.712432 
L 384.273265 216.529595 
L 384.917367 216.529595 
L 385.041228 219.712432 
L 387.851567 219.712432 
L 387.975257 227.669525 
L 392.99808 227.669525 
L 393.121874 216.529595 
L 394.768961 216.529595 
L 394.898931 202.206827 
L 396.733191 202.206827 
L 396.831442 159.238523 
L 397.533283 159.238523 
L 397.659638 148.098593 
L 399.213271 148.098593 
L 399.347734 100.356033 
L 400.875372 100.356033 
L 401.001289 69.323369 
L 402.892504 69.323369 
L 403.02908 53.409183 
L 404.539751 53.409183 
L 404.663807 35.903578 
L 406.229206 35.903578 
L 406.336838 44.65638 
L 407.7728 44.65638 
L 407.911992 60.570567 
L 411.15103 60.570567 
L 411.28604 84.441847 
L 411.594368 84.441847 
L 411.734662 125.023022 
L 413.775535 125.023022 
L 413.882492 140.937209 
L 414.880338 140.937209 
L 415.011655 148.098593 
L 416.581477 148.098593 
L 416.72617 163.21707 
L 418.433424 163.21707 
L 418.560922 171.969872 
L 420.428737 171.969872 
L 420.550772 187.884059 
L 421.355621 187.884059 
L 421.481899 216.529595 
L 422.445802 216.529595 
L 422.570116 203.798245 
L 422.912054 203.798245 
L 423.033732 216.529595 
L 425.349697 216.529595 
L 425.475233 219.712432 
L 426.261407 219.712432 
L 426.384444 216.529595 
L 427.185367 216.529595 
L 427.308561 234.830909 
L 429.79586 234.830909 
L 429.918279 245.17513 
L 430.100692 245.17513 
L 430.221705 230.852362 
L 430.565357 230.852362 
L 430.686575 234.830909 
L 431.575455 234.830909 
L 431.575455 234.830909 
" style="fill:none;stroke:#ff7f0e;stroke-linecap:square;stroke-width:1.5;"/>
   </g>
   <g id="patch_3">
    <path d="M 44.66 255.638708 
L 44.66 25.44 
" style="fill:none;stroke:#000000;stroke-linecap:square;stroke-linejoin:miter;stroke-width:0.8;"/>
   </g>
   <g id="patch_4">
    <path d="M 450 255.638708 
L 450 25.44 
" style="fill:none;stroke:#000000;stroke-linecap:square;stroke-linejoin:miter;stroke-width:0.8;"/>
   </g>
   <g id="patch_5">
    <path d="M 44.66 255.638708 
L 450 255.638708 
" style="fill:none;stroke:#000000;stroke-linecap:square;stroke-linejoin:miter;stroke-width:0.8;"/>
   </g>
   <g id="patch_6">
    <path d="M 44.66 25.44 
L 450 25.44 
" style="fill:none;stroke:#000000;stroke-linecap:square;stroke-linejoin:miter;stroke-width:0.8;"/>
   </g>
   <g id="text_17">
    <!-- Lake Shoecraft - Water and Air Temperature -->
    <g transform="translate(115.711562 19.44)scale(0.12 -0.12)">
     <defs>
      <path d="M 9.8125 72.90625 
L 19.671875 72.90625 
L 19.671875 8.296875 
L 55.171875 8.296875 
L 55.171875 0 
L 9.8125 0 
z
" id="DejaVuSans-76"/>
      <path d="M 9.078125 75.984375 
L 18.109375 75.984375 
L 18.109375 31.109375 
L 44.921875 54.6875 
L 56.390625 54.6875 
L 27.390625 29.109375 
L 57.625 0 
L 45.90625 0 
L 18.109375 26.703125 
L 18.109375 0 
L 9.078125 0 
z
" id="DejaVuSans-107"/>
      <path d="M 53.515625 70.515625 
L 53.515625 60.890625 
Q 47.90625 63.578125 42.921875 64.890625 
Q 37.9375 66.21875 33.296875 66.21875 
Q 25.25 66.21875 20.875 63.09375 
Q 16.5 59.96875 16.5 54.203125 
Q 16.5 49.359375 19.40625 46.890625 
Q 22.3125 44.4375 30.421875 42.921875 
L 36.375 41.703125 
Q 47.40625 39.59375 52.65625 34.296875 
Q 57.90625 29 57.90625 20.125 
Q 57.90625 9.515625 50.796875 4.046875 
Q 43.703125 -1.421875 29.984375 -1.421875 
Q 24.8125 -1.421875 18.96875 -0.25 
Q 13.140625 0.921875 6.890625 3.21875 
L 6.890625 13.375 
Q 12.890625 10.015625 18.65625 8.296875 
Q 24.421875 6.59375 29.984375 6.59375 
Q 38.421875 6.59375 43.015625 9.90625 
Q 47.609375 13.234375 47.609375 19.390625 
Q 47.609375 24.75 44.3125 27.78125 
Q 41.015625 30.8125 33.5 32.328125 
L 27.484375 33.5 
Q 16.453125 35.6875 11.515625 40.375 
Q 6.59375 45.0625 6.59375 53.421875 
Q 6.59375 63.09375 13.40625 68.65625 
Q 20.21875 74.21875 32.171875 74.21875 
Q 37.3125 74.21875 42.625 73.28125 
Q 47.953125 72.359375 53.515625 70.515625 
z
" id="DejaVuSans-83"/>
      <path d="M 54.890625 33.015625 
L 54.890625 0 
L 45.90625 0 
L 45.90625 32.71875 
Q 45.90625 40.484375 42.875 44.328125 
Q 39.84375 48.1875 33.796875 48.1875 
Q 26.515625 48.1875 22.3125 43.546875 
Q 18.109375 38.921875 18.109375 30.90625 
L 18.109375 0 
L 9.078125 0 
L 9.078125 75.984375 
L 18.109375 75.984375 
L 18.109375 46.1875 
Q 21.34375 51.125 25.703125 53.5625 
Q 30.078125 56 35.796875 56 
Q 45.21875 56 50.046875 50.171875 
Q 54.890625 44.34375 54.890625 33.015625 
z
" id="DejaVuSans-104"/>
      <path d="M 30.609375 48.390625 
Q 23.390625 48.390625 19.1875 42.75 
Q 14.984375 37.109375 14.984375 27.296875 
Q 14.984375 17.484375 19.15625 11.84375 
Q 23.34375 6.203125 30.609375 6.203125 
Q 37.796875 6.203125 41.984375 11.859375 
Q 46.1875 17.53125 46.1875 27.296875 
Q 46.1875 37.015625 41.984375 42.703125 
Q 37.796875 48.390625 30.609375 48.390625 
z
M 30.609375 56 
Q 42.328125 56 49.015625 48.375 
Q 55.71875 40.765625 55.71875 27.296875 
Q 55.71875 13.875 49.015625 6.21875 
Q 42.328125 -1.421875 30.609375 -1.421875 
Q 18.84375 -1.421875 12.171875 6.21875 
Q 5.515625 13.875 5.515625 27.296875 
Q 5.515625 40.765625 12.171875 48.375 
Q 18.84375 56 30.609375 56 
z
" id="DejaVuSans-111"/>
      <path d="M 48.78125 52.59375 
L 48.78125 44.1875 
Q 44.96875 46.296875 41.140625 47.34375 
Q 37.3125 48.390625 33.40625 48.390625 
Q 24.65625 48.390625 19.8125 42.84375 
Q 14.984375 37.3125 14.984375 27.296875 
Q 14.984375 17.28125 19.8125 11.734375 
Q 24.65625 6.203125 33.40625 6.203125 
Q 37.3125 6.203125 41.140625 7.25 
Q 44.96875 8.296875 48.78125 10.40625 
L 48.78125 2.09375 
Q 45.015625 0.34375 40.984375 -0.53125 
Q 36.96875 -1.421875 32.421875 -1.421875 
Q 20.0625 -1.421875 12.78125 6.34375 
Q 5.515625 14.109375 5.515625 27.296875 
Q 5.515625 40.671875 12.859375 48.328125 
Q 20.21875 56 33.015625 56 
Q 37.15625 56 41.109375 55.140625 
Q 45.0625 54.296875 48.78125 52.59375 
z
" id="DejaVuSans-99"/>
      <path d="M 37.109375 75.984375 
L 37.109375 68.5 
L 28.515625 68.5 
Q 23.6875 68.5 21.796875 66.546875 
Q 19.921875 64.59375 19.921875 59.515625 
L 19.921875 54.6875 
L 34.71875 54.6875 
L 34.71875 47.703125 
L 19.921875 47.703125 
L 19.921875 0 
L 10.890625 0 
L 10.890625 47.703125 
L 2.296875 47.703125 
L 2.296875 54.6875 
L 10.890625 54.6875 
L 10.890625 58.5 
Q 10.890625 67.625 15.140625 71.796875 
Q 19.390625 75.984375 28.609375 75.984375 
z
" id="DejaVuSans-102"/>
      <path d="M 3.328125 72.90625 
L 13.28125 72.90625 
L 28.609375 11.28125 
L 43.890625 72.90625 
L 54.984375 72.90625 
L 70.3125 11.28125 
L 85.59375 72.90625 
L 95.609375 72.90625 
L 77.296875 0 
L 64.890625 0 
L 49.515625 63.28125 
L 33.984375 0 
L 21.578125 0 
z
" id="DejaVuSans-87"/>
      <path d="M 54.890625 33.015625 
L 54.890625 0 
L 45.90625 0 
L 45.90625 32.71875 
Q 45.90625 40.484375 42.875 44.328125 
Q 39.84375 48.1875 33.796875 48.1875 
Q 26.515625 48.1875 22.3125 43.546875 
Q 18.109375 38.921875 18.109375 30.90625 
L 18.109375 0 
L 9.078125 0 
L 9.078125 54.6875 
L 18.109375 54.6875 
L 18.109375 46.1875 
Q 21.34375 51.125 25.703125 53.5625 
Q 30.078125 56 35.796875 56 
Q 45.21875 56 50.046875 50.171875 
Q 54.890625 44.34375 54.890625 33.015625 
z
" id="DejaVuSans-110"/>
      <path d="M 45.40625 46.390625 
L 45.40625 75.984375 
L 54.390625 75.984375 
L 54.390625 0 
L 45.40625 0 
L 45.40625 8.203125 
Q 42.578125 3.328125 38.25 0.953125 
Q 33.9375 -1.421875 27.875 -1.421875 
Q 17.96875 -1.421875 11.734375 6.484375 
Q 5.515625 14.40625 5.515625 27.296875 
Q 5.515625 40.1875 11.734375 48.09375 
Q 17.96875 56 27.875 56 
Q 33.9375 56 38.25 53.625 
Q 42.578125 51.265625 45.40625 46.390625 
z
M 14.796875 27.296875 
Q 14.796875 17.390625 18.875 11.75 
Q 22.953125 6.109375 30.078125 6.109375 
Q 37.203125 6.109375 41.296875 11.75 
Q 45.40625 17.390625 45.40625 27.296875 
Q 45.40625 37.203125 41.296875 42.84375 
Q 37.203125 48.484375 30.078125 48.484375 
Q 22.953125 48.484375 18.875 42.84375 
Q 14.796875 37.203125 14.796875 27.296875 
z
" id="DejaVuSans-100"/>
      <path d="M 34.1875 63.1875 
L 20.796875 26.90625 
L 47.609375 26.90625 
z
M 28.609375 72.90625 
L 39.796875 72.90625 
L 67.578125 0 
L 57.328125 0 
L 50.6875 18.703125 
L 17.828125 18.703125 
L 11.1875 0 
L 0.78125 0 
z
" id="DejaVuSans-65"/>
      <path d="M 9.421875 54.6875 
L 18.40625 54.6875 
L 18.40625 0 
L 9.421875 0 
z
M 9.421875 75.984375 
L 18.40625 75.984375 
L 18.40625 64.59375 
L 9.421875 64.59375 
z
" id="DejaVuSans-105"/>
     </defs>
     <use xlink:href="#DejaVuSans-76"/>
     <use x="55.712891" xlink:href="#DejaVuSans-97"/>
     <use x="116.992188" xlink:href="#DejaVuSans-107"/>
     <use x="171.277344" xlink:href="#DejaVuSans-101"/>
     <use x="232.800781" xlink:href="#DejaVuSans-32"/>
     <use x="264.587891" xlink:href="#DejaVuSans-83"/>
     <use x="328.064453" xlink:href="#DejaVuSans-104"/>
     <use x="391.443359" xlink:href="#DejaVuSans-111"/>
     <use x="452.625" xlink:href="#DejaVuSans-101"/>
     <use x="514.148438" xlink:href="#DejaVuSans-99"/>
     <use x="569.128906" xlink:href="#DejaVuSans-114"/>
     <use x="610.242188" xlink:href="#DejaVuSans-97"/>
     <use x="671.521484" xlink:href="#DejaVuSans-102"/>
     <use x="704.976562" xlink:href="#DejaVuSans-116"/>
     <use x="744.185547" xlink:href="#DejaVuSans-32"/>
     <use x="775.972656" xlink:href="#DejaVuSans-45"/>
     <use x="812.056641" xlink:href="#DejaVuSans-32"/>
     <use x="843.84375" xlink:href="#DejaVuSans-87"/>
     <use x="936.345703" xlink:href="#DejaVuSans-97"/>
     <use x="997.625" xlink:href="#DejaVuSans-116"/>
     <use x="1036.833984" xlink:href="#DejaVuSans-101"/>
     <use x="1098.357422" xlink:href="#DejaVuSans-114"/>
     <use x="1139.470703" xlink:href="#DejaVuSans-32"/>
     <use x="1171.257812" xlink:href="#DejaVuSans-97"/>
     <use x="1232.537109" xlink:href="#DejaVuSans-110"/>
     <use x="1295.916016" xlink:href="#DejaVuSans-100"/>
     <use x="1359.392578" xlink:href="#DejaVuSans-32"/>
     <use x="1391.179688" xlink:href="#DejaVuSans-65"/>
     <use x="1459.587891" xlink:href="#DejaVuSans-105"/>
     <use x="1487.371094" xlink:href="#DejaVuSans-114"/>
     <use x="1528.484375" xlink:href="#DejaVuSans-32"/>
     <use x="1560.271484" xlink:href="#DejaVuSans-84"/>
     <use x="1604.355469" xlink:href="#DejaVuSans-101"/>
     <use x="1665.878906" xlink:href="#DejaVuSans-109"/>
     <use x="1763.291016" xlink:href="#DejaVuSans-112"/>
     <use x="1826.767578" xlink:href="#DejaVuSans-101"/>
     <use x="1888.291016" xlink:href="#DejaVuSans-114"/>
     <use x="1929.404297" xlink:href="#DejaVuSans-97"/>
     <use x="1990.683594" xlink:href="#DejaVuSans-116"/>
     <use x="2029.892578" xlink:href="#DejaVuSans-117"/>
     <use x="2093.271484" xlink:href="#DejaVuSans-114"/>
     <use x="2132.134766" xlink:href="#DejaVuSans-101"/>
    </g>
   </g>
   <g id="legend_1">
    <g id="patch_7">
     <path d="M 51.66 62.79625 
L 136.769375 62.79625 
Q 138.769375 62.79625 138.769375 60.79625 
L 138.769375 32.44 
Q 138.769375 30.44 136.769375 30.44 
L 51.66 30.44 
Q 49.66 30.44 49.66 32.44 
L 49.66 60.79625 
Q 49.66 62.79625 51.66 62.79625 
z
" style="fill:#ffffff;opacity:0.8;stroke:#cccccc;stroke-linejoin:miter;"/>
    </g>
    <g id="line2d_31">
     <path d="M 53.66 38.538437 
L 73.66 38.538437 
" style="fill:none;stroke:#1f77b4;stroke-linecap:square;stroke-width:1.5;"/>
    </g>
    <g id="line2d_32"/>
    <g id="text_18">
     <!-- Lake Temp -->
     <g transform="translate(81.66 42.038437)scale(0.1 -0.1)">
      <use xlink:href="#DejaVuSans-76"/>
      <use x="55.712891" xlink:href="#DejaVuSans-97"/>
      <use x="116.992188" xlink:href="#DejaVuSans-107"/>
      <use x="171.277344" xlink:href="#DejaVuSans-101"/>
      <use x="232.800781" xlink:href="#DejaVuSans-32"/>
      <use x="264.587891" xlink:href="#DejaVuSans-84"/>
      <use x="308.671875" xlink:href="#DejaVuSans-101"/>
      <use x="370.195312" xlink:href="#DejaVuSans-109"/>
      <use x="467.607422" xlink:href="#DejaVuSans-112"/>
     </g>
    </g>
    <g id="line2d_33">
     <path d="M 53.66 53.216562 
L 73.66 53.216562 
" style="fill:none;stroke:#ff7f0e;stroke-linecap:square;stroke-width:1.5;"/>
    </g>
    <g id="line2d_34"/>
    <g id="text_19">
     <!-- Air Temp -->
     <g transform="translate(81.66 56.716562)scale(0.1 -0.1)">
      <use xlink:href="#DejaVuSans-65"/>
      <use x="68.408203" xlink:href="#DejaVuSans-105"/>
      <use x="96.191406" xlink:href="#DejaVuSans-114"/>
      <use x="137.304688" xlink:href="#DejaVuSans-32"/>
      <use x="169.091797" xlink:href="#DejaVuSans-84"/>
      <use x="213.175781" xlink:href="#DejaVuSans-101"/>
      <use x="274.699219" xlink:href="#DejaVuSans-109"/>
      <use x="372.111328" xlink:href="#DejaVuSans-112"/>
     </g>
    </g>
   </g>
  </g>
 </g>
 <defs>
  <clipPath id="p44651947cb">
   <rect height="230.198708" width="405.34" x="44.66" y="25.44"/>
  </clipPath>
 </defs>
</svg>
