<?xml version="1.0" encoding="utf-8" standalone="no"?>
<!DOCTYPE svg PUBLIC "-//W3C//DTD SVG 1.1//EN"
  "http://www.w3.org/Graphics/SVG/1.1/DTD/svg11.dtd">
<!-- Created with matplotlib (https://matplotlib.org/) -->
<svg height="345.6pt" version="1.1" viewBox="0 0 460.8 345.6" width="460.8pt" xmlns="http://www.w3.org/2000/svg" xmlns:xlink="http://www.w3.org/1999/xlink">
 <metadata>
  <rdf:RDF xmlns:cc="http://creativecommons.org/ns#" xmlns:dc="http://purl.org/dc/elements/1.1/" xmlns:rdf="http://www.w3.org/1999/02/22-rdf-syntax-ns#">
   <cc:Work>
    <dc:type rdf:resource="http://purl.org/dc/dcmitype/StillImage"/>
    <dc:date>2024-11-18T12:54:39.204252</dc:date>
    <dc:format>image/svg+xml</dc:format>
    <dc:creator>
     <cc:Agent>
      <dc:title>Matplotlib v3.3.2, https://matplotlib.org/</dc:title>
     </cc:Agent>
    </dc:creator>
   </cc:Work>
  </rdf:RDF>
 </metadata>
 <defs>
  <style type="text/css">*{stroke-linecap:butt;stroke-linejoin:round;}</style>
 </defs>
 <g id="figure_1">
  <g id="patch_1">
   <path d="M 0 345.6 
L 460.8 345.6 
L 460.8 0 
L 0 0 
z
" style="fill:none;"/>
  </g>
  <g id="axes_1">
   <g id="patch_2">
    <path d="M 54.2 255.638708 
L 450 255.638708 
L 450 25.44 
L 54.2 25.44 
z
" style="fill:none;"/>
   </g>
   <g id="matplotlib.axis_1">
    <g id="xtick_1">
     <g id="line2d_1">
      <path clip-path="url(#pe916fa429c)" d="M 88.895245 255.638708 
L 88.895245 25.44 
" style="fill:none;stroke:#b0b0b0;stroke-linecap:square;stroke-width:0.8;"/>
     </g>
     <g id="line2d_2">
      <defs>
       <path d="M 0 0 
L 0 3.5 
" id="mb5a659b237" style="stroke:#000000;stroke-width:0.8;"/>
      </defs>
      <g>
       <use style="stroke:#000000;stroke-width:0.8;" x="88.895245" xlink:href="#mb5a659b237" y="255.638708"/>
      </g>
     </g>
     <g id="text_1">
      <!-- 2024-10-29 -->
      <g transform="translate(81.549852 319.848351)rotate(-70)scale(0.1 -0.1)">
       <defs>
        <path d="M 19.1875 8.296875 
L 53.609375 8.296875 
L 53.609375 0 
L 7.328125 0 
L 7.328125 8.296875 
Q 12.9375 14.109375 22.625 23.890625 
Q 32.328125 33.6875 34.8125 36.53125 
Q 39.546875 41.84375 41.421875 45.53125 
Q 43.3125 49.21875 43.3125 52.78125 
Q 43.3125 58.59375 39.234375 62.25 
Q 35.15625 65.921875 28.609375 65.921875 
Q 23.96875 65.921875 18.8125 64.3125 
Q 13.671875 62.703125 7.8125 59.421875 
L 7.8125 69.390625 
Q 13.765625 71.78125 18.9375 73 
Q 24.125 74.21875 28.421875 74.21875 
Q 39.75 74.21875 46.484375 68.546875 
Q 53.21875 62.890625 53.21875 53.421875 
Q 53.21875 48.921875 51.53125 44.890625 
Q 49.859375 40.875 45.40625 35.40625 
Q 44.1875 33.984375 37.640625 27.21875 
Q 31.109375 20.453125 19.1875 8.296875 
z
" id="DejaVuSans-50"/>
        <path d="M 31.78125 66.40625 
Q 24.171875 66.40625 20.328125 58.90625 
Q 16.5 51.421875 16.5 36.375 
Q 16.5 21.390625 20.328125 13.890625 
Q 24.171875 6.390625 31.78125 6.390625 
Q 39.453125 6.390625 43.28125 13.890625 
Q 47.125 21.390625 47.125 36.375 
Q 47.125 51.421875 43.28125 58.90625 
Q 39.453125 66.40625 31.78125 66.40625 
z
M 31.78125 74.21875 
Q 44.046875 74.21875 50.515625 64.515625 
Q 56.984375 54.828125 56.984375 36.375 
Q 56.984375 17.96875 50.515625 8.265625 
Q 44.046875 -1.421875 31.78125 -1.421875 
Q 19.53125 -1.421875 13.0625 8.265625 
Q 6.59375 17.96875 6.59375 36.375 
Q 6.59375 54.828125 13.0625 64.515625 
Q 19.53125 74.21875 31.78125 74.21875 
z
" id="DejaVuSans-48"/>
        <path d="M 37.796875 64.3125 
L 12.890625 25.390625 
L 37.796875 25.390625 
z
M 35.203125 72.90625 
L 47.609375 72.90625 
L 47.609375 25.390625 
L 58.015625 25.390625 
L 58.015625 17.1875 
L 47.609375 17.1875 
L 47.609375 0 
L 37.796875 0 
L 37.796875 17.1875 
L 4.890625 17.1875 
L 4.890625 26.703125 
z
" id="DejaVuSans-52"/>
        <path d="M 4.890625 31.390625 
L 31.203125 31.390625 
L 31.203125 23.390625 
L 4.890625 23.390625 
z
" id="DejaVuSans-45"/>
        <path d="M 12.40625 8.296875 
L 28.515625 8.296875 
L 28.515625 63.921875 
L 10.984375 60.40625 
L 10.984375 69.390625 
L 28.421875 72.90625 
L 38.28125 72.90625 
L 38.28125 8.296875 
L 54.390625 8.296875 
L 54.390625 0 
L 12.40625 0 
z
" id="DejaVuSans-49"/>
        <path d="M 10.984375 1.515625 
L 10.984375 10.5 
Q 14.703125 8.734375 18.5 7.8125 
Q 22.3125 6.890625 25.984375 6.890625 
Q 35.75 6.890625 40.890625 13.453125 
Q 46.046875 20.015625 46.78125 33.40625 
Q 43.953125 29.203125 39.59375 26.953125 
Q 35.25 24.703125 29.984375 24.703125 
Q 19.046875 24.703125 12.671875 31.3125 
Q 6.296875 37.9375 6.296875 49.421875 
Q 6.296875 60.640625 12.9375 67.421875 
Q 19.578125 74.21875 30.609375 74.21875 
Q 43.265625 74.21875 49.921875 64.515625 
Q 56.59375 54.828125 56.59375 36.375 
Q 56.59375 19.140625 48.40625 8.859375 
Q 40.234375 -1.421875 26.421875 -1.421875 
Q 22.703125 -1.421875 18.890625 -0.6875 
Q 15.09375 0.046875 10.984375 1.515625 
z
M 30.609375 32.421875 
Q 37.25 32.421875 41.125 36.953125 
Q 45.015625 41.5 45.015625 49.421875 
Q 45.015625 57.28125 41.125 61.84375 
Q 37.25 66.40625 30.609375 66.40625 
Q 23.96875 66.40625 20.09375 61.84375 
Q 16.21875 57.28125 16.21875 49.421875 
Q 16.21875 41.5 20.09375 36.953125 
Q 23.96875 32.421875 30.609375 32.421875 
z
" id="DejaVuSans-57"/>
       </defs>
       <use xlink:href="#DejaVuSans-50"/>
       <use x="63.623047" xlink:href="#DejaVuSans-48"/>
       <use x="127.246094" xlink:href="#DejaVuSans-50"/>
       <use x="190.869141" xlink:href="#DejaVuSans-52"/>
       <use x="254.492188" xlink:href="#DejaVuSans-45"/>
       <use x="290.576172" xlink:href="#DejaVuSans-49"/>
       <use x="354.199219" xlink:href="#DejaVuSans-48"/>
       <use x="417.822266" xlink:href="#DejaVuSans-45"/>
       <use x="453.90625" xlink:href="#DejaVuSans-50"/>
       <use x="517.529297" xlink:href="#DejaVuSans-57"/>
      </g>
     </g>
    </g>
    <g id="xtick_2">
     <g id="line2d_3">
      <path clip-path="url(#pe916fa429c)" d="M 139.015586 255.638708 
L 139.015586 25.44 
" style="fill:none;stroke:#b0b0b0;stroke-linecap:square;stroke-width:0.8;"/>
     </g>
     <g id="line2d_4">
      <g>
       <use style="stroke:#000000;stroke-width:0.8;" x="139.015586" xlink:href="#mb5a659b237" y="255.638708"/>
      </g>
     </g>
     <g id="text_2">
      <!-- 2024-11-01 -->
      <g transform="translate(131.670193 319.848351)rotate(-70)scale(0.1 -0.1)">
       <use xlink:href="#DejaVuSans-50"/>
       <use x="63.623047" xlink:href="#DejaVuSans-48"/>
       <use x="127.246094" xlink:href="#DejaVuSans-50"/>
       <use x="190.869141" xlink:href="#DejaVuSans-52"/>
       <use x="254.492188" xlink:href="#DejaVuSans-45"/>
       <use x="290.576172" xlink:href="#DejaVuSans-49"/>
       <use x="354.199219" xlink:href="#DejaVuSans-49"/>
       <use x="417.822266" xlink:href="#DejaVuSans-45"/>
       <use x="453.90625" xlink:href="#DejaVuSans-48"/>
       <use x="517.529297" xlink:href="#DejaVuSans-49"/>
      </g>
     </g>
    </g>
    <g id="xtick_3">
     <g id="line2d_5">
      <path clip-path="url(#pe916fa429c)" d="M 205.842707 255.638708 
L 205.842707 25.44 
" style="fill:none;stroke:#b0b0b0;stroke-linecap:square;stroke-width:0.8;"/>
     </g>
     <g id="line2d_6">
      <g>
       <use style="stroke:#000000;stroke-width:0.8;" x="205.842707" xlink:href="#mb5a659b237" y="255.638708"/>
      </g>
     </g>
     <g id="text_3">
      <!-- 2024-11-05 -->
      <g transform="translate(198.497314 319.848351)rotate(-70)scale(0.1 -0.1)">
       <defs>
        <path d="M 10.796875 72.90625 
L 49.515625 72.90625 
L 49.515625 64.59375 
L 19.828125 64.59375 
L 19.828125 46.734375 
Q 21.96875 47.46875 24.109375 47.828125 
Q 26.265625 48.1875 28.421875 48.1875 
Q 40.625 48.1875 47.75 41.5 
Q 54.890625 34.8125 54.890625 23.390625 
Q 54.890625 11.625 47.5625 5.09375 
Q 40.234375 -1.421875 26.90625 -1.421875 
Q 22.3125 -1.421875 17.546875 -0.640625 
Q 12.796875 0.140625 7.71875 1.703125 
L 7.71875 11.625 
Q 12.109375 9.234375 16.796875 8.0625 
Q 21.484375 6.890625 26.703125 6.890625 
Q 35.15625 6.890625 40.078125 11.328125 
Q 45.015625 15.765625 45.015625 23.390625 
Q 45.015625 31 40.078125 35.4375 
Q 35.15625 39.890625 26.703125 39.890625 
Q 22.75 39.890625 18.8125 39.015625 
Q 14.890625 38.140625 10.796875 36.28125 
z
" id="DejaVuSans-53"/>
       </defs>
       <use xlink:href="#DejaVuSans-50"/>
       <use x="63.623047" xlink:href="#DejaVuSans-48"/>
       <use x="127.246094" xlink:href="#DejaVuSans-50"/>
       <use x="190.869141" xlink:href="#DejaVuSans-52"/>
       <use x="254.492188" xlink:href="#DejaVuSans-45"/>
       <use x="290.576172" xlink:href="#DejaVuSans-49"/>
       <use x="354.199219" xlink:href="#DejaVuSans-49"/>
       <use x="417.822266" xlink:href="#DejaVuSans-45"/>
       <use x="453.90625" xlink:href="#DejaVuSans-48"/>
       <use x="517.529297" xlink:href="#DejaVuSans-53"/>
      </g>
     </g>
    </g>
    <g id="xtick_4">
     <g id="line2d_7">
      <path clip-path="url(#pe916fa429c)" d="M 272.669828 255.638708 
L 272.669828 25.44 
" style="fill:none;stroke:#b0b0b0;stroke-linecap:square;stroke-width:0.8;"/>
     </g>
     <g id="line2d_8">
      <g>
       <use style="stroke:#000000;stroke-width:0.8;" x="272.669828" xlink:href="#mb5a659b237" y="255.638708"/>
      </g>
     </g>
     <g id="text_4">
      <!-- 2024-11-09 -->
      <g transform="translate(265.324435 319.848351)rotate(-70)scale(0.1 -0.1)">
       <use xlink:href="#DejaVuSans-50"/>
       <use x="63.623047" xlink:href="#DejaVuSans-48"/>
       <use x="127.246094" xlink:href="#DejaVuSans-50"/>
       <use x="190.869141" xlink:href="#DejaVuSans-52"/>
       <use x="254.492188" xlink:href="#DejaVuSans-45"/>
       <use x="290.576172" xlink:href="#DejaVuSans-49"/>
       <use x="354.199219" xlink:href="#DejaVuSans-49"/>
       <use x="417.822266" xlink:href="#DejaVuSans-45"/>
       <use x="453.90625" xlink:href="#DejaVuSans-48"/>
       <use x="517.529297" xlink:href="#DejaVuSans-57"/>
      </g>
     </g>
    </g>
    <g id="xtick_5">
     <g id="line2d_9">
      <path clip-path="url(#pe916fa429c)" d="M 339.496949 255.638708 
L 339.496949 25.44 
" style="fill:none;stroke:#b0b0b0;stroke-linecap:square;stroke-width:0.8;"/>
     </g>
     <g id="line2d_10">
      <g>
       <use style="stroke:#000000;stroke-width:0.8;" x="339.496949" xlink:href="#mb5a659b237" y="255.638708"/>
      </g>
     </g>
     <g id="text_5">
      <!-- 2024-11-13 -->
      <g transform="translate(332.151556 319.848351)rotate(-70)scale(0.1 -0.1)">
       <defs>
        <path d="M 40.578125 39.3125 
Q 47.65625 37.796875 51.625 33 
Q 55.609375 28.21875 55.609375 21.1875 
Q 55.609375 10.40625 48.1875 4.484375 
Q 40.765625 -1.421875 27.09375 -1.421875 
Q 22.515625 -1.421875 17.65625 -0.515625 
Q 12.796875 0.390625 7.625 2.203125 
L 7.625 11.71875 
Q 11.71875 9.328125 16.59375 8.109375 
Q 21.484375 6.890625 26.8125 6.890625 
Q 36.078125 6.890625 40.9375 10.546875 
Q 45.796875 14.203125 45.796875 21.1875 
Q 45.796875 27.640625 41.28125 31.265625 
Q 36.765625 34.90625 28.71875 34.90625 
L 20.21875 34.90625 
L 20.21875 43.015625 
L 29.109375 43.015625 
Q 36.375 43.015625 40.234375 45.921875 
Q 44.09375 48.828125 44.09375 54.296875 
Q 44.09375 59.90625 40.109375 62.90625 
Q 36.140625 65.921875 28.71875 65.921875 
Q 24.65625 65.921875 20.015625 65.03125 
Q 15.375 64.15625 9.8125 62.3125 
L 9.8125 71.09375 
Q 15.4375 72.65625 20.34375 73.4375 
Q 25.25 74.21875 29.59375 74.21875 
Q 40.828125 74.21875 47.359375 69.109375 
Q 53.90625 64.015625 53.90625 55.328125 
Q 53.90625 49.265625 50.4375 45.09375 
Q 46.96875 40.921875 40.578125 39.3125 
z
" id="DejaVuSans-51"/>
       </defs>
       <use xlink:href="#DejaVuSans-50"/>
       <use x="63.623047" xlink:href="#DejaVuSans-48"/>
       <use x="127.246094" xlink:href="#DejaVuSans-50"/>
       <use x="190.869141" xlink:href="#DejaVuSans-52"/>
       <use x="254.492188" xlink:href="#DejaVuSans-45"/>
       <use x="290.576172" xlink:href="#DejaVuSans-49"/>
       <use x="354.199219" xlink:href="#DejaVuSans-49"/>
       <use x="417.822266" xlink:href="#DejaVuSans-45"/>
       <use x="453.90625" xlink:href="#DejaVuSans-49"/>
       <use x="517.529297" xlink:href="#DejaVuSans-51"/>
      </g>
     </g>
    </g>
    <g id="xtick_6">
     <g id="line2d_11">
      <path clip-path="url(#pe916fa429c)" d="M 406.32407 255.638708 
L 406.32407 25.44 
" style="fill:none;stroke:#b0b0b0;stroke-linecap:square;stroke-width:0.8;"/>
     </g>
     <g id="line2d_12">
      <g>
       <use style="stroke:#000000;stroke-width:0.8;" x="406.32407" xlink:href="#mb5a659b237" y="255.638708"/>
      </g>
     </g>
     <g id="text_6">
      <!-- 2024-11-17 -->
      <g transform="translate(398.978677 319.848351)rotate(-70)scale(0.1 -0.1)">
       <defs>
        <path d="M 8.203125 72.90625 
L 55.078125 72.90625 
L 55.078125 68.703125 
L 28.609375 0 
L 18.3125 0 
L 43.21875 64.59375 
L 8.203125 64.59375 
z
" id="DejaVuSans-55"/>
       </defs>
       <use xlink:href="#DejaVuSans-50"/>
       <use x="63.623047" xlink:href="#DejaVuSans-48"/>
       <use x="127.246094" xlink:href="#DejaVuSans-50"/>
       <use x="190.869141" xlink:href="#DejaVuSans-52"/>
       <use x="254.492188" xlink:href="#DejaVuSans-45"/>
       <use x="290.576172" xlink:href="#DejaVuSans-49"/>
       <use x="354.199219" xlink:href="#DejaVuSans-49"/>
       <use x="417.822266" xlink:href="#DejaVuSans-45"/>
       <use x="453.90625" xlink:href="#DejaVuSans-49"/>
       <use x="517.529297" xlink:href="#DejaVuSans-55"/>
      </g>
     </g>
    </g>
    <g id="text_7">
     <!-- Date -->
     <g transform="translate(240.149219 332.158083)scale(0.1 -0.1)">
      <defs>
       <path d="M 19.671875 64.796875 
L 19.671875 8.109375 
L 31.59375 8.109375 
Q 46.6875 8.109375 53.6875 14.9375 
Q 60.6875 21.78125 60.6875 36.53125 
Q 60.6875 51.171875 53.6875 57.984375 
Q 46.6875 64.796875 31.59375 64.796875 
z
M 9.8125 72.90625 
L 30.078125 72.90625 
Q 51.265625 72.90625 61.171875 64.09375 
Q 71.09375 55.28125 71.09375 36.53125 
Q 71.09375 17.671875 61.125 8.828125 
Q 51.171875 0 30.078125 0 
L 9.8125 0 
z
" id="DejaVuSans-68"/>
       <path d="M 34.28125 27.484375 
Q 23.390625 27.484375 19.1875 25 
Q 14.984375 22.515625 14.984375 16.5 
Q 14.984375 11.71875 18.140625 8.90625 
Q 21.296875 6.109375 26.703125 6.109375 
Q 34.1875 6.109375 38.703125 11.40625 
Q 43.21875 16.703125 43.21875 25.484375 
L 43.21875 27.484375 
z
M 52.203125 31.203125 
L 52.203125 0 
L 43.21875 0 
L 43.21875 8.296875 
Q 40.140625 3.328125 35.546875 0.953125 
Q 30.953125 -1.421875 24.3125 -1.421875 
Q 15.921875 -1.421875 10.953125 3.296875 
Q 6 8.015625 6 15.921875 
Q 6 25.140625 12.171875 29.828125 
Q 18.359375 34.515625 30.609375 34.515625 
L 43.21875 34.515625 
L 43.21875 35.40625 
Q 43.21875 41.609375 39.140625 45 
Q 35.0625 48.390625 27.6875 48.390625 
Q 23 48.390625 18.546875 47.265625 
Q 14.109375 46.140625 10.015625 43.890625 
L 10.015625 52.203125 
Q 14.9375 54.109375 19.578125 55.046875 
Q 24.21875 56 28.609375 56 
Q 40.484375 56 46.34375 49.84375 
Q 52.203125 43.703125 52.203125 31.203125 
z
" id="DejaVuSans-97"/>
       <path d="M 18.3125 70.21875 
L 18.3125 54.6875 
L 36.8125 54.6875 
L 36.8125 47.703125 
L 18.3125 47.703125 
L 18.3125 18.015625 
Q 18.3125 11.328125 20.140625 9.421875 
Q 21.96875 7.515625 27.59375 7.515625 
L 36.8125 7.515625 
L 36.8125 0 
L 27.59375 0 
Q 17.1875 0 13.234375 3.875 
Q 9.28125 7.765625 9.28125 18.015625 
L 9.28125 47.703125 
L 2.6875 47.703125 
L 2.6875 54.6875 
L 9.28125 54.6875 
L 9.28125 70.21875 
z
" id="DejaVuSans-116"/>
       <path d="M 56.203125 29.59375 
L 56.203125 25.203125 
L 14.890625 25.203125 
Q 15.484375 15.921875 20.484375 11.0625 
Q 25.484375 6.203125 34.421875 6.203125 
Q 39.59375 6.203125 44.453125 7.46875 
Q 49.3125 8.734375 54.109375 11.28125 
L 54.109375 2.78125 
Q 49.265625 0.734375 44.1875 -0.34375 
Q 39.109375 -1.421875 33.890625 -1.421875 
Q 20.796875 -1.421875 13.15625 6.1875 
Q 5.515625 13.8125 5.515625 26.8125 
Q 5.515625 40.234375 12.765625 48.109375 
Q 20.015625 56 32.328125 56 
Q 43.359375 56 49.78125 48.890625 
Q 56.203125 41.796875 56.203125 29.59375 
z
M 47.21875 32.234375 
Q 47.125 39.59375 43.09375 43.984375 
Q 39.0625 48.390625 32.421875 48.390625 
Q 24.90625 48.390625 20.390625 44.140625 
Q 15.875 39.890625 15.1875 32.171875 
z
" id="DejaVuSans-101"/>
      </defs>
      <use xlink:href="#DejaVuSans-68"/>
      <use x="77.001953" xlink:href="#DejaVuSans-97"/>
      <use x="138.28125" xlink:href="#DejaVuSans-116"/>
      <use x="177.490234" xlink:href="#DejaVuSans-101"/>
     </g>
    </g>
   </g>
   <g id="matplotlib.axis_2">
    <g id="ytick_1">
     <g id="line2d_13">
      <path clip-path="url(#pe916fa429c)" d="M 54.2 249.774505 
L 450 249.774505 
" style="fill:none;stroke:#b0b0b0;stroke-linecap:square;stroke-width:0.8;"/>
     </g>
     <g id="line2d_14">
      <defs>
       <path d="M 0 0 
L -3.5 0 
" id="m58444a2922" style="stroke:#000000;stroke-width:0.8;"/>
      </defs>
      <g>
       <use style="stroke:#000000;stroke-width:0.8;" x="54.2" xlink:href="#m58444a2922" y="249.774505"/>
      </g>
     </g>
     <g id="text_8">
      <!-- 37.5 -->
      <g transform="translate(24.934375 253.573724)scale(0.1 -0.1)">
       <defs>
        <path d="M 10.6875 12.40625 
L 21 12.40625 
L 21 0 
L 10.6875 0 
z
" id="DejaVuSans-46"/>
       </defs>
       <use xlink:href="#DejaVuSans-51"/>
       <use x="63.623047" xlink:href="#DejaVuSans-55"/>
       <use x="127.246094" xlink:href="#DejaVuSans-46"/>
       <use x="159.033203" xlink:href="#DejaVuSans-53"/>
      </g>
     </g>
    </g>
    <g id="ytick_2">
     <g id="line2d_15">
      <path clip-path="url(#pe916fa429c)" d="M 54.2 221.028413 
L 450 221.028413 
" style="fill:none;stroke:#b0b0b0;stroke-linecap:square;stroke-width:0.8;"/>
     </g>
     <g id="line2d_16">
      <g>
       <use style="stroke:#000000;stroke-width:0.8;" x="54.2" xlink:href="#m58444a2922" y="221.028413"/>
      </g>
     </g>
     <g id="text_9">
      <!-- 40.0 -->
      <g transform="translate(24.934375 224.827631)scale(0.1 -0.1)">
       <use xlink:href="#DejaVuSans-52"/>
       <use x="63.623047" xlink:href="#DejaVuSans-48"/>
       <use x="127.246094" xlink:href="#DejaVuSans-46"/>
       <use x="159.033203" xlink:href="#DejaVuSans-48"/>
      </g>
     </g>
    </g>
    <g id="ytick_3">
     <g id="line2d_17">
      <path clip-path="url(#pe916fa429c)" d="M 54.2 192.28232 
L 450 192.28232 
" style="fill:none;stroke:#b0b0b0;stroke-linecap:square;stroke-width:0.8;"/>
     </g>
     <g id="line2d_18">
      <g>
       <use style="stroke:#000000;stroke-width:0.8;" x="54.2" xlink:href="#m58444a2922" y="192.28232"/>
      </g>
     </g>
     <g id="text_10">
      <!-- 42.5 -->
      <g transform="translate(24.934375 196.081539)scale(0.1 -0.1)">
       <use xlink:href="#DejaVuSans-52"/>
       <use x="63.623047" xlink:href="#DejaVuSans-50"/>
       <use x="127.246094" xlink:href="#DejaVuSans-46"/>
       <use x="159.033203" xlink:href="#DejaVuSans-53"/>
      </g>
     </g>
    </g>
    <g id="ytick_4">
     <g id="line2d_19">
      <path clip-path="url(#pe916fa429c)" d="M 54.2 163.536228 
L 450 163.536228 
" style="fill:none;stroke:#b0b0b0;stroke-linecap:square;stroke-width:0.8;"/>
     </g>
     <g id="line2d_20">
      <g>
       <use style="stroke:#000000;stroke-width:0.8;" x="54.2" xlink:href="#m58444a2922" y="163.536228"/>
      </g>
     </g>
     <g id="text_11">
      <!-- 45.0 -->
      <g transform="translate(24.934375 167.335447)scale(0.1 -0.1)">
       <use xlink:href="#DejaVuSans-52"/>
       <use x="63.623047" xlink:href="#DejaVuSans-53"/>
       <use x="127.246094" xlink:href="#DejaVuSans-46"/>
       <use x="159.033203" xlink:href="#DejaVuSans-48"/>
      </g>
     </g>
    </g>
    <g id="ytick_5">
     <g id="line2d_21">
      <path clip-path="url(#pe916fa429c)" d="M 54.2 134.790136 
L 450 134.790136 
" style="fill:none;stroke:#b0b0b0;stroke-linecap:square;stroke-width:0.8;"/>
     </g>
     <g id="line2d_22">
      <g>
       <use style="stroke:#000000;stroke-width:0.8;" x="54.2" xlink:href="#m58444a2922" y="134.790136"/>
      </g>
     </g>
     <g id="text_12">
      <!-- 47.5 -->
      <g transform="translate(24.934375 138.589354)scale(0.1 -0.1)">
       <use xlink:href="#DejaVuSans-52"/>
       <use x="63.623047" xlink:href="#DejaVuSans-55"/>
       <use x="127.246094" xlink:href="#DejaVuSans-46"/>
       <use x="159.033203" xlink:href="#DejaVuSans-53"/>
      </g>
     </g>
    </g>
    <g id="ytick_6">
     <g id="line2d_23">
      <path clip-path="url(#pe916fa429c)" d="M 54.2 106.044043 
L 450 106.044043 
" style="fill:none;stroke:#b0b0b0;stroke-linecap:square;stroke-width:0.8;"/>
     </g>
     <g id="line2d_24">
      <g>
       <use style="stroke:#000000;stroke-width:0.8;" x="54.2" xlink:href="#m58444a2922" y="106.044043"/>
      </g>
     </g>
     <g id="text_13">
      <!-- 50.0 -->
      <g transform="translate(24.934375 109.843262)scale(0.1 -0.1)">
       <use xlink:href="#DejaVuSans-53"/>
       <use x="63.623047" xlink:href="#DejaVuSans-48"/>
       <use x="127.246094" xlink:href="#DejaVuSans-46"/>
       <use x="159.033203" xlink:href="#DejaVuSans-48"/>
      </g>
     </g>
    </g>
    <g id="ytick_7">
     <g id="line2d_25">
      <path clip-path="url(#pe916fa429c)" d="M 54.2 77.297951 
L 450 77.297951 
" style="fill:none;stroke:#b0b0b0;stroke-linecap:square;stroke-width:0.8;"/>
     </g>
     <g id="line2d_26">
      <g>
       <use style="stroke:#000000;stroke-width:0.8;" x="54.2" xlink:href="#m58444a2922" y="77.297951"/>
      </g>
     </g>
     <g id="text_14">
      <!-- 52.5 -->
      <g transform="translate(24.934375 81.097169)scale(0.1 -0.1)">
       <use xlink:href="#DejaVuSans-53"/>
       <use x="63.623047" xlink:href="#DejaVuSans-50"/>
       <use x="127.246094" xlink:href="#DejaVuSans-46"/>
       <use x="159.033203" xlink:href="#DejaVuSans-53"/>
      </g>
     </g>
    </g>
    <g id="ytick_8">
     <g id="line2d_27">
      <path clip-path="url(#pe916fa429c)" d="M 54.2 48.551858 
L 450 48.551858 
" style="fill:none;stroke:#b0b0b0;stroke-linecap:square;stroke-width:0.8;"/>
     </g>
     <g id="line2d_28">
      <g>
       <use style="stroke:#000000;stroke-width:0.8;" x="54.2" xlink:href="#m58444a2922" y="48.551858"/>
      </g>
     </g>
     <g id="text_15">
      <!-- 55.0 -->
      <g transform="translate(24.934375 52.351077)scale(0.1 -0.1)">
       <use xlink:href="#DejaVuSans-53"/>
       <use x="63.623047" xlink:href="#DejaVuSans-53"/>
       <use x="127.246094" xlink:href="#DejaVuSans-46"/>
       <use x="159.033203" xlink:href="#DejaVuSans-48"/>
      </g>
     </g>
    </g>
    <g id="text_16">
     <!-- Temperature [F] -->
     <g transform="translate(18.854688 180.575291)rotate(-90)scale(0.1 -0.1)">
      <defs>
       <path d="M -0.296875 72.90625 
L 61.375 72.90625 
L 61.375 64.59375 
L 35.5 64.59375 
L 35.5 0 
L 25.59375 0 
L 25.59375 64.59375 
L -0.296875 64.59375 
z
" id="DejaVuSans-84"/>
       <path d="M 52 44.1875 
Q 55.375 50.25 60.0625 53.125 
Q 64.75 56 71.09375 56 
Q 79.640625 56 84.28125 50.015625 
Q 88.921875 44.046875 88.921875 33.015625 
L 88.921875 0 
L 79.890625 0 
L 79.890625 32.71875 
Q 79.890625 40.578125 77.09375 44.375 
Q 74.3125 48.1875 68.609375 48.1875 
Q 61.625 48.1875 57.5625 43.546875 
Q 53.515625 38.921875 53.515625 30.90625 
L 53.515625 0 
L 44.484375 0 
L 44.484375 32.71875 
Q 44.484375 40.625 41.703125 44.40625 
Q 38.921875 48.1875 33.109375 48.1875 
Q 26.21875 48.1875 22.15625 43.53125 
Q 18.109375 38.875 18.109375 30.90625 
L 18.109375 0 
L 9.078125 0 
L 9.078125 54.6875 
L 18.109375 54.6875 
L 18.109375 46.1875 
Q 21.1875 51.21875 25.484375 53.609375 
Q 29.78125 56 35.6875 56 
Q 41.65625 56 45.828125 52.96875 
Q 50 49.953125 52 44.1875 
z
" id="DejaVuSans-109"/>
       <path d="M 18.109375 8.203125 
L 18.109375 -20.796875 
L 9.078125 -20.796875 
L 9.078125 54.6875 
L 18.109375 54.6875 
L 18.109375 46.390625 
Q 20.953125 51.265625 25.265625 53.625 
Q 29.59375 56 35.59375 56 
Q 45.5625 56 51.78125 48.09375 
Q 58.015625 40.1875 58.015625 27.296875 
Q 58.015625 14.40625 51.78125 6.484375 
Q 45.5625 -1.421875 35.59375 -1.421875 
Q 29.59375 -1.421875 25.265625 0.953125 
Q 20.953125 3.328125 18.109375 8.203125 
z
M 48.6875 27.296875 
Q 48.6875 37.203125 44.609375 42.84375 
Q 40.53125 48.484375 33.40625 48.484375 
Q 26.265625 48.484375 22.1875 42.84375 
Q 18.109375 37.203125 18.109375 27.296875 
Q 18.109375 17.390625 22.1875 11.75 
Q 26.265625 6.109375 33.40625 6.109375 
Q 40.53125 6.109375 44.609375 11.75 
Q 48.6875 17.390625 48.6875 27.296875 
z
" id="DejaVuSans-112"/>
       <path d="M 41.109375 46.296875 
Q 39.59375 47.171875 37.8125 47.578125 
Q 36.03125 48 33.890625 48 
Q 26.265625 48 22.1875 43.046875 
Q 18.109375 38.09375 18.109375 28.8125 
L 18.109375 0 
L 9.078125 0 
L 9.078125 54.6875 
L 18.109375 54.6875 
L 18.109375 46.1875 
Q 20.953125 51.171875 25.484375 53.578125 
Q 30.03125 56 36.53125 56 
Q 37.453125 56 38.578125 55.875 
Q 39.703125 55.765625 41.0625 55.515625 
z
" id="DejaVuSans-114"/>
       <path d="M 8.5 21.578125 
L 8.5 54.6875 
L 17.484375 54.6875 
L 17.484375 21.921875 
Q 17.484375 14.15625 20.5 10.265625 
Q 23.53125 6.390625 29.59375 6.390625 
Q 36.859375 6.390625 41.078125 11.03125 
Q 45.3125 15.671875 45.3125 23.6875 
L 45.3125 54.6875 
L 54.296875 54.6875 
L 54.296875 0 
L 45.3125 0 
L 45.3125 8.40625 
Q 42.046875 3.421875 37.71875 1 
Q 33.40625 -1.421875 27.6875 -1.421875 
Q 18.265625 -1.421875 13.375 4.4375 
Q 8.5 10.296875 8.5 21.578125 
z
M 31.109375 56 
z
" id="DejaVuSans-117"/>
       <path id="DejaVuSans-32"/>
       <path d="M 8.59375 75.984375 
L 29.296875 75.984375 
L 29.296875 69 
L 17.578125 69 
L 17.578125 -6.203125 
L 29.296875 -6.203125 
L 29.296875 -13.1875 
L 8.59375 -13.1875 
z
" id="DejaVuSans-91"/>
       <path d="M 9.8125 72.90625 
L 51.703125 72.90625 
L 51.703125 64.59375 
L 19.671875 64.59375 
L 19.671875 43.109375 
L 48.578125 43.109375 
L 48.578125 34.8125 
L 19.671875 34.8125 
L 19.671875 0 
L 9.8125 0 
z
" id="DejaVuSans-70"/>
       <path d="M 30.421875 75.984375 
L 30.421875 -13.1875 
L 9.71875 -13.1875 
L 9.71875 -6.203125 
L 21.390625 -6.203125 
L 21.390625 69 
L 9.71875 69 
L 9.71875 75.984375 
z
" id="DejaVuSans-93"/>
      </defs>
      <use xlink:href="#DejaVuSans-84"/>
      <use x="44.083984" xlink:href="#DejaVuSans-101"/>
      <use x="105.607422" xlink:href="#DejaVuSans-109"/>
      <use x="203.019531" xlink:href="#DejaVuSans-112"/>
      <use x="266.496094" xlink:href="#DejaVuSans-101"/>
      <use x="328.019531" xlink:href="#DejaVuSans-114"/>
      <use x="369.132812" xlink:href="#DejaVuSans-97"/>
      <use x="430.412109" xlink:href="#DejaVuSans-116"/>
      <use x="469.621094" xlink:href="#DejaVuSans-117"/>
      <use x="533" xlink:href="#DejaVuSans-114"/>
      <use x="571.863281" xlink:href="#DejaVuSans-101"/>
      <use x="633.386719" xlink:href="#DejaVuSans-32"/>
      <use x="665.173828" xlink:href="#DejaVuSans-91"/>
      <use x="704.1875" xlink:href="#DejaVuSans-70"/>
      <use x="761.707031" xlink:href="#DejaVuSans-93"/>
     </g>
    </g>
   </g>
   <g id="line2d_29">
    <path clip-path="url(#pe916fa429c)" d="M 72.190909 50.851546 
L 72.202894 50.851546 
L 72.324604 48.551858 
L 72.348599 48.551858 
L 72.469547 50.851546 
L 72.494061 50.851546 
L 72.614813 48.551858 
L 72.663282 48.551858 
L 72.772618 50.851546 
L 72.88235 48.551858 
L 73.004569 50.851546 
L 73.246844 50.851546 
L 73.259044 48.551858 
L 73.356551 50.851546 
L 73.453091 50.851546 
L 73.574781 48.551858 
L 73.614371 50.851546 
L 73.674852 48.551858 
L 73.686887 48.551858 
L 73.735611 50.851546 
L 73.788718 48.551858 
L 73.963941 48.551858 
L 74.074376 50.851546 
L 74.196856 48.551858 
L 74.208856 48.551858 
L 74.33136 50.851546 
L 74.392292 48.551858 
L 74.440726 50.851546 
L 74.501751 50.851546 
L 74.525747 48.551858 
L 74.562258 52.001389 
L 74.611243 50.851546 
L 74.660572 50.851546 
L 74.672587 52.001389 
L 74.70922 48.551858 
L 74.770125 50.851546 
L 74.794532 50.851546 
L 74.917958 48.551858 
L 75.015397 48.551858 
L 75.027823 50.851546 
L 75.126219 48.551858 
L 75.162189 48.551858 
L 75.198296 47.402015 
L 75.271843 48.551858 
L 75.418365 48.551858 
L 75.430339 50.851546 
L 75.528696 48.551858 
L 75.810144 48.551858 
L 75.884435 50.851546 
L 75.920627 48.551858 
L 76.129072 48.551858 
L 76.251626 50.851546 
L 76.497151 50.851546 
L 76.50917 48.551858 
L 76.606345 50.851546 
L 77.40617 50.851546 
L 77.468458 52.001389 
L 77.516851 50.851546 
L 77.553566 50.851546 
L 77.674622 52.001389 
L 77.784839 50.851546 
L 77.907483 52.001389 
L 77.931601 52.001389 
L 78.053832 50.851546 
L 78.093101 50.851546 
L 78.215397 52.001389 
L 78.240378 50.851546 
L 78.314528 52.001389 
L 78.363853 52.001389 
L 78.375853 50.851546 
L 78.463212 52.001389 
L 78.620501 52.001389 
L 78.731844 53.151233 
L 78.808663 53.151233 
L 78.908954 52.001389 
L 78.933344 53.151233 
L 79.007175 52.001389 
L 79.055769 50.851546 
L 79.116095 52.001389 
L 79.262873 52.001389 
L 79.36025 50.851546 
L 79.372605 52.001389 
L 79.470442 52.001389 
L 79.48242 50.851546 
L 79.579644 52.001389 
L 79.616599 52.001389 
L 79.628588 50.851546 
L 79.725298 52.001389 
L 79.774219 52.001389 
L 79.896937 50.851546 
L 80.00584 50.851546 
L 80.017831 52.001389 
L 80.11463 50.851546 
L 80.296169 50.851546 
L 80.417255 48.551858 
L 80.689081 48.551858 
L 80.701134 50.851546 
L 80.798024 48.551858 
L 80.955834 48.551858 
L 81.06769 47.402015 
L 81.080088 47.402015 
L 81.129188 48.551858 
L 81.189701 47.402015 
L 81.225979 47.402015 
L 81.335222 46.252171 
L 81.384029 47.402015 
L 81.445796 46.252171 
L 81.505966 46.252171 
L 81.629125 45.102327 
L 81.71466 45.102327 
L 81.836556 43.952484 
L 81.860715 43.952484 
L 81.974692 41.652796 
L 82.072936 42.80264 
L 82.161409 40.502952 
L 82.186157 41.652796 
L 82.210561 41.652796 
L 82.250313 39.353109 
L 82.324849 40.502952 
L 82.485651 40.502952 
L 82.598925 39.353109 
L 82.661396 40.502952 
L 82.637043 37.053421 
L 82.673734 39.353109 
L 82.685735 37.053421 
L 82.771554 41.652796 
L 82.796092 41.652796 
L 82.84557 42.80264 
L 82.820542 39.353109 
L 82.89353 40.502952 
L 82.905766 37.053421 
L 82.917798 42.80264 
L 82.991883 42.80264 
L 83.015838 42.80264 
L 83.028484 43.952484 
L 83.076736 41.652796 
L 83.113727 41.652796 
L 83.250357 35.903578 
L 83.274538 35.903578 
L 83.395008 37.053421 
L 83.455861 37.053421 
L 83.566038 39.353109 
L 83.679101 37.053421 
L 83.801675 39.353109 
L 83.813658 39.353109 
L 83.935524 40.502952 
L 84.048983 40.502952 
L 84.170793 41.652796 
L 84.368329 41.652796 
L 84.491766 42.80264 
L 84.52816 42.80264 
L 84.540407 41.652796 
L 84.636631 42.80264 
L 84.673652 42.80264 
L 84.795829 43.952484 
L 85.508943 43.952484 
L 85.521131 45.102327 
L 85.619224 43.952484 
L 85.631224 43.952484 
L 85.668134 45.102327 
L 85.730647 43.952484 
L 85.780029 43.952484 
L 85.903099 45.102327 
L 86.382116 45.102327 
L 86.503571 46.252171 
L 86.515883 46.252171 
L 86.602051 45.102327 
L 86.626111 46.252171 
L 86.786235 46.252171 
L 86.798925 47.402015 
L 86.886794 46.252171 
L 87.204368 46.252171 
L 87.302216 47.402015 
L 87.314337 46.252171 
L 87.35104 46.252171 
L 87.461018 47.402015 
L 87.571156 46.252171 
L 87.69407 47.402015 
L 87.706465 46.252171 
L 87.803806 47.402015 
L 87.9761 47.402015 
L 88.024446 46.252171 
L 88.085688 47.402015 
L 88.136184 47.402015 
L 88.258526 46.252171 
L 88.380334 47.402015 
L 89.025636 47.402015 
L 89.037637 46.252171 
L 89.134298 47.402015 
L 89.218975 47.402015 
L 89.231565 48.551858 
L 89.32811 47.402015 
L 89.620035 47.402015 
L 89.740165 48.551858 
L 89.824874 48.551858 
L 89.920882 47.402015 
L 89.933141 48.551858 
L 89.957141 48.551858 
L 90.042404 47.402015 
L 90.066443 48.551858 
L 90.24893 48.551858 
L 90.362028 50.851546 
L 90.41011 48.551858 
L 90.458374 50.851546 
L 90.562573 50.851546 
L 90.587065 48.551858 
L 90.672309 50.851546 
L 90.708721 50.851546 
L 90.805838 48.551858 
L 90.818076 50.851546 
L 90.830432 50.851546 
L 90.927592 48.551858 
L 90.939612 50.851546 
L 90.951927 50.851546 
L 91.074684 48.551858 
L 91.183992 48.551858 
L 91.196101 50.851546 
L 91.292987 48.551858 
L 91.525439 48.551858 
L 91.573913 50.851546 
L 91.635254 48.551858 
L 91.671725 48.551858 
L 91.757189 50.851546 
L 91.781621 48.551858 
L 91.977888 48.551858 
L 92.099584 50.851546 
L 92.12378 50.851546 
L 92.245955 48.551858 
L 92.258348 48.551858 
L 92.380834 50.851546 
L 92.454819 50.851546 
L 92.516748 48.551858 
L 92.565931 50.851546 
L 92.615834 50.851546 
L 92.6287 48.551858 
L 92.717488 50.851546 
L 92.73056 50.851546 
L 92.805845 48.551858 
L 92.830236 50.851546 
L 92.880169 50.851546 
L 92.892171 48.551858 
L 92.916755 50.851546 
L 93.015123 50.851546 
L 93.051411 48.551858 
L 93.114808 50.851546 
L 93.176151 50.851546 
L 93.249391 48.551858 
L 93.285928 50.851546 
L 93.359235 50.851546 
L 93.4203 48.551858 
L 93.469327 50.851546 
L 93.815721 50.851546 
L 93.933652 52.001389 
L 93.96979 50.851546 
L 94.042041 52.001389 
L 94.453852 52.001389 
L 94.527314 53.151233 
L 94.564939 52.001389 
L 95.002182 52.001389 
L 95.038199 50.851546 
L 95.110914 52.001389 
L 95.456847 52.001389 
L 95.579775 50.851546 
L 95.701973 52.001389 
L 95.751212 52.001389 
L 95.872007 50.851546 
L 95.969848 50.851546 
L 96.091112 48.551858 
L 96.213117 48.551858 
L 96.225158 47.402015 
L 96.322598 48.551858 
L 96.361953 48.551858 
L 96.460514 47.402015 
L 96.582895 48.551858 
L 96.631201 48.551858 
L 96.643315 47.402015 
L 96.739979 48.551858 
L 96.973237 48.551858 
L 97.02152 47.402015 
L 97.082616 48.551858 
L 97.118963 48.551858 
L 97.228133 47.402015 
L 97.597233 47.402015 
L 98.141799 46.252171 
L 98.384658 46.252171 
L 98.507495 45.102327 
L 98.901004 45.102327 
L 99.012555 43.952484 
L 99.109532 43.952484 
L 99.243482 41.652796 
L 99.364658 42.80264 
L 99.68306 42.80264 
L 99.695097 41.652796 
L 99.792041 42.80264 
L 99.816159 42.80264 
L 99.937494 41.652796 
L 99.973505 41.652796 
L 100.096576 43.952484 
L 100.120653 43.952484 
L 100.132894 42.80264 
L 100.230989 43.952484 
L 100.405808 43.952484 
L 100.502372 45.102327 
L 100.514825 43.952484 
L 100.5514 43.952484 
L 100.665099 45.102327 
L 100.934782 45.102327 
L 101.033871 46.252171 
L 101.094653 45.102327 
L 101.143376 46.252171 
L 101.33886 46.252171 
L 101.350861 45.102327 
L 101.438434 46.252171 
L 101.758655 46.252171 
L 101.871122 47.402015 
L 101.92383 47.402015 
L 101.972517 46.252171 
L 102.034781 47.402015 
L 102.234114 47.402015 
L 102.343926 48.551858 
L 102.417706 47.402015 
L 102.442913 48.551858 
L 102.46804 48.551858 
L 102.481109 47.402015 
L 102.578492 48.551858 
L 102.677346 48.551858 
L 102.689449 50.851546 
L 102.753052 48.551858 
L 102.877327 48.551858 
L 102.988965 50.851546 
L 103.025112 50.851546 
L 103.147679 48.551858 
L 103.269244 50.851546 
L 103.488416 50.851546 
L 103.500443 52.001389 
L 103.597393 50.851546 
L 104.330696 50.851546 
L 104.440668 52.001389 
L 104.550403 50.851546 
L 104.62632 52.001389 
L 104.650698 50.851546 
L 104.711785 50.851546 
L 104.834392 52.001389 
L 104.8711 52.001389 
L 104.88306 50.851546 
L 104.981006 52.001389 
L 105.00622 52.001389 
L 105.120469 50.851546 
L 105.159261 50.851546 
L 105.273256 52.001389 
L 105.457519 52.001389 
L 105.530579 50.851546 
L 105.566707 52.001389 
L 105.834801 52.001389 
L 105.847358 53.151233 
L 105.94529 52.001389 
L 106.068262 52.001389 
L 106.08047 53.151233 
L 106.177677 52.001389 
L 106.35959 52.001389 
L 106.3842 53.151233 
L 106.469857 52.001389 
L 106.493853 52.001389 
L 106.616419 53.151233 
L 106.640898 53.151233 
L 106.762267 52.001389 
L 106.883536 53.151233 
L 106.895533 53.151233 
L 106.920175 52.001389 
L 106.992516 53.151233 
L 107.031886 53.151233 
L 107.153577 52.001389 
L 107.269049 53.151233 
L 107.403536 53.151233 
L 107.512552 54.301077 
L 107.632884 53.151233 
L 107.645086 53.151233 
L 107.757395 54.301077 
L 107.806066 54.301077 
L 107.843725 53.151233 
L 107.916517 54.301077 
L 108.393875 54.301077 
L 108.442387 55.45092 
L 108.503373 54.301077 
L 108.515371 54.301077 
L 108.625258 55.45092 
L 108.747713 54.301077 
L 108.771752 54.301077 
L 108.894158 55.45092 
L 109.120738 55.45092 
L 109.246762 54.301077 
L 109.317619 55.45092 
L 109.345657 54.301077 
L 109.422643 54.301077 
L 109.538237 55.45092 
L 109.597685 55.45092 
L 109.697101 54.301077 
L 109.784136 55.45092 
L 110.307802 55.45092 
L 110.422193 56.600764 
L 110.602947 56.600764 
L 110.627362 57.750608 
L 110.705727 56.600764 
L 110.773552 56.600764 
L 110.824421 57.750608 
L 110.872733 56.600764 
L 110.884706 56.600764 
L 111.006312 57.750608 
L 111.17721 57.750608 
L 111.274014 56.600764 
L 111.286055 57.750608 
L 111.5538 57.750608 
L 111.675067 56.600764 
L 111.687053 56.600764 
L 111.809988 57.750608 
L 111.907842 57.750608 
L 112.020547 56.600764 
L 112.161153 56.600764 
L 112.260494 57.750608 
L 112.380724 56.600764 
L 113.047015 56.600764 
L 113.059143 57.750608 
L 113.14609 56.600764 
L 113.320033 56.600764 
L 113.332496 57.750608 
L 113.421711 56.600764 
L 113.58358 56.600764 
L 113.595783 57.750608 
L 113.685167 56.600764 
L 113.746037 56.600764 
L 113.758753 55.45092 
L 113.855368 56.600764 
L 114.012941 56.600764 
L 114.024956 57.750608 
L 114.12185 56.600764 
L 114.424223 56.600764 
L 114.453229 57.750608 
L 114.529554 56.600764 
L 115.291975 57.750608 
L 116.097653 57.750608 
L 116.10986 56.600764 
L 116.20862 57.750608 
L 117.016486 57.750608 
L 117.076996 60.050295 
L 117.125213 57.750608 
L 117.149167 57.750608 
L 117.161309 60.050295 
L 117.258964 57.750608 
L 117.380422 57.750608 
L 117.477254 60.050295 
L 117.489253 57.750608 
L 117.525548 57.750608 
L 117.647856 60.050295 
L 117.758586 57.750608 
L 117.88087 60.050295 
L 117.993713 57.750608 
L 118.128587 57.750608 
L 118.224735 60.050295 
L 118.238356 57.750608 
L 118.357874 60.050295 
L 119.197639 61.200139 
L 119.310692 61.200139 
L 119.359396 62.349983 
L 119.762069 61.200139 
L 119.876397 62.349983 
L 120.000866 61.200139 
L 120.052237 62.349983 
L 120.102286 61.200139 
L 120.177006 61.200139 
L 120.21504 62.349983 
L 120.276531 61.200139 
L 120.353359 61.200139 
L 120.474591 62.349983 
L 120.487249 62.349983 
L 120.539074 61.200139 
L 120.587864 62.349983 
L 120.998586 62.349983 
L 121.098541 63.499826 
L 121.208832 62.349983 
L 121.234319 62.349983 
L 121.34419 63.499826 
L 121.464857 62.349983 
L 121.501616 63.499826 
L 121.574514 62.349983 
L 121.586521 62.349983 
L 121.634636 63.499826 
L 121.695174 62.349983 
L 121.719176 62.349983 
L 121.839929 63.499826 
L 121.852241 63.499826 
L 121.96039 62.349983 
L 122.073339 63.499826 
L 122.101178 63.499826 
L 122.223542 64.64967 
L 122.260176 64.64967 
L 122.309551 63.499826 
L 122.370395 64.64967 
L 122.419411 64.64967 
L 122.443848 65.799514 
L 122.455816 63.499826 
L 122.517315 63.499826 
L 122.601706 63.499826 
L 122.613703 64.64967 
L 122.710057 63.499826 
L 122.975099 63.499826 
L 123.035616 65.799514 
L 123.090065 64.64967 
L 123.210831 63.499826 
L 123.343435 63.499826 
L 123.463498 64.64967 
L 123.572216 63.499826 
L 123.584208 64.64967 
L 123.680348 63.499826 
L 123.692328 63.499826 
L 123.842735 64.64967 
L 123.855129 64.64967 
L 123.867285 63.499826 
L 123.960276 64.64967 
L 123.999525 64.64967 
L 124.024432 65.799514 
L 124.048556 63.499826 
L 124.109138 64.64967 
L 124.133652 63.499826 
L 124.219211 64.64967 
L 124.75397 64.64967 
L 124.778143 65.799514 
L 124.863983 64.64967 
L 124.98608 64.64967 
L 125.109583 66.949357 
L 125.22151 65.799514 
L 125.233685 66.949357 
L 125.331715 65.799514 
L 125.651984 65.799514 
L 125.763572 66.949357 
L 125.791816 66.949357 
L 125.9127 68.099201 
L 126.030056 65.799514 
L 126.125879 65.799514 
L 126.238795 66.949357 
L 126.546223 66.949357 
L 126.56008 65.799514 
L 126.651312 66.949357 
L 126.742172 66.949357 
L 126.881584 65.799514 
L 127.205657 65.799514 
L 127.245028 64.64967 
L 127.306282 65.799514 
L 127.574473 65.799514 
L 127.587033 66.949357 
L 127.682474 65.799514 
L 127.98612 65.799514 
L 127.999287 66.949357 
L 128.09716 65.799514 
L 128.210246 65.799514 
L 128.334985 66.949357 
L 128.391307 66.949357 
L 128.461318 65.799514 
L 128.474623 66.949357 
L 128.596369 65.799514 
L 128.718488 66.949357 
L 128.833761 65.799514 
L 128.87218 65.799514 
L 128.971859 66.949357 
L 129.082743 65.799514 
L 129.108407 65.799514 
L 129.21339 66.949357 
L 129.302309 65.799514 
L 129.314268 66.949357 
L 129.392902 66.949357 
L 129.503227 65.799514 
L 129.880837 65.799514 
L 129.994292 64.64967 
L 130.435415 64.64967 
L 130.556679 63.499826 
L 130.568652 63.499826 
L 130.580671 64.64967 
L 130.675265 63.499826 
L 130.688203 63.499826 
L 130.700389 64.64967 
L 130.796709 63.499826 
L 131.057153 63.499826 
L 131.171362 62.349983 
L 131.183598 62.349983 
L 131.292347 63.499826 
L 131.414555 62.349983 
L 131.488216 62.349983 
L 131.610354 61.200139 
L 131.622358 61.200139 
L 131.743658 62.349983 
L 131.804123 62.349983 
L 131.926851 61.200139 
L 132.076395 61.200139 
L 132.199115 60.050295 
L 132.247903 60.050295 
L 132.358418 57.750608 
L 132.371101 57.750608 
L 132.395655 60.050295 
L 132.481347 57.750608 
L 132.542673 57.750608 
L 132.567491 60.050295 
L 132.889047 60.050295 
L 132.944078 57.750608 
L 132.957875 60.050295 
L 133.004911 60.050295 
L 133.120267 57.750608 
L 133.147613 57.750608 
L 133.243556 60.050295 
L 133.2556 57.750608 
L 133.327685 57.750608 
L 133.438923 61.200139 
L 133.5542 60.050295 
L 133.654126 61.200139 
L 133.705144 61.200139 
L 133.797876 60.050295 
L 133.813012 61.200139 
L 133.825033 61.200139 
L 133.879498 60.050295 
L 133.918727 61.200139 
L 133.998713 61.200139 
L 134.010712 60.050295 
L 134.108878 61.200139 
L 134.367159 61.200139 
L 134.478166 62.349983 
L 134.563191 61.200139 
L 134.587389 62.349983 
L 134.903669 62.349983 
L 134.916021 63.499826 
L 135.012237 62.349983 
L 135.025006 62.349983 
L 135.049276 63.499826 
L 135.136004 62.349983 
L 135.296743 62.349983 
L 135.3746 63.499826 
L 135.400879 62.349983 
L 135.510504 62.349983 
L 135.632438 63.499826 
L 135.644477 62.349983 
L 135.741709 63.499826 
L 136.145991 63.499826 
L 136.158421 64.64967 
L 136.256598 63.499826 
L 136.330368 63.499826 
L 136.444149 64.64967 
L 136.760047 64.64967 
L 136.772456 63.499826 
L 136.869266 64.64967 
L 137.06 64.64967 
L 137.122565 65.799514 
L 137.15933 64.64967 
L 137.196737 64.64967 
L 137.30992 65.799514 
L 137.422586 64.64967 
L 137.435101 64.64967 
L 137.550143 65.799514 
L 137.575017 65.799514 
L 137.677061 64.64967 
L 137.689423 65.799514 
L 137.776539 64.64967 
L 137.837297 64.64967 
L 137.950491 65.799514 
L 137.974557 65.799514 
L 138.096568 64.64967 
L 138.108637 64.64967 
L 138.231678 65.799514 
L 138.243776 64.64967 
L 138.341516 65.799514 
L 138.442839 65.799514 
L 138.567142 66.949357 
L 138.904005 66.949357 
L 139.015839 65.799514 
L 139.089933 65.799514 
L 139.102228 66.949357 
L 139.19958 65.799514 
L 139.248376 65.799514 
L 139.333521 66.949357 
L 139.357442 65.799514 
L 139.453874 65.799514 
L 139.575727 66.949357 
L 139.69837 66.949357 
L 139.807197 68.099201 
L 139.929226 66.949357 
L 140.53012 66.949357 
L 140.542198 65.799514 
L 140.632833 66.949357 
L 140.76321 66.949357 
L 140.862044 68.099201 
L 140.972037 66.949357 
L 141.084685 68.099201 
L 141.206756 66.949357 
L 141.219343 66.949357 
L 141.341414 68.099201 
L 141.414466 68.099201 
L 141.537347 69.249045 
L 141.659596 68.099201 
L 141.805946 68.099201 
L 141.817949 69.249045 
L 141.915192 68.099201 
L 141.988251 68.099201 
L 142.012274 69.249045 
L 142.098183 68.099201 
L 142.158339 68.099201 
L 142.24301 69.249045 
L 142.267582 68.099201 
L 142.364983 68.099201 
L 142.486635 69.249045 
L 142.817175 69.249045 
L 142.939482 68.099201 
L 142.976229 68.099201 
L 143.085119 69.249045 
L 143.194872 68.099201 
L 143.317595 69.249045 
L 143.548714 69.249045 
L 143.560861 71.548732 
L 143.638768 69.249045 
L 144.030607 69.249045 
L 144.04352 71.548732 
L 144.133547 69.249045 
L 144.17121 69.249045 
L 144.279481 71.548732 
L 144.400462 69.249045 
L 144.631141 69.249045 
L 144.752603 71.548732 
L 144.885583 71.548732 
L 145.007285 72.698576 
L 145.019277 72.698576 
L 145.12795 71.548732 
L 145.17945 71.548732 
L 145.19159 72.698576 
L 145.280176 71.548732 
L 145.355833 69.249045 
L 145.368287 71.548732 
L 145.801253 71.548732 
L 145.902293 69.249045 
L 146.017344 71.548732 
L 146.129113 69.249045 
L 146.24443 71.548732 
L 146.361781 69.249045 
L 146.375582 69.249045 
L 146.465706 71.548732 
L 146.479941 69.249045 
L 146.493882 69.249045 
L 146.522597 71.548732 
L 146.587704 69.249045 
L 146.622984 69.249045 
L 146.743308 71.548732 
L 146.863604 69.249045 
L 146.876689 71.548732 
L 146.972819 69.249045 
L 147.126072 69.249045 
L 147.239809 68.099201 
L 147.351116 69.249045 
L 147.466857 68.099201 
L 147.531888 68.099201 
L 147.647134 69.249045 
L 147.767909 68.099201 
L 147.854235 69.249045 
L 147.867125 68.099201 
L 147.966392 69.249045 
L 148.077593 68.099201 
L 148.200386 69.249045 
L 148.236594 69.249045 
L 148.310329 68.099201 
L 148.347436 69.249045 
L 149.254867 69.249045 
L 149.291816 68.099201 
L 149.357273 69.249045 
L 149.657282 69.249045 
L 149.669671 71.548732 
L 149.767865 69.249045 
L 150.097077 69.249045 
L 150.14536 71.548732 
L 150.182382 69.249045 
L 150.657761 69.249045 
L 150.670197 68.099201 
L 150.767975 69.249045 
L 151.123376 69.249045 
L 151.211226 71.548732 
L 151.223222 69.249045 
L 151.349945 69.249045 
L 151.398144 71.548732 
L 151.436083 69.249045 
L 151.463799 69.249045 
L 151.587083 71.548732 
L 151.672565 71.548732 
L 151.684934 69.249045 
L 151.771862 71.548732 
L 152.099925 71.548732 
L 152.112123 69.249045 
L 152.210812 71.548732 
L 152.260076 71.548732 
L 152.272491 69.249045 
L 152.361464 71.548732 
L 153.281439 71.548732 
L 153.30549 72.698576 
L 153.391029 71.548732 
L 153.56966 71.548732 
L 153.712586 72.698576 
L 153.734785 71.548732 
L 153.801634 72.698576 
L 154.18748 72.698576 
L 154.264729 71.548732 
L 154.400133 72.698576 
L 154.412485 71.548732 
L 154.509191 72.698576 
L 154.642014 72.698576 
L 154.654093 73.84842 
L 154.75195 72.698576 
L 154.776106 72.698576 
L 154.860453 71.548732 
L 154.884554 72.698576 
L 155.11763 72.698576 
L 155.238649 73.84842 
L 155.350053 72.698576 
L 155.49654 72.698576 
L 155.604999 73.84842 
L 155.678742 72.698576 
L 155.715586 73.84842 
L 155.775757 73.84842 
L 155.89778 72.698576 
L 156.018878 73.84842 
L 156.115905 72.698576 
L 156.127901 73.84842 
L 156.648648 73.84842 
L 156.74517 74.998263 
L 156.757144 73.84842 
L 157.035805 73.84842 
L 157.048004 74.998263 
L 157.108366 73.84842 
L 157.147819 73.84842 
L 157.160145 74.998263 
L 157.257185 73.84842 
L 157.322274 73.84842 
L 157.445403 74.998263 
L 157.506277 74.998263 
L 157.627567 73.84842 
L 157.688403 74.998263 
L 157.736495 73.84842 
L 157.990787 73.84842 
L 158.027314 74.998263 
L 158.099901 73.84842 
L 158.245757 73.84842 
L 158.344325 74.998263 
L 158.356317 73.84842 
L 158.39291 73.84842 
L 158.453596 74.998263 
L 158.502359 73.84842 
L 158.514359 73.84842 
L 158.636307 74.998263 
L 158.672425 74.998263 
L 158.79404 73.84842 
L 158.806079 73.84842 
L 158.928251 74.998263 
L 159.024611 73.84842 
L 159.037132 74.998263 
L 159.073741 74.998263 
L 159.171482 73.84842 
L 159.183483 74.998263 
L 159.715491 74.998263 
L 159.728106 73.84842 
L 159.814141 74.998263 
L 160.022366 74.998263 
L 160.132959 76.148107 
L 160.208207 74.998263 
L 160.233788 76.148107 
L 160.25847 76.148107 
L 160.270784 74.998263 
L 160.357914 76.148107 
L 160.980842 76.148107 
L 161.089108 74.998263 
L 161.210056 76.148107 
L 161.222449 76.148107 
L 161.344732 74.998263 
L 161.392896 74.998263 
L 161.429567 76.148107 
L 161.501698 74.998263 
L 161.868907 74.998263 
L 161.880909 76.148107 
L 161.979252 74.998263 
L 162.819958 74.998263 
L 162.884654 73.84842 
L 162.920767 74.998263 
L 162.93294 74.998263 
L 163.042296 73.84842 
L 163.091763 74.998263 
L 163.152718 73.84842 
L 163.665752 73.84842 
L 163.702796 72.698576 
L 163.776516 73.84842 
L 163.788519 73.84842 
L 163.910492 72.698576 
L 163.922533 72.698576 
L 164.034126 73.84842 
L 164.046287 73.84842 
L 164.16838 72.698576 
L 164.180571 72.698576 
L 164.216964 73.84842 
L 164.290662 72.698576 
L 164.315637 72.698576 
L 164.436203 71.548732 
L 164.522177 72.698576 
L 164.546666 71.548732 
L 164.631997 71.548732 
L 164.644229 72.698576 
L 164.741487 71.548732 
L 164.912211 71.548732 
L 165.035292 69.249045 
L 165.281974 69.249045 
L 165.404102 68.099201 
L 165.477405 68.099201 
L 165.588784 66.949357 
L 165.71046 68.099201 
L 165.831759 66.949357 
L 165.989034 66.949357 
L 166.00213 68.099201 
L 166.099663 66.949357 
L 166.160578 66.949357 
L 166.282141 68.099201 
L 166.306309 68.099201 
L 166.428604 66.949357 
L 166.454455 66.949357 
L 166.575548 68.099201 
L 166.599596 68.099201 
L 166.611714 66.949357 
L 166.708253 68.099201 
L 167.012766 68.099201 
L 167.025191 69.249045 
L 167.122765 68.099201 
L 167.245586 68.099201 
L 167.354481 69.249045 
L 167.475459 68.099201 
L 167.499661 68.099201 
L 167.610983 69.249045 
L 167.721396 69.249045 
L 167.733408 68.099201 
L 167.830657 69.249045 
L 167.903261 69.249045 
L 167.963808 68.099201 
L 168.012421 69.249045 
L 168.58454 69.249045 
L 168.706436 71.548732 
L 168.742635 71.548732 
L 168.863821 69.249045 
L 168.986467 71.548732 
L 169.047292 69.249045 
L 169.095963 71.548732 
L 169.10812 71.548732 
L 169.121193 69.249045 
L 169.218492 71.548732 
L 169.539811 71.548732 
L 169.564407 72.698576 
L 169.64892 71.548732 
L 169.75899 71.548732 
L 169.845834 72.698576 
L 169.858648 71.548732 
L 169.908625 71.548732 
L 170.031267 72.698576 
L 170.152353 71.548732 
L 170.263455 72.698576 
L 170.49679 72.698576 
L 170.508767 73.84842 
L 170.60615 72.698576 
L 170.630213 72.698576 
L 170.740155 73.84842 
L 170.752183 72.698576 
L 170.849726 73.84842 
L 170.886427 73.84842 
L 170.898428 72.698576 
L 170.983691 73.84842 
L 171.106159 74.998263 
L 171.204367 73.84842 
L 171.216361 74.998263 
L 171.228392 74.998263 
L 171.350162 73.84842 
L 171.753232 73.84842 
L 171.826337 72.698576 
L 171.863321 73.84842 
L 171.92411 73.84842 
L 171.936715 72.698576 
L 172.033451 73.84842 
L 172.276444 73.84842 
L 172.398143 74.998263 
L 172.440618 74.998263 
L 172.561519 73.84842 
L 172.57354 73.84842 
L 172.671275 74.998263 
L 172.683273 73.84842 
L 172.719866 73.84842 
L 172.80699 74.998263 
L 172.818981 73.84842 
L 172.930342 73.84842 
L 172.942704 74.998263 
L 173.04012 73.84842 
L 173.149785 73.84842 
L 173.247466 74.998263 
L 173.259478 73.84842 
L 173.443906 73.84842 
L 173.45592 74.998263 
L 173.553048 73.84842 
L 173.785536 73.84842 
L 173.79763 74.998263 
L 173.809682 73.84842 
L 173.125783 73.84842 
L 173.186969 73.84842 
L 173.309814 74.998263 
L 173.358684 74.998263 
L 173.48077 73.84842 
L 173.602075 74.998263 
L 173.626462 74.998263 
L 173.687022 73.84842 
L 173.735291 74.998263 
L 173.820314 74.998263 
L 173.860563 73.84842 
L 173.921338 74.998263 
L 174.39961 74.998263 
L 174.484692 73.84842 
L 174.508893 74.998263 
L 174.923436 74.998263 
L 175.044431 73.84842 
L 175.165442 74.998263 
L 175.177426 74.998263 
L 175.298624 73.84842 
L 175.420441 74.998263 
L 175.469152 74.998263 
L 175.580664 73.84842 
L 175.690881 74.998263 
L 175.715195 73.84842 
L 175.800215 74.998263 
L 176.286493 74.998263 
L 176.408142 76.148107 
L 176.528833 74.998263 
L 176.650467 76.148107 
L 176.674934 76.148107 
L 176.686966 74.998263 
L 176.783564 76.148107 
L 176.868506 76.148107 
L 176.892507 77.297951 
L 176.976707 76.148107 
L 177.415845 76.148107 
L 177.427842 74.998263 
L 177.51549 76.148107 
L 178.11695 76.148107 
L 178.177426 74.998263 
L 178.225895 76.148107 
L 178.250073 76.148107 
L 178.362539 74.998263 
L 178.399865 74.998263 
L 178.520036 76.148107 
L 178.664918 74.998263 
L 178.774141 76.148107 
L 178.895911 74.998263 
L 179.028461 74.998263 
L 179.040424 76.148107 
L 179.137207 74.998263 
L 179.599362 74.998263 
L 179.708107 73.84842 
L 179.820098 74.998263 
L 179.856181 74.998263 
L 179.929712 73.84842 
L 179.966537 74.998263 
L 180.006982 74.998263 
L 180.055141 73.84842 
L 180.103264 74.998263 
L 180.143088 74.998263 
L 180.264178 73.84842 
L 180.493843 73.84842 
L 180.616608 72.698576 
L 180.726782 73.84842 
L 180.847798 72.698576 
L 181.187917 72.698576 
L 181.310183 71.548732 
L 181.358818 71.548732 
L 181.468633 72.698576 
L 181.589598 71.548732 
L 181.687411 71.548732 
L 181.724193 72.698576 
L 181.796645 71.548732 
L 181.894432 71.548732 
L 181.980144 72.698576 
L 182.004213 71.548732 
L 182.028681 71.548732 
L 182.151673 72.698576 
L 182.261751 72.698576 
L 182.383426 71.548732 
L 182.505639 72.698576 
L 182.555074 72.698576 
L 182.603795 71.548732 
L 182.664532 72.698576 
L 182.96985 72.698576 
L 183.090687 73.84842 
L 183.261436 73.84842 
L 183.273822 72.698576 
L 183.370146 73.84842 
L 183.649976 73.84842 
L 183.735236 72.698576 
L 183.759623 73.84842 
L 183.967694 73.84842 
L 183.991931 72.698576 
L 184.07723 73.84842 
L 184.089379 73.84842 
L 184.101578 72.698576 
L 184.198694 73.84842 
L 185.321598 73.84842 
L 185.334224 74.998263 
L 185.427963 73.84842 
L 185.465944 73.84842 
L 185.571876 74.998263 
L 185.684533 73.84842 
L 185.805239 74.998263 
L 187.104841 74.998263 
L 187.227259 76.148107 
L 187.339009 74.998263 
L 187.449513 76.148107 
L 187.547998 74.998263 
L 187.560189 76.148107 
L 187.585462 76.148107 
L 187.67117 74.998263 
L 187.695986 76.148107 
L 187.770404 76.148107 
L 187.820499 74.998263 
L 187.87112 76.148107 
L 187.883904 76.148107 
L 187.994827 74.998263 
L 188.007214 74.998263 
L 188.121669 76.148107 
L 188.171258 76.148107 
L 188.281363 74.998263 
L 188.403552 76.148107 
L 188.574629 76.148107 
L 188.586632 74.998263 
L 188.685131 76.148107 
L 189.270864 76.148107 
L 189.282894 77.297951 
L 189.381111 76.148107 
L 189.442809 76.148107 
L 189.56597 77.297951 
L 189.578365 77.297951 
L 189.68866 76.148107 
L 189.811147 77.297951 
L 189.847713 77.297951 
L 189.860371 76.148107 
L 189.958112 77.297951 
L 190.006541 77.297951 
L 190.129347 78.447794 
L 190.153783 77.297951 
L 190.238174 78.447794 
L 190.322638 78.447794 
L 190.444113 80.747482 
L 190.556304 80.747482 
L 190.677042 78.447794 
L 190.701086 78.447794 
L 190.75448 77.297951 
L 190.803518 78.447794 
L 190.816099 78.447794 
L 190.876377 77.297951 
L 190.92532 78.447794 
L 190.986445 78.447794 
L 191.095132 77.297951 
L 191.216112 78.447794 
L 191.337166 77.297951 
L 191.458528 78.447794 
L 191.470712 78.447794 
L 191.482733 77.297951 
L 191.579285 78.447794 
L 191.893818 78.447794 
L 191.979592 80.747482 
L 192.003848 78.447794 
L 192.052676 78.447794 
L 192.17546 80.747482 
L 192.248446 78.447794 
L 192.285829 80.747482 
L 192.67373 80.747482 
L 192.685729 81.897325 
L 192.783269 80.747482 
L 192.976759 80.747482 
L 192.988965 81.897325 
L 193.085743 80.747482 
L 193.109985 80.747482 
L 193.231539 81.897325 
L 193.450395 81.897325 
L 193.571335 80.747482 
L 193.583295 80.747482 
L 193.692046 81.897325 
L 193.728198 80.747482 
L 193.80186 81.897325 
L 193.982441 81.897325 
L 194.094041 83.047169 
L 194.636711 83.047169 
L 194.708834 81.897325 
L 194.74517 83.047169 
L 195.047604 83.047169 
L 195.059603 81.897325 
L 195.156608 83.047169 
L 195.628839 83.047169 
L 195.640877 81.897325 
L 195.737938 83.047169 
L 196.186088 83.047169 
L 196.28216 84.197013 
L 196.294147 83.047169 
L 196.306184 83.047169 
L 196.414439 84.197013 
L 196.511978 83.047169 
L 196.524398 84.197013 
L 196.560545 84.197013 
L 196.681171 83.047169 
L 196.705146 84.197013 
L 196.789607 83.047169 
L 196.837876 83.047169 
L 196.947171 84.197013 
L 197.031685 81.897325 
L 197.055836 83.047169 
L 197.080044 83.047169 
L 197.200906 81.897325 
L 197.225342 81.897325 
L 197.249376 83.047169 
L 197.321744 81.897325 
L 197.442503 80.747482 
L 197.552064 80.747482 
L 197.674182 78.447794 
L 197.795552 78.447794 
L 197.870988 80.747482 
L 197.895199 78.447794 
L 197.979819 78.447794 
L 198.076473 80.747482 
L 198.088967 78.447794 
L 198.161933 78.447794 
L 198.173919 80.747482 
L 415.276559 116.392636 
L 415.350055 116.392636 
L 415.362602 117.54248 
L 415.459769 116.392636 
L 415.472187 116.392636 
L 415.594953 117.54248 
L 415.607232 117.54248 
L 415.63119 116.392636 
L 415.717879 117.54248 
L 415.924411 117.54248 
L 416.009267 118.692324 
L 416.034059 117.54248 
L 416.095267 117.54248 
L 416.217126 118.692324 
L 416.338232 117.54248 
L 416.460563 118.692324 
L 416.582937 117.54248 
L 416.667065 118.692324 
L 416.692259 117.54248 
L 416.753536 117.54248 
L 416.765693 118.692324 
L 416.864205 117.54248 
L 417.033918 117.54248 
L 418.577163 119.842167 
L 418.690225 118.692324 
L 418.727172 118.692324 
L 418.775117 119.842167 
L 418.835812 118.692324 
L 418.908461 118.692324 
L 418.924062 119.842167 
L 419.00964 118.692324 
L 419.147492 118.692324 
L 419.183534 119.842167 
L 419.256477 118.692324 
L 419.354589 118.692324 
L 419.443803 119.842167 
L 419.455826 118.692324 
L 419.491869 118.692324 
L 419.57661 119.842167 
L 419.602824 118.692324 
L 419.639926 118.692324 
L 419.752165 119.842167 
L 419.764253 119.842167 
L 419.82548 118.692324 
L 419.874643 119.842167 
L 419.899327 119.842167 
L 419.997105 118.692324 
L 420.009807 119.842167 
L 420.095488 119.842167 
L 420.20497 118.692324 
L 420.327064 119.842167 
L 420.339098 119.842167 
L 420.449118 118.692324 
L 420.570737 119.842167 
L 420.631328 119.842167 
L 420.740547 118.692324 
L 420.788893 119.842167 
L 420.849259 118.692324 
L 420.861689 118.692324 
L 420.983528 119.842167 
L 421.080924 119.842167 
L 421.092927 118.692324 
L 421.185902 119.842167 
L 421.422096 119.842167 
L 421.531887 122.141855 
L 421.629489 119.842167 
L 421.641489 122.141855 
L 421.72566 119.842167 
L 421.750177 122.141855 
L 422.013744 122.141855 
L 422.026122 123.291699 
L 422.11326 122.141855 
L 422.345121 122.141855 
L 422.455939 119.842167 
L 422.747299 119.842167 
L 422.835246 122.141855 
L 422.847258 119.842167 
L 422.88428 119.842167 
L 423.007022 122.141855 
L 423.019699 122.141855 
L 423.068648 119.842167 
L 423.129642 122.141855 
L 423.289537 122.141855 
L 423.362018 119.842167 
L 423.398929 122.141855 
L 423.606603 122.141855 
L 423.681089 123.291699 
L 423.717555 122.141855 
L 423.851305 122.141855 
L 423.864235 123.291699 
L 423.962294 122.141855 
L 424.037013 122.141855 
L 424.149345 123.291699 
L 424.250517 123.291699 
L 424.264329 122.141855 
L 424.351256 123.291699 
L 424.536597 123.291699 
L 424.572597 122.141855 
L 424.63897 123.291699 
L 424.752182 123.291699 
L 424.863859 122.141855 
L 424.876213 122.141855 
L 424.987906 123.291699 
L 425.184866 123.291699 
L 425.233177 122.141855 
L 425.293805 123.291699 
L 425.318287 123.291699 
L 425.414706 122.141855 
L 425.42671 123.291699 
L 425.438704 123.291699 
L 425.536717 122.141855 
L 425.548748 123.291699 
L 425.791824 123.291699 
L 425.803848 122.141855 
L 425.901922 123.291699 
L 426.295844 123.291699 
L 426.30804 122.141855 
L 426.395103 123.291699 
L 426.51718 123.291699 
L 426.639078 122.141855 
L 426.761399 123.291699 
L 427.015841 123.291699 
L 427.027836 124.441542 
L 427.115407 123.291699 
L 427.139514 123.291699 
L 427.16435 124.441542 
L 427.23867 123.291699 
L 427.251114 123.291699 
L 427.26333 124.441542 
L 427.351703 123.291699 
L 427.46544 123.291699 
L 427.504231 124.441542 
L 427.572163 123.291699 
L 427.597472 123.291699 
L 427.709142 124.441542 
L 427.722646 124.441542 
L 427.84559 123.291699 
L 427.897202 123.291699 
L 428.044189 124.441542 
L 428.165466 123.291699 
L 428.286562 124.441542 
L 428.375591 124.441542 
L 428.438164 123.291699 
L 428.47508 124.441542 
L 428.487251 124.441542 
L 428.598459 123.291699 
L 428.722033 124.441542 
L 428.917288 124.441542 
L 428.990374 123.291699 
L 429.026815 124.441542 
L 429.038883 124.441542 
L 429.152797 123.291699 
L 429.254973 123.291699 
L 429.266947 124.441542 
L 429.365044 123.291699 
L 429.630615 123.291699 
L 429.667108 122.141855 
L 429.740349 123.291699 
L 429.889264 123.291699 
L 430.011822 122.141855 
L 430.023886 122.141855 
L 430.12252 123.291699 
L 430.134508 122.141855 
L 430.170978 122.141855 
L 430.293316 123.291699 
L 430.468501 123.291699 
L 430.528934 122.141855 
L 430.577048 123.291699 
L 430.626119 123.291699 
L 430.711233 122.141855 
L 430.736399 123.291699 
L 430.760365 123.291699 
L 430.833306 122.141855 
L 430.869622 123.291699 
L 431.331195 123.291699 
L 431.427899 122.141855 
L 431.439919 123.291699 
L 431.464922 123.291699 
L 431.585773 122.141855 
L 431.597826 122.141855 
L 431.707108 123.291699 
L 431.816369 122.141855 
L 431.88858 123.291699 
L 431.924965 122.141855 
L 432.009091 122.141855 
L 432.009091 122.141855 
" style="fill:none;stroke:#1f77b4;stroke-linecap:square;stroke-width:1.5;"/>
   </g>
   <g id="line2d_30">
    <path clip-path="url(#pe916fa429c)" d="M 72.190909 106.044043 
L 75.332777 106.044043 
L 75.455153 118.692324 
L 76.436523 118.692324 
L 76.557859 126.74123 
L 76.740742 126.74123 
L 76.837224 118.692324 
L 78.215397 118.692324 
L 78.326729 126.74123 
L 78.744594 126.74123 
L 78.858418 118.692324 
L 79.664643 118.692324 
L 79.786601 106.044043 
L 80.223724 106.044043 
L 80.344437 93.395762 
L 80.943854 93.395762 
L 81.05549 70.398889 
L 81.493963 70.398889 
L 81.605086 64.64967 
L 81.800401 64.64967 
L 81.922655 70.398889 
L 82.011909 70.398889 
L 82.123703 64.64967 
L 82.336887 64.64967 
L 82.461391 48.551858 
L 83.370607 48.551858 
L 83.492381 60.050295 
L 85.040577 60.050295 
L 85.163252 70.398889 
L 85.212606 70.398889 
L 85.325346 64.64967 
L 85.755138 64.64967 
L 85.878424 93.395762 
L 86.430695 93.395762 
L 86.552884 118.692324 
L 88.86812 118.692324 
L 88.989475 129.040917 
L 89.957141 129.040917 
L 90.078441 141.689198 
L 90.324918 141.689198 
L 90.446217 147.438416 
L 91.292987 147.438416 
L 91.415052 141.689198 
L 91.659292 141.689198 
L 91.781621 147.438416 
L 92.027391 147.438416 
L 92.14778 152.037791 
L 93.322505 152.037791 
L 93.445086 147.438416 
L 93.50627 147.438416 
L 93.629002 163.536228 
L 94.477893 163.536228 
L 94.600985 168.135603 
L 94.783226 168.135603 
L 94.904847 152.037791 
L 95.334444 152.037791 
L 95.456847 147.438416 
L 95.701973 147.438416 
L 95.82382 152.037791 
L 96.310543 152.037791 
L 96.423125 141.689198 
L 96.679707 141.689198 
L 96.800212 126.74123 
L 96.861171 126.74123 
L 96.973237 106.044043 
L 97.597233 106.044043 
L 98.129817 93.395762 
L 98.683663 93.395762 
L 98.804322 85.346857 
L 99.243482 85.346857 
L 99.364658 83.047169 
L 100.640016 83.047169 
L 100.763657 93.395762 
L 101.31428 93.395762 
L 101.426429 70.398889 
L 101.871122 70.398889 
L 101.98481 118.692324 
L 103.159683 118.692324 
L 103.281242 129.040917 
L 103.915432 129.040917 
L 104.037388 196.881695 
L 104.650698 196.881695 
L 104.773274 222.178256 
L 105.395819 222.178256 
L 105.518396 232.52685 
L 105.94529 232.52685 
L 106.068262 245.17513 
L 106.920175 245.17513 
L 107.031886 232.52685 
L 107.305461 232.52685 
L 107.427673 222.178256 
L 109.36082 222.178256 
L 109.475244 209.529976 
L 111.602358 209.529976 
L 111.724683 196.881695 
L 112.541187 196.881695 
L 112.655713 173.884821 
L 112.911819 173.884821 
L 113.03463 152.037791 
L 113.697769 152.037791 
L 113.818855 118.692324 
L 114.490972 118.692324 
L 114.529554 83.047169 
L 115.207245 93.395762 
L 115.459065 93.395762 
L 116.159363 118.692324 
L 116.34216 118.692324 
L 116.46294 129.040917 
L 117.137171 129.040917 
L 117.258964 141.689198 
L 119.197639 141.689198 
L 119.359396 152.037791 
L 120.56381 152.037791 
L 120.677582 141.689198 
L 121.28333 141.689198 
L 121.404704 152.037791 
L 121.88822 152.037791 
L 122.009414 163.536228 
L 123.572216 163.536228 
L 123.692328 141.689198 
L 124.145651 141.689198 
L 124.267475 152.037791 
L 125.096898 152.037791 
L 125.209507 147.438416 
L 125.505294 147.438416 
L 125.627828 152.037791 
L 125.9127 152.037791 
L 126.030056 168.135603 
L 126.238795 168.135603 
L 126.435489 152.037791 
L 127.084447 152.037791 
L 127.205657 168.135603 
L 127.6357 168.135603 
L 127.749607 163.536228 
L 128.98388 163.536228 
L 129.09619 186.533102 
L 129.782677 186.533102 
L 129.906136 152.037791 
L 130.276813 152.037791 
L 130.398468 129.040917 
L 131.670944 129.040917 
L 131.792056 83.047169 
L 133.772911 83.047169 
L 133.892158 93.395762 
L 134.684415 93.395762 
L 134.798183 106.044043 
L 135.148416 106.044043 
L 135.260307 118.692324 
L 136.121674 118.692324 
L 136.244592 141.689198 
L 137.284381 141.689198 
L 137.397795 152.037791 
L 139.357442 152.037791 
L 139.478308 163.536228 
L 141.890639 163.536228 
L 142.012274 168.135603 
L 142.134227 168.135603 
L 142.255206 152.037791 
L 144.497427 152.037791 
L 144.618944 163.536228 
L 146.053669 163.536228 
L 146.167048 168.135603 
L 146.296195 168.135603 
L 146.440464 163.536228 
L 147.063627 163.536228 
L 147.17726 152.037791 
L 148.13832 152.037791 
L 148.261455 141.689198 
L 149.304211 141.689198 
L 149.419494 147.438416 
L 149.779846 147.438416 
L 149.90306 129.040917 
L 150.024089 129.040917 
L 150.14536 126.74123 
L 150.463426 126.74123 
L 150.584216 129.040917 
L 150.706464 129.040917 
L 150.82998 126.74123 
L 151.211226 126.74123 
L 151.323564 129.040917 
L 151.623676 129.040917 
L 151.746719 126.74123 
L 151.869727 126.74123 
L 151.991754 129.040917 
L 152.349455 129.040917 
L 152.42324 126.74123 
L 153.267297 118.692324 
L 153.391029 141.689198 
L 154.18748 141.689198 
L 154.350479 129.040917 
L 154.922192 129.040917 
L 155.044682 141.689198 
L 155.592966 141.689198 
L 155.715586 129.040917 
L 157.917831 129.040917 
L 158.03969 126.74123 
L 158.160253 126.74123 
L 158.282574 129.040917 
L 158.404911 129.040917 
L 158.526709 126.74123 
L 158.830788 126.74123 
L 158.952287 141.689198 
L 159.998089 141.689198 
L 160.120623 147.438416 
L 160.246276 147.438416 
L 160.357914 141.689198 
L 160.676412 141.689198 
L 160.799108 147.438416 
L 160.92045 147.438416 
L 161.040987 163.536228 
L 161.41717 163.536228 
L 161.53344 168.135603 
L 161.844468 168.135603 
L 161.966999 163.536228 
L 162.576628 163.536228 
L 162.697573 168.135603 
L 163.005437 168.135603 
L 163.128361 152.037791 
L 163.444998 152.037791 
L 163.702796 147.438416 
L 163.958686 147.438416 
L 164.070505 141.689198 
L 164.204969 141.689198 
L 164.327613 126.74123 
L 164.448191 126.74123 
L 164.570685 118.692324 
L 164.875785 118.692324 
L 164.987134 106.044043 
L 165.795348 106.044043 
L 165.916463 93.395762 
L 166.038797 93.395762 
L 166.160578 85.346857 
L 166.768813 85.346857 
L 166.89134 93.395762 
L 167.196667 93.395762 
L 167.318198 106.044043 
L 169.268108 106.044043 
L 169.380743 118.692324 
L 170.006678 118.692324 
L 170.127505 141.689198 
L 173.48008 141.689198 
L 173.602776 152.037791 
L 173.809682 152.037791 
L 173.125783 152.037791 
L 173.517203 152.037791 
L 173.638471 141.689198 
L 174.204589 141.689198 
L 174.326524 152.037791 
L 175.555346 152.037791 
L 175.678334 163.536228 
L 177.26992 163.536228 
L 177.391774 168.135603 
L 177.698284 168.135603 
L 177.820647 163.536228 
L 177.945671 163.536228 
L 178.068564 168.135603 
L 178.375314 168.135603 
L 178.495862 163.536228 
L 179.10109 163.536228 
L 179.221409 152.037791 
L 179.342015 152.037791 
L 179.452874 147.438416 
L 180.48184 147.438416 
L 180.604603 93.395762 
L 180.907933 93.395762 
L 181.030169 85.346857 
L 181.396002 85.346857 
L 181.516885 83.047169 
L 181.638683 83.047169 
L 181.760459 64.64967 
L 181.882237 64.64967 
L 182.004213 70.398889 
L 184.913026 70.398889 
L 185.026732 106.044043 
L 187.007463 106.044043 
L 187.153384 129.040917 
L 191.470712 129.040917 
L 191.591655 118.692324 
L 192.382853 118.692324 
L 192.503674 129.040917 
L 195.749979 129.040917 
L 195.870519 141.689198 
L 195.991483 141.689198 
L 196.113167 147.438416 
L 196.475917 147.438416 
L 196.596509 129.040917 
L 197.637594 129.040917 
L 197.758658 126.74123 
L 197.819642 126.74123 
L 197.943701 118.692324 
L 198.173919 118.692324 
L 415.046988 173.884821 
L 415.521994 173.884821 
L 415.643582 168.135603 
L 417.033918 168.135603 
L 418.641833 188.832789 
L 419.135497 188.832789 
L 419.256477 222.178256 
L 420.595152 222.178256 
L 420.716041 232.52685 
L 422.382417 232.52685 
L 422.505522 230.227162 
L 423.717555 230.227162 
L 423.838892 222.178256 
L 424.149345 222.178256 
L 424.264329 209.529976 
L 427.697116 209.529976 
L 427.808902 222.178256 
L 429.914205 222.178256 
L 430.035882 209.529976 
L 430.589046 209.529976 
L 430.711233 188.832789 
L 432.009091 188.832789 
L 432.009091 188.832789 
" style="fill:none;stroke:#ff7f0e;stroke-linecap:square;stroke-width:1.5;"/>
   </g>
   <g id="patch_3">
    <path d="M 54.2 255.638708 
L 54.2 25.44 
" style="fill:none;stroke:#000000;stroke-linecap:square;stroke-linejoin:miter;stroke-width:0.8;"/>
   </g>
   <g id="patch_4">
    <path d="M 450 255.638708 
L 450 25.44 
" style="fill:none;stroke:#000000;stroke-linecap:square;stroke-linejoin:miter;stroke-width:0.8;"/>
   </g>
   <g id="patch_5">
    <path d="M 54.2 255.638708 
L 450 255.638708 
" style="fill:none;stroke:#000000;stroke-linecap:square;stroke-linejoin:miter;stroke-width:0.8;"/>
   </g>
   <g id="patch_6">
    <path d="M 54.2 25.44 
L 450 25.44 
" style="fill:none;stroke:#000000;stroke-linecap:square;stroke-linejoin:miter;stroke-width:0.8;"/>
   </g>
   <g id="text_17">
    <!-- Lake Shoecraft - Water and Air Temperature -->
    <g transform="translate(120.481563 19.44)scale(0.12 -0.12)">
     <defs>
      <path d="M 9.8125 72.90625 
L 19.671875 72.90625 
L 19.671875 8.296875 
L 55.171875 8.296875 
L 55.171875 0 
L 9.8125 0 
z
" id="DejaVuSans-76"/>
      <path d="M 9.078125 75.984375 
L 18.109375 75.984375 
L 18.109375 31.109375 
L 44.921875 54.6875 
L 56.390625 54.6875 
L 27.390625 29.109375 
L 57.625 0 
L 45.90625 0 
L 18.109375 26.703125 
L 18.109375 0 
L 9.078125 0 
z
" id="DejaVuSans-107"/>
      <path d="M 53.515625 70.515625 
L 53.515625 60.890625 
Q 47.90625 63.578125 42.921875 64.890625 
Q 37.9375 66.21875 33.296875 66.21875 
Q 25.25 66.21875 20.875 63.09375 
Q 16.5 59.96875 16.5 54.203125 
Q 16.5 49.359375 19.40625 46.890625 
Q 22.3125 44.4375 30.421875 42.921875 
L 36.375 41.703125 
Q 47.40625 39.59375 52.65625 34.296875 
Q 57.90625 29 57.90625 20.125 
Q 57.90625 9.515625 50.796875 4.046875 
Q 43.703125 -1.421875 29.984375 -1.421875 
Q 24.8125 -1.421875 18.96875 -0.25 
Q 13.140625 0.921875 6.890625 3.21875 
L 6.890625 13.375 
Q 12.890625 10.015625 18.65625 8.296875 
Q 24.421875 6.59375 29.984375 6.59375 
Q 38.421875 6.59375 43.015625 9.90625 
Q 47.609375 13.234375 47.609375 19.390625 
Q 47.609375 24.75 44.3125 27.78125 
Q 41.015625 30.8125 33.5 32.328125 
L 27.484375 33.5 
Q 16.453125 35.6875 11.515625 40.375 
Q 6.59375 45.0625 6.59375 53.421875 
Q 6.59375 63.09375 13.40625 68.65625 
Q 20.21875 74.21875 32.171875 74.21875 
Q 37.3125 74.21875 42.625 73.28125 
Q 47.953125 72.359375 53.515625 70.515625 
z
" id="DejaVuSans-83"/>
      <path d="M 54.890625 33.015625 
L 54.890625 0 
L 45.90625 0 
L 45.90625 32.71875 
Q 45.90625 40.484375 42.875 44.328125 
Q 39.84375 48.1875 33.796875 48.1875 
Q 26.515625 48.1875 22.3125 43.546875 
Q 18.109375 38.921875 18.109375 30.90625 
L 18.109375 0 
L 9.078125 0 
L 9.078125 75.984375 
L 18.109375 75.984375 
L 18.109375 46.1875 
Q 21.34375 51.125 25.703125 53.5625 
Q 30.078125 56 35.796875 56 
Q 45.21875 56 50.046875 50.171875 
Q 54.890625 44.34375 54.890625 33.015625 
z
" id="DejaVuSans-104"/>
      <path d="M 30.609375 48.390625 
Q 23.390625 48.390625 19.1875 42.75 
Q 14.984375 37.109375 14.984375 27.296875 
Q 14.984375 17.484375 19.15625 11.84375 
Q 23.34375 6.203125 30.609375 6.203125 
Q 37.796875 6.203125 41.984375 11.859375 
Q 46.1875 17.53125 46.1875 27.296875 
Q 46.1875 37.015625 41.984375 42.703125 
Q 37.796875 48.390625 30.609375 48.390625 
z
M 30.609375 56 
Q 42.328125 56 49.015625 48.375 
Q 55.71875 40.765625 55.71875 27.296875 
Q 55.71875 13.875 49.015625 6.21875 
Q 42.328125 -1.421875 30.609375 -1.421875 
Q 18.84375 -1.421875 12.171875 6.21875 
Q 5.515625 13.875 5.515625 27.296875 
Q 5.515625 40.765625 12.171875 48.375 
Q 18.84375 56 30.609375 56 
z
" id="DejaVuSans-111"/>
      <path d="M 48.78125 52.59375 
L 48.78125 44.1875 
Q 44.96875 46.296875 41.140625 47.34375 
Q 37.3125 48.390625 33.40625 48.390625 
Q 24.65625 48.390625 19.8125 42.84375 
Q 14.984375 37.3125 14.984375 27.296875 
Q 14.984375 17.28125 19.8125 11.734375 
Q 24.65625 6.203125 33.40625 6.203125 
Q 37.3125 6.203125 41.140625 7.25 
Q 44.96875 8.296875 48.78125 10.40625 
L 48.78125 2.09375 
Q 45.015625 0.34375 40.984375 -0.53125 
Q 36.96875 -1.421875 32.421875 -1.421875 
Q 20.0625 -1.421875 12.78125 6.34375 
Q 5.515625 14.109375 5.515625 27.296875 
Q 5.515625 40.671875 12.859375 48.328125 
Q 20.21875 56 33.015625 56 
Q 37.15625 56 41.109375 55.140625 
Q 45.0625 54.296875 48.78125 52.59375 
z
" id="DejaVuSans-99"/>
      <path d="M 37.109375 75.984375 
L 37.109375 68.5 
L 28.515625 68.5 
Q 23.6875 68.5 21.796875 66.546875 
Q 19.921875 64.59375 19.921875 59.515625 
L 19.921875 54.6875 
L 34.71875 54.6875 
L 34.71875 47.703125 
L 19.921875 47.703125 
L 19.921875 0 
L 10.890625 0 
L 10.890625 47.703125 
L 2.296875 47.703125 
L 2.296875 54.6875 
L 10.890625 54.6875 
L 10.890625 58.5 
Q 10.890625 67.625 15.140625 71.796875 
Q 19.390625 75.984375 28.609375 75.984375 
z
" id="DejaVuSans-102"/>
      <path d="M 3.328125 72.90625 
L 13.28125 72.90625 
L 28.609375 11.28125 
L 43.890625 72.90625 
L 54.984375 72.90625 
L 70.3125 11.28125 
L 85.59375 72.90625 
L 95.609375 72.90625 
L 77.296875 0 
L 64.890625 0 
L 49.515625 63.28125 
L 33.984375 0 
L 21.578125 0 
z
" id="DejaVuSans-87"/>
      <path d="M 54.890625 33.015625 
L 54.890625 0 
L 45.90625 0 
L 45.90625 32.71875 
Q 45.90625 40.484375 42.875 44.328125 
Q 39.84375 48.1875 33.796875 48.1875 
Q 26.515625 48.1875 22.3125 43.546875 
Q 18.109375 38.921875 18.109375 30.90625 
L 18.109375 0 
L 9.078125 0 
L 9.078125 54.6875 
L 18.109375 54.6875 
L 18.109375 46.1875 
Q 21.34375 51.125 25.703125 53.5625 
Q 30.078125 56 35.796875 56 
Q 45.21875 56 50.046875 50.171875 
Q 54.890625 44.34375 54.890625 33.015625 
z
" id="DejaVuSans-110"/>
      <path d="M 45.40625 46.390625 
L 45.40625 75.984375 
L 54.390625 75.984375 
L 54.390625 0 
L 45.40625 0 
L 45.40625 8.203125 
Q 42.578125 3.328125 38.25 0.953125 
Q 33.9375 -1.421875 27.875 -1.421875 
Q 17.96875 -1.421875 11.734375 6.484375 
Q 5.515625 14.40625 5.515625 27.296875 
Q 5.515625 40.1875 11.734375 48.09375 
Q 17.96875 56 27.875 56 
Q 33.9375 56 38.25 53.625 
Q 42.578125 51.265625 45.40625 46.390625 
z
M 14.796875 27.296875 
Q 14.796875 17.390625 18.875 11.75 
Q 22.953125 6.109375 30.078125 6.109375 
Q 37.203125 6.109375 41.296875 11.75 
Q 45.40625 17.390625 45.40625 27.296875 
Q 45.40625 37.203125 41.296875 42.84375 
Q 37.203125 48.484375 30.078125 48.484375 
Q 22.953125 48.484375 18.875 42.84375 
Q 14.796875 37.203125 14.796875 27.296875 
z
" id="DejaVuSans-100"/>
      <path d="M 34.1875 63.1875 
L 20.796875 26.90625 
L 47.609375 26.90625 
z
M 28.609375 72.90625 
L 39.796875 72.90625 
L 67.578125 0 
L 57.328125 0 
L 50.6875 18.703125 
L 17.828125 18.703125 
L 11.1875 0 
L 0.78125 0 
z
" id="DejaVuSans-65"/>
      <path d="M 9.421875 54.6875 
L 18.40625 54.6875 
L 18.40625 0 
L 9.421875 0 
z
M 9.421875 75.984375 
L 18.40625 75.984375 
L 18.40625 64.59375 
L 9.421875 64.59375 
z
" id="DejaVuSans-105"/>
     </defs>
     <use xlink:href="#DejaVuSans-76"/>
     <use x="55.712891" xlink:href="#DejaVuSans-97"/>
     <use x="116.992188" xlink:href="#DejaVuSans-107"/>
     <use x="171.277344" xlink:href="#DejaVuSans-101"/>
     <use x="232.800781" xlink:href="#DejaVuSans-32"/>
     <use x="264.587891" xlink:href="#DejaVuSans-83"/>
     <use x="328.064453" xlink:href="#DejaVuSans-104"/>
     <use x="391.443359" xlink:href="#DejaVuSans-111"/>
     <use x="452.625" xlink:href="#DejaVuSans-101"/>
     <use x="514.148438" xlink:href="#DejaVuSans-99"/>
     <use x="569.128906" xlink:href="#DejaVuSans-114"/>
     <use x="610.242188" xlink:href="#DejaVuSans-97"/>
     <use x="671.521484" xlink:href="#DejaVuSans-102"/>
     <use x="704.976562" xlink:href="#DejaVuSans-116"/>
     <use x="744.185547" xlink:href="#DejaVuSans-32"/>
     <use x="775.972656" xlink:href="#DejaVuSans-45"/>
     <use x="812.056641" xlink:href="#DejaVuSans-32"/>
     <use x="843.84375" xlink:href="#DejaVuSans-87"/>
     <use x="936.345703" xlink:href="#DejaVuSans-97"/>
     <use x="997.625" xlink:href="#DejaVuSans-116"/>
     <use x="1036.833984" xlink:href="#DejaVuSans-101"/>
     <use x="1098.357422" xlink:href="#DejaVuSans-114"/>
     <use x="1139.470703" xlink:href="#DejaVuSans-32"/>
     <use x="1171.257812" xlink:href="#DejaVuSans-97"/>
     <use x="1232.537109" xlink:href="#DejaVuSans-110"/>
     <use x="1295.916016" xlink:href="#DejaVuSans-100"/>
     <use x="1359.392578" xlink:href="#DejaVuSans-32"/>
     <use x="1391.179688" xlink:href="#DejaVuSans-65"/>
     <use x="1459.587891" xlink:href="#DejaVuSans-105"/>
     <use x="1487.371094" xlink:href="#DejaVuSans-114"/>
     <use x="1528.484375" xlink:href="#DejaVuSans-32"/>
     <use x="1560.271484" xlink:href="#DejaVuSans-84"/>
     <use x="1604.355469" xlink:href="#DejaVuSans-101"/>
     <use x="1665.878906" xlink:href="#DejaVuSans-109"/>
     <use x="1763.291016" xlink:href="#DejaVuSans-112"/>
     <use x="1826.767578" xlink:href="#DejaVuSans-101"/>
     <use x="1888.291016" xlink:href="#DejaVuSans-114"/>
     <use x="1929.404297" xlink:href="#DejaVuSans-97"/>
     <use x="1990.683594" xlink:href="#DejaVuSans-116"/>
     <use x="2029.892578" xlink:href="#DejaVuSans-117"/>
     <use x="2093.271484" xlink:href="#DejaVuSans-114"/>
     <use x="2132.134766" xlink:href="#DejaVuSans-101"/>
    </g>
   </g>
   <g id="legend_1">
    <g id="patch_7">
     <path d="M 357.890625 62.79625 
L 443 62.79625 
Q 445 62.79625 445 60.79625 
L 445 32.44 
Q 445 30.44 443 30.44 
L 357.890625 30.44 
Q 355.890625 30.44 355.890625 32.44 
L 355.890625 60.79625 
Q 355.890625 62.79625 357.890625 62.79625 
z
" style="fill:#ffffff;opacity:0.8;stroke:#cccccc;stroke-linejoin:miter;"/>
    </g>
    <g id="line2d_31">
     <path d="M 359.890625 38.538437 
L 379.890625 38.538437 
" style="fill:none;stroke:#1f77b4;stroke-linecap:square;stroke-width:1.5;"/>
    </g>
    <g id="line2d_32"/>
    <g id="text_18">
     <!-- Lake Temp -->
     <g transform="translate(387.890625 42.038437)scale(0.1 -0.1)">
      <use xlink:href="#DejaVuSans-76"/>
      <use x="55.712891" xlink:href="#DejaVuSans-97"/>
      <use x="116.992188" xlink:href="#DejaVuSans-107"/>
      <use x="171.277344" xlink:href="#DejaVuSans-101"/>
      <use x="232.800781" xlink:href="#DejaVuSans-32"/>
      <use x="264.587891" xlink:href="#DejaVuSans-84"/>
      <use x="308.671875" xlink:href="#DejaVuSans-101"/>
      <use x="370.195312" xlink:href="#DejaVuSans-109"/>
      <use x="467.607422" xlink:href="#DejaVuSans-112"/>
     </g>
    </g>
    <g id="line2d_33">
     <path d="M 359.890625 53.216562 
L 379.890625 53.216562 
" style="fill:none;stroke:#ff7f0e;stroke-linecap:square;stroke-width:1.5;"/>
    </g>
    <g id="line2d_34"/>
    <g id="text_19">
     <!-- Air Temp -->
     <g transform="translate(387.890625 56.716562)scale(0.1 -0.1)">
      <use xlink:href="#DejaVuSans-65"/>
      <use x="68.408203" xlink:href="#DejaVuSans-105"/>
      <use x="96.191406" xlink:href="#DejaVuSans-114"/>
      <use x="137.304688" xlink:href="#DejaVuSans-32"/>
      <use x="169.091797" xlink:href="#DejaVuSans-84"/>
      <use x="213.175781" xlink:href="#DejaVuSans-101"/>
      <use x="274.699219" xlink:href="#DejaVuSans-109"/>
      <use x="372.111328" xlink:href="#DejaVuSans-112"/>
     </g>
    </g>
   </g>
  </g>
 </g>
 <defs>
  <clipPath id="pe916fa429c">
   <rect height="230.198708" width="395.8" x="54.2" y="25.44"/>
  </clipPath>
 </defs>
</svg>
