<?xml version="1.0" encoding="utf-8" standalone="no"?>
<!DOCTYPE svg PUBLIC "-//W3C//DTD SVG 1.1//EN"
  "http://www.w3.org/Graphics/SVG/1.1/DTD/svg11.dtd">
<!-- Created with matplotlib (https://matplotlib.org/) -->
<svg height="345.6pt" version="1.1" viewBox="0 0 460.8 345.6" width="460.8pt" xmlns="http://www.w3.org/2000/svg" xmlns:xlink="http://www.w3.org/1999/xlink">
 <metadata>
  <rdf:RDF xmlns:cc="http://creativecommons.org/ns#" xmlns:dc="http://purl.org/dc/elements/1.1/" xmlns:rdf="http://www.w3.org/1999/02/22-rdf-syntax-ns#">
   <cc:Work>
    <dc:type rdf:resource="http://purl.org/dc/dcmitype/StillImage"/>
    <dc:date>2024-09-05T13:57:15.858265</dc:date>
    <dc:format>image/svg+xml</dc:format>
    <dc:creator>
     <cc:Agent>
      <dc:title>Matplotlib v3.3.2, https://matplotlib.org/</dc:title>
     </cc:Agent>
    </dc:creator>
   </cc:Work>
  </rdf:RDF>
 </metadata>
 <defs>
  <style type="text/css">*{stroke-linecap:butt;stroke-linejoin:round;}</style>
 </defs>
 <g id="figure_1">
  <g id="patch_1">
   <path d="M 0 345.6 
L 460.8 345.6 
L 460.8 0 
L 0 0 
z
" style="fill:none;"/>
  </g>
  <g id="axes_1">
   <g id="patch_2">
    <path d="M 44.66 255.638708 
L 436.443865 255.638708 
L 436.443865 25.44 
L 44.66 25.44 
z
" style="fill:none;"/>
   </g>
   <g id="matplotlib.axis_1">
    <g id="xtick_1">
     <g id="line2d_1">
      <path clip-path="url(#pe1169e58c8)" d="M 79.203581 255.638708 
L 79.203581 25.44 
" style="fill:none;stroke:#b0b0b0;stroke-linecap:square;stroke-width:0.8;"/>
     </g>
     <g id="line2d_2">
      <defs>
       <path d="M 0 0 
L 0 3.5 
" id="m0dcb706306" style="stroke:#000000;stroke-width:0.8;"/>
      </defs>
      <g>
       <use style="stroke:#000000;stroke-width:0.8;" x="79.203581" xlink:href="#m0dcb706306" y="255.638708"/>
      </g>
     </g>
     <g id="text_1">
      <!-- 2024-08-28 -->
      <g transform="translate(71.858188 319.848351)rotate(-70)scale(0.1 -0.1)">
       <defs>
        <path d="M 19.1875 8.296875 
L 53.609375 8.296875 
L 53.609375 0 
L 7.328125 0 
L 7.328125 8.296875 
Q 12.9375 14.109375 22.625 23.890625 
Q 32.328125 33.6875 34.8125 36.53125 
Q 39.546875 41.84375 41.421875 45.53125 
Q 43.3125 49.21875 43.3125 52.78125 
Q 43.3125 58.59375 39.234375 62.25 
Q 35.15625 65.921875 28.609375 65.921875 
Q 23.96875 65.921875 18.8125 64.3125 
Q 13.671875 62.703125 7.8125 59.421875 
L 7.8125 69.390625 
Q 13.765625 71.78125 18.9375 73 
Q 24.125 74.21875 28.421875 74.21875 
Q 39.75 74.21875 46.484375 68.546875 
Q 53.21875 62.890625 53.21875 53.421875 
Q 53.21875 48.921875 51.53125 44.890625 
Q 49.859375 40.875 45.40625 35.40625 
Q 44.1875 33.984375 37.640625 27.21875 
Q 31.109375 20.453125 19.1875 8.296875 
z
" id="DejaVuSans-50"/>
        <path d="M 31.78125 66.40625 
Q 24.171875 66.40625 20.328125 58.90625 
Q 16.5 51.421875 16.5 36.375 
Q 16.5 21.390625 20.328125 13.890625 
Q 24.171875 6.390625 31.78125 6.390625 
Q 39.453125 6.390625 43.28125 13.890625 
Q 47.125 21.390625 47.125 36.375 
Q 47.125 51.421875 43.28125 58.90625 
Q 39.453125 66.40625 31.78125 66.40625 
z
M 31.78125 74.21875 
Q 44.046875 74.21875 50.515625 64.515625 
Q 56.984375 54.828125 56.984375 36.375 
Q 56.984375 17.96875 50.515625 8.265625 
Q 44.046875 -1.421875 31.78125 -1.421875 
Q 19.53125 -1.421875 13.0625 8.265625 
Q 6.59375 17.96875 6.59375 36.375 
Q 6.59375 54.828125 13.0625 64.515625 
Q 19.53125 74.21875 31.78125 74.21875 
z
" id="DejaVuSans-48"/>
        <path d="M 37.796875 64.3125 
L 12.890625 25.390625 
L 37.796875 25.390625 
z
M 35.203125 72.90625 
L 47.609375 72.90625 
L 47.609375 25.390625 
L 58.015625 25.390625 
L 58.015625 17.1875 
L 47.609375 17.1875 
L 47.609375 0 
L 37.796875 0 
L 37.796875 17.1875 
L 4.890625 17.1875 
L 4.890625 26.703125 
z
" id="DejaVuSans-52"/>
        <path d="M 4.890625 31.390625 
L 31.203125 31.390625 
L 31.203125 23.390625 
L 4.890625 23.390625 
z
" id="DejaVuSans-45"/>
        <path d="M 31.78125 34.625 
Q 24.75 34.625 20.71875 30.859375 
Q 16.703125 27.09375 16.703125 20.515625 
Q 16.703125 13.921875 20.71875 10.15625 
Q 24.75 6.390625 31.78125 6.390625 
Q 38.8125 6.390625 42.859375 10.171875 
Q 46.921875 13.96875 46.921875 20.515625 
Q 46.921875 27.09375 42.890625 30.859375 
Q 38.875 34.625 31.78125 34.625 
z
M 21.921875 38.8125 
Q 15.578125 40.375 12.03125 44.71875 
Q 8.5 49.078125 8.5 55.328125 
Q 8.5 64.0625 14.71875 69.140625 
Q 20.953125 74.21875 31.78125 74.21875 
Q 42.671875 74.21875 48.875 69.140625 
Q 55.078125 64.0625 55.078125 55.328125 
Q 55.078125 49.078125 51.53125 44.71875 
Q 48 40.375 41.703125 38.8125 
Q 48.828125 37.15625 52.796875 32.3125 
Q 56.78125 27.484375 56.78125 20.515625 
Q 56.78125 9.90625 50.3125 4.234375 
Q 43.84375 -1.421875 31.78125 -1.421875 
Q 19.734375 -1.421875 13.25 4.234375 
Q 6.78125 9.90625 6.78125 20.515625 
Q 6.78125 27.484375 10.78125 32.3125 
Q 14.796875 37.15625 21.921875 38.8125 
z
M 18.3125 54.390625 
Q 18.3125 48.734375 21.84375 45.5625 
Q 25.390625 42.390625 31.78125 42.390625 
Q 38.140625 42.390625 41.71875 45.5625 
Q 45.3125 48.734375 45.3125 54.390625 
Q 45.3125 60.0625 41.71875 63.234375 
Q 38.140625 66.40625 31.78125 66.40625 
Q 25.390625 66.40625 21.84375 63.234375 
Q 18.3125 60.0625 18.3125 54.390625 
z
" id="DejaVuSans-56"/>
       </defs>
       <use xlink:href="#DejaVuSans-50"/>
       <use x="63.623047" xlink:href="#DejaVuSans-48"/>
       <use x="127.246094" xlink:href="#DejaVuSans-50"/>
       <use x="190.869141" xlink:href="#DejaVuSans-52"/>
       <use x="254.492188" xlink:href="#DejaVuSans-45"/>
       <use x="290.576172" xlink:href="#DejaVuSans-48"/>
       <use x="354.199219" xlink:href="#DejaVuSans-56"/>
       <use x="417.822266" xlink:href="#DejaVuSans-45"/>
       <use x="453.90625" xlink:href="#DejaVuSans-50"/>
       <use x="517.529297" xlink:href="#DejaVuSans-56"/>
      </g>
     </g>
    </g>
    <g id="xtick_2">
     <g id="line2d_3">
      <path clip-path="url(#pe1169e58c8)" d="M 118.760125 255.638708 
L 118.760125 25.44 
" style="fill:none;stroke:#b0b0b0;stroke-linecap:square;stroke-width:0.8;"/>
     </g>
     <g id="line2d_4">
      <g>
       <use style="stroke:#000000;stroke-width:0.8;" x="118.760125" xlink:href="#m0dcb706306" y="255.638708"/>
      </g>
     </g>
     <g id="text_2">
      <!-- 2024-08-29 -->
      <g transform="translate(111.414732 319.848351)rotate(-70)scale(0.1 -0.1)">
       <defs>
        <path d="M 10.984375 1.515625 
L 10.984375 10.5 
Q 14.703125 8.734375 18.5 7.8125 
Q 22.3125 6.890625 25.984375 6.890625 
Q 35.75 6.890625 40.890625 13.453125 
Q 46.046875 20.015625 46.78125 33.40625 
Q 43.953125 29.203125 39.59375 26.953125 
Q 35.25 24.703125 29.984375 24.703125 
Q 19.046875 24.703125 12.671875 31.3125 
Q 6.296875 37.9375 6.296875 49.421875 
Q 6.296875 60.640625 12.9375 67.421875 
Q 19.578125 74.21875 30.609375 74.21875 
Q 43.265625 74.21875 49.921875 64.515625 
Q 56.59375 54.828125 56.59375 36.375 
Q 56.59375 19.140625 48.40625 8.859375 
Q 40.234375 -1.421875 26.421875 -1.421875 
Q 22.703125 -1.421875 18.890625 -0.6875 
Q 15.09375 0.046875 10.984375 1.515625 
z
M 30.609375 32.421875 
Q 37.25 32.421875 41.125 36.953125 
Q 45.015625 41.5 45.015625 49.421875 
Q 45.015625 57.28125 41.125 61.84375 
Q 37.25 66.40625 30.609375 66.40625 
Q 23.96875 66.40625 20.09375 61.84375 
Q 16.21875 57.28125 16.21875 49.421875 
Q 16.21875 41.5 20.09375 36.953125 
Q 23.96875 32.421875 30.609375 32.421875 
z
" id="DejaVuSans-57"/>
       </defs>
       <use xlink:href="#DejaVuSans-50"/>
       <use x="63.623047" xlink:href="#DejaVuSans-48"/>
       <use x="127.246094" xlink:href="#DejaVuSans-50"/>
       <use x="190.869141" xlink:href="#DejaVuSans-52"/>
       <use x="254.492188" xlink:href="#DejaVuSans-45"/>
       <use x="290.576172" xlink:href="#DejaVuSans-48"/>
       <use x="354.199219" xlink:href="#DejaVuSans-56"/>
       <use x="417.822266" xlink:href="#DejaVuSans-45"/>
       <use x="453.90625" xlink:href="#DejaVuSans-50"/>
       <use x="517.529297" xlink:href="#DejaVuSans-57"/>
      </g>
     </g>
    </g>
    <g id="xtick_3">
     <g id="line2d_5">
      <path clip-path="url(#pe1169e58c8)" d="M 158.316669 255.638708 
L 158.316669 25.44 
" style="fill:none;stroke:#b0b0b0;stroke-linecap:square;stroke-width:0.8;"/>
     </g>
     <g id="line2d_6">
      <g>
       <use style="stroke:#000000;stroke-width:0.8;" x="158.316669" xlink:href="#m0dcb706306" y="255.638708"/>
      </g>
     </g>
     <g id="text_3">
      <!-- 2024-08-30 -->
      <g transform="translate(150.971276 319.848351)rotate(-70)scale(0.1 -0.1)">
       <defs>
        <path d="M 40.578125 39.3125 
Q 47.65625 37.796875 51.625 33 
Q 55.609375 28.21875 55.609375 21.1875 
Q 55.609375 10.40625 48.1875 4.484375 
Q 40.765625 -1.421875 27.09375 -1.421875 
Q 22.515625 -1.421875 17.65625 -0.515625 
Q 12.796875 0.390625 7.625 2.203125 
L 7.625 11.71875 
Q 11.71875 9.328125 16.59375 8.109375 
Q 21.484375 6.890625 26.8125 6.890625 
Q 36.078125 6.890625 40.9375 10.546875 
Q 45.796875 14.203125 45.796875 21.1875 
Q 45.796875 27.640625 41.28125 31.265625 
Q 36.765625 34.90625 28.71875 34.90625 
L 20.21875 34.90625 
L 20.21875 43.015625 
L 29.109375 43.015625 
Q 36.375 43.015625 40.234375 45.921875 
Q 44.09375 48.828125 44.09375 54.296875 
Q 44.09375 59.90625 40.109375 62.90625 
Q 36.140625 65.921875 28.71875 65.921875 
Q 24.65625 65.921875 20.015625 65.03125 
Q 15.375 64.15625 9.8125 62.3125 
L 9.8125 71.09375 
Q 15.4375 72.65625 20.34375 73.4375 
Q 25.25 74.21875 29.59375 74.21875 
Q 40.828125 74.21875 47.359375 69.109375 
Q 53.90625 64.015625 53.90625 55.328125 
Q 53.90625 49.265625 50.4375 45.09375 
Q 46.96875 40.921875 40.578125 39.3125 
z
" id="DejaVuSans-51"/>
       </defs>
       <use xlink:href="#DejaVuSans-50"/>
       <use x="63.623047" xlink:href="#DejaVuSans-48"/>
       <use x="127.246094" xlink:href="#DejaVuSans-50"/>
       <use x="190.869141" xlink:href="#DejaVuSans-52"/>
       <use x="254.492188" xlink:href="#DejaVuSans-45"/>
       <use x="290.576172" xlink:href="#DejaVuSans-48"/>
       <use x="354.199219" xlink:href="#DejaVuSans-56"/>
       <use x="417.822266" xlink:href="#DejaVuSans-45"/>
       <use x="453.90625" xlink:href="#DejaVuSans-51"/>
       <use x="517.529297" xlink:href="#DejaVuSans-48"/>
      </g>
     </g>
    </g>
    <g id="xtick_4">
     <g id="line2d_7">
      <path clip-path="url(#pe1169e58c8)" d="M 197.873212 255.638708 
L 197.873212 25.44 
" style="fill:none;stroke:#b0b0b0;stroke-linecap:square;stroke-width:0.8;"/>
     </g>
     <g id="line2d_8">
      <g>
       <use style="stroke:#000000;stroke-width:0.8;" x="197.873212" xlink:href="#m0dcb706306" y="255.638708"/>
      </g>
     </g>
     <g id="text_4">
      <!-- 2024-08-31 -->
      <g transform="translate(190.527819 319.848351)rotate(-70)scale(0.1 -0.1)">
       <defs>
        <path d="M 12.40625 8.296875 
L 28.515625 8.296875 
L 28.515625 63.921875 
L 10.984375 60.40625 
L 10.984375 69.390625 
L 28.421875 72.90625 
L 38.28125 72.90625 
L 38.28125 8.296875 
L 54.390625 8.296875 
L 54.390625 0 
L 12.40625 0 
z
" id="DejaVuSans-49"/>
       </defs>
       <use xlink:href="#DejaVuSans-50"/>
       <use x="63.623047" xlink:href="#DejaVuSans-48"/>
       <use x="127.246094" xlink:href="#DejaVuSans-50"/>
       <use x="190.869141" xlink:href="#DejaVuSans-52"/>
       <use x="254.492188" xlink:href="#DejaVuSans-45"/>
       <use x="290.576172" xlink:href="#DejaVuSans-48"/>
       <use x="354.199219" xlink:href="#DejaVuSans-56"/>
       <use x="417.822266" xlink:href="#DejaVuSans-45"/>
       <use x="453.90625" xlink:href="#DejaVuSans-51"/>
       <use x="517.529297" xlink:href="#DejaVuSans-49"/>
      </g>
     </g>
    </g>
    <g id="xtick_5">
     <g id="line2d_9">
      <path clip-path="url(#pe1169e58c8)" d="M 237.429756 255.638708 
L 237.429756 25.44 
" style="fill:none;stroke:#b0b0b0;stroke-linecap:square;stroke-width:0.8;"/>
     </g>
     <g id="line2d_10">
      <g>
       <use style="stroke:#000000;stroke-width:0.8;" x="237.429756" xlink:href="#m0dcb706306" y="255.638708"/>
      </g>
     </g>
     <g id="text_5">
      <!-- 2024-09-01 -->
      <g transform="translate(230.084363 319.848351)rotate(-70)scale(0.1 -0.1)">
       <use xlink:href="#DejaVuSans-50"/>
       <use x="63.623047" xlink:href="#DejaVuSans-48"/>
       <use x="127.246094" xlink:href="#DejaVuSans-50"/>
       <use x="190.869141" xlink:href="#DejaVuSans-52"/>
       <use x="254.492188" xlink:href="#DejaVuSans-45"/>
       <use x="290.576172" xlink:href="#DejaVuSans-48"/>
       <use x="354.199219" xlink:href="#DejaVuSans-57"/>
       <use x="417.822266" xlink:href="#DejaVuSans-45"/>
       <use x="453.90625" xlink:href="#DejaVuSans-48"/>
       <use x="517.529297" xlink:href="#DejaVuSans-49"/>
      </g>
     </g>
    </g>
    <g id="xtick_6">
     <g id="line2d_11">
      <path clip-path="url(#pe1169e58c8)" d="M 276.986299 255.638708 
L 276.986299 25.44 
" style="fill:none;stroke:#b0b0b0;stroke-linecap:square;stroke-width:0.8;"/>
     </g>
     <g id="line2d_12">
      <g>
       <use style="stroke:#000000;stroke-width:0.8;" x="276.986299" xlink:href="#m0dcb706306" y="255.638708"/>
      </g>
     </g>
     <g id="text_6">
      <!-- 2024-09-02 -->
      <g transform="translate(269.640906 319.848351)rotate(-70)scale(0.1 -0.1)">
       <use xlink:href="#DejaVuSans-50"/>
       <use x="63.623047" xlink:href="#DejaVuSans-48"/>
       <use x="127.246094" xlink:href="#DejaVuSans-50"/>
       <use x="190.869141" xlink:href="#DejaVuSans-52"/>
       <use x="254.492188" xlink:href="#DejaVuSans-45"/>
       <use x="290.576172" xlink:href="#DejaVuSans-48"/>
       <use x="354.199219" xlink:href="#DejaVuSans-57"/>
       <use x="417.822266" xlink:href="#DejaVuSans-45"/>
       <use x="453.90625" xlink:href="#DejaVuSans-48"/>
       <use x="517.529297" xlink:href="#DejaVuSans-50"/>
      </g>
     </g>
    </g>
    <g id="xtick_7">
     <g id="line2d_13">
      <path clip-path="url(#pe1169e58c8)" d="M 316.542843 255.638708 
L 316.542843 25.44 
" style="fill:none;stroke:#b0b0b0;stroke-linecap:square;stroke-width:0.8;"/>
     </g>
     <g id="line2d_14">
      <g>
       <use style="stroke:#000000;stroke-width:0.8;" x="316.542843" xlink:href="#m0dcb706306" y="255.638708"/>
      </g>
     </g>
     <g id="text_7">
      <!-- 2024-09-03 -->
      <g transform="translate(309.19745 319.848351)rotate(-70)scale(0.1 -0.1)">
       <use xlink:href="#DejaVuSans-50"/>
       <use x="63.623047" xlink:href="#DejaVuSans-48"/>
       <use x="127.246094" xlink:href="#DejaVuSans-50"/>
       <use x="190.869141" xlink:href="#DejaVuSans-52"/>
       <use x="254.492188" xlink:href="#DejaVuSans-45"/>
       <use x="290.576172" xlink:href="#DejaVuSans-48"/>
       <use x="354.199219" xlink:href="#DejaVuSans-57"/>
       <use x="417.822266" xlink:href="#DejaVuSans-45"/>
       <use x="453.90625" xlink:href="#DejaVuSans-48"/>
       <use x="517.529297" xlink:href="#DejaVuSans-51"/>
      </g>
     </g>
    </g>
    <g id="xtick_8">
     <g id="line2d_15">
      <path clip-path="url(#pe1169e58c8)" d="M 356.099387 255.638708 
L 356.099387 25.44 
" style="fill:none;stroke:#b0b0b0;stroke-linecap:square;stroke-width:0.8;"/>
     </g>
     <g id="line2d_16">
      <g>
       <use style="stroke:#000000;stroke-width:0.8;" x="356.099387" xlink:href="#m0dcb706306" y="255.638708"/>
      </g>
     </g>
     <g id="text_8">
      <!-- 2024-09-04 -->
      <g transform="translate(348.753994 319.848351)rotate(-70)scale(0.1 -0.1)">
       <use xlink:href="#DejaVuSans-50"/>
       <use x="63.623047" xlink:href="#DejaVuSans-48"/>
       <use x="127.246094" xlink:href="#DejaVuSans-50"/>
       <use x="190.869141" xlink:href="#DejaVuSans-52"/>
       <use x="254.492188" xlink:href="#DejaVuSans-45"/>
       <use x="290.576172" xlink:href="#DejaVuSans-48"/>
       <use x="354.199219" xlink:href="#DejaVuSans-57"/>
       <use x="417.822266" xlink:href="#DejaVuSans-45"/>
       <use x="453.90625" xlink:href="#DejaVuSans-48"/>
       <use x="517.529297" xlink:href="#DejaVuSans-52"/>
      </g>
     </g>
    </g>
    <g id="xtick_9">
     <g id="line2d_17">
      <path clip-path="url(#pe1169e58c8)" d="M 395.65593 255.638708 
L 395.65593 25.44 
" style="fill:none;stroke:#b0b0b0;stroke-linecap:square;stroke-width:0.8;"/>
     </g>
     <g id="line2d_18">
      <g>
       <use style="stroke:#000000;stroke-width:0.8;" x="395.65593" xlink:href="#m0dcb706306" y="255.638708"/>
      </g>
     </g>
     <g id="text_9">
      <!-- 2024-09-05 -->
      <g transform="translate(388.310537 319.848351)rotate(-70)scale(0.1 -0.1)">
       <defs>
        <path d="M 10.796875 72.90625 
L 49.515625 72.90625 
L 49.515625 64.59375 
L 19.828125 64.59375 
L 19.828125 46.734375 
Q 21.96875 47.46875 24.109375 47.828125 
Q 26.265625 48.1875 28.421875 48.1875 
Q 40.625 48.1875 47.75 41.5 
Q 54.890625 34.8125 54.890625 23.390625 
Q 54.890625 11.625 47.5625 5.09375 
Q 40.234375 -1.421875 26.90625 -1.421875 
Q 22.3125 -1.421875 17.546875 -0.640625 
Q 12.796875 0.140625 7.71875 1.703125 
L 7.71875 11.625 
Q 12.109375 9.234375 16.796875 8.0625 
Q 21.484375 6.890625 26.703125 6.890625 
Q 35.15625 6.890625 40.078125 11.328125 
Q 45.015625 15.765625 45.015625 23.390625 
Q 45.015625 31 40.078125 35.4375 
Q 35.15625 39.890625 26.703125 39.890625 
Q 22.75 39.890625 18.8125 39.015625 
Q 14.890625 38.140625 10.796875 36.28125 
z
" id="DejaVuSans-53"/>
       </defs>
       <use xlink:href="#DejaVuSans-50"/>
       <use x="63.623047" xlink:href="#DejaVuSans-48"/>
       <use x="127.246094" xlink:href="#DejaVuSans-50"/>
       <use x="190.869141" xlink:href="#DejaVuSans-52"/>
       <use x="254.492188" xlink:href="#DejaVuSans-45"/>
       <use x="290.576172" xlink:href="#DejaVuSans-48"/>
       <use x="354.199219" xlink:href="#DejaVuSans-57"/>
       <use x="417.822266" xlink:href="#DejaVuSans-45"/>
       <use x="453.90625" xlink:href="#DejaVuSans-48"/>
       <use x="517.529297" xlink:href="#DejaVuSans-53"/>
      </g>
     </g>
    </g>
    <g id="xtick_10">
     <g id="line2d_19">
      <path clip-path="url(#pe1169e58c8)" d="M 435.212474 255.638708 
L 435.212474 25.44 
" style="fill:none;stroke:#b0b0b0;stroke-linecap:square;stroke-width:0.8;"/>
     </g>
     <g id="line2d_20">
      <g>
       <use style="stroke:#000000;stroke-width:0.8;" x="435.212474" xlink:href="#m0dcb706306" y="255.638708"/>
      </g>
     </g>
     <g id="text_10">
      <!-- 2024-09-06 -->
      <g transform="translate(427.867081 319.848351)rotate(-70)scale(0.1 -0.1)">
       <defs>
        <path d="M 33.015625 40.375 
Q 26.375 40.375 22.484375 35.828125 
Q 18.609375 31.296875 18.609375 23.390625 
Q 18.609375 15.53125 22.484375 10.953125 
Q 26.375 6.390625 33.015625 6.390625 
Q 39.65625 6.390625 43.53125 10.953125 
Q 47.40625 15.53125 47.40625 23.390625 
Q 47.40625 31.296875 43.53125 35.828125 
Q 39.65625 40.375 33.015625 40.375 
z
M 52.59375 71.296875 
L 52.59375 62.3125 
Q 48.875 64.0625 45.09375 64.984375 
Q 41.3125 65.921875 37.59375 65.921875 
Q 27.828125 65.921875 22.671875 59.328125 
Q 17.53125 52.734375 16.796875 39.40625 
Q 19.671875 43.65625 24.015625 45.921875 
Q 28.375 48.1875 33.59375 48.1875 
Q 44.578125 48.1875 50.953125 41.515625 
Q 57.328125 34.859375 57.328125 23.390625 
Q 57.328125 12.15625 50.6875 5.359375 
Q 44.046875 -1.421875 33.015625 -1.421875 
Q 20.359375 -1.421875 13.671875 8.265625 
Q 6.984375 17.96875 6.984375 36.375 
Q 6.984375 53.65625 15.1875 63.9375 
Q 23.390625 74.21875 37.203125 74.21875 
Q 40.921875 74.21875 44.703125 73.484375 
Q 48.484375 72.75 52.59375 71.296875 
z
" id="DejaVuSans-54"/>
       </defs>
       <use xlink:href="#DejaVuSans-50"/>
       <use x="63.623047" xlink:href="#DejaVuSans-48"/>
       <use x="127.246094" xlink:href="#DejaVuSans-50"/>
       <use x="190.869141" xlink:href="#DejaVuSans-52"/>
       <use x="254.492188" xlink:href="#DejaVuSans-45"/>
       <use x="290.576172" xlink:href="#DejaVuSans-48"/>
       <use x="354.199219" xlink:href="#DejaVuSans-57"/>
       <use x="417.822266" xlink:href="#DejaVuSans-45"/>
       <use x="453.90625" xlink:href="#DejaVuSans-48"/>
       <use x="517.529297" xlink:href="#DejaVuSans-54"/>
      </g>
     </g>
    </g>
    <g id="text_11">
     <!-- Date -->
     <g transform="translate(228.601151 332.158083)scale(0.1 -0.1)">
      <defs>
       <path d="M 19.671875 64.796875 
L 19.671875 8.109375 
L 31.59375 8.109375 
Q 46.6875 8.109375 53.6875 14.9375 
Q 60.6875 21.78125 60.6875 36.53125 
Q 60.6875 51.171875 53.6875 57.984375 
Q 46.6875 64.796875 31.59375 64.796875 
z
M 9.8125 72.90625 
L 30.078125 72.90625 
Q 51.265625 72.90625 61.171875 64.09375 
Q 71.09375 55.28125 71.09375 36.53125 
Q 71.09375 17.671875 61.125 8.828125 
Q 51.171875 0 30.078125 0 
L 9.8125 0 
z
" id="DejaVuSans-68"/>
       <path d="M 34.28125 27.484375 
Q 23.390625 27.484375 19.1875 25 
Q 14.984375 22.515625 14.984375 16.5 
Q 14.984375 11.71875 18.140625 8.90625 
Q 21.296875 6.109375 26.703125 6.109375 
Q 34.1875 6.109375 38.703125 11.40625 
Q 43.21875 16.703125 43.21875 25.484375 
L 43.21875 27.484375 
z
M 52.203125 31.203125 
L 52.203125 0 
L 43.21875 0 
L 43.21875 8.296875 
Q 40.140625 3.328125 35.546875 0.953125 
Q 30.953125 -1.421875 24.3125 -1.421875 
Q 15.921875 -1.421875 10.953125 3.296875 
Q 6 8.015625 6 15.921875 
Q 6 25.140625 12.171875 29.828125 
Q 18.359375 34.515625 30.609375 34.515625 
L 43.21875 34.515625 
L 43.21875 35.40625 
Q 43.21875 41.609375 39.140625 45 
Q 35.0625 48.390625 27.6875 48.390625 
Q 23 48.390625 18.546875 47.265625 
Q 14.109375 46.140625 10.015625 43.890625 
L 10.015625 52.203125 
Q 14.9375 54.109375 19.578125 55.046875 
Q 24.21875 56 28.609375 56 
Q 40.484375 56 46.34375 49.84375 
Q 52.203125 43.703125 52.203125 31.203125 
z
" id="DejaVuSans-97"/>
       <path d="M 18.3125 70.21875 
L 18.3125 54.6875 
L 36.8125 54.6875 
L 36.8125 47.703125 
L 18.3125 47.703125 
L 18.3125 18.015625 
Q 18.3125 11.328125 20.140625 9.421875 
Q 21.96875 7.515625 27.59375 7.515625 
L 36.8125 7.515625 
L 36.8125 0 
L 27.59375 0 
Q 17.1875 0 13.234375 3.875 
Q 9.28125 7.765625 9.28125 18.015625 
L 9.28125 47.703125 
L 2.6875 47.703125 
L 2.6875 54.6875 
L 9.28125 54.6875 
L 9.28125 70.21875 
z
" id="DejaVuSans-116"/>
       <path d="M 56.203125 29.59375 
L 56.203125 25.203125 
L 14.890625 25.203125 
Q 15.484375 15.921875 20.484375 11.0625 
Q 25.484375 6.203125 34.421875 6.203125 
Q 39.59375 6.203125 44.453125 7.46875 
Q 49.3125 8.734375 54.109375 11.28125 
L 54.109375 2.78125 
Q 49.265625 0.734375 44.1875 -0.34375 
Q 39.109375 -1.421875 33.890625 -1.421875 
Q 20.796875 -1.421875 13.15625 6.1875 
Q 5.515625 13.8125 5.515625 26.8125 
Q 5.515625 40.234375 12.765625 48.109375 
Q 20.015625 56 32.328125 56 
Q 43.359375 56 49.78125 48.890625 
Q 56.203125 41.796875 56.203125 29.59375 
z
M 47.21875 32.234375 
Q 47.125 39.59375 43.09375 43.984375 
Q 39.0625 48.390625 32.421875 48.390625 
Q 24.90625 48.390625 20.390625 44.140625 
Q 15.875 39.890625 15.1875 32.171875 
z
" id="DejaVuSans-101"/>
      </defs>
      <use xlink:href="#DejaVuSans-68"/>
      <use x="77.001953" xlink:href="#DejaVuSans-97"/>
      <use x="138.28125" xlink:href="#DejaVuSans-116"/>
      <use x="177.490234" xlink:href="#DejaVuSans-101"/>
     </g>
    </g>
   </g>
   <g id="matplotlib.axis_2">
    <g id="ytick_1">
     <g id="line2d_21">
      <path clip-path="url(#pe1169e58c8)" d="M 44.66 223.000661 
L 436.443865 223.000661 
" style="fill:none;stroke:#b0b0b0;stroke-linecap:square;stroke-width:0.8;"/>
     </g>
     <g id="line2d_22">
      <defs>
       <path d="M 0 0 
L -3.5 0 
" id="md0cf8a5469" style="stroke:#000000;stroke-width:0.8;"/>
      </defs>
      <g>
       <use style="stroke:#000000;stroke-width:0.8;" x="44.66" xlink:href="#md0cf8a5469" y="223.000661"/>
      </g>
     </g>
     <g id="text_12">
      <!-- 55 -->
      <g transform="translate(24.935 226.79988)scale(0.1 -0.1)">
       <use xlink:href="#DejaVuSans-53"/>
       <use x="63.623047" xlink:href="#DejaVuSans-53"/>
      </g>
     </g>
    </g>
    <g id="ytick_2">
     <g id="line2d_23">
      <path clip-path="url(#pe1169e58c8)" d="M 44.66 188.353053 
L 436.443865 188.353053 
" style="fill:none;stroke:#b0b0b0;stroke-linecap:square;stroke-width:0.8;"/>
     </g>
     <g id="line2d_24">
      <g>
       <use style="stroke:#000000;stroke-width:0.8;" x="44.66" xlink:href="#md0cf8a5469" y="188.353053"/>
      </g>
     </g>
     <g id="text_13">
      <!-- 60 -->
      <g transform="translate(24.935 192.152272)scale(0.1 -0.1)">
       <use xlink:href="#DejaVuSans-54"/>
       <use x="63.623047" xlink:href="#DejaVuSans-48"/>
      </g>
     </g>
    </g>
    <g id="ytick_3">
     <g id="line2d_25">
      <path clip-path="url(#pe1169e58c8)" d="M 44.66 153.705445 
L 436.443865 153.705445 
" style="fill:none;stroke:#b0b0b0;stroke-linecap:square;stroke-width:0.8;"/>
     </g>
     <g id="line2d_26">
      <g>
       <use style="stroke:#000000;stroke-width:0.8;" x="44.66" xlink:href="#md0cf8a5469" y="153.705445"/>
      </g>
     </g>
     <g id="text_14">
      <!-- 65 -->
      <g transform="translate(24.935 157.504664)scale(0.1 -0.1)">
       <use xlink:href="#DejaVuSans-54"/>
       <use x="63.623047" xlink:href="#DejaVuSans-53"/>
      </g>
     </g>
    </g>
    <g id="ytick_4">
     <g id="line2d_27">
      <path clip-path="url(#pe1169e58c8)" d="M 44.66 119.057837 
L 436.443865 119.057837 
" style="fill:none;stroke:#b0b0b0;stroke-linecap:square;stroke-width:0.8;"/>
     </g>
     <g id="line2d_28">
      <g>
       <use style="stroke:#000000;stroke-width:0.8;" x="44.66" xlink:href="#md0cf8a5469" y="119.057837"/>
      </g>
     </g>
     <g id="text_15">
      <!-- 70 -->
      <g transform="translate(24.935 122.857056)scale(0.1 -0.1)">
       <defs>
        <path d="M 8.203125 72.90625 
L 55.078125 72.90625 
L 55.078125 68.703125 
L 28.609375 0 
L 18.3125 0 
L 43.21875 64.59375 
L 8.203125 64.59375 
z
" id="DejaVuSans-55"/>
       </defs>
       <use xlink:href="#DejaVuSans-55"/>
       <use x="63.623047" xlink:href="#DejaVuSans-48"/>
      </g>
     </g>
    </g>
    <g id="ytick_5">
     <g id="line2d_29">
      <path clip-path="url(#pe1169e58c8)" d="M 44.66 84.410229 
L 436.443865 84.410229 
" style="fill:none;stroke:#b0b0b0;stroke-linecap:square;stroke-width:0.8;"/>
     </g>
     <g id="line2d_30">
      <g>
       <use style="stroke:#000000;stroke-width:0.8;" x="44.66" xlink:href="#md0cf8a5469" y="84.410229"/>
      </g>
     </g>
     <g id="text_16">
      <!-- 75 -->
      <g transform="translate(24.935 88.209448)scale(0.1 -0.1)">
       <use xlink:href="#DejaVuSans-55"/>
       <use x="63.623047" xlink:href="#DejaVuSans-53"/>
      </g>
     </g>
    </g>
    <g id="ytick_6">
     <g id="line2d_31">
      <path clip-path="url(#pe1169e58c8)" d="M 44.66 49.762621 
L 436.443865 49.762621 
" style="fill:none;stroke:#b0b0b0;stroke-linecap:square;stroke-width:0.8;"/>
     </g>
     <g id="line2d_32">
      <g>
       <use style="stroke:#000000;stroke-width:0.8;" x="44.66" xlink:href="#md0cf8a5469" y="49.762621"/>
      </g>
     </g>
     <g id="text_17">
      <!-- 80 -->
      <g transform="translate(24.935 53.56184)scale(0.1 -0.1)">
       <use xlink:href="#DejaVuSans-56"/>
       <use x="63.623047" xlink:href="#DejaVuSans-48"/>
      </g>
     </g>
    </g>
    <g id="text_18">
     <!-- Temperature [F] -->
     <g transform="translate(18.855313 180.575291)rotate(-90)scale(0.1 -0.1)">
      <defs>
       <path d="M -0.296875 72.90625 
L 61.375 72.90625 
L 61.375 64.59375 
L 35.5 64.59375 
L 35.5 0 
L 25.59375 0 
L 25.59375 64.59375 
L -0.296875 64.59375 
z
" id="DejaVuSans-84"/>
       <path d="M 52 44.1875 
Q 55.375 50.25 60.0625 53.125 
Q 64.75 56 71.09375 56 
Q 79.640625 56 84.28125 50.015625 
Q 88.921875 44.046875 88.921875 33.015625 
L 88.921875 0 
L 79.890625 0 
L 79.890625 32.71875 
Q 79.890625 40.578125 77.09375 44.375 
Q 74.3125 48.1875 68.609375 48.1875 
Q 61.625 48.1875 57.5625 43.546875 
Q 53.515625 38.921875 53.515625 30.90625 
L 53.515625 0 
L 44.484375 0 
L 44.484375 32.71875 
Q 44.484375 40.625 41.703125 44.40625 
Q 38.921875 48.1875 33.109375 48.1875 
Q 26.21875 48.1875 22.15625 43.53125 
Q 18.109375 38.875 18.109375 30.90625 
L 18.109375 0 
L 9.078125 0 
L 9.078125 54.6875 
L 18.109375 54.6875 
L 18.109375 46.1875 
Q 21.1875 51.21875 25.484375 53.609375 
Q 29.78125 56 35.6875 56 
Q 41.65625 56 45.828125 52.96875 
Q 50 49.953125 52 44.1875 
z
" id="DejaVuSans-109"/>
       <path d="M 18.109375 8.203125 
L 18.109375 -20.796875 
L 9.078125 -20.796875 
L 9.078125 54.6875 
L 18.109375 54.6875 
L 18.109375 46.390625 
Q 20.953125 51.265625 25.265625 53.625 
Q 29.59375 56 35.59375 56 
Q 45.5625 56 51.78125 48.09375 
Q 58.015625 40.1875 58.015625 27.296875 
Q 58.015625 14.40625 51.78125 6.484375 
Q 45.5625 -1.421875 35.59375 -1.421875 
Q 29.59375 -1.421875 25.265625 0.953125 
Q 20.953125 3.328125 18.109375 8.203125 
z
M 48.6875 27.296875 
Q 48.6875 37.203125 44.609375 42.84375 
Q 40.53125 48.484375 33.40625 48.484375 
Q 26.265625 48.484375 22.1875 42.84375 
Q 18.109375 37.203125 18.109375 27.296875 
Q 18.109375 17.390625 22.1875 11.75 
Q 26.265625 6.109375 33.40625 6.109375 
Q 40.53125 6.109375 44.609375 11.75 
Q 48.6875 17.390625 48.6875 27.296875 
z
" id="DejaVuSans-112"/>
       <path d="M 41.109375 46.296875 
Q 39.59375 47.171875 37.8125 47.578125 
Q 36.03125 48 33.890625 48 
Q 26.265625 48 22.1875 43.046875 
Q 18.109375 38.09375 18.109375 28.8125 
L 18.109375 0 
L 9.078125 0 
L 9.078125 54.6875 
L 18.109375 54.6875 
L 18.109375 46.1875 
Q 20.953125 51.171875 25.484375 53.578125 
Q 30.03125 56 36.53125 56 
Q 37.453125 56 38.578125 55.875 
Q 39.703125 55.765625 41.0625 55.515625 
z
" id="DejaVuSans-114"/>
       <path d="M 8.5 21.578125 
L 8.5 54.6875 
L 17.484375 54.6875 
L 17.484375 21.921875 
Q 17.484375 14.15625 20.5 10.265625 
Q 23.53125 6.390625 29.59375 6.390625 
Q 36.859375 6.390625 41.078125 11.03125 
Q 45.3125 15.671875 45.3125 23.6875 
L 45.3125 54.6875 
L 54.296875 54.6875 
L 54.296875 0 
L 45.3125 0 
L 45.3125 8.40625 
Q 42.046875 3.421875 37.71875 1 
Q 33.40625 -1.421875 27.6875 -1.421875 
Q 18.265625 -1.421875 13.375 4.4375 
Q 8.5 10.296875 8.5 21.578125 
z
M 31.109375 56 
z
" id="DejaVuSans-117"/>
       <path id="DejaVuSans-32"/>
       <path d="M 8.59375 75.984375 
L 29.296875 75.984375 
L 29.296875 69 
L 17.578125 69 
L 17.578125 -6.203125 
L 29.296875 -6.203125 
L 29.296875 -13.1875 
L 8.59375 -13.1875 
z
" id="DejaVuSans-91"/>
       <path d="M 9.8125 72.90625 
L 51.703125 72.90625 
L 51.703125 64.59375 
L 19.671875 64.59375 
L 19.671875 43.109375 
L 48.578125 43.109375 
L 48.578125 34.8125 
L 19.671875 34.8125 
L 19.671875 0 
L 9.8125 0 
z
" id="DejaVuSans-70"/>
       <path d="M 30.421875 75.984375 
L 30.421875 -13.1875 
L 9.71875 -13.1875 
L 9.71875 -6.203125 
L 21.390625 -6.203125 
L 21.390625 69 
L 9.71875 69 
L 9.71875 75.984375 
z
" id="DejaVuSans-93"/>
      </defs>
      <use xlink:href="#DejaVuSans-84"/>
      <use x="44.083984" xlink:href="#DejaVuSans-101"/>
      <use x="105.607422" xlink:href="#DejaVuSans-109"/>
      <use x="203.019531" xlink:href="#DejaVuSans-112"/>
      <use x="266.496094" xlink:href="#DejaVuSans-101"/>
      <use x="328.019531" xlink:href="#DejaVuSans-114"/>
      <use x="369.132812" xlink:href="#DejaVuSans-97"/>
      <use x="430.412109" xlink:href="#DejaVuSans-116"/>
      <use x="469.621094" xlink:href="#DejaVuSans-117"/>
      <use x="533" xlink:href="#DejaVuSans-114"/>
      <use x="571.863281" xlink:href="#DejaVuSans-101"/>
      <use x="633.386719" xlink:href="#DejaVuSans-32"/>
      <use x="665.173828" xlink:href="#DejaVuSans-91"/>
      <use x="704.1875" xlink:href="#DejaVuSans-70"/>
      <use x="761.707031" xlink:href="#DejaVuSans-93"/>
     </g>
    </g>
   </g>
   <g id="line2d_33">
    <path clip-path="url(#pe1169e58c8)" d="M 62.468357 126.680311 
L 62.52873 126.680311 
L 62.585626 125.987359 
L 62.614635 126.680311 
L 62.6431 126.680311 
L 62.75712 125.987359 
L 62.814211 125.987359 
L 62.842748 126.680311 
L 62.8718 125.987359 
L 62.986563 125.294406 
L 63.159099 125.294406 
L 63.246203 124.601454 
L 63.391331 125.987359 
L 63.419899 125.987359 
L 63.507844 124.601454 
L 63.536332 125.987359 
L 63.593577 124.601454 
L 63.652391 124.601454 
L 63.768938 123.21555 
L 63.7973 124.601454 
L 63.826284 122.522598 
L 63.854712 122.522598 
L 63.88389 123.21555 
L 63.941737 122.522598 
L 64.056512 122.522598 
L 64.114874 121.829646 
L 64.144353 122.522598 
L 64.173672 122.522598 
L 64.202798 121.829646 
L 64.231283 123.21555 
L 64.317352 123.21555 
L 64.435326 121.829646 
L 64.464041 121.829646 
L 64.578814 122.522598 
L 64.607531 122.522598 
L 64.72432 123.21555 
L 64.811408 123.21555 
L 64.958154 121.136693 
L 65.103304 122.522598 
L 65.220557 121.136693 
L 65.250636 121.136693 
L 65.280496 120.443741 
L 65.337796 121.136693 
L 65.366712 121.829646 
L 65.444583 121.136693 
L 65.531596 121.136693 
L 65.590546 120.443741 
L 65.619273 121.136693 
L 65.649776 121.136693 
L 65.79716 123.21555 
L 65.856329 122.522598 
L 65.887563 123.21555 
L 65.981077 123.21555 
L 66.009641 124.601454 
L 66.068146 123.21555 
L 66.153833 123.21555 
L 66.270632 122.522598 
L 66.329226 123.21555 
L 66.358954 122.522598 
L 66.415644 122.522598 
L 66.474867 124.601454 
L 66.504715 122.522598 
L 66.561485 122.522598 
L 66.623671 124.601454 
L 66.680457 123.21555 
L 66.708992 124.601454 
L 66.737628 122.522598 
L 66.766021 123.21555 
L 66.795236 123.21555 
L 66.91116 125.987359 
L 66.970138 123.21555 
L 66.998563 125.987359 
L 67.028161 127.373263 
L 67.058052 125.294406 
L 67.206949 122.522598 
L 67.323818 127.373263 
L 67.38296 125.294406 
L 67.412222 126.680311 
L 67.473138 127.373263 
L 67.501496 126.680311 
L 67.529828 126.680311 
L 67.676177 128.066215 
L 67.966514 128.066215 
L 68.08248 128.759167 
L 68.170272 128.066215 
L 68.228154 128.759167 
L 68.256729 128.066215 
L 68.285189 127.373263 
L 68.314451 128.759167 
L 68.374774 128.759167 
L 68.461586 125.987359 
L 68.491483 128.066215 
L 68.521395 130.145072 
L 68.609304 128.759167 
L 68.667209 128.759167 
L 68.842921 126.680311 
L 68.95897 127.373263 
L 69.017649 127.373263 
L 69.046459 126.680311 
L 69.074812 127.373263 
L 69.104467 128.066215 
L 69.133195 125.987359 
L 69.191428 128.759167 
L 69.221137 128.759167 
L 69.280089 127.373263 
L 69.336839 128.066215 
L 69.365159 127.373263 
L 69.393699 128.759167 
L 69.423543 128.759167 
L 69.452552 127.373263 
L 69.53815 128.066215 
L 69.65533 128.066215 
L 69.745484 128.759167 
L 69.832074 128.066215 
L 69.922555 128.759167 
L 69.981259 127.373263 
L 70.038551 128.066215 
L 70.096364 128.066215 
L 70.212488 128.759167 
L 70.530044 128.759167 
L 70.617439 130.145072 
L 70.647242 128.759167 
L 70.70463 130.145072 
L 71.174912 130.145072 
L 71.293127 130.838024 
L 71.323029 130.145072 
L 71.380423 130.838024 
L 71.40893 130.838024 
L 71.437378 130.145072 
L 71.494673 130.838024 
L 72.045604 130.838024 
L 72.074444 131.530976 
L 72.102996 130.838024 
L 145.205001 131.530976 
L 145.234529 130.838024 
L 145.580477 128.759167 
L 145.609164 130.838024 
L 145.669321 130.145072 
L 145.730172 130.838024 
L 145.759454 128.759167 
L 145.82978 130.838024 
L 145.879476 130.145072 
L 145.908903 130.145072 
L 146.056561 125.987359 
L 146.18137 128.759167 
L 146.209701 128.066215 
L 146.342089 130.145072 
L 146.464062 130.145072 
L 146.492456 130.838024 
L 146.642417 128.066215 
L 146.735014 122.522598 
L 146.788564 125.987359 
L 146.818241 128.066215 
L 146.846722 126.680311 
L 146.939812 128.759167 
L 147.002451 128.066215 
L 147.030847 128.066215 
L 147.132116 130.145072 
L 147.160922 128.759167 
L 147.190187 128.759167 
L 147.225565 128.066215 
L 147.282854 128.759167 
L 147.346577 128.759167 
L 147.494297 121.829646 
L 147.610008 128.066215 
L 147.638377 128.759167 
L 147.753745 121.136693 
L 147.812928 123.21555 
L 147.841334 122.522598 
L 147.869711 123.21555 
L 148.027724 130.145072 
L 148.162655 127.373263 
L 148.250573 127.373263 
L 148.28064 126.680311 
L 148.309175 127.373263 
L 148.426311 130.145072 
L 148.576854 127.373263 
L 148.605965 127.373263 
L 148.703511 121.829646 
L 148.731874 125.294406 
L 148.897782 130.145072 
L 148.957816 128.066215 
L 148.987258 127.373263 
L 149.015627 128.066215 
L 149.102873 130.145072 
L 149.131194 128.066215 
L 149.160673 128.759167 
L 149.277397 128.759167 
L 149.30694 127.373263 
L 149.368332 128.759167 
L 149.39801 130.838024 
L 149.456124 128.066215 
L 149.51324 128.066215 
L 149.543148 128.759167 
L 149.574036 124.601454 
L 149.663933 125.294406 
L 149.723672 128.066215 
L 149.752214 126.680311 
L 149.782847 125.987359 
L 149.81116 126.680311 
L 149.956035 128.066215 
L 150.078164 127.373263 
L 150.106566 127.373263 
L 150.163941 128.066215 
L 150.193195 126.680311 
L 150.249916 128.066215 
L 150.278647 128.066215 
L 150.306975 127.373263 
L 150.365127 128.066215 
L 150.394359 128.066215 
L 150.508249 128.759167 
L 150.537699 128.759167 
L 150.653058 130.145072 
L 150.681856 130.145072 
L 150.797824 130.838024 
L 151.203373 130.838024 
L 151.290823 131.530976 
L 151.407302 130.838024 
L 151.61131 130.838024 
L 151.639936 128.066215 
L 151.726417 130.145072 
L 151.784027 130.145072 
L 151.904509 130.838024 
L 151.991232 130.838024 
L 152.020163 130.145072 
L 152.077236 130.838024 
L 152.134558 130.838024 
L 152.22228 131.530976 
L 152.251821 130.838024 
L 152.310771 131.530976 
L 152.899515 131.530976 
L 152.930392 132.223928 
L 152.958842 131.530976 
L 153.086073 130.838024 
L 153.417656 130.838024 
L 153.5031 130.145072 
L 153.531987 130.838024 
L 153.593373 130.145072 
L 154.001097 130.145072 
L 154.029489 130.838024 
L 154.086943 130.145072 
L 154.349902 130.145072 
L 154.438753 130.838024 
L 154.553186 130.145072 
L 154.666867 130.145072 
L 154.75296 130.838024 
L 154.840486 130.145072 
L 154.956546 130.838024 
L 155.013417 130.838024 
L 155.127207 130.145072 
L 155.184322 130.145072 
L 155.269452 130.838024 
L 155.391058 130.145072 
L 155.678745 130.145072 
L 269.970873 110.742411 
L 270.036903 112.128315 
L 270.174974 112.128315 
L 270.203583 110.742411 
L 270.26279 112.128315 
L 270.355938 112.128315 
L 270.385443 110.742411 
L 270.450346 112.128315 
L 270.710944 112.128315 
L 270.769554 112.821268 
L 270.798201 112.128315 
L 270.977975 112.128315 
L 271.007944 112.821268 
L 271.070387 112.128315 
L 271.104735 112.128315 
L 271.221093 112.821268 
L 271.279755 112.821268 
L 271.309012 112.128315 
L 271.366046 112.821268 
L 271.480993 112.821268 
L 271.567083 112.128315 
L 271.666778 112.821268 
L 272.319515 112.821268 
L 272.348228 113.51422 
L 272.404969 112.821268 
L 272.43327 112.821268 
L 272.462322 113.51422 
L 272.519942 112.821268 
L 272.549271 112.821268 
L 272.668625 113.51422 
L 272.789013 112.821268 
L 272.817396 112.821268 
L 272.931646 113.51422 
L 273.485161 113.51422 
L 273.51382 114.207172 
L 273.570735 113.51422 
L 273.690556 113.51422 
L 273.722267 114.207172 
L 273.793518 113.51422 
L 274.059486 113.51422 
L 274.179312 114.207172 
L 275.412279 114.207172 
L 275.44207 114.900124 
L 275.50125 114.207172 
L 275.765029 114.207172 
L 275.884865 114.900124 
L 276.002898 114.207172 
L 276.032114 114.207172 
L 276.148211 114.900124 
L 276.564372 114.900124 
L 276.701263 115.593076 
L 276.815581 114.900124 
L 277.662896 114.900124 
L 277.691202 114.207172 
L 277.750202 114.900124 
L 277.956582 114.900124 
L 277.985161 114.207172 
L 278.044052 114.900124 
L 278.07375 114.900124 
L 278.160149 114.207172 
L 278.276741 114.900124 
L 278.71476 114.900124 
L 278.7431 115.593076 
L 278.799752 114.900124 
L 279.346511 114.900124 
L 279.375702 114.207172 
L 279.433358 114.900124 
L 279.519808 114.900124 
L 279.55789 114.207172 
L 279.620507 114.900124 
L 279.880363 114.900124 
L 279.9096 114.207172 
L 279.968739 114.900124 
L 280.902277 114.900124 
L 281.018582 115.593076 
L 281.076926 115.593076 
L 281.197128 114.900124 
L 281.324578 115.593076 
L 281.44275 114.900124 
L 281.47107 114.900124 
L 281.586694 115.593076 
L 281.703697 114.900124 
L 281.849047 114.900124 
L 281.962904 115.593076 
L 282.473665 115.593076 
L 282.502343 116.286028 
L 282.559188 115.593076 
L 282.914617 115.593076 
L 283.003244 116.286028 
L 283.0915 115.593076 
L 283.17855 116.286028 
L 283.269082 115.593076 
L 283.391215 116.286028 
L 283.419547 116.286028 
L 283.450256 115.593076 
L 283.508635 116.286028 
L 284.420005 116.286028 
L 284.449361 117.671933 
L 284.507401 116.286028 
L 284.535776 116.286028 
L 284.569154 117.671933 
L 284.627752 116.286028 
L 285.014831 116.286028 
L 285.072249 117.671933 
L 285.101558 116.286028 
L 285.372906 116.286028 
L 285.489915 117.671933 
L 285.575768 116.286028 
L 285.661877 117.671933 
L 285.750528 116.286028 
L 285.83735 117.671933 
L 285.958176 116.286028 
L 286.07455 117.671933 
L 286.102952 117.671933 
L 286.131271 116.286028 
L 286.189186 117.671933 
L 286.220137 117.671933 
L 286.249606 116.286028 
L 286.309569 117.671933 
L 287.154979 117.671933 
L 287.244949 118.364885 
L 287.367603 117.671933 
L 287.425255 117.671933 
L 287.455028 118.364885 
L 287.483825 117.671933 
L 287.800214 117.671933 
L 287.917872 118.364885 
L 288.004703 117.671933 
L 288.12181 118.364885 
L 289.119072 118.364885 
L 289.205583 119.057837 
L 289.265417 118.364885 
L 289.29435 119.057837 
L 289.352637 119.057837 
L 289.409914 118.364885 
L 289.438425 119.057837 
L 290.104544 119.057837 
L 290.222545 118.364885 
L 290.338261 119.057837 
L 291.535529 119.057837 
L 291.564007 119.750789 
L 291.629741 119.057837 
L 292.654955 119.057837 
L 292.776839 119.750789 
L 292.865282 119.057837 
L 292.996058 119.750789 
L 293.79736 119.750789 
L 293.8258 119.057837 
L 293.885537 119.750789 
L 294.03403 119.750789 
L 294.120933 119.057837 
L 294.239418 119.750789 
L 294.269062 119.750789 
L 294.388029 119.057837 
L 294.532694 119.057837 
L 294.561024 119.750789 
L 294.619996 119.057837 
L 294.707789 119.057837 
L 294.827881 119.750789 
L 294.944764 119.057837 
L 295.175731 119.057837 
L 295.297665 119.750789 
L 295.416972 119.057837 
L 296.341649 119.057837 
L 296.458815 118.364885 
L 296.723338 118.364885 
L 296.782436 117.671933 
L 296.811493 118.364885 
L 296.989647 118.364885 
L 297.055293 117.671933 
L 297.084595 118.364885 
L 297.143483 118.364885 
L 297.173735 117.671933 
L 297.231639 118.364885 
L 298.058555 118.364885 
L 298.176502 117.671933 
L 298.271615 117.671933 
L 298.300241 118.364885 
L 298.357368 117.671933 
L 298.475657 117.671933 
L 298.593547 116.286028 
L 298.887263 116.286028 
L 298.944601 115.593076 
L 298.973357 116.286028 
L 299.672742 116.286028 
L 299.759197 115.593076 
L 299.877135 116.286028 
L 299.933981 116.286028 
L 300.020784 115.593076 
L 300.049609 116.286028 
L 300.107982 115.593076 
L 300.136359 115.593076 
L 300.250144 114.900124 
L 300.309574 114.900124 
L 300.424675 115.593076 
L 300.510454 115.593076 
L 300.626687 114.900124 
L 300.655001 114.900124 
L 300.74293 115.593076 
L 300.87149 114.900124 
L 300.960631 114.900124 
L 301.049818 115.593076 
L 301.165907 114.900124 
L 301.287319 115.593076 
L 301.319005 114.900124 
L 301.377236 115.593076 
L 301.499204 115.593076 
L 301.527651 114.900124 
L 301.586108 115.593076 
L 301.999279 115.593076 
L 302.116289 114.900124 
L 302.174955 115.593076 
L 302.203539 114.900124 
L 302.295325 114.900124 
L 302.414467 115.593076 
L 302.444784 115.593076 
L 302.565839 114.900124 
L 302.654765 115.593076 
L 302.775064 114.900124 
L 302.836514 114.900124 
L 302.953935 115.593076 
L 302.983398 115.593076 
L 303.100195 114.900124 
L 303.310264 114.900124 
L 303.342429 115.593076 
L 303.410999 114.900124 
L 303.531915 114.900124 
L 303.561063 115.593076 
L 303.619937 114.900124 
L 303.847096 114.900124 
L 303.875468 113.51422 
L 303.962449 114.207172 
L 304.019443 114.207172 
L 304.135171 114.900124 
L 304.251657 114.900124 
L 304.308963 115.593076 
L 304.337877 114.900124 
L 304.367335 114.900124 
L 304.395741 114.207172 
L 304.453626 114.900124 
L 304.482553 114.900124 
L 304.569833 114.207172 
L 304.598263 114.900124 
L 304.65743 114.207172 
L 304.716349 114.207172 
L 304.833664 114.900124 
L 305.162443 114.900124 
L 305.190943 115.593076 
L 305.250086 114.900124 
L 305.33923 114.207172 
L 305.456953 114.900124 
L 305.839049 114.900124 
L 305.954363 115.593076 
L 306.013576 115.593076 
L 306.043285 114.900124 
L 306.100576 115.593076 
L 306.448109 115.593076 
L 306.56498 114.900124 
L 306.727863 115.593076 
L 307.049392 115.593076 
L 307.134561 116.286028 
L 307.250296 115.593076 
L 307.368185 115.593076 
L 307.398385 114.900124 
L 307.455656 115.593076 
L 307.808359 115.593076 
L 307.83771 116.286028 
L 307.894947 115.593076 
L 308.290401 115.593076 
L 308.408291 116.286028 
L 308.525686 115.593076 
L 308.645083 116.286028 
L 309.115872 116.286028 
L 309.17402 115.593076 
L 309.202836 116.286028 
L 309.32176 116.286028 
L 309.351999 115.593076 
L 309.410636 116.286028 
L 310.213196 116.286028 
L 310.242737 117.671933 
L 310.313449 116.286028 
L 310.371753 116.286028 
L 310.469297 117.671933 
L 310.591575 116.286028 
L 310.681442 117.671933 
L 310.796417 116.286028 
L 310.913635 117.671933 
L 311.010864 117.671933 
L 311.129684 116.286028 
L 311.290743 117.671933 
L 312.007264 117.671933 
L 312.112772 118.364885 
L 312.17166 117.671933 
L 312.203268 118.364885 
L 312.23167 118.364885 
L 312.291203 117.671933 
L 312.320155 118.364885 
L 312.379315 118.364885 
L 312.466054 117.671933 
L 312.594621 118.364885 
L 313.328036 118.364885 
L 313.356379 119.057837 
L 313.413952 118.364885 
L 313.91142 118.364885 
L 313.939924 119.057837 
L 313.998654 118.364885 
L 314.027989 118.364885 
L 314.115586 119.057837 
L 314.144512 118.364885 
L 314.203208 119.057837 
L 314.232995 119.057837 
L 314.352561 118.364885 
L 314.476443 119.057837 
L 316.10288 119.057837 
L 316.134663 119.750789 
L 316.196006 119.057837 
L 316.28854 119.057837 
L 316.347788 119.750789 
L 316.377291 119.057837 
L 316.440547 119.057837 
L 316.560411 119.750789 
L 316.589944 119.057837 
L 316.64861 119.750789 
L 316.96954 119.750789 
L 316.999842 119.057837 
L 317.058519 119.750789 
L 317.173344 119.750789 
L 317.201713 119.057837 
L 317.259817 119.750789 
L 317.494838 119.750789 
L 317.525561 120.443741 
L 317.584087 119.750789 
L 318.383795 119.750789 
L 318.4135 119.057837 
L 318.475177 119.750789 
L 319.808091 119.750789 
L 319.837338 120.443741 
L 319.897856 119.750789 
L 320.348641 119.750789 
L 320.44694 120.443741 
L 320.565001 119.750789 
L 320.62258 119.750789 
L 320.741597 120.443741 
L 321.101058 120.443741 
L 321.129922 119.750789 
L 321.188926 120.443741 
L 321.574115 120.443741 
L 321.605674 119.750789 
L 321.663583 120.443741 
L 323.033106 120.443741 
L 323.064979 121.136693 
L 323.121916 120.443741 
L 323.238809 120.443741 
L 323.268957 121.136693 
L 323.329878 120.443741 
L 323.533443 120.443741 
L 323.647757 121.136693 
L 323.771257 120.443741 
L 323.890084 121.136693 
L 323.918383 120.443741 
L 323.975633 121.136693 
L 324.03388 121.136693 
L 324.149177 120.443741 
L 324.178911 120.443741 
L 324.268053 121.136693 
L 324.298102 120.443741 
L 324.356436 121.136693 
L 324.445529 121.136693 
L 324.562559 120.443741 
L 324.679602 121.136693 
L 324.708015 120.443741 
L 324.768761 121.136693 
L 325.00223 121.136693 
L 325.032792 120.443741 
L 325.090381 121.136693 
L 327.195939 121.136693 
L 327.225614 121.829646 
L 327.283715 121.136693 
L 327.458748 121.136693 
L 327.487269 121.829646 
L 327.546905 121.136693 
L 327.632287 121.136693 
L 327.747255 121.829646 
L 327.775741 121.829646 
L 327.806468 121.136693 
L 327.866834 121.829646 
L 327.896193 121.829646 
L 327.955983 121.136693 
L 327.98426 121.829646 
L 328.014638 121.829646 
L 328.043923 121.136693 
L 328.105346 121.829646 
L 328.135964 121.829646 
L 328.251492 121.136693 
L 328.368841 121.829646 
L 329.153899 121.829646 
L 329.182724 122.522598 
L 329.240815 121.829646 
L 329.589478 121.829646 
L 329.681262 122.522598 
L 329.801099 121.829646 
L 329.860762 121.829646 
L 329.889635 122.522598 
L 329.921779 121.829646 
L 330.015545 122.522598 
L 330.104658 121.829646 
L 330.223304 122.522598 
L 330.289849 121.829646 
L 330.319572 122.522598 
L 330.447896 121.829646 
L 330.501328 121.829646 
L 330.532206 122.522598 
L 330.672119 121.829646 
L 332.253374 121.829646 
L 332.34857 121.136693 
L 332.464981 121.829646 
L 332.593154 121.136693 
L 332.649984 121.829646 
L 332.678308 121.136693 
L 333.491649 121.136693 
L 333.621432 120.443741 
L 333.74154 121.136693 
L 333.774703 121.136693 
L 333.92509 119.750789 
L 333.957923 119.750789 
L 333.98837 120.443741 
L 334.047955 119.750789 
L 334.253673 119.750789 
L 334.342407 119.057837 
L 334.371306 119.750789 
L 334.430361 119.057837 
L 334.55135 119.057837 
L 334.588744 118.364885 
L 334.645468 119.057837 
L 334.764625 119.057837 
L 334.857758 119.750789 
L 334.950783 119.057837 
L 335.064867 119.750789 
L 335.180322 119.057837 
L 335.208642 119.057837 
L 335.294323 118.364885 
L 335.351128 119.057837 
L 335.380489 118.364885 
L 335.408865 118.364885 
L 335.49405 119.057837 
L 335.608325 118.364885 
L 335.751214 118.364885 
L 335.780167 119.057837 
L 335.838326 118.364885 
L 335.903415 118.364885 
L 335.931794 119.057837 
L 335.990724 118.364885 
L 336.019177 118.364885 
L 336.13308 119.057837 
L 336.543761 119.057837 
L 336.65739 118.364885 
L 336.776955 119.057837 
L 336.959972 119.057837 
L 336.988483 118.364885 
L 337.045176 119.057837 
L 337.248442 119.057837 
L 337.364142 118.364885 
L 337.392566 118.364885 
L 337.421195 119.057837 
L 337.482397 118.364885 
L 337.510803 118.364885 
L 337.540981 119.057837 
L 337.598288 118.364885 
L 338.117558 118.364885 
L 338.222663 119.057837 
L 338.28778 118.364885 
L 339.148031 118.364885 
L 339.253149 117.671933 
L 339.584335 117.671933 
L 339.613149 118.364885 
L 339.660899 117.671933 
L 340.423655 117.671933 
L 340.525886 118.364885 
L 340.642416 117.671933 
L 340.94232 117.671933 
L 340.987051 118.364885 
L 341.020351 116.286028 
L 341.090576 117.671933 
L 341.195328 117.671933 
L 341.325418 116.286028 
L 341.973856 116.286028 
L 342.236369 114.900124 
L 342.371042 115.593076 
L 343.218115 115.593076 
L 343.255497 114.900124 
L 343.326318 115.593076 
L 343.479158 115.593076 
L 343.543617 114.900124 
L 343.576056 115.593076 
L 343.605383 115.593076 
L 343.672829 114.900124 
L 343.856458 114.900124 
L 343.885054 115.593076 
L 343.946137 114.900124 
L 344.041451 114.900124 
L 344.167499 114.207172 
L 344.261331 114.900124 
L 344.389734 114.207172 
L 344.498498 114.207172 
L 344.619069 114.900124 
L 344.783058 114.900124 
L 344.812656 115.593076 
L 344.845607 114.900124 
L 345.091025 114.900124 
L 345.249543 114.207172 
L 345.329349 114.900124 
L 345.53096 113.51422 
L 345.560408 114.207172 
L 345.748937 113.51422 
L 346.000081 112.821268 
L 346.140817 113.51422 
L 346.26111 112.821268 
L 346.32097 112.821268 
L 346.353885 113.51422 
L 346.670768 113.51422 
L 346.709622 114.207172 
L 346.758639 113.51422 
L 346.958204 113.51422 
L 347.076265 114.207172 
L 347.677986 114.207172 
L 347.737941 113.51422 
L 347.768973 114.207172 
L 347.804298 114.207172 
L 347.906105 113.51422 
L 347.999118 113.51422 
L 348.132538 114.207172 
L 348.260661 113.51422 
L 348.366717 113.51422 
L 348.503616 114.207172 
L 348.723913 114.207172 
L 348.770269 114.900124 
L 348.805183 114.207172 
L 348.868274 114.207172 
L 348.961834 114.900124 
L 349.079972 114.207172 
L 349.130752 114.900124 
L 349.160233 114.207172 
L 349.346619 114.900124 
L 349.413591 114.900124 
L 349.547128 115.593076 
L 349.633494 114.900124 
L 349.683201 116.286028 
L 349.756219 115.593076 
L 349.977043 115.593076 
L 350.102546 116.286028 
L 350.136054 116.286028 
L 350.169993 115.593076 
L 350.238692 116.286028 
L 350.520419 116.286028 
L 350.553399 117.671933 
L 350.586247 116.286028 
L 350.767493 117.671933 
L 351.209626 117.671933 
L 351.275807 118.364885 
L 351.304266 117.671933 
L 351.334654 117.671933 
L 351.472919 118.364885 
L 351.992768 118.364885 
L 352.115429 119.057837 
L 352.243623 118.364885 
L 352.302223 119.057837 
L 352.395411 118.364885 
L 352.492798 119.057837 
L 352.55509 118.364885 
L 352.593071 119.057837 
L 353.246426 119.057837 
L 353.336443 119.750789 
L 353.366863 119.057837 
L 353.424903 119.750789 
L 354.12766 119.750789 
L 354.21401 120.443741 
L 354.349311 119.750789 
L 354.617462 119.750789 
L 354.647166 120.443741 
L 354.703931 119.750789 
L 354.732281 119.750789 
L 354.760639 120.443741 
L 354.817757 119.750789 
L 354.851219 119.750789 
L 354.880698 120.443741 
L 354.93903 119.750789 
L 354.96842 119.750789 
L 355.057131 120.443741 
L 355.143251 119.750789 
L 355.260234 120.443741 
L 356.120603 120.443741 
L 356.23565 121.136693 
L 356.26403 120.443741 
L 356.320942 121.136693 
L 356.349283 121.136693 
L 356.463555 120.443741 
L 356.492859 120.443741 
L 356.608845 121.136693 
L 357.362064 121.136693 
L 357.390371 121.829646 
L 357.447331 121.136693 
L 357.475738 121.136693 
L 357.56509 121.829646 
L 357.594314 121.136693 
L 357.651035 121.829646 
L 357.878215 121.829646 
L 357.992519 122.522598 
L 358.079358 121.829646 
L 358.195078 122.522598 
L 358.365648 122.522598 
L 358.486642 123.21555 
L 358.604379 122.522598 
L 359.345123 122.522598 
L 359.374434 121.829646 
L 359.544636 122.522598 
L 359.774143 122.522598 
L 359.803606 123.21555 
L 359.988006 122.522598 
L 360.16447 122.522598 
L 360.194292 123.21555 
L 360.253374 122.522598 
L 361.095345 122.522598 
L 361.209776 123.21555 
L 361.29679 123.21555 
L 361.414157 122.522598 
L 361.501207 122.522598 
L 361.620577 123.21555 
L 363.155443 123.21555 
L 363.269512 124.601454 
L 363.297937 124.601454 
L 363.414421 123.21555 
L 363.502117 123.21555 
L 363.588257 124.601454 
L 363.701738 123.21555 
L 363.758344 123.21555 
L 363.873834 124.601454 
L 365.070907 124.601454 
L 365.101393 125.294406 
L 365.161452 124.601454 
L 365.189824 124.601454 
L 365.220105 125.294406 
L 365.278558 124.601454 
L 365.743175 124.601454 
L 365.799838 125.294406 
L 365.828446 124.601454 
L 366.060054 124.601454 
L 366.088517 125.294406 
L 366.14608 124.601454 
L 366.497035 124.601454 
L 366.525309 125.294406 
L 366.582178 124.601454 
L 366.725878 124.601454 
L 366.754327 125.294406 
L 366.810973 124.601454 
L 366.899898 124.601454 
L 366.985508 125.294406 
L 367.01382 124.601454 
L 367.074281 125.294406 
L 367.104112 125.294406 
L 367.218844 124.601454 
L 367.247669 124.601454 
L 367.364224 125.294406 
L 367.392826 124.601454 
L 367.449409 125.294406 
L 367.712668 125.294406 
L 367.741912 124.601454 
L 367.799466 125.294406 
L 368.29203 125.294406 
L 368.406796 125.987359 
L 368.436664 125.987359 
L 368.553417 125.294406 
L 369.291259 125.294406 
L 369.378838 125.987359 
L 369.497821 125.294406 
L 369.52753 125.294406 
L 369.555853 125.987359 
L 369.612867 125.294406 
L 369.641375 125.294406 
L 369.669717 125.987359 
L 369.727346 125.294406 
L 369.817914 125.294406 
L 369.846297 125.987359 
L 369.905523 125.294406 
L 371.555584 125.294406 
L 371.643584 124.601454 
L 371.763173 125.294406 
L 372.021588 125.294406 
L 372.138255 124.601454 
L 372.227117 125.294406 
L 372.344598 124.601454 
L 372.373577 124.601454 
L 372.432543 125.294406 
L 372.461819 124.601454 
L 372.547599 124.601454 
L 372.575955 125.294406 
L 372.636823 124.601454 
L 373.078886 124.601454 
L 373.196318 123.21555 
L 373.625155 123.21555 
L 373.654686 122.522598 
L 373.713933 123.21555 
L 373.831434 123.21555 
L 373.946758 122.522598 
L 374.241218 122.522598 
L 374.364196 121.829646 
L 374.427666 121.829646 
L 374.457001 122.522598 
L 374.514587 121.829646 
L 374.74507 121.829646 
L 374.865436 121.136693 
L 375.133896 121.136693 
L 375.256339 120.443741 
L 375.401913 120.443741 
L 375.524795 119.750789 
L 375.94326 119.750789 
L 375.971767 119.057837 
L 376.031241 119.750789 
L 376.165162 119.750789 
L 376.297783 119.057837 
L 376.48659 119.057837 
L 376.551703 118.364885 
L 376.581137 119.057837 
L 376.694942 119.750789 
L 376.81344 119.057837 
L 376.899216 119.057837 
L 376.927539 118.364885 
L 376.989944 119.057837 
L 377.051946 118.364885 
L 377.113736 119.750789 
L 377.209869 119.750789 
L 377.238152 120.443741 
L 377.271035 119.750789 
L 377.397542 119.750789 
L 377.524231 119.057837 
L 377.586183 119.057837 
L 377.614535 118.364885 
L 377.64285 119.750789 
L 377.730374 120.443741 
L 377.761053 119.750789 
L 377.829587 120.443741 
L 377.857982 120.443741 
L 377.946927 119.750789 
L 378.06307 120.443741 
L 378.183566 119.750789 
L 378.27163 119.750789 
L 378.399073 120.443741 
L 378.545004 120.443741 
L 378.661601 119.750789 
L 378.778444 119.750789 
L 378.8093 120.443741 
L 378.839122 119.057837 
L 378.876988 119.750789 
L 378.907225 119.750789 
L 378.998515 120.443741 
L 379.175322 118.364885 
L 379.213032 118.364885 
L 379.271286 110.742411 
L 379.331693 115.593076 
L 379.360402 114.900124 
L 379.389877 115.593076 
L 379.537225 119.057837 
L 379.59483 119.057837 
L 379.713411 119.750789 
L 379.804063 119.750789 
L 379.921237 120.443741 
L 379.951067 120.443741 
L 380.069662 119.750789 
L 380.546183 119.750789 
L 380.57558 120.443741 
L 380.632989 119.750789 
L 380.808373 119.750789 
L 380.83983 120.443741 
L 380.900395 119.750789 
L 380.988819 118.364885 
L 381.018817 119.057837 
L 381.134922 119.750789 
L 381.252134 119.057837 
L 381.337931 119.057837 
L 381.455134 118.364885 
L 381.575525 118.364885 
L 381.642513 117.671933 
L 381.788107 119.750789 
L 381.946856 118.364885 
L 381.97626 118.364885 
L 382.036266 115.593076 
L 382.066382 116.286028 
L 382.172747 117.671933 
L 382.533806 116.286028 
L 382.5985 117.671933 
L 382.701961 117.671933 
L 382.853508 110.049459 
L 382.950521 112.128315 
L 383.107271 115.593076 
L 383.146592 115.593076 
L 383.27931 116.286028 
L 383.366724 116.286028 
L 383.452612 115.593076 
L 383.688689 117.671933 
L 383.760355 116.286028 
L 383.793995 117.671933 
L 383.82617 117.671933 
L 383.973763 115.593076 
L 384.068611 117.671933 
L 384.155788 117.671933 
L 384.299969 119.057837 
L 384.334267 119.057837 
L 384.411386 117.671933 
L 384.445459 119.057837 
L 384.556583 119.750789 
L 384.701637 118.364885 
L 384.770922 119.750789 
L 384.80027 118.364885 
L 385.02477 115.593076 
L 385.065889 116.286028 
L 385.105764 115.593076 
L 385.14106 115.593076 
L 385.169499 114.900124 
L 385.207368 116.286028 
L 385.253152 116.286028 
L 385.349697 114.900124 
L 385.46255 117.671933 
L 385.630776 117.671933 
L 385.743278 116.286028 
L 385.895103 117.671933 
L 386.030837 116.286028 
L 386.064541 116.286028 
L 386.098803 117.671933 
L 386.158147 116.286028 
L 386.187964 116.286028 
L 386.313282 117.671933 
L 386.34576 117.671933 
L 386.405764 116.286028 
L 386.440554 117.671933 
L 386.600937 117.671933 
L 386.741573 118.364885 
L 387.350441 118.364885 
L 387.394839 117.671933 
L 387.452059 118.364885 
L 387.554086 118.364885 
L 387.634848 119.057837 
L 387.73601 118.364885 
L 387.916361 118.364885 
L 388.046175 119.057837 
L 388.240667 119.057837 
L 388.269541 119.750789 
L 388.34635 119.057837 
L 388.377685 119.057837 
L 388.467005 118.364885 
L 388.570629 119.057837 
L 388.754325 118.364885 
L 388.966264 118.364885 
L 389.09948 119.057837 
L 389.548697 119.057837 
L 389.675568 119.750789 
L 389.927174 119.750789 
L 389.965305 120.443741 
L 390.029912 119.750789 
L 390.09714 119.750789 
L 390.220129 120.443741 
L 390.252422 120.443741 
L 390.282891 119.750789 
L 390.342451 120.443741 
L 390.611537 120.443741 
L 390.704737 119.750789 
L 390.823334 120.443741 
L 390.854462 120.443741 
L 390.972495 119.750789 
L 391.001706 119.750789 
L 391.140575 120.443741 
L 392.11547 120.443741 
L 392.24359 119.750789 
L 392.933425 119.750789 
L 392.961811 120.443741 
L 393.022251 119.750789 
L 393.502037 119.750789 
L 393.621009 120.443741 
L 393.755004 120.443741 
L 393.783313 119.750789 
L 393.847304 120.443741 
L 394.008699 120.443741 
L 394.041251 119.750789 
L 394.224615 120.443741 
L 394.504863 120.443741 
L 394.534138 121.136693 
L 394.593728 120.443741 
L 394.996685 120.443741 
L 395.033842 119.750789 
L 395.063246 120.443741 
L 395.236533 119.750789 
L 395.355661 120.443741 
L 395.384017 120.443741 
L 395.5033 119.750789 
L 395.560678 119.750789 
L 395.660585 120.443741 
L 395.780109 119.750789 
L 395.813434 119.750789 
L 395.841798 120.443741 
L 395.908521 119.750789 
L 396.055537 119.750789 
L 396.147719 120.443741 
L 396.244142 119.750789 
L 396.362574 120.443741 
L 396.481312 119.750789 
L 396.598832 120.443741 
L 396.727491 120.443741 
L 396.759755 119.750789 
L 396.817332 120.443741 
L 396.935476 120.443741 
L 396.965197 119.750789 
L 397.023259 120.443741 
L 397.493003 120.443741 
L 397.610099 121.136693 
L 397.727199 120.443741 
L 397.843276 121.136693 
L 397.964069 120.443741 
L 398.021738 121.136693 
L 398.050378 120.443741 
L 398.108261 120.443741 
L 398.235903 121.136693 
L 398.267019 121.136693 
L 398.381697 120.443741 
L 398.498969 121.136693 
L 398.557771 121.136693 
L 398.586181 120.443741 
L 398.642907 121.136693 
L 399.579636 121.136693 
L 399.69366 121.829646 
L 399.780239 121.829646 
L 399.8108 121.136693 
L 399.867896 121.829646 
L 399.89713 121.829646 
L 399.926587 121.136693 
L 399.98551 121.829646 
L 401.583948 121.829646 
L 401.612364 122.522598 
L 401.670774 121.829646 
L 402.136776 121.829646 
L 402.196396 122.522598 
L 402.224945 121.829646 
L 402.632211 121.829646 
L 402.746226 122.522598 
L 402.833104 121.829646 
L 402.949331 122.522598 
L 403.009244 121.829646 
L 403.03761 122.522598 
L 403.095794 122.522598 
L 403.214928 121.829646 
L 403.333253 122.522598 
L 403.362432 121.829646 
L 403.421403 122.522598 
L 403.450996 122.522598 
L 403.479407 121.829646 
L 403.538001 122.522598 
L 403.662449 122.522598 
L 403.719756 121.829646 
L 403.748017 122.522598 
L 403.777541 122.522598 
L 403.863635 121.829646 
L 403.978586 122.522598 
L 405.666306 122.522598 
L 405.754288 123.21555 
L 405.868868 122.522598 
L 405.925611 122.522598 
L 406.03983 123.21555 
L 406.125148 123.21555 
L 406.23841 122.522598 
L 406.267974 122.522598 
L 406.381369 123.21555 
L 406.523762 123.21555 
L 406.638787 124.601454 
L 406.753558 123.21555 
L 407.497912 123.21555 
L 407.584405 124.601454 
L 407.61282 123.21555 
L 407.669496 124.601454 
L 408.561662 124.601454 
L 408.653209 123.21555 
L 408.712392 124.601454 
L 408.741662 123.21555 
L 408.770719 123.21555 
L 408.865751 124.601454 
L 408.952567 123.21555 
L 409.050474 124.601454 
L 409.177938 123.21555 
L 409.207089 124.601454 
L 409.267395 123.21555 
L 409.453407 123.21555 
L 409.485101 124.601454 
L 409.545405 123.21555 
L 409.634685 123.21555 
L 409.749543 124.601454 
L 409.806716 124.601454 
L 409.926635 123.21555 
L 410.013729 123.21555 
L 410.127506 124.601454 
L 410.188807 124.601454 
L 410.303751 123.21555 
L 410.647649 123.21555 
L 410.762443 122.522598 
L 411.058451 122.522598 
L 411.171906 121.829646 
L 411.258455 121.829646 
L 411.287143 122.522598 
L 411.344979 121.829646 
L 411.552888 121.829646 
L 411.584858 122.522598 
L 411.645339 121.829646 
L 411.765261 121.829646 
L 411.794783 121.136693 
L 411.853021 121.829646 
L 412.117917 121.829646 
L 412.146694 121.136693 
L 412.203477 121.829646 
L 412.292544 121.829646 
L 412.413949 121.136693 
L 412.592915 121.136693 
L 412.65299 120.443741 
L 412.681387 121.136693 
L 412.713303 121.136693 
L 412.830345 120.443741 
L 413.045764 120.443741 
L 413.162453 119.750789 
L 413.393895 119.750789 
L 413.509764 119.057837 
L 413.538128 119.057837 
L 413.651915 118.364885 
L 413.709806 118.364885 
L 413.798928 119.057837 
L 413.892306 118.364885 
L 414.102251 118.364885 
L 414.192745 115.593076 
L 414.24291 116.286028 
L 414.43768 114.207172 
L 414.510587 114.207172 
L 414.568532 113.51422 
L 414.596917 114.207172 
L 414.836289 114.207172 
L 414.955585 113.51422 
L 415.041734 114.207172 
L 415.07138 113.51422 
L 415.099791 114.207172 
L 415.12921 114.900124 
L 415.189381 114.207172 
L 415.251799 114.207172 
L 415.431601 109.356507 
L 415.492965 113.51422 
L 415.559367 112.128315 
L 415.617339 110.742411 
L 415.645825 114.207172 
L 415.705253 110.049459 
L 415.946806 113.51422 
L 416.093739 112.128315 
L 416.122137 112.821268 
L 416.153269 112.128315 
L 416.268296 110.742411 
L 416.397306 113.51422 
L 416.456479 113.51422 
L 416.518226 114.207172 
L 416.54658 112.821268 
L 416.576737 116.286028 
L 416.704354 115.593076 
L 416.821417 116.286028 
L 417.11484 116.286028 
L 417.266746 112.821268 
L 417.362276 115.593076 
L 417.391542 108.663555 
L 417.450519 112.821268 
L 417.568696 115.593076 
L 417.608292 116.286028 
L 417.666316 115.593076 
L 417.694831 114.900124 
L 417.724263 116.286028 
L 417.75399 116.286028 
L 417.872816 115.593076 
L 418.021265 115.593076 
L 418.050681 116.286028 
L 418.108623 115.593076 
L 418.136976 115.593076 
L 418.253142 116.286028 
L 418.398458 116.286028 
L 418.512233 115.593076 
L 418.570313 115.593076 
L 418.607112 116.286028 
L 418.635507 115.593076 
" style="fill:none;stroke:#1f77b4;stroke-linecap:square;stroke-width:1.5;"/>
   </g>
   <g id="line2d_34">
    <path clip-path="url(#pe1169e58c8)" d="M 62.468357 173.801058 
L 65.132766 173.801058 
L 65.250636 146.775923 
L 68.170272 146.775923 
L 68.285189 154.398397 
L 70.212488 154.398397 
L 70.327077 167.564488 
L 71.323029 167.564488 
L 71.437378 181.423532 
L 72.102996 181.423532 
L 145.205001 84.410229 
L 149.043963 84.410229 
L 149.160673 98.269272 
L 150.797824 98.269272 
L 150.914708 111.435363 
L 152.398086 111.435363 
L 152.513104 146.775923 
L 154.724543 146.775923 
L 154.840486 167.564488 
L 155.678745 167.564488 
L 270.036903 92.032703 
L 271.163041 92.032703 
L 271.279755 119.057837 
L 272.756019 119.057837 
L 272.874665 146.775923 
L 276.089894 146.775923 
L 276.205437 160.634967 
L 279.375702 160.634967 
L 279.49155 167.564488 
L 281.44275 167.564488 
L 281.557971 173.801058 
L 282.735349 173.801058 
L 282.855265 187.660101 
L 284.21695 187.660101 
L 284.331064 195.282575 
L 285.219377 195.282575 
L 285.343488 182.809436 
L 285.958176 182.809436 
L 286.07455 187.660101 
L 287.425255 187.660101 
L 287.483825 181.423532 
L 291.564007 181.423532 
L 291.715986 182.809436 
L 292.587228 182.809436 
L 292.715245 181.423532 
L 294.092129 181.423532 
L 294.210633 173.801058 
L 297.404602 173.801058 
L 297.521587 167.564488 
L 299.235475 167.564488 
L 299.352247 160.634967 
L 300.250144 160.634967 
L 300.367873 157.863158 
L 300.684879 157.863158 
L 300.807659 154.398397 
L 304.048247 154.398397 
L 304.164489 146.775923 
L 309.32176 146.775923 
L 309.439015 157.863158 
L 310.913635 157.863158 
L 311.0417 160.634967 
L 312.083319 160.634967 
L 312.203268 157.863158 
L 312.379315 157.863158 
L 312.503066 160.634967 
L 316.678885 160.634967 
L 316.795333 157.863158 
L 317.259817 157.863158 
L 317.376447 160.634967 
L 318.87166 160.634967 
L 318.986912 167.564488 
L 319.74903 167.564488 
L 319.837338 182.809436 
L 320.594125 182.809436 
L 320.71216 187.660101 
L 321.013701 187.660101 
L 321.129922 195.282575 
L 327.747255 195.282575 
L 327.866834 182.809436 
L 329.212462 182.809436 
L 329.327764 195.282575 
L 330.532206 195.282575 
L 330.672119 181.423532 
L 332.110935 181.423532 
L 332.253374 173.801058 
L 332.851449 173.801058 
L 332.965042 170.336297 
L 333.709936 170.336297 
L 333.83361 167.564488 
L 335.931794 167.564488 
L 336.047537 160.634967 
L 337.073606 160.634967 
L 337.187747 154.398397 
L 338.658983 154.398397 
L 338.794192 160.634967 
L 340.242309 160.634967 
L 340.423655 146.775923 
L 343.821312 146.775923 
L 343.946137 140.539354 
L 348.56563 140.539354 
L 348.723913 146.775923 
L 350.036064 146.775923 
L 350.169993 173.801058 
L 352.082031 173.801058 
L 352.213196 187.660101 
L 353.703921 187.660101 
L 353.825729 209.141618 
L 355.631059 209.141618 
L 355.773168 220.228853 
L 357.821353 220.228853 
L 357.934852 232.701991 
L 360.573115 232.701991 
L 360.689835 220.228853 
L 362.172426 220.228853 
L 362.287457 223.000661 
L 364.17723 223.000661 
L 364.291487 220.228853 
L 364.896754 220.228853 
L 365.013147 223.000661 
L 367.654041 223.000661 
L 367.770273 229.930183 
L 372.490253 229.930183 
L 372.606582 220.228853 
L 374.154361 220.228853 
L 374.276495 207.755714 
L 376.00016 207.755714 
L 376.1368 170.336297 
L 376.752013 170.336297 
L 376.870749 160.634967 
L 378.330708 160.634967 
L 378.457064 119.057837 
L 379.892595 119.057837 
L 380.01092 92.032703 
L 381.788107 92.032703 
L 381.916449 78.173659 
L 383.336036 78.173659 
L 383.452612 62.928712 
L 384.923628 62.928712 
L 385.02477 70.551186 
L 386.374153 70.551186 
L 386.504952 84.410229 
L 389.548697 84.410229 
L 389.675568 105.198794 
L 389.965305 105.198794 
L 390.09714 140.539354 
L 392.014962 140.539354 
L 392.152651 154.398397 
L 393.053152 154.398397 
L 393.176552 160.634967 
L 394.651724 160.634967 
L 394.787693 173.801058 
L 396.392011 173.801058 
L 396.511822 181.423532 
L 398.267019 181.423532 
L 398.381697 195.282575 
L 399.138018 195.282575 
L 399.256682 220.228853 
L 400.162468 220.228853 
L 400.279287 209.141618 
L 400.600608 209.141618 
L 400.71495 220.228853 
L 402.891278 220.228853 
L 403.009244 223.000661 
L 403.748017 223.000661 
L 403.863635 220.228853 
L 404.616269 220.228853 
L 404.732034 236.166752 
L 407.069365 236.166752 
L 407.184403 245.17513 
L 407.355819 245.17513 
L 407.469535 232.701991 
L 407.792467 232.701991 
L 407.906376 236.166752 
L 409.778016 236.166752 
L 409.898244 209.141618 
L 411.373413 209.141618 
L 411.494054 181.423532 
L 413.103667 181.423532 
L 413.220038 132.91688 
L 414.65916 132.91688 
L 414.779487 92.032703 
L 416.23895 92.032703 
L 416.366844 56.692142 
L 417.934725 56.692142 
L 418.050681 35.903578 
L 418.635507 35.903578 
L 418.635507 35.903578 
" style="fill:none;stroke:#ff7f0e;stroke-linecap:square;stroke-width:1.5;"/>
   </g>
   <g id="patch_3">
    <path d="M 44.66 255.638708 
L 44.66 25.44 
" style="fill:none;stroke:#000000;stroke-linecap:square;stroke-linejoin:miter;stroke-width:0.8;"/>
   </g>
   <g id="patch_4">
    <path d="M 436.443865 255.638708 
L 436.443865 25.44 
" style="fill:none;stroke:#000000;stroke-linecap:square;stroke-linejoin:miter;stroke-width:0.8;"/>
   </g>
   <g id="patch_5">
    <path d="M 44.66 255.638708 
L 436.443865 255.638708 
" style="fill:none;stroke:#000000;stroke-linecap:square;stroke-linejoin:miter;stroke-width:0.8;"/>
   </g>
   <g id="patch_6">
    <path d="M 44.66 25.44 
L 436.443865 25.44 
" style="fill:none;stroke:#000000;stroke-linecap:square;stroke-linejoin:miter;stroke-width:0.8;"/>
   </g>
   <g id="text_19">
    <!-- Lake Shoecraft - Water and Air Temperature -->
    <g transform="translate(108.933495 19.44)scale(0.12 -0.12)">
     <defs>
      <path d="M 9.8125 72.90625 
L 19.671875 72.90625 
L 19.671875 8.296875 
L 55.171875 8.296875 
L 55.171875 0 
L 9.8125 0 
z
" id="DejaVuSans-76"/>
      <path d="M 9.078125 75.984375 
L 18.109375 75.984375 
L 18.109375 31.109375 
L 44.921875 54.6875 
L 56.390625 54.6875 
L 27.390625 29.109375 
L 57.625 0 
L 45.90625 0 
L 18.109375 26.703125 
L 18.109375 0 
L 9.078125 0 
z
" id="DejaVuSans-107"/>
      <path d="M 53.515625 70.515625 
L 53.515625 60.890625 
Q 47.90625 63.578125 42.921875 64.890625 
Q 37.9375 66.21875 33.296875 66.21875 
Q 25.25 66.21875 20.875 63.09375 
Q 16.5 59.96875 16.5 54.203125 
Q 16.5 49.359375 19.40625 46.890625 
Q 22.3125 44.4375 30.421875 42.921875 
L 36.375 41.703125 
Q 47.40625 39.59375 52.65625 34.296875 
Q 57.90625 29 57.90625 20.125 
Q 57.90625 9.515625 50.796875 4.046875 
Q 43.703125 -1.421875 29.984375 -1.421875 
Q 24.8125 -1.421875 18.96875 -0.25 
Q 13.140625 0.921875 6.890625 3.21875 
L 6.890625 13.375 
Q 12.890625 10.015625 18.65625 8.296875 
Q 24.421875 6.59375 29.984375 6.59375 
Q 38.421875 6.59375 43.015625 9.90625 
Q 47.609375 13.234375 47.609375 19.390625 
Q 47.609375 24.75 44.3125 27.78125 
Q 41.015625 30.8125 33.5 32.328125 
L 27.484375 33.5 
Q 16.453125 35.6875 11.515625 40.375 
Q 6.59375 45.0625 6.59375 53.421875 
Q 6.59375 63.09375 13.40625 68.65625 
Q 20.21875 74.21875 32.171875 74.21875 
Q 37.3125 74.21875 42.625 73.28125 
Q 47.953125 72.359375 53.515625 70.515625 
z
" id="DejaVuSans-83"/>
      <path d="M 54.890625 33.015625 
L 54.890625 0 
L 45.90625 0 
L 45.90625 32.71875 
Q 45.90625 40.484375 42.875 44.328125 
Q 39.84375 48.1875 33.796875 48.1875 
Q 26.515625 48.1875 22.3125 43.546875 
Q 18.109375 38.921875 18.109375 30.90625 
L 18.109375 0 
L 9.078125 0 
L 9.078125 75.984375 
L 18.109375 75.984375 
L 18.109375 46.1875 
Q 21.34375 51.125 25.703125 53.5625 
Q 30.078125 56 35.796875 56 
Q 45.21875 56 50.046875 50.171875 
Q 54.890625 44.34375 54.890625 33.015625 
z
" id="DejaVuSans-104"/>
      <path d="M 30.609375 48.390625 
Q 23.390625 48.390625 19.1875 42.75 
Q 14.984375 37.109375 14.984375 27.296875 
Q 14.984375 17.484375 19.15625 11.84375 
Q 23.34375 6.203125 30.609375 6.203125 
Q 37.796875 6.203125 41.984375 11.859375 
Q 46.1875 17.53125 46.1875 27.296875 
Q 46.1875 37.015625 41.984375 42.703125 
Q 37.796875 48.390625 30.609375 48.390625 
z
M 30.609375 56 
Q 42.328125 56 49.015625 48.375 
Q 55.71875 40.765625 55.71875 27.296875 
Q 55.71875 13.875 49.015625 6.21875 
Q 42.328125 -1.421875 30.609375 -1.421875 
Q 18.84375 -1.421875 12.171875 6.21875 
Q 5.515625 13.875 5.515625 27.296875 
Q 5.515625 40.765625 12.171875 48.375 
Q 18.84375 56 30.609375 56 
z
" id="DejaVuSans-111"/>
      <path d="M 48.78125 52.59375 
L 48.78125 44.1875 
Q 44.96875 46.296875 41.140625 47.34375 
Q 37.3125 48.390625 33.40625 48.390625 
Q 24.65625 48.390625 19.8125 42.84375 
Q 14.984375 37.3125 14.984375 27.296875 
Q 14.984375 17.28125 19.8125 11.734375 
Q 24.65625 6.203125 33.40625 6.203125 
Q 37.3125 6.203125 41.140625 7.25 
Q 44.96875 8.296875 48.78125 10.40625 
L 48.78125 2.09375 
Q 45.015625 0.34375 40.984375 -0.53125 
Q 36.96875 -1.421875 32.421875 -1.421875 
Q 20.0625 -1.421875 12.78125 6.34375 
Q 5.515625 14.109375 5.515625 27.296875 
Q 5.515625 40.671875 12.859375 48.328125 
Q 20.21875 56 33.015625 56 
Q 37.15625 56 41.109375 55.140625 
Q 45.0625 54.296875 48.78125 52.59375 
z
" id="DejaVuSans-99"/>
      <path d="M 37.109375 75.984375 
L 37.109375 68.5 
L 28.515625 68.5 
Q 23.6875 68.5 21.796875 66.546875 
Q 19.921875 64.59375 19.921875 59.515625 
L 19.921875 54.6875 
L 34.71875 54.6875 
L 34.71875 47.703125 
L 19.921875 47.703125 
L 19.921875 0 
L 10.890625 0 
L 10.890625 47.703125 
L 2.296875 47.703125 
L 2.296875 54.6875 
L 10.890625 54.6875 
L 10.890625 58.5 
Q 10.890625 67.625 15.140625 71.796875 
Q 19.390625 75.984375 28.609375 75.984375 
z
" id="DejaVuSans-102"/>
      <path d="M 3.328125 72.90625 
L 13.28125 72.90625 
L 28.609375 11.28125 
L 43.890625 72.90625 
L 54.984375 72.90625 
L 70.3125 11.28125 
L 85.59375 72.90625 
L 95.609375 72.90625 
L 77.296875 0 
L 64.890625 0 
L 49.515625 63.28125 
L 33.984375 0 
L 21.578125 0 
z
" id="DejaVuSans-87"/>
      <path d="M 54.890625 33.015625 
L 54.890625 0 
L 45.90625 0 
L 45.90625 32.71875 
Q 45.90625 40.484375 42.875 44.328125 
Q 39.84375 48.1875 33.796875 48.1875 
Q 26.515625 48.1875 22.3125 43.546875 
Q 18.109375 38.921875 18.109375 30.90625 
L 18.109375 0 
L 9.078125 0 
L 9.078125 54.6875 
L 18.109375 54.6875 
L 18.109375 46.1875 
Q 21.34375 51.125 25.703125 53.5625 
Q 30.078125 56 35.796875 56 
Q 45.21875 56 50.046875 50.171875 
Q 54.890625 44.34375 54.890625 33.015625 
z
" id="DejaVuSans-110"/>
      <path d="M 45.40625 46.390625 
L 45.40625 75.984375 
L 54.390625 75.984375 
L 54.390625 0 
L 45.40625 0 
L 45.40625 8.203125 
Q 42.578125 3.328125 38.25 0.953125 
Q 33.9375 -1.421875 27.875 -1.421875 
Q 17.96875 -1.421875 11.734375 6.484375 
Q 5.515625 14.40625 5.515625 27.296875 
Q 5.515625 40.1875 11.734375 48.09375 
Q 17.96875 56 27.875 56 
Q 33.9375 56 38.25 53.625 
Q 42.578125 51.265625 45.40625 46.390625 
z
M 14.796875 27.296875 
Q 14.796875 17.390625 18.875 11.75 
Q 22.953125 6.109375 30.078125 6.109375 
Q 37.203125 6.109375 41.296875 11.75 
Q 45.40625 17.390625 45.40625 27.296875 
Q 45.40625 37.203125 41.296875 42.84375 
Q 37.203125 48.484375 30.078125 48.484375 
Q 22.953125 48.484375 18.875 42.84375 
Q 14.796875 37.203125 14.796875 27.296875 
z
" id="DejaVuSans-100"/>
      <path d="M 34.1875 63.1875 
L 20.796875 26.90625 
L 47.609375 26.90625 
z
M 28.609375 72.90625 
L 39.796875 72.90625 
L 67.578125 0 
L 57.328125 0 
L 50.6875 18.703125 
L 17.828125 18.703125 
L 11.1875 0 
L 0.78125 0 
z
" id="DejaVuSans-65"/>
      <path d="M 9.421875 54.6875 
L 18.40625 54.6875 
L 18.40625 0 
L 9.421875 0 
z
M 9.421875 75.984375 
L 18.40625 75.984375 
L 18.40625 64.59375 
L 9.421875 64.59375 
z
" id="DejaVuSans-105"/>
     </defs>
     <use xlink:href="#DejaVuSans-76"/>
     <use x="55.712891" xlink:href="#DejaVuSans-97"/>
     <use x="116.992188" xlink:href="#DejaVuSans-107"/>
     <use x="171.277344" xlink:href="#DejaVuSans-101"/>
     <use x="232.800781" xlink:href="#DejaVuSans-32"/>
     <use x="264.587891" xlink:href="#DejaVuSans-83"/>
     <use x="328.064453" xlink:href="#DejaVuSans-104"/>
     <use x="391.443359" xlink:href="#DejaVuSans-111"/>
     <use x="452.625" xlink:href="#DejaVuSans-101"/>
     <use x="514.148438" xlink:href="#DejaVuSans-99"/>
     <use x="569.128906" xlink:href="#DejaVuSans-114"/>
     <use x="610.242188" xlink:href="#DejaVuSans-97"/>
     <use x="671.521484" xlink:href="#DejaVuSans-102"/>
     <use x="704.976562" xlink:href="#DejaVuSans-116"/>
     <use x="744.185547" xlink:href="#DejaVuSans-32"/>
     <use x="775.972656" xlink:href="#DejaVuSans-45"/>
     <use x="812.056641" xlink:href="#DejaVuSans-32"/>
     <use x="843.84375" xlink:href="#DejaVuSans-87"/>
     <use x="936.345703" xlink:href="#DejaVuSans-97"/>
     <use x="997.625" xlink:href="#DejaVuSans-116"/>
     <use x="1036.833984" xlink:href="#DejaVuSans-101"/>
     <use x="1098.357422" xlink:href="#DejaVuSans-114"/>
     <use x="1139.470703" xlink:href="#DejaVuSans-32"/>
     <use x="1171.257812" xlink:href="#DejaVuSans-97"/>
     <use x="1232.537109" xlink:href="#DejaVuSans-110"/>
     <use x="1295.916016" xlink:href="#DejaVuSans-100"/>
     <use x="1359.392578" xlink:href="#DejaVuSans-32"/>
     <use x="1391.179688" xlink:href="#DejaVuSans-65"/>
     <use x="1459.587891" xlink:href="#DejaVuSans-105"/>
     <use x="1487.371094" xlink:href="#DejaVuSans-114"/>
     <use x="1528.484375" xlink:href="#DejaVuSans-32"/>
     <use x="1560.271484" xlink:href="#DejaVuSans-84"/>
     <use x="1604.355469" xlink:href="#DejaVuSans-101"/>
     <use x="1665.878906" xlink:href="#DejaVuSans-109"/>
     <use x="1763.291016" xlink:href="#DejaVuSans-112"/>
     <use x="1826.767578" xlink:href="#DejaVuSans-101"/>
     <use x="1888.291016" xlink:href="#DejaVuSans-114"/>
     <use x="1929.404297" xlink:href="#DejaVuSans-97"/>
     <use x="1990.683594" xlink:href="#DejaVuSans-116"/>
     <use x="2029.892578" xlink:href="#DejaVuSans-117"/>
     <use x="2093.271484" xlink:href="#DejaVuSans-114"/>
     <use x="2132.134766" xlink:href="#DejaVuSans-101"/>
    </g>
   </g>
   <g id="legend_1">
    <g id="patch_7">
     <path d="M 51.66 62.79625 
L 136.769375 62.79625 
Q 138.769375 62.79625 138.769375 60.79625 
L 138.769375 32.44 
Q 138.769375 30.44 136.769375 30.44 
L 51.66 30.44 
Q 49.66 30.44 49.66 32.44 
L 49.66 60.79625 
Q 49.66 62.79625 51.66 62.79625 
z
" style="fill:#ffffff;opacity:0.8;stroke:#cccccc;stroke-linejoin:miter;"/>
    </g>
    <g id="line2d_35">
     <path d="M 53.66 38.538437 
L 73.66 38.538437 
" style="fill:none;stroke:#1f77b4;stroke-linecap:square;stroke-width:1.5;"/>
    </g>
    <g id="line2d_36"/>
    <g id="text_20">
     <!-- Lake Temp -->
     <g transform="translate(81.66 42.038437)scale(0.1 -0.1)">
      <use xlink:href="#DejaVuSans-76"/>
      <use x="55.712891" xlink:href="#DejaVuSans-97"/>
      <use x="116.992188" xlink:href="#DejaVuSans-107"/>
      <use x="171.277344" xlink:href="#DejaVuSans-101"/>
      <use x="232.800781" xlink:href="#DejaVuSans-32"/>
      <use x="264.587891" xlink:href="#DejaVuSans-84"/>
      <use x="308.671875" xlink:href="#DejaVuSans-101"/>
      <use x="370.195312" xlink:href="#DejaVuSans-109"/>
      <use x="467.607422" xlink:href="#DejaVuSans-112"/>
     </g>
    </g>
    <g id="line2d_37">
     <path d="M 53.66 53.216562 
L 73.66 53.216562 
" style="fill:none;stroke:#ff7f0e;stroke-linecap:square;stroke-width:1.5;"/>
    </g>
    <g id="line2d_38"/>
    <g id="text_21">
     <!-- Air Temp -->
     <g transform="translate(81.66 56.716562)scale(0.1 -0.1)">
      <use xlink:href="#DejaVuSans-65"/>
      <use x="68.408203" xlink:href="#DejaVuSans-105"/>
      <use x="96.191406" xlink:href="#DejaVuSans-114"/>
      <use x="137.304688" xlink:href="#DejaVuSans-32"/>
      <use x="169.091797" xlink:href="#DejaVuSans-84"/>
      <use x="213.175781" xlink:href="#DejaVuSans-101"/>
      <use x="274.699219" xlink:href="#DejaVuSans-109"/>
      <use x="372.111328" xlink:href="#DejaVuSans-112"/>
     </g>
    </g>
   </g>
  </g>
 </g>
 <defs>
  <clipPath id="pe1169e58c8">
   <rect height="230.198708" width="391.783865" x="44.66" y="25.44"/>
  </clipPath>
 </defs>
</svg>
