<?xml version="1.0" encoding="utf-8" standalone="no"?>
<!DOCTYPE svg PUBLIC "-//W3C//DTD SVG 1.1//EN"
  "http://www.w3.org/Graphics/SVG/1.1/DTD/svg11.dtd">
<!-- Created with matplotlib (https://matplotlib.org/) -->
<svg height="345.6pt" version="1.1" viewBox="0 0 460.8 345.6" width="460.8pt" xmlns="http://www.w3.org/2000/svg" xmlns:xlink="http://www.w3.org/1999/xlink">
 <metadata>
  <rdf:RDF xmlns:cc="http://creativecommons.org/ns#" xmlns:dc="http://purl.org/dc/elements/1.1/" xmlns:rdf="http://www.w3.org/1999/02/22-rdf-syntax-ns#">
   <cc:Work>
    <dc:type rdf:resource="http://purl.org/dc/dcmitype/StillImage"/>
    <dc:date>2024-09-08T06:59:02.681918</dc:date>
    <dc:format>image/svg+xml</dc:format>
    <dc:creator>
     <cc:Agent>
      <dc:title>Matplotlib v3.3.2, https://matplotlib.org/</dc:title>
     </cc:Agent>
    </dc:creator>
   </cc:Work>
  </rdf:RDF>
 </metadata>
 <defs>
  <style type="text/css">*{stroke-linecap:butt;stroke-linejoin:round;}</style>
 </defs>
 <g id="figure_1">
  <g id="patch_1">
   <path d="M 0 345.6 
L 460.8 345.6 
L 460.8 0 
L 0 0 
z
" style="fill:none;"/>
  </g>
  <g id="axes_1">
   <g id="patch_2">
    <path d="M 44.66 255.638708 
L 450 255.638708 
L 450 25.44 
L 44.66 25.44 
z
" style="fill:none;"/>
   </g>
   <g id="matplotlib.axis_1">
    <g id="xtick_1">
     <g id="line2d_1">
      <path clip-path="url(#p0b0d4a53f8)" d="M 44.934792 255.638708 
L 44.934792 25.44 
" style="fill:none;stroke:#b0b0b0;stroke-linecap:square;stroke-width:0.8;"/>
     </g>
     <g id="line2d_2">
      <defs>
       <path d="M 0 0 
L 0 3.5 
" id="m140fc356fc" style="stroke:#000000;stroke-width:0.8;"/>
      </defs>
      <g>
       <use style="stroke:#000000;stroke-width:0.8;" x="44.934792" xlink:href="#m140fc356fc" y="255.638708"/>
      </g>
     </g>
     <g id="text_1">
      <!-- 2024-08-27 -->
      <g transform="translate(37.589399 319.848351)rotate(-70)scale(0.1 -0.1)">
       <defs>
        <path d="M 19.1875 8.296875 
L 53.609375 8.296875 
L 53.609375 0 
L 7.328125 0 
L 7.328125 8.296875 
Q 12.9375 14.109375 22.625 23.890625 
Q 32.328125 33.6875 34.8125 36.53125 
Q 39.546875 41.84375 41.421875 45.53125 
Q 43.3125 49.21875 43.3125 52.78125 
Q 43.3125 58.59375 39.234375 62.25 
Q 35.15625 65.921875 28.609375 65.921875 
Q 23.96875 65.921875 18.8125 64.3125 
Q 13.671875 62.703125 7.8125 59.421875 
L 7.8125 69.390625 
Q 13.765625 71.78125 18.9375 73 
Q 24.125 74.21875 28.421875 74.21875 
Q 39.75 74.21875 46.484375 68.546875 
Q 53.21875 62.890625 53.21875 53.421875 
Q 53.21875 48.921875 51.53125 44.890625 
Q 49.859375 40.875 45.40625 35.40625 
Q 44.1875 33.984375 37.640625 27.21875 
Q 31.109375 20.453125 19.1875 8.296875 
z
" id="DejaVuSans-50"/>
        <path d="M 31.78125 66.40625 
Q 24.171875 66.40625 20.328125 58.90625 
Q 16.5 51.421875 16.5 36.375 
Q 16.5 21.390625 20.328125 13.890625 
Q 24.171875 6.390625 31.78125 6.390625 
Q 39.453125 6.390625 43.28125 13.890625 
Q 47.125 21.390625 47.125 36.375 
Q 47.125 51.421875 43.28125 58.90625 
Q 39.453125 66.40625 31.78125 66.40625 
z
M 31.78125 74.21875 
Q 44.046875 74.21875 50.515625 64.515625 
Q 56.984375 54.828125 56.984375 36.375 
Q 56.984375 17.96875 50.515625 8.265625 
Q 44.046875 -1.421875 31.78125 -1.421875 
Q 19.53125 -1.421875 13.0625 8.265625 
Q 6.59375 17.96875 6.59375 36.375 
Q 6.59375 54.828125 13.0625 64.515625 
Q 19.53125 74.21875 31.78125 74.21875 
z
" id="DejaVuSans-48"/>
        <path d="M 37.796875 64.3125 
L 12.890625 25.390625 
L 37.796875 25.390625 
z
M 35.203125 72.90625 
L 47.609375 72.90625 
L 47.609375 25.390625 
L 58.015625 25.390625 
L 58.015625 17.1875 
L 47.609375 17.1875 
L 47.609375 0 
L 37.796875 0 
L 37.796875 17.1875 
L 4.890625 17.1875 
L 4.890625 26.703125 
z
" id="DejaVuSans-52"/>
        <path d="M 4.890625 31.390625 
L 31.203125 31.390625 
L 31.203125 23.390625 
L 4.890625 23.390625 
z
" id="DejaVuSans-45"/>
        <path d="M 31.78125 34.625 
Q 24.75 34.625 20.71875 30.859375 
Q 16.703125 27.09375 16.703125 20.515625 
Q 16.703125 13.921875 20.71875 10.15625 
Q 24.75 6.390625 31.78125 6.390625 
Q 38.8125 6.390625 42.859375 10.171875 
Q 46.921875 13.96875 46.921875 20.515625 
Q 46.921875 27.09375 42.890625 30.859375 
Q 38.875 34.625 31.78125 34.625 
z
M 21.921875 38.8125 
Q 15.578125 40.375 12.03125 44.71875 
Q 8.5 49.078125 8.5 55.328125 
Q 8.5 64.0625 14.71875 69.140625 
Q 20.953125 74.21875 31.78125 74.21875 
Q 42.671875 74.21875 48.875 69.140625 
Q 55.078125 64.0625 55.078125 55.328125 
Q 55.078125 49.078125 51.53125 44.71875 
Q 48 40.375 41.703125 38.8125 
Q 48.828125 37.15625 52.796875 32.3125 
Q 56.78125 27.484375 56.78125 20.515625 
Q 56.78125 9.90625 50.3125 4.234375 
Q 43.84375 -1.421875 31.78125 -1.421875 
Q 19.734375 -1.421875 13.25 4.234375 
Q 6.78125 9.90625 6.78125 20.515625 
Q 6.78125 27.484375 10.78125 32.3125 
Q 14.796875 37.15625 21.921875 38.8125 
z
M 18.3125 54.390625 
Q 18.3125 48.734375 21.84375 45.5625 
Q 25.390625 42.390625 31.78125 42.390625 
Q 38.140625 42.390625 41.71875 45.5625 
Q 45.3125 48.734375 45.3125 54.390625 
Q 45.3125 60.0625 41.71875 63.234375 
Q 38.140625 66.40625 31.78125 66.40625 
Q 25.390625 66.40625 21.84375 63.234375 
Q 18.3125 60.0625 18.3125 54.390625 
z
" id="DejaVuSans-56"/>
        <path d="M 8.203125 72.90625 
L 55.078125 72.90625 
L 55.078125 68.703125 
L 28.609375 0 
L 18.3125 0 
L 43.21875 64.59375 
L 8.203125 64.59375 
z
" id="DejaVuSans-55"/>
       </defs>
       <use xlink:href="#DejaVuSans-50"/>
       <use x="63.623047" xlink:href="#DejaVuSans-48"/>
       <use x="127.246094" xlink:href="#DejaVuSans-50"/>
       <use x="190.869141" xlink:href="#DejaVuSans-52"/>
       <use x="254.492188" xlink:href="#DejaVuSans-45"/>
       <use x="290.576172" xlink:href="#DejaVuSans-48"/>
       <use x="354.199219" xlink:href="#DejaVuSans-56"/>
       <use x="417.822266" xlink:href="#DejaVuSans-45"/>
       <use x="453.90625" xlink:href="#DejaVuSans-50"/>
       <use x="517.529297" xlink:href="#DejaVuSans-55"/>
      </g>
     </g>
    </g>
    <g id="xtick_2">
     <g id="line2d_3">
      <path clip-path="url(#p0b0d4a53f8)" d="M 107.853285 255.638708 
L 107.853285 25.44 
" style="fill:none;stroke:#b0b0b0;stroke-linecap:square;stroke-width:0.8;"/>
     </g>
     <g id="line2d_4">
      <g>
       <use style="stroke:#000000;stroke-width:0.8;" x="107.853285" xlink:href="#m140fc356fc" y="255.638708"/>
      </g>
     </g>
     <g id="text_2">
      <!-- 2024-08-29 -->
      <g transform="translate(100.507892 319.848351)rotate(-70)scale(0.1 -0.1)">
       <defs>
        <path d="M 10.984375 1.515625 
L 10.984375 10.5 
Q 14.703125 8.734375 18.5 7.8125 
Q 22.3125 6.890625 25.984375 6.890625 
Q 35.75 6.890625 40.890625 13.453125 
Q 46.046875 20.015625 46.78125 33.40625 
Q 43.953125 29.203125 39.59375 26.953125 
Q 35.25 24.703125 29.984375 24.703125 
Q 19.046875 24.703125 12.671875 31.3125 
Q 6.296875 37.9375 6.296875 49.421875 
Q 6.296875 60.640625 12.9375 67.421875 
Q 19.578125 74.21875 30.609375 74.21875 
Q 43.265625 74.21875 49.921875 64.515625 
Q 56.59375 54.828125 56.59375 36.375 
Q 56.59375 19.140625 48.40625 8.859375 
Q 40.234375 -1.421875 26.421875 -1.421875 
Q 22.703125 -1.421875 18.890625 -0.6875 
Q 15.09375 0.046875 10.984375 1.515625 
z
M 30.609375 32.421875 
Q 37.25 32.421875 41.125 36.953125 
Q 45.015625 41.5 45.015625 49.421875 
Q 45.015625 57.28125 41.125 61.84375 
Q 37.25 66.40625 30.609375 66.40625 
Q 23.96875 66.40625 20.09375 61.84375 
Q 16.21875 57.28125 16.21875 49.421875 
Q 16.21875 41.5 20.09375 36.953125 
Q 23.96875 32.421875 30.609375 32.421875 
z
" id="DejaVuSans-57"/>
       </defs>
       <use xlink:href="#DejaVuSans-50"/>
       <use x="63.623047" xlink:href="#DejaVuSans-48"/>
       <use x="127.246094" xlink:href="#DejaVuSans-50"/>
       <use x="190.869141" xlink:href="#DejaVuSans-52"/>
       <use x="254.492188" xlink:href="#DejaVuSans-45"/>
       <use x="290.576172" xlink:href="#DejaVuSans-48"/>
       <use x="354.199219" xlink:href="#DejaVuSans-56"/>
       <use x="417.822266" xlink:href="#DejaVuSans-45"/>
       <use x="453.90625" xlink:href="#DejaVuSans-50"/>
       <use x="517.529297" xlink:href="#DejaVuSans-57"/>
      </g>
     </g>
    </g>
    <g id="xtick_3">
     <g id="line2d_5">
      <path clip-path="url(#p0b0d4a53f8)" d="M 170.771777 255.638708 
L 170.771777 25.44 
" style="fill:none;stroke:#b0b0b0;stroke-linecap:square;stroke-width:0.8;"/>
     </g>
     <g id="line2d_6">
      <g>
       <use style="stroke:#000000;stroke-width:0.8;" x="170.771777" xlink:href="#m140fc356fc" y="255.638708"/>
      </g>
     </g>
     <g id="text_3">
      <!-- 2024-08-31 -->
      <g transform="translate(163.426384 319.848351)rotate(-70)scale(0.1 -0.1)">
       <defs>
        <path d="M 40.578125 39.3125 
Q 47.65625 37.796875 51.625 33 
Q 55.609375 28.21875 55.609375 21.1875 
Q 55.609375 10.40625 48.1875 4.484375 
Q 40.765625 -1.421875 27.09375 -1.421875 
Q 22.515625 -1.421875 17.65625 -0.515625 
Q 12.796875 0.390625 7.625 2.203125 
L 7.625 11.71875 
Q 11.71875 9.328125 16.59375 8.109375 
Q 21.484375 6.890625 26.8125 6.890625 
Q 36.078125 6.890625 40.9375 10.546875 
Q 45.796875 14.203125 45.796875 21.1875 
Q 45.796875 27.640625 41.28125 31.265625 
Q 36.765625 34.90625 28.71875 34.90625 
L 20.21875 34.90625 
L 20.21875 43.015625 
L 29.109375 43.015625 
Q 36.375 43.015625 40.234375 45.921875 
Q 44.09375 48.828125 44.09375 54.296875 
Q 44.09375 59.90625 40.109375 62.90625 
Q 36.140625 65.921875 28.71875 65.921875 
Q 24.65625 65.921875 20.015625 65.03125 
Q 15.375 64.15625 9.8125 62.3125 
L 9.8125 71.09375 
Q 15.4375 72.65625 20.34375 73.4375 
Q 25.25 74.21875 29.59375 74.21875 
Q 40.828125 74.21875 47.359375 69.109375 
Q 53.90625 64.015625 53.90625 55.328125 
Q 53.90625 49.265625 50.4375 45.09375 
Q 46.96875 40.921875 40.578125 39.3125 
z
" id="DejaVuSans-51"/>
        <path d="M 12.40625 8.296875 
L 28.515625 8.296875 
L 28.515625 63.921875 
L 10.984375 60.40625 
L 10.984375 69.390625 
L 28.421875 72.90625 
L 38.28125 72.90625 
L 38.28125 8.296875 
L 54.390625 8.296875 
L 54.390625 0 
L 12.40625 0 
z
" id="DejaVuSans-49"/>
       </defs>
       <use xlink:href="#DejaVuSans-50"/>
       <use x="63.623047" xlink:href="#DejaVuSans-48"/>
       <use x="127.246094" xlink:href="#DejaVuSans-50"/>
       <use x="190.869141" xlink:href="#DejaVuSans-52"/>
       <use x="254.492188" xlink:href="#DejaVuSans-45"/>
       <use x="290.576172" xlink:href="#DejaVuSans-48"/>
       <use x="354.199219" xlink:href="#DejaVuSans-56"/>
       <use x="417.822266" xlink:href="#DejaVuSans-45"/>
       <use x="453.90625" xlink:href="#DejaVuSans-51"/>
       <use x="517.529297" xlink:href="#DejaVuSans-49"/>
      </g>
     </g>
    </g>
    <g id="xtick_4">
     <g id="line2d_7">
      <path clip-path="url(#p0b0d4a53f8)" d="M 202.231024 255.638708 
L 202.231024 25.44 
" style="fill:none;stroke:#b0b0b0;stroke-linecap:square;stroke-width:0.8;"/>
     </g>
     <g id="line2d_8">
      <g>
       <use style="stroke:#000000;stroke-width:0.8;" x="202.231024" xlink:href="#m140fc356fc" y="255.638708"/>
      </g>
     </g>
     <g id="text_4">
      <!-- 2024-09-01 -->
      <g transform="translate(194.885631 319.848351)rotate(-70)scale(0.1 -0.1)">
       <use xlink:href="#DejaVuSans-50"/>
       <use x="63.623047" xlink:href="#DejaVuSans-48"/>
       <use x="127.246094" xlink:href="#DejaVuSans-50"/>
       <use x="190.869141" xlink:href="#DejaVuSans-52"/>
       <use x="254.492188" xlink:href="#DejaVuSans-45"/>
       <use x="290.576172" xlink:href="#DejaVuSans-48"/>
       <use x="354.199219" xlink:href="#DejaVuSans-57"/>
       <use x="417.822266" xlink:href="#DejaVuSans-45"/>
       <use x="453.90625" xlink:href="#DejaVuSans-48"/>
       <use x="517.529297" xlink:href="#DejaVuSans-49"/>
      </g>
     </g>
    </g>
    <g id="xtick_5">
     <g id="line2d_9">
      <path clip-path="url(#p0b0d4a53f8)" d="M 265.149516 255.638708 
L 265.149516 25.44 
" style="fill:none;stroke:#b0b0b0;stroke-linecap:square;stroke-width:0.8;"/>
     </g>
     <g id="line2d_10">
      <g>
       <use style="stroke:#000000;stroke-width:0.8;" x="265.149516" xlink:href="#m140fc356fc" y="255.638708"/>
      </g>
     </g>
     <g id="text_5">
      <!-- 2024-09-03 -->
      <g transform="translate(257.804124 319.848351)rotate(-70)scale(0.1 -0.1)">
       <use xlink:href="#DejaVuSans-50"/>
       <use x="63.623047" xlink:href="#DejaVuSans-48"/>
       <use x="127.246094" xlink:href="#DejaVuSans-50"/>
       <use x="190.869141" xlink:href="#DejaVuSans-52"/>
       <use x="254.492188" xlink:href="#DejaVuSans-45"/>
       <use x="290.576172" xlink:href="#DejaVuSans-48"/>
       <use x="354.199219" xlink:href="#DejaVuSans-57"/>
       <use x="417.822266" xlink:href="#DejaVuSans-45"/>
       <use x="453.90625" xlink:href="#DejaVuSans-48"/>
       <use x="517.529297" xlink:href="#DejaVuSans-51"/>
      </g>
     </g>
    </g>
    <g id="xtick_6">
     <g id="line2d_11">
      <path clip-path="url(#p0b0d4a53f8)" d="M 328.068009 255.638708 
L 328.068009 25.44 
" style="fill:none;stroke:#b0b0b0;stroke-linecap:square;stroke-width:0.8;"/>
     </g>
     <g id="line2d_12">
      <g>
       <use style="stroke:#000000;stroke-width:0.8;" x="328.068009" xlink:href="#m140fc356fc" y="255.638708"/>
      </g>
     </g>
     <g id="text_6">
      <!-- 2024-09-05 -->
      <g transform="translate(320.722616 319.848351)rotate(-70)scale(0.1 -0.1)">
       <defs>
        <path d="M 10.796875 72.90625 
L 49.515625 72.90625 
L 49.515625 64.59375 
L 19.828125 64.59375 
L 19.828125 46.734375 
Q 21.96875 47.46875 24.109375 47.828125 
Q 26.265625 48.1875 28.421875 48.1875 
Q 40.625 48.1875 47.75 41.5 
Q 54.890625 34.8125 54.890625 23.390625 
Q 54.890625 11.625 47.5625 5.09375 
Q 40.234375 -1.421875 26.90625 -1.421875 
Q 22.3125 -1.421875 17.546875 -0.640625 
Q 12.796875 0.140625 7.71875 1.703125 
L 7.71875 11.625 
Q 12.109375 9.234375 16.796875 8.0625 
Q 21.484375 6.890625 26.703125 6.890625 
Q 35.15625 6.890625 40.078125 11.328125 
Q 45.015625 15.765625 45.015625 23.390625 
Q 45.015625 31 40.078125 35.4375 
Q 35.15625 39.890625 26.703125 39.890625 
Q 22.75 39.890625 18.8125 39.015625 
Q 14.890625 38.140625 10.796875 36.28125 
z
" id="DejaVuSans-53"/>
       </defs>
       <use xlink:href="#DejaVuSans-50"/>
       <use x="63.623047" xlink:href="#DejaVuSans-48"/>
       <use x="127.246094" xlink:href="#DejaVuSans-50"/>
       <use x="190.869141" xlink:href="#DejaVuSans-52"/>
       <use x="254.492188" xlink:href="#DejaVuSans-45"/>
       <use x="290.576172" xlink:href="#DejaVuSans-48"/>
       <use x="354.199219" xlink:href="#DejaVuSans-57"/>
       <use x="417.822266" xlink:href="#DejaVuSans-45"/>
       <use x="453.90625" xlink:href="#DejaVuSans-48"/>
       <use x="517.529297" xlink:href="#DejaVuSans-53"/>
      </g>
     </g>
    </g>
    <g id="xtick_7">
     <g id="line2d_13">
      <path clip-path="url(#p0b0d4a53f8)" d="M 390.986502 255.638708 
L 390.986502 25.44 
" style="fill:none;stroke:#b0b0b0;stroke-linecap:square;stroke-width:0.8;"/>
     </g>
     <g id="line2d_14">
      <g>
       <use style="stroke:#000000;stroke-width:0.8;" x="390.986502" xlink:href="#m140fc356fc" y="255.638708"/>
      </g>
     </g>
     <g id="text_7">
      <!-- 2024-09-07 -->
      <g transform="translate(383.641109 319.848351)rotate(-70)scale(0.1 -0.1)">
       <use xlink:href="#DejaVuSans-50"/>
       <use x="63.623047" xlink:href="#DejaVuSans-48"/>
       <use x="127.246094" xlink:href="#DejaVuSans-50"/>
       <use x="190.869141" xlink:href="#DejaVuSans-52"/>
       <use x="254.492188" xlink:href="#DejaVuSans-45"/>
       <use x="290.576172" xlink:href="#DejaVuSans-48"/>
       <use x="354.199219" xlink:href="#DejaVuSans-57"/>
       <use x="417.822266" xlink:href="#DejaVuSans-45"/>
       <use x="453.90625" xlink:href="#DejaVuSans-48"/>
       <use x="517.529297" xlink:href="#DejaVuSans-55"/>
      </g>
     </g>
    </g>
    <g id="text_8">
     <!-- Date -->
     <g transform="translate(235.379219 332.158083)scale(0.1 -0.1)">
      <defs>
       <path d="M 19.671875 64.796875 
L 19.671875 8.109375 
L 31.59375 8.109375 
Q 46.6875 8.109375 53.6875 14.9375 
Q 60.6875 21.78125 60.6875 36.53125 
Q 60.6875 51.171875 53.6875 57.984375 
Q 46.6875 64.796875 31.59375 64.796875 
z
M 9.8125 72.90625 
L 30.078125 72.90625 
Q 51.265625 72.90625 61.171875 64.09375 
Q 71.09375 55.28125 71.09375 36.53125 
Q 71.09375 17.671875 61.125 8.828125 
Q 51.171875 0 30.078125 0 
L 9.8125 0 
z
" id="DejaVuSans-68"/>
       <path d="M 34.28125 27.484375 
Q 23.390625 27.484375 19.1875 25 
Q 14.984375 22.515625 14.984375 16.5 
Q 14.984375 11.71875 18.140625 8.90625 
Q 21.296875 6.109375 26.703125 6.109375 
Q 34.1875 6.109375 38.703125 11.40625 
Q 43.21875 16.703125 43.21875 25.484375 
L 43.21875 27.484375 
z
M 52.203125 31.203125 
L 52.203125 0 
L 43.21875 0 
L 43.21875 8.296875 
Q 40.140625 3.328125 35.546875 0.953125 
Q 30.953125 -1.421875 24.3125 -1.421875 
Q 15.921875 -1.421875 10.953125 3.296875 
Q 6 8.015625 6 15.921875 
Q 6 25.140625 12.171875 29.828125 
Q 18.359375 34.515625 30.609375 34.515625 
L 43.21875 34.515625 
L 43.21875 35.40625 
Q 43.21875 41.609375 39.140625 45 
Q 35.0625 48.390625 27.6875 48.390625 
Q 23 48.390625 18.546875 47.265625 
Q 14.109375 46.140625 10.015625 43.890625 
L 10.015625 52.203125 
Q 14.9375 54.109375 19.578125 55.046875 
Q 24.21875 56 28.609375 56 
Q 40.484375 56 46.34375 49.84375 
Q 52.203125 43.703125 52.203125 31.203125 
z
" id="DejaVuSans-97"/>
       <path d="M 18.3125 70.21875 
L 18.3125 54.6875 
L 36.8125 54.6875 
L 36.8125 47.703125 
L 18.3125 47.703125 
L 18.3125 18.015625 
Q 18.3125 11.328125 20.140625 9.421875 
Q 21.96875 7.515625 27.59375 7.515625 
L 36.8125 7.515625 
L 36.8125 0 
L 27.59375 0 
Q 17.1875 0 13.234375 3.875 
Q 9.28125 7.765625 9.28125 18.015625 
L 9.28125 47.703125 
L 2.6875 47.703125 
L 2.6875 54.6875 
L 9.28125 54.6875 
L 9.28125 70.21875 
z
" id="DejaVuSans-116"/>
       <path d="M 56.203125 29.59375 
L 56.203125 25.203125 
L 14.890625 25.203125 
Q 15.484375 15.921875 20.484375 11.0625 
Q 25.484375 6.203125 34.421875 6.203125 
Q 39.59375 6.203125 44.453125 7.46875 
Q 49.3125 8.734375 54.109375 11.28125 
L 54.109375 2.78125 
Q 49.265625 0.734375 44.1875 -0.34375 
Q 39.109375 -1.421875 33.890625 -1.421875 
Q 20.796875 -1.421875 13.15625 6.1875 
Q 5.515625 13.8125 5.515625 26.8125 
Q 5.515625 40.234375 12.765625 48.109375 
Q 20.015625 56 32.328125 56 
Q 43.359375 56 49.78125 48.890625 
Q 56.203125 41.796875 56.203125 29.59375 
z
M 47.21875 32.234375 
Q 47.125 39.59375 43.09375 43.984375 
Q 39.0625 48.390625 32.421875 48.390625 
Q 24.90625 48.390625 20.390625 44.140625 
Q 15.875 39.890625 15.1875 32.171875 
z
" id="DejaVuSans-101"/>
      </defs>
      <use xlink:href="#DejaVuSans-68"/>
      <use x="77.001953" xlink:href="#DejaVuSans-97"/>
      <use x="138.28125" xlink:href="#DejaVuSans-116"/>
      <use x="177.490234" xlink:href="#DejaVuSans-101"/>
     </g>
    </g>
   </g>
   <g id="matplotlib.axis_2">
    <g id="ytick_1">
     <g id="line2d_15">
      <path clip-path="url(#p0b0d4a53f8)" d="M 44.66 226.204338 
L 450 226.204338 
" style="fill:none;stroke:#b0b0b0;stroke-linecap:square;stroke-width:0.8;"/>
     </g>
     <g id="line2d_16">
      <defs>
       <path d="M 0 0 
L -3.5 0 
" id="m50626f9624" style="stroke:#000000;stroke-width:0.8;"/>
      </defs>
      <g>
       <use style="stroke:#000000;stroke-width:0.8;" x="44.66" xlink:href="#m50626f9624" y="226.204338"/>
      </g>
     </g>
     <g id="text_9">
      <!-- 55 -->
      <g transform="translate(24.935 230.003557)scale(0.1 -0.1)">
       <use xlink:href="#DejaVuSans-53"/>
       <use x="63.623047" xlink:href="#DejaVuSans-53"/>
      </g>
     </g>
    </g>
    <g id="ytick_2">
     <g id="line2d_17">
      <path clip-path="url(#p0b0d4a53f8)" d="M 44.66 196.562475 
L 450 196.562475 
" style="fill:none;stroke:#b0b0b0;stroke-linecap:square;stroke-width:0.8;"/>
     </g>
     <g id="line2d_18">
      <g>
       <use style="stroke:#000000;stroke-width:0.8;" x="44.66" xlink:href="#m50626f9624" y="196.562475"/>
      </g>
     </g>
     <g id="text_10">
      <!-- 60 -->
      <g transform="translate(24.935 200.361694)scale(0.1 -0.1)">
       <defs>
        <path d="M 33.015625 40.375 
Q 26.375 40.375 22.484375 35.828125 
Q 18.609375 31.296875 18.609375 23.390625 
Q 18.609375 15.53125 22.484375 10.953125 
Q 26.375 6.390625 33.015625 6.390625 
Q 39.65625 6.390625 43.53125 10.953125 
Q 47.40625 15.53125 47.40625 23.390625 
Q 47.40625 31.296875 43.53125 35.828125 
Q 39.65625 40.375 33.015625 40.375 
z
M 52.59375 71.296875 
L 52.59375 62.3125 
Q 48.875 64.0625 45.09375 64.984375 
Q 41.3125 65.921875 37.59375 65.921875 
Q 27.828125 65.921875 22.671875 59.328125 
Q 17.53125 52.734375 16.796875 39.40625 
Q 19.671875 43.65625 24.015625 45.921875 
Q 28.375 48.1875 33.59375 48.1875 
Q 44.578125 48.1875 50.953125 41.515625 
Q 57.328125 34.859375 57.328125 23.390625 
Q 57.328125 12.15625 50.6875 5.359375 
Q 44.046875 -1.421875 33.015625 -1.421875 
Q 20.359375 -1.421875 13.671875 8.265625 
Q 6.984375 17.96875 6.984375 36.375 
Q 6.984375 53.65625 15.1875 63.9375 
Q 23.390625 74.21875 37.203125 74.21875 
Q 40.921875 74.21875 44.703125 73.484375 
Q 48.484375 72.75 52.59375 71.296875 
z
" id="DejaVuSans-54"/>
       </defs>
       <use xlink:href="#DejaVuSans-54"/>
       <use x="63.623047" xlink:href="#DejaVuSans-48"/>
      </g>
     </g>
    </g>
    <g id="ytick_3">
     <g id="line2d_19">
      <path clip-path="url(#p0b0d4a53f8)" d="M 44.66 166.920612 
L 450 166.920612 
" style="fill:none;stroke:#b0b0b0;stroke-linecap:square;stroke-width:0.8;"/>
     </g>
     <g id="line2d_20">
      <g>
       <use style="stroke:#000000;stroke-width:0.8;" x="44.66" xlink:href="#m50626f9624" y="166.920612"/>
      </g>
     </g>
     <g id="text_11">
      <!-- 65 -->
      <g transform="translate(24.935 170.719831)scale(0.1 -0.1)">
       <use xlink:href="#DejaVuSans-54"/>
       <use x="63.623047" xlink:href="#DejaVuSans-53"/>
      </g>
     </g>
    </g>
    <g id="ytick_4">
     <g id="line2d_21">
      <path clip-path="url(#p0b0d4a53f8)" d="M 44.66 137.278749 
L 450 137.278749 
" style="fill:none;stroke:#b0b0b0;stroke-linecap:square;stroke-width:0.8;"/>
     </g>
     <g id="line2d_22">
      <g>
       <use style="stroke:#000000;stroke-width:0.8;" x="44.66" xlink:href="#m50626f9624" y="137.278749"/>
      </g>
     </g>
     <g id="text_12">
      <!-- 70 -->
      <g transform="translate(24.935 141.077968)scale(0.1 -0.1)">
       <use xlink:href="#DejaVuSans-55"/>
       <use x="63.623047" xlink:href="#DejaVuSans-48"/>
      </g>
     </g>
    </g>
    <g id="ytick_5">
     <g id="line2d_23">
      <path clip-path="url(#p0b0d4a53f8)" d="M 44.66 107.636886 
L 450 107.636886 
" style="fill:none;stroke:#b0b0b0;stroke-linecap:square;stroke-width:0.8;"/>
     </g>
     <g id="line2d_24">
      <g>
       <use style="stroke:#000000;stroke-width:0.8;" x="44.66" xlink:href="#m50626f9624" y="107.636886"/>
      </g>
     </g>
     <g id="text_13">
      <!-- 75 -->
      <g transform="translate(24.935 111.436105)scale(0.1 -0.1)">
       <use xlink:href="#DejaVuSans-55"/>
       <use x="63.623047" xlink:href="#DejaVuSans-53"/>
      </g>
     </g>
    </g>
    <g id="ytick_6">
     <g id="line2d_25">
      <path clip-path="url(#p0b0d4a53f8)" d="M 44.66 77.995023 
L 450 77.995023 
" style="fill:none;stroke:#b0b0b0;stroke-linecap:square;stroke-width:0.8;"/>
     </g>
     <g id="line2d_26">
      <g>
       <use style="stroke:#000000;stroke-width:0.8;" x="44.66" xlink:href="#m50626f9624" y="77.995023"/>
      </g>
     </g>
     <g id="text_14">
      <!-- 80 -->
      <g transform="translate(24.935 81.794242)scale(0.1 -0.1)">
       <use xlink:href="#DejaVuSans-56"/>
       <use x="63.623047" xlink:href="#DejaVuSans-48"/>
      </g>
     </g>
    </g>
    <g id="ytick_7">
     <g id="line2d_27">
      <path clip-path="url(#p0b0d4a53f8)" d="M 44.66 48.35316 
L 450 48.35316 
" style="fill:none;stroke:#b0b0b0;stroke-linecap:square;stroke-width:0.8;"/>
     </g>
     <g id="line2d_28">
      <g>
       <use style="stroke:#000000;stroke-width:0.8;" x="44.66" xlink:href="#m50626f9624" y="48.35316"/>
      </g>
     </g>
     <g id="text_15">
      <!-- 85 -->
      <g transform="translate(24.935 52.152379)scale(0.1 -0.1)">
       <use xlink:href="#DejaVuSans-56"/>
       <use x="63.623047" xlink:href="#DejaVuSans-53"/>
      </g>
     </g>
    </g>
    <g id="text_16">
     <!-- Temperature [F] -->
     <g transform="translate(18.855313 180.575291)rotate(-90)scale(0.1 -0.1)">
      <defs>
       <path d="M -0.296875 72.90625 
L 61.375 72.90625 
L 61.375 64.59375 
L 35.5 64.59375 
L 35.5 0 
L 25.59375 0 
L 25.59375 64.59375 
L -0.296875 64.59375 
z
" id="DejaVuSans-84"/>
       <path d="M 52 44.1875 
Q 55.375 50.25 60.0625 53.125 
Q 64.75 56 71.09375 56 
Q 79.640625 56 84.28125 50.015625 
Q 88.921875 44.046875 88.921875 33.015625 
L 88.921875 0 
L 79.890625 0 
L 79.890625 32.71875 
Q 79.890625 40.578125 77.09375 44.375 
Q 74.3125 48.1875 68.609375 48.1875 
Q 61.625 48.1875 57.5625 43.546875 
Q 53.515625 38.921875 53.515625 30.90625 
L 53.515625 0 
L 44.484375 0 
L 44.484375 32.71875 
Q 44.484375 40.625 41.703125 44.40625 
Q 38.921875 48.1875 33.109375 48.1875 
Q 26.21875 48.1875 22.15625 43.53125 
Q 18.109375 38.875 18.109375 30.90625 
L 18.109375 0 
L 9.078125 0 
L 9.078125 54.6875 
L 18.109375 54.6875 
L 18.109375 46.1875 
Q 21.1875 51.21875 25.484375 53.609375 
Q 29.78125 56 35.6875 56 
Q 41.65625 56 45.828125 52.96875 
Q 50 49.953125 52 44.1875 
z
" id="DejaVuSans-109"/>
       <path d="M 18.109375 8.203125 
L 18.109375 -20.796875 
L 9.078125 -20.796875 
L 9.078125 54.6875 
L 18.109375 54.6875 
L 18.109375 46.390625 
Q 20.953125 51.265625 25.265625 53.625 
Q 29.59375 56 35.59375 56 
Q 45.5625 56 51.78125 48.09375 
Q 58.015625 40.1875 58.015625 27.296875 
Q 58.015625 14.40625 51.78125 6.484375 
Q 45.5625 -1.421875 35.59375 -1.421875 
Q 29.59375 -1.421875 25.265625 0.953125 
Q 20.953125 3.328125 18.109375 8.203125 
z
M 48.6875 27.296875 
Q 48.6875 37.203125 44.609375 42.84375 
Q 40.53125 48.484375 33.40625 48.484375 
Q 26.265625 48.484375 22.1875 42.84375 
Q 18.109375 37.203125 18.109375 27.296875 
Q 18.109375 17.390625 22.1875 11.75 
Q 26.265625 6.109375 33.40625 6.109375 
Q 40.53125 6.109375 44.609375 11.75 
Q 48.6875 17.390625 48.6875 27.296875 
z
" id="DejaVuSans-112"/>
       <path d="M 41.109375 46.296875 
Q 39.59375 47.171875 37.8125 47.578125 
Q 36.03125 48 33.890625 48 
Q 26.265625 48 22.1875 43.046875 
Q 18.109375 38.09375 18.109375 28.8125 
L 18.109375 0 
L 9.078125 0 
L 9.078125 54.6875 
L 18.109375 54.6875 
L 18.109375 46.1875 
Q 20.953125 51.171875 25.484375 53.578125 
Q 30.03125 56 36.53125 56 
Q 37.453125 56 38.578125 55.875 
Q 39.703125 55.765625 41.0625 55.515625 
z
" id="DejaVuSans-114"/>
       <path d="M 8.5 21.578125 
L 8.5 54.6875 
L 17.484375 54.6875 
L 17.484375 21.921875 
Q 17.484375 14.15625 20.5 10.265625 
Q 23.53125 6.390625 29.59375 6.390625 
Q 36.859375 6.390625 41.078125 11.03125 
Q 45.3125 15.671875 45.3125 23.6875 
L 45.3125 54.6875 
L 54.296875 54.6875 
L 54.296875 0 
L 45.3125 0 
L 45.3125 8.40625 
Q 42.046875 3.421875 37.71875 1 
Q 33.40625 -1.421875 27.6875 -1.421875 
Q 18.265625 -1.421875 13.375 4.4375 
Q 8.5 10.296875 8.5 21.578125 
z
M 31.109375 56 
z
" id="DejaVuSans-117"/>
       <path id="DejaVuSans-32"/>
       <path d="M 8.59375 75.984375 
L 29.296875 75.984375 
L 29.296875 69 
L 17.578125 69 
L 17.578125 -6.203125 
L 29.296875 -6.203125 
L 29.296875 -13.1875 
L 8.59375 -13.1875 
z
" id="DejaVuSans-91"/>
       <path d="M 9.8125 72.90625 
L 51.703125 72.90625 
L 51.703125 64.59375 
L 19.671875 64.59375 
L 19.671875 43.109375 
L 48.578125 43.109375 
L 48.578125 34.8125 
L 19.671875 34.8125 
L 19.671875 0 
L 9.8125 0 
z
" id="DejaVuSans-70"/>
       <path d="M 30.421875 75.984375 
L 30.421875 -13.1875 
L 9.71875 -13.1875 
L 9.71875 -6.203125 
L 21.390625 -6.203125 
L 21.390625 69 
L 9.71875 69 
L 9.71875 75.984375 
z
" id="DejaVuSans-93"/>
      </defs>
      <use xlink:href="#DejaVuSans-84"/>
      <use x="44.083984" xlink:href="#DejaVuSans-101"/>
      <use x="105.607422" xlink:href="#DejaVuSans-109"/>
      <use x="203.019531" xlink:href="#DejaVuSans-112"/>
      <use x="266.496094" xlink:href="#DejaVuSans-101"/>
      <use x="328.019531" xlink:href="#DejaVuSans-114"/>
      <use x="369.132812" xlink:href="#DejaVuSans-97"/>
      <use x="430.412109" xlink:href="#DejaVuSans-116"/>
      <use x="469.621094" xlink:href="#DejaVuSans-117"/>
      <use x="533" xlink:href="#DejaVuSans-114"/>
      <use x="571.863281" xlink:href="#DejaVuSans-101"/>
      <use x="633.386719" xlink:href="#DejaVuSans-32"/>
      <use x="665.173828" xlink:href="#DejaVuSans-91"/>
      <use x="704.1875" xlink:href="#DejaVuSans-70"/>
      <use x="761.707031" xlink:href="#DejaVuSans-93"/>
     </g>
    </g>
   </g>
   <g id="line2d_29">
    <path clip-path="url(#p0b0d4a53f8)" d="M 63.084545 143.799959 
L 63.13256 143.799959 
L 63.246166 143.207122 
L 63.359602 143.207122 
L 63.382298 143.799959 
L 63.428076 142.614284 
L 63.450659 143.207122 
L 63.473271 143.207122 
L 63.587585 142.614284 
L 63.633891 142.614284 
L 63.703165 142.021447 
L 63.725804 142.614284 
L 63.795871 142.614284 
L 63.841305 143.207122 
L 63.864077 142.614284 
L 63.933904 143.207122 
L 63.979431 142.021447 
L 64.026205 142.021447 
L 64.118895 140.835773 
L 64.141451 142.021447 
L 64.164502 140.242935 
L 64.210316 140.835773 
L 64.324844 140.242935 
L 64.347602 140.242935 
L 64.463943 139.650098 
L 64.555047 140.835773 
L 64.671709 139.650098 
L 64.809267 140.835773 
L 64.831947 140.835773 
L 64.854557 140.242935 
L 64.92457 140.835773 
L 64.947969 140.835773 
L 65.110326 139.057261 
L 65.180114 140.242935 
L 65.203544 139.057261 
L 65.297286 139.057261 
L 65.321034 138.464424 
L 65.366605 139.057261 
L 65.389602 139.650098 
L 65.475431 139.057261 
L 65.520733 139.057261 
L 65.567616 138.464424 
L 65.614722 139.057261 
L 65.731936 140.835773 
L 65.754582 140.242935 
L 65.778993 140.242935 
L 65.900922 142.021447 
L 66.038499 140.242935 
L 66.155087 140.835773 
L 66.223815 140.242935 
L 66.247551 140.835773 
L 66.294654 140.242935 
L 66.363177 142.021447 
L 66.389259 142.021447 
L 66.479888 140.242935 
L 66.50247 140.835773 
L 66.525704 140.835773 
L 66.617898 143.207122 
L 66.642228 142.021447 
L 66.664803 140.835773 
L 66.68741 143.207122 
L 66.710948 144.392796 
L 66.757648 142.021447 
L 66.780192 142.614284 
L 66.853138 140.242935 
L 66.876126 143.207122 
L 66.898721 142.021447 
L 66.921246 144.392796 
L 66.99312 142.614284 
L 67.132511 144.392796 
L 67.248894 144.985633 
L 67.457219 144.985633 
L 67.549447 145.578471 
L 67.619268 144.985633 
L 67.64193 145.578471 
L 67.665301 145.578471 
L 67.710661 144.392796 
L 67.757345 145.578471 
L 67.781907 145.578471 
L 67.850949 143.207122 
L 67.874726 144.985633 
L 67.898515 146.764145 
L 67.99104 145.578471 
L 68.01448 145.578471 
L 68.154224 143.799959 
L 68.270484 144.392796 
L 68.293185 144.392796 
L 68.362231 144.985633 
L 68.385078 143.207122 
L 68.455018 145.578471 
L 68.501903 144.392796 
L 68.615991 145.578471 
L 68.639062 144.392796 
L 68.730983 144.985633 
L 68.800331 144.985633 
L 68.918316 145.578471 
L 69.059542 144.392796 
L 69.196548 145.578471 
L 69.49599 145.578471 
L 69.611756 146.764145 
L 70.008853 146.764145 
L 70.102869 147.356982 
L 70.217591 146.764145 
L 70.332933 147.356982 
L 70.701312 147.356982 
L 70.724248 147.94982 
L 70.746955 147.356982 
L 128.884846 147.94982 
L 128.90833 147.356982 
L 129.183461 145.578471 
L 129.302513 147.356982 
L 129.325801 145.578471 
L 129.421254 146.764145 
L 129.444658 146.764145 
L 129.56209 143.207122 
L 129.584703 144.985633 
L 129.638018 144.985633 
L 129.812025 146.764145 
L 129.886174 146.764145 
L 129.908756 147.356982 
L 129.932394 145.578471 
L 129.95607 145.578471 
L 129.979331 146.764145 
L 130.002977 144.985633 
L 130.02802 144.985633 
L 130.101663 140.242935 
L 130.14425 143.207122 
L 130.264538 145.578471 
L 130.290564 144.392796 
L 130.360311 145.578471 
L 130.382924 145.578471 
L 130.417477 146.764145 
L 130.46366 145.578471 
L 130.491797 144.985633 
L 130.56544 145.578471 
L 130.588037 145.578471 
L 130.705519 139.650098 
L 130.820105 145.578471 
L 130.911857 139.057261 
L 130.981517 140.242935 
L 131.07271 144.985633 
L 131.129753 146.764145 
L 131.152307 144.985633 
L 131.283592 144.392796 
L 131.306983 144.392796 
L 131.330896 143.799959 
L 131.35359 144.392796 
L 131.446747 146.764145 
L 131.469671 145.578471 
L 131.520661 145.578471 
L 131.667204 139.650098 
L 131.821708 146.764145 
L 131.892868 144.392796 
L 131.937966 145.578471 
L 131.960919 145.578471 
L 131.984816 146.764145 
L 132.00734 144.985633 
L 132.030785 145.578471 
L 132.123615 145.578471 
L 132.14711 144.392796 
L 132.195936 145.578471 
L 132.219538 147.356982 
L 132.265756 144.985633 
L 132.288664 144.985633 
L 132.311181 144.985633 
L 132.334966 145.578471 
L 132.359531 142.021447 
L 132.431026 142.614284 
L 132.478537 144.985633 
L 132.548116 143.799959 
L 132.663334 144.985633 
L 132.783052 144.392796 
L 132.851947 143.799959 
L 132.897058 144.985633 
L 132.919907 144.985633 
L 132.942437 144.392796 
L 133.011933 144.985633 
L 133.14977 146.764145 
L 133.17233 145.578471 
L 133.240578 146.764145 
L 133.355372 147.356982 
L 133.65534 147.356982 
L 133.724889 147.94982 
L 133.748246 147.356982 
L 133.979772 147.356982 
L 134.002538 144.985633 
L 134.093856 146.764145 
L 134.117133 146.764145 
L 134.236024 147.356982 
L 134.281923 147.356982 
L 134.304931 146.764145 
L 134.372908 147.356982 
L 134.39591 147.356982 
L 134.511754 147.94982 
L 135.004278 147.94982 
L 135.028835 148.542657 
L 135.080857 147.356982 
L 135.106409 147.94982 
L 135.225832 147.356982 
L 135.416355 147.356982 
L 135.532533 146.764145 
L 135.880365 146.764145 
L 135.902945 147.356982 
L 135.971676 146.764145 
L 136.157769 146.764145 
L 136.228432 147.356982 
L 136.250996 146.764145 
L 136.40985 146.764145 
L 136.47832 147.356982 
L 136.500995 146.764145 
L 136.54793 146.764145 
L 136.662809 147.356982 
L 136.685461 147.356982 
L 136.798867 146.764145 
L 136.821381 146.764145 
L 136.889085 147.356982 
L 136.912412 146.764145 
L 137.214595 146.764145 
L 228.110914 130.164702 
L 228.273235 131.350376 
L 228.295988 130.164702 
L 228.343076 131.350376 
L 228.417156 131.350376 
L 228.440621 130.164702 
L 228.514831 131.350376 
L 228.699492 131.350376 
L 228.746104 131.943214 
L 228.792184 131.350376 
L 228.911861 131.350376 
L 229.036102 131.943214 
L 229.059044 131.350376 
L 229.105212 131.943214 
L 229.151866 131.943214 
L 229.175134 131.350376 
L 229.24302 131.943214 
L 229.31191 131.943214 
L 229.436987 131.350376 
L 229.563832 131.943214 
L 229.978785 131.943214 
L 230.092359 132.536051 
L 230.161509 131.943214 
L 230.185155 132.536051 
L 230.20826 132.536051 
L 230.325936 131.943214 
L 230.374749 131.943214 
L 230.488175 132.536051 
L 230.905821 132.536051 
L 230.928613 133.128888 
L 230.997146 132.536051 
L 231.069171 132.536051 
L 231.094391 133.128888 
L 231.17374 132.536051 
L 231.362581 132.536051 
L 231.480434 133.128888 
L 232.438454 133.128888 
L 232.462148 133.721726 
L 232.509213 133.128888 
L 232.718996 133.128888 
L 232.814302 133.721726 
L 232.931408 133.128888 
L 233.046676 133.721726 
L 233.354712 133.721726 
L 233.463581 134.314563 
L 233.577677 133.721726 
L 234.228367 133.721726 
L 234.250878 133.128888 
L 234.321057 133.721726 
L 234.461934 133.721726 
L 234.577875 133.128888 
L 234.623831 133.128888 
L 234.73948 133.721726 
L 235.064912 133.721726 
L 235.087451 134.314563 
L 235.15498 133.721726 
L 235.567342 133.721726 
L 235.590557 133.128888 
L 235.660144 133.721726 
L 235.705165 133.721726 
L 235.735451 133.128888 
L 235.808634 133.721726 
L 235.991914 133.721726 
L 236.015165 133.128888 
L 236.08484 133.721726 
L 236.80464 133.721726 
L 236.920554 134.314563 
L 236.943538 134.314563 
L 237.039135 133.721726 
L 237.140495 134.314563 
L 237.257 133.721726 
L 237.348955 134.314563 
L 237.464607 133.721726 
L 237.557605 133.721726 
L 237.670826 134.314563 
L 238.054362 134.314563 
L 238.07717 134.9074 
L 238.145058 134.314563 
L 238.40505 134.314563 
L 238.475535 134.9074 
L 238.499409 134.314563 
L 238.545725 134.314563 
L 238.614956 134.9074 
L 238.637529 134.314563 
L 238.686956 134.314563 
L 238.80662 134.9074 
L 238.831043 134.314563 
L 238.90653 134.9074 
L 239.602283 134.9074 
L 239.720901 136.093075 
L 239.838238 134.9074 
L 240.075346 134.9074 
L 240.121011 136.093075 
L 240.168804 134.9074 
L 240.360123 134.9074 
L 240.45318 136.093075 
L 240.567014 134.9074 
L 240.683344 136.093075 
L 240.802952 134.9074 
L 240.825587 134.9074 
L 240.940727 136.093075 
L 241.057361 134.9074 
L 241.173582 136.093075 
L 241.777402 136.093075 
L 241.848955 136.685912 
L 241.871885 136.093075 
L 241.992352 136.093075 
L 242.016031 136.685912 
L 242.038933 136.093075 
L 242.290556 136.093075 
L 242.38413 136.685912 
L 242.500741 136.093075 
L 242.617646 136.685912 
L 243.339442 136.685912 
L 243.408244 137.278749 
L 243.433207 136.685912 
L 243.45583 136.685912 
L 243.525196 137.278749 
L 243.548185 136.685912 
L 243.570748 136.685912 
L 243.685624 137.278749 
L 244.123186 137.278749 
L 244.217032 136.685912 
L 244.332176 137.278749 
L 245.261246 137.278749 
L 245.283894 137.871586 
L 245.35949 137.278749 
L 246.151523 137.278749 
L 246.248457 137.871586 
L 246.318795 137.278749 
L 246.350079 137.871586 
L 247.060076 137.871586 
L 247.082694 137.278749 
L 247.15368 137.871586 
L 247.248299 137.871586 
L 247.317413 137.278749 
L 247.340243 137.871586 
L 247.43522 137.871586 
L 247.552798 137.278749 
L 247.644885 137.278749 
L 247.667416 137.871586 
L 247.737898 137.278749 
L 247.784138 137.278749 
L 247.879647 137.871586 
L 247.99598 137.278749 
L 248.156292 137.278749 
L 248.253265 137.871586 
L 248.370739 137.278749 
L 249.083544 137.278749 
L 249.199698 136.685912 
L 249.3871 136.685912 
L 249.434101 136.093075 
L 249.481109 136.685912 
L 249.598895 136.685912 
L 249.651104 136.093075 
L 249.698462 136.685912 
L 249.721241 136.685912 
L 249.745301 136.093075 
L 249.814305 136.685912 
L 250.448996 136.685912 
L 250.565446 136.093075 
L 250.618442 136.093075 
L 250.641209 136.685912 
L 250.709307 136.093075 
L 250.780717 136.093075 
L 250.897047 134.9074 
L 251.108066 134.9074 
L 251.153667 134.314563 
L 251.200615 134.9074 
L 251.732756 134.9074 
L 251.801514 134.314563 
L 251.824181 134.9074 
L 251.940519 134.9074 
L 252.055192 134.314563 
L 252.10147 134.314563 
L 252.215222 133.721726 
L 252.239228 133.721726 
L 252.353909 134.314563 
L 252.398987 134.314563 
L 252.513945 133.721726 
L 252.583875 134.314563 
L 252.612803 133.721726 
L 252.757012 133.721726 
L 252.8731 134.314563 
L 252.897208 134.314563 
L 252.991969 133.721726 
L 253.111301 134.314563 
L 253.185338 134.314563 
L 253.207962 133.721726 
L 253.277012 134.314563 
L 253.583047 134.314563 
L 253.676104 133.721726 
L 253.722762 134.314563 
L 253.769338 133.721726 
L 253.818491 133.721726 
L 253.937356 134.314563 
L 254.033631 133.721726 
L 254.104353 134.314563 
L 254.130067 133.721726 
L 254.248898 133.721726 
L 254.365714 134.314563 
L 254.483593 133.721726 
L 254.62567 133.721726 
L 254.651252 134.314563 
L 254.728672 133.721726 
L 254.801949 133.721726 
L 254.82513 134.314563 
L 254.896371 133.721726 
L 255.052612 133.721726 
L 255.075176 132.536051 
L 255.167029 133.128888 
L 255.189679 133.128888 
L 255.305034 133.721726 
L 255.374359 133.721726 
L 255.419935 134.314563 
L 255.466357 133.721726 
L 255.580926 133.128888 
L 255.627404 133.128888 
L 255.650014 133.721726 
L 255.720026 133.128888 
L 255.743928 133.128888 
L 255.861798 133.721726 
L 256.098705 133.721726 
L 256.121371 134.314563 
L 256.168408 133.721726 
L 256.239304 133.128888 
L 256.261845 133.721726 
L 256.636809 133.721726 
L 256.751495 134.314563 
L 256.77561 134.314563 
L 256.799237 133.721726 
L 256.867336 134.314563 
L 257.121193 134.314563 
L 257.21414 133.721726 
L 257.367384 134.314563 
L 257.599392 134.314563 
L 257.667127 134.9074 
L 257.68999 134.314563 
L 257.852928 134.314563 
L 257.876946 133.721726 
L 257.945321 134.314563 
L 258.202998 134.314563 
L 258.22634 134.9074 
L 258.294554 134.314563 
L 258.586365 134.314563 
L 258.680122 134.9074 
L 258.773486 134.314563 
L 258.890959 134.9074 
L 259.24286 134.9074 
L 259.289105 134.314563 
L 259.337953 134.9074 
L 259.406603 134.9074 
L 259.430652 134.314563 
L 259.499855 134.9074 
L 260.11556 134.9074 
L 260.139054 136.093075 
L 260.218182 134.9074 
L 260.24166 134.9074 
L 260.370849 136.093075 
L 260.393508 136.093075 
L 260.510588 134.9074 
L 260.625606 136.093075 
L 260.749944 136.093075 
L 260.844441 134.9074 
L 261.003231 136.093075 
L 261.542379 136.093075 
L 261.626289 136.685912 
L 261.649384 136.093075 
L 261.673122 136.093075 
L 261.79122 136.685912 
L 261.838271 136.685912 
L 261.907254 136.093075 
L 261.936689 136.685912 
L 262.592786 136.685912 
L 262.615328 137.278749 
L 262.683986 136.685912 
L 263.05675 136.685912 
L 263.172003 137.278749 
L 263.242128 136.685912 
L 263.265834 137.278749 
L 263.312499 137.278749 
L 263.407589 136.685912 
L 263.530198 137.278749 
L 264.799614 137.278749 
L 264.824892 137.871586 
L 264.899251 137.278749 
L 264.94727 137.278749 
L 264.99439 137.871586 
L 265.042275 137.278749 
L 265.06816 137.278749 
L 265.163488 137.871586 
L 265.186976 137.278749 
L 265.25771 137.871586 
L 265.488868 137.871586 
L 265.512967 137.278749 
L 265.582526 137.871586 
L 265.650953 137.871586 
L 265.673515 137.278749 
L 265.742314 137.871586 
L 265.906636 137.871586 
L 265.931071 138.464424 
L 266.000321 137.871586 
L 266.613622 137.871586 
L 266.637247 137.278749 
L 266.709778 137.871586 
L 267.746362 137.871586 
L 267.769622 138.464424 
L 267.841961 137.871586 
L 268.176261 137.871586 
L 268.254438 138.464424 
L 268.277838 137.871586 
L 268.394124 137.871586 
L 268.512117 138.464424 
L 268.774656 138.464424 
L 268.797612 137.871586 
L 268.86869 138.464424 
L 269.150878 138.464424 
L 269.175977 137.871586 
L 269.244634 138.464424 
L 270.311211 138.464424 
L 270.336559 139.057261 
L 270.4048 138.464424 
L 270.474806 138.464424 
L 270.498782 139.057261 
L 270.572074 138.464424 
L 270.709128 138.464424 
L 270.800041 139.057261 
L 270.898261 138.464424 
L 270.992763 139.057261 
L 271.01527 138.464424 
L 271.08446 139.057261 
L 271.107125 139.057261 
L 271.222467 138.464424 
L 271.340009 139.057261 
L 271.434508 139.057261 
L 271.527582 138.464424 
L 271.620666 139.057261 
L 271.643263 138.464424 
L 271.714476 139.057261 
L 271.877252 139.057261 
L 271.901558 138.464424 
L 271.969992 139.057261 
L 273.621904 139.057261 
L 273.645505 139.650098 
L 273.714623 139.057261 
L 273.830916 139.057261 
L 273.853598 139.650098 
L 273.923687 139.057261 
L 273.968931 139.057261 
L 274.08302 139.650098 
L 274.201731 139.057261 
L 274.226366 139.057261 
L 274.345154 139.650098 
L 274.369504 139.650098 
L 274.461384 139.057261 
L 274.577217 139.650098 
L 275.179066 139.650098 
L 275.20199 140.242935 
L 275.270928 139.650098 
L 275.525481 139.650098 
L 275.598477 140.242935 
L 275.624229 139.650098 
L 275.741233 139.650098 
L 275.864332 140.242935 
L 275.935203 139.650098 
L 275.958589 140.242935 
L 275.982075 140.242935 
L 276.082485 139.650098 
L 276.106124 140.242935 
L 276.181605 139.650098 
L 276.250674 139.650098 
L 276.275231 140.242935 
L 276.386504 139.650098 
L 277.644073 139.650098 
L 277.719782 139.057261 
L 277.744678 139.650098 
L 277.812364 139.650098 
L 277.9143 139.057261 
L 277.959496 139.650098 
L 278.004633 139.057261 
L 278.628871 139.057261 
L 278.732087 138.464424 
L 278.853983 139.057261 
L 278.999697 137.871586 
L 279.023912 138.464424 
L 279.095133 137.871586 
L 279.234907 137.871586 
L 279.375427 137.278749 
L 279.471649 137.278749 
L 279.501388 136.685912 
L 279.56933 137.278749 
L 279.641266 137.278749 
L 279.715335 137.871586 
L 279.737879 137.278749 
L 279.789318 137.278749 
L 279.880048 137.871586 
L 280.017265 136.685912 
L 280.062534 136.685912 
L 280.176193 137.278749 
L 280.26694 136.685912 
L 280.289692 137.278749 
L 280.357544 136.685912 
L 280.425898 136.685912 
L 280.448925 137.278749 
L 280.524334 136.685912 
L 280.546944 136.685912 
L 280.661564 137.278749 
L 280.684309 136.685912 
L 280.752327 137.278749 
L 281.05621 137.278749 
L 281.146578 136.685912 
L 281.26695 137.278749 
L 281.387222 137.278749 
L 281.409896 136.685912 
L 281.477594 137.278749 
L 281.616641 137.278749 
L 281.731262 136.685912 
L 281.849297 137.278749 
L 281.96254 136.685912 
L 282.307847 136.685912 
L 282.391438 137.278749 
L 282.513694 136.685912 
L 283.127381 136.685912 
L 283.210981 136.093075 
L 283.474372 136.093075 
L 283.497288 136.685912 
L 283.535264 136.093075 
L 284.141882 136.093075 
L 284.223187 136.685912 
L 284.249058 136.093075 
L 284.554375 136.093075 
L 284.58995 136.685912 
L 284.616433 134.9074 
L 284.698477 136.093075 
L 284.755593 136.093075 
L 284.889135 134.9074 
L 285.374755 134.9074 
L 285.58353 133.721726 
L 285.690635 134.314563 
L 286.364311 134.314563 
L 286.394041 133.721726 
L 286.450365 134.314563 
L 286.571918 134.314563 
L 286.698333 133.721726 
L 286.871985 133.721726 
L 286.894727 134.314563 
L 286.970631 133.721726 
L 287.019109 133.721726 
L 287.119354 133.128888 
L 287.193979 133.721726 
L 287.220582 133.128888 
L 287.382597 133.128888 
L 287.507822 133.721726 
L 287.608908 133.721726 
L 287.632447 134.314563 
L 287.708615 133.721726 
L 287.853833 133.721726 
L 287.979903 133.128888 
L 288.043372 133.721726 
L 288.079756 133.128888 
L 288.108428 133.128888 
L 288.203713 132.536051 
L 288.227133 133.128888 
L 288.302998 132.536051 
L 288.37707 132.536051 
L 288.576804 131.943214 
L 288.68873 132.536051 
L 288.808634 131.943214 
L 288.832006 131.943214 
L 288.858184 132.536051 
L 289.1102 132.536051 
L 289.1411 133.128888 
L 289.206741 132.536051 
L 289.338797 132.536051 
L 289.46007 133.128888 
L 289.911239 133.128888 
L 290.040601 132.536051 
L 290.166634 132.536051 
L 290.272743 133.128888 
L 290.40831 132.536051 
L 290.458985 132.536051 
L 290.59303 133.128888 
L 290.743063 133.128888 
L 290.779929 133.721726 
L 290.83373 133.128888 
L 290.857872 133.128888 
L 290.932281 133.721726 
L 290.958488 133.128888 
L 291.026235 133.128888 
L 291.158072 133.721726 
L 291.291562 133.721726 
L 291.397764 134.314563 
L 291.46645 133.721726 
L 291.505982 134.9074 
L 291.564053 134.314563 
L 291.739674 134.314563 
L 291.866136 134.9074 
L 291.893127 134.314563 
L 291.97098 134.9074 
L 292.171821 134.9074 
L 292.297248 136.093075 
L 292.719945 136.093075 
L 292.847489 136.685912 
L 292.874444 136.093075 
L 292.953476 136.685912 
L 293.342777 136.685912 
L 293.440329 137.278749 
L 293.542281 136.685912 
L 293.588885 137.278749 
L 293.662998 136.685912 
L 293.6866 137.278749 
L 293.740449 137.278749 
L 293.789991 136.685912 
L 293.846196 137.278749 
L 294.339808 137.278749 
L 294.458125 137.871586 
L 295.040652 137.871586 
L 295.109326 138.464424 
L 295.139152 137.871586 
L 295.430191 137.871586 
L 295.54406 138.464424 
L 295.662175 137.871586 
L 295.709307 137.871586 
L 295.825774 138.464424 
L 295.894214 137.871586 
L 295.916973 138.464424 
L 296.625636 138.464424 
L 296.717133 139.057261 
L 296.830132 138.464424 
L 296.85268 138.464424 
L 296.944186 139.057261 
L 296.96674 138.464424 
L 297.036495 139.057261 
L 297.612968 139.057261 
L 297.72863 139.650098 
L 297.774434 139.650098 
L 297.797676 139.057261 
L 297.865347 139.650098 
L 298.023461 139.650098 
L 298.114368 140.242935 
L 298.183431 139.650098 
L 298.205999 140.242935 
L 298.411116 140.242935 
L 298.507342 140.835773 
L 298.623562 140.242935 
L 299.190091 140.242935 
L 299.213402 139.650098 
L 299.280402 140.242935 
L 299.531289 140.242935 
L 299.554722 140.835773 
L 299.631913 140.242935 
L 299.841717 140.242935 
L 299.865434 140.835773 
L 299.935297 140.242935 
L 300.582039 140.242935 
L 300.695609 140.835773 
L 300.742249 140.835773 
L 300.858073 140.242935 
L 300.90482 140.242935 
L 301.023269 140.835773 
L 302.220432 140.835773 
L 302.333756 142.021447 
L 302.449692 140.835773 
L 302.496141 140.835773 
L 302.609889 142.021447 
L 302.632424 142.021447 
L 302.699918 140.835773 
L 302.723188 142.021447 
L 303.743797 142.021447 
L 303.862454 142.614284 
L 303.980333 142.021447 
L 304.27845 142.021447 
L 304.323514 142.614284 
L 304.36886 142.021447 
L 304.530463 142.021447 
L 304.5531 142.614284 
L 304.622698 142.021447 
L 304.877994 142.021447 
L 304.90048 142.614284 
L 304.968488 142.021447 
L 305.059992 142.021447 
L 305.082617 142.614284 
L 305.15045 142.021447 
L 305.19839 142.021447 
L 305.312684 142.614284 
L 305.360801 142.614284 
L 305.474971 142.021447 
L 305.567667 142.614284 
L 305.590414 142.021447 
L 305.66007 142.614284 
L 305.844784 142.614284 
L 305.868042 142.021447 
L 305.936836 142.614284 
L 306.30555 142.614284 
L 306.420577 143.207122 
L 306.537246 142.614284 
L 307.100235 142.614284 
L 307.169886 143.207122 
L 307.193677 142.614284 
L 307.288141 142.614284 
L 307.401222 143.207122 
L 307.519082 142.614284 
L 307.541655 143.207122 
L 307.611949 142.614284 
L 308.901048 142.614284 
L 308.971034 142.021447 
L 308.993742 142.614284 
L 309.019371 142.614284 
L 309.043565 142.021447 
L 309.111186 142.614284 
L 309.27166 142.614284 
L 309.364446 142.021447 
L 309.435118 142.614284 
L 309.458681 142.021447 
L 309.551596 142.021447 
L 309.598492 142.614284 
L 309.644389 142.021447 
L 309.689996 142.021447 
L 309.712547 142.614284 
L 309.783677 142.021447 
L 310.112527 142.021447 
L 310.230398 140.835773 
L 310.546974 140.835773 
L 310.57046 140.242935 
L 310.641715 140.835773 
L 310.711027 140.835773 
L 310.82572 140.242935 
L 311.036928 140.242935 
L 311.159615 139.650098 
L 311.18521 139.650098 
L 311.20854 140.242935 
L 311.276861 139.650098 
L 311.437641 139.650098 
L 311.555907 139.057261 
L 311.746873 139.057261 
L 311.866795 138.464424 
L 311.960027 138.464424 
L 312.087768 137.871586 
L 312.390559 137.871586 
L 312.41323 137.278749 
L 312.483781 137.871586 
L 312.567037 137.871586 
L 312.701467 137.278749 
L 312.822668 137.278749 
L 312.874453 136.685912 
L 312.897861 137.278749 
L 312.98837 137.871586 
L 313.105203 137.278749 
L 313.150829 137.278749 
L 313.173354 136.685912 
L 313.222985 137.278749 
L 313.272295 136.685912 
L 313.351225 137.871586 
L 313.39789 137.871586 
L 313.420384 138.464424 
L 313.446536 137.871586 
L 313.547147 137.871586 
L 313.673715 137.278749 
L 313.697173 137.278749 
L 313.719721 136.685912 
L 313.74224 137.871586 
L 313.861401 138.464424 
L 313.913334 138.464424 
L 313.984072 137.871586 
L 314.006623 138.464424 
L 314.07644 138.464424 
L 314.195519 137.871586 
L 314.242308 137.871586 
L 314.366572 138.464424 
L 314.459721 138.464424 
L 314.574966 137.871586 
L 314.645375 137.871586 
L 314.693633 137.278749 
L 314.771146 138.464424 
L 314.892474 137.871586 
L 314.915539 137.871586 
L 315.013567 133.128888 
L 315.037332 130.164702 
L 315.085374 134.314563 
L 315.108206 133.721726 
L 315.364531 137.871586 
L 315.461049 137.871586 
L 315.577961 138.464424 
L 315.695762 137.871586 
L 316.051255 137.871586 
L 316.074634 138.464424 
L 316.143224 137.871586 
L 316.259775 137.871586 
L 316.284792 138.464424 
L 316.332959 137.871586 
L 316.403283 136.685912 
L 316.42714 137.278749 
L 316.519479 137.871586 
L 316.63582 137.278749 
L 316.680931 137.278749 
L 316.774142 136.685912 
L 316.869889 136.685912 
L 316.923164 136.093075 
L 316.94655 137.278749 
L 317.015199 137.278749 
L 317.038955 137.871586 
L 317.089755 136.685912 
L 317.188592 136.685912 
L 317.236315 134.314563 
L 317.260266 134.9074 
L 317.344859 136.093075 
L 317.632008 134.9074 
L 317.683459 136.093075 
L 317.765741 136.093075 
L 317.886266 129.571865 
L 317.963421 131.350376 
L 318.149156 134.9074 
L 318.294426 134.9074 
L 318.362732 134.314563 
L 318.39782 134.9074 
L 318.42975 134.9074 
L 318.550485 136.093075 
L 318.60748 134.9074 
L 318.659823 136.093075 
L 318.777203 134.314563 
L 318.852636 136.093075 
L 318.921967 136.093075 
L 319.063911 137.278749 
L 319.125244 136.093075 
L 319.152342 137.278749 
L 319.240719 137.871586 
L 319.35608 136.685912 
L 319.411182 137.871586 
L 319.434523 136.685912 
L 319.613067 134.314563 
L 319.645769 134.9074 
L 319.705552 134.314563 
L 319.72817 133.721726 
L 319.758287 134.9074 
L 319.794699 134.9074 
L 319.871481 133.721726 
L 320.003627 136.093075 
L 320.095022 136.093075 
L 320.184495 134.9074 
L 320.305241 136.093075 
L 320.439995 134.9074 
L 320.563269 136.093075 
L 320.663648 136.093075 
L 320.711369 134.9074 
L 320.762863 136.093075 
L 320.86659 136.093075 
L 320.978437 136.685912 
L 321.462669 136.685912 
L 321.497978 136.093075 
L 321.57145 136.685912 
L 321.624627 136.685912 
L 321.744795 137.278749 
L 321.865072 136.685912 
L 321.912744 136.685912 
L 322.047298 137.278749 
L 322.170664 137.278749 
L 322.193627 137.871586 
L 322.279634 137.278749 
L 322.35067 136.685912 
L 322.37517 137.278749 
L 322.433082 137.278749 
L 322.604392 136.685912 
L 322.74773 136.685912 
L 322.853677 137.278749 
L 323.210938 137.278749 
L 323.335317 137.871586 
L 323.51194 137.871586 
L 323.542266 138.464424 
L 323.617235 137.871586 
L 323.647114 137.871586 
L 323.770609 138.464424 
L 323.794841 137.871586 
L 323.869258 138.464424 
L 324.056212 138.464424 
L 324.177302 137.871586 
L 324.200795 137.871586 
L 324.24941 138.464424 
L 324.29651 137.871586 
L 324.366513 137.871586 
L 324.500737 138.464424 
L 325.252288 138.464424 
L 325.378866 137.871586 
L 325.902806 137.871586 
L 325.925381 138.464424 
L 325.998025 137.871586 
L 326.355022 137.871586 
L 326.473229 138.464424 
L 326.556206 138.464424 
L 326.57872 137.871586 
L 326.659686 138.464424 
L 326.75797 138.464424 
L 326.783857 137.871586 
L 326.852798 138.464424 
L 327.152567 138.464424 
L 327.17585 139.057261 
L 327.245773 138.464424 
L 327.543712 138.464424 
L 327.663434 137.871586 
L 327.734463 137.871586 
L 327.851757 138.464424 
L 327.96929 137.871586 
L 327.992256 137.871586 
L 328.120682 138.464424 
L 328.242072 137.871586 
L 328.385816 137.871586 
L 328.50678 138.464424 
L 328.58262 137.871586 
L 328.605717 138.464424 
L 328.630001 138.464424 
L 328.724434 137.871586 
L 328.842551 138.464424 
L 328.920219 138.464424 
L 328.945879 137.871586 
L 329.014912 138.464424 
L 329.08563 138.464424 
L 329.109267 137.871586 
L 329.178093 138.464424 
L 329.52903 138.464424 
L 329.622156 139.057261 
L 329.715285 138.464424 
L 329.807601 139.057261 
L 329.903667 138.464424 
L 329.949531 139.057261 
L 329.994943 138.464424 
L 330.018344 138.464424 
L 330.144603 139.057261 
L 330.235806 138.464424 
L 330.353241 139.057261 
L 330.375838 139.057261 
L 330.398432 138.464424 
L 330.466177 139.057261 
L 331.188525 139.057261 
L 331.302111 139.650098 
L 331.348065 139.650098 
L 331.464455 139.057261 
L 331.580899 139.650098 
L 332.782551 139.650098 
L 332.80515 140.242935 
L 332.87413 139.650098 
L 333.222214 139.650098 
L 333.26963 140.242935 
L 333.314902 139.650098 
L 333.616232 139.650098 
L 333.706908 140.242935 
L 333.822268 139.650098 
L 333.938646 140.242935 
L 333.984919 140.242935 
L 334.079666 139.650098 
L 334.17377 140.242935 
L 334.290006 139.650098 
L 334.40633 140.242935 
L 334.435579 140.242935 
L 334.550219 139.650098 
L 334.66412 140.242935 
L 336.029242 140.242935 
L 336.099215 140.835773 
L 336.121722 140.242935 
L 336.145119 140.242935 
L 336.258016 140.835773 
L 336.394159 140.835773 
L 336.507748 140.242935 
L 336.621081 140.835773 
L 336.711176 140.835773 
L 336.802655 142.021447 
L 336.916457 140.835773 
L 337.485916 140.835773 
L 337.599817 142.021447 
L 338.331914 142.021447 
L 338.404721 140.835773 
L 338.429104 142.021447 
L 338.45179 142.021447 
L 338.551163 140.835773 
L 338.665961 142.021447 
L 338.798172 140.835773 
L 338.822037 140.835773 
L 338.845221 142.021447 
L 338.919708 140.835773 
L 339.041118 140.835773 
L 339.066323 142.021447 
L 339.13773 140.835773 
L 339.185287 140.835773 
L 339.299278 142.021447 
L 339.322103 142.021447 
L 339.439992 140.835773 
L 339.48674 140.835773 
L 339.600698 142.021447 
L 339.625979 142.021447 
L 339.739921 140.835773 
L 339.990896 140.835773 
L 340.104798 140.242935 
L 340.317605 140.242935 
L 340.430467 139.650098 
L 340.476669 139.650098 
L 340.499484 140.242935 
L 340.568094 139.650098 
L 340.71083 139.650098 
L 340.736256 140.242935 
L 340.808415 139.650098 
L 340.879731 139.650098 
L 340.903209 139.057261 
L 340.972098 139.650098 
L 341.160197 139.650098 
L 341.183084 139.057261 
L 341.252882 139.650098 
L 341.299078 139.650098 
L 341.420497 139.057261 
L 341.537962 139.057261 
L 341.656463 138.464424 
L 341.898112 138.464424 
L 342.013461 137.871586 
L 342.17498 137.871586 
L 342.312252 136.685912 
L 342.426224 136.685912 
L 342.545874 137.278749 
L 342.665231 136.685912 
L 342.738334 136.685912 
L 342.873678 134.314563 
L 343.036675 133.128888 
L 343.063083 133.128888 
L 343.109166 132.536051 
L 343.157743 133.128888 
L 343.322113 133.128888 
L 343.416989 132.536051 
L 343.555073 133.721726 
L 343.795564 128.979027 
L 343.844367 132.536051 
L 343.897176 131.350376 
L 343.943281 130.164702 
L 343.965936 133.128888 
L 344.013199 129.571865 
L 344.08548 131.350376 
L 344.205305 132.536051 
L 344.322161 131.350376 
L 344.344746 131.943214 
L 344.369505 131.350376 
L 344.460986 130.164702 
L 344.588089 132.536051 
L 344.610648 132.536051 
L 344.682305 131.943214 
L 344.782453 134.9074 
L 344.807782 134.314563 
L 344.878337 134.9074 
L 345.134241 134.9074 
L 345.255051 131.943214 
L 345.285688 133.721726 
L 345.308364 133.721726 
L 345.331026 134.314563 
L 345.354302 128.38619 
L 345.423764 134.314563 
L 345.446396 134.314563 
L 345.471666 133.128888 
L 345.526682 134.9074 
L 345.550233 134.314563 
L 345.572829 134.314563 
L 345.595506 133.721726 
L 345.618913 134.9074 
L 345.665594 134.314563 
L 345.855119 134.314563 
L 345.969693 134.9074 
L 346.1551 134.9074 
L 346.26825 134.314563 
L 346.291776 134.314563 
L 346.375176 134.9074 
L 346.398539 134.314563 
L 346.886568 134.314563 
L 347.23245 131.350376 
L 347.345785 133.128888 
L 347.496765 131.350376 
L 347.544824 131.943214 
L 347.617687 131.350376 
L 347.688059 133.128888 
L 347.852446 129.571865 
L 347.973443 133.721726 
L 347.997105 131.943214 
L 348.061304 133.721726 
L 348.114961 132.536051 
L 348.217825 123.643492 
L 348.45739 129.571865 
L 348.493663 128.38619 
L 348.556349 131.943214 
L 348.611695 131.350376 
L 348.640618 129.571865 
L 348.775363 129.571865 
L 348.95425 132.536051 
L 349.015714 128.38619 
L 349.085122 128.979027 
L 349.114237 128.38619 
L 349.24697 130.164702 
L 349.277461 129.571865 
L 349.383123 128.38619 
L 349.410339 128.979027 
L 349.434435 128.38619 
L 349.460062 130.164702 
L 349.559302 131.350376 
L 349.665807 129.571865 
L 349.691408 131.350376 
L 349.717753 128.979027 
L 349.741159 129.571865 
L 349.857267 128.979027 
L 349.882901 127.200516 
L 349.911861 128.38619 
L 349.993643 128.38619 
L 350.186194 130.164702 
L 350.305559 131.350376 
L 350.368183 131.350376 
L 350.401078 129.571865 
L 350.431117 130.164702 
L 350.554336 130.164702 
L 350.606057 129.571865 
L 350.629488 130.164702 
L 350.744317 130.164702 
L 350.769883 129.571865 
L 350.847937 130.164702 
L 350.924659 130.164702 
L 351.051855 129.571865 
L 351.137614 129.571865 
L 351.191157 130.164702 
L 351.215804 129.571865 
L 351.299173 130.164702 
L 351.324186 128.979027 
L 351.353921 131.350376 
L 351.388476 130.164702 
L 351.506928 129.571865 
L 351.60051 130.164702 
L 351.715603 127.793353 
L 351.76509 128.38619 
L 352.017551 131.943214 
L 352.064901 131.943214 
L 352.170245 131.350376 
L 352.268969 132.536051 
L 352.294146 131.943214 
L 352.325592 131.943214 
L 352.453789 132.536051 
L 352.478012 132.536051 
L 352.54666 133.128888 
L 352.570151 131.943214 
L 352.64612 133.128888 
L 353.193002 133.128888 
L 353.264827 131.943214 
L 353.289466 133.128888 
L 353.326825 133.128888 
L 353.386697 132.536051 
L 353.435651 133.128888 
L 353.612383 133.128888 
L 353.712196 131.350376 
L 353.760188 132.536051 
L 353.783122 133.128888 
L 353.833368 131.943214 
L 353.980598 130.164702 
L 354.009954 130.164702 
L 354.084781 131.943214 
L 354.124514 131.350376 
L 354.379432 132.536051 
L 354.860338 132.536051 
L 355.090869 131.350376 
L 355.200934 131.350376 
L 355.342822 129.571865 
L 356.246976 129.571865 
L 356.339781 130.164702 
L 356.410098 129.571865 
L 356.432833 130.164702 
L 357.329065 130.164702 
L 357.35264 131.350376 
L 357.423804 130.164702 
L 357.446351 130.164702 
L 357.516792 131.350376 
L 357.539462 130.164702 
L 357.608494 130.164702 
L 357.700191 131.350376 
L 357.815019 130.164702 
L 357.93736 131.350376 
L 358.862113 131.350376 
L 358.978945 131.943214 
L 359.072409 131.350376 
L 359.190957 131.943214 
L 359.372555 131.943214 
L 359.465687 131.350376 
L 359.580741 131.943214 
L 359.717446 131.943214 
L 359.740194 131.350376 
L 359.808715 131.943214 
L 360.250691 131.943214 
L 360.326397 132.536051 
L 360.349714 131.943214 
L 360.418886 131.943214 
L 360.534296 132.536051 
L 361.037679 132.536051 
L 361.060318 133.128888 
L 361.128323 132.536051 
L 361.287361 132.536051 
L 361.400651 133.128888 
L 361.514661 132.536051 
L 361.543937 132.536051 
L 361.657847 133.128888 
L 361.680406 132.536051 
L 361.751879 133.128888 
L 362.28164 133.128888 
L 362.396388 133.721726 
L 362.464385 133.128888 
L 362.545318 133.128888 
L 362.662134 133.721726 
L 363.030226 133.721726 
L 363.053482 133.128888 
L 363.12282 133.721726 
L 364.110082 133.721726 
L 364.201225 134.314563 
L 364.223765 133.721726 
L 364.294417 134.314563 
L 365.038489 134.314563 
L 365.10777 134.9074 
L 365.130696 134.314563 
L 365.178563 134.314563 
L 365.270108 134.9074 
L 365.365938 134.314563 
L 365.482046 134.9074 
L 365.599869 134.314563 
L 365.717089 134.9074 
L 365.949669 134.9074 
L 365.972194 134.314563 
L 366.041612 134.9074 
L 366.386311 134.9074 
L 366.412265 136.093075 
L 366.481328 134.9074 
L 366.575309 134.9074 
L 366.695224 136.093075 
L 366.810109 134.9074 
L 366.925337 136.093075 
L 367.157338 136.093075 
L 367.271878 136.685912 
L 367.29517 136.685912 
L 367.413736 136.093075 
L 367.459884 136.093075 
L 367.532316 136.685912 
L 367.556022 136.093075 
L 367.651245 136.093075 
L 367.674244 136.685912 
L 367.744225 136.093075 
L 368.054932 136.093075 
L 368.129219 136.685912 
L 368.154625 136.093075 
L 368.274178 136.093075 
L 368.296927 136.685912 
L 368.369348 136.093075 
L 368.395362 136.093075 
L 368.443919 136.685912 
L 368.493452 136.093075 
L 368.607868 136.093075 
L 368.630652 136.685912 
L 368.699456 136.093075 
L 368.769427 136.093075 
L 368.791947 136.685912 
L 368.860481 136.093075 
L 368.905586 136.093075 
L 369.024417 136.685912 
L 369.580077 136.685912 
L 369.603487 136.093075 
L 369.674105 136.685912 
L 370.229649 136.685912 
L 370.346722 137.278749 
L 370.462196 136.685912 
L 371.722452 136.685912 
L 371.799397 136.093075 
L 371.822042 136.685912 
L 371.847359 136.685912 
L 371.944257 136.093075 
L 372.061653 136.685912 
L 372.107472 136.685912 
L 372.227096 136.093075 
L 372.318367 136.093075 
L 372.414077 134.9074 
L 372.45931 136.093075 
L 372.507593 134.9074 
L 372.698681 134.9074 
L 372.814996 134.314563 
L 372.837988 134.9074 
L 372.908791 134.314563 
L 373.214032 134.314563 
L 373.237762 133.721726 
L 373.30837 134.314563 
L 373.401392 134.314563 
L 373.518505 133.721726 
L 373.626648 133.721726 
L 373.740277 133.128888 
L 373.857577 133.128888 
L 373.973823 132.536051 
L 374.253324 132.536051 
L 374.27636 131.943214 
L 374.346326 132.536051 
L 374.522021 132.536051 
L 374.567428 131.943214 
L 374.613644 132.536051 
L 374.636251 132.536051 
L 374.849973 129.571865 
L 374.873604 129.571865 
L 374.990545 130.164702 
L 375.013824 130.164702 
L 375.153408 128.979027 
L 375.234023 129.571865 
L 375.257324 128.979027 
L 375.279856 128.979027 
L 375.39509 129.571865 
L 375.510817 128.979027 
L 375.651094 128.979027 
L 375.768921 128.38619 
L 375.912235 128.38619 
L 375.983679 128.979027 
L 376.03167 127.793353 
L 376.147001 128.38619 
L 376.193181 128.38619 
L 376.216863 127.793353 
L 376.264468 128.979027 
L 376.290736 128.979027 
L 376.431666 126.607678 
L 376.454687 127.200516 
L 376.591719 128.38619 
L 376.61553 127.793353 
L 376.685802 128.38619 
L 376.755723 128.38619 
L 376.778205 128.979027 
L 376.847584 128.38619 
L 376.87025 127.200516 
L 376.89398 128.979027 
L 376.943505 128.979027 
L 377.085914 130.164702 
L 377.240797 128.38619 
L 377.333853 129.571865 
L 377.47195 126.014841 
L 377.613046 128.979027 
L 377.683433 127.200516 
L 377.75271 127.793353 
L 377.799182 127.793353 
L 377.917584 129.571865 
L 378.012361 128.38619 
L 378.036463 128.979027 
L 378.060154 129.571865 
L 378.106478 128.979027 
L 378.152019 128.38619 
L 378.176025 128.979027 
L 378.296868 130.164702 
L 378.415139 129.571865 
L 378.439526 130.164702 
L 378.485765 126.014841 
L 378.557393 127.793353 
L 378.603664 129.571865 
L 378.672832 128.979027 
L 378.720913 126.014841 
L 378.743789 130.164702 
L 378.836746 129.571865 
L 378.859971 129.571865 
L 378.956981 126.014841 
L 378.980469 129.571865 
L 379.074712 128.979027 
L 379.097618 128.979027 
L 379.120131 129.571865 
L 379.14287 124.236329 
L 379.234687 125.422004 
L 379.258528 126.014841 
L 379.28269 124.236329 
L 379.352658 123.643492 
L 379.375722 125.422004 
L 379.423141 122.457818 
L 379.447608 122.457818 
L 379.585073 120.679306 
L 379.846903 126.607678 
L 379.893206 126.014841 
L 379.916245 126.014841 
L 380.058706 127.200516 
L 380.081577 127.200516 
L 380.105066 127.793353 
L 380.129594 127.200516 
L 380.152202 126.014841 
L 380.175634 127.793353 
L 380.245098 126.607678 
L 380.314248 126.607678 
L 380.431222 126.014841 
L 380.548231 126.607678 
L 380.594262 126.607678 
L 380.642833 128.38619 
L 380.690418 127.200516 
L 380.784388 126.014841 
L 380.853005 128.38619 
L 380.898451 127.200516 
L 380.945535 126.607678 
L 380.992765 127.200516 
L 381.017302 127.200516 
L 381.155794 128.38619 
L 381.328988 124.236329 
L 381.351942 126.014841 
L 381.513978 128.38619 
L 381.62817 127.793353 
L 381.718681 128.38619 
L 381.832698 127.793353 
L 381.946181 128.38619 
L 381.991221 128.38619 
L 382.106766 128.979027 
L 382.130282 128.38619 
L 382.198768 128.979027 
L 382.243881 129.571865 
L 382.291019 128.979027 
L 382.337261 127.793353 
L 382.361272 124.236329 
L 382.431767 125.422004 
L 382.454684 127.793353 
L 382.546817 126.014841 
L 382.569806 126.014841 
L 382.664315 127.200516 
L 382.68798 126.607678 
L 382.710475 126.607678 
L 382.825576 127.200516 
L 382.849434 127.200516 
L 382.96611 127.793353 
L 382.988949 127.793353 
L 383.104776 126.014841 
L 383.128023 126.607678 
L 383.151792 126.607678 
L 383.201159 127.200516 
L 383.271239 125.422004 
L 383.416007 127.200516 
L 383.670134 127.200516 
L 383.786815 127.793353 
L 383.949105 127.793353 
L 383.997947 128.38619 
L 384.046185 127.793353 
L 384.140383 127.793353 
L 384.258806 128.38619 
L 384.281645 128.38619 
L 384.304227 127.793353 
L 384.372431 128.38619 
L 384.441664 128.38619 
L 384.559822 128.979027 
L 384.749256 128.979027 
L 384.78569 128.38619 
L 384.859563 128.979027 
L 384.8979 128.979027 
L 385.082093 128.38619 
L 385.910467 128.38619 
L 385.97135 127.793353 
L 386.016586 128.38619 
L 386.238343 128.38619 
L 386.3651 128.979027 
L 386.412039 128.38619 
L 386.468055 128.979027 
L 386.491732 128.979027 
L 386.614891 128.38619 
L 386.640931 128.979027 
L 386.713005 128.38619 
L 386.738525 128.38619 
L 386.815848 128.979027 
L 386.838454 128.38619 
L 386.887175 128.38619 
L 386.910606 127.793353 
L 386.981585 128.38619 
L 387.173187 128.38619 
L 387.196089 127.793353 
L 387.266439 128.38619 
L 387.462923 128.38619 
L 387.48596 127.793353 
L 387.557839 128.38619 
L 388.613966 128.38619 
L 388.637314 128.979027 
L 388.711729 128.38619 
L 388.78384 128.38619 
L 388.865198 128.979027 
L 388.891196 128.38619 
L 388.915986 128.38619 
L 389.043439 128.979027 
L 389.379607 128.979027 
L 389.477415 129.571865 
L 389.601383 128.979027 
L 389.866036 128.979027 
L 389.984637 129.571865 
L 390.00716 129.571865 
L 390.100373 128.979027 
L 390.215706 129.571865 
L 390.262486 128.979027 
L 390.307803 129.571865 
L 390.868541 129.571865 
L 390.892035 130.164702 
L 390.962404 129.571865 
L 391.238332 129.571865 
L 391.352304 130.164702 
L 391.445298 129.571865 
L 391.538031 131.350376 
L 391.560701 130.164702 
L 391.748459 130.164702 
L 391.771058 129.571865 
L 391.842227 130.164702 
L 392.36005 130.164702 
L 392.388139 131.350376 
L 392.459066 130.164702 
L 392.906525 130.164702 
L 392.930797 131.350376 
L 393.003365 130.164702 
L 393.026699 130.164702 
L 393.148175 131.350376 
L 393.527567 131.350376 
L 393.550793 130.164702 
L 393.597961 131.350376 
L 393.669657 130.164702 
L 393.693096 131.350376 
L 393.791039 131.350376 
L 393.906729 130.164702 
L 394.024785 131.350376 
L 394.326399 131.350376 
L 394.348975 131.943214 
L 394.416896 131.350376 
L 394.739451 131.350376 
L 394.83196 131.943214 
L 394.877788 131.350376 
L 394.923975 131.943214 
L 394.947211 131.943214 
L 395.018887 131.350376 
L 395.041948 131.943214 
L 395.111752 131.943214 
L 395.135994 131.350376 
L 395.206478 131.943214 
L 395.509765 131.943214 
L 395.601977 132.536051 
L 395.716817 131.943214 
L 396.525825 131.943214 
L 396.595074 132.536051 
L 396.617637 131.943214 
L 396.685897 131.943214 
L 396.802113 132.536051 
L 396.825096 132.536051 
L 396.848388 131.943214 
L 396.91804 132.536051 
L 397.219581 132.536051 
L 397.243049 131.943214 
L 397.311837 132.536051 
L 397.799415 132.536051 
L 397.913912 133.128888 
L 398.257829 133.128888 
L 398.373989 132.536051 
L 398.486989 133.128888 
L 398.558057 132.536051 
L 398.582155 133.128888 
L 398.604671 133.128888 
L 398.721531 132.536051 
L 398.768767 132.536051 
L 398.886475 133.128888 
L 398.956931 132.536051 
L 398.980171 133.128888 
L 399.163961 133.128888 
L 399.232468 132.536051 
L 399.255773 133.128888 
L 399.745046 133.128888 
L 399.8371 133.721726 
L 399.953726 133.128888 
L 400.114661 133.128888 
L 400.230621 132.536051 
L 401.185565 132.536051 
L 401.208506 131.943214 
L 401.279236 132.536051 
L 401.445558 132.536051 
L 401.471383 131.943214 
L 401.545813 132.536051 
L 401.641175 132.536051 
L 401.761396 131.943214 
L 401.78862 131.943214 
L 401.86273 132.536051 
L 401.887154 131.943214 
L 401.934646 131.943214 
L 401.981117 132.536051 
L 402.028064 131.943214 
L 402.154179 131.943214 
L 402.252977 132.536051 
L 402.377101 131.943214 
L 403.01205 131.943214 
L 403.035706 131.350376 
L 403.10573 131.943214 
L 403.153153 131.943214 
L 403.176757 131.350376 
L 403.245915 131.943214 
L 403.268657 131.943214 
L 403.386521 131.350376 
L 403.501989 131.943214 
L 403.620708 131.943214 
L 403.643246 132.536051 
L 403.712406 131.943214 
L 403.805188 131.350376 
L 403.922492 131.943214 
L 404.086688 131.943214 
L 404.158479 131.350376 
L 404.183411 131.943214 
L 404.75113 131.943214 
L 404.819748 131.350376 
L 404.844105 131.943214 
L 404.867063 131.943214 
L 404.980964 131.350376 
L 405.098218 131.943214 
L 405.121476 131.943214 
L 405.236689 131.350376 
L 405.634888 131.350376 
L 405.730484 130.164702 
L 405.753021 131.350376 
L 405.823334 130.164702 
L 406.256858 130.164702 
L 406.374143 129.571865 
L 406.489525 129.571865 
L 406.586978 128.979027 
L 406.701307 129.571865 
L 406.723806 129.571865 
L 406.840655 128.979027 
L 406.877775 128.979027 
L 406.969912 128.38619 
L 406.992669 128.979027 
L 407.067443 128.38619 
L 407.207198 128.979027 
L 407.324108 127.793353 
L 407.347758 128.38619 
L 407.419206 127.793353 
L 407.442003 127.200516 
L 407.510784 127.793353 
L 407.556842 127.793353 
L 407.580138 127.200516 
L 407.648489 127.793353 
L 407.672245 127.793353 
L 407.74214 127.200516 
L 407.764725 127.793353 
L 407.81086 127.793353 
L 407.881542 127.200516 
L 407.904074 127.793353 
L 407.951008 127.793353 
L 408.066618 127.200516 
L 408.089511 127.200516 
L 408.138279 127.793353 
L 408.184585 127.200516 
L 408.207112 127.200516 
L 408.300935 127.793353 
L 408.34752 127.200516 
L 408.393899 127.793353 
L 408.463477 127.793353 
L 408.583283 127.200516 
L 408.607864 127.793353 
L 408.655538 127.200516 
L 408.750424 125.422004 
L 408.795868 126.014841 
L 408.819111 126.014841 
L 408.913077 128.38619 
L 408.961393 127.793353 
L 409.006652 123.643492 
L 409.054856 128.38619 
L 409.087777 128.38619 
L 409.112282 127.793353 
L 409.182006 128.38619 
L 409.205266 128.38619 
L 409.297187 128.979027 
L 409.346122 127.793353 
L 409.392715 128.38619 
L 409.509797 128.979027 
L 409.719219 128.979027 
L 409.78828 129.571865 
L 409.822372 128.979027 
L 409.892178 128.979027 
L 409.917092 129.571865 
L 409.939958 128.979027 
L 409.99646 125.422004 
L 410.04178 128.979027 
L 410.092954 128.979027 
L 410.187231 126.607678 
L 410.209855 128.38619 
L 410.239618 128.38619 
L 410.424263 124.236329 
L 410.540309 126.014841 
L 410.563282 125.422004 
L 410.609342 126.014841 
L 410.702871 126.607678 
L 410.772011 125.422004 
L 410.818269 126.014841 
L 410.866439 128.38619 
L 410.91153 126.607678 
L 411.051515 123.643492 
L 411.07662 126.014841 
L 411.175616 125.422004 
L 411.220819 125.422004 
L 411.382841 127.200516 
L 411.522911 126.014841 
L 411.6408 126.607678 
L 411.759807 126.607678 
L 411.882218 127.793353 
L 412.102338 125.422004 
L 412.150236 125.422004 
L 412.248593 127.200516 
L 412.272064 126.607678 
L 412.399799 127.793353 
L 412.448414 127.200516 
L 412.499831 127.200516 
L 412.523391 127.793353 
L 412.569289 127.200516 
L 412.686661 126.607678 
L 412.711123 126.607678 
L 412.737084 127.793353 
L 412.814896 127.200516 
L 412.883519 127.200516 
L 412.929736 126.014841 
L 412.976532 126.607678 
L 413.000141 127.793353 
L 413.07831 127.200516 
L 413.125317 127.200516 
L 413.199396 126.607678 
L 413.223263 127.200516 
L 413.250402 127.200516 
L 413.370022 126.607678 
L 413.513793 127.793353 
L 413.583876 127.793353 
L 413.700746 127.200516 
L 413.747398 127.200516 
L 413.887323 126.014841 
L 413.935216 126.014841 
L 414.097908 127.793353 
L 414.169481 127.793353 
L 414.287202 126.607678 
L 414.464133 128.38619 
L 414.510821 128.38619 
L 414.612597 127.793353 
L 414.64769 128.38619 
L 414.672212 127.200516 
L 414.718566 127.793353 
L 414.883808 127.793353 
L 415.005131 128.38619 
L 415.218182 128.38619 
L 415.240793 127.793353 
L 415.328955 128.38619 
L 415.352661 128.38619 
L 415.377056 127.793353 
L 415.447867 128.38619 
L 416.583266 128.38619 
L 416.699884 128.979027 
L 416.793346 128.38619 
L 416.90837 128.979027 
L 417.842565 128.979027 
L 417.961616 129.571865 
L 418.48558 129.571865 
L 418.57775 130.164702 
L 418.694187 129.571865 
L 418.810917 130.164702 
L 419.297775 130.164702 
L 419.320568 131.350376 
L 419.390313 130.164702 
L 419.459183 130.164702 
L 419.55091 131.350376 
L 419.66627 130.164702 
L 419.712961 131.350376 
L 419.760125 130.164702 
L 419.81236 130.164702 
L 419.946105 131.350376 
L 420.177307 131.350376 
L 420.200571 130.164702 
L 420.276107 131.350376 
L 420.335437 131.350376 
L 420.409807 130.164702 
L 420.444661 131.350376 
L 420.708098 131.350376 
L 420.731873 130.164702 
L 420.803704 131.350376 
L 421.978622 131.350376 
L 422.101296 131.943214 
L 422.148411 131.943214 
L 422.171229 131.350376 
L 422.250509 131.943214 
L 422.273424 131.943214 
L 422.296922 131.350376 
L 422.36883 131.943214 
L 422.464951 131.943214 
L 422.511331 131.350376 
L 422.559674 131.943214 
L 422.588811 131.943214 
L 422.711024 131.350376 
L 423.220473 131.350376 
L 423.342094 131.943214 
L 423.439363 131.350376 
L 423.559621 131.943214 
L 423.674944 131.350376 
L 423.792959 131.943214 
L 423.820778 131.943214 
L 423.89376 131.350376 
L 423.920515 131.943214 
L 423.967146 131.943214 
L 424.092186 131.350376 
L 424.137911 131.350376 
L 424.162296 131.943214 
L 424.233286 131.350376 
L 424.25587 131.350376 
L 424.279549 131.943214 
L 424.350406 131.350376 
L 424.373706 131.350376 
L 424.489749 131.943214 
L 424.629373 131.350376 
L 424.745704 131.350376 
L 424.865909 131.943214 
L 424.962054 131.350376 
L 424.985329 131.943214 
L 425.054948 131.350376 
L 425.177444 131.943214 
L 425.292718 131.350376 
L 425.316948 131.350376 
L 425.386869 131.943214 
L 425.463342 131.943214 
L 425.595267 131.350376 
L 425.665396 131.943214 
L 425.689247 131.350376 
L 425.758869 131.350376 
L 425.879735 131.943214 
L 426.03041 131.943214 
L 426.134065 131.350376 
L 426.258252 131.943214 
L 426.482697 131.943214 
L 426.602912 132.536051 
L 426.720474 131.943214 
L 427.072577 131.943214 
L 427.192035 132.536051 
L 427.288604 131.943214 
L 427.407647 132.536051 
L 427.431207 132.536051 
L 427.531291 131.943214 
L 427.625161 132.536051 
L 427.648065 131.943214 
L 427.723991 132.536051 
L 427.842168 132.536051 
L 427.937549 131.943214 
L 428.056714 132.536051 
L 428.431065 132.536051 
L 428.455299 133.128888 
L 428.524959 132.536051 
L 428.819873 132.536051 
L 428.93621 133.128888 
L 429.055532 132.536051 
L 429.126253 132.536051 
L 429.244941 133.128888 
L 429.290384 132.536051 
L 429.339284 133.128888 
L 429.384832 133.128888 
L 429.407733 132.536051 
L 429.479537 133.128888 
L 430.33664 133.128888 
L 430.437457 133.721726 
L 430.533528 133.128888 
L 430.648984 133.721726 
L 430.742793 133.721726 
L 430.791934 133.128888 
L 430.839064 133.721726 
L 430.890697 133.721726 
L 430.914901 133.128888 
L 430.985178 133.721726 
L 431.386878 133.721726 
L 431.411077 133.128888 
L 431.481845 133.721726 
L 431.575455 133.721726 
L 431.575455 133.721726 
" style="fill:none;stroke:#1f77b4;stroke-linecap:square;stroke-width:1.5;"/>
   </g>
   <g id="line2d_30">
    <path clip-path="url(#p0b0d4a53f8)" d="M 63.084545 184.112893 
L 65.203544 184.112893 
L 65.321034 160.992239 
L 67.619268 160.992239 
L 67.733933 167.513449 
L 69.243439 167.513449 
L 69.357472 178.777357 
L 70.12665 178.777357 
L 70.240113 190.634102 
L 70.746955 190.634102 
L 128.90833 107.636886 
L 131.937966 107.636886 
L 132.030785 119.493631 
L 133.332808 119.493631 
L 133.448696 130.757539 
L 134.605493 130.757539 
L 134.720419 160.992239 
L 136.45572 160.992239 
L 136.570817 178.777357 
L 137.214595 178.777357 
L 228.295988 114.158096 
L 229.059044 114.158096 
L 229.175134 137.278749 
L 230.325936 137.278749 
L 230.442905 160.992239 
L 232.97736 160.992239 
L 233.093262 172.848985 
L 235.590557 172.848985 
L 235.705165 178.777357 
L 237.234477 178.777357 
L 237.348955 184.112893 
L 238.262479 184.112893 
L 238.381185 195.969638 
L 239.440793 195.969638 
L 239.554154 202.490848 
L 240.238021 202.490848 
L 240.360123 191.819777 
L 240.825587 191.819777 
L 240.940727 195.969638 
L 241.992352 195.969638 
L 242.120778 190.634102 
L 245.283894 190.634102 
L 245.427393 191.819777 
L 246.09766 191.819777 
L 246.224133 190.634102 
L 247.294505 190.634102 
L 247.411643 184.112893 
L 249.928909 184.112893 
L 250.044495 178.777357 
L 251.384998 178.777357 
L 251.501534 172.848985 
L 252.191963 172.848985 
L 252.308124 170.477636 
L 252.537707 170.477636 
L 252.663466 167.513449 
L 255.212587 167.513449 
L 255.32873 160.992239 
L 259.406603 160.992239 
L 259.522777 170.477636 
L 260.672617 170.477636 
L 260.798493 172.848985 
L 261.602865 172.848985 
L 261.720849 170.477636 
L 261.838271 170.477636 
L 261.963852 172.848985 
L 265.25771 172.848985 
L 265.373569 170.477636 
L 265.719724 170.477636 
L 265.835802 172.848985 
L 267.00162 172.848985 
L 267.117273 178.777357 
L 267.699391 178.777357 
L 267.817752 191.819777 
L 268.371494 191.819777 
L 268.488778 195.969638 
L 268.705182 195.969638 
L 268.820941 202.490848 
L 274.060365 202.490848 
L 274.178815 191.819777 
L 275.225641 191.819777 
L 275.340479 202.490848 
L 276.275231 202.490848 
L 276.386504 190.634102 
L 277.530792 190.634102 
L 277.671181 184.112893 
L 278.11972 184.112893 
L 278.232674 181.148706 
L 278.802474 181.148706 
L 278.923386 178.777357 
L 280.569514 178.777357 
L 280.684309 172.848985 
L 281.477594 172.848985 
L 281.594117 167.513449 
L 282.738442 167.513449 
L 282.845973 172.848985 
L 283.997658 172.848985 
L 284.141882 160.992239 
L 286.844033 160.992239 
L 286.970631 155.656704 
L 290.61718 155.656704 
L 290.779929 160.992239 
L 291.786614 160.992239 
L 291.915744 184.112893 
L 293.413767 184.112893 
L 293.542281 195.969638 
L 294.703653 195.969638 
L 294.823467 214.347593 
L 296.236302 214.347593 
L 296.374022 223.832989 
L 297.978239 223.832989 
L 298.091743 234.50406 
L 300.166711 234.50406 
L 300.282075 223.832989 
L 301.43864 223.832989 
L 301.552899 226.204338 
L 303.033057 226.204338 
L 303.146519 223.832989 
L 303.605293 223.832989 
L 303.721219 226.204338 
L 305.798158 226.204338 
L 305.913814 232.132711 
L 309.644389 232.132711 
L 309.760955 223.832989 
L 310.967851 223.832989 
L 311.087626 213.161918 
L 312.435812 213.161918 
L 312.567037 181.148706 
L 313.033758 181.148706 
L 313.150829 172.848985 
L 314.289291 172.848985 
L 314.413467 137.278749 
L 315.531458 137.278749 
L 315.648864 114.158096 
L 317.038955 114.158096 
L 317.165208 102.301351 
L 318.27002 102.301351 
L 318.39782 89.258931 
L 319.532629 89.258931 
L 319.645769 95.780141 
L 320.686229 95.780141 
L 320.815578 107.636886 
L 323.210938 107.636886 
L 323.335317 125.422004 
L 323.542266 125.422004 
L 323.67187 155.656704 
L 325.172354 155.656704 
L 325.306653 167.513449 
L 325.998025 167.513449 
L 326.121591 172.848985 
L 327.269366 172.848985 
L 327.402247 184.112893 
L 328.653413 184.112893 
L 328.772218 190.634102 
L 330.144603 190.634102 
L 330.259208 202.490848 
L 330.837307 202.490848 
L 330.954213 223.832989 
L 331.652051 223.832989 
L 331.768261 214.347593 
L 332.000503 214.347593 
L 332.114025 223.832989 
L 333.822268 223.832989 
L 333.938646 226.204338 
L 334.503631 226.204338 
L 334.618107 223.832989 
L 335.19415 223.832989 
L 335.309112 237.468246 
L 337.145093 237.468246 
L 337.259787 245.17513 
L 337.372909 245.17513 
L 337.485916 234.50406 
L 337.720175 234.50406 
L 337.834114 237.468246 
L 339.299278 237.468246 
L 339.417475 214.347593 
L 340.568094 214.347593 
L 340.68746 190.634102 
L 341.944162 190.634102 
L 342.059842 149.135494 
L 343.181243 149.135494 
L 343.299502 114.158096 
L 344.437647 114.158096 
L 344.563587 83.923396 
L 345.786293 83.923396 
L 345.901186 66.138278 
L 347.143698 66.138278 
L 347.288763 54.281533 
L 348.37522 54.281533 
L 348.493663 35.903578 
L 349.765828 35.903578 
L 349.911861 42.424787 
L 352.199268 42.424787 
L 352.378748 72.06665 
L 353.561102 72.06665 
L 353.688729 95.780141 
L 354.88367 95.780141 
L 355.020634 125.422004 
L 357.306535 125.422004 
L 357.423804 137.278749 
L 357.539462 137.278749 
L 357.654906 155.656704 
L 358.789601 155.656704 
L 358.907236 172.848985 
L 361.060318 172.848985 
L 361.173382 184.112893 
L 361.728735 184.112893 
L 361.843167 190.634102 
L 363.099398 190.634102 
L 363.217609 195.969638 
L 364.830518 195.969638 
L 364.945794 213.161918 
L 365.412562 213.161918 
L 365.529311 202.490848 
L 366.109546 202.490848 
L 366.223898 213.161918 
L 367.601795 213.161918 
L 367.721594 223.832989 
L 367.957644 223.832989 
L 368.080812 209.012057 
L 368.395362 209.012057 
L 368.516771 213.161918 
L 369.047023 213.161918 
L 369.164727 234.50406 
L 369.393794 234.50406 
L 369.509573 226.204338 
L 369.744491 226.204338 
L 369.86299 223.832989 
L 370.674843 223.832989 
L 370.795103 202.490848 
L 372.015186 202.490848 
L 372.131089 184.112893 
L 373.30837 184.112893 
L 373.424847 155.656704 
L 375.602422 155.656704 
L 375.720158 119.493631 
L 375.840736 119.493631 
L 375.957314 95.780141 
L 377.333853 95.780141 
L 377.448581 77.402186 
L 378.509148 77.402186 
L 378.626268 66.138278 
L 380.737456 66.138278 
L 380.853005 54.281533 
L 383.294535 54.281533 
L 383.416007 60.802743 
L 383.646801 60.802743 
L 383.763934 83.923396 
L 385.035174 83.923396 
L 385.155861 102.301351 
L 386.340427 102.301351 
L 386.468055 125.422004 
L 387.604244 125.422004 
L 387.721377 137.278749 
L 389.162467 137.278749 
L 389.304898 149.135494 
L 390.37789 149.135494 
L 390.492866 155.656704 
L 392.459066 155.656704 
L 392.575598 167.513449 
L 392.814271 167.513449 
L 392.930797 184.112893 
L 394.53183 184.112893 
L 394.647142 195.969638 
L 395.579328 195.969638 
L 395.694262 202.490848 
L 396.848388 202.490848 
L 396.964458 209.012057 
L 398.582155 209.012057 
L 398.697773 220.868803 
L 400.206527 220.868803 
L 400.322964 213.161918 
L 402.98801 213.161918 
L 403.10573 202.490848 
L 404.277879 202.490848 
L 404.397354 184.112893 
L 404.728065 184.112893 
L 404.844105 167.513449 
L 408.207112 167.513449 
L 408.323511 125.422004 
L 409.487193 125.422004 
L 409.602937 107.636886 
L 411.220819 107.636886 
L 411.336997 102.301351 
L 412.569289 102.301351 
L 412.686661 107.636886 
L 414.051719 107.636886 
L 414.169481 114.158096 
L 415.278498 114.158096 
L 415.400015 125.422004 
L 417.261085 125.422004 
L 417.377572 130.757539 
L 417.961616 130.757539 
L 418.079188 155.656704 
L 419.112508 155.656704 
L 419.228374 167.513449 
L 421.906317 167.513449 
L 422.029788 178.777357 
L 425.154829 178.777357 
L 425.268877 172.848985 
L 425.642139 172.848985 
L 425.758869 178.777357 
L 427.003333 178.777357 
L 427.1222 190.634102 
L 429.055532 190.634102 
L 429.173839 195.969638 
L 430.768226 195.969638 
L 430.890697 213.161918 
L 431.575455 213.161918 
L 431.575455 213.161918 
" style="fill:none;stroke:#ff7f0e;stroke-linecap:square;stroke-width:1.5;"/>
   </g>
   <g id="patch_3">
    <path d="M 44.66 255.638708 
L 44.66 25.44 
" style="fill:none;stroke:#000000;stroke-linecap:square;stroke-linejoin:miter;stroke-width:0.8;"/>
   </g>
   <g id="patch_4">
    <path d="M 450 255.638708 
L 450 25.44 
" style="fill:none;stroke:#000000;stroke-linecap:square;stroke-linejoin:miter;stroke-width:0.8;"/>
   </g>
   <g id="patch_5">
    <path d="M 44.66 255.638708 
L 450 255.638708 
" style="fill:none;stroke:#000000;stroke-linecap:square;stroke-linejoin:miter;stroke-width:0.8;"/>
   </g>
   <g id="patch_6">
    <path d="M 44.66 25.44 
L 450 25.44 
" style="fill:none;stroke:#000000;stroke-linecap:square;stroke-linejoin:miter;stroke-width:0.8;"/>
   </g>
   <g id="text_17">
    <!-- Lake Shoecraft - Water and Air Temperature -->
    <g transform="translate(115.711562 19.44)scale(0.12 -0.12)">
     <defs>
      <path d="M 9.8125 72.90625 
L 19.671875 72.90625 
L 19.671875 8.296875 
L 55.171875 8.296875 
L 55.171875 0 
L 9.8125 0 
z
" id="DejaVuSans-76"/>
      <path d="M 9.078125 75.984375 
L 18.109375 75.984375 
L 18.109375 31.109375 
L 44.921875 54.6875 
L 56.390625 54.6875 
L 27.390625 29.109375 
L 57.625 0 
L 45.90625 0 
L 18.109375 26.703125 
L 18.109375 0 
L 9.078125 0 
z
" id="DejaVuSans-107"/>
      <path d="M 53.515625 70.515625 
L 53.515625 60.890625 
Q 47.90625 63.578125 42.921875 64.890625 
Q 37.9375 66.21875 33.296875 66.21875 
Q 25.25 66.21875 20.875 63.09375 
Q 16.5 59.96875 16.5 54.203125 
Q 16.5 49.359375 19.40625 46.890625 
Q 22.3125 44.4375 30.421875 42.921875 
L 36.375 41.703125 
Q 47.40625 39.59375 52.65625 34.296875 
Q 57.90625 29 57.90625 20.125 
Q 57.90625 9.515625 50.796875 4.046875 
Q 43.703125 -1.421875 29.984375 -1.421875 
Q 24.8125 -1.421875 18.96875 -0.25 
Q 13.140625 0.921875 6.890625 3.21875 
L 6.890625 13.375 
Q 12.890625 10.015625 18.65625 8.296875 
Q 24.421875 6.59375 29.984375 6.59375 
Q 38.421875 6.59375 43.015625 9.90625 
Q 47.609375 13.234375 47.609375 19.390625 
Q 47.609375 24.75 44.3125 27.78125 
Q 41.015625 30.8125 33.5 32.328125 
L 27.484375 33.5 
Q 16.453125 35.6875 11.515625 40.375 
Q 6.59375 45.0625 6.59375 53.421875 
Q 6.59375 63.09375 13.40625 68.65625 
Q 20.21875 74.21875 32.171875 74.21875 
Q 37.3125 74.21875 42.625 73.28125 
Q 47.953125 72.359375 53.515625 70.515625 
z
" id="DejaVuSans-83"/>
      <path d="M 54.890625 33.015625 
L 54.890625 0 
L 45.90625 0 
L 45.90625 32.71875 
Q 45.90625 40.484375 42.875 44.328125 
Q 39.84375 48.1875 33.796875 48.1875 
Q 26.515625 48.1875 22.3125 43.546875 
Q 18.109375 38.921875 18.109375 30.90625 
L 18.109375 0 
L 9.078125 0 
L 9.078125 75.984375 
L 18.109375 75.984375 
L 18.109375 46.1875 
Q 21.34375 51.125 25.703125 53.5625 
Q 30.078125 56 35.796875 56 
Q 45.21875 56 50.046875 50.171875 
Q 54.890625 44.34375 54.890625 33.015625 
z
" id="DejaVuSans-104"/>
      <path d="M 30.609375 48.390625 
Q 23.390625 48.390625 19.1875 42.75 
Q 14.984375 37.109375 14.984375 27.296875 
Q 14.984375 17.484375 19.15625 11.84375 
Q 23.34375 6.203125 30.609375 6.203125 
Q 37.796875 6.203125 41.984375 11.859375 
Q 46.1875 17.53125 46.1875 27.296875 
Q 46.1875 37.015625 41.984375 42.703125 
Q 37.796875 48.390625 30.609375 48.390625 
z
M 30.609375 56 
Q 42.328125 56 49.015625 48.375 
Q 55.71875 40.765625 55.71875 27.296875 
Q 55.71875 13.875 49.015625 6.21875 
Q 42.328125 -1.421875 30.609375 -1.421875 
Q 18.84375 -1.421875 12.171875 6.21875 
Q 5.515625 13.875 5.515625 27.296875 
Q 5.515625 40.765625 12.171875 48.375 
Q 18.84375 56 30.609375 56 
z
" id="DejaVuSans-111"/>
      <path d="M 48.78125 52.59375 
L 48.78125 44.1875 
Q 44.96875 46.296875 41.140625 47.34375 
Q 37.3125 48.390625 33.40625 48.390625 
Q 24.65625 48.390625 19.8125 42.84375 
Q 14.984375 37.3125 14.984375 27.296875 
Q 14.984375 17.28125 19.8125 11.734375 
Q 24.65625 6.203125 33.40625 6.203125 
Q 37.3125 6.203125 41.140625 7.25 
Q 44.96875 8.296875 48.78125 10.40625 
L 48.78125 2.09375 
Q 45.015625 0.34375 40.984375 -0.53125 
Q 36.96875 -1.421875 32.421875 -1.421875 
Q 20.0625 -1.421875 12.78125 6.34375 
Q 5.515625 14.109375 5.515625 27.296875 
Q 5.515625 40.671875 12.859375 48.328125 
Q 20.21875 56 33.015625 56 
Q 37.15625 56 41.109375 55.140625 
Q 45.0625 54.296875 48.78125 52.59375 
z
" id="DejaVuSans-99"/>
      <path d="M 37.109375 75.984375 
L 37.109375 68.5 
L 28.515625 68.5 
Q 23.6875 68.5 21.796875 66.546875 
Q 19.921875 64.59375 19.921875 59.515625 
L 19.921875 54.6875 
L 34.71875 54.6875 
L 34.71875 47.703125 
L 19.921875 47.703125 
L 19.921875 0 
L 10.890625 0 
L 10.890625 47.703125 
L 2.296875 47.703125 
L 2.296875 54.6875 
L 10.890625 54.6875 
L 10.890625 58.5 
Q 10.890625 67.625 15.140625 71.796875 
Q 19.390625 75.984375 28.609375 75.984375 
z
" id="DejaVuSans-102"/>
      <path d="M 3.328125 72.90625 
L 13.28125 72.90625 
L 28.609375 11.28125 
L 43.890625 72.90625 
L 54.984375 72.90625 
L 70.3125 11.28125 
L 85.59375 72.90625 
L 95.609375 72.90625 
L 77.296875 0 
L 64.890625 0 
L 49.515625 63.28125 
L 33.984375 0 
L 21.578125 0 
z
" id="DejaVuSans-87"/>
      <path d="M 54.890625 33.015625 
L 54.890625 0 
L 45.90625 0 
L 45.90625 32.71875 
Q 45.90625 40.484375 42.875 44.328125 
Q 39.84375 48.1875 33.796875 48.1875 
Q 26.515625 48.1875 22.3125 43.546875 
Q 18.109375 38.921875 18.109375 30.90625 
L 18.109375 0 
L 9.078125 0 
L 9.078125 54.6875 
L 18.109375 54.6875 
L 18.109375 46.1875 
Q 21.34375 51.125 25.703125 53.5625 
Q 30.078125 56 35.796875 56 
Q 45.21875 56 50.046875 50.171875 
Q 54.890625 44.34375 54.890625 33.015625 
z
" id="DejaVuSans-110"/>
      <path d="M 45.40625 46.390625 
L 45.40625 75.984375 
L 54.390625 75.984375 
L 54.390625 0 
L 45.40625 0 
L 45.40625 8.203125 
Q 42.578125 3.328125 38.25 0.953125 
Q 33.9375 -1.421875 27.875 -1.421875 
Q 17.96875 -1.421875 11.734375 6.484375 
Q 5.515625 14.40625 5.515625 27.296875 
Q 5.515625 40.1875 11.734375 48.09375 
Q 17.96875 56 27.875 56 
Q 33.9375 56 38.25 53.625 
Q 42.578125 51.265625 45.40625 46.390625 
z
M 14.796875 27.296875 
Q 14.796875 17.390625 18.875 11.75 
Q 22.953125 6.109375 30.078125 6.109375 
Q 37.203125 6.109375 41.296875 11.75 
Q 45.40625 17.390625 45.40625 27.296875 
Q 45.40625 37.203125 41.296875 42.84375 
Q 37.203125 48.484375 30.078125 48.484375 
Q 22.953125 48.484375 18.875 42.84375 
Q 14.796875 37.203125 14.796875 27.296875 
z
" id="DejaVuSans-100"/>
      <path d="M 34.1875 63.1875 
L 20.796875 26.90625 
L 47.609375 26.90625 
z
M 28.609375 72.90625 
L 39.796875 72.90625 
L 67.578125 0 
L 57.328125 0 
L 50.6875 18.703125 
L 17.828125 18.703125 
L 11.1875 0 
L 0.78125 0 
z
" id="DejaVuSans-65"/>
      <path d="M 9.421875 54.6875 
L 18.40625 54.6875 
L 18.40625 0 
L 9.421875 0 
z
M 9.421875 75.984375 
L 18.40625 75.984375 
L 18.40625 64.59375 
L 9.421875 64.59375 
z
" id="DejaVuSans-105"/>
     </defs>
     <use xlink:href="#DejaVuSans-76"/>
     <use x="55.712891" xlink:href="#DejaVuSans-97"/>
     <use x="116.992188" xlink:href="#DejaVuSans-107"/>
     <use x="171.277344" xlink:href="#DejaVuSans-101"/>
     <use x="232.800781" xlink:href="#DejaVuSans-32"/>
     <use x="264.587891" xlink:href="#DejaVuSans-83"/>
     <use x="328.064453" xlink:href="#DejaVuSans-104"/>
     <use x="391.443359" xlink:href="#DejaVuSans-111"/>
     <use x="452.625" xlink:href="#DejaVuSans-101"/>
     <use x="514.148438" xlink:href="#DejaVuSans-99"/>
     <use x="569.128906" xlink:href="#DejaVuSans-114"/>
     <use x="610.242188" xlink:href="#DejaVuSans-97"/>
     <use x="671.521484" xlink:href="#DejaVuSans-102"/>
     <use x="704.976562" xlink:href="#DejaVuSans-116"/>
     <use x="744.185547" xlink:href="#DejaVuSans-32"/>
     <use x="775.972656" xlink:href="#DejaVuSans-45"/>
     <use x="812.056641" xlink:href="#DejaVuSans-32"/>
     <use x="843.84375" xlink:href="#DejaVuSans-87"/>
     <use x="936.345703" xlink:href="#DejaVuSans-97"/>
     <use x="997.625" xlink:href="#DejaVuSans-116"/>
     <use x="1036.833984" xlink:href="#DejaVuSans-101"/>
     <use x="1098.357422" xlink:href="#DejaVuSans-114"/>
     <use x="1139.470703" xlink:href="#DejaVuSans-32"/>
     <use x="1171.257812" xlink:href="#DejaVuSans-97"/>
     <use x="1232.537109" xlink:href="#DejaVuSans-110"/>
     <use x="1295.916016" xlink:href="#DejaVuSans-100"/>
     <use x="1359.392578" xlink:href="#DejaVuSans-32"/>
     <use x="1391.179688" xlink:href="#DejaVuSans-65"/>
     <use x="1459.587891" xlink:href="#DejaVuSans-105"/>
     <use x="1487.371094" xlink:href="#DejaVuSans-114"/>
     <use x="1528.484375" xlink:href="#DejaVuSans-32"/>
     <use x="1560.271484" xlink:href="#DejaVuSans-84"/>
     <use x="1604.355469" xlink:href="#DejaVuSans-101"/>
     <use x="1665.878906" xlink:href="#DejaVuSans-109"/>
     <use x="1763.291016" xlink:href="#DejaVuSans-112"/>
     <use x="1826.767578" xlink:href="#DejaVuSans-101"/>
     <use x="1888.291016" xlink:href="#DejaVuSans-114"/>
     <use x="1929.404297" xlink:href="#DejaVuSans-97"/>
     <use x="1990.683594" xlink:href="#DejaVuSans-116"/>
     <use x="2029.892578" xlink:href="#DejaVuSans-117"/>
     <use x="2093.271484" xlink:href="#DejaVuSans-114"/>
     <use x="2132.134766" xlink:href="#DejaVuSans-101"/>
    </g>
   </g>
   <g id="legend_1">
    <g id="patch_7">
     <path d="M 51.66 62.79625 
L 136.769375 62.79625 
Q 138.769375 62.79625 138.769375 60.79625 
L 138.769375 32.44 
Q 138.769375 30.44 136.769375 30.44 
L 51.66 30.44 
Q 49.66 30.44 49.66 32.44 
L 49.66 60.79625 
Q 49.66 62.79625 51.66 62.79625 
z
" style="fill:#ffffff;opacity:0.8;stroke:#cccccc;stroke-linejoin:miter;"/>
    </g>
    <g id="line2d_31">
     <path d="M 53.66 38.538437 
L 73.66 38.538437 
" style="fill:none;stroke:#1f77b4;stroke-linecap:square;stroke-width:1.5;"/>
    </g>
    <g id="line2d_32"/>
    <g id="text_18">
     <!-- Lake Temp -->
     <g transform="translate(81.66 42.038437)scale(0.1 -0.1)">
      <use xlink:href="#DejaVuSans-76"/>
      <use x="55.712891" xlink:href="#DejaVuSans-97"/>
      <use x="116.992188" xlink:href="#DejaVuSans-107"/>
      <use x="171.277344" xlink:href="#DejaVuSans-101"/>
      <use x="232.800781" xlink:href="#DejaVuSans-32"/>
      <use x="264.587891" xlink:href="#DejaVuSans-84"/>
      <use x="308.671875" xlink:href="#DejaVuSans-101"/>
      <use x="370.195312" xlink:href="#DejaVuSans-109"/>
      <use x="467.607422" xlink:href="#DejaVuSans-112"/>
     </g>
    </g>
    <g id="line2d_33">
     <path d="M 53.66 53.216562 
L 73.66 53.216562 
" style="fill:none;stroke:#ff7f0e;stroke-linecap:square;stroke-width:1.5;"/>
    </g>
    <g id="line2d_34"/>
    <g id="text_19">
     <!-- Air Temp -->
     <g transform="translate(81.66 56.716562)scale(0.1 -0.1)">
      <use xlink:href="#DejaVuSans-65"/>
      <use x="68.408203" xlink:href="#DejaVuSans-105"/>
      <use x="96.191406" xlink:href="#DejaVuSans-114"/>
      <use x="137.304688" xlink:href="#DejaVuSans-32"/>
      <use x="169.091797" xlink:href="#DejaVuSans-84"/>
      <use x="213.175781" xlink:href="#DejaVuSans-101"/>
      <use x="274.699219" xlink:href="#DejaVuSans-109"/>
      <use x="372.111328" xlink:href="#DejaVuSans-112"/>
     </g>
    </g>
   </g>
  </g>
 </g>
 <defs>
  <clipPath id="p0b0d4a53f8">
   <rect height="230.198708" width="405.34" x="44.66" y="25.44"/>
  </clipPath>
 </defs>
</svg>
