<?xml version="1.0" encoding="utf-8" standalone="no"?>
<!DOCTYPE svg PUBLIC "-//W3C//DTD SVG 1.1//EN"
  "http://www.w3.org/Graphics/SVG/1.1/DTD/svg11.dtd">
<!-- Created with matplotlib (https://matplotlib.org/) -->
<svg height="345.6pt" version="1.1" viewBox="0 0 460.8 345.6" width="460.8pt" xmlns="http://www.w3.org/2000/svg" xmlns:xlink="http://www.w3.org/1999/xlink">
 <metadata>
  <rdf:RDF xmlns:cc="http://creativecommons.org/ns#" xmlns:dc="http://purl.org/dc/elements/1.1/" xmlns:rdf="http://www.w3.org/1999/02/22-rdf-syntax-ns#">
   <cc:Work>
    <dc:type rdf:resource="http://purl.org/dc/dcmitype/StillImage"/>
    <dc:date>2024-09-04T00:56:18.584650</dc:date>
    <dc:format>image/svg+xml</dc:format>
    <dc:creator>
     <cc:Agent>
      <dc:title>Matplotlib v3.3.2, https://matplotlib.org/</dc:title>
     </cc:Agent>
    </dc:creator>
   </cc:Work>
  </rdf:RDF>
 </metadata>
 <defs>
  <style type="text/css">*{stroke-linecap:butt;stroke-linejoin:round;}</style>
 </defs>
 <g id="figure_1">
  <g id="patch_1">
   <path d="M 0 345.6 
L 460.8 345.6 
L 460.8 0 
L 0 0 
z
" style="fill:none;"/>
  </g>
  <g id="axes_1">
   <g id="patch_2">
    <path d="M 54.2 255.638708 
L 450 255.638708 
L 450 25.44 
L 54.2 25.44 
z
" style="fill:none;"/>
   </g>
   <g id="matplotlib.axis_1">
    <g id="xtick_1">
     <g id="line2d_1">
      <path clip-path="url(#p9d474d3fb0)" d="M 92.59257 255.638708 
L 92.59257 25.44 
" style="fill:none;stroke:#b0b0b0;stroke-linecap:square;stroke-width:0.8;"/>
     </g>
     <g id="line2d_2">
      <defs>
       <path d="M 0 0 
L 0 3.5 
" id="mfdd2979a5a" style="stroke:#000000;stroke-width:0.8;"/>
      </defs>
      <g>
       <use style="stroke:#000000;stroke-width:0.8;" x="92.59257" xlink:href="#mfdd2979a5a" y="255.638708"/>
      </g>
     </g>
     <g id="text_1">
      <!-- 2024-08-28 -->
      <g transform="translate(85.247177 319.848351)rotate(-70)scale(0.1 -0.1)">
       <defs>
        <path d="M 19.1875 8.296875 
L 53.609375 8.296875 
L 53.609375 0 
L 7.328125 0 
L 7.328125 8.296875 
Q 12.9375 14.109375 22.625 23.890625 
Q 32.328125 33.6875 34.8125 36.53125 
Q 39.546875 41.84375 41.421875 45.53125 
Q 43.3125 49.21875 43.3125 52.78125 
Q 43.3125 58.59375 39.234375 62.25 
Q 35.15625 65.921875 28.609375 65.921875 
Q 23.96875 65.921875 18.8125 64.3125 
Q 13.671875 62.703125 7.8125 59.421875 
L 7.8125 69.390625 
Q 13.765625 71.78125 18.9375 73 
Q 24.125 74.21875 28.421875 74.21875 
Q 39.75 74.21875 46.484375 68.546875 
Q 53.21875 62.890625 53.21875 53.421875 
Q 53.21875 48.921875 51.53125 44.890625 
Q 49.859375 40.875 45.40625 35.40625 
Q 44.1875 33.984375 37.640625 27.21875 
Q 31.109375 20.453125 19.1875 8.296875 
z
" id="DejaVuSans-50"/>
        <path d="M 31.78125 66.40625 
Q 24.171875 66.40625 20.328125 58.90625 
Q 16.5 51.421875 16.5 36.375 
Q 16.5 21.390625 20.328125 13.890625 
Q 24.171875 6.390625 31.78125 6.390625 
Q 39.453125 6.390625 43.28125 13.890625 
Q 47.125 21.390625 47.125 36.375 
Q 47.125 51.421875 43.28125 58.90625 
Q 39.453125 66.40625 31.78125 66.40625 
z
M 31.78125 74.21875 
Q 44.046875 74.21875 50.515625 64.515625 
Q 56.984375 54.828125 56.984375 36.375 
Q 56.984375 17.96875 50.515625 8.265625 
Q 44.046875 -1.421875 31.78125 -1.421875 
Q 19.53125 -1.421875 13.0625 8.265625 
Q 6.59375 17.96875 6.59375 36.375 
Q 6.59375 54.828125 13.0625 64.515625 
Q 19.53125 74.21875 31.78125 74.21875 
z
" id="DejaVuSans-48"/>
        <path d="M 37.796875 64.3125 
L 12.890625 25.390625 
L 37.796875 25.390625 
z
M 35.203125 72.90625 
L 47.609375 72.90625 
L 47.609375 25.390625 
L 58.015625 25.390625 
L 58.015625 17.1875 
L 47.609375 17.1875 
L 47.609375 0 
L 37.796875 0 
L 37.796875 17.1875 
L 4.890625 17.1875 
L 4.890625 26.703125 
z
" id="DejaVuSans-52"/>
        <path d="M 4.890625 31.390625 
L 31.203125 31.390625 
L 31.203125 23.390625 
L 4.890625 23.390625 
z
" id="DejaVuSans-45"/>
        <path d="M 31.78125 34.625 
Q 24.75 34.625 20.71875 30.859375 
Q 16.703125 27.09375 16.703125 20.515625 
Q 16.703125 13.921875 20.71875 10.15625 
Q 24.75 6.390625 31.78125 6.390625 
Q 38.8125 6.390625 42.859375 10.171875 
Q 46.921875 13.96875 46.921875 20.515625 
Q 46.921875 27.09375 42.890625 30.859375 
Q 38.875 34.625 31.78125 34.625 
z
M 21.921875 38.8125 
Q 15.578125 40.375 12.03125 44.71875 
Q 8.5 49.078125 8.5 55.328125 
Q 8.5 64.0625 14.71875 69.140625 
Q 20.953125 74.21875 31.78125 74.21875 
Q 42.671875 74.21875 48.875 69.140625 
Q 55.078125 64.0625 55.078125 55.328125 
Q 55.078125 49.078125 51.53125 44.71875 
Q 48 40.375 41.703125 38.8125 
Q 48.828125 37.15625 52.796875 32.3125 
Q 56.78125 27.484375 56.78125 20.515625 
Q 56.78125 9.90625 50.3125 4.234375 
Q 43.84375 -1.421875 31.78125 -1.421875 
Q 19.734375 -1.421875 13.25 4.234375 
Q 6.78125 9.90625 6.78125 20.515625 
Q 6.78125 27.484375 10.78125 32.3125 
Q 14.796875 37.15625 21.921875 38.8125 
z
M 18.3125 54.390625 
Q 18.3125 48.734375 21.84375 45.5625 
Q 25.390625 42.390625 31.78125 42.390625 
Q 38.140625 42.390625 41.71875 45.5625 
Q 45.3125 48.734375 45.3125 54.390625 
Q 45.3125 60.0625 41.71875 63.234375 
Q 38.140625 66.40625 31.78125 66.40625 
Q 25.390625 66.40625 21.84375 63.234375 
Q 18.3125 60.0625 18.3125 54.390625 
z
" id="DejaVuSans-56"/>
       </defs>
       <use xlink:href="#DejaVuSans-50"/>
       <use x="63.623047" xlink:href="#DejaVuSans-48"/>
       <use x="127.246094" xlink:href="#DejaVuSans-50"/>
       <use x="190.869141" xlink:href="#DejaVuSans-52"/>
       <use x="254.492188" xlink:href="#DejaVuSans-45"/>
       <use x="290.576172" xlink:href="#DejaVuSans-48"/>
       <use x="354.199219" xlink:href="#DejaVuSans-56"/>
       <use x="417.822266" xlink:href="#DejaVuSans-45"/>
       <use x="453.90625" xlink:href="#DejaVuSans-50"/>
       <use x="517.529297" xlink:href="#DejaVuSans-56"/>
      </g>
     </g>
    </g>
    <g id="xtick_2">
     <g id="line2d_3">
      <path clip-path="url(#p9d474d3fb0)" d="M 140.815361 255.638708 
L 140.815361 25.44 
" style="fill:none;stroke:#b0b0b0;stroke-linecap:square;stroke-width:0.8;"/>
     </g>
     <g id="line2d_4">
      <g>
       <use style="stroke:#000000;stroke-width:0.8;" x="140.815361" xlink:href="#mfdd2979a5a" y="255.638708"/>
      </g>
     </g>
     <g id="text_2">
      <!-- 2024-08-29 -->
      <g transform="translate(133.469968 319.848351)rotate(-70)scale(0.1 -0.1)">
       <defs>
        <path d="M 10.984375 1.515625 
L 10.984375 10.5 
Q 14.703125 8.734375 18.5 7.8125 
Q 22.3125 6.890625 25.984375 6.890625 
Q 35.75 6.890625 40.890625 13.453125 
Q 46.046875 20.015625 46.78125 33.40625 
Q 43.953125 29.203125 39.59375 26.953125 
Q 35.25 24.703125 29.984375 24.703125 
Q 19.046875 24.703125 12.671875 31.3125 
Q 6.296875 37.9375 6.296875 49.421875 
Q 6.296875 60.640625 12.9375 67.421875 
Q 19.578125 74.21875 30.609375 74.21875 
Q 43.265625 74.21875 49.921875 64.515625 
Q 56.59375 54.828125 56.59375 36.375 
Q 56.59375 19.140625 48.40625 8.859375 
Q 40.234375 -1.421875 26.421875 -1.421875 
Q 22.703125 -1.421875 18.890625 -0.6875 
Q 15.09375 0.046875 10.984375 1.515625 
z
M 30.609375 32.421875 
Q 37.25 32.421875 41.125 36.953125 
Q 45.015625 41.5 45.015625 49.421875 
Q 45.015625 57.28125 41.125 61.84375 
Q 37.25 66.40625 30.609375 66.40625 
Q 23.96875 66.40625 20.09375 61.84375 
Q 16.21875 57.28125 16.21875 49.421875 
Q 16.21875 41.5 20.09375 36.953125 
Q 23.96875 32.421875 30.609375 32.421875 
z
" id="DejaVuSans-57"/>
       </defs>
       <use xlink:href="#DejaVuSans-50"/>
       <use x="63.623047" xlink:href="#DejaVuSans-48"/>
       <use x="127.246094" xlink:href="#DejaVuSans-50"/>
       <use x="190.869141" xlink:href="#DejaVuSans-52"/>
       <use x="254.492188" xlink:href="#DejaVuSans-45"/>
       <use x="290.576172" xlink:href="#DejaVuSans-48"/>
       <use x="354.199219" xlink:href="#DejaVuSans-56"/>
       <use x="417.822266" xlink:href="#DejaVuSans-45"/>
       <use x="453.90625" xlink:href="#DejaVuSans-50"/>
       <use x="517.529297" xlink:href="#DejaVuSans-57"/>
      </g>
     </g>
    </g>
    <g id="xtick_3">
     <g id="line2d_5">
      <path clip-path="url(#p9d474d3fb0)" d="M 189.038152 255.638708 
L 189.038152 25.44 
" style="fill:none;stroke:#b0b0b0;stroke-linecap:square;stroke-width:0.8;"/>
     </g>
     <g id="line2d_6">
      <g>
       <use style="stroke:#000000;stroke-width:0.8;" x="189.038152" xlink:href="#mfdd2979a5a" y="255.638708"/>
      </g>
     </g>
     <g id="text_3">
      <!-- 2024-08-30 -->
      <g transform="translate(181.692759 319.848351)rotate(-70)scale(0.1 -0.1)">
       <defs>
        <path d="M 40.578125 39.3125 
Q 47.65625 37.796875 51.625 33 
Q 55.609375 28.21875 55.609375 21.1875 
Q 55.609375 10.40625 48.1875 4.484375 
Q 40.765625 -1.421875 27.09375 -1.421875 
Q 22.515625 -1.421875 17.65625 -0.515625 
Q 12.796875 0.390625 7.625 2.203125 
L 7.625 11.71875 
Q 11.71875 9.328125 16.59375 8.109375 
Q 21.484375 6.890625 26.8125 6.890625 
Q 36.078125 6.890625 40.9375 10.546875 
Q 45.796875 14.203125 45.796875 21.1875 
Q 45.796875 27.640625 41.28125 31.265625 
Q 36.765625 34.90625 28.71875 34.90625 
L 20.21875 34.90625 
L 20.21875 43.015625 
L 29.109375 43.015625 
Q 36.375 43.015625 40.234375 45.921875 
Q 44.09375 48.828125 44.09375 54.296875 
Q 44.09375 59.90625 40.109375 62.90625 
Q 36.140625 65.921875 28.71875 65.921875 
Q 24.65625 65.921875 20.015625 65.03125 
Q 15.375 64.15625 9.8125 62.3125 
L 9.8125 71.09375 
Q 15.4375 72.65625 20.34375 73.4375 
Q 25.25 74.21875 29.59375 74.21875 
Q 40.828125 74.21875 47.359375 69.109375 
Q 53.90625 64.015625 53.90625 55.328125 
Q 53.90625 49.265625 50.4375 45.09375 
Q 46.96875 40.921875 40.578125 39.3125 
z
" id="DejaVuSans-51"/>
       </defs>
       <use xlink:href="#DejaVuSans-50"/>
       <use x="63.623047" xlink:href="#DejaVuSans-48"/>
       <use x="127.246094" xlink:href="#DejaVuSans-50"/>
       <use x="190.869141" xlink:href="#DejaVuSans-52"/>
       <use x="254.492188" xlink:href="#DejaVuSans-45"/>
       <use x="290.576172" xlink:href="#DejaVuSans-48"/>
       <use x="354.199219" xlink:href="#DejaVuSans-56"/>
       <use x="417.822266" xlink:href="#DejaVuSans-45"/>
       <use x="453.90625" xlink:href="#DejaVuSans-51"/>
       <use x="517.529297" xlink:href="#DejaVuSans-48"/>
      </g>
     </g>
    </g>
    <g id="xtick_4">
     <g id="line2d_7">
      <path clip-path="url(#p9d474d3fb0)" d="M 237.260943 255.638708 
L 237.260943 25.44 
" style="fill:none;stroke:#b0b0b0;stroke-linecap:square;stroke-width:0.8;"/>
     </g>
     <g id="line2d_8">
      <g>
       <use style="stroke:#000000;stroke-width:0.8;" x="237.260943" xlink:href="#mfdd2979a5a" y="255.638708"/>
      </g>
     </g>
     <g id="text_4">
      <!-- 2024-08-31 -->
      <g transform="translate(229.91555 319.848351)rotate(-70)scale(0.1 -0.1)">
       <defs>
        <path d="M 12.40625 8.296875 
L 28.515625 8.296875 
L 28.515625 63.921875 
L 10.984375 60.40625 
L 10.984375 69.390625 
L 28.421875 72.90625 
L 38.28125 72.90625 
L 38.28125 8.296875 
L 54.390625 8.296875 
L 54.390625 0 
L 12.40625 0 
z
" id="DejaVuSans-49"/>
       </defs>
       <use xlink:href="#DejaVuSans-50"/>
       <use x="63.623047" xlink:href="#DejaVuSans-48"/>
       <use x="127.246094" xlink:href="#DejaVuSans-50"/>
       <use x="190.869141" xlink:href="#DejaVuSans-52"/>
       <use x="254.492188" xlink:href="#DejaVuSans-45"/>
       <use x="290.576172" xlink:href="#DejaVuSans-48"/>
       <use x="354.199219" xlink:href="#DejaVuSans-56"/>
       <use x="417.822266" xlink:href="#DejaVuSans-45"/>
       <use x="453.90625" xlink:href="#DejaVuSans-51"/>
       <use x="517.529297" xlink:href="#DejaVuSans-49"/>
      </g>
     </g>
    </g>
    <g id="xtick_5">
     <g id="line2d_9">
      <path clip-path="url(#p9d474d3fb0)" d="M 285.483733 255.638708 
L 285.483733 25.44 
" style="fill:none;stroke:#b0b0b0;stroke-linecap:square;stroke-width:0.8;"/>
     </g>
     <g id="line2d_10">
      <g>
       <use style="stroke:#000000;stroke-width:0.8;" x="285.483733" xlink:href="#mfdd2979a5a" y="255.638708"/>
      </g>
     </g>
     <g id="text_5">
      <!-- 2024-09-01 -->
      <g transform="translate(278.138341 319.848351)rotate(-70)scale(0.1 -0.1)">
       <use xlink:href="#DejaVuSans-50"/>
       <use x="63.623047" xlink:href="#DejaVuSans-48"/>
       <use x="127.246094" xlink:href="#DejaVuSans-50"/>
       <use x="190.869141" xlink:href="#DejaVuSans-52"/>
       <use x="254.492188" xlink:href="#DejaVuSans-45"/>
       <use x="290.576172" xlink:href="#DejaVuSans-48"/>
       <use x="354.199219" xlink:href="#DejaVuSans-57"/>
       <use x="417.822266" xlink:href="#DejaVuSans-45"/>
       <use x="453.90625" xlink:href="#DejaVuSans-48"/>
       <use x="517.529297" xlink:href="#DejaVuSans-49"/>
      </g>
     </g>
    </g>
    <g id="xtick_6">
     <g id="line2d_11">
      <path clip-path="url(#p9d474d3fb0)" d="M 333.706524 255.638708 
L 333.706524 25.44 
" style="fill:none;stroke:#b0b0b0;stroke-linecap:square;stroke-width:0.8;"/>
     </g>
     <g id="line2d_12">
      <g>
       <use style="stroke:#000000;stroke-width:0.8;" x="333.706524" xlink:href="#mfdd2979a5a" y="255.638708"/>
      </g>
     </g>
     <g id="text_6">
      <!-- 2024-09-02 -->
      <g transform="translate(326.361131 319.848351)rotate(-70)scale(0.1 -0.1)">
       <use xlink:href="#DejaVuSans-50"/>
       <use x="63.623047" xlink:href="#DejaVuSans-48"/>
       <use x="127.246094" xlink:href="#DejaVuSans-50"/>
       <use x="190.869141" xlink:href="#DejaVuSans-52"/>
       <use x="254.492188" xlink:href="#DejaVuSans-45"/>
       <use x="290.576172" xlink:href="#DejaVuSans-48"/>
       <use x="354.199219" xlink:href="#DejaVuSans-57"/>
       <use x="417.822266" xlink:href="#DejaVuSans-45"/>
       <use x="453.90625" xlink:href="#DejaVuSans-48"/>
       <use x="517.529297" xlink:href="#DejaVuSans-50"/>
      </g>
     </g>
    </g>
    <g id="xtick_7">
     <g id="line2d_13">
      <path clip-path="url(#p9d474d3fb0)" d="M 381.929315 255.638708 
L 381.929315 25.44 
" style="fill:none;stroke:#b0b0b0;stroke-linecap:square;stroke-width:0.8;"/>
     </g>
     <g id="line2d_14">
      <g>
       <use style="stroke:#000000;stroke-width:0.8;" x="381.929315" xlink:href="#mfdd2979a5a" y="255.638708"/>
      </g>
     </g>
     <g id="text_7">
      <!-- 2024-09-03 -->
      <g transform="translate(374.583922 319.848351)rotate(-70)scale(0.1 -0.1)">
       <use xlink:href="#DejaVuSans-50"/>
       <use x="63.623047" xlink:href="#DejaVuSans-48"/>
       <use x="127.246094" xlink:href="#DejaVuSans-50"/>
       <use x="190.869141" xlink:href="#DejaVuSans-52"/>
       <use x="254.492188" xlink:href="#DejaVuSans-45"/>
       <use x="290.576172" xlink:href="#DejaVuSans-48"/>
       <use x="354.199219" xlink:href="#DejaVuSans-57"/>
       <use x="417.822266" xlink:href="#DejaVuSans-45"/>
       <use x="453.90625" xlink:href="#DejaVuSans-48"/>
       <use x="517.529297" xlink:href="#DejaVuSans-51"/>
      </g>
     </g>
    </g>
    <g id="xtick_8">
     <g id="line2d_15">
      <path clip-path="url(#p9d474d3fb0)" d="M 430.152106 255.638708 
L 430.152106 25.44 
" style="fill:none;stroke:#b0b0b0;stroke-linecap:square;stroke-width:0.8;"/>
     </g>
     <g id="line2d_16">
      <g>
       <use style="stroke:#000000;stroke-width:0.8;" x="430.152106" xlink:href="#mfdd2979a5a" y="255.638708"/>
      </g>
     </g>
     <g id="text_8">
      <!-- 2024-09-04 -->
      <g transform="translate(422.806713 319.848351)rotate(-70)scale(0.1 -0.1)">
       <use xlink:href="#DejaVuSans-50"/>
       <use x="63.623047" xlink:href="#DejaVuSans-48"/>
       <use x="127.246094" xlink:href="#DejaVuSans-50"/>
       <use x="190.869141" xlink:href="#DejaVuSans-52"/>
       <use x="254.492188" xlink:href="#DejaVuSans-45"/>
       <use x="290.576172" xlink:href="#DejaVuSans-48"/>
       <use x="354.199219" xlink:href="#DejaVuSans-57"/>
       <use x="417.822266" xlink:href="#DejaVuSans-45"/>
       <use x="453.90625" xlink:href="#DejaVuSans-48"/>
       <use x="517.529297" xlink:href="#DejaVuSans-52"/>
      </g>
     </g>
    </g>
    <g id="text_9">
     <!-- Date -->
     <g transform="translate(240.149219 332.158083)scale(0.1 -0.1)">
      <defs>
       <path d="M 19.671875 64.796875 
L 19.671875 8.109375 
L 31.59375 8.109375 
Q 46.6875 8.109375 53.6875 14.9375 
Q 60.6875 21.78125 60.6875 36.53125 
Q 60.6875 51.171875 53.6875 57.984375 
Q 46.6875 64.796875 31.59375 64.796875 
z
M 9.8125 72.90625 
L 30.078125 72.90625 
Q 51.265625 72.90625 61.171875 64.09375 
Q 71.09375 55.28125 71.09375 36.53125 
Q 71.09375 17.671875 61.125 8.828125 
Q 51.171875 0 30.078125 0 
L 9.8125 0 
z
" id="DejaVuSans-68"/>
       <path d="M 34.28125 27.484375 
Q 23.390625 27.484375 19.1875 25 
Q 14.984375 22.515625 14.984375 16.5 
Q 14.984375 11.71875 18.140625 8.90625 
Q 21.296875 6.109375 26.703125 6.109375 
Q 34.1875 6.109375 38.703125 11.40625 
Q 43.21875 16.703125 43.21875 25.484375 
L 43.21875 27.484375 
z
M 52.203125 31.203125 
L 52.203125 0 
L 43.21875 0 
L 43.21875 8.296875 
Q 40.140625 3.328125 35.546875 0.953125 
Q 30.953125 -1.421875 24.3125 -1.421875 
Q 15.921875 -1.421875 10.953125 3.296875 
Q 6 8.015625 6 15.921875 
Q 6 25.140625 12.171875 29.828125 
Q 18.359375 34.515625 30.609375 34.515625 
L 43.21875 34.515625 
L 43.21875 35.40625 
Q 43.21875 41.609375 39.140625 45 
Q 35.0625 48.390625 27.6875 48.390625 
Q 23 48.390625 18.546875 47.265625 
Q 14.109375 46.140625 10.015625 43.890625 
L 10.015625 52.203125 
Q 14.9375 54.109375 19.578125 55.046875 
Q 24.21875 56 28.609375 56 
Q 40.484375 56 46.34375 49.84375 
Q 52.203125 43.703125 52.203125 31.203125 
z
" id="DejaVuSans-97"/>
       <path d="M 18.3125 70.21875 
L 18.3125 54.6875 
L 36.8125 54.6875 
L 36.8125 47.703125 
L 18.3125 47.703125 
L 18.3125 18.015625 
Q 18.3125 11.328125 20.140625 9.421875 
Q 21.96875 7.515625 27.59375 7.515625 
L 36.8125 7.515625 
L 36.8125 0 
L 27.59375 0 
Q 17.1875 0 13.234375 3.875 
Q 9.28125 7.765625 9.28125 18.015625 
L 9.28125 47.703125 
L 2.6875 47.703125 
L 2.6875 54.6875 
L 9.28125 54.6875 
L 9.28125 70.21875 
z
" id="DejaVuSans-116"/>
       <path d="M 56.203125 29.59375 
L 56.203125 25.203125 
L 14.890625 25.203125 
Q 15.484375 15.921875 20.484375 11.0625 
Q 25.484375 6.203125 34.421875 6.203125 
Q 39.59375 6.203125 44.453125 7.46875 
Q 49.3125 8.734375 54.109375 11.28125 
L 54.109375 2.78125 
Q 49.265625 0.734375 44.1875 -0.34375 
Q 39.109375 -1.421875 33.890625 -1.421875 
Q 20.796875 -1.421875 13.15625 6.1875 
Q 5.515625 13.8125 5.515625 26.8125 
Q 5.515625 40.234375 12.765625 48.109375 
Q 20.015625 56 32.328125 56 
Q 43.359375 56 49.78125 48.890625 
Q 56.203125 41.796875 56.203125 29.59375 
z
M 47.21875 32.234375 
Q 47.125 39.59375 43.09375 43.984375 
Q 39.0625 48.390625 32.421875 48.390625 
Q 24.90625 48.390625 20.390625 44.140625 
Q 15.875 39.890625 15.1875 32.171875 
z
" id="DejaVuSans-101"/>
      </defs>
      <use xlink:href="#DejaVuSans-68"/>
      <use x="77.001953" xlink:href="#DejaVuSans-97"/>
      <use x="138.28125" xlink:href="#DejaVuSans-116"/>
      <use x="177.490234" xlink:href="#DejaVuSans-101"/>
     </g>
    </g>
   </g>
   <g id="matplotlib.axis_2">
    <g id="ytick_1">
     <g id="line2d_17">
      <path clip-path="url(#p9d474d3fb0)" d="M 54.2 249.445978 
L 450 249.445978 
" style="fill:none;stroke:#b0b0b0;stroke-linecap:square;stroke-width:0.8;"/>
     </g>
     <g id="line2d_18">
      <defs>
       <path d="M 0 0 
L -3.5 0 
" id="m398e58948a" style="stroke:#000000;stroke-width:0.8;"/>
      </defs>
      <g>
       <use style="stroke:#000000;stroke-width:0.8;" x="54.2" xlink:href="#m398e58948a" y="249.445978"/>
      </g>
     </g>
     <g id="text_10">
      <!-- 55.0 -->
      <g transform="translate(24.934375 253.245197)scale(0.1 -0.1)">
       <defs>
        <path d="M 10.796875 72.90625 
L 49.515625 72.90625 
L 49.515625 64.59375 
L 19.828125 64.59375 
L 19.828125 46.734375 
Q 21.96875 47.46875 24.109375 47.828125 
Q 26.265625 48.1875 28.421875 48.1875 
Q 40.625 48.1875 47.75 41.5 
Q 54.890625 34.8125 54.890625 23.390625 
Q 54.890625 11.625 47.5625 5.09375 
Q 40.234375 -1.421875 26.90625 -1.421875 
Q 22.3125 -1.421875 17.546875 -0.640625 
Q 12.796875 0.140625 7.71875 1.703125 
L 7.71875 11.625 
Q 12.109375 9.234375 16.796875 8.0625 
Q 21.484375 6.890625 26.703125 6.890625 
Q 35.15625 6.890625 40.078125 11.328125 
Q 45.015625 15.765625 45.015625 23.390625 
Q 45.015625 31 40.078125 35.4375 
Q 35.15625 39.890625 26.703125 39.890625 
Q 22.75 39.890625 18.8125 39.015625 
Q 14.890625 38.140625 10.796875 36.28125 
z
" id="DejaVuSans-53"/>
        <path d="M 10.6875 12.40625 
L 21 12.40625 
L 21 0 
L 10.6875 0 
z
" id="DejaVuSans-46"/>
       </defs>
       <use xlink:href="#DejaVuSans-53"/>
       <use x="63.623047" xlink:href="#DejaVuSans-53"/>
       <use x="127.246094" xlink:href="#DejaVuSans-46"/>
       <use x="159.033203" xlink:href="#DejaVuSans-48"/>
      </g>
     </g>
    </g>
    <g id="ytick_2">
     <g id="line2d_19">
      <path clip-path="url(#p9d474d3fb0)" d="M 54.2 222.753178 
L 450 222.753178 
" style="fill:none;stroke:#b0b0b0;stroke-linecap:square;stroke-width:0.8;"/>
     </g>
     <g id="line2d_20">
      <g>
       <use style="stroke:#000000;stroke-width:0.8;" x="54.2" xlink:href="#m398e58948a" y="222.753178"/>
      </g>
     </g>
     <g id="text_11">
      <!-- 57.5 -->
      <g transform="translate(24.934375 226.552397)scale(0.1 -0.1)">
       <defs>
        <path d="M 8.203125 72.90625 
L 55.078125 72.90625 
L 55.078125 68.703125 
L 28.609375 0 
L 18.3125 0 
L 43.21875 64.59375 
L 8.203125 64.59375 
z
" id="DejaVuSans-55"/>
       </defs>
       <use xlink:href="#DejaVuSans-53"/>
       <use x="63.623047" xlink:href="#DejaVuSans-55"/>
       <use x="127.246094" xlink:href="#DejaVuSans-46"/>
       <use x="159.033203" xlink:href="#DejaVuSans-53"/>
      </g>
     </g>
    </g>
    <g id="ytick_3">
     <g id="line2d_21">
      <path clip-path="url(#p9d474d3fb0)" d="M 54.2 196.060378 
L 450 196.060378 
" style="fill:none;stroke:#b0b0b0;stroke-linecap:square;stroke-width:0.8;"/>
     </g>
     <g id="line2d_22">
      <g>
       <use style="stroke:#000000;stroke-width:0.8;" x="54.2" xlink:href="#m398e58948a" y="196.060378"/>
      </g>
     </g>
     <g id="text_12">
      <!-- 60.0 -->
      <g transform="translate(24.934375 199.859597)scale(0.1 -0.1)">
       <defs>
        <path d="M 33.015625 40.375 
Q 26.375 40.375 22.484375 35.828125 
Q 18.609375 31.296875 18.609375 23.390625 
Q 18.609375 15.53125 22.484375 10.953125 
Q 26.375 6.390625 33.015625 6.390625 
Q 39.65625 6.390625 43.53125 10.953125 
Q 47.40625 15.53125 47.40625 23.390625 
Q 47.40625 31.296875 43.53125 35.828125 
Q 39.65625 40.375 33.015625 40.375 
z
M 52.59375 71.296875 
L 52.59375 62.3125 
Q 48.875 64.0625 45.09375 64.984375 
Q 41.3125 65.921875 37.59375 65.921875 
Q 27.828125 65.921875 22.671875 59.328125 
Q 17.53125 52.734375 16.796875 39.40625 
Q 19.671875 43.65625 24.015625 45.921875 
Q 28.375 48.1875 33.59375 48.1875 
Q 44.578125 48.1875 50.953125 41.515625 
Q 57.328125 34.859375 57.328125 23.390625 
Q 57.328125 12.15625 50.6875 5.359375 
Q 44.046875 -1.421875 33.015625 -1.421875 
Q 20.359375 -1.421875 13.671875 8.265625 
Q 6.984375 17.96875 6.984375 36.375 
Q 6.984375 53.65625 15.1875 63.9375 
Q 23.390625 74.21875 37.203125 74.21875 
Q 40.921875 74.21875 44.703125 73.484375 
Q 48.484375 72.75 52.59375 71.296875 
z
" id="DejaVuSans-54"/>
       </defs>
       <use xlink:href="#DejaVuSans-54"/>
       <use x="63.623047" xlink:href="#DejaVuSans-48"/>
       <use x="127.246094" xlink:href="#DejaVuSans-46"/>
       <use x="159.033203" xlink:href="#DejaVuSans-48"/>
      </g>
     </g>
    </g>
    <g id="ytick_4">
     <g id="line2d_23">
      <path clip-path="url(#p9d474d3fb0)" d="M 54.2 169.367578 
L 450 169.367578 
" style="fill:none;stroke:#b0b0b0;stroke-linecap:square;stroke-width:0.8;"/>
     </g>
     <g id="line2d_24">
      <g>
       <use style="stroke:#000000;stroke-width:0.8;" x="54.2" xlink:href="#m398e58948a" y="169.367578"/>
      </g>
     </g>
     <g id="text_13">
      <!-- 62.5 -->
      <g transform="translate(24.934375 173.166797)scale(0.1 -0.1)">
       <use xlink:href="#DejaVuSans-54"/>
       <use x="63.623047" xlink:href="#DejaVuSans-50"/>
       <use x="127.246094" xlink:href="#DejaVuSans-46"/>
       <use x="159.033203" xlink:href="#DejaVuSans-53"/>
      </g>
     </g>
    </g>
    <g id="ytick_5">
     <g id="line2d_25">
      <path clip-path="url(#p9d474d3fb0)" d="M 54.2 142.674778 
L 450 142.674778 
" style="fill:none;stroke:#b0b0b0;stroke-linecap:square;stroke-width:0.8;"/>
     </g>
     <g id="line2d_26">
      <g>
       <use style="stroke:#000000;stroke-width:0.8;" x="54.2" xlink:href="#m398e58948a" y="142.674778"/>
      </g>
     </g>
     <g id="text_14">
      <!-- 65.0 -->
      <g transform="translate(24.934375 146.473997)scale(0.1 -0.1)">
       <use xlink:href="#DejaVuSans-54"/>
       <use x="63.623047" xlink:href="#DejaVuSans-53"/>
       <use x="127.246094" xlink:href="#DejaVuSans-46"/>
       <use x="159.033203" xlink:href="#DejaVuSans-48"/>
      </g>
     </g>
    </g>
    <g id="ytick_6">
     <g id="line2d_27">
      <path clip-path="url(#p9d474d3fb0)" d="M 54.2 115.981978 
L 450 115.981978 
" style="fill:none;stroke:#b0b0b0;stroke-linecap:square;stroke-width:0.8;"/>
     </g>
     <g id="line2d_28">
      <g>
       <use style="stroke:#000000;stroke-width:0.8;" x="54.2" xlink:href="#m398e58948a" y="115.981978"/>
      </g>
     </g>
     <g id="text_15">
      <!-- 67.5 -->
      <g transform="translate(24.934375 119.781197)scale(0.1 -0.1)">
       <use xlink:href="#DejaVuSans-54"/>
       <use x="63.623047" xlink:href="#DejaVuSans-55"/>
       <use x="127.246094" xlink:href="#DejaVuSans-46"/>
       <use x="159.033203" xlink:href="#DejaVuSans-53"/>
      </g>
     </g>
    </g>
    <g id="ytick_7">
     <g id="line2d_29">
      <path clip-path="url(#p9d474d3fb0)" d="M 54.2 89.289178 
L 450 89.289178 
" style="fill:none;stroke:#b0b0b0;stroke-linecap:square;stroke-width:0.8;"/>
     </g>
     <g id="line2d_30">
      <g>
       <use style="stroke:#000000;stroke-width:0.8;" x="54.2" xlink:href="#m398e58948a" y="89.289178"/>
      </g>
     </g>
     <g id="text_16">
      <!-- 70.0 -->
      <g transform="translate(24.934375 93.088397)scale(0.1 -0.1)">
       <use xlink:href="#DejaVuSans-55"/>
       <use x="63.623047" xlink:href="#DejaVuSans-48"/>
       <use x="127.246094" xlink:href="#DejaVuSans-46"/>
       <use x="159.033203" xlink:href="#DejaVuSans-48"/>
      </g>
     </g>
    </g>
    <g id="ytick_8">
     <g id="line2d_31">
      <path clip-path="url(#p9d474d3fb0)" d="M 54.2 62.596378 
L 450 62.596378 
" style="fill:none;stroke:#b0b0b0;stroke-linecap:square;stroke-width:0.8;"/>
     </g>
     <g id="line2d_32">
      <g>
       <use style="stroke:#000000;stroke-width:0.8;" x="54.2" xlink:href="#m398e58948a" y="62.596378"/>
      </g>
     </g>
     <g id="text_17">
      <!-- 72.5 -->
      <g transform="translate(24.934375 66.395596)scale(0.1 -0.1)">
       <use xlink:href="#DejaVuSans-55"/>
       <use x="63.623047" xlink:href="#DejaVuSans-50"/>
       <use x="127.246094" xlink:href="#DejaVuSans-46"/>
       <use x="159.033203" xlink:href="#DejaVuSans-53"/>
      </g>
     </g>
    </g>
    <g id="ytick_9">
     <g id="line2d_33">
      <path clip-path="url(#p9d474d3fb0)" d="M 54.2 35.903578 
L 450 35.903578 
" style="fill:none;stroke:#b0b0b0;stroke-linecap:square;stroke-width:0.8;"/>
     </g>
     <g id="line2d_34">
      <g>
       <use style="stroke:#000000;stroke-width:0.8;" x="54.2" xlink:href="#m398e58948a" y="35.903578"/>
      </g>
     </g>
     <g id="text_18">
      <!-- 75.0 -->
      <g transform="translate(24.934375 39.702796)scale(0.1 -0.1)">
       <use xlink:href="#DejaVuSans-55"/>
       <use x="63.623047" xlink:href="#DejaVuSans-53"/>
       <use x="127.246094" xlink:href="#DejaVuSans-46"/>
       <use x="159.033203" xlink:href="#DejaVuSans-48"/>
      </g>
     </g>
    </g>
    <g id="text_19">
     <!-- Temperature [F] -->
     <g transform="translate(18.854688 180.575291)rotate(-90)scale(0.1 -0.1)">
      <defs>
       <path d="M -0.296875 72.90625 
L 61.375 72.90625 
L 61.375 64.59375 
L 35.5 64.59375 
L 35.5 0 
L 25.59375 0 
L 25.59375 64.59375 
L -0.296875 64.59375 
z
" id="DejaVuSans-84"/>
       <path d="M 52 44.1875 
Q 55.375 50.25 60.0625 53.125 
Q 64.75 56 71.09375 56 
Q 79.640625 56 84.28125 50.015625 
Q 88.921875 44.046875 88.921875 33.015625 
L 88.921875 0 
L 79.890625 0 
L 79.890625 32.71875 
Q 79.890625 40.578125 77.09375 44.375 
Q 74.3125 48.1875 68.609375 48.1875 
Q 61.625 48.1875 57.5625 43.546875 
Q 53.515625 38.921875 53.515625 30.90625 
L 53.515625 0 
L 44.484375 0 
L 44.484375 32.71875 
Q 44.484375 40.625 41.703125 44.40625 
Q 38.921875 48.1875 33.109375 48.1875 
Q 26.21875 48.1875 22.15625 43.53125 
Q 18.109375 38.875 18.109375 30.90625 
L 18.109375 0 
L 9.078125 0 
L 9.078125 54.6875 
L 18.109375 54.6875 
L 18.109375 46.1875 
Q 21.1875 51.21875 25.484375 53.609375 
Q 29.78125 56 35.6875 56 
Q 41.65625 56 45.828125 52.96875 
Q 50 49.953125 52 44.1875 
z
" id="DejaVuSans-109"/>
       <path d="M 18.109375 8.203125 
L 18.109375 -20.796875 
L 9.078125 -20.796875 
L 9.078125 54.6875 
L 18.109375 54.6875 
L 18.109375 46.390625 
Q 20.953125 51.265625 25.265625 53.625 
Q 29.59375 56 35.59375 56 
Q 45.5625 56 51.78125 48.09375 
Q 58.015625 40.1875 58.015625 27.296875 
Q 58.015625 14.40625 51.78125 6.484375 
Q 45.5625 -1.421875 35.59375 -1.421875 
Q 29.59375 -1.421875 25.265625 0.953125 
Q 20.953125 3.328125 18.109375 8.203125 
z
M 48.6875 27.296875 
Q 48.6875 37.203125 44.609375 42.84375 
Q 40.53125 48.484375 33.40625 48.484375 
Q 26.265625 48.484375 22.1875 42.84375 
Q 18.109375 37.203125 18.109375 27.296875 
Q 18.109375 17.390625 22.1875 11.75 
Q 26.265625 6.109375 33.40625 6.109375 
Q 40.53125 6.109375 44.609375 11.75 
Q 48.6875 17.390625 48.6875 27.296875 
z
" id="DejaVuSans-112"/>
       <path d="M 41.109375 46.296875 
Q 39.59375 47.171875 37.8125 47.578125 
Q 36.03125 48 33.890625 48 
Q 26.265625 48 22.1875 43.046875 
Q 18.109375 38.09375 18.109375 28.8125 
L 18.109375 0 
L 9.078125 0 
L 9.078125 54.6875 
L 18.109375 54.6875 
L 18.109375 46.1875 
Q 20.953125 51.171875 25.484375 53.578125 
Q 30.03125 56 36.53125 56 
Q 37.453125 56 38.578125 55.875 
Q 39.703125 55.765625 41.0625 55.515625 
z
" id="DejaVuSans-114"/>
       <path d="M 8.5 21.578125 
L 8.5 54.6875 
L 17.484375 54.6875 
L 17.484375 21.921875 
Q 17.484375 14.15625 20.5 10.265625 
Q 23.53125 6.390625 29.59375 6.390625 
Q 36.859375 6.390625 41.078125 11.03125 
Q 45.3125 15.671875 45.3125 23.6875 
L 45.3125 54.6875 
L 54.296875 54.6875 
L 54.296875 0 
L 45.3125 0 
L 45.3125 8.40625 
Q 42.046875 3.421875 37.71875 1 
Q 33.40625 -1.421875 27.6875 -1.421875 
Q 18.265625 -1.421875 13.375 4.4375 
Q 8.5 10.296875 8.5 21.578125 
z
M 31.109375 56 
z
" id="DejaVuSans-117"/>
       <path id="DejaVuSans-32"/>
       <path d="M 8.59375 75.984375 
L 29.296875 75.984375 
L 29.296875 69 
L 17.578125 69 
L 17.578125 -6.203125 
L 29.296875 -6.203125 
L 29.296875 -13.1875 
L 8.59375 -13.1875 
z
" id="DejaVuSans-91"/>
       <path d="M 9.8125 72.90625 
L 51.703125 72.90625 
L 51.703125 64.59375 
L 19.671875 64.59375 
L 19.671875 43.109375 
L 48.578125 43.109375 
L 48.578125 34.8125 
L 19.671875 34.8125 
L 19.671875 0 
L 9.8125 0 
z
" id="DejaVuSans-70"/>
       <path d="M 30.421875 75.984375 
L 30.421875 -13.1875 
L 9.71875 -13.1875 
L 9.71875 -6.203125 
L 21.390625 -6.203125 
L 21.390625 69 
L 9.71875 69 
L 9.71875 75.984375 
z
" id="DejaVuSans-93"/>
      </defs>
      <use xlink:href="#DejaVuSans-84"/>
      <use x="44.083984" xlink:href="#DejaVuSans-101"/>
      <use x="105.607422" xlink:href="#DejaVuSans-109"/>
      <use x="203.019531" xlink:href="#DejaVuSans-112"/>
      <use x="266.496094" xlink:href="#DejaVuSans-101"/>
      <use x="328.019531" xlink:href="#DejaVuSans-114"/>
      <use x="369.132812" xlink:href="#DejaVuSans-97"/>
      <use x="430.412109" xlink:href="#DejaVuSans-116"/>
      <use x="469.621094" xlink:href="#DejaVuSans-117"/>
      <use x="533" xlink:href="#DejaVuSans-114"/>
      <use x="571.863281" xlink:href="#DejaVuSans-101"/>
      <use x="633.386719" xlink:href="#DejaVuSans-32"/>
      <use x="665.173828" xlink:href="#DejaVuSans-91"/>
      <use x="704.1875" xlink:href="#DejaVuSans-70"/>
      <use x="761.707031" xlink:href="#DejaVuSans-93"/>
     </g>
    </g>
   </g>
   <g id="line2d_35">
    <path clip-path="url(#p9d474d3fb0)" d="M 72.190909 101.03401 
L 72.264509 101.03401 
L 72.333869 99.966298 
L 72.369234 101.03401 
L 72.403935 101.03401 
L 72.542936 99.966298 
L 72.612534 99.966298 
L 72.647323 101.03401 
L 72.68274 99.966298 
L 72.822646 98.898586 
L 73.032982 98.898586 
L 73.139169 97.830874 
L 73.316093 99.966298 
L 73.350919 99.966298 
L 73.458132 97.830874 
L 73.492861 99.966298 
L 73.562648 97.830874 
L 73.634347 97.830874 
L 73.776427 95.69545 
L 73.811003 97.830874 
L 73.846337 94.627738 
L 73.880994 94.627738 
L 73.916564 95.69545 
L 73.987084 94.627738 
L 74.127005 94.627738 
L 74.198153 93.560026 
L 74.23409 94.627738 
L 74.269833 94.627738 
L 74.30534 93.560026 
L 74.340065 95.69545 
L 74.444991 95.69545 
L 74.58881 93.560026 
L 74.623817 93.560026 
L 74.763735 94.627738 
L 74.798743 94.627738 
L 74.94112 95.69545 
L 75.047287 95.69545 
L 75.226182 92.492314 
L 75.403133 94.627738 
L 75.546074 92.492314 
L 75.582743 92.492314 
L 75.619145 91.424602 
L 75.688999 92.492314 
L 75.72425 93.560026 
L 75.782563 92.492314 
L 75.925257 92.492314 
L 75.997122 91.424602 
L 76.032143 92.492314 
L 76.069329 92.492314 
L 76.249002 95.69545 
L 76.321134 94.627738 
L 76.359212 95.69545 
L 76.473213 95.69545 
L 76.508035 97.830874 
L 76.579357 95.69545 
L 76.683818 95.69545 
L 76.826206 94.627738 
L 76.897636 95.69545 
L 76.933877 94.627738 
L 77.002987 94.627738 
L 77.075185 97.830874 
L 77.111573 94.627738 
L 77.180779 94.627738 
L 77.25659 97.830874 
L 77.291223 95.69545 
L 77.325817 95.69545 
L 77.360603 97.830874 
L 77.395513 94.627738 
L 77.430127 95.69545 
L 77.465741 95.69545 
L 77.607063 99.966298 
L 77.678962 95.69545 
L 77.713615 99.966298 
L 77.749697 102.101722 
L 77.786137 98.898586 
L 77.967655 94.627738 
L 78.110128 102.101722 
L 78.182228 98.898586 
L 78.217901 101.03401 
L 78.292163 102.101722 
L 78.326733 101.03401 
L 78.361272 101.03401 
L 78.539685 103.169434 
L 78.893629 103.169434 
L 79.035002 104.237146 
L 79.142028 103.169434 
L 79.21259 104.237146 
L 79.247426 103.169434 
L 79.282121 102.101722 
L 79.317795 104.237146 
L 79.391333 104.237146 
L 79.497164 99.966298 
L 79.533611 103.169434 
L 79.570076 106.37257 
L 79.639772 104.237146 
L 79.747836 104.237146 
L 79.962044 101.03401 
L 80.103518 102.101722 
L 80.175052 102.101722 
L 80.210174 101.03401 
L 80.244739 102.101722 
L 80.28089 103.169434 
L 80.315913 99.966298 
L 80.351191 103.169434 
L 80.423121 104.237146 
L 80.494989 102.101722 
L 80.529511 103.169434 
L 80.564173 103.169434 
L 80.598697 102.101722 
L 80.63349 104.237146 
L 80.669871 104.237146 
L 80.705236 102.101722 
L 80.774686 103.169434 
L 80.952439 103.169434 
L 81.062346 104.237146 
L 81.167906 103.169434 
L 81.278209 104.237146 
L 81.349775 102.101722 
L 81.419618 103.169434 
L 81.490097 103.169434 
L 81.631663 104.237146 
L 82.018791 104.237146 
L 82.125332 106.37257 
L 82.161665 104.237146 
L 82.231626 106.37257 
L 82.80494 106.37257 
L 82.949054 107.440282 
L 82.985507 106.37257 
L 83.055475 107.440282 
L 83.090227 107.440282 
L 83.124907 106.37257 
L 83.194756 107.440282 
L 83.866387 107.440282 
L 83.901545 108.507994 
L 83.936352 107.440282 
L 173.053915 108.507994 
L 173.089911 107.440282 
L 173.511651 104.237146 
L 173.546623 107.440282 
L 173.619959 106.37257 
L 173.694142 107.440282 
L 173.72984 104.237146 
L 173.815573 107.440282 
L 173.982438 103.169434 
L 174.092037 99.966298 
L 174.244191 104.237146 
L 174.278729 103.169434 
L 174.440121 106.37257 
L 174.588816 106.37257 
L 174.623431 107.440282 
L 174.767858 103.169434 
L 174.806246 103.169434 
L 174.91913 94.627738 
L 175.020591 103.169434 
L 175.055311 101.03401 
L 175.168796 104.237146 
L 175.208691 102.101722 
L 175.279776 103.169434 
L 175.403232 106.37257 
L 175.517154 103.169434 
L 175.630039 104.237146 
L 175.664677 104.237146 
L 175.84476 93.560026 
L 175.985822 103.169434 
L 176.020406 104.237146 
L 176.16105 92.492314 
L 176.19729 93.560026 
L 176.495054 106.37257 
L 176.564269 102.101722 
L 176.622054 103.169434 
L 176.803379 101.03401 
L 176.980964 106.37257 
L 177.016103 104.237146 
L 177.094264 104.237146 
L 177.318895 93.560026 
L 177.439543 104.237146 
L 177.476956 102.101722 
L 177.555728 106.37257 
L 177.664807 102.101722 
L 177.805751 106.37257 
L 177.840278 103.169434 
L 177.876215 104.237146 
L 178.018511 104.237146 
L 178.054526 102.101722 
L 178.129369 104.237146 
L 178.165548 107.440282 
L 178.201174 106.37257 
L 178.306024 103.169434 
L 178.342484 104.237146 
L 178.380139 97.830874 
L 178.453629 99.966298 
L 178.489731 98.898586 
L 178.562558 103.169434 
L 178.597354 101.03401 
L 178.634697 99.966298 
L 178.669214 101.03401 
L 178.845828 103.169434 
L 178.960252 102.101722 
L 179.029339 102.101722 
L 179.099284 103.169434 
L 179.134947 101.03401 
L 179.204095 103.169434 
L 179.23912 103.169434 
L 179.273654 102.101722 
L 179.344547 103.169434 
L 179.380183 103.169434 
L 179.519024 104.237146 
L 179.554927 104.237146 
L 179.695558 106.37257 
L 179.730666 106.37257 
L 179.872041 107.440282 
L 180.36644 107.440282 
L 180.473049 108.507994 
L 180.615046 107.440282 
L 180.863749 107.440282 
L 180.898647 103.169434 
L 180.968112 107.440282 
L 181.074306 106.37257 
L 181.221184 107.440282 
L 181.326907 107.440282 
L 181.362176 106.37257 
L 181.431752 107.440282 
L 181.501633 107.440282 
L 181.608574 108.507994 
L 181.644587 107.440282 
L 181.716453 108.507994 
L 182.43418 108.507994 
L 182.471822 109.575706 
L 182.506505 108.507994 
L 182.661611 107.440282 
L 183.065839 107.440282 
L 183.170002 106.37257 
L 183.205218 107.440282 
L 183.280052 106.37257 
L 183.777103 106.37257 
L 183.811715 107.440282 
L 183.881757 106.37257 
L 184.202326 106.37257 
L 184.310643 107.440282 
L 184.450146 106.37257 
L 184.588733 106.37257 
L 184.693688 107.440282 
L 184.80039 106.37257 
L 184.941877 107.440282 
L 185.011207 107.440282 
L 185.149927 106.37257 
L 185.219555 106.37257 
L 185.323336 107.440282 
L 185.43707 106.37257 
L 185.822299 106.37257 
L 325.154123 76.476634 
L 325.234619 78.612058 
L 325.402939 78.612058 
L 325.437816 76.476634 
L 325.509995 78.612058 
L 325.62355 78.612058 
L 325.659519 76.476634 
L 325.69424 78.612058 
L 326.056333 78.612058 
L 326.127782 79.67977 
L 326.162706 78.612058 
L 326.381866 78.612058 
L 326.418401 79.67977 
L 326.459804 78.612058 
L 326.536397 78.612058 
L 326.678248 79.67977 
L 326.749762 79.67977 
L 326.785428 78.612058 
L 326.854957 79.67977 
L 326.995088 79.67977 
L 327.100039 78.612058 
L 327.221575 79.67977 
L 328.017317 79.67977 
L 328.052321 80.747482 
L 328.121493 79.67977 
L 328.155994 79.67977 
L 328.191411 80.747482 
L 328.261654 79.67977 
L 328.297409 79.67977 
L 328.442912 80.747482 
L 328.589675 79.67977 
L 328.624277 79.67977 
L 328.763557 80.747482 
L 329.438339 80.747482 
L 329.473276 81.815194 
L 329.542661 80.747482 
L 329.688732 80.747482 
L 329.727391 81.815194 
L 329.779558 80.747482 
L 330.13849 80.747482 
L 330.284568 81.815194 
L 331.787659 81.815194 
L 331.823978 82.882906 
L 331.896123 81.815194 
L 332.217692 81.815194 
L 332.363783 82.882906 
L 332.507675 81.815194 
L 332.543291 81.815194 
L 332.684823 82.882906 
L 333.192159 82.882906 
L 333.359041 83.950618 
L 333.498404 82.882906 
L 334.531354 82.882906 
L 334.565861 81.815194 
L 334.637787 82.882906 
L 334.889381 82.882906 
L 334.924221 81.815194 
L 334.996015 82.882906 
L 335.032219 82.882906 
L 335.137547 81.815194 
L 335.279682 82.882906 
L 335.813665 82.882906 
L 335.848214 83.950618 
L 335.917277 82.882906 
L 336.583823 82.882906 
L 336.619409 81.815194 
L 336.689697 82.882906 
L 336.795086 82.882906 
L 336.841512 81.815194 
L 336.880536 82.882906 
L 337.234634 82.882906 
L 337.270276 81.815194 
L 337.342372 82.882906 
L 338.480434 82.882906 
L 338.62222 83.950618 
L 338.693345 83.950618 
L 338.839883 82.882906 
L 338.995255 83.950618 
L 339.139316 82.882906 
L 339.173841 82.882906 
L 339.314796 83.950618 
L 339.457433 82.882906 
L 339.634628 82.882906 
L 339.773428 83.950618 
L 340.39609 83.950618 
L 340.431051 85.01833 
L 340.50035 83.950618 
L 340.933647 83.950618 
L 341.041691 85.01833 
L 341.149283 83.950618 
L 341.255404 85.01833 
L 341.365771 83.950618 
L 341.475289 85.01833 
L 341.5492 85.01833 
L 341.586637 83.950618 
L 341.657806 85.01833 
L 342.768844 85.01833 
L 342.804631 87.153754 
L 342.875387 85.01833 
L 342.909978 85.01833 
L 342.950669 87.153754 
L 342.985422 85.01833 
L 343.493987 85.01833 
L 343.563985 87.153754 
L 343.599715 85.01833 
L 343.930511 85.01833 
L 344.073154 87.153754 
L 344.177818 85.01833 
L 344.282791 87.153754 
L 344.390865 85.01833 
L 344.496708 87.153754 
L 344.644005 85.01833 
L 344.785875 87.153754 
L 344.8205 87.153754 
L 344.855023 85.01833 
L 344.925626 87.153754 
L 344.963358 87.153754 
L 344.999283 85.01833 
L 345.072383 87.153754 
L 346.103009 87.153754 
L 346.21269 88.221466 
L 346.326558 87.153754 
L 346.432499 87.153754 
L 346.468795 88.221466 
L 346.503901 87.153754 
L 346.889606 87.153754 
L 347.033041 88.221466 
L 347.138895 87.153754 
L 347.281658 88.221466 
L 348.497406 88.221466 
L 348.60287 89.289178 
L 348.675813 88.221466 
L 348.711085 89.289178 
L 348.782142 89.289178 
L 348.851967 88.221466 
L 348.886724 89.289178 
L 349.69878 89.289178 
L 349.842633 88.221466 
L 349.983701 89.289178 
L 351.443273 89.289178 
L 351.47799 90.35689 
L 351.663265 89.289178 
L 352.807948 89.289178 
L 352.843986 90.35689 
L 352.881447 89.289178 
L 352.956535 90.35689 
L 353.064354 89.289178 
L 353.185032 90.35689 
L 354.200637 90.35689 
L 354.235308 89.289178 
L 354.308132 90.35689 
L 354.489158 90.35689 
L 354.5951 89.289178 
L 354.739543 90.35689 
L 354.775682 90.35689 
L 354.920712 89.289178 
L 355.097071 89.289178 
L 355.131608 90.35689 
L 355.2035 89.289178 
L 355.310528 89.289178 
L 355.45693 90.35689 
L 355.59942 89.289178 
L 355.880988 89.289178 
L 355.915647 90.35689 
L 355.955299 89.289178 
L 355.992859 89.289178 
L 356.029636 90.35689 
L 356.103783 89.289178 
L 357.302341 89.289178 
L 357.445177 88.221466 
L 357.767653 88.221466 
L 357.839698 87.153754 
L 357.875121 88.221466 
L 358.092306 88.221466 
L 358.172334 87.153754 
L 358.279845 88.221466 
L 358.316726 87.153754 
L 358.387315 88.221466 
L 359.395396 88.221466 
L 359.539183 87.153754 
L 359.655134 87.153754 
L 359.690032 88.221466 
L 359.759674 87.153754 
L 359.903879 87.153754 
L 360.047597 85.01833 
L 360.405662 85.01833 
L 360.475561 83.950618 
L 360.510617 85.01833 
L 361.363227 85.01833 
L 361.468623 83.950618 
L 361.6124 85.01833 
L 361.6817 85.01833 
L 361.78752 83.950618 
L 361.82266 85.01833 
L 361.893822 83.950618 
L 361.928415 83.950618 
L 362.06713 82.882906 
L 362.13958 82.882906 
L 362.279898 83.950618 
L 362.384469 83.950618 
L 362.526168 82.882906 
L 362.560685 82.882906 
L 362.667878 83.950618 
L 362.78988 82.882906 
L 362.933274 82.882906 
L 363.042001 83.950618 
L 363.183523 82.882906 
L 363.219276 83.950618 
L 363.293431 82.882906 
L 363.44115 83.950618 
L 363.58984 83.950618 
L 363.62452 82.882906 
L 363.695783 83.950618 
L 364.199473 83.950618 
L 364.342119 82.882906 
L 364.413638 83.950618 
L 364.448484 82.882906 
L 364.560379 82.882906 
L 364.705623 83.950618 
L 364.742583 83.950618 
L 364.779863 82.882906 
L 364.815786 83.950618 
L 364.853765 83.950618 
L 364.890158 82.882906 
L 364.960718 83.950618 
L 364.998566 83.950618 
L 365.145222 82.882906 
L 365.220135 82.882906 
L 365.36328 83.950618 
L 365.399198 83.950618 
L 365.541584 82.882906 
L 365.797675 82.882906 
L 365.836888 83.950618 
L 365.871575 82.882906 
L 366.067887 82.882906 
L 366.103421 83.950618 
L 366.175194 82.882906 
L 366.45212 82.882906 
L 366.486708 80.747482 
L 366.557628 81.815194 
L 366.662225 81.815194 
L 366.803307 82.882906 
L 366.945314 82.882906 
L 367.015175 83.950618 
L 367.050423 82.882906 
L 367.086335 82.882906 
L 367.120965 81.815194 
L 367.191531 82.882906 
L 367.226795 82.882906 
L 367.333198 81.815194 
L 367.367856 82.882906 
L 367.439986 81.815194 
L 367.511813 81.815194 
L 367.654831 82.882906 
L 368.055639 82.882906 
L 368.090383 83.950618 
L 368.162484 82.882906 
L 368.271159 81.815194 
L 368.414673 82.882906 
L 368.88048 82.882906 
L 369.021058 83.950618 
L 369.093243 83.950618 
L 369.129461 82.882906 
L 369.199304 83.950618 
L 369.622976 83.950618 
L 369.765451 82.882906 
L 369.917558 83.950618 
L 370.355991 83.950618 
L 370.459819 85.01833 
L 370.60091 83.950618 
L 370.744627 83.950618 
L 370.781443 82.882906 
L 370.851262 83.950618 
L 371.281236 83.950618 
L 371.317017 85.01833 
L 371.386794 83.950618 
L 371.868887 83.950618 
L 372.012604 85.01833 
L 372.155718 83.950618 
L 372.301274 85.01833 
L 372.875206 85.01833 
L 372.946093 83.950618 
L 372.981222 85.01833 
L 373.126201 85.01833 
L 373.163065 83.950618 
L 373.234548 85.01833 
L 374.212937 85.01833 
L 374.24895 87.153754 
L 374.406231 85.01833 
L 374.525145 87.153754 
L 374.559732 85.01833 
L 374.604261 87.153754 
L 374.638995 87.153754 
L 374.674213 85.01833 
L 374.746215 87.153754 
L 374.783769 87.153754 
L 374.923933 85.01833 
L 375.066831 87.153754 
L 375.185362 87.153754 
L 375.330214 85.01833 
L 375.490784 87.153754 
L 376.400059 87.153754 
L 376.528682 88.221466 
L 376.600471 87.153754 
L 376.639004 88.221466 
L 376.673629 88.221466 
L 376.746204 87.153754 
L 376.781499 88.221466 
L 376.853621 88.221466 
L 376.959362 87.153754 
L 377.080816 88.221466 
L 378.010192 88.221466 
L 378.044745 89.289178 
L 378.114931 88.221466 
L 378.721386 88.221466 
L 378.756136 89.289178 
L 378.827732 88.221466 
L 378.863494 88.221466 
L 378.970282 89.289178 
L 379.005545 88.221466 
L 379.077101 89.289178 
L 379.113414 89.289178 
L 379.259175 88.221466 
L 379.410197 89.289178 
L 381.392962 89.289178 
L 381.431709 90.35689 
L 381.471863 89.289178 
L 381.619298 89.289178 
L 381.691527 90.35689 
L 381.727493 89.289178 
L 381.804607 89.289178 
L 381.843945 90.35689 
L 381.881566 89.289178 
L 381.916162 89.289178 
L 382.058254 90.35689 
L 382.449495 90.35689 
L 382.486435 89.289178 
L 382.557968 90.35689 
L 382.697949 90.35689 
L 382.732534 89.289178 
L 382.803367 90.35689 
L 383.089877 90.35689 
L 383.127332 91.424602 
L 383.19868 90.35689 
L 384.173592 90.35689 
L 384.209805 89.289178 
L 384.245916 90.35689 
L 385.90993 90.35689 
L 385.945584 91.424602 
L 386.019362 90.35689 
L 386.568907 90.35689 
L 386.688741 91.424602 
L 386.832668 90.35689 
L 386.902862 90.35689 
L 387.047954 91.424602 
L 387.486166 91.424602 
L 387.521355 90.35689 
L 387.593286 91.424602 
L 388.062864 91.424602 
L 388.101337 90.35689 
L 388.171932 91.424602 
L 389.841498 91.424602 
L 389.880353 92.492314 
L 389.949764 91.424602 
L 390.092268 91.424602 
L 390.12902 92.492314 
L 390.203289 91.424602 
L 390.451451 91.424602 
L 390.590809 92.492314 
L 390.741367 91.424602 
L 390.886226 92.492314 
L 390.920726 91.424602 
L 390.990518 92.492314 
L 391.061527 92.492314 
L 391.202084 91.424602 
L 391.238331 91.424602 
L 391.347003 92.492314 
L 391.383635 91.424602 
L 391.454749 92.492314 
L 391.563361 92.492314 
L 391.706031 91.424602 
L 391.848716 92.492314 
L 391.883354 91.424602 
L 391.957409 92.492314 
L 392.242028 92.492314 
L 392.279285 91.424602 
L 392.34949 92.492314 
L 394.916345 92.492314 
L 394.952522 93.560026 
L 395.023351 92.492314 
L 395.236732 92.492314 
L 395.271501 93.560026 
L 395.344202 92.492314 
L 395.44829 92.492314 
L 395.588447 93.560026 
L 395.623173 93.560026 
L 395.660632 92.492314 
L 395.734223 93.560026 
L 395.770015 93.560026 
L 395.842904 92.492314 
L 395.877375 93.560026 
L 395.914409 93.560026 
L 395.950109 92.492314 
L 396.02499 93.560026 
L 396.062316 93.560026 
L 396.203154 92.492314 
L 396.346212 93.560026 
L 397.303265 93.560026 
L 397.338405 94.627738 
L 397.409223 93.560026 
L 397.834273 93.560026 
L 397.946165 94.627738 
L 398.092257 93.560026 
L 398.164991 93.560026 
L 398.20019 94.627738 
L 398.239376 93.560026 
L 398.353685 94.627738 
L 398.462321 93.560026 
L 398.606961 94.627738 
L 398.688084 93.560026 
L 398.724319 94.627738 
L 398.880758 93.560026 
L 398.945896 93.560026 
L 398.983538 94.627738 
L 399.154104 93.560026 
L 401.081789 93.560026 
L 401.197841 92.492314 
L 401.339755 93.560026 
L 401.461392 92.492314 
L 401.49601 92.492314 
L 401.565289 93.560026 
L 401.599819 92.492314 
L 402.591351 92.492314 
L 402.625915 91.424602 
L 402.67689 92.492314 
L 402.712811 92.492314 
L 402.81887 91.424602 
L 402.936418 92.492314 
L 403.082705 91.424602 
L 403.159779 90.35689 
L 403.196897 91.424602 
L 403.269535 90.35689 
L 403.520323 90.35689 
L 403.628498 89.289178 
L 403.663728 90.35689 
L 403.735721 89.289178 
L 403.883217 89.289178 
L 403.928803 88.221466 
L 403.963315 89.289178 
L 404.143217 89.289178 
L 404.256754 90.35689 
L 404.37016 89.289178 
L 404.509238 90.35689 
L 404.649987 89.289178 
L 404.684512 89.289178 
L 404.788964 88.221466 
L 404.858214 89.289178 
L 404.894007 88.221466 
L 404.928601 88.221466 
L 405.032448 89.289178 
L 405.17176 88.221466 
L 405.345953 88.221466 
L 405.38125 89.289178 
L 405.45215 88.221466 
L 405.531499 88.221466 
L 405.566096 89.289178 
L 405.637936 88.221466 
L 405.672623 88.221466 
L 405.81148 89.289178 
L 406.312136 89.289178 
L 406.450658 88.221466 
L 406.52021 89.289178 
L 406.561924 88.221466 
L 406.596419 89.289178 
L 406.819532 89.289178 
L 406.854289 88.221466 
L 406.923403 89.289178 
L 407.171201 89.289178 
L 407.312249 88.221466 
L 407.3469 88.221466 
L 407.381802 89.289178 
L 407.456412 88.221466 
L 407.491041 88.221466 
L 407.527831 89.289178 
L 407.597694 88.221466 
L 408.230727 88.221466 
L 408.35886 89.289178 
L 408.438243 88.221466 
L 409.486962 88.221466 
L 409.61511 87.153754 
L 410.018853 87.153754 
L 410.05398 88.221466 
L 410.112192 87.153754 
L 411.042055 87.153754 
L 411.166685 88.221466 
L 411.308744 87.153754 
L 411.674352 87.153754 
L 411.728884 88.221466 
L 411.769479 85.01833 
L 411.815617 87.153754 
L 411.982791 87.153754 
L 412.026512 85.01833 
L 412.931883 85.01833 
L 413.251908 82.882906 
L 413.366325 83.950618 
L 414.44874 83.950618 
L 414.494313 82.882906 
L 414.539855 83.950618 
L 414.766974 83.950618 
L 414.845555 82.882906 
L 414.920853 83.950618 
L 415.003075 82.882906 
L 415.226935 82.882906 
L 415.261796 83.950618 
L 415.336261 82.882906 
L 415.452457 82.882906 
L 415.570922 81.815194 
L 415.60612 81.815194 
L 415.720509 82.882906 
L 415.837434 81.815194 
L 416.009635 81.815194 
L 416.156623 82.882906 
L 416.356539 82.882906 
L 416.392622 83.950618 
L 416.432792 82.882906 
L 416.731977 82.882906 
L 416.925224 81.815194 
L 417.022514 82.882906 
L 417.221738 80.747482 
L 417.268296 80.747482 
L 417.304195 81.815194 
L 417.420487 80.747482 
L 417.534028 80.747482 
L 417.802743 79.67977 
L 417.840194 79.67977 
L 418.011762 80.747482 
L 418.15841 79.67977 
L 418.231384 79.67977 
L 418.271511 80.747482 
L 418.657818 80.747482 
L 418.705184 81.815194 
L 418.76494 80.747482 
L 419.008226 80.747482 
L 419.152153 81.815194 
L 419.885703 81.815194 
L 419.958793 80.747482 
L 419.996624 81.815194 
L 420.039688 81.815194 
L 420.163799 80.747482 
L 420.27719 80.747482 
L 420.43984 81.815194 
L 420.482711 80.747482 
L 420.725324 80.747482 
L 420.854808 81.815194 
L 421.160777 81.815194 
L 421.217288 82.882906 
L 421.259851 81.815194 
L 421.336765 81.815194 
L 421.450823 82.882906 
L 421.594842 81.815194 
L 421.656748 82.882906 
L 421.692687 81.815194 
L 421.881298 82.882906 
L 422.001552 82.882906 
L 422.038532 83.950618 
L 422.087607 82.882906 
L 422.126368 82.882906 
L 422.164345 83.950618 
L 422.269633 82.882906 
L 422.33023 85.01833 
L 422.371046 83.950618 
L 422.688449 83.950618 
L 422.796458 85.01833 
L 422.882297 85.01833 
L 422.923671 83.950618 
L 422.958339 85.01833 
L 423.350871 85.01833 
L 423.391076 87.153754 
L 423.43112 85.01833 
L 423.652074 87.153754 
L 424.191072 87.153754 
L 424.271752 88.221466 
L 424.343492 87.153754 
L 424.475883 88.221466 
L 425.145788 88.221466 
L 425.295323 89.289178 
L 425.330475 88.221466 
L 425.369268 89.289178 
L 425.414509 89.289178 
L 425.451602 88.221466 
L 425.52304 89.289178 
L 425.636644 88.221466 
L 425.755367 89.289178 
L 425.831307 88.221466 
L 425.961281 89.289178 
L 426.674104 89.289178 
L 426.783843 90.35689 
L 426.820928 89.289178 
L 426.891683 90.35689 
L 427.748403 90.35689 
L 427.853672 91.424602 
L 427.984029 90.35689 
L 428.345514 90.35689 
L 428.381725 91.424602 
L 428.450927 90.35689 
L 428.485487 90.35689 
L 428.520059 91.424602 
L 428.589691 90.35689 
L 428.630483 90.35689 
L 428.666421 91.424602 
L 428.737532 90.35689 
L 428.773362 90.35689 
L 428.881507 91.424602 
L 428.986495 90.35689 
L 429.129107 91.424602 
L 430.17797 91.424602 
L 430.318223 92.492314 
L 430.35282 91.424602 
L 430.422201 92.492314 
L 430.45675 92.492314 
L 430.596058 91.424602 
L 430.631783 91.424602 
L 430.773179 92.492314 
L 431.691417 92.492314 
L 431.725926 93.560026 
L 431.795365 92.492314 
L 431.829995 92.492314 
L 431.938923 93.560026 
L 431.974549 92.492314 
L 432.009091 93.560026 
" style="fill:none;stroke:#1f77b4;stroke-linecap:square;stroke-width:1.5;"/>
   </g>
   <g id="line2d_36">
    <path clip-path="url(#p9d474d3fb0)" d="M 72.190909 173.638426 
L 75.439049 173.638426 
L 75.582743 131.997658 
L 79.142028 131.997658 
L 79.282121 143.74249 
L 81.631663 143.74249 
L 81.771356 164.029018 
L 82.985507 164.029018 
L 83.124907 185.383258 
L 83.936352 185.383258 
L 173.004109 35.903578 
L 177.733936 35.903578 
L 177.876215 57.257818 
L 179.872041 57.257818 
L 180.014532 77.544346 
L 181.822897 77.544346 
L 181.963114 131.997658 
L 184.659045 131.997658 
L 184.80039 164.029018 
L 185.822299 164.029018 
L 325.234619 47.64841 
L 326.607478 47.64841 
L 326.749762 89.289178 
L 328.549453 89.289178 
L 328.694093 131.997658 
L 332.61373 131.997658 
L 332.754587 153.351898 
L 336.619409 153.351898 
L 336.760638 164.029018 
L 339.139316 164.029018 
L 339.27978 173.638426 
L 340.715105 173.638426 
L 340.861292 194.992666 
L 342.521302 194.992666 
L 342.660417 206.737498 
L 343.743345 206.737498 
L 343.85097 187.518682 
L 344.644005 187.518682 
L 344.785875 194.992666 
L 346.432499 194.992666 
L 346.503901 185.383258 
L 351.47799 185.383258 
L 351.663265 187.518682 
L 352.725383 187.518682 
L 352.843986 185.383258 
L 354.559985 185.383258 
L 354.704452 173.638426 
L 358.598172 173.638426 
L 358.740786 164.029018 
L 360.830161 164.029018 
L 360.972516 153.351898 
L 362.06713 153.351898 
L 362.210651 149.08105 
L 362.597108 149.08105 
L 362.712221 143.74249 
L 366.697339 143.74249 
L 366.839049 131.997658 
L 373.126201 131.997658 
L 373.269144 149.08105 
L 375.066831 149.08105 
L 375.185362 153.351898 
L 376.492776 153.351898 
L 376.639004 149.08105 
L 376.853621 149.08105 
L 376.959362 153.351898 
L 382.095161 153.351898 
L 382.237121 149.08105 
L 382.803367 149.08105 
L 382.945549 153.351898 
L 384.768341 153.351898 
L 384.908843 164.029018 
L 385.837929 164.029018 
L 385.945584 187.518682 
L 386.868173 187.518682 
L 387.012067 194.992666 
L 387.379671 194.992666 
L 387.521355 206.737498 
L 395.588447 206.737498 
L 395.734223 187.518682 
L 397.374658 187.518682 
L 397.515221 206.737498 
L 398.983538 206.737498 
L 399.154104 185.383258 
L 400.908144 185.383258 
L 401.047275 173.638426 
L 401.810892 173.638426 
L 401.949373 168.299866 
L 402.857461 168.299866 
L 402.972443 164.029018 
L 405.566096 164.029018 
L 405.707196 153.351898 
L 406.958061 153.351898 
L 407.097209 143.74249 
L 408.89077 143.74249 
L 409.019085 153.351898 
L 410.82098 153.351898 
L 410.926067 131.997658 
L 415.184089 131.997658 
L 415.336261 122.38825 
L 420.967816 122.38825 
L 421.160777 131.997658 
L 422.7604 131.997658 
L 422.882297 173.638426 
L 425.254608 173.638426 
L 425.369268 194.992666 
L 427.231829 194.992666 
L 427.34429 228.091738 
L 429.581174 228.091738 
L 429.719859 245.17513 
L 432.009091 245.17513 
L 432.009091 245.17513 
" style="fill:none;stroke:#ff7f0e;stroke-linecap:square;stroke-width:1.5;"/>
   </g>
   <g id="patch_3">
    <path d="M 54.2 255.638708 
L 54.2 25.44 
" style="fill:none;stroke:#000000;stroke-linecap:square;stroke-linejoin:miter;stroke-width:0.8;"/>
   </g>
   <g id="patch_4">
    <path d="M 450 255.638708 
L 450 25.44 
" style="fill:none;stroke:#000000;stroke-linecap:square;stroke-linejoin:miter;stroke-width:0.8;"/>
   </g>
   <g id="patch_5">
    <path d="M 54.2 255.638708 
L 450 255.638708 
" style="fill:none;stroke:#000000;stroke-linecap:square;stroke-linejoin:miter;stroke-width:0.8;"/>
   </g>
   <g id="patch_6">
    <path d="M 54.2 25.44 
L 450 25.44 
" style="fill:none;stroke:#000000;stroke-linecap:square;stroke-linejoin:miter;stroke-width:0.8;"/>
   </g>
   <g id="text_20">
    <!-- Lake Shoecraft - Water and Air Temperature -->
    <g transform="translate(120.481563 19.44)scale(0.12 -0.12)">
     <defs>
      <path d="M 9.8125 72.90625 
L 19.671875 72.90625 
L 19.671875 8.296875 
L 55.171875 8.296875 
L 55.171875 0 
L 9.8125 0 
z
" id="DejaVuSans-76"/>
      <path d="M 9.078125 75.984375 
L 18.109375 75.984375 
L 18.109375 31.109375 
L 44.921875 54.6875 
L 56.390625 54.6875 
L 27.390625 29.109375 
L 57.625 0 
L 45.90625 0 
L 18.109375 26.703125 
L 18.109375 0 
L 9.078125 0 
z
" id="DejaVuSans-107"/>
      <path d="M 53.515625 70.515625 
L 53.515625 60.890625 
Q 47.90625 63.578125 42.921875 64.890625 
Q 37.9375 66.21875 33.296875 66.21875 
Q 25.25 66.21875 20.875 63.09375 
Q 16.5 59.96875 16.5 54.203125 
Q 16.5 49.359375 19.40625 46.890625 
Q 22.3125 44.4375 30.421875 42.921875 
L 36.375 41.703125 
Q 47.40625 39.59375 52.65625 34.296875 
Q 57.90625 29 57.90625 20.125 
Q 57.90625 9.515625 50.796875 4.046875 
Q 43.703125 -1.421875 29.984375 -1.421875 
Q 24.8125 -1.421875 18.96875 -0.25 
Q 13.140625 0.921875 6.890625 3.21875 
L 6.890625 13.375 
Q 12.890625 10.015625 18.65625 8.296875 
Q 24.421875 6.59375 29.984375 6.59375 
Q 38.421875 6.59375 43.015625 9.90625 
Q 47.609375 13.234375 47.609375 19.390625 
Q 47.609375 24.75 44.3125 27.78125 
Q 41.015625 30.8125 33.5 32.328125 
L 27.484375 33.5 
Q 16.453125 35.6875 11.515625 40.375 
Q 6.59375 45.0625 6.59375 53.421875 
Q 6.59375 63.09375 13.40625 68.65625 
Q 20.21875 74.21875 32.171875 74.21875 
Q 37.3125 74.21875 42.625 73.28125 
Q 47.953125 72.359375 53.515625 70.515625 
z
" id="DejaVuSans-83"/>
      <path d="M 54.890625 33.015625 
L 54.890625 0 
L 45.90625 0 
L 45.90625 32.71875 
Q 45.90625 40.484375 42.875 44.328125 
Q 39.84375 48.1875 33.796875 48.1875 
Q 26.515625 48.1875 22.3125 43.546875 
Q 18.109375 38.921875 18.109375 30.90625 
L 18.109375 0 
L 9.078125 0 
L 9.078125 75.984375 
L 18.109375 75.984375 
L 18.109375 46.1875 
Q 21.34375 51.125 25.703125 53.5625 
Q 30.078125 56 35.796875 56 
Q 45.21875 56 50.046875 50.171875 
Q 54.890625 44.34375 54.890625 33.015625 
z
" id="DejaVuSans-104"/>
      <path d="M 30.609375 48.390625 
Q 23.390625 48.390625 19.1875 42.75 
Q 14.984375 37.109375 14.984375 27.296875 
Q 14.984375 17.484375 19.15625 11.84375 
Q 23.34375 6.203125 30.609375 6.203125 
Q 37.796875 6.203125 41.984375 11.859375 
Q 46.1875 17.53125 46.1875 27.296875 
Q 46.1875 37.015625 41.984375 42.703125 
Q 37.796875 48.390625 30.609375 48.390625 
z
M 30.609375 56 
Q 42.328125 56 49.015625 48.375 
Q 55.71875 40.765625 55.71875 27.296875 
Q 55.71875 13.875 49.015625 6.21875 
Q 42.328125 -1.421875 30.609375 -1.421875 
Q 18.84375 -1.421875 12.171875 6.21875 
Q 5.515625 13.875 5.515625 27.296875 
Q 5.515625 40.765625 12.171875 48.375 
Q 18.84375 56 30.609375 56 
z
" id="DejaVuSans-111"/>
      <path d="M 48.78125 52.59375 
L 48.78125 44.1875 
Q 44.96875 46.296875 41.140625 47.34375 
Q 37.3125 48.390625 33.40625 48.390625 
Q 24.65625 48.390625 19.8125 42.84375 
Q 14.984375 37.3125 14.984375 27.296875 
Q 14.984375 17.28125 19.8125 11.734375 
Q 24.65625 6.203125 33.40625 6.203125 
Q 37.3125 6.203125 41.140625 7.25 
Q 44.96875 8.296875 48.78125 10.40625 
L 48.78125 2.09375 
Q 45.015625 0.34375 40.984375 -0.53125 
Q 36.96875 -1.421875 32.421875 -1.421875 
Q 20.0625 -1.421875 12.78125 6.34375 
Q 5.515625 14.109375 5.515625 27.296875 
Q 5.515625 40.671875 12.859375 48.328125 
Q 20.21875 56 33.015625 56 
Q 37.15625 56 41.109375 55.140625 
Q 45.0625 54.296875 48.78125 52.59375 
z
" id="DejaVuSans-99"/>
      <path d="M 37.109375 75.984375 
L 37.109375 68.5 
L 28.515625 68.5 
Q 23.6875 68.5 21.796875 66.546875 
Q 19.921875 64.59375 19.921875 59.515625 
L 19.921875 54.6875 
L 34.71875 54.6875 
L 34.71875 47.703125 
L 19.921875 47.703125 
L 19.921875 0 
L 10.890625 0 
L 10.890625 47.703125 
L 2.296875 47.703125 
L 2.296875 54.6875 
L 10.890625 54.6875 
L 10.890625 58.5 
Q 10.890625 67.625 15.140625 71.796875 
Q 19.390625 75.984375 28.609375 75.984375 
z
" id="DejaVuSans-102"/>
      <path d="M 3.328125 72.90625 
L 13.28125 72.90625 
L 28.609375 11.28125 
L 43.890625 72.90625 
L 54.984375 72.90625 
L 70.3125 11.28125 
L 85.59375 72.90625 
L 95.609375 72.90625 
L 77.296875 0 
L 64.890625 0 
L 49.515625 63.28125 
L 33.984375 0 
L 21.578125 0 
z
" id="DejaVuSans-87"/>
      <path d="M 54.890625 33.015625 
L 54.890625 0 
L 45.90625 0 
L 45.90625 32.71875 
Q 45.90625 40.484375 42.875 44.328125 
Q 39.84375 48.1875 33.796875 48.1875 
Q 26.515625 48.1875 22.3125 43.546875 
Q 18.109375 38.921875 18.109375 30.90625 
L 18.109375 0 
L 9.078125 0 
L 9.078125 54.6875 
L 18.109375 54.6875 
L 18.109375 46.1875 
Q 21.34375 51.125 25.703125 53.5625 
Q 30.078125 56 35.796875 56 
Q 45.21875 56 50.046875 50.171875 
Q 54.890625 44.34375 54.890625 33.015625 
z
" id="DejaVuSans-110"/>
      <path d="M 45.40625 46.390625 
L 45.40625 75.984375 
L 54.390625 75.984375 
L 54.390625 0 
L 45.40625 0 
L 45.40625 8.203125 
Q 42.578125 3.328125 38.25 0.953125 
Q 33.9375 -1.421875 27.875 -1.421875 
Q 17.96875 -1.421875 11.734375 6.484375 
Q 5.515625 14.40625 5.515625 27.296875 
Q 5.515625 40.1875 11.734375 48.09375 
Q 17.96875 56 27.875 56 
Q 33.9375 56 38.25 53.625 
Q 42.578125 51.265625 45.40625 46.390625 
z
M 14.796875 27.296875 
Q 14.796875 17.390625 18.875 11.75 
Q 22.953125 6.109375 30.078125 6.109375 
Q 37.203125 6.109375 41.296875 11.75 
Q 45.40625 17.390625 45.40625 27.296875 
Q 45.40625 37.203125 41.296875 42.84375 
Q 37.203125 48.484375 30.078125 48.484375 
Q 22.953125 48.484375 18.875 42.84375 
Q 14.796875 37.203125 14.796875 27.296875 
z
" id="DejaVuSans-100"/>
      <path d="M 34.1875 63.1875 
L 20.796875 26.90625 
L 47.609375 26.90625 
z
M 28.609375 72.90625 
L 39.796875 72.90625 
L 67.578125 0 
L 57.328125 0 
L 50.6875 18.703125 
L 17.828125 18.703125 
L 11.1875 0 
L 0.78125 0 
z
" id="DejaVuSans-65"/>
      <path d="M 9.421875 54.6875 
L 18.40625 54.6875 
L 18.40625 0 
L 9.421875 0 
z
M 9.421875 75.984375 
L 18.40625 75.984375 
L 18.40625 64.59375 
L 9.421875 64.59375 
z
" id="DejaVuSans-105"/>
     </defs>
     <use xlink:href="#DejaVuSans-76"/>
     <use x="55.712891" xlink:href="#DejaVuSans-97"/>
     <use x="116.992188" xlink:href="#DejaVuSans-107"/>
     <use x="171.277344" xlink:href="#DejaVuSans-101"/>
     <use x="232.800781" xlink:href="#DejaVuSans-32"/>
     <use x="264.587891" xlink:href="#DejaVuSans-83"/>
     <use x="328.064453" xlink:href="#DejaVuSans-104"/>
     <use x="391.443359" xlink:href="#DejaVuSans-111"/>
     <use x="452.625" xlink:href="#DejaVuSans-101"/>
     <use x="514.148438" xlink:href="#DejaVuSans-99"/>
     <use x="569.128906" xlink:href="#DejaVuSans-114"/>
     <use x="610.242188" xlink:href="#DejaVuSans-97"/>
     <use x="671.521484" xlink:href="#DejaVuSans-102"/>
     <use x="704.976562" xlink:href="#DejaVuSans-116"/>
     <use x="744.185547" xlink:href="#DejaVuSans-32"/>
     <use x="775.972656" xlink:href="#DejaVuSans-45"/>
     <use x="812.056641" xlink:href="#DejaVuSans-32"/>
     <use x="843.84375" xlink:href="#DejaVuSans-87"/>
     <use x="936.345703" xlink:href="#DejaVuSans-97"/>
     <use x="997.625" xlink:href="#DejaVuSans-116"/>
     <use x="1036.833984" xlink:href="#DejaVuSans-101"/>
     <use x="1098.357422" xlink:href="#DejaVuSans-114"/>
     <use x="1139.470703" xlink:href="#DejaVuSans-32"/>
     <use x="1171.257812" xlink:href="#DejaVuSans-97"/>
     <use x="1232.537109" xlink:href="#DejaVuSans-110"/>
     <use x="1295.916016" xlink:href="#DejaVuSans-100"/>
     <use x="1359.392578" xlink:href="#DejaVuSans-32"/>
     <use x="1391.179688" xlink:href="#DejaVuSans-65"/>
     <use x="1459.587891" xlink:href="#DejaVuSans-105"/>
     <use x="1487.371094" xlink:href="#DejaVuSans-114"/>
     <use x="1528.484375" xlink:href="#DejaVuSans-32"/>
     <use x="1560.271484" xlink:href="#DejaVuSans-84"/>
     <use x="1604.355469" xlink:href="#DejaVuSans-101"/>
     <use x="1665.878906" xlink:href="#DejaVuSans-109"/>
     <use x="1763.291016" xlink:href="#DejaVuSans-112"/>
     <use x="1826.767578" xlink:href="#DejaVuSans-101"/>
     <use x="1888.291016" xlink:href="#DejaVuSans-114"/>
     <use x="1929.404297" xlink:href="#DejaVuSans-97"/>
     <use x="1990.683594" xlink:href="#DejaVuSans-116"/>
     <use x="2029.892578" xlink:href="#DejaVuSans-117"/>
     <use x="2093.271484" xlink:href="#DejaVuSans-114"/>
     <use x="2132.134766" xlink:href="#DejaVuSans-101"/>
    </g>
   </g>
   <g id="legend_1">
    <g id="patch_7">
     <path d="M 357.890625 62.79625 
L 443 62.79625 
Q 445 62.79625 445 60.79625 
L 445 32.44 
Q 445 30.44 443 30.44 
L 357.890625 30.44 
Q 355.890625 30.44 355.890625 32.44 
L 355.890625 60.79625 
Q 355.890625 62.79625 357.890625 62.79625 
z
" style="fill:#ffffff;opacity:0.8;stroke:#cccccc;stroke-linejoin:miter;"/>
    </g>
    <g id="line2d_37">
     <path d="M 359.890625 38.538437 
L 379.890625 38.538437 
" style="fill:none;stroke:#1f77b4;stroke-linecap:square;stroke-width:1.5;"/>
    </g>
    <g id="line2d_38"/>
    <g id="text_21">
     <!-- Lake Temp -->
     <g transform="translate(387.890625 42.038437)scale(0.1 -0.1)">
      <use xlink:href="#DejaVuSans-76"/>
      <use x="55.712891" xlink:href="#DejaVuSans-97"/>
      <use x="116.992188" xlink:href="#DejaVuSans-107"/>
      <use x="171.277344" xlink:href="#DejaVuSans-101"/>
      <use x="232.800781" xlink:href="#DejaVuSans-32"/>
      <use x="264.587891" xlink:href="#DejaVuSans-84"/>
      <use x="308.671875" xlink:href="#DejaVuSans-101"/>
      <use x="370.195312" xlink:href="#DejaVuSans-109"/>
      <use x="467.607422" xlink:href="#DejaVuSans-112"/>
     </g>
    </g>
    <g id="line2d_39">
     <path d="M 359.890625 53.216562 
L 379.890625 53.216562 
" style="fill:none;stroke:#ff7f0e;stroke-linecap:square;stroke-width:1.5;"/>
    </g>
    <g id="line2d_40"/>
    <g id="text_22">
     <!-- Air Temp -->
     <g transform="translate(387.890625 56.716562)scale(0.1 -0.1)">
      <use xlink:href="#DejaVuSans-65"/>
      <use x="68.408203" xlink:href="#DejaVuSans-105"/>
      <use x="96.191406" xlink:href="#DejaVuSans-114"/>
      <use x="137.304688" xlink:href="#DejaVuSans-32"/>
      <use x="169.091797" xlink:href="#DejaVuSans-84"/>
      <use x="213.175781" xlink:href="#DejaVuSans-101"/>
      <use x="274.699219" xlink:href="#DejaVuSans-109"/>
      <use x="372.111328" xlink:href="#DejaVuSans-112"/>
     </g>
    </g>
   </g>
  </g>
 </g>
 <defs>
  <clipPath id="p9d474d3fb0">
   <rect height="230.198708" width="395.8" x="54.2" y="25.44"/>
  </clipPath>
 </defs>
</svg>
