<?xml version="1.0" encoding="utf-8" standalone="no"?>
<!DOCTYPE svg PUBLIC "-//W3C//DTD SVG 1.1//EN"
  "http://www.w3.org/Graphics/SVG/1.1/DTD/svg11.dtd">
<!-- Created with matplotlib (https://matplotlib.org/) -->
<svg height="345.6pt" version="1.1" viewBox="0 0 460.8 345.6" width="460.8pt" xmlns="http://www.w3.org/2000/svg" xmlns:xlink="http://www.w3.org/1999/xlink">
 <metadata>
  <rdf:RDF xmlns:cc="http://creativecommons.org/ns#" xmlns:dc="http://purl.org/dc/elements/1.1/" xmlns:rdf="http://www.w3.org/1999/02/22-rdf-syntax-ns#">
   <cc:Work>
    <dc:type rdf:resource="http://purl.org/dc/dcmitype/StillImage"/>
    <dc:date>2024-11-19T09:55:13.590313</dc:date>
    <dc:format>image/svg+xml</dc:format>
    <dc:creator>
     <cc:Agent>
      <dc:title>Matplotlib v3.3.2, https://matplotlib.org/</dc:title>
     </cc:Agent>
    </dc:creator>
   </cc:Work>
  </rdf:RDF>
 </metadata>
 <defs>
  <style type="text/css">*{stroke-linecap:butt;stroke-linejoin:round;}</style>
 </defs>
 <g id="figure_1">
  <g id="patch_1">
   <path d="M 0 345.6 
L 460.8 345.6 
L 460.8 0 
L 0 0 
z
" style="fill:none;"/>
  </g>
  <g id="axes_1">
   <g id="patch_2">
    <path d="M 54.2 255.638708 
L 450 255.638708 
L 450 25.44 
L 54.2 25.44 
z
" style="fill:none;"/>
   </g>
   <g id="matplotlib.axis_1">
    <g id="xtick_1">
     <g id="line2d_1">
      <path clip-path="url(#pe83c751304)" d="M 72.181892 255.638708 
L 72.181892 25.44 
" style="fill:none;stroke:#b0b0b0;stroke-linecap:square;stroke-width:0.8;"/>
     </g>
     <g id="line2d_2">
      <defs>
       <path d="M 0 0 
L 0 3.5 
" id="mac87522a30" style="stroke:#000000;stroke-width:0.8;"/>
      </defs>
      <g>
       <use style="stroke:#000000;stroke-width:0.8;" x="72.181892" xlink:href="#mac87522a30" y="255.638708"/>
      </g>
     </g>
     <g id="text_1">
      <!-- 2024-10-29 -->
      <g transform="translate(64.836499 319.848351)rotate(-70)scale(0.1 -0.1)">
       <defs>
        <path d="M 19.1875 8.296875 
L 53.609375 8.296875 
L 53.609375 0 
L 7.328125 0 
L 7.328125 8.296875 
Q 12.9375 14.109375 22.625 23.890625 
Q 32.328125 33.6875 34.8125 36.53125 
Q 39.546875 41.84375 41.421875 45.53125 
Q 43.3125 49.21875 43.3125 52.78125 
Q 43.3125 58.59375 39.234375 62.25 
Q 35.15625 65.921875 28.609375 65.921875 
Q 23.96875 65.921875 18.8125 64.3125 
Q 13.671875 62.703125 7.8125 59.421875 
L 7.8125 69.390625 
Q 13.765625 71.78125 18.9375 73 
Q 24.125 74.21875 28.421875 74.21875 
Q 39.75 74.21875 46.484375 68.546875 
Q 53.21875 62.890625 53.21875 53.421875 
Q 53.21875 48.921875 51.53125 44.890625 
Q 49.859375 40.875 45.40625 35.40625 
Q 44.1875 33.984375 37.640625 27.21875 
Q 31.109375 20.453125 19.1875 8.296875 
z
" id="DejaVuSans-50"/>
        <path d="M 31.78125 66.40625 
Q 24.171875 66.40625 20.328125 58.90625 
Q 16.5 51.421875 16.5 36.375 
Q 16.5 21.390625 20.328125 13.890625 
Q 24.171875 6.390625 31.78125 6.390625 
Q 39.453125 6.390625 43.28125 13.890625 
Q 47.125 21.390625 47.125 36.375 
Q 47.125 51.421875 43.28125 58.90625 
Q 39.453125 66.40625 31.78125 66.40625 
z
M 31.78125 74.21875 
Q 44.046875 74.21875 50.515625 64.515625 
Q 56.984375 54.828125 56.984375 36.375 
Q 56.984375 17.96875 50.515625 8.265625 
Q 44.046875 -1.421875 31.78125 -1.421875 
Q 19.53125 -1.421875 13.0625 8.265625 
Q 6.59375 17.96875 6.59375 36.375 
Q 6.59375 54.828125 13.0625 64.515625 
Q 19.53125 74.21875 31.78125 74.21875 
z
" id="DejaVuSans-48"/>
        <path d="M 37.796875 64.3125 
L 12.890625 25.390625 
L 37.796875 25.390625 
z
M 35.203125 72.90625 
L 47.609375 72.90625 
L 47.609375 25.390625 
L 58.015625 25.390625 
L 58.015625 17.1875 
L 47.609375 17.1875 
L 47.609375 0 
L 37.796875 0 
L 37.796875 17.1875 
L 4.890625 17.1875 
L 4.890625 26.703125 
z
" id="DejaVuSans-52"/>
        <path d="M 4.890625 31.390625 
L 31.203125 31.390625 
L 31.203125 23.390625 
L 4.890625 23.390625 
z
" id="DejaVuSans-45"/>
        <path d="M 12.40625 8.296875 
L 28.515625 8.296875 
L 28.515625 63.921875 
L 10.984375 60.40625 
L 10.984375 69.390625 
L 28.421875 72.90625 
L 38.28125 72.90625 
L 38.28125 8.296875 
L 54.390625 8.296875 
L 54.390625 0 
L 12.40625 0 
z
" id="DejaVuSans-49"/>
        <path d="M 10.984375 1.515625 
L 10.984375 10.5 
Q 14.703125 8.734375 18.5 7.8125 
Q 22.3125 6.890625 25.984375 6.890625 
Q 35.75 6.890625 40.890625 13.453125 
Q 46.046875 20.015625 46.78125 33.40625 
Q 43.953125 29.203125 39.59375 26.953125 
Q 35.25 24.703125 29.984375 24.703125 
Q 19.046875 24.703125 12.671875 31.3125 
Q 6.296875 37.9375 6.296875 49.421875 
Q 6.296875 60.640625 12.9375 67.421875 
Q 19.578125 74.21875 30.609375 74.21875 
Q 43.265625 74.21875 49.921875 64.515625 
Q 56.59375 54.828125 56.59375 36.375 
Q 56.59375 19.140625 48.40625 8.859375 
Q 40.234375 -1.421875 26.421875 -1.421875 
Q 22.703125 -1.421875 18.890625 -0.6875 
Q 15.09375 0.046875 10.984375 1.515625 
z
M 30.609375 32.421875 
Q 37.25 32.421875 41.125 36.953125 
Q 45.015625 41.5 45.015625 49.421875 
Q 45.015625 57.28125 41.125 61.84375 
Q 37.25 66.40625 30.609375 66.40625 
Q 23.96875 66.40625 20.09375 61.84375 
Q 16.21875 57.28125 16.21875 49.421875 
Q 16.21875 41.5 20.09375 36.953125 
Q 23.96875 32.421875 30.609375 32.421875 
z
" id="DejaVuSans-57"/>
       </defs>
       <use xlink:href="#DejaVuSans-50"/>
       <use x="63.623047" xlink:href="#DejaVuSans-48"/>
       <use x="127.246094" xlink:href="#DejaVuSans-50"/>
       <use x="190.869141" xlink:href="#DejaVuSans-52"/>
       <use x="254.492188" xlink:href="#DejaVuSans-45"/>
       <use x="290.576172" xlink:href="#DejaVuSans-49"/>
       <use x="354.199219" xlink:href="#DejaVuSans-48"/>
       <use x="417.822266" xlink:href="#DejaVuSans-45"/>
       <use x="453.90625" xlink:href="#DejaVuSans-50"/>
       <use x="517.529297" xlink:href="#DejaVuSans-57"/>
      </g>
     </g>
    </g>
    <g id="xtick_2">
     <g id="line2d_3">
      <path clip-path="url(#pe83c751304)" d="M 122.593944 255.638708 
L 122.593944 25.44 
" style="fill:none;stroke:#b0b0b0;stroke-linecap:square;stroke-width:0.8;"/>
     </g>
     <g id="line2d_4">
      <g>
       <use style="stroke:#000000;stroke-width:0.8;" x="122.593944" xlink:href="#mac87522a30" y="255.638708"/>
      </g>
     </g>
     <g id="text_2">
      <!-- 2024-11-01 -->
      <g transform="translate(115.248551 319.848351)rotate(-70)scale(0.1 -0.1)">
       <use xlink:href="#DejaVuSans-50"/>
       <use x="63.623047" xlink:href="#DejaVuSans-48"/>
       <use x="127.246094" xlink:href="#DejaVuSans-50"/>
       <use x="190.869141" xlink:href="#DejaVuSans-52"/>
       <use x="254.492188" xlink:href="#DejaVuSans-45"/>
       <use x="290.576172" xlink:href="#DejaVuSans-49"/>
       <use x="354.199219" xlink:href="#DejaVuSans-49"/>
       <use x="417.822266" xlink:href="#DejaVuSans-45"/>
       <use x="453.90625" xlink:href="#DejaVuSans-48"/>
       <use x="517.529297" xlink:href="#DejaVuSans-49"/>
      </g>
     </g>
    </g>
    <g id="xtick_3">
     <g id="line2d_5">
      <path clip-path="url(#pe83c751304)" d="M 189.810013 255.638708 
L 189.810013 25.44 
" style="fill:none;stroke:#b0b0b0;stroke-linecap:square;stroke-width:0.8;"/>
     </g>
     <g id="line2d_6">
      <g>
       <use style="stroke:#000000;stroke-width:0.8;" x="189.810013" xlink:href="#mac87522a30" y="255.638708"/>
      </g>
     </g>
     <g id="text_3">
      <!-- 2024-11-05 -->
      <g transform="translate(182.46462 319.848351)rotate(-70)scale(0.1 -0.1)">
       <defs>
        <path d="M 10.796875 72.90625 
L 49.515625 72.90625 
L 49.515625 64.59375 
L 19.828125 64.59375 
L 19.828125 46.734375 
Q 21.96875 47.46875 24.109375 47.828125 
Q 26.265625 48.1875 28.421875 48.1875 
Q 40.625 48.1875 47.75 41.5 
Q 54.890625 34.8125 54.890625 23.390625 
Q 54.890625 11.625 47.5625 5.09375 
Q 40.234375 -1.421875 26.90625 -1.421875 
Q 22.3125 -1.421875 17.546875 -0.640625 
Q 12.796875 0.140625 7.71875 1.703125 
L 7.71875 11.625 
Q 12.109375 9.234375 16.796875 8.0625 
Q 21.484375 6.890625 26.703125 6.890625 
Q 35.15625 6.890625 40.078125 11.328125 
Q 45.015625 15.765625 45.015625 23.390625 
Q 45.015625 31 40.078125 35.4375 
Q 35.15625 39.890625 26.703125 39.890625 
Q 22.75 39.890625 18.8125 39.015625 
Q 14.890625 38.140625 10.796875 36.28125 
z
" id="DejaVuSans-53"/>
       </defs>
       <use xlink:href="#DejaVuSans-50"/>
       <use x="63.623047" xlink:href="#DejaVuSans-48"/>
       <use x="127.246094" xlink:href="#DejaVuSans-50"/>
       <use x="190.869141" xlink:href="#DejaVuSans-52"/>
       <use x="254.492188" xlink:href="#DejaVuSans-45"/>
       <use x="290.576172" xlink:href="#DejaVuSans-49"/>
       <use x="354.199219" xlink:href="#DejaVuSans-49"/>
       <use x="417.822266" xlink:href="#DejaVuSans-45"/>
       <use x="453.90625" xlink:href="#DejaVuSans-48"/>
       <use x="517.529297" xlink:href="#DejaVuSans-53"/>
      </g>
     </g>
    </g>
    <g id="xtick_4">
     <g id="line2d_7">
      <path clip-path="url(#pe83c751304)" d="M 257.026082 255.638708 
L 257.026082 25.44 
" style="fill:none;stroke:#b0b0b0;stroke-linecap:square;stroke-width:0.8;"/>
     </g>
     <g id="line2d_8">
      <g>
       <use style="stroke:#000000;stroke-width:0.8;" x="257.026082" xlink:href="#mac87522a30" y="255.638708"/>
      </g>
     </g>
     <g id="text_4">
      <!-- 2024-11-09 -->
      <g transform="translate(249.680689 319.848351)rotate(-70)scale(0.1 -0.1)">
       <use xlink:href="#DejaVuSans-50"/>
       <use x="63.623047" xlink:href="#DejaVuSans-48"/>
       <use x="127.246094" xlink:href="#DejaVuSans-50"/>
       <use x="190.869141" xlink:href="#DejaVuSans-52"/>
       <use x="254.492188" xlink:href="#DejaVuSans-45"/>
       <use x="290.576172" xlink:href="#DejaVuSans-49"/>
       <use x="354.199219" xlink:href="#DejaVuSans-49"/>
       <use x="417.822266" xlink:href="#DejaVuSans-45"/>
       <use x="453.90625" xlink:href="#DejaVuSans-48"/>
       <use x="517.529297" xlink:href="#DejaVuSans-57"/>
      </g>
     </g>
    </g>
    <g id="xtick_5">
     <g id="line2d_9">
      <path clip-path="url(#pe83c751304)" d="M 324.242151 255.638708 
L 324.242151 25.44 
" style="fill:none;stroke:#b0b0b0;stroke-linecap:square;stroke-width:0.8;"/>
     </g>
     <g id="line2d_10">
      <g>
       <use style="stroke:#000000;stroke-width:0.8;" x="324.242151" xlink:href="#mac87522a30" y="255.638708"/>
      </g>
     </g>
     <g id="text_5">
      <!-- 2024-11-13 -->
      <g transform="translate(316.896758 319.848351)rotate(-70)scale(0.1 -0.1)">
       <defs>
        <path d="M 40.578125 39.3125 
Q 47.65625 37.796875 51.625 33 
Q 55.609375 28.21875 55.609375 21.1875 
Q 55.609375 10.40625 48.1875 4.484375 
Q 40.765625 -1.421875 27.09375 -1.421875 
Q 22.515625 -1.421875 17.65625 -0.515625 
Q 12.796875 0.390625 7.625 2.203125 
L 7.625 11.71875 
Q 11.71875 9.328125 16.59375 8.109375 
Q 21.484375 6.890625 26.8125 6.890625 
Q 36.078125 6.890625 40.9375 10.546875 
Q 45.796875 14.203125 45.796875 21.1875 
Q 45.796875 27.640625 41.28125 31.265625 
Q 36.765625 34.90625 28.71875 34.90625 
L 20.21875 34.90625 
L 20.21875 43.015625 
L 29.109375 43.015625 
Q 36.375 43.015625 40.234375 45.921875 
Q 44.09375 48.828125 44.09375 54.296875 
Q 44.09375 59.90625 40.109375 62.90625 
Q 36.140625 65.921875 28.71875 65.921875 
Q 24.65625 65.921875 20.015625 65.03125 
Q 15.375 64.15625 9.8125 62.3125 
L 9.8125 71.09375 
Q 15.4375 72.65625 20.34375 73.4375 
Q 25.25 74.21875 29.59375 74.21875 
Q 40.828125 74.21875 47.359375 69.109375 
Q 53.90625 64.015625 53.90625 55.328125 
Q 53.90625 49.265625 50.4375 45.09375 
Q 46.96875 40.921875 40.578125 39.3125 
z
" id="DejaVuSans-51"/>
       </defs>
       <use xlink:href="#DejaVuSans-50"/>
       <use x="63.623047" xlink:href="#DejaVuSans-48"/>
       <use x="127.246094" xlink:href="#DejaVuSans-50"/>
       <use x="190.869141" xlink:href="#DejaVuSans-52"/>
       <use x="254.492188" xlink:href="#DejaVuSans-45"/>
       <use x="290.576172" xlink:href="#DejaVuSans-49"/>
       <use x="354.199219" xlink:href="#DejaVuSans-49"/>
       <use x="417.822266" xlink:href="#DejaVuSans-45"/>
       <use x="453.90625" xlink:href="#DejaVuSans-49"/>
       <use x="517.529297" xlink:href="#DejaVuSans-51"/>
      </g>
     </g>
    </g>
    <g id="xtick_6">
     <g id="line2d_11">
      <path clip-path="url(#pe83c751304)" d="M 391.45822 255.638708 
L 391.45822 25.44 
" style="fill:none;stroke:#b0b0b0;stroke-linecap:square;stroke-width:0.8;"/>
     </g>
     <g id="line2d_12">
      <g>
       <use style="stroke:#000000;stroke-width:0.8;" x="391.45822" xlink:href="#mac87522a30" y="255.638708"/>
      </g>
     </g>
     <g id="text_6">
      <!-- 2024-11-17 -->
      <g transform="translate(384.112827 319.848351)rotate(-70)scale(0.1 -0.1)">
       <defs>
        <path d="M 8.203125 72.90625 
L 55.078125 72.90625 
L 55.078125 68.703125 
L 28.609375 0 
L 18.3125 0 
L 43.21875 64.59375 
L 8.203125 64.59375 
z
" id="DejaVuSans-55"/>
       </defs>
       <use xlink:href="#DejaVuSans-50"/>
       <use x="63.623047" xlink:href="#DejaVuSans-48"/>
       <use x="127.246094" xlink:href="#DejaVuSans-50"/>
       <use x="190.869141" xlink:href="#DejaVuSans-52"/>
       <use x="254.492188" xlink:href="#DejaVuSans-45"/>
       <use x="290.576172" xlink:href="#DejaVuSans-49"/>
       <use x="354.199219" xlink:href="#DejaVuSans-49"/>
       <use x="417.822266" xlink:href="#DejaVuSans-45"/>
       <use x="453.90625" xlink:href="#DejaVuSans-49"/>
       <use x="517.529297" xlink:href="#DejaVuSans-55"/>
      </g>
     </g>
    </g>
    <g id="text_7">
     <!-- Date -->
     <g transform="translate(240.149219 332.158083)scale(0.1 -0.1)">
      <defs>
       <path d="M 19.671875 64.796875 
L 19.671875 8.109375 
L 31.59375 8.109375 
Q 46.6875 8.109375 53.6875 14.9375 
Q 60.6875 21.78125 60.6875 36.53125 
Q 60.6875 51.171875 53.6875 57.984375 
Q 46.6875 64.796875 31.59375 64.796875 
z
M 9.8125 72.90625 
L 30.078125 72.90625 
Q 51.265625 72.90625 61.171875 64.09375 
Q 71.09375 55.28125 71.09375 36.53125 
Q 71.09375 17.671875 61.125 8.828125 
Q 51.171875 0 30.078125 0 
L 9.8125 0 
z
" id="DejaVuSans-68"/>
       <path d="M 34.28125 27.484375 
Q 23.390625 27.484375 19.1875 25 
Q 14.984375 22.515625 14.984375 16.5 
Q 14.984375 11.71875 18.140625 8.90625 
Q 21.296875 6.109375 26.703125 6.109375 
Q 34.1875 6.109375 38.703125 11.40625 
Q 43.21875 16.703125 43.21875 25.484375 
L 43.21875 27.484375 
z
M 52.203125 31.203125 
L 52.203125 0 
L 43.21875 0 
L 43.21875 8.296875 
Q 40.140625 3.328125 35.546875 0.953125 
Q 30.953125 -1.421875 24.3125 -1.421875 
Q 15.921875 -1.421875 10.953125 3.296875 
Q 6 8.015625 6 15.921875 
Q 6 25.140625 12.171875 29.828125 
Q 18.359375 34.515625 30.609375 34.515625 
L 43.21875 34.515625 
L 43.21875 35.40625 
Q 43.21875 41.609375 39.140625 45 
Q 35.0625 48.390625 27.6875 48.390625 
Q 23 48.390625 18.546875 47.265625 
Q 14.109375 46.140625 10.015625 43.890625 
L 10.015625 52.203125 
Q 14.9375 54.109375 19.578125 55.046875 
Q 24.21875 56 28.609375 56 
Q 40.484375 56 46.34375 49.84375 
Q 52.203125 43.703125 52.203125 31.203125 
z
" id="DejaVuSans-97"/>
       <path d="M 18.3125 70.21875 
L 18.3125 54.6875 
L 36.8125 54.6875 
L 36.8125 47.703125 
L 18.3125 47.703125 
L 18.3125 18.015625 
Q 18.3125 11.328125 20.140625 9.421875 
Q 21.96875 7.515625 27.59375 7.515625 
L 36.8125 7.515625 
L 36.8125 0 
L 27.59375 0 
Q 17.1875 0 13.234375 3.875 
Q 9.28125 7.765625 9.28125 18.015625 
L 9.28125 47.703125 
L 2.6875 47.703125 
L 2.6875 54.6875 
L 9.28125 54.6875 
L 9.28125 70.21875 
z
" id="DejaVuSans-116"/>
       <path d="M 56.203125 29.59375 
L 56.203125 25.203125 
L 14.890625 25.203125 
Q 15.484375 15.921875 20.484375 11.0625 
Q 25.484375 6.203125 34.421875 6.203125 
Q 39.59375 6.203125 44.453125 7.46875 
Q 49.3125 8.734375 54.109375 11.28125 
L 54.109375 2.78125 
Q 49.265625 0.734375 44.1875 -0.34375 
Q 39.109375 -1.421875 33.890625 -1.421875 
Q 20.796875 -1.421875 13.15625 6.1875 
Q 5.515625 13.8125 5.515625 26.8125 
Q 5.515625 40.234375 12.765625 48.109375 
Q 20.015625 56 32.328125 56 
Q 43.359375 56 49.78125 48.890625 
Q 56.203125 41.796875 56.203125 29.59375 
z
M 47.21875 32.234375 
Q 47.125 39.59375 43.09375 43.984375 
Q 39.0625 48.390625 32.421875 48.390625 
Q 24.90625 48.390625 20.390625 44.140625 
Q 15.875 39.890625 15.1875 32.171875 
z
" id="DejaVuSans-101"/>
      </defs>
      <use xlink:href="#DejaVuSans-68"/>
      <use x="77.001953" xlink:href="#DejaVuSans-97"/>
      <use x="138.28125" xlink:href="#DejaVuSans-116"/>
      <use x="177.490234" xlink:href="#DejaVuSans-101"/>
     </g>
    </g>
   </g>
   <g id="matplotlib.axis_2">
    <g id="ytick_1">
     <g id="line2d_13">
      <path clip-path="url(#pe83c751304)" d="M 54.2 249.904431 
L 450 249.904431 
" style="fill:none;stroke:#b0b0b0;stroke-linecap:square;stroke-width:0.8;"/>
     </g>
     <g id="line2d_14">
      <defs>
       <path d="M 0 0 
L -3.5 0 
" id="mfa1a72b9b5" style="stroke:#000000;stroke-width:0.8;"/>
      </defs>
      <g>
       <use style="stroke:#000000;stroke-width:0.8;" x="54.2" xlink:href="#mfa1a72b9b5" y="249.904431"/>
      </g>
     </g>
     <g id="text_8">
      <!-- 37.5 -->
      <g transform="translate(24.934375 253.70365)scale(0.1 -0.1)">
       <defs>
        <path d="M 10.6875 12.40625 
L 21 12.40625 
L 21 0 
L 10.6875 0 
z
" id="DejaVuSans-46"/>
       </defs>
       <use xlink:href="#DejaVuSans-51"/>
       <use x="63.623047" xlink:href="#DejaVuSans-55"/>
       <use x="127.246094" xlink:href="#DejaVuSans-46"/>
       <use x="159.033203" xlink:href="#DejaVuSans-53"/>
      </g>
     </g>
    </g>
    <g id="ytick_2">
     <g id="line2d_15">
      <path clip-path="url(#pe83c751304)" d="M 54.2 220.346302 
L 450 220.346302 
" style="fill:none;stroke:#b0b0b0;stroke-linecap:square;stroke-width:0.8;"/>
     </g>
     <g id="line2d_16">
      <g>
       <use style="stroke:#000000;stroke-width:0.8;" x="54.2" xlink:href="#mfa1a72b9b5" y="220.346302"/>
      </g>
     </g>
     <g id="text_9">
      <!-- 40.0 -->
      <g transform="translate(24.934375 224.145521)scale(0.1 -0.1)">
       <use xlink:href="#DejaVuSans-52"/>
       <use x="63.623047" xlink:href="#DejaVuSans-48"/>
       <use x="127.246094" xlink:href="#DejaVuSans-46"/>
       <use x="159.033203" xlink:href="#DejaVuSans-48"/>
      </g>
     </g>
    </g>
    <g id="ytick_3">
     <g id="line2d_17">
      <path clip-path="url(#pe83c751304)" d="M 54.2 190.788173 
L 450 190.788173 
" style="fill:none;stroke:#b0b0b0;stroke-linecap:square;stroke-width:0.8;"/>
     </g>
     <g id="line2d_18">
      <g>
       <use style="stroke:#000000;stroke-width:0.8;" x="54.2" xlink:href="#mfa1a72b9b5" y="190.788173"/>
      </g>
     </g>
     <g id="text_10">
      <!-- 42.5 -->
      <g transform="translate(24.934375 194.587392)scale(0.1 -0.1)">
       <use xlink:href="#DejaVuSans-52"/>
       <use x="63.623047" xlink:href="#DejaVuSans-50"/>
       <use x="127.246094" xlink:href="#DejaVuSans-46"/>
       <use x="159.033203" xlink:href="#DejaVuSans-53"/>
      </g>
     </g>
    </g>
    <g id="ytick_4">
     <g id="line2d_19">
      <path clip-path="url(#pe83c751304)" d="M 54.2 161.230044 
L 450 161.230044 
" style="fill:none;stroke:#b0b0b0;stroke-linecap:square;stroke-width:0.8;"/>
     </g>
     <g id="line2d_20">
      <g>
       <use style="stroke:#000000;stroke-width:0.8;" x="54.2" xlink:href="#mfa1a72b9b5" y="161.230044"/>
      </g>
     </g>
     <g id="text_11">
      <!-- 45.0 -->
      <g transform="translate(24.934375 165.029263)scale(0.1 -0.1)">
       <use xlink:href="#DejaVuSans-52"/>
       <use x="63.623047" xlink:href="#DejaVuSans-53"/>
       <use x="127.246094" xlink:href="#DejaVuSans-46"/>
       <use x="159.033203" xlink:href="#DejaVuSans-48"/>
      </g>
     </g>
    </g>
    <g id="ytick_5">
     <g id="line2d_21">
      <path clip-path="url(#pe83c751304)" d="M 54.2 131.671915 
L 450 131.671915 
" style="fill:none;stroke:#b0b0b0;stroke-linecap:square;stroke-width:0.8;"/>
     </g>
     <g id="line2d_22">
      <g>
       <use style="stroke:#000000;stroke-width:0.8;" x="54.2" xlink:href="#mfa1a72b9b5" y="131.671915"/>
      </g>
     </g>
     <g id="text_12">
      <!-- 47.5 -->
      <g transform="translate(24.934375 135.471134)scale(0.1 -0.1)">
       <use xlink:href="#DejaVuSans-52"/>
       <use x="63.623047" xlink:href="#DejaVuSans-55"/>
       <use x="127.246094" xlink:href="#DejaVuSans-46"/>
       <use x="159.033203" xlink:href="#DejaVuSans-53"/>
      </g>
     </g>
    </g>
    <g id="ytick_6">
     <g id="line2d_23">
      <path clip-path="url(#pe83c751304)" d="M 54.2 102.113786 
L 450 102.113786 
" style="fill:none;stroke:#b0b0b0;stroke-linecap:square;stroke-width:0.8;"/>
     </g>
     <g id="line2d_24">
      <g>
       <use style="stroke:#000000;stroke-width:0.8;" x="54.2" xlink:href="#mfa1a72b9b5" y="102.113786"/>
      </g>
     </g>
     <g id="text_13">
      <!-- 50.0 -->
      <g transform="translate(24.934375 105.913005)scale(0.1 -0.1)">
       <use xlink:href="#DejaVuSans-53"/>
       <use x="63.623047" xlink:href="#DejaVuSans-48"/>
       <use x="127.246094" xlink:href="#DejaVuSans-46"/>
       <use x="159.033203" xlink:href="#DejaVuSans-48"/>
      </g>
     </g>
    </g>
    <g id="ytick_7">
     <g id="line2d_25">
      <path clip-path="url(#pe83c751304)" d="M 54.2 72.555657 
L 450 72.555657 
" style="fill:none;stroke:#b0b0b0;stroke-linecap:square;stroke-width:0.8;"/>
     </g>
     <g id="line2d_26">
      <g>
       <use style="stroke:#000000;stroke-width:0.8;" x="54.2" xlink:href="#mfa1a72b9b5" y="72.555657"/>
      </g>
     </g>
     <g id="text_14">
      <!-- 52.5 -->
      <g transform="translate(24.934375 76.354876)scale(0.1 -0.1)">
       <use xlink:href="#DejaVuSans-53"/>
       <use x="63.623047" xlink:href="#DejaVuSans-50"/>
       <use x="127.246094" xlink:href="#DejaVuSans-46"/>
       <use x="159.033203" xlink:href="#DejaVuSans-53"/>
      </g>
     </g>
    </g>
    <g id="ytick_8">
     <g id="line2d_27">
      <path clip-path="url(#pe83c751304)" d="M 54.2 42.997529 
L 450 42.997529 
" style="fill:none;stroke:#b0b0b0;stroke-linecap:square;stroke-width:0.8;"/>
     </g>
     <g id="line2d_28">
      <g>
       <use style="stroke:#000000;stroke-width:0.8;" x="54.2" xlink:href="#mfa1a72b9b5" y="42.997529"/>
      </g>
     </g>
     <g id="text_15">
      <!-- 55.0 -->
      <g transform="translate(24.934375 46.796747)scale(0.1 -0.1)">
       <use xlink:href="#DejaVuSans-53"/>
       <use x="63.623047" xlink:href="#DejaVuSans-53"/>
       <use x="127.246094" xlink:href="#DejaVuSans-46"/>
       <use x="159.033203" xlink:href="#DejaVuSans-48"/>
      </g>
     </g>
    </g>
    <g id="text_16">
     <!-- Temperature [F] -->
     <g transform="translate(18.854688 180.575291)rotate(-90)scale(0.1 -0.1)">
      <defs>
       <path d="M -0.296875 72.90625 
L 61.375 72.90625 
L 61.375 64.59375 
L 35.5 64.59375 
L 35.5 0 
L 25.59375 0 
L 25.59375 64.59375 
L -0.296875 64.59375 
z
" id="DejaVuSans-84"/>
       <path d="M 52 44.1875 
Q 55.375 50.25 60.0625 53.125 
Q 64.75 56 71.09375 56 
Q 79.640625 56 84.28125 50.015625 
Q 88.921875 44.046875 88.921875 33.015625 
L 88.921875 0 
L 79.890625 0 
L 79.890625 32.71875 
Q 79.890625 40.578125 77.09375 44.375 
Q 74.3125 48.1875 68.609375 48.1875 
Q 61.625 48.1875 57.5625 43.546875 
Q 53.515625 38.921875 53.515625 30.90625 
L 53.515625 0 
L 44.484375 0 
L 44.484375 32.71875 
Q 44.484375 40.625 41.703125 44.40625 
Q 38.921875 48.1875 33.109375 48.1875 
Q 26.21875 48.1875 22.15625 43.53125 
Q 18.109375 38.875 18.109375 30.90625 
L 18.109375 0 
L 9.078125 0 
L 9.078125 54.6875 
L 18.109375 54.6875 
L 18.109375 46.1875 
Q 21.1875 51.21875 25.484375 53.609375 
Q 29.78125 56 35.6875 56 
Q 41.65625 56 45.828125 52.96875 
Q 50 49.953125 52 44.1875 
z
" id="DejaVuSans-109"/>
       <path d="M 18.109375 8.203125 
L 18.109375 -20.796875 
L 9.078125 -20.796875 
L 9.078125 54.6875 
L 18.109375 54.6875 
L 18.109375 46.390625 
Q 20.953125 51.265625 25.265625 53.625 
Q 29.59375 56 35.59375 56 
Q 45.5625 56 51.78125 48.09375 
Q 58.015625 40.1875 58.015625 27.296875 
Q 58.015625 14.40625 51.78125 6.484375 
Q 45.5625 -1.421875 35.59375 -1.421875 
Q 29.59375 -1.421875 25.265625 0.953125 
Q 20.953125 3.328125 18.109375 8.203125 
z
M 48.6875 27.296875 
Q 48.6875 37.203125 44.609375 42.84375 
Q 40.53125 48.484375 33.40625 48.484375 
Q 26.265625 48.484375 22.1875 42.84375 
Q 18.109375 37.203125 18.109375 27.296875 
Q 18.109375 17.390625 22.1875 11.75 
Q 26.265625 6.109375 33.40625 6.109375 
Q 40.53125 6.109375 44.609375 11.75 
Q 48.6875 17.390625 48.6875 27.296875 
z
" id="DejaVuSans-112"/>
       <path d="M 41.109375 46.296875 
Q 39.59375 47.171875 37.8125 47.578125 
Q 36.03125 48 33.890625 48 
Q 26.265625 48 22.1875 43.046875 
Q 18.109375 38.09375 18.109375 28.8125 
L 18.109375 0 
L 9.078125 0 
L 9.078125 54.6875 
L 18.109375 54.6875 
L 18.109375 46.1875 
Q 20.953125 51.171875 25.484375 53.578125 
Q 30.03125 56 36.53125 56 
Q 37.453125 56 38.578125 55.875 
Q 39.703125 55.765625 41.0625 55.515625 
z
" id="DejaVuSans-114"/>
       <path d="M 8.5 21.578125 
L 8.5 54.6875 
L 17.484375 54.6875 
L 17.484375 21.921875 
Q 17.484375 14.15625 20.5 10.265625 
Q 23.53125 6.390625 29.59375 6.390625 
Q 36.859375 6.390625 41.078125 11.03125 
Q 45.3125 15.671875 45.3125 23.6875 
L 45.3125 54.6875 
L 54.296875 54.6875 
L 54.296875 0 
L 45.3125 0 
L 45.3125 8.40625 
Q 42.046875 3.421875 37.71875 1 
Q 33.40625 -1.421875 27.6875 -1.421875 
Q 18.265625 -1.421875 13.375 4.4375 
Q 8.5 10.296875 8.5 21.578125 
z
M 31.109375 56 
z
" id="DejaVuSans-117"/>
       <path id="DejaVuSans-32"/>
       <path d="M 8.59375 75.984375 
L 29.296875 75.984375 
L 29.296875 69 
L 17.578125 69 
L 17.578125 -6.203125 
L 29.296875 -6.203125 
L 29.296875 -13.1875 
L 8.59375 -13.1875 
z
" id="DejaVuSans-91"/>
       <path d="M 9.8125 72.90625 
L 51.703125 72.90625 
L 51.703125 64.59375 
L 19.671875 64.59375 
L 19.671875 43.109375 
L 48.578125 43.109375 
L 48.578125 34.8125 
L 19.671875 34.8125 
L 19.671875 0 
L 9.8125 0 
z
" id="DejaVuSans-70"/>
       <path d="M 30.421875 75.984375 
L 30.421875 -13.1875 
L 9.71875 -13.1875 
L 9.71875 -6.203125 
L 21.390625 -6.203125 
L 21.390625 69 
L 9.71875 69 
L 9.71875 75.984375 
z
" id="DejaVuSans-93"/>
      </defs>
      <use xlink:href="#DejaVuSans-84"/>
      <use x="44.083984" xlink:href="#DejaVuSans-101"/>
      <use x="105.607422" xlink:href="#DejaVuSans-109"/>
      <use x="203.019531" xlink:href="#DejaVuSans-112"/>
      <use x="266.496094" xlink:href="#DejaVuSans-101"/>
      <use x="328.019531" xlink:href="#DejaVuSans-114"/>
      <use x="369.132812" xlink:href="#DejaVuSans-97"/>
      <use x="430.412109" xlink:href="#DejaVuSans-116"/>
      <use x="469.621094" xlink:href="#DejaVuSans-117"/>
      <use x="533" xlink:href="#DejaVuSans-114"/>
      <use x="571.863281" xlink:href="#DejaVuSans-101"/>
      <use x="633.386719" xlink:href="#DejaVuSans-32"/>
      <use x="665.173828" xlink:href="#DejaVuSans-91"/>
      <use x="704.1875" xlink:href="#DejaVuSans-70"/>
      <use x="761.707031" xlink:href="#DejaVuSans-93"/>
     </g>
    </g>
   </g>
   <g id="line2d_29">
    <path clip-path="url(#pe83c751304)" d="M 72.190909 41.815203 
L 72.313042 41.815203 
L 72.325113 40.632878 
L 72.422337 41.815203 
L 72.507506 41.815203 
L 72.52017 42.997529 
L 72.617277 41.815203 
L 72.910901 41.815203 
L 73.031729 42.997529 
L 73.116932 42.997529 
L 73.213499 41.815203 
L 73.225829 42.997529 
L 73.249969 42.997529 
L 73.335728 41.815203 
L 73.359907 42.997529 
L 73.543456 42.997529 
L 73.657212 45.362179 
L 73.705574 42.997529 
L 73.754119 45.362179 
L 73.858925 45.362179 
L 73.883559 42.997529 
L 73.9693 45.362179 
L 74.005924 45.362179 
L 74.103606 42.997529 
L 74.115914 45.362179 
L 74.128343 45.362179 
L 74.226068 42.997529 
L 74.238157 45.362179 
L 74.250545 45.362179 
L 74.374016 42.997529 
L 74.48396 42.997529 
L 74.496139 45.362179 
L 74.59359 42.997529 
L 74.827395 42.997529 
L 74.876151 45.362179 
L 74.937849 42.997529 
L 74.974532 42.997529 
L 75.060494 45.362179 
L 75.085068 42.997529 
L 75.282477 42.997529 
L 75.404881 45.362179 
L 75.429218 45.362179 
L 75.552104 42.997529 
L 75.564569 42.997529 
L 75.687768 45.362179 
L 75.762184 45.362179 
L 75.824473 42.997529 
L 75.861461 45.362179 
L 75.924136 45.362179 
L 75.937077 42.997529 
L 76.026382 45.362179 
L 76.039529 45.362179 
L 76.115252 42.997529 
L 76.139786 45.362179 
L 76.19001 45.362179 
L 76.202081 42.997529 
L 76.226809 45.362179 
L 76.325749 45.362179 
L 76.362248 42.997529 
L 76.426014 45.362179 
L 76.487714 45.362179 
L 76.56138 42.997529 
L 76.59813 45.362179 
L 76.671864 45.362179 
L 76.733284 42.997529 
L 76.782597 45.362179 
L 77.131006 45.362179 
L 77.249624 46.544504 
L 77.285973 45.362179 
L 77.358644 46.544504 
L 77.772852 46.544504 
L 77.846741 47.726829 
L 77.872319 46.544504 
L 78.324373 46.544504 
L 78.360599 45.362179 
L 78.433738 46.544504 
L 78.781684 46.544504 
L 78.794001 45.362179 
L 78.880947 46.544504 
L 78.893243 46.544504 
L 79.016162 45.362179 
L 79.138365 46.544504 
L 79.260606 45.362179 
L 79.297671 45.362179 
L 79.419641 42.997529 
L 79.542355 42.997529 
L 79.554467 41.815203 
L 79.652474 42.997529 
L 79.692058 42.997529 
L 79.791193 41.815203 
L 79.914287 42.997529 
L 79.962873 42.997529 
L 79.975057 41.815203 
L 80.072284 42.997529 
L 80.3069 42.997529 
L 80.355464 41.815203 
L 80.416915 42.997529 
L 80.453474 42.997529 
L 80.563279 41.815203 
L 80.934527 41.815203 
L 81.482264 40.632878 
L 81.726535 40.632878 
L 81.837421 39.450553 
L 82.245887 39.450553 
L 82.358087 38.268228 
L 82.455629 38.268228 
L 82.590358 35.903578 
L 82.71224 37.085903 
L 83.032495 37.085903 
L 83.044602 35.903578 
L 83.14211 37.085903 
L 83.166368 37.085903 
L 83.288409 35.903578 
L 83.32463 35.903578 
L 83.436339 38.268228 
L 83.472635 38.268228 
L 83.484947 37.085903 
L 83.583613 38.268228 
L 83.759449 38.268228 
L 83.856576 39.450553 
L 83.8691 38.268228 
L 83.905888 38.268228 
L 84.020249 39.450553 
L 84.291502 39.450553 
L 84.391168 40.632878 
L 84.452304 39.450553 
L 84.50131 40.632878 
L 84.697931 40.632878 
L 84.710002 39.450553 
L 84.798086 40.632878 
L 85.12017 40.632878 
L 85.233291 41.815203 
L 85.286307 41.815203 
L 85.335276 40.632878 
L 85.385607 41.815203 
L 85.598397 41.815203 
L 85.708848 42.997529 
L 85.783057 41.815203 
L 85.808411 42.997529 
L 85.833684 42.997529 
L 85.846828 41.815203 
L 85.944778 42.997529 
L 86.044208 42.997529 
L 86.056381 45.362179 
L 86.120355 42.997529 
L 86.245353 42.997529 
L 86.357641 45.362179 
L 86.393998 45.362179 
L 86.480117 42.997529 
L 86.492743 45.362179 
L 86.505196 45.362179 
L 86.541402 42.997529 
L 86.615417 45.362179 
L 86.859999 45.362179 
L 86.872096 46.544504 
L 86.96961 45.362179 
L 87.707181 45.362179 
L 87.817793 46.544504 
L 87.928166 45.362179 
L 88.004526 46.544504 
L 88.029045 45.362179 
L 88.090488 45.362179 
L 88.201732 46.544504 
L 88.250731 46.544504 
L 88.262759 45.362179 
L 88.361276 46.544504 
L 88.386636 46.544504 
L 88.501551 45.362179 
L 88.540568 45.362179 
L 88.655227 46.544504 
L 88.840563 46.544504 
L 88.914047 45.362179 
L 88.950385 46.544504 
L 89.22004 46.544504 
L 89.23267 47.726829 
L 89.319034 46.544504 
L 89.45486 46.544504 
L 89.467139 47.726829 
L 89.564912 46.544504 
L 89.747884 46.544504 
L 89.772637 47.726829 
L 89.858792 46.544504 
L 89.882928 46.544504 
L 89.981512 47.726829 
L 89.993582 46.544504 
L 90.116613 47.726829 
L 90.140755 47.726829 
L 90.152904 46.544504 
L 90.250138 47.726829 
L 90.286946 47.726829 
L 90.311731 46.544504 
L 90.384493 47.726829 
L 90.424092 47.726829 
L 90.546492 46.544504 
L 90.662635 47.726829 
L 90.797906 47.726829 
L 90.907556 48.909154 
L 91.028588 47.726829 
L 91.040862 47.726829 
L 91.153824 48.909154 
L 91.202779 48.909154 
L 91.240656 47.726829 
L 91.313872 48.909154 
L 91.794008 48.909154 
L 91.842803 50.09148 
L 91.904143 48.909154 
L 91.916212 48.909154 
L 92.026738 50.09148 
L 92.149906 48.909154 
L 92.174085 48.909154 
L 92.297203 50.09148 
L 92.525102 50.09148 
L 92.589933 48.909154 
L 92.65186 48.909154 
L 92.723129 50.09148 
L 92.75133 48.909154 
L 92.828764 48.909154 
L 92.945031 50.09148 
L 93.004825 50.09148 
L 93.104819 48.909154 
L 93.192361 50.09148 
L 93.719075 50.09148 
L 93.834131 51.273805 
L 94.015937 51.273805 
L 94.040495 52.45613 
L 94.119316 51.273805 
L 94.187536 51.273805 
L 94.238701 52.45613 
L 94.287294 51.273805 
L 94.299337 51.273805 
L 94.42165 52.45613 
L 94.593543 52.45613 
L 94.690911 51.273805 
L 94.703021 52.45613 
L 94.972324 52.45613 
L 95.094298 51.273805 
L 95.106353 51.273805 
L 95.230004 52.45613 
L 95.328427 52.45613 
L 95.441789 51.273805 
L 95.583213 51.273805 
L 95.683132 52.45613 
L 95.804061 51.273805 
L 96.474231 51.273805 
L 96.486429 52.45613 
L 96.573882 51.273805 
L 96.748838 51.273805 
L 96.761374 52.45613 
L 96.851108 51.273805 
L 97.013918 51.273805 
L 97.026193 52.45613 
L 97.116097 51.273805 
L 97.177321 51.273805 
L 97.190111 50.09148 
L 97.287288 51.273805 
L 97.445779 51.273805 
L 97.457863 52.45613 
L 97.555322 51.273805 
L 97.859454 51.273805 
L 97.888629 52.45613 
L 97.965399 51.273805 
L 98.732257 52.45613 
L 99.542624 52.45613 
L 99.554902 51.273805 
L 99.642131 52.45613 
L 100.466805 52.45613 
L 100.527667 54.82078 
L 100.576165 52.45613 
L 100.600258 52.45613 
L 100.612471 54.82078 
L 100.710694 52.45613 
L 100.832859 52.45613 
L 100.930255 54.82078 
L 100.942323 52.45613 
L 100.97883 52.45613 
L 101.10185 54.82078 
L 101.213224 52.45613 
L 101.336219 54.82078 
L 101.44972 52.45613 
L 101.585379 52.45613 
L 101.682087 54.82078 
L 101.695787 52.45613 
L 101.816 54.82078 
L 102.660652 56.003105 
L 102.774363 56.003105 
L 102.823351 57.18543 
L 103.228368 56.003105 
L 103.343361 57.18543 
L 103.468554 56.003105 
L 103.520224 57.18543 
L 103.570565 56.003105 
L 103.645719 56.003105 
L 103.683975 57.18543 
L 103.745824 56.003105 
L 103.823099 56.003105 
L 103.945037 57.18543 
L 103.957768 57.18543 
L 104.009895 56.003105 
L 104.058969 57.18543 
L 104.472082 57.18543 
L 104.572618 58.367756 
L 104.683551 57.18543 
L 104.709187 57.18543 
L 104.819697 58.367756 
L 104.941066 57.18543 
L 104.978039 58.367756 
L 105.051362 57.18543 
L 105.063438 57.18543 
L 105.111833 58.367756 
L 105.172724 57.18543 
L 105.196865 57.18543 
L 105.318322 58.367756 
L 105.330705 58.367756 
L 105.439483 57.18543 
L 105.553089 58.367756 
L 105.58109 58.367756 
L 105.704167 59.550081 
L 105.741014 59.550081 
L 105.790677 58.367756 
L 105.851875 59.550081 
L 105.901177 59.550081 
L 105.925755 60.732406 
L 105.937793 58.367756 
L 105.99965 58.367756 
L 106.084532 58.367756 
L 106.096599 59.550081 
L 106.193513 58.367756 
L 106.460098 58.367756 
L 106.520968 60.732406 
L 106.575733 59.550081 
L 106.697202 58.367756 
L 106.830578 58.367756 
L 106.95134 59.550081 
L 107.060691 58.367756 
L 107.072752 59.550081 
L 107.169452 58.367756 
L 107.181502 58.367756 
L 107.332784 59.550081 
L 107.345251 59.550081 
L 107.357477 58.367756 
L 107.451009 59.550081 
L 107.490486 59.550081 
L 107.515538 60.732406 
L 107.539803 58.367756 
L 107.600738 59.550081 
L 107.625394 58.367756 
L 107.711452 59.550081 
L 108.249323 59.550081 
L 108.273637 60.732406 
L 108.359976 59.550081 
L 108.482784 59.550081 
L 108.607006 61.914731 
L 108.719584 60.732406 
L 108.731829 61.914731 
L 108.83043 60.732406 
L 109.152563 60.732406 
L 109.2648 61.914731 
L 109.29321 61.914731 
L 109.414796 63.097056 
L 109.532835 60.732406 
L 109.629217 60.732406 
L 109.74279 61.914731 
L 110.052007 61.914731 
L 110.065944 60.732406 
L 110.157707 61.914731 
L 110.249096 61.914731 
L 110.38932 60.732406 
L 110.715279 60.732406 
L 110.754879 59.550081 
L 110.81649 60.732406 
L 111.086241 60.732406 
L 111.098875 61.914731 
L 111.194871 60.732406 
L 111.500284 60.732406 
L 111.513528 61.914731 
L 111.597774 60.732406 
L 111.725715 60.732406 
L 111.85118 61.914731 
L 111.907829 61.914731 
L 111.978248 60.732406 
L 111.99163 61.914731 
L 112.114086 60.732406 
L 112.236914 61.914731 
L 112.352859 60.732406 
L 112.391501 60.732406 
L 112.491761 61.914731 
L 112.60329 60.732406 
L 112.629103 60.732406 
L 112.734698 61.914731 
L 112.824134 60.732406 
L 112.836163 61.914731 
L 112.915254 61.914731 
L 113.026221 60.732406 
L 113.406029 60.732406 
L 113.520144 59.550081 
L 113.963835 59.550081 
L 114.085805 58.367756 
L 114.097847 58.367756 
L 114.109937 59.550081 
L 114.205081 58.367756 
L 114.218095 58.367756 
L 114.230351 59.550081 
L 114.327231 58.367756 
L 114.589192 58.367756 
L 114.704065 57.18543 
L 114.716372 57.18543 
L 114.825754 58.367756 
L 114.948674 57.18543 
L 115.022763 57.18543 
L 115.145612 56.003105 
L 115.157686 56.003105 
L 115.279692 57.18543 
L 115.340509 57.18543 
L 115.451885 56.003105 
L 115.614366 56.003105 
L 115.725691 54.82078 
L 115.786872 54.82078 
L 115.898031 52.45613 
L 115.910787 52.45613 
L 115.935484 54.82078 
L 116.021674 52.45613 
L 116.083358 52.45613 
L 116.10832 54.82078 
L 116.431747 54.82078 
L 116.487099 52.45613 
L 116.500976 54.82078 
L 116.548286 54.82078 
L 116.664313 52.45613 
L 116.691818 52.45613 
L 116.78832 54.82078 
L 116.800434 52.45613 
L 116.872939 52.45613 
L 116.984824 56.003105 
L 117.100771 54.82078 
L 117.20128 56.003105 
L 117.252594 56.003105 
L 117.345866 54.82078 
L 117.36109 56.003105 
L 117.373182 56.003105 
L 117.427963 54.82078 
L 117.467421 56.003105 
L 117.547872 56.003105 
L 117.559941 54.82078 
L 117.658678 56.003105 
L 117.918463 56.003105 
L 118.030116 57.18543 
L 118.115636 56.003105 
L 118.139974 57.18543 
L 118.458095 57.18543 
L 118.470519 58.367756 
L 118.567295 57.18543 
L 118.580138 57.18543 
L 118.604549 58.367756 
L 118.679006 57.18543 
L 118.853457 57.18543 
L 118.931767 58.367756 
L 118.958199 57.18543 
L 119.068461 57.18543 
L 119.191106 58.367756 
L 119.203215 57.18543 
L 119.301012 58.367756 
L 119.707647 58.367756 
L 119.72015 59.550081 
L 119.806823 58.367756 
L 119.893098 58.367756 
L 120.007541 59.550081 
L 120.325278 59.550081 
L 120.337759 58.367756 
L 120.435133 59.550081 
L 120.626976 59.550081 
L 120.689906 60.732406 
L 120.726884 59.550081 
L 120.76451 59.550081 
L 120.878351 60.732406 
L 120.991673 59.550081 
L 121.004261 59.550081 
L 121.119972 60.732406 
L 121.144991 60.732406 
L 121.247629 59.550081 
L 121.260062 60.732406 
L 121.347686 59.550081 
L 121.408798 59.550081 
L 121.52265 60.732406 
L 121.546857 60.732406 
L 121.669577 59.550081 
L 121.681717 59.550081 
L 121.805474 60.732406 
L 121.817642 59.550081 
L 121.915951 60.732406 
L 122.017864 60.732406 
L 122.14289 61.914731 
L 122.481714 61.914731 
L 122.594199 60.732406 
L 122.668724 60.732406 
L 122.681091 61.914731 
L 122.779009 60.732406 
L 122.828089 60.732406 
L 122.91373 61.914731 
L 122.93779 60.732406 
L 123.034783 60.732406 
L 123.157345 61.914731 
L 123.280702 61.914731 
L 123.390162 63.097056 
L 123.512902 61.914731 
L 124.117294 61.914731 
L 124.129441 60.732406 
L 124.220604 61.914731 
L 124.35174 61.914731 
L 124.451149 63.097056 
L 124.561782 61.914731 
L 124.675086 63.097056 
L 124.797867 61.914731 
L 124.810528 61.914731 
L 124.933309 63.097056 
L 125.006786 63.097056 
L 125.130382 64.279381 
L 125.253343 63.097056 
L 125.400545 63.097056 
L 125.412617 64.279381 
L 125.510426 63.097056 
L 125.58391 63.097056 
L 125.608074 64.279381 
L 125.694483 63.097056 
L 125.754989 63.097056 
L 125.840153 64.279381 
L 125.864867 63.097056 
L 125.962835 63.097056 
L 126.085195 64.279381 
L 126.41766 64.279381 
L 126.540678 63.097056 
L 126.577639 63.097056 
L 126.687163 64.279381 
L 126.797554 63.097056 
L 126.908472 64.279381 
L 127.153456 64.279381 
L 127.165673 66.644032 
L 127.244034 64.279381 
L 127.638154 64.279381 
L 127.651142 66.644032 
L 127.741693 64.279381 
L 127.779575 64.279381 
L 127.888477 66.644032 
L 128.010161 64.279381 
L 128.242183 64.279381 
L 128.364351 66.644032 
L 128.498106 66.644032 
L 128.620516 67.826357 
L 128.632578 67.826357 
L 128.741883 66.644032 
L 128.793683 66.644032 
L 128.805894 67.826357 
L 128.894995 66.644032 
L 128.971093 64.279381 
L 128.983619 66.644032 
L 129.419105 66.644032 
L 129.520733 64.279381 
L 129.636454 66.644032 
L 129.748873 64.279381 
L 129.864862 66.644032 
L 129.982896 64.279381 
L 129.996777 64.279381 
L 130.087425 66.644032 
L 130.101743 64.279381 
L 130.115766 64.279381 
L 130.144648 66.644032 
L 130.210134 64.279381 
L 130.245618 64.279381 
L 130.366643 66.644032 
L 130.487639 64.279381 
L 130.500801 66.644032 
L 130.59749 64.279381 
L 130.751635 64.279381 
L 130.866034 63.097056 
L 130.977989 64.279381 
L 131.094403 63.097056 
L 131.159813 63.097056 
L 131.27573 64.279381 
L 131.397207 63.097056 
L 131.484036 64.279381 
L 131.497001 63.097056 
L 131.596846 64.279381 
L 131.708694 63.097056 
L 131.820118 64.279381 
L 131.86862 64.279381 
L 131.942785 63.097056 
L 131.967882 64.279381 
L 132.89282 64.279381 
L 132.929984 63.097056 
L 132.995822 64.279381 
L 133.297577 64.279381 
L 133.310038 66.644032 
L 133.396782 64.279381 
L 133.739931 64.279381 
L 133.788496 66.644032 
L 133.825733 64.279381 
L 134.303879 64.279381 
L 134.316387 63.097056 
L 134.414735 64.279381 
L 134.772204 64.279381 
L 134.860566 66.644032 
L 134.872631 64.279381 
L 135.000092 64.279381 
L 135.048572 66.644032 
L 135.086731 64.279381 
L 135.114608 64.279381 
L 135.23861 66.644032 
L 135.32459 66.644032 
L 135.33703 64.279381 
L 135.424464 66.644032 
L 135.754437 66.644032 
L 135.766705 64.279381 
L 135.853583 66.644032 
L 135.91552 66.644032 
L 135.928008 64.279381 
L 136.017498 66.644032 
L 136.942827 66.644032 
L 136.967018 67.826357 
L 137.053056 66.644032 
L 137.232726 66.644032 
L 137.376484 67.826357 
L 137.398812 66.644032 
L 137.46605 67.826357 
L 137.854142 67.826357 
L 137.93184 66.644032 
L 138.068033 67.826357 
L 138.080457 66.644032 
L 138.177725 67.826357 
L 138.311321 67.826357 
L 138.323471 69.008682 
L 138.421898 67.826357 
L 138.446193 67.826357 
L 138.531032 66.644032 
L 138.555273 67.826357 
L 138.789705 67.826357 
L 138.911429 69.008682 
L 139.023481 67.826357 
L 139.17082 67.826357 
L 139.279911 69.008682 
L 139.354084 67.826357 
L 139.378676 69.008682 
L 139.451663 69.008682 
L 139.574396 67.826357 
L 139.696199 69.008682 
L 139.793791 67.826357 
L 139.805857 69.008682 
L 140.329635 69.008682 
L 140.426718 70.191007 
L 140.438762 69.008682 
L 140.719045 69.008682 
L 140.731315 70.191007 
L 140.792028 69.008682 
L 140.83171 69.008682 
L 140.844109 70.191007 
L 140.941714 69.008682 
L 141.007181 69.008682 
L 141.119001 70.191007 
L 141.192255 70.191007 
L 141.314251 69.008682 
L 141.375441 70.191007 
L 141.423813 69.008682 
L 141.679585 69.008682 
L 141.716325 70.191007 
L 141.789334 69.008682 
L 141.936038 69.008682 
L 142.03518 70.191007 
L 142.157187 69.008682 
L 142.206204 69.008682 
L 142.328862 70.191007 
L 142.36519 70.191007 
L 142.487513 69.008682 
L 142.499622 69.008682 
L 142.622506 70.191007 
L 142.719426 69.008682 
L 142.73202 70.191007 
L 142.768842 70.191007 
L 142.867152 69.008682 
L 142.879223 70.191007 
L 143.414328 70.191007 
L 143.427016 69.008682 
L 143.513551 70.191007 
L 143.722988 70.191007 
L 143.834224 71.373332 
L 143.909911 70.191007 
L 143.935641 71.373332 
L 143.960466 71.373332 
L 143.972852 70.191007 
L 144.060489 71.373332 
L 144.687043 71.373332 
L 144.795938 70.191007 
L 144.91759 71.373332 
L 144.930056 71.373332 
L 145.053051 70.191007 
L 145.101495 70.191007 
L 145.138379 71.373332 
L 145.21093 70.191007 
L 145.580276 70.191007 
L 145.592348 71.373332 
L 145.691263 70.191007 
L 146.536863 70.191007 
L 146.601935 69.008682 
L 146.638259 70.191007 
L 146.650502 70.191007 
L 146.760494 69.008682 
L 146.81025 70.191007 
L 146.871559 69.008682 
L 147.387579 69.008682 
L 147.424839 67.826357 
L 147.486921 69.008682 
L 147.511061 69.008682 
L 147.633744 67.826357 
L 147.645855 67.826357 
L 147.758098 69.008682 
L 147.770329 69.008682 
L 147.893133 67.826357 
L 147.905394 67.826357 
L 147.942 69.008682 
L 148.016126 67.826357 
L 148.041247 67.826357 
L 148.162515 66.644032 
L 148.248989 67.826357 
L 148.27362 66.644032 
L 148.359448 66.644032 
L 148.371751 67.826357 
L 148.469575 66.644032 
L 148.641293 66.644032 
L 148.752981 64.279381 
L 149.013208 64.279381 
L 149.136047 63.097056 
L 149.209776 63.097056 
L 149.321803 61.914731 
L 149.444188 63.097056 
L 149.566193 61.914731 
L 149.724383 61.914731 
L 149.737555 63.097056 
L 149.823583 61.914731 
L 149.896926 61.914731 
L 150.019196 63.097056 
L 150.043505 63.097056 
L 150.166511 61.914731 
L 150.192513 61.914731 
L 150.314311 63.097056 
L 150.338499 63.097056 
L 150.350687 61.914731 
L 150.447789 63.097056 
L 150.754073 63.097056 
L 150.766571 64.279381 
L 150.864713 63.097056 
L 150.988249 63.097056 
L 151.097778 64.279381 
L 151.21946 63.097056 
L 151.243802 63.097056 
L 151.355772 64.279381 
L 151.466828 64.279381 
L 151.47891 63.097056 
L 151.576725 64.279381 
L 151.649752 64.279381 
L 151.710651 63.097056 
L 151.759547 64.279381 
L 152.334996 64.279381 
L 152.457601 66.644032 
L 152.494011 66.644032 
L 152.615903 64.279381 
L 152.739262 66.644032 
L 152.800441 64.279381 
L 152.849396 66.644032 
L 152.861624 66.644032 
L 152.874772 64.279381 
L 152.972638 66.644032 
L 153.295827 66.644032 
L 153.320566 67.826357 
L 153.405571 66.644032 
L 153.516281 66.644032 
L 153.60363 67.826357 
L 153.61652 66.644032 
L 153.666787 66.644032 
L 153.765411 67.826357 
L 153.777523 66.644032 
L 153.899009 67.826357 
L 153.975197 66.644032 
L 153.999428 67.826357 
L 154.258375 67.826357 
L 154.270422 69.008682 
L 154.368372 67.826357 
L 154.392575 67.826357 
L 154.503157 69.008682 
L 154.515255 67.826357 
L 154.613366 69.008682 
L 154.65028 69.008682 
L 154.662351 67.826357 
L 154.74811 69.008682 
L 154.761272 70.191007 
L 154.847172 69.008682 
L 154.859244 69.008682 
L 154.982135 70.191007 
L 154.994235 70.191007 
L 155.116714 69.008682 
L 155.52213 69.008682 
L 155.595661 67.826357 
L 155.63286 69.008682 
L 155.694003 69.008682 
L 155.706681 67.826357 
L 155.80398 69.008682 
L 156.048387 69.008682 
L 156.170795 70.191007 
L 156.213517 70.191007 
L 156.335122 69.008682 
L 156.347212 69.008682 
L 156.445516 70.191007 
L 156.457584 69.008682 
L 156.494391 69.008682 
L 156.582021 70.191007 
L 156.594082 69.008682 
L 156.706092 69.008682 
L 156.718526 70.191007 
L 156.816508 69.008682 
L 156.926811 69.008682 
L 157.025061 70.191007 
L 157.037143 69.008682 
L 157.222645 69.008682 
L 157.234728 70.191007 
L 157.332422 69.008682 
L 157.566263 69.008682 
L 157.578427 70.191007 
L 157.590549 69.008682 
L 156.902669 69.008682 
L 156.964212 69.008682 
L 157.0751 70.191007 
L 157.136927 70.191007 
L 157.259723 69.008682 
L 157.381734 70.191007 
L 157.406263 70.191007 
L 157.467176 69.008682 
L 157.515725 70.191007 
L 157.601243 70.191007 
L 157.641726 69.008682 
L 157.702855 70.191007 
L 158.183911 70.191007 
L 158.269488 69.008682 
L 158.29383 70.191007 
L 158.710785 70.191007 
L 158.832485 69.008682 
L 158.9542 70.191007 
L 158.966253 70.191007 
L 159.088158 69.008682 
L 159.210683 70.191007 
L 159.259678 70.191007 
L 159.371839 69.008682 
L 159.482698 70.191007 
L 159.507153 69.008682 
L 159.592668 70.191007 
L 160.081776 70.191007 
L 160.204133 71.373332 
L 160.325526 70.191007 
L 160.447868 71.373332 
L 160.472478 71.373332 
L 160.484579 70.191007 
L 160.58174 71.373332 
L 160.667176 71.373332 
L 160.691317 72.555657 
L 160.776007 71.373332 
L 161.217701 71.373332 
L 161.229768 70.191007 
L 161.317926 71.373332 
L 161.922887 71.373332 
L 161.983715 70.191007 
L 162.032465 71.373332 
L 162.056784 71.373332 
L 162.169905 70.191007 
L 162.207448 70.191007 
L 162.328318 71.373332 
L 162.474044 70.191007 
L 162.583902 71.373332 
L 162.706381 70.191007 
L 162.839702 70.191007 
L 162.851735 71.373332 
L 162.949081 70.191007 
L 163.413926 70.191007 
L 163.523305 69.008682 
L 163.635948 70.191007 
L 163.67224 70.191007 
L 163.746199 69.008682 
L 163.783238 70.191007 
L 163.823919 70.191007 
L 163.872358 69.008682 
L 163.920761 70.191007 
L 163.960817 70.191007 
L 164.082612 69.008682 
L 164.313613 69.008682 
L 164.387985 67.826357 
L 164.412933 69.008682 
L 164.425018 69.008682 
L 164.535474 67.826357 
L 164.572141 69.008682 
L 164.645508 67.826357 
L 165.011727 67.826357 
L 165.134705 66.644032 
L 165.183622 66.644032 
L 165.294077 67.826357 
L 165.415746 66.644032 
L 165.514128 66.644032 
L 165.551125 67.826357 
L 165.623998 66.644032 
L 165.722354 66.644032 
L 165.808565 67.826357 
L 165.832774 66.644032 
L 165.857384 66.644032 
L 165.968944 67.826357 
L 166.091811 67.826357 
L 166.214194 66.644032 
L 166.337119 67.826357 
L 166.386841 67.826357 
L 166.435845 66.644032 
L 166.496936 67.826357 
L 166.804031 67.826357 
L 166.925571 69.008682 
L 167.097315 69.008682 
L 167.109773 67.826357 
L 167.206657 69.008682 
L 167.488115 69.008682 
L 167.573872 67.826357 
L 167.598401 69.008682 
L 167.807683 69.008682 
L 167.832061 67.826357 
L 167.917857 69.008682 
L 167.930077 69.008682 
L 167.942347 67.826357 
L 168.040028 69.008682 
L 169.169467 69.008682 
L 169.182166 70.191007 
L 169.276451 69.008682 
L 169.314653 69.008682 
L 169.421202 70.191007 
L 169.534514 69.008682 
L 169.655923 70.191007 
L 170.963089 70.191007 
L 171.08622 71.373332 
L 171.19862 70.191007 
L 171.309767 71.373332 
L 171.408826 70.191007 
L 171.520637 71.373332 
L 171.532714 70.191007 
L 171.620063 71.373332 
L 171.632525 71.373332 
L 171.682912 70.191007 
L 171.733828 71.373332 
L 171.746686 71.373332 
L 171.858254 70.191007 
L 171.870714 70.191007 
L 171.985835 71.373332 
L 172.035713 71.373332 
L 172.146458 70.191007 
L 172.269359 71.373332 
L 172.441431 71.373332 
L 172.453504 70.191007 
L 172.540051 71.373332 
L 173.141719 71.373332 
L 173.153819 72.555657 
L 173.252607 71.373332 
L 173.314665 71.373332 
L 173.389751 72.555657 
L 173.413847 71.373332 
L 173.426248 71.373332 
L 173.537684 72.555657 
L 173.599148 71.373332 
L 173.6479 72.555657 
L 173.721925 72.555657 
L 173.734657 71.373332 
L 173.832966 72.555657 
L 173.881678 72.555657 
L 173.968508 73.737983 
L 173.992729 72.555657 
L 174.114659 73.737983 
L 174.199614 73.737983 
L 174.321796 76.102633 
L 174.434641 76.102633 
L 174.556081 73.737983 
L 174.580265 73.737983 
L 174.633969 72.555657 
L 174.683293 73.737983 
L 174.695947 73.737983 
L 174.756576 72.555657 
L 174.805803 73.737983 
L 174.867285 73.737983 
L 174.976604 72.555657 
L 175.098289 73.737983 
L 175.220047 72.555657 
L 175.342115 73.737983 
L 175.354371 73.737983 
L 175.366461 72.555657 
L 175.463575 73.737983 
L 175.779939 73.737983 
L 175.866212 76.102633 
L 175.890609 73.737983 
L 175.939721 73.737983 
L 176.013472 76.102633 
L 176.038603 73.737983 
L 176.05111 73.737983 
L 176.174231 76.102633 
L 176.56439 76.102633 
L 176.576458 77.284958 
L 176.674567 76.102633 
L 176.869182 76.102633 
L 176.88146 77.284958 
L 176.978801 76.102633 
L 177.003184 76.102633 
L 177.125446 77.284958 
L 177.345575 77.284958 
L 177.46722 76.102633 
L 177.479249 76.102633 
L 177.588633 77.284958 
L 177.624996 76.102633 
L 177.699086 77.284958 
L 177.880718 77.284958 
L 177.992968 78.467283 
L 178.538796 78.467283 
L 178.611339 77.284958 
L 178.647886 78.467283 
L 178.952081 78.467283 
L 178.96415 77.284958 
L 179.061719 78.467283 
L 179.536698 78.467283 
L 179.548806 77.284958 
L 179.646433 78.467283 
L 180.09719 78.467283 
L 180.193821 79.649608 
L 180.205879 78.467283 
L 180.217986 78.467283 
L 180.326871 79.649608 
L 180.424978 78.467283 
L 180.43747 79.649608 
L 180.473827 79.649608 
L 180.595155 78.467283 
L 180.619269 79.649608 
L 180.704223 78.467283 
L 180.752773 78.467283 
L 180.862703 79.649608 
L 180.947709 77.284958 
L 180.972001 78.467283 
L 180.99635 78.467283 
L 181.117915 77.284958 
L 181.142493 77.284958 
L 181.166667 78.467283 
L 181.239456 77.284958 
L 181.360918 76.102633 
L 181.471117 76.102633 
L 181.593946 73.737983 
L 181.716022 73.737983 
L 181.791897 76.102633 
L 181.816249 73.737983 
L 181.901362 73.737983 
L 181.998579 76.102633 
L 182.011145 73.737983 
L 182.084536 73.737983 
L 182.096591 76.102633 
L 400.450737 112.754713 
L 400.536738 112.754713 
L 400.549359 113.937038 
L 400.647091 112.754713 
L 400.659581 112.754713 
L 400.770402 113.937038 
L 400.795412 113.937038 
L 400.819509 112.754713 
L 400.894637 113.937038 
L 401.114437 113.937038 
L 401.199787 115.119363 
L 401.224723 113.937038 
L 401.286288 113.937038 
L 401.408856 115.119363 
L 401.530667 113.937038 
L 401.653709 115.119363 
L 401.776796 113.937038 
L 401.861413 115.119363 
L 401.886754 113.937038 
L 401.948388 113.937038 
L 401.960615 115.119363 
L 402.047526 113.937038 
L 402.230402 113.937038 
L 403.782629 116.301688 
L 403.896348 115.119363 
L 403.93351 115.119363 
L 403.981735 116.301688 
L 404.042783 115.119363 
L 404.115855 115.119363 
L 404.131547 116.301688 
L 404.217623 115.119363 
L 404.356277 115.119363 
L 404.392529 116.301688 
L 404.465896 115.119363 
L 404.564579 115.119363 
L 404.654313 116.301688 
L 404.666406 115.119363 
L 404.702658 115.119363 
L 404.787893 116.301688 
L 404.800776 115.119363 
L 404.851577 115.119363 
L 404.964469 116.301688 
L 404.976628 116.301688 
L 405.038211 115.119363 
L 405.08766 116.301688 
L 405.112488 116.301688 
L 405.210835 115.119363 
L 405.334351 116.301688 
L 405.456608 115.119363 
L 405.554818 116.301688 
L 405.567159 115.119363 
L 405.616131 115.119363 
L 405.739288 116.301688 
L 405.84875 116.301688 
L 405.958604 115.119363 
L 406.007231 116.301688 
L 406.067948 115.119363 
L 406.080451 115.119363 
L 406.202999 116.301688 
L 406.300962 116.301688 
L 406.313035 115.119363 
L 406.406551 116.301688 
L 406.64412 116.301688 
L 406.754549 118.666339 
L 406.85272 116.301688 
L 406.86479 118.666339 
L 406.94945 116.301688 
L 406.97411 118.666339 
L 407.239211 118.666339 
L 407.251661 119.848664 
L 407.339307 118.666339 
L 407.572516 118.666339 
L 407.68398 116.301688 
L 407.977036 116.301688 
L 408.065494 118.666339 
L 408.077576 116.301688 
L 408.114814 116.301688 
L 408.23827 118.666339 
L 408.251021 118.666339 
L 408.300255 116.301688 
L 408.361604 118.666339 
L 408.52243 118.666339 
L 408.595332 116.301688 
L 408.632459 118.666339 
L 408.841341 118.666339 
L 408.91626 119.848664 
L 408.940794 118.666339 
L 409.087468 118.666339 
L 409.100472 119.848664 
L 409.187035 118.666339 
L 409.274257 118.666339 
L 409.387242 119.848664 
L 409.489003 119.848664 
L 409.502896 118.666339 
L 409.590328 119.848664 
L 409.776748 119.848664 
L 409.812957 118.666339 
L 409.879717 119.848664 
L 409.993588 119.848664 
L 410.105915 118.666339 
L 410.11834 118.666339 
L 410.230684 119.848664 
L 410.42879 119.848664 
L 410.477382 118.666339 
L 410.538362 119.848664 
L 410.562987 119.848664 
L 410.659967 118.666339 
L 410.672042 119.848664 
L 410.684105 119.848664 
L 410.782689 118.666339 
L 410.79479 119.848664 
L 411.039281 119.848664 
L 411.051374 118.666339 
L 411.15002 119.848664 
L 411.546234 119.848664 
L 411.558501 118.666339 
L 411.646071 119.848664 
L 411.768858 119.848664 
L 411.891466 118.666339 
L 412.014499 119.848664 
L 412.270421 119.848664 
L 412.282487 121.030989 
L 412.370567 119.848664 
L 412.394815 119.848664 
L 412.419794 121.030989 
L 412.494547 119.848664 
L 412.507064 119.848664 
L 412.519351 121.030989 
L 412.608238 119.848664 
L 412.722637 119.848664 
L 412.761654 121.030989 
L 412.829982 119.848664 
L 412.855438 119.848664 
L 412.967758 121.030989 
L 412.98134 121.030989 
L 413.092381 119.848664 
L 413.156912 119.848664 
L 413.304754 121.030989 
L 413.426738 119.848664 
L 413.548539 121.030989 
L 413.638086 121.030989 
L 413.701023 119.848664 
L 413.738153 121.030989 
L 413.750395 121.030989 
L 413.862251 119.848664 
L 413.974473 121.030989 
L 414.182935 121.030989 
L 414.256447 119.848664 
L 414.2931 121.030989 
L 414.305238 121.030989 
L 414.419815 119.848664 
L 414.522586 119.848664 
L 414.53463 121.030989 
L 414.633297 119.848664 
L 414.900414 119.848664 
L 414.937119 118.666339 
L 415.010787 119.848664 
L 415.160569 119.848664 
L 415.28384 118.666339 
L 415.295974 118.666339 
L 415.395182 119.848664 
L 415.480448 118.666339 
L 415.505467 119.848664 
L 415.743177 119.848664 
L 415.803962 118.666339 
L 415.852355 119.848664 
L 415.901712 119.848664 
L 415.987322 118.666339 
L 416.012634 119.848664 
L 416.03674 119.848664 
L 416.110104 118.666339 
L 416.146633 119.848664 
L 416.610892 119.848664 
L 416.708158 118.666339 
L 416.720248 119.848664 
L 416.745397 119.848664 
L 416.866951 118.666339 
L 416.879075 118.666339 
L 416.988992 119.848664 
L 417.09889 118.666339 
L 417.171521 119.848664 
L 417.208118 118.666339 
L 417.784135 118.666339 
L 417.896586 119.848664 
L 418.009647 118.666339 
L 418.021811 118.666339 
L 418.03388 119.848664 
L 418.132072 118.666339 
L 418.144821 118.666339 
L 418.268216 119.848664 
L 418.390984 118.666339 
L 418.40305 118.666339 
L 418.513781 119.848664 
L 418.599277 118.666339 
L 418.623441 119.848664 
L 418.64814 119.848664 
L 418.733933 118.666339 
L 418.758588 119.848664 
L 418.771056 119.848664 
L 418.846428 118.666339 
L 418.871051 119.848664 
L 418.883113 119.848664 
L 418.895188 118.666339 
L 418.982332 119.848664 
L 419.019987 119.848664 
L 419.143373 118.666339 
L 419.156122 118.666339 
L 419.266935 119.848664 
L 419.304067 119.848664 
L 419.342894 118.666339 
L 419.406141 119.848664 
L 419.806305 119.848664 
L 419.917144 121.030989 
L 419.966749 119.848664 
L 420.016807 121.030989 
L 420.041346 121.030989 
L 420.138495 119.848664 
L 420.150958 121.030989 
L 420.721198 121.030989 
L 420.84376 123.395639 
L 420.966838 122.213314 
L 421.236468 122.213314 
L 421.349733 123.395639 
L 421.387432 123.395639 
L 421.510169 124.577964 
L 421.62304 123.395639 
L 421.647408 123.395639 
L 421.659485 122.213314 
L 421.751579 123.395639 
L 422.083754 123.395639 
L 422.095807 122.213314 
L 422.182875 123.395639 
L 422.283367 123.395639 
L 422.345157 124.577964 
L 422.381464 123.395639 
L 422.571206 123.395639 
L 422.683337 122.213314 
L 422.731654 123.395639 
L 422.792793 122.213314 
L 422.859612 122.213314 
L 422.959482 123.395639 
L 423.068543 122.213314 
L 423.203169 124.577964 
L 423.325819 123.395639 
L 423.350417 123.395639 
L 423.462445 124.577964 
L 423.498899 124.577964 
L 423.572182 123.395639 
L 423.608519 124.577964 
L 423.620703 124.577964 
L 423.742114 123.395639 
L 423.827286 124.577964 
L 423.852004 123.395639 
L 423.985357 123.395639 
L 424.095873 124.577964 
L 424.108654 124.577964 
L 424.231153 123.395639 
L 424.255621 123.395639 
L 424.36535 124.577964 
L 424.377619 123.395639 
L 424.475573 124.577964 
L 424.5241 124.577964 
L 424.645777 123.395639 
L 424.694853 123.395639 
L 424.815787 124.577964 
L 424.913386 124.577964 
L 424.937905 123.395639 
L 425.0124 124.577964 
L 425.344749 124.577964 
L 425.467119 123.395639 
L 425.479189 123.395639 
L 425.600616 124.577964 
L 426.413238 124.577964 
L 426.525927 125.76029 
L 426.562554 125.76029 
L 426.6645 124.577964 
L 426.761952 125.76029 
L 426.774022 124.577964 
L 426.786066 124.577964 
L 426.798118 125.76029 
L 426.895799 124.577964 
L 426.932225 124.577964 
L 427.054643 125.76029 
L 427.066827 125.76029 
L 427.176524 124.577964 
L 427.299067 125.76029 
L 427.520159 125.76029 
L 427.532229 126.942615 
L 427.620174 125.76029 
L 427.754446 125.76029 
L 427.876982 126.942615 
L 427.88925 126.942615 
L 427.974636 125.76029 
L 427.998865 126.942615 
L 428.023401 126.942615 
L 428.134933 125.76029 
L 428.147164 125.76029 
L 428.244772 126.942615 
L 428.25686 125.76029 
L 428.269206 125.76029 
L 428.392089 126.942615 
L 428.42895 126.942615 
L 428.551222 125.76029 
L 428.664113 126.942615 
L 428.725524 126.942615 
L 428.823349 128.12494 
L 428.835818 126.942615 
L 428.945083 126.942615 
L 429.043546 128.12494 
L 429.055608 126.942615 
L 429.092819 126.942615 
L 429.214906 128.12494 
L 429.373229 128.12494 
L 429.445846 125.76029 
L 429.494837 126.942615 
L 429.56832 126.942615 
L 429.692169 125.76029 
L 429.704317 125.76029 
L 429.827601 126.942615 
L 429.863842 126.942615 
L 429.986655 125.76029 
L 430.15658 125.76029 
L 430.16864 126.942615 
L 430.266904 125.76029 
L 430.315666 125.76029 
L 430.401815 126.942615 
L 430.41472 125.76029 
L 430.451886 125.76029 
L 430.552393 126.942615 
L 430.674741 125.76029 
L 430.686974 125.76029 
L 430.798106 126.942615 
L 430.909633 125.76029 
L 430.946877 125.76029 
L 431.043914 126.942615 
L 431.05657 125.76029 
L 431.081752 125.76029 
L 431.204832 126.942615 
L 431.229763 126.942615 
L 431.305168 125.76029 
L 431.32967 126.942615 
L 431.527548 126.942615 
L 431.539979 125.76029 
L 431.628191 126.942615 
L 431.688614 126.942615 
L 431.810563 125.76029 
L 431.86105 125.76029 
L 431.885174 126.942615 
L 431.969992 125.76029 
L 432.009091 125.76029 
L 432.009091 125.76029 
" style="fill:none;stroke:#1f77b4;stroke-linecap:square;stroke-width:1.5;"/>
   </g>
   <g id="line2d_30">
    <path clip-path="url(#pe83c751304)" d="M 72.190909 125.76029 
L 73.249969 125.76029 
L 73.371974 138.765866 
L 73.619886 138.765866 
L 73.741891 144.677492 
L 74.59359 144.677492 
L 74.716365 138.765866 
L 74.962027 138.765866 
L 75.085068 144.677492 
L 75.332268 144.677492 
L 75.453358 149.406793 
L 76.63492 149.406793 
L 76.745349 144.677492 
L 76.819755 144.677492 
L 76.931166 161.230044 
L 77.797033 161.230044 
L 77.908796 165.959345 
L 78.104143 165.959345 
L 78.226472 149.406793 
L 78.658568 149.406793 
L 78.781684 144.677492 
L 79.028236 144.677492 
L 79.150793 149.406793 
L 79.640349 149.406793 
L 79.753587 138.765866 
L 80.011662 138.765866 
L 80.132868 123.395639 
L 80.194181 123.395639 
L 80.3069 102.113786 
L 80.934527 102.113786 
L 81.470211 89.10821 
L 82.027281 89.10821 
L 82.148642 80.831934 
L 82.590358 80.831934 
L 82.71224 78.467283 
L 83.995021 78.467283 
L 84.106679 89.10821 
L 84.673208 89.10821 
L 84.78601 65.461707 
L 85.233291 65.461707 
L 85.347642 115.119363 
L 86.529353 115.119363 
L 86.651619 125.76029 
L 87.2895 125.76029 
L 87.412166 195.517474 
L 88.029045 195.517474 
L 88.152334 221.528627 
L 88.778503 221.528627 
L 88.901794 232.169554 
L 89.331172 232.169554 
L 89.442784 245.17513 
L 90.311731 245.17513 
L 90.424092 232.169554 
L 90.69926 232.169554 
L 90.822183 221.528627 
L 92.766581 221.528627 
L 92.881672 208.52305 
L 95.021166 208.52305 
L 95.144202 195.517474 
L 95.965458 195.517474 
L 96.080651 171.870971 
L 96.338248 171.870971 
L 96.449269 149.406793 
L 97.128773 149.406793 
L 97.250563 115.119363 
L 97.926592 115.119363 
L 97.965399 78.467283 
L 98.647034 89.10821 
L 98.900319 89.10821 
L 99.604694 115.119363 
L 99.788554 115.119363 
L 99.910038 125.76029 
L 100.588192 125.76029 
L 100.710694 138.765866 
L 102.660652 138.765866 
L 102.823351 149.406793 
L 104.034775 149.406793 
L 104.149209 138.765866 
L 104.758482 138.765866 
L 104.880564 149.406793 
L 105.366893 149.406793 
L 105.488792 161.230044 
L 107.060691 161.230044 
L 107.181502 138.765866 
L 107.637464 138.765866 
L 107.759996 149.406793 
L 108.594247 149.406793 
L 108.707511 144.677492 
L 109.005019 144.677492 
L 109.092128 149.406793 
L 109.414796 149.406793 
L 109.532835 165.959345 
L 109.74279 165.959345 
L 109.940628 149.406793 
L 110.593364 149.406793 
L 110.715279 165.959345 
L 111.147825 165.959345 
L 111.262394 161.230044 
L 112.503852 161.230044 
L 112.616816 184.876547 
L 113.307298 184.876547 
L 113.41903 149.406793 
L 113.80431 149.406793 
L 113.926673 125.76029 
L 115.206554 125.76029 
L 115.328372 78.467283 
L 117.320756 78.467283 
L 117.440696 89.10821 
L 118.237565 89.10821 
L 118.351995 102.113786 
L 118.704267 102.113786 
L 118.816809 115.119363 
L 119.683189 115.119363 
L 119.794712 138.765866 
L 120.852663 138.765866 
L 120.966737 149.406793 
L 122.93779 149.406793 
L 123.05936 161.230044 
L 125.485731 161.230044 
L 125.608074 165.959345 
L 125.730736 165.959345 
L 125.85242 149.406793 
L 128.107691 149.406793 
L 128.229915 161.230044 
L 129.67299 161.230044 
L 129.78703 165.959345 
L 129.916928 165.959345 
L 130.062037 161.230044 
L 130.688827 161.230044 
L 130.803121 149.406793 
L 131.769775 149.406793 
L 131.880728 138.765866 
L 132.942452 138.765866 
L 133.058406 144.677492 
L 133.420855 144.677492 
L 133.53232 125.76029 
L 133.666519 125.76029 
L 133.788496 123.395639 
L 134.108413 123.395639 
L 134.229906 125.76029 
L 134.352866 125.76029 
L 134.464532 123.395639 
L 134.860566 123.395639 
L 134.973557 125.76029 
L 135.275416 125.76029 
L 135.386513 123.395639 
L 135.522899 123.395639 
L 135.645637 125.76029 
L 136.005419 125.76029 
L 136.079634 123.395639 
L 136.928603 115.119363 
L 137.053056 138.765866 
L 137.854142 138.765866 
L 138.018089 125.76029 
L 138.59313 125.76029 
L 138.704263 138.765866 
L 139.267808 138.765866 
L 139.378676 125.76029 
L 141.606204 125.76029 
L 141.728773 123.395639 
L 141.850037 123.395639 
L 141.97307 125.76029 
L 142.096119 125.76029 
L 142.218626 123.395639 
L 142.524475 123.395639 
L 142.646681 138.765866 
L 143.69857 138.765866 
L 143.821817 144.677492 
L 143.948201 144.677492 
L 144.060489 138.765866 
L 144.380841 138.765866 
L 144.504251 144.677492 
L 144.626299 144.677492 
L 144.747538 161.230044 
L 145.125911 161.230044 
L 145.242857 165.959345 
L 145.555695 165.959345 
L 145.666873 161.230044 
L 146.292116 161.230044 
L 146.413765 165.959345 
L 146.723421 165.959345 
L 146.834832 149.406793 
L 147.165541 149.406793 
L 147.412316 144.677492 
L 147.682219 144.677492 
L 147.794689 138.765866 
L 147.929934 138.765866 
L 148.041247 123.395639 
L 148.174572 123.395639 
L 148.285673 115.119363 
L 148.604655 115.119363 
L 148.716652 102.113786 
L 149.52957 102.113786 
L 149.65139 89.10821 
L 149.774436 89.10821 
L 149.896926 80.831934 
L 150.508701 80.831934 
L 150.619905 89.10821 
L 150.939046 89.10821 
L 151.061283 102.113786 
L 153.022542 102.113786 
L 153.135833 115.119363 
L 153.765411 115.119363 
L 153.886941 138.765866 
L 157.259029 138.765866 
L 157.370387 149.406793 
L 157.590549 149.406793 
L 156.902669 149.406793 
L 157.296368 149.406793 
L 157.418341 138.765866 
L 157.987754 138.765866 
L 158.110399 149.406793 
L 159.346373 149.406793 
L 159.457642 161.230044 
L 161.070926 161.230044 
L 161.19349 165.959345 
L 161.501783 165.959345 
L 161.624859 161.230044 
L 161.750611 161.230044 
L 161.861866 165.959345 
L 162.182754 165.959345 
L 162.304004 161.230044 
L 162.912754 161.230044 
L 163.033774 149.406793 
L 163.155082 149.406793 
L 163.266585 144.677492 
L 164.301541 144.677492 
L 164.412933 89.10821 
L 164.730114 89.10821 
L 164.853061 80.831934 
L 165.221023 80.831934 
L 165.34261 78.467283 
L 165.465117 78.467283 
L 165.587602 59.550081 
L 165.710088 59.550081 
L 165.832774 65.461707 
L 168.758517 65.461707 
L 168.872885 102.113786 
L 170.865144 102.113786 
L 171.011915 125.76029 
L 175.354371 125.76029 
L 175.476017 115.119363 
L 176.27182 115.119363 
L 176.393344 125.76029 
L 179.658543 125.76029 
L 179.779785 138.765866 
L 179.901453 138.765866 
L 180.023846 144.677492 
L 180.388706 144.677492 
L 180.510001 125.76029 
L 181.557145 125.76029 
L 181.678913 123.395639 
L 181.740252 123.395639 
L 181.865034 115.119363 
L 182.096591 115.119363 
L 400.219443 171.870971 
L 400.709678 171.870971 
L 400.831974 165.959345 
L 402.230402 165.959345 
L 403.847675 187.241198 
L 404.344212 187.241198 
L 404.465896 221.528627 
L 405.812363 221.528627 
L 405.933956 232.169554 
L 407.61003 232.169554 
L 407.721802 229.804903 
L 408.952939 229.804903 
L 409.074982 221.528627 
L 409.387242 221.528627 
L 409.502896 208.52305 
L 412.955661 208.52305 
L 413.068098 221.528627 
L 415.185654 221.528627 
L 415.308039 208.52305 
L 415.864424 208.52305 
L 415.987322 187.241198 
L 417.687062 187.241198 
L 417.809706 208.52305 
L 421.62304 208.52305 
L 421.739312 221.528627 
L 424.022777 221.528627 
L 424.145564 245.17513 
L 427.164044 245.17513 
L 427.28682 232.169554 
L 427.657305 232.169554 
L 427.778495 245.17513 
L 432.009091 245.17513 
L 432.009091 245.17513 
" style="fill:none;stroke:#ff7f0e;stroke-linecap:square;stroke-width:1.5;"/>
   </g>
   <g id="patch_3">
    <path d="M 54.2 255.638708 
L 54.2 25.44 
" style="fill:none;stroke:#000000;stroke-linecap:square;stroke-linejoin:miter;stroke-width:0.8;"/>
   </g>
   <g id="patch_4">
    <path d="M 450 255.638708 
L 450 25.44 
" style="fill:none;stroke:#000000;stroke-linecap:square;stroke-linejoin:miter;stroke-width:0.8;"/>
   </g>
   <g id="patch_5">
    <path d="M 54.2 255.638708 
L 450 255.638708 
" style="fill:none;stroke:#000000;stroke-linecap:square;stroke-linejoin:miter;stroke-width:0.8;"/>
   </g>
   <g id="patch_6">
    <path d="M 54.2 25.44 
L 450 25.44 
" style="fill:none;stroke:#000000;stroke-linecap:square;stroke-linejoin:miter;stroke-width:0.8;"/>
   </g>
   <g id="text_17">
    <!-- Lake Shoecraft - Water and Air Temperature -->
    <g transform="translate(120.481563 19.44)scale(0.12 -0.12)">
     <defs>
      <path d="M 9.8125 72.90625 
L 19.671875 72.90625 
L 19.671875 8.296875 
L 55.171875 8.296875 
L 55.171875 0 
L 9.8125 0 
z
" id="DejaVuSans-76"/>
      <path d="M 9.078125 75.984375 
L 18.109375 75.984375 
L 18.109375 31.109375 
L 44.921875 54.6875 
L 56.390625 54.6875 
L 27.390625 29.109375 
L 57.625 0 
L 45.90625 0 
L 18.109375 26.703125 
L 18.109375 0 
L 9.078125 0 
z
" id="DejaVuSans-107"/>
      <path d="M 53.515625 70.515625 
L 53.515625 60.890625 
Q 47.90625 63.578125 42.921875 64.890625 
Q 37.9375 66.21875 33.296875 66.21875 
Q 25.25 66.21875 20.875 63.09375 
Q 16.5 59.96875 16.5 54.203125 
Q 16.5 49.359375 19.40625 46.890625 
Q 22.3125 44.4375 30.421875 42.921875 
L 36.375 41.703125 
Q 47.40625 39.59375 52.65625 34.296875 
Q 57.90625 29 57.90625 20.125 
Q 57.90625 9.515625 50.796875 4.046875 
Q 43.703125 -1.421875 29.984375 -1.421875 
Q 24.8125 -1.421875 18.96875 -0.25 
Q 13.140625 0.921875 6.890625 3.21875 
L 6.890625 13.375 
Q 12.890625 10.015625 18.65625 8.296875 
Q 24.421875 6.59375 29.984375 6.59375 
Q 38.421875 6.59375 43.015625 9.90625 
Q 47.609375 13.234375 47.609375 19.390625 
Q 47.609375 24.75 44.3125 27.78125 
Q 41.015625 30.8125 33.5 32.328125 
L 27.484375 33.5 
Q 16.453125 35.6875 11.515625 40.375 
Q 6.59375 45.0625 6.59375 53.421875 
Q 6.59375 63.09375 13.40625 68.65625 
Q 20.21875 74.21875 32.171875 74.21875 
Q 37.3125 74.21875 42.625 73.28125 
Q 47.953125 72.359375 53.515625 70.515625 
z
" id="DejaVuSans-83"/>
      <path d="M 54.890625 33.015625 
L 54.890625 0 
L 45.90625 0 
L 45.90625 32.71875 
Q 45.90625 40.484375 42.875 44.328125 
Q 39.84375 48.1875 33.796875 48.1875 
Q 26.515625 48.1875 22.3125 43.546875 
Q 18.109375 38.921875 18.109375 30.90625 
L 18.109375 0 
L 9.078125 0 
L 9.078125 75.984375 
L 18.109375 75.984375 
L 18.109375 46.1875 
Q 21.34375 51.125 25.703125 53.5625 
Q 30.078125 56 35.796875 56 
Q 45.21875 56 50.046875 50.171875 
Q 54.890625 44.34375 54.890625 33.015625 
z
" id="DejaVuSans-104"/>
      <path d="M 30.609375 48.390625 
Q 23.390625 48.390625 19.1875 42.75 
Q 14.984375 37.109375 14.984375 27.296875 
Q 14.984375 17.484375 19.15625 11.84375 
Q 23.34375 6.203125 30.609375 6.203125 
Q 37.796875 6.203125 41.984375 11.859375 
Q 46.1875 17.53125 46.1875 27.296875 
Q 46.1875 37.015625 41.984375 42.703125 
Q 37.796875 48.390625 30.609375 48.390625 
z
M 30.609375 56 
Q 42.328125 56 49.015625 48.375 
Q 55.71875 40.765625 55.71875 27.296875 
Q 55.71875 13.875 49.015625 6.21875 
Q 42.328125 -1.421875 30.609375 -1.421875 
Q 18.84375 -1.421875 12.171875 6.21875 
Q 5.515625 13.875 5.515625 27.296875 
Q 5.515625 40.765625 12.171875 48.375 
Q 18.84375 56 30.609375 56 
z
" id="DejaVuSans-111"/>
      <path d="M 48.78125 52.59375 
L 48.78125 44.1875 
Q 44.96875 46.296875 41.140625 47.34375 
Q 37.3125 48.390625 33.40625 48.390625 
Q 24.65625 48.390625 19.8125 42.84375 
Q 14.984375 37.3125 14.984375 27.296875 
Q 14.984375 17.28125 19.8125 11.734375 
Q 24.65625 6.203125 33.40625 6.203125 
Q 37.3125 6.203125 41.140625 7.25 
Q 44.96875 8.296875 48.78125 10.40625 
L 48.78125 2.09375 
Q 45.015625 0.34375 40.984375 -0.53125 
Q 36.96875 -1.421875 32.421875 -1.421875 
Q 20.0625 -1.421875 12.78125 6.34375 
Q 5.515625 14.109375 5.515625 27.296875 
Q 5.515625 40.671875 12.859375 48.328125 
Q 20.21875 56 33.015625 56 
Q 37.15625 56 41.109375 55.140625 
Q 45.0625 54.296875 48.78125 52.59375 
z
" id="DejaVuSans-99"/>
      <path d="M 37.109375 75.984375 
L 37.109375 68.5 
L 28.515625 68.5 
Q 23.6875 68.5 21.796875 66.546875 
Q 19.921875 64.59375 19.921875 59.515625 
L 19.921875 54.6875 
L 34.71875 54.6875 
L 34.71875 47.703125 
L 19.921875 47.703125 
L 19.921875 0 
L 10.890625 0 
L 10.890625 47.703125 
L 2.296875 47.703125 
L 2.296875 54.6875 
L 10.890625 54.6875 
L 10.890625 58.5 
Q 10.890625 67.625 15.140625 71.796875 
Q 19.390625 75.984375 28.609375 75.984375 
z
" id="DejaVuSans-102"/>
      <path d="M 3.328125 72.90625 
L 13.28125 72.90625 
L 28.609375 11.28125 
L 43.890625 72.90625 
L 54.984375 72.90625 
L 70.3125 11.28125 
L 85.59375 72.90625 
L 95.609375 72.90625 
L 77.296875 0 
L 64.890625 0 
L 49.515625 63.28125 
L 33.984375 0 
L 21.578125 0 
z
" id="DejaVuSans-87"/>
      <path d="M 54.890625 33.015625 
L 54.890625 0 
L 45.90625 0 
L 45.90625 32.71875 
Q 45.90625 40.484375 42.875 44.328125 
Q 39.84375 48.1875 33.796875 48.1875 
Q 26.515625 48.1875 22.3125 43.546875 
Q 18.109375 38.921875 18.109375 30.90625 
L 18.109375 0 
L 9.078125 0 
L 9.078125 54.6875 
L 18.109375 54.6875 
L 18.109375 46.1875 
Q 21.34375 51.125 25.703125 53.5625 
Q 30.078125 56 35.796875 56 
Q 45.21875 56 50.046875 50.171875 
Q 54.890625 44.34375 54.890625 33.015625 
z
" id="DejaVuSans-110"/>
      <path d="M 45.40625 46.390625 
L 45.40625 75.984375 
L 54.390625 75.984375 
L 54.390625 0 
L 45.40625 0 
L 45.40625 8.203125 
Q 42.578125 3.328125 38.25 0.953125 
Q 33.9375 -1.421875 27.875 -1.421875 
Q 17.96875 -1.421875 11.734375 6.484375 
Q 5.515625 14.40625 5.515625 27.296875 
Q 5.515625 40.1875 11.734375 48.09375 
Q 17.96875 56 27.875 56 
Q 33.9375 56 38.25 53.625 
Q 42.578125 51.265625 45.40625 46.390625 
z
M 14.796875 27.296875 
Q 14.796875 17.390625 18.875 11.75 
Q 22.953125 6.109375 30.078125 6.109375 
Q 37.203125 6.109375 41.296875 11.75 
Q 45.40625 17.390625 45.40625 27.296875 
Q 45.40625 37.203125 41.296875 42.84375 
Q 37.203125 48.484375 30.078125 48.484375 
Q 22.953125 48.484375 18.875 42.84375 
Q 14.796875 37.203125 14.796875 27.296875 
z
" id="DejaVuSans-100"/>
      <path d="M 34.1875 63.1875 
L 20.796875 26.90625 
L 47.609375 26.90625 
z
M 28.609375 72.90625 
L 39.796875 72.90625 
L 67.578125 0 
L 57.328125 0 
L 50.6875 18.703125 
L 17.828125 18.703125 
L 11.1875 0 
L 0.78125 0 
z
" id="DejaVuSans-65"/>
      <path d="M 9.421875 54.6875 
L 18.40625 54.6875 
L 18.40625 0 
L 9.421875 0 
z
M 9.421875 75.984375 
L 18.40625 75.984375 
L 18.40625 64.59375 
L 9.421875 64.59375 
z
" id="DejaVuSans-105"/>
     </defs>
     <use xlink:href="#DejaVuSans-76"/>
     <use x="55.712891" xlink:href="#DejaVuSans-97"/>
     <use x="116.992188" xlink:href="#DejaVuSans-107"/>
     <use x="171.277344" xlink:href="#DejaVuSans-101"/>
     <use x="232.800781" xlink:href="#DejaVuSans-32"/>
     <use x="264.587891" xlink:href="#DejaVuSans-83"/>
     <use x="328.064453" xlink:href="#DejaVuSans-104"/>
     <use x="391.443359" xlink:href="#DejaVuSans-111"/>
     <use x="452.625" xlink:href="#DejaVuSans-101"/>
     <use x="514.148438" xlink:href="#DejaVuSans-99"/>
     <use x="569.128906" xlink:href="#DejaVuSans-114"/>
     <use x="610.242188" xlink:href="#DejaVuSans-97"/>
     <use x="671.521484" xlink:href="#DejaVuSans-102"/>
     <use x="704.976562" xlink:href="#DejaVuSans-116"/>
     <use x="744.185547" xlink:href="#DejaVuSans-32"/>
     <use x="775.972656" xlink:href="#DejaVuSans-45"/>
     <use x="812.056641" xlink:href="#DejaVuSans-32"/>
     <use x="843.84375" xlink:href="#DejaVuSans-87"/>
     <use x="936.345703" xlink:href="#DejaVuSans-97"/>
     <use x="997.625" xlink:href="#DejaVuSans-116"/>
     <use x="1036.833984" xlink:href="#DejaVuSans-101"/>
     <use x="1098.357422" xlink:href="#DejaVuSans-114"/>
     <use x="1139.470703" xlink:href="#DejaVuSans-32"/>
     <use x="1171.257812" xlink:href="#DejaVuSans-97"/>
     <use x="1232.537109" xlink:href="#DejaVuSans-110"/>
     <use x="1295.916016" xlink:href="#DejaVuSans-100"/>
     <use x="1359.392578" xlink:href="#DejaVuSans-32"/>
     <use x="1391.179688" xlink:href="#DejaVuSans-65"/>
     <use x="1459.587891" xlink:href="#DejaVuSans-105"/>
     <use x="1487.371094" xlink:href="#DejaVuSans-114"/>
     <use x="1528.484375" xlink:href="#DejaVuSans-32"/>
     <use x="1560.271484" xlink:href="#DejaVuSans-84"/>
     <use x="1604.355469" xlink:href="#DejaVuSans-101"/>
     <use x="1665.878906" xlink:href="#DejaVuSans-109"/>
     <use x="1763.291016" xlink:href="#DejaVuSans-112"/>
     <use x="1826.767578" xlink:href="#DejaVuSans-101"/>
     <use x="1888.291016" xlink:href="#DejaVuSans-114"/>
     <use x="1929.404297" xlink:href="#DejaVuSans-97"/>
     <use x="1990.683594" xlink:href="#DejaVuSans-116"/>
     <use x="2029.892578" xlink:href="#DejaVuSans-117"/>
     <use x="2093.271484" xlink:href="#DejaVuSans-114"/>
     <use x="2132.134766" xlink:href="#DejaVuSans-101"/>
    </g>
   </g>
   <g id="legend_1">
    <g id="patch_7">
     <path d="M 357.890625 62.79625 
L 443 62.79625 
Q 445 62.79625 445 60.79625 
L 445 32.44 
Q 445 30.44 443 30.44 
L 357.890625 30.44 
Q 355.890625 30.44 355.890625 32.44 
L 355.890625 60.79625 
Q 355.890625 62.79625 357.890625 62.79625 
z
" style="fill:#ffffff;opacity:0.8;stroke:#cccccc;stroke-linejoin:miter;"/>
    </g>
    <g id="line2d_31">
     <path d="M 359.890625 38.538437 
L 379.890625 38.538437 
" style="fill:none;stroke:#1f77b4;stroke-linecap:square;stroke-width:1.5;"/>
    </g>
    <g id="line2d_32"/>
    <g id="text_18">
     <!-- Lake Temp -->
     <g transform="translate(387.890625 42.038437)scale(0.1 -0.1)">
      <use xlink:href="#DejaVuSans-76"/>
      <use x="55.712891" xlink:href="#DejaVuSans-97"/>
      <use x="116.992188" xlink:href="#DejaVuSans-107"/>
      <use x="171.277344" xlink:href="#DejaVuSans-101"/>
      <use x="232.800781" xlink:href="#DejaVuSans-32"/>
      <use x="264.587891" xlink:href="#DejaVuSans-84"/>
      <use x="308.671875" xlink:href="#DejaVuSans-101"/>
      <use x="370.195312" xlink:href="#DejaVuSans-109"/>
      <use x="467.607422" xlink:href="#DejaVuSans-112"/>
     </g>
    </g>
    <g id="line2d_33">
     <path d="M 359.890625 53.216562 
L 379.890625 53.216562 
" style="fill:none;stroke:#ff7f0e;stroke-linecap:square;stroke-width:1.5;"/>
    </g>
    <g id="line2d_34"/>
    <g id="text_19">
     <!-- Air Temp -->
     <g transform="translate(387.890625 56.716562)scale(0.1 -0.1)">
      <use xlink:href="#DejaVuSans-65"/>
      <use x="68.408203" xlink:href="#DejaVuSans-105"/>
      <use x="96.191406" xlink:href="#DejaVuSans-114"/>
      <use x="137.304688" xlink:href="#DejaVuSans-32"/>
      <use x="169.091797" xlink:href="#DejaVuSans-84"/>
      <use x="213.175781" xlink:href="#DejaVuSans-101"/>
      <use x="274.699219" xlink:href="#DejaVuSans-109"/>
      <use x="372.111328" xlink:href="#DejaVuSans-112"/>
     </g>
    </g>
   </g>
  </g>
 </g>
 <defs>
  <clipPath id="pe83c751304">
   <rect height="230.198708" width="395.8" x="54.2" y="25.44"/>
  </clipPath>
 </defs>
</svg>
