<?xml version="1.0" encoding="utf-8" standalone="no"?>
<!DOCTYPE svg PUBLIC "-//W3C//DTD SVG 1.1//EN"
  "http://www.w3.org/Graphics/SVG/1.1/DTD/svg11.dtd">
<!-- Created with matplotlib (https://matplotlib.org/) -->
<svg height="345.6pt" version="1.1" viewBox="0 0 460.8 345.6" width="460.8pt" xmlns="http://www.w3.org/2000/svg" xmlns:xlink="http://www.w3.org/1999/xlink">
 <metadata>
  <rdf:RDF xmlns:cc="http://creativecommons.org/ns#" xmlns:dc="http://purl.org/dc/elements/1.1/" xmlns:rdf="http://www.w3.org/1999/02/22-rdf-syntax-ns#">
   <cc:Work>
    <dc:type rdf:resource="http://purl.org/dc/dcmitype/StillImage"/>
    <dc:date>2024-09-08T16:59:19.323997</dc:date>
    <dc:format>image/svg+xml</dc:format>
    <dc:creator>
     <cc:Agent>
      <dc:title>Matplotlib v3.3.2, https://matplotlib.org/</dc:title>
     </cc:Agent>
    </dc:creator>
   </cc:Work>
  </rdf:RDF>
 </metadata>
 <defs>
  <style type="text/css">*{stroke-linecap:butt;stroke-linejoin:round;}</style>
 </defs>
 <g id="figure_1">
  <g id="patch_1">
   <path d="M 0 345.6 
L 460.8 345.6 
L 460.8 0 
L 0 0 
z
" style="fill:none;"/>
  </g>
  <g id="axes_1">
   <g id="patch_2">
    <path d="M 44.66 255.638708 
L 443.728138 255.638708 
L 443.728138 25.44 
L 44.66 25.44 
z
" style="fill:none;"/>
   </g>
   <g id="matplotlib.axis_1">
    <g id="xtick_1">
     <g id="line2d_1">
      <path clip-path="url(#p40d358d2ec)" d="M 45.54535 255.638708 
L 45.54535 25.44 
" style="fill:none;stroke:#b0b0b0;stroke-linecap:square;stroke-width:0.8;"/>
     </g>
     <g id="line2d_2">
      <defs>
       <path d="M 0 0 
L 0 3.5 
" id="ma73c5789ee" style="stroke:#000000;stroke-width:0.8;"/>
      </defs>
      <g>
       <use style="stroke:#000000;stroke-width:0.8;" x="45.54535" xlink:href="#ma73c5789ee" y="255.638708"/>
      </g>
     </g>
     <g id="text_1">
      <!-- 2024-08-27 -->
      <g transform="translate(38.199957 319.848351)rotate(-70)scale(0.1 -0.1)">
       <defs>
        <path d="M 19.1875 8.296875 
L 53.609375 8.296875 
L 53.609375 0 
L 7.328125 0 
L 7.328125 8.296875 
Q 12.9375 14.109375 22.625 23.890625 
Q 32.328125 33.6875 34.8125 36.53125 
Q 39.546875 41.84375 41.421875 45.53125 
Q 43.3125 49.21875 43.3125 52.78125 
Q 43.3125 58.59375 39.234375 62.25 
Q 35.15625 65.921875 28.609375 65.921875 
Q 23.96875 65.921875 18.8125 64.3125 
Q 13.671875 62.703125 7.8125 59.421875 
L 7.8125 69.390625 
Q 13.765625 71.78125 18.9375 73 
Q 24.125 74.21875 28.421875 74.21875 
Q 39.75 74.21875 46.484375 68.546875 
Q 53.21875 62.890625 53.21875 53.421875 
Q 53.21875 48.921875 51.53125 44.890625 
Q 49.859375 40.875 45.40625 35.40625 
Q 44.1875 33.984375 37.640625 27.21875 
Q 31.109375 20.453125 19.1875 8.296875 
z
" id="DejaVuSans-50"/>
        <path d="M 31.78125 66.40625 
Q 24.171875 66.40625 20.328125 58.90625 
Q 16.5 51.421875 16.5 36.375 
Q 16.5 21.390625 20.328125 13.890625 
Q 24.171875 6.390625 31.78125 6.390625 
Q 39.453125 6.390625 43.28125 13.890625 
Q 47.125 21.390625 47.125 36.375 
Q 47.125 51.421875 43.28125 58.90625 
Q 39.453125 66.40625 31.78125 66.40625 
z
M 31.78125 74.21875 
Q 44.046875 74.21875 50.515625 64.515625 
Q 56.984375 54.828125 56.984375 36.375 
Q 56.984375 17.96875 50.515625 8.265625 
Q 44.046875 -1.421875 31.78125 -1.421875 
Q 19.53125 -1.421875 13.0625 8.265625 
Q 6.59375 17.96875 6.59375 36.375 
Q 6.59375 54.828125 13.0625 64.515625 
Q 19.53125 74.21875 31.78125 74.21875 
z
" id="DejaVuSans-48"/>
        <path d="M 37.796875 64.3125 
L 12.890625 25.390625 
L 37.796875 25.390625 
z
M 35.203125 72.90625 
L 47.609375 72.90625 
L 47.609375 25.390625 
L 58.015625 25.390625 
L 58.015625 17.1875 
L 47.609375 17.1875 
L 47.609375 0 
L 37.796875 0 
L 37.796875 17.1875 
L 4.890625 17.1875 
L 4.890625 26.703125 
z
" id="DejaVuSans-52"/>
        <path d="M 4.890625 31.390625 
L 31.203125 31.390625 
L 31.203125 23.390625 
L 4.890625 23.390625 
z
" id="DejaVuSans-45"/>
        <path d="M 31.78125 34.625 
Q 24.75 34.625 20.71875 30.859375 
Q 16.703125 27.09375 16.703125 20.515625 
Q 16.703125 13.921875 20.71875 10.15625 
Q 24.75 6.390625 31.78125 6.390625 
Q 38.8125 6.390625 42.859375 10.171875 
Q 46.921875 13.96875 46.921875 20.515625 
Q 46.921875 27.09375 42.890625 30.859375 
Q 38.875 34.625 31.78125 34.625 
z
M 21.921875 38.8125 
Q 15.578125 40.375 12.03125 44.71875 
Q 8.5 49.078125 8.5 55.328125 
Q 8.5 64.0625 14.71875 69.140625 
Q 20.953125 74.21875 31.78125 74.21875 
Q 42.671875 74.21875 48.875 69.140625 
Q 55.078125 64.0625 55.078125 55.328125 
Q 55.078125 49.078125 51.53125 44.71875 
Q 48 40.375 41.703125 38.8125 
Q 48.828125 37.15625 52.796875 32.3125 
Q 56.78125 27.484375 56.78125 20.515625 
Q 56.78125 9.90625 50.3125 4.234375 
Q 43.84375 -1.421875 31.78125 -1.421875 
Q 19.734375 -1.421875 13.25 4.234375 
Q 6.78125 9.90625 6.78125 20.515625 
Q 6.78125 27.484375 10.78125 32.3125 
Q 14.796875 37.15625 21.921875 38.8125 
z
M 18.3125 54.390625 
Q 18.3125 48.734375 21.84375 45.5625 
Q 25.390625 42.390625 31.78125 42.390625 
Q 38.140625 42.390625 41.71875 45.5625 
Q 45.3125 48.734375 45.3125 54.390625 
Q 45.3125 60.0625 41.71875 63.234375 
Q 38.140625 66.40625 31.78125 66.40625 
Q 25.390625 66.40625 21.84375 63.234375 
Q 18.3125 60.0625 18.3125 54.390625 
z
" id="DejaVuSans-56"/>
        <path d="M 8.203125 72.90625 
L 55.078125 72.90625 
L 55.078125 68.703125 
L 28.609375 0 
L 18.3125 0 
L 43.21875 64.59375 
L 8.203125 64.59375 
z
" id="DejaVuSans-55"/>
       </defs>
       <use xlink:href="#DejaVuSans-50"/>
       <use x="63.623047" xlink:href="#DejaVuSans-48"/>
       <use x="127.246094" xlink:href="#DejaVuSans-50"/>
       <use x="190.869141" xlink:href="#DejaVuSans-52"/>
       <use x="254.492188" xlink:href="#DejaVuSans-45"/>
       <use x="290.576172" xlink:href="#DejaVuSans-48"/>
       <use x="354.199219" xlink:href="#DejaVuSans-56"/>
       <use x="417.822266" xlink:href="#DejaVuSans-45"/>
       <use x="453.90625" xlink:href="#DejaVuSans-50"/>
       <use x="517.529297" xlink:href="#DejaVuSans-55"/>
      </g>
     </g>
    </g>
    <g id="xtick_2">
     <g id="line2d_3">
      <path clip-path="url(#p40d358d2ec)" d="M 105.358981 255.638708 
L 105.358981 25.44 
" style="fill:none;stroke:#b0b0b0;stroke-linecap:square;stroke-width:0.8;"/>
     </g>
     <g id="line2d_4">
      <g>
       <use style="stroke:#000000;stroke-width:0.8;" x="105.358981" xlink:href="#ma73c5789ee" y="255.638708"/>
      </g>
     </g>
     <g id="text_2">
      <!-- 2024-08-29 -->
      <g transform="translate(98.013588 319.848351)rotate(-70)scale(0.1 -0.1)">
       <defs>
        <path d="M 10.984375 1.515625 
L 10.984375 10.5 
Q 14.703125 8.734375 18.5 7.8125 
Q 22.3125 6.890625 25.984375 6.890625 
Q 35.75 6.890625 40.890625 13.453125 
Q 46.046875 20.015625 46.78125 33.40625 
Q 43.953125 29.203125 39.59375 26.953125 
Q 35.25 24.703125 29.984375 24.703125 
Q 19.046875 24.703125 12.671875 31.3125 
Q 6.296875 37.9375 6.296875 49.421875 
Q 6.296875 60.640625 12.9375 67.421875 
Q 19.578125 74.21875 30.609375 74.21875 
Q 43.265625 74.21875 49.921875 64.515625 
Q 56.59375 54.828125 56.59375 36.375 
Q 56.59375 19.140625 48.40625 8.859375 
Q 40.234375 -1.421875 26.421875 -1.421875 
Q 22.703125 -1.421875 18.890625 -0.6875 
Q 15.09375 0.046875 10.984375 1.515625 
z
M 30.609375 32.421875 
Q 37.25 32.421875 41.125 36.953125 
Q 45.015625 41.5 45.015625 49.421875 
Q 45.015625 57.28125 41.125 61.84375 
Q 37.25 66.40625 30.609375 66.40625 
Q 23.96875 66.40625 20.09375 61.84375 
Q 16.21875 57.28125 16.21875 49.421875 
Q 16.21875 41.5 20.09375 36.953125 
Q 23.96875 32.421875 30.609375 32.421875 
z
" id="DejaVuSans-57"/>
       </defs>
       <use xlink:href="#DejaVuSans-50"/>
       <use x="63.623047" xlink:href="#DejaVuSans-48"/>
       <use x="127.246094" xlink:href="#DejaVuSans-50"/>
       <use x="190.869141" xlink:href="#DejaVuSans-52"/>
       <use x="254.492188" xlink:href="#DejaVuSans-45"/>
       <use x="290.576172" xlink:href="#DejaVuSans-48"/>
       <use x="354.199219" xlink:href="#DejaVuSans-56"/>
       <use x="417.822266" xlink:href="#DejaVuSans-45"/>
       <use x="453.90625" xlink:href="#DejaVuSans-50"/>
       <use x="517.529297" xlink:href="#DejaVuSans-57"/>
      </g>
     </g>
    </g>
    <g id="xtick_3">
     <g id="line2d_5">
      <path clip-path="url(#p40d358d2ec)" d="M 165.172612 255.638708 
L 165.172612 25.44 
" style="fill:none;stroke:#b0b0b0;stroke-linecap:square;stroke-width:0.8;"/>
     </g>
     <g id="line2d_6">
      <g>
       <use style="stroke:#000000;stroke-width:0.8;" x="165.172612" xlink:href="#ma73c5789ee" y="255.638708"/>
      </g>
     </g>
     <g id="text_3">
      <!-- 2024-08-31 -->
      <g transform="translate(157.827219 319.848351)rotate(-70)scale(0.1 -0.1)">
       <defs>
        <path d="M 40.578125 39.3125 
Q 47.65625 37.796875 51.625 33 
Q 55.609375 28.21875 55.609375 21.1875 
Q 55.609375 10.40625 48.1875 4.484375 
Q 40.765625 -1.421875 27.09375 -1.421875 
Q 22.515625 -1.421875 17.65625 -0.515625 
Q 12.796875 0.390625 7.625 2.203125 
L 7.625 11.71875 
Q 11.71875 9.328125 16.59375 8.109375 
Q 21.484375 6.890625 26.8125 6.890625 
Q 36.078125 6.890625 40.9375 10.546875 
Q 45.796875 14.203125 45.796875 21.1875 
Q 45.796875 27.640625 41.28125 31.265625 
Q 36.765625 34.90625 28.71875 34.90625 
L 20.21875 34.90625 
L 20.21875 43.015625 
L 29.109375 43.015625 
Q 36.375 43.015625 40.234375 45.921875 
Q 44.09375 48.828125 44.09375 54.296875 
Q 44.09375 59.90625 40.109375 62.90625 
Q 36.140625 65.921875 28.71875 65.921875 
Q 24.65625 65.921875 20.015625 65.03125 
Q 15.375 64.15625 9.8125 62.3125 
L 9.8125 71.09375 
Q 15.4375 72.65625 20.34375 73.4375 
Q 25.25 74.21875 29.59375 74.21875 
Q 40.828125 74.21875 47.359375 69.109375 
Q 53.90625 64.015625 53.90625 55.328125 
Q 53.90625 49.265625 50.4375 45.09375 
Q 46.96875 40.921875 40.578125 39.3125 
z
" id="DejaVuSans-51"/>
        <path d="M 12.40625 8.296875 
L 28.515625 8.296875 
L 28.515625 63.921875 
L 10.984375 60.40625 
L 10.984375 69.390625 
L 28.421875 72.90625 
L 38.28125 72.90625 
L 38.28125 8.296875 
L 54.390625 8.296875 
L 54.390625 0 
L 12.40625 0 
z
" id="DejaVuSans-49"/>
       </defs>
       <use xlink:href="#DejaVuSans-50"/>
       <use x="63.623047" xlink:href="#DejaVuSans-48"/>
       <use x="127.246094" xlink:href="#DejaVuSans-50"/>
       <use x="190.869141" xlink:href="#DejaVuSans-52"/>
       <use x="254.492188" xlink:href="#DejaVuSans-45"/>
       <use x="290.576172" xlink:href="#DejaVuSans-48"/>
       <use x="354.199219" xlink:href="#DejaVuSans-56"/>
       <use x="417.822266" xlink:href="#DejaVuSans-45"/>
       <use x="453.90625" xlink:href="#DejaVuSans-51"/>
       <use x="517.529297" xlink:href="#DejaVuSans-49"/>
      </g>
     </g>
    </g>
    <g id="xtick_4">
     <g id="line2d_7">
      <path clip-path="url(#p40d358d2ec)" d="M 195.079427 255.638708 
L 195.079427 25.44 
" style="fill:none;stroke:#b0b0b0;stroke-linecap:square;stroke-width:0.8;"/>
     </g>
     <g id="line2d_8">
      <g>
       <use style="stroke:#000000;stroke-width:0.8;" x="195.079427" xlink:href="#ma73c5789ee" y="255.638708"/>
      </g>
     </g>
     <g id="text_4">
      <!-- 2024-09-01 -->
      <g transform="translate(187.734034 319.848351)rotate(-70)scale(0.1 -0.1)">
       <use xlink:href="#DejaVuSans-50"/>
       <use x="63.623047" xlink:href="#DejaVuSans-48"/>
       <use x="127.246094" xlink:href="#DejaVuSans-50"/>
       <use x="190.869141" xlink:href="#DejaVuSans-52"/>
       <use x="254.492188" xlink:href="#DejaVuSans-45"/>
       <use x="290.576172" xlink:href="#DejaVuSans-48"/>
       <use x="354.199219" xlink:href="#DejaVuSans-57"/>
       <use x="417.822266" xlink:href="#DejaVuSans-45"/>
       <use x="453.90625" xlink:href="#DejaVuSans-48"/>
       <use x="517.529297" xlink:href="#DejaVuSans-49"/>
      </g>
     </g>
    </g>
    <g id="xtick_5">
     <g id="line2d_9">
      <path clip-path="url(#p40d358d2ec)" d="M 254.893058 255.638708 
L 254.893058 25.44 
" style="fill:none;stroke:#b0b0b0;stroke-linecap:square;stroke-width:0.8;"/>
     </g>
     <g id="line2d_10">
      <g>
       <use style="stroke:#000000;stroke-width:0.8;" x="254.893058" xlink:href="#ma73c5789ee" y="255.638708"/>
      </g>
     </g>
     <g id="text_5">
      <!-- 2024-09-03 -->
      <g transform="translate(247.547666 319.848351)rotate(-70)scale(0.1 -0.1)">
       <use xlink:href="#DejaVuSans-50"/>
       <use x="63.623047" xlink:href="#DejaVuSans-48"/>
       <use x="127.246094" xlink:href="#DejaVuSans-50"/>
       <use x="190.869141" xlink:href="#DejaVuSans-52"/>
       <use x="254.492188" xlink:href="#DejaVuSans-45"/>
       <use x="290.576172" xlink:href="#DejaVuSans-48"/>
       <use x="354.199219" xlink:href="#DejaVuSans-57"/>
       <use x="417.822266" xlink:href="#DejaVuSans-45"/>
       <use x="453.90625" xlink:href="#DejaVuSans-48"/>
       <use x="517.529297" xlink:href="#DejaVuSans-51"/>
      </g>
     </g>
    </g>
    <g id="xtick_6">
     <g id="line2d_11">
      <path clip-path="url(#p40d358d2ec)" d="M 314.706689 255.638708 
L 314.706689 25.44 
" style="fill:none;stroke:#b0b0b0;stroke-linecap:square;stroke-width:0.8;"/>
     </g>
     <g id="line2d_12">
      <g>
       <use style="stroke:#000000;stroke-width:0.8;" x="314.706689" xlink:href="#ma73c5789ee" y="255.638708"/>
      </g>
     </g>
     <g id="text_6">
      <!-- 2024-09-05 -->
      <g transform="translate(307.361297 319.848351)rotate(-70)scale(0.1 -0.1)">
       <defs>
        <path d="M 10.796875 72.90625 
L 49.515625 72.90625 
L 49.515625 64.59375 
L 19.828125 64.59375 
L 19.828125 46.734375 
Q 21.96875 47.46875 24.109375 47.828125 
Q 26.265625 48.1875 28.421875 48.1875 
Q 40.625 48.1875 47.75 41.5 
Q 54.890625 34.8125 54.890625 23.390625 
Q 54.890625 11.625 47.5625 5.09375 
Q 40.234375 -1.421875 26.90625 -1.421875 
Q 22.3125 -1.421875 17.546875 -0.640625 
Q 12.796875 0.140625 7.71875 1.703125 
L 7.71875 11.625 
Q 12.109375 9.234375 16.796875 8.0625 
Q 21.484375 6.890625 26.703125 6.890625 
Q 35.15625 6.890625 40.078125 11.328125 
Q 45.015625 15.765625 45.015625 23.390625 
Q 45.015625 31 40.078125 35.4375 
Q 35.15625 39.890625 26.703125 39.890625 
Q 22.75 39.890625 18.8125 39.015625 
Q 14.890625 38.140625 10.796875 36.28125 
z
" id="DejaVuSans-53"/>
       </defs>
       <use xlink:href="#DejaVuSans-50"/>
       <use x="63.623047" xlink:href="#DejaVuSans-48"/>
       <use x="127.246094" xlink:href="#DejaVuSans-50"/>
       <use x="190.869141" xlink:href="#DejaVuSans-52"/>
       <use x="254.492188" xlink:href="#DejaVuSans-45"/>
       <use x="290.576172" xlink:href="#DejaVuSans-48"/>
       <use x="354.199219" xlink:href="#DejaVuSans-57"/>
       <use x="417.822266" xlink:href="#DejaVuSans-45"/>
       <use x="453.90625" xlink:href="#DejaVuSans-48"/>
       <use x="517.529297" xlink:href="#DejaVuSans-53"/>
      </g>
     </g>
    </g>
    <g id="xtick_7">
     <g id="line2d_13">
      <path clip-path="url(#p40d358d2ec)" d="M 374.520321 255.638708 
L 374.520321 25.44 
" style="fill:none;stroke:#b0b0b0;stroke-linecap:square;stroke-width:0.8;"/>
     </g>
     <g id="line2d_14">
      <g>
       <use style="stroke:#000000;stroke-width:0.8;" x="374.520321" xlink:href="#ma73c5789ee" y="255.638708"/>
      </g>
     </g>
     <g id="text_7">
      <!-- 2024-09-07 -->
      <g transform="translate(367.174928 319.848351)rotate(-70)scale(0.1 -0.1)">
       <use xlink:href="#DejaVuSans-50"/>
       <use x="63.623047" xlink:href="#DejaVuSans-48"/>
       <use x="127.246094" xlink:href="#DejaVuSans-50"/>
       <use x="190.869141" xlink:href="#DejaVuSans-52"/>
       <use x="254.492188" xlink:href="#DejaVuSans-45"/>
       <use x="290.576172" xlink:href="#DejaVuSans-48"/>
       <use x="354.199219" xlink:href="#DejaVuSans-57"/>
       <use x="417.822266" xlink:href="#DejaVuSans-45"/>
       <use x="453.90625" xlink:href="#DejaVuSans-48"/>
       <use x="517.529297" xlink:href="#DejaVuSans-55"/>
      </g>
     </g>
    </g>
    <g id="xtick_8">
     <g id="line2d_15">
      <path clip-path="url(#p40d358d2ec)" d="M 434.333952 255.638708 
L 434.333952 25.44 
" style="fill:none;stroke:#b0b0b0;stroke-linecap:square;stroke-width:0.8;"/>
     </g>
     <g id="line2d_16">
      <g>
       <use style="stroke:#000000;stroke-width:0.8;" x="434.333952" xlink:href="#ma73c5789ee" y="255.638708"/>
      </g>
     </g>
     <g id="text_8">
      <!-- 2024-09-09 -->
      <g transform="translate(426.988559 319.848351)rotate(-70)scale(0.1 -0.1)">
       <use xlink:href="#DejaVuSans-50"/>
       <use x="63.623047" xlink:href="#DejaVuSans-48"/>
       <use x="127.246094" xlink:href="#DejaVuSans-50"/>
       <use x="190.869141" xlink:href="#DejaVuSans-52"/>
       <use x="254.492188" xlink:href="#DejaVuSans-45"/>
       <use x="290.576172" xlink:href="#DejaVuSans-48"/>
       <use x="354.199219" xlink:href="#DejaVuSans-57"/>
       <use x="417.822266" xlink:href="#DejaVuSans-45"/>
       <use x="453.90625" xlink:href="#DejaVuSans-48"/>
       <use x="517.529297" xlink:href="#DejaVuSans-57"/>
      </g>
     </g>
    </g>
    <g id="text_9">
     <!-- Date -->
     <g transform="translate(232.243288 332.158083)scale(0.1 -0.1)">
      <defs>
       <path d="M 19.671875 64.796875 
L 19.671875 8.109375 
L 31.59375 8.109375 
Q 46.6875 8.109375 53.6875 14.9375 
Q 60.6875 21.78125 60.6875 36.53125 
Q 60.6875 51.171875 53.6875 57.984375 
Q 46.6875 64.796875 31.59375 64.796875 
z
M 9.8125 72.90625 
L 30.078125 72.90625 
Q 51.265625 72.90625 61.171875 64.09375 
Q 71.09375 55.28125 71.09375 36.53125 
Q 71.09375 17.671875 61.125 8.828125 
Q 51.171875 0 30.078125 0 
L 9.8125 0 
z
" id="DejaVuSans-68"/>
       <path d="M 34.28125 27.484375 
Q 23.390625 27.484375 19.1875 25 
Q 14.984375 22.515625 14.984375 16.5 
Q 14.984375 11.71875 18.140625 8.90625 
Q 21.296875 6.109375 26.703125 6.109375 
Q 34.1875 6.109375 38.703125 11.40625 
Q 43.21875 16.703125 43.21875 25.484375 
L 43.21875 27.484375 
z
M 52.203125 31.203125 
L 52.203125 0 
L 43.21875 0 
L 43.21875 8.296875 
Q 40.140625 3.328125 35.546875 0.953125 
Q 30.953125 -1.421875 24.3125 -1.421875 
Q 15.921875 -1.421875 10.953125 3.296875 
Q 6 8.015625 6 15.921875 
Q 6 25.140625 12.171875 29.828125 
Q 18.359375 34.515625 30.609375 34.515625 
L 43.21875 34.515625 
L 43.21875 35.40625 
Q 43.21875 41.609375 39.140625 45 
Q 35.0625 48.390625 27.6875 48.390625 
Q 23 48.390625 18.546875 47.265625 
Q 14.109375 46.140625 10.015625 43.890625 
L 10.015625 52.203125 
Q 14.9375 54.109375 19.578125 55.046875 
Q 24.21875 56 28.609375 56 
Q 40.484375 56 46.34375 49.84375 
Q 52.203125 43.703125 52.203125 31.203125 
z
" id="DejaVuSans-97"/>
       <path d="M 18.3125 70.21875 
L 18.3125 54.6875 
L 36.8125 54.6875 
L 36.8125 47.703125 
L 18.3125 47.703125 
L 18.3125 18.015625 
Q 18.3125 11.328125 20.140625 9.421875 
Q 21.96875 7.515625 27.59375 7.515625 
L 36.8125 7.515625 
L 36.8125 0 
L 27.59375 0 
Q 17.1875 0 13.234375 3.875 
Q 9.28125 7.765625 9.28125 18.015625 
L 9.28125 47.703125 
L 2.6875 47.703125 
L 2.6875 54.6875 
L 9.28125 54.6875 
L 9.28125 70.21875 
z
" id="DejaVuSans-116"/>
       <path d="M 56.203125 29.59375 
L 56.203125 25.203125 
L 14.890625 25.203125 
Q 15.484375 15.921875 20.484375 11.0625 
Q 25.484375 6.203125 34.421875 6.203125 
Q 39.59375 6.203125 44.453125 7.46875 
Q 49.3125 8.734375 54.109375 11.28125 
L 54.109375 2.78125 
Q 49.265625 0.734375 44.1875 -0.34375 
Q 39.109375 -1.421875 33.890625 -1.421875 
Q 20.796875 -1.421875 13.15625 6.1875 
Q 5.515625 13.8125 5.515625 26.8125 
Q 5.515625 40.234375 12.765625 48.109375 
Q 20.015625 56 32.328125 56 
Q 43.359375 56 49.78125 48.890625 
Q 56.203125 41.796875 56.203125 29.59375 
z
M 47.21875 32.234375 
Q 47.125 39.59375 43.09375 43.984375 
Q 39.0625 48.390625 32.421875 48.390625 
Q 24.90625 48.390625 20.390625 44.140625 
Q 15.875 39.890625 15.1875 32.171875 
z
" id="DejaVuSans-101"/>
      </defs>
      <use xlink:href="#DejaVuSans-68"/>
      <use x="77.001953" xlink:href="#DejaVuSans-97"/>
      <use x="138.28125" xlink:href="#DejaVuSans-116"/>
      <use x="177.490234" xlink:href="#DejaVuSans-101"/>
     </g>
    </g>
   </g>
   <g id="matplotlib.axis_2">
    <g id="ytick_1">
     <g id="line2d_17">
      <path clip-path="url(#p40d358d2ec)" d="M 44.66 226.204338 
L 443.728138 226.204338 
" style="fill:none;stroke:#b0b0b0;stroke-linecap:square;stroke-width:0.8;"/>
     </g>
     <g id="line2d_18">
      <defs>
       <path d="M 0 0 
L -3.5 0 
" id="m509f68acea" style="stroke:#000000;stroke-width:0.8;"/>
      </defs>
      <g>
       <use style="stroke:#000000;stroke-width:0.8;" x="44.66" xlink:href="#m509f68acea" y="226.204338"/>
      </g>
     </g>
     <g id="text_10">
      <!-- 55 -->
      <g transform="translate(24.935 230.003557)scale(0.1 -0.1)">
       <use xlink:href="#DejaVuSans-53"/>
       <use x="63.623047" xlink:href="#DejaVuSans-53"/>
      </g>
     </g>
    </g>
    <g id="ytick_2">
     <g id="line2d_19">
      <path clip-path="url(#p40d358d2ec)" d="M 44.66 196.562475 
L 443.728138 196.562475 
" style="fill:none;stroke:#b0b0b0;stroke-linecap:square;stroke-width:0.8;"/>
     </g>
     <g id="line2d_20">
      <g>
       <use style="stroke:#000000;stroke-width:0.8;" x="44.66" xlink:href="#m509f68acea" y="196.562475"/>
      </g>
     </g>
     <g id="text_11">
      <!-- 60 -->
      <g transform="translate(24.935 200.361694)scale(0.1 -0.1)">
       <defs>
        <path d="M 33.015625 40.375 
Q 26.375 40.375 22.484375 35.828125 
Q 18.609375 31.296875 18.609375 23.390625 
Q 18.609375 15.53125 22.484375 10.953125 
Q 26.375 6.390625 33.015625 6.390625 
Q 39.65625 6.390625 43.53125 10.953125 
Q 47.40625 15.53125 47.40625 23.390625 
Q 47.40625 31.296875 43.53125 35.828125 
Q 39.65625 40.375 33.015625 40.375 
z
M 52.59375 71.296875 
L 52.59375 62.3125 
Q 48.875 64.0625 45.09375 64.984375 
Q 41.3125 65.921875 37.59375 65.921875 
Q 27.828125 65.921875 22.671875 59.328125 
Q 17.53125 52.734375 16.796875 39.40625 
Q 19.671875 43.65625 24.015625 45.921875 
Q 28.375 48.1875 33.59375 48.1875 
Q 44.578125 48.1875 50.953125 41.515625 
Q 57.328125 34.859375 57.328125 23.390625 
Q 57.328125 12.15625 50.6875 5.359375 
Q 44.046875 -1.421875 33.015625 -1.421875 
Q 20.359375 -1.421875 13.671875 8.265625 
Q 6.984375 17.96875 6.984375 36.375 
Q 6.984375 53.65625 15.1875 63.9375 
Q 23.390625 74.21875 37.203125 74.21875 
Q 40.921875 74.21875 44.703125 73.484375 
Q 48.484375 72.75 52.59375 71.296875 
z
" id="DejaVuSans-54"/>
       </defs>
       <use xlink:href="#DejaVuSans-54"/>
       <use x="63.623047" xlink:href="#DejaVuSans-48"/>
      </g>
     </g>
    </g>
    <g id="ytick_3">
     <g id="line2d_21">
      <path clip-path="url(#p40d358d2ec)" d="M 44.66 166.920612 
L 443.728138 166.920612 
" style="fill:none;stroke:#b0b0b0;stroke-linecap:square;stroke-width:0.8;"/>
     </g>
     <g id="line2d_22">
      <g>
       <use style="stroke:#000000;stroke-width:0.8;" x="44.66" xlink:href="#m509f68acea" y="166.920612"/>
      </g>
     </g>
     <g id="text_12">
      <!-- 65 -->
      <g transform="translate(24.935 170.719831)scale(0.1 -0.1)">
       <use xlink:href="#DejaVuSans-54"/>
       <use x="63.623047" xlink:href="#DejaVuSans-53"/>
      </g>
     </g>
    </g>
    <g id="ytick_4">
     <g id="line2d_23">
      <path clip-path="url(#p40d358d2ec)" d="M 44.66 137.278749 
L 443.728138 137.278749 
" style="fill:none;stroke:#b0b0b0;stroke-linecap:square;stroke-width:0.8;"/>
     </g>
     <g id="line2d_24">
      <g>
       <use style="stroke:#000000;stroke-width:0.8;" x="44.66" xlink:href="#m509f68acea" y="137.278749"/>
      </g>
     </g>
     <g id="text_13">
      <!-- 70 -->
      <g transform="translate(24.935 141.077968)scale(0.1 -0.1)">
       <use xlink:href="#DejaVuSans-55"/>
       <use x="63.623047" xlink:href="#DejaVuSans-48"/>
      </g>
     </g>
    </g>
    <g id="ytick_5">
     <g id="line2d_25">
      <path clip-path="url(#p40d358d2ec)" d="M 44.66 107.636886 
L 443.728138 107.636886 
" style="fill:none;stroke:#b0b0b0;stroke-linecap:square;stroke-width:0.8;"/>
     </g>
     <g id="line2d_26">
      <g>
       <use style="stroke:#000000;stroke-width:0.8;" x="44.66" xlink:href="#m509f68acea" y="107.636886"/>
      </g>
     </g>
     <g id="text_14">
      <!-- 75 -->
      <g transform="translate(24.935 111.436105)scale(0.1 -0.1)">
       <use xlink:href="#DejaVuSans-55"/>
       <use x="63.623047" xlink:href="#DejaVuSans-53"/>
      </g>
     </g>
    </g>
    <g id="ytick_6">
     <g id="line2d_27">
      <path clip-path="url(#p40d358d2ec)" d="M 44.66 77.995023 
L 443.728138 77.995023 
" style="fill:none;stroke:#b0b0b0;stroke-linecap:square;stroke-width:0.8;"/>
     </g>
     <g id="line2d_28">
      <g>
       <use style="stroke:#000000;stroke-width:0.8;" x="44.66" xlink:href="#m509f68acea" y="77.995023"/>
      </g>
     </g>
     <g id="text_15">
      <!-- 80 -->
      <g transform="translate(24.935 81.794242)scale(0.1 -0.1)">
       <use xlink:href="#DejaVuSans-56"/>
       <use x="63.623047" xlink:href="#DejaVuSans-48"/>
      </g>
     </g>
    </g>
    <g id="ytick_7">
     <g id="line2d_29">
      <path clip-path="url(#p40d358d2ec)" d="M 44.66 48.35316 
L 443.728138 48.35316 
" style="fill:none;stroke:#b0b0b0;stroke-linecap:square;stroke-width:0.8;"/>
     </g>
     <g id="line2d_30">
      <g>
       <use style="stroke:#000000;stroke-width:0.8;" x="44.66" xlink:href="#m509f68acea" y="48.35316"/>
      </g>
     </g>
     <g id="text_16">
      <!-- 85 -->
      <g transform="translate(24.935 52.152379)scale(0.1 -0.1)">
       <use xlink:href="#DejaVuSans-56"/>
       <use x="63.623047" xlink:href="#DejaVuSans-53"/>
      </g>
     </g>
    </g>
    <g id="text_17">
     <!-- Temperature [F] -->
     <g transform="translate(18.855313 180.575291)rotate(-90)scale(0.1 -0.1)">
      <defs>
       <path d="M -0.296875 72.90625 
L 61.375 72.90625 
L 61.375 64.59375 
L 35.5 64.59375 
L 35.5 0 
L 25.59375 0 
L 25.59375 64.59375 
L -0.296875 64.59375 
z
" id="DejaVuSans-84"/>
       <path d="M 52 44.1875 
Q 55.375 50.25 60.0625 53.125 
Q 64.75 56 71.09375 56 
Q 79.640625 56 84.28125 50.015625 
Q 88.921875 44.046875 88.921875 33.015625 
L 88.921875 0 
L 79.890625 0 
L 79.890625 32.71875 
Q 79.890625 40.578125 77.09375 44.375 
Q 74.3125 48.1875 68.609375 48.1875 
Q 61.625 48.1875 57.5625 43.546875 
Q 53.515625 38.921875 53.515625 30.90625 
L 53.515625 0 
L 44.484375 0 
L 44.484375 32.71875 
Q 44.484375 40.625 41.703125 44.40625 
Q 38.921875 48.1875 33.109375 48.1875 
Q 26.21875 48.1875 22.15625 43.53125 
Q 18.109375 38.875 18.109375 30.90625 
L 18.109375 0 
L 9.078125 0 
L 9.078125 54.6875 
L 18.109375 54.6875 
L 18.109375 46.1875 
Q 21.1875 51.21875 25.484375 53.609375 
Q 29.78125 56 35.6875 56 
Q 41.65625 56 45.828125 52.96875 
Q 50 49.953125 52 44.1875 
z
" id="DejaVuSans-109"/>
       <path d="M 18.109375 8.203125 
L 18.109375 -20.796875 
L 9.078125 -20.796875 
L 9.078125 54.6875 
L 18.109375 54.6875 
L 18.109375 46.390625 
Q 20.953125 51.265625 25.265625 53.625 
Q 29.59375 56 35.59375 56 
Q 45.5625 56 51.78125 48.09375 
Q 58.015625 40.1875 58.015625 27.296875 
Q 58.015625 14.40625 51.78125 6.484375 
Q 45.5625 -1.421875 35.59375 -1.421875 
Q 29.59375 -1.421875 25.265625 0.953125 
Q 20.953125 3.328125 18.109375 8.203125 
z
M 48.6875 27.296875 
Q 48.6875 37.203125 44.609375 42.84375 
Q 40.53125 48.484375 33.40625 48.484375 
Q 26.265625 48.484375 22.1875 42.84375 
Q 18.109375 37.203125 18.109375 27.296875 
Q 18.109375 17.390625 22.1875 11.75 
Q 26.265625 6.109375 33.40625 6.109375 
Q 40.53125 6.109375 44.609375 11.75 
Q 48.6875 17.390625 48.6875 27.296875 
z
" id="DejaVuSans-112"/>
       <path d="M 41.109375 46.296875 
Q 39.59375 47.171875 37.8125 47.578125 
Q 36.03125 48 33.890625 48 
Q 26.265625 48 22.1875 43.046875 
Q 18.109375 38.09375 18.109375 28.8125 
L 18.109375 0 
L 9.078125 0 
L 9.078125 54.6875 
L 18.109375 54.6875 
L 18.109375 46.1875 
Q 20.953125 51.171875 25.484375 53.578125 
Q 30.03125 56 36.53125 56 
Q 37.453125 56 38.578125 55.875 
Q 39.703125 55.765625 41.0625 55.515625 
z
" id="DejaVuSans-114"/>
       <path d="M 8.5 21.578125 
L 8.5 54.6875 
L 17.484375 54.6875 
L 17.484375 21.921875 
Q 17.484375 14.15625 20.5 10.265625 
Q 23.53125 6.390625 29.59375 6.390625 
Q 36.859375 6.390625 41.078125 11.03125 
Q 45.3125 15.671875 45.3125 23.6875 
L 45.3125 54.6875 
L 54.296875 54.6875 
L 54.296875 0 
L 45.3125 0 
L 45.3125 8.40625 
Q 42.046875 3.421875 37.71875 1 
Q 33.40625 -1.421875 27.6875 -1.421875 
Q 18.265625 -1.421875 13.375 4.4375 
Q 8.5 10.296875 8.5 21.578125 
z
M 31.109375 56 
z
" id="DejaVuSans-117"/>
       <path id="DejaVuSans-32"/>
       <path d="M 8.59375 75.984375 
L 29.296875 75.984375 
L 29.296875 69 
L 17.578125 69 
L 17.578125 -6.203125 
L 29.296875 -6.203125 
L 29.296875 -13.1875 
L 8.59375 -13.1875 
z
" id="DejaVuSans-91"/>
       <path d="M 9.8125 72.90625 
L 51.703125 72.90625 
L 51.703125 64.59375 
L 19.671875 64.59375 
L 19.671875 43.109375 
L 48.578125 43.109375 
L 48.578125 34.8125 
L 19.671875 34.8125 
L 19.671875 0 
L 9.8125 0 
z
" id="DejaVuSans-70"/>
       <path d="M 30.421875 75.984375 
L 30.421875 -13.1875 
L 9.71875 -13.1875 
L 9.71875 -6.203125 
L 21.390625 -6.203125 
L 21.390625 69 
L 9.71875 69 
L 9.71875 75.984375 
z
" id="DejaVuSans-93"/>
      </defs>
      <use xlink:href="#DejaVuSans-84"/>
      <use x="44.083984" xlink:href="#DejaVuSans-101"/>
      <use x="105.607422" xlink:href="#DejaVuSans-109"/>
      <use x="203.019531" xlink:href="#DejaVuSans-112"/>
      <use x="266.496094" xlink:href="#DejaVuSans-101"/>
      <use x="328.019531" xlink:href="#DejaVuSans-114"/>
      <use x="369.132812" xlink:href="#DejaVuSans-97"/>
      <use x="430.412109" xlink:href="#DejaVuSans-116"/>
      <use x="469.621094" xlink:href="#DejaVuSans-117"/>
      <use x="533" xlink:href="#DejaVuSans-114"/>
      <use x="571.863281" xlink:href="#DejaVuSans-101"/>
      <use x="633.386719" xlink:href="#DejaVuSans-32"/>
      <use x="665.173828" xlink:href="#DejaVuSans-91"/>
      <use x="704.1875" xlink:href="#DejaVuSans-70"/>
      <use x="761.707031" xlink:href="#DejaVuSans-93"/>
     </g>
    </g>
   </g>
   <g id="line2d_31">
    <path clip-path="url(#p40d358d2ec)" d="M 62.799461 143.799959 
L 62.845106 143.799959 
L 62.974592 143.207122 
L 63.060944 143.207122 
L 63.08252 143.799959 
L 63.126039 142.614284 
L 63.169004 143.207122 
L 63.299256 142.614284 
L 63.321698 142.614284 
L 63.387553 142.021447 
L 63.430809 142.614284 
L 63.475684 142.614284 
L 63.518876 143.207122 
L 63.563078 142.021447 
L 63.585367 142.021447 
L 63.606906 143.207122 
L 63.694652 142.021447 
L 63.826124 140.242935 
L 63.847618 140.242935 
L 63.869678 140.835773 
L 63.956805 140.242935 
L 64.000189 140.242935 
L 64.110789 139.650098 
L 64.197397 140.835773 
L 64.218849 139.650098 
L 64.241359 139.650098 
L 64.373472 140.242935 
L 64.416788 140.242935 
L 64.548685 140.835773 
L 64.57093 140.835773 
L 64.725274 139.057261 
L 64.791618 140.242935 
L 64.836138 139.057261 
L 64.903009 139.057261 
L 64.925585 138.464424 
L 64.990769 139.650098 
L 65.159998 138.464424 
L 65.31621 140.835773 
L 65.360944 140.242935 
L 65.406715 140.835773 
L 65.455261 140.835773 
L 65.476857 142.021447 
L 65.564075 140.835773 
L 65.585873 140.835773 
L 65.674179 140.242935 
L 65.695977 140.835773 
L 65.718479 140.835773 
L 65.783816 140.242935 
L 65.80638 140.835773 
L 65.851158 140.242935 
L 65.916301 142.021447 
L 65.941095 142.021447 
L 66.027252 140.242935 
L 66.070807 140.835773 
L 66.158452 143.207122 
L 66.181581 142.021447 
L 66.203042 140.835773 
L 66.24691 144.392796 
L 66.291305 142.021447 
L 66.312737 142.614284 
L 66.334914 140.242935 
L 66.357335 142.021447 
L 66.382083 140.242935 
L 66.403937 143.207122 
L 66.425416 142.021447 
L 66.470443 144.392796 
L 66.537281 143.799959 
L 66.669117 144.985633 
L 66.69316 144.985633 
L 66.715406 144.392796 
L 66.802488 144.985633 
L 66.956354 144.985633 
L 67.044031 145.578471 
L 67.066612 144.985633 
L 67.110407 144.985633 
L 67.19729 144.392796 
L 67.24167 145.578471 
L 67.26502 145.578471 
L 67.330655 143.207122 
L 67.353259 144.985633 
L 67.375873 146.764145 
L 67.463833 145.578471 
L 67.486117 145.578471 
L 67.662579 143.799959 
L 67.684067 143.799959 
L 67.816706 144.985633 
L 67.838426 143.207122 
L 67.882453 145.578471 
L 67.926425 144.392796 
L 67.949486 144.392796 
L 68.057944 145.578471 
L 68.079877 144.392796 
L 68.167261 144.985633 
L 68.233188 144.985633 
L 68.34535 145.578471 
L 68.479607 144.392796 
L 68.632059 145.578471 
L 68.894518 145.578471 
L 69.026513 146.764145 
L 69.382072 146.764145 
L 69.471448 147.356982 
L 69.580509 146.764145 
L 69.711631 147.356982 
L 70.04036 147.356982 
L 70.062164 147.94982 
L 70.083751 147.356982 
L 125.35269 147.94982 
L 125.375015 147.356982 
L 125.636569 145.578471 
L 125.749746 147.356982 
L 125.771886 145.578471 
L 125.862628 146.764145 
L 125.884877 146.764145 
L 125.996513 143.207122 
L 126.018011 144.985633 
L 126.068695 144.985633 
L 126.234115 146.764145 
L 126.304606 146.764145 
L 126.326073 147.356982 
L 126.348544 145.578471 
L 126.393165 146.764145 
L 126.50946 140.242935 
L 126.664298 145.578471 
L 126.68904 144.392796 
L 126.755345 145.578471 
L 126.776841 145.578471 
L 126.80969 146.764145 
L 126.853594 145.578471 
L 126.880342 144.985633 
L 126.950351 145.578471 
L 126.971833 145.578471 
L 127.083517 139.650098 
L 127.192449 145.578471 
L 127.279674 139.057261 
L 127.345896 140.242935 
L 127.432588 144.985633 
L 127.486816 146.764145 
L 127.529742 144.392796 
L 127.565579 144.985633 
L 127.633065 144.392796 
L 127.655301 144.392796 
L 127.678034 143.799959 
L 127.699608 144.392796 
L 127.788168 146.764145 
L 127.831471 145.578471 
L 127.858434 145.578471 
L 127.997746 139.650098 
L 128.01919 142.614284 
L 128.144626 146.764145 
L 128.190015 144.985633 
L 128.212274 144.392796 
L 128.255146 145.578471 
L 128.276967 145.578471 
L 128.299685 146.764145 
L 128.321098 144.985633 
L 128.343385 145.578471 
L 128.431634 145.578471 
L 128.45397 144.392796 
L 128.500386 145.578471 
L 128.522824 147.356982 
L 128.566761 144.985633 
L 128.588538 144.985633 
L 128.609944 144.985633 
L 128.632556 145.578471 
L 128.655909 142.021447 
L 128.746895 144.985633 
L 128.769041 144.985633 
L 128.813781 143.207122 
L 128.87885 144.392796 
L 128.922619 144.392796 
L 128.94472 144.985633 
L 129.015684 144.392796 
L 129.05853 144.392796 
L 129.124026 143.799959 
L 129.188632 144.985633 
L 129.210049 144.392796 
L 129.276116 144.985633 
L 129.407152 146.764145 
L 129.428598 145.578471 
L 129.493479 146.764145 
L 129.625358 147.356982 
L 129.887773 147.356982 
L 129.95389 147.94982 
L 129.997691 147.356982 
L 130.196194 147.356982 
L 130.217837 144.985633 
L 130.304649 146.764145 
L 130.326778 146.764145 
L 130.461341 147.356982 
L 130.483436 147.356982 
L 130.505309 146.764145 
L 130.591797 147.356982 
L 130.725024 147.94982 
L 131.170145 147.94982 
L 131.193489 148.542657 
L 131.242945 147.356982 
L 131.267235 147.94982 
L 131.380765 147.356982 
L 131.561886 147.356982 
L 131.672331 146.764145 
L 132.002999 146.764145 
L 132.024464 147.356982 
L 132.113523 146.764145 
L 132.266713 146.764145 
L 132.333889 147.356982 
L 132.376821 146.764145 
L 132.506355 146.764145 
L 132.571446 147.356982 
L 132.614785 146.764145 
L 132.637621 146.764145 
L 132.768365 147.356982 
L 132.897578 146.764145 
L 132.961941 147.356982 
L 132.984117 146.764145 
L 133.271388 146.764145 
L 219.682213 130.164702 
L 219.836525 131.350376 
L 219.858154 130.164702 
L 219.902918 131.350376 
L 219.973343 131.350376 
L 219.99565 130.164702 
L 220.066198 131.350376 
L 220.241746 131.350376 
L 220.286058 131.943214 
L 220.329865 131.350376 
L 220.443636 131.350376 
L 220.561746 131.943214 
L 220.693916 131.350376 
L 220.823944 131.943214 
L 220.942848 131.350376 
L 221.063434 131.943214 
L 221.45791 131.943214 
L 221.56588 132.536051 
L 221.697657 131.943214 
L 221.721855 132.536051 
L 221.78793 131.943214 
L 221.834334 131.943214 
L 221.964355 132.536051 
L 222.339199 132.536051 
L 222.360867 133.128888 
L 222.447622 132.536051 
L 222.494488 132.536051 
L 222.518464 133.128888 
L 222.593897 132.536051 
L 222.773419 132.536051 
L 222.907023 133.128888 
L 223.796201 133.128888 
L 223.818725 133.721726 
L 223.863468 133.128888 
L 224.062899 133.128888 
L 224.153501 133.721726 
L 224.264829 133.128888 
L 224.39587 133.721726 
L 224.667244 133.721726 
L 224.77074 134.314563 
L 224.901372 133.721726 
L 225.497786 133.721726 
L 225.519186 133.128888 
L 225.608386 133.721726 
L 225.719827 133.721726 
L 225.852248 133.128888 
L 225.873735 133.128888 
L 225.983677 133.721726 
L 226.29305 133.721726 
L 226.314476 134.314563 
L 226.40031 133.721726 
L 226.770686 133.721726 
L 226.792756 133.128888 
L 226.880344 133.721726 
L 226.901708 133.721726 
L 226.9305 133.128888 
L 227.000071 133.721726 
L 227.174306 133.721726 
L 227.196411 133.128888 
L 227.284927 133.721726 
L 227.946927 133.721726 
L 228.07897 134.314563 
L 228.16985 133.721726 
L 228.266209 134.314563 
L 228.376964 133.721726 
L 228.464382 134.314563 
L 228.486092 133.721726 
L 228.50945 133.721726 
L 228.531005 134.314563 
L 228.618145 133.721726 
L 228.662735 133.721726 
L 228.793388 134.314563 
L 229.134978 134.314563 
L 229.156661 134.9074 
L 229.243774 134.314563 
L 229.468361 134.314563 
L 229.535367 134.9074 
L 229.558064 134.314563 
L 229.602094 134.314563 
L 229.667908 134.9074 
L 229.712689 134.314563 
L 229.736355 134.314563 
L 229.850114 134.9074 
L 229.873332 134.314563 
L 229.945095 134.9074 
L 230.606513 134.9074 
L 230.719278 136.093075 
L 230.830824 134.9074 
L 231.056232 134.9074 
L 231.099644 136.093075 
L 231.167204 134.9074 
L 231.326956 134.9074 
L 231.458647 136.093075 
L 231.589226 134.9074 
L 231.612458 134.9074 
L 231.723054 136.093075 
L 231.835231 134.9074 
L 231.967507 136.093075 
L 231.989787 134.9074 
L 232.078416 136.093075 
L 232.674296 136.093075 
L 232.742318 136.685912 
L 232.764117 136.093075 
L 232.878639 136.093075 
L 232.901149 136.685912 
L 232.922921 136.093075 
L 233.162128 136.093075 
L 233.251083 136.685912 
L 233.272672 136.093075 
L 233.316732 136.093075 
L 233.427419 136.685912 
L 234.159254 136.685912 
L 234.291773 137.278749 
L 234.335841 137.278749 
L 234.379145 136.685912 
L 234.443914 137.278749 
L 234.904322 137.278749 
L 234.993537 136.685912 
L 235.015256 137.278749 
L 235.986221 137.278749 
L 236.007752 137.871586 
L 236.079618 137.278749 
L 236.832566 137.278749 
L 236.924717 137.871586 
L 236.991584 137.278749 
L 237.021323 137.871586 
L 237.696284 137.871586 
L 237.717786 137.278749 
L 237.785269 137.871586 
L 237.875219 137.871586 
L 237.940922 137.278749 
L 237.986291 137.871586 
L 238.052915 137.871586 
L 238.186827 137.278749 
L 238.252235 137.278749 
L 238.273654 137.871586 
L 238.362092 137.278749 
L 238.384616 137.278749 
L 238.475412 137.871586 
L 238.607491 137.278749 
L 238.738404 137.278749 
L 238.830593 137.871586 
L 238.94227 137.278749 
L 239.619899 137.278749 
L 239.752182 136.685912 
L 239.908476 136.685912 
L 239.953157 136.093075 
L 239.997846 136.685912 
L 240.109819 136.685912 
L 240.159451 136.093075 
L 240.204472 136.685912 
L 240.226128 136.685912 
L 240.249 136.093075 
L 240.336676 136.685912 
L 240.91797 136.685912 
L 241.050249 136.093075 
L 241.079054 136.093075 
L 241.100697 136.685912 
L 241.187836 136.093075 
L 241.233321 136.093075 
L 241.365348 134.9074 
L 241.544517 134.9074 
L 241.587867 134.314563 
L 241.653962 134.9074 
L 242.13838 134.9074 
L 242.203744 134.314563 
L 242.249248 134.9074 
L 242.33589 134.9074 
L 242.467444 134.314563 
L 242.488898 134.314563 
L 242.619858 133.721726 
L 242.750283 134.314563 
L 242.771734 134.314563 
L 242.881019 133.721726 
L 242.947498 134.314563 
L 242.974999 133.721726 
L 243.112091 133.721726 
L 243.245369 134.314563 
L 243.335454 133.721726 
L 243.448897 134.314563 
L 243.519281 134.314563 
L 243.540788 133.721726 
L 243.628657 134.314563 
L 243.897363 134.314563 
L 243.985829 133.721726 
L 244.030184 134.314563 
L 244.074461 133.721726 
L 244.121189 133.721726 
L 244.234189 134.314563 
L 244.325712 133.721726 
L 244.392945 134.314563 
L 244.41739 133.721726 
L 244.530357 133.721726 
L 244.641409 134.314563 
L 244.75347 133.721726 
L 244.888536 133.721726 
L 244.912855 134.314563 
L 244.986455 133.721726 
L 245.056117 133.721726 
L 245.078154 134.314563 
L 245.145878 133.721726 
L 245.29441 133.721726 
L 245.31586 132.536051 
L 245.403181 133.128888 
L 245.424713 133.128888 
L 245.556902 133.721726 
L 245.600279 133.721726 
L 245.643606 134.314563 
L 245.687738 133.721726 
L 245.81936 133.128888 
L 245.840837 133.128888 
L 245.862331 133.721726 
L 245.951611 133.128888 
L 246.063664 133.721726 
L 246.288881 133.721726 
L 246.310428 134.314563 
L 246.377588 133.128888 
L 246.400034 133.721726 
L 246.422541 133.128888 
L 246.488954 133.721726 
L 246.80043 133.721726 
L 246.932382 134.314563 
L 246.954843 133.721726 
L 247.041114 134.314563 
L 247.260912 134.314563 
L 247.349272 133.721726 
L 247.494954 134.314563 
L 247.715513 134.314563 
L 247.779905 134.9074 
L 247.823105 134.314563 
L 247.956538 134.314563 
L 247.97937 133.721726 
L 248.065974 134.314563 
L 248.289332 134.314563 
L 248.311522 134.9074 
L 248.398889 134.314563 
L 248.653781 134.314563 
L 248.742911 134.9074 
L 248.831668 134.314563 
L 248.965503 134.9074 
L 249.27788 134.9074 
L 249.321843 134.314563 
L 249.36828 134.9074 
L 249.433542 134.9074 
L 249.456405 134.314563 
L 249.543984 134.9074 
L 250.107514 134.9074 
L 250.129849 136.093075 
L 250.205072 134.9074 
L 250.227392 134.9074 
L 250.350205 136.093075 
L 250.371747 136.093075 
L 250.483049 134.9074 
L 250.614565 136.093075 
L 250.710593 136.093075 
L 250.800427 134.9074 
L 250.951381 136.093075 
L 251.463924 136.093075 
L 251.543693 136.685912 
L 251.565648 136.093075 
L 251.588215 136.093075 
L 251.721965 136.685912 
L 251.745214 136.685912 
L 251.810793 136.093075 
L 251.838776 136.685912 
L 252.462496 136.685912 
L 252.483925 137.278749 
L 252.571444 136.685912 
L 252.903565 136.685912 
L 253.01313 137.278749 
L 253.079795 136.685912 
L 253.124172 137.278749 
L 253.146693 137.278749 
L 253.237091 136.685912 
L 253.3757 137.278749 
L 254.560423 137.278749 
L 254.584453 137.871586 
L 254.655143 137.278749 
L 254.700792 137.278749 
L 254.745587 137.871586 
L 254.791109 137.278749 
L 254.815717 137.278749 
L 254.906341 137.871586 
L 254.928669 137.278749 
L 255.017469 137.871586 
L 255.215664 137.871586 
L 255.238573 137.278749 
L 255.326544 137.871586 
L 255.36975 137.871586 
L 255.391199 137.278749 
L 255.480113 137.871586 
L 255.612816 137.871586 
L 255.636045 138.464424 
L 255.723392 137.871586 
L 256.284914 137.871586 
L 256.307373 137.278749 
L 256.376325 137.871586 
L 257.361756 137.871586 
L 257.383869 138.464424 
L 257.452638 137.871586 
L 257.770441 137.871586 
L 257.84476 138.464424 
L 257.867005 137.871586 
L 257.977553 137.871586 
L 258.089723 138.464424 
L 258.339307 138.464424 
L 258.36113 137.871586 
L 258.428701 138.464424 
L 258.696963 138.464424 
L 258.720824 137.871586 
L 258.80757 138.464424 
L 259.800037 138.464424 
L 259.824134 139.057261 
L 259.889007 138.464424 
L 259.955559 138.464424 
L 259.978352 139.057261 
L 260.048027 138.464424 
L 260.178317 138.464424 
L 260.264745 139.057261 
L 260.358118 138.464424 
L 260.447956 139.057261 
L 260.57807 138.464424 
L 260.68832 139.057261 
L 260.733721 139.057261 
L 260.75644 138.464424 
L 260.822067 139.057261 
L 260.867902 139.057261 
L 260.956383 138.464424 
L 260.978844 139.057261 
L 261.044874 139.057261 
L 261.066356 138.464424 
L 261.134055 139.057261 
L 261.288798 139.057261 
L 261.311904 138.464424 
L 261.398763 139.057261 
L 262.947356 139.057261 
L 262.969792 139.650098 
L 263.056956 139.057261 
L 263.146054 139.057261 
L 263.167617 139.650098 
L 263.255712 139.057261 
L 263.277258 139.057261 
L 263.385717 139.650098 
L 263.49857 139.057261 
L 263.521989 139.057261 
L 263.634916 139.650098 
L 263.658064 139.650098 
L 263.74541 139.057261 
L 263.767253 139.650098 
L 264.427676 139.650098 
L 264.449469 140.242935 
L 264.536917 139.650098 
L 264.756997 139.650098 
L 264.82639 140.242935 
L 264.850872 139.650098 
L 264.962102 139.650098 
L 265.079126 140.242935 
L 265.1465 139.650098 
L 265.168732 140.242935 
L 265.191059 140.242935 
L 265.286514 139.650098 
L 265.308986 140.242935 
L 265.380742 139.650098 
L 265.446403 139.650098 
L 265.469748 140.242935 
L 265.57553 139.650098 
L 266.771042 139.650098 
L 266.843015 139.057261 
L 266.866682 139.650098 
L 266.931027 139.650098 
L 267.027933 139.057261 
L 267.070899 139.650098 
L 267.136079 139.057261 
L 267.707242 139.057261 
L 267.805365 138.464424 
L 267.921246 139.057261 
L 268.05977 137.871586 
L 268.082789 138.464424 
L 268.150495 137.871586 
L 268.283372 137.871586 
L 268.416957 137.278749 
L 268.508432 137.278749 
L 268.536703 136.685912 
L 268.601292 137.278749 
L 268.669678 137.278749 
L 268.740092 137.871586 
L 268.761524 137.278749 
L 268.810424 137.278749 
L 268.896677 137.871586 
L 268.918197 137.278749 
L 269.005379 137.278749 
L 269.135304 136.685912 
L 269.156758 136.685912 
L 269.286106 137.278749 
L 269.415591 136.685912 
L 269.437482 137.278749 
L 269.509169 136.685912 
L 269.530663 136.685912 
L 269.639627 137.278749 
L 269.66125 136.685912 
L 269.747351 137.278749 
L 270.014799 137.278749 
L 270.100708 136.685912 
L 270.122138 137.278749 
L 270.143842 137.278749 
L 270.169713 136.685912 
L 270.243629 137.278749 
L 270.329476 137.278749 
L 270.351031 136.685912 
L 270.436838 137.278749 
L 270.547574 137.278749 
L 270.656539 136.685912 
L 270.768749 137.278749 
L 270.898433 136.685912 
L 271.204671 136.685912 
L 271.284136 137.278749 
L 271.311534 136.685912 
L 271.983763 136.685912 
L 272.063237 136.093075 
L 272.313631 136.093075 
L 272.335416 136.685912 
L 272.371518 136.093075 
L 272.948201 136.093075 
L 273.025493 136.685912 
L 273.050088 136.093075 
L 273.340339 136.093075 
L 273.374158 136.685912 
L 273.399334 134.9074 
L 273.477329 136.093075 
L 273.531626 136.093075 
L 273.658579 134.9074 
L 274.120234 134.9074 
L 274.318707 133.721726 
L 274.341143 134.314563 
L 275.060959 134.314563 
L 275.089222 133.721726 
L 275.167256 134.314563 
L 275.258321 134.314563 
L 275.378498 133.721726 
L 275.54358 133.721726 
L 275.5652 134.314563 
L 275.637359 133.721726 
L 275.683444 133.721726 
L 275.778743 133.128888 
L 275.849685 133.721726 
L 275.874975 133.128888 
L 276.028995 133.128888 
L 276.148041 133.721726 
L 276.244138 133.721726 
L 276.266516 134.314563 
L 276.338925 133.721726 
L 276.476977 133.721726 
L 276.596825 133.128888 
L 276.657162 133.721726 
L 276.691751 133.128888 
L 276.719008 133.128888 
L 276.809591 132.536051 
L 276.831855 133.128888 
L 276.903977 132.536051 
L 276.974393 132.536051 
L 277.164271 131.943214 
L 277.270674 132.536051 
L 277.384661 131.943214 
L 277.406879 131.943214 
L 277.431765 132.536051 
L 277.671345 132.536051 
L 277.700721 133.128888 
L 277.763122 132.536051 
L 277.888662 132.536051 
L 278.00395 133.128888 
L 278.432855 133.128888 
L 278.555834 132.536051 
L 278.675647 132.536051 
L 278.77652 133.128888 
L 278.905397 132.536051 
L 278.953571 132.536051 
L 279.081002 133.128888 
L 279.22363 133.128888 
L 279.258678 133.721726 
L 279.332775 133.128888 
L 279.403511 133.721726 
L 279.428425 133.128888 
L 279.492829 133.128888 
L 279.642547 133.721726 
L 279.745063 133.721726 
L 279.846024 134.314563 
L 279.911321 133.721726 
L 279.948902 134.9074 
L 280.004107 134.314563 
L 280.171062 134.314563 
L 280.291283 134.9074 
L 280.316942 134.314563 
L 280.390954 134.9074 
L 280.581883 134.9074 
L 280.701121 136.093075 
L 281.102959 136.093075 
L 281.224209 136.685912 
L 281.249834 136.093075 
L 281.324966 136.685912 
L 281.695055 136.685912 
L 281.787794 137.278749 
L 281.884715 136.685912 
L 281.929019 137.278749 
L 281.999474 136.685912 
L 282.021912 137.278749 
L 282.073104 137.278749 
L 282.120201 136.685912 
L 282.173633 137.278749 
L 282.642886 137.278749 
L 282.755365 137.871586 
L 283.309145 137.871586 
L 283.374431 138.464424 
L 283.402784 137.871586 
L 283.679462 137.871586 
L 283.787711 138.464424 
L 283.899998 137.871586 
L 283.944804 137.871586 
L 284.055523 138.464424 
L 284.120586 137.871586 
L 284.16543 138.464424 
L 284.815915 138.464424 
L 284.945906 139.057261 
L 284.988808 139.057261 
L 285.09736 138.464424 
L 285.228621 139.057261 
L 285.754524 139.057261 
L 285.885902 139.650098 
L 285.908022 139.650098 
L 285.930117 139.057261 
L 286.015878 139.650098 
L 286.144761 139.650098 
L 286.274311 140.242935 
L 286.296836 139.650098 
L 286.384327 140.242935 
L 286.513286 140.242935 
L 286.604764 140.835773 
L 286.73673 140.242935 
L 287.253821 140.242935 
L 287.275981 139.650098 
L 287.361782 140.242935 
L 287.578182 140.242935 
L 287.600457 140.835773 
L 287.673839 140.242935 
L 287.87329 140.242935 
L 287.895837 140.835773 
L 287.983656 140.242935 
L 288.57708 140.242935 
L 288.707232 140.835773 
L 288.729383 140.835773 
L 288.860908 140.242935 
L 288.883932 140.242935 
L 288.996536 140.835773 
L 290.134622 140.835773 
L 290.242354 142.021447 
L 290.374032 140.835773 
L 290.396726 140.835773 
L 290.526283 142.021447 
L 290.590446 140.835773 
L 290.634295 142.021447 
L 291.582813 142.021447 
L 291.695614 142.614284 
L 291.807677 142.021447 
L 292.091082 142.021447 
L 292.133923 142.614284 
L 292.199638 142.021447 
L 292.330659 142.021447 
L 292.352179 142.614284 
L 292.440436 142.021447 
L 292.66104 142.021447 
L 292.682417 142.614284 
L 292.768541 142.021447 
L 292.834057 142.021447 
L 292.855566 142.614284 
L 292.941405 142.021447 
L 292.965626 142.021447 
L 293.097468 142.614284 
L 293.120022 142.614284 
L 293.228558 142.021447 
L 293.359708 142.614284 
L 293.580122 142.614284 
L 293.602232 142.021447 
L 293.689284 142.614284 
L 294.01815 142.614284 
L 294.127501 143.207122 
L 294.260206 142.614284 
L 294.773619 142.614284 
L 294.839833 143.207122 
L 294.884067 142.614284 
L 294.952253 142.614284 
L 295.059753 143.207122 
L 295.171798 142.614284 
L 295.193257 143.207122 
L 295.28297 142.614284 
L 296.485568 142.614284 
L 296.5521 142.021447 
L 296.573687 142.614284 
L 296.598051 142.614284 
L 296.621052 142.021447 
L 296.707517 142.614284 
L 296.837891 142.614284 
L 296.926097 142.021447 
L 296.948621 142.614284 
L 296.993282 142.614284 
L 297.104013 142.021447 
L 297.148595 142.614284 
L 297.213996 142.021447 
L 297.235583 142.021447 
L 297.257021 142.614284 
L 297.346037 142.021447 
L 297.637263 142.021447 
L 297.770755 140.835773 
L 298.050272 140.835773 
L 298.072598 140.242935 
L 298.140337 140.835773 
L 298.206229 140.835773 
L 298.315262 140.242935 
L 298.516047 140.242935 
L 298.63268 139.650098 
L 298.657012 139.650098 
L 298.679191 140.242935 
L 298.765598 139.650098 
L 298.896986 139.650098 
L 299.009416 139.057261 
L 299.190958 139.057261 
L 299.304962 138.464424 
L 299.393594 138.464424 
L 299.515031 137.871586 
L 299.80288 137.871586 
L 299.824433 137.278749 
L 299.891502 137.871586 
L 299.97065 137.871586 
L 300.098446 137.278749 
L 300.213666 137.278749 
L 300.262895 136.685912 
L 300.285148 137.278749 
L 300.414339 137.871586 
L 300.547046 136.685912 
L 300.687821 137.871586 
L 300.760502 137.871586 
L 300.781886 138.464424 
L 300.806747 137.871586 
L 300.902394 137.871586 
L 301.022716 137.278749 
L 301.045016 137.278749 
L 301.066452 136.685912 
L 301.110111 138.464424 
L 301.132621 137.871586 
L 301.25051 138.464424 
L 301.317757 137.871586 
L 301.339195 138.464424 
L 301.405567 138.464424 
L 301.51877 137.871586 
L 301.56325 137.871586 
L 301.681382 138.464424 
L 301.769934 138.464424 
L 301.901729 137.871586 
L 301.946427 137.871586 
L 301.992303 137.278749 
L 302.065991 138.464424 
L 302.181332 137.871586 
L 302.203258 137.871586 
L 302.29645 133.128888 
L 302.319042 130.164702 
L 302.364713 134.314563 
L 302.386418 133.721726 
L 302.653311 137.871586 
L 302.721849 137.871586 
L 302.832992 138.464424 
L 302.966464 137.871586 
L 303.282931 137.871586 
L 303.305156 138.464424 
L 303.392763 137.871586 
L 303.48116 137.871586 
L 303.504943 138.464424 
L 303.550733 137.871586 
L 303.617587 136.685912 
L 303.640266 137.278749 
L 303.77244 137.871586 
L 303.794549 137.871586 
L 303.947893 136.685912 
L 304.061167 136.685912 
L 304.111813 136.093075 
L 304.134045 137.278749 
L 304.199306 137.278749 
L 304.22189 137.871586 
L 304.270183 136.685912 
L 304.364143 136.685912 
L 304.409511 134.314563 
L 304.43228 134.9074 
L 304.512698 136.093075 
L 304.785677 134.9074 
L 304.912811 136.093075 
L 305.027389 129.571865 
L 305.100736 131.350376 
L 305.277306 134.9074 
L 305.415407 134.9074 
L 305.480342 134.314563 
L 305.513699 134.9074 
L 305.544053 134.9074 
L 305.65883 136.093075 
L 305.713012 134.9074 
L 305.762772 136.093075 
L 305.87436 134.314563 
L 305.946071 136.093075 
L 306.01198 136.093075 
L 306.14692 137.278749 
L 306.205226 136.093075 
L 306.230987 137.278749 
L 306.361573 137.871586 
L 306.424671 136.685912 
L 306.449694 137.278749 
L 306.477054 137.871586 
L 306.499243 136.685912 
L 306.730212 134.314563 
L 306.756897 134.314563 
L 306.778399 133.721726 
L 306.80703 134.9074 
L 306.863263 134.314563 
L 306.914638 133.721726 
L 307.040263 136.093075 
L 307.127148 136.093075 
L 307.212206 134.9074 
L 307.326994 136.093075 
L 307.455097 134.9074 
L 307.572289 136.093075 
L 307.667714 136.093075 
L 307.71308 134.9074 
L 307.762033 136.093075 
L 307.860641 136.093075 
L 307.966969 136.685912 
L 308.427305 136.685912 
L 308.460872 136.093075 
L 308.530719 136.685912 
L 308.581271 136.685912 
L 308.695509 137.278749 
L 308.809851 136.685912 
L 308.855171 136.685912 
L 308.983085 137.278749 
L 309.100363 137.278749 
L 309.122193 137.871586 
L 309.203955 137.278749 
L 309.271486 136.685912 
L 309.294777 137.278749 
L 309.349831 137.278749 
L 309.512688 136.685912 
L 309.648952 136.685912 
L 309.776743 137.278749 
L 310.089302 137.278749 
L 310.207543 137.871586 
L 310.37545 137.871586 
L 310.404279 138.464424 
L 310.47555 137.871586 
L 310.503954 137.871586 
L 310.621354 138.464424 
L 310.644391 137.871586 
L 310.715136 138.464424 
L 310.892864 138.464424 
L 311.007978 137.871586 
L 311.030312 137.871586 
L 311.076528 138.464424 
L 311.121303 137.871586 
L 311.187853 137.871586 
L 311.315453 138.464424 
L 312.029917 138.464424 
L 312.150248 137.871586 
L 312.648333 137.871586 
L 312.669795 138.464424 
L 312.738853 137.871586 
L 313.078233 137.871586 
L 313.190607 138.464424 
L 313.26949 138.464424 
L 313.290893 137.871586 
L 313.367863 138.464424 
L 313.461297 138.464424 
L 313.485907 137.871586 
L 313.551446 138.464424 
L 313.836422 138.464424 
L 313.858556 139.057261 
L 313.947457 138.464424 
L 314.208265 138.464424 
L 314.345155 137.871586 
L 314.389603 137.871586 
L 314.501109 138.464424 
L 314.612842 137.871586 
L 314.634674 137.871586 
L 314.756763 138.464424 
L 314.872163 137.871586 
L 315.008813 137.871586 
L 315.123808 138.464424 
L 315.195905 137.871586 
L 315.217863 138.464424 
L 315.240949 138.464424 
L 315.330721 137.871586 
L 315.44301 138.464424 
L 315.516845 138.464424 
L 315.541239 137.871586 
L 315.606865 138.464424 
L 315.674093 138.464424 
L 315.696564 137.871586 
L 315.761994 138.464424 
L 316.095613 138.464424 
L 316.227891 139.057261 
L 316.250515 139.057261 
L 316.382514 138.464424 
L 316.451763 138.464424 
L 316.584716 139.057261 
L 316.702294 138.464424 
L 316.811988 139.057261 
L 316.922112 138.464424 
L 317.053601 139.057261 
L 317.673216 139.057261 
L 317.803256 139.650098 
L 317.824883 139.650098 
L 317.93553 139.057261 
L 318.06831 139.650098 
L 319.188581 139.650098 
L 319.210065 140.242935 
L 319.297475 139.650098 
L 319.606548 139.650098 
L 319.651624 140.242935 
L 319.717051 139.650098 
L 319.981122 139.650098 
L 320.067324 140.242935 
L 320.088757 139.650098 
L 320.133008 139.650098 
L 320.220882 140.242935 
L 320.354839 139.650098 
L 320.444038 140.242935 
L 320.533208 139.650098 
L 320.665947 140.242935 
L 320.760036 140.242935 
L 320.869019 139.650098 
L 320.999053 140.242935 
L 322.275057 140.242935 
L 322.406796 140.835773 
L 322.471105 140.242935 
L 322.514271 140.835773 
L 322.621966 140.835773 
L 322.729949 140.242935 
L 322.859115 140.835773 
L 322.923338 140.835773 
L 323.010303 142.021447 
L 323.031783 140.835773 
L 323.659847 140.835773 
L 323.789573 142.021447 
L 324.464097 142.021447 
L 324.533312 140.835773 
L 324.556492 142.021447 
L 324.578058 142.021447 
L 324.672528 140.835773 
L 324.78166 142.021447 
L 324.907347 140.835773 
L 324.930034 140.835773 
L 324.952074 142.021447 
L 325.022885 140.835773 
L 325.138304 140.835773 
L 325.162265 142.021447 
L 325.230149 140.835773 
L 325.275359 140.835773 
L 325.405424 142.021447 
L 325.517495 140.835773 
L 325.561936 140.835773 
L 325.694304 142.021447 
L 325.827308 140.835773 
L 326.041213 140.835773 
L 326.173052 140.242935 
L 326.3518 140.242935 
L 326.480615 139.650098 
L 326.503014 139.650098 
L 326.524704 140.242935 
L 326.611404 139.650098 
L 326.725621 139.650098 
L 326.749792 140.242935 
L 326.81839 139.650098 
L 326.886186 139.650098 
L 326.908506 139.057261 
L 326.995441 139.650098 
L 327.152812 139.650098 
L 327.17457 139.057261 
L 327.262373 139.650098 
L 327.28484 139.650098 
L 327.400268 139.057261 
L 327.511936 139.057261 
L 327.645991 138.464424 
L 327.854313 138.464424 
L 327.986073 137.871586 
L 328.117519 137.871586 
L 328.269672 136.685912 
L 328.356364 136.685912 
L 328.47011 137.278749 
L 328.583577 136.685912 
L 328.653073 136.685912 
L 328.781737 134.314563 
L 328.936692 133.128888 
L 328.961796 133.128888 
L 329.005605 132.536051 
L 329.051785 133.128888 
L 329.208044 133.128888 
L 329.298237 132.536051 
L 329.429507 133.721726 
L 329.658131 128.979027 
L 329.704525 132.536051 
L 329.777151 130.164702 
L 329.798558 130.164702 
L 329.820095 133.128888 
L 329.865026 129.571865 
L 329.88905 130.164702 
L 329.910554 130.164702 
L 330.047652 132.536051 
L 330.158742 131.350376 
L 330.180212 131.943214 
L 330.290716 130.164702 
L 330.432992 132.536051 
L 330.501113 131.943214 
L 330.596319 134.9074 
L 330.620399 134.314563 
L 330.687472 134.9074 
L 330.930748 134.9074 
L 331.045596 131.943214 
L 331.074721 133.721726 
L 331.096278 133.721726 
L 331.117822 134.314563 
L 331.139949 128.38619 
L 331.227499 134.314563 
L 331.251521 133.128888 
L 331.303823 134.9074 
L 331.326212 134.314563 
L 331.347692 134.314563 
L 331.369251 133.721726 
L 331.391503 134.9074 
L 331.457362 134.314563 
L 331.616052 134.314563 
L 331.746425 134.9074 
L 331.90123 134.9074 
L 332.031162 134.314563 
L 332.110446 134.9074 
L 332.132656 134.314563 
L 332.596602 134.314563 
L 332.925415 131.350376 
L 333.033157 133.128888 
L 333.176688 131.350376 
L 333.222375 131.943214 
L 333.291642 131.350376 
L 333.358541 133.128888 
L 333.514816 129.571865 
L 333.629842 133.721726 
L 333.688029 133.128888 
L 333.713368 133.721726 
L 333.764377 132.536051 
L 333.862165 123.643492 
L 334.089908 129.571865 
L 334.124391 128.38619 
L 334.183984 131.943214 
L 334.236598 131.350376 
L 334.264094 129.571865 
L 334.39219 129.571865 
L 334.56225 132.536051 
L 334.62068 128.38619 
L 334.686664 128.979027 
L 334.714341 128.38619 
L 334.840524 130.164702 
L 334.869511 129.571865 
L 335.018738 128.38619 
L 335.137444 131.350376 
L 335.238692 129.571865 
L 335.26303 131.350376 
L 335.288076 128.979027 
L 335.310326 129.571865 
L 335.420705 128.979027 
L 335.445074 127.200516 
L 335.472605 128.38619 
L 335.550351 128.38619 
L 335.7334 130.164702 
L 335.846875 131.350376 
L 335.906408 131.350376 
L 335.93768 129.571865 
L 335.966237 130.164702 
L 336.083375 130.164702 
L 336.132544 129.571865 
L 336.154819 130.164702 
L 336.263982 130.164702 
L 336.288286 129.571865 
L 336.362488 130.164702 
L 336.435423 130.164702 
L 336.556343 129.571865 
L 336.637871 129.571865 
L 336.688771 130.164702 
L 336.712201 129.571865 
L 336.791457 130.164702 
L 336.815235 128.979027 
L 336.843503 131.350376 
L 336.876353 130.164702 
L 336.988959 129.571865 
L 337.077924 130.164702 
L 337.187337 127.793353 
L 337.234382 128.38619 
L 337.474385 131.943214 
L 337.519398 131.943214 
L 337.619543 131.350376 
L 337.713396 132.536051 
L 337.73733 131.943214 
L 337.767225 131.943214 
L 337.889095 132.536051 
L 337.912123 132.536051 
L 337.977384 133.128888 
L 337.999715 131.943214 
L 338.071935 133.128888 
L 338.59183 133.128888 
L 338.66011 131.943214 
L 338.683534 133.128888 
L 338.719049 133.128888 
L 338.775966 132.536051 
L 338.822505 133.128888 
L 338.990516 133.128888 
L 339.085404 131.350376 
L 339.131027 132.536051 
L 339.152829 133.128888 
L 339.200596 131.943214 
L 339.34056 130.164702 
L 339.368467 130.164702 
L 339.439602 131.943214 
L 339.477375 131.350376 
L 339.719713 132.536051 
L 340.176887 132.536051 
L 340.396042 131.350376 
L 340.500676 131.350376 
L 340.635562 129.571865 
L 341.495098 129.571865 
L 341.627313 130.164702 
L 341.650171 129.571865 
L 341.736529 130.164702 
L 342.523789 130.164702 
L 342.546201 131.350376 
L 342.613854 130.164702 
L 342.635287 130.164702 
L 342.702253 131.350376 
L 342.745274 130.164702 
L 342.78943 130.164702 
L 342.921198 131.350376 
L 342.985763 130.164702 
L 343.030457 131.350376 
L 343.079337 130.164702 
L 343.124411 131.350376 
L 343.981185 131.350376 
L 344.092252 131.943214 
L 344.225249 131.350376 
L 344.336694 131.943214 
L 344.466439 131.943214 
L 344.554974 131.350376 
L 344.577183 131.943214 
L 344.79431 131.943214 
L 344.815935 131.350376 
L 344.902468 131.943214 
L 345.30124 131.943214 
L 345.373211 132.536051 
L 345.395377 131.943214 
L 345.461136 131.943214 
L 345.593836 132.536051 
L 346.049393 132.536051 
L 346.070915 133.128888 
L 346.157004 132.536051 
L 346.286753 132.536051 
L 346.394454 133.128888 
L 346.502837 132.536051 
L 346.530668 132.536051 
L 346.638957 133.128888 
L 346.660403 132.536051 
L 346.749974 133.128888 
L 347.231968 133.128888 
L 347.341053 133.721726 
L 347.405695 133.128888 
L 347.482634 133.128888 
L 347.593685 133.721726 
L 347.943613 133.721726 
L 347.965721 133.128888 
L 348.053971 133.721726 
L 348.970181 133.721726 
L 349.100789 134.314563 
L 349.852773 134.314563 
L 349.918636 134.9074 
L 349.961948 134.314563 
L 349.985935 134.314563 
L 350.072962 134.9074 
L 350.09679 134.314563 
L 350.208387 134.9074 
L 350.230202 134.9074 
L 350.297254 134.314563 
L 350.319374 134.9074 
L 350.364213 134.9074 
L 350.386451 134.314563 
L 350.453141 134.9074 
L 350.718989 134.9074 
L 350.740403 134.314563 
L 350.827791 134.9074 
L 351.134084 134.9074 
L 351.158757 136.093075 
L 351.224412 134.9074 
L 351.313755 134.9074 
L 351.427753 136.093075 
L 351.536969 134.9074 
L 351.669133 136.093075 
L 351.867063 136.093075 
L 351.998093 136.685912 
L 352.110808 136.093075 
L 352.15468 136.093075 
L 352.223537 136.685912 
L 352.246073 136.093075 
L 352.336597 136.093075 
L 352.358461 136.685912 
L 352.424989 136.093075 
L 352.720363 136.093075 
L 352.790984 136.685912 
L 352.815137 136.093075 
L 352.928789 136.093075 
L 352.950417 136.685912 
L 353.019263 136.093075 
L 353.043994 136.093075 
L 353.090155 136.685912 
L 353.137243 136.093075 
L 353.246013 136.093075 
L 353.267673 136.685912 
L 353.356067 136.093075 
L 353.3996 136.093075 
L 353.421008 136.685912 
L 353.507598 136.093075 
L 353.529039 136.093075 
L 353.642007 136.685912 
L 354.170246 136.685912 
L 354.192501 136.093075 
L 354.259634 136.685912 
L 354.787764 136.685912 
L 354.899059 137.278749 
L 355.030736 136.685912 
L 356.206901 136.685912 
L 356.280049 136.093075 
L 356.301576 136.685912 
L 356.325644 136.685912 
L 356.41776 136.093075 
L 356.550757 136.685912 
L 356.572921 136.685912 
L 356.686642 136.093075 
L 356.773409 136.093075 
L 356.864396 134.9074 
L 356.907397 136.093075 
L 356.974859 134.9074 
L 357.134955 134.9074 
L 357.245531 134.314563 
L 357.267388 134.9074 
L 357.356098 134.314563 
L 357.624875 134.314563 
L 357.647434 133.721726 
L 357.735994 134.314563 
L 357.802989 134.314563 
L 357.914323 133.721726 
L 358.017129 133.721726 
L 358.125151 133.128888 
L 358.236663 133.128888 
L 358.347172 132.536051 
L 358.612881 132.536051 
L 358.63478 131.943214 
L 358.722693 132.536051 
L 358.868318 132.536051 
L 358.999031 131.943214 
L 359.067457 131.943214 
L 359.202552 129.571865 
L 359.224335 130.164702 
L 359.268667 130.164702 
L 359.380882 128.979027 
L 359.424653 130.164702 
L 359.500858 129.571865 
L 359.545185 129.571865 
L 359.676797 128.979027 
L 359.742258 129.571865 
L 359.786832 128.979027 
L 359.941674 128.979027 
L 360.075111 128.38619 
L 360.189929 128.38619 
L 360.257848 128.979027 
L 360.30347 127.793353 
L 360.434908 128.38619 
L 360.457011 128.38619 
L 360.479524 127.793353 
L 360.52478 128.979027 
L 360.549752 128.979027 
L 360.683728 126.607678 
L 360.705612 127.200516 
L 360.835882 128.38619 
L 360.858518 127.793353 
L 360.925322 128.38619 
L 360.991793 128.38619 
L 361.013165 128.979027 
L 361.079121 128.38619 
L 361.100668 127.200516 
L 361.123228 128.979027 
L 361.170308 128.979027 
L 361.30569 130.164702 
L 361.45293 128.38619 
L 361.541394 129.571865 
L 361.56365 128.38619 
L 361.65046 128.979027 
L 361.672676 126.014841 
L 361.806809 128.979027 
L 361.873723 127.200516 
L 361.961659 127.793353 
L 361.98376 127.793353 
L 362.096319 129.571865 
L 362.118084 128.38619 
L 362.140647 128.38619 
L 362.231854 129.571865 
L 362.253424 128.979027 
L 362.275892 128.979027 
L 362.319185 128.38619 
L 362.364134 129.571865 
L 362.434037 128.979027 
L 362.54743 130.164702 
L 362.636462 126.014841 
L 362.704555 127.793353 
L 362.748543 129.571865 
L 362.836548 128.38619 
L 362.860006 126.014841 
L 362.881753 130.164702 
L 362.927307 128.38619 
L 362.948675 128.38619 
L 362.992202 129.571865 
L 363.014586 127.793353 
L 363.062597 128.979027 
L 363.084425 126.014841 
L 363.106754 129.571865 
L 363.173855 128.38619 
L 363.239524 129.571865 
L 363.261141 124.236329 
L 363.348427 125.422004 
L 363.371091 126.014841 
L 363.39406 124.236329 
L 363.460576 123.643492 
L 363.482502 125.422004 
L 363.527581 122.457818 
L 363.550841 122.457818 
L 363.681522 120.679306 
L 363.703783 121.272143 
L 363.886266 126.607678 
L 363.996351 126.014841 
L 364.131783 127.200516 
L 364.153525 127.200516 
L 364.175855 127.793353 
L 364.199172 127.200516 
L 364.220664 126.014841 
L 364.24294 127.793353 
L 364.308977 126.607678 
L 364.374714 126.607678 
L 364.485916 126.014841 
L 364.619373 126.607678 
L 364.64091 126.607678 
L 364.687085 128.38619 
L 364.732321 127.200516 
L 364.821654 126.014841 
L 364.886885 128.38619 
L 364.930088 127.200516 
L 364.974849 126.607678 
L 365.019748 127.200516 
L 365.043074 127.200516 
L 365.174732 128.38619 
L 365.339379 124.236329 
L 365.361201 126.014841 
L 365.559208 128.38619 
L 365.688438 127.793353 
L 365.709842 128.38619 
L 365.796752 127.793353 
L 365.818233 127.793353 
L 365.947552 128.38619 
L 365.968933 128.38619 
L 366.078776 128.979027 
L 366.101131 128.38619 
L 366.166238 128.979027 
L 366.209125 129.571865 
L 366.253937 128.979027 
L 366.320723 124.236329 
L 366.387739 125.422004 
L 366.409526 127.793353 
L 366.497111 126.014841 
L 366.518967 126.014841 
L 366.6748 127.200516 
L 366.784795 127.200516 
L 366.917426 127.793353 
L 367.027537 126.014841 
L 367.049637 126.607678 
L 367.072233 126.607678 
L 367.119164 127.200516 
L 367.185786 125.422004 
L 367.323409 127.200516 
L 367.564996 127.200516 
L 367.697808 127.793353 
L 367.830201 127.793353 
L 367.876633 128.38619 
L 367.92249 127.793353 
L 368.012039 127.793353 
L 368.124618 128.38619 
L 368.14633 128.38619 
L 368.167798 127.793353 
L 368.255569 128.38619 
L 368.298453 128.38619 
L 368.41078 128.979027 
L 368.590866 128.979027 
L 368.625502 128.38619 
L 368.695729 128.979027 
L 368.732175 128.979027 
L 368.907279 128.38619 
L 369.694775 128.38619 
L 369.752653 127.793353 
L 369.795656 128.38619 
L 370.00647 128.38619 
L 370.126973 128.979027 
L 370.171596 128.38619 
L 370.224847 128.979027 
L 370.247356 128.979027 
L 370.364437 128.38619 
L 370.389192 128.979027 
L 370.457709 128.38619 
L 370.48197 128.38619 
L 370.555478 128.979027 
L 370.576968 128.38619 
L 370.623285 128.38619 
L 370.64556 127.793353 
L 370.713035 128.38619 
L 370.895182 128.38619 
L 370.916954 127.793353 
L 370.983833 128.38619 
L 371.170621 128.38619 
L 371.192521 127.793353 
L 371.260853 128.38619 
L 372.264863 128.38619 
L 372.287059 128.979027 
L 372.357802 128.38619 
L 372.426354 128.38619 
L 372.503697 128.979027 
L 372.528412 128.38619 
L 372.551979 128.38619 
L 372.673142 128.979027 
L 372.992722 128.979027 
L 373.085703 129.571865 
L 373.203553 128.979027 
L 373.455147 128.979027 
L 373.567895 129.571865 
L 373.589306 129.571865 
L 373.721961 128.979027 
L 373.853468 129.571865 
L 374.408181 129.571865 
L 374.430515 130.164702 
L 374.519186 129.571865 
L 374.759724 129.571865 
L 374.868071 130.164702 
L 374.956476 129.571865 
L 374.978142 130.164702 
L 375.022436 130.164702 
L 375.044633 131.350376 
L 375.131192 130.164702 
L 375.244677 130.164702 
L 375.266161 129.571865 
L 375.355604 130.164702 
L 375.826088 130.164702 
L 375.852791 131.350376 
L 375.920218 130.164702 
L 376.345596 130.164702 
L 376.36867 131.350376 
L 376.437657 130.164702 
L 376.45984 130.164702 
L 376.57532 131.350376 
L 376.935991 131.350376 
L 376.95807 130.164702 
L 377.002911 131.350376 
L 377.071068 130.164702 
L 377.093351 131.350376 
L 377.186461 131.350376 
L 377.296442 130.164702 
L 377.408672 131.350376 
L 377.695403 131.350376 
L 377.716864 131.943214 
L 377.802864 131.350376 
L 378.088071 131.350376 
L 378.176015 131.943214 
L 378.19784 131.350376 
L 378.219582 131.350376 
L 378.331639 131.943214 
L 378.353718 131.350376 
L 378.442001 131.943214 
L 378.465046 131.350376 
L 378.532052 131.943214 
L 378.820373 131.943214 
L 378.908035 132.536051 
L 378.930687 131.943214 
L 379.786293 131.943214 
L 379.852124 132.536051 
L 379.895018 131.943214 
L 379.938465 131.943214 
L 380.070796 132.536051 
L 380.092938 131.943214 
L 380.181885 132.536051 
L 380.445814 132.536051 
L 380.468123 131.943214 
L 380.554946 132.536051 
L 380.997034 132.536051 
L 381.128606 133.128888 
L 381.432827 133.128888 
L 381.543254 132.536051 
L 381.650678 133.128888 
L 381.71824 132.536051 
L 381.741148 133.128888 
L 381.762553 133.128888 
L 381.873646 132.536051 
L 381.918551 132.536051 
L 382.03045 133.128888 
L 382.09743 132.536051 
L 382.119523 133.128888 
L 382.294243 133.128888 
L 382.35937 132.536051 
L 382.403766 133.128888 
L 382.846653 133.128888 
L 382.977781 133.721726 
L 383.110898 133.128888 
L 383.198029 133.128888 
L 383.32991 132.536051 
L 384.216086 132.536051 
L 384.237895 131.943214 
L 384.326611 132.536051 
L 384.46325 132.536051 
L 384.4878 131.943214 
L 384.558558 132.536051 
L 384.649214 132.536051 
L 384.763502 131.943214 
L 384.789383 131.943214 
L 384.859836 132.536051 
L 384.883054 131.943214 
L 384.928203 131.943214 
L 384.97238 132.536051 
L 385.017011 131.943214 
L 385.136902 131.943214 
L 385.230825 132.536051 
L 385.348824 131.943214 
L 385.95244 131.943214 
L 385.974928 131.350376 
L 386.041497 131.943214 
L 386.08658 131.943214 
L 386.21887 131.350376 
L 386.243146 131.350376 
L 386.374046 131.943214 
L 386.531061 131.943214 
L 386.552487 132.536051 
L 386.618234 131.943214 
L 386.706438 131.350376 
L 386.727853 131.943214 
L 386.974047 131.943214 
L 387.042295 131.350376 
L 387.065997 131.943214 
L 387.6057 131.943214 
L 387.737591 131.350376 
L 387.781252 131.350376 
L 387.89246 131.943214 
L 388.022155 131.350376 
L 388.445848 131.350376 
L 388.536726 130.164702 
L 388.558151 131.350376 
L 388.647319 130.164702 
L 389.037125 130.164702 
L 389.148622 129.571865 
L 389.25831 129.571865 
L 389.350954 128.979027 
L 389.48103 129.571865 
L 389.592113 128.979027 
L 389.627401 128.979027 
L 389.758453 128.38619 
L 389.80771 128.38619 
L 389.940568 128.979027 
L 390.051709 127.793353 
L 390.074192 128.38619 
L 390.163786 127.200516 
L 390.207031 127.793353 
L 390.272958 127.793353 
L 390.404845 127.200516 
L 390.449112 127.200516 
L 390.514441 127.793353 
L 390.559426 127.200516 
L 390.581635 127.200516 
L 390.713225 127.793353 
L 390.779341 127.200516 
L 390.801251 127.793353 
L 390.825702 127.793353 
L 390.891139 127.200516 
L 390.935289 127.793353 
L 390.980332 127.793353 
L 391.024618 127.200516 
L 391.090472 127.793353 
L 391.134853 127.793353 
L 391.248747 127.200516 
L 391.272115 127.793353 
L 391.317436 127.200516 
L 391.40764 125.422004 
L 391.472937 126.014841 
L 391.562267 128.38619 
L 391.608198 127.793353 
L 391.651223 123.643492 
L 391.697049 128.38619 
L 391.728345 128.38619 
L 391.751642 127.793353 
L 391.817925 128.38619 
L 391.840037 128.38619 
L 391.927421 128.979027 
L 391.973942 127.793353 
L 392.018235 128.38619 
L 392.12954 128.979027 
L 392.328628 128.979027 
L 392.394281 129.571865 
L 392.42669 128.979027 
L 392.493052 128.979027 
L 392.516736 129.571865 
L 392.538474 128.979027 
L 392.592187 125.422004 
L 392.635271 128.979027 
L 392.68392 128.979027 
L 392.773544 126.607678 
L 392.795052 128.38619 
L 392.823346 128.38619 
L 392.998879 124.236329 
L 393.109199 126.014841 
L 393.131038 125.422004 
L 393.263739 126.607678 
L 393.329467 125.422004 
L 393.373442 126.014841 
L 393.419235 128.38619 
L 393.483868 126.014841 
L 393.505373 126.014841 
L 393.527929 126.607678 
L 393.550116 126.014841 
L 393.595178 123.643492 
L 393.668497 124.236329 
L 393.690955 124.236329 
L 393.844418 126.607678 
L 393.88869 126.607678 
L 393.910154 127.200516 
L 393.998969 126.607678 
L 394.043312 126.014841 
L 394.109733 126.607678 
L 394.268518 126.607678 
L 394.384888 127.793353 
L 394.615583 125.422004 
L 394.63968 125.422004 
L 394.733183 127.200516 
L 394.755496 126.607678 
L 394.876928 127.793353 
L 394.923143 127.200516 
L 394.972023 127.200516 
L 394.994421 127.793353 
L 395.059824 126.607678 
L 395.08163 126.607678 
L 395.197568 127.793353 
L 395.315296 127.200516 
L 395.336778 127.200516 
L 395.380714 126.014841 
L 395.425201 126.607678 
L 395.447644 127.793353 
L 395.544346 127.200516 
L 395.566644 127.200516 
L 395.637067 126.607678 
L 395.659756 127.200516 
L 395.685556 127.200516 
L 395.799273 126.607678 
L 395.935949 127.793353 
L 396.002573 127.793353 
L 396.135298 127.200516 
L 396.158026 127.200516 
L 396.313171 126.014841 
L 396.336576 126.014841 
L 396.513851 127.793353 
L 396.559281 127.793353 
L 396.671193 126.607678 
L 396.839392 128.38619 
L 396.883777 128.38619 
L 396.98053 127.793353 
L 397.013892 128.38619 
L 397.037203 127.200516 
L 397.08127 127.793353 
L 397.238357 127.793353 
L 397.353693 128.38619 
L 397.556231 128.38619 
L 397.577726 127.793353 
L 397.661538 128.38619 
L 397.684074 128.38619 
L 397.707265 127.793353 
L 397.774581 128.38619 
L 398.853952 128.38619 
L 398.964815 128.979027 
L 399.053665 128.38619 
L 399.075275 128.979027 
L 400.051108 128.979027 
L 400.164284 129.571865 
L 400.662392 129.571865 
L 400.794783 130.164702 
L 400.927198 129.571865 
L 400.949657 129.571865 
L 401.080357 130.164702 
L 401.434507 130.164702 
L 401.456175 131.350376 
L 401.543893 130.164702 
L 401.58795 130.164702 
L 401.719354 131.350376 
L 401.851882 130.164702 
L 401.923699 130.164702 
L 402.050844 131.350376 
L 402.270636 131.350376 
L 402.292752 130.164702 
L 402.364561 131.350376 
L 402.420963 131.350376 
L 402.491663 130.164702 
L 402.524797 131.350376 
L 402.775235 131.350376 
L 402.797836 130.164702 
L 402.866122 131.350376 
L 403.983061 131.350376 
L 404.099681 131.943214 
L 404.144471 131.943214 
L 404.166164 131.350376 
L 404.241532 131.943214 
L 404.263315 131.943214 
L 404.285654 131.350376 
L 404.354014 131.943214 
L 404.445391 131.943214 
L 404.489483 131.350376 
L 404.53544 131.943214 
L 404.563139 131.943214 
L 404.679321 131.350376 
L 405.16363 131.350376 
L 405.279249 131.943214 
L 405.371719 131.350376 
L 405.486042 131.943214 
L 405.595675 131.350376 
L 405.707865 131.943214 
L 405.734312 131.943214 
L 405.803692 131.350376 
L 405.829127 131.943214 
L 405.873456 131.943214 
L 405.992326 131.350376 
L 406.035795 131.350376 
L 406.058977 131.943214 
L 406.126463 131.350376 
L 406.147933 131.350376 
L 406.170443 131.943214 
L 406.237804 131.350376 
L 406.259954 131.350376 
L 406.370271 131.943214 
L 406.503005 131.350376 
L 406.613595 131.350376 
L 406.727868 131.943214 
L 406.819269 131.350376 
L 406.841395 131.943214 
L 406.907579 131.350376 
L 407.02403 131.943214 
L 407.15665 131.350376 
L 407.22312 131.943214 
L 407.295819 131.943214 
L 407.421234 131.350376 
L 407.487903 131.943214 
L 407.532081 131.350376 
L 407.576763 131.350376 
L 407.691665 131.943214 
L 407.834904 131.943214 
L 407.933444 131.350376 
L 408.051503 131.943214 
L 408.264872 131.943214 
L 408.379154 132.536051 
L 408.512682 131.943214 
L 408.825643 131.943214 
L 408.939206 132.536051 
L 409.03101 131.943214 
L 409.144178 132.536051 
L 409.166576 132.536051 
L 409.26172 131.943214 
L 409.395367 132.536051 
L 409.557257 132.536051 
L 409.647931 131.943214 
L 409.761215 132.536051 
L 410.117093 132.536051 
L 410.140131 133.128888 
L 410.206353 132.536051 
L 410.486714 132.536051 
L 410.59731 133.128888 
L 410.710745 132.536051 
L 410.777976 132.536051 
L 410.890806 133.128888 
L 410.934007 132.536051 
L 411.00197 133.128888 
L 411.023794 133.128888 
L 411.045565 132.536051 
L 411.113826 133.128888 
L 411.928633 133.128888 
L 412.024475 133.721726 
L 412.115805 133.128888 
L 412.248049 133.721726 
L 412.314743 133.721726 
L 412.361459 133.128888 
L 412.406264 133.721726 
L 412.455348 133.721726 
L 412.478358 133.128888 
L 412.545168 133.721726 
L 412.927044 133.721726 
L 412.950049 133.128888 
L 413.017325 133.721726 
L 413.486972 133.721726 
L 413.508776 133.128888 
L 413.578715 133.721726 
L 413.793249 133.721726 
L 413.814699 134.314563 
L 413.88287 133.721726 
L 414.268767 133.721726 
L 414.291581 134.314563 
L 414.35952 133.721726 
L 414.47318 133.721726 
L 414.563944 134.314563 
L 414.678114 133.721726 
L 414.699511 133.721726 
L 414.812645 134.314563 
L 414.834791 133.721726 
L 414.923377 134.314563 
L 414.990039 133.721726 
L 415.012845 134.314563 
L 415.057206 134.314563 
L 415.147003 133.721726 
L 415.259576 134.314563 
L 416.111613 134.314563 
L 416.133769 133.721726 
L 416.1827 134.314563 
L 416.329111 134.314563 
L 416.453111 133.721726 
L 416.502886 133.721726 
L 416.524505 134.314563 
L 416.595302 133.721726 
L 416.62049 133.721726 
L 416.643317 134.314563 
L 416.713081 133.721726 
L 416.825181 133.721726 
L 416.956593 134.314563 
L 417.166835 134.314563 
L 417.188289 133.721726 
L 417.255158 134.314563 
L 417.55663 134.314563 
L 417.580024 133.721726 
L 417.646622 134.314563 
L 417.692611 134.314563 
L 417.78584 133.721726 
L 417.878929 134.314563 
L 417.992401 133.721726 
L 418.669807 133.721726 
L 418.789037 133.128888 
L 419.201637 133.128888 
L 419.332779 132.536051 
L 419.354622 132.536051 
L 419.377154 133.128888 
L 419.451285 132.536051 
L 419.803909 132.536051 
L 419.894922 131.943214 
L 420.016086 132.536051 
L 420.040138 132.536051 
L 420.160138 131.943214 
L 420.326751 131.943214 
L 420.439183 131.350376 
L 420.462183 131.943214 
L 420.534021 131.350376 
L 420.616298 131.350376 
L 420.73074 130.164702 
L 420.839158 130.164702 
L 420.962412 129.571865 
L 421.417397 129.571865 
L 421.529235 128.979027 
L 421.906407 128.979027 
L 421.999117 128.38619 
L 422.120178 128.979027 
L 422.23597 128.38619 
L 422.259012 128.38619 
L 422.306311 126.607678 
L 422.380555 127.200516 
L 422.403359 127.200516 
L 422.426624 127.793353 
L 422.499627 127.200516 
L 422.650958 127.200516 
L 422.766057 126.607678 
L 422.897371 127.200516 
L 423.014894 127.200516 
L 423.136942 127.793353 
L 423.364643 127.793353 
L 423.502074 127.200516 
L 423.525463 127.793353 
L 423.611849 127.200516 
L 423.810636 127.200516 
L 423.919128 126.607678 
L 424.009594 127.200516 
L 424.130329 122.457818 
L 424.224626 122.457818 
L 424.316605 123.643492 
L 424.339337 123.050655 
L 424.47487 124.236329 
L 424.543682 124.236329 
L 424.565911 125.422004 
L 424.635273 124.236329 
L 424.657311 124.236329 
L 424.755521 121.272143 
L 424.803492 123.050655 
L 424.887804 123.050655 
L 425.043689 125.422004 
L 425.18155 121.86498 
L 425.205615 122.457818 
L 425.340274 122.457818 
L 425.503692 123.643492 
L 425.526726 123.643492 
L 425.550295 123.050655 
L 425.588677 123.643492 
" style="fill:none;stroke:#1f77b4;stroke-linecap:square;stroke-width:1.5;"/>
   </g>
   <g id="line2d_32">
    <path clip-path="url(#p40d358d2ec)" d="M 62.799461 184.112893 
L 64.813893 184.112893 
L 64.947113 160.992239 
L 67.110407 160.992239 
L 67.24167 167.513449 
L 68.654429 167.513449 
L 68.78426 178.777357 
L 69.494056 178.777357 
L 69.623828 190.634102 
L 70.083751 190.634102 
L 125.375015 107.636886 
L 128.255146 107.636886 
L 128.343385 119.493631 
L 129.581157 119.493631 
L 129.712854 130.757539 
L 130.791038 130.757539 
L 130.92271 160.992239 
L 132.549962 160.992239 
L 132.681445 178.777357 
L 133.271388 178.777357 
L 219.858154 114.158096 
L 220.583555 114.158096 
L 220.715368 137.278749 
L 221.78793 137.278749 
L 221.920713 160.992239 
L 224.308513 160.992239 
L 224.442009 172.848985 
L 226.792756 172.848985 
L 226.901708 178.777357 
L 228.355552 178.777357 
L 228.486092 184.112893 
L 229.332825 184.112893 
L 229.445674 195.969638 
L 230.452993 195.969638 
L 230.583064 202.490848 
L 231.21088 202.490848 
L 231.326956 191.819777 
L 231.769451 191.819777 
L 231.90032 195.969638 
L 232.878639 195.969638 
L 233.000728 190.634102 
L 236.007752 190.634102 
L 236.165664 191.819777 
L 236.781361 191.819777 
L 236.901593 190.634102 
L 237.919145 190.634102 
L 238.030502 184.112893 
L 240.423548 184.112893 
L 240.556084 178.777357 
L 241.807783 178.777357 
L 241.940746 172.848985 
L 242.574926 172.848985 
L 242.706881 170.477636 
L 242.903608 170.477636 
L 243.023161 167.513449 
L 245.44649 167.513449 
L 245.578672 160.992239 
L 249.433542 160.992239 
L 249.565713 170.477636 
L 250.637083 170.477636 
L 250.756747 172.848985 
L 251.521425 172.848985 
L 251.633586 170.477636 
L 251.745214 170.477636 
L 251.864598 172.848985 
L 254.995913 172.848985 
L 255.128194 170.477636 
L 255.435128 170.477636 
L 255.567627 172.848985 
L 256.653766 172.848985 
L 256.785141 178.777357 
L 257.317103 178.777357 
L 257.429624 191.819777 
L 257.95604 191.819777 
L 258.067536 195.969638 
L 258.273261 195.969638 
L 258.40574 202.490848 
L 263.36418 202.490848 
L 263.476785 191.819777 
L 264.471953 191.819777 
L 264.603365 202.490848 
L 265.469748 202.490848 
L 265.57553 190.634102 
L 266.66335 190.634102 
L 266.796811 184.112893 
L 267.223217 184.112893 
L 267.352035 181.148706 
L 267.872278 181.148706 
L 267.987224 178.777357 
L 269.55212 178.777357 
L 269.682659 172.848985 
L 270.415389 172.848985 
L 270.547574 167.513449 
L 271.614016 167.513449 
L 271.716242 172.848985 
L 272.811094 172.848985 
L 272.982756 160.992239 
L 275.517007 160.992239 
L 275.637359 155.656704 
L 279.10396 155.656704 
L 279.258678 160.992239 
L 280.215685 160.992239 
L 280.338443 184.112893 
L 281.762543 184.112893 
L 281.884715 195.969638 
L 282.988776 195.969638 
L 283.102678 214.347593 
L 284.445794 214.347593 
L 284.576717 223.832989 
L 286.10177 223.832989 
L 286.231181 234.50406 
L 288.182246 234.50406 
L 288.314444 223.832989 
L 289.391409 223.832989 
L 289.521659 226.204338 
L 290.907146 226.204338 
L 291.036933 223.832989 
L 291.451144 223.832989 
L 291.582813 226.204338 
L 293.535797 226.204338 
L 293.667632 232.132711 
L 297.192226 232.132711 
L 297.324641 223.832989 
L 298.450379 223.832989 
L 298.564243 213.161918 
L 299.8459 213.161918 
L 299.97065 181.148706 
L 300.414339 181.148706 
L 300.547046 172.848985 
L 301.607915 172.848985 
L 301.725963 137.278749 
L 302.788784 137.278749 
L 302.900396 114.158096 
L 304.22189 114.158096 
L 304.341912 102.301351 
L 305.392205 102.301351 
L 305.513699 89.258931 
L 306.592507 89.258931 
L 306.700064 95.780141 
L 307.68918 95.780141 
L 307.812146 107.636886 
L 310.089302 107.636886 
L 310.207543 125.422004 
L 310.404279 125.422004 
L 310.527488 155.656704 
L 311.953927 155.656704 
L 312.081599 167.513449 
L 312.738853 167.513449 
L 312.856322 172.848985 
L 313.947457 172.848985 
L 314.073781 184.112893 
L 315.263205 184.112893 
L 315.376148 190.634102 
L 316.680809 190.634102 
L 316.811988 202.490848 
L 317.33933 202.490848 
L 317.473283 223.832989 
L 318.113868 223.832989 
L 318.224343 214.347593 
L 318.445125 214.347593 
L 318.574623 223.832989 
L 320.17699 223.832989 
L 320.309276 226.204338 
L 320.824731 226.204338 
L 320.955819 223.832989 
L 321.481174 223.832989 
L 321.612996 237.468246 
L 323.335843 237.468246 
L 323.466314 245.17513 
L 323.552417 245.17513 
L 323.68214 234.50406 
L 323.882546 234.50406 
L 324.013085 237.468246 
L 325.383725 237.468246 
L 325.496089 214.347593 
L 326.589928 214.347593 
L 326.703403 190.634102 
L 327.898091 190.634102 
L 328.008062 149.135494 
L 329.074125 149.135494 
L 329.208044 114.158096 
L 330.268529 114.158096 
L 330.388254 83.923396 
L 331.550623 83.923396 
L 331.682099 66.138278 
L 332.841044 66.138278 
L 332.978949 54.281533 
L 334.011793 54.281533 
L 334.148324 35.903578 
L 335.333778 35.903578 
L 335.472605 42.424787 
L 337.647134 42.424787 
L 337.817757 72.06665 
L 338.941765 72.06665 
L 339.063094 95.780141 
L 340.199068 95.780141 
L 340.329274 125.422004 
L 342.502371 125.422004 
L 342.613854 137.278749 
L 342.723804 137.278749 
L 342.854979 155.656704 
L 343.912251 155.656704 
L 344.024082 172.848985 
L 346.070915 172.848985 
L 346.199862 184.112893 
L 346.706347 184.112893 
L 346.836536 190.634102 
L 348.009372 190.634102 
L 348.121749 195.969638 
L 349.655065 195.969638 
L 349.7861 213.161918 
L 350.208387 213.161918 
L 350.319374 202.490848 
L 350.870977 202.490848 
L 351.00106 213.161918 
L 352.289587 213.161918 
L 352.403475 223.832989 
L 352.627876 223.832989 
L 352.744966 209.012057 
L 353.043994 209.012057 
L 353.159412 213.161918 
L 353.663497 213.161918 
L 353.775393 234.50406 
L 353.993156 234.50406 
L 354.124662 226.204338 
L 354.326547 226.204338 
L 354.439198 223.832989 
L 355.210988 223.832989 
L 355.325314 202.490848 
L 356.485189 202.490848 
L 356.595372 184.112893 
L 357.714557 184.112893 
L 357.825287 155.656704 
L 359.895404 155.656704 
L 360.00733 119.493631 
L 360.121958 119.493631 
L 360.232783 95.780141 
L 361.541394 95.780141 
L 361.672676 77.402186 
L 362.658691 77.402186 
L 362.791895 66.138278 
L 364.777038 66.138278 
L 364.908346 54.281533 
L 367.207932 54.281533 
L 367.323409 60.802743 
L 367.542814 60.802743 
L 367.67592 83.923396 
L 368.862675 83.923396 
L 368.977406 102.301351 
L 370.103517 102.301351 
L 370.224847 125.422004 
L 371.304968 125.422004 
L 371.416321 137.278749 
L 372.786297 137.278749 
L 372.921699 149.135494 
L 373.941742 149.135494 
L 374.072494 155.656704 
L 375.920218 155.656704 
L 376.053213 167.513449 
L 376.257894 167.513449 
L 376.36867 184.112893 
L 377.890696 184.112893 
L 378.023218 195.969638 
L 378.886503 195.969638 
L 379.017207 202.490848 
L 380.092938 202.490848 
L 380.20328 209.012057 
L 381.741148 209.012057 
L 381.873646 220.868803 
L 383.285361 220.868803 
L 383.417574 213.161918 
L 385.929586 213.161918 
L 386.041497 202.490848 
L 387.155803 202.490848 
L 387.269382 184.112893 
L 387.583774 184.112893 
L 387.715912 167.513449 
L 390.891139 167.513449 
L 391.024618 125.422004 
L 392.108051 125.422004 
L 392.240198 107.636886 
L 393.756127 107.636886 
L 393.88869 102.301351 
L 395.038054 102.301351 
L 395.149634 107.636886 
L 396.44733 107.636886 
L 396.559281 114.158096 
L 397.613571 114.158096 
L 397.729091 125.422004 
L 399.498322 125.422004 
L 399.630583 130.757539 
L 400.164284 130.757539 
L 400.276054 155.656704 
L 401.258382 155.656704 
L 401.390662 167.513449 
L 403.914324 167.513449 
L 404.031702 178.777357 
L 407.00253 178.777357 
L 407.133615 172.848985 
L 407.465794 172.848985 
L 407.598163 178.777357 
L 408.759816 178.777357 
L 408.872817 190.634102 
L 410.710745 190.634102 
L 410.823213 195.969638 
L 412.338921 195.969638 
L 412.455348 213.161918 
L 413.771824 213.161918 
L 413.88287 220.868803 
L 414.968528 220.868803 
L 415.078689 209.012057 
L 416.352006 209.012057 
L 416.475273 184.112893 
L 417.970391 184.112893 
L 418.101884 172.848985 
L 418.716172 172.848985 
L 418.834913 160.992239 
L 419.870587 160.992239 
L 419.993556 155.656704 
L 421.975215 155.656704 
L 422.093692 137.278749 
L 422.698339 137.278749 
L 422.811902 125.422004 
L 423.633314 125.422004 
L 423.750168 119.493631 
L 425.113507 119.493631 
L 425.227879 114.158096 
L 425.588677 114.158096 
L 425.588677 114.158096 
" style="fill:none;stroke:#ff7f0e;stroke-linecap:square;stroke-width:1.5;"/>
   </g>
   <g id="patch_3">
    <path d="M 44.66 255.638708 
L 44.66 25.44 
" style="fill:none;stroke:#000000;stroke-linecap:square;stroke-linejoin:miter;stroke-width:0.8;"/>
   </g>
   <g id="patch_4">
    <path d="M 443.728138 255.638708 
L 443.728138 25.44 
" style="fill:none;stroke:#000000;stroke-linecap:square;stroke-linejoin:miter;stroke-width:0.8;"/>
   </g>
   <g id="patch_5">
    <path d="M 44.66 255.638708 
L 443.728138 255.638708 
" style="fill:none;stroke:#000000;stroke-linecap:square;stroke-linejoin:miter;stroke-width:0.8;"/>
   </g>
   <g id="patch_6">
    <path d="M 44.66 25.44 
L 443.728138 25.44 
" style="fill:none;stroke:#000000;stroke-linecap:square;stroke-linejoin:miter;stroke-width:0.8;"/>
   </g>
   <g id="text_18">
    <!-- Lake Shoecraft - Water and Air Temperature -->
    <g transform="translate(112.575631 19.44)scale(0.12 -0.12)">
     <defs>
      <path d="M 9.8125 72.90625 
L 19.671875 72.90625 
L 19.671875 8.296875 
L 55.171875 8.296875 
L 55.171875 0 
L 9.8125 0 
z
" id="DejaVuSans-76"/>
      <path d="M 9.078125 75.984375 
L 18.109375 75.984375 
L 18.109375 31.109375 
L 44.921875 54.6875 
L 56.390625 54.6875 
L 27.390625 29.109375 
L 57.625 0 
L 45.90625 0 
L 18.109375 26.703125 
L 18.109375 0 
L 9.078125 0 
z
" id="DejaVuSans-107"/>
      <path d="M 53.515625 70.515625 
L 53.515625 60.890625 
Q 47.90625 63.578125 42.921875 64.890625 
Q 37.9375 66.21875 33.296875 66.21875 
Q 25.25 66.21875 20.875 63.09375 
Q 16.5 59.96875 16.5 54.203125 
Q 16.5 49.359375 19.40625 46.890625 
Q 22.3125 44.4375 30.421875 42.921875 
L 36.375 41.703125 
Q 47.40625 39.59375 52.65625 34.296875 
Q 57.90625 29 57.90625 20.125 
Q 57.90625 9.515625 50.796875 4.046875 
Q 43.703125 -1.421875 29.984375 -1.421875 
Q 24.8125 -1.421875 18.96875 -0.25 
Q 13.140625 0.921875 6.890625 3.21875 
L 6.890625 13.375 
Q 12.890625 10.015625 18.65625 8.296875 
Q 24.421875 6.59375 29.984375 6.59375 
Q 38.421875 6.59375 43.015625 9.90625 
Q 47.609375 13.234375 47.609375 19.390625 
Q 47.609375 24.75 44.3125 27.78125 
Q 41.015625 30.8125 33.5 32.328125 
L 27.484375 33.5 
Q 16.453125 35.6875 11.515625 40.375 
Q 6.59375 45.0625 6.59375 53.421875 
Q 6.59375 63.09375 13.40625 68.65625 
Q 20.21875 74.21875 32.171875 74.21875 
Q 37.3125 74.21875 42.625 73.28125 
Q 47.953125 72.359375 53.515625 70.515625 
z
" id="DejaVuSans-83"/>
      <path d="M 54.890625 33.015625 
L 54.890625 0 
L 45.90625 0 
L 45.90625 32.71875 
Q 45.90625 40.484375 42.875 44.328125 
Q 39.84375 48.1875 33.796875 48.1875 
Q 26.515625 48.1875 22.3125 43.546875 
Q 18.109375 38.921875 18.109375 30.90625 
L 18.109375 0 
L 9.078125 0 
L 9.078125 75.984375 
L 18.109375 75.984375 
L 18.109375 46.1875 
Q 21.34375 51.125 25.703125 53.5625 
Q 30.078125 56 35.796875 56 
Q 45.21875 56 50.046875 50.171875 
Q 54.890625 44.34375 54.890625 33.015625 
z
" id="DejaVuSans-104"/>
      <path d="M 30.609375 48.390625 
Q 23.390625 48.390625 19.1875 42.75 
Q 14.984375 37.109375 14.984375 27.296875 
Q 14.984375 17.484375 19.15625 11.84375 
Q 23.34375 6.203125 30.609375 6.203125 
Q 37.796875 6.203125 41.984375 11.859375 
Q 46.1875 17.53125 46.1875 27.296875 
Q 46.1875 37.015625 41.984375 42.703125 
Q 37.796875 48.390625 30.609375 48.390625 
z
M 30.609375 56 
Q 42.328125 56 49.015625 48.375 
Q 55.71875 40.765625 55.71875 27.296875 
Q 55.71875 13.875 49.015625 6.21875 
Q 42.328125 -1.421875 30.609375 -1.421875 
Q 18.84375 -1.421875 12.171875 6.21875 
Q 5.515625 13.875 5.515625 27.296875 
Q 5.515625 40.765625 12.171875 48.375 
Q 18.84375 56 30.609375 56 
z
" id="DejaVuSans-111"/>
      <path d="M 48.78125 52.59375 
L 48.78125 44.1875 
Q 44.96875 46.296875 41.140625 47.34375 
Q 37.3125 48.390625 33.40625 48.390625 
Q 24.65625 48.390625 19.8125 42.84375 
Q 14.984375 37.3125 14.984375 27.296875 
Q 14.984375 17.28125 19.8125 11.734375 
Q 24.65625 6.203125 33.40625 6.203125 
Q 37.3125 6.203125 41.140625 7.25 
Q 44.96875 8.296875 48.78125 10.40625 
L 48.78125 2.09375 
Q 45.015625 0.34375 40.984375 -0.53125 
Q 36.96875 -1.421875 32.421875 -1.421875 
Q 20.0625 -1.421875 12.78125 6.34375 
Q 5.515625 14.109375 5.515625 27.296875 
Q 5.515625 40.671875 12.859375 48.328125 
Q 20.21875 56 33.015625 56 
Q 37.15625 56 41.109375 55.140625 
Q 45.0625 54.296875 48.78125 52.59375 
z
" id="DejaVuSans-99"/>
      <path d="M 37.109375 75.984375 
L 37.109375 68.5 
L 28.515625 68.5 
Q 23.6875 68.5 21.796875 66.546875 
Q 19.921875 64.59375 19.921875 59.515625 
L 19.921875 54.6875 
L 34.71875 54.6875 
L 34.71875 47.703125 
L 19.921875 47.703125 
L 19.921875 0 
L 10.890625 0 
L 10.890625 47.703125 
L 2.296875 47.703125 
L 2.296875 54.6875 
L 10.890625 54.6875 
L 10.890625 58.5 
Q 10.890625 67.625 15.140625 71.796875 
Q 19.390625 75.984375 28.609375 75.984375 
z
" id="DejaVuSans-102"/>
      <path d="M 3.328125 72.90625 
L 13.28125 72.90625 
L 28.609375 11.28125 
L 43.890625 72.90625 
L 54.984375 72.90625 
L 70.3125 11.28125 
L 85.59375 72.90625 
L 95.609375 72.90625 
L 77.296875 0 
L 64.890625 0 
L 49.515625 63.28125 
L 33.984375 0 
L 21.578125 0 
z
" id="DejaVuSans-87"/>
      <path d="M 54.890625 33.015625 
L 54.890625 0 
L 45.90625 0 
L 45.90625 32.71875 
Q 45.90625 40.484375 42.875 44.328125 
Q 39.84375 48.1875 33.796875 48.1875 
Q 26.515625 48.1875 22.3125 43.546875 
Q 18.109375 38.921875 18.109375 30.90625 
L 18.109375 0 
L 9.078125 0 
L 9.078125 54.6875 
L 18.109375 54.6875 
L 18.109375 46.1875 
Q 21.34375 51.125 25.703125 53.5625 
Q 30.078125 56 35.796875 56 
Q 45.21875 56 50.046875 50.171875 
Q 54.890625 44.34375 54.890625 33.015625 
z
" id="DejaVuSans-110"/>
      <path d="M 45.40625 46.390625 
L 45.40625 75.984375 
L 54.390625 75.984375 
L 54.390625 0 
L 45.40625 0 
L 45.40625 8.203125 
Q 42.578125 3.328125 38.25 0.953125 
Q 33.9375 -1.421875 27.875 -1.421875 
Q 17.96875 -1.421875 11.734375 6.484375 
Q 5.515625 14.40625 5.515625 27.296875 
Q 5.515625 40.1875 11.734375 48.09375 
Q 17.96875 56 27.875 56 
Q 33.9375 56 38.25 53.625 
Q 42.578125 51.265625 45.40625 46.390625 
z
M 14.796875 27.296875 
Q 14.796875 17.390625 18.875 11.75 
Q 22.953125 6.109375 30.078125 6.109375 
Q 37.203125 6.109375 41.296875 11.75 
Q 45.40625 17.390625 45.40625 27.296875 
Q 45.40625 37.203125 41.296875 42.84375 
Q 37.203125 48.484375 30.078125 48.484375 
Q 22.953125 48.484375 18.875 42.84375 
Q 14.796875 37.203125 14.796875 27.296875 
z
" id="DejaVuSans-100"/>
      <path d="M 34.1875 63.1875 
L 20.796875 26.90625 
L 47.609375 26.90625 
z
M 28.609375 72.90625 
L 39.796875 72.90625 
L 67.578125 0 
L 57.328125 0 
L 50.6875 18.703125 
L 17.828125 18.703125 
L 11.1875 0 
L 0.78125 0 
z
" id="DejaVuSans-65"/>
      <path d="M 9.421875 54.6875 
L 18.40625 54.6875 
L 18.40625 0 
L 9.421875 0 
z
M 9.421875 75.984375 
L 18.40625 75.984375 
L 18.40625 64.59375 
L 9.421875 64.59375 
z
" id="DejaVuSans-105"/>
     </defs>
     <use xlink:href="#DejaVuSans-76"/>
     <use x="55.712891" xlink:href="#DejaVuSans-97"/>
     <use x="116.992188" xlink:href="#DejaVuSans-107"/>
     <use x="171.277344" xlink:href="#DejaVuSans-101"/>
     <use x="232.800781" xlink:href="#DejaVuSans-32"/>
     <use x="264.587891" xlink:href="#DejaVuSans-83"/>
     <use x="328.064453" xlink:href="#DejaVuSans-104"/>
     <use x="391.443359" xlink:href="#DejaVuSans-111"/>
     <use x="452.625" xlink:href="#DejaVuSans-101"/>
     <use x="514.148438" xlink:href="#DejaVuSans-99"/>
     <use x="569.128906" xlink:href="#DejaVuSans-114"/>
     <use x="610.242188" xlink:href="#DejaVuSans-97"/>
     <use x="671.521484" xlink:href="#DejaVuSans-102"/>
     <use x="704.976562" xlink:href="#DejaVuSans-116"/>
     <use x="744.185547" xlink:href="#DejaVuSans-32"/>
     <use x="775.972656" xlink:href="#DejaVuSans-45"/>
     <use x="812.056641" xlink:href="#DejaVuSans-32"/>
     <use x="843.84375" xlink:href="#DejaVuSans-87"/>
     <use x="936.345703" xlink:href="#DejaVuSans-97"/>
     <use x="997.625" xlink:href="#DejaVuSans-116"/>
     <use x="1036.833984" xlink:href="#DejaVuSans-101"/>
     <use x="1098.357422" xlink:href="#DejaVuSans-114"/>
     <use x="1139.470703" xlink:href="#DejaVuSans-32"/>
     <use x="1171.257812" xlink:href="#DejaVuSans-97"/>
     <use x="1232.537109" xlink:href="#DejaVuSans-110"/>
     <use x="1295.916016" xlink:href="#DejaVuSans-100"/>
     <use x="1359.392578" xlink:href="#DejaVuSans-32"/>
     <use x="1391.179688" xlink:href="#DejaVuSans-65"/>
     <use x="1459.587891" xlink:href="#DejaVuSans-105"/>
     <use x="1487.371094" xlink:href="#DejaVuSans-114"/>
     <use x="1528.484375" xlink:href="#DejaVuSans-32"/>
     <use x="1560.271484" xlink:href="#DejaVuSans-84"/>
     <use x="1604.355469" xlink:href="#DejaVuSans-101"/>
     <use x="1665.878906" xlink:href="#DejaVuSans-109"/>
     <use x="1763.291016" xlink:href="#DejaVuSans-112"/>
     <use x="1826.767578" xlink:href="#DejaVuSans-101"/>
     <use x="1888.291016" xlink:href="#DejaVuSans-114"/>
     <use x="1929.404297" xlink:href="#DejaVuSans-97"/>
     <use x="1990.683594" xlink:href="#DejaVuSans-116"/>
     <use x="2029.892578" xlink:href="#DejaVuSans-117"/>
     <use x="2093.271484" xlink:href="#DejaVuSans-114"/>
     <use x="2132.134766" xlink:href="#DejaVuSans-101"/>
    </g>
   </g>
   <g id="legend_1">
    <g id="patch_7">
     <path d="M 51.66 62.79625 
L 136.769375 62.79625 
Q 138.769375 62.79625 138.769375 60.79625 
L 138.769375 32.44 
Q 138.769375 30.44 136.769375 30.44 
L 51.66 30.44 
Q 49.66 30.44 49.66 32.44 
L 49.66 60.79625 
Q 49.66 62.79625 51.66 62.79625 
z
" style="fill:#ffffff;opacity:0.8;stroke:#cccccc;stroke-linejoin:miter;"/>
    </g>
    <g id="line2d_33">
     <path d="M 53.66 38.538437 
L 73.66 38.538437 
" style="fill:none;stroke:#1f77b4;stroke-linecap:square;stroke-width:1.5;"/>
    </g>
    <g id="line2d_34"/>
    <g id="text_19">
     <!-- Lake Temp -->
     <g transform="translate(81.66 42.038437)scale(0.1 -0.1)">
      <use xlink:href="#DejaVuSans-76"/>
      <use x="55.712891" xlink:href="#DejaVuSans-97"/>
      <use x="116.992188" xlink:href="#DejaVuSans-107"/>
      <use x="171.277344" xlink:href="#DejaVuSans-101"/>
      <use x="232.800781" xlink:href="#DejaVuSans-32"/>
      <use x="264.587891" xlink:href="#DejaVuSans-84"/>
      <use x="308.671875" xlink:href="#DejaVuSans-101"/>
      <use x="370.195312" xlink:href="#DejaVuSans-109"/>
      <use x="467.607422" xlink:href="#DejaVuSans-112"/>
     </g>
    </g>
    <g id="line2d_35">
     <path d="M 53.66 53.216562 
L 73.66 53.216562 
" style="fill:none;stroke:#ff7f0e;stroke-linecap:square;stroke-width:1.5;"/>
    </g>
    <g id="line2d_36"/>
    <g id="text_20">
     <!-- Air Temp -->
     <g transform="translate(81.66 56.716562)scale(0.1 -0.1)">
      <use xlink:href="#DejaVuSans-65"/>
      <use x="68.408203" xlink:href="#DejaVuSans-105"/>
      <use x="96.191406" xlink:href="#DejaVuSans-114"/>
      <use x="137.304688" xlink:href="#DejaVuSans-32"/>
      <use x="169.091797" xlink:href="#DejaVuSans-84"/>
      <use x="213.175781" xlink:href="#DejaVuSans-101"/>
      <use x="274.699219" xlink:href="#DejaVuSans-109"/>
      <use x="372.111328" xlink:href="#DejaVuSans-112"/>
     </g>
    </g>
   </g>
  </g>
 </g>
 <defs>
  <clipPath id="p40d358d2ec">
   <rect height="230.198708" width="399.068138" x="44.66" y="25.44"/>
  </clipPath>
 </defs>
</svg>
