<?xml version="1.0" encoding="utf-8" standalone="no"?>
<!DOCTYPE svg PUBLIC "-//W3C//DTD SVG 1.1//EN"
  "http://www.w3.org/Graphics/SVG/1.1/DTD/svg11.dtd">
<!-- Created with matplotlib (https://matplotlib.org/) -->
<svg height="345.6pt" version="1.1" viewBox="0 0 460.8 345.6" width="460.8pt" xmlns="http://www.w3.org/2000/svg" xmlns:xlink="http://www.w3.org/1999/xlink">
 <metadata>
  <rdf:RDF xmlns:cc="http://creativecommons.org/ns#" xmlns:dc="http://purl.org/dc/elements/1.1/" xmlns:rdf="http://www.w3.org/1999/02/22-rdf-syntax-ns#">
   <cc:Work>
    <dc:type rdf:resource="http://purl.org/dc/dcmitype/StillImage"/>
    <dc:date>2024-11-17T20:54:11.267062</dc:date>
    <dc:format>image/svg+xml</dc:format>
    <dc:creator>
     <cc:Agent>
      <dc:title>Matplotlib v3.3.2, https://matplotlib.org/</dc:title>
     </cc:Agent>
    </dc:creator>
   </cc:Work>
  </rdf:RDF>
 </metadata>
 <defs>
  <style type="text/css">*{stroke-linecap:butt;stroke-linejoin:round;}</style>
 </defs>
 <g id="figure_1">
  <g id="patch_1">
   <path d="M 0 345.6 
L 460.8 345.6 
L 460.8 0 
L 0 0 
z
" style="fill:none;"/>
  </g>
  <g id="axes_1">
   <g id="patch_2">
    <path d="M 54.2 255.638708 
L 450 255.638708 
L 450 25.44 
L 54.2 25.44 
z
" style="fill:none;"/>
   </g>
   <g id="matplotlib.axis_1">
    <g id="xtick_1">
     <g id="line2d_1">
      <path clip-path="url(#pc05684e024)" d="M 105.087077 255.638708 
L 105.087077 25.44 
" style="fill:none;stroke:#b0b0b0;stroke-linecap:square;stroke-width:0.8;"/>
     </g>
     <g id="line2d_2">
      <defs>
       <path d="M 0 0 
L 0 3.5 
" id="mb99d9a616a" style="stroke:#000000;stroke-width:0.8;"/>
      </defs>
      <g>
       <use style="stroke:#000000;stroke-width:0.8;" x="105.087077" xlink:href="#mb99d9a616a" y="255.638708"/>
      </g>
     </g>
     <g id="text_1">
      <!-- 2024-10-29 -->
      <g transform="translate(97.741685 319.848351)rotate(-70)scale(0.1 -0.1)">
       <defs>
        <path d="M 19.1875 8.296875 
L 53.609375 8.296875 
L 53.609375 0 
L 7.328125 0 
L 7.328125 8.296875 
Q 12.9375 14.109375 22.625 23.890625 
Q 32.328125 33.6875 34.8125 36.53125 
Q 39.546875 41.84375 41.421875 45.53125 
Q 43.3125 49.21875 43.3125 52.78125 
Q 43.3125 58.59375 39.234375 62.25 
Q 35.15625 65.921875 28.609375 65.921875 
Q 23.96875 65.921875 18.8125 64.3125 
Q 13.671875 62.703125 7.8125 59.421875 
L 7.8125 69.390625 
Q 13.765625 71.78125 18.9375 73 
Q 24.125 74.21875 28.421875 74.21875 
Q 39.75 74.21875 46.484375 68.546875 
Q 53.21875 62.890625 53.21875 53.421875 
Q 53.21875 48.921875 51.53125 44.890625 
Q 49.859375 40.875 45.40625 35.40625 
Q 44.1875 33.984375 37.640625 27.21875 
Q 31.109375 20.453125 19.1875 8.296875 
z
" id="DejaVuSans-50"/>
        <path d="M 31.78125 66.40625 
Q 24.171875 66.40625 20.328125 58.90625 
Q 16.5 51.421875 16.5 36.375 
Q 16.5 21.390625 20.328125 13.890625 
Q 24.171875 6.390625 31.78125 6.390625 
Q 39.453125 6.390625 43.28125 13.890625 
Q 47.125 21.390625 47.125 36.375 
Q 47.125 51.421875 43.28125 58.90625 
Q 39.453125 66.40625 31.78125 66.40625 
z
M 31.78125 74.21875 
Q 44.046875 74.21875 50.515625 64.515625 
Q 56.984375 54.828125 56.984375 36.375 
Q 56.984375 17.96875 50.515625 8.265625 
Q 44.046875 -1.421875 31.78125 -1.421875 
Q 19.53125 -1.421875 13.0625 8.265625 
Q 6.59375 17.96875 6.59375 36.375 
Q 6.59375 54.828125 13.0625 64.515625 
Q 19.53125 74.21875 31.78125 74.21875 
z
" id="DejaVuSans-48"/>
        <path d="M 37.796875 64.3125 
L 12.890625 25.390625 
L 37.796875 25.390625 
z
M 35.203125 72.90625 
L 47.609375 72.90625 
L 47.609375 25.390625 
L 58.015625 25.390625 
L 58.015625 17.1875 
L 47.609375 17.1875 
L 47.609375 0 
L 37.796875 0 
L 37.796875 17.1875 
L 4.890625 17.1875 
L 4.890625 26.703125 
z
" id="DejaVuSans-52"/>
        <path d="M 4.890625 31.390625 
L 31.203125 31.390625 
L 31.203125 23.390625 
L 4.890625 23.390625 
z
" id="DejaVuSans-45"/>
        <path d="M 12.40625 8.296875 
L 28.515625 8.296875 
L 28.515625 63.921875 
L 10.984375 60.40625 
L 10.984375 69.390625 
L 28.421875 72.90625 
L 38.28125 72.90625 
L 38.28125 8.296875 
L 54.390625 8.296875 
L 54.390625 0 
L 12.40625 0 
z
" id="DejaVuSans-49"/>
        <path d="M 10.984375 1.515625 
L 10.984375 10.5 
Q 14.703125 8.734375 18.5 7.8125 
Q 22.3125 6.890625 25.984375 6.890625 
Q 35.75 6.890625 40.890625 13.453125 
Q 46.046875 20.015625 46.78125 33.40625 
Q 43.953125 29.203125 39.59375 26.953125 
Q 35.25 24.703125 29.984375 24.703125 
Q 19.046875 24.703125 12.671875 31.3125 
Q 6.296875 37.9375 6.296875 49.421875 
Q 6.296875 60.640625 12.9375 67.421875 
Q 19.578125 74.21875 30.609375 74.21875 
Q 43.265625 74.21875 49.921875 64.515625 
Q 56.59375 54.828125 56.59375 36.375 
Q 56.59375 19.140625 48.40625 8.859375 
Q 40.234375 -1.421875 26.421875 -1.421875 
Q 22.703125 -1.421875 18.890625 -0.6875 
Q 15.09375 0.046875 10.984375 1.515625 
z
M 30.609375 32.421875 
Q 37.25 32.421875 41.125 36.953125 
Q 45.015625 41.5 45.015625 49.421875 
Q 45.015625 57.28125 41.125 61.84375 
Q 37.25 66.40625 30.609375 66.40625 
Q 23.96875 66.40625 20.09375 61.84375 
Q 16.21875 57.28125 16.21875 49.421875 
Q 16.21875 41.5 20.09375 36.953125 
Q 23.96875 32.421875 30.609375 32.421875 
z
" id="DejaVuSans-57"/>
       </defs>
       <use xlink:href="#DejaVuSans-50"/>
       <use x="63.623047" xlink:href="#DejaVuSans-48"/>
       <use x="127.246094" xlink:href="#DejaVuSans-50"/>
       <use x="190.869141" xlink:href="#DejaVuSans-52"/>
       <use x="254.492188" xlink:href="#DejaVuSans-45"/>
       <use x="290.576172" xlink:href="#DejaVuSans-49"/>
       <use x="354.199219" xlink:href="#DejaVuSans-48"/>
       <use x="417.822266" xlink:href="#DejaVuSans-45"/>
       <use x="453.90625" xlink:href="#DejaVuSans-50"/>
       <use x="517.529297" xlink:href="#DejaVuSans-57"/>
      </g>
     </g>
    </g>
    <g id="xtick_2">
     <g id="line2d_3">
      <path clip-path="url(#pc05684e024)" d="M 154.443931 255.638708 
L 154.443931 25.44 
" style="fill:none;stroke:#b0b0b0;stroke-linecap:square;stroke-width:0.8;"/>
     </g>
     <g id="line2d_4">
      <g>
       <use style="stroke:#000000;stroke-width:0.8;" x="154.443931" xlink:href="#mb99d9a616a" y="255.638708"/>
      </g>
     </g>
     <g id="text_2">
      <!-- 2024-11-01 -->
      <g transform="translate(147.098538 319.848351)rotate(-70)scale(0.1 -0.1)">
       <use xlink:href="#DejaVuSans-50"/>
       <use x="63.623047" xlink:href="#DejaVuSans-48"/>
       <use x="127.246094" xlink:href="#DejaVuSans-50"/>
       <use x="190.869141" xlink:href="#DejaVuSans-52"/>
       <use x="254.492188" xlink:href="#DejaVuSans-45"/>
       <use x="290.576172" xlink:href="#DejaVuSans-49"/>
       <use x="354.199219" xlink:href="#DejaVuSans-49"/>
       <use x="417.822266" xlink:href="#DejaVuSans-45"/>
       <use x="453.90625" xlink:href="#DejaVuSans-48"/>
       <use x="517.529297" xlink:href="#DejaVuSans-49"/>
      </g>
     </g>
    </g>
    <g id="xtick_3">
     <g id="line2d_5">
      <path clip-path="url(#pc05684e024)" d="M 220.253068 255.638708 
L 220.253068 25.44 
" style="fill:none;stroke:#b0b0b0;stroke-linecap:square;stroke-width:0.8;"/>
     </g>
     <g id="line2d_6">
      <g>
       <use style="stroke:#000000;stroke-width:0.8;" x="220.253068" xlink:href="#mb99d9a616a" y="255.638708"/>
      </g>
     </g>
     <g id="text_3">
      <!-- 2024-11-05 -->
      <g transform="translate(212.907675 319.848351)rotate(-70)scale(0.1 -0.1)">
       <defs>
        <path d="M 10.796875 72.90625 
L 49.515625 72.90625 
L 49.515625 64.59375 
L 19.828125 64.59375 
L 19.828125 46.734375 
Q 21.96875 47.46875 24.109375 47.828125 
Q 26.265625 48.1875 28.421875 48.1875 
Q 40.625 48.1875 47.75 41.5 
Q 54.890625 34.8125 54.890625 23.390625 
Q 54.890625 11.625 47.5625 5.09375 
Q 40.234375 -1.421875 26.90625 -1.421875 
Q 22.3125 -1.421875 17.546875 -0.640625 
Q 12.796875 0.140625 7.71875 1.703125 
L 7.71875 11.625 
Q 12.109375 9.234375 16.796875 8.0625 
Q 21.484375 6.890625 26.703125 6.890625 
Q 35.15625 6.890625 40.078125 11.328125 
Q 45.015625 15.765625 45.015625 23.390625 
Q 45.015625 31 40.078125 35.4375 
Q 35.15625 39.890625 26.703125 39.890625 
Q 22.75 39.890625 18.8125 39.015625 
Q 14.890625 38.140625 10.796875 36.28125 
z
" id="DejaVuSans-53"/>
       </defs>
       <use xlink:href="#DejaVuSans-50"/>
       <use x="63.623047" xlink:href="#DejaVuSans-48"/>
       <use x="127.246094" xlink:href="#DejaVuSans-50"/>
       <use x="190.869141" xlink:href="#DejaVuSans-52"/>
       <use x="254.492188" xlink:href="#DejaVuSans-45"/>
       <use x="290.576172" xlink:href="#DejaVuSans-49"/>
       <use x="354.199219" xlink:href="#DejaVuSans-49"/>
       <use x="417.822266" xlink:href="#DejaVuSans-45"/>
       <use x="453.90625" xlink:href="#DejaVuSans-48"/>
       <use x="517.529297" xlink:href="#DejaVuSans-53"/>
      </g>
     </g>
    </g>
    <g id="xtick_4">
     <g id="line2d_7">
      <path clip-path="url(#pc05684e024)" d="M 286.062206 255.638708 
L 286.062206 25.44 
" style="fill:none;stroke:#b0b0b0;stroke-linecap:square;stroke-width:0.8;"/>
     </g>
     <g id="line2d_8">
      <g>
       <use style="stroke:#000000;stroke-width:0.8;" x="286.062206" xlink:href="#mb99d9a616a" y="255.638708"/>
      </g>
     </g>
     <g id="text_4">
      <!-- 2024-11-09 -->
      <g transform="translate(278.716813 319.848351)rotate(-70)scale(0.1 -0.1)">
       <use xlink:href="#DejaVuSans-50"/>
       <use x="63.623047" xlink:href="#DejaVuSans-48"/>
       <use x="127.246094" xlink:href="#DejaVuSans-50"/>
       <use x="190.869141" xlink:href="#DejaVuSans-52"/>
       <use x="254.492188" xlink:href="#DejaVuSans-45"/>
       <use x="290.576172" xlink:href="#DejaVuSans-49"/>
       <use x="354.199219" xlink:href="#DejaVuSans-49"/>
       <use x="417.822266" xlink:href="#DejaVuSans-45"/>
       <use x="453.90625" xlink:href="#DejaVuSans-48"/>
       <use x="517.529297" xlink:href="#DejaVuSans-57"/>
      </g>
     </g>
    </g>
    <g id="xtick_5">
     <g id="line2d_9">
      <path clip-path="url(#pc05684e024)" d="M 351.871344 255.638708 
L 351.871344 25.44 
" style="fill:none;stroke:#b0b0b0;stroke-linecap:square;stroke-width:0.8;"/>
     </g>
     <g id="line2d_10">
      <g>
       <use style="stroke:#000000;stroke-width:0.8;" x="351.871344" xlink:href="#mb99d9a616a" y="255.638708"/>
      </g>
     </g>
     <g id="text_5">
      <!-- 2024-11-13 -->
      <g transform="translate(344.525951 319.848351)rotate(-70)scale(0.1 -0.1)">
       <defs>
        <path d="M 40.578125 39.3125 
Q 47.65625 37.796875 51.625 33 
Q 55.609375 28.21875 55.609375 21.1875 
Q 55.609375 10.40625 48.1875 4.484375 
Q 40.765625 -1.421875 27.09375 -1.421875 
Q 22.515625 -1.421875 17.65625 -0.515625 
Q 12.796875 0.390625 7.625 2.203125 
L 7.625 11.71875 
Q 11.71875 9.328125 16.59375 8.109375 
Q 21.484375 6.890625 26.8125 6.890625 
Q 36.078125 6.890625 40.9375 10.546875 
Q 45.796875 14.203125 45.796875 21.1875 
Q 45.796875 27.640625 41.28125 31.265625 
Q 36.765625 34.90625 28.71875 34.90625 
L 20.21875 34.90625 
L 20.21875 43.015625 
L 29.109375 43.015625 
Q 36.375 43.015625 40.234375 45.921875 
Q 44.09375 48.828125 44.09375 54.296875 
Q 44.09375 59.90625 40.109375 62.90625 
Q 36.140625 65.921875 28.71875 65.921875 
Q 24.65625 65.921875 20.015625 65.03125 
Q 15.375 64.15625 9.8125 62.3125 
L 9.8125 71.09375 
Q 15.4375 72.65625 20.34375 73.4375 
Q 25.25 74.21875 29.59375 74.21875 
Q 40.828125 74.21875 47.359375 69.109375 
Q 53.90625 64.015625 53.90625 55.328125 
Q 53.90625 49.265625 50.4375 45.09375 
Q 46.96875 40.921875 40.578125 39.3125 
z
" id="DejaVuSans-51"/>
       </defs>
       <use xlink:href="#DejaVuSans-50"/>
       <use x="63.623047" xlink:href="#DejaVuSans-48"/>
       <use x="127.246094" xlink:href="#DejaVuSans-50"/>
       <use x="190.869141" xlink:href="#DejaVuSans-52"/>
       <use x="254.492188" xlink:href="#DejaVuSans-45"/>
       <use x="290.576172" xlink:href="#DejaVuSans-49"/>
       <use x="354.199219" xlink:href="#DejaVuSans-49"/>
       <use x="417.822266" xlink:href="#DejaVuSans-45"/>
       <use x="453.90625" xlink:href="#DejaVuSans-49"/>
       <use x="517.529297" xlink:href="#DejaVuSans-51"/>
      </g>
     </g>
    </g>
    <g id="xtick_6">
     <g id="line2d_11">
      <path clip-path="url(#pc05684e024)" d="M 417.680481 255.638708 
L 417.680481 25.44 
" style="fill:none;stroke:#b0b0b0;stroke-linecap:square;stroke-width:0.8;"/>
     </g>
     <g id="line2d_12">
      <g>
       <use style="stroke:#000000;stroke-width:0.8;" x="417.680481" xlink:href="#mb99d9a616a" y="255.638708"/>
      </g>
     </g>
     <g id="text_6">
      <!-- 2024-11-17 -->
      <g transform="translate(410.335088 319.848351)rotate(-70)scale(0.1 -0.1)">
       <defs>
        <path d="M 8.203125 72.90625 
L 55.078125 72.90625 
L 55.078125 68.703125 
L 28.609375 0 
L 18.3125 0 
L 43.21875 64.59375 
L 8.203125 64.59375 
z
" id="DejaVuSans-55"/>
       </defs>
       <use xlink:href="#DejaVuSans-50"/>
       <use x="63.623047" xlink:href="#DejaVuSans-48"/>
       <use x="127.246094" xlink:href="#DejaVuSans-50"/>
       <use x="190.869141" xlink:href="#DejaVuSans-52"/>
       <use x="254.492188" xlink:href="#DejaVuSans-45"/>
       <use x="290.576172" xlink:href="#DejaVuSans-49"/>
       <use x="354.199219" xlink:href="#DejaVuSans-49"/>
       <use x="417.822266" xlink:href="#DejaVuSans-45"/>
       <use x="453.90625" xlink:href="#DejaVuSans-49"/>
       <use x="517.529297" xlink:href="#DejaVuSans-55"/>
      </g>
     </g>
    </g>
    <g id="text_7">
     <!-- Date -->
     <g transform="translate(240.149219 332.158083)scale(0.1 -0.1)">
      <defs>
       <path d="M 19.671875 64.796875 
L 19.671875 8.109375 
L 31.59375 8.109375 
Q 46.6875 8.109375 53.6875 14.9375 
Q 60.6875 21.78125 60.6875 36.53125 
Q 60.6875 51.171875 53.6875 57.984375 
Q 46.6875 64.796875 31.59375 64.796875 
z
M 9.8125 72.90625 
L 30.078125 72.90625 
Q 51.265625 72.90625 61.171875 64.09375 
Q 71.09375 55.28125 71.09375 36.53125 
Q 71.09375 17.671875 61.125 8.828125 
Q 51.171875 0 30.078125 0 
L 9.8125 0 
z
" id="DejaVuSans-68"/>
       <path d="M 34.28125 27.484375 
Q 23.390625 27.484375 19.1875 25 
Q 14.984375 22.515625 14.984375 16.5 
Q 14.984375 11.71875 18.140625 8.90625 
Q 21.296875 6.109375 26.703125 6.109375 
Q 34.1875 6.109375 38.703125 11.40625 
Q 43.21875 16.703125 43.21875 25.484375 
L 43.21875 27.484375 
z
M 52.203125 31.203125 
L 52.203125 0 
L 43.21875 0 
L 43.21875 8.296875 
Q 40.140625 3.328125 35.546875 0.953125 
Q 30.953125 -1.421875 24.3125 -1.421875 
Q 15.921875 -1.421875 10.953125 3.296875 
Q 6 8.015625 6 15.921875 
Q 6 25.140625 12.171875 29.828125 
Q 18.359375 34.515625 30.609375 34.515625 
L 43.21875 34.515625 
L 43.21875 35.40625 
Q 43.21875 41.609375 39.140625 45 
Q 35.0625 48.390625 27.6875 48.390625 
Q 23 48.390625 18.546875 47.265625 
Q 14.109375 46.140625 10.015625 43.890625 
L 10.015625 52.203125 
Q 14.9375 54.109375 19.578125 55.046875 
Q 24.21875 56 28.609375 56 
Q 40.484375 56 46.34375 49.84375 
Q 52.203125 43.703125 52.203125 31.203125 
z
" id="DejaVuSans-97"/>
       <path d="M 18.3125 70.21875 
L 18.3125 54.6875 
L 36.8125 54.6875 
L 36.8125 47.703125 
L 18.3125 47.703125 
L 18.3125 18.015625 
Q 18.3125 11.328125 20.140625 9.421875 
Q 21.96875 7.515625 27.59375 7.515625 
L 36.8125 7.515625 
L 36.8125 0 
L 27.59375 0 
Q 17.1875 0 13.234375 3.875 
Q 9.28125 7.765625 9.28125 18.015625 
L 9.28125 47.703125 
L 2.6875 47.703125 
L 2.6875 54.6875 
L 9.28125 54.6875 
L 9.28125 70.21875 
z
" id="DejaVuSans-116"/>
       <path d="M 56.203125 29.59375 
L 56.203125 25.203125 
L 14.890625 25.203125 
Q 15.484375 15.921875 20.484375 11.0625 
Q 25.484375 6.203125 34.421875 6.203125 
Q 39.59375 6.203125 44.453125 7.46875 
Q 49.3125 8.734375 54.109375 11.28125 
L 54.109375 2.78125 
Q 49.265625 0.734375 44.1875 -0.34375 
Q 39.109375 -1.421875 33.890625 -1.421875 
Q 20.796875 -1.421875 13.15625 6.1875 
Q 5.515625 13.8125 5.515625 26.8125 
Q 5.515625 40.234375 12.765625 48.109375 
Q 20.015625 56 32.328125 56 
Q 43.359375 56 49.78125 48.890625 
Q 56.203125 41.796875 56.203125 29.59375 
z
M 47.21875 32.234375 
Q 47.125 39.59375 43.09375 43.984375 
Q 39.0625 48.390625 32.421875 48.390625 
Q 24.90625 48.390625 20.390625 44.140625 
Q 15.875 39.890625 15.1875 32.171875 
z
" id="DejaVuSans-101"/>
      </defs>
      <use xlink:href="#DejaVuSans-68"/>
      <use x="77.001953" xlink:href="#DejaVuSans-97"/>
      <use x="138.28125" xlink:href="#DejaVuSans-116"/>
      <use x="177.490234" xlink:href="#DejaVuSans-101"/>
     </g>
    </g>
   </g>
   <g id="matplotlib.axis_2">
    <g id="ytick_1">
     <g id="line2d_13">
      <path clip-path="url(#pc05684e024)" d="M 54.2 249.512365 
L 450 249.512365 
" style="fill:none;stroke:#b0b0b0;stroke-linecap:square;stroke-width:0.8;"/>
     </g>
     <g id="line2d_14">
      <defs>
       <path d="M 0 0 
L -3.5 0 
" id="meb4e58b69d" style="stroke:#000000;stroke-width:0.8;"/>
      </defs>
      <g>
       <use style="stroke:#000000;stroke-width:0.8;" x="54.2" xlink:href="#meb4e58b69d" y="249.512365"/>
      </g>
     </g>
     <g id="text_8">
      <!-- 37.5 -->
      <g transform="translate(24.934375 253.311583)scale(0.1 -0.1)">
       <defs>
        <path d="M 10.6875 12.40625 
L 21 12.40625 
L 21 0 
L 10.6875 0 
z
" id="DejaVuSans-46"/>
       </defs>
       <use xlink:href="#DejaVuSans-51"/>
       <use x="63.623047" xlink:href="#DejaVuSans-55"/>
       <use x="127.246094" xlink:href="#DejaVuSans-46"/>
       <use x="159.033203" xlink:href="#DejaVuSans-53"/>
      </g>
     </g>
    </g>
    <g id="ytick_2">
     <g id="line2d_15">
      <path clip-path="url(#pc05684e024)" d="M 54.2 222.404651 
L 450 222.404651 
" style="fill:none;stroke:#b0b0b0;stroke-linecap:square;stroke-width:0.8;"/>
     </g>
     <g id="line2d_16">
      <g>
       <use style="stroke:#000000;stroke-width:0.8;" x="54.2" xlink:href="#meb4e58b69d" y="222.404651"/>
      </g>
     </g>
     <g id="text_9">
      <!-- 40.0 -->
      <g transform="translate(24.934375 226.203869)scale(0.1 -0.1)">
       <use xlink:href="#DejaVuSans-52"/>
       <use x="63.623047" xlink:href="#DejaVuSans-48"/>
       <use x="127.246094" xlink:href="#DejaVuSans-46"/>
       <use x="159.033203" xlink:href="#DejaVuSans-48"/>
      </g>
     </g>
    </g>
    <g id="ytick_3">
     <g id="line2d_17">
      <path clip-path="url(#pc05684e024)" d="M 54.2 195.296936 
L 450 195.296936 
" style="fill:none;stroke:#b0b0b0;stroke-linecap:square;stroke-width:0.8;"/>
     </g>
     <g id="line2d_18">
      <g>
       <use style="stroke:#000000;stroke-width:0.8;" x="54.2" xlink:href="#meb4e58b69d" y="195.296936"/>
      </g>
     </g>
     <g id="text_10">
      <!-- 42.5 -->
      <g transform="translate(24.934375 199.096155)scale(0.1 -0.1)">
       <use xlink:href="#DejaVuSans-52"/>
       <use x="63.623047" xlink:href="#DejaVuSans-50"/>
       <use x="127.246094" xlink:href="#DejaVuSans-46"/>
       <use x="159.033203" xlink:href="#DejaVuSans-53"/>
      </g>
     </g>
    </g>
    <g id="ytick_4">
     <g id="line2d_19">
      <path clip-path="url(#pc05684e024)" d="M 54.2 168.189222 
L 450 168.189222 
" style="fill:none;stroke:#b0b0b0;stroke-linecap:square;stroke-width:0.8;"/>
     </g>
     <g id="line2d_20">
      <g>
       <use style="stroke:#000000;stroke-width:0.8;" x="54.2" xlink:href="#meb4e58b69d" y="168.189222"/>
      </g>
     </g>
     <g id="text_11">
      <!-- 45.0 -->
      <g transform="translate(24.934375 171.988441)scale(0.1 -0.1)">
       <use xlink:href="#DejaVuSans-52"/>
       <use x="63.623047" xlink:href="#DejaVuSans-53"/>
       <use x="127.246094" xlink:href="#DejaVuSans-46"/>
       <use x="159.033203" xlink:href="#DejaVuSans-48"/>
      </g>
     </g>
    </g>
    <g id="ytick_5">
     <g id="line2d_21">
      <path clip-path="url(#pc05684e024)" d="M 54.2 141.081508 
L 450 141.081508 
" style="fill:none;stroke:#b0b0b0;stroke-linecap:square;stroke-width:0.8;"/>
     </g>
     <g id="line2d_22">
      <g>
       <use style="stroke:#000000;stroke-width:0.8;" x="54.2" xlink:href="#meb4e58b69d" y="141.081508"/>
      </g>
     </g>
     <g id="text_12">
      <!-- 47.5 -->
      <g transform="translate(24.934375 144.880727)scale(0.1 -0.1)">
       <use xlink:href="#DejaVuSans-52"/>
       <use x="63.623047" xlink:href="#DejaVuSans-55"/>
       <use x="127.246094" xlink:href="#DejaVuSans-46"/>
       <use x="159.033203" xlink:href="#DejaVuSans-53"/>
      </g>
     </g>
    </g>
    <g id="ytick_6">
     <g id="line2d_23">
      <path clip-path="url(#pc05684e024)" d="M 54.2 113.973794 
L 450 113.973794 
" style="fill:none;stroke:#b0b0b0;stroke-linecap:square;stroke-width:0.8;"/>
     </g>
     <g id="line2d_24">
      <g>
       <use style="stroke:#000000;stroke-width:0.8;" x="54.2" xlink:href="#meb4e58b69d" y="113.973794"/>
      </g>
     </g>
     <g id="text_13">
      <!-- 50.0 -->
      <g transform="translate(24.934375 117.773013)scale(0.1 -0.1)">
       <use xlink:href="#DejaVuSans-53"/>
       <use x="63.623047" xlink:href="#DejaVuSans-48"/>
       <use x="127.246094" xlink:href="#DejaVuSans-46"/>
       <use x="159.033203" xlink:href="#DejaVuSans-48"/>
      </g>
     </g>
    </g>
    <g id="ytick_7">
     <g id="line2d_25">
      <path clip-path="url(#pc05684e024)" d="M 54.2 86.86608 
L 450 86.86608 
" style="fill:none;stroke:#b0b0b0;stroke-linecap:square;stroke-width:0.8;"/>
     </g>
     <g id="line2d_26">
      <g>
       <use style="stroke:#000000;stroke-width:0.8;" x="54.2" xlink:href="#meb4e58b69d" y="86.86608"/>
      </g>
     </g>
     <g id="text_14">
      <!-- 52.5 -->
      <g transform="translate(24.934375 90.665299)scale(0.1 -0.1)">
       <use xlink:href="#DejaVuSans-53"/>
       <use x="63.623047" xlink:href="#DejaVuSans-50"/>
       <use x="127.246094" xlink:href="#DejaVuSans-46"/>
       <use x="159.033203" xlink:href="#DejaVuSans-53"/>
      </g>
     </g>
    </g>
    <g id="ytick_8">
     <g id="line2d_27">
      <path clip-path="url(#pc05684e024)" d="M 54.2 59.758366 
L 450 59.758366 
" style="fill:none;stroke:#b0b0b0;stroke-linecap:square;stroke-width:0.8;"/>
     </g>
     <g id="line2d_28">
      <g>
       <use style="stroke:#000000;stroke-width:0.8;" x="54.2" xlink:href="#meb4e58b69d" y="59.758366"/>
      </g>
     </g>
     <g id="text_15">
      <!-- 55.0 -->
      <g transform="translate(24.934375 63.557585)scale(0.1 -0.1)">
       <use xlink:href="#DejaVuSans-53"/>
       <use x="63.623047" xlink:href="#DejaVuSans-53"/>
       <use x="127.246094" xlink:href="#DejaVuSans-46"/>
       <use x="159.033203" xlink:href="#DejaVuSans-48"/>
      </g>
     </g>
    </g>
    <g id="ytick_9">
     <g id="line2d_29">
      <path clip-path="url(#pc05684e024)" d="M 54.2 32.650652 
L 450 32.650652 
" style="fill:none;stroke:#b0b0b0;stroke-linecap:square;stroke-width:0.8;"/>
     </g>
     <g id="line2d_30">
      <g>
       <use style="stroke:#000000;stroke-width:0.8;" x="54.2" xlink:href="#meb4e58b69d" y="32.650652"/>
      </g>
     </g>
     <g id="text_16">
      <!-- 57.5 -->
      <g transform="translate(24.934375 36.449871)scale(0.1 -0.1)">
       <use xlink:href="#DejaVuSans-53"/>
       <use x="63.623047" xlink:href="#DejaVuSans-55"/>
       <use x="127.246094" xlink:href="#DejaVuSans-46"/>
       <use x="159.033203" xlink:href="#DejaVuSans-53"/>
      </g>
     </g>
    </g>
    <g id="text_17">
     <!-- Temperature [F] -->
     <g transform="translate(18.854688 180.575291)rotate(-90)scale(0.1 -0.1)">
      <defs>
       <path d="M -0.296875 72.90625 
L 61.375 72.90625 
L 61.375 64.59375 
L 35.5 64.59375 
L 35.5 0 
L 25.59375 0 
L 25.59375 64.59375 
L -0.296875 64.59375 
z
" id="DejaVuSans-84"/>
       <path d="M 52 44.1875 
Q 55.375 50.25 60.0625 53.125 
Q 64.75 56 71.09375 56 
Q 79.640625 56 84.28125 50.015625 
Q 88.921875 44.046875 88.921875 33.015625 
L 88.921875 0 
L 79.890625 0 
L 79.890625 32.71875 
Q 79.890625 40.578125 77.09375 44.375 
Q 74.3125 48.1875 68.609375 48.1875 
Q 61.625 48.1875 57.5625 43.546875 
Q 53.515625 38.921875 53.515625 30.90625 
L 53.515625 0 
L 44.484375 0 
L 44.484375 32.71875 
Q 44.484375 40.625 41.703125 44.40625 
Q 38.921875 48.1875 33.109375 48.1875 
Q 26.21875 48.1875 22.15625 43.53125 
Q 18.109375 38.875 18.109375 30.90625 
L 18.109375 0 
L 9.078125 0 
L 9.078125 54.6875 
L 18.109375 54.6875 
L 18.109375 46.1875 
Q 21.1875 51.21875 25.484375 53.609375 
Q 29.78125 56 35.6875 56 
Q 41.65625 56 45.828125 52.96875 
Q 50 49.953125 52 44.1875 
z
" id="DejaVuSans-109"/>
       <path d="M 18.109375 8.203125 
L 18.109375 -20.796875 
L 9.078125 -20.796875 
L 9.078125 54.6875 
L 18.109375 54.6875 
L 18.109375 46.390625 
Q 20.953125 51.265625 25.265625 53.625 
Q 29.59375 56 35.59375 56 
Q 45.5625 56 51.78125 48.09375 
Q 58.015625 40.1875 58.015625 27.296875 
Q 58.015625 14.40625 51.78125 6.484375 
Q 45.5625 -1.421875 35.59375 -1.421875 
Q 29.59375 -1.421875 25.265625 0.953125 
Q 20.953125 3.328125 18.109375 8.203125 
z
M 48.6875 27.296875 
Q 48.6875 37.203125 44.609375 42.84375 
Q 40.53125 48.484375 33.40625 48.484375 
Q 26.265625 48.484375 22.1875 42.84375 
Q 18.109375 37.203125 18.109375 27.296875 
Q 18.109375 17.390625 22.1875 11.75 
Q 26.265625 6.109375 33.40625 6.109375 
Q 40.53125 6.109375 44.609375 11.75 
Q 48.6875 17.390625 48.6875 27.296875 
z
" id="DejaVuSans-112"/>
       <path d="M 41.109375 46.296875 
Q 39.59375 47.171875 37.8125 47.578125 
Q 36.03125 48 33.890625 48 
Q 26.265625 48 22.1875 43.046875 
Q 18.109375 38.09375 18.109375 28.8125 
L 18.109375 0 
L 9.078125 0 
L 9.078125 54.6875 
L 18.109375 54.6875 
L 18.109375 46.1875 
Q 20.953125 51.171875 25.484375 53.578125 
Q 30.03125 56 36.53125 56 
Q 37.453125 56 38.578125 55.875 
Q 39.703125 55.765625 41.0625 55.515625 
z
" id="DejaVuSans-114"/>
       <path d="M 8.5 21.578125 
L 8.5 54.6875 
L 17.484375 54.6875 
L 17.484375 21.921875 
Q 17.484375 14.15625 20.5 10.265625 
Q 23.53125 6.390625 29.59375 6.390625 
Q 36.859375 6.390625 41.078125 11.03125 
Q 45.3125 15.671875 45.3125 23.6875 
L 45.3125 54.6875 
L 54.296875 54.6875 
L 54.296875 0 
L 45.3125 0 
L 45.3125 8.40625 
Q 42.046875 3.421875 37.71875 1 
Q 33.40625 -1.421875 27.6875 -1.421875 
Q 18.265625 -1.421875 13.375 4.4375 
Q 8.5 10.296875 8.5 21.578125 
z
M 31.109375 56 
z
" id="DejaVuSans-117"/>
       <path id="DejaVuSans-32"/>
       <path d="M 8.59375 75.984375 
L 29.296875 75.984375 
L 29.296875 69 
L 17.578125 69 
L 17.578125 -6.203125 
L 29.296875 -6.203125 
L 29.296875 -13.1875 
L 8.59375 -13.1875 
z
" id="DejaVuSans-91"/>
       <path d="M 9.8125 72.90625 
L 51.703125 72.90625 
L 51.703125 64.59375 
L 19.671875 64.59375 
L 19.671875 43.109375 
L 48.578125 43.109375 
L 48.578125 34.8125 
L 19.671875 34.8125 
L 19.671875 0 
L 9.8125 0 
z
" id="DejaVuSans-70"/>
       <path d="M 30.421875 75.984375 
L 30.421875 -13.1875 
L 9.71875 -13.1875 
L 9.71875 -6.203125 
L 21.390625 -6.203125 
L 21.390625 69 
L 9.71875 69 
L 9.71875 75.984375 
z
" id="DejaVuSans-93"/>
      </defs>
      <use xlink:href="#DejaVuSans-84"/>
      <use x="44.083984" xlink:href="#DejaVuSans-101"/>
      <use x="105.607422" xlink:href="#DejaVuSans-109"/>
      <use x="203.019531" xlink:href="#DejaVuSans-112"/>
      <use x="266.496094" xlink:href="#DejaVuSans-101"/>
      <use x="328.019531" xlink:href="#DejaVuSans-114"/>
      <use x="369.132812" xlink:href="#DejaVuSans-97"/>
      <use x="430.412109" xlink:href="#DejaVuSans-116"/>
      <use x="469.621094" xlink:href="#DejaVuSans-117"/>
      <use x="533" xlink:href="#DejaVuSans-114"/>
      <use x="571.863281" xlink:href="#DejaVuSans-101"/>
      <use x="633.386719" xlink:href="#DejaVuSans-32"/>
      <use x="665.173828" xlink:href="#DejaVuSans-91"/>
      <use x="704.1875" xlink:href="#DejaVuSans-70"/>
      <use x="761.707031" xlink:href="#DejaVuSans-93"/>
     </g>
    </g>
   </g>
   <g id="line2d_31">
    <path clip-path="url(#pc05684e024)" d="M 72.190909 52.168206 
L 72.226714 52.168206 
L 72.238564 51.083898 
L 72.337374 52.168206 
L 73.716254 52.168206 
L 73.808581 53.252515 
L 73.821926 52.168206 
L 73.836901 52.168206 
L 73.946908 53.252515 
L 74.030841 52.168206 
L 74.054404 53.252515 
L 74.066637 53.252515 
L 74.142567 52.168206 
L 74.167958 53.252515 
L 74.179736 53.252515 
L 74.263623 52.168206 
L 74.28741 53.252515 
L 74.299224 53.252515 
L 74.421047 52.168206 
L 74.537352 53.252515 
L 74.619708 53.252515 
L 74.705237 52.168206 
L 74.728988 53.252515 
L 74.741511 53.252515 
L 74.755238 52.168206 
L 74.841261 53.252515 
L 75.277342 53.252515 
L 75.39685 54.336823 
L 75.515758 53.252515 
L 75.527534 53.252515 
L 75.575251 54.336823 
L 75.635823 53.252515 
L 75.659683 53.252515 
L 75.67177 54.336823 
L 75.767377 53.252515 
L 75.803117 53.252515 
L 75.911555 54.336823 
L 76.0322 53.252515 
L 76.067844 53.252515 
L 76.189162 54.336823 
L 76.236932 54.336823 
L 76.249803 53.252515 
L 76.347534 54.336823 
L 76.513784 54.336823 
L 76.613521 55.421132 
L 76.763413 55.421132 
L 76.88372 56.50544 
L 76.955812 56.50544 
L 77.076881 57.589749 
L 77.088971 57.589749 
L 77.208735 56.50544 
L 77.292972 56.50544 
L 77.304827 55.421132 
L 77.400469 56.50544 
L 77.697783 56.50544 
L 77.806047 57.589749 
L 77.912543 56.50544 
L 78.03203 57.589749 
L 78.09183 57.589749 
L 78.176676 56.50544 
L 78.247418 57.589749 
L 78.283142 56.50544 
L 78.318942 56.50544 
L 78.38805 57.589749 
L 78.423525 56.50544 
L 78.459125 56.50544 
L 78.482796 57.589749 
L 78.566484 56.50544 
L 78.879072 56.50544 
L 78.890937 57.589749 
L 78.986362 56.50544 
L 79.059012 56.50544 
L 79.072387 57.589749 
L 79.158572 56.50544 
L 79.182589 56.50544 
L 79.194409 55.421132 
L 79.254938 57.589749 
L 79.291087 56.50544 
L 79.350411 56.50544 
L 79.446053 57.589749 
L 79.45796 56.50544 
L 79.481602 56.50544 
L 79.60156 57.589749 
L 79.720859 56.50544 
L 79.794174 56.50544 
L 79.877237 57.589749 
L 79.901598 56.50544 
L 80.113588 56.50544 
L 80.125423 55.421132 
L 80.199566 56.50544 
L 80.270965 56.50544 
L 80.36698 55.421132 
L 80.378991 56.50544 
L 80.416545 56.50544 
L 80.428868 55.421132 
L 80.524726 56.50544 
L 80.548483 56.50544 
L 80.633227 55.421132 
L 80.657263 56.50544 
L 80.813828 56.50544 
L 80.934796 55.421132 
L 80.98579 55.421132 
L 81.106855 56.50544 
L 81.119064 56.50544 
L 81.240419 55.421132 
L 81.361022 56.50544 
L 81.67822 56.50544 
L 81.777019 57.589749 
L 81.789212 56.50544 
L 83.039573 56.50544 
L 83.087346 55.421132 
L 83.147405 56.50544 
L 83.159222 56.50544 
L 83.219476 55.421132 
L 83.267328 56.50544 
L 83.469377 56.50544 
L 83.590466 57.589749 
L 83.602393 57.589749 
L 83.722364 56.50544 
L 83.818731 56.50544 
L 83.938464 57.589749 
L 84.094132 57.589749 
L 84.105946 56.50544 
L 84.204964 57.589749 
L 84.216774 57.589749 
L 84.229563 58.674057 
L 84.326834 57.589749 
L 84.400813 58.674057 
L 84.436302 57.589749 
L 84.532704 57.589749 
L 84.640632 58.674057 
L 84.664291 57.589749 
L 84.748712 58.674057 
L 84.76073 58.674057 
L 84.868468 57.589749 
L 84.964458 58.674057 
L 84.976269 57.589749 
L 84.988206 57.589749 
L 85.108005 58.674057 
L 85.336089 58.674057 
L 85.372181 59.758366 
L 85.444761 58.674057 
L 85.456552 58.674057 
L 85.565693 59.758366 
L 85.686517 58.674057 
L 85.698365 58.674057 
L 85.770741 59.758366 
L 85.807286 58.674057 
L 85.819297 58.674057 
L 85.940116 59.758366 
L 86.059725 57.589749 
L 86.143925 58.674057 
L 86.167755 57.589749 
L 86.228857 57.589749 
L 86.348587 58.674057 
L 86.707727 58.674057 
L 86.828338 59.758366 
L 87.129427 59.758366 
L 87.224482 58.674057 
L 87.2365 59.758366 
L 87.308373 59.758366 
L 87.320191 58.674057 
L 87.416636 59.758366 
L 87.476886 59.758366 
L 87.501342 58.674057 
L 87.584481 59.758366 
L 87.679602 59.758366 
L 87.801368 58.674057 
L 87.920459 59.758366 
L 88.279724 59.758366 
L 88.374938 61.926983 
L 88.386951 59.758366 
L 88.435539 59.758366 
L 88.554205 61.926983 
L 88.566026 61.926983 
L 88.684644 59.758366 
L 88.804307 61.926983 
L 88.887963 61.926983 
L 89.006978 59.758366 
L 89.126547 61.926983 
L 89.162388 61.926983 
L 89.270107 59.758366 
L 89.390694 61.926983 
L 89.67705 61.926983 
L 89.689064 59.758366 
L 89.785086 61.926983 
L 89.880155 61.926983 
L 89.999991 59.758366 
L 90.122808 61.926983 
L 90.23799 59.758366 
L 90.383223 59.758366 
L 90.491976 61.926983 
L 90.61259 59.758366 
L 90.624407 59.758366 
L 90.745045 61.926983 
L 90.805049 59.758366 
L 90.852746 61.926983 
L 90.912841 61.926983 
L 90.936472 59.758366 
L 90.972427 63.011292 
L 91.020665 61.926983 
L 91.069243 61.926983 
L 91.081074 63.011292 
L 91.117149 59.758366 
L 91.177127 61.926983 
L 91.201162 61.926983 
L 91.322708 59.758366 
L 91.418662 59.758366 
L 91.430899 61.926983 
L 91.527797 59.758366 
L 91.563218 59.758366 
L 91.598775 58.674057 
L 91.671202 59.758366 
L 91.815492 59.758366 
L 91.827284 61.926983 
L 91.924142 59.758366 
L 92.201303 59.758366 
L 92.274462 61.926983 
L 92.310103 59.758366 
L 92.515373 59.758366 
L 92.63606 61.926983 
L 92.877845 61.926983 
L 92.889681 59.758366 
L 92.985376 61.926983 
L 93.773016 61.926983 
L 93.834356 63.011292 
L 93.882011 61.926983 
L 93.918168 61.926983 
L 94.03738 63.011292 
L 94.145917 61.926983 
L 94.266693 63.011292 
L 94.290444 63.011292 
L 94.410813 61.926983 
L 94.449483 61.926983 
L 94.569917 63.011292 
L 94.594517 61.926983 
L 94.679553 63.011292 
L 94.716112 63.011292 
L 94.727929 61.926983 
L 94.813956 63.011292 
L 94.968849 63.011292 
L 95.091052 64.0956 
L 95.154145 64.0956 
L 95.252909 63.011292 
L 95.265088 64.0956 
L 95.276927 64.0956 
L 95.397487 61.926983 
L 95.517081 63.011292 
L 95.601436 63.011292 
L 95.69733 61.926983 
L 95.709497 63.011292 
L 95.805843 63.011292 
L 95.817639 61.926983 
L 95.913382 63.011292 
L 95.949773 63.011292 
L 95.961581 61.926983 
L 96.056817 63.011292 
L 96.104993 63.011292 
L 96.225842 61.926983 
L 96.333085 61.926983 
L 96.344894 63.011292 
L 96.440218 61.926983 
L 96.618992 61.926983 
L 96.738233 59.758366 
L 97.005919 59.758366 
L 97.017788 61.926983 
L 97.113202 59.758366 
L 97.268608 59.758366 
L 97.390969 58.674057 
L 97.439322 59.758366 
L 97.498913 58.674057 
L 97.534638 58.674057 
L 97.642217 57.589749 
L 97.69028 58.674057 
L 97.751107 57.589749 
L 97.81036 57.589749 
L 97.931643 56.50544 
L 98.015875 56.50544 
L 98.135914 55.421132 
L 98.159705 55.421132 
L 98.271946 53.252515 
L 98.393892 54.336823 
L 98.516384 52.168206 
L 98.604785 53.252515 
L 98.543368 51.083898 
L 98.616769 52.168206 
L 98.775122 52.168206 
L 98.88667 51.083898 
L 98.924207 48.91528 
L 98.996126 52.168206 
L 99.044655 51.083898 
L 99.05667 53.252515 
L 99.080833 53.252515 
L 99.129558 54.336823 
L 99.104911 51.083898 
L 99.176787 52.168206 
L 99.188837 48.91528 
L 99.200685 54.336823 
L 99.273642 54.336823 
L 99.297232 54.336823 
L 99.309685 55.421132 
L 99.357203 53.252515 
L 99.39363 53.252515 
L 99.528178 47.830972 
L 99.551991 47.830972 
L 99.670626 48.91528 
L 99.730552 48.91528 
L 99.83905 51.083898 
L 99.950391 48.91528 
L 100.071098 51.083898 
L 100.082899 51.083898 
L 100.202908 52.168206 
L 100.314639 52.168206 
L 100.434593 53.252515 
L 100.62912 53.252515 
L 100.750677 54.336823 
L 100.786517 54.336823 
L 100.798578 53.252515 
L 100.893335 54.336823 
L 100.929793 54.336823 
L 101.050108 55.421132 
L 101.75236 55.421132 
L 101.764361 56.50544 
L 101.86096 55.421132 
L 101.872778 55.421132 
L 101.909126 56.50544 
L 101.982992 55.421132 
L 102.019316 55.421132 
L 102.140511 56.50544 
L 102.612231 56.50544 
L 102.731836 57.589749 
L 102.743961 57.589749 
L 102.828816 56.50544 
L 102.85251 57.589749 
L 103.010195 57.589749 
L 103.02269 58.674057 
L 103.109222 57.589749 
L 103.421958 57.589749 
L 103.518315 58.674057 
L 103.530251 57.589749 
L 103.566396 57.589749 
L 103.674698 58.674057 
L 103.783159 57.589749 
L 103.9042 58.674057 
L 103.916407 57.589749 
L 104.012265 58.674057 
L 104.181934 58.674057 
L 104.229543 57.589749 
L 104.289852 58.674057 
L 104.339579 58.674057 
L 104.460058 57.589749 
L 104.58001 58.674057 
L 105.215482 58.674057 
L 105.227301 57.589749 
L 105.322489 58.674057 
L 105.405876 58.674057 
L 105.418274 59.758366 
L 105.513349 58.674057 
L 105.800827 58.674057 
L 105.919126 59.758366 
L 106.002546 59.758366 
L 106.097091 58.674057 
L 106.109163 59.758366 
L 106.132798 59.758366 
L 106.216762 58.674057 
L 106.240435 59.758366 
L 106.420141 59.758366 
L 106.531517 61.926983 
L 106.578867 59.758366 
L 106.626395 61.926983 
L 106.729007 61.926983 
L 106.753126 59.758366 
L 106.837072 61.926983 
L 106.872929 61.926983 
L 106.968567 59.758366 
L 106.980618 61.926983 
L 106.992786 61.926983 
L 107.088466 59.758366 
L 107.100302 61.926983 
L 107.11243 61.926983 
L 107.233317 59.758366 
L 107.34096 59.758366 
L 107.352884 61.926983 
L 107.448295 59.758366 
L 107.677206 59.758366 
L 107.724941 61.926983 
L 107.785348 59.758366 
L 107.821263 59.758366 
L 107.905425 61.926983 
L 107.929485 59.758366 
L 108.122762 59.758366 
L 108.242605 61.926983 
L 108.266432 61.926983 
L 108.386746 59.758366 
L 108.39895 59.758366 
L 108.51957 61.926983 
L 108.592429 61.926983 
L 108.653414 59.758366 
L 108.701847 61.926983 
L 108.75099 61.926983 
L 108.763661 59.758366 
L 108.851096 61.926983 
L 108.863969 61.926983 
L 108.938107 59.758366 
L 108.974949 61.926983 
L 109.011299 61.926983 
L 109.023118 59.758366 
L 109.047328 61.926983 
L 109.144197 61.926983 
L 109.179933 59.758366 
L 109.254338 61.926983 
L 109.302772 61.926983 
L 109.374896 59.758366 
L 109.410877 61.926983 
L 109.483067 61.926983 
L 109.543202 59.758366 
L 109.591482 61.926983 
L 109.932599 61.926983 
L 110.048734 63.011292 
L 110.084322 61.926983 
L 110.155472 63.011292 
L 110.56101 63.011292 
L 110.633353 64.0956 
L 110.670404 63.011292 
L 111.100987 63.011292 
L 111.136455 61.926983 
L 111.208063 63.011292 
L 111.548726 63.011292 
L 111.669782 61.926983 
L 111.790118 63.011292 
L 111.838607 63.011292 
L 111.957562 61.926983 
L 112.053913 61.926983 
L 112.17333 59.758366 
L 112.293475 59.758366 
L 112.305334 58.674057 
L 112.401289 59.758366 
L 112.440044 59.758366 
L 112.537104 58.674057 
L 112.550005 59.758366 
L 112.705191 59.758366 
L 112.71712 58.674057 
L 112.812312 59.758366 
L 113.042016 59.758366 
L 113.089564 58.674057 
L 113.14973 59.758366 
L 113.185523 59.758366 
L 113.29303 58.674057 
L 113.656507 58.674057 
L 114.192778 57.589749 
L 114.431937 57.589749 
L 114.552904 56.50544 
L 114.940418 56.50544 
L 115.06221 55.421132 
L 115.14577 55.421132 
L 115.277679 53.252515 
L 115.397009 54.336823 
L 115.710561 54.336823 
L 115.722414 53.252515 
L 115.817881 54.336823 
L 115.841632 54.336823 
L 115.961119 53.252515 
L 115.996582 53.252515 
L 116.117778 55.421132 
L 116.141488 55.421132 
L 116.153542 54.336823 
L 116.250143 55.421132 
L 116.422299 55.421132 
L 116.517393 56.50544 
L 116.529655 55.421132 
L 116.565673 55.421132 
L 116.689686 56.50544 
L 116.943215 56.50544 
L 117.040795 57.589749 
L 117.052803 56.50544 
L 117.07645 56.50544 
L 117.196352 57.589749 
L 117.341137 57.589749 
L 117.352956 56.50544 
L 117.451057 57.589749 
L 117.754538 57.589749 
L 117.865292 58.674057 
L 117.917197 58.674057 
L 117.965142 57.589749 
L 118.026458 58.674057 
L 118.222755 58.674057 
L 118.330894 59.758366 
L 118.40355 58.674057 
L 118.440698 59.758366 
L 118.453117 59.758366 
L 118.465986 58.674057 
L 118.561886 59.758366 
L 118.659234 59.758366 
L 118.671153 61.926983 
L 118.733787 59.758366 
L 118.856169 59.758366 
L 118.978066 61.926983 
L 119.001703 61.926983 
L 119.122403 59.758366 
L 119.242116 61.926983 
L 119.457949 61.926983 
L 119.469794 63.011292 
L 119.565267 61.926983 
L 120.287399 61.926983 
L 120.395695 63.011292 
L 120.503759 61.926983 
L 120.57852 63.011292 
L 120.602526 61.926983 
L 120.662683 61.926983 
L 120.783422 63.011292 
L 120.819571 63.011292 
L 120.831348 61.926983 
L 120.927803 63.011292 
L 120.952632 63.011292 
L 121.065142 61.926983 
L 121.103342 61.926983 
L 121.227418 63.011292 
L 121.397057 63.011292 
L 121.469004 61.926983 
L 121.504581 63.011292 
L 121.768592 63.011292 
L 121.780957 64.0956 
L 121.877398 63.011292 
L 121.998497 63.011292 
L 122.010518 64.0956 
L 122.106245 63.011292 
L 122.285387 63.011292 
L 122.309622 64.0956 
L 122.393974 63.011292 
L 122.417604 63.011292 
L 122.538304 64.0956 
L 122.562409 64.0956 
L 122.68193 63.011292 
L 122.801351 64.0956 
L 122.813166 64.0956 
L 122.837432 63.011292 
L 122.908671 64.0956 
L 122.947441 64.0956 
L 123.067279 63.011292 
L 123.180991 64.0956 
L 123.31343 64.0956 
L 123.420785 65.179909 
L 123.539284 64.0956 
L 123.551301 64.0956 
L 123.674029 65.179909 
L 123.709829 65.179909 
L 123.746914 64.0956 
L 123.818597 65.179909 
L 124.288683 65.179909 
L 124.336457 66.264217 
L 124.396513 65.179909 
L 124.408329 65.179909 
L 124.516542 66.264217 
L 124.637131 65.179909 
L 124.660804 65.179909 
L 124.781345 66.264217 
L 125.004474 66.264217 
L 125.128578 65.179909 
L 125.198356 66.264217 
L 125.225967 65.179909 
L 125.30178 65.179909 
L 125.415613 66.264217 
L 125.474156 66.264217 
L 125.596642 65.179909 
L 125.609239 65.179909 
L 125.721132 66.264217 
L 126.173455 66.264217 
L 126.286103 67.348526 
L 126.464104 67.348526 
L 126.488147 68.432835 
L 126.565319 67.348526 
L 126.632111 67.348526 
L 126.75355 68.432835 
L 126.837479 67.348526 
L 126.861325 68.432835 
L 127.029619 68.432835 
L 127.124949 67.348526 
L 127.136806 68.432835 
L 127.400472 68.432835 
L 127.519893 67.348526 
L 127.531696 67.348526 
L 127.652759 68.432835 
L 127.749121 68.432835 
L 127.86011 67.348526 
L 127.998574 67.348526 
L 128.096402 68.432835 
L 128.2148 67.348526 
L 128.870941 67.348526 
L 128.882885 68.432835 
L 128.981142 67.348526 
L 129.139801 67.348526 
L 129.152074 68.432835 
L 129.23993 67.348526 
L 129.399333 67.348526 
L 129.41135 68.432835 
L 129.499372 67.348526 
L 129.559315 67.348526 
L 129.571838 66.264217 
L 129.666981 67.348526 
L 129.822153 67.348526 
L 129.833985 68.432835 
L 129.929404 67.348526 
L 130.22717 67.348526 
L 130.255735 68.432835 
L 130.330897 67.348526 
L 131.081704 68.432835 
L 131.875109 68.432835 
L 131.88713 67.348526 
L 131.984385 68.432835 
L 132.779946 68.432835 
L 132.839533 70.601452 
L 132.887016 68.432835 
L 132.910605 68.432835 
L 132.922562 70.601452 
L 133.01873 68.432835 
L 133.138337 68.432835 
L 133.233694 70.601452 
L 133.24551 68.432835 
L 133.281253 68.432835 
L 133.401698 70.601452 
L 133.510741 68.432835 
L 133.631162 70.601452 
L 133.742286 68.432835 
L 133.875106 68.432835 
L 133.969789 70.601452 
L 133.983202 68.432835 
L 134.100899 70.601452 
L 134.927872 71.68576 
L 135.039203 71.68576 
L 135.087165 72.770069 
L 135.483705 71.68576 
L 135.596291 72.770069 
L 135.718864 71.68576 
L 135.769452 72.770069 
L 135.818739 71.68576 
L 135.89232 71.68576 
L 135.929775 72.770069 
L 135.99033 71.68576 
L 136.065988 71.68576 
L 136.185373 72.770069 
L 136.197838 72.770069 
L 136.248873 71.68576 
L 136.29692 72.770069 
L 136.701386 72.770069 
L 136.799818 73.854377 
L 136.812217 72.770069 
L 136.883941 73.854377 
L 136.921686 72.770069 
L 136.933528 72.770069 
L 137.041725 73.854377 
L 137.160553 72.770069 
L 137.196753 73.854377 
L 137.268541 72.770069 
L 137.280364 72.770069 
L 137.327746 73.854377 
L 137.387362 72.770069 
L 137.410998 72.770069 
L 137.529913 73.854377 
L 137.542037 73.854377 
L 137.648538 72.770069 
L 137.759766 73.854377 
L 137.787181 73.854377 
L 137.907681 74.938686 
L 137.943757 74.938686 
L 137.992381 73.854377 
L 138.052298 74.938686 
L 138.100567 74.938686 
L 138.124631 76.022994 
L 138.136418 73.854377 
L 138.19698 73.854377 
L 138.280085 73.854377 
L 138.2919 74.938686 
L 138.386785 73.854377 
L 138.64779 73.854377 
L 138.707385 76.022994 
L 138.761005 74.938686 
L 138.879931 73.854377 
L 139.010515 73.854377 
L 139.128749 74.938686 
L 139.235811 73.854377 
L 139.24762 74.938686 
L 139.342296 73.854377 
L 139.354094 73.854377 
L 139.502209 74.938686 
L 139.514415 74.938686 
L 139.526386 73.854377 
L 139.61796 74.938686 
L 139.656611 74.938686 
L 139.681138 76.022994 
L 139.704895 73.854377 
L 139.764554 74.938686 
L 139.788695 73.854377 
L 139.872951 74.938686 
L 140.399564 74.938686 
L 140.423369 76.022994 
L 140.5079 74.938686 
L 140.628138 74.938686 
L 140.74976 77.107303 
L 140.859981 76.022994 
L 140.871971 77.107303 
L 140.968508 76.022994 
L 141.283898 76.022994 
L 141.409392 77.107303 
L 141.4216 77.107303 
L 141.540642 78.191612 
L 141.65621 76.022994 
L 141.750574 76.022994 
L 141.86177 77.107303 
L 142.164515 77.107303 
L 142.17816 76.022994 
L 142.268003 77.107303 
L 142.357479 77.107303 
L 142.494768 76.022994 
L 142.813904 76.022994 
L 142.852675 74.938686 
L 142.912996 76.022994 
L 143.177101 76.022994 
L 143.18947 77.107303 
L 143.283457 76.022994 
L 143.582477 76.022994 
L 143.595444 77.107303 
L 143.691827 76.022994 
L 143.80319 76.022994 
L 143.926029 77.107303 
L 143.981492 77.107303 
L 144.050437 76.022994 
L 144.063539 77.107303 
L 144.183431 76.022994 
L 144.303689 77.107303 
L 144.417207 76.022994 
L 144.45504 76.022994 
L 144.553201 77.107303 
L 144.565039 76.022994 
L 144.57789 76.022994 
L 144.647484 77.107303 
L 144.687668 76.022994 
L 144.791053 77.107303 
L 144.878617 76.022994 
L 144.890394 77.107303 
L 144.96783 77.107303 
L 145.090245 76.022994 
L 145.448332 76.022994 
L 145.571994 74.938686 
L 145.994462 74.938686 
L 146.11388 73.854377 
L 146.12567 73.854377 
L 146.137506 74.938686 
L 146.230658 73.854377 
L 146.2434 73.854377 
L 146.2554 74.938686 
L 146.350252 73.854377 
L 146.60673 73.854377 
L 146.719199 72.770069 
L 146.731248 72.770069 
L 146.83834 73.854377 
L 146.958687 72.770069 
L 147.031226 72.770069 
L 147.151503 71.68576 
L 147.163325 71.68576 
L 147.282777 72.770069 
L 147.342321 72.770069 
L 147.463179 71.68576 
L 147.610446 71.68576 
L 147.731296 70.601452 
L 147.779341 70.601452 
L 147.900662 68.432835 
L 147.924842 70.601452 
L 148.009228 68.432835 
L 148.06962 68.432835 
L 148.09406 70.601452 
L 148.410718 70.601452 
L 148.464911 68.432835 
L 148.478498 70.601452 
L 148.524818 70.601452 
L 148.638416 68.432835 
L 148.665345 68.432835 
L 148.759827 70.601452 
L 148.771687 68.432835 
L 148.842674 68.432835 
L 148.952218 71.68576 
L 148.964023 70.601452 
L 149.078997 71.68576 
L 149.131923 70.601452 
L 149.164143 71.68576 
L 149.214383 71.68576 
L 149.305702 70.601452 
L 149.320608 71.68576 
L 149.332446 71.68576 
L 149.386082 70.601452 
L 149.424713 71.68576 
L 149.50348 71.68576 
L 149.515297 70.601452 
L 149.611967 71.68576 
L 149.866314 71.68576 
L 149.97563 72.770069 
L 150.05936 71.68576 
L 150.083189 72.770069 
L 150.394651 72.770069 
L 150.406815 73.854377 
L 150.501565 72.770069 
L 150.514139 72.770069 
L 150.53804 73.854377 
L 150.623447 72.770069 
L 150.781737 72.770069 
L 150.858408 73.854377 
L 150.884287 72.770069 
L 150.992242 72.770069 
L 151.112319 73.854377 
L 151.124174 72.770069 
L 151.219925 73.854377 
L 151.618048 73.854377 
L 151.63029 74.938686 
L 151.72697 73.854377 
L 151.799617 73.854377 
L 151.911665 74.938686 
L 152.222751 74.938686 
L 152.234971 73.854377 
L 152.330306 74.938686 
L 152.518135 74.938686 
L 152.579747 76.022994 
L 152.628334 74.938686 
L 152.652789 74.938686 
L 152.764248 76.022994 
L 152.887522 74.938686 
L 153.000811 76.022994 
L 153.025307 76.022994 
L 153.125796 74.938686 
L 153.137969 76.022994 
L 153.235538 74.938686 
L 153.283591 74.938686 
L 153.406907 76.022994 
L 153.41876 76.022994 
L 153.538912 74.938686 
L 153.550798 74.938686 
L 153.671965 76.022994 
L 153.683878 74.938686 
L 153.780129 76.022994 
L 153.879909 76.022994 
L 154.002318 77.107303 
L 154.33405 77.107303 
L 154.456781 76.022994 
L 154.517145 76.022994 
L 154.529254 77.107303 
L 154.625122 76.022994 
L 154.673175 76.022994 
L 154.757023 77.107303 
L 154.78058 76.022994 
L 154.875542 76.022994 
L 154.995539 77.107303 
L 155.116314 77.107303 
L 155.223483 78.191612 
L 155.343654 77.107303 
L 155.935394 77.107303 
L 155.947288 76.022994 
L 156.036542 77.107303 
L 156.164933 77.107303 
L 156.262262 78.191612 
L 156.274716 77.107303 
L 156.286572 77.107303 
L 156.396318 78.191612 
L 156.505408 77.107303 
L 156.62592 78.191612 
L 156.649845 78.191612 
L 156.661661 77.107303 
L 156.758118 78.191612 
L 156.806269 78.191612 
L 156.927278 79.27592 
L 157.047664 78.191612 
L 157.191786 78.191612 
L 157.203605 79.27592 
L 157.299367 78.191612 
L 157.371313 78.191612 
L 157.39497 79.27592 
L 157.47957 78.191612 
L 157.53881 78.191612 
L 157.622191 79.27592 
L 157.646389 78.191612 
L 157.742306 78.191612 
L 157.862105 79.27592 
L 158.18761 79.27592 
L 158.308054 78.191612 
L 158.344242 78.191612 
L 158.451472 79.27592 
L 158.559553 78.191612 
L 158.680407 79.27592 
L 158.908005 79.27592 
L 158.919967 81.444537 
L 159.017879 79.27592 
L 159.382558 79.27592 
L 159.395274 81.444537 
L 159.483929 79.27592 
L 159.521019 79.27592 
L 159.627641 81.444537 
L 159.746778 79.27592 
L 159.973944 79.27592 
L 160.093555 81.444537 
L 160.22451 81.444537 
L 160.344358 82.528846 
L 160.356167 82.528846 
L 160.463185 81.444537 
L 160.5139 81.444537 
L 160.525855 82.528846 
L 160.613092 81.444537 
L 160.687597 79.27592 
L 160.69986 81.444537 
L 161.126231 81.444537 
L 161.225732 79.27592 
L 161.339031 81.444537 
L 161.449097 79.27592 
L 161.562658 81.444537 
L 161.678221 79.27592 
L 161.691811 79.27592 
L 161.780562 81.444537 
L 161.79458 79.27592 
L 161.808309 79.27592 
L 161.836587 81.444537 
L 161.900702 79.27592 
L 161.935444 79.27592 
L 162.053935 81.444537 
L 162.172399 79.27592 
L 162.185285 81.444537 
L 162.27995 79.27592 
L 162.430869 79.27592 
L 162.542874 78.191612 
L 162.652485 79.27592 
L 162.766462 78.191612 
L 162.830504 78.191612 
L 162.943994 79.27592 
L 163.062929 78.191612 
L 163.14794 79.27592 
L 163.160634 78.191612 
L 163.258389 79.27592 
L 163.27091 78.191612 
L 163.283122 78.191612 
L 163.404052 79.27592 
L 163.415898 78.191612 
L 163.512622 79.27592 
L 163.524474 79.27592 
L 163.597086 78.191612 
L 163.633628 79.27592 
L 164.527236 79.27592 
L 164.563622 78.191612 
L 164.628082 79.27592 
L 164.923521 79.27592 
L 164.935721 81.444537 
L 165.03242 79.27592 
L 165.356616 79.27592 
L 165.404164 81.444537 
L 165.440622 79.27592 
L 165.90876 79.27592 
L 165.921006 78.191612 
L 166.017295 79.27592 
L 166.367282 79.27592 
L 166.453794 81.444537 
L 166.477976 79.27592 
L 166.5904 79.27592 
L 166.637865 81.444537 
L 166.675225 79.27592 
L 166.702519 79.27592 
L 166.823925 81.444537 
L 166.908105 81.444537 
L 166.920286 79.27592 
L 167.017753 81.444537 
L 167.328955 81.444537 
L 167.340967 79.27592 
L 167.438153 81.444537 
L 167.486666 81.444537 
L 167.498893 79.27592 
L 167.58651 81.444537 
L 168.492471 81.444537 
L 168.516155 82.528846 
L 168.600392 81.444537 
L 168.776302 81.444537 
L 168.91705 82.528846 
L 168.938911 81.444537 
L 169.004742 82.528846 
L 169.38471 82.528846 
L 169.460782 81.444537 
L 169.594124 82.528846 
L 169.606288 81.444537 
L 169.70152 82.528846 
L 169.83232 82.528846 
L 169.844215 83.613154 
L 169.940582 82.528846 
L 169.964369 82.528846 
L 170.047432 81.444537 
L 170.071165 82.528846 
L 170.300691 82.528846 
L 170.419866 83.613154 
L 170.541658 82.528846 
L 170.673829 82.528846 
L 170.780636 83.613154 
L 170.853256 82.528846 
L 170.889538 83.613154 
L 170.948793 83.613154 
L 171.068957 82.528846 
L 171.18821 83.613154 
L 171.28376 82.528846 
L 171.295573 83.613154 
L 171.808387 83.613154 
L 171.903439 84.697463 
L 171.91523 83.613154 
L 172.189646 83.613154 
L 172.312093 84.697463 
L 172.431696 83.613154 
L 172.471751 83.613154 
L 172.593005 84.697463 
L 172.652951 84.697463 
L 172.772394 83.613154 
L 172.832303 84.697463 
L 172.879662 83.613154 
L 173.130081 83.613154 
L 173.166052 84.697463 
L 173.237533 83.613154 
L 173.381167 83.613154 
L 173.478233 84.697463 
L 173.490043 83.613154 
L 173.526078 83.613154 
L 173.58584 84.697463 
L 173.63386 83.613154 
L 173.645677 83.613154 
L 173.765768 84.697463 
L 173.801335 84.697463 
L 173.921098 83.613154 
L 173.932954 83.613154 
L 174.053265 84.697463 
L 174.148157 83.613154 
L 174.160487 84.697463 
L 174.196538 84.697463 
L 174.292791 83.613154 
L 174.304609 84.697463 
L 174.828513 84.697463 
L 174.840936 83.613154 
L 174.937979 84.697463 
L 175.130712 84.697463 
L 175.239621 85.781772 
L 175.313723 84.697463 
L 175.338914 85.781772 
L 175.36322 85.781772 
L 175.375347 84.697463 
L 175.472959 85.781772 
L 176.074588 85.781772 
L 176.181205 84.697463 
L 176.30031 85.781772 
L 176.312515 85.781772 
L 176.432936 84.697463 
L 176.480365 84.697463 
L 176.516478 85.781772 
L 176.58751 84.697463 
L 176.949125 84.697463 
L 176.960944 85.781772 
L 177.057789 84.697463 
L 177.885689 84.697463 
L 177.9494 83.613154 
L 177.984962 84.697463 
L 177.99695 84.697463 
L 178.104639 83.613154 
L 178.153354 84.697463 
L 178.21338 83.613154 
L 178.718599 83.613154 
L 178.755078 82.528846 
L 178.827676 83.613154 
L 178.839495 83.613154 
L 178.959611 82.528846 
L 178.971469 82.528846 
L 179.093337 83.613154 
L 179.21357 82.528846 
L 179.225575 82.528846 
L 179.261414 83.613154 
L 179.333989 82.528846 
L 179.358584 82.528846 
L 179.477314 81.444537 
L 179.561978 82.528846 
L 179.586093 81.444537 
L 179.670125 81.444537 
L 179.68217 82.528846 
L 179.777947 81.444537 
L 179.946071 81.444537 
L 180.067276 79.27592 
L 180.310201 79.27592 
L 180.430468 78.191612 
L 180.502654 78.191612 
L 180.612337 77.107303 
L 180.73216 78.191612 
L 180.851611 77.107303 
L 181.00649 77.107303 
L 181.019386 78.191612 
L 181.115434 77.107303 
L 181.175421 77.107303 
L 181.295132 78.191612 
L 181.318932 78.191612 
L 181.439364 77.107303 
L 181.464821 77.107303 
L 181.58407 78.191612 
L 181.607751 78.191612 
L 181.619684 77.107303 
L 181.714753 78.191612 
L 182.014627 78.191612 
L 182.026863 79.27592 
L 182.122951 78.191612 
L 182.243901 78.191612 
L 182.351137 79.27592 
L 182.470273 78.191612 
L 182.494105 78.191612 
L 182.615701 79.27592 
L 182.712462 79.27592 
L 182.724291 78.191612 
L 182.820059 79.27592 
L 182.891557 79.27592 
L 182.951182 78.191612 
L 182.999054 79.27592 
L 183.562458 79.27592 
L 183.682498 81.444537 
L 183.718145 81.444537 
L 183.837486 79.27592 
L 183.958262 81.444537 
L 184.018161 79.27592 
L 184.066091 81.444537 
L 184.078063 81.444537 
L 184.090937 79.27592 
L 184.186754 81.444537 
L 184.503178 81.444537 
L 184.527399 82.528846 
L 184.610625 81.444537 
L 184.719018 81.444537 
L 184.804539 82.528846 
L 184.829209 81.444537 
L 184.866373 81.444537 
L 184.987148 82.528846 
L 185.106389 81.444537 
L 185.228087 82.528846 
L 185.445579 82.528846 
L 185.457373 83.613154 
L 185.553273 82.528846 
L 185.57697 82.528846 
L 185.685237 83.613154 
L 185.697081 82.528846 
L 185.793139 83.613154 
L 185.829281 83.613154 
L 185.841098 82.528846 
L 185.925063 83.613154 
L 186.045665 84.697463 
L 186.142377 83.613154 
L 186.154189 84.697463 
L 186.166036 84.697463 
L 186.285951 83.613154 
L 186.682881 83.613154 
L 186.754873 82.528846 
L 186.791294 83.613154 
L 186.851157 83.613154 
L 186.863569 82.528846 
L 186.958832 83.613154 
L 187.198123 83.613154 
L 187.317969 84.697463 
L 187.359797 84.697463 
L 187.478856 83.613154 
L 187.490693 83.613154 
L 187.58694 84.697463 
L 187.598755 83.613154 
L 187.634791 83.613154 
L 187.720587 84.697463 
L 187.744222 83.613154 
L 187.842061 83.613154 
L 187.854235 84.697463 
L 187.950166 83.613154 
L 188.05816 83.613154 
L 188.154354 84.697463 
L 188.166183 83.613154 
L 188.347802 83.613154 
L 188.359632 84.697463 
L 188.455281 83.613154 
L 188.684227 83.613154 
L 188.696137 84.697463 
L 188.708005 83.613154 
L 188.034524 83.613154 
L 188.094778 83.613154 
L 188.215752 84.697463 
L 188.263878 84.697463 
L 188.384104 83.613154 
L 188.503561 84.697463 
L 188.527576 84.697463 
L 188.587214 83.613154 
L 188.634747 84.697463 
L 188.718475 84.697463 
L 188.758111 83.613154 
L 188.81796 84.697463 
L 189.288947 84.697463 
L 189.372733 83.613154 
L 189.396565 84.697463 
L 189.804793 84.697463 
L 189.923946 83.613154 
L 190.043113 84.697463 
L 190.054914 84.697463 
L 190.174267 83.613154 
L 190.294227 84.697463 
L 190.342196 84.697463 
L 190.45201 83.613154 
L 190.560548 84.697463 
L 190.584492 83.613154 
L 190.668217 84.697463 
L 191.147087 84.697463 
L 191.266883 85.781772 
L 191.385735 84.697463 
L 191.505516 85.781772 
L 191.529611 85.781772 
L 191.541459 84.697463 
L 191.636586 85.781772 
L 191.720234 85.781772 
L 191.743869 86.86608 
L 191.826787 85.781772 
L 192.259235 85.781772 
L 192.27105 84.697463 
L 192.369209 85.781772 
L 192.949661 85.781772 
L 193.009215 84.697463 
L 193.056946 85.781772 
L 193.080755 85.781772 
L 193.191509 84.697463 
L 193.228266 84.697463 
L 193.346606 85.781772 
L 193.489281 84.697463 
L 193.59684 85.781772 
L 193.716755 84.697463 
L 193.847286 84.697463 
L 193.859067 85.781772 
L 193.954376 84.697463 
L 194.40949 84.697463 
L 194.516579 83.613154 
L 194.638676 84.697463 
L 194.662397 84.697463 
L 194.734808 83.613154 
L 194.771072 84.697463 
L 194.810902 84.697463 
L 194.858327 83.613154 
L 194.905716 84.697463 
L 194.944934 84.697463 
L 195.064179 83.613154 
L 195.290346 83.613154 
L 195.411241 82.528846 
L 195.519737 83.613154 
L 195.638909 82.528846 
L 195.973847 82.528846 
L 196.094251 81.444537 
L 196.142144 81.444537 
L 196.250287 82.528846 
L 196.369409 81.444537 
L 196.465732 81.444537 
L 196.501954 82.528846 
L 196.573302 81.444537 
L 196.669599 81.444537 
L 196.754006 82.528846 
L 196.777708 81.444537 
L 196.801803 81.444537 
L 196.922922 82.528846 
L 197.031323 82.528846 
L 197.151145 81.444537 
L 197.271497 82.528846 
L 197.320178 82.528846 
L 197.368156 81.444537 
L 197.427968 82.528846 
L 197.728636 82.528846 
L 197.847632 83.613154 
L 198.01578 83.613154 
L 198.027978 82.528846 
L 198.122834 83.613154 
L 198.398401 83.613154 
L 198.482363 82.528846 
L 198.506378 83.613154 
L 198.71128 83.613154 
L 198.735148 82.528846 
L 198.819147 83.613154 
L 198.831111 83.613154 
L 198.843124 82.528846 
L 198.938761 83.613154 
L 200.04456 83.613154 
L 200.056993 84.697463 
L 200.149304 83.613154 
L 200.186706 83.613154 
L 200.291025 84.697463 
L 200.401966 83.613154 
L 200.520833 84.697463 
L 201.800638 84.697463 
L 201.921192 85.781772 
L 202.031239 84.697463 
L 202.14006 85.781772 
L 202.237045 84.697463 
L 202.24905 85.781772 
L 202.273938 85.781772 
L 202.35834 84.697463 
L 202.382779 85.781772 
L 202.456062 85.781772 
L 202.505394 84.697463 
L 202.555244 85.781772 
L 202.567834 85.781772 
L 202.689265 84.697463 
L 202.801977 85.781772 
L 202.85081 85.781772 
L 202.959238 84.697463 
L 203.079566 85.781772 
L 203.248036 85.781772 
L 203.259857 84.697463 
L 203.356855 85.781772 
L 203.933666 85.781772 
L 203.945513 86.86608 
L 204.042234 85.781772 
L 204.102992 85.781772 
L 204.224277 86.86608 
L 204.236483 86.86608 
L 204.345097 85.781772 
L 204.465719 86.86608 
L 204.501728 86.86608 
L 204.514193 85.781772 
L 204.610445 86.86608 
L 204.658137 86.86608 
L 204.779071 87.950389 
L 204.803135 86.86608 
L 204.886241 87.950389 
L 204.969418 87.950389 
L 205.089043 90.119006 
L 205.199525 90.119006 
L 205.318424 87.950389 
L 205.342101 87.950389 
L 205.394681 86.86608 
L 205.442973 87.950389 
L 205.455362 87.950389 
L 205.514722 86.86608 
L 205.562919 87.950389 
L 205.623113 87.950389 
L 205.730144 86.86608 
L 205.849282 87.950389 
L 205.968492 86.86608 
L 206.088004 87.950389 
L 206.100004 87.950389 
L 206.111841 86.86608 
L 206.206923 87.950389 
L 206.516664 87.950389 
L 206.601132 90.119006 
L 206.625018 87.950389 
L 206.673102 87.950389 
L 206.794016 90.119006 
L 206.86589 87.950389 
L 206.902703 90.119006 
L 207.284696 90.119006 
L 207.296512 91.203314 
L 207.392566 90.119006 
L 207.583108 90.119006 
L 207.595129 91.203314 
L 207.690432 90.119006 
L 207.714305 90.119006 
L 207.834008 91.203314 
L 208.049529 91.203314 
L 208.168628 90.119006 
L 208.180405 90.119006 
L 208.2875 91.203314 
L 208.323101 90.119006 
L 208.395641 91.203314 
L 208.573471 91.203314 
L 208.695363 92.287623 
L 209.217774 92.287623 
L 209.288799 91.203314 
L 209.324581 92.287623 
L 209.622408 92.287623 
L 209.634225 91.203314 
L 209.729752 92.287623 
L 210.194789 92.287623 
L 210.206644 91.203314 
L 210.302227 92.287623 
L 210.743549 92.287623 
L 210.838158 93.371931 
L 210.849963 92.287623 
L 210.861816 92.287623 
L 210.968422 93.371931 
L 211.064475 92.287623 
L 211.076707 93.371931 
L 211.112302 93.371931 
L 211.231091 92.287623 
L 211.2547 93.371931 
L 211.337875 92.287623 
L 211.385409 92.287623 
L 211.493039 93.371931 
L 211.576266 91.203314 
L 211.600049 92.287623 
L 211.623888 92.287623 
L 211.742908 91.203314 
L 211.766973 91.203314 
L 211.79064 92.287623 
L 211.861906 91.203314 
L 211.980825 90.119006 
L 212.088718 90.119006 
L 212.208975 87.950389 
L 212.328497 87.950389 
L 212.402783 90.119006 
L 212.438553 87.950389 
L 212.509957 87.950389 
L 212.605139 90.119006 
L 212.617442 87.950389 
L 212.689297 87.950389 
L 212.701099 90.119006 
L 426.533219 123.732571 
L 426.568973 123.732571 
L 426.581329 124.81688 
L 426.677016 123.732571 
L 426.689244 123.732571 
L 426.81014 124.81688 
L 426.822232 124.81688 
L 426.845825 123.732571 
L 426.931193 124.81688 
L 427.134579 124.81688 
L 427.218143 125.901188 
L 427.242557 124.81688 
L 427.302833 124.81688 
L 427.422836 125.901188 
L 427.542097 124.81688 
L 427.662564 125.901188 
L 427.783074 124.81688 
L 427.86592 125.901188 
L 427.89073 124.81688 
L 427.951074 124.81688 
L 427.963046 125.901188 
L 428.060057 124.81688 
L 428.227185 124.81688 
L 429.746922 126.985497 
L 429.870771 125.901188 
L 429.894645 125.901188 
L 429.94186 126.985497 
L 430.001631 125.901188 
L 430.073173 125.901188 
L 430.088537 126.985497 
L 430.172811 125.901188 
L 430.308563 125.901188 
L 430.344056 126.985497 
L 430.415887 125.901188 
L 430.512505 125.901188 
L 430.60036 126.985497 
L 430.6122 125.901188 
L 430.647694 125.901188 
L 430.731144 126.985497 
L 430.756959 125.901188 
L 430.793496 125.901188 
L 430.915929 126.985497 
L 430.976223 125.901188 
L 431.024637 126.985497 
L 431.048945 126.985497 
L 431.145234 125.901188 
L 431.157743 126.985497 
L 431.242118 126.985497 
L 431.349932 125.901188 
L 431.470167 126.985497 
L 431.482017 126.985497 
L 431.590362 125.901188 
L 431.710127 126.985497 
L 431.769796 126.985497 
L 431.877351 125.901188 
L 431.92496 126.985497 
L 431.984406 125.901188 
L 431.996647 125.901188 
L 432.009091 126.985497 
L 432.009091 126.985497 
" style="fill:none;stroke:#1f77b4;stroke-linecap:square;stroke-width:1.5;"/>
   </g>
   <g id="line2d_32">
    <path clip-path="url(#pc05684e024)" d="M 72.190909 35.903578 
L 73.1959 35.903578 
L 73.315468 49.999589 
L 73.375096 49.999589 
L 73.494159 55.421132 
L 73.873229 55.421132 
L 73.994726 49.999589 
L 74.054404 49.999589 
L 74.167958 55.421132 
L 74.631916 55.421132 
L 74.741511 49.999589 
L 75.587029 49.999589 
L 75.707845 94.45624 
L 76.6253 94.45624 
L 76.775232 102.0464 
L 76.847747 102.0464 
L 76.96821 94.45624 
L 77.329198 94.45624 
L 77.447873 92.287623 
L 77.685998 92.287623 
L 77.806047 94.45624 
L 78.662081 94.45624 
L 78.782988 92.287623 
L 79.374659 92.287623 
L 79.493803 80.360229 
L 80.584151 80.360229 
L 80.704849 70.601452 
L 81.421493 70.601452 
L 81.533846 59.758366 
L 81.958537 59.758366 
L 82.06013 74.938686 
L 82.132862 74.938686 
L 82.255259 70.601452 
L 82.616562 70.601452 
L 82.732064 74.938686 
L 82.858064 74.938686 
L 82.97909 59.758366 
L 83.818731 59.758366 
L 83.938464 80.360229 
L 84.36524 80.360229 
L 84.484385 94.45624 
L 84.844535 94.45624 
L 84.964458 113.973794 
L 85.565693 113.973794 
L 85.686517 125.901188 
L 86.228857 125.901188 
L 86.348587 113.973794 
L 86.947714 113.973794 
L 87.068724 102.0464 
L 88.315387 102.0464 
L 88.435539 113.973794 
L 91.731208 113.973794 
L 91.85172 125.901188 
L 92.818141 125.901188 
L 92.937628 133.491348 
L 93.117725 133.491348 
L 93.212738 125.901188 
L 94.569917 125.901188 
L 94.69139 133.491348 
L 95.091052 133.491348 
L 95.216421 125.901188 
L 95.997086 125.901188 
L 96.117186 113.973794 
L 96.54765 113.973794 
L 96.666525 102.0464 
L 97.256811 102.0464 
L 97.37876 80.360229 
L 97.79854 80.360229 
L 97.919867 74.938686 
L 98.10031 74.938686 
L 98.220702 80.360229 
L 98.308596 80.360229 
L 98.431483 74.938686 
L 98.628624 74.938686 
L 98.751231 59.758366 
L 99.646597 59.758366 
L 99.766515 70.601452 
L 101.291128 70.601452 
L 101.411935 80.360229 
L 101.460537 80.360229 
L 101.571559 74.938686 
L 101.994804 74.938686 
L 102.116212 102.0464 
L 102.66007 102.0464 
L 102.780398 125.901188 
L 105.060365 125.901188 
L 105.179872 135.659965 
L 106.132798 135.659965 
L 106.252249 147.58736 
L 106.494972 147.58736 
L 106.614423 153.008902 
L 107.448295 153.008902 
L 107.5685 147.58736 
L 107.80902 147.58736 
L 107.929485 153.008902 
L 108.171511 153.008902 
L 108.290067 157.346137 
L 109.446897 157.346137 
L 109.56761 153.008902 
L 109.627862 153.008902 
L 109.748725 168.189222 
L 110.584685 168.189222 
L 110.705901 172.526457 
L 110.885367 172.526457 
L 111.005135 157.346137 
L 111.428187 157.346137 
L 111.548726 153.008902 
L 111.790118 153.008902 
L 111.910109 157.346137 
L 112.389418 157.346137 
L 112.512127 147.58736 
L 112.752958 147.58736 
L 112.871627 133.491348 
L 112.931658 133.491348 
L 113.053831 113.973794 
L 113.656507 113.973794 
L 114.192778 102.0464 
L 114.726388 102.0464 
L 114.845209 94.45624 
L 115.277679 94.45624 
L 115.397009 92.287623 
L 116.65294 92.287623 
L 116.774697 102.0464 
L 117.316932 102.0464 
L 117.439195 80.360229 
L 117.865292 80.360229 
L 117.977248 125.901188 
L 119.134225 125.901188 
L 119.253932 135.659965 
L 119.878461 135.659965 
L 119.998559 199.634171 
L 120.602526 199.634171 
L 120.723235 223.488959 
L 121.336297 223.488959 
L 121.457007 233.247736 
L 121.877398 233.247736 
L 121.998497 245.17513 
L 122.837432 245.17513 
L 122.959293 233.247736 
L 123.216849 233.247736 
L 123.337199 223.488959 
L 125.240898 223.488959 
L 125.35358 211.561565 
L 127.448291 211.561565 
L 127.568753 199.634171 
L 128.372818 199.634171 
L 128.4856 177.947999 
L 128.737805 177.947999 
L 128.858745 157.346137 
L 129.511783 157.346137 
L 129.631024 125.901188 
L 130.292903 125.901188 
L 130.330897 92.287623 
L 131.081704 102.0464 
L 131.246248 102.0464 
L 131.935879 125.901188 
L 132.115891 125.901188 
L 132.234832 135.659965 
L 132.898792 135.659965 
L 133.01873 147.58736 
L 134.927872 147.58736 
L 135.087165 157.346137 
L 136.273232 157.346137 
L 136.385271 147.58736 
L 136.981792 147.58736 
L 137.101317 157.346137 
L 137.577467 157.346137 
L 137.696815 168.189222 
L 139.235811 168.189222 
L 139.354094 147.58736 
L 139.800511 147.58736 
L 139.920479 157.346137 
L 140.737268 157.346137 
L 140.859981 153.008902 
L 141.139442 153.008902 
L 141.26011 157.346137 
L 141.540642 157.346137 
L 141.65621 172.526457 
L 141.86177 172.526457 
L 142.055467 157.346137 
L 142.69454 157.346137 
L 142.813904 172.526457 
L 143.237396 172.526457 
L 143.349567 168.189222 
L 144.565039 168.189222 
L 144.687668 189.875394 
L 145.351668 189.875394 
L 145.473246 157.346137 
L 145.838277 157.346137 
L 145.958078 135.659965 
L 147.21117 135.659965 
L 147.330438 92.287623 
L 149.281118 92.287623 
L 149.398548 102.0464 
L 150.178737 102.0464 
L 150.290772 113.973794 
L 150.63567 113.973794 
L 150.75803 125.901188 
L 151.594102 125.901188 
L 151.715148 147.58736 
L 152.739098 147.58736 
L 152.850784 157.346137 
L 154.78058 157.346137 
L 154.899605 168.189222 
L 157.275188 168.189222 
L 157.39497 172.526457 
L 157.515065 172.526457 
L 157.634202 157.346137 
L 159.842266 157.346137 
L 159.961932 168.189222 
L 161.374802 168.189222 
L 161.486455 172.526457 
L 161.613634 172.526457 
L 161.755705 168.189222 
L 162.369375 168.189222 
L 162.481277 157.346137 
L 163.427698 157.346137 
L 163.548957 147.58736 
L 164.575829 147.58736 
L 164.689356 153.008902 
L 165.044218 153.008902 
L 165.165555 135.659965 
L 165.28474 135.659965 
L 165.404164 133.491348 
L 165.717385 133.491348 
L 165.836335 135.659965 
L 165.956721 135.659965 
L 166.078355 133.491348 
L 166.453794 133.491348 
L 166.56442 135.659965 
L 166.859961 135.659965 
L 166.981129 133.491348 
L 167.102263 133.491348 
L 167.222432 135.659965 
L 167.574684 135.659965 
L 167.647345 133.491348 
L 168.478544 125.901188 
L 168.600392 147.58736 
L 169.38471 147.58736 
L 169.557617 135.659965 
L 170.10823 135.659965 
L 170.228854 147.58736 
L 170.768786 147.58736 
L 170.889538 135.659965 
L 173.058236 135.659965 
L 173.178239 133.491348 
L 173.296965 133.491348 
L 173.417423 135.659965 
L 173.537897 135.659965 
L 173.657839 133.491348 
L 173.957287 133.491348 
L 174.076934 147.58736 
L 175.106805 147.58736 
L 175.227473 153.008902 
L 175.351212 153.008902 
L 175.472959 147.58736 
L 175.774796 147.58736 
L 175.895623 153.008902 
L 176.015116 153.008902 
L 176.133817 168.189222 
L 176.50427 168.189222 
L 176.618769 172.526457 
L 176.925059 172.526457 
L 177.045723 168.189222 
L 177.646065 168.189222 
L 177.765168 172.526457 
L 178.068342 172.526457 
L 178.189394 157.346137 
L 178.501208 157.346137 
L 178.755078 153.008902 
L 179.007071 153.008902 
L 179.129686 147.58736 
L 179.249601 147.58736 
L 179.370378 133.491348 
L 179.489118 133.491348 
L 179.609747 125.901188 
L 179.910199 125.901188 
L 180.031673 113.973794 
L 180.815754 113.973794 
L 180.935024 102.0464 
L 181.055495 102.0464 
L 181.175421 94.45624 
L 181.774391 94.45624 
L 181.895051 102.0464 
L 182.195727 102.0464 
L 182.315407 113.973794 
L 184.235614 113.973794 
L 184.358462 125.901188 
L 184.962933 125.901188 
L 185.081919 147.58736 
L 188.383425 147.58736 
L 188.504251 157.346137 
L 188.708005 157.346137 
L 188.034524 157.346137 
L 188.419982 157.346137 
L 188.539402 147.58736 
L 189.096896 147.58736 
L 189.216974 157.346137 
L 190.427077 157.346137 
L 190.548192 168.189222 
L 192.115533 168.189222 
L 192.235531 172.526457 
L 192.537372 172.526457 
L 192.657871 168.189222 
L 192.780991 168.189222 
L 192.902012 172.526457 
L 193.204089 172.526457 
L 193.322801 168.189222 
L 193.918809 168.189222 
L 194.037295 157.346137 
L 194.156064 157.346137 
L 194.277629 153.008902 
L 195.278526 153.008902 
L 195.399419 102.0464 
L 195.698129 102.0464 
L 195.818502 94.45624 
L 196.178762 94.45624 
L 196.297804 92.287623 
L 196.417747 92.287623 
L 196.537668 74.938686 
L 196.657591 74.938686 
L 196.777708 80.360229 
L 199.642211 80.360229 
L 199.754185 113.973794 
L 201.704743 113.973794 
L 201.848442 135.659965 
L 206.100004 135.659965 
L 206.219104 125.901188 
L 206.998249 125.901188 
L 207.11723 135.659965 
L 210.314083 135.659965 
L 210.432787 147.58736 
L 210.551909 147.58736 
L 210.67174 153.008902 
L 211.028964 153.008902 
L 211.147719 135.659965 
L 212.172945 135.659965 
L 212.292165 133.491348 
L 212.352219 133.491348 
L 212.474389 125.901188 
L 212.701099 125.901188 
L 426.294154 177.947999 
L 426.738292 177.947999 
L 426.858028 172.526457 
L 428.227185 172.526457 
L 429.810607 192.044011 
L 430.29675 192.044011 
L 430.415887 223.488959 
L 431.73417 223.488959 
L 431.853218 233.247736 
L 432.009091 233.247736 
L 432.009091 233.247736 
" style="fill:none;stroke:#ff7f0e;stroke-linecap:square;stroke-width:1.5;"/>
   </g>
   <g id="patch_3">
    <path d="M 54.2 255.638708 
L 54.2 25.44 
" style="fill:none;stroke:#000000;stroke-linecap:square;stroke-linejoin:miter;stroke-width:0.8;"/>
   </g>
   <g id="patch_4">
    <path d="M 450 255.638708 
L 450 25.44 
" style="fill:none;stroke:#000000;stroke-linecap:square;stroke-linejoin:miter;stroke-width:0.8;"/>
   </g>
   <g id="patch_5">
    <path d="M 54.2 255.638708 
L 450 255.638708 
" style="fill:none;stroke:#000000;stroke-linecap:square;stroke-linejoin:miter;stroke-width:0.8;"/>
   </g>
   <g id="patch_6">
    <path d="M 54.2 25.44 
L 450 25.44 
" style="fill:none;stroke:#000000;stroke-linecap:square;stroke-linejoin:miter;stroke-width:0.8;"/>
   </g>
   <g id="text_18">
    <!-- Lake Shoecraft - Water and Air Temperature -->
    <g transform="translate(120.481563 19.44)scale(0.12 -0.12)">
     <defs>
      <path d="M 9.8125 72.90625 
L 19.671875 72.90625 
L 19.671875 8.296875 
L 55.171875 8.296875 
L 55.171875 0 
L 9.8125 0 
z
" id="DejaVuSans-76"/>
      <path d="M 9.078125 75.984375 
L 18.109375 75.984375 
L 18.109375 31.109375 
L 44.921875 54.6875 
L 56.390625 54.6875 
L 27.390625 29.109375 
L 57.625 0 
L 45.90625 0 
L 18.109375 26.703125 
L 18.109375 0 
L 9.078125 0 
z
" id="DejaVuSans-107"/>
      <path d="M 53.515625 70.515625 
L 53.515625 60.890625 
Q 47.90625 63.578125 42.921875 64.890625 
Q 37.9375 66.21875 33.296875 66.21875 
Q 25.25 66.21875 20.875 63.09375 
Q 16.5 59.96875 16.5 54.203125 
Q 16.5 49.359375 19.40625 46.890625 
Q 22.3125 44.4375 30.421875 42.921875 
L 36.375 41.703125 
Q 47.40625 39.59375 52.65625 34.296875 
Q 57.90625 29 57.90625 20.125 
Q 57.90625 9.515625 50.796875 4.046875 
Q 43.703125 -1.421875 29.984375 -1.421875 
Q 24.8125 -1.421875 18.96875 -0.25 
Q 13.140625 0.921875 6.890625 3.21875 
L 6.890625 13.375 
Q 12.890625 10.015625 18.65625 8.296875 
Q 24.421875 6.59375 29.984375 6.59375 
Q 38.421875 6.59375 43.015625 9.90625 
Q 47.609375 13.234375 47.609375 19.390625 
Q 47.609375 24.75 44.3125 27.78125 
Q 41.015625 30.8125 33.5 32.328125 
L 27.484375 33.5 
Q 16.453125 35.6875 11.515625 40.375 
Q 6.59375 45.0625 6.59375 53.421875 
Q 6.59375 63.09375 13.40625 68.65625 
Q 20.21875 74.21875 32.171875 74.21875 
Q 37.3125 74.21875 42.625 73.28125 
Q 47.953125 72.359375 53.515625 70.515625 
z
" id="DejaVuSans-83"/>
      <path d="M 54.890625 33.015625 
L 54.890625 0 
L 45.90625 0 
L 45.90625 32.71875 
Q 45.90625 40.484375 42.875 44.328125 
Q 39.84375 48.1875 33.796875 48.1875 
Q 26.515625 48.1875 22.3125 43.546875 
Q 18.109375 38.921875 18.109375 30.90625 
L 18.109375 0 
L 9.078125 0 
L 9.078125 75.984375 
L 18.109375 75.984375 
L 18.109375 46.1875 
Q 21.34375 51.125 25.703125 53.5625 
Q 30.078125 56 35.796875 56 
Q 45.21875 56 50.046875 50.171875 
Q 54.890625 44.34375 54.890625 33.015625 
z
" id="DejaVuSans-104"/>
      <path d="M 30.609375 48.390625 
Q 23.390625 48.390625 19.1875 42.75 
Q 14.984375 37.109375 14.984375 27.296875 
Q 14.984375 17.484375 19.15625 11.84375 
Q 23.34375 6.203125 30.609375 6.203125 
Q 37.796875 6.203125 41.984375 11.859375 
Q 46.1875 17.53125 46.1875 27.296875 
Q 46.1875 37.015625 41.984375 42.703125 
Q 37.796875 48.390625 30.609375 48.390625 
z
M 30.609375 56 
Q 42.328125 56 49.015625 48.375 
Q 55.71875 40.765625 55.71875 27.296875 
Q 55.71875 13.875 49.015625 6.21875 
Q 42.328125 -1.421875 30.609375 -1.421875 
Q 18.84375 -1.421875 12.171875 6.21875 
Q 5.515625 13.875 5.515625 27.296875 
Q 5.515625 40.765625 12.171875 48.375 
Q 18.84375 56 30.609375 56 
z
" id="DejaVuSans-111"/>
      <path d="M 48.78125 52.59375 
L 48.78125 44.1875 
Q 44.96875 46.296875 41.140625 47.34375 
Q 37.3125 48.390625 33.40625 48.390625 
Q 24.65625 48.390625 19.8125 42.84375 
Q 14.984375 37.3125 14.984375 27.296875 
Q 14.984375 17.28125 19.8125 11.734375 
Q 24.65625 6.203125 33.40625 6.203125 
Q 37.3125 6.203125 41.140625 7.25 
Q 44.96875 8.296875 48.78125 10.40625 
L 48.78125 2.09375 
Q 45.015625 0.34375 40.984375 -0.53125 
Q 36.96875 -1.421875 32.421875 -1.421875 
Q 20.0625 -1.421875 12.78125 6.34375 
Q 5.515625 14.109375 5.515625 27.296875 
Q 5.515625 40.671875 12.859375 48.328125 
Q 20.21875 56 33.015625 56 
Q 37.15625 56 41.109375 55.140625 
Q 45.0625 54.296875 48.78125 52.59375 
z
" id="DejaVuSans-99"/>
      <path d="M 37.109375 75.984375 
L 37.109375 68.5 
L 28.515625 68.5 
Q 23.6875 68.5 21.796875 66.546875 
Q 19.921875 64.59375 19.921875 59.515625 
L 19.921875 54.6875 
L 34.71875 54.6875 
L 34.71875 47.703125 
L 19.921875 47.703125 
L 19.921875 0 
L 10.890625 0 
L 10.890625 47.703125 
L 2.296875 47.703125 
L 2.296875 54.6875 
L 10.890625 54.6875 
L 10.890625 58.5 
Q 10.890625 67.625 15.140625 71.796875 
Q 19.390625 75.984375 28.609375 75.984375 
z
" id="DejaVuSans-102"/>
      <path d="M 3.328125 72.90625 
L 13.28125 72.90625 
L 28.609375 11.28125 
L 43.890625 72.90625 
L 54.984375 72.90625 
L 70.3125 11.28125 
L 85.59375 72.90625 
L 95.609375 72.90625 
L 77.296875 0 
L 64.890625 0 
L 49.515625 63.28125 
L 33.984375 0 
L 21.578125 0 
z
" id="DejaVuSans-87"/>
      <path d="M 54.890625 33.015625 
L 54.890625 0 
L 45.90625 0 
L 45.90625 32.71875 
Q 45.90625 40.484375 42.875 44.328125 
Q 39.84375 48.1875 33.796875 48.1875 
Q 26.515625 48.1875 22.3125 43.546875 
Q 18.109375 38.921875 18.109375 30.90625 
L 18.109375 0 
L 9.078125 0 
L 9.078125 54.6875 
L 18.109375 54.6875 
L 18.109375 46.1875 
Q 21.34375 51.125 25.703125 53.5625 
Q 30.078125 56 35.796875 56 
Q 45.21875 56 50.046875 50.171875 
Q 54.890625 44.34375 54.890625 33.015625 
z
" id="DejaVuSans-110"/>
      <path d="M 45.40625 46.390625 
L 45.40625 75.984375 
L 54.390625 75.984375 
L 54.390625 0 
L 45.40625 0 
L 45.40625 8.203125 
Q 42.578125 3.328125 38.25 0.953125 
Q 33.9375 -1.421875 27.875 -1.421875 
Q 17.96875 -1.421875 11.734375 6.484375 
Q 5.515625 14.40625 5.515625 27.296875 
Q 5.515625 40.1875 11.734375 48.09375 
Q 17.96875 56 27.875 56 
Q 33.9375 56 38.25 53.625 
Q 42.578125 51.265625 45.40625 46.390625 
z
M 14.796875 27.296875 
Q 14.796875 17.390625 18.875 11.75 
Q 22.953125 6.109375 30.078125 6.109375 
Q 37.203125 6.109375 41.296875 11.75 
Q 45.40625 17.390625 45.40625 27.296875 
Q 45.40625 37.203125 41.296875 42.84375 
Q 37.203125 48.484375 30.078125 48.484375 
Q 22.953125 48.484375 18.875 42.84375 
Q 14.796875 37.203125 14.796875 27.296875 
z
" id="DejaVuSans-100"/>
      <path d="M 34.1875 63.1875 
L 20.796875 26.90625 
L 47.609375 26.90625 
z
M 28.609375 72.90625 
L 39.796875 72.90625 
L 67.578125 0 
L 57.328125 0 
L 50.6875 18.703125 
L 17.828125 18.703125 
L 11.1875 0 
L 0.78125 0 
z
" id="DejaVuSans-65"/>
      <path d="M 9.421875 54.6875 
L 18.40625 54.6875 
L 18.40625 0 
L 9.421875 0 
z
M 9.421875 75.984375 
L 18.40625 75.984375 
L 18.40625 64.59375 
L 9.421875 64.59375 
z
" id="DejaVuSans-105"/>
     </defs>
     <use xlink:href="#DejaVuSans-76"/>
     <use x="55.712891" xlink:href="#DejaVuSans-97"/>
     <use x="116.992188" xlink:href="#DejaVuSans-107"/>
     <use x="171.277344" xlink:href="#DejaVuSans-101"/>
     <use x="232.800781" xlink:href="#DejaVuSans-32"/>
     <use x="264.587891" xlink:href="#DejaVuSans-83"/>
     <use x="328.064453" xlink:href="#DejaVuSans-104"/>
     <use x="391.443359" xlink:href="#DejaVuSans-111"/>
     <use x="452.625" xlink:href="#DejaVuSans-101"/>
     <use x="514.148438" xlink:href="#DejaVuSans-99"/>
     <use x="569.128906" xlink:href="#DejaVuSans-114"/>
     <use x="610.242188" xlink:href="#DejaVuSans-97"/>
     <use x="671.521484" xlink:href="#DejaVuSans-102"/>
     <use x="704.976562" xlink:href="#DejaVuSans-116"/>
     <use x="744.185547" xlink:href="#DejaVuSans-32"/>
     <use x="775.972656" xlink:href="#DejaVuSans-45"/>
     <use x="812.056641" xlink:href="#DejaVuSans-32"/>
     <use x="843.84375" xlink:href="#DejaVuSans-87"/>
     <use x="936.345703" xlink:href="#DejaVuSans-97"/>
     <use x="997.625" xlink:href="#DejaVuSans-116"/>
     <use x="1036.833984" xlink:href="#DejaVuSans-101"/>
     <use x="1098.357422" xlink:href="#DejaVuSans-114"/>
     <use x="1139.470703" xlink:href="#DejaVuSans-32"/>
     <use x="1171.257812" xlink:href="#DejaVuSans-97"/>
     <use x="1232.537109" xlink:href="#DejaVuSans-110"/>
     <use x="1295.916016" xlink:href="#DejaVuSans-100"/>
     <use x="1359.392578" xlink:href="#DejaVuSans-32"/>
     <use x="1391.179688" xlink:href="#DejaVuSans-65"/>
     <use x="1459.587891" xlink:href="#DejaVuSans-105"/>
     <use x="1487.371094" xlink:href="#DejaVuSans-114"/>
     <use x="1528.484375" xlink:href="#DejaVuSans-32"/>
     <use x="1560.271484" xlink:href="#DejaVuSans-84"/>
     <use x="1604.355469" xlink:href="#DejaVuSans-101"/>
     <use x="1665.878906" xlink:href="#DejaVuSans-109"/>
     <use x="1763.291016" xlink:href="#DejaVuSans-112"/>
     <use x="1826.767578" xlink:href="#DejaVuSans-101"/>
     <use x="1888.291016" xlink:href="#DejaVuSans-114"/>
     <use x="1929.404297" xlink:href="#DejaVuSans-97"/>
     <use x="1990.683594" xlink:href="#DejaVuSans-116"/>
     <use x="2029.892578" xlink:href="#DejaVuSans-117"/>
     <use x="2093.271484" xlink:href="#DejaVuSans-114"/>
     <use x="2132.134766" xlink:href="#DejaVuSans-101"/>
    </g>
   </g>
   <g id="legend_1">
    <g id="patch_7">
     <path d="M 357.890625 62.79625 
L 443 62.79625 
Q 445 62.79625 445 60.79625 
L 445 32.44 
Q 445 30.44 443 30.44 
L 357.890625 30.44 
Q 355.890625 30.44 355.890625 32.44 
L 355.890625 60.79625 
Q 355.890625 62.79625 357.890625 62.79625 
z
" style="fill:#ffffff;opacity:0.8;stroke:#cccccc;stroke-linejoin:miter;"/>
    </g>
    <g id="line2d_33">
     <path d="M 359.890625 38.538437 
L 379.890625 38.538437 
" style="fill:none;stroke:#1f77b4;stroke-linecap:square;stroke-width:1.5;"/>
    </g>
    <g id="line2d_34"/>
    <g id="text_19">
     <!-- Lake Temp -->
     <g transform="translate(387.890625 42.038437)scale(0.1 -0.1)">
      <use xlink:href="#DejaVuSans-76"/>
      <use x="55.712891" xlink:href="#DejaVuSans-97"/>
      <use x="116.992188" xlink:href="#DejaVuSans-107"/>
      <use x="171.277344" xlink:href="#DejaVuSans-101"/>
      <use x="232.800781" xlink:href="#DejaVuSans-32"/>
      <use x="264.587891" xlink:href="#DejaVuSans-84"/>
      <use x="308.671875" xlink:href="#DejaVuSans-101"/>
      <use x="370.195312" xlink:href="#DejaVuSans-109"/>
      <use x="467.607422" xlink:href="#DejaVuSans-112"/>
     </g>
    </g>
    <g id="line2d_35">
     <path d="M 359.890625 53.216562 
L 379.890625 53.216562 
" style="fill:none;stroke:#ff7f0e;stroke-linecap:square;stroke-width:1.5;"/>
    </g>
    <g id="line2d_36"/>
    <g id="text_20">
     <!-- Air Temp -->
     <g transform="translate(387.890625 56.716562)scale(0.1 -0.1)">
      <use xlink:href="#DejaVuSans-65"/>
      <use x="68.408203" xlink:href="#DejaVuSans-105"/>
      <use x="96.191406" xlink:href="#DejaVuSans-114"/>
      <use x="137.304688" xlink:href="#DejaVuSans-32"/>
      <use x="169.091797" xlink:href="#DejaVuSans-84"/>
      <use x="213.175781" xlink:href="#DejaVuSans-101"/>
      <use x="274.699219" xlink:href="#DejaVuSans-109"/>
      <use x="372.111328" xlink:href="#DejaVuSans-112"/>
     </g>
    </g>
   </g>
  </g>
 </g>
 <defs>
  <clipPath id="pc05684e024">
   <rect height="230.198708" width="395.8" x="54.2" y="25.44"/>
  </clipPath>
 </defs>
</svg>
