<?xml version="1.0" encoding="utf-8" standalone="no"?>
<!DOCTYPE svg PUBLIC "-//W3C//DTD SVG 1.1//EN"
  "http://www.w3.org/Graphics/SVG/1.1/DTD/svg11.dtd">
<!-- Created with matplotlib (https://matplotlib.org/) -->
<svg height="345.6pt" version="1.1" viewBox="0 0 460.8 345.6" width="460.8pt" xmlns="http://www.w3.org/2000/svg" xmlns:xlink="http://www.w3.org/1999/xlink">
 <metadata>
  <rdf:RDF xmlns:cc="http://creativecommons.org/ns#" xmlns:dc="http://purl.org/dc/elements/1.1/" xmlns:rdf="http://www.w3.org/1999/02/22-rdf-syntax-ns#">
   <cc:Work>
    <dc:type rdf:resource="http://purl.org/dc/dcmitype/StillImage"/>
    <dc:date>2024-11-19T01:55:00.825725</dc:date>
    <dc:format>image/svg+xml</dc:format>
    <dc:creator>
     <cc:Agent>
      <dc:title>Matplotlib v3.3.2, https://matplotlib.org/</dc:title>
     </cc:Agent>
    </dc:creator>
   </cc:Work>
  </rdf:RDF>
 </metadata>
 <defs>
  <style type="text/css">*{stroke-linecap:butt;stroke-linejoin:round;}</style>
 </defs>
 <g id="figure_1">
  <g id="patch_1">
   <path d="M 0 345.6 
L 460.8 345.6 
L 460.8 0 
L 0 0 
z
" style="fill:none;"/>
  </g>
  <g id="axes_1">
   <g id="patch_2">
    <path d="M 54.2 255.638708 
L 450 255.638708 
L 450 25.44 
L 54.2 25.44 
z
" style="fill:none;"/>
   </g>
   <g id="matplotlib.axis_1">
    <g id="xtick_1">
     <g id="line2d_1">
      <path clip-path="url(#p0950dd2b52)" d="M 72.181749 255.638708 
L 72.181749 25.44 
" style="fill:none;stroke:#b0b0b0;stroke-linecap:square;stroke-width:0.8;"/>
     </g>
     <g id="line2d_2">
      <defs>
       <path d="M 0 0 
L 0 3.5 
" id="m5bdf2c36a1" style="stroke:#000000;stroke-width:0.8;"/>
      </defs>
      <g>
       <use style="stroke:#000000;stroke-width:0.8;" x="72.181749" xlink:href="#m5bdf2c36a1" y="255.638708"/>
      </g>
     </g>
     <g id="text_1">
      <!-- 2024-10-29 -->
      <g transform="translate(64.836357 319.848351)rotate(-70)scale(0.1 -0.1)">
       <defs>
        <path d="M 19.1875 8.296875 
L 53.609375 8.296875 
L 53.609375 0 
L 7.328125 0 
L 7.328125 8.296875 
Q 12.9375 14.109375 22.625 23.890625 
Q 32.328125 33.6875 34.8125 36.53125 
Q 39.546875 41.84375 41.421875 45.53125 
Q 43.3125 49.21875 43.3125 52.78125 
Q 43.3125 58.59375 39.234375 62.25 
Q 35.15625 65.921875 28.609375 65.921875 
Q 23.96875 65.921875 18.8125 64.3125 
Q 13.671875 62.703125 7.8125 59.421875 
L 7.8125 69.390625 
Q 13.765625 71.78125 18.9375 73 
Q 24.125 74.21875 28.421875 74.21875 
Q 39.75 74.21875 46.484375 68.546875 
Q 53.21875 62.890625 53.21875 53.421875 
Q 53.21875 48.921875 51.53125 44.890625 
Q 49.859375 40.875 45.40625 35.40625 
Q 44.1875 33.984375 37.640625 27.21875 
Q 31.109375 20.453125 19.1875 8.296875 
z
" id="DejaVuSans-50"/>
        <path d="M 31.78125 66.40625 
Q 24.171875 66.40625 20.328125 58.90625 
Q 16.5 51.421875 16.5 36.375 
Q 16.5 21.390625 20.328125 13.890625 
Q 24.171875 6.390625 31.78125 6.390625 
Q 39.453125 6.390625 43.28125 13.890625 
Q 47.125 21.390625 47.125 36.375 
Q 47.125 51.421875 43.28125 58.90625 
Q 39.453125 66.40625 31.78125 66.40625 
z
M 31.78125 74.21875 
Q 44.046875 74.21875 50.515625 64.515625 
Q 56.984375 54.828125 56.984375 36.375 
Q 56.984375 17.96875 50.515625 8.265625 
Q 44.046875 -1.421875 31.78125 -1.421875 
Q 19.53125 -1.421875 13.0625 8.265625 
Q 6.59375 17.96875 6.59375 36.375 
Q 6.59375 54.828125 13.0625 64.515625 
Q 19.53125 74.21875 31.78125 74.21875 
z
" id="DejaVuSans-48"/>
        <path d="M 37.796875 64.3125 
L 12.890625 25.390625 
L 37.796875 25.390625 
z
M 35.203125 72.90625 
L 47.609375 72.90625 
L 47.609375 25.390625 
L 58.015625 25.390625 
L 58.015625 17.1875 
L 47.609375 17.1875 
L 47.609375 0 
L 37.796875 0 
L 37.796875 17.1875 
L 4.890625 17.1875 
L 4.890625 26.703125 
z
" id="DejaVuSans-52"/>
        <path d="M 4.890625 31.390625 
L 31.203125 31.390625 
L 31.203125 23.390625 
L 4.890625 23.390625 
z
" id="DejaVuSans-45"/>
        <path d="M 12.40625 8.296875 
L 28.515625 8.296875 
L 28.515625 63.921875 
L 10.984375 60.40625 
L 10.984375 69.390625 
L 28.421875 72.90625 
L 38.28125 72.90625 
L 38.28125 8.296875 
L 54.390625 8.296875 
L 54.390625 0 
L 12.40625 0 
z
" id="DejaVuSans-49"/>
        <path d="M 10.984375 1.515625 
L 10.984375 10.5 
Q 14.703125 8.734375 18.5 7.8125 
Q 22.3125 6.890625 25.984375 6.890625 
Q 35.75 6.890625 40.890625 13.453125 
Q 46.046875 20.015625 46.78125 33.40625 
Q 43.953125 29.203125 39.59375 26.953125 
Q 35.25 24.703125 29.984375 24.703125 
Q 19.046875 24.703125 12.671875 31.3125 
Q 6.296875 37.9375 6.296875 49.421875 
Q 6.296875 60.640625 12.9375 67.421875 
Q 19.578125 74.21875 30.609375 74.21875 
Q 43.265625 74.21875 49.921875 64.515625 
Q 56.59375 54.828125 56.59375 36.375 
Q 56.59375 19.140625 48.40625 8.859375 
Q 40.234375 -1.421875 26.421875 -1.421875 
Q 22.703125 -1.421875 18.890625 -0.6875 
Q 15.09375 0.046875 10.984375 1.515625 
z
M 30.609375 32.421875 
Q 37.25 32.421875 41.125 36.953125 
Q 45.015625 41.5 45.015625 49.421875 
Q 45.015625 57.28125 41.125 61.84375 
Q 37.25 66.40625 30.609375 66.40625 
Q 23.96875 66.40625 20.09375 61.84375 
Q 16.21875 57.28125 16.21875 49.421875 
Q 16.21875 41.5 20.09375 36.953125 
Q 23.96875 32.421875 30.609375 32.421875 
z
" id="DejaVuSans-57"/>
       </defs>
       <use xlink:href="#DejaVuSans-50"/>
       <use x="63.623047" xlink:href="#DejaVuSans-48"/>
       <use x="127.246094" xlink:href="#DejaVuSans-50"/>
       <use x="190.869141" xlink:href="#DejaVuSans-52"/>
       <use x="254.492188" xlink:href="#DejaVuSans-45"/>
       <use x="290.576172" xlink:href="#DejaVuSans-49"/>
       <use x="354.199219" xlink:href="#DejaVuSans-48"/>
       <use x="417.822266" xlink:href="#DejaVuSans-45"/>
       <use x="453.90625" xlink:href="#DejaVuSans-50"/>
       <use x="517.529297" xlink:href="#DejaVuSans-57"/>
      </g>
     </g>
    </g>
    <g id="xtick_2">
     <g id="line2d_3">
      <path clip-path="url(#p0950dd2b52)" d="M 123.391992 255.638708 
L 123.391992 25.44 
" style="fill:none;stroke:#b0b0b0;stroke-linecap:square;stroke-width:0.8;"/>
     </g>
     <g id="line2d_4">
      <g>
       <use style="stroke:#000000;stroke-width:0.8;" x="123.391992" xlink:href="#m5bdf2c36a1" y="255.638708"/>
      </g>
     </g>
     <g id="text_2">
      <!-- 2024-11-01 -->
      <g transform="translate(116.046599 319.848351)rotate(-70)scale(0.1 -0.1)">
       <use xlink:href="#DejaVuSans-50"/>
       <use x="63.623047" xlink:href="#DejaVuSans-48"/>
       <use x="127.246094" xlink:href="#DejaVuSans-50"/>
       <use x="190.869141" xlink:href="#DejaVuSans-52"/>
       <use x="254.492188" xlink:href="#DejaVuSans-45"/>
       <use x="290.576172" xlink:href="#DejaVuSans-49"/>
       <use x="354.199219" xlink:href="#DejaVuSans-49"/>
       <use x="417.822266" xlink:href="#DejaVuSans-45"/>
       <use x="453.90625" xlink:href="#DejaVuSans-48"/>
       <use x="517.529297" xlink:href="#DejaVuSans-49"/>
      </g>
     </g>
    </g>
    <g id="xtick_3">
     <g id="line2d_5">
      <path clip-path="url(#p0950dd2b52)" d="M 191.672315 255.638708 
L 191.672315 25.44 
" style="fill:none;stroke:#b0b0b0;stroke-linecap:square;stroke-width:0.8;"/>
     </g>
     <g id="line2d_6">
      <g>
       <use style="stroke:#000000;stroke-width:0.8;" x="191.672315" xlink:href="#m5bdf2c36a1" y="255.638708"/>
      </g>
     </g>
     <g id="text_3">
      <!-- 2024-11-05 -->
      <g transform="translate(184.326922 319.848351)rotate(-70)scale(0.1 -0.1)">
       <defs>
        <path d="M 10.796875 72.90625 
L 49.515625 72.90625 
L 49.515625 64.59375 
L 19.828125 64.59375 
L 19.828125 46.734375 
Q 21.96875 47.46875 24.109375 47.828125 
Q 26.265625 48.1875 28.421875 48.1875 
Q 40.625 48.1875 47.75 41.5 
Q 54.890625 34.8125 54.890625 23.390625 
Q 54.890625 11.625 47.5625 5.09375 
Q 40.234375 -1.421875 26.90625 -1.421875 
Q 22.3125 -1.421875 17.546875 -0.640625 
Q 12.796875 0.140625 7.71875 1.703125 
L 7.71875 11.625 
Q 12.109375 9.234375 16.796875 8.0625 
Q 21.484375 6.890625 26.703125 6.890625 
Q 35.15625 6.890625 40.078125 11.328125 
Q 45.015625 15.765625 45.015625 23.390625 
Q 45.015625 31 40.078125 35.4375 
Q 35.15625 39.890625 26.703125 39.890625 
Q 22.75 39.890625 18.8125 39.015625 
Q 14.890625 38.140625 10.796875 36.28125 
z
" id="DejaVuSans-53"/>
       </defs>
       <use xlink:href="#DejaVuSans-50"/>
       <use x="63.623047" xlink:href="#DejaVuSans-48"/>
       <use x="127.246094" xlink:href="#DejaVuSans-50"/>
       <use x="190.869141" xlink:href="#DejaVuSans-52"/>
       <use x="254.492188" xlink:href="#DejaVuSans-45"/>
       <use x="290.576172" xlink:href="#DejaVuSans-49"/>
       <use x="354.199219" xlink:href="#DejaVuSans-49"/>
       <use x="417.822266" xlink:href="#DejaVuSans-45"/>
       <use x="453.90625" xlink:href="#DejaVuSans-48"/>
       <use x="517.529297" xlink:href="#DejaVuSans-53"/>
      </g>
     </g>
    </g>
    <g id="xtick_4">
     <g id="line2d_7">
      <path clip-path="url(#p0950dd2b52)" d="M 259.952638 255.638708 
L 259.952638 25.44 
" style="fill:none;stroke:#b0b0b0;stroke-linecap:square;stroke-width:0.8;"/>
     </g>
     <g id="line2d_8">
      <g>
       <use style="stroke:#000000;stroke-width:0.8;" x="259.952638" xlink:href="#m5bdf2c36a1" y="255.638708"/>
      </g>
     </g>
     <g id="text_4">
      <!-- 2024-11-09 -->
      <g transform="translate(252.607245 319.848351)rotate(-70)scale(0.1 -0.1)">
       <use xlink:href="#DejaVuSans-50"/>
       <use x="63.623047" xlink:href="#DejaVuSans-48"/>
       <use x="127.246094" xlink:href="#DejaVuSans-50"/>
       <use x="190.869141" xlink:href="#DejaVuSans-52"/>
       <use x="254.492188" xlink:href="#DejaVuSans-45"/>
       <use x="290.576172" xlink:href="#DejaVuSans-49"/>
       <use x="354.199219" xlink:href="#DejaVuSans-49"/>
       <use x="417.822266" xlink:href="#DejaVuSans-45"/>
       <use x="453.90625" xlink:href="#DejaVuSans-48"/>
       <use x="517.529297" xlink:href="#DejaVuSans-57"/>
      </g>
     </g>
    </g>
    <g id="xtick_5">
     <g id="line2d_9">
      <path clip-path="url(#p0950dd2b52)" d="M 328.232961 255.638708 
L 328.232961 25.44 
" style="fill:none;stroke:#b0b0b0;stroke-linecap:square;stroke-width:0.8;"/>
     </g>
     <g id="line2d_10">
      <g>
       <use style="stroke:#000000;stroke-width:0.8;" x="328.232961" xlink:href="#m5bdf2c36a1" y="255.638708"/>
      </g>
     </g>
     <g id="text_5">
      <!-- 2024-11-13 -->
      <g transform="translate(320.887569 319.848351)rotate(-70)scale(0.1 -0.1)">
       <defs>
        <path d="M 40.578125 39.3125 
Q 47.65625 37.796875 51.625 33 
Q 55.609375 28.21875 55.609375 21.1875 
Q 55.609375 10.40625 48.1875 4.484375 
Q 40.765625 -1.421875 27.09375 -1.421875 
Q 22.515625 -1.421875 17.65625 -0.515625 
Q 12.796875 0.390625 7.625 2.203125 
L 7.625 11.71875 
Q 11.71875 9.328125 16.59375 8.109375 
Q 21.484375 6.890625 26.8125 6.890625 
Q 36.078125 6.890625 40.9375 10.546875 
Q 45.796875 14.203125 45.796875 21.1875 
Q 45.796875 27.640625 41.28125 31.265625 
Q 36.765625 34.90625 28.71875 34.90625 
L 20.21875 34.90625 
L 20.21875 43.015625 
L 29.109375 43.015625 
Q 36.375 43.015625 40.234375 45.921875 
Q 44.09375 48.828125 44.09375 54.296875 
Q 44.09375 59.90625 40.109375 62.90625 
Q 36.140625 65.921875 28.71875 65.921875 
Q 24.65625 65.921875 20.015625 65.03125 
Q 15.375 64.15625 9.8125 62.3125 
L 9.8125 71.09375 
Q 15.4375 72.65625 20.34375 73.4375 
Q 25.25 74.21875 29.59375 74.21875 
Q 40.828125 74.21875 47.359375 69.109375 
Q 53.90625 64.015625 53.90625 55.328125 
Q 53.90625 49.265625 50.4375 45.09375 
Q 46.96875 40.921875 40.578125 39.3125 
z
" id="DejaVuSans-51"/>
       </defs>
       <use xlink:href="#DejaVuSans-50"/>
       <use x="63.623047" xlink:href="#DejaVuSans-48"/>
       <use x="127.246094" xlink:href="#DejaVuSans-50"/>
       <use x="190.869141" xlink:href="#DejaVuSans-52"/>
       <use x="254.492188" xlink:href="#DejaVuSans-45"/>
       <use x="290.576172" xlink:href="#DejaVuSans-49"/>
       <use x="354.199219" xlink:href="#DejaVuSans-49"/>
       <use x="417.822266" xlink:href="#DejaVuSans-45"/>
       <use x="453.90625" xlink:href="#DejaVuSans-49"/>
       <use x="517.529297" xlink:href="#DejaVuSans-51"/>
      </g>
     </g>
    </g>
    <g id="xtick_6">
     <g id="line2d_11">
      <path clip-path="url(#p0950dd2b52)" d="M 396.513285 255.638708 
L 396.513285 25.44 
" style="fill:none;stroke:#b0b0b0;stroke-linecap:square;stroke-width:0.8;"/>
     </g>
     <g id="line2d_12">
      <g>
       <use style="stroke:#000000;stroke-width:0.8;" x="396.513285" xlink:href="#m5bdf2c36a1" y="255.638708"/>
      </g>
     </g>
     <g id="text_6">
      <!-- 2024-11-17 -->
      <g transform="translate(389.167892 319.848351)rotate(-70)scale(0.1 -0.1)">
       <defs>
        <path d="M 8.203125 72.90625 
L 55.078125 72.90625 
L 55.078125 68.703125 
L 28.609375 0 
L 18.3125 0 
L 43.21875 64.59375 
L 8.203125 64.59375 
z
" id="DejaVuSans-55"/>
       </defs>
       <use xlink:href="#DejaVuSans-50"/>
       <use x="63.623047" xlink:href="#DejaVuSans-48"/>
       <use x="127.246094" xlink:href="#DejaVuSans-50"/>
       <use x="190.869141" xlink:href="#DejaVuSans-52"/>
       <use x="254.492188" xlink:href="#DejaVuSans-45"/>
       <use x="290.576172" xlink:href="#DejaVuSans-49"/>
       <use x="354.199219" xlink:href="#DejaVuSans-49"/>
       <use x="417.822266" xlink:href="#DejaVuSans-45"/>
       <use x="453.90625" xlink:href="#DejaVuSans-49"/>
       <use x="517.529297" xlink:href="#DejaVuSans-55"/>
      </g>
     </g>
    </g>
    <g id="text_7">
     <!-- Date -->
     <g transform="translate(240.149219 332.158083)scale(0.1 -0.1)">
      <defs>
       <path d="M 19.671875 64.796875 
L 19.671875 8.109375 
L 31.59375 8.109375 
Q 46.6875 8.109375 53.6875 14.9375 
Q 60.6875 21.78125 60.6875 36.53125 
Q 60.6875 51.171875 53.6875 57.984375 
Q 46.6875 64.796875 31.59375 64.796875 
z
M 9.8125 72.90625 
L 30.078125 72.90625 
Q 51.265625 72.90625 61.171875 64.09375 
Q 71.09375 55.28125 71.09375 36.53125 
Q 71.09375 17.671875 61.125 8.828125 
Q 51.171875 0 30.078125 0 
L 9.8125 0 
z
" id="DejaVuSans-68"/>
       <path d="M 34.28125 27.484375 
Q 23.390625 27.484375 19.1875 25 
Q 14.984375 22.515625 14.984375 16.5 
Q 14.984375 11.71875 18.140625 8.90625 
Q 21.296875 6.109375 26.703125 6.109375 
Q 34.1875 6.109375 38.703125 11.40625 
Q 43.21875 16.703125 43.21875 25.484375 
L 43.21875 27.484375 
z
M 52.203125 31.203125 
L 52.203125 0 
L 43.21875 0 
L 43.21875 8.296875 
Q 40.140625 3.328125 35.546875 0.953125 
Q 30.953125 -1.421875 24.3125 -1.421875 
Q 15.921875 -1.421875 10.953125 3.296875 
Q 6 8.015625 6 15.921875 
Q 6 25.140625 12.171875 29.828125 
Q 18.359375 34.515625 30.609375 34.515625 
L 43.21875 34.515625 
L 43.21875 35.40625 
Q 43.21875 41.609375 39.140625 45 
Q 35.0625 48.390625 27.6875 48.390625 
Q 23 48.390625 18.546875 47.265625 
Q 14.109375 46.140625 10.015625 43.890625 
L 10.015625 52.203125 
Q 14.9375 54.109375 19.578125 55.046875 
Q 24.21875 56 28.609375 56 
Q 40.484375 56 46.34375 49.84375 
Q 52.203125 43.703125 52.203125 31.203125 
z
" id="DejaVuSans-97"/>
       <path d="M 18.3125 70.21875 
L 18.3125 54.6875 
L 36.8125 54.6875 
L 36.8125 47.703125 
L 18.3125 47.703125 
L 18.3125 18.015625 
Q 18.3125 11.328125 20.140625 9.421875 
Q 21.96875 7.515625 27.59375 7.515625 
L 36.8125 7.515625 
L 36.8125 0 
L 27.59375 0 
Q 17.1875 0 13.234375 3.875 
Q 9.28125 7.765625 9.28125 18.015625 
L 9.28125 47.703125 
L 2.6875 47.703125 
L 2.6875 54.6875 
L 9.28125 54.6875 
L 9.28125 70.21875 
z
" id="DejaVuSans-116"/>
       <path d="M 56.203125 29.59375 
L 56.203125 25.203125 
L 14.890625 25.203125 
Q 15.484375 15.921875 20.484375 11.0625 
Q 25.484375 6.203125 34.421875 6.203125 
Q 39.59375 6.203125 44.453125 7.46875 
Q 49.3125 8.734375 54.109375 11.28125 
L 54.109375 2.78125 
Q 49.265625 0.734375 44.1875 -0.34375 
Q 39.109375 -1.421875 33.890625 -1.421875 
Q 20.796875 -1.421875 13.15625 6.1875 
Q 5.515625 13.8125 5.515625 26.8125 
Q 5.515625 40.234375 12.765625 48.109375 
Q 20.015625 56 32.328125 56 
Q 43.359375 56 49.78125 48.890625 
Q 56.203125 41.796875 56.203125 29.59375 
z
M 47.21875 32.234375 
Q 47.125 39.59375 43.09375 43.984375 
Q 39.0625 48.390625 32.421875 48.390625 
Q 24.90625 48.390625 20.390625 44.140625 
Q 15.875 39.890625 15.1875 32.171875 
z
" id="DejaVuSans-101"/>
      </defs>
      <use xlink:href="#DejaVuSans-68"/>
      <use x="77.001953" xlink:href="#DejaVuSans-97"/>
      <use x="138.28125" xlink:href="#DejaVuSans-116"/>
      <use x="177.490234" xlink:href="#DejaVuSans-101"/>
     </g>
    </g>
   </g>
   <g id="matplotlib.axis_2">
    <g id="ytick_1">
     <g id="line2d_13">
      <path clip-path="url(#p0950dd2b52)" d="M 54.2 249.904431 
L 450 249.904431 
" style="fill:none;stroke:#b0b0b0;stroke-linecap:square;stroke-width:0.8;"/>
     </g>
     <g id="line2d_14">
      <defs>
       <path d="M 0 0 
L -3.5 0 
" id="m7d1cd5e408" style="stroke:#000000;stroke-width:0.8;"/>
      </defs>
      <g>
       <use style="stroke:#000000;stroke-width:0.8;" x="54.2" xlink:href="#m7d1cd5e408" y="249.904431"/>
      </g>
     </g>
     <g id="text_8">
      <!-- 37.5 -->
      <g transform="translate(24.934375 253.70365)scale(0.1 -0.1)">
       <defs>
        <path d="M 10.6875 12.40625 
L 21 12.40625 
L 21 0 
L 10.6875 0 
z
" id="DejaVuSans-46"/>
       </defs>
       <use xlink:href="#DejaVuSans-51"/>
       <use x="63.623047" xlink:href="#DejaVuSans-55"/>
       <use x="127.246094" xlink:href="#DejaVuSans-46"/>
       <use x="159.033203" xlink:href="#DejaVuSans-53"/>
      </g>
     </g>
    </g>
    <g id="ytick_2">
     <g id="line2d_15">
      <path clip-path="url(#p0950dd2b52)" d="M 54.2 220.346302 
L 450 220.346302 
" style="fill:none;stroke:#b0b0b0;stroke-linecap:square;stroke-width:0.8;"/>
     </g>
     <g id="line2d_16">
      <g>
       <use style="stroke:#000000;stroke-width:0.8;" x="54.2" xlink:href="#m7d1cd5e408" y="220.346302"/>
      </g>
     </g>
     <g id="text_9">
      <!-- 40.0 -->
      <g transform="translate(24.934375 224.145521)scale(0.1 -0.1)">
       <use xlink:href="#DejaVuSans-52"/>
       <use x="63.623047" xlink:href="#DejaVuSans-48"/>
       <use x="127.246094" xlink:href="#DejaVuSans-46"/>
       <use x="159.033203" xlink:href="#DejaVuSans-48"/>
      </g>
     </g>
    </g>
    <g id="ytick_3">
     <g id="line2d_17">
      <path clip-path="url(#p0950dd2b52)" d="M 54.2 190.788173 
L 450 190.788173 
" style="fill:none;stroke:#b0b0b0;stroke-linecap:square;stroke-width:0.8;"/>
     </g>
     <g id="line2d_18">
      <g>
       <use style="stroke:#000000;stroke-width:0.8;" x="54.2" xlink:href="#m7d1cd5e408" y="190.788173"/>
      </g>
     </g>
     <g id="text_10">
      <!-- 42.5 -->
      <g transform="translate(24.934375 194.587392)scale(0.1 -0.1)">
       <use xlink:href="#DejaVuSans-52"/>
       <use x="63.623047" xlink:href="#DejaVuSans-50"/>
       <use x="127.246094" xlink:href="#DejaVuSans-46"/>
       <use x="159.033203" xlink:href="#DejaVuSans-53"/>
      </g>
     </g>
    </g>
    <g id="ytick_4">
     <g id="line2d_19">
      <path clip-path="url(#p0950dd2b52)" d="M 54.2 161.230044 
L 450 161.230044 
" style="fill:none;stroke:#b0b0b0;stroke-linecap:square;stroke-width:0.8;"/>
     </g>
     <g id="line2d_20">
      <g>
       <use style="stroke:#000000;stroke-width:0.8;" x="54.2" xlink:href="#m7d1cd5e408" y="161.230044"/>
      </g>
     </g>
     <g id="text_11">
      <!-- 45.0 -->
      <g transform="translate(24.934375 165.029263)scale(0.1 -0.1)">
       <use xlink:href="#DejaVuSans-52"/>
       <use x="63.623047" xlink:href="#DejaVuSans-53"/>
       <use x="127.246094" xlink:href="#DejaVuSans-46"/>
       <use x="159.033203" xlink:href="#DejaVuSans-48"/>
      </g>
     </g>
    </g>
    <g id="ytick_5">
     <g id="line2d_21">
      <path clip-path="url(#p0950dd2b52)" d="M 54.2 131.671915 
L 450 131.671915 
" style="fill:none;stroke:#b0b0b0;stroke-linecap:square;stroke-width:0.8;"/>
     </g>
     <g id="line2d_22">
      <g>
       <use style="stroke:#000000;stroke-width:0.8;" x="54.2" xlink:href="#m7d1cd5e408" y="131.671915"/>
      </g>
     </g>
     <g id="text_12">
      <!-- 47.5 -->
      <g transform="translate(24.934375 135.471134)scale(0.1 -0.1)">
       <use xlink:href="#DejaVuSans-52"/>
       <use x="63.623047" xlink:href="#DejaVuSans-55"/>
       <use x="127.246094" xlink:href="#DejaVuSans-46"/>
       <use x="159.033203" xlink:href="#DejaVuSans-53"/>
      </g>
     </g>
    </g>
    <g id="ytick_6">
     <g id="line2d_23">
      <path clip-path="url(#p0950dd2b52)" d="M 54.2 102.113786 
L 450 102.113786 
" style="fill:none;stroke:#b0b0b0;stroke-linecap:square;stroke-width:0.8;"/>
     </g>
     <g id="line2d_24">
      <g>
       <use style="stroke:#000000;stroke-width:0.8;" x="54.2" xlink:href="#m7d1cd5e408" y="102.113786"/>
      </g>
     </g>
     <g id="text_13">
      <!-- 50.0 -->
      <g transform="translate(24.934375 105.913005)scale(0.1 -0.1)">
       <use xlink:href="#DejaVuSans-53"/>
       <use x="63.623047" xlink:href="#DejaVuSans-48"/>
       <use x="127.246094" xlink:href="#DejaVuSans-46"/>
       <use x="159.033203" xlink:href="#DejaVuSans-48"/>
      </g>
     </g>
    </g>
    <g id="ytick_7">
     <g id="line2d_25">
      <path clip-path="url(#p0950dd2b52)" d="M 54.2 72.555657 
L 450 72.555657 
" style="fill:none;stroke:#b0b0b0;stroke-linecap:square;stroke-width:0.8;"/>
     </g>
     <g id="line2d_26">
      <g>
       <use style="stroke:#000000;stroke-width:0.8;" x="54.2" xlink:href="#m7d1cd5e408" y="72.555657"/>
      </g>
     </g>
     <g id="text_14">
      <!-- 52.5 -->
      <g transform="translate(24.934375 76.354876)scale(0.1 -0.1)">
       <use xlink:href="#DejaVuSans-53"/>
       <use x="63.623047" xlink:href="#DejaVuSans-50"/>
       <use x="127.246094" xlink:href="#DejaVuSans-46"/>
       <use x="159.033203" xlink:href="#DejaVuSans-53"/>
      </g>
     </g>
    </g>
    <g id="ytick_8">
     <g id="line2d_27">
      <path clip-path="url(#p0950dd2b52)" d="M 54.2 42.997529 
L 450 42.997529 
" style="fill:none;stroke:#b0b0b0;stroke-linecap:square;stroke-width:0.8;"/>
     </g>
     <g id="line2d_28">
      <g>
       <use style="stroke:#000000;stroke-width:0.8;" x="54.2" xlink:href="#m7d1cd5e408" y="42.997529"/>
      </g>
     </g>
     <g id="text_15">
      <!-- 55.0 -->
      <g transform="translate(24.934375 46.796747)scale(0.1 -0.1)">
       <use xlink:href="#DejaVuSans-53"/>
       <use x="63.623047" xlink:href="#DejaVuSans-53"/>
       <use x="127.246094" xlink:href="#DejaVuSans-46"/>
       <use x="159.033203" xlink:href="#DejaVuSans-48"/>
      </g>
     </g>
    </g>
    <g id="text_16">
     <!-- Temperature [F] -->
     <g transform="translate(18.854688 180.575291)rotate(-90)scale(0.1 -0.1)">
      <defs>
       <path d="M -0.296875 72.90625 
L 61.375 72.90625 
L 61.375 64.59375 
L 35.5 64.59375 
L 35.5 0 
L 25.59375 0 
L 25.59375 64.59375 
L -0.296875 64.59375 
z
" id="DejaVuSans-84"/>
       <path d="M 52 44.1875 
Q 55.375 50.25 60.0625 53.125 
Q 64.75 56 71.09375 56 
Q 79.640625 56 84.28125 50.015625 
Q 88.921875 44.046875 88.921875 33.015625 
L 88.921875 0 
L 79.890625 0 
L 79.890625 32.71875 
Q 79.890625 40.578125 77.09375 44.375 
Q 74.3125 48.1875 68.609375 48.1875 
Q 61.625 48.1875 57.5625 43.546875 
Q 53.515625 38.921875 53.515625 30.90625 
L 53.515625 0 
L 44.484375 0 
L 44.484375 32.71875 
Q 44.484375 40.625 41.703125 44.40625 
Q 38.921875 48.1875 33.109375 48.1875 
Q 26.21875 48.1875 22.15625 43.53125 
Q 18.109375 38.875 18.109375 30.90625 
L 18.109375 0 
L 9.078125 0 
L 9.078125 54.6875 
L 18.109375 54.6875 
L 18.109375 46.1875 
Q 21.1875 51.21875 25.484375 53.609375 
Q 29.78125 56 35.6875 56 
Q 41.65625 56 45.828125 52.96875 
Q 50 49.953125 52 44.1875 
z
" id="DejaVuSans-109"/>
       <path d="M 18.109375 8.203125 
L 18.109375 -20.796875 
L 9.078125 -20.796875 
L 9.078125 54.6875 
L 18.109375 54.6875 
L 18.109375 46.390625 
Q 20.953125 51.265625 25.265625 53.625 
Q 29.59375 56 35.59375 56 
Q 45.5625 56 51.78125 48.09375 
Q 58.015625 40.1875 58.015625 27.296875 
Q 58.015625 14.40625 51.78125 6.484375 
Q 45.5625 -1.421875 35.59375 -1.421875 
Q 29.59375 -1.421875 25.265625 0.953125 
Q 20.953125 3.328125 18.109375 8.203125 
z
M 48.6875 27.296875 
Q 48.6875 37.203125 44.609375 42.84375 
Q 40.53125 48.484375 33.40625 48.484375 
Q 26.265625 48.484375 22.1875 42.84375 
Q 18.109375 37.203125 18.109375 27.296875 
Q 18.109375 17.390625 22.1875 11.75 
Q 26.265625 6.109375 33.40625 6.109375 
Q 40.53125 6.109375 44.609375 11.75 
Q 48.6875 17.390625 48.6875 27.296875 
z
" id="DejaVuSans-112"/>
       <path d="M 41.109375 46.296875 
Q 39.59375 47.171875 37.8125 47.578125 
Q 36.03125 48 33.890625 48 
Q 26.265625 48 22.1875 43.046875 
Q 18.109375 38.09375 18.109375 28.8125 
L 18.109375 0 
L 9.078125 0 
L 9.078125 54.6875 
L 18.109375 54.6875 
L 18.109375 46.1875 
Q 20.953125 51.171875 25.484375 53.578125 
Q 30.03125 56 36.53125 56 
Q 37.453125 56 38.578125 55.875 
Q 39.703125 55.765625 41.0625 55.515625 
z
" id="DejaVuSans-114"/>
       <path d="M 8.5 21.578125 
L 8.5 54.6875 
L 17.484375 54.6875 
L 17.484375 21.921875 
Q 17.484375 14.15625 20.5 10.265625 
Q 23.53125 6.390625 29.59375 6.390625 
Q 36.859375 6.390625 41.078125 11.03125 
Q 45.3125 15.671875 45.3125 23.6875 
L 45.3125 54.6875 
L 54.296875 54.6875 
L 54.296875 0 
L 45.3125 0 
L 45.3125 8.40625 
Q 42.046875 3.421875 37.71875 1 
Q 33.40625 -1.421875 27.6875 -1.421875 
Q 18.265625 -1.421875 13.375 4.4375 
Q 8.5 10.296875 8.5 21.578125 
z
M 31.109375 56 
z
" id="DejaVuSans-117"/>
       <path id="DejaVuSans-32"/>
       <path d="M 8.59375 75.984375 
L 29.296875 75.984375 
L 29.296875 69 
L 17.578125 69 
L 17.578125 -6.203125 
L 29.296875 -6.203125 
L 29.296875 -13.1875 
L 8.59375 -13.1875 
z
" id="DejaVuSans-91"/>
       <path d="M 9.8125 72.90625 
L 51.703125 72.90625 
L 51.703125 64.59375 
L 19.671875 64.59375 
L 19.671875 43.109375 
L 48.578125 43.109375 
L 48.578125 34.8125 
L 19.671875 34.8125 
L 19.671875 0 
L 9.8125 0 
z
" id="DejaVuSans-70"/>
       <path d="M 30.421875 75.984375 
L 30.421875 -13.1875 
L 9.71875 -13.1875 
L 9.71875 -6.203125 
L 21.390625 -6.203125 
L 21.390625 69 
L 9.71875 69 
L 9.71875 75.984375 
z
" id="DejaVuSans-93"/>
      </defs>
      <use xlink:href="#DejaVuSans-84"/>
      <use x="44.083984" xlink:href="#DejaVuSans-101"/>
      <use x="105.607422" xlink:href="#DejaVuSans-109"/>
      <use x="203.019531" xlink:href="#DejaVuSans-112"/>
      <use x="266.496094" xlink:href="#DejaVuSans-101"/>
      <use x="328.019531" xlink:href="#DejaVuSans-114"/>
      <use x="369.132812" xlink:href="#DejaVuSans-97"/>
      <use x="430.412109" xlink:href="#DejaVuSans-116"/>
      <use x="469.621094" xlink:href="#DejaVuSans-117"/>
      <use x="533" xlink:href="#DejaVuSans-114"/>
      <use x="571.863281" xlink:href="#DejaVuSans-101"/>
      <use x="633.386719" xlink:href="#DejaVuSans-32"/>
      <use x="665.173828" xlink:href="#DejaVuSans-91"/>
      <use x="704.1875" xlink:href="#DejaVuSans-70"/>
      <use x="761.707031" xlink:href="#DejaVuSans-93"/>
     </g>
    </g>
   </g>
   <g id="line2d_29">
    <path clip-path="url(#p0950dd2b52)" d="M 72.190909 41.815203 
L 72.314976 41.815203 
L 72.327238 40.632878 
L 72.426001 41.815203 
L 72.512519 41.815203 
L 72.525383 42.997529 
L 72.611807 41.815203 
L 72.922301 41.815203 
L 73.045042 42.997529 
L 73.131594 42.997529 
L 73.22969 41.815203 
L 73.242215 42.997529 
L 73.266737 42.997529 
L 73.353854 41.815203 
L 73.366154 42.997529 
L 73.564871 42.997529 
L 73.680429 45.362179 
L 73.729556 42.997529 
L 73.77887 45.362179 
L 73.885335 45.362179 
L 73.910359 42.997529 
L 73.985204 45.362179 
L 74.034661 45.362179 
L 74.13389 42.997529 
L 74.246051 45.362179 
L 74.358195 42.997529 
L 74.520267 42.997529 
L 74.532639 45.362179 
L 74.619369 42.997529 
L 74.869139 42.997529 
L 74.918667 45.362179 
L 74.968878 42.997529 
L 75.018606 42.997529 
L 75.105929 45.362179 
L 75.118192 42.997529 
L 75.331426 42.997529 
L 75.431268 45.362179 
L 75.543448 42.997529 
L 75.642912 45.362179 
L 75.730834 42.997529 
L 75.743135 45.362179 
L 75.818729 45.362179 
L 75.882005 42.997529 
L 75.919578 45.362179 
L 75.983245 45.362179 
L 75.996392 42.997529 
L 76.08711 45.362179 
L 76.100466 45.362179 
L 76.177388 42.997529 
L 76.20231 45.362179 
L 76.253329 45.362179 
L 76.265591 42.997529 
L 76.29071 45.362179 
L 76.391217 45.362179 
L 76.428295 42.997529 
L 76.49307 45.362179 
L 76.555747 45.362179 
L 76.630579 42.997529 
L 76.65548 45.362179 
L 76.742812 45.362179 
L 76.805205 42.997529 
L 76.843039 45.362179 
L 77.209224 45.362179 
L 77.32972 46.544504 
L 77.366645 45.362179 
L 77.440467 46.544504 
L 77.861232 46.544504 
L 77.936292 47.726829 
L 77.962275 46.544504 
L 78.421486 46.544504 
L 78.458286 45.362179 
L 78.532582 46.544504 
L 78.886038 46.544504 
L 78.89855 45.362179 
L 78.986873 46.544504 
L 78.999363 46.544504 
L 79.01164 45.362179 
L 79.09968 46.544504 
L 79.111938 46.544504 
L 79.199163 45.362179 
L 79.211416 46.544504 
L 79.248366 46.544504 
L 79.359925 45.362179 
L 79.410195 45.362179 
L 79.521211 42.997529 
L 79.658753 42.997529 
L 79.671057 41.815203 
L 79.758298 42.997529 
L 79.810826 42.997529 
L 79.91153 41.815203 
L 80.023492 42.997529 
L 80.085929 42.997529 
L 80.098306 41.815203 
L 80.184815 42.997529 
L 80.435403 42.997529 
L 80.484736 41.815203 
L 80.534893 42.997529 
L 80.584298 42.997529 
L 80.695842 41.815203 
L 81.072968 41.815203 
L 81.629377 40.632878 
L 81.877516 40.632878 
L 81.990157 39.450553 
L 82.405091 39.450553 
L 82.519067 38.268228 
L 82.618154 38.268228 
L 82.742306 35.903578 
L 82.755016 35.903578 
L 82.866505 37.085903 
L 83.204153 37.085903 
L 83.216452 35.903578 
L 83.302786 37.085903 
L 83.340146 37.085903 
L 83.45162 35.903578 
L 83.500914 35.903578 
L 83.614391 38.268228 
L 83.651262 38.268228 
L 83.663769 37.085903 
L 83.751646 38.268228 
L 83.942617 38.268228 
L 84.041282 39.450553 
L 84.156438 38.268228 
L 84.269317 39.450553 
L 84.483094 39.450553 
L 84.584339 40.632878 
L 84.646443 39.450553 
L 84.683631 40.632878 
L 84.895959 40.632878 
L 84.908221 39.450553 
L 84.997699 40.632878 
L 85.324883 40.632878 
L 85.439796 41.815203 
L 85.49365 41.815203 
L 85.543395 40.632878 
L 85.594523 41.815203 
L 85.810682 41.815203 
L 85.922882 42.997529 
L 85.998266 41.815203 
L 86.024021 42.997529 
L 86.049694 42.997529 
L 86.063047 41.815203 
L 86.150057 42.997529 
L 86.263552 42.997529 
L 86.275918 45.362179 
L 86.340904 42.997529 
L 86.467882 42.997529 
L 86.581947 45.362179 
L 86.61888 45.362179 
L 86.706362 42.997529 
L 86.719189 45.362179 
L 86.731839 45.362179 
L 86.768618 42.997529 
L 86.830909 45.362179 
L 87.092259 45.362179 
L 87.104548 46.544504 
L 87.19137 45.362179 
L 87.952855 45.362179 
L 88.065218 46.544504 
L 88.17734 45.362179 
L 88.254908 46.544504 
L 88.279815 45.362179 
L 88.342231 45.362179 
L 88.455237 46.544504 
L 88.505011 46.544504 
L 88.51723 45.362179 
L 88.60471 46.544504 
L 88.643069 46.544504 
L 88.759803 45.362179 
L 88.799437 45.362179 
L 88.915912 46.544504 
L 89.104182 46.544504 
L 89.17883 45.362179 
L 89.203475 46.544504 
L 89.489668 46.544504 
L 89.502498 47.726829 
L 89.590229 46.544504 
L 89.728206 46.544504 
L 89.740679 47.726829 
L 89.827112 46.544504 
L 90.025869 46.544504 
L 90.051014 47.726829 
L 90.12631 46.544504 
L 90.163051 46.544504 
L 90.263196 47.726829 
L 90.351242 46.544504 
L 90.363504 47.726829 
L 90.424961 47.726829 
L 90.437302 46.544504 
L 90.536076 47.726829 
L 90.573467 47.726829 
L 90.598644 46.544504 
L 90.672558 47.726829 
L 90.712784 47.726829 
L 90.799656 46.544504 
L 90.812134 47.726829 
L 90.824415 47.726829 
L 90.837122 46.544504 
L 90.929859 47.726829 
L 91.092516 47.726829 
L 91.203903 48.909154 
L 91.326852 47.726829 
L 91.339319 47.726829 
L 91.45407 48.909154 
L 91.5038 48.909154 
L 91.542277 47.726829 
L 91.604392 48.909154 
L 92.10439 48.909154 
L 92.153958 50.09148 
L 92.203522 48.909154 
L 92.228529 48.909154 
L 92.340805 50.09148 
L 92.353072 48.909154 
L 92.440794 50.09148 
L 92.453179 50.09148 
L 92.56534 48.909154 
L 92.677134 50.09148 
L 92.84706 50.09148 
L 92.912917 48.909154 
L 92.975825 48.909154 
L 93.048223 50.09148 
L 93.07687 48.909154 
L 93.15553 48.909154 
L 93.273638 50.09148 
L 93.334379 50.09148 
L 93.435956 48.909154 
L 93.524884 50.09148 
L 94.059938 50.09148 
L 94.176816 51.273805 
L 94.3615 51.273805 
L 94.386446 52.45613 
L 94.466516 51.273805 
L 94.535816 51.273805 
L 94.587791 52.45613 
L 94.637153 51.273805 
L 94.649387 51.273805 
L 94.761209 52.45613 
L 94.948251 52.45613 
L 95.047161 51.273805 
L 95.159387 52.45613 
L 95.33303 52.45613 
L 95.44409 51.273805 
L 95.469181 51.273805 
L 95.582499 52.45613 
L 95.694771 52.45613 
L 95.809928 51.273805 
L 95.953591 51.273805 
L 96.055093 52.45613 
L 96.177936 51.273805 
L 96.858717 51.273805 
L 96.871108 52.45613 
L 96.959946 51.273805 
L 97.137672 51.273805 
L 97.150406 52.45613 
L 97.241561 51.273805 
L 97.406949 51.273805 
L 97.419418 52.45613 
L 97.510746 51.273805 
L 97.57294 51.273805 
L 97.585932 50.09148 
L 97.671983 51.273805 
L 97.845647 51.273805 
L 97.857923 52.45613 
L 97.944421 51.273805 
L 98.265873 51.273805 
L 98.29551 52.45613 
L 98.373495 51.273805 
L 99.152494 52.45613 
L 99.975693 52.45613 
L 99.988165 51.273805 
L 100.076775 52.45613 
L 100.914507 52.45613 
L 100.976332 54.82078 
L 101.025598 52.45613 
L 101.050073 52.45613 
L 101.062479 54.82078 
L 101.150004 52.45613 
L 101.286356 52.45613 
L 101.385294 54.82078 
L 101.497782 52.45613 
L 101.559606 54.82078 
L 101.597124 52.45613 
L 101.648222 52.45613 
L 101.735495 54.82078 
L 101.748129 52.45613 
L 101.760427 52.45613 
L 101.835156 54.82078 
L 101.847406 52.45613 
L 102.050791 52.45613 
L 102.14903 54.82078 
L 102.162947 52.45613 
L 102.259781 54.82078 
L 102.285064 54.82078 
L 103.14309 56.003105 
L 103.258601 56.003105 
L 103.308365 57.18543 
L 103.719794 56.003105 
L 103.836608 57.18543 
L 103.963784 56.003105 
L 104.016272 57.18543 
L 104.067409 56.003105 
L 104.143754 56.003105 
L 104.182615 57.18543 
L 104.245444 56.003105 
L 104.323942 56.003105 
L 104.361733 57.18543 
L 104.433919 56.003105 
L 104.551256 57.18543 
L 104.9832 57.18543 
L 105.085328 58.367756 
L 105.198017 57.18543 
L 105.22406 57.18543 
L 105.336319 58.367756 
L 105.45961 57.18543 
L 105.497168 58.367756 
L 105.559388 57.18543 
L 105.58392 57.18543 
L 105.633081 58.367756 
L 105.694936 57.18543 
L 105.719459 57.18543 
L 105.842839 58.367756 
L 105.855418 58.367756 
L 105.965919 57.18543 
L 106.081324 58.367756 
L 106.109768 58.367756 
L 106.222094 59.550081 
L 106.272224 59.550081 
L 106.322673 58.367756 
L 106.372174 59.550081 
L 106.434922 59.550081 
L 106.45989 60.732406 
L 106.472119 58.367756 
L 106.521674 58.367756 
L 106.62118 58.367756 
L 106.633439 59.550081 
L 106.731888 58.367756 
L 107.002693 58.367756 
L 107.064527 60.732406 
L 107.12016 59.550081 
L 107.231312 58.367756 
L 107.379039 58.367756 
L 107.501713 59.550081 
L 107.612795 58.367756 
L 107.625048 59.550081 
L 107.723279 58.367756 
L 107.735519 58.367756 
L 107.889196 59.550081 
L 107.901861 59.550081 
L 107.914281 58.367756 
L 108.009294 59.550081 
L 108.049396 59.550081 
L 108.074845 60.732406 
L 108.099494 58.367756 
L 108.136715 59.550081 
L 108.18644 58.367756 
L 108.236747 59.550081 
L 108.820248 59.550081 
L 108.844946 60.732406 
L 108.919932 59.550081 
L 109.057405 59.550081 
L 109.183594 61.914731 
L 109.297954 60.732406 
L 109.310394 61.914731 
L 109.3979 60.732406 
L 109.737789 60.732406 
L 109.851803 61.914731 
L 109.880662 61.914731 
L 110.004174 63.097056 
L 110.124082 60.732406 
L 110.22199 60.732406 
L 110.337361 61.914731 
L 110.651474 61.914731 
L 110.665632 60.732406 
L 110.758848 61.914731 
L 110.851684 61.914731 
L 110.978866 60.732406 
L 111.325249 60.732406 
L 111.365476 59.550081 
L 111.428062 60.732406 
L 111.702084 60.732406 
L 111.714917 61.914731 
L 111.812433 60.732406 
L 112.122682 60.732406 
L 112.136136 61.914731 
L 112.221716 60.732406 
L 112.351683 60.732406 
L 112.465457 61.914731 
L 112.53668 61.914731 
L 112.608214 60.732406 
L 112.621808 61.914731 
L 112.746203 60.732406 
L 112.856735 61.914731 
L 112.870976 61.914731 
L 112.988756 60.732406 
L 113.028011 60.732406 
L 113.129857 61.914731 
L 113.243153 60.732406 
L 113.269374 60.732406 
L 113.376641 61.914731 
L 113.467493 60.732406 
L 113.479713 61.914731 
L 113.560056 61.914731 
L 113.67278 60.732406 
L 114.058602 60.732406 
L 114.174524 59.550081 
L 114.625239 59.550081 
L 114.711829 58.367756 
L 114.724516 59.550081 
L 114.736899 59.550081 
L 114.857501 58.367756 
L 114.883525 58.367756 
L 114.895976 59.550081 
L 114.99439 58.367756 
L 115.260498 58.367756 
L 115.37719 57.18543 
L 115.389692 57.18543 
L 115.500806 58.367756 
L 115.613423 57.18543 
L 115.700934 57.18543 
L 115.713242 56.003105 
L 115.800905 57.18543 
L 115.813207 57.18543 
L 115.912764 56.003105 
L 116.023711 57.18543 
L 116.13685 56.003105 
L 116.301904 56.003105 
L 116.414992 54.82078 
L 116.477141 54.82078 
L 116.59006 52.45613 
L 116.603018 52.45613 
L 116.628106 54.82078 
L 116.703361 52.45613 
L 116.778321 52.45613 
L 116.803678 54.82078 
L 117.132227 54.82078 
L 117.188455 52.45613 
L 117.202552 54.82078 
L 117.250611 54.82078 
L 117.368475 52.45613 
L 117.396416 52.45613 
L 117.494445 54.82078 
L 117.506751 52.45613 
L 117.580404 52.45613 
L 117.694061 56.003105 
L 117.811844 54.82078 
L 117.913944 56.003105 
L 117.96607 56.003105 
L 118.060819 54.82078 
L 118.076284 56.003105 
L 118.088567 56.003105 
L 118.144217 54.82078 
L 118.184299 56.003105 
L 118.266023 56.003105 
L 118.278284 54.82078 
L 118.365881 56.003105 
L 118.642482 56.003105 
L 118.755903 57.18543 
L 118.842777 56.003105 
L 118.855006 57.18543 
L 119.190659 57.18543 
L 119.203279 58.367756 
L 119.301587 57.18543 
L 119.314634 57.18543 
L 119.339432 58.367756 
L 119.415067 57.18543 
L 119.59228 57.18543 
L 119.67183 58.367756 
L 119.698681 57.18543 
L 119.810689 57.18543 
L 119.92301 58.367756 
L 119.935276 58.367756 
L 119.947576 57.18543 
L 120.034666 58.367756 
L 120.459995 58.367756 
L 120.472696 59.550081 
L 120.560741 58.367756 
L 120.648382 58.367756 
L 120.764637 59.550081 
L 121.087405 59.550081 
L 121.100084 58.367756 
L 121.125018 59.550081 
L 121.393881 59.550081 
L 121.457806 60.732406 
L 121.49537 59.550081 
L 121.533591 59.550081 
L 121.649235 60.732406 
L 121.764351 59.550081 
L 121.777138 59.550081 
L 121.894682 60.732406 
L 121.920097 60.732406 
L 122.02436 59.550081 
L 122.03699 60.732406 
L 122.126001 59.550081 
L 122.188081 59.550081 
L 122.303735 60.732406 
L 122.328326 60.732406 
L 122.440525 59.550081 
L 122.465321 59.550081 
L 122.57866 60.732406 
L 122.591038 60.732406 
L 122.603398 59.550081 
L 122.690989 60.732406 
L 122.80679 60.732406 
L 122.919887 61.914731 
L 123.277985 61.914731 
L 123.392251 60.732406 
L 123.467956 60.732406 
L 123.480519 61.914731 
L 123.567614 60.732406 
L 123.629844 60.732406 
L 123.716841 61.914731 
L 123.729063 60.732406 
L 123.839811 60.732406 
L 123.952012 61.914731 
L 124.089623 61.914731 
L 124.200817 63.097056 
L 124.312552 61.914731 
L 124.939461 61.914731 
L 124.951801 60.732406 
L 125.044407 61.914731 
L 125.17762 61.914731 
L 125.278603 63.097056 
L 125.390987 61.914731 
L 125.506085 63.097056 
L 125.618554 61.914731 
L 125.643672 61.914731 
L 125.755367 63.097056 
L 125.843038 63.097056 
L 125.956323 64.279381 
L 125.96859 64.279381 
L 126.081157 63.097056 
L 126.243031 63.097056 
L 126.255294 64.279381 
L 126.341823 63.097056 
L 126.429299 63.097056 
L 126.453846 64.279381 
L 126.529195 63.097056 
L 126.603087 63.097056 
L 126.689599 64.279381 
L 126.70206 63.097056 
L 126.814224 63.097056 
L 126.913395 64.279381 
L 126.925637 63.097056 
L 127.013953 64.279381 
L 127.27625 64.279381 
L 127.388936 63.097056 
L 127.438762 63.097056 
L 127.55002 64.279381 
L 127.662159 63.097056 
L 127.774833 64.279381 
L 128.023696 64.279381 
L 128.036107 66.644032 
L 128.115708 64.279381 
L 128.516069 64.279381 
L 128.529262 66.644032 
L 128.621247 64.279381 
L 128.659729 64.279381 
L 128.770354 66.644032 
L 128.881584 64.279381 
L 129.129662 64.279381 
L 129.229061 66.644032 
L 129.241522 64.279381 
L 129.340029 66.644032 
L 129.389636 66.644032 
L 129.501595 67.826357 
L 129.526237 67.826357 
L 129.637273 66.644032 
L 129.689893 66.644032 
L 129.702297 67.826357 
L 129.79281 66.644032 
L 129.870112 64.279381 
L 129.882837 66.644032 
L 130.325218 66.644032 
L 130.428455 64.279381 
L 130.546008 66.644032 
L 130.660207 64.279381 
L 130.778033 66.644032 
L 130.897935 64.279381 
L 130.912036 64.279381 
L 131.00412 66.644032 
L 131.018664 64.279381 
L 131.032909 64.279381 
L 131.062248 66.644032 
L 131.128771 64.279381 
L 131.164818 64.279381 
L 131.287758 66.644032 
L 131.410671 64.279381 
L 131.424041 66.644032 
L 131.505411 64.279381 
L 131.678846 64.279381 
L 131.795057 63.097056 
L 131.908784 64.279381 
L 132.027041 63.097056 
L 132.093487 63.097056 
L 132.211239 64.279381 
L 132.285398 63.097056 
L 132.310136 64.279381 
L 132.322377 64.279381 
L 132.436014 63.097056 
L 132.53744 64.279381 
L 132.651058 63.097056 
L 132.764247 64.279381 
L 132.813517 64.279381 
L 132.888856 63.097056 
L 132.91435 64.279381 
L 133.853933 64.279381 
L 133.891686 63.097056 
L 133.958566 64.279381 
L 134.265099 64.279381 
L 134.277757 66.644032 
L 134.365874 64.279381 
L 134.714457 64.279381 
L 134.76379 66.644032 
L 134.801618 64.279381 
L 135.287335 64.279381 
L 135.30004 63.097056 
L 135.387675 64.279381 
L 135.763074 64.279381 
L 135.852835 66.644032 
L 135.865092 64.279381 
L 135.994571 64.279381 
L 136.043818 66.644032 
L 136.082581 64.279381 
L 136.1109 64.279381 
L 136.224244 66.644032 
L 136.324206 66.644032 
L 136.336844 64.279381 
L 136.425662 66.644032 
L 136.760859 66.644032 
L 136.773322 64.279381 
L 136.861575 66.644032 
L 136.924492 66.644032 
L 136.937178 64.279381 
L 137.028085 66.644032 
L 137.968066 66.644032 
L 137.99264 67.826357 
L 138.042036 66.644032 
L 138.262555 66.644032 
L 138.408589 67.826357 
L 138.43127 66.644032 
L 138.499573 67.826357 
L 138.89381 67.826357 
L 138.972738 66.644032 
L 139.111087 67.826357 
L 139.123708 66.644032 
L 139.210255 67.826357 
L 139.358227 67.826357 
L 139.370569 69.008682 
L 139.458332 67.826357 
L 139.495235 67.826357 
L 139.581417 66.644032 
L 139.606042 67.826357 
L 139.844186 67.826357 
L 139.955195 69.008682 
L 139.967836 69.008682 
L 140.081663 67.826357 
L 140.231335 67.826357 
L 140.342153 69.008682 
L 140.4175 67.826357 
L 140.442482 69.008682 
L 140.516625 69.008682 
L 140.528854 67.826357 
L 140.616297 69.008682 
L 140.628962 69.008682 
L 140.728169 67.826357 
L 140.839285 69.008682 
L 140.851667 69.008682 
L 140.86417 67.826357 
L 140.962777 69.008682 
L 141.408498 69.008682 
L 141.507118 70.191007 
L 141.519353 69.008682 
L 141.804073 69.008682 
L 141.816538 70.191007 
L 141.878213 69.008682 
L 141.918523 69.008682 
L 141.931117 70.191007 
L 142.018006 69.008682 
L 142.096772 69.008682 
L 142.210362 70.191007 
L 142.284776 70.191007 
L 142.384189 69.008682 
L 142.470862 70.191007 
L 142.483227 69.008682 
L 142.779822 69.008682 
L 142.817144 70.191007 
L 142.879053 69.008682 
L 143.040336 69.008682 
L 143.141048 70.191007 
L 143.240233 69.008682 
L 143.352787 70.191007 
L 143.427115 69.008682 
L 143.46389 70.191007 
L 143.476283 70.191007 
L 143.588 69.008682 
L 143.612843 69.008682 
L 143.724889 70.191007 
L 143.737672 70.191007 
L 143.836127 69.008682 
L 143.948403 70.191007 
L 143.973854 70.191007 
L 143.986192 69.008682 
L 144.084434 70.191007 
L 144.542031 70.191007 
L 144.554921 69.008682 
L 144.642826 70.191007 
L 144.855579 70.191007 
L 144.968577 71.373332 
L 145.045461 70.191007 
L 145.071599 71.373332 
L 145.096817 71.373332 
L 145.109399 70.191007 
L 145.198424 71.373332 
L 145.834898 71.373332 
L 145.945518 70.191007 
L 146.044368 71.373332 
L 146.157263 70.191007 
L 146.169527 70.191007 
L 146.280715 71.373332 
L 146.29338 71.373332 
L 146.41343 70.191007 
L 146.742274 70.191007 
L 146.754537 71.373332 
L 146.8425 70.191007 
L 147.714007 70.191007 
L 147.78011 69.008682 
L 147.817008 70.191007 
L 147.829446 70.191007 
L 147.941179 69.008682 
L 147.991722 70.191007 
L 148.041418 69.008682 
L 148.578193 69.008682 
L 148.616042 67.826357 
L 148.679108 69.008682 
L 148.703629 69.008682 
L 148.766045 67.826357 
L 148.803455 69.008682 
L 148.815754 69.008682 
L 148.840558 67.826357 
L 148.92674 69.008682 
L 148.967003 69.008682 
L 148.979502 67.826357 
L 149.066893 69.008682 
L 149.079156 69.008682 
L 149.192003 67.826357 
L 149.242211 67.826357 
L 149.365398 66.644032 
L 149.453242 67.826357 
L 149.46602 66.644032 
L 149.56545 66.644032 
L 149.577947 67.826357 
L 149.665061 66.644032 
L 149.851757 66.644032 
L 149.965214 64.279381 
L 150.229561 64.279381 
L 150.329811 63.097056 
L 150.342088 64.279381 
L 150.429241 63.097056 
L 150.543042 61.914731 
L 150.654253 63.097056 
L 150.667365 63.097056 
L 150.778725 61.914731 
L 150.951996 61.914731 
L 150.965377 63.097056 
L 151.052766 61.914731 
L 151.127271 61.914731 
L 151.239226 63.097056 
L 151.276171 63.097056 
L 151.388371 61.914731 
L 151.427538 61.914731 
L 151.526271 63.097056 
L 151.588217 61.914731 
L 151.62524 63.097056 
L 151.99799 63.097056 
L 152.010685 64.279381 
L 152.097676 63.097056 
L 152.235873 63.097056 
L 152.347136 64.279381 
L 152.433195 63.097056 
L 152.457885 64.279381 
L 152.521693 63.097056 
L 152.558957 64.279381 
L 152.722029 64.279381 
L 152.734303 63.097056 
L 152.821245 64.279381 
L 152.90785 64.279381 
L 152.969713 63.097056 
L 153.006879 64.279381 
L 153.603943 64.279381 
L 153.716226 66.644032 
L 153.765477 66.644032 
L 153.876831 64.279381 
L 153.889298 64.279381 
L 153.939791 66.644032 
L 153.989196 64.279381 
L 154.001535 64.279381 
L 154.113619 66.644032 
L 154.13891 66.644032 
L 154.152267 64.279381 
L 154.239402 66.644032 
L 154.579988 66.644032 
L 154.605118 67.826357 
L 154.6792 66.644032 
L 154.803933 66.644032 
L 154.892665 67.826357 
L 154.905758 66.644032 
L 154.956821 66.644032 
L 155.057007 67.826357 
L 155.143625 66.644032 
L 155.155897 67.826357 
L 155.168202 67.826357 
L 155.270114 66.644032 
L 155.382724 67.826357 
L 155.557777 67.826357 
L 155.570014 69.008682 
L 155.657267 67.826357 
L 155.694101 67.826357 
L 155.806434 69.008682 
L 155.818723 67.826357 
L 155.906039 69.008682 
L 155.955887 69.008682 
L 155.968148 67.826357 
L 156.055266 69.008682 
L 156.068636 70.191007 
L 156.155896 69.008682 
L 156.168159 69.008682 
L 156.24297 70.191007 
L 156.268263 69.008682 
L 156.28074 69.008682 
L 156.305288 70.191007 
L 156.38036 69.008682 
L 156.841541 69.008682 
L 156.916235 67.826357 
L 156.940752 69.008682 
L 157.016135 69.008682 
L 157.029014 67.826357 
L 157.115586 69.008682 
L 157.37613 69.008682 
L 157.488214 70.191007 
L 157.543875 70.191007 
L 157.667405 69.008682 
L 157.679687 69.008682 
L 157.779547 70.191007 
L 157.880094 69.008682 
L 157.918214 70.191007 
L 157.980488 69.008682 
L 158.044248 69.008682 
L 158.056879 70.191007 
L 158.144157 69.008682 
L 158.268463 69.008682 
L 158.368268 70.191007 
L 158.482099 69.008682 
L 158.56898 69.008682 
L 158.581255 70.191007 
L 158.667826 69.008682 
L 158.918039 69.008682 
L 158.930396 70.191007 
L 158.94271 69.008682 
L 158.243938 69.008682 
L 158.306455 69.008682 
L 158.4191 70.191007 
L 158.481905 70.191007 
L 158.581797 69.008682 
L 158.680803 70.191007 
L 158.767775 69.008682 
L 158.780233 70.191007 
L 158.792613 70.191007 
L 158.817383 69.008682 
L 158.891664 70.191007 
L 158.953573 70.191007 
L 158.994697 69.008682 
L 159.056794 70.191007 
L 159.545467 70.191007 
L 159.632399 69.008682 
L 159.644848 70.191007 
L 160.080683 70.191007 
L 160.092938 69.008682 
L 160.179657 70.191007 
L 160.19204 70.191007 
L 160.253864 69.008682 
L 160.291068 70.191007 
L 160.340196 70.191007 
L 160.451729 69.008682 
L 160.46403 69.008682 
L 160.576017 70.191007 
L 160.638266 70.191007 
L 160.752203 69.008682 
L 160.864817 70.191007 
L 160.88966 69.008682 
L 160.964235 70.191007 
L 161.473381 70.191007 
L 161.560776 71.373332 
L 161.573117 70.191007 
L 161.585419 70.191007 
L 161.684229 71.373332 
L 161.696494 70.191007 
L 161.720991 70.191007 
L 161.832601 71.373332 
L 161.870269 71.373332 
L 161.882562 70.191007 
L 161.981261 71.373332 
L 162.06805 71.373332 
L 162.092573 72.555657 
L 162.178604 71.373332 
L 162.627291 71.373332 
L 162.639549 70.191007 
L 162.729103 71.373332 
L 163.343643 71.373332 
L 163.405434 70.191007 
L 163.442697 71.373332 
L 163.47966 71.373332 
L 163.594572 70.191007 
L 163.63271 70.191007 
L 163.755494 71.373332 
L 163.903526 70.191007 
L 164.015124 71.373332 
L 164.089738 70.191007 
L 164.114237 71.373332 
L 164.126839 71.373332 
L 164.250492 70.191007 
L 164.274975 70.191007 
L 164.287198 71.373332 
L 164.386085 70.191007 
L 164.85829 70.191007 
L 164.969401 69.008682 
L 165.083827 70.191007 
L 165.120694 70.191007 
L 165.195824 69.008682 
L 165.221196 70.191007 
L 165.274775 70.191007 
L 165.323981 69.008682 
L 165.37315 70.191007 
L 165.41384 70.191007 
L 165.525183 69.008682 
L 165.772222 69.008682 
L 165.847772 67.826357 
L 165.873115 69.008682 
L 165.885391 69.008682 
L 165.997596 67.826357 
L 166.034844 69.008682 
L 166.097061 67.826357 
L 166.48139 67.826357 
L 166.593654 66.644032 
L 166.656007 66.644032 
L 166.76821 67.826357 
L 166.879463 66.644032 
L 166.991745 66.644032 
L 167.029328 67.826357 
L 167.091088 66.644032 
L 167.203268 66.644032 
L 167.290845 67.826357 
L 167.30313 66.644032 
L 167.340436 66.644032 
L 167.453762 67.826357 
L 167.578575 67.826357 
L 167.690637 66.644032 
L 167.702896 66.644032 
L 167.814578 67.826357 
L 167.878276 67.826357 
L 167.928057 66.644032 
L 167.97785 67.826357 
L 168.302072 67.826357 
L 168.413267 69.008682 
L 168.599999 69.008682 
L 168.612655 67.826357 
L 168.711073 69.008682 
L 168.996987 69.008682 
L 169.084102 67.826357 
L 169.096367 69.008682 
L 169.321615 69.008682 
L 169.346379 67.826357 
L 169.421089 69.008682 
L 169.445946 69.008682 
L 169.458411 67.826357 
L 169.544976 69.008682 
L 170.704961 69.008682 
L 170.717861 70.191007 
L 170.813639 69.008682 
L 170.852445 69.008682 
L 170.960681 70.191007 
L 171.075788 69.008682 
L 171.199119 70.191007 
L 172.526982 70.191007 
L 172.539259 71.373332 
L 172.626368 70.191007 
L 172.638631 70.191007 
L 172.753604 71.373332 
L 172.866915 70.191007 
L 172.954837 71.373332 
L 172.967104 70.191007 
L 172.979775 70.191007 
L 173.093357 71.373332 
L 173.105625 70.191007 
L 173.194357 71.373332 
L 173.207017 71.373332 
L 173.258202 70.191007 
L 173.309924 71.373332 
L 173.322986 71.373332 
L 173.43632 70.191007 
L 173.448977 70.191007 
L 173.565921 71.373332 
L 173.616589 71.373332 
L 173.729087 70.191007 
L 173.841271 71.373332 
L 174.02873 71.373332 
L 174.040995 70.191007 
L 174.128912 71.373332 
L 174.740106 71.373332 
L 174.752398 72.555657 
L 174.840277 71.373332 
L 174.91579 71.373332 
L 174.992066 72.555657 
L 175.016543 71.373332 
L 175.02914 71.373332 
L 175.142341 72.555657 
L 175.204778 71.373332 
L 175.241671 72.555657 
L 175.329499 72.555657 
L 175.342432 71.373332 
L 175.430033 72.555657 
L 175.491781 72.555657 
L 175.579987 73.737983 
L 175.592373 72.555657 
L 175.604591 72.555657 
L 175.716224 73.737983 
L 175.814752 73.737983 
L 175.926616 76.102633 
L 176.053499 76.102633 
L 176.176863 73.737983 
L 176.201429 73.737983 
L 176.255984 72.555657 
L 176.306089 73.737983 
L 176.318943 73.737983 
L 176.380532 72.555657 
L 176.418234 73.737983 
L 176.492994 73.737983 
L 176.604044 72.555657 
L 176.690608 73.737983 
L 176.702975 72.555657 
L 176.715214 72.555657 
L 176.826871 73.737983 
L 176.912976 72.555657 
L 176.937816 73.737983 
L 176.987792 73.737983 
L 177.000073 72.555657 
L 177.098726 73.737983 
L 177.420098 73.737983 
L 177.507738 76.102633 
L 177.52026 73.737983 
L 177.58241 73.737983 
L 177.657329 76.102633 
L 177.682858 73.737983 
L 177.695563 73.737983 
L 177.808128 76.102633 
L 178.21697 76.102633 
L 178.229229 77.284958 
L 178.316611 76.102633 
L 178.526588 76.102633 
L 178.53906 77.284958 
L 178.625687 76.102633 
L 178.662712 76.102633 
L 178.762284 77.284958 
L 178.774669 76.102633 
L 178.861302 77.284958 
L 179.010523 77.284958 
L 179.121838 76.102633 
L 179.146314 76.102633 
L 179.25743 77.284958 
L 179.294368 76.102633 
L 179.357375 77.284958 
L 179.554139 77.284958 
L 179.668166 78.467283 
L 180.222637 78.467283 
L 180.296329 77.284958 
L 180.333454 78.467283 
L 180.642465 78.467283 
L 180.654725 77.284958 
L 180.7416 78.467283 
L 181.23634 78.467283 
L 181.248639 77.284958 
L 181.335109 78.467283 
L 181.805706 78.467283 
L 181.903867 79.649608 
L 181.916115 78.467283 
L 181.928414 78.467283 
L 182.039023 79.649608 
L 182.138683 78.467283 
L 182.262007 79.649608 
L 182.286511 79.649608 
L 182.410088 78.467283 
L 182.471668 78.467283 
L 182.583339 79.649608 
L 182.669692 77.284958 
L 182.694368 78.467283 
L 182.719102 78.467283 
L 182.829725 77.284958 
L 182.86756 77.284958 
L 182.892116 78.467283 
L 182.966058 77.284958 
L 183.089443 76.102633 
L 183.201387 76.102633 
L 183.313904 73.737983 
L 183.450169 73.737983 
L 183.527246 76.102633 
L 183.551983 73.737983 
L 183.638444 73.737983 
L 183.7372 76.102633 
L 183.824518 73.737983 
L 183.836764 76.102633 
L 405.648183 112.754713 
L 405.735546 112.754713 
L 405.748366 113.937038 
L 405.83541 112.754713 
L 405.860333 112.754713 
L 405.972909 113.937038 
L 405.998315 113.937038 
L 406.022794 112.754713 
L 406.099111 113.937038 
L 406.322392 113.937038 
L 406.409093 115.119363 
L 406.422045 113.937038 
L 406.496963 113.937038 
L 406.584184 115.119363 
L 406.596809 113.937038 
L 406.609088 113.937038 
L 406.621472 115.119363 
L 406.708245 113.937038 
L 406.745211 113.937038 
L 406.857472 115.119363 
L 406.870202 115.119363 
L 406.88266 113.937038 
L 406.969936 115.119363 
L 406.982681 115.119363 
L 407.094234 113.937038 
L 407.169546 113.937038 
L 407.181968 115.119363 
L 407.270254 113.937038 
L 407.456026 113.937038 
L 409.03283 116.301688 
L 409.14835 115.119363 
L 409.1861 115.119363 
L 409.235088 116.301688 
L 409.297103 115.119363 
L 409.371332 115.119363 
L 409.387273 116.301688 
L 409.474711 115.119363 
L 409.61556 115.119363 
L 409.652387 116.301688 
L 409.71466 115.119363 
L 409.827161 115.119363 
L 409.918315 116.301688 
L 409.9306 115.119363 
L 409.967426 115.119363 
L 410.05401 116.301688 
L 410.067098 115.119363 
L 410.118703 115.119363 
L 410.233382 116.301688 
L 410.245734 116.301688 
L 410.308292 115.119363 
L 410.345603 116.301688 
L 410.383745 116.301688 
L 410.483649 115.119363 
L 410.584171 116.301688 
L 410.696034 115.119363 
L 410.808277 116.301688 
L 410.833079 116.301688 
L 410.945492 115.119363 
L 411.057492 116.301688 
L 411.131664 116.301688 
L 411.243258 115.119363 
L 411.292655 116.301688 
L 411.354333 115.119363 
L 411.367034 115.119363 
L 411.479075 116.301688 
L 411.591036 116.301688 
L 411.6033 115.119363 
L 411.698298 116.301688 
L 411.939628 116.301688 
L 412.051806 118.666339 
L 412.15153 116.301688 
L 412.274843 118.666339 
L 412.544141 118.666339 
L 412.556788 119.848664 
L 412.645821 118.666339 
L 412.882724 118.666339 
L 412.995952 116.301688 
L 413.293648 116.301688 
L 413.383507 118.666339 
L 413.39578 116.301688 
L 413.433608 116.301688 
L 413.546456 118.666339 
L 413.571971 118.666339 
L 413.621985 116.301688 
L 413.671926 118.666339 
L 413.847677 118.666339 
L 413.921734 116.301688 
L 413.946739 118.666339 
L 414.171638 118.666339 
L 414.247744 119.848664 
L 414.272666 118.666339 
L 414.421662 118.666339 
L 414.434872 119.848664 
L 414.522805 118.666339 
L 414.611408 118.666339 
L 414.726183 119.848664 
L 414.829555 119.848664 
L 414.843667 118.666339 
L 414.932484 119.848664 
L 415.121856 119.848664 
L 415.158638 118.666339 
L 415.226455 119.848664 
L 415.342129 119.848664 
L 415.456234 118.666339 
L 415.468856 118.666339 
L 415.582979 119.848664 
L 415.784221 119.848664 
L 415.833583 118.666339 
L 415.883262 119.848664 
L 415.920544 119.848664 
L 416.019059 118.666339 
L 416.031325 119.848664 
L 416.043579 119.848664 
L 416.143724 118.666339 
L 416.254974 119.848664 
L 416.404378 119.848664 
L 416.416664 118.666339 
L 416.50319 119.848664 
L 416.919359 119.848664 
L 416.93182 118.666339 
L 417.020776 119.848664 
L 417.145508 119.848664 
L 417.232701 118.666339 
L 417.245127 119.848664 
L 417.257381 119.848664 
L 417.332536 118.666339 
L 417.357666 119.848664 
L 417.655012 119.848664 
L 417.667269 121.030989 
L 417.756743 119.848664 
L 417.781375 119.848664 
L 417.80675 121.030989 
L 417.882687 119.848664 
L 417.895402 119.848664 
L 417.907883 121.030989 
L 417.998178 119.848664 
L 418.114388 119.848664 
L 418.154023 121.030989 
L 418.223432 119.848664 
L 418.249291 119.848664 
L 418.36339 121.030989 
L 418.377187 121.030989 
L 418.489986 119.848664 
L 418.555539 119.848664 
L 418.705722 121.030989 
L 418.805033 119.848664 
L 418.915864 121.030989 
L 419.044331 121.030989 
L 419.108265 119.848664 
L 419.145983 121.030989 
L 419.158419 121.030989 
L 419.272046 119.848664 
L 419.386045 121.030989 
L 419.597807 121.030989 
L 419.672483 119.848664 
L 419.697441 121.030989 
L 419.722047 121.030989 
L 419.838438 119.848664 
L 419.942836 119.848664 
L 419.95507 121.030989 
L 420.042756 119.848664 
L 420.326646 119.848664 
L 420.363933 118.666339 
L 420.426508 119.848664 
L 420.59092 119.848664 
L 420.703685 118.666339 
L 420.728469 118.666339 
L 420.829248 119.848664 
L 420.915864 118.666339 
L 420.928862 119.848664 
L 421.182753 119.848664 
L 421.2445 118.666339 
L 421.29366 119.848664 
L 421.343798 119.848664 
L 421.430763 118.666339 
L 421.443044 119.848664 
L 421.480964 119.848664 
L 421.55549 118.666339 
L 421.580338 119.848664 
L 422.064207 119.848664 
L 422.163013 118.666339 
L 422.175295 119.848664 
L 422.200841 119.848664 
L 422.311827 118.666339 
L 422.336636 118.666339 
L 422.448294 119.848664 
L 422.559932 118.666339 
L 422.633713 119.848664 
L 422.670889 118.666339 
L 423.256026 118.666339 
L 423.370258 119.848664 
L 423.485109 118.666339 
L 423.497466 118.666339 
L 423.509726 119.848664 
L 423.596542 118.666339 
L 423.622423 118.666339 
L 423.660654 119.848664 
L 423.722934 118.666339 
L 423.735224 118.666339 
L 423.835087 119.848664 
L 423.884741 118.666339 
L 423.934099 119.848664 
L 423.997225 119.848664 
L 424.084075 118.666339 
L 424.09636 119.848664 
L 424.133711 119.848664 
L 424.220863 118.666339 
L 424.233648 119.848664 
L 424.258573 119.848664 
L 424.335139 118.666339 
L 424.360152 119.848664 
L 424.372405 119.848664 
L 424.384671 118.666339 
L 424.473195 119.848664 
L 424.511446 119.848664 
L 424.624521 118.666339 
L 424.649736 118.666339 
L 424.762304 119.848664 
L 424.800024 119.848664 
L 424.839465 118.666339 
L 424.903715 119.848664 
L 425.310214 119.848664 
L 425.422808 121.030989 
L 425.473198 119.848664 
L 425.524049 121.030989 
L 425.548977 121.030989 
L 425.647664 119.848664 
L 425.770128 121.030989 
L 426.239592 121.030989 
L 426.364095 123.395639 
L 426.47685 122.213314 
L 426.763022 122.213314 
L 426.878079 123.395639 
L 426.916376 123.395639 
L 427.028743 124.577964 
L 427.041055 124.577964 
L 427.155714 123.395639 
L 427.180468 123.395639 
L 427.192736 122.213314 
L 427.286288 123.395639 
L 427.623723 123.395639 
L 427.635966 122.213314 
L 427.724413 123.395639 
L 427.826496 123.395639 
L 427.889265 124.577964 
L 427.926147 123.395639 
L 428.118893 123.395639 
L 428.232799 122.213314 
L 428.281881 123.395639 
L 428.331115 122.213314 
L 428.411865 122.213314 
L 428.513316 123.395639 
L 428.624104 122.213314 
L 428.736307 124.577964 
L 428.848024 123.395639 
L 428.910441 123.395639 
L 429.024243 124.577964 
L 429.061274 124.577964 
L 429.135718 123.395639 
L 429.1604 124.577964 
L 429.185007 124.577964 
L 429.30834 123.395639 
L 429.394861 124.577964 
L 429.40751 123.395639 
L 429.555434 123.395639 
L 429.6677 124.577964 
L 429.680684 124.577964 
L 429.792742 123.395639 
L 429.829977 123.395639 
L 429.941444 124.577964 
L 429.953907 123.395639 
L 430.041059 124.577964 
L 430.102707 124.577964 
L 430.214013 123.395639 
L 430.276164 123.395639 
L 430.399013 124.577964 
L 430.498158 124.577964 
L 430.523064 123.395639 
L 430.598739 124.577964 
L 430.93635 124.577964 
L 431.036094 123.395639 
L 431.159264 124.577964 
L 432.009091 124.577964 
L 432.009091 124.577964 
" style="fill:none;stroke:#1f77b4;stroke-linecap:square;stroke-width:1.5;"/>
   </g>
   <g id="line2d_30">
    <path clip-path="url(#p0950dd2b52)" d="M 72.190909 125.76029 
L 73.266737 125.76029 
L 73.378416 138.765866 
L 73.642512 138.765866 
L 73.754243 144.677492 
L 74.631632 144.677492 
L 74.743872 138.765866 
L 75.005903 138.765866 
L 75.118192 144.677492 
L 75.382006 144.677492 
L 75.505014 149.406793 
L 76.705284 149.406793 
L 76.817461 144.677492 
L 76.893045 144.677492 
L 77.00622 161.230044 
L 77.885796 161.230044 
L 77.99933 165.959345 
L 78.197769 165.959345 
L 78.309196 149.406793 
L 78.760973 149.406793 
L 78.873749 144.677492 
L 79.136494 144.677492 
L 79.248366 149.406793 
L 79.758298 149.406793 
L 79.873329 138.765866 
L 80.13549 138.765866 
L 80.258615 123.395639 
L 80.3209 123.395639 
L 80.435403 102.113786 
L 81.072968 102.113786 
L 81.617134 89.10821 
L 82.183024 89.10821 
L 82.306306 80.831934 
L 82.755016 80.831934 
L 82.866505 78.467283 
L 84.181919 78.467283 
L 84.295346 89.10821 
L 84.870845 89.10821 
L 84.985433 65.461707 
L 85.439796 65.461707 
L 85.555957 115.119363 
L 86.756378 115.119363 
L 86.868321 125.76029 
L 87.528561 125.76029 
L 87.640845 195.517474 
L 88.279815 195.517474 
L 88.392604 221.528627 
L 89.04114 221.528627 
L 89.154132 232.169554 
L 89.60256 232.169554 
L 89.715939 245.17513 
L 90.598644 245.17513 
L 90.712784 232.169554 
L 90.992309 232.169554 
L 91.104957 221.528627 
L 93.092362 221.528627 
L 93.209275 208.52305 
L 95.382645 208.52305 
L 95.494592 195.517474 
L 96.341888 195.517474 
L 96.458905 171.870971 
L 96.72058 171.870971 
L 96.833359 149.406793 
L 97.523622 149.406793 
L 97.635037 115.119363 
L 98.334073 115.119363 
L 98.373495 78.467283 
L 99.065922 89.10821 
L 99.323218 89.10821 
L 100.02644 115.119363 
L 100.225517 115.119363 
L 100.336664 125.76029 
L 101.037816 125.76029 
L 101.150004 138.765866 
L 103.14309 138.765866 
L 103.308365 149.406793 
L 104.538969 149.406793 
L 104.655215 138.765866 
L 105.274136 138.765866 
L 105.385886 149.406793 
L 105.892179 149.406793 
L 106.003229 161.230044 
L 107.612795 161.230044 
L 107.735519 138.765866 
L 108.198701 138.765866 
L 108.310744 149.406793 
L 109.170633 149.406793 
L 109.28569 144.677492 
L 109.587909 144.677492 
L 109.676397 149.406793 
L 110.004174 149.406793 
L 110.124082 165.959345 
L 110.337361 165.959345 
L 110.538332 149.406793 
L 111.201402 149.406793 
L 111.310616 165.959345 
L 111.764643 165.959345 
L 111.881026 161.230044 
L 113.14214 161.230044 
L 113.256892 184.876547 
L 113.958307 184.876547 
L 114.071809 149.406793 
L 114.463189 149.406793 
L 114.575232 125.76029 
L 115.887635 125.76029 
L 115.999095 78.467283 
L 118.035312 78.467283 
L 118.157151 89.10821 
L 118.966636 89.10821 
L 119.082879 102.113786 
L 119.440728 102.113786 
L 119.555052 115.119363 
L 120.43515 115.119363 
L 120.548439 138.765866 
L 121.623141 138.765866 
L 121.739021 149.406793 
L 123.741282 149.406793 
L 123.852055 161.230044 
L 126.329565 161.230044 
L 126.44162 165.959345 
L 126.57845 165.959345 
L 126.689599 149.406793 
L 128.993039 149.406793 
L 129.104247 161.230044 
L 130.583123 161.230044 
L 130.698968 165.959345 
L 130.830923 165.959345 
L 130.978329 161.230044 
L 131.615043 161.230044 
L 131.731147 149.406793 
L 132.713107 149.406793 
L 132.825816 138.765866 
L 133.904351 138.765866 
L 134.022141 144.677492 
L 134.390329 144.677492 
L 134.503559 125.76029 
L 134.639882 125.76029 
L 134.751519 123.395639 
L 135.088773 123.395639 
L 135.21219 125.76029 
L 135.337097 125.76029 
L 135.45053 123.395639 
L 135.852835 123.395639 
L 135.967616 125.76029 
L 136.274254 125.76029 
L 136.38711 123.395639 
L 136.525655 123.395639 
L 136.638053 125.76029 
L 137.015816 125.76029 
L 137.091205 123.395639 
L 137.953616 115.119363 
L 138.042036 138.765866 
L 138.89381 138.765866 
L 139.060353 125.76029 
L 139.644498 125.76029 
L 139.757391 138.765866 
L 140.329859 138.765866 
L 140.442482 125.76029 
L 142.705279 125.76029 
L 142.817144 123.395639 
L 142.952973 123.395639 
L 143.065704 125.76029 
L 143.202952 125.76029 
L 143.314779 123.395639 
L 143.63809 123.395639 
L 143.749933 138.765866 
L 144.830774 138.765866 
L 144.943103 144.677492 
L 145.084358 144.677492 
L 145.198424 138.765866 
L 145.523848 138.765866 
L 145.636306 144.677492 
L 145.773193 144.677492 
L 145.896351 161.230044 
L 146.280715 161.230044 
L 146.399513 165.959345 
L 146.717304 165.959345 
L 146.830242 161.230044 
L 147.465385 161.230044 
L 147.576699 165.959345 
L 147.903519 165.959345 
L 148.016694 149.406793 
L 148.352639 149.406793 
L 148.603321 144.677492 
L 148.877498 144.677492 
L 148.991748 138.765866 
L 149.129135 138.765866 
L 149.242211 123.395639 
L 149.377646 123.395639 
L 149.490507 115.119363 
L 149.814539 115.119363 
L 149.928309 102.113786 
L 150.754098 102.113786 
L 150.865591 89.10821 
L 151.002842 89.10821 
L 151.115002 80.831934 
L 151.748733 80.831934 
L 151.861697 89.10821 
L 152.185891 89.10821 
L 152.297808 102.113786 
L 154.302376 102.113786 
L 154.417461 115.119363 
L 155.057007 115.119363 
L 155.168202 138.765866 
L 158.605941 138.765866 
L 158.719061 149.406793 
L 158.94271 149.406793 
L 158.243938 149.406793 
L 158.643871 149.406793 
L 158.755506 138.765866 
L 159.346204 138.765866 
L 159.458534 149.406793 
L 160.726334 149.406793 
L 160.839365 161.230044 
L 162.478193 161.230044 
L 162.590373 165.959345 
L 162.915872 165.959345 
L 163.028639 161.230044 
L 163.168639 161.230044 
L 163.281656 165.959345 
L 163.607625 165.959345 
L 163.730794 161.230044 
L 164.349183 161.230044 
L 164.472119 149.406793 
L 164.595347 149.406793 
L 164.708617 144.677492 
L 165.759958 144.677492 
L 165.873115 89.10821 
L 166.195318 89.10821 
L 166.307948 80.831934 
L 166.694 80.831934 
L 166.805073 78.467283 
L 166.941958 78.467283 
L 167.054122 59.550081 
L 167.190808 59.550081 
L 167.30313 65.461707 
L 170.287503 65.461707 
L 170.403683 102.113786 
L 172.427486 102.113786 
L 172.56382 125.76029 
L 176.987792 125.76029 
L 177.098726 115.119363 
L 177.919767 115.119363 
L 178.030983 125.76029 
L 181.360113 125.76029 
L 181.483275 138.765866 
L 181.60687 138.765866 
L 181.71895 144.677492 
L 182.101838 144.677492 
L 182.225052 125.76029 
L 183.288776 125.76029 
L 183.412473 123.395639 
L 183.474783 123.395639 
L 183.589246 115.119363 
L 183.836764 115.119363 
L 405.413227 171.870971 
L 405.911224 171.870971 
L 406.022794 165.959345 
L 407.456026 165.959345 
L 409.098906 187.241198 
L 409.603305 187.241198 
L 409.71466 221.528627 
L 411.094701 221.528627 
L 411.205573 232.169554 
L 412.920831 232.169554 
L 413.034374 229.804903 
L 414.285003 229.804903 
L 414.396719 221.528627 
L 414.726183 221.528627 
L 414.843667 208.52305 
L 418.351102 208.52305 
L 418.465319 221.528627 
L 420.616403 221.528627 
L 420.728469 208.52305 
L 421.30592 208.52305 
L 421.418529 187.241198 
L 423.157416 187.241198 
L 423.268943 208.52305 
L 427.155714 208.52305 
L 427.273827 221.528627 
L 429.593446 221.528627 
L 429.70551 245.17513 
L 432.009091 245.17513 
L 432.009091 245.17513 
" style="fill:none;stroke:#ff7f0e;stroke-linecap:square;stroke-width:1.5;"/>
   </g>
   <g id="patch_3">
    <path d="M 54.2 255.638708 
L 54.2 25.44 
" style="fill:none;stroke:#000000;stroke-linecap:square;stroke-linejoin:miter;stroke-width:0.8;"/>
   </g>
   <g id="patch_4">
    <path d="M 450 255.638708 
L 450 25.44 
" style="fill:none;stroke:#000000;stroke-linecap:square;stroke-linejoin:miter;stroke-width:0.8;"/>
   </g>
   <g id="patch_5">
    <path d="M 54.2 255.638708 
L 450 255.638708 
" style="fill:none;stroke:#000000;stroke-linecap:square;stroke-linejoin:miter;stroke-width:0.8;"/>
   </g>
   <g id="patch_6">
    <path d="M 54.2 25.44 
L 450 25.44 
" style="fill:none;stroke:#000000;stroke-linecap:square;stroke-linejoin:miter;stroke-width:0.8;"/>
   </g>
   <g id="text_17">
    <!-- Lake Shoecraft - Water and Air Temperature -->
    <g transform="translate(120.481563 19.44)scale(0.12 -0.12)">
     <defs>
      <path d="M 9.8125 72.90625 
L 19.671875 72.90625 
L 19.671875 8.296875 
L 55.171875 8.296875 
L 55.171875 0 
L 9.8125 0 
z
" id="DejaVuSans-76"/>
      <path d="M 9.078125 75.984375 
L 18.109375 75.984375 
L 18.109375 31.109375 
L 44.921875 54.6875 
L 56.390625 54.6875 
L 27.390625 29.109375 
L 57.625 0 
L 45.90625 0 
L 18.109375 26.703125 
L 18.109375 0 
L 9.078125 0 
z
" id="DejaVuSans-107"/>
      <path d="M 53.515625 70.515625 
L 53.515625 60.890625 
Q 47.90625 63.578125 42.921875 64.890625 
Q 37.9375 66.21875 33.296875 66.21875 
Q 25.25 66.21875 20.875 63.09375 
Q 16.5 59.96875 16.5 54.203125 
Q 16.5 49.359375 19.40625 46.890625 
Q 22.3125 44.4375 30.421875 42.921875 
L 36.375 41.703125 
Q 47.40625 39.59375 52.65625 34.296875 
Q 57.90625 29 57.90625 20.125 
Q 57.90625 9.515625 50.796875 4.046875 
Q 43.703125 -1.421875 29.984375 -1.421875 
Q 24.8125 -1.421875 18.96875 -0.25 
Q 13.140625 0.921875 6.890625 3.21875 
L 6.890625 13.375 
Q 12.890625 10.015625 18.65625 8.296875 
Q 24.421875 6.59375 29.984375 6.59375 
Q 38.421875 6.59375 43.015625 9.90625 
Q 47.609375 13.234375 47.609375 19.390625 
Q 47.609375 24.75 44.3125 27.78125 
Q 41.015625 30.8125 33.5 32.328125 
L 27.484375 33.5 
Q 16.453125 35.6875 11.515625 40.375 
Q 6.59375 45.0625 6.59375 53.421875 
Q 6.59375 63.09375 13.40625 68.65625 
Q 20.21875 74.21875 32.171875 74.21875 
Q 37.3125 74.21875 42.625 73.28125 
Q 47.953125 72.359375 53.515625 70.515625 
z
" id="DejaVuSans-83"/>
      <path d="M 54.890625 33.015625 
L 54.890625 0 
L 45.90625 0 
L 45.90625 32.71875 
Q 45.90625 40.484375 42.875 44.328125 
Q 39.84375 48.1875 33.796875 48.1875 
Q 26.515625 48.1875 22.3125 43.546875 
Q 18.109375 38.921875 18.109375 30.90625 
L 18.109375 0 
L 9.078125 0 
L 9.078125 75.984375 
L 18.109375 75.984375 
L 18.109375 46.1875 
Q 21.34375 51.125 25.703125 53.5625 
Q 30.078125 56 35.796875 56 
Q 45.21875 56 50.046875 50.171875 
Q 54.890625 44.34375 54.890625 33.015625 
z
" id="DejaVuSans-104"/>
      <path d="M 30.609375 48.390625 
Q 23.390625 48.390625 19.1875 42.75 
Q 14.984375 37.109375 14.984375 27.296875 
Q 14.984375 17.484375 19.15625 11.84375 
Q 23.34375 6.203125 30.609375 6.203125 
Q 37.796875 6.203125 41.984375 11.859375 
Q 46.1875 17.53125 46.1875 27.296875 
Q 46.1875 37.015625 41.984375 42.703125 
Q 37.796875 48.390625 30.609375 48.390625 
z
M 30.609375 56 
Q 42.328125 56 49.015625 48.375 
Q 55.71875 40.765625 55.71875 27.296875 
Q 55.71875 13.875 49.015625 6.21875 
Q 42.328125 -1.421875 30.609375 -1.421875 
Q 18.84375 -1.421875 12.171875 6.21875 
Q 5.515625 13.875 5.515625 27.296875 
Q 5.515625 40.765625 12.171875 48.375 
Q 18.84375 56 30.609375 56 
z
" id="DejaVuSans-111"/>
      <path d="M 48.78125 52.59375 
L 48.78125 44.1875 
Q 44.96875 46.296875 41.140625 47.34375 
Q 37.3125 48.390625 33.40625 48.390625 
Q 24.65625 48.390625 19.8125 42.84375 
Q 14.984375 37.3125 14.984375 27.296875 
Q 14.984375 17.28125 19.8125 11.734375 
Q 24.65625 6.203125 33.40625 6.203125 
Q 37.3125 6.203125 41.140625 7.25 
Q 44.96875 8.296875 48.78125 10.40625 
L 48.78125 2.09375 
Q 45.015625 0.34375 40.984375 -0.53125 
Q 36.96875 -1.421875 32.421875 -1.421875 
Q 20.0625 -1.421875 12.78125 6.34375 
Q 5.515625 14.109375 5.515625 27.296875 
Q 5.515625 40.671875 12.859375 48.328125 
Q 20.21875 56 33.015625 56 
Q 37.15625 56 41.109375 55.140625 
Q 45.0625 54.296875 48.78125 52.59375 
z
" id="DejaVuSans-99"/>
      <path d="M 37.109375 75.984375 
L 37.109375 68.5 
L 28.515625 68.5 
Q 23.6875 68.5 21.796875 66.546875 
Q 19.921875 64.59375 19.921875 59.515625 
L 19.921875 54.6875 
L 34.71875 54.6875 
L 34.71875 47.703125 
L 19.921875 47.703125 
L 19.921875 0 
L 10.890625 0 
L 10.890625 47.703125 
L 2.296875 47.703125 
L 2.296875 54.6875 
L 10.890625 54.6875 
L 10.890625 58.5 
Q 10.890625 67.625 15.140625 71.796875 
Q 19.390625 75.984375 28.609375 75.984375 
z
" id="DejaVuSans-102"/>
      <path d="M 3.328125 72.90625 
L 13.28125 72.90625 
L 28.609375 11.28125 
L 43.890625 72.90625 
L 54.984375 72.90625 
L 70.3125 11.28125 
L 85.59375 72.90625 
L 95.609375 72.90625 
L 77.296875 0 
L 64.890625 0 
L 49.515625 63.28125 
L 33.984375 0 
L 21.578125 0 
z
" id="DejaVuSans-87"/>
      <path d="M 54.890625 33.015625 
L 54.890625 0 
L 45.90625 0 
L 45.90625 32.71875 
Q 45.90625 40.484375 42.875 44.328125 
Q 39.84375 48.1875 33.796875 48.1875 
Q 26.515625 48.1875 22.3125 43.546875 
Q 18.109375 38.921875 18.109375 30.90625 
L 18.109375 0 
L 9.078125 0 
L 9.078125 54.6875 
L 18.109375 54.6875 
L 18.109375 46.1875 
Q 21.34375 51.125 25.703125 53.5625 
Q 30.078125 56 35.796875 56 
Q 45.21875 56 50.046875 50.171875 
Q 54.890625 44.34375 54.890625 33.015625 
z
" id="DejaVuSans-110"/>
      <path d="M 45.40625 46.390625 
L 45.40625 75.984375 
L 54.390625 75.984375 
L 54.390625 0 
L 45.40625 0 
L 45.40625 8.203125 
Q 42.578125 3.328125 38.25 0.953125 
Q 33.9375 -1.421875 27.875 -1.421875 
Q 17.96875 -1.421875 11.734375 6.484375 
Q 5.515625 14.40625 5.515625 27.296875 
Q 5.515625 40.1875 11.734375 48.09375 
Q 17.96875 56 27.875 56 
Q 33.9375 56 38.25 53.625 
Q 42.578125 51.265625 45.40625 46.390625 
z
M 14.796875 27.296875 
Q 14.796875 17.390625 18.875 11.75 
Q 22.953125 6.109375 30.078125 6.109375 
Q 37.203125 6.109375 41.296875 11.75 
Q 45.40625 17.390625 45.40625 27.296875 
Q 45.40625 37.203125 41.296875 42.84375 
Q 37.203125 48.484375 30.078125 48.484375 
Q 22.953125 48.484375 18.875 42.84375 
Q 14.796875 37.203125 14.796875 27.296875 
z
" id="DejaVuSans-100"/>
      <path d="M 34.1875 63.1875 
L 20.796875 26.90625 
L 47.609375 26.90625 
z
M 28.609375 72.90625 
L 39.796875 72.90625 
L 67.578125 0 
L 57.328125 0 
L 50.6875 18.703125 
L 17.828125 18.703125 
L 11.1875 0 
L 0.78125 0 
z
" id="DejaVuSans-65"/>
      <path d="M 9.421875 54.6875 
L 18.40625 54.6875 
L 18.40625 0 
L 9.421875 0 
z
M 9.421875 75.984375 
L 18.40625 75.984375 
L 18.40625 64.59375 
L 9.421875 64.59375 
z
" id="DejaVuSans-105"/>
     </defs>
     <use xlink:href="#DejaVuSans-76"/>
     <use x="55.712891" xlink:href="#DejaVuSans-97"/>
     <use x="116.992188" xlink:href="#DejaVuSans-107"/>
     <use x="171.277344" xlink:href="#DejaVuSans-101"/>
     <use x="232.800781" xlink:href="#DejaVuSans-32"/>
     <use x="264.587891" xlink:href="#DejaVuSans-83"/>
     <use x="328.064453" xlink:href="#DejaVuSans-104"/>
     <use x="391.443359" xlink:href="#DejaVuSans-111"/>
     <use x="452.625" xlink:href="#DejaVuSans-101"/>
     <use x="514.148438" xlink:href="#DejaVuSans-99"/>
     <use x="569.128906" xlink:href="#DejaVuSans-114"/>
     <use x="610.242188" xlink:href="#DejaVuSans-97"/>
     <use x="671.521484" xlink:href="#DejaVuSans-102"/>
     <use x="704.976562" xlink:href="#DejaVuSans-116"/>
     <use x="744.185547" xlink:href="#DejaVuSans-32"/>
     <use x="775.972656" xlink:href="#DejaVuSans-45"/>
     <use x="812.056641" xlink:href="#DejaVuSans-32"/>
     <use x="843.84375" xlink:href="#DejaVuSans-87"/>
     <use x="936.345703" xlink:href="#DejaVuSans-97"/>
     <use x="997.625" xlink:href="#DejaVuSans-116"/>
     <use x="1036.833984" xlink:href="#DejaVuSans-101"/>
     <use x="1098.357422" xlink:href="#DejaVuSans-114"/>
     <use x="1139.470703" xlink:href="#DejaVuSans-32"/>
     <use x="1171.257812" xlink:href="#DejaVuSans-97"/>
     <use x="1232.537109" xlink:href="#DejaVuSans-110"/>
     <use x="1295.916016" xlink:href="#DejaVuSans-100"/>
     <use x="1359.392578" xlink:href="#DejaVuSans-32"/>
     <use x="1391.179688" xlink:href="#DejaVuSans-65"/>
     <use x="1459.587891" xlink:href="#DejaVuSans-105"/>
     <use x="1487.371094" xlink:href="#DejaVuSans-114"/>
     <use x="1528.484375" xlink:href="#DejaVuSans-32"/>
     <use x="1560.271484" xlink:href="#DejaVuSans-84"/>
     <use x="1604.355469" xlink:href="#DejaVuSans-101"/>
     <use x="1665.878906" xlink:href="#DejaVuSans-109"/>
     <use x="1763.291016" xlink:href="#DejaVuSans-112"/>
     <use x="1826.767578" xlink:href="#DejaVuSans-101"/>
     <use x="1888.291016" xlink:href="#DejaVuSans-114"/>
     <use x="1929.404297" xlink:href="#DejaVuSans-97"/>
     <use x="1990.683594" xlink:href="#DejaVuSans-116"/>
     <use x="2029.892578" xlink:href="#DejaVuSans-117"/>
     <use x="2093.271484" xlink:href="#DejaVuSans-114"/>
     <use x="2132.134766" xlink:href="#DejaVuSans-101"/>
    </g>
   </g>
   <g id="legend_1">
    <g id="patch_7">
     <path d="M 357.890625 62.79625 
L 443 62.79625 
Q 445 62.79625 445 60.79625 
L 445 32.44 
Q 445 30.44 443 30.44 
L 357.890625 30.44 
Q 355.890625 30.44 355.890625 32.44 
L 355.890625 60.79625 
Q 355.890625 62.79625 357.890625 62.79625 
z
" style="fill:#ffffff;opacity:0.8;stroke:#cccccc;stroke-linejoin:miter;"/>
    </g>
    <g id="line2d_31">
     <path d="M 359.890625 38.538437 
L 379.890625 38.538437 
" style="fill:none;stroke:#1f77b4;stroke-linecap:square;stroke-width:1.5;"/>
    </g>
    <g id="line2d_32"/>
    <g id="text_18">
     <!-- Lake Temp -->
     <g transform="translate(387.890625 42.038437)scale(0.1 -0.1)">
      <use xlink:href="#DejaVuSans-76"/>
      <use x="55.712891" xlink:href="#DejaVuSans-97"/>
      <use x="116.992188" xlink:href="#DejaVuSans-107"/>
      <use x="171.277344" xlink:href="#DejaVuSans-101"/>
      <use x="232.800781" xlink:href="#DejaVuSans-32"/>
      <use x="264.587891" xlink:href="#DejaVuSans-84"/>
      <use x="308.671875" xlink:href="#DejaVuSans-101"/>
      <use x="370.195312" xlink:href="#DejaVuSans-109"/>
      <use x="467.607422" xlink:href="#DejaVuSans-112"/>
     </g>
    </g>
    <g id="line2d_33">
     <path d="M 359.890625 53.216562 
L 379.890625 53.216562 
" style="fill:none;stroke:#ff7f0e;stroke-linecap:square;stroke-width:1.5;"/>
    </g>
    <g id="line2d_34"/>
    <g id="text_19">
     <!-- Air Temp -->
     <g transform="translate(387.890625 56.716562)scale(0.1 -0.1)">
      <use xlink:href="#DejaVuSans-65"/>
      <use x="68.408203" xlink:href="#DejaVuSans-105"/>
      <use x="96.191406" xlink:href="#DejaVuSans-114"/>
      <use x="137.304688" xlink:href="#DejaVuSans-32"/>
      <use x="169.091797" xlink:href="#DejaVuSans-84"/>
      <use x="213.175781" xlink:href="#DejaVuSans-101"/>
      <use x="274.699219" xlink:href="#DejaVuSans-109"/>
      <use x="372.111328" xlink:href="#DejaVuSans-112"/>
     </g>
    </g>
   </g>
  </g>
 </g>
 <defs>
  <clipPath id="p0950dd2b52">
   <rect height="230.198708" width="395.8" x="54.2" y="25.44"/>
  </clipPath>
 </defs>
</svg>
