<?xml version="1.0" encoding="utf-8" standalone="no"?>
<!DOCTYPE svg PUBLIC "-//W3C//DTD SVG 1.1//EN"
  "http://www.w3.org/Graphics/SVG/1.1/DTD/svg11.dtd">
<!-- Created with matplotlib (https://matplotlib.org/) -->
<svg height="345.6pt" version="1.1" viewBox="0 0 460.8 345.6" width="460.8pt" xmlns="http://www.w3.org/2000/svg" xmlns:xlink="http://www.w3.org/1999/xlink">
 <metadata>
  <rdf:RDF xmlns:cc="http://creativecommons.org/ns#" xmlns:dc="http://purl.org/dc/elements/1.1/" xmlns:rdf="http://www.w3.org/1999/02/22-rdf-syntax-ns#">
   <cc:Work>
    <dc:type rdf:resource="http://purl.org/dc/dcmitype/StillImage"/>
    <dc:date>2024-09-04T15:56:41.834252</dc:date>
    <dc:format>image/svg+xml</dc:format>
    <dc:creator>
     <cc:Agent>
      <dc:title>Matplotlib v3.3.2, https://matplotlib.org/</dc:title>
     </cc:Agent>
    </dc:creator>
   </cc:Work>
  </rdf:RDF>
 </metadata>
 <defs>
  <style type="text/css">*{stroke-linecap:butt;stroke-linejoin:round;}</style>
 </defs>
 <g id="figure_1">
  <g id="patch_1">
   <path d="M 0 345.6 
L 460.8 345.6 
L 460.8 0 
L 0 0 
z
" style="fill:none;"/>
  </g>
  <g id="axes_1">
   <g id="patch_2">
    <path d="M 44.66 255.638708 
L 437.8622 255.638708 
L 437.8622 25.44 
L 44.66 25.44 
z
" style="fill:none;"/>
   </g>
   <g id="matplotlib.axis_1">
    <g id="xtick_1">
     <g id="line2d_1">
      <path clip-path="url(#p45d434f1e5)" d="M 81.244223 255.638708 
L 81.244223 25.44 
" style="fill:none;stroke:#b0b0b0;stroke-linecap:square;stroke-width:0.8;"/>
     </g>
     <g id="line2d_2">
      <defs>
       <path d="M 0 0 
L 0 3.5 
" id="m6549334b6f" style="stroke:#000000;stroke-width:0.8;"/>
      </defs>
      <g>
       <use style="stroke:#000000;stroke-width:0.8;" x="81.244223" xlink:href="#m6549334b6f" y="255.638708"/>
      </g>
     </g>
     <g id="text_1">
      <!-- 2024-08-28 -->
      <g transform="translate(73.89883 319.848351)rotate(-70)scale(0.1 -0.1)">
       <defs>
        <path d="M 19.1875 8.296875 
L 53.609375 8.296875 
L 53.609375 0 
L 7.328125 0 
L 7.328125 8.296875 
Q 12.9375 14.109375 22.625 23.890625 
Q 32.328125 33.6875 34.8125 36.53125 
Q 39.546875 41.84375 41.421875 45.53125 
Q 43.3125 49.21875 43.3125 52.78125 
Q 43.3125 58.59375 39.234375 62.25 
Q 35.15625 65.921875 28.609375 65.921875 
Q 23.96875 65.921875 18.8125 64.3125 
Q 13.671875 62.703125 7.8125 59.421875 
L 7.8125 69.390625 
Q 13.765625 71.78125 18.9375 73 
Q 24.125 74.21875 28.421875 74.21875 
Q 39.75 74.21875 46.484375 68.546875 
Q 53.21875 62.890625 53.21875 53.421875 
Q 53.21875 48.921875 51.53125 44.890625 
Q 49.859375 40.875 45.40625 35.40625 
Q 44.1875 33.984375 37.640625 27.21875 
Q 31.109375 20.453125 19.1875 8.296875 
z
" id="DejaVuSans-50"/>
        <path d="M 31.78125 66.40625 
Q 24.171875 66.40625 20.328125 58.90625 
Q 16.5 51.421875 16.5 36.375 
Q 16.5 21.390625 20.328125 13.890625 
Q 24.171875 6.390625 31.78125 6.390625 
Q 39.453125 6.390625 43.28125 13.890625 
Q 47.125 21.390625 47.125 36.375 
Q 47.125 51.421875 43.28125 58.90625 
Q 39.453125 66.40625 31.78125 66.40625 
z
M 31.78125 74.21875 
Q 44.046875 74.21875 50.515625 64.515625 
Q 56.984375 54.828125 56.984375 36.375 
Q 56.984375 17.96875 50.515625 8.265625 
Q 44.046875 -1.421875 31.78125 -1.421875 
Q 19.53125 -1.421875 13.0625 8.265625 
Q 6.59375 17.96875 6.59375 36.375 
Q 6.59375 54.828125 13.0625 64.515625 
Q 19.53125 74.21875 31.78125 74.21875 
z
" id="DejaVuSans-48"/>
        <path d="M 37.796875 64.3125 
L 12.890625 25.390625 
L 37.796875 25.390625 
z
M 35.203125 72.90625 
L 47.609375 72.90625 
L 47.609375 25.390625 
L 58.015625 25.390625 
L 58.015625 17.1875 
L 47.609375 17.1875 
L 47.609375 0 
L 37.796875 0 
L 37.796875 17.1875 
L 4.890625 17.1875 
L 4.890625 26.703125 
z
" id="DejaVuSans-52"/>
        <path d="M 4.890625 31.390625 
L 31.203125 31.390625 
L 31.203125 23.390625 
L 4.890625 23.390625 
z
" id="DejaVuSans-45"/>
        <path d="M 31.78125 34.625 
Q 24.75 34.625 20.71875 30.859375 
Q 16.703125 27.09375 16.703125 20.515625 
Q 16.703125 13.921875 20.71875 10.15625 
Q 24.75 6.390625 31.78125 6.390625 
Q 38.8125 6.390625 42.859375 10.171875 
Q 46.921875 13.96875 46.921875 20.515625 
Q 46.921875 27.09375 42.890625 30.859375 
Q 38.875 34.625 31.78125 34.625 
z
M 21.921875 38.8125 
Q 15.578125 40.375 12.03125 44.71875 
Q 8.5 49.078125 8.5 55.328125 
Q 8.5 64.0625 14.71875 69.140625 
Q 20.953125 74.21875 31.78125 74.21875 
Q 42.671875 74.21875 48.875 69.140625 
Q 55.078125 64.0625 55.078125 55.328125 
Q 55.078125 49.078125 51.53125 44.71875 
Q 48 40.375 41.703125 38.8125 
Q 48.828125 37.15625 52.796875 32.3125 
Q 56.78125 27.484375 56.78125 20.515625 
Q 56.78125 9.90625 50.3125 4.234375 
Q 43.84375 -1.421875 31.78125 -1.421875 
Q 19.734375 -1.421875 13.25 4.234375 
Q 6.78125 9.90625 6.78125 20.515625 
Q 6.78125 27.484375 10.78125 32.3125 
Q 14.796875 37.15625 21.921875 38.8125 
z
M 18.3125 54.390625 
Q 18.3125 48.734375 21.84375 45.5625 
Q 25.390625 42.390625 31.78125 42.390625 
Q 38.140625 42.390625 41.71875 45.5625 
Q 45.3125 48.734375 45.3125 54.390625 
Q 45.3125 60.0625 41.71875 63.234375 
Q 38.140625 66.40625 31.78125 66.40625 
Q 25.390625 66.40625 21.84375 63.234375 
Q 18.3125 60.0625 18.3125 54.390625 
z
" id="DejaVuSans-56"/>
       </defs>
       <use xlink:href="#DejaVuSans-50"/>
       <use x="63.623047" xlink:href="#DejaVuSans-48"/>
       <use x="127.246094" xlink:href="#DejaVuSans-50"/>
       <use x="190.869141" xlink:href="#DejaVuSans-52"/>
       <use x="254.492188" xlink:href="#DejaVuSans-45"/>
       <use x="290.576172" xlink:href="#DejaVuSans-48"/>
       <use x="354.199219" xlink:href="#DejaVuSans-56"/>
       <use x="417.822266" xlink:href="#DejaVuSans-45"/>
       <use x="453.90625" xlink:href="#DejaVuSans-50"/>
       <use x="517.529297" xlink:href="#DejaVuSans-56"/>
      </g>
     </g>
    </g>
    <g id="xtick_2">
     <g id="line2d_3">
      <path clip-path="url(#p45d434f1e5)" d="M 125.471784 255.638708 
L 125.471784 25.44 
" style="fill:none;stroke:#b0b0b0;stroke-linecap:square;stroke-width:0.8;"/>
     </g>
     <g id="line2d_4">
      <g>
       <use style="stroke:#000000;stroke-width:0.8;" x="125.471784" xlink:href="#m6549334b6f" y="255.638708"/>
      </g>
     </g>
     <g id="text_2">
      <!-- 2024-08-29 -->
      <g transform="translate(118.126391 319.848351)rotate(-70)scale(0.1 -0.1)">
       <defs>
        <path d="M 10.984375 1.515625 
L 10.984375 10.5 
Q 14.703125 8.734375 18.5 7.8125 
Q 22.3125 6.890625 25.984375 6.890625 
Q 35.75 6.890625 40.890625 13.453125 
Q 46.046875 20.015625 46.78125 33.40625 
Q 43.953125 29.203125 39.59375 26.953125 
Q 35.25 24.703125 29.984375 24.703125 
Q 19.046875 24.703125 12.671875 31.3125 
Q 6.296875 37.9375 6.296875 49.421875 
Q 6.296875 60.640625 12.9375 67.421875 
Q 19.578125 74.21875 30.609375 74.21875 
Q 43.265625 74.21875 49.921875 64.515625 
Q 56.59375 54.828125 56.59375 36.375 
Q 56.59375 19.140625 48.40625 8.859375 
Q 40.234375 -1.421875 26.421875 -1.421875 
Q 22.703125 -1.421875 18.890625 -0.6875 
Q 15.09375 0.046875 10.984375 1.515625 
z
M 30.609375 32.421875 
Q 37.25 32.421875 41.125 36.953125 
Q 45.015625 41.5 45.015625 49.421875 
Q 45.015625 57.28125 41.125 61.84375 
Q 37.25 66.40625 30.609375 66.40625 
Q 23.96875 66.40625 20.09375 61.84375 
Q 16.21875 57.28125 16.21875 49.421875 
Q 16.21875 41.5 20.09375 36.953125 
Q 23.96875 32.421875 30.609375 32.421875 
z
" id="DejaVuSans-57"/>
       </defs>
       <use xlink:href="#DejaVuSans-50"/>
       <use x="63.623047" xlink:href="#DejaVuSans-48"/>
       <use x="127.246094" xlink:href="#DejaVuSans-50"/>
       <use x="190.869141" xlink:href="#DejaVuSans-52"/>
       <use x="254.492188" xlink:href="#DejaVuSans-45"/>
       <use x="290.576172" xlink:href="#DejaVuSans-48"/>
       <use x="354.199219" xlink:href="#DejaVuSans-56"/>
       <use x="417.822266" xlink:href="#DejaVuSans-45"/>
       <use x="453.90625" xlink:href="#DejaVuSans-50"/>
       <use x="517.529297" xlink:href="#DejaVuSans-57"/>
      </g>
     </g>
    </g>
    <g id="xtick_3">
     <g id="line2d_5">
      <path clip-path="url(#p45d434f1e5)" d="M 169.699345 255.638708 
L 169.699345 25.44 
" style="fill:none;stroke:#b0b0b0;stroke-linecap:square;stroke-width:0.8;"/>
     </g>
     <g id="line2d_6">
      <g>
       <use style="stroke:#000000;stroke-width:0.8;" x="169.699345" xlink:href="#m6549334b6f" y="255.638708"/>
      </g>
     </g>
     <g id="text_3">
      <!-- 2024-08-30 -->
      <g transform="translate(162.353952 319.848351)rotate(-70)scale(0.1 -0.1)">
       <defs>
        <path d="M 40.578125 39.3125 
Q 47.65625 37.796875 51.625 33 
Q 55.609375 28.21875 55.609375 21.1875 
Q 55.609375 10.40625 48.1875 4.484375 
Q 40.765625 -1.421875 27.09375 -1.421875 
Q 22.515625 -1.421875 17.65625 -0.515625 
Q 12.796875 0.390625 7.625 2.203125 
L 7.625 11.71875 
Q 11.71875 9.328125 16.59375 8.109375 
Q 21.484375 6.890625 26.8125 6.890625 
Q 36.078125 6.890625 40.9375 10.546875 
Q 45.796875 14.203125 45.796875 21.1875 
Q 45.796875 27.640625 41.28125 31.265625 
Q 36.765625 34.90625 28.71875 34.90625 
L 20.21875 34.90625 
L 20.21875 43.015625 
L 29.109375 43.015625 
Q 36.375 43.015625 40.234375 45.921875 
Q 44.09375 48.828125 44.09375 54.296875 
Q 44.09375 59.90625 40.109375 62.90625 
Q 36.140625 65.921875 28.71875 65.921875 
Q 24.65625 65.921875 20.015625 65.03125 
Q 15.375 64.15625 9.8125 62.3125 
L 9.8125 71.09375 
Q 15.4375 72.65625 20.34375 73.4375 
Q 25.25 74.21875 29.59375 74.21875 
Q 40.828125 74.21875 47.359375 69.109375 
Q 53.90625 64.015625 53.90625 55.328125 
Q 53.90625 49.265625 50.4375 45.09375 
Q 46.96875 40.921875 40.578125 39.3125 
z
" id="DejaVuSans-51"/>
       </defs>
       <use xlink:href="#DejaVuSans-50"/>
       <use x="63.623047" xlink:href="#DejaVuSans-48"/>
       <use x="127.246094" xlink:href="#DejaVuSans-50"/>
       <use x="190.869141" xlink:href="#DejaVuSans-52"/>
       <use x="254.492188" xlink:href="#DejaVuSans-45"/>
       <use x="290.576172" xlink:href="#DejaVuSans-48"/>
       <use x="354.199219" xlink:href="#DejaVuSans-56"/>
       <use x="417.822266" xlink:href="#DejaVuSans-45"/>
       <use x="453.90625" xlink:href="#DejaVuSans-51"/>
       <use x="517.529297" xlink:href="#DejaVuSans-48"/>
      </g>
     </g>
    </g>
    <g id="xtick_4">
     <g id="line2d_7">
      <path clip-path="url(#p45d434f1e5)" d="M 213.926906 255.638708 
L 213.926906 25.44 
" style="fill:none;stroke:#b0b0b0;stroke-linecap:square;stroke-width:0.8;"/>
     </g>
     <g id="line2d_8">
      <g>
       <use style="stroke:#000000;stroke-width:0.8;" x="213.926906" xlink:href="#m6549334b6f" y="255.638708"/>
      </g>
     </g>
     <g id="text_4">
      <!-- 2024-08-31 -->
      <g transform="translate(206.581513 319.848351)rotate(-70)scale(0.1 -0.1)">
       <defs>
        <path d="M 12.40625 8.296875 
L 28.515625 8.296875 
L 28.515625 63.921875 
L 10.984375 60.40625 
L 10.984375 69.390625 
L 28.421875 72.90625 
L 38.28125 72.90625 
L 38.28125 8.296875 
L 54.390625 8.296875 
L 54.390625 0 
L 12.40625 0 
z
" id="DejaVuSans-49"/>
       </defs>
       <use xlink:href="#DejaVuSans-50"/>
       <use x="63.623047" xlink:href="#DejaVuSans-48"/>
       <use x="127.246094" xlink:href="#DejaVuSans-50"/>
       <use x="190.869141" xlink:href="#DejaVuSans-52"/>
       <use x="254.492188" xlink:href="#DejaVuSans-45"/>
       <use x="290.576172" xlink:href="#DejaVuSans-48"/>
       <use x="354.199219" xlink:href="#DejaVuSans-56"/>
       <use x="417.822266" xlink:href="#DejaVuSans-45"/>
       <use x="453.90625" xlink:href="#DejaVuSans-51"/>
       <use x="517.529297" xlink:href="#DejaVuSans-49"/>
      </g>
     </g>
    </g>
    <g id="xtick_5">
     <g id="line2d_9">
      <path clip-path="url(#p45d434f1e5)" d="M 258.154467 255.638708 
L 258.154467 25.44 
" style="fill:none;stroke:#b0b0b0;stroke-linecap:square;stroke-width:0.8;"/>
     </g>
     <g id="line2d_10">
      <g>
       <use style="stroke:#000000;stroke-width:0.8;" x="258.154467" xlink:href="#m6549334b6f" y="255.638708"/>
      </g>
     </g>
     <g id="text_5">
      <!-- 2024-09-01 -->
      <g transform="translate(250.809075 319.848351)rotate(-70)scale(0.1 -0.1)">
       <use xlink:href="#DejaVuSans-50"/>
       <use x="63.623047" xlink:href="#DejaVuSans-48"/>
       <use x="127.246094" xlink:href="#DejaVuSans-50"/>
       <use x="190.869141" xlink:href="#DejaVuSans-52"/>
       <use x="254.492188" xlink:href="#DejaVuSans-45"/>
       <use x="290.576172" xlink:href="#DejaVuSans-48"/>
       <use x="354.199219" xlink:href="#DejaVuSans-57"/>
       <use x="417.822266" xlink:href="#DejaVuSans-45"/>
       <use x="453.90625" xlink:href="#DejaVuSans-48"/>
       <use x="517.529297" xlink:href="#DejaVuSans-49"/>
      </g>
     </g>
    </g>
    <g id="xtick_6">
     <g id="line2d_11">
      <path clip-path="url(#p45d434f1e5)" d="M 302.382029 255.638708 
L 302.382029 25.44 
" style="fill:none;stroke:#b0b0b0;stroke-linecap:square;stroke-width:0.8;"/>
     </g>
     <g id="line2d_12">
      <g>
       <use style="stroke:#000000;stroke-width:0.8;" x="302.382029" xlink:href="#m6549334b6f" y="255.638708"/>
      </g>
     </g>
     <g id="text_6">
      <!-- 2024-09-02 -->
      <g transform="translate(295.036636 319.848351)rotate(-70)scale(0.1 -0.1)">
       <use xlink:href="#DejaVuSans-50"/>
       <use x="63.623047" xlink:href="#DejaVuSans-48"/>
       <use x="127.246094" xlink:href="#DejaVuSans-50"/>
       <use x="190.869141" xlink:href="#DejaVuSans-52"/>
       <use x="254.492188" xlink:href="#DejaVuSans-45"/>
       <use x="290.576172" xlink:href="#DejaVuSans-48"/>
       <use x="354.199219" xlink:href="#DejaVuSans-57"/>
       <use x="417.822266" xlink:href="#DejaVuSans-45"/>
       <use x="453.90625" xlink:href="#DejaVuSans-48"/>
       <use x="517.529297" xlink:href="#DejaVuSans-50"/>
      </g>
     </g>
    </g>
    <g id="xtick_7">
     <g id="line2d_13">
      <path clip-path="url(#p45d434f1e5)" d="M 346.60959 255.638708 
L 346.60959 25.44 
" style="fill:none;stroke:#b0b0b0;stroke-linecap:square;stroke-width:0.8;"/>
     </g>
     <g id="line2d_14">
      <g>
       <use style="stroke:#000000;stroke-width:0.8;" x="346.60959" xlink:href="#m6549334b6f" y="255.638708"/>
      </g>
     </g>
     <g id="text_7">
      <!-- 2024-09-03 -->
      <g transform="translate(339.264197 319.848351)rotate(-70)scale(0.1 -0.1)">
       <use xlink:href="#DejaVuSans-50"/>
       <use x="63.623047" xlink:href="#DejaVuSans-48"/>
       <use x="127.246094" xlink:href="#DejaVuSans-50"/>
       <use x="190.869141" xlink:href="#DejaVuSans-52"/>
       <use x="254.492188" xlink:href="#DejaVuSans-45"/>
       <use x="290.576172" xlink:href="#DejaVuSans-48"/>
       <use x="354.199219" xlink:href="#DejaVuSans-57"/>
       <use x="417.822266" xlink:href="#DejaVuSans-45"/>
       <use x="453.90625" xlink:href="#DejaVuSans-48"/>
       <use x="517.529297" xlink:href="#DejaVuSans-51"/>
      </g>
     </g>
    </g>
    <g id="xtick_8">
     <g id="line2d_15">
      <path clip-path="url(#p45d434f1e5)" d="M 390.837151 255.638708 
L 390.837151 25.44 
" style="fill:none;stroke:#b0b0b0;stroke-linecap:square;stroke-width:0.8;"/>
     </g>
     <g id="line2d_16">
      <g>
       <use style="stroke:#000000;stroke-width:0.8;" x="390.837151" xlink:href="#m6549334b6f" y="255.638708"/>
      </g>
     </g>
     <g id="text_8">
      <!-- 2024-09-04 -->
      <g transform="translate(383.491758 319.848351)rotate(-70)scale(0.1 -0.1)">
       <use xlink:href="#DejaVuSans-50"/>
       <use x="63.623047" xlink:href="#DejaVuSans-48"/>
       <use x="127.246094" xlink:href="#DejaVuSans-50"/>
       <use x="190.869141" xlink:href="#DejaVuSans-52"/>
       <use x="254.492188" xlink:href="#DejaVuSans-45"/>
       <use x="290.576172" xlink:href="#DejaVuSans-48"/>
       <use x="354.199219" xlink:href="#DejaVuSans-57"/>
       <use x="417.822266" xlink:href="#DejaVuSans-45"/>
       <use x="453.90625" xlink:href="#DejaVuSans-48"/>
       <use x="517.529297" xlink:href="#DejaVuSans-52"/>
      </g>
     </g>
    </g>
    <g id="xtick_9">
     <g id="line2d_17">
      <path clip-path="url(#p45d434f1e5)" d="M 435.064712 255.638708 
L 435.064712 25.44 
" style="fill:none;stroke:#b0b0b0;stroke-linecap:square;stroke-width:0.8;"/>
     </g>
     <g id="line2d_18">
      <g>
       <use style="stroke:#000000;stroke-width:0.8;" x="435.064712" xlink:href="#m6549334b6f" y="255.638708"/>
      </g>
     </g>
     <g id="text_9">
      <!-- 2024-09-05 -->
      <g transform="translate(427.719319 319.848351)rotate(-70)scale(0.1 -0.1)">
       <defs>
        <path d="M 10.796875 72.90625 
L 49.515625 72.90625 
L 49.515625 64.59375 
L 19.828125 64.59375 
L 19.828125 46.734375 
Q 21.96875 47.46875 24.109375 47.828125 
Q 26.265625 48.1875 28.421875 48.1875 
Q 40.625 48.1875 47.75 41.5 
Q 54.890625 34.8125 54.890625 23.390625 
Q 54.890625 11.625 47.5625 5.09375 
Q 40.234375 -1.421875 26.90625 -1.421875 
Q 22.3125 -1.421875 17.546875 -0.640625 
Q 12.796875 0.140625 7.71875 1.703125 
L 7.71875 11.625 
Q 12.109375 9.234375 16.796875 8.0625 
Q 21.484375 6.890625 26.703125 6.890625 
Q 35.15625 6.890625 40.078125 11.328125 
Q 45.015625 15.765625 45.015625 23.390625 
Q 45.015625 31 40.078125 35.4375 
Q 35.15625 39.890625 26.703125 39.890625 
Q 22.75 39.890625 18.8125 39.015625 
Q 14.890625 38.140625 10.796875 36.28125 
z
" id="DejaVuSans-53"/>
       </defs>
       <use xlink:href="#DejaVuSans-50"/>
       <use x="63.623047" xlink:href="#DejaVuSans-48"/>
       <use x="127.246094" xlink:href="#DejaVuSans-50"/>
       <use x="190.869141" xlink:href="#DejaVuSans-52"/>
       <use x="254.492188" xlink:href="#DejaVuSans-45"/>
       <use x="290.576172" xlink:href="#DejaVuSans-48"/>
       <use x="354.199219" xlink:href="#DejaVuSans-57"/>
       <use x="417.822266" xlink:href="#DejaVuSans-45"/>
       <use x="453.90625" xlink:href="#DejaVuSans-48"/>
       <use x="517.529297" xlink:href="#DejaVuSans-53"/>
      </g>
     </g>
    </g>
    <g id="text_10">
     <!-- Date -->
     <g transform="translate(229.310319 332.158083)scale(0.1 -0.1)">
      <defs>
       <path d="M 19.671875 64.796875 
L 19.671875 8.109375 
L 31.59375 8.109375 
Q 46.6875 8.109375 53.6875 14.9375 
Q 60.6875 21.78125 60.6875 36.53125 
Q 60.6875 51.171875 53.6875 57.984375 
Q 46.6875 64.796875 31.59375 64.796875 
z
M 9.8125 72.90625 
L 30.078125 72.90625 
Q 51.265625 72.90625 61.171875 64.09375 
Q 71.09375 55.28125 71.09375 36.53125 
Q 71.09375 17.671875 61.125 8.828125 
Q 51.171875 0 30.078125 0 
L 9.8125 0 
z
" id="DejaVuSans-68"/>
       <path d="M 34.28125 27.484375 
Q 23.390625 27.484375 19.1875 25 
Q 14.984375 22.515625 14.984375 16.5 
Q 14.984375 11.71875 18.140625 8.90625 
Q 21.296875 6.109375 26.703125 6.109375 
Q 34.1875 6.109375 38.703125 11.40625 
Q 43.21875 16.703125 43.21875 25.484375 
L 43.21875 27.484375 
z
M 52.203125 31.203125 
L 52.203125 0 
L 43.21875 0 
L 43.21875 8.296875 
Q 40.140625 3.328125 35.546875 0.953125 
Q 30.953125 -1.421875 24.3125 -1.421875 
Q 15.921875 -1.421875 10.953125 3.296875 
Q 6 8.015625 6 15.921875 
Q 6 25.140625 12.171875 29.828125 
Q 18.359375 34.515625 30.609375 34.515625 
L 43.21875 34.515625 
L 43.21875 35.40625 
Q 43.21875 41.609375 39.140625 45 
Q 35.0625 48.390625 27.6875 48.390625 
Q 23 48.390625 18.546875 47.265625 
Q 14.109375 46.140625 10.015625 43.890625 
L 10.015625 52.203125 
Q 14.9375 54.109375 19.578125 55.046875 
Q 24.21875 56 28.609375 56 
Q 40.484375 56 46.34375 49.84375 
Q 52.203125 43.703125 52.203125 31.203125 
z
" id="DejaVuSans-97"/>
       <path d="M 18.3125 70.21875 
L 18.3125 54.6875 
L 36.8125 54.6875 
L 36.8125 47.703125 
L 18.3125 47.703125 
L 18.3125 18.015625 
Q 18.3125 11.328125 20.140625 9.421875 
Q 21.96875 7.515625 27.59375 7.515625 
L 36.8125 7.515625 
L 36.8125 0 
L 27.59375 0 
Q 17.1875 0 13.234375 3.875 
Q 9.28125 7.765625 9.28125 18.015625 
L 9.28125 47.703125 
L 2.6875 47.703125 
L 2.6875 54.6875 
L 9.28125 54.6875 
L 9.28125 70.21875 
z
" id="DejaVuSans-116"/>
       <path d="M 56.203125 29.59375 
L 56.203125 25.203125 
L 14.890625 25.203125 
Q 15.484375 15.921875 20.484375 11.0625 
Q 25.484375 6.203125 34.421875 6.203125 
Q 39.59375 6.203125 44.453125 7.46875 
Q 49.3125 8.734375 54.109375 11.28125 
L 54.109375 2.78125 
Q 49.265625 0.734375 44.1875 -0.34375 
Q 39.109375 -1.421875 33.890625 -1.421875 
Q 20.796875 -1.421875 13.15625 6.1875 
Q 5.515625 13.8125 5.515625 26.8125 
Q 5.515625 40.234375 12.765625 48.109375 
Q 20.015625 56 32.328125 56 
Q 43.359375 56 49.78125 48.890625 
Q 56.203125 41.796875 56.203125 29.59375 
z
M 47.21875 32.234375 
Q 47.125 39.59375 43.09375 43.984375 
Q 39.0625 48.390625 32.421875 48.390625 
Q 24.90625 48.390625 20.390625 44.140625 
Q 15.875 39.890625 15.1875 32.171875 
z
" id="DejaVuSans-101"/>
      </defs>
      <use xlink:href="#DejaVuSans-68"/>
      <use x="77.001953" xlink:href="#DejaVuSans-97"/>
      <use x="138.28125" xlink:href="#DejaVuSans-116"/>
      <use x="177.490234" xlink:href="#DejaVuSans-101"/>
     </g>
    </g>
   </g>
   <g id="matplotlib.axis_2">
    <g id="ytick_1">
     <g id="line2d_19">
      <path clip-path="url(#p45d434f1e5)" d="M 44.66 232.037006 
L 437.8622 232.037006 
" style="fill:none;stroke:#b0b0b0;stroke-linecap:square;stroke-width:0.8;"/>
     </g>
     <g id="line2d_20">
      <defs>
       <path d="M 0 0 
L -3.5 0 
" id="m976aa71cf0" style="stroke:#000000;stroke-width:0.8;"/>
      </defs>
      <g>
       <use style="stroke:#000000;stroke-width:0.8;" x="44.66" xlink:href="#m976aa71cf0" y="232.037006"/>
      </g>
     </g>
     <g id="text_11">
      <!-- 55 -->
      <g transform="translate(24.935 235.836225)scale(0.1 -0.1)">
       <use xlink:href="#DejaVuSans-53"/>
       <use x="63.623047" xlink:href="#DejaVuSans-53"/>
      </g>
     </g>
    </g>
    <g id="ytick_2">
     <g id="line2d_21">
      <path clip-path="url(#p45d434f1e5)" d="M 44.66 185.115133 
L 437.8622 185.115133 
" style="fill:none;stroke:#b0b0b0;stroke-linecap:square;stroke-width:0.8;"/>
     </g>
     <g id="line2d_22">
      <g>
       <use style="stroke:#000000;stroke-width:0.8;" x="44.66" xlink:href="#m976aa71cf0" y="185.115133"/>
      </g>
     </g>
     <g id="text_12">
      <!-- 60 -->
      <g transform="translate(24.935 188.914352)scale(0.1 -0.1)">
       <defs>
        <path d="M 33.015625 40.375 
Q 26.375 40.375 22.484375 35.828125 
Q 18.609375 31.296875 18.609375 23.390625 
Q 18.609375 15.53125 22.484375 10.953125 
Q 26.375 6.390625 33.015625 6.390625 
Q 39.65625 6.390625 43.53125 10.953125 
Q 47.40625 15.53125 47.40625 23.390625 
Q 47.40625 31.296875 43.53125 35.828125 
Q 39.65625 40.375 33.015625 40.375 
z
M 52.59375 71.296875 
L 52.59375 62.3125 
Q 48.875 64.0625 45.09375 64.984375 
Q 41.3125 65.921875 37.59375 65.921875 
Q 27.828125 65.921875 22.671875 59.328125 
Q 17.53125 52.734375 16.796875 39.40625 
Q 19.671875 43.65625 24.015625 45.921875 
Q 28.375 48.1875 33.59375 48.1875 
Q 44.578125 48.1875 50.953125 41.515625 
Q 57.328125 34.859375 57.328125 23.390625 
Q 57.328125 12.15625 50.6875 5.359375 
Q 44.046875 -1.421875 33.015625 -1.421875 
Q 20.359375 -1.421875 13.671875 8.265625 
Q 6.984375 17.96875 6.984375 36.375 
Q 6.984375 53.65625 15.1875 63.9375 
Q 23.390625 74.21875 37.203125 74.21875 
Q 40.921875 74.21875 44.703125 73.484375 
Q 48.484375 72.75 52.59375 71.296875 
z
" id="DejaVuSans-54"/>
       </defs>
       <use xlink:href="#DejaVuSans-54"/>
       <use x="63.623047" xlink:href="#DejaVuSans-48"/>
      </g>
     </g>
    </g>
    <g id="ytick_3">
     <g id="line2d_23">
      <path clip-path="url(#p45d434f1e5)" d="M 44.66 138.19326 
L 437.8622 138.19326 
" style="fill:none;stroke:#b0b0b0;stroke-linecap:square;stroke-width:0.8;"/>
     </g>
     <g id="line2d_24">
      <g>
       <use style="stroke:#000000;stroke-width:0.8;" x="44.66" xlink:href="#m976aa71cf0" y="138.19326"/>
      </g>
     </g>
     <g id="text_13">
      <!-- 65 -->
      <g transform="translate(24.935 141.992479)scale(0.1 -0.1)">
       <use xlink:href="#DejaVuSans-54"/>
       <use x="63.623047" xlink:href="#DejaVuSans-53"/>
      </g>
     </g>
    </g>
    <g id="ytick_4">
     <g id="line2d_25">
      <path clip-path="url(#p45d434f1e5)" d="M 44.66 91.271388 
L 437.8622 91.271388 
" style="fill:none;stroke:#b0b0b0;stroke-linecap:square;stroke-width:0.8;"/>
     </g>
     <g id="line2d_26">
      <g>
       <use style="stroke:#000000;stroke-width:0.8;" x="44.66" xlink:href="#m976aa71cf0" y="91.271388"/>
      </g>
     </g>
     <g id="text_14">
      <!-- 70 -->
      <g transform="translate(24.935 95.070606)scale(0.1 -0.1)">
       <defs>
        <path d="M 8.203125 72.90625 
L 55.078125 72.90625 
L 55.078125 68.703125 
L 28.609375 0 
L 18.3125 0 
L 43.21875 64.59375 
L 8.203125 64.59375 
z
" id="DejaVuSans-55"/>
       </defs>
       <use xlink:href="#DejaVuSans-55"/>
       <use x="63.623047" xlink:href="#DejaVuSans-48"/>
      </g>
     </g>
    </g>
    <g id="ytick_5">
     <g id="line2d_27">
      <path clip-path="url(#p45d434f1e5)" d="M 44.66 44.349515 
L 437.8622 44.349515 
" style="fill:none;stroke:#b0b0b0;stroke-linecap:square;stroke-width:0.8;"/>
     </g>
     <g id="line2d_28">
      <g>
       <use style="stroke:#000000;stroke-width:0.8;" x="44.66" xlink:href="#m976aa71cf0" y="44.349515"/>
      </g>
     </g>
     <g id="text_15">
      <!-- 75 -->
      <g transform="translate(24.935 48.148733)scale(0.1 -0.1)">
       <use xlink:href="#DejaVuSans-55"/>
       <use x="63.623047" xlink:href="#DejaVuSans-53"/>
      </g>
     </g>
    </g>
    <g id="text_16">
     <!-- Temperature [F] -->
     <g transform="translate(18.855313 180.575291)rotate(-90)scale(0.1 -0.1)">
      <defs>
       <path d="M -0.296875 72.90625 
L 61.375 72.90625 
L 61.375 64.59375 
L 35.5 64.59375 
L 35.5 0 
L 25.59375 0 
L 25.59375 64.59375 
L -0.296875 64.59375 
z
" id="DejaVuSans-84"/>
       <path d="M 52 44.1875 
Q 55.375 50.25 60.0625 53.125 
Q 64.75 56 71.09375 56 
Q 79.640625 56 84.28125 50.015625 
Q 88.921875 44.046875 88.921875 33.015625 
L 88.921875 0 
L 79.890625 0 
L 79.890625 32.71875 
Q 79.890625 40.578125 77.09375 44.375 
Q 74.3125 48.1875 68.609375 48.1875 
Q 61.625 48.1875 57.5625 43.546875 
Q 53.515625 38.921875 53.515625 30.90625 
L 53.515625 0 
L 44.484375 0 
L 44.484375 32.71875 
Q 44.484375 40.625 41.703125 44.40625 
Q 38.921875 48.1875 33.109375 48.1875 
Q 26.21875 48.1875 22.15625 43.53125 
Q 18.109375 38.875 18.109375 30.90625 
L 18.109375 0 
L 9.078125 0 
L 9.078125 54.6875 
L 18.109375 54.6875 
L 18.109375 46.1875 
Q 21.1875 51.21875 25.484375 53.609375 
Q 29.78125 56 35.6875 56 
Q 41.65625 56 45.828125 52.96875 
Q 50 49.953125 52 44.1875 
z
" id="DejaVuSans-109"/>
       <path d="M 18.109375 8.203125 
L 18.109375 -20.796875 
L 9.078125 -20.796875 
L 9.078125 54.6875 
L 18.109375 54.6875 
L 18.109375 46.390625 
Q 20.953125 51.265625 25.265625 53.625 
Q 29.59375 56 35.59375 56 
Q 45.5625 56 51.78125 48.09375 
Q 58.015625 40.1875 58.015625 27.296875 
Q 58.015625 14.40625 51.78125 6.484375 
Q 45.5625 -1.421875 35.59375 -1.421875 
Q 29.59375 -1.421875 25.265625 0.953125 
Q 20.953125 3.328125 18.109375 8.203125 
z
M 48.6875 27.296875 
Q 48.6875 37.203125 44.609375 42.84375 
Q 40.53125 48.484375 33.40625 48.484375 
Q 26.265625 48.484375 22.1875 42.84375 
Q 18.109375 37.203125 18.109375 27.296875 
Q 18.109375 17.390625 22.1875 11.75 
Q 26.265625 6.109375 33.40625 6.109375 
Q 40.53125 6.109375 44.609375 11.75 
Q 48.6875 17.390625 48.6875 27.296875 
z
" id="DejaVuSans-112"/>
       <path d="M 41.109375 46.296875 
Q 39.59375 47.171875 37.8125 47.578125 
Q 36.03125 48 33.890625 48 
Q 26.265625 48 22.1875 43.046875 
Q 18.109375 38.09375 18.109375 28.8125 
L 18.109375 0 
L 9.078125 0 
L 9.078125 54.6875 
L 18.109375 54.6875 
L 18.109375 46.1875 
Q 20.953125 51.171875 25.484375 53.578125 
Q 30.03125 56 36.53125 56 
Q 37.453125 56 38.578125 55.875 
Q 39.703125 55.765625 41.0625 55.515625 
z
" id="DejaVuSans-114"/>
       <path d="M 8.5 21.578125 
L 8.5 54.6875 
L 17.484375 54.6875 
L 17.484375 21.921875 
Q 17.484375 14.15625 20.5 10.265625 
Q 23.53125 6.390625 29.59375 6.390625 
Q 36.859375 6.390625 41.078125 11.03125 
Q 45.3125 15.671875 45.3125 23.6875 
L 45.3125 54.6875 
L 54.296875 54.6875 
L 54.296875 0 
L 45.3125 0 
L 45.3125 8.40625 
Q 42.046875 3.421875 37.71875 1 
Q 33.40625 -1.421875 27.6875 -1.421875 
Q 18.265625 -1.421875 13.375 4.4375 
Q 8.5 10.296875 8.5 21.578125 
z
M 31.109375 56 
z
" id="DejaVuSans-117"/>
       <path id="DejaVuSans-32"/>
       <path d="M 8.59375 75.984375 
L 29.296875 75.984375 
L 29.296875 69 
L 17.578125 69 
L 17.578125 -6.203125 
L 29.296875 -6.203125 
L 29.296875 -13.1875 
L 8.59375 -13.1875 
z
" id="DejaVuSans-91"/>
       <path d="M 9.8125 72.90625 
L 51.703125 72.90625 
L 51.703125 64.59375 
L 19.671875 64.59375 
L 19.671875 43.109375 
L 48.578125 43.109375 
L 48.578125 34.8125 
L 19.671875 34.8125 
L 19.671875 0 
L 9.8125 0 
z
" id="DejaVuSans-70"/>
       <path d="M 30.421875 75.984375 
L 30.421875 -13.1875 
L 9.71875 -13.1875 
L 9.71875 -6.203125 
L 21.390625 -6.203125 
L 21.390625 69 
L 9.71875 69 
L 9.71875 75.984375 
z
" id="DejaVuSans-93"/>
      </defs>
      <use xlink:href="#DejaVuSans-84"/>
      <use x="44.083984" xlink:href="#DejaVuSans-101"/>
      <use x="105.607422" xlink:href="#DejaVuSans-109"/>
      <use x="203.019531" xlink:href="#DejaVuSans-112"/>
      <use x="266.496094" xlink:href="#DejaVuSans-101"/>
      <use x="328.019531" xlink:href="#DejaVuSans-114"/>
      <use x="369.132812" xlink:href="#DejaVuSans-97"/>
      <use x="430.412109" xlink:href="#DejaVuSans-116"/>
      <use x="469.621094" xlink:href="#DejaVuSans-117"/>
      <use x="533" xlink:href="#DejaVuSans-114"/>
      <use x="571.863281" xlink:href="#DejaVuSans-101"/>
      <use x="633.386719" xlink:href="#DejaVuSans-32"/>
      <use x="665.173828" xlink:href="#DejaVuSans-91"/>
      <use x="704.1875" xlink:href="#DejaVuSans-70"/>
      <use x="761.707031" xlink:href="#DejaVuSans-93"/>
     </g>
    </g>
   </g>
   <g id="line2d_29">
    <path clip-path="url(#p45d434f1e5)" d="M 62.532827 101.5942 
L 62.600329 101.5942 
L 62.663943 100.655762 
L 62.696378 101.5942 
L 62.728204 101.5942 
L 62.855689 100.655762 
L 62.919521 100.655762 
L 62.951428 101.5942 
L 62.983911 100.655762 
L 63.112225 99.717325 
L 63.305135 99.717325 
L 63.402524 98.778887 
L 63.56479 100.655762 
L 63.596731 100.655762 
L 63.695061 98.778887 
L 63.726913 100.655762 
L 63.790918 98.778887 
L 63.856677 98.778887 
L 63.986986 96.902012 
L 64.018698 98.778887 
L 64.051104 95.963575 
L 64.082889 95.963575 
L 64.115513 96.902012 
L 64.18019 95.963575 
L 64.308519 95.963575 
L 64.373772 95.025137 
L 64.406732 95.963575 
L 64.439513 95.963575 
L 64.472079 95.025137 
L 64.503927 96.902012 
L 64.600159 96.902012 
L 64.732064 95.025137 
L 64.76417 95.025137 
L 64.892496 95.963575 
L 64.924604 95.963575 
L 65.055185 96.902012 
L 65.152556 96.902012 
L 65.31663 94.0867 
L 65.47892 95.963575 
L 65.610019 94.0867 
L 65.64365 94.0867 
L 65.677036 93.148262 
L 65.741102 94.0867 
L 65.773433 95.025137 
L 65.826915 94.0867 
L 65.957787 94.0867 
L 66.023698 93.148262 
L 66.055817 94.0867 
L 66.089922 94.0867 
L 66.25471 96.902012 
L 66.320866 95.963575 
L 66.355789 96.902012 
L 66.460345 96.902012 
L 66.492282 98.778887 
L 66.557695 96.902012 
L 66.653501 96.902012 
L 66.784092 95.963575 
L 66.849605 96.902012 
L 66.882843 95.963575 
L 66.946227 95.963575 
L 67.012444 98.778887 
L 67.045817 95.963575 
L 67.10929 95.963575 
L 67.17882 98.778887 
L 67.210583 96.902012 
L 67.242311 96.902012 
L 67.274215 98.778887 
L 67.306233 95.963575 
L 67.337979 96.902012 
L 67.370643 96.902012 
L 67.500256 100.655762 
L 67.566199 96.902012 
L 67.597981 100.655762 
L 67.631073 102.532637 
L 67.664493 99.717325 
L 67.830973 95.963575 
L 67.961643 102.532637 
L 68.027769 99.717325 
L 68.060486 101.5942 
L 68.128596 102.532637 
L 68.160302 101.5942 
L 68.191979 101.5942 
L 68.35561 103.471074 
L 68.680231 103.471074 
L 68.809892 104.409512 
L 68.90805 103.471074 
L 68.972766 104.409512 
L 69.004716 103.471074 
L 69.036537 102.532637 
L 69.069255 104.409512 
L 69.1367 104.409512 
L 69.233763 100.655762 
L 69.267191 103.471074 
L 69.300635 106.286387 
L 69.364557 104.409512 
L 69.463667 104.409512 
L 69.660128 101.5942 
L 69.789881 102.532637 
L 69.855489 102.532637 
L 69.887701 101.5942 
L 69.919402 102.532637 
L 69.952558 103.471074 
L 69.984679 100.655762 
L 70.049788 104.409512 
L 70.083005 104.409512 
L 70.148919 102.532637 
L 70.180581 103.471074 
L 70.212371 103.471074 
L 70.244035 102.532637 
L 70.275945 104.409512 
L 70.309312 104.409512 
L 70.341747 102.532637 
L 70.405443 103.471074 
L 70.56847 103.471074 
L 70.669271 104.409512 
L 70.766085 103.471074 
L 70.86725 104.409512 
L 70.932886 102.532637 
L 70.996943 103.471074 
L 71.061583 103.471074 
L 71.191421 104.409512 
L 71.546475 104.409512 
L 71.644189 106.286387 
L 71.677512 104.409512 
L 71.741676 106.286387 
L 72.267492 106.286387 
L 72.399666 107.224824 
L 72.433099 106.286387 
L 72.49727 107.224824 
L 72.529143 107.224824 
L 72.56095 106.286387 
L 72.625012 107.224824 
L 73.240998 107.224824 
L 73.273244 108.163262 
L 73.305168 107.224824 
L 155.039392 108.163262 
L 155.072407 107.224824 
L 155.459206 104.409512 
L 155.491281 107.224824 
L 155.558541 106.286387 
L 155.626577 107.224824 
L 155.659318 104.409512 
L 155.737948 107.224824 
L 155.793512 106.286387 
L 155.826414 106.286387 
L 155.991508 100.655762 
L 156.131055 104.409512 
L 156.162731 103.471074 
L 156.310752 106.286387 
L 156.447128 106.286387 
L 156.478875 107.224824 
L 156.611337 103.471074 
L 156.646544 103.471074 
L 156.750076 95.963575 
L 156.809949 100.655762 
L 156.843131 103.471074 
L 156.874975 101.5942 
L 156.979058 104.409512 
L 157.049093 103.471074 
L 157.080842 103.471074 
L 157.19407 106.286387 
L 157.298554 103.471074 
L 157.330276 104.409512 
L 157.433855 104.409512 
L 157.599018 95.025137 
L 157.728393 103.471074 
L 157.760112 104.409512 
L 157.889103 94.0867 
L 157.955275 96.902012 
L 157.987036 95.963575 
L 158.018763 96.902012 
L 158.195435 106.286387 
L 158.346299 102.532637 
L 158.444599 102.532637 
L 158.478216 101.5942 
L 158.510121 102.532637 
L 158.641089 106.286387 
L 158.809409 102.532637 
L 158.841958 102.532637 
L 158.951022 95.025137 
L 159.061674 104.409512 
L 159.095988 102.532637 
L 159.168234 106.286387 
L 159.200076 102.532637 
L 159.397542 106.286387 
L 159.429208 103.471074 
L 159.462168 104.409512 
L 159.592675 104.409512 
L 159.625706 102.532637 
L 159.694349 104.409512 
L 159.72753 107.224824 
L 159.792507 103.471074 
L 159.856368 103.471074 
L 159.889807 104.409512 
L 159.924343 98.778887 
L 160.024855 99.717325 
L 160.091648 103.471074 
L 160.123561 101.5942 
L 160.157811 100.655762 
L 160.189468 101.5942 
L 160.351449 103.471074 
L 160.488001 102.532637 
L 160.519756 102.532637 
L 160.583907 103.471074 
L 160.616615 101.5942 
L 160.680034 103.471074 
L 160.712157 103.471074 
L 160.743831 102.532637 
L 160.808849 103.471074 
L 160.841533 103.471074 
L 160.968872 104.409512 
L 161.0018 104.409512 
L 161.13078 106.286387 
L 161.162979 106.286387 
L 161.292641 107.224824 
L 161.746079 107.224824 
L 161.843856 108.163262 
L 161.974089 107.224824 
L 162.202187 107.224824 
L 162.234193 103.471074 
L 162.297904 107.224824 
L 162.395299 106.286387 
L 162.530008 107.224824 
L 162.626973 107.224824 
L 162.659319 106.286387 
L 162.723131 107.224824 
L 162.787222 107.224824 
L 162.885304 108.163262 
L 162.918333 107.224824 
L 162.984244 108.163262 
L 163.642509 108.163262 
L 163.677032 109.101699 
L 163.708842 108.163262 
L 163.851097 107.224824 
L 164.221835 107.224824 
L 164.317368 106.286387 
L 164.349667 107.224824 
L 164.418301 106.286387 
L 164.874171 106.286387 
L 164.905916 107.224824 
L 164.970155 106.286387 
L 165.264165 106.286387 
L 165.363508 107.224824 
L 165.491453 106.286387 
L 165.618558 106.286387 
L 165.714818 107.224824 
L 165.81268 106.286387 
L 165.942444 107.224824 
L 166.006031 107.224824 
L 166.133257 106.286387 
L 166.197116 106.286387 
L 166.292299 107.224824 
L 166.428265 106.286387 
L 166.749924 106.286387 
L 294.538188 80.010138 
L 294.612016 81.887013 
L 294.766391 81.887013 
L 294.798378 80.010138 
L 294.864577 81.887013 
L 294.968724 81.887013 
L 295.001713 80.010138 
L 295.07428 81.887013 
L 295.365651 81.887013 
L 295.431181 82.82545 
L 295.463211 81.887013 
L 295.664214 81.887013 
L 295.697722 82.82545 
L 295.767538 81.887013 
L 295.805942 81.887013 
L 295.936041 82.82545 
L 296.00163 82.82545 
L 296.034341 81.887013 
L 296.09811 82.82545 
L 296.226631 82.82545 
L 296.322887 81.887013 
L 296.434354 82.82545 
L 297.164169 82.82545 
L 297.196273 83.763888 
L 297.259714 82.82545 
L 297.291357 82.82545 
L 297.32384 83.763888 
L 297.388263 82.82545 
L 297.421055 82.82545 
L 297.554504 83.763888 
L 297.689107 82.82545 
L 297.720842 82.82545 
L 297.848583 83.763888 
L 298.46746 83.763888 
L 298.499503 84.702325 
L 298.563139 83.763888 
L 298.697109 83.763888 
L 298.732565 84.702325 
L 298.780409 83.763888 
L 299.109604 83.763888 
L 299.243579 84.702325 
L 300.62214 84.702325 
L 300.65545 85.640763 
L 300.721618 84.702325 
L 301.016545 84.702325 
L 301.150532 85.640763 
L 301.282503 84.702325 
L 301.315169 84.702325 
L 301.444975 85.640763 
L 301.910278 85.640763 
L 302.063334 86.5792 
L 302.191151 85.640763 
L 303.138521 85.640763 
L 303.17017 84.702325 
L 303.236137 85.640763 
L 303.466887 85.640763 
L 303.49884 84.702325 
L 303.564685 85.640763 
L 303.59789 85.640763 
L 303.694492 84.702325 
L 303.824851 85.640763 
L 304.314594 85.640763 
L 304.346281 86.5792 
L 304.409622 85.640763 
L 305.020945 85.640763 
L 305.053583 84.702325 
L 305.118047 85.640763 
L 305.214705 85.640763 
L 305.257284 84.702325 
L 305.293075 85.640763 
L 305.617837 85.640763 
L 305.650526 84.702325 
L 305.716649 85.640763 
L 306.760423 85.640763 
L 306.890462 86.5792 
L 306.955695 86.5792 
L 307.090092 85.640763 
L 307.232591 86.5792 
L 307.364717 85.640763 
L 307.396381 85.640763 
L 307.525659 86.5792 
L 307.656478 85.640763 
L 307.818992 85.640763 
L 307.946293 86.5792 
L 308.517367 86.5792 
L 308.549432 87.517638 
L 308.612989 86.5792 
L 309.010389 86.5792 
L 309.109481 87.517638 
L 309.208159 86.5792 
L 309.305488 87.517638 
L 309.406711 86.5792 
L 309.543266 87.517638 
L 309.574943 87.517638 
L 309.609278 86.5792 
L 309.674551 87.517638 
L 310.69354 87.517638 
L 310.726363 89.394513 
L 310.791257 87.517638 
L 310.822982 87.517638 
L 310.860302 89.394513 
L 310.925819 87.517638 
L 311.358606 87.517638 
L 311.422805 89.394513 
L 311.455574 87.517638 
L 311.758964 87.517638 
L 311.88979 89.394513 
L 311.985781 87.517638 
L 312.082058 89.394513 
L 312.181178 87.517638 
L 312.278252 89.394513 
L 312.413346 87.517638 
L 312.543462 89.394513 
L 312.575218 89.394513 
L 312.60688 87.517638 
L 312.671634 89.394513 
L 312.70624 89.394513 
L 312.739189 87.517638 
L 312.806233 89.394513 
L 313.751472 89.394513 
L 313.852066 90.33295 
L 313.989204 89.394513 
L 314.053663 89.394513 
L 314.086953 90.33295 
L 314.11915 89.394513 
L 314.4729 89.394513 
L 314.604451 90.33295 
L 314.701535 89.394513 
L 314.832471 90.33295 
L 315.947495 90.33295 
L 316.044221 91.271388 
L 316.11112 90.33295 
L 316.143471 91.271388 
L 316.20864 91.271388 
L 316.272681 90.33295 
L 316.304558 91.271388 
L 317.049335 91.271388 
L 317.18127 90.33295 
L 317.310651 91.271388 
L 318.649298 91.271388 
L 318.681139 92.209825 
L 318.754635 91.271388 
L 319.900911 91.271388 
L 320.037187 92.209825 
L 320.136074 91.271388 
L 320.282293 92.209825 
L 321.178217 92.209825 
L 321.210014 91.271388 
L 321.276806 92.209825 
L 321.442833 92.209825 
L 321.539998 91.271388 
L 321.672474 92.209825 
L 321.705619 92.209825 
L 321.838634 91.271388 
L 322.000382 91.271388 
L 322.032057 92.209825 
L 322.097992 91.271388 
L 322.196153 91.271388 
L 322.330426 92.209825 
L 322.461111 91.271388 
L 322.719352 91.271388 
L 322.855684 92.209825 
L 322.98908 91.271388 
L 324.022946 91.271388 
L 324.153948 90.33295 
L 324.449707 90.33295 
L 324.515783 89.394513 
L 324.548272 90.33295 
L 324.747463 90.33295 
L 324.82086 89.394513 
L 324.853623 90.33295 
L 324.919465 90.33295 
L 324.953289 89.394513 
L 325.018031 90.33295 
L 325.942593 90.33295 
L 326.074467 89.394513 
L 326.180811 89.394513 
L 326.212818 90.33295 
L 326.27669 89.394513 
L 326.408948 89.394513 
L 326.540759 87.517638 
L 326.869158 87.517638 
L 326.933267 86.5792 
L 326.965419 87.517638 
L 327.74739 87.517638 
L 327.844054 86.5792 
L 327.975919 87.517638 
L 328.039477 87.517638 
L 328.13653 86.5792 
L 328.168759 87.517638 
L 328.234026 86.5792 
L 328.265753 86.5792 
L 328.392975 85.640763 
L 328.459423 85.640763 
L 328.588115 86.5792 
L 328.684023 86.5792 
L 328.813982 85.640763 
L 328.845639 85.640763 
L 328.943951 86.5792 
L 329.087691 85.640763 
L 329.187359 85.640763 
L 329.287078 86.5792 
L 329.416875 85.640763 
L 329.552624 86.5792 
L 329.588052 85.640763 
L 329.653158 86.5792 
L 329.789529 86.5792 
L 329.821336 85.640763 
L 329.886695 86.5792 
L 330.348655 86.5792 
L 330.479482 85.640763 
L 330.545076 86.5792 
L 330.577035 85.640763 
L 330.679659 85.640763 
L 330.812871 86.5792 
L 330.846768 86.5792 
L 330.982117 85.640763 
L 331.081544 86.5792 
L 331.216049 85.640763 
L 331.284755 85.640763 
L 331.416041 86.5792 
L 331.448983 86.5792 
L 331.579573 85.640763 
L 331.814447 85.640763 
L 331.850411 86.5792 
L 331.882224 85.640763 
L 332.062272 85.640763 
L 332.094861 86.5792 
L 332.160688 85.640763 
L 332.414671 85.640763 
L 332.446393 83.763888 
L 332.511438 84.702325 
L 332.607369 84.702325 
L 332.736763 85.640763 
L 332.867004 85.640763 
L 332.931078 86.5792 
L 332.963405 85.640763 
L 332.996342 85.640763 
L 333.028103 84.702325 
L 333.092822 85.640763 
L 333.125165 85.640763 
L 333.222752 84.702325 
L 333.254539 85.640763 
L 333.320693 84.702325 
L 333.38657 84.702325 
L 333.517738 85.640763 
L 333.88534 85.640763 
L 333.917205 86.5792 
L 333.983332 85.640763 
L 334.083003 84.702325 
L 334.214628 85.640763 
L 334.641843 85.640763 
L 334.770774 86.5792 
L 334.836979 86.5792 
L 334.870196 85.640763 
L 334.934252 86.5792 
L 335.322824 86.5792 
L 335.453495 85.640763 
L 335.635612 86.5792 
L 335.995108 86.5792 
L 336.090335 87.517638 
L 336.219736 86.5792 
L 336.351547 86.5792 
L 336.385312 85.640763 
L 336.449346 86.5792 
L 336.843698 86.5792 
L 336.876515 87.517638 
L 336.940511 86.5792 
L 337.382662 86.5792 
L 337.514472 87.517638 
L 337.64573 86.5792 
L 337.779226 87.517638 
L 338.305608 87.517638 
L 338.370622 86.5792 
L 338.402841 87.517638 
L 338.535809 87.517638 
L 338.569619 86.5792 
L 338.635179 87.517638 
L 339.532509 87.517638 
L 339.565539 89.394513 
L 339.709789 87.517638 
L 339.818851 89.394513 
L 339.955568 87.517638 
L 340.056048 89.394513 
L 340.184599 87.517638 
L 340.315659 89.394513 
L 340.424369 89.394513 
L 340.557221 87.517638 
L 340.737297 89.394513 
L 341.538429 89.394513 
L 341.656396 90.33295 
L 341.722237 89.394513 
L 341.757577 90.33295 
L 341.789334 90.33295 
L 341.855897 89.394513 
L 341.888267 90.33295 
L 341.954414 90.33295 
L 342.051395 89.394513 
L 342.195144 90.33295 
L 343.015164 90.33295 
L 343.046854 91.271388 
L 343.111225 90.33295 
L 343.667436 90.33295 
L 343.699307 91.271388 
L 343.764971 90.33295 
L 343.797771 90.33295 
L 343.895711 91.271388 
L 343.928053 90.33295 
L 343.99368 91.271388 
L 344.026985 91.271388 
L 344.16067 90.33295 
L 344.299179 91.271388 
L 346.117674 91.271388 
L 346.15321 92.209825 
L 346.221797 91.271388 
L 346.325258 91.271388 
L 346.391502 92.209825 
L 346.424488 91.271388 
L 346.495214 91.271388 
L 346.629232 92.209825 
L 346.662253 91.271388 
L 346.727846 92.209825 
L 347.086673 92.209825 
L 347.120553 91.271388 
L 347.186159 92.209825 
L 347.314543 92.209825 
L 347.346263 91.271388 
L 347.411227 92.209825 
L 347.674 92.209825 
L 347.708352 93.148262 
L 347.773789 92.209825 
L 348.66793 92.209825 
L 348.701143 91.271388 
L 348.770103 92.209825 
L 350.260413 92.209825 
L 350.293114 93.148262 
L 350.360778 92.209825 
L 350.864794 92.209825 
L 350.9747 93.148262 
L 351.106703 92.209825 
L 351.171081 92.209825 
L 351.304152 93.148262 
L 351.706059 93.148262 
L 351.738333 92.209825 
L 351.804304 93.148262 
L 352.234978 93.148262 
L 352.270263 92.209825 
L 352.33501 93.148262 
L 353.866253 93.148262 
L 353.901889 94.0867 
L 353.96555 93.148262 
L 354.096247 93.148262 
L 354.129954 94.0867 
L 354.198069 93.148262 
L 354.425672 93.148262 
L 354.553484 94.0867 
L 354.691568 93.148262 
L 354.824426 94.0867 
L 354.856068 93.148262 
L 354.920077 94.0867 
L 354.985203 94.0867 
L 355.114115 93.148262 
L 355.147359 93.148262 
L 355.247028 94.0867 
L 355.280625 93.148262 
L 355.345847 94.0867 
L 355.445461 94.0867 
L 355.57631 93.148262 
L 355.707175 94.0867 
L 355.738943 93.148262 
L 355.806862 94.0867 
L 356.0679 94.0867 
L 356.102071 93.148262 
L 356.16646 94.0867 
L 358.520652 94.0867 
L 358.553832 95.025137 
L 358.618793 94.0867 
L 358.814495 94.0867 
L 358.846384 95.025137 
L 358.913061 94.0867 
L 359.008526 94.0867 
L 359.13707 95.025137 
L 359.16892 95.025137 
L 359.203275 94.0867 
L 359.270769 95.025137 
L 359.303595 95.025137 
L 359.370446 94.0867 
L 359.402061 95.025137 
L 359.436027 95.025137 
L 359.46877 94.0867 
L 359.537446 95.025137 
L 359.57168 95.025137 
L 359.70085 94.0867 
L 359.832055 95.025137 
L 360.709817 95.025137 
L 360.742045 95.963575 
L 360.806997 95.025137 
L 361.196831 95.025137 
L 361.299453 95.963575 
L 361.433441 95.025137 
L 361.50015 95.025137 
L 361.532432 95.963575 
L 361.568371 95.025137 
L 361.67321 95.963575 
L 361.772846 95.025137 
L 361.905503 95.963575 
L 361.979905 95.025137 
L 362.013138 95.963575 
L 362.156615 95.025137 
L 362.216357 95.025137 
L 362.250881 95.963575 
L 362.407315 95.025137 
L 364.175293 95.025137 
L 364.28173 94.0867 
L 364.411887 95.025137 
L 364.555195 94.0867 
L 364.618735 95.025137 
L 364.650404 94.0867 
L 365.559788 94.0867 
L 365.591488 93.148262 
L 365.63824 94.0867 
L 365.671186 94.0867 
L 365.768458 93.148262 
L 365.876267 94.0867 
L 366.044412 92.209825 
L 366.081122 92.209825 
L 366.115165 93.148262 
L 366.181785 92.209825 
L 366.411796 92.209825 
L 366.511008 91.271388 
L 366.543319 92.209825 
L 366.609348 91.271388 
L 366.744624 91.271388 
L 366.786433 90.33295 
L 366.849856 91.271388 
L 366.983083 91.271388 
L 367.087214 92.209825 
L 367.191224 91.271388 
L 367.318779 92.209825 
L 367.447868 91.271388 
L 367.479532 91.271388 
L 367.57533 90.33295 
L 367.638843 91.271388 
L 367.671671 90.33295 
L 367.703398 90.33295 
L 367.798642 91.271388 
L 367.926412 90.33295 
L 368.086173 90.33295 
L 368.118545 91.271388 
L 368.183572 90.33295 
L 368.256347 90.33295 
L 368.288077 91.271388 
L 368.353966 90.33295 
L 368.385778 90.33295 
L 368.513131 91.271388 
L 368.972308 91.271388 
L 369.099354 90.33295 
L 369.233039 91.271388 
L 369.437667 91.271388 
L 369.469544 90.33295 
L 369.532932 91.271388 
L 369.760201 91.271388 
L 369.889562 90.33295 
L 369.921343 90.33295 
L 369.953353 91.271388 
L 370.021782 90.33295 
L 370.053542 90.33295 
L 370.087284 91.271388 
L 370.151359 90.33295 
L 370.731945 90.33295 
L 370.849462 91.271388 
L 370.922269 90.33295 
L 371.884102 90.33295 
L 372.001633 89.394513 
L 372.371926 89.394513 
L 372.404143 90.33295 
L 372.457532 89.394513 
L 373.310357 89.394513 
L 373.424661 90.33295 
L 373.554951 89.394513 
L 373.890268 89.394513 
L 373.940282 90.33295 
L 373.977514 87.517638 
L 374.056031 89.394513 
L 374.173153 89.394513 
L 374.318604 87.517638 
L 375.043613 87.517638 
L 375.337124 85.640763 
L 375.442062 86.5792 
L 376.4348 86.5792 
L 376.476596 85.640763 
L 376.518366 86.5792 
L 376.726668 86.5792 
L 376.798738 85.640763 
L 376.835008 86.5792 
L 376.867799 86.5792 
L 376.943208 85.640763 
L 377.148522 85.640763 
L 377.180494 86.5792 
L 377.24879 85.640763 
L 377.355359 85.640763 
L 377.496291 84.702325 
L 377.601203 85.640763 
L 377.744769 84.702325 
L 377.866376 84.702325 
L 378.001185 85.640763 
L 378.184539 85.640763 
L 378.217632 86.5792 
L 378.254474 85.640763 
L 378.528872 85.640763 
L 378.706109 84.702325 
L 378.795338 85.640763 
L 378.978057 83.763888 
L 379.020757 83.763888 
L 379.053682 84.702325 
L 379.264473 83.763888 
L 379.510926 82.82545 
L 379.545274 82.82545 
L 379.702627 83.763888 
L 379.837126 82.82545 
L 379.904054 82.82545 
L 379.940856 83.763888 
L 380.295158 83.763888 
L 380.3386 84.702325 
L 380.393405 83.763888 
L 380.616535 83.763888 
L 380.748538 84.702325 
L 381.421313 84.702325 
L 381.488348 83.763888 
L 381.523044 84.702325 
L 381.562541 84.702325 
L 381.67637 83.763888 
L 381.780366 83.763888 
L 381.929541 84.702325 
L 382.072793 83.763888 
L 382.191372 83.763888 
L 382.310129 84.702325 
L 382.590748 84.702325 
L 382.642578 85.640763 
L 382.681614 84.702325 
L 382.752155 84.702325 
L 382.856764 85.640763 
L 382.988851 84.702325 
L 383.045628 85.640763 
L 383.07859 84.702325 
L 383.251575 85.640763 
L 383.361866 85.640763 
L 383.395781 86.5792 
L 383.440791 85.640763 
L 383.47634 85.640763 
L 383.511172 86.5792 
L 383.607736 85.640763 
L 383.663313 87.517638 
L 383.744953 86.5792 
L 383.991853 86.5792 
L 384.132176 87.517638 
L 384.169641 87.517638 
L 384.207587 86.5792 
L 384.239383 87.517638 
L 384.599394 87.517638 
L 384.636268 89.394513 
L 384.672995 87.517638 
L 384.875643 89.394513 
L 385.369985 89.394513 
L 385.443981 90.33295 
L 385.475801 89.394513 
L 385.509777 89.394513 
L 385.6312 90.33295 
L 386.245604 90.33295 
L 386.382749 91.271388 
L 386.526081 90.33295 
L 386.591601 91.271388 
L 386.695793 90.33295 
L 386.80468 91.271388 
L 386.874328 90.33295 
L 386.993533 91.271388 
L 387.647299 91.271388 
L 387.747946 92.209825 
L 387.781959 91.271388 
L 387.846852 92.209825 
L 388.632593 92.209825 
L 388.729141 93.148262 
L 388.880419 92.209825 
L 389.180234 92.209825 
L 389.213445 93.148262 
L 389.276914 92.209825 
L 389.308611 92.209825 
L 389.340318 93.148262 
L 389.404181 92.209825 
L 389.441594 92.209825 
L 389.474554 93.148262 
L 389.539774 92.209825 
L 389.572635 92.209825 
L 389.671821 93.148262 
L 389.76811 92.209825 
L 389.898907 93.148262 
L 390.860873 93.148262 
L 390.989505 94.0867 
L 391.021236 93.148262 
L 391.084869 94.0867 
L 391.116556 94.0867 
L 391.244322 93.148262 
L 391.277087 93.148262 
L 391.406768 94.0867 
L 392.248931 94.0867 
L 392.280581 95.025137 
L 392.344267 94.0867 
L 392.376028 94.0867 
L 392.475931 95.025137 
L 392.508606 94.0867 
L 392.572025 95.025137 
L 392.826031 95.025137 
L 392.953833 95.963575 
L 393.050927 95.025137 
L 393.180312 95.963575 
L 393.371023 95.963575 
L 393.506304 96.902012 
L 393.637944 95.963575 
L 394.466159 95.963575 
L 394.49893 95.025137 
L 394.689231 95.963575 
L 394.945839 95.963575 
L 394.978781 96.902012 
L 395.184956 95.963575 
L 395.382258 95.963575 
L 395.415601 96.902012 
L 395.48166 95.963575 
L 396.423055 95.963575 
L 396.550998 96.902012 
L 396.648288 96.902012 
L 396.779514 95.963575 
L 396.876843 95.963575 
L 397.010308 96.902012 
L 398.726419 96.902012 
L 398.853958 98.778887 
L 398.885739 98.778887 
L 399.015979 96.902012 
L 399.11403 96.902012 
L 399.210342 98.778887 
L 399.337223 96.902012 
L 399.400513 96.902012 
L 399.52964 98.778887 
L 400.86807 98.778887 
L 400.902155 99.717325 
L 400.969306 98.778887 
L 401.001028 98.778887 
L 401.034886 99.717325 
L 401.100241 98.778887 
L 401.619722 98.778887 
L 401.683076 99.717325 
L 401.715062 98.778887 
L 401.97402 98.778887 
L 402.005844 99.717325 
L 402.070203 98.778887 
L 402.462601 98.778887 
L 402.494214 99.717325 
L 402.557798 98.778887 
L 402.718467 98.778887 
L 402.750275 99.717325 
L 402.813611 98.778887 
L 402.913036 98.778887 
L 403.008755 99.717325 
L 403.040411 98.778887 
L 403.108011 99.717325 
L 403.141365 99.717325 
L 403.269644 98.778887 
L 403.301873 98.778887 
L 403.432192 99.717325 
L 403.464171 98.778887 
L 403.527436 99.717325 
L 403.821782 99.717325 
L 403.854479 98.778887 
L 403.918829 99.717325 
L 404.469557 99.717325 
L 404.597875 100.655762 
L 404.631271 100.655762 
L 404.76181 99.717325 
L 405.58678 99.717325 
L 405.6847 100.655762 
L 405.817734 99.717325 
L 405.850951 99.717325 
L 405.882619 100.655762 
L 405.946365 99.717325 
L 405.978239 99.717325 
L 406.009928 100.655762 
L 406.074362 99.717325 
L 406.175625 99.717325 
L 406.207359 100.655762 
L 406.273579 99.717325 
L 408.118487 99.717325 
L 408.216878 98.778887 
L 408.350589 99.717325 
L 408.639518 99.717325 
L 408.769963 98.778887 
L 408.869318 99.717325 
L 409.000671 98.778887 
L 409.033072 98.778887 
L 409.099002 99.717325 
L 409.131734 98.778887 
L 409.227643 98.778887 
L 409.259348 99.717325 
L 409.327403 98.778887 
L 409.821667 98.778887 
L 409.952966 96.902012 
L 410.432443 96.902012 
L 410.46546 95.963575 
L 410.531704 96.902012 
L 410.663079 96.902012 
L 410.792022 95.963575 
L 411.121253 95.963575 
L 411.258752 95.025137 
L 411.329718 95.025137 
L 411.362517 95.963575 
L 411.426903 95.025137 
L 411.684602 95.025137 
L 411.819182 94.0867 
L 412.119342 94.0867 
L 412.256244 93.148262 
L 412.419008 93.148262 
L 412.5564 92.209825 
L 413.02428 92.209825 
L 413.056153 91.271388 
L 413.12265 92.209825 
L 413.272385 92.209825 
L 413.378322 91.271388 
L 413.631769 91.271388 
L 413.704571 90.33295 
L 413.73748 91.271388 
L 413.864724 92.209825 
L 413.997214 91.271388 
L 414.093119 91.271388 
L 414.124787 90.33295 
L 414.194561 91.271388 
L 414.263885 90.33295 
L 414.332971 92.209825 
L 414.440455 92.209825 
L 414.472078 93.148262 
L 414.508844 92.209825 
L 414.65029 92.209825 
L 414.791939 91.271388 
L 414.861207 91.271388 
L 414.892907 90.33295 
L 414.924565 92.209825 
L 415.022425 93.148262 
L 415.056726 92.209825 
L 415.133353 93.148262 
L 415.165101 93.148262 
L 415.264549 92.209825 
L 415.394406 93.148262 
L 415.529132 92.209825 
L 415.627595 92.209825 
L 415.770087 93.148262 
L 415.933249 93.148262 
L 416.063615 92.209825 
L 416.194255 92.209825 
L 416.228755 93.148262 
L 416.262099 91.271388 
L 416.304436 92.209825 
L 416.338243 92.209825 
L 416.440313 93.148262 
L 416.637999 90.33295 
L 416.680161 90.33295 
L 416.745295 80.010138 
L 416.779591 81.887013 
L 416.91118 89.394513 
L 416.978084 89.394513 
L 417.140569 92.209825 
L 417.17352 91.271388 
L 417.239627 92.209825 
L 417.340984 92.209825 
L 417.471994 93.148262 
L 417.505347 93.148262 
L 417.637946 92.209825 
L 418.170737 92.209825 
L 418.203605 93.148262 
L 418.267794 92.209825 
L 418.463888 92.209825 
L 418.49906 93.148262 
L 418.566776 92.209825 
L 418.665642 90.33295 
L 418.699182 91.271388 
L 418.828997 92.209825 
L 418.96005 91.271388 
L 419.055978 91.271388 
L 419.187021 90.33295 
L 419.321629 90.33295 
L 419.396526 89.394513 
L 419.525915 91.271388 
L 419.559313 92.209825 
L 419.593261 91.271388 
L 419.736807 90.33295 
L 419.769683 90.33295 
L 419.836775 86.5792 
L 419.870448 87.517638 
L 419.989373 89.394513 
L 419.989373 89.394513 
" style="fill:none;stroke:#1f77b4;stroke-linecap:square;stroke-width:1.5;"/>
   </g>
   <g id="line2d_30">
    <path clip-path="url(#p45d434f1e5)" d="M 62.532827 165.407947 
L 65.511861 165.407947 
L 65.64365 128.808886 
L 68.90805 128.808886 
L 69.036537 139.131698 
L 71.191421 139.131698 
L 71.31954 156.962009 
L 72.433099 156.962009 
L 72.56095 175.730759 
L 73.305168 175.730759 
L 154.993713 44.349515 
L 159.331677 44.349515 
L 159.462168 63.118264 
L 161.292641 63.118264 
L 161.423327 80.948576 
L 163.08187 80.948576 
L 163.21047 128.808886 
L 165.683045 128.808886 
L 165.81268 156.962009 
L 166.749924 156.962009 
L 294.612016 54.672327 
L 295.871134 54.672327 
L 296.00163 91.271388 
L 297.652218 91.271388 
L 297.784874 128.808886 
L 301.379772 128.808886 
L 301.508958 147.577635 
L 305.053583 147.577635 
L 305.183111 156.962009 
L 307.364717 156.962009 
L 307.493544 165.407947 
L 308.809952 165.407947 
L 308.944028 184.176696 
L 310.466507 184.176696 
L 310.594096 194.499508 
L 311.587305 194.499508 
L 311.726072 177.607634 
L 312.413346 177.607634 
L 312.543462 184.176696 
L 314.053663 184.176696 
L 314.11915 175.730759 
L 318.681139 175.730759 
L 318.851064 177.607634 
L 319.825186 177.607634 
L 319.96832 175.730759 
L 321.507793 175.730759 
L 321.64029 165.407947 
L 325.211418 165.407947 
L 325.342217 156.962009 
L 327.258488 156.962009 
L 327.389049 147.577635 
L 328.392975 147.577635 
L 328.524606 143.823885 
L 328.879045 143.823885 
L 329.016324 139.131698 
L 332.639574 139.131698 
L 332.769543 128.808886 
L 338.535809 128.808886 
L 338.666909 143.823885 
L 340.315659 143.823885 
L 340.458847 147.577635 
L 341.623465 147.577635 
L 341.757577 143.823885 
L 341.954414 143.823885 
L 342.092778 147.577635 
L 346.761696 147.577635 
L 346.891895 143.823885 
L 347.411227 143.823885 
L 347.54163 147.577635 
L 349.213404 147.577635 
L 349.342266 156.962009 
L 350.194378 156.962009 
L 350.293114 177.607634 
L 351.139266 177.607634 
L 351.271239 184.176696 
L 351.608387 184.176696 
L 351.738333 194.499508 
L 359.13707 194.499508 
L 359.270769 177.607634 
L 360.775295 177.607634 
L 360.904213 194.499508 
L 362.250881 194.499508 
L 362.407315 175.730759 
L 364.016034 175.730759 
L 364.175293 165.407947 
L 364.84399 165.407947 
L 364.970998 160.715759 
L 365.803852 160.715759 
L 365.94213 156.962009 
L 368.288077 156.962009 
L 368.417488 147.577635 
L 369.564719 147.577635 
L 369.692338 139.131698 
L 371.337304 139.131698 
L 371.454988 147.577635 
L 373.107597 147.577635 
L 373.310357 128.808886 
L 377.109225 128.808886 
L 377.24879 120.362949 
L 382.413774 120.362949 
L 382.590748 128.808886 
L 384.057843 128.808886 
L 384.169641 165.407947 
L 386.345408 165.407947 
L 386.492061 184.176696 
L 388.158817 184.176696 
L 388.29501 213.268257 
L 390.313521 213.268257 
L 390.440715 228.283256 
L 392.762455 228.283256 
L 392.889357 245.17513 
L 395.839157 245.17513 
L 395.96966 228.283256 
L 397.627323 228.283256 
L 397.755937 232.037006 
L 399.868863 232.037006 
L 399.996612 228.283256 
L 400.673352 228.283256 
L 400.803489 232.037006 
L 403.756231 232.037006 
L 403.886189 241.421381 
L 409.163526 241.421381 
L 409.293592 228.283256 
L 411.024139 228.283256 
L 411.160695 211.391382 
L 413.087899 211.391382 
L 413.191128 160.715759 
L 413.928533 160.715759 
L 414.06129 147.577635 
L 415.693648 147.577635 
L 415.834925 91.271388 
L 417.439971 91.271388 
L 417.572268 54.672327 
L 419.559313 54.672327 
L 419.70281 35.903578 
L 419.989373 35.903578 
L 419.989373 35.903578 
" style="fill:none;stroke:#ff7f0e;stroke-linecap:square;stroke-width:1.5;"/>
   </g>
   <g id="patch_3">
    <path d="M 44.66 255.638708 
L 44.66 25.44 
" style="fill:none;stroke:#000000;stroke-linecap:square;stroke-linejoin:miter;stroke-width:0.8;"/>
   </g>
   <g id="patch_4">
    <path d="M 437.8622 255.638708 
L 437.8622 25.44 
" style="fill:none;stroke:#000000;stroke-linecap:square;stroke-linejoin:miter;stroke-width:0.8;"/>
   </g>
   <g id="patch_5">
    <path d="M 44.66 255.638708 
L 437.8622 255.638708 
" style="fill:none;stroke:#000000;stroke-linecap:square;stroke-linejoin:miter;stroke-width:0.8;"/>
   </g>
   <g id="patch_6">
    <path d="M 44.66 25.44 
L 437.8622 25.44 
" style="fill:none;stroke:#000000;stroke-linecap:square;stroke-linejoin:miter;stroke-width:0.8;"/>
   </g>
   <g id="text_17">
    <!-- Lake Shoecraft - Water and Air Temperature -->
    <g transform="translate(109.642663 19.44)scale(0.12 -0.12)">
     <defs>
      <path d="M 9.8125 72.90625 
L 19.671875 72.90625 
L 19.671875 8.296875 
L 55.171875 8.296875 
L 55.171875 0 
L 9.8125 0 
z
" id="DejaVuSans-76"/>
      <path d="M 9.078125 75.984375 
L 18.109375 75.984375 
L 18.109375 31.109375 
L 44.921875 54.6875 
L 56.390625 54.6875 
L 27.390625 29.109375 
L 57.625 0 
L 45.90625 0 
L 18.109375 26.703125 
L 18.109375 0 
L 9.078125 0 
z
" id="DejaVuSans-107"/>
      <path d="M 53.515625 70.515625 
L 53.515625 60.890625 
Q 47.90625 63.578125 42.921875 64.890625 
Q 37.9375 66.21875 33.296875 66.21875 
Q 25.25 66.21875 20.875 63.09375 
Q 16.5 59.96875 16.5 54.203125 
Q 16.5 49.359375 19.40625 46.890625 
Q 22.3125 44.4375 30.421875 42.921875 
L 36.375 41.703125 
Q 47.40625 39.59375 52.65625 34.296875 
Q 57.90625 29 57.90625 20.125 
Q 57.90625 9.515625 50.796875 4.046875 
Q 43.703125 -1.421875 29.984375 -1.421875 
Q 24.8125 -1.421875 18.96875 -0.25 
Q 13.140625 0.921875 6.890625 3.21875 
L 6.890625 13.375 
Q 12.890625 10.015625 18.65625 8.296875 
Q 24.421875 6.59375 29.984375 6.59375 
Q 38.421875 6.59375 43.015625 9.90625 
Q 47.609375 13.234375 47.609375 19.390625 
Q 47.609375 24.75 44.3125 27.78125 
Q 41.015625 30.8125 33.5 32.328125 
L 27.484375 33.5 
Q 16.453125 35.6875 11.515625 40.375 
Q 6.59375 45.0625 6.59375 53.421875 
Q 6.59375 63.09375 13.40625 68.65625 
Q 20.21875 74.21875 32.171875 74.21875 
Q 37.3125 74.21875 42.625 73.28125 
Q 47.953125 72.359375 53.515625 70.515625 
z
" id="DejaVuSans-83"/>
      <path d="M 54.890625 33.015625 
L 54.890625 0 
L 45.90625 0 
L 45.90625 32.71875 
Q 45.90625 40.484375 42.875 44.328125 
Q 39.84375 48.1875 33.796875 48.1875 
Q 26.515625 48.1875 22.3125 43.546875 
Q 18.109375 38.921875 18.109375 30.90625 
L 18.109375 0 
L 9.078125 0 
L 9.078125 75.984375 
L 18.109375 75.984375 
L 18.109375 46.1875 
Q 21.34375 51.125 25.703125 53.5625 
Q 30.078125 56 35.796875 56 
Q 45.21875 56 50.046875 50.171875 
Q 54.890625 44.34375 54.890625 33.015625 
z
" id="DejaVuSans-104"/>
      <path d="M 30.609375 48.390625 
Q 23.390625 48.390625 19.1875 42.75 
Q 14.984375 37.109375 14.984375 27.296875 
Q 14.984375 17.484375 19.15625 11.84375 
Q 23.34375 6.203125 30.609375 6.203125 
Q 37.796875 6.203125 41.984375 11.859375 
Q 46.1875 17.53125 46.1875 27.296875 
Q 46.1875 37.015625 41.984375 42.703125 
Q 37.796875 48.390625 30.609375 48.390625 
z
M 30.609375 56 
Q 42.328125 56 49.015625 48.375 
Q 55.71875 40.765625 55.71875 27.296875 
Q 55.71875 13.875 49.015625 6.21875 
Q 42.328125 -1.421875 30.609375 -1.421875 
Q 18.84375 -1.421875 12.171875 6.21875 
Q 5.515625 13.875 5.515625 27.296875 
Q 5.515625 40.765625 12.171875 48.375 
Q 18.84375 56 30.609375 56 
z
" id="DejaVuSans-111"/>
      <path d="M 48.78125 52.59375 
L 48.78125 44.1875 
Q 44.96875 46.296875 41.140625 47.34375 
Q 37.3125 48.390625 33.40625 48.390625 
Q 24.65625 48.390625 19.8125 42.84375 
Q 14.984375 37.3125 14.984375 27.296875 
Q 14.984375 17.28125 19.8125 11.734375 
Q 24.65625 6.203125 33.40625 6.203125 
Q 37.3125 6.203125 41.140625 7.25 
Q 44.96875 8.296875 48.78125 10.40625 
L 48.78125 2.09375 
Q 45.015625 0.34375 40.984375 -0.53125 
Q 36.96875 -1.421875 32.421875 -1.421875 
Q 20.0625 -1.421875 12.78125 6.34375 
Q 5.515625 14.109375 5.515625 27.296875 
Q 5.515625 40.671875 12.859375 48.328125 
Q 20.21875 56 33.015625 56 
Q 37.15625 56 41.109375 55.140625 
Q 45.0625 54.296875 48.78125 52.59375 
z
" id="DejaVuSans-99"/>
      <path d="M 37.109375 75.984375 
L 37.109375 68.5 
L 28.515625 68.5 
Q 23.6875 68.5 21.796875 66.546875 
Q 19.921875 64.59375 19.921875 59.515625 
L 19.921875 54.6875 
L 34.71875 54.6875 
L 34.71875 47.703125 
L 19.921875 47.703125 
L 19.921875 0 
L 10.890625 0 
L 10.890625 47.703125 
L 2.296875 47.703125 
L 2.296875 54.6875 
L 10.890625 54.6875 
L 10.890625 58.5 
Q 10.890625 67.625 15.140625 71.796875 
Q 19.390625 75.984375 28.609375 75.984375 
z
" id="DejaVuSans-102"/>
      <path d="M 3.328125 72.90625 
L 13.28125 72.90625 
L 28.609375 11.28125 
L 43.890625 72.90625 
L 54.984375 72.90625 
L 70.3125 11.28125 
L 85.59375 72.90625 
L 95.609375 72.90625 
L 77.296875 0 
L 64.890625 0 
L 49.515625 63.28125 
L 33.984375 0 
L 21.578125 0 
z
" id="DejaVuSans-87"/>
      <path d="M 54.890625 33.015625 
L 54.890625 0 
L 45.90625 0 
L 45.90625 32.71875 
Q 45.90625 40.484375 42.875 44.328125 
Q 39.84375 48.1875 33.796875 48.1875 
Q 26.515625 48.1875 22.3125 43.546875 
Q 18.109375 38.921875 18.109375 30.90625 
L 18.109375 0 
L 9.078125 0 
L 9.078125 54.6875 
L 18.109375 54.6875 
L 18.109375 46.1875 
Q 21.34375 51.125 25.703125 53.5625 
Q 30.078125 56 35.796875 56 
Q 45.21875 56 50.046875 50.171875 
Q 54.890625 44.34375 54.890625 33.015625 
z
" id="DejaVuSans-110"/>
      <path d="M 45.40625 46.390625 
L 45.40625 75.984375 
L 54.390625 75.984375 
L 54.390625 0 
L 45.40625 0 
L 45.40625 8.203125 
Q 42.578125 3.328125 38.25 0.953125 
Q 33.9375 -1.421875 27.875 -1.421875 
Q 17.96875 -1.421875 11.734375 6.484375 
Q 5.515625 14.40625 5.515625 27.296875 
Q 5.515625 40.1875 11.734375 48.09375 
Q 17.96875 56 27.875 56 
Q 33.9375 56 38.25 53.625 
Q 42.578125 51.265625 45.40625 46.390625 
z
M 14.796875 27.296875 
Q 14.796875 17.390625 18.875 11.75 
Q 22.953125 6.109375 30.078125 6.109375 
Q 37.203125 6.109375 41.296875 11.75 
Q 45.40625 17.390625 45.40625 27.296875 
Q 45.40625 37.203125 41.296875 42.84375 
Q 37.203125 48.484375 30.078125 48.484375 
Q 22.953125 48.484375 18.875 42.84375 
Q 14.796875 37.203125 14.796875 27.296875 
z
" id="DejaVuSans-100"/>
      <path d="M 34.1875 63.1875 
L 20.796875 26.90625 
L 47.609375 26.90625 
z
M 28.609375 72.90625 
L 39.796875 72.90625 
L 67.578125 0 
L 57.328125 0 
L 50.6875 18.703125 
L 17.828125 18.703125 
L 11.1875 0 
L 0.78125 0 
z
" id="DejaVuSans-65"/>
      <path d="M 9.421875 54.6875 
L 18.40625 54.6875 
L 18.40625 0 
L 9.421875 0 
z
M 9.421875 75.984375 
L 18.40625 75.984375 
L 18.40625 64.59375 
L 9.421875 64.59375 
z
" id="DejaVuSans-105"/>
     </defs>
     <use xlink:href="#DejaVuSans-76"/>
     <use x="55.712891" xlink:href="#DejaVuSans-97"/>
     <use x="116.992188" xlink:href="#DejaVuSans-107"/>
     <use x="171.277344" xlink:href="#DejaVuSans-101"/>
     <use x="232.800781" xlink:href="#DejaVuSans-32"/>
     <use x="264.587891" xlink:href="#DejaVuSans-83"/>
     <use x="328.064453" xlink:href="#DejaVuSans-104"/>
     <use x="391.443359" xlink:href="#DejaVuSans-111"/>
     <use x="452.625" xlink:href="#DejaVuSans-101"/>
     <use x="514.148438" xlink:href="#DejaVuSans-99"/>
     <use x="569.128906" xlink:href="#DejaVuSans-114"/>
     <use x="610.242188" xlink:href="#DejaVuSans-97"/>
     <use x="671.521484" xlink:href="#DejaVuSans-102"/>
     <use x="704.976562" xlink:href="#DejaVuSans-116"/>
     <use x="744.185547" xlink:href="#DejaVuSans-32"/>
     <use x="775.972656" xlink:href="#DejaVuSans-45"/>
     <use x="812.056641" xlink:href="#DejaVuSans-32"/>
     <use x="843.84375" xlink:href="#DejaVuSans-87"/>
     <use x="936.345703" xlink:href="#DejaVuSans-97"/>
     <use x="997.625" xlink:href="#DejaVuSans-116"/>
     <use x="1036.833984" xlink:href="#DejaVuSans-101"/>
     <use x="1098.357422" xlink:href="#DejaVuSans-114"/>
     <use x="1139.470703" xlink:href="#DejaVuSans-32"/>
     <use x="1171.257812" xlink:href="#DejaVuSans-97"/>
     <use x="1232.537109" xlink:href="#DejaVuSans-110"/>
     <use x="1295.916016" xlink:href="#DejaVuSans-100"/>
     <use x="1359.392578" xlink:href="#DejaVuSans-32"/>
     <use x="1391.179688" xlink:href="#DejaVuSans-65"/>
     <use x="1459.587891" xlink:href="#DejaVuSans-105"/>
     <use x="1487.371094" xlink:href="#DejaVuSans-114"/>
     <use x="1528.484375" xlink:href="#DejaVuSans-32"/>
     <use x="1560.271484" xlink:href="#DejaVuSans-84"/>
     <use x="1604.355469" xlink:href="#DejaVuSans-101"/>
     <use x="1665.878906" xlink:href="#DejaVuSans-109"/>
     <use x="1763.291016" xlink:href="#DejaVuSans-112"/>
     <use x="1826.767578" xlink:href="#DejaVuSans-101"/>
     <use x="1888.291016" xlink:href="#DejaVuSans-114"/>
     <use x="1929.404297" xlink:href="#DejaVuSans-97"/>
     <use x="1990.683594" xlink:href="#DejaVuSans-116"/>
     <use x="2029.892578" xlink:href="#DejaVuSans-117"/>
     <use x="2093.271484" xlink:href="#DejaVuSans-114"/>
     <use x="2132.134766" xlink:href="#DejaVuSans-101"/>
    </g>
   </g>
   <g id="legend_1">
    <g id="patch_7">
     <path d="M 51.66 62.79625 
L 136.769375 62.79625 
Q 138.769375 62.79625 138.769375 60.79625 
L 138.769375 32.44 
Q 138.769375 30.44 136.769375 30.44 
L 51.66 30.44 
Q 49.66 30.44 49.66 32.44 
L 49.66 60.79625 
Q 49.66 62.79625 51.66 62.79625 
z
" style="fill:#ffffff;opacity:0.8;stroke:#cccccc;stroke-linejoin:miter;"/>
    </g>
    <g id="line2d_31">
     <path d="M 53.66 38.538437 
L 73.66 38.538437 
" style="fill:none;stroke:#1f77b4;stroke-linecap:square;stroke-width:1.5;"/>
    </g>
    <g id="line2d_32"/>
    <g id="text_18">
     <!-- Lake Temp -->
     <g transform="translate(81.66 42.038437)scale(0.1 -0.1)">
      <use xlink:href="#DejaVuSans-76"/>
      <use x="55.712891" xlink:href="#DejaVuSans-97"/>
      <use x="116.992188" xlink:href="#DejaVuSans-107"/>
      <use x="171.277344" xlink:href="#DejaVuSans-101"/>
      <use x="232.800781" xlink:href="#DejaVuSans-32"/>
      <use x="264.587891" xlink:href="#DejaVuSans-84"/>
      <use x="308.671875" xlink:href="#DejaVuSans-101"/>
      <use x="370.195312" xlink:href="#DejaVuSans-109"/>
      <use x="467.607422" xlink:href="#DejaVuSans-112"/>
     </g>
    </g>
    <g id="line2d_33">
     <path d="M 53.66 53.216562 
L 73.66 53.216562 
" style="fill:none;stroke:#ff7f0e;stroke-linecap:square;stroke-width:1.5;"/>
    </g>
    <g id="line2d_34"/>
    <g id="text_19">
     <!-- Air Temp -->
     <g transform="translate(81.66 56.716562)scale(0.1 -0.1)">
      <use xlink:href="#DejaVuSans-65"/>
      <use x="68.408203" xlink:href="#DejaVuSans-105"/>
      <use x="96.191406" xlink:href="#DejaVuSans-114"/>
      <use x="137.304688" xlink:href="#DejaVuSans-32"/>
      <use x="169.091797" xlink:href="#DejaVuSans-84"/>
      <use x="213.175781" xlink:href="#DejaVuSans-101"/>
      <use x="274.699219" xlink:href="#DejaVuSans-109"/>
      <use x="372.111328" xlink:href="#DejaVuSans-112"/>
     </g>
    </g>
   </g>
  </g>
 </g>
 <defs>
  <clipPath id="p45d434f1e5">
   <rect height="230.198708" width="393.2022" x="44.66" y="25.44"/>
  </clipPath>
 </defs>
</svg>
