<?xml version="1.0" encoding="utf-8" standalone="no"?>
<!DOCTYPE svg PUBLIC "-//W3C//DTD SVG 1.1//EN"
  "http://www.w3.org/Graphics/SVG/1.1/DTD/svg11.dtd">
<!-- Created with matplotlib (https://matplotlib.org/) -->
<svg height="345.6pt" version="1.1" viewBox="0 0 460.8 345.6" width="460.8pt" xmlns="http://www.w3.org/2000/svg" xmlns:xlink="http://www.w3.org/1999/xlink">
 <metadata>
  <rdf:RDF xmlns:cc="http://creativecommons.org/ns#" xmlns:dc="http://purl.org/dc/elements/1.1/" xmlns:rdf="http://www.w3.org/1999/02/22-rdf-syntax-ns#">
   <cc:Work>
    <dc:type rdf:resource="http://purl.org/dc/dcmitype/StillImage"/>
    <dc:date>2024-09-05T22:57:30.595063</dc:date>
    <dc:format>image/svg+xml</dc:format>
    <dc:creator>
     <cc:Agent>
      <dc:title>Matplotlib v3.3.2, https://matplotlib.org/</dc:title>
     </cc:Agent>
    </dc:creator>
   </cc:Work>
  </rdf:RDF>
 </metadata>
 <defs>
  <style type="text/css">*{stroke-linecap:butt;stroke-linejoin:round;}</style>
 </defs>
 <g id="figure_1">
  <g id="patch_1">
   <path d="M 0 345.6 
L 460.8 345.6 
L 460.8 0 
L 0 0 
z
" style="fill:none;"/>
  </g>
  <g id="axes_1">
   <g id="patch_2">
    <path d="M 44.66 255.638708 
L 450 255.638708 
L 450 25.44 
L 44.66 25.44 
z
" style="fill:none;"/>
   </g>
   <g id="matplotlib.axis_1">
    <g id="xtick_1">
     <g id="line2d_1">
      <path clip-path="url(#peab30dab2f)" d="M 79.706143 255.638708 
L 79.706143 25.44 
" style="fill:none;stroke:#b0b0b0;stroke-linecap:square;stroke-width:0.8;"/>
     </g>
     <g id="line2d_2">
      <defs>
       <path d="M 0 0 
L 0 3.5 
" id="ma34b411e40" style="stroke:#000000;stroke-width:0.8;"/>
      </defs>
      <g>
       <use style="stroke:#000000;stroke-width:0.8;" x="79.706143" xlink:href="#ma34b411e40" y="255.638708"/>
      </g>
     </g>
     <g id="text_1">
      <!-- 2024-08-28 -->
      <g transform="translate(72.36075 319.848351)rotate(-70)scale(0.1 -0.1)">
       <defs>
        <path d="M 19.1875 8.296875 
L 53.609375 8.296875 
L 53.609375 0 
L 7.328125 0 
L 7.328125 8.296875 
Q 12.9375 14.109375 22.625 23.890625 
Q 32.328125 33.6875 34.8125 36.53125 
Q 39.546875 41.84375 41.421875 45.53125 
Q 43.3125 49.21875 43.3125 52.78125 
Q 43.3125 58.59375 39.234375 62.25 
Q 35.15625 65.921875 28.609375 65.921875 
Q 23.96875 65.921875 18.8125 64.3125 
Q 13.671875 62.703125 7.8125 59.421875 
L 7.8125 69.390625 
Q 13.765625 71.78125 18.9375 73 
Q 24.125 74.21875 28.421875 74.21875 
Q 39.75 74.21875 46.484375 68.546875 
Q 53.21875 62.890625 53.21875 53.421875 
Q 53.21875 48.921875 51.53125 44.890625 
Q 49.859375 40.875 45.40625 35.40625 
Q 44.1875 33.984375 37.640625 27.21875 
Q 31.109375 20.453125 19.1875 8.296875 
z
" id="DejaVuSans-50"/>
        <path d="M 31.78125 66.40625 
Q 24.171875 66.40625 20.328125 58.90625 
Q 16.5 51.421875 16.5 36.375 
Q 16.5 21.390625 20.328125 13.890625 
Q 24.171875 6.390625 31.78125 6.390625 
Q 39.453125 6.390625 43.28125 13.890625 
Q 47.125 21.390625 47.125 36.375 
Q 47.125 51.421875 43.28125 58.90625 
Q 39.453125 66.40625 31.78125 66.40625 
z
M 31.78125 74.21875 
Q 44.046875 74.21875 50.515625 64.515625 
Q 56.984375 54.828125 56.984375 36.375 
Q 56.984375 17.96875 50.515625 8.265625 
Q 44.046875 -1.421875 31.78125 -1.421875 
Q 19.53125 -1.421875 13.0625 8.265625 
Q 6.59375 17.96875 6.59375 36.375 
Q 6.59375 54.828125 13.0625 64.515625 
Q 19.53125 74.21875 31.78125 74.21875 
z
" id="DejaVuSans-48"/>
        <path d="M 37.796875 64.3125 
L 12.890625 25.390625 
L 37.796875 25.390625 
z
M 35.203125 72.90625 
L 47.609375 72.90625 
L 47.609375 25.390625 
L 58.015625 25.390625 
L 58.015625 17.1875 
L 47.609375 17.1875 
L 47.609375 0 
L 37.796875 0 
L 37.796875 17.1875 
L 4.890625 17.1875 
L 4.890625 26.703125 
z
" id="DejaVuSans-52"/>
        <path d="M 4.890625 31.390625 
L 31.203125 31.390625 
L 31.203125 23.390625 
L 4.890625 23.390625 
z
" id="DejaVuSans-45"/>
        <path d="M 31.78125 34.625 
Q 24.75 34.625 20.71875 30.859375 
Q 16.703125 27.09375 16.703125 20.515625 
Q 16.703125 13.921875 20.71875 10.15625 
Q 24.75 6.390625 31.78125 6.390625 
Q 38.8125 6.390625 42.859375 10.171875 
Q 46.921875 13.96875 46.921875 20.515625 
Q 46.921875 27.09375 42.890625 30.859375 
Q 38.875 34.625 31.78125 34.625 
z
M 21.921875 38.8125 
Q 15.578125 40.375 12.03125 44.71875 
Q 8.5 49.078125 8.5 55.328125 
Q 8.5 64.0625 14.71875 69.140625 
Q 20.953125 74.21875 31.78125 74.21875 
Q 42.671875 74.21875 48.875 69.140625 
Q 55.078125 64.0625 55.078125 55.328125 
Q 55.078125 49.078125 51.53125 44.71875 
Q 48 40.375 41.703125 38.8125 
Q 48.828125 37.15625 52.796875 32.3125 
Q 56.78125 27.484375 56.78125 20.515625 
Q 56.78125 9.90625 50.3125 4.234375 
Q 43.84375 -1.421875 31.78125 -1.421875 
Q 19.734375 -1.421875 13.25 4.234375 
Q 6.78125 9.90625 6.78125 20.515625 
Q 6.78125 27.484375 10.78125 32.3125 
Q 14.796875 37.15625 21.921875 38.8125 
z
M 18.3125 54.390625 
Q 18.3125 48.734375 21.84375 45.5625 
Q 25.390625 42.390625 31.78125 42.390625 
Q 38.140625 42.390625 41.71875 45.5625 
Q 45.3125 48.734375 45.3125 54.390625 
Q 45.3125 60.0625 41.71875 63.234375 
Q 38.140625 66.40625 31.78125 66.40625 
Q 25.390625 66.40625 21.84375 63.234375 
Q 18.3125 60.0625 18.3125 54.390625 
z
" id="DejaVuSans-56"/>
       </defs>
       <use xlink:href="#DejaVuSans-50"/>
       <use x="63.623047" xlink:href="#DejaVuSans-48"/>
       <use x="127.246094" xlink:href="#DejaVuSans-50"/>
       <use x="190.869141" xlink:href="#DejaVuSans-52"/>
       <use x="254.492188" xlink:href="#DejaVuSans-45"/>
       <use x="290.576172" xlink:href="#DejaVuSans-48"/>
       <use x="354.199219" xlink:href="#DejaVuSans-56"/>
       <use x="417.822266" xlink:href="#DejaVuSans-45"/>
       <use x="453.90625" xlink:href="#DejaVuSans-50"/>
       <use x="517.529297" xlink:href="#DejaVuSans-56"/>
      </g>
     </g>
    </g>
    <g id="xtick_2">
     <g id="line2d_3">
      <path clip-path="url(#peab30dab2f)" d="M 118.994112 255.638708 
L 118.994112 25.44 
" style="fill:none;stroke:#b0b0b0;stroke-linecap:square;stroke-width:0.8;"/>
     </g>
     <g id="line2d_4">
      <g>
       <use style="stroke:#000000;stroke-width:0.8;" x="118.994112" xlink:href="#ma34b411e40" y="255.638708"/>
      </g>
     </g>
     <g id="text_2">
      <!-- 2024-08-29 -->
      <g transform="translate(111.648719 319.848351)rotate(-70)scale(0.1 -0.1)">
       <defs>
        <path d="M 10.984375 1.515625 
L 10.984375 10.5 
Q 14.703125 8.734375 18.5 7.8125 
Q 22.3125 6.890625 25.984375 6.890625 
Q 35.75 6.890625 40.890625 13.453125 
Q 46.046875 20.015625 46.78125 33.40625 
Q 43.953125 29.203125 39.59375 26.953125 
Q 35.25 24.703125 29.984375 24.703125 
Q 19.046875 24.703125 12.671875 31.3125 
Q 6.296875 37.9375 6.296875 49.421875 
Q 6.296875 60.640625 12.9375 67.421875 
Q 19.578125 74.21875 30.609375 74.21875 
Q 43.265625 74.21875 49.921875 64.515625 
Q 56.59375 54.828125 56.59375 36.375 
Q 56.59375 19.140625 48.40625 8.859375 
Q 40.234375 -1.421875 26.421875 -1.421875 
Q 22.703125 -1.421875 18.890625 -0.6875 
Q 15.09375 0.046875 10.984375 1.515625 
z
M 30.609375 32.421875 
Q 37.25 32.421875 41.125 36.953125 
Q 45.015625 41.5 45.015625 49.421875 
Q 45.015625 57.28125 41.125 61.84375 
Q 37.25 66.40625 30.609375 66.40625 
Q 23.96875 66.40625 20.09375 61.84375 
Q 16.21875 57.28125 16.21875 49.421875 
Q 16.21875 41.5 20.09375 36.953125 
Q 23.96875 32.421875 30.609375 32.421875 
z
" id="DejaVuSans-57"/>
       </defs>
       <use xlink:href="#DejaVuSans-50"/>
       <use x="63.623047" xlink:href="#DejaVuSans-48"/>
       <use x="127.246094" xlink:href="#DejaVuSans-50"/>
       <use x="190.869141" xlink:href="#DejaVuSans-52"/>
       <use x="254.492188" xlink:href="#DejaVuSans-45"/>
       <use x="290.576172" xlink:href="#DejaVuSans-48"/>
       <use x="354.199219" xlink:href="#DejaVuSans-56"/>
       <use x="417.822266" xlink:href="#DejaVuSans-45"/>
       <use x="453.90625" xlink:href="#DejaVuSans-50"/>
       <use x="517.529297" xlink:href="#DejaVuSans-57"/>
      </g>
     </g>
    </g>
    <g id="xtick_3">
     <g id="line2d_5">
      <path clip-path="url(#peab30dab2f)" d="M 158.28208 255.638708 
L 158.28208 25.44 
" style="fill:none;stroke:#b0b0b0;stroke-linecap:square;stroke-width:0.8;"/>
     </g>
     <g id="line2d_6">
      <g>
       <use style="stroke:#000000;stroke-width:0.8;" x="158.28208" xlink:href="#ma34b411e40" y="255.638708"/>
      </g>
     </g>
     <g id="text_3">
      <!-- 2024-08-30 -->
      <g transform="translate(150.936687 319.848351)rotate(-70)scale(0.1 -0.1)">
       <defs>
        <path d="M 40.578125 39.3125 
Q 47.65625 37.796875 51.625 33 
Q 55.609375 28.21875 55.609375 21.1875 
Q 55.609375 10.40625 48.1875 4.484375 
Q 40.765625 -1.421875 27.09375 -1.421875 
Q 22.515625 -1.421875 17.65625 -0.515625 
Q 12.796875 0.390625 7.625 2.203125 
L 7.625 11.71875 
Q 11.71875 9.328125 16.59375 8.109375 
Q 21.484375 6.890625 26.8125 6.890625 
Q 36.078125 6.890625 40.9375 10.546875 
Q 45.796875 14.203125 45.796875 21.1875 
Q 45.796875 27.640625 41.28125 31.265625 
Q 36.765625 34.90625 28.71875 34.90625 
L 20.21875 34.90625 
L 20.21875 43.015625 
L 29.109375 43.015625 
Q 36.375 43.015625 40.234375 45.921875 
Q 44.09375 48.828125 44.09375 54.296875 
Q 44.09375 59.90625 40.109375 62.90625 
Q 36.140625 65.921875 28.71875 65.921875 
Q 24.65625 65.921875 20.015625 65.03125 
Q 15.375 64.15625 9.8125 62.3125 
L 9.8125 71.09375 
Q 15.4375 72.65625 20.34375 73.4375 
Q 25.25 74.21875 29.59375 74.21875 
Q 40.828125 74.21875 47.359375 69.109375 
Q 53.90625 64.015625 53.90625 55.328125 
Q 53.90625 49.265625 50.4375 45.09375 
Q 46.96875 40.921875 40.578125 39.3125 
z
" id="DejaVuSans-51"/>
       </defs>
       <use xlink:href="#DejaVuSans-50"/>
       <use x="63.623047" xlink:href="#DejaVuSans-48"/>
       <use x="127.246094" xlink:href="#DejaVuSans-50"/>
       <use x="190.869141" xlink:href="#DejaVuSans-52"/>
       <use x="254.492188" xlink:href="#DejaVuSans-45"/>
       <use x="290.576172" xlink:href="#DejaVuSans-48"/>
       <use x="354.199219" xlink:href="#DejaVuSans-56"/>
       <use x="417.822266" xlink:href="#DejaVuSans-45"/>
       <use x="453.90625" xlink:href="#DejaVuSans-51"/>
       <use x="517.529297" xlink:href="#DejaVuSans-48"/>
      </g>
     </g>
    </g>
    <g id="xtick_4">
     <g id="line2d_7">
      <path clip-path="url(#peab30dab2f)" d="M 197.570049 255.638708 
L 197.570049 25.44 
" style="fill:none;stroke:#b0b0b0;stroke-linecap:square;stroke-width:0.8;"/>
     </g>
     <g id="line2d_8">
      <g>
       <use style="stroke:#000000;stroke-width:0.8;" x="197.570049" xlink:href="#ma34b411e40" y="255.638708"/>
      </g>
     </g>
     <g id="text_4">
      <!-- 2024-08-31 -->
      <g transform="translate(190.224656 319.848351)rotate(-70)scale(0.1 -0.1)">
       <defs>
        <path d="M 12.40625 8.296875 
L 28.515625 8.296875 
L 28.515625 63.921875 
L 10.984375 60.40625 
L 10.984375 69.390625 
L 28.421875 72.90625 
L 38.28125 72.90625 
L 38.28125 8.296875 
L 54.390625 8.296875 
L 54.390625 0 
L 12.40625 0 
z
" id="DejaVuSans-49"/>
       </defs>
       <use xlink:href="#DejaVuSans-50"/>
       <use x="63.623047" xlink:href="#DejaVuSans-48"/>
       <use x="127.246094" xlink:href="#DejaVuSans-50"/>
       <use x="190.869141" xlink:href="#DejaVuSans-52"/>
       <use x="254.492188" xlink:href="#DejaVuSans-45"/>
       <use x="290.576172" xlink:href="#DejaVuSans-48"/>
       <use x="354.199219" xlink:href="#DejaVuSans-56"/>
       <use x="417.822266" xlink:href="#DejaVuSans-45"/>
       <use x="453.90625" xlink:href="#DejaVuSans-51"/>
       <use x="517.529297" xlink:href="#DejaVuSans-49"/>
      </g>
     </g>
    </g>
    <g id="xtick_5">
     <g id="line2d_9">
      <path clip-path="url(#peab30dab2f)" d="M 236.858018 255.638708 
L 236.858018 25.44 
" style="fill:none;stroke:#b0b0b0;stroke-linecap:square;stroke-width:0.8;"/>
     </g>
     <g id="line2d_10">
      <g>
       <use style="stroke:#000000;stroke-width:0.8;" x="236.858018" xlink:href="#ma34b411e40" y="255.638708"/>
      </g>
     </g>
     <g id="text_5">
      <!-- 2024-09-01 -->
      <g transform="translate(229.512625 319.848351)rotate(-70)scale(0.1 -0.1)">
       <use xlink:href="#DejaVuSans-50"/>
       <use x="63.623047" xlink:href="#DejaVuSans-48"/>
       <use x="127.246094" xlink:href="#DejaVuSans-50"/>
       <use x="190.869141" xlink:href="#DejaVuSans-52"/>
       <use x="254.492188" xlink:href="#DejaVuSans-45"/>
       <use x="290.576172" xlink:href="#DejaVuSans-48"/>
       <use x="354.199219" xlink:href="#DejaVuSans-57"/>
       <use x="417.822266" xlink:href="#DejaVuSans-45"/>
       <use x="453.90625" xlink:href="#DejaVuSans-48"/>
       <use x="517.529297" xlink:href="#DejaVuSans-49"/>
      </g>
     </g>
    </g>
    <g id="xtick_6">
     <g id="line2d_11">
      <path clip-path="url(#peab30dab2f)" d="M 276.145986 255.638708 
L 276.145986 25.44 
" style="fill:none;stroke:#b0b0b0;stroke-linecap:square;stroke-width:0.8;"/>
     </g>
     <g id="line2d_12">
      <g>
       <use style="stroke:#000000;stroke-width:0.8;" x="276.145986" xlink:href="#ma34b411e40" y="255.638708"/>
      </g>
     </g>
     <g id="text_6">
      <!-- 2024-09-02 -->
      <g transform="translate(268.800593 319.848351)rotate(-70)scale(0.1 -0.1)">
       <use xlink:href="#DejaVuSans-50"/>
       <use x="63.623047" xlink:href="#DejaVuSans-48"/>
       <use x="127.246094" xlink:href="#DejaVuSans-50"/>
       <use x="190.869141" xlink:href="#DejaVuSans-52"/>
       <use x="254.492188" xlink:href="#DejaVuSans-45"/>
       <use x="290.576172" xlink:href="#DejaVuSans-48"/>
       <use x="354.199219" xlink:href="#DejaVuSans-57"/>
       <use x="417.822266" xlink:href="#DejaVuSans-45"/>
       <use x="453.90625" xlink:href="#DejaVuSans-48"/>
       <use x="517.529297" xlink:href="#DejaVuSans-50"/>
      </g>
     </g>
    </g>
    <g id="xtick_7">
     <g id="line2d_13">
      <path clip-path="url(#peab30dab2f)" d="M 315.433955 255.638708 
L 315.433955 25.44 
" style="fill:none;stroke:#b0b0b0;stroke-linecap:square;stroke-width:0.8;"/>
     </g>
     <g id="line2d_14">
      <g>
       <use style="stroke:#000000;stroke-width:0.8;" x="315.433955" xlink:href="#ma34b411e40" y="255.638708"/>
      </g>
     </g>
     <g id="text_7">
      <!-- 2024-09-03 -->
      <g transform="translate(308.088562 319.848351)rotate(-70)scale(0.1 -0.1)">
       <use xlink:href="#DejaVuSans-50"/>
       <use x="63.623047" xlink:href="#DejaVuSans-48"/>
       <use x="127.246094" xlink:href="#DejaVuSans-50"/>
       <use x="190.869141" xlink:href="#DejaVuSans-52"/>
       <use x="254.492188" xlink:href="#DejaVuSans-45"/>
       <use x="290.576172" xlink:href="#DejaVuSans-48"/>
       <use x="354.199219" xlink:href="#DejaVuSans-57"/>
       <use x="417.822266" xlink:href="#DejaVuSans-45"/>
       <use x="453.90625" xlink:href="#DejaVuSans-48"/>
       <use x="517.529297" xlink:href="#DejaVuSans-51"/>
      </g>
     </g>
    </g>
    <g id="xtick_8">
     <g id="line2d_15">
      <path clip-path="url(#peab30dab2f)" d="M 354.721923 255.638708 
L 354.721923 25.44 
" style="fill:none;stroke:#b0b0b0;stroke-linecap:square;stroke-width:0.8;"/>
     </g>
     <g id="line2d_16">
      <g>
       <use style="stroke:#000000;stroke-width:0.8;" x="354.721923" xlink:href="#ma34b411e40" y="255.638708"/>
      </g>
     </g>
     <g id="text_8">
      <!-- 2024-09-04 -->
      <g transform="translate(347.376531 319.848351)rotate(-70)scale(0.1 -0.1)">
       <use xlink:href="#DejaVuSans-50"/>
       <use x="63.623047" xlink:href="#DejaVuSans-48"/>
       <use x="127.246094" xlink:href="#DejaVuSans-50"/>
       <use x="190.869141" xlink:href="#DejaVuSans-52"/>
       <use x="254.492188" xlink:href="#DejaVuSans-45"/>
       <use x="290.576172" xlink:href="#DejaVuSans-48"/>
       <use x="354.199219" xlink:href="#DejaVuSans-57"/>
       <use x="417.822266" xlink:href="#DejaVuSans-45"/>
       <use x="453.90625" xlink:href="#DejaVuSans-48"/>
       <use x="517.529297" xlink:href="#DejaVuSans-52"/>
      </g>
     </g>
    </g>
    <g id="xtick_9">
     <g id="line2d_17">
      <path clip-path="url(#peab30dab2f)" d="M 394.009892 255.638708 
L 394.009892 25.44 
" style="fill:none;stroke:#b0b0b0;stroke-linecap:square;stroke-width:0.8;"/>
     </g>
     <g id="line2d_18">
      <g>
       <use style="stroke:#000000;stroke-width:0.8;" x="394.009892" xlink:href="#ma34b411e40" y="255.638708"/>
      </g>
     </g>
     <g id="text_9">
      <!-- 2024-09-05 -->
      <g transform="translate(386.664499 319.848351)rotate(-70)scale(0.1 -0.1)">
       <defs>
        <path d="M 10.796875 72.90625 
L 49.515625 72.90625 
L 49.515625 64.59375 
L 19.828125 64.59375 
L 19.828125 46.734375 
Q 21.96875 47.46875 24.109375 47.828125 
Q 26.265625 48.1875 28.421875 48.1875 
Q 40.625 48.1875 47.75 41.5 
Q 54.890625 34.8125 54.890625 23.390625 
Q 54.890625 11.625 47.5625 5.09375 
Q 40.234375 -1.421875 26.90625 -1.421875 
Q 22.3125 -1.421875 17.546875 -0.640625 
Q 12.796875 0.140625 7.71875 1.703125 
L 7.71875 11.625 
Q 12.109375 9.234375 16.796875 8.0625 
Q 21.484375 6.890625 26.703125 6.890625 
Q 35.15625 6.890625 40.078125 11.328125 
Q 45.015625 15.765625 45.015625 23.390625 
Q 45.015625 31 40.078125 35.4375 
Q 35.15625 39.890625 26.703125 39.890625 
Q 22.75 39.890625 18.8125 39.015625 
Q 14.890625 38.140625 10.796875 36.28125 
z
" id="DejaVuSans-53"/>
       </defs>
       <use xlink:href="#DejaVuSans-50"/>
       <use x="63.623047" xlink:href="#DejaVuSans-48"/>
       <use x="127.246094" xlink:href="#DejaVuSans-50"/>
       <use x="190.869141" xlink:href="#DejaVuSans-52"/>
       <use x="254.492188" xlink:href="#DejaVuSans-45"/>
       <use x="290.576172" xlink:href="#DejaVuSans-48"/>
       <use x="354.199219" xlink:href="#DejaVuSans-57"/>
       <use x="417.822266" xlink:href="#DejaVuSans-45"/>
       <use x="453.90625" xlink:href="#DejaVuSans-48"/>
       <use x="517.529297" xlink:href="#DejaVuSans-53"/>
      </g>
     </g>
    </g>
    <g id="xtick_10">
     <g id="line2d_19">
      <path clip-path="url(#peab30dab2f)" d="M 433.297861 255.638708 
L 433.297861 25.44 
" style="fill:none;stroke:#b0b0b0;stroke-linecap:square;stroke-width:0.8;"/>
     </g>
     <g id="line2d_20">
      <g>
       <use style="stroke:#000000;stroke-width:0.8;" x="433.297861" xlink:href="#ma34b411e40" y="255.638708"/>
      </g>
     </g>
     <g id="text_10">
      <!-- 2024-09-06 -->
      <g transform="translate(425.952468 319.848351)rotate(-70)scale(0.1 -0.1)">
       <defs>
        <path d="M 33.015625 40.375 
Q 26.375 40.375 22.484375 35.828125 
Q 18.609375 31.296875 18.609375 23.390625 
Q 18.609375 15.53125 22.484375 10.953125 
Q 26.375 6.390625 33.015625 6.390625 
Q 39.65625 6.390625 43.53125 10.953125 
Q 47.40625 15.53125 47.40625 23.390625 
Q 47.40625 31.296875 43.53125 35.828125 
Q 39.65625 40.375 33.015625 40.375 
z
M 52.59375 71.296875 
L 52.59375 62.3125 
Q 48.875 64.0625 45.09375 64.984375 
Q 41.3125 65.921875 37.59375 65.921875 
Q 27.828125 65.921875 22.671875 59.328125 
Q 17.53125 52.734375 16.796875 39.40625 
Q 19.671875 43.65625 24.015625 45.921875 
Q 28.375 48.1875 33.59375 48.1875 
Q 44.578125 48.1875 50.953125 41.515625 
Q 57.328125 34.859375 57.328125 23.390625 
Q 57.328125 12.15625 50.6875 5.359375 
Q 44.046875 -1.421875 33.015625 -1.421875 
Q 20.359375 -1.421875 13.671875 8.265625 
Q 6.984375 17.96875 6.984375 36.375 
Q 6.984375 53.65625 15.1875 63.9375 
Q 23.390625 74.21875 37.203125 74.21875 
Q 40.921875 74.21875 44.703125 73.484375 
Q 48.484375 72.75 52.59375 71.296875 
z
" id="DejaVuSans-54"/>
       </defs>
       <use xlink:href="#DejaVuSans-50"/>
       <use x="63.623047" xlink:href="#DejaVuSans-48"/>
       <use x="127.246094" xlink:href="#DejaVuSans-50"/>
       <use x="190.869141" xlink:href="#DejaVuSans-52"/>
       <use x="254.492188" xlink:href="#DejaVuSans-45"/>
       <use x="290.576172" xlink:href="#DejaVuSans-48"/>
       <use x="354.199219" xlink:href="#DejaVuSans-57"/>
       <use x="417.822266" xlink:href="#DejaVuSans-45"/>
       <use x="453.90625" xlink:href="#DejaVuSans-48"/>
       <use x="517.529297" xlink:href="#DejaVuSans-54"/>
      </g>
     </g>
    </g>
    <g id="text_11">
     <!-- Date -->
     <g transform="translate(235.379219 332.158083)scale(0.1 -0.1)">
      <defs>
       <path d="M 19.671875 64.796875 
L 19.671875 8.109375 
L 31.59375 8.109375 
Q 46.6875 8.109375 53.6875 14.9375 
Q 60.6875 21.78125 60.6875 36.53125 
Q 60.6875 51.171875 53.6875 57.984375 
Q 46.6875 64.796875 31.59375 64.796875 
z
M 9.8125 72.90625 
L 30.078125 72.90625 
Q 51.265625 72.90625 61.171875 64.09375 
Q 71.09375 55.28125 71.09375 36.53125 
Q 71.09375 17.671875 61.125 8.828125 
Q 51.171875 0 30.078125 0 
L 9.8125 0 
z
" id="DejaVuSans-68"/>
       <path d="M 34.28125 27.484375 
Q 23.390625 27.484375 19.1875 25 
Q 14.984375 22.515625 14.984375 16.5 
Q 14.984375 11.71875 18.140625 8.90625 
Q 21.296875 6.109375 26.703125 6.109375 
Q 34.1875 6.109375 38.703125 11.40625 
Q 43.21875 16.703125 43.21875 25.484375 
L 43.21875 27.484375 
z
M 52.203125 31.203125 
L 52.203125 0 
L 43.21875 0 
L 43.21875 8.296875 
Q 40.140625 3.328125 35.546875 0.953125 
Q 30.953125 -1.421875 24.3125 -1.421875 
Q 15.921875 -1.421875 10.953125 3.296875 
Q 6 8.015625 6 15.921875 
Q 6 25.140625 12.171875 29.828125 
Q 18.359375 34.515625 30.609375 34.515625 
L 43.21875 34.515625 
L 43.21875 35.40625 
Q 43.21875 41.609375 39.140625 45 
Q 35.0625 48.390625 27.6875 48.390625 
Q 23 48.390625 18.546875 47.265625 
Q 14.109375 46.140625 10.015625 43.890625 
L 10.015625 52.203125 
Q 14.9375 54.109375 19.578125 55.046875 
Q 24.21875 56 28.609375 56 
Q 40.484375 56 46.34375 49.84375 
Q 52.203125 43.703125 52.203125 31.203125 
z
" id="DejaVuSans-97"/>
       <path d="M 18.3125 70.21875 
L 18.3125 54.6875 
L 36.8125 54.6875 
L 36.8125 47.703125 
L 18.3125 47.703125 
L 18.3125 18.015625 
Q 18.3125 11.328125 20.140625 9.421875 
Q 21.96875 7.515625 27.59375 7.515625 
L 36.8125 7.515625 
L 36.8125 0 
L 27.59375 0 
Q 17.1875 0 13.234375 3.875 
Q 9.28125 7.765625 9.28125 18.015625 
L 9.28125 47.703125 
L 2.6875 47.703125 
L 2.6875 54.6875 
L 9.28125 54.6875 
L 9.28125 70.21875 
z
" id="DejaVuSans-116"/>
       <path d="M 56.203125 29.59375 
L 56.203125 25.203125 
L 14.890625 25.203125 
Q 15.484375 15.921875 20.484375 11.0625 
Q 25.484375 6.203125 34.421875 6.203125 
Q 39.59375 6.203125 44.453125 7.46875 
Q 49.3125 8.734375 54.109375 11.28125 
L 54.109375 2.78125 
Q 49.265625 0.734375 44.1875 -0.34375 
Q 39.109375 -1.421875 33.890625 -1.421875 
Q 20.796875 -1.421875 13.15625 6.1875 
Q 5.515625 13.8125 5.515625 26.8125 
Q 5.515625 40.234375 12.765625 48.109375 
Q 20.015625 56 32.328125 56 
Q 43.359375 56 49.78125 48.890625 
Q 56.203125 41.796875 56.203125 29.59375 
z
M 47.21875 32.234375 
Q 47.125 39.59375 43.09375 43.984375 
Q 39.0625 48.390625 32.421875 48.390625 
Q 24.90625 48.390625 20.390625 44.140625 
Q 15.875 39.890625 15.1875 32.171875 
z
" id="DejaVuSans-101"/>
      </defs>
      <use xlink:href="#DejaVuSans-68"/>
      <use x="77.001953" xlink:href="#DejaVuSans-97"/>
      <use x="138.28125" xlink:href="#DejaVuSans-116"/>
      <use x="177.490234" xlink:href="#DejaVuSans-101"/>
     </g>
    </g>
   </g>
   <g id="matplotlib.axis_2">
    <g id="ytick_1">
     <g id="line2d_21">
      <path clip-path="url(#peab30dab2f)" d="M 44.66 226.204338 
L 450 226.204338 
" style="fill:none;stroke:#b0b0b0;stroke-linecap:square;stroke-width:0.8;"/>
     </g>
     <g id="line2d_22">
      <defs>
       <path d="M 0 0 
L -3.5 0 
" id="m705d9d09cd" style="stroke:#000000;stroke-width:0.8;"/>
      </defs>
      <g>
       <use style="stroke:#000000;stroke-width:0.8;" x="44.66" xlink:href="#m705d9d09cd" y="226.204338"/>
      </g>
     </g>
     <g id="text_12">
      <!-- 55 -->
      <g transform="translate(24.935 230.003557)scale(0.1 -0.1)">
       <use xlink:href="#DejaVuSans-53"/>
       <use x="63.623047" xlink:href="#DejaVuSans-53"/>
      </g>
     </g>
    </g>
    <g id="ytick_2">
     <g id="line2d_23">
      <path clip-path="url(#peab30dab2f)" d="M 44.66 196.562475 
L 450 196.562475 
" style="fill:none;stroke:#b0b0b0;stroke-linecap:square;stroke-width:0.8;"/>
     </g>
     <g id="line2d_24">
      <g>
       <use style="stroke:#000000;stroke-width:0.8;" x="44.66" xlink:href="#m705d9d09cd" y="196.562475"/>
      </g>
     </g>
     <g id="text_13">
      <!-- 60 -->
      <g transform="translate(24.935 200.361694)scale(0.1 -0.1)">
       <use xlink:href="#DejaVuSans-54"/>
       <use x="63.623047" xlink:href="#DejaVuSans-48"/>
      </g>
     </g>
    </g>
    <g id="ytick_3">
     <g id="line2d_25">
      <path clip-path="url(#peab30dab2f)" d="M 44.66 166.920612 
L 450 166.920612 
" style="fill:none;stroke:#b0b0b0;stroke-linecap:square;stroke-width:0.8;"/>
     </g>
     <g id="line2d_26">
      <g>
       <use style="stroke:#000000;stroke-width:0.8;" x="44.66" xlink:href="#m705d9d09cd" y="166.920612"/>
      </g>
     </g>
     <g id="text_14">
      <!-- 65 -->
      <g transform="translate(24.935 170.719831)scale(0.1 -0.1)">
       <use xlink:href="#DejaVuSans-54"/>
       <use x="63.623047" xlink:href="#DejaVuSans-53"/>
      </g>
     </g>
    </g>
    <g id="ytick_4">
     <g id="line2d_27">
      <path clip-path="url(#peab30dab2f)" d="M 44.66 137.278749 
L 450 137.278749 
" style="fill:none;stroke:#b0b0b0;stroke-linecap:square;stroke-width:0.8;"/>
     </g>
     <g id="line2d_28">
      <g>
       <use style="stroke:#000000;stroke-width:0.8;" x="44.66" xlink:href="#m705d9d09cd" y="137.278749"/>
      </g>
     </g>
     <g id="text_15">
      <!-- 70 -->
      <g transform="translate(24.935 141.077968)scale(0.1 -0.1)">
       <defs>
        <path d="M 8.203125 72.90625 
L 55.078125 72.90625 
L 55.078125 68.703125 
L 28.609375 0 
L 18.3125 0 
L 43.21875 64.59375 
L 8.203125 64.59375 
z
" id="DejaVuSans-55"/>
       </defs>
       <use xlink:href="#DejaVuSans-55"/>
       <use x="63.623047" xlink:href="#DejaVuSans-48"/>
      </g>
     </g>
    </g>
    <g id="ytick_5">
     <g id="line2d_29">
      <path clip-path="url(#peab30dab2f)" d="M 44.66 107.636886 
L 450 107.636886 
" style="fill:none;stroke:#b0b0b0;stroke-linecap:square;stroke-width:0.8;"/>
     </g>
     <g id="line2d_30">
      <g>
       <use style="stroke:#000000;stroke-width:0.8;" x="44.66" xlink:href="#m705d9d09cd" y="107.636886"/>
      </g>
     </g>
     <g id="text_16">
      <!-- 75 -->
      <g transform="translate(24.935 111.436105)scale(0.1 -0.1)">
       <use xlink:href="#DejaVuSans-55"/>
       <use x="63.623047" xlink:href="#DejaVuSans-53"/>
      </g>
     </g>
    </g>
    <g id="ytick_6">
     <g id="line2d_31">
      <path clip-path="url(#peab30dab2f)" d="M 44.66 77.995023 
L 450 77.995023 
" style="fill:none;stroke:#b0b0b0;stroke-linecap:square;stroke-width:0.8;"/>
     </g>
     <g id="line2d_32">
      <g>
       <use style="stroke:#000000;stroke-width:0.8;" x="44.66" xlink:href="#m705d9d09cd" y="77.995023"/>
      </g>
     </g>
     <g id="text_17">
      <!-- 80 -->
      <g transform="translate(24.935 81.794242)scale(0.1 -0.1)">
       <use xlink:href="#DejaVuSans-56"/>
       <use x="63.623047" xlink:href="#DejaVuSans-48"/>
      </g>
     </g>
    </g>
    <g id="ytick_7">
     <g id="line2d_33">
      <path clip-path="url(#peab30dab2f)" d="M 44.66 48.35316 
L 450 48.35316 
" style="fill:none;stroke:#b0b0b0;stroke-linecap:square;stroke-width:0.8;"/>
     </g>
     <g id="line2d_34">
      <g>
       <use style="stroke:#000000;stroke-width:0.8;" x="44.66" xlink:href="#m705d9d09cd" y="48.35316"/>
      </g>
     </g>
     <g id="text_18">
      <!-- 85 -->
      <g transform="translate(24.935 52.152379)scale(0.1 -0.1)">
       <use xlink:href="#DejaVuSans-56"/>
       <use x="63.623047" xlink:href="#DejaVuSans-53"/>
      </g>
     </g>
    </g>
    <g id="text_19">
     <!-- Temperature [F] -->
     <g transform="translate(18.855313 180.575291)rotate(-90)scale(0.1 -0.1)">
      <defs>
       <path d="M -0.296875 72.90625 
L 61.375 72.90625 
L 61.375 64.59375 
L 35.5 64.59375 
L 35.5 0 
L 25.59375 0 
L 25.59375 64.59375 
L -0.296875 64.59375 
z
" id="DejaVuSans-84"/>
       <path d="M 52 44.1875 
Q 55.375 50.25 60.0625 53.125 
Q 64.75 56 71.09375 56 
Q 79.640625 56 84.28125 50.015625 
Q 88.921875 44.046875 88.921875 33.015625 
L 88.921875 0 
L 79.890625 0 
L 79.890625 32.71875 
Q 79.890625 40.578125 77.09375 44.375 
Q 74.3125 48.1875 68.609375 48.1875 
Q 61.625 48.1875 57.5625 43.546875 
Q 53.515625 38.921875 53.515625 30.90625 
L 53.515625 0 
L 44.484375 0 
L 44.484375 32.71875 
Q 44.484375 40.625 41.703125 44.40625 
Q 38.921875 48.1875 33.109375 48.1875 
Q 26.21875 48.1875 22.15625 43.53125 
Q 18.109375 38.875 18.109375 30.90625 
L 18.109375 0 
L 9.078125 0 
L 9.078125 54.6875 
L 18.109375 54.6875 
L 18.109375 46.1875 
Q 21.1875 51.21875 25.484375 53.609375 
Q 29.78125 56 35.6875 56 
Q 41.65625 56 45.828125 52.96875 
Q 50 49.953125 52 44.1875 
z
" id="DejaVuSans-109"/>
       <path d="M 18.109375 8.203125 
L 18.109375 -20.796875 
L 9.078125 -20.796875 
L 9.078125 54.6875 
L 18.109375 54.6875 
L 18.109375 46.390625 
Q 20.953125 51.265625 25.265625 53.625 
Q 29.59375 56 35.59375 56 
Q 45.5625 56 51.78125 48.09375 
Q 58.015625 40.1875 58.015625 27.296875 
Q 58.015625 14.40625 51.78125 6.484375 
Q 45.5625 -1.421875 35.59375 -1.421875 
Q 29.59375 -1.421875 25.265625 0.953125 
Q 20.953125 3.328125 18.109375 8.203125 
z
M 48.6875 27.296875 
Q 48.6875 37.203125 44.609375 42.84375 
Q 40.53125 48.484375 33.40625 48.484375 
Q 26.265625 48.484375 22.1875 42.84375 
Q 18.109375 37.203125 18.109375 27.296875 
Q 18.109375 17.390625 22.1875 11.75 
Q 26.265625 6.109375 33.40625 6.109375 
Q 40.53125 6.109375 44.609375 11.75 
Q 48.6875 17.390625 48.6875 27.296875 
z
" id="DejaVuSans-112"/>
       <path d="M 41.109375 46.296875 
Q 39.59375 47.171875 37.8125 47.578125 
Q 36.03125 48 33.890625 48 
Q 26.265625 48 22.1875 43.046875 
Q 18.109375 38.09375 18.109375 28.8125 
L 18.109375 0 
L 9.078125 0 
L 9.078125 54.6875 
L 18.109375 54.6875 
L 18.109375 46.1875 
Q 20.953125 51.171875 25.484375 53.578125 
Q 30.03125 56 36.53125 56 
Q 37.453125 56 38.578125 55.875 
Q 39.703125 55.765625 41.0625 55.515625 
z
" id="DejaVuSans-114"/>
       <path d="M 8.5 21.578125 
L 8.5 54.6875 
L 17.484375 54.6875 
L 17.484375 21.921875 
Q 17.484375 14.15625 20.5 10.265625 
Q 23.53125 6.390625 29.59375 6.390625 
Q 36.859375 6.390625 41.078125 11.03125 
Q 45.3125 15.671875 45.3125 23.6875 
L 45.3125 54.6875 
L 54.296875 54.6875 
L 54.296875 0 
L 45.3125 0 
L 45.3125 8.40625 
Q 42.046875 3.421875 37.71875 1 
Q 33.40625 -1.421875 27.6875 -1.421875 
Q 18.265625 -1.421875 13.375 4.4375 
Q 8.5 10.296875 8.5 21.578125 
z
M 31.109375 56 
z
" id="DejaVuSans-117"/>
       <path id="DejaVuSans-32"/>
       <path d="M 8.59375 75.984375 
L 29.296875 75.984375 
L 29.296875 69 
L 17.578125 69 
L 17.578125 -6.203125 
L 29.296875 -6.203125 
L 29.296875 -13.1875 
L 8.59375 -13.1875 
z
" id="DejaVuSans-91"/>
       <path d="M 9.8125 72.90625 
L 51.703125 72.90625 
L 51.703125 64.59375 
L 19.671875 64.59375 
L 19.671875 43.109375 
L 48.578125 43.109375 
L 48.578125 34.8125 
L 19.671875 34.8125 
L 19.671875 0 
L 9.8125 0 
z
" id="DejaVuSans-70"/>
       <path d="M 30.421875 75.984375 
L 30.421875 -13.1875 
L 9.71875 -13.1875 
L 9.71875 -6.203125 
L 21.390625 -6.203125 
L 21.390625 69 
L 9.71875 69 
L 9.71875 75.984375 
z
" id="DejaVuSans-93"/>
      </defs>
      <use xlink:href="#DejaVuSans-84"/>
      <use x="44.083984" xlink:href="#DejaVuSans-101"/>
      <use x="105.607422" xlink:href="#DejaVuSans-109"/>
      <use x="203.019531" xlink:href="#DejaVuSans-112"/>
      <use x="266.496094" xlink:href="#DejaVuSans-101"/>
      <use x="328.019531" xlink:href="#DejaVuSans-114"/>
      <use x="369.132812" xlink:href="#DejaVuSans-97"/>
      <use x="430.412109" xlink:href="#DejaVuSans-116"/>
      <use x="469.621094" xlink:href="#DejaVuSans-117"/>
      <use x="533" xlink:href="#DejaVuSans-114"/>
      <use x="571.863281" xlink:href="#DejaVuSans-101"/>
      <use x="633.386719" xlink:href="#DejaVuSans-32"/>
      <use x="665.173828" xlink:href="#DejaVuSans-91"/>
      <use x="704.1875" xlink:href="#DejaVuSans-70"/>
      <use x="761.707031" xlink:href="#DejaVuSans-93"/>
     </g>
    </g>
   </g>
   <g id="line2d_35">
    <path clip-path="url(#peab30dab2f)" d="M 63.084545 143.799959 
L 63.144508 143.799959 
L 63.201018 143.207122 
L 63.22983 143.799959 
L 63.258102 143.799959 
L 63.371348 143.207122 
L 63.428051 143.207122 
L 63.456394 143.799959 
L 63.485249 143.207122 
L 63.599232 142.614284 
L 63.770597 142.614284 
L 63.85711 142.021447 
L 64.001253 143.207122 
L 64.029626 143.207122 
L 64.116974 142.021447 
L 64.145269 143.207122 
L 64.202125 142.021447 
L 64.26054 142.021447 
L 64.376295 140.835773 
L 64.404465 142.021447 
L 64.433252 140.242935 
L 64.461488 140.242935 
L 64.490467 140.835773 
L 64.547921 140.242935 
L 64.661917 140.242935 
L 64.719883 139.650098 
L 64.749161 140.242935 
L 64.778282 140.242935 
L 64.80721 139.650098 
L 64.835501 140.835773 
L 64.920986 140.835773 
L 65.038158 139.650098 
L 65.066679 139.650098 
L 65.180673 140.242935 
L 65.209194 140.242935 
L 65.325191 140.835773 
L 65.411688 140.835773 
L 65.557437 139.057261 
L 65.701602 140.242935 
L 65.818058 139.057261 
L 65.847933 139.057261 
L 65.877591 138.464424 
L 65.934502 139.057261 
L 65.963221 139.650098 
L 66.040563 139.057261 
L 66.126985 139.057261 
L 66.185535 138.464424 
L 66.214067 139.057261 
L 66.244363 139.057261 
L 66.390747 140.835773 
L 66.449514 140.242935 
L 66.480536 140.835773 
L 66.573415 140.835773 
L 66.601785 142.021447 
L 66.659893 140.835773 
L 66.744998 140.835773 
L 66.861004 140.242935 
L 66.9192 140.835773 
L 66.948726 140.242935 
L 67.005031 140.242935 
L 67.063853 142.021447 
L 67.093498 140.242935 
L 67.149882 140.242935 
L 67.211646 142.021447 
L 67.268046 140.835773 
L 67.296388 142.021447 
L 67.324829 140.242935 
L 67.35303 140.835773 
L 67.382046 140.835773 
L 67.497183 143.207122 
L 67.55576 140.835773 
L 67.583993 143.207122 
L 67.613389 144.392796 
L 67.643077 142.614284 
L 67.790963 140.242935 
L 67.907039 144.392796 
L 67.96578 142.614284 
L 67.994843 143.799959 
L 68.055346 144.392796 
L 68.083511 143.799959 
L 68.11165 143.799959 
L 68.257006 144.985633 
L 68.545371 144.985633 
L 68.66055 145.578471 
L 68.747746 144.985633 
L 68.805235 145.578471 
L 68.833616 144.985633 
L 68.861883 144.392796 
L 68.890947 145.578471 
L 68.950859 145.578471 
L 69.037082 143.207122 
L 69.066776 144.985633 
L 69.096485 146.764145 
L 69.183797 145.578471 
L 69.241309 145.578471 
L 69.415828 143.799959 
L 69.531089 144.392796 
L 69.589369 144.392796 
L 69.617984 143.799959 
L 69.646145 144.392796 
L 69.675598 144.985633 
L 69.704131 143.207122 
L 69.761968 145.578471 
L 69.791476 145.578471 
L 69.850028 144.392796 
L 69.906393 144.985633 
L 69.934521 144.392796 
L 69.962867 145.578471 
L 69.992507 145.578471 
L 70.021319 144.392796 
L 70.106337 144.985633 
L 70.222721 144.985633 
L 70.312263 145.578471 
L 70.398265 144.985633 
L 70.488131 145.578471 
L 70.546437 144.392796 
L 70.60334 144.985633 
L 70.66076 144.985633 
L 70.776097 145.578471 
L 71.091496 145.578471 
L 71.178297 146.764145 
L 71.207899 145.578471 
L 71.264896 146.764145 
L 71.731986 146.764145 
L 71.849398 147.356982 
L 71.879097 146.764145 
L 71.936101 147.356982 
L 71.964414 147.356982 
L 71.992669 146.764145 
L 72.049576 147.356982 
L 72.596765 147.356982 
L 72.62541 147.94982 
L 72.653768 147.356982 
L 145.259437 147.94982 
L 145.288764 147.356982 
L 145.632363 145.578471 
L 145.660856 147.356982 
L 145.720604 146.764145 
L 145.781041 147.356982 
L 145.810125 145.578471 
L 145.879974 147.356982 
L 145.929332 146.764145 
L 145.958559 146.764145 
L 146.105214 143.207122 
L 146.229176 145.578471 
L 146.257315 144.985633 
L 146.388804 146.764145 
L 146.509948 146.764145 
L 146.53815 147.356982 
L 146.687092 144.985633 
L 146.779061 140.242935 
L 146.832247 143.207122 
L 146.982469 145.578471 
L 147.014972 144.392796 
L 147.072886 144.985633 
L 147.173467 146.764145 
L 147.202077 145.578471 
L 147.231143 145.578471 
L 147.266282 144.985633 
L 147.323181 145.578471 
L 147.386472 145.578471 
L 147.533188 139.650098 
L 147.648114 144.985633 
L 147.67629 145.578471 
L 147.790875 139.057261 
L 147.849656 140.835773 
L 147.87787 140.242935 
L 147.906054 140.835773 
L 148.062994 146.764145 
L 148.197009 144.392796 
L 148.28433 144.392796 
L 148.314193 143.799959 
L 148.342534 144.392796 
L 148.458874 146.764145 
L 148.608396 144.392796 
L 148.637309 144.392796 
L 148.734192 139.650098 
L 148.762363 142.614284 
L 148.927145 146.764145 
L 148.986771 144.985633 
L 149.016014 144.392796 
L 149.044189 144.985633 
L 149.130843 146.764145 
L 149.158972 144.985633 
L 149.188251 145.578471 
L 149.304182 145.578471 
L 149.333524 144.392796 
L 149.3945 145.578471 
L 149.423976 147.356982 
L 149.481696 144.985633 
L 149.538424 144.985633 
L 149.568129 145.578471 
L 149.598807 142.021447 
L 149.688093 142.614284 
L 149.747427 144.985633 
L 149.8062 143.207122 
L 149.978212 144.985633 
L 150.099513 144.392796 
L 150.127722 144.392796 
L 150.184707 144.985633 
L 150.213762 143.799959 
L 150.270098 144.985633 
L 150.298634 144.985633 
L 150.32677 144.392796 
L 150.384527 144.985633 
L 150.413561 144.985633 
L 150.526677 145.578471 
L 150.555927 145.578471 
L 150.670503 146.764145 
L 150.699105 146.764145 
L 150.814286 147.356982 
L 151.217082 147.356982 
L 151.303938 147.94982 
L 151.419626 147.356982 
L 151.622249 147.356982 
L 151.65068 144.985633 
L 151.736575 146.764145 
L 151.793793 146.764145 
L 151.913457 147.356982 
L 151.999592 147.356982 
L 152.028326 146.764145 
L 152.085011 147.356982 
L 152.141944 147.356982 
L 152.229071 147.94982 
L 152.258411 147.356982 
L 152.316961 147.94982 
L 152.901707 147.94982 
L 152.932374 148.542657 
L 152.960631 147.94982 
L 153.086999 147.356982 
L 153.41633 147.356982 
L 153.501194 146.764145 
L 153.529885 147.356982 
L 153.590854 146.764145 
L 153.99581 146.764145 
L 154.024009 147.356982 
L 154.081073 146.764145 
L 154.342247 146.764145 
L 154.430494 147.356982 
L 154.54415 146.764145 
L 154.657059 146.764145 
L 154.742568 147.356982 
L 154.8295 146.764145 
L 154.944772 147.356982 
L 155.001257 147.356982 
L 155.114274 146.764145 
L 155.171001 146.764145 
L 155.255553 147.356982 
L 155.376333 146.764145 
L 155.662067 146.764145 
L 269.178192 130.164702 
L 269.243774 131.350376 
L 269.380907 131.350376 
L 269.409322 130.164702 
L 269.468127 131.350376 
L 269.560643 131.350376 
L 269.589947 130.164702 
L 269.65441 131.350376 
L 269.913239 131.350376 
L 269.97145 131.943214 
L 269.999903 131.350376 
L 270.178456 131.350376 
L 270.208222 131.943214 
L 270.270241 131.350376 
L 270.304355 131.350376 
L 270.419924 131.943214 
L 270.478188 131.943214 
L 270.507245 131.350376 
L 270.563892 131.943214 
L 270.678059 131.943214 
L 270.763565 131.350376 
L 270.862583 131.943214 
L 271.510887 131.943214 
L 271.539406 132.536051 
L 271.595762 131.943214 
L 271.62387 131.943214 
L 271.652725 132.536051 
L 271.709953 131.943214 
L 271.739083 131.943214 
L 271.857627 132.536051 
L 271.977198 131.943214 
L 272.005388 131.943214 
L 272.118862 132.536051 
L 272.66862 132.536051 
L 272.697084 133.128888 
L 272.753613 132.536051 
L 272.872619 132.536051 
L 272.904116 133.128888 
L 272.974882 132.536051 
L 273.239045 132.536051 
L 273.358057 133.128888 
L 274.582653 133.128888 
L 274.612242 133.721726 
L 274.67102 133.128888 
L 274.933008 133.128888 
L 275.052031 133.721726 
L 275.169262 133.128888 
L 275.198279 133.128888 
L 275.313588 133.721726 
L 275.726923 133.721726 
L 275.862885 134.314563 
L 275.976427 133.721726 
L 276.817989 133.721726 
L 276.846103 133.128888 
L 276.904703 133.721726 
L 277.109681 133.721726 
L 277.138066 133.128888 
L 277.196557 133.721726 
L 277.226053 133.721726 
L 277.311866 133.128888 
L 277.427666 133.721726 
L 277.862711 133.721726 
L 277.890859 134.314563 
L 277.947126 133.721726 
L 278.490173 133.721726 
L 278.519165 133.128888 
L 278.57643 133.721726 
L 278.662293 133.721726 
L 278.700117 133.128888 
L 278.762309 133.721726 
L 279.0204 133.721726 
L 279.049438 133.128888 
L 279.108177 133.721726 
L 280.035376 133.721726 
L 280.150891 134.314563 
L 280.208838 134.314563 
L 280.328225 133.721726 
L 280.45481 134.314563 
L 280.572179 133.721726 
L 280.600307 133.721726 
L 280.715146 134.314563 
L 280.831355 133.721726 
L 280.975718 133.721726 
L 281.088801 134.314563 
L 281.596095 134.314563 
L 281.624578 134.9074 
L 281.681037 134.314563 
L 282.034052 134.314563 
L 282.122078 134.9074 
L 282.209735 134.314563 
L 282.296194 134.9074 
L 282.386111 134.314563 
L 282.507415 134.9074 
L 282.535554 134.9074 
L 282.566054 134.314563 
L 282.624037 134.9074 
L 283.52922 134.9074 
L 283.558376 136.093075 
L 283.616022 134.9074 
L 283.644204 134.9074 
L 283.677356 136.093075 
L 283.735556 134.9074 
L 284.120007 134.9074 
L 284.177035 136.093075 
L 284.206145 134.9074 
L 284.47565 134.9074 
L 284.591865 136.093075 
L 284.677136 134.9074 
L 284.76266 136.093075 
L 284.850709 134.9074 
L 284.936941 136.093075 
L 285.056947 134.9074 
L 285.172531 136.093075 
L 285.20074 136.093075 
L 285.228867 134.9074 
L 285.286388 136.093075 
L 285.317129 136.093075 
L 285.346398 134.9074 
L 285.405954 136.093075 
L 286.245624 136.093075 
L 286.334983 136.685912 
L 286.456805 136.093075 
L 286.514065 136.093075 
L 286.543636 136.685912 
L 286.572237 136.093075 
L 286.886478 136.093075 
L 287.003337 136.685912 
L 287.089578 136.093075 
L 287.20589 136.685912 
L 288.196382 136.685912 
L 288.282305 137.278749 
L 288.341733 136.685912 
L 288.37047 137.278749 
L 288.428361 137.278749 
L 288.485249 136.685912 
L 288.513566 137.278749 
L 289.175162 137.278749 
L 289.292362 136.685912 
L 289.407292 137.278749 
L 290.596432 137.278749 
L 290.624717 137.871586 
L 290.690004 137.278749 
L 291.708257 137.278749 
L 291.829314 137.871586 
L 291.917156 137.278749 
L 292.047045 137.871586 
L 292.842906 137.871586 
L 292.871152 137.278749 
L 292.930484 137.871586 
L 293.077969 137.871586 
L 293.164282 137.278749 
L 293.281962 137.871586 
L 293.311405 137.871586 
L 293.429564 137.278749 
L 293.573247 137.278749 
L 293.601385 137.871586 
L 293.659956 137.278749 
L 293.747153 137.278749 
L 293.86643 137.871586 
L 293.982519 137.278749 
L 294.211918 137.278749 
L 294.333024 137.871586 
L 294.451521 137.278749 
L 295.369919 137.278749 
L 295.486291 136.685912 
L 295.749017 136.685912 
L 295.807714 136.093075 
L 295.836574 136.685912 
L 296.013518 136.685912 
L 296.078718 136.093075 
L 296.107822 136.685912 
L 296.166309 136.685912 
L 296.196357 136.093075 
L 296.253867 136.685912 
L 297.075169 136.685912 
L 297.192315 136.093075 
L 297.286782 136.093075 
L 297.315213 136.685912 
L 297.371952 136.093075 
L 297.489438 136.093075 
L 297.606528 134.9074 
L 297.89825 134.9074 
L 297.955199 134.314563 
L 297.983759 134.9074 
L 298.678396 134.9074 
L 298.764264 134.314563 
L 298.881402 134.9074 
L 298.937861 134.9074 
L 299.024075 134.314563 
L 299.052704 134.9074 
L 299.110681 134.314563 
L 299.138865 134.314563 
L 299.251878 133.721726 
L 299.310904 133.721726 
L 299.425224 134.314563 
L 299.51042 134.314563 
L 299.625864 133.721726 
L 299.653986 133.721726 
L 299.741318 134.314563 
L 299.869004 133.721726 
L 299.957541 133.721726 
L 300.046122 134.314563 
L 300.161423 133.721726 
L 300.28201 134.314563 
L 300.313482 133.721726 
L 300.371317 134.314563 
L 300.492457 134.314563 
L 300.520711 133.721726 
L 300.57877 134.314563 
L 300.989136 134.314563 
L 301.105352 133.721726 
L 301.16362 134.314563 
L 301.19201 133.721726 
L 301.283172 133.721726 
L 301.401506 134.314563 
L 301.431617 134.314563 
L 301.551849 133.721726 
L 301.640172 134.314563 
L 301.759654 133.721726 
L 301.820687 133.721726 
L 301.937311 134.314563 
L 301.966573 134.314563 
L 302.082578 133.721726 
L 302.29122 133.721726 
L 302.323167 134.314563 
L 302.391271 133.721726 
L 302.511367 133.721726 
L 302.540316 134.314563 
L 302.598791 133.721726 
L 302.824408 133.721726 
L 302.852587 132.536051 
L 302.938977 133.128888 
L 302.995584 133.128888 
L 303.110526 133.721726 
L 303.226221 133.721726 
L 303.283139 134.314563 
L 303.311856 133.721726 
L 303.341114 133.721726 
L 303.369328 133.128888 
L 303.426819 133.721726 
L 303.45555 133.721726 
L 303.542237 133.128888 
L 303.570474 133.721726 
L 303.62924 133.128888 
L 303.687759 133.128888 
L 303.804277 133.721726 
L 304.130823 133.721726 
L 304.15913 134.314563 
L 304.217872 133.721726 
L 304.306411 133.128888 
L 304.423335 133.721726 
L 304.802836 133.721726 
L 304.917367 134.314563 
L 304.976178 134.314563 
L 305.005685 133.721726 
L 305.062587 134.314563 
L 305.407761 134.314563 
L 305.523838 133.721726 
L 305.685615 134.314563 
L 306.004961 134.314563 
L 306.089552 134.9074 
L 306.204501 134.314563 
L 306.32159 134.314563 
L 306.351585 133.721726 
L 306.408467 134.314563 
L 306.758775 134.314563 
L 306.787926 134.9074 
L 306.844775 134.314563 
L 307.237544 134.314563 
L 307.354633 134.9074 
L 307.471231 134.314563 
L 307.589818 134.9074 
L 308.05741 134.9074 
L 308.115163 134.314563 
L 308.143784 134.9074 
L 308.261901 134.9074 
L 308.291935 134.314563 
L 308.350173 134.9074 
L 309.147284 134.9074 
L 309.176625 136.093075 
L 309.246856 134.9074 
L 309.304764 134.9074 
L 309.401646 136.093075 
L 309.523093 134.9074 
L 309.612351 136.093075 
L 309.726545 134.9074 
L 309.842967 136.093075 
L 309.939536 136.093075 
L 310.05755 134.9074 
L 310.217514 136.093075 
L 310.929171 136.093075 
L 311.033963 136.685912 
L 311.09245 136.093075 
L 311.123844 136.685912 
L 311.152053 136.685912 
L 311.211182 136.093075 
L 311.239937 136.685912 
L 311.298696 136.685912 
L 311.384846 136.093075 
L 311.51254 136.685912 
L 312.240975 136.685912 
L 312.269126 137.278749 
L 312.326308 136.685912 
L 312.820398 136.685912 
L 312.848709 137.278749 
L 312.907039 136.685912 
L 312.936176 136.685912 
L 313.023178 137.278749 
L 313.051907 136.685912 
L 313.110205 137.278749 
L 313.13979 137.278749 
L 313.258544 136.685912 
L 313.381585 137.278749 
L 314.996979 137.278749 
L 315.028546 137.871586 
L 315.089473 137.278749 
L 315.181379 137.278749 
L 315.240225 137.871586 
L 315.269527 137.278749 
L 315.332353 137.278749 
L 315.451404 137.871586 
L 315.480736 137.278749 
L 315.539004 137.871586 
L 315.857755 137.871586 
L 315.887851 137.278749 
L 315.94613 137.871586 
L 316.060175 137.871586 
L 316.088352 137.278749 
L 316.146061 137.871586 
L 316.379486 137.871586 
L 316.410001 138.464424 
L 316.468129 137.871586 
L 317.262407 137.871586 
L 317.291911 137.278749 
L 317.353169 137.871586 
L 318.677033 137.871586 
L 318.706081 138.464424 
L 318.766189 137.871586 
L 319.213913 137.871586 
L 319.311544 138.464424 
L 319.428804 137.871586 
L 319.485992 137.871586 
L 319.604201 138.464424 
L 319.961221 138.464424 
L 319.98989 137.871586 
L 320.048493 138.464424 
L 320.431066 138.464424 
L 320.462411 137.871586 
L 320.519927 138.464424 
L 321.880151 138.464424 
L 321.911807 139.057261 
L 321.968358 138.464424 
L 322.084458 138.464424 
L 322.114401 139.057261 
L 322.174909 138.464424 
L 322.377091 138.464424 
L 322.490628 139.057261 
L 322.613291 138.464424 
L 322.73131 139.057261 
L 322.759418 138.464424 
L 322.816278 139.057261 
L 322.874131 139.057261 
L 322.988645 138.464424 
L 323.018176 138.464424 
L 323.106713 139.057261 
L 323.136558 138.464424 
L 323.194496 139.057261 
L 323.282984 139.057261 
L 323.39922 138.464424 
L 323.515468 139.057261 
L 323.543688 138.464424 
L 323.604022 139.057261 
L 323.835906 139.057261 
L 323.86626 138.464424 
L 323.923458 139.057261 
L 326.01472 139.057261 
L 326.044194 139.650098 
L 326.1019 139.057261 
L 326.275745 139.057261 
L 326.304072 139.650098 
L 326.363303 139.057261 
L 326.448105 139.057261 
L 326.562293 139.650098 
L 326.590585 139.650098 
L 326.621104 139.057261 
L 326.68106 139.650098 
L 326.71022 139.650098 
L 326.769604 139.057261 
L 326.797688 139.650098 
L 326.827861 139.650098 
L 326.856946 139.057261 
L 326.917953 139.650098 
L 326.948363 139.650098 
L 327.063107 139.057261 
L 327.179658 139.650098 
L 327.959386 139.650098 
L 327.988015 140.242935 
L 328.045712 139.650098 
L 328.392008 139.650098 
L 328.483169 140.242935 
L 328.602192 139.650098 
L 328.66145 139.650098 
L 328.690127 140.242935 
L 328.722052 139.650098 
L 328.815182 140.242935 
L 328.90369 139.650098 
L 329.021531 140.242935 
L 329.087623 139.650098 
L 329.117145 140.242935 
L 329.244598 139.650098 
L 329.297667 139.650098 
L 329.328335 140.242935 
L 329.467298 139.650098 
L 331.037817 139.650098 
L 331.132367 139.057261 
L 331.247987 139.650098 
L 331.37529 139.057261 
L 331.431734 139.650098 
L 331.459865 139.057261 
L 332.267684 139.057261 
L 332.396587 138.464424 
L 332.515878 139.057261 
L 332.548817 139.057261 
L 332.698183 137.871586 
L 332.730792 137.871586 
L 332.761033 138.464424 
L 332.820213 137.871586 
L 333.024535 137.871586 
L 333.112666 137.278749 
L 333.141369 137.871586 
L 333.200023 137.278749 
L 333.320191 137.278749 
L 333.35733 136.685912 
L 333.41367 137.278749 
L 333.532017 137.278749 
L 333.624518 137.871586 
L 333.716912 137.278749 
L 333.830221 137.871586 
L 333.944892 137.278749 
L 333.97302 137.278749 
L 334.058119 136.685912 
L 334.114538 137.278749 
L 334.1437 136.685912 
L 334.171883 136.685912 
L 334.25649 137.278749 
L 334.369989 136.685912 
L 334.511907 136.685912 
L 334.540665 137.278749 
L 334.598428 136.685912 
L 334.663075 136.685912 
L 334.691262 137.278749 
L 334.749792 136.685912 
L 334.778051 136.685912 
L 334.891181 137.278749 
L 335.299074 137.278749 
L 335.411931 136.685912 
L 335.530685 137.278749 
L 335.712459 137.278749 
L 335.740776 136.685912 
L 335.797084 137.278749 
L 335.99897 137.278749 
L 336.113884 136.685912 
L 336.142115 136.685912 
L 336.17055 137.278749 
L 336.231337 136.685912 
L 336.25955 136.685912 
L 336.289523 137.278749 
L 336.346441 136.685912 
L 336.862185 136.685912 
L 336.966577 137.278749 
L 337.031252 136.685912 
L 337.885662 136.685912 
L 337.990066 136.093075 
L 338.319003 136.093075 
L 338.347621 136.685912 
L 338.395048 136.093075 
L 339.152624 136.093075 
L 339.254162 136.685912 
L 339.3699 136.093075 
L 339.667768 136.093075 
L 339.712195 136.685912 
L 339.745269 134.9074 
L 339.815017 136.093075 
L 339.919058 136.093075 
L 340.048264 134.9074 
L 340.6923 134.9074 
L 340.95303 133.721726 
L 341.086789 134.314563 
L 341.928111 134.314563 
L 341.96524 133.721726 
L 342.03558 134.314563 
L 342.187382 134.314563 
L 342.251403 133.721726 
L 342.283622 134.314563 
L 342.31275 134.314563 
L 342.379738 133.721726 
L 342.56212 133.721726 
L 342.590522 134.314563 
L 342.65119 133.721726 
L 342.745857 133.721726 
L 342.871049 133.128888 
L 342.964244 133.721726 
L 343.091775 133.128888 
L 343.1998 133.128888 
L 343.319553 133.721726 
L 343.482429 133.721726 
L 343.511826 134.314563 
L 343.544553 133.721726 
L 343.788305 133.721726 
L 343.945747 133.128888 
L 344.02501 133.721726 
L 344.225253 132.536051 
L 344.254501 133.128888 
L 344.44175 132.536051 
L 344.691189 131.943214 
L 344.830969 132.536051 
L 344.950445 131.943214 
L 345.009898 131.943214 
L 345.042591 132.536051 
L 345.357322 132.536051 
L 345.395912 133.128888 
L 345.444596 132.536051 
L 345.642806 132.536051 
L 345.760066 133.128888 
L 346.357701 133.128888 
L 346.417249 132.536051 
L 346.448071 133.128888 
L 346.483156 133.128888 
L 346.584272 132.536051 
L 346.676653 132.536051 
L 346.809167 133.128888 
L 346.93642 132.536051 
L 347.041756 132.536051 
L 347.177725 133.128888 
L 347.396527 133.128888 
L 347.442568 133.721726 
L 347.477245 133.128888 
L 347.539907 133.128888 
L 347.632833 133.721726 
L 347.750168 133.128888 
L 347.800604 133.721726 
L 347.829884 133.128888 
L 348.015005 133.721726 
L 348.081522 133.721726 
L 348.214152 134.314563 
L 348.299932 133.721726 
L 348.349301 134.9074 
L 348.421823 134.314563 
L 348.641149 134.314563 
L 348.765799 134.9074 
L 348.79908 134.9074 
L 348.832788 134.314563 
L 348.901021 134.9074 
L 349.180836 134.9074 
L 349.213591 136.093075 
L 349.246216 134.9074 
L 349.426232 136.093075 
L 349.865362 136.093075 
L 349.931094 136.685912 
L 349.95936 136.093075 
L 349.989542 136.093075 
L 350.126868 136.685912 
L 350.643187 136.685912 
L 350.765015 137.278749 
L 350.892339 136.685912 
L 350.950541 137.278749 
L 351.043096 136.685912 
L 351.139822 137.278749 
L 351.201692 136.685912 
L 351.239414 137.278749 
L 351.888333 137.278749 
L 351.977739 137.871586 
L 352.007953 137.278749 
L 352.065598 137.871586 
L 352.763584 137.871586 
L 352.849348 138.464424 
L 352.983731 137.871586 
L 353.250061 137.871586 
L 353.279563 138.464424 
L 353.335943 137.871586 
L 353.3641 137.871586 
L 353.392266 138.464424 
L 353.448996 137.871586 
L 353.48223 137.871586 
L 353.511509 138.464424 
L 353.569445 137.871586 
L 353.598636 137.871586 
L 353.686744 138.464424 
L 353.772279 137.871586 
L 353.888468 138.464424 
L 354.742996 138.464424 
L 354.857262 139.057261 
L 354.885449 138.464424 
L 354.941975 139.057261 
L 354.970123 139.057261 
L 355.083619 138.464424 
L 355.112725 138.464424 
L 355.227923 139.057261 
L 355.976027 139.057261 
L 356.004143 139.650098 
L 356.060716 139.057261 
L 356.08893 139.057261 
L 356.177675 139.650098 
L 356.206701 139.057261 
L 356.263037 139.650098 
L 356.488674 139.650098 
L 356.602202 140.242935 
L 356.688452 139.650098 
L 356.803386 140.242935 
L 356.972798 140.242935 
L 357.09297 140.835773 
L 357.209908 140.242935 
L 357.945623 140.242935 
L 357.974734 139.650098 
L 358.143781 140.242935 
L 358.371729 140.242935 
L 358.400992 140.835773 
L 358.58414 140.242935 
L 358.759407 140.242935 
L 358.789026 140.835773 
L 358.847707 140.242935 
L 359.683961 140.242935 
L 359.797615 140.835773 
L 359.884039 140.835773 
L 360.000608 140.242935 
L 360.087067 140.242935 
L 360.205626 140.835773 
L 361.730072 140.835773 
L 361.843366 142.021447 
L 361.871598 142.021447 
L 361.987292 140.835773 
L 362.074392 140.835773 
L 362.159947 142.021447 
L 362.272657 140.835773 
L 362.32888 140.835773 
L 362.443585 142.021447 
L 363.632531 142.021447 
L 363.662809 142.614284 
L 363.72246 142.021447 
L 363.75064 142.021447 
L 363.780716 142.614284 
L 363.838771 142.021447 
L 364.300234 142.021447 
L 364.356513 142.614284 
L 364.384926 142.021447 
L 364.614962 142.021447 
L 364.643231 142.614284 
L 364.700403 142.021447 
L 365.048976 142.021447 
L 365.077058 142.614284 
L 365.13354 142.021447 
L 365.276265 142.021447 
L 365.30452 142.614284 
L 365.360782 142.021447 
L 365.449103 142.021447 
L 365.534132 142.614284 
L 365.562252 142.021447 
L 365.622302 142.614284 
L 365.651931 142.614284 
L 365.765883 142.021447 
L 365.794513 142.021447 
L 365.910277 142.614284 
L 365.938684 142.021447 
L 365.994883 142.614284 
L 366.256355 142.614284 
L 366.2854 142.021447 
L 366.342563 142.614284 
L 366.831783 142.614284 
L 366.94577 143.207122 
L 366.975435 143.207122 
L 367.091395 142.614284 
L 367.824228 142.614284 
L 367.911212 143.207122 
L 368.029387 142.614284 
L 368.058894 142.614284 
L 368.087025 143.207122 
L 368.143652 142.614284 
L 368.171967 142.614284 
L 368.200116 143.207122 
L 368.257354 142.614284 
L 368.347307 142.614284 
L 368.375497 143.207122 
L 368.434321 142.614284 
L 370.073179 142.614284 
L 370.160581 142.021447 
L 370.279359 142.614284 
L 370.536018 142.614284 
L 370.651894 142.021447 
L 370.740153 142.614284 
L 370.856836 142.021447 
L 370.885618 142.021447 
L 370.944184 142.614284 
L 370.973261 142.021447 
L 371.058458 142.021447 
L 371.086622 142.614284 
L 371.147076 142.021447 
L 371.586138 142.021447 
L 371.702773 140.835773 
L 372.128698 140.835773 
L 372.158029 140.242935 
L 372.216873 140.835773 
L 372.333576 140.835773 
L 372.448118 140.242935 
L 372.740578 140.242935 
L 372.862721 139.650098 
L 372.925761 139.650098 
L 372.954896 140.242935 
L 373.012092 139.650098 
L 373.241009 139.650098 
L 373.360558 139.057261 
L 373.627195 139.057261 
L 373.748807 138.464424 
L 373.893393 138.464424 
L 374.01544 137.871586 
L 374.431064 137.871586 
L 374.459377 137.278749 
L 374.518448 137.871586 
L 374.65146 137.871586 
L 374.783179 137.278749 
L 374.970705 137.278749 
L 375.035376 136.685912 
L 375.06461 137.278749 
L 375.177642 137.871586 
L 375.295335 137.278749 
L 375.380529 137.278749 
L 375.40866 136.685912 
L 375.470641 137.278749 
L 375.532223 136.685912 
L 375.593593 137.871586 
L 375.689073 137.871586 
L 375.717164 138.464424 
L 375.749824 137.871586 
L 375.875472 137.871586 
L 376.0013 137.278749 
L 376.062832 137.278749 
L 376.090992 136.685912 
L 376.119114 137.871586 
L 376.206044 138.464424 
L 376.236515 137.871586 
L 376.304584 138.464424 
L 376.332785 138.464424 
L 376.421127 137.871586 
L 376.536481 138.464424 
L 376.656159 137.871586 
L 376.743626 137.871586 
L 376.870203 138.464424 
L 377.015143 138.464424 
L 377.130949 137.871586 
L 377.246998 137.871586 
L 377.277645 138.464424 
L 377.307264 137.278749 
L 377.344873 137.871586 
L 377.374905 137.871586 
L 377.465575 138.464424 
L 377.641182 136.685912 
L 377.678635 136.685912 
L 377.736494 130.164702 
L 377.796491 134.314563 
L 377.825005 133.721726 
L 377.85428 134.314563 
L 378.000627 137.278749 
L 378.057841 137.278749 
L 378.175617 137.871586 
L 378.265654 137.871586 
L 378.382032 138.464424 
L 378.41166 138.464424 
L 378.529449 137.871586 
L 379.002735 137.871586 
L 379.031932 138.464424 
L 379.088952 137.871586 
L 379.263145 137.871586 
L 379.294388 138.464424 
L 379.354542 137.871586 
L 379.442366 136.685912 
L 379.47216 137.278749 
L 379.587477 137.871586 
L 379.703893 137.278749 
L 379.789107 137.278749 
L 379.905515 136.685912 
L 380.025088 136.685912 
L 380.091621 136.093075 
L 380.236226 137.871586 
L 380.393897 136.685912 
L 380.423102 136.685912 
L 380.4827 134.314563 
L 380.512612 134.9074 
L 380.618255 136.093075 
L 380.976862 134.9074 
L 381.041117 136.093075 
L 381.143875 136.093075 
L 381.294394 129.571865 
L 381.390748 131.350376 
L 381.546434 134.314563 
L 381.585488 134.314563 
L 381.717305 134.9074 
L 381.804126 134.9074 
L 381.88943 134.314563 
L 382.123905 136.093075 
L 382.195083 134.9074 
L 382.228495 136.093075 
L 382.260452 136.093075 
L 382.407043 134.314563 
L 382.501247 136.093075 
L 382.587831 136.093075 
L 382.731034 137.278749 
L 382.765099 137.278749 
L 382.841694 136.093075 
L 382.875536 137.278749 
L 382.985906 137.871586 
L 383.129975 136.685912 
L 383.198789 137.871586 
L 383.227938 136.685912 
L 383.450914 134.314563 
L 383.491753 134.9074 
L 383.531358 134.314563 
L 383.566414 134.314563 
L 383.59466 133.721726 
L 383.632272 134.9074 
L 383.677745 134.9074 
L 383.773635 133.721726 
L 383.885722 136.093075 
L 384.052805 136.093075 
L 384.164543 134.9074 
L 384.315338 136.093075 
L 384.45015 134.9074 
L 384.483625 134.9074 
L 384.517655 136.093075 
L 384.576596 134.9074 
L 384.60621 134.9074 
L 384.730677 136.093075 
L 384.762935 136.093075 
L 384.822532 134.9074 
L 384.857085 136.093075 
L 385.01638 136.093075 
L 385.15606 136.685912 
L 385.760794 136.685912 
L 385.80489 136.093075 
L 385.861722 136.685912 
L 385.963056 136.685912 
L 386.04327 137.278749 
L 386.143746 136.685912 
L 386.322872 136.685912 
L 386.451805 137.278749 
L 386.644976 137.278749 
L 386.673653 137.871586 
L 386.749942 137.278749 
L 386.781063 137.278749 
L 386.869777 136.685912 
L 386.972697 137.278749 
L 387.155146 136.685912 
L 387.365646 136.685912 
L 387.497958 137.278749 
L 387.944125 137.278749 
L 388.070134 137.871586 
L 388.320032 137.871586 
L 388.357904 138.464424 
L 388.422073 137.871586 
L 388.488844 137.871586 
L 388.610998 138.464424 
L 388.643071 138.464424 
L 388.673334 137.871586 
L 388.732489 138.464424 
L 388.999748 138.464424 
L 389.092316 137.871586 
L 389.210108 138.464424 
L 389.241024 138.464424 
L 389.358256 137.871586 
L 389.387269 137.871586 
L 389.525194 138.464424 
L 390.493471 138.464424 
L 390.62072 137.871586 
L 391.305872 137.871586 
L 391.334065 138.464424 
L 391.394095 137.871586 
L 391.870623 137.871586 
L 391.988788 138.464424 
L 392.121872 138.464424 
L 392.149989 137.871586 
L 392.213545 138.464424 
L 392.373845 138.464424 
L 392.406175 137.871586 
L 392.588295 138.464424 
L 392.86664 138.464424 
L 392.895717 139.057261 
L 392.954902 138.464424 
L 393.355122 138.464424 
L 393.392028 137.871586 
L 393.421232 138.464424 
L 393.593342 137.871586 
L 393.711662 138.464424 
L 393.739825 138.464424 
L 393.858298 137.871586 
L 393.915287 137.871586 
L 394.014515 138.464424 
L 394.133227 137.871586 
L 394.166327 137.871586 
L 394.194498 138.464424 
L 394.260768 137.871586 
L 394.406786 137.871586 
L 394.498342 138.464424 
L 394.59411 137.871586 
L 394.711738 138.464424 
L 394.82967 137.871586 
L 394.946392 138.464424 
L 395.074177 138.464424 
L 395.106222 137.871586 
L 395.163408 138.464424 
L 395.28075 138.464424 
L 395.310269 137.871586 
L 395.367937 138.464424 
L 395.834492 138.464424 
L 395.950793 139.057261 
L 396.067098 138.464424 
L 396.182386 139.057261 
L 396.302359 138.464424 
L 396.359636 139.057261 
L 396.388083 138.464424 
L 396.445573 138.464424 
L 396.572347 139.057261 
L 396.603253 139.057261 
L 396.717152 138.464424 
L 396.833627 139.057261 
L 396.892031 139.057261 
L 396.920247 138.464424 
L 396.976589 139.057261 
L 397.906957 139.057261 
L 398.020207 139.650098 
L 398.106199 139.650098 
L 398.136552 139.057261 
L 398.193261 139.650098 
L 398.222296 139.650098 
L 398.251553 139.057261 
L 398.310075 139.650098 
L 399.897661 139.650098 
L 399.925884 140.242935 
L 399.983898 139.650098 
L 400.446735 139.650098 
L 400.50595 140.242935 
L 400.534305 139.650098 
L 400.938806 139.650098 
L 401.052047 140.242935 
L 401.138335 139.650098 
L 401.253773 140.242935 
L 401.31328 139.650098 
L 401.341453 140.242935 
L 401.399242 140.242935 
L 401.517567 139.650098 
L 401.635089 140.242935 
L 401.664069 139.650098 
L 401.72264 140.242935 
L 401.752033 140.242935 
L 401.78025 139.650098 
L 401.838446 140.242935 
L 401.962049 140.242935 
L 402.018967 139.650098 
L 402.047037 140.242935 
L 402.07636 140.242935 
L 402.16187 139.650098 
L 402.27604 140.242935 
L 403.9523 140.242935 
L 404.039686 140.835773 
L 404.153488 140.242935 
L 404.209846 140.242935 
L 404.323289 140.835773 
L 404.408028 140.835773 
L 404.52052 140.242935 
L 404.549884 140.242935 
L 404.662509 140.835773 
L 404.803935 140.835773 
L 404.918179 142.021447 
L 405.032171 140.835773 
L 405.771471 140.835773 
L 405.857377 142.021447 
L 405.885599 140.835773 
L 405.94189 142.021447 
L 406.827998 142.021447 
L 406.918924 140.835773 
L 406.977705 142.021447 
L 407.006777 140.835773 
L 407.035636 140.835773 
L 407.130023 142.021447 
L 407.21625 140.835773 
L 407.313492 142.021447 
L 407.44009 140.835773 
L 407.469043 142.021447 
L 407.52894 140.835773 
L 407.713689 140.835773 
L 407.745167 142.021447 
L 407.805062 140.835773 
L 407.893736 140.835773 
L 408.007814 142.021447 
L 408.064599 142.021447 
L 408.183704 140.835773 
L 408.270207 140.835773 
L 408.383211 142.021447 
L 408.444095 142.021447 
L 408.558259 140.835773 
L 408.899823 140.835773 
L 409.013837 140.242935 
L 409.307835 140.242935 
L 409.42052 139.650098 
L 409.506481 139.650098 
L 409.534974 140.242935 
L 409.592418 139.650098 
L 409.798915 139.650098 
L 409.830668 140.242935 
L 409.890739 139.650098 
L 410.009847 139.650098 
L 410.039168 139.057261 
L 410.097011 139.650098 
L 410.360108 139.650098 
L 410.38869 139.057261 
L 410.445087 139.650098 
L 410.533549 139.650098 
L 410.654129 139.057261 
L 410.831881 139.057261 
L 410.891548 138.464424 
L 410.919752 139.057261 
L 410.951451 139.057261 
L 411.067698 138.464424 
L 411.281655 138.464424 
L 411.397552 137.871586 
L 411.627423 137.871586 
L 411.742505 137.278749 
L 411.770676 137.278749 
L 411.883691 136.685912 
L 411.941189 136.685912 
L 412.029705 137.278749 
L 412.122449 136.685912 
L 412.330969 136.685912 
L 412.420848 134.314563 
L 412.470673 134.9074 
L 412.664121 133.128888 
L 412.736532 133.128888 
L 412.794084 132.536051 
L 412.822276 133.128888 
L 413.060023 133.128888 
L 413.178509 132.536051 
L 413.264073 133.128888 
L 413.293517 132.536051 
L 413.321736 133.128888 
L 413.350955 133.721726 
L 413.410717 133.128888 
L 413.472712 133.128888 
L 413.651293 128.979027 
L 413.712241 132.536051 
L 413.778192 131.350376 
L 413.83577 130.164702 
L 413.864062 133.128888 
L 413.923087 129.571865 
L 414.163 132.536051 
L 414.308935 131.350376 
L 414.33714 131.943214 
L 414.368061 131.350376 
L 414.482307 130.164702 
L 414.610441 132.536051 
L 414.669213 132.536051 
L 414.73054 133.128888 
L 414.758702 131.943214 
L 414.788654 134.9074 
L 414.915405 134.314563 
L 415.031672 134.9074 
L 415.323104 134.9074 
L 415.473978 131.943214 
L 415.568859 134.314563 
L 415.597927 128.38619 
L 415.656504 131.943214 
L 415.773878 134.314563 
L 415.813205 134.9074 
L 415.870836 134.314563 
L 415.899156 133.721726 
L 415.928388 134.9074 
L 415.957914 134.9074 
L 416.075933 134.314563 
L 416.223374 134.314563 
L 416.252591 134.9074 
L 416.310139 134.314563 
L 416.338299 134.314563 
L 416.453676 134.9074 
L 416.598006 134.9074 
L 416.711008 134.314563 
L 416.768695 134.314563 
L 416.872849 134.9074 
L 416.998028 134.314563 
L 417.511503 134.314563 
L 417.638754 133.128888 
L 417.702174 133.721726 
L 417.741955 133.721726 
L 417.913649 132.536051 
L 417.943458 131.350376 
L 417.981682 133.128888 
L 418.013784 132.536051 
L 418.045428 132.536051 
L 418.084996 133.128888 
L 418.151273 132.536051 
L 418.273549 131.350376 
L 418.333567 131.943214 
L 418.424562 131.350376 
L 418.512446 133.128888 
L 418.717741 129.571865 
L 418.868849 133.721726 
L 418.898399 131.943214 
L 418.978575 133.721726 
L 419.045584 132.536051 
L 419.174047 123.643492 
L 419.44345 129.571865 
L 419.473228 129.571865 
L 419.518527 128.38619 
L 419.596813 131.943214 
L 419.636512 129.571865 
L 419.665932 131.350376 
L 419.702052 129.571865 
L 419.870329 129.571865 
L 420.093733 132.536051 
L 420.170492 128.38619 
L 420.257173 128.979027 
L 420.293533 128.38619 
L 420.459297 130.164702 
L 420.497376 129.571865 
L 420.629332 128.38619 
L 420.849354 131.350376 
L 420.982362 129.571865 
L 421.014334 131.350376 
L 421.047236 128.979027 
L 421.076466 129.571865 
L 421.221468 128.979027 
L 421.253482 127.200516 
L 421.289648 128.38619 
L 421.391782 128.38619 
L 421.63225 130.164702 
L 421.731888 131.350376 
L 421.859527 131.350376 
L 421.900608 129.571865 
L 421.938122 130.164702 
L 422.092004 130.164702 
L 422.156597 129.571865 
L 422.185859 130.164702 
L 422.329263 130.164702 
L 422.361191 129.571865 
L 422.554483 130.164702 
L 422.713332 129.571865 
L 422.820434 129.571865 
L 422.8873 130.164702 
L 422.91808 129.571865 
L 423.022197 130.164702 
L 423.053434 128.979027 
L 423.090569 131.350376 
L 423.133723 130.164702 
L 423.281652 129.571865 
L 423.398523 130.164702 
L 423.542256 127.793353 
L 423.604058 128.38619 
L 423.849523 131.943214 
L 423.978478 131.943214 
L 424.110037 131.350376 
L 424.233329 132.536051 
L 424.304043 131.943214 
L 424.332189 132.536051 
L 424.370427 132.536051 
L 424.402958 131.943214 
L 424.464142 132.536051 
L 424.494393 132.536051 
L 424.580125 133.128888 
L 424.60946 131.943214 
L 424.704335 133.128888 
L 425.38731 133.128888 
L 425.477009 131.943214 
L 425.554435 133.128888 
L 425.601029 132.536051 
L 425.629206 132.536051 
L 425.761273 133.128888 
L 425.911055 133.128888 
L 426.035708 131.350376 
L 426.064803 132.536051 
L 426.095642 132.536051 
L 426.124283 133.128888 
L 426.156215 132.536051 
L 426.370902 130.164702 
L 426.407563 130.164702 
L 426.501011 131.943214 
L 426.550632 131.350376 
L 426.783183 132.536051 
L 427.469567 132.536051 
L 427.669754 131.350376 
L 427.894922 131.350376 
L 428.044001 129.571865 
L 429.201274 129.571865 
L 429.317175 130.164702 
L 429.40499 129.571865 
L 429.518437 130.164702 
L 430.552644 130.164702 
L 430.582086 131.350376 
L 430.642264 130.164702 
L 430.699117 130.164702 
L 430.787088 131.350376 
L 430.90161 130.164702 
L 431.016125 131.350376 
L 431.131101 130.164702 
L 431.159529 130.164702 
L 431.218243 131.350376 
L 431.254272 130.164702 
L 431.282456 130.164702 
L 431.401385 131.350376 
L 431.575455 131.350376 
L 431.575455 131.350376 
" style="fill:none;stroke:#1f77b4;stroke-linecap:square;stroke-width:1.5;"/>
   </g>
   <g id="line2d_36">
    <path clip-path="url(#peab30dab2f)" d="M 63.084545 184.112893 
L 65.730863 184.112893 
L 65.847933 160.992239 
L 68.747746 160.992239 
L 68.861883 167.513449 
L 70.776097 167.513449 
L 70.889907 178.777357 
L 71.879097 178.777357 
L 71.992669 190.634102 
L 72.653768 190.634102 
L 145.259437 107.636886 
L 149.072334 107.636886 
L 149.188251 119.493631 
L 150.814286 119.493631 
L 150.930376 130.757539 
L 152.403683 130.757539 
L 152.51792 160.992239 
L 154.714344 160.992239 
L 154.8295 178.777357 
L 155.662067 178.777357 
L 269.380907 114.158096 
L 270.362266 114.158096 
L 270.478188 137.278749 
L 271.944428 137.278749 
L 272.062269 160.992239 
L 275.255667 160.992239 
L 275.370426 172.848985 
L 278.519165 172.848985 
L 278.634227 178.777357 
L 280.572179 178.777357 
L 280.686618 184.112893 
L 281.856002 184.112893 
L 281.975103 195.969638 
L 283.327543 195.969638 
L 283.440882 202.490848 
L 284.323164 202.490848 
L 284.446432 191.819777 
L 285.056947 191.819777 
L 285.172531 195.969638 
L 286.514065 195.969638 
L 286.572237 190.634102 
L 290.624717 190.634102 
L 290.775663 191.819777 
L 291.64099 191.819777 
L 291.768138 190.634102 
L 293.135673 190.634102 
L 293.253373 184.112893 
L 296.425656 184.112893 
L 296.541846 178.777357 
L 298.244097 178.777357 
L 298.360077 172.848985 
L 299.251878 172.848985 
L 299.368807 170.477636 
L 299.683661 170.477636 
L 299.805607 167.513449 
L 303.024192 167.513449 
L 303.139646 160.992239 
L 308.261901 160.992239 
L 308.378359 170.477636 
L 309.842967 170.477636 
L 309.970163 172.848985 
L 311.00471 172.848985 
L 311.123844 170.477636 
L 311.298696 170.477636 
L 311.421607 172.848985 
L 315.569073 172.848985 
L 315.68473 170.477636 
L 316.146061 170.477636 
L 316.261899 172.848985 
L 317.74696 172.848985 
L 317.861429 178.777357 
L 318.618373 178.777357 
L 318.706081 191.819777 
L 319.45773 191.819777 
L 319.574964 195.969638 
L 319.874457 195.969638 
L 319.98989 202.490848 
L 326.562293 202.490848 
L 326.68106 191.819777 
L 328.017551 191.819777 
L 328.132071 202.490848 
L 329.328335 202.490848 
L 329.467298 190.634102 
L 330.896345 190.634102 
L 331.037817 184.112893 
L 331.631831 184.112893 
L 331.744653 181.148706 
L 332.484489 181.148706 
L 332.607324 178.777357 
L 334.691262 178.777357 
L 334.806219 172.848985 
L 335.825321 172.848985 
L 335.938687 167.513449 
L 337.399934 167.513449 
L 337.534225 172.848985 
L 338.97251 172.848985 
L 339.152624 160.992239 
L 342.527212 160.992239 
L 342.65119 155.656704 
L 347.239319 155.656704 
L 347.396527 160.992239 
L 348.699769 160.992239 
L 348.832788 184.112893 
L 350.731844 184.112893 
L 350.862118 195.969638 
L 352.342722 195.969638 
L 352.463704 214.347593 
L 354.256775 214.347593 
L 354.39792 223.832989 
L 356.432198 223.832989 
L 356.544927 234.50406 
L 359.165277 234.50406 
L 359.281204 223.832989 
L 360.753729 223.832989 
L 360.867979 226.204338 
L 362.744921 226.204338 
L 362.858403 223.832989 
L 363.45956 223.832989 
L 363.575163 226.204338 
L 366.198125 226.204338 
L 366.313569 232.132711 
L 371.001502 232.132711 
L 371.117041 223.832989 
L 372.654311 223.832989 
L 372.775616 213.161918 
L 374.487578 213.161918 
L 374.62329 181.148706 
L 375.234325 181.148706 
L 375.352255 172.848985 
L 376.802302 172.848985 
L 376.9278 137.278749 
L 378.353585 137.278749 
L 378.471106 114.158096 
L 380.236226 114.158096 
L 380.363697 102.301351 
L 381.773645 102.301351 
L 381.88943 89.258931 
L 383.350458 89.258931 
L 383.450914 95.780141 
L 384.791135 95.780141 
L 384.921046 107.636886 
L 387.944125 107.636886 
L 388.070134 125.422004 
L 388.357904 125.422004 
L 388.488844 155.656704 
L 390.393645 155.656704 
L 390.530399 167.513449 
L 391.424786 167.513449 
L 391.547348 172.848985 
L 393.012504 172.848985 
L 393.147549 184.112893 
L 394.740975 184.112893 
L 394.859972 190.634102 
L 396.603253 190.634102 
L 396.717152 202.490848 
L 397.468338 202.490848 
L 397.586196 223.832989 
L 398.485832 223.832989 
L 398.601858 214.347593 
L 398.920997 214.347593 
L 399.034563 223.832989 
L 401.196114 223.832989 
L 401.31328 226.204338 
L 402.047037 226.204338 
L 402.16187 223.832989 
L 402.909393 223.832989 
L 403.024373 237.468246 
L 405.345834 237.468246 
L 405.460091 245.17513 
L 405.630343 245.17513 
L 405.743287 234.50406 
L 406.064026 234.50406 
L 406.177162 237.468246 
L 408.036094 237.468246 
L 408.155506 214.347593 
L 409.620659 214.347593 
L 409.740481 190.634102 
L 411.339165 190.634102 
L 411.454746 149.135494 
L 412.884096 149.135494 
L 413.003606 114.158096 
L 414.45316 114.158096 
L 414.580186 83.923396 
L 416.137421 83.923396 
L 416.252591 66.138278 
L 417.83262 66.138278 
L 417.981682 54.281533 
L 419.37061 54.281533 
L 419.518527 35.903578 
L 421.107274 35.903578 
L 421.289648 42.424787 
L 424.146282 42.424787 
L 424.332189 72.06665 
L 425.847013 72.06665 
L 425.911055 95.780141 
L 427.498705 95.780141 
L 427.631857 125.422004 
L 430.524507 125.422004 
L 430.642264 137.278749 
L 430.815399 137.278749 
L 430.931262 155.656704 
L 431.575455 155.656704 
L 431.575455 155.656704 
" style="fill:none;stroke:#ff7f0e;stroke-linecap:square;stroke-width:1.5;"/>
   </g>
   <g id="patch_3">
    <path d="M 44.66 255.638708 
L 44.66 25.44 
" style="fill:none;stroke:#000000;stroke-linecap:square;stroke-linejoin:miter;stroke-width:0.8;"/>
   </g>
   <g id="patch_4">
    <path d="M 450 255.638708 
L 450 25.44 
" style="fill:none;stroke:#000000;stroke-linecap:square;stroke-linejoin:miter;stroke-width:0.8;"/>
   </g>
   <g id="patch_5">
    <path d="M 44.66 255.638708 
L 450 255.638708 
" style="fill:none;stroke:#000000;stroke-linecap:square;stroke-linejoin:miter;stroke-width:0.8;"/>
   </g>
   <g id="patch_6">
    <path d="M 44.66 25.44 
L 450 25.44 
" style="fill:none;stroke:#000000;stroke-linecap:square;stroke-linejoin:miter;stroke-width:0.8;"/>
   </g>
   <g id="text_20">
    <!-- Lake Shoecraft - Water and Air Temperature -->
    <g transform="translate(115.711562 19.44)scale(0.12 -0.12)">
     <defs>
      <path d="M 9.8125 72.90625 
L 19.671875 72.90625 
L 19.671875 8.296875 
L 55.171875 8.296875 
L 55.171875 0 
L 9.8125 0 
z
" id="DejaVuSans-76"/>
      <path d="M 9.078125 75.984375 
L 18.109375 75.984375 
L 18.109375 31.109375 
L 44.921875 54.6875 
L 56.390625 54.6875 
L 27.390625 29.109375 
L 57.625 0 
L 45.90625 0 
L 18.109375 26.703125 
L 18.109375 0 
L 9.078125 0 
z
" id="DejaVuSans-107"/>
      <path d="M 53.515625 70.515625 
L 53.515625 60.890625 
Q 47.90625 63.578125 42.921875 64.890625 
Q 37.9375 66.21875 33.296875 66.21875 
Q 25.25 66.21875 20.875 63.09375 
Q 16.5 59.96875 16.5 54.203125 
Q 16.5 49.359375 19.40625 46.890625 
Q 22.3125 44.4375 30.421875 42.921875 
L 36.375 41.703125 
Q 47.40625 39.59375 52.65625 34.296875 
Q 57.90625 29 57.90625 20.125 
Q 57.90625 9.515625 50.796875 4.046875 
Q 43.703125 -1.421875 29.984375 -1.421875 
Q 24.8125 -1.421875 18.96875 -0.25 
Q 13.140625 0.921875 6.890625 3.21875 
L 6.890625 13.375 
Q 12.890625 10.015625 18.65625 8.296875 
Q 24.421875 6.59375 29.984375 6.59375 
Q 38.421875 6.59375 43.015625 9.90625 
Q 47.609375 13.234375 47.609375 19.390625 
Q 47.609375 24.75 44.3125 27.78125 
Q 41.015625 30.8125 33.5 32.328125 
L 27.484375 33.5 
Q 16.453125 35.6875 11.515625 40.375 
Q 6.59375 45.0625 6.59375 53.421875 
Q 6.59375 63.09375 13.40625 68.65625 
Q 20.21875 74.21875 32.171875 74.21875 
Q 37.3125 74.21875 42.625 73.28125 
Q 47.953125 72.359375 53.515625 70.515625 
z
" id="DejaVuSans-83"/>
      <path d="M 54.890625 33.015625 
L 54.890625 0 
L 45.90625 0 
L 45.90625 32.71875 
Q 45.90625 40.484375 42.875 44.328125 
Q 39.84375 48.1875 33.796875 48.1875 
Q 26.515625 48.1875 22.3125 43.546875 
Q 18.109375 38.921875 18.109375 30.90625 
L 18.109375 0 
L 9.078125 0 
L 9.078125 75.984375 
L 18.109375 75.984375 
L 18.109375 46.1875 
Q 21.34375 51.125 25.703125 53.5625 
Q 30.078125 56 35.796875 56 
Q 45.21875 56 50.046875 50.171875 
Q 54.890625 44.34375 54.890625 33.015625 
z
" id="DejaVuSans-104"/>
      <path d="M 30.609375 48.390625 
Q 23.390625 48.390625 19.1875 42.75 
Q 14.984375 37.109375 14.984375 27.296875 
Q 14.984375 17.484375 19.15625 11.84375 
Q 23.34375 6.203125 30.609375 6.203125 
Q 37.796875 6.203125 41.984375 11.859375 
Q 46.1875 17.53125 46.1875 27.296875 
Q 46.1875 37.015625 41.984375 42.703125 
Q 37.796875 48.390625 30.609375 48.390625 
z
M 30.609375 56 
Q 42.328125 56 49.015625 48.375 
Q 55.71875 40.765625 55.71875 27.296875 
Q 55.71875 13.875 49.015625 6.21875 
Q 42.328125 -1.421875 30.609375 -1.421875 
Q 18.84375 -1.421875 12.171875 6.21875 
Q 5.515625 13.875 5.515625 27.296875 
Q 5.515625 40.765625 12.171875 48.375 
Q 18.84375 56 30.609375 56 
z
" id="DejaVuSans-111"/>
      <path d="M 48.78125 52.59375 
L 48.78125 44.1875 
Q 44.96875 46.296875 41.140625 47.34375 
Q 37.3125 48.390625 33.40625 48.390625 
Q 24.65625 48.390625 19.8125 42.84375 
Q 14.984375 37.3125 14.984375 27.296875 
Q 14.984375 17.28125 19.8125 11.734375 
Q 24.65625 6.203125 33.40625 6.203125 
Q 37.3125 6.203125 41.140625 7.25 
Q 44.96875 8.296875 48.78125 10.40625 
L 48.78125 2.09375 
Q 45.015625 0.34375 40.984375 -0.53125 
Q 36.96875 -1.421875 32.421875 -1.421875 
Q 20.0625 -1.421875 12.78125 6.34375 
Q 5.515625 14.109375 5.515625 27.296875 
Q 5.515625 40.671875 12.859375 48.328125 
Q 20.21875 56 33.015625 56 
Q 37.15625 56 41.109375 55.140625 
Q 45.0625 54.296875 48.78125 52.59375 
z
" id="DejaVuSans-99"/>
      <path d="M 37.109375 75.984375 
L 37.109375 68.5 
L 28.515625 68.5 
Q 23.6875 68.5 21.796875 66.546875 
Q 19.921875 64.59375 19.921875 59.515625 
L 19.921875 54.6875 
L 34.71875 54.6875 
L 34.71875 47.703125 
L 19.921875 47.703125 
L 19.921875 0 
L 10.890625 0 
L 10.890625 47.703125 
L 2.296875 47.703125 
L 2.296875 54.6875 
L 10.890625 54.6875 
L 10.890625 58.5 
Q 10.890625 67.625 15.140625 71.796875 
Q 19.390625 75.984375 28.609375 75.984375 
z
" id="DejaVuSans-102"/>
      <path d="M 3.328125 72.90625 
L 13.28125 72.90625 
L 28.609375 11.28125 
L 43.890625 72.90625 
L 54.984375 72.90625 
L 70.3125 11.28125 
L 85.59375 72.90625 
L 95.609375 72.90625 
L 77.296875 0 
L 64.890625 0 
L 49.515625 63.28125 
L 33.984375 0 
L 21.578125 0 
z
" id="DejaVuSans-87"/>
      <path d="M 54.890625 33.015625 
L 54.890625 0 
L 45.90625 0 
L 45.90625 32.71875 
Q 45.90625 40.484375 42.875 44.328125 
Q 39.84375 48.1875 33.796875 48.1875 
Q 26.515625 48.1875 22.3125 43.546875 
Q 18.109375 38.921875 18.109375 30.90625 
L 18.109375 0 
L 9.078125 0 
L 9.078125 54.6875 
L 18.109375 54.6875 
L 18.109375 46.1875 
Q 21.34375 51.125 25.703125 53.5625 
Q 30.078125 56 35.796875 56 
Q 45.21875 56 50.046875 50.171875 
Q 54.890625 44.34375 54.890625 33.015625 
z
" id="DejaVuSans-110"/>
      <path d="M 45.40625 46.390625 
L 45.40625 75.984375 
L 54.390625 75.984375 
L 54.390625 0 
L 45.40625 0 
L 45.40625 8.203125 
Q 42.578125 3.328125 38.25 0.953125 
Q 33.9375 -1.421875 27.875 -1.421875 
Q 17.96875 -1.421875 11.734375 6.484375 
Q 5.515625 14.40625 5.515625 27.296875 
Q 5.515625 40.1875 11.734375 48.09375 
Q 17.96875 56 27.875 56 
Q 33.9375 56 38.25 53.625 
Q 42.578125 51.265625 45.40625 46.390625 
z
M 14.796875 27.296875 
Q 14.796875 17.390625 18.875 11.75 
Q 22.953125 6.109375 30.078125 6.109375 
Q 37.203125 6.109375 41.296875 11.75 
Q 45.40625 17.390625 45.40625 27.296875 
Q 45.40625 37.203125 41.296875 42.84375 
Q 37.203125 48.484375 30.078125 48.484375 
Q 22.953125 48.484375 18.875 42.84375 
Q 14.796875 37.203125 14.796875 27.296875 
z
" id="DejaVuSans-100"/>
      <path d="M 34.1875 63.1875 
L 20.796875 26.90625 
L 47.609375 26.90625 
z
M 28.609375 72.90625 
L 39.796875 72.90625 
L 67.578125 0 
L 57.328125 0 
L 50.6875 18.703125 
L 17.828125 18.703125 
L 11.1875 0 
L 0.78125 0 
z
" id="DejaVuSans-65"/>
      <path d="M 9.421875 54.6875 
L 18.40625 54.6875 
L 18.40625 0 
L 9.421875 0 
z
M 9.421875 75.984375 
L 18.40625 75.984375 
L 18.40625 64.59375 
L 9.421875 64.59375 
z
" id="DejaVuSans-105"/>
     </defs>
     <use xlink:href="#DejaVuSans-76"/>
     <use x="55.712891" xlink:href="#DejaVuSans-97"/>
     <use x="116.992188" xlink:href="#DejaVuSans-107"/>
     <use x="171.277344" xlink:href="#DejaVuSans-101"/>
     <use x="232.800781" xlink:href="#DejaVuSans-32"/>
     <use x="264.587891" xlink:href="#DejaVuSans-83"/>
     <use x="328.064453" xlink:href="#DejaVuSans-104"/>
     <use x="391.443359" xlink:href="#DejaVuSans-111"/>
     <use x="452.625" xlink:href="#DejaVuSans-101"/>
     <use x="514.148438" xlink:href="#DejaVuSans-99"/>
     <use x="569.128906" xlink:href="#DejaVuSans-114"/>
     <use x="610.242188" xlink:href="#DejaVuSans-97"/>
     <use x="671.521484" xlink:href="#DejaVuSans-102"/>
     <use x="704.976562" xlink:href="#DejaVuSans-116"/>
     <use x="744.185547" xlink:href="#DejaVuSans-32"/>
     <use x="775.972656" xlink:href="#DejaVuSans-45"/>
     <use x="812.056641" xlink:href="#DejaVuSans-32"/>
     <use x="843.84375" xlink:href="#DejaVuSans-87"/>
     <use x="936.345703" xlink:href="#DejaVuSans-97"/>
     <use x="997.625" xlink:href="#DejaVuSans-116"/>
     <use x="1036.833984" xlink:href="#DejaVuSans-101"/>
     <use x="1098.357422" xlink:href="#DejaVuSans-114"/>
     <use x="1139.470703" xlink:href="#DejaVuSans-32"/>
     <use x="1171.257812" xlink:href="#DejaVuSans-97"/>
     <use x="1232.537109" xlink:href="#DejaVuSans-110"/>
     <use x="1295.916016" xlink:href="#DejaVuSans-100"/>
     <use x="1359.392578" xlink:href="#DejaVuSans-32"/>
     <use x="1391.179688" xlink:href="#DejaVuSans-65"/>
     <use x="1459.587891" xlink:href="#DejaVuSans-105"/>
     <use x="1487.371094" xlink:href="#DejaVuSans-114"/>
     <use x="1528.484375" xlink:href="#DejaVuSans-32"/>
     <use x="1560.271484" xlink:href="#DejaVuSans-84"/>
     <use x="1604.355469" xlink:href="#DejaVuSans-101"/>
     <use x="1665.878906" xlink:href="#DejaVuSans-109"/>
     <use x="1763.291016" xlink:href="#DejaVuSans-112"/>
     <use x="1826.767578" xlink:href="#DejaVuSans-101"/>
     <use x="1888.291016" xlink:href="#DejaVuSans-114"/>
     <use x="1929.404297" xlink:href="#DejaVuSans-97"/>
     <use x="1990.683594" xlink:href="#DejaVuSans-116"/>
     <use x="2029.892578" xlink:href="#DejaVuSans-117"/>
     <use x="2093.271484" xlink:href="#DejaVuSans-114"/>
     <use x="2132.134766" xlink:href="#DejaVuSans-101"/>
    </g>
   </g>
   <g id="legend_1">
    <g id="patch_7">
     <path d="M 51.66 62.79625 
L 136.769375 62.79625 
Q 138.769375 62.79625 138.769375 60.79625 
L 138.769375 32.44 
Q 138.769375 30.44 136.769375 30.44 
L 51.66 30.44 
Q 49.66 30.44 49.66 32.44 
L 49.66 60.79625 
Q 49.66 62.79625 51.66 62.79625 
z
" style="fill:#ffffff;opacity:0.8;stroke:#cccccc;stroke-linejoin:miter;"/>
    </g>
    <g id="line2d_37">
     <path d="M 53.66 38.538437 
L 73.66 38.538437 
" style="fill:none;stroke:#1f77b4;stroke-linecap:square;stroke-width:1.5;"/>
    </g>
    <g id="line2d_38"/>
    <g id="text_21">
     <!-- Lake Temp -->
     <g transform="translate(81.66 42.038437)scale(0.1 -0.1)">
      <use xlink:href="#DejaVuSans-76"/>
      <use x="55.712891" xlink:href="#DejaVuSans-97"/>
      <use x="116.992188" xlink:href="#DejaVuSans-107"/>
      <use x="171.277344" xlink:href="#DejaVuSans-101"/>
      <use x="232.800781" xlink:href="#DejaVuSans-32"/>
      <use x="264.587891" xlink:href="#DejaVuSans-84"/>
      <use x="308.671875" xlink:href="#DejaVuSans-101"/>
      <use x="370.195312" xlink:href="#DejaVuSans-109"/>
      <use x="467.607422" xlink:href="#DejaVuSans-112"/>
     </g>
    </g>
    <g id="line2d_39">
     <path d="M 53.66 53.216562 
L 73.66 53.216562 
" style="fill:none;stroke:#ff7f0e;stroke-linecap:square;stroke-width:1.5;"/>
    </g>
    <g id="line2d_40"/>
    <g id="text_22">
     <!-- Air Temp -->
     <g transform="translate(81.66 56.716562)scale(0.1 -0.1)">
      <use xlink:href="#DejaVuSans-65"/>
      <use x="68.408203" xlink:href="#DejaVuSans-105"/>
      <use x="96.191406" xlink:href="#DejaVuSans-114"/>
      <use x="137.304688" xlink:href="#DejaVuSans-32"/>
      <use x="169.091797" xlink:href="#DejaVuSans-84"/>
      <use x="213.175781" xlink:href="#DejaVuSans-101"/>
      <use x="274.699219" xlink:href="#DejaVuSans-109"/>
      <use x="372.111328" xlink:href="#DejaVuSans-112"/>
     </g>
    </g>
   </g>
  </g>
 </g>
 <defs>
  <clipPath id="peab30dab2f">
   <rect height="230.198708" width="405.34" x="44.66" y="25.44"/>
  </clipPath>
 </defs>
</svg>
