<?xml version="1.0" encoding="utf-8" standalone="no"?>
<!DOCTYPE svg PUBLIC "-//W3C//DTD SVG 1.1//EN"
  "http://www.w3.org/Graphics/SVG/1.1/DTD/svg11.dtd">
<!-- Created with matplotlib (https://matplotlib.org/) -->
<svg height="345.6pt" version="1.1" viewBox="0 0 460.8 345.6" width="460.8pt" xmlns="http://www.w3.org/2000/svg" xmlns:xlink="http://www.w3.org/1999/xlink">
 <metadata>
  <rdf:RDF xmlns:cc="http://creativecommons.org/ns#" xmlns:dc="http://purl.org/dc/elements/1.1/" xmlns:rdf="http://www.w3.org/1999/02/22-rdf-syntax-ns#">
   <cc:Work>
    <dc:type rdf:resource="http://purl.org/dc/dcmitype/StillImage"/>
    <dc:date>2024-11-17T13:53:58.454646</dc:date>
    <dc:format>image/svg+xml</dc:format>
    <dc:creator>
     <cc:Agent>
      <dc:title>Matplotlib v3.3.2, https://matplotlib.org/</dc:title>
     </cc:Agent>
    </dc:creator>
   </cc:Work>
  </rdf:RDF>
 </metadata>
 <defs>
  <style type="text/css">*{stroke-linecap:butt;stroke-linejoin:round;}</style>
 </defs>
 <g id="figure_1">
  <g id="patch_1">
   <path d="M 0 345.6 
L 460.8 345.6 
L 460.8 0 
L 0 0 
z
" style="fill:none;"/>
  </g>
  <g id="axes_1">
   <g id="patch_2">
    <path d="M 54.2 255.638708 
L 450 255.638708 
L 450 25.44 
L 54.2 25.44 
z
" style="fill:none;"/>
   </g>
   <g id="matplotlib.axis_1">
    <g id="xtick_1">
     <g id="line2d_1">
      <path clip-path="url(#p3eab22fcc0)" d="M 105.532142 255.638708 
L 105.532142 25.44 
" style="fill:none;stroke:#b0b0b0;stroke-linecap:square;stroke-width:0.8;"/>
     </g>
     <g id="line2d_2">
      <defs>
       <path d="M 0 0 
L 0 3.5 
" id="m3f46b95853" style="stroke:#000000;stroke-width:0.8;"/>
      </defs>
      <g>
       <use style="stroke:#000000;stroke-width:0.8;" x="105.532142" xlink:href="#m3f46b95853" y="255.638708"/>
      </g>
     </g>
     <g id="text_1">
      <!-- 2024-10-29 -->
      <g transform="translate(98.186749 319.848351)rotate(-70)scale(0.1 -0.1)">
       <defs>
        <path d="M 19.1875 8.296875 
L 53.609375 8.296875 
L 53.609375 0 
L 7.328125 0 
L 7.328125 8.296875 
Q 12.9375 14.109375 22.625 23.890625 
Q 32.328125 33.6875 34.8125 36.53125 
Q 39.546875 41.84375 41.421875 45.53125 
Q 43.3125 49.21875 43.3125 52.78125 
Q 43.3125 58.59375 39.234375 62.25 
Q 35.15625 65.921875 28.609375 65.921875 
Q 23.96875 65.921875 18.8125 64.3125 
Q 13.671875 62.703125 7.8125 59.421875 
L 7.8125 69.390625 
Q 13.765625 71.78125 18.9375 73 
Q 24.125 74.21875 28.421875 74.21875 
Q 39.75 74.21875 46.484375 68.546875 
Q 53.21875 62.890625 53.21875 53.421875 
Q 53.21875 48.921875 51.53125 44.890625 
Q 49.859375 40.875 45.40625 35.40625 
Q 44.1875 33.984375 37.640625 27.21875 
Q 31.109375 20.453125 19.1875 8.296875 
z
" id="DejaVuSans-50"/>
        <path d="M 31.78125 66.40625 
Q 24.171875 66.40625 20.328125 58.90625 
Q 16.5 51.421875 16.5 36.375 
Q 16.5 21.390625 20.328125 13.890625 
Q 24.171875 6.390625 31.78125 6.390625 
Q 39.453125 6.390625 43.28125 13.890625 
Q 47.125 21.390625 47.125 36.375 
Q 47.125 51.421875 43.28125 58.90625 
Q 39.453125 66.40625 31.78125 66.40625 
z
M 31.78125 74.21875 
Q 44.046875 74.21875 50.515625 64.515625 
Q 56.984375 54.828125 56.984375 36.375 
Q 56.984375 17.96875 50.515625 8.265625 
Q 44.046875 -1.421875 31.78125 -1.421875 
Q 19.53125 -1.421875 13.0625 8.265625 
Q 6.59375 17.96875 6.59375 36.375 
Q 6.59375 54.828125 13.0625 64.515625 
Q 19.53125 74.21875 31.78125 74.21875 
z
" id="DejaVuSans-48"/>
        <path d="M 37.796875 64.3125 
L 12.890625 25.390625 
L 37.796875 25.390625 
z
M 35.203125 72.90625 
L 47.609375 72.90625 
L 47.609375 25.390625 
L 58.015625 25.390625 
L 58.015625 17.1875 
L 47.609375 17.1875 
L 47.609375 0 
L 37.796875 0 
L 37.796875 17.1875 
L 4.890625 17.1875 
L 4.890625 26.703125 
z
" id="DejaVuSans-52"/>
        <path d="M 4.890625 31.390625 
L 31.203125 31.390625 
L 31.203125 23.390625 
L 4.890625 23.390625 
z
" id="DejaVuSans-45"/>
        <path d="M 12.40625 8.296875 
L 28.515625 8.296875 
L 28.515625 63.921875 
L 10.984375 60.40625 
L 10.984375 69.390625 
L 28.421875 72.90625 
L 38.28125 72.90625 
L 38.28125 8.296875 
L 54.390625 8.296875 
L 54.390625 0 
L 12.40625 0 
z
" id="DejaVuSans-49"/>
        <path d="M 10.984375 1.515625 
L 10.984375 10.5 
Q 14.703125 8.734375 18.5 7.8125 
Q 22.3125 6.890625 25.984375 6.890625 
Q 35.75 6.890625 40.890625 13.453125 
Q 46.046875 20.015625 46.78125 33.40625 
Q 43.953125 29.203125 39.59375 26.953125 
Q 35.25 24.703125 29.984375 24.703125 
Q 19.046875 24.703125 12.671875 31.3125 
Q 6.296875 37.9375 6.296875 49.421875 
Q 6.296875 60.640625 12.9375 67.421875 
Q 19.578125 74.21875 30.609375 74.21875 
Q 43.265625 74.21875 49.921875 64.515625 
Q 56.59375 54.828125 56.59375 36.375 
Q 56.59375 19.140625 48.40625 8.859375 
Q 40.234375 -1.421875 26.421875 -1.421875 
Q 22.703125 -1.421875 18.890625 -0.6875 
Q 15.09375 0.046875 10.984375 1.515625 
z
M 30.609375 32.421875 
Q 37.25 32.421875 41.125 36.953125 
Q 45.015625 41.5 45.015625 49.421875 
Q 45.015625 57.28125 41.125 61.84375 
Q 37.25 66.40625 30.609375 66.40625 
Q 23.96875 66.40625 20.09375 61.84375 
Q 16.21875 57.28125 16.21875 49.421875 
Q 16.21875 41.5 20.09375 36.953125 
Q 23.96875 32.421875 30.609375 32.421875 
z
" id="DejaVuSans-57"/>
       </defs>
       <use xlink:href="#DejaVuSans-50"/>
       <use x="63.623047" xlink:href="#DejaVuSans-48"/>
       <use x="127.246094" xlink:href="#DejaVuSans-50"/>
       <use x="190.869141" xlink:href="#DejaVuSans-52"/>
       <use x="254.492188" xlink:href="#DejaVuSans-45"/>
       <use x="290.576172" xlink:href="#DejaVuSans-49"/>
       <use x="354.199219" xlink:href="#DejaVuSans-48"/>
       <use x="417.822266" xlink:href="#DejaVuSans-45"/>
       <use x="453.90625" xlink:href="#DejaVuSans-50"/>
       <use x="517.529297" xlink:href="#DejaVuSans-57"/>
      </g>
     </g>
    </g>
    <g id="xtick_2">
     <g id="line2d_3">
      <path clip-path="url(#p3eab22fcc0)" d="M 155.556763 255.638708 
L 155.556763 25.44 
" style="fill:none;stroke:#b0b0b0;stroke-linecap:square;stroke-width:0.8;"/>
     </g>
     <g id="line2d_4">
      <g>
       <use style="stroke:#000000;stroke-width:0.8;" x="155.556763" xlink:href="#m3f46b95853" y="255.638708"/>
      </g>
     </g>
     <g id="text_2">
      <!-- 2024-11-01 -->
      <g transform="translate(148.211371 319.848351)rotate(-70)scale(0.1 -0.1)">
       <use xlink:href="#DejaVuSans-50"/>
       <use x="63.623047" xlink:href="#DejaVuSans-48"/>
       <use x="127.246094" xlink:href="#DejaVuSans-50"/>
       <use x="190.869141" xlink:href="#DejaVuSans-52"/>
       <use x="254.492188" xlink:href="#DejaVuSans-45"/>
       <use x="290.576172" xlink:href="#DejaVuSans-49"/>
       <use x="354.199219" xlink:href="#DejaVuSans-49"/>
       <use x="417.822266" xlink:href="#DejaVuSans-45"/>
       <use x="453.90625" xlink:href="#DejaVuSans-48"/>
       <use x="517.529297" xlink:href="#DejaVuSans-49"/>
      </g>
     </g>
    </g>
    <g id="xtick_3">
     <g id="line2d_5">
      <path clip-path="url(#p3eab22fcc0)" d="M 222.256258 255.638708 
L 222.256258 25.44 
" style="fill:none;stroke:#b0b0b0;stroke-linecap:square;stroke-width:0.8;"/>
     </g>
     <g id="line2d_6">
      <g>
       <use style="stroke:#000000;stroke-width:0.8;" x="222.256258" xlink:href="#m3f46b95853" y="255.638708"/>
      </g>
     </g>
     <g id="text_3">
      <!-- 2024-11-05 -->
      <g transform="translate(214.910865 319.848351)rotate(-70)scale(0.1 -0.1)">
       <defs>
        <path d="M 10.796875 72.90625 
L 49.515625 72.90625 
L 49.515625 64.59375 
L 19.828125 64.59375 
L 19.828125 46.734375 
Q 21.96875 47.46875 24.109375 47.828125 
Q 26.265625 48.1875 28.421875 48.1875 
Q 40.625 48.1875 47.75 41.5 
Q 54.890625 34.8125 54.890625 23.390625 
Q 54.890625 11.625 47.5625 5.09375 
Q 40.234375 -1.421875 26.90625 -1.421875 
Q 22.3125 -1.421875 17.546875 -0.640625 
Q 12.796875 0.140625 7.71875 1.703125 
L 7.71875 11.625 
Q 12.109375 9.234375 16.796875 8.0625 
Q 21.484375 6.890625 26.703125 6.890625 
Q 35.15625 6.890625 40.078125 11.328125 
Q 45.015625 15.765625 45.015625 23.390625 
Q 45.015625 31 40.078125 35.4375 
Q 35.15625 39.890625 26.703125 39.890625 
Q 22.75 39.890625 18.8125 39.015625 
Q 14.890625 38.140625 10.796875 36.28125 
z
" id="DejaVuSans-53"/>
       </defs>
       <use xlink:href="#DejaVuSans-50"/>
       <use x="63.623047" xlink:href="#DejaVuSans-48"/>
       <use x="127.246094" xlink:href="#DejaVuSans-50"/>
       <use x="190.869141" xlink:href="#DejaVuSans-52"/>
       <use x="254.492188" xlink:href="#DejaVuSans-45"/>
       <use x="290.576172" xlink:href="#DejaVuSans-49"/>
       <use x="354.199219" xlink:href="#DejaVuSans-49"/>
       <use x="417.822266" xlink:href="#DejaVuSans-45"/>
       <use x="453.90625" xlink:href="#DejaVuSans-48"/>
       <use x="517.529297" xlink:href="#DejaVuSans-53"/>
      </g>
     </g>
    </g>
    <g id="xtick_4">
     <g id="line2d_7">
      <path clip-path="url(#p3eab22fcc0)" d="M 288.955753 255.638708 
L 288.955753 25.44 
" style="fill:none;stroke:#b0b0b0;stroke-linecap:square;stroke-width:0.8;"/>
     </g>
     <g id="line2d_8">
      <g>
       <use style="stroke:#000000;stroke-width:0.8;" x="288.955753" xlink:href="#m3f46b95853" y="255.638708"/>
      </g>
     </g>
     <g id="text_4">
      <!-- 2024-11-09 -->
      <g transform="translate(281.61036 319.848351)rotate(-70)scale(0.1 -0.1)">
       <use xlink:href="#DejaVuSans-50"/>
       <use x="63.623047" xlink:href="#DejaVuSans-48"/>
       <use x="127.246094" xlink:href="#DejaVuSans-50"/>
       <use x="190.869141" xlink:href="#DejaVuSans-52"/>
       <use x="254.492188" xlink:href="#DejaVuSans-45"/>
       <use x="290.576172" xlink:href="#DejaVuSans-49"/>
       <use x="354.199219" xlink:href="#DejaVuSans-49"/>
       <use x="417.822266" xlink:href="#DejaVuSans-45"/>
       <use x="453.90625" xlink:href="#DejaVuSans-48"/>
       <use x="517.529297" xlink:href="#DejaVuSans-57"/>
      </g>
     </g>
    </g>
    <g id="xtick_5">
     <g id="line2d_9">
      <path clip-path="url(#p3eab22fcc0)" d="M 355.655248 255.638708 
L 355.655248 25.44 
" style="fill:none;stroke:#b0b0b0;stroke-linecap:square;stroke-width:0.8;"/>
     </g>
     <g id="line2d_10">
      <g>
       <use style="stroke:#000000;stroke-width:0.8;" x="355.655248" xlink:href="#m3f46b95853" y="255.638708"/>
      </g>
     </g>
     <g id="text_5">
      <!-- 2024-11-13 -->
      <g transform="translate(348.309855 319.848351)rotate(-70)scale(0.1 -0.1)">
       <defs>
        <path d="M 40.578125 39.3125 
Q 47.65625 37.796875 51.625 33 
Q 55.609375 28.21875 55.609375 21.1875 
Q 55.609375 10.40625 48.1875 4.484375 
Q 40.765625 -1.421875 27.09375 -1.421875 
Q 22.515625 -1.421875 17.65625 -0.515625 
Q 12.796875 0.390625 7.625 2.203125 
L 7.625 11.71875 
Q 11.71875 9.328125 16.59375 8.109375 
Q 21.484375 6.890625 26.8125 6.890625 
Q 36.078125 6.890625 40.9375 10.546875 
Q 45.796875 14.203125 45.796875 21.1875 
Q 45.796875 27.640625 41.28125 31.265625 
Q 36.765625 34.90625 28.71875 34.90625 
L 20.21875 34.90625 
L 20.21875 43.015625 
L 29.109375 43.015625 
Q 36.375 43.015625 40.234375 45.921875 
Q 44.09375 48.828125 44.09375 54.296875 
Q 44.09375 59.90625 40.109375 62.90625 
Q 36.140625 65.921875 28.71875 65.921875 
Q 24.65625 65.921875 20.015625 65.03125 
Q 15.375 64.15625 9.8125 62.3125 
L 9.8125 71.09375 
Q 15.4375 72.65625 20.34375 73.4375 
Q 25.25 74.21875 29.59375 74.21875 
Q 40.828125 74.21875 47.359375 69.109375 
Q 53.90625 64.015625 53.90625 55.328125 
Q 53.90625 49.265625 50.4375 45.09375 
Q 46.96875 40.921875 40.578125 39.3125 
z
" id="DejaVuSans-51"/>
       </defs>
       <use xlink:href="#DejaVuSans-50"/>
       <use x="63.623047" xlink:href="#DejaVuSans-48"/>
       <use x="127.246094" xlink:href="#DejaVuSans-50"/>
       <use x="190.869141" xlink:href="#DejaVuSans-52"/>
       <use x="254.492188" xlink:href="#DejaVuSans-45"/>
       <use x="290.576172" xlink:href="#DejaVuSans-49"/>
       <use x="354.199219" xlink:href="#DejaVuSans-49"/>
       <use x="417.822266" xlink:href="#DejaVuSans-45"/>
       <use x="453.90625" xlink:href="#DejaVuSans-49"/>
       <use x="517.529297" xlink:href="#DejaVuSans-51"/>
      </g>
     </g>
    </g>
    <g id="xtick_6">
     <g id="line2d_11">
      <path clip-path="url(#p3eab22fcc0)" d="M 422.354743 255.638708 
L 422.354743 25.44 
" style="fill:none;stroke:#b0b0b0;stroke-linecap:square;stroke-width:0.8;"/>
     </g>
     <g id="line2d_12">
      <g>
       <use style="stroke:#000000;stroke-width:0.8;" x="422.354743" xlink:href="#m3f46b95853" y="255.638708"/>
      </g>
     </g>
     <g id="text_6">
      <!-- 2024-11-17 -->
      <g transform="translate(415.00935 319.848351)rotate(-70)scale(0.1 -0.1)">
       <defs>
        <path d="M 8.203125 72.90625 
L 55.078125 72.90625 
L 55.078125 68.703125 
L 28.609375 0 
L 18.3125 0 
L 43.21875 64.59375 
L 8.203125 64.59375 
z
" id="DejaVuSans-55"/>
       </defs>
       <use xlink:href="#DejaVuSans-50"/>
       <use x="63.623047" xlink:href="#DejaVuSans-48"/>
       <use x="127.246094" xlink:href="#DejaVuSans-50"/>
       <use x="190.869141" xlink:href="#DejaVuSans-52"/>
       <use x="254.492188" xlink:href="#DejaVuSans-45"/>
       <use x="290.576172" xlink:href="#DejaVuSans-49"/>
       <use x="354.199219" xlink:href="#DejaVuSans-49"/>
       <use x="417.822266" xlink:href="#DejaVuSans-45"/>
       <use x="453.90625" xlink:href="#DejaVuSans-49"/>
       <use x="517.529297" xlink:href="#DejaVuSans-55"/>
      </g>
     </g>
    </g>
    <g id="text_7">
     <!-- Date -->
     <g transform="translate(240.149219 332.158083)scale(0.1 -0.1)">
      <defs>
       <path d="M 19.671875 64.796875 
L 19.671875 8.109375 
L 31.59375 8.109375 
Q 46.6875 8.109375 53.6875 14.9375 
Q 60.6875 21.78125 60.6875 36.53125 
Q 60.6875 51.171875 53.6875 57.984375 
Q 46.6875 64.796875 31.59375 64.796875 
z
M 9.8125 72.90625 
L 30.078125 72.90625 
Q 51.265625 72.90625 61.171875 64.09375 
Q 71.09375 55.28125 71.09375 36.53125 
Q 71.09375 17.671875 61.125 8.828125 
Q 51.171875 0 30.078125 0 
L 9.8125 0 
z
" id="DejaVuSans-68"/>
       <path d="M 34.28125 27.484375 
Q 23.390625 27.484375 19.1875 25 
Q 14.984375 22.515625 14.984375 16.5 
Q 14.984375 11.71875 18.140625 8.90625 
Q 21.296875 6.109375 26.703125 6.109375 
Q 34.1875 6.109375 38.703125 11.40625 
Q 43.21875 16.703125 43.21875 25.484375 
L 43.21875 27.484375 
z
M 52.203125 31.203125 
L 52.203125 0 
L 43.21875 0 
L 43.21875 8.296875 
Q 40.140625 3.328125 35.546875 0.953125 
Q 30.953125 -1.421875 24.3125 -1.421875 
Q 15.921875 -1.421875 10.953125 3.296875 
Q 6 8.015625 6 15.921875 
Q 6 25.140625 12.171875 29.828125 
Q 18.359375 34.515625 30.609375 34.515625 
L 43.21875 34.515625 
L 43.21875 35.40625 
Q 43.21875 41.609375 39.140625 45 
Q 35.0625 48.390625 27.6875 48.390625 
Q 23 48.390625 18.546875 47.265625 
Q 14.109375 46.140625 10.015625 43.890625 
L 10.015625 52.203125 
Q 14.9375 54.109375 19.578125 55.046875 
Q 24.21875 56 28.609375 56 
Q 40.484375 56 46.34375 49.84375 
Q 52.203125 43.703125 52.203125 31.203125 
z
" id="DejaVuSans-97"/>
       <path d="M 18.3125 70.21875 
L 18.3125 54.6875 
L 36.8125 54.6875 
L 36.8125 47.703125 
L 18.3125 47.703125 
L 18.3125 18.015625 
Q 18.3125 11.328125 20.140625 9.421875 
Q 21.96875 7.515625 27.59375 7.515625 
L 36.8125 7.515625 
L 36.8125 0 
L 27.59375 0 
Q 17.1875 0 13.234375 3.875 
Q 9.28125 7.765625 9.28125 18.015625 
L 9.28125 47.703125 
L 2.6875 47.703125 
L 2.6875 54.6875 
L 9.28125 54.6875 
L 9.28125 70.21875 
z
" id="DejaVuSans-116"/>
       <path d="M 56.203125 29.59375 
L 56.203125 25.203125 
L 14.890625 25.203125 
Q 15.484375 15.921875 20.484375 11.0625 
Q 25.484375 6.203125 34.421875 6.203125 
Q 39.59375 6.203125 44.453125 7.46875 
Q 49.3125 8.734375 54.109375 11.28125 
L 54.109375 2.78125 
Q 49.265625 0.734375 44.1875 -0.34375 
Q 39.109375 -1.421875 33.890625 -1.421875 
Q 20.796875 -1.421875 13.15625 6.1875 
Q 5.515625 13.8125 5.515625 26.8125 
Q 5.515625 40.234375 12.765625 48.109375 
Q 20.015625 56 32.328125 56 
Q 43.359375 56 49.78125 48.890625 
Q 56.203125 41.796875 56.203125 29.59375 
z
M 47.21875 32.234375 
Q 47.125 39.59375 43.09375 43.984375 
Q 39.0625 48.390625 32.421875 48.390625 
Q 24.90625 48.390625 20.390625 44.140625 
Q 15.875 39.890625 15.1875 32.171875 
z
" id="DejaVuSans-101"/>
      </defs>
      <use xlink:href="#DejaVuSans-68"/>
      <use x="77.001953" xlink:href="#DejaVuSans-97"/>
      <use x="138.28125" xlink:href="#DejaVuSans-116"/>
      <use x="177.490234" xlink:href="#DejaVuSans-101"/>
     </g>
    </g>
   </g>
   <g id="matplotlib.axis_2">
    <g id="ytick_1">
     <g id="line2d_13">
      <path clip-path="url(#p3eab22fcc0)" d="M 54.2 249.512365 
L 450 249.512365 
" style="fill:none;stroke:#b0b0b0;stroke-linecap:square;stroke-width:0.8;"/>
     </g>
     <g id="line2d_14">
      <defs>
       <path d="M 0 0 
L -3.5 0 
" id="mf34db8f5fa" style="stroke:#000000;stroke-width:0.8;"/>
      </defs>
      <g>
       <use style="stroke:#000000;stroke-width:0.8;" x="54.2" xlink:href="#mf34db8f5fa" y="249.512365"/>
      </g>
     </g>
     <g id="text_8">
      <!-- 37.5 -->
      <g transform="translate(24.934375 253.311583)scale(0.1 -0.1)">
       <defs>
        <path d="M 10.6875 12.40625 
L 21 12.40625 
L 21 0 
L 10.6875 0 
z
" id="DejaVuSans-46"/>
       </defs>
       <use xlink:href="#DejaVuSans-51"/>
       <use x="63.623047" xlink:href="#DejaVuSans-55"/>
       <use x="127.246094" xlink:href="#DejaVuSans-46"/>
       <use x="159.033203" xlink:href="#DejaVuSans-53"/>
      </g>
     </g>
    </g>
    <g id="ytick_2">
     <g id="line2d_15">
      <path clip-path="url(#p3eab22fcc0)" d="M 54.2 222.404651 
L 450 222.404651 
" style="fill:none;stroke:#b0b0b0;stroke-linecap:square;stroke-width:0.8;"/>
     </g>
     <g id="line2d_16">
      <g>
       <use style="stroke:#000000;stroke-width:0.8;" x="54.2" xlink:href="#mf34db8f5fa" y="222.404651"/>
      </g>
     </g>
     <g id="text_9">
      <!-- 40.0 -->
      <g transform="translate(24.934375 226.203869)scale(0.1 -0.1)">
       <use xlink:href="#DejaVuSans-52"/>
       <use x="63.623047" xlink:href="#DejaVuSans-48"/>
       <use x="127.246094" xlink:href="#DejaVuSans-46"/>
       <use x="159.033203" xlink:href="#DejaVuSans-48"/>
      </g>
     </g>
    </g>
    <g id="ytick_3">
     <g id="line2d_17">
      <path clip-path="url(#p3eab22fcc0)" d="M 54.2 195.296936 
L 450 195.296936 
" style="fill:none;stroke:#b0b0b0;stroke-linecap:square;stroke-width:0.8;"/>
     </g>
     <g id="line2d_18">
      <g>
       <use style="stroke:#000000;stroke-width:0.8;" x="54.2" xlink:href="#mf34db8f5fa" y="195.296936"/>
      </g>
     </g>
     <g id="text_10">
      <!-- 42.5 -->
      <g transform="translate(24.934375 199.096155)scale(0.1 -0.1)">
       <use xlink:href="#DejaVuSans-52"/>
       <use x="63.623047" xlink:href="#DejaVuSans-50"/>
       <use x="127.246094" xlink:href="#DejaVuSans-46"/>
       <use x="159.033203" xlink:href="#DejaVuSans-53"/>
      </g>
     </g>
    </g>
    <g id="ytick_4">
     <g id="line2d_19">
      <path clip-path="url(#p3eab22fcc0)" d="M 54.2 168.189222 
L 450 168.189222 
" style="fill:none;stroke:#b0b0b0;stroke-linecap:square;stroke-width:0.8;"/>
     </g>
     <g id="line2d_20">
      <g>
       <use style="stroke:#000000;stroke-width:0.8;" x="54.2" xlink:href="#mf34db8f5fa" y="168.189222"/>
      </g>
     </g>
     <g id="text_11">
      <!-- 45.0 -->
      <g transform="translate(24.934375 171.988441)scale(0.1 -0.1)">
       <use xlink:href="#DejaVuSans-52"/>
       <use x="63.623047" xlink:href="#DejaVuSans-53"/>
       <use x="127.246094" xlink:href="#DejaVuSans-46"/>
       <use x="159.033203" xlink:href="#DejaVuSans-48"/>
      </g>
     </g>
    </g>
    <g id="ytick_5">
     <g id="line2d_21">
      <path clip-path="url(#p3eab22fcc0)" d="M 54.2 141.081508 
L 450 141.081508 
" style="fill:none;stroke:#b0b0b0;stroke-linecap:square;stroke-width:0.8;"/>
     </g>
     <g id="line2d_22">
      <g>
       <use style="stroke:#000000;stroke-width:0.8;" x="54.2" xlink:href="#mf34db8f5fa" y="141.081508"/>
      </g>
     </g>
     <g id="text_12">
      <!-- 47.5 -->
      <g transform="translate(24.934375 144.880727)scale(0.1 -0.1)">
       <use xlink:href="#DejaVuSans-52"/>
       <use x="63.623047" xlink:href="#DejaVuSans-55"/>
       <use x="127.246094" xlink:href="#DejaVuSans-46"/>
       <use x="159.033203" xlink:href="#DejaVuSans-53"/>
      </g>
     </g>
    </g>
    <g id="ytick_6">
     <g id="line2d_23">
      <path clip-path="url(#p3eab22fcc0)" d="M 54.2 113.973794 
L 450 113.973794 
" style="fill:none;stroke:#b0b0b0;stroke-linecap:square;stroke-width:0.8;"/>
     </g>
     <g id="line2d_24">
      <g>
       <use style="stroke:#000000;stroke-width:0.8;" x="54.2" xlink:href="#mf34db8f5fa" y="113.973794"/>
      </g>
     </g>
     <g id="text_13">
      <!-- 50.0 -->
      <g transform="translate(24.934375 117.773013)scale(0.1 -0.1)">
       <use xlink:href="#DejaVuSans-53"/>
       <use x="63.623047" xlink:href="#DejaVuSans-48"/>
       <use x="127.246094" xlink:href="#DejaVuSans-46"/>
       <use x="159.033203" xlink:href="#DejaVuSans-48"/>
      </g>
     </g>
    </g>
    <g id="ytick_7">
     <g id="line2d_25">
      <path clip-path="url(#p3eab22fcc0)" d="M 54.2 86.86608 
L 450 86.86608 
" style="fill:none;stroke:#b0b0b0;stroke-linecap:square;stroke-width:0.8;"/>
     </g>
     <g id="line2d_26">
      <g>
       <use style="stroke:#000000;stroke-width:0.8;" x="54.2" xlink:href="#mf34db8f5fa" y="86.86608"/>
      </g>
     </g>
     <g id="text_14">
      <!-- 52.5 -->
      <g transform="translate(24.934375 90.665299)scale(0.1 -0.1)">
       <use xlink:href="#DejaVuSans-53"/>
       <use x="63.623047" xlink:href="#DejaVuSans-50"/>
       <use x="127.246094" xlink:href="#DejaVuSans-46"/>
       <use x="159.033203" xlink:href="#DejaVuSans-53"/>
      </g>
     </g>
    </g>
    <g id="ytick_8">
     <g id="line2d_27">
      <path clip-path="url(#p3eab22fcc0)" d="M 54.2 59.758366 
L 450 59.758366 
" style="fill:none;stroke:#b0b0b0;stroke-linecap:square;stroke-width:0.8;"/>
     </g>
     <g id="line2d_28">
      <g>
       <use style="stroke:#000000;stroke-width:0.8;" x="54.2" xlink:href="#mf34db8f5fa" y="59.758366"/>
      </g>
     </g>
     <g id="text_15">
      <!-- 55.0 -->
      <g transform="translate(24.934375 63.557585)scale(0.1 -0.1)">
       <use xlink:href="#DejaVuSans-53"/>
       <use x="63.623047" xlink:href="#DejaVuSans-53"/>
       <use x="127.246094" xlink:href="#DejaVuSans-46"/>
       <use x="159.033203" xlink:href="#DejaVuSans-48"/>
      </g>
     </g>
    </g>
    <g id="ytick_9">
     <g id="line2d_29">
      <path clip-path="url(#p3eab22fcc0)" d="M 54.2 32.650652 
L 450 32.650652 
" style="fill:none;stroke:#b0b0b0;stroke-linecap:square;stroke-width:0.8;"/>
     </g>
     <g id="line2d_30">
      <g>
       <use style="stroke:#000000;stroke-width:0.8;" x="54.2" xlink:href="#mf34db8f5fa" y="32.650652"/>
      </g>
     </g>
     <g id="text_16">
      <!-- 57.5 -->
      <g transform="translate(24.934375 36.449871)scale(0.1 -0.1)">
       <use xlink:href="#DejaVuSans-53"/>
       <use x="63.623047" xlink:href="#DejaVuSans-55"/>
       <use x="127.246094" xlink:href="#DejaVuSans-46"/>
       <use x="159.033203" xlink:href="#DejaVuSans-53"/>
      </g>
     </g>
    </g>
    <g id="text_17">
     <!-- Temperature [F] -->
     <g transform="translate(18.854688 180.575291)rotate(-90)scale(0.1 -0.1)">
      <defs>
       <path d="M -0.296875 72.90625 
L 61.375 72.90625 
L 61.375 64.59375 
L 35.5 64.59375 
L 35.5 0 
L 25.59375 0 
L 25.59375 64.59375 
L -0.296875 64.59375 
z
" id="DejaVuSans-84"/>
       <path d="M 52 44.1875 
Q 55.375 50.25 60.0625 53.125 
Q 64.75 56 71.09375 56 
Q 79.640625 56 84.28125 50.015625 
Q 88.921875 44.046875 88.921875 33.015625 
L 88.921875 0 
L 79.890625 0 
L 79.890625 32.71875 
Q 79.890625 40.578125 77.09375 44.375 
Q 74.3125 48.1875 68.609375 48.1875 
Q 61.625 48.1875 57.5625 43.546875 
Q 53.515625 38.921875 53.515625 30.90625 
L 53.515625 0 
L 44.484375 0 
L 44.484375 32.71875 
Q 44.484375 40.625 41.703125 44.40625 
Q 38.921875 48.1875 33.109375 48.1875 
Q 26.21875 48.1875 22.15625 43.53125 
Q 18.109375 38.875 18.109375 30.90625 
L 18.109375 0 
L 9.078125 0 
L 9.078125 54.6875 
L 18.109375 54.6875 
L 18.109375 46.1875 
Q 21.1875 51.21875 25.484375 53.609375 
Q 29.78125 56 35.6875 56 
Q 41.65625 56 45.828125 52.96875 
Q 50 49.953125 52 44.1875 
z
" id="DejaVuSans-109"/>
       <path d="M 18.109375 8.203125 
L 18.109375 -20.796875 
L 9.078125 -20.796875 
L 9.078125 54.6875 
L 18.109375 54.6875 
L 18.109375 46.390625 
Q 20.953125 51.265625 25.265625 53.625 
Q 29.59375 56 35.59375 56 
Q 45.5625 56 51.78125 48.09375 
Q 58.015625 40.1875 58.015625 27.296875 
Q 58.015625 14.40625 51.78125 6.484375 
Q 45.5625 -1.421875 35.59375 -1.421875 
Q 29.59375 -1.421875 25.265625 0.953125 
Q 20.953125 3.328125 18.109375 8.203125 
z
M 48.6875 27.296875 
Q 48.6875 37.203125 44.609375 42.84375 
Q 40.53125 48.484375 33.40625 48.484375 
Q 26.265625 48.484375 22.1875 42.84375 
Q 18.109375 37.203125 18.109375 27.296875 
Q 18.109375 17.390625 22.1875 11.75 
Q 26.265625 6.109375 33.40625 6.109375 
Q 40.53125 6.109375 44.609375 11.75 
Q 48.6875 17.390625 48.6875 27.296875 
z
" id="DejaVuSans-112"/>
       <path d="M 41.109375 46.296875 
Q 39.59375 47.171875 37.8125 47.578125 
Q 36.03125 48 33.890625 48 
Q 26.265625 48 22.1875 43.046875 
Q 18.109375 38.09375 18.109375 28.8125 
L 18.109375 0 
L 9.078125 0 
L 9.078125 54.6875 
L 18.109375 54.6875 
L 18.109375 46.1875 
Q 20.953125 51.171875 25.484375 53.578125 
Q 30.03125 56 36.53125 56 
Q 37.453125 56 38.578125 55.875 
Q 39.703125 55.765625 41.0625 55.515625 
z
" id="DejaVuSans-114"/>
       <path d="M 8.5 21.578125 
L 8.5 54.6875 
L 17.484375 54.6875 
L 17.484375 21.921875 
Q 17.484375 14.15625 20.5 10.265625 
Q 23.53125 6.390625 29.59375 6.390625 
Q 36.859375 6.390625 41.078125 11.03125 
Q 45.3125 15.671875 45.3125 23.6875 
L 45.3125 54.6875 
L 54.296875 54.6875 
L 54.296875 0 
L 45.3125 0 
L 45.3125 8.40625 
Q 42.046875 3.421875 37.71875 1 
Q 33.40625 -1.421875 27.6875 -1.421875 
Q 18.265625 -1.421875 13.375 4.4375 
Q 8.5 10.296875 8.5 21.578125 
z
M 31.109375 56 
z
" id="DejaVuSans-117"/>
       <path id="DejaVuSans-32"/>
       <path d="M 8.59375 75.984375 
L 29.296875 75.984375 
L 29.296875 69 
L 17.578125 69 
L 17.578125 -6.203125 
L 29.296875 -6.203125 
L 29.296875 -13.1875 
L 8.59375 -13.1875 
z
" id="DejaVuSans-91"/>
       <path d="M 9.8125 72.90625 
L 51.703125 72.90625 
L 51.703125 64.59375 
L 19.671875 64.59375 
L 19.671875 43.109375 
L 48.578125 43.109375 
L 48.578125 34.8125 
L 19.671875 34.8125 
L 19.671875 0 
L 9.8125 0 
z
" id="DejaVuSans-70"/>
       <path d="M 30.421875 75.984375 
L 30.421875 -13.1875 
L 9.71875 -13.1875 
L 9.71875 -6.203125 
L 21.390625 -6.203125 
L 21.390625 69 
L 9.71875 69 
L 9.71875 75.984375 
z
" id="DejaVuSans-93"/>
      </defs>
      <use xlink:href="#DejaVuSans-84"/>
      <use x="44.083984" xlink:href="#DejaVuSans-101"/>
      <use x="105.607422" xlink:href="#DejaVuSans-109"/>
      <use x="203.019531" xlink:href="#DejaVuSans-112"/>
      <use x="266.496094" xlink:href="#DejaVuSans-101"/>
      <use x="328.019531" xlink:href="#DejaVuSans-114"/>
      <use x="369.132812" xlink:href="#DejaVuSans-97"/>
      <use x="430.412109" xlink:href="#DejaVuSans-116"/>
      <use x="469.621094" xlink:href="#DejaVuSans-117"/>
      <use x="533" xlink:href="#DejaVuSans-114"/>
      <use x="571.863281" xlink:href="#DejaVuSans-101"/>
      <use x="633.386719" xlink:href="#DejaVuSans-32"/>
      <use x="665.173828" xlink:href="#DejaVuSans-91"/>
      <use x="704.1875" xlink:href="#DejaVuSans-70"/>
      <use x="761.707031" xlink:href="#DejaVuSans-93"/>
     </g>
    </g>
   </g>
   <g id="line2d_31">
    <path clip-path="url(#p3eab22fcc0)" d="M 72.190909 52.168206 
L 72.227198 52.168206 
L 72.239209 51.083898 
L 72.327385 52.168206 
L 73.736891 52.168206 
L 73.830467 53.252515 
L 73.843993 52.168206 
L 73.85917 52.168206 
L 73.970666 53.252515 
L 74.055734 52.168206 
L 74.079616 53.252515 
L 74.092015 53.252515 
L 74.168972 52.168206 
L 74.194706 53.252515 
L 74.206644 53.252515 
L 74.291666 52.168206 
L 74.315774 53.252515 
L 74.327749 53.252515 
L 74.451219 52.168206 
L 74.569098 53.252515 
L 74.652569 53.252515 
L 74.739254 52.168206 
L 74.763327 53.252515 
L 74.776019 53.252515 
L 74.789931 52.168206 
L 74.877119 53.252515 
L 75.3191 53.252515 
L 75.440225 54.336823 
L 75.560741 53.252515 
L 75.572677 53.252515 
L 75.621039 54.336823 
L 75.68243 53.252515 
L 75.706613 53.252515 
L 75.718864 54.336823 
L 75.815764 53.252515 
L 75.851988 53.252515 
L 75.961893 54.336823 
L 76.084171 53.252515 
L 76.120297 53.252515 
L 76.243256 54.336823 
L 76.291672 54.336823 
L 76.304718 53.252515 
L 76.391782 54.336823 
L 76.57227 54.336823 
L 76.673356 55.421132 
L 76.825276 55.421132 
L 76.947211 56.50544 
L 77.020278 56.50544 
L 77.142985 57.589749 
L 77.155239 57.589749 
L 77.276623 56.50544 
L 77.362 56.50544 
L 77.374015 55.421132 
L 77.470951 56.50544 
L 77.772287 56.50544 
L 77.882017 57.589749 
L 77.989953 56.50544 
L 78.111057 57.589749 
L 78.171665 57.589749 
L 78.25766 56.50544 
L 78.329359 57.589749 
L 78.365566 56.50544 
L 78.40185 56.50544 
L 78.471893 57.589749 
L 78.507848 56.50544 
L 78.54393 56.50544 
L 78.567921 57.589749 
L 78.652742 56.50544 
L 78.969559 56.50544 
L 78.981585 57.589749 
L 79.0783 56.50544 
L 79.151934 56.50544 
L 79.165489 57.589749 
L 79.25284 56.50544 
L 79.277182 56.50544 
L 79.289162 55.421132 
L 79.35051 57.589749 
L 79.387148 56.50544 
L 79.447275 56.50544 
L 79.544211 57.589749 
L 79.556279 56.50544 
L 79.580241 56.50544 
L 79.701821 57.589749 
L 79.822734 56.50544 
L 79.897042 56.50544 
L 79.981228 57.589749 
L 80.005919 56.50544 
L 80.220777 56.50544 
L 80.232772 55.421132 
L 80.307918 56.50544 
L 80.380283 56.50544 
L 80.477597 55.421132 
L 80.489771 56.50544 
L 80.527833 56.50544 
L 80.540322 55.421132 
L 80.637478 56.50544 
L 80.661556 56.50544 
L 80.747446 55.421132 
L 80.771808 56.50544 
L 80.93049 56.50544 
L 81.053095 55.421132 
L 81.10478 55.421132 
L 81.227482 56.50544 
L 81.239857 56.50544 
L 81.362853 55.421132 
L 81.485088 56.50544 
L 81.806578 56.50544 
L 81.906714 57.589749 
L 82.028456 56.50544 
L 83.186349 56.50544 
L 83.234768 55.421132 
L 83.295639 56.50544 
L 83.307616 56.50544 
L 83.368686 55.421132 
L 83.417186 56.50544 
L 83.621967 56.50544 
L 83.744695 57.589749 
L 83.756783 57.589749 
L 83.878377 56.50544 
L 83.976048 56.50544 
L 84.097401 57.589749 
L 84.255175 57.589749 
L 84.267149 56.50544 
L 84.353989 57.589749 
L 84.379477 57.589749 
L 84.392439 58.674057 
L 84.478299 57.589749 
L 84.491026 57.589749 
L 84.566006 58.674057 
L 84.601975 57.589749 
L 84.699681 57.589749 
L 84.809069 58.674057 
L 84.833048 57.589749 
L 84.918611 58.674057 
L 84.930792 58.674057 
L 85.039987 57.589749 
L 85.137276 58.674057 
L 85.149247 57.589749 
L 85.161346 57.589749 
L 85.282766 58.674057 
L 85.513935 58.674057 
L 85.550515 59.758366 
L 85.624078 58.674057 
L 85.636028 58.674057 
L 85.746646 59.758366 
L 85.869104 58.674057 
L 85.881113 58.674057 
L 85.954468 59.758366 
L 85.991507 58.674057 
L 86.00368 58.674057 
L 86.126134 59.758366 
L 86.247362 57.589749 
L 86.332701 58.674057 
L 86.356853 57.589749 
L 86.418782 57.589749 
L 86.540132 58.674057 
L 86.904131 58.674057 
L 87.026374 59.758366 
L 87.331536 59.758366 
L 87.427877 58.674057 
L 87.440058 59.758366 
L 87.512903 59.758366 
L 87.524881 58.674057 
L 87.622631 59.758366 
L 87.683696 59.758366 
L 87.708483 58.674057 
L 87.792747 59.758366 
L 87.889155 59.758366 
L 88.000633 58.674057 
L 88.012568 58.674057 
L 88.13327 59.758366 
L 88.497396 59.758366 
L 88.593898 61.926983 
L 88.606074 59.758366 
L 88.655318 59.758366 
L 88.77559 61.926983 
L 88.787571 61.926983 
L 88.907795 59.758366 
L 89.029076 61.926983 
L 89.113864 61.926983 
L 89.234489 59.758366 
L 89.355675 61.926983 
L 89.392001 61.926983 
L 89.501178 59.758366 
L 89.623397 61.926983 
L 89.913627 61.926983 
L 89.925803 59.758366 
L 90.023124 61.926983 
L 90.11948 61.926983 
L 90.240937 59.758366 
L 90.280451 61.926983 
L 90.340817 59.758366 
L 90.352829 59.758366 
L 90.40146 61.926983 
L 90.454466 59.758366 
L 90.629354 59.758366 
L 90.739579 61.926983 
L 90.861824 59.758366 
L 90.873801 59.758366 
L 90.996071 61.926983 
L 91.056887 59.758366 
L 91.105229 61.926983 
L 91.166137 61.926983 
L 91.190088 59.758366 
L 91.226529 63.011292 
L 91.27542 61.926983 
L 91.324655 61.926983 
L 91.336646 63.011292 
L 91.37321 59.758366 
L 91.433998 61.926983 
L 91.458359 61.926983 
L 91.58155 59.758366 
L 91.678802 59.758366 
L 91.691204 61.926983 
L 91.789413 59.758366 
L 91.825313 59.758366 
L 91.861352 58.674057 
L 91.934759 59.758366 
L 92.081 59.758366 
L 92.092952 61.926983 
L 92.19112 59.758366 
L 92.472032 59.758366 
L 92.54618 61.926983 
L 92.582303 59.758366 
L 92.79035 59.758366 
L 92.912671 61.926983 
L 93.157726 61.926983 
L 93.169722 59.758366 
L 93.266712 61.926983 
L 94.065009 61.926983 
L 94.127179 63.011292 
L 94.175478 61.926983 
L 94.212124 61.926983 
L 94.332949 63.011292 
L 94.442955 61.926983 
L 94.565365 63.011292 
L 94.589437 63.011292 
L 94.711435 61.926983 
L 94.750628 61.926983 
L 94.872691 63.011292 
L 94.897624 61.926983 
L 94.971633 63.011292 
L 95.020864 63.011292 
L 95.032841 61.926983 
L 95.120032 63.011292 
L 95.277021 63.011292 
L 95.388151 64.0956 
L 95.464824 64.0956 
L 95.564924 63.011292 
L 95.589267 64.0956 
L 95.662957 63.011292 
L 95.711458 61.926983 
L 95.771669 63.011292 
L 95.918166 63.011292 
L 96.015358 61.926983 
L 96.027689 63.011292 
L 96.125339 63.011292 
L 96.137294 61.926983 
L 96.234333 63.011292 
L 96.271216 63.011292 
L 96.283183 61.926983 
L 96.379708 63.011292 
L 96.428536 63.011292 
L 96.551019 61.926983 
L 96.659714 61.926983 
L 96.671682 63.011292 
L 96.768296 61.926983 
L 96.949489 61.926983 
L 97.070343 59.758366 
L 97.341651 59.758366 
L 97.35368 61.926983 
L 97.450386 59.758366 
L 97.607894 59.758366 
L 97.719536 58.674057 
L 97.73191 58.674057 
L 97.780917 59.758366 
L 97.841315 58.674057 
L 97.877523 58.674057 
L 97.986558 57.589749 
L 98.035271 58.674057 
L 98.096921 57.589749 
L 98.156975 57.589749 
L 98.279899 56.50544 
L 98.365271 56.50544 
L 98.486934 55.421132 
L 98.511047 55.421132 
L 98.624806 53.252515 
L 98.722863 54.336823 
L 98.73584 53.252515 
L 98.773533 54.336823 
L 98.811167 52.168206 
L 98.835867 53.252515 
L 98.860225 53.252515 
L 98.899901 51.083898 
L 98.974295 52.168206 
L 99.13479 52.168206 
L 99.247847 51.083898 
L 99.310199 52.168206 
L 99.285892 48.91528 
L 99.322513 51.083898 
L 99.334491 48.91528 
L 99.420147 53.252515 
L 99.444638 53.252515 
L 99.494021 54.336823 
L 99.469041 51.083898 
L 99.541889 52.168206 
L 99.554102 48.91528 
L 99.566111 54.336823 
L 99.640054 54.336823 
L 99.663964 54.336823 
L 99.676585 55.421132 
L 99.724746 53.252515 
L 99.761666 53.252515 
L 99.898035 47.830972 
L 99.922169 47.830972 
L 100.042409 48.91528 
L 100.103147 48.91528 
L 100.213113 51.083898 
L 100.32596 48.91528 
L 100.4483 51.083898 
L 100.460261 51.083898 
L 100.581894 52.168206 
L 100.695136 52.168206 
L 100.816713 53.252515 
L 101.013872 53.252515 
L 101.137073 54.336823 
L 101.173398 54.336823 
L 101.185622 53.252515 
L 101.281661 54.336823 
L 101.318612 54.336823 
L 101.440556 55.421132 
L 102.152308 55.421132 
L 102.164472 56.50544 
L 102.262378 55.421132 
L 102.274355 55.421132 
L 102.311195 56.50544 
L 102.373588 55.421132 
L 102.422876 55.421132 
L 102.545711 56.50544 
L 103.023813 56.50544 
L 103.145036 57.589749 
L 103.157325 57.589749 
L 103.243328 56.50544 
L 103.267342 57.589749 
L 103.427161 57.589749 
L 103.439825 58.674057 
L 103.527528 57.589749 
L 103.844495 57.589749 
L 103.942156 58.674057 
L 103.954253 57.589749 
L 103.990887 57.589749 
L 104.100654 58.674057 
L 104.210582 57.589749 
L 104.333261 58.674057 
L 104.345633 57.589749 
L 104.442788 58.674057 
L 104.614753 58.674057 
L 104.663006 57.589749 
L 104.724131 58.674057 
L 104.774531 58.674057 
L 104.89664 57.589749 
L 105.018215 58.674057 
L 105.662284 58.674057 
L 105.674263 57.589749 
L 105.770739 58.674057 
L 105.855254 58.674057 
L 105.86782 59.758366 
L 105.964181 58.674057 
L 106.255548 58.674057 
L 106.375448 59.758366 
L 106.459996 59.758366 
L 106.555821 58.674057 
L 106.568056 59.758366 
L 106.592011 59.758366 
L 106.67711 58.674057 
L 106.701104 59.758366 
L 106.883242 59.758366 
L 106.996124 61.926983 
L 107.044114 59.758366 
L 107.092286 61.926983 
L 107.196287 61.926983 
L 107.220731 59.758366 
L 107.305813 61.926983 
L 107.342155 61.926983 
L 107.439087 59.758366 
L 107.451301 61.926983 
L 107.463634 61.926983 
L 107.560608 59.758366 
L 107.572605 61.926983 
L 107.584897 61.926983 
L 107.707419 59.758366 
L 107.816518 59.758366 
L 107.828604 61.926983 
L 107.925305 59.758366 
L 108.157313 59.758366 
L 108.205695 61.926983 
L 108.266919 59.758366 
L 108.30332 59.758366 
L 108.388621 61.926983 
L 108.413006 59.758366 
L 108.608898 59.758366 
L 108.730362 61.926983 
L 108.754512 61.926983 
L 108.876453 59.758366 
L 108.888823 59.758366 
L 109.011075 61.926983 
L 109.084919 61.926983 
L 109.146729 59.758366 
L 109.195818 61.926983 
L 109.245626 61.926983 
L 109.258468 59.758366 
L 109.347086 61.926983 
L 109.360133 61.926983 
L 109.435273 59.758366 
L 109.459619 61.926983 
L 109.509456 61.926983 
L 109.521435 59.758366 
L 109.545973 61.926983 
L 109.644153 61.926983 
L 109.680371 59.758366 
L 109.743647 61.926983 
L 109.804873 61.926983 
L 109.877973 59.758366 
L 109.91444 61.926983 
L 109.987607 61.926983 
L 110.048556 59.758366 
L 110.097489 61.926983 
L 110.443221 61.926983 
L 110.560927 63.011292 
L 110.596997 61.926983 
L 110.66911 63.011292 
L 111.080134 63.011292 
L 111.153456 64.0956 
L 111.191008 63.011292 
L 111.627417 63.011292 
L 111.663364 61.926983 
L 111.735941 63.011292 
L 112.081213 63.011292 
L 112.203907 61.926983 
L 112.32587 63.011292 
L 112.375016 63.011292 
L 112.49558 61.926983 
L 112.593235 61.926983 
L 112.714267 59.758366 
L 112.836038 59.758366 
L 112.848057 58.674057 
L 112.945311 59.758366 
L 112.98459 59.758366 
L 113.082963 58.674057 
L 113.205111 59.758366 
L 113.253324 59.758366 
L 113.265415 58.674057 
L 113.361894 59.758366 
L 113.594707 59.758366 
L 113.642898 58.674057 
L 113.703877 59.758366 
L 113.740155 59.758366 
L 113.849116 58.674057 
L 114.217511 58.674057 
L 114.761038 57.589749 
L 115.003432 57.589749 
L 115.126035 56.50544 
L 115.518792 56.50544 
L 115.63013 55.421132 
L 115.726923 55.421132 
L 115.860616 53.252515 
L 115.981561 54.336823 
L 116.299355 54.336823 
L 116.311369 53.252515 
L 116.408127 54.336823 
L 116.432199 54.336823 
L 116.553303 53.252515 
L 116.589246 53.252515 
L 116.712082 55.421132 
L 116.736113 55.421132 
L 116.74833 54.336823 
L 116.846238 55.421132 
L 117.020722 55.421132 
L 117.117103 56.50544 
L 117.129531 55.421132 
L 117.166036 55.421132 
L 117.279518 56.50544 
L 117.548686 56.50544 
L 117.647586 57.589749 
L 117.659757 56.50544 
L 117.683724 56.50544 
L 117.805248 57.589749 
L 117.951992 57.589749 
L 117.96397 56.50544 
L 118.051377 57.589749 
L 118.370986 57.589749 
L 118.483238 58.674057 
L 118.535846 58.674057 
L 118.584439 57.589749 
L 118.646584 58.674057 
L 118.845537 58.674057 
L 118.955139 59.758366 
L 119.028778 58.674057 
L 119.053937 59.758366 
L 119.079016 59.758366 
L 119.09206 58.674057 
L 119.189257 59.758366 
L 119.287922 59.758366 
L 119.300002 61.926983 
L 119.363484 59.758366 
L 119.487522 59.758366 
L 119.598946 61.926983 
L 119.635024 61.926983 
L 119.757357 59.758366 
L 119.87869 61.926983 
L 120.097443 61.926983 
L 120.109448 63.011292 
L 120.206213 61.926983 
L 120.938115 61.926983 
L 121.047877 63.011292 
L 121.157402 61.926983 
L 121.233175 63.011292 
L 121.257505 61.926983 
L 121.318476 61.926983 
L 121.440849 63.011292 
L 121.477487 63.011292 
L 121.489424 61.926983 
L 121.587183 63.011292 
L 121.612348 63.011292 
L 121.72638 61.926983 
L 121.765097 61.926983 
L 121.878875 63.011292 
L 122.062786 63.011292 
L 122.135706 61.926983 
L 122.171765 63.011292 
L 122.439347 63.011292 
L 122.45188 64.0956 
L 122.549625 63.011292 
L 122.672363 63.011292 
L 122.684547 64.0956 
L 122.781569 63.011292 
L 122.963134 63.011292 
L 122.987697 64.0956 
L 123.07319 63.011292 
L 123.09714 63.011292 
L 123.219473 64.0956 
L 123.243905 64.0956 
L 123.365042 63.011292 
L 123.486079 64.0956 
L 123.498054 64.0956 
L 123.522648 63.011292 
L 123.594851 64.0956 
L 123.634146 64.0956 
L 123.755605 63.011292 
L 123.870856 64.0956 
L 124.005086 64.0956 
L 124.113894 65.179909 
L 124.233996 64.0956 
L 124.246175 64.0956 
L 124.358269 65.179909 
L 124.406848 65.179909 
L 124.444435 64.0956 
L 124.517088 65.179909 
L 124.993534 65.179909 
L 125.041954 66.264217 
L 125.102823 65.179909 
L 125.114798 65.179909 
L 125.224475 66.264217 
L 125.346697 65.179909 
L 125.37069 65.179909 
L 125.492862 66.264217 
L 125.719009 66.264217 
L 125.844792 65.179909 
L 125.915514 66.264217 
L 125.943499 65.179909 
L 126.020337 65.179909 
L 126.135711 66.264217 
L 126.195045 66.264217 
L 126.294271 65.179909 
L 126.381139 66.264217 
L 126.903806 66.264217 
L 127.017978 67.348526 
L 127.198387 67.348526 
L 127.222755 68.432835 
L 127.300971 67.348526 
L 127.368667 67.348526 
L 127.491749 68.432835 
L 127.576813 67.348526 
L 127.600982 68.432835 
L 127.771553 68.432835 
L 127.868173 67.348526 
L 127.88019 68.432835 
L 128.147424 68.432835 
L 128.26846 67.348526 
L 128.280422 67.348526 
L 128.403123 68.432835 
L 128.50079 68.432835 
L 128.61328 67.348526 
L 128.753617 67.348526 
L 128.852769 68.432835 
L 128.972769 67.348526 
L 129.637787 67.348526 
L 129.649892 68.432835 
L 129.736673 67.348526 
L 129.910284 67.348526 
L 129.922724 68.432835 
L 130.011768 67.348526 
L 130.173327 67.348526 
L 130.185507 68.432835 
L 130.274721 67.348526 
L 130.335475 67.348526 
L 130.348166 66.264217 
L 130.444596 67.348526 
L 130.601869 67.348526 
L 130.613861 68.432835 
L 130.71057 67.348526 
L 131.012365 67.348526 
L 131.041316 68.432835 
L 131.117495 67.348526 
L 131.87846 68.432835 
L 132.6826 68.432835 
L 132.694783 67.348526 
L 132.793354 68.432835 
L 133.599678 68.432835 
L 133.660072 70.601452 
L 133.708197 68.432835 
L 133.732106 68.432835 
L 133.744224 70.601452 
L 133.841693 68.432835 
L 133.962918 68.432835 
L 134.059566 70.601452 
L 134.071542 68.432835 
L 134.107768 68.432835 
L 134.229842 70.601452 
L 134.34036 68.432835 
L 134.46241 70.601452 
L 134.575038 68.432835 
L 134.709655 68.432835 
L 134.805619 70.601452 
L 134.819214 68.432835 
L 134.938503 70.601452 
L 135.776665 71.68576 
L 135.889502 71.68576 
L 135.938113 72.770069 
L 136.340017 71.68576 
L 136.454126 72.770069 
L 136.578358 71.68576 
L 136.629631 72.770069 
L 136.679584 71.68576 
L 136.754161 71.68576 
L 136.792123 72.770069 
L 136.853497 71.68576 
L 136.930178 71.68576 
L 137.051179 72.770069 
L 137.063812 72.770069 
L 137.115538 71.68576 
L 137.164235 72.770069 
L 137.574173 72.770069 
L 137.673937 73.854377 
L 137.797454 72.770069 
L 137.809456 72.770069 
L 137.919117 73.854377 
L 138.039553 72.770069 
L 138.076242 73.854377 
L 138.149001 72.770069 
L 138.160984 72.770069 
L 138.209007 73.854377 
L 138.26943 72.770069 
L 138.293386 72.770069 
L 138.413909 73.854377 
L 138.426197 73.854377 
L 138.534139 72.770069 
L 138.646873 73.854377 
L 138.674658 73.854377 
L 138.796789 74.938686 
L 138.833353 74.938686 
L 138.882634 73.854377 
L 138.943362 74.938686 
L 138.992285 74.938686 
L 139.016674 76.022994 
L 139.02862 73.854377 
L 139.090001 73.854377 
L 139.17423 73.854377 
L 139.186205 74.938686 
L 139.282375 73.854377 
L 139.54691 73.854377 
L 139.607312 76.022994 
L 139.661657 74.938686 
L 139.782193 73.854377 
L 139.914543 73.854377 
L 140.034377 74.938686 
L 140.142888 73.854377 
L 140.154856 74.938686 
L 140.250813 73.854377 
L 140.26277 73.854377 
L 140.412889 74.938686 
L 140.42526 74.938686 
L 140.437393 73.854377 
L 140.530206 74.938686 
L 140.56938 74.938686 
L 140.594239 76.022994 
L 140.618318 73.854377 
L 140.678784 74.938686 
L 140.703251 73.854377 
L 140.788647 74.938686 
L 141.322385 74.938686 
L 141.346512 76.022994 
L 141.432187 74.938686 
L 141.554052 74.938686 
L 141.677319 77.107303 
L 141.789031 76.022994 
L 141.801183 77.107303 
L 141.899026 76.022994 
L 142.218683 76.022994 
L 142.330058 77.107303 
L 142.358249 77.107303 
L 142.478901 78.191612 
L 142.596033 76.022994 
L 142.691674 76.022994 
L 142.804374 77.107303 
L 143.111215 77.107303 
L 143.125045 76.022994 
L 143.216103 77.107303 
L 143.306789 77.107303 
L 143.445936 76.022994 
L 143.76939 76.022994 
L 143.808685 74.938686 
L 143.869823 76.022994 
L 144.1375 76.022994 
L 144.150037 77.107303 
L 144.245295 76.022994 
L 144.548361 76.022994 
L 144.561503 77.107303 
L 144.65919 76.022994 
L 144.77206 76.022994 
L 144.896561 77.107303 
L 144.952775 77.107303 
L 145.022652 76.022994 
L 145.035931 77.107303 
L 145.157446 76.022994 
L 145.279331 77.107303 
L 145.394384 76.022994 
L 145.432729 76.022994 
L 145.532218 77.107303 
L 145.642891 76.022994 
L 145.668505 76.022994 
L 145.773288 77.107303 
L 145.862037 76.022994 
L 145.873974 77.107303 
L 145.952457 77.107303 
L 146.062571 76.022994 
L 146.43946 76.022994 
L 146.552698 74.938686 
L 146.992979 74.938686 
L 147.114012 73.854377 
L 147.125962 73.854377 
L 147.137958 74.938686 
L 147.232371 73.854377 
L 147.245285 73.854377 
L 147.257447 74.938686 
L 147.353583 73.854377 
L 147.61353 73.854377 
L 147.72752 72.770069 
L 147.739733 72.770069 
L 147.848274 73.854377 
L 147.970249 72.770069 
L 148.043769 72.770069 
L 148.165674 71.68576 
L 148.177655 71.68576 
L 148.298724 72.770069 
L 148.359074 72.770069 
L 148.481567 71.68576 
L 148.630826 71.68576 
L 148.753311 70.601452 
L 148.802006 70.601452 
L 148.924968 68.432835 
L 148.949475 70.601452 
L 149.035004 68.432835 
L 149.096213 68.432835 
L 149.120983 70.601452 
L 149.441925 70.601452 
L 149.496851 68.432835 
L 149.510622 70.601452 
L 149.557568 70.601452 
L 149.672704 68.432835 
L 149.699997 68.432835 
L 149.795757 70.601452 
L 149.807778 68.432835 
L 149.879726 68.432835 
L 149.990751 71.68576 
L 150.002716 70.601452 
L 150.119246 71.68576 
L 150.172887 70.601452 
L 150.205543 71.68576 
L 150.256463 71.68576 
L 150.349018 70.601452 
L 150.364125 71.68576 
L 150.376124 71.68576 
L 150.430485 70.601452 
L 150.469639 71.68576 
L 150.549471 71.68576 
L 150.561448 70.601452 
L 150.659426 71.68576 
L 150.917215 71.68576 
L 151.028009 72.770069 
L 151.112872 71.68576 
L 151.137024 72.770069 
L 151.4527 72.770069 
L 151.465028 73.854377 
L 151.56106 72.770069 
L 151.573804 72.770069 
L 151.598028 73.854377 
L 151.684591 72.770069 
L 151.845023 72.770069 
L 151.922731 73.854377 
L 151.94896 72.770069 
L 152.058375 72.770069 
L 152.180077 73.854377 
L 152.192093 72.770069 
L 152.289139 73.854377 
L 152.692649 73.854377 
L 152.705056 74.938686 
L 152.803044 73.854377 
L 152.876674 73.854377 
L 152.990238 74.938686 
L 153.305533 74.938686 
L 153.317918 73.854377 
L 153.414543 74.938686 
L 153.604912 74.938686 
L 153.667358 76.022994 
L 153.704052 74.938686 
L 153.741389 74.938686 
L 153.854355 76.022994 
L 153.966806 74.938686 
L 153.979297 74.938686 
L 154.094119 76.022994 
L 154.118946 76.022994 
L 154.220795 74.938686 
L 154.233133 76.022994 
L 154.320083 74.938686 
L 154.380725 74.938686 
L 154.493702 76.022994 
L 154.517723 76.022994 
L 154.639501 74.938686 
L 154.651547 74.938686 
L 154.774353 76.022994 
L 154.786428 74.938686 
L 154.883981 76.022994 
L 154.985111 76.022994 
L 155.109176 77.107303 
L 155.445396 77.107303 
L 155.557016 76.022994 
L 155.630968 76.022994 
L 155.643241 77.107303 
L 155.740407 76.022994 
L 155.789109 76.022994 
L 155.874092 77.107303 
L 155.897967 76.022994 
L 155.994214 76.022994 
L 156.115835 77.107303 
L 156.238243 77.107303 
L 156.346863 78.191612 
L 156.468659 77.107303 
L 157.068406 77.107303 
L 157.08046 76.022994 
L 157.170922 77.107303 
L 157.30105 77.107303 
L 157.399696 78.191612 
L 157.509478 77.107303 
L 157.621911 78.191612 
L 157.743749 77.107303 
L 157.756312 77.107303 
L 157.87815 78.191612 
L 157.951062 78.191612 
L 158.073709 79.27592 
L 158.195724 78.191612 
L 158.341795 78.191612 
L 158.353775 79.27592 
L 158.450832 78.191612 
L 158.523751 78.191612 
L 158.547729 79.27592 
L 158.633474 78.191612 
L 158.693515 78.191612 
L 158.778024 79.27592 
L 158.802549 78.191612 
L 158.899764 78.191612 
L 159.021183 79.27592 
L 159.351093 79.27592 
L 159.473166 78.191612 
L 159.509843 78.191612 
L 159.618525 79.27592 
L 159.728068 78.191612 
L 159.850557 79.27592 
L 160.081234 79.27592 
L 160.093358 81.444537 
L 160.171116 79.27592 
L 160.562207 79.27592 
L 160.575095 81.444537 
L 160.66495 79.27592 
L 160.702542 79.27592 
L 160.810606 81.444537 
L 160.931356 79.27592 
L 161.161595 79.27592 
L 161.282824 81.444537 
L 161.41555 81.444537 
L 161.53702 82.528846 
L 161.548988 82.528846 
L 161.657454 81.444537 
L 161.708856 81.444537 
L 161.720973 82.528846 
L 161.809389 81.444537 
L 161.884902 79.27592 
L 161.897332 81.444537 
L 162.329471 81.444537 
L 162.430318 79.27592 
L 162.54515 81.444537 
L 162.656705 79.27592 
L 162.771802 81.444537 
L 162.888929 79.27592 
L 162.902703 79.27592 
L 162.992655 81.444537 
L 163.006863 79.27592 
L 163.020778 79.27592 
L 163.049438 81.444537 
L 163.11442 79.27592 
L 163.149633 79.27592 
L 163.269727 81.444537 
L 163.389794 79.27592 
L 163.402854 81.444537 
L 163.4988 79.27592 
L 163.65176 79.27592 
L 163.76528 78.191612 
L 163.876374 79.27592 
L 163.991894 78.191612 
L 164.056802 78.191612 
L 164.171827 79.27592 
L 164.292371 78.191612 
L 164.378532 79.27592 
L 164.391398 78.191612 
L 164.490475 79.27592 
L 164.601464 78.191612 
L 164.724023 79.27592 
L 164.760161 79.27592 
L 164.833756 78.191612 
L 164.870792 79.27592 
L 165.77649 79.27592 
L 165.813368 78.191612 
L 165.8787 79.27592 
L 166.178136 79.27592 
L 166.190501 81.444537 
L 166.288508 79.27592 
L 166.617091 79.27592 
L 166.665282 81.444537 
L 166.702233 79.27592 
L 167.176705 79.27592 
L 167.189116 78.191612 
L 167.286708 79.27592 
L 167.64143 79.27592 
L 167.729113 81.444537 
L 167.741086 79.27592 
L 167.867567 79.27592 
L 167.915674 81.444537 
L 167.95354 79.27592 
L 167.981203 79.27592 
L 168.104251 81.444537 
L 168.189571 81.444537 
L 168.201916 79.27592 
L 168.288678 81.444537 
L 168.616114 81.444537 
L 168.628289 79.27592 
L 168.726789 81.444537 
L 168.775959 81.444537 
L 168.788351 79.27592 
L 168.877154 81.444537 
L 169.795371 81.444537 
L 169.819376 82.528846 
L 169.904753 81.444537 
L 170.083043 81.444537 
L 170.225695 82.528846 
L 170.247852 81.444537 
L 170.314573 82.528846 
L 170.699683 82.528846 
L 170.776784 81.444537 
L 170.911929 82.528846 
L 170.924258 81.444537 
L 171.020779 82.528846 
L 171.153348 82.528846 
L 171.165404 83.613154 
L 171.263075 82.528846 
L 171.287184 82.528846 
L 171.37137 81.444537 
L 171.395425 82.528846 
L 171.628056 82.528846 
L 171.748844 83.613154 
L 171.860035 82.528846 
L 172.006242 82.528846 
L 172.114494 83.613154 
L 172.188097 82.528846 
L 172.22487 83.613154 
L 172.284927 83.613154 
L 172.406716 82.528846 
L 172.527582 83.613154 
L 172.624425 82.528846 
L 172.636398 83.613154 
L 173.156151 83.613154 
L 173.252488 84.697463 
L 173.264439 83.613154 
L 173.542568 83.613154 
L 173.554743 84.697463 
L 173.614991 83.613154 
L 173.654367 83.613154 
L 173.666671 84.697463 
L 173.763525 83.613154 
L 173.828489 83.613154 
L 173.951383 84.697463 
L 174.012141 84.697463 
L 174.1332 83.613154 
L 174.193919 84.697463 
L 174.241919 83.613154 
L 174.495726 83.613154 
L 174.532183 84.697463 
L 174.604632 83.613154 
L 174.750208 83.613154 
L 174.848588 84.697463 
L 174.860558 83.613154 
L 174.897081 83.613154 
L 174.957651 84.697463 
L 175.006321 83.613154 
L 175.018298 83.613154 
L 175.140014 84.697463 
L 175.176062 84.697463 
L 175.297445 83.613154 
L 175.309461 83.613154 
L 175.4314 84.697463 
L 175.527576 83.613154 
L 175.540072 84.697463 
L 175.576611 84.697463 
L 175.674166 83.613154 
L 175.686144 84.697463 
L 176.217137 84.697463 
L 176.229727 83.613154 
L 176.328084 84.697463 
L 176.523425 84.697463 
L 176.633806 85.781772 
L 176.708911 84.697463 
L 176.734443 85.781772 
L 176.759078 85.781772 
L 176.771369 84.697463 
L 176.858332 85.781772 
L 177.480071 85.781772 
L 177.588129 84.697463 
L 177.708846 85.781772 
L 177.721216 85.781772 
L 177.843266 84.697463 
L 177.891338 84.697463 
L 177.927938 85.781772 
L 177.999932 84.697463 
L 178.366439 84.697463 
L 178.378418 85.781772 
L 178.476573 84.697463 
L 179.315674 84.697463 
L 179.380247 83.613154 
L 179.416291 84.697463 
L 179.42844 84.697463 
L 179.537587 83.613154 
L 179.58696 84.697463 
L 179.647798 83.613154 
L 180.159853 83.613154 
L 180.196826 82.528846 
L 180.270406 83.613154 
L 180.282385 83.613154 
L 180.404126 82.528846 
L 180.416144 82.528846 
L 180.527524 83.613154 
L 180.539661 83.613154 
L 180.661521 82.528846 
L 180.673688 82.528846 
L 180.710012 83.613154 
L 180.783569 82.528846 
L 180.808497 82.528846 
L 180.928833 81.444537 
L 181.014642 82.528846 
L 181.039084 81.444537 
L 181.124252 81.444537 
L 181.136461 82.528846 
L 181.233533 81.444537 
L 181.403932 81.444537 
L 181.526777 79.27592 
L 181.772988 79.27592 
L 181.894883 78.191612 
L 181.968046 78.191612 
L 182.079212 77.107303 
L 182.200656 78.191612 
L 182.321723 77.107303 
L 182.478698 77.107303 
L 182.491768 78.191612 
L 182.589115 77.107303 
L 182.649914 77.107303 
L 182.771245 78.191612 
L 182.795367 78.191612 
L 182.917428 77.107303 
L 182.94323 77.107303 
L 183.064092 78.191612 
L 183.088094 78.191612 
L 183.100188 77.107303 
L 183.196543 78.191612 
L 183.500474 78.191612 
L 183.512876 79.27592 
L 183.610264 78.191612 
L 183.73285 78.191612 
L 183.841537 79.27592 
L 183.962284 78.191612 
L 183.986439 78.191612 
L 184.109681 79.27592 
L 184.207751 79.27592 
L 184.21974 78.191612 
L 184.316803 79.27592 
L 184.389269 79.27592 
L 184.4497 78.191612 
L 184.49822 79.27592 
L 185.069247 79.27592 
L 185.19091 81.444537 
L 185.22704 81.444537 
L 185.347995 79.27592 
L 185.470406 81.444537 
L 185.531115 79.27592 
L 185.579693 81.444537 
L 185.591827 81.444537 
L 185.604875 79.27592 
L 185.701988 81.444537 
L 186.022694 81.444537 
L 186.047242 82.528846 
L 186.131594 81.444537 
L 186.241454 81.444537 
L 186.328132 82.528846 
L 186.340922 81.444537 
L 186.390803 81.444537 
L 186.513211 82.528846 
L 186.634066 81.444537 
L 186.744956 82.528846 
L 186.977845 82.528846 
L 186.989799 83.613154 
L 187.086996 82.528846 
L 187.111013 82.528846 
L 187.220745 83.613154 
L 187.23275 82.528846 
L 187.330107 83.613154 
L 187.366738 83.613154 
L 187.378716 82.528846 
L 187.463816 83.613154 
L 187.58605 84.697463 
L 187.68407 83.613154 
L 187.696042 84.697463 
L 187.708049 84.697463 
L 187.829587 83.613154 
L 188.231887 83.613154 
L 188.304853 82.528846 
L 188.341766 83.613154 
L 188.40244 83.613154 
L 188.41502 82.528846 
L 188.511571 83.613154 
L 188.7541 83.613154 
L 188.875567 84.697463 
L 188.917961 84.697463 
L 189.038631 83.613154 
L 189.050628 83.613154 
L 189.148177 84.697463 
L 189.160152 83.613154 
L 189.196676 83.613154 
L 189.283633 84.697463 
L 189.307587 83.613154 
L 189.40675 83.613154 
L 189.419088 84.697463 
L 189.516318 83.613154 
L 189.625773 83.613154 
L 189.723268 84.697463 
L 189.735257 83.613154 
L 189.919333 83.613154 
L 189.931324 84.697463 
L 190.028267 83.613154 
L 190.26031 83.613154 
L 190.272381 84.697463 
L 190.28441 83.613154 
L 189.601817 83.613154 
L 189.662886 83.613154 
L 189.785497 84.697463 
L 189.834274 84.697463 
L 189.956126 83.613154 
L 190.0772 84.697463 
L 190.10154 84.697463 
L 190.161984 83.613154 
L 190.210161 84.697463 
L 190.295021 84.697463 
L 190.335194 83.613154 
L 190.395853 84.697463 
L 190.873212 84.697463 
L 190.958131 83.613154 
L 190.982285 84.697463 
L 191.396037 84.697463 
L 191.516801 83.613154 
L 191.637581 84.697463 
L 191.649541 84.697463 
L 191.770509 83.613154 
L 191.892092 84.697463 
L 191.940711 84.697463 
L 192.05201 83.613154 
L 192.162017 84.697463 
L 192.186284 83.613154 
L 192.271142 84.697463 
L 192.756491 84.697463 
L 192.877907 85.781772 
L 192.998368 84.697463 
L 193.119769 85.781772 
L 193.14419 85.781772 
L 193.156199 84.697463 
L 193.252613 85.781772 
L 193.337392 85.781772 
L 193.361347 86.86608 
L 193.445387 85.781772 
L 193.883686 85.781772 
L 193.89566 84.697463 
L 193.983141 85.781772 
L 194.583452 85.781772 
L 194.643813 84.697463 
L 194.692189 85.781772 
L 194.716321 85.781772 
L 194.828572 84.697463 
L 194.865827 84.697463 
L 194.985768 85.781772 
L 195.130374 84.697463 
L 195.239388 85.781772 
L 195.360925 84.697463 
L 195.493222 84.697463 
L 195.505162 85.781772 
L 195.60176 84.697463 
L 196.063032 84.697463 
L 196.171571 83.613154 
L 196.283348 84.697463 
L 196.319361 84.697463 
L 196.392752 83.613154 
L 196.429506 84.697463 
L 196.469875 84.697463 
L 196.517942 83.613154 
L 196.565972 84.697463 
L 196.60572 84.697463 
L 196.726579 83.613154 
L 196.955805 83.613154 
L 197.078336 82.528846 
L 197.1883 83.613154 
L 197.309084 82.528846 
L 197.648554 82.528846 
L 197.770587 81.444537 
L 197.819128 81.444537 
L 197.928734 82.528846 
L 198.049468 81.444537 
L 198.147094 81.444537 
L 198.183806 82.528846 
L 198.256119 81.444537 
L 198.353719 81.444537 
L 198.439268 82.528846 
L 198.463291 81.444537 
L 198.487712 81.444537 
L 198.610469 82.528846 
L 198.720337 82.528846 
L 198.84178 81.444537 
L 198.96376 82.528846 
L 199.0131 82.528846 
L 199.061728 81.444537 
L 199.122349 82.528846 
L 199.427084 82.528846 
L 199.54769 83.613154 
L 199.718113 83.613154 
L 199.730476 82.528846 
L 199.826615 83.613154 
L 200.105911 83.613154 
L 200.191008 82.528846 
L 200.215348 83.613154 
L 200.423022 83.613154 
L 200.447213 82.528846 
L 200.532349 83.613154 
L 200.544475 83.613154 
L 200.556651 82.528846 
L 200.653581 83.613154 
L 201.774341 83.613154 
L 201.786942 84.697463 
L 201.880503 83.613154 
L 201.91841 83.613154 
L 202.024141 84.697463 
L 202.136582 83.613154 
L 202.257058 84.697463 
L 203.554178 84.697463 
L 203.676362 85.781772 
L 203.787899 84.697463 
L 203.898192 85.781772 
L 203.996489 84.697463 
L 204.008656 85.781772 
L 204.033881 85.781772 
L 204.119425 84.697463 
L 204.144194 85.781772 
L 204.218469 85.781772 
L 204.268469 84.697463 
L 204.318994 85.781772 
L 204.331753 85.781772 
L 204.454828 84.697463 
L 204.569064 85.781772 
L 204.618559 85.781772 
L 204.728453 84.697463 
L 204.850409 85.781772 
L 205.021159 85.781772 
L 205.033139 84.697463 
L 205.13145 85.781772 
L 205.716064 85.781772 
L 205.728072 86.86608 
L 205.826101 85.781772 
L 205.887681 85.781772 
L 206.010607 86.86608 
L 206.022978 86.86608 
L 206.133062 85.781772 
L 206.255316 86.86608 
L 206.291812 86.86608 
L 206.304445 85.781772 
L 206.402 86.86608 
L 206.450337 86.86608 
L 206.572908 87.950389 
L 206.597297 86.86608 
L 206.681527 87.950389 
L 206.76583 87.950389 
L 206.887073 90.119006 
L 206.99905 90.119006 
L 207.119557 87.950389 
L 207.143555 87.950389 
L 207.196847 86.86608 
L 207.245792 87.950389 
L 207.258348 87.950389 
L 207.318511 86.86608 
L 207.36736 87.950389 
L 207.428369 87.950389 
L 207.536848 86.86608 
L 207.657598 87.950389 
L 207.77842 86.86608 
L 207.89955 87.950389 
L 207.911711 87.950389 
L 207.923709 86.86608 
L 208.020077 87.950389 
L 208.334009 87.950389 
L 208.419619 90.119006 
L 208.443829 87.950389 
L 208.492563 87.950389 
L 208.615113 90.119006 
L 208.68796 87.950389 
L 208.725271 90.119006 
L 209.112432 90.119006 
L 209.124407 91.203314 
L 209.221762 90.119006 
L 209.414882 90.119006 
L 209.427065 91.203314 
L 209.523657 90.119006 
L 209.547854 90.119006 
L 209.669175 91.203314 
L 209.887613 91.203314 
L 210.008322 90.119006 
L 210.02026 90.119006 
L 210.128803 91.203314 
L 210.164886 90.119006 
L 210.238407 91.203314 
L 210.418643 91.203314 
L 210.53003 92.287623 
L 211.071664 92.287623 
L 211.143649 91.203314 
L 211.179915 92.287623 
L 211.481772 92.287623 
L 211.493748 91.203314 
L 211.590568 92.287623 
L 212.061897 92.287623 
L 212.073912 91.203314 
L 212.170788 92.287623 
L 212.618081 92.287623 
L 212.71397 93.371931 
L 212.725934 92.287623 
L 212.737948 92.287623 
L 212.845996 93.371931 
L 212.943349 92.287623 
L 212.955746 93.371931 
L 212.991823 93.371931 
L 213.112219 92.287623 
L 213.136148 93.371931 
L 213.220448 92.287623 
L 213.268625 92.287623 
L 213.377711 93.371931 
L 213.462064 91.203314 
L 213.486169 92.287623 
L 213.51033 92.287623 
L 213.630961 91.203314 
L 213.655351 91.203314 
L 213.679338 92.287623 
L 213.751569 91.203314 
L 213.872097 90.119006 
L 213.981449 90.119006 
L 214.103334 87.950389 
L 214.224472 87.950389 
L 214.299764 90.119006 
L 214.323928 87.950389 
L 214.408387 87.950389 
L 214.504857 90.119006 
L 214.517326 87.950389 
L 214.590153 87.950389 
L 214.602116 90.119006 
L 431.327252 123.732571 
L 431.36349 123.732571 
L 431.376013 124.81688 
L 431.472994 123.732571 
L 431.485388 123.732571 
L 431.60792 124.81688 
L 431.620175 124.81688 
L 431.644088 123.732571 
L 431.730611 124.81688 
L 431.936749 124.81688 
L 431.98496 125.901188 
L 432.009091 124.81688 
" style="fill:none;stroke:#1f77b4;stroke-linecap:square;stroke-width:1.5;"/>
   </g>
   <g id="line2d_32">
    <path clip-path="url(#p3eab22fcc0)" d="M 72.190909 35.903578 
L 73.209497 35.903578 
L 73.330683 49.999589 
L 73.391118 49.999589 
L 73.511791 55.421132 
L 73.89599 55.421132 
L 74.006996 49.999589 
L 74.079616 49.999589 
L 74.194706 55.421132 
L 74.664941 55.421132 
L 74.776019 49.999589 
L 75.632976 49.999589 
L 75.755427 94.45624 
L 76.685295 94.45624 
L 76.837255 102.0464 
L 76.910751 102.0464 
L 77.032844 94.45624 
L 77.398716 94.45624 
L 77.518996 92.287623 
L 77.760343 92.287623 
L 77.882017 94.45624 
L 78.749632 94.45624 
L 78.872175 92.287623 
L 79.47185 92.287623 
L 79.592607 80.360229 
L 80.697707 80.360229 
L 80.820038 70.601452 
L 81.546377 70.601452 
L 81.66025 59.758366 
L 82.090687 59.758366 
L 82.193655 74.938686 
L 82.267371 74.938686 
L 82.391423 70.601452 
L 82.757615 70.601452 
L 82.87468 74.938686 
L 83.002384 74.938686 
L 83.125048 59.758366 
L 83.976048 59.758366 
L 84.097401 80.360229 
L 84.529952 80.360229 
L 84.650708 94.45624 
L 85.015731 94.45624 
L 85.137276 113.973794 
L 85.746646 113.973794 
L 85.869104 125.901188 
L 86.418782 125.901188 
L 86.540132 113.973794 
L 87.147365 113.973794 
L 87.270011 102.0464 
L 88.533541 102.0464 
L 88.655318 113.973794 
L 91.995576 113.973794 
L 92.117718 125.901188 
L 93.097214 125.901188 
L 93.218319 133.491348 
L 93.400852 133.491348 
L 93.49715 125.901188 
L 94.872691 125.901188 
L 94.98381 133.491348 
L 95.400877 133.491348 
L 95.514484 125.901188 
L 96.319169 125.901188 
L 96.440894 113.973794 
L 96.877182 113.973794 
L 96.997665 102.0464 
L 97.595937 102.0464 
L 97.70736 80.360229 
L 98.144996 80.360229 
L 98.267964 74.938686 
L 98.450848 74.938686 
L 98.572869 80.360229 
L 98.661953 80.360229 
L 98.773533 74.938686 
L 98.98631 74.938686 
L 99.110575 59.758366 
L 100.018055 59.758366 
L 100.139596 70.601452 
L 101.684836 70.601452 
L 101.807277 80.360229 
L 101.856537 80.360229 
L 101.969061 74.938686 
L 102.398032 74.938686 
L 102.521083 102.0464 
L 103.072299 102.0464 
L 103.194255 125.901188 
L 105.505069 125.901188 
L 105.626192 135.659965 
L 106.592011 135.659965 
L 106.713078 147.58736 
L 106.959085 147.58736 
L 107.080152 153.008902 
L 107.925305 153.008902 
L 108.047137 147.58736 
L 108.290911 147.58736 
L 108.413006 153.008902 
L 108.658307 153.008902 
L 108.778466 157.346137 
L 109.950947 157.346137 
L 110.073294 153.008902 
L 110.134361 153.008902 
L 110.256859 168.189222 
L 111.104129 168.189222 
L 111.226986 172.526457 
L 111.408879 172.526457 
L 111.530268 157.346137 
L 111.959043 157.346137 
L 112.081213 153.008902 
L 112.32587 153.008902 
L 112.447485 157.346137 
L 112.933279 157.346137 
L 113.045646 147.58736 
L 113.301738 147.58736 
L 113.422012 133.491348 
L 113.482855 133.491348 
L 113.594707 113.973794 
L 114.217511 113.973794 
L 114.749078 102.0464 
L 115.301867 102.0464 
L 115.422295 94.45624 
L 115.860616 94.45624 
L 115.981561 92.287623 
L 117.254484 92.287623 
L 117.377888 102.0464 
L 117.927459 102.0464 
L 118.039394 80.360229 
L 118.483238 80.360229 
L 118.596709 125.901188 
L 119.769339 125.901188 
L 119.890665 135.659965 
L 120.523644 135.659965 
L 120.645367 199.634171 
L 121.257505 199.634171 
L 121.379847 223.488959 
L 122.001204 223.488959 
L 122.123547 233.247736 
L 122.549625 233.247736 
L 122.672363 245.17513 
L 123.522648 245.17513 
L 123.634146 233.247736 
L 123.907199 233.247736 
L 124.029177 223.488959 
L 125.958632 223.488959 
L 126.072838 211.561565 
L 128.195889 211.561565 
L 128.317981 199.634171 
L 129.132925 199.634171 
L 129.247232 177.947999 
L 129.502849 177.947999 
L 129.625426 157.346137 
L 130.287299 157.346137 
L 130.408154 125.901188 
L 131.078987 125.901188 
L 131.117495 92.287623 
L 131.793892 102.0464 
L 132.04523 102.0464 
L 132.744192 125.901188 
L 132.926639 125.901188 
L 133.047189 135.659965 
L 133.720132 135.659965 
L 133.841693 147.58736 
L 135.776665 147.58736 
L 135.938113 157.346137 
L 137.140226 157.346137 
L 137.253781 147.58736 
L 137.858372 147.58736 
L 137.979515 157.346137 
L 138.462107 157.346137 
L 138.58307 168.189222 
L 140.142888 168.189222 
L 140.26277 147.58736 
L 140.715228 147.58736 
L 140.836819 157.346137 
L 141.664658 157.346137 
L 141.777051 153.008902 
L 142.072273 153.008902 
L 142.194574 157.346137 
L 142.478901 157.346137 
L 142.596033 172.526457 
L 142.804374 172.526457 
L 143.000692 157.346137 
L 143.648411 157.346137 
L 143.76939 172.526457 
L 144.198611 172.526457 
L 144.3123 168.189222 
L 145.544216 168.189222 
L 145.656312 189.875394 
L 146.341488 189.875394 
L 146.464711 157.346137 
L 146.83468 157.346137 
L 146.956103 135.659965 
L 148.226148 135.659965 
L 148.34703 92.287623 
L 150.324101 92.287623 
L 150.44312 102.0464 
L 151.233864 102.0464 
L 151.347415 113.973794 
L 151.69698 113.973794 
L 151.808657 125.901188 
L 152.668379 125.901188 
L 152.791062 147.58736 
L 153.828865 147.58736 
L 153.942062 157.346137 
L 155.897967 157.346137 
L 156.018602 168.189222 
L 158.426326 168.189222 
L 158.547729 172.526457 
L 158.669449 172.526457 
L 158.790197 157.346137 
L 161.028135 157.346137 
L 161.14942 168.189222 
L 162.581405 168.189222 
L 162.694568 172.526457 
L 162.823469 172.526457 
L 162.967462 168.189222 
L 163.589435 168.189222 
L 163.70285 157.346137 
L 164.662075 157.346137 
L 164.784975 147.58736 
L 165.82574 147.58736 
L 165.940803 153.008902 
L 166.300466 153.008902 
L 166.423444 135.659965 
L 166.544242 135.659965 
L 166.665282 133.491348 
L 166.98274 133.491348 
L 167.1033 135.659965 
L 167.225315 135.659965 
L 167.348594 133.491348 
L 167.729113 133.491348 
L 167.841236 135.659965 
L 168.140775 135.659965 
L 168.263583 133.491348 
L 168.386355 133.491348 
L 168.50815 135.659965 
L 168.865168 135.659965 
L 168.938812 133.491348 
L 169.781256 125.901188 
L 169.904753 147.58736 
L 170.699683 147.58736 
L 170.86237 135.659965 
L 171.432991 135.659965 
L 171.555247 147.58736 
L 172.102484 147.58736 
L 172.22487 135.659965 
L 174.422909 135.659965 
L 174.544535 133.491348 
L 174.664868 133.491348 
L 174.786956 135.659965 
L 174.909059 135.659965 
L 175.030624 133.491348 
L 175.334123 133.491348 
L 175.45539 147.58736 
L 176.499194 147.58736 
L 176.621495 153.008902 
L 176.746907 153.008902 
L 176.858332 147.58736 
L 177.176222 147.58736 
L 177.298683 153.008902 
L 177.419794 153.008902 
L 177.540101 168.189222 
L 177.915566 168.189222 
L 178.031613 172.526457 
L 178.342047 172.526457 
L 178.464344 168.189222 
L 179.072808 168.189222 
L 179.193523 172.526457 
L 179.500799 172.526457 
L 179.623488 157.346137 
L 179.939521 157.346137 
L 180.196826 153.008902 
L 180.452228 153.008902 
L 180.563833 147.58736 
L 180.69804 147.58736 
L 180.82045 133.491348 
L 180.940797 133.491348 
L 181.063058 125.901188 
L 181.367575 125.901188 
L 181.478711 113.973794 
L 182.285381 113.973794 
L 182.406265 102.0464 
L 182.528366 102.0464 
L 182.649914 94.45624 
L 183.256988 94.45624 
L 183.379281 102.0464 
L 183.684025 102.0464 
L 183.805323 113.973794 
L 185.75151 113.973794 
L 185.863929 125.901188 
L 186.488669 125.901188 
L 186.609265 147.58736 
L 189.955438 147.58736 
L 190.077899 157.346137 
L 190.28441 157.346137 
L 189.601817 157.346137 
L 189.99249 157.346137 
L 190.113526 147.58736 
L 190.678562 147.58736 
L 190.800265 157.346137 
L 192.02674 157.346137 
L 192.149493 168.189222 
L 193.738039 168.189222 
L 193.859661 172.526457 
L 194.165585 172.526457 
L 194.287715 168.189222 
L 194.4125 168.189222 
L 194.535159 172.526457 
L 194.841323 172.526457 
L 194.961641 168.189222 
L 195.565713 168.189222 
L 195.685802 157.346137 
L 195.806178 157.346137 
L 195.929388 153.008902 
L 196.943825 153.008902 
L 197.066354 102.0464 
L 197.369105 102.0464 
L 197.491107 94.45624 
L 197.856242 94.45624 
L 197.976894 92.287623 
L 198.09846 92.287623 
L 198.220003 74.938686 
L 198.341548 74.938686 
L 198.463291 80.360229 
L 201.366548 80.360229 
L 201.480038 113.973794 
L 203.456986 113.973794 
L 203.602629 135.659965 
L 207.911711 135.659965 
L 208.032423 125.901188 
L 208.82211 125.901188 
L 208.9427 135.659965 
L 212.182805 135.659965 
L 212.303115 147.58736 
L 212.423849 147.58736 
L 212.5453 153.008902 
L 212.907357 153.008902 
L 213.027719 135.659965 
L 214.066816 135.659965 
L 214.187648 133.491348 
L 214.248516 133.491348 
L 214.372338 125.901188 
L 214.602116 125.901188 
L 431.084953 177.947999 
L 431.5351 177.947999 
L 431.656456 172.526457 
L 432.009091 172.526457 
L 432.009091 172.526457 
" style="fill:none;stroke:#ff7f0e;stroke-linecap:square;stroke-width:1.5;"/>
   </g>
   <g id="patch_3">
    <path d="M 54.2 255.638708 
L 54.2 25.44 
" style="fill:none;stroke:#000000;stroke-linecap:square;stroke-linejoin:miter;stroke-width:0.8;"/>
   </g>
   <g id="patch_4">
    <path d="M 450 255.638708 
L 450 25.44 
" style="fill:none;stroke:#000000;stroke-linecap:square;stroke-linejoin:miter;stroke-width:0.8;"/>
   </g>
   <g id="patch_5">
    <path d="M 54.2 255.638708 
L 450 255.638708 
" style="fill:none;stroke:#000000;stroke-linecap:square;stroke-linejoin:miter;stroke-width:0.8;"/>
   </g>
   <g id="patch_6">
    <path d="M 54.2 25.44 
L 450 25.44 
" style="fill:none;stroke:#000000;stroke-linecap:square;stroke-linejoin:miter;stroke-width:0.8;"/>
   </g>
   <g id="text_18">
    <!-- Lake Shoecraft - Water and Air Temperature -->
    <g transform="translate(120.481563 19.44)scale(0.12 -0.12)">
     <defs>
      <path d="M 9.8125 72.90625 
L 19.671875 72.90625 
L 19.671875 8.296875 
L 55.171875 8.296875 
L 55.171875 0 
L 9.8125 0 
z
" id="DejaVuSans-76"/>
      <path d="M 9.078125 75.984375 
L 18.109375 75.984375 
L 18.109375 31.109375 
L 44.921875 54.6875 
L 56.390625 54.6875 
L 27.390625 29.109375 
L 57.625 0 
L 45.90625 0 
L 18.109375 26.703125 
L 18.109375 0 
L 9.078125 0 
z
" id="DejaVuSans-107"/>
      <path d="M 53.515625 70.515625 
L 53.515625 60.890625 
Q 47.90625 63.578125 42.921875 64.890625 
Q 37.9375 66.21875 33.296875 66.21875 
Q 25.25 66.21875 20.875 63.09375 
Q 16.5 59.96875 16.5 54.203125 
Q 16.5 49.359375 19.40625 46.890625 
Q 22.3125 44.4375 30.421875 42.921875 
L 36.375 41.703125 
Q 47.40625 39.59375 52.65625 34.296875 
Q 57.90625 29 57.90625 20.125 
Q 57.90625 9.515625 50.796875 4.046875 
Q 43.703125 -1.421875 29.984375 -1.421875 
Q 24.8125 -1.421875 18.96875 -0.25 
Q 13.140625 0.921875 6.890625 3.21875 
L 6.890625 13.375 
Q 12.890625 10.015625 18.65625 8.296875 
Q 24.421875 6.59375 29.984375 6.59375 
Q 38.421875 6.59375 43.015625 9.90625 
Q 47.609375 13.234375 47.609375 19.390625 
Q 47.609375 24.75 44.3125 27.78125 
Q 41.015625 30.8125 33.5 32.328125 
L 27.484375 33.5 
Q 16.453125 35.6875 11.515625 40.375 
Q 6.59375 45.0625 6.59375 53.421875 
Q 6.59375 63.09375 13.40625 68.65625 
Q 20.21875 74.21875 32.171875 74.21875 
Q 37.3125 74.21875 42.625 73.28125 
Q 47.953125 72.359375 53.515625 70.515625 
z
" id="DejaVuSans-83"/>
      <path d="M 54.890625 33.015625 
L 54.890625 0 
L 45.90625 0 
L 45.90625 32.71875 
Q 45.90625 40.484375 42.875 44.328125 
Q 39.84375 48.1875 33.796875 48.1875 
Q 26.515625 48.1875 22.3125 43.546875 
Q 18.109375 38.921875 18.109375 30.90625 
L 18.109375 0 
L 9.078125 0 
L 9.078125 75.984375 
L 18.109375 75.984375 
L 18.109375 46.1875 
Q 21.34375 51.125 25.703125 53.5625 
Q 30.078125 56 35.796875 56 
Q 45.21875 56 50.046875 50.171875 
Q 54.890625 44.34375 54.890625 33.015625 
z
" id="DejaVuSans-104"/>
      <path d="M 30.609375 48.390625 
Q 23.390625 48.390625 19.1875 42.75 
Q 14.984375 37.109375 14.984375 27.296875 
Q 14.984375 17.484375 19.15625 11.84375 
Q 23.34375 6.203125 30.609375 6.203125 
Q 37.796875 6.203125 41.984375 11.859375 
Q 46.1875 17.53125 46.1875 27.296875 
Q 46.1875 37.015625 41.984375 42.703125 
Q 37.796875 48.390625 30.609375 48.390625 
z
M 30.609375 56 
Q 42.328125 56 49.015625 48.375 
Q 55.71875 40.765625 55.71875 27.296875 
Q 55.71875 13.875 49.015625 6.21875 
Q 42.328125 -1.421875 30.609375 -1.421875 
Q 18.84375 -1.421875 12.171875 6.21875 
Q 5.515625 13.875 5.515625 27.296875 
Q 5.515625 40.765625 12.171875 48.375 
Q 18.84375 56 30.609375 56 
z
" id="DejaVuSans-111"/>
      <path d="M 48.78125 52.59375 
L 48.78125 44.1875 
Q 44.96875 46.296875 41.140625 47.34375 
Q 37.3125 48.390625 33.40625 48.390625 
Q 24.65625 48.390625 19.8125 42.84375 
Q 14.984375 37.3125 14.984375 27.296875 
Q 14.984375 17.28125 19.8125 11.734375 
Q 24.65625 6.203125 33.40625 6.203125 
Q 37.3125 6.203125 41.140625 7.25 
Q 44.96875 8.296875 48.78125 10.40625 
L 48.78125 2.09375 
Q 45.015625 0.34375 40.984375 -0.53125 
Q 36.96875 -1.421875 32.421875 -1.421875 
Q 20.0625 -1.421875 12.78125 6.34375 
Q 5.515625 14.109375 5.515625 27.296875 
Q 5.515625 40.671875 12.859375 48.328125 
Q 20.21875 56 33.015625 56 
Q 37.15625 56 41.109375 55.140625 
Q 45.0625 54.296875 48.78125 52.59375 
z
" id="DejaVuSans-99"/>
      <path d="M 37.109375 75.984375 
L 37.109375 68.5 
L 28.515625 68.5 
Q 23.6875 68.5 21.796875 66.546875 
Q 19.921875 64.59375 19.921875 59.515625 
L 19.921875 54.6875 
L 34.71875 54.6875 
L 34.71875 47.703125 
L 19.921875 47.703125 
L 19.921875 0 
L 10.890625 0 
L 10.890625 47.703125 
L 2.296875 47.703125 
L 2.296875 54.6875 
L 10.890625 54.6875 
L 10.890625 58.5 
Q 10.890625 67.625 15.140625 71.796875 
Q 19.390625 75.984375 28.609375 75.984375 
z
" id="DejaVuSans-102"/>
      <path d="M 3.328125 72.90625 
L 13.28125 72.90625 
L 28.609375 11.28125 
L 43.890625 72.90625 
L 54.984375 72.90625 
L 70.3125 11.28125 
L 85.59375 72.90625 
L 95.609375 72.90625 
L 77.296875 0 
L 64.890625 0 
L 49.515625 63.28125 
L 33.984375 0 
L 21.578125 0 
z
" id="DejaVuSans-87"/>
      <path d="M 54.890625 33.015625 
L 54.890625 0 
L 45.90625 0 
L 45.90625 32.71875 
Q 45.90625 40.484375 42.875 44.328125 
Q 39.84375 48.1875 33.796875 48.1875 
Q 26.515625 48.1875 22.3125 43.546875 
Q 18.109375 38.921875 18.109375 30.90625 
L 18.109375 0 
L 9.078125 0 
L 9.078125 54.6875 
L 18.109375 54.6875 
L 18.109375 46.1875 
Q 21.34375 51.125 25.703125 53.5625 
Q 30.078125 56 35.796875 56 
Q 45.21875 56 50.046875 50.171875 
Q 54.890625 44.34375 54.890625 33.015625 
z
" id="DejaVuSans-110"/>
      <path d="M 45.40625 46.390625 
L 45.40625 75.984375 
L 54.390625 75.984375 
L 54.390625 0 
L 45.40625 0 
L 45.40625 8.203125 
Q 42.578125 3.328125 38.25 0.953125 
Q 33.9375 -1.421875 27.875 -1.421875 
Q 17.96875 -1.421875 11.734375 6.484375 
Q 5.515625 14.40625 5.515625 27.296875 
Q 5.515625 40.1875 11.734375 48.09375 
Q 17.96875 56 27.875 56 
Q 33.9375 56 38.25 53.625 
Q 42.578125 51.265625 45.40625 46.390625 
z
M 14.796875 27.296875 
Q 14.796875 17.390625 18.875 11.75 
Q 22.953125 6.109375 30.078125 6.109375 
Q 37.203125 6.109375 41.296875 11.75 
Q 45.40625 17.390625 45.40625 27.296875 
Q 45.40625 37.203125 41.296875 42.84375 
Q 37.203125 48.484375 30.078125 48.484375 
Q 22.953125 48.484375 18.875 42.84375 
Q 14.796875 37.203125 14.796875 27.296875 
z
" id="DejaVuSans-100"/>
      <path d="M 34.1875 63.1875 
L 20.796875 26.90625 
L 47.609375 26.90625 
z
M 28.609375 72.90625 
L 39.796875 72.90625 
L 67.578125 0 
L 57.328125 0 
L 50.6875 18.703125 
L 17.828125 18.703125 
L 11.1875 0 
L 0.78125 0 
z
" id="DejaVuSans-65"/>
      <path d="M 9.421875 54.6875 
L 18.40625 54.6875 
L 18.40625 0 
L 9.421875 0 
z
M 9.421875 75.984375 
L 18.40625 75.984375 
L 18.40625 64.59375 
L 9.421875 64.59375 
z
" id="DejaVuSans-105"/>
     </defs>
     <use xlink:href="#DejaVuSans-76"/>
     <use x="55.712891" xlink:href="#DejaVuSans-97"/>
     <use x="116.992188" xlink:href="#DejaVuSans-107"/>
     <use x="171.277344" xlink:href="#DejaVuSans-101"/>
     <use x="232.800781" xlink:href="#DejaVuSans-32"/>
     <use x="264.587891" xlink:href="#DejaVuSans-83"/>
     <use x="328.064453" xlink:href="#DejaVuSans-104"/>
     <use x="391.443359" xlink:href="#DejaVuSans-111"/>
     <use x="452.625" xlink:href="#DejaVuSans-101"/>
     <use x="514.148438" xlink:href="#DejaVuSans-99"/>
     <use x="569.128906" xlink:href="#DejaVuSans-114"/>
     <use x="610.242188" xlink:href="#DejaVuSans-97"/>
     <use x="671.521484" xlink:href="#DejaVuSans-102"/>
     <use x="704.976562" xlink:href="#DejaVuSans-116"/>
     <use x="744.185547" xlink:href="#DejaVuSans-32"/>
     <use x="775.972656" xlink:href="#DejaVuSans-45"/>
     <use x="812.056641" xlink:href="#DejaVuSans-32"/>
     <use x="843.84375" xlink:href="#DejaVuSans-87"/>
     <use x="936.345703" xlink:href="#DejaVuSans-97"/>
     <use x="997.625" xlink:href="#DejaVuSans-116"/>
     <use x="1036.833984" xlink:href="#DejaVuSans-101"/>
     <use x="1098.357422" xlink:href="#DejaVuSans-114"/>
     <use x="1139.470703" xlink:href="#DejaVuSans-32"/>
     <use x="1171.257812" xlink:href="#DejaVuSans-97"/>
     <use x="1232.537109" xlink:href="#DejaVuSans-110"/>
     <use x="1295.916016" xlink:href="#DejaVuSans-100"/>
     <use x="1359.392578" xlink:href="#DejaVuSans-32"/>
     <use x="1391.179688" xlink:href="#DejaVuSans-65"/>
     <use x="1459.587891" xlink:href="#DejaVuSans-105"/>
     <use x="1487.371094" xlink:href="#DejaVuSans-114"/>
     <use x="1528.484375" xlink:href="#DejaVuSans-32"/>
     <use x="1560.271484" xlink:href="#DejaVuSans-84"/>
     <use x="1604.355469" xlink:href="#DejaVuSans-101"/>
     <use x="1665.878906" xlink:href="#DejaVuSans-109"/>
     <use x="1763.291016" xlink:href="#DejaVuSans-112"/>
     <use x="1826.767578" xlink:href="#DejaVuSans-101"/>
     <use x="1888.291016" xlink:href="#DejaVuSans-114"/>
     <use x="1929.404297" xlink:href="#DejaVuSans-97"/>
     <use x="1990.683594" xlink:href="#DejaVuSans-116"/>
     <use x="2029.892578" xlink:href="#DejaVuSans-117"/>
     <use x="2093.271484" xlink:href="#DejaVuSans-114"/>
     <use x="2132.134766" xlink:href="#DejaVuSans-101"/>
    </g>
   </g>
   <g id="legend_1">
    <g id="patch_7">
     <path d="M 357.890625 62.79625 
L 443 62.79625 
Q 445 62.79625 445 60.79625 
L 445 32.44 
Q 445 30.44 443 30.44 
L 357.890625 30.44 
Q 355.890625 30.44 355.890625 32.44 
L 355.890625 60.79625 
Q 355.890625 62.79625 357.890625 62.79625 
z
" style="fill:#ffffff;opacity:0.8;stroke:#cccccc;stroke-linejoin:miter;"/>
    </g>
    <g id="line2d_33">
     <path d="M 359.890625 38.538437 
L 379.890625 38.538437 
" style="fill:none;stroke:#1f77b4;stroke-linecap:square;stroke-width:1.5;"/>
    </g>
    <g id="line2d_34"/>
    <g id="text_19">
     <!-- Lake Temp -->
     <g transform="translate(387.890625 42.038437)scale(0.1 -0.1)">
      <use xlink:href="#DejaVuSans-76"/>
      <use x="55.712891" xlink:href="#DejaVuSans-97"/>
      <use x="116.992188" xlink:href="#DejaVuSans-107"/>
      <use x="171.277344" xlink:href="#DejaVuSans-101"/>
      <use x="232.800781" xlink:href="#DejaVuSans-32"/>
      <use x="264.587891" xlink:href="#DejaVuSans-84"/>
      <use x="308.671875" xlink:href="#DejaVuSans-101"/>
      <use x="370.195312" xlink:href="#DejaVuSans-109"/>
      <use x="467.607422" xlink:href="#DejaVuSans-112"/>
     </g>
    </g>
    <g id="line2d_35">
     <path d="M 359.890625 53.216562 
L 379.890625 53.216562 
" style="fill:none;stroke:#ff7f0e;stroke-linecap:square;stroke-width:1.5;"/>
    </g>
    <g id="line2d_36"/>
    <g id="text_20">
     <!-- Air Temp -->
     <g transform="translate(387.890625 56.716562)scale(0.1 -0.1)">
      <use xlink:href="#DejaVuSans-65"/>
      <use x="68.408203" xlink:href="#DejaVuSans-105"/>
      <use x="96.191406" xlink:href="#DejaVuSans-114"/>
      <use x="137.304688" xlink:href="#DejaVuSans-32"/>
      <use x="169.091797" xlink:href="#DejaVuSans-84"/>
      <use x="213.175781" xlink:href="#DejaVuSans-101"/>
      <use x="274.699219" xlink:href="#DejaVuSans-109"/>
      <use x="372.111328" xlink:href="#DejaVuSans-112"/>
     </g>
    </g>
   </g>
  </g>
 </g>
 <defs>
  <clipPath id="p3eab22fcc0">
   <rect height="230.198708" width="395.8" x="54.2" y="25.44"/>
  </clipPath>
 </defs>
</svg>
