<?xml version="1.0" encoding="utf-8" standalone="no"?>
<!DOCTYPE svg PUBLIC "-//W3C//DTD SVG 1.1//EN"
  "http://www.w3.org/Graphics/SVG/1.1/DTD/svg11.dtd">
<!-- Created with matplotlib (https://matplotlib.org/) -->
<svg height="345.6pt" version="1.1" viewBox="0 0 460.8 345.6" width="460.8pt" xmlns="http://www.w3.org/2000/svg" xmlns:xlink="http://www.w3.org/1999/xlink">
 <metadata>
  <rdf:RDF xmlns:cc="http://creativecommons.org/ns#" xmlns:dc="http://purl.org/dc/elements/1.1/" xmlns:rdf="http://www.w3.org/1999/02/22-rdf-syntax-ns#">
   <cc:Work>
    <dc:type rdf:resource="http://purl.org/dc/dcmitype/StillImage"/>
    <dc:date>2024-09-08T02:58:56.362506</dc:date>
    <dc:format>image/svg+xml</dc:format>
    <dc:creator>
     <cc:Agent>
      <dc:title>Matplotlib v3.3.2, https://matplotlib.org/</dc:title>
     </cc:Agent>
    </dc:creator>
   </cc:Work>
  </rdf:RDF>
 </metadata>
 <defs>
  <style type="text/css">*{stroke-linecap:butt;stroke-linejoin:round;}</style>
 </defs>
 <g id="figure_1">
  <g id="patch_1">
   <path d="M 0 345.6 
L 460.8 345.6 
L 460.8 0 
L 0 0 
z
" style="fill:none;"/>
  </g>
  <g id="axes_1">
   <g id="patch_2">
    <path d="M 44.66 255.638708 
L 450 255.638708 
L 450 25.44 
L 44.66 25.44 
z
" style="fill:none;"/>
   </g>
   <g id="matplotlib.axis_1">
    <g id="xtick_1">
     <g id="line2d_1">
      <path clip-path="url(#p133720c9b3)" d="M 44.673228 255.638708 
L 44.673228 25.44 
" style="fill:none;stroke:#b0b0b0;stroke-linecap:square;stroke-width:0.8;"/>
     </g>
     <g id="line2d_2">
      <defs>
       <path d="M 0 0 
L 0 3.5 
" id="me0067151e9" style="stroke:#000000;stroke-width:0.8;"/>
      </defs>
      <g>
       <use style="stroke:#000000;stroke-width:0.8;" x="44.673228" xlink:href="#me0067151e9" y="255.638708"/>
      </g>
     </g>
     <g id="text_1">
      <!-- 2024-08-27 -->
      <g transform="translate(37.327835 319.848351)rotate(-70)scale(0.1 -0.1)">
       <defs>
        <path d="M 19.1875 8.296875 
L 53.609375 8.296875 
L 53.609375 0 
L 7.328125 0 
L 7.328125 8.296875 
Q 12.9375 14.109375 22.625 23.890625 
Q 32.328125 33.6875 34.8125 36.53125 
Q 39.546875 41.84375 41.421875 45.53125 
Q 43.3125 49.21875 43.3125 52.78125 
Q 43.3125 58.59375 39.234375 62.25 
Q 35.15625 65.921875 28.609375 65.921875 
Q 23.96875 65.921875 18.8125 64.3125 
Q 13.671875 62.703125 7.8125 59.421875 
L 7.8125 69.390625 
Q 13.765625 71.78125 18.9375 73 
Q 24.125 74.21875 28.421875 74.21875 
Q 39.75 74.21875 46.484375 68.546875 
Q 53.21875 62.890625 53.21875 53.421875 
Q 53.21875 48.921875 51.53125 44.890625 
Q 49.859375 40.875 45.40625 35.40625 
Q 44.1875 33.984375 37.640625 27.21875 
Q 31.109375 20.453125 19.1875 8.296875 
z
" id="DejaVuSans-50"/>
        <path d="M 31.78125 66.40625 
Q 24.171875 66.40625 20.328125 58.90625 
Q 16.5 51.421875 16.5 36.375 
Q 16.5 21.390625 20.328125 13.890625 
Q 24.171875 6.390625 31.78125 6.390625 
Q 39.453125 6.390625 43.28125 13.890625 
Q 47.125 21.390625 47.125 36.375 
Q 47.125 51.421875 43.28125 58.90625 
Q 39.453125 66.40625 31.78125 66.40625 
z
M 31.78125 74.21875 
Q 44.046875 74.21875 50.515625 64.515625 
Q 56.984375 54.828125 56.984375 36.375 
Q 56.984375 17.96875 50.515625 8.265625 
Q 44.046875 -1.421875 31.78125 -1.421875 
Q 19.53125 -1.421875 13.0625 8.265625 
Q 6.59375 17.96875 6.59375 36.375 
Q 6.59375 54.828125 13.0625 64.515625 
Q 19.53125 74.21875 31.78125 74.21875 
z
" id="DejaVuSans-48"/>
        <path d="M 37.796875 64.3125 
L 12.890625 25.390625 
L 37.796875 25.390625 
z
M 35.203125 72.90625 
L 47.609375 72.90625 
L 47.609375 25.390625 
L 58.015625 25.390625 
L 58.015625 17.1875 
L 47.609375 17.1875 
L 47.609375 0 
L 37.796875 0 
L 37.796875 17.1875 
L 4.890625 17.1875 
L 4.890625 26.703125 
z
" id="DejaVuSans-52"/>
        <path d="M 4.890625 31.390625 
L 31.203125 31.390625 
L 31.203125 23.390625 
L 4.890625 23.390625 
z
" id="DejaVuSans-45"/>
        <path d="M 31.78125 34.625 
Q 24.75 34.625 20.71875 30.859375 
Q 16.703125 27.09375 16.703125 20.515625 
Q 16.703125 13.921875 20.71875 10.15625 
Q 24.75 6.390625 31.78125 6.390625 
Q 38.8125 6.390625 42.859375 10.171875 
Q 46.921875 13.96875 46.921875 20.515625 
Q 46.921875 27.09375 42.890625 30.859375 
Q 38.875 34.625 31.78125 34.625 
z
M 21.921875 38.8125 
Q 15.578125 40.375 12.03125 44.71875 
Q 8.5 49.078125 8.5 55.328125 
Q 8.5 64.0625 14.71875 69.140625 
Q 20.953125 74.21875 31.78125 74.21875 
Q 42.671875 74.21875 48.875 69.140625 
Q 55.078125 64.0625 55.078125 55.328125 
Q 55.078125 49.078125 51.53125 44.71875 
Q 48 40.375 41.703125 38.8125 
Q 48.828125 37.15625 52.796875 32.3125 
Q 56.78125 27.484375 56.78125 20.515625 
Q 56.78125 9.90625 50.3125 4.234375 
Q 43.84375 -1.421875 31.78125 -1.421875 
Q 19.734375 -1.421875 13.25 4.234375 
Q 6.78125 9.90625 6.78125 20.515625 
Q 6.78125 27.484375 10.78125 32.3125 
Q 14.796875 37.15625 21.921875 38.8125 
z
M 18.3125 54.390625 
Q 18.3125 48.734375 21.84375 45.5625 
Q 25.390625 42.390625 31.78125 42.390625 
Q 38.140625 42.390625 41.71875 45.5625 
Q 45.3125 48.734375 45.3125 54.390625 
Q 45.3125 60.0625 41.71875 63.234375 
Q 38.140625 66.40625 31.78125 66.40625 
Q 25.390625 66.40625 21.84375 63.234375 
Q 18.3125 60.0625 18.3125 54.390625 
z
" id="DejaVuSans-56"/>
        <path d="M 8.203125 72.90625 
L 55.078125 72.90625 
L 55.078125 68.703125 
L 28.609375 0 
L 18.3125 0 
L 43.21875 64.59375 
L 8.203125 64.59375 
z
" id="DejaVuSans-55"/>
       </defs>
       <use xlink:href="#DejaVuSans-50"/>
       <use x="63.623047" xlink:href="#DejaVuSans-48"/>
       <use x="127.246094" xlink:href="#DejaVuSans-50"/>
       <use x="190.869141" xlink:href="#DejaVuSans-52"/>
       <use x="254.492188" xlink:href="#DejaVuSans-45"/>
       <use x="290.576172" xlink:href="#DejaVuSans-48"/>
       <use x="354.199219" xlink:href="#DejaVuSans-56"/>
       <use x="417.822266" xlink:href="#DejaVuSans-45"/>
       <use x="453.90625" xlink:href="#DejaVuSans-50"/>
       <use x="517.529297" xlink:href="#DejaVuSans-55"/>
      </g>
     </g>
    </g>
    <g id="xtick_2">
     <g id="line2d_3">
      <path clip-path="url(#p133720c9b3)" d="M 108.498466 255.638708 
L 108.498466 25.44 
" style="fill:none;stroke:#b0b0b0;stroke-linecap:square;stroke-width:0.8;"/>
     </g>
     <g id="line2d_4">
      <g>
       <use style="stroke:#000000;stroke-width:0.8;" x="108.498466" xlink:href="#me0067151e9" y="255.638708"/>
      </g>
     </g>
     <g id="text_2">
      <!-- 2024-08-29 -->
      <g transform="translate(101.153073 319.848351)rotate(-70)scale(0.1 -0.1)">
       <defs>
        <path d="M 10.984375 1.515625 
L 10.984375 10.5 
Q 14.703125 8.734375 18.5 7.8125 
Q 22.3125 6.890625 25.984375 6.890625 
Q 35.75 6.890625 40.890625 13.453125 
Q 46.046875 20.015625 46.78125 33.40625 
Q 43.953125 29.203125 39.59375 26.953125 
Q 35.25 24.703125 29.984375 24.703125 
Q 19.046875 24.703125 12.671875 31.3125 
Q 6.296875 37.9375 6.296875 49.421875 
Q 6.296875 60.640625 12.9375 67.421875 
Q 19.578125 74.21875 30.609375 74.21875 
Q 43.265625 74.21875 49.921875 64.515625 
Q 56.59375 54.828125 56.59375 36.375 
Q 56.59375 19.140625 48.40625 8.859375 
Q 40.234375 -1.421875 26.421875 -1.421875 
Q 22.703125 -1.421875 18.890625 -0.6875 
Q 15.09375 0.046875 10.984375 1.515625 
z
M 30.609375 32.421875 
Q 37.25 32.421875 41.125 36.953125 
Q 45.015625 41.5 45.015625 49.421875 
Q 45.015625 57.28125 41.125 61.84375 
Q 37.25 66.40625 30.609375 66.40625 
Q 23.96875 66.40625 20.09375 61.84375 
Q 16.21875 57.28125 16.21875 49.421875 
Q 16.21875 41.5 20.09375 36.953125 
Q 23.96875 32.421875 30.609375 32.421875 
z
" id="DejaVuSans-57"/>
       </defs>
       <use xlink:href="#DejaVuSans-50"/>
       <use x="63.623047" xlink:href="#DejaVuSans-48"/>
       <use x="127.246094" xlink:href="#DejaVuSans-50"/>
       <use x="190.869141" xlink:href="#DejaVuSans-52"/>
       <use x="254.492188" xlink:href="#DejaVuSans-45"/>
       <use x="290.576172" xlink:href="#DejaVuSans-48"/>
       <use x="354.199219" xlink:href="#DejaVuSans-56"/>
       <use x="417.822266" xlink:href="#DejaVuSans-45"/>
       <use x="453.90625" xlink:href="#DejaVuSans-50"/>
       <use x="517.529297" xlink:href="#DejaVuSans-57"/>
      </g>
     </g>
    </g>
    <g id="xtick_3">
     <g id="line2d_5">
      <path clip-path="url(#p133720c9b3)" d="M 172.323703 255.638708 
L 172.323703 25.44 
" style="fill:none;stroke:#b0b0b0;stroke-linecap:square;stroke-width:0.8;"/>
     </g>
     <g id="line2d_6">
      <g>
       <use style="stroke:#000000;stroke-width:0.8;" x="172.323703" xlink:href="#me0067151e9" y="255.638708"/>
      </g>
     </g>
     <g id="text_3">
      <!-- 2024-08-31 -->
      <g transform="translate(164.97831 319.848351)rotate(-70)scale(0.1 -0.1)">
       <defs>
        <path d="M 40.578125 39.3125 
Q 47.65625 37.796875 51.625 33 
Q 55.609375 28.21875 55.609375 21.1875 
Q 55.609375 10.40625 48.1875 4.484375 
Q 40.765625 -1.421875 27.09375 -1.421875 
Q 22.515625 -1.421875 17.65625 -0.515625 
Q 12.796875 0.390625 7.625 2.203125 
L 7.625 11.71875 
Q 11.71875 9.328125 16.59375 8.109375 
Q 21.484375 6.890625 26.8125 6.890625 
Q 36.078125 6.890625 40.9375 10.546875 
Q 45.796875 14.203125 45.796875 21.1875 
Q 45.796875 27.640625 41.28125 31.265625 
Q 36.765625 34.90625 28.71875 34.90625 
L 20.21875 34.90625 
L 20.21875 43.015625 
L 29.109375 43.015625 
Q 36.375 43.015625 40.234375 45.921875 
Q 44.09375 48.828125 44.09375 54.296875 
Q 44.09375 59.90625 40.109375 62.90625 
Q 36.140625 65.921875 28.71875 65.921875 
Q 24.65625 65.921875 20.015625 65.03125 
Q 15.375 64.15625 9.8125 62.3125 
L 9.8125 71.09375 
Q 15.4375 72.65625 20.34375 73.4375 
Q 25.25 74.21875 29.59375 74.21875 
Q 40.828125 74.21875 47.359375 69.109375 
Q 53.90625 64.015625 53.90625 55.328125 
Q 53.90625 49.265625 50.4375 45.09375 
Q 46.96875 40.921875 40.578125 39.3125 
z
" id="DejaVuSans-51"/>
        <path d="M 12.40625 8.296875 
L 28.515625 8.296875 
L 28.515625 63.921875 
L 10.984375 60.40625 
L 10.984375 69.390625 
L 28.421875 72.90625 
L 38.28125 72.90625 
L 38.28125 8.296875 
L 54.390625 8.296875 
L 54.390625 0 
L 12.40625 0 
z
" id="DejaVuSans-49"/>
       </defs>
       <use xlink:href="#DejaVuSans-50"/>
       <use x="63.623047" xlink:href="#DejaVuSans-48"/>
       <use x="127.246094" xlink:href="#DejaVuSans-50"/>
       <use x="190.869141" xlink:href="#DejaVuSans-52"/>
       <use x="254.492188" xlink:href="#DejaVuSans-45"/>
       <use x="290.576172" xlink:href="#DejaVuSans-48"/>
       <use x="354.199219" xlink:href="#DejaVuSans-56"/>
       <use x="417.822266" xlink:href="#DejaVuSans-45"/>
       <use x="453.90625" xlink:href="#DejaVuSans-51"/>
       <use x="517.529297" xlink:href="#DejaVuSans-49"/>
      </g>
     </g>
    </g>
    <g id="xtick_4">
     <g id="line2d_7">
      <path clip-path="url(#p133720c9b3)" d="M 204.236322 255.638708 
L 204.236322 25.44 
" style="fill:none;stroke:#b0b0b0;stroke-linecap:square;stroke-width:0.8;"/>
     </g>
     <g id="line2d_8">
      <g>
       <use style="stroke:#000000;stroke-width:0.8;" x="204.236322" xlink:href="#me0067151e9" y="255.638708"/>
      </g>
     </g>
     <g id="text_4">
      <!-- 2024-09-01 -->
      <g transform="translate(196.890929 319.848351)rotate(-70)scale(0.1 -0.1)">
       <use xlink:href="#DejaVuSans-50"/>
       <use x="63.623047" xlink:href="#DejaVuSans-48"/>
       <use x="127.246094" xlink:href="#DejaVuSans-50"/>
       <use x="190.869141" xlink:href="#DejaVuSans-52"/>
       <use x="254.492188" xlink:href="#DejaVuSans-45"/>
       <use x="290.576172" xlink:href="#DejaVuSans-48"/>
       <use x="354.199219" xlink:href="#DejaVuSans-57"/>
       <use x="417.822266" xlink:href="#DejaVuSans-45"/>
       <use x="453.90625" xlink:href="#DejaVuSans-48"/>
       <use x="517.529297" xlink:href="#DejaVuSans-49"/>
      </g>
     </g>
    </g>
    <g id="xtick_5">
     <g id="line2d_9">
      <path clip-path="url(#p133720c9b3)" d="M 268.06156 255.638708 
L 268.06156 25.44 
" style="fill:none;stroke:#b0b0b0;stroke-linecap:square;stroke-width:0.8;"/>
     </g>
     <g id="line2d_10">
      <g>
       <use style="stroke:#000000;stroke-width:0.8;" x="268.06156" xlink:href="#me0067151e9" y="255.638708"/>
      </g>
     </g>
     <g id="text_5">
      <!-- 2024-09-03 -->
      <g transform="translate(260.716167 319.848351)rotate(-70)scale(0.1 -0.1)">
       <use xlink:href="#DejaVuSans-50"/>
       <use x="63.623047" xlink:href="#DejaVuSans-48"/>
       <use x="127.246094" xlink:href="#DejaVuSans-50"/>
       <use x="190.869141" xlink:href="#DejaVuSans-52"/>
       <use x="254.492188" xlink:href="#DejaVuSans-45"/>
       <use x="290.576172" xlink:href="#DejaVuSans-48"/>
       <use x="354.199219" xlink:href="#DejaVuSans-57"/>
       <use x="417.822266" xlink:href="#DejaVuSans-45"/>
       <use x="453.90625" xlink:href="#DejaVuSans-48"/>
       <use x="517.529297" xlink:href="#DejaVuSans-51"/>
      </g>
     </g>
    </g>
    <g id="xtick_6">
     <g id="line2d_11">
      <path clip-path="url(#p133720c9b3)" d="M 331.886797 255.638708 
L 331.886797 25.44 
" style="fill:none;stroke:#b0b0b0;stroke-linecap:square;stroke-width:0.8;"/>
     </g>
     <g id="line2d_12">
      <g>
       <use style="stroke:#000000;stroke-width:0.8;" x="331.886797" xlink:href="#me0067151e9" y="255.638708"/>
      </g>
     </g>
     <g id="text_6">
      <!-- 2024-09-05 -->
      <g transform="translate(324.541405 319.848351)rotate(-70)scale(0.1 -0.1)">
       <defs>
        <path d="M 10.796875 72.90625 
L 49.515625 72.90625 
L 49.515625 64.59375 
L 19.828125 64.59375 
L 19.828125 46.734375 
Q 21.96875 47.46875 24.109375 47.828125 
Q 26.265625 48.1875 28.421875 48.1875 
Q 40.625 48.1875 47.75 41.5 
Q 54.890625 34.8125 54.890625 23.390625 
Q 54.890625 11.625 47.5625 5.09375 
Q 40.234375 -1.421875 26.90625 -1.421875 
Q 22.3125 -1.421875 17.546875 -0.640625 
Q 12.796875 0.140625 7.71875 1.703125 
L 7.71875 11.625 
Q 12.109375 9.234375 16.796875 8.0625 
Q 21.484375 6.890625 26.703125 6.890625 
Q 35.15625 6.890625 40.078125 11.328125 
Q 45.015625 15.765625 45.015625 23.390625 
Q 45.015625 31 40.078125 35.4375 
Q 35.15625 39.890625 26.703125 39.890625 
Q 22.75 39.890625 18.8125 39.015625 
Q 14.890625 38.140625 10.796875 36.28125 
z
" id="DejaVuSans-53"/>
       </defs>
       <use xlink:href="#DejaVuSans-50"/>
       <use x="63.623047" xlink:href="#DejaVuSans-48"/>
       <use x="127.246094" xlink:href="#DejaVuSans-50"/>
       <use x="190.869141" xlink:href="#DejaVuSans-52"/>
       <use x="254.492188" xlink:href="#DejaVuSans-45"/>
       <use x="290.576172" xlink:href="#DejaVuSans-48"/>
       <use x="354.199219" xlink:href="#DejaVuSans-57"/>
       <use x="417.822266" xlink:href="#DejaVuSans-45"/>
       <use x="453.90625" xlink:href="#DejaVuSans-48"/>
       <use x="517.529297" xlink:href="#DejaVuSans-53"/>
      </g>
     </g>
    </g>
    <g id="xtick_7">
     <g id="line2d_13">
      <path clip-path="url(#p133720c9b3)" d="M 395.712035 255.638708 
L 395.712035 25.44 
" style="fill:none;stroke:#b0b0b0;stroke-linecap:square;stroke-width:0.8;"/>
     </g>
     <g id="line2d_14">
      <g>
       <use style="stroke:#000000;stroke-width:0.8;" x="395.712035" xlink:href="#me0067151e9" y="255.638708"/>
      </g>
     </g>
     <g id="text_7">
      <!-- 2024-09-07 -->
      <g transform="translate(388.366642 319.848351)rotate(-70)scale(0.1 -0.1)">
       <use xlink:href="#DejaVuSans-50"/>
       <use x="63.623047" xlink:href="#DejaVuSans-48"/>
       <use x="127.246094" xlink:href="#DejaVuSans-50"/>
       <use x="190.869141" xlink:href="#DejaVuSans-52"/>
       <use x="254.492188" xlink:href="#DejaVuSans-45"/>
       <use x="290.576172" xlink:href="#DejaVuSans-48"/>
       <use x="354.199219" xlink:href="#DejaVuSans-57"/>
       <use x="417.822266" xlink:href="#DejaVuSans-45"/>
       <use x="453.90625" xlink:href="#DejaVuSans-48"/>
       <use x="517.529297" xlink:href="#DejaVuSans-55"/>
      </g>
     </g>
    </g>
    <g id="text_8">
     <!-- Date -->
     <g transform="translate(235.379219 332.158083)scale(0.1 -0.1)">
      <defs>
       <path d="M 19.671875 64.796875 
L 19.671875 8.109375 
L 31.59375 8.109375 
Q 46.6875 8.109375 53.6875 14.9375 
Q 60.6875 21.78125 60.6875 36.53125 
Q 60.6875 51.171875 53.6875 57.984375 
Q 46.6875 64.796875 31.59375 64.796875 
z
M 9.8125 72.90625 
L 30.078125 72.90625 
Q 51.265625 72.90625 61.171875 64.09375 
Q 71.09375 55.28125 71.09375 36.53125 
Q 71.09375 17.671875 61.125 8.828125 
Q 51.171875 0 30.078125 0 
L 9.8125 0 
z
" id="DejaVuSans-68"/>
       <path d="M 34.28125 27.484375 
Q 23.390625 27.484375 19.1875 25 
Q 14.984375 22.515625 14.984375 16.5 
Q 14.984375 11.71875 18.140625 8.90625 
Q 21.296875 6.109375 26.703125 6.109375 
Q 34.1875 6.109375 38.703125 11.40625 
Q 43.21875 16.703125 43.21875 25.484375 
L 43.21875 27.484375 
z
M 52.203125 31.203125 
L 52.203125 0 
L 43.21875 0 
L 43.21875 8.296875 
Q 40.140625 3.328125 35.546875 0.953125 
Q 30.953125 -1.421875 24.3125 -1.421875 
Q 15.921875 -1.421875 10.953125 3.296875 
Q 6 8.015625 6 15.921875 
Q 6 25.140625 12.171875 29.828125 
Q 18.359375 34.515625 30.609375 34.515625 
L 43.21875 34.515625 
L 43.21875 35.40625 
Q 43.21875 41.609375 39.140625 45 
Q 35.0625 48.390625 27.6875 48.390625 
Q 23 48.390625 18.546875 47.265625 
Q 14.109375 46.140625 10.015625 43.890625 
L 10.015625 52.203125 
Q 14.9375 54.109375 19.578125 55.046875 
Q 24.21875 56 28.609375 56 
Q 40.484375 56 46.34375 49.84375 
Q 52.203125 43.703125 52.203125 31.203125 
z
" id="DejaVuSans-97"/>
       <path d="M 18.3125 70.21875 
L 18.3125 54.6875 
L 36.8125 54.6875 
L 36.8125 47.703125 
L 18.3125 47.703125 
L 18.3125 18.015625 
Q 18.3125 11.328125 20.140625 9.421875 
Q 21.96875 7.515625 27.59375 7.515625 
L 36.8125 7.515625 
L 36.8125 0 
L 27.59375 0 
Q 17.1875 0 13.234375 3.875 
Q 9.28125 7.765625 9.28125 18.015625 
L 9.28125 47.703125 
L 2.6875 47.703125 
L 2.6875 54.6875 
L 9.28125 54.6875 
L 9.28125 70.21875 
z
" id="DejaVuSans-116"/>
       <path d="M 56.203125 29.59375 
L 56.203125 25.203125 
L 14.890625 25.203125 
Q 15.484375 15.921875 20.484375 11.0625 
Q 25.484375 6.203125 34.421875 6.203125 
Q 39.59375 6.203125 44.453125 7.46875 
Q 49.3125 8.734375 54.109375 11.28125 
L 54.109375 2.78125 
Q 49.265625 0.734375 44.1875 -0.34375 
Q 39.109375 -1.421875 33.890625 -1.421875 
Q 20.796875 -1.421875 13.15625 6.1875 
Q 5.515625 13.8125 5.515625 26.8125 
Q 5.515625 40.234375 12.765625 48.109375 
Q 20.015625 56 32.328125 56 
Q 43.359375 56 49.78125 48.890625 
Q 56.203125 41.796875 56.203125 29.59375 
z
M 47.21875 32.234375 
Q 47.125 39.59375 43.09375 43.984375 
Q 39.0625 48.390625 32.421875 48.390625 
Q 24.90625 48.390625 20.390625 44.140625 
Q 15.875 39.890625 15.1875 32.171875 
z
" id="DejaVuSans-101"/>
      </defs>
      <use xlink:href="#DejaVuSans-68"/>
      <use x="77.001953" xlink:href="#DejaVuSans-97"/>
      <use x="138.28125" xlink:href="#DejaVuSans-116"/>
      <use x="177.490234" xlink:href="#DejaVuSans-101"/>
     </g>
    </g>
   </g>
   <g id="matplotlib.axis_2">
    <g id="ytick_1">
     <g id="line2d_15">
      <path clip-path="url(#p133720c9b3)" d="M 44.66 226.204338 
L 450 226.204338 
" style="fill:none;stroke:#b0b0b0;stroke-linecap:square;stroke-width:0.8;"/>
     </g>
     <g id="line2d_16">
      <defs>
       <path d="M 0 0 
L -3.5 0 
" id="mf8af0eddd0" style="stroke:#000000;stroke-width:0.8;"/>
      </defs>
      <g>
       <use style="stroke:#000000;stroke-width:0.8;" x="44.66" xlink:href="#mf8af0eddd0" y="226.204338"/>
      </g>
     </g>
     <g id="text_9">
      <!-- 55 -->
      <g transform="translate(24.935 230.003557)scale(0.1 -0.1)">
       <use xlink:href="#DejaVuSans-53"/>
       <use x="63.623047" xlink:href="#DejaVuSans-53"/>
      </g>
     </g>
    </g>
    <g id="ytick_2">
     <g id="line2d_17">
      <path clip-path="url(#p133720c9b3)" d="M 44.66 196.562475 
L 450 196.562475 
" style="fill:none;stroke:#b0b0b0;stroke-linecap:square;stroke-width:0.8;"/>
     </g>
     <g id="line2d_18">
      <g>
       <use style="stroke:#000000;stroke-width:0.8;" x="44.66" xlink:href="#mf8af0eddd0" y="196.562475"/>
      </g>
     </g>
     <g id="text_10">
      <!-- 60 -->
      <g transform="translate(24.935 200.361694)scale(0.1 -0.1)">
       <defs>
        <path d="M 33.015625 40.375 
Q 26.375 40.375 22.484375 35.828125 
Q 18.609375 31.296875 18.609375 23.390625 
Q 18.609375 15.53125 22.484375 10.953125 
Q 26.375 6.390625 33.015625 6.390625 
Q 39.65625 6.390625 43.53125 10.953125 
Q 47.40625 15.53125 47.40625 23.390625 
Q 47.40625 31.296875 43.53125 35.828125 
Q 39.65625 40.375 33.015625 40.375 
z
M 52.59375 71.296875 
L 52.59375 62.3125 
Q 48.875 64.0625 45.09375 64.984375 
Q 41.3125 65.921875 37.59375 65.921875 
Q 27.828125 65.921875 22.671875 59.328125 
Q 17.53125 52.734375 16.796875 39.40625 
Q 19.671875 43.65625 24.015625 45.921875 
Q 28.375 48.1875 33.59375 48.1875 
Q 44.578125 48.1875 50.953125 41.515625 
Q 57.328125 34.859375 57.328125 23.390625 
Q 57.328125 12.15625 50.6875 5.359375 
Q 44.046875 -1.421875 33.015625 -1.421875 
Q 20.359375 -1.421875 13.671875 8.265625 
Q 6.984375 17.96875 6.984375 36.375 
Q 6.984375 53.65625 15.1875 63.9375 
Q 23.390625 74.21875 37.203125 74.21875 
Q 40.921875 74.21875 44.703125 73.484375 
Q 48.484375 72.75 52.59375 71.296875 
z
" id="DejaVuSans-54"/>
       </defs>
       <use xlink:href="#DejaVuSans-54"/>
       <use x="63.623047" xlink:href="#DejaVuSans-48"/>
      </g>
     </g>
    </g>
    <g id="ytick_3">
     <g id="line2d_19">
      <path clip-path="url(#p133720c9b3)" d="M 44.66 166.920612 
L 450 166.920612 
" style="fill:none;stroke:#b0b0b0;stroke-linecap:square;stroke-width:0.8;"/>
     </g>
     <g id="line2d_20">
      <g>
       <use style="stroke:#000000;stroke-width:0.8;" x="44.66" xlink:href="#mf8af0eddd0" y="166.920612"/>
      </g>
     </g>
     <g id="text_11">
      <!-- 65 -->
      <g transform="translate(24.935 170.719831)scale(0.1 -0.1)">
       <use xlink:href="#DejaVuSans-54"/>
       <use x="63.623047" xlink:href="#DejaVuSans-53"/>
      </g>
     </g>
    </g>
    <g id="ytick_4">
     <g id="line2d_21">
      <path clip-path="url(#p133720c9b3)" d="M 44.66 137.278749 
L 450 137.278749 
" style="fill:none;stroke:#b0b0b0;stroke-linecap:square;stroke-width:0.8;"/>
     </g>
     <g id="line2d_22">
      <g>
       <use style="stroke:#000000;stroke-width:0.8;" x="44.66" xlink:href="#mf8af0eddd0" y="137.278749"/>
      </g>
     </g>
     <g id="text_12">
      <!-- 70 -->
      <g transform="translate(24.935 141.077968)scale(0.1 -0.1)">
       <use xlink:href="#DejaVuSans-55"/>
       <use x="63.623047" xlink:href="#DejaVuSans-48"/>
      </g>
     </g>
    </g>
    <g id="ytick_5">
     <g id="line2d_23">
      <path clip-path="url(#p133720c9b3)" d="M 44.66 107.636886 
L 450 107.636886 
" style="fill:none;stroke:#b0b0b0;stroke-linecap:square;stroke-width:0.8;"/>
     </g>
     <g id="line2d_24">
      <g>
       <use style="stroke:#000000;stroke-width:0.8;" x="44.66" xlink:href="#mf8af0eddd0" y="107.636886"/>
      </g>
     </g>
     <g id="text_13">
      <!-- 75 -->
      <g transform="translate(24.935 111.436105)scale(0.1 -0.1)">
       <use xlink:href="#DejaVuSans-55"/>
       <use x="63.623047" xlink:href="#DejaVuSans-53"/>
      </g>
     </g>
    </g>
    <g id="ytick_6">
     <g id="line2d_25">
      <path clip-path="url(#p133720c9b3)" d="M 44.66 77.995023 
L 450 77.995023 
" style="fill:none;stroke:#b0b0b0;stroke-linecap:square;stroke-width:0.8;"/>
     </g>
     <g id="line2d_26">
      <g>
       <use style="stroke:#000000;stroke-width:0.8;" x="44.66" xlink:href="#mf8af0eddd0" y="77.995023"/>
      </g>
     </g>
     <g id="text_14">
      <!-- 80 -->
      <g transform="translate(24.935 81.794242)scale(0.1 -0.1)">
       <use xlink:href="#DejaVuSans-56"/>
       <use x="63.623047" xlink:href="#DejaVuSans-48"/>
      </g>
     </g>
    </g>
    <g id="ytick_7">
     <g id="line2d_27">
      <path clip-path="url(#p133720c9b3)" d="M 44.66 48.35316 
L 450 48.35316 
" style="fill:none;stroke:#b0b0b0;stroke-linecap:square;stroke-width:0.8;"/>
     </g>
     <g id="line2d_28">
      <g>
       <use style="stroke:#000000;stroke-width:0.8;" x="44.66" xlink:href="#mf8af0eddd0" y="48.35316"/>
      </g>
     </g>
     <g id="text_15">
      <!-- 85 -->
      <g transform="translate(24.935 52.152379)scale(0.1 -0.1)">
       <use xlink:href="#DejaVuSans-56"/>
       <use x="63.623047" xlink:href="#DejaVuSans-53"/>
      </g>
     </g>
    </g>
    <g id="text_16">
     <!-- Temperature [F] -->
     <g transform="translate(18.855313 180.575291)rotate(-90)scale(0.1 -0.1)">
      <defs>
       <path d="M -0.296875 72.90625 
L 61.375 72.90625 
L 61.375 64.59375 
L 35.5 64.59375 
L 35.5 0 
L 25.59375 0 
L 25.59375 64.59375 
L -0.296875 64.59375 
z
" id="DejaVuSans-84"/>
       <path d="M 52 44.1875 
Q 55.375 50.25 60.0625 53.125 
Q 64.75 56 71.09375 56 
Q 79.640625 56 84.28125 50.015625 
Q 88.921875 44.046875 88.921875 33.015625 
L 88.921875 0 
L 79.890625 0 
L 79.890625 32.71875 
Q 79.890625 40.578125 77.09375 44.375 
Q 74.3125 48.1875 68.609375 48.1875 
Q 61.625 48.1875 57.5625 43.546875 
Q 53.515625 38.921875 53.515625 30.90625 
L 53.515625 0 
L 44.484375 0 
L 44.484375 32.71875 
Q 44.484375 40.625 41.703125 44.40625 
Q 38.921875 48.1875 33.109375 48.1875 
Q 26.21875 48.1875 22.15625 43.53125 
Q 18.109375 38.875 18.109375 30.90625 
L 18.109375 0 
L 9.078125 0 
L 9.078125 54.6875 
L 18.109375 54.6875 
L 18.109375 46.1875 
Q 21.1875 51.21875 25.484375 53.609375 
Q 29.78125 56 35.6875 56 
Q 41.65625 56 45.828125 52.96875 
Q 50 49.953125 52 44.1875 
z
" id="DejaVuSans-109"/>
       <path d="M 18.109375 8.203125 
L 18.109375 -20.796875 
L 9.078125 -20.796875 
L 9.078125 54.6875 
L 18.109375 54.6875 
L 18.109375 46.390625 
Q 20.953125 51.265625 25.265625 53.625 
Q 29.59375 56 35.59375 56 
Q 45.5625 56 51.78125 48.09375 
Q 58.015625 40.1875 58.015625 27.296875 
Q 58.015625 14.40625 51.78125 6.484375 
Q 45.5625 -1.421875 35.59375 -1.421875 
Q 29.59375 -1.421875 25.265625 0.953125 
Q 20.953125 3.328125 18.109375 8.203125 
z
M 48.6875 27.296875 
Q 48.6875 37.203125 44.609375 42.84375 
Q 40.53125 48.484375 33.40625 48.484375 
Q 26.265625 48.484375 22.1875 42.84375 
Q 18.109375 37.203125 18.109375 27.296875 
Q 18.109375 17.390625 22.1875 11.75 
Q 26.265625 6.109375 33.40625 6.109375 
Q 40.53125 6.109375 44.609375 11.75 
Q 48.6875 17.390625 48.6875 27.296875 
z
" id="DejaVuSans-112"/>
       <path d="M 41.109375 46.296875 
Q 39.59375 47.171875 37.8125 47.578125 
Q 36.03125 48 33.890625 48 
Q 26.265625 48 22.1875 43.046875 
Q 18.109375 38.09375 18.109375 28.8125 
L 18.109375 0 
L 9.078125 0 
L 9.078125 54.6875 
L 18.109375 54.6875 
L 18.109375 46.1875 
Q 20.953125 51.171875 25.484375 53.578125 
Q 30.03125 56 36.53125 56 
Q 37.453125 56 38.578125 55.875 
Q 39.703125 55.765625 41.0625 55.515625 
z
" id="DejaVuSans-114"/>
       <path d="M 8.5 21.578125 
L 8.5 54.6875 
L 17.484375 54.6875 
L 17.484375 21.921875 
Q 17.484375 14.15625 20.5 10.265625 
Q 23.53125 6.390625 29.59375 6.390625 
Q 36.859375 6.390625 41.078125 11.03125 
Q 45.3125 15.671875 45.3125 23.6875 
L 45.3125 54.6875 
L 54.296875 54.6875 
L 54.296875 0 
L 45.3125 0 
L 45.3125 8.40625 
Q 42.046875 3.421875 37.71875 1 
Q 33.40625 -1.421875 27.6875 -1.421875 
Q 18.265625 -1.421875 13.375 4.4375 
Q 8.5 10.296875 8.5 21.578125 
z
M 31.109375 56 
z
" id="DejaVuSans-117"/>
       <path id="DejaVuSans-32"/>
       <path d="M 8.59375 75.984375 
L 29.296875 75.984375 
L 29.296875 69 
L 17.578125 69 
L 17.578125 -6.203125 
L 29.296875 -6.203125 
L 29.296875 -13.1875 
L 8.59375 -13.1875 
z
" id="DejaVuSans-91"/>
       <path d="M 9.8125 72.90625 
L 51.703125 72.90625 
L 51.703125 64.59375 
L 19.671875 64.59375 
L 19.671875 43.109375 
L 48.578125 43.109375 
L 48.578125 34.8125 
L 19.671875 34.8125 
L 19.671875 0 
L 9.8125 0 
z
" id="DejaVuSans-70"/>
       <path d="M 30.421875 75.984375 
L 30.421875 -13.1875 
L 9.71875 -13.1875 
L 9.71875 -6.203125 
L 21.390625 -6.203125 
L 21.390625 69 
L 9.71875 69 
L 9.71875 75.984375 
z
" id="DejaVuSans-93"/>
      </defs>
      <use xlink:href="#DejaVuSans-84"/>
      <use x="44.083984" xlink:href="#DejaVuSans-101"/>
      <use x="105.607422" xlink:href="#DejaVuSans-109"/>
      <use x="203.019531" xlink:href="#DejaVuSans-112"/>
      <use x="266.496094" xlink:href="#DejaVuSans-101"/>
      <use x="328.019531" xlink:href="#DejaVuSans-114"/>
      <use x="369.132812" xlink:href="#DejaVuSans-97"/>
      <use x="430.412109" xlink:href="#DejaVuSans-116"/>
      <use x="469.621094" xlink:href="#DejaVuSans-117"/>
      <use x="533" xlink:href="#DejaVuSans-114"/>
      <use x="571.863281" xlink:href="#DejaVuSans-101"/>
      <use x="633.386719" xlink:href="#DejaVuSans-32"/>
      <use x="665.173828" xlink:href="#DejaVuSans-91"/>
      <use x="704.1875" xlink:href="#DejaVuSans-70"/>
      <use x="761.707031" xlink:href="#DejaVuSans-93"/>
     </g>
    </g>
   </g>
   <g id="line2d_29">
    <path clip-path="url(#p133720c9b3)" d="M 63.084545 143.799959 
L 63.133252 143.799959 
L 63.248495 143.207122 
L 63.363566 143.207122 
L 63.386589 143.799959 
L 63.433027 142.614284 
L 63.455936 143.207122 
L 63.478873 143.207122 
L 63.594835 142.614284 
L 63.641808 142.614284 
L 63.71208 142.021447 
L 63.735045 142.614284 
L 63.806122 142.614284 
L 63.85221 143.207122 
L 63.875311 142.614284 
L 63.946144 143.207122 
L 63.992327 142.021447 
L 64.039776 142.021447 
L 64.133801 140.835773 
L 64.156683 142.021447 
L 64.180065 140.242935 
L 64.22654 140.835773 
L 64.342718 140.242935 
L 64.365805 140.242935 
L 64.483822 139.650098 
L 64.576239 140.835773 
L 64.694582 139.650098 
L 64.834122 140.835773 
L 64.85713 140.835773 
L 64.880065 140.242935 
L 64.951087 140.835773 
L 64.974824 140.835773 
L 65.13952 139.057261 
L 65.210314 140.242935 
L 65.234082 139.057261 
L 65.329175 139.057261 
L 65.353265 138.464424 
L 65.399493 139.057261 
L 65.422821 139.650098 
L 65.509887 139.057261 
L 65.555842 139.057261 
L 65.603401 138.464424 
L 65.651185 139.057261 
L 65.770089 140.835773 
L 65.793061 140.242935 
L 65.817824 140.242935 
L 65.94151 142.021447 
L 66.081069 140.242935 
L 66.199338 140.835773 
L 66.269056 140.242935 
L 66.293134 140.835773 
L 66.340916 140.242935 
L 66.410427 142.021447 
L 66.436885 142.021447 
L 66.52882 140.242935 
L 66.551727 140.835773 
L 66.575296 140.835773 
L 66.668819 143.207122 
L 66.693499 142.021447 
L 66.7164 140.835773 
L 66.739332 143.207122 
L 66.76321 144.392796 
L 66.810582 142.021447 
L 66.833451 142.614284 
L 66.907449 140.242935 
L 66.930768 143.207122 
L 66.953688 142.021447 
L 66.976538 144.392796 
L 67.049448 142.614284 
L 67.190848 144.392796 
L 67.308908 144.985633 
L 67.520235 144.985633 
L 67.613793 145.578471 
L 67.68462 144.985633 
L 67.707608 145.578471 
L 67.731316 145.578471 
L 67.77733 144.392796 
L 67.824686 145.578471 
L 67.849603 145.578471 
L 67.91964 143.207122 
L 67.943759 144.985633 
L 67.967891 146.764145 
L 68.06175 145.578471 
L 68.085528 145.578471 
L 68.227285 143.799959 
L 68.345221 144.392796 
L 68.368249 144.392796 
L 68.43829 144.985633 
L 68.461467 143.207122 
L 68.532414 145.578471 
L 68.579975 144.392796 
L 68.695707 145.578471 
L 68.719111 144.392796 
L 68.812356 144.985633 
L 68.882704 144.985633 
L 69.002389 145.578471 
L 69.14565 144.392796 
L 69.284631 145.578471 
L 69.588388 145.578471 
L 69.705822 146.764145 
L 70.108642 146.764145 
L 70.204013 147.356982 
L 70.320388 146.764145 
L 70.437393 147.356982 
L 70.81108 147.356982 
L 70.834347 147.94982 
L 70.857382 147.356982 
L 129.833122 147.94982 
L 129.856944 147.356982 
L 130.13604 145.578471 
L 130.256808 147.356982 
L 130.280432 145.578471 
L 130.337168 147.356982 
L 130.520125 143.207122 
L 130.597148 144.985633 
L 130.773663 146.764145 
L 130.848881 146.764145 
L 130.871788 147.356982 
L 130.895766 145.578471 
L 130.919783 145.578471 
L 130.94338 146.764145 
L 130.967366 144.985633 
L 130.99277 144.985633 
L 131.067474 140.242935 
L 131.110676 143.207122 
L 131.232697 145.578471 
L 131.259098 144.392796 
L 131.329851 145.578471 
L 131.352789 145.578471 
L 131.38784 146.764145 
L 131.434689 145.578471 
L 131.463231 144.985633 
L 131.537936 145.578471 
L 131.560858 145.578471 
L 131.680033 139.650098 
L 131.796271 145.578471 
L 131.889345 139.057261 
L 131.960009 140.242935 
L 132.052516 144.985633 
L 132.110381 146.764145 
L 132.13326 144.985633 
L 132.266438 144.392796 
L 132.290166 144.392796 
L 132.314423 143.799959 
L 132.337444 144.392796 
L 132.431944 146.764145 
L 132.455198 145.578471 
L 132.506922 145.578471 
L 132.655578 139.650098 
L 132.812308 146.764145 
L 132.884494 144.392796 
L 132.930241 145.578471 
L 132.953525 145.578471 
L 132.977767 146.764145 
L 133.000616 144.985633 
L 133.024398 145.578471 
L 133.118566 145.578471 
L 133.1424 144.392796 
L 133.191929 145.578471 
L 133.215871 147.356982 
L 133.262756 144.985633 
L 133.285993 144.985633 
L 133.308835 144.985633 
L 133.332963 145.578471 
L 133.357882 142.021447 
L 133.430407 142.614284 
L 133.478603 144.985633 
L 133.549185 143.799959 
L 133.666063 144.985633 
L 133.787506 144.392796 
L 133.857395 143.799959 
L 133.903155 144.985633 
L 133.926334 144.985633 
L 133.949188 144.392796 
L 134.019686 144.985633 
L 134.15951 146.764145 
L 134.182395 145.578471 
L 134.251626 146.764145 
L 134.368075 147.356982 
L 134.672366 147.356982 
L 134.742917 147.94982 
L 134.76661 147.356982 
L 135.001472 147.356982 
L 135.024567 144.985633 
L 135.117201 146.764145 
L 135.140814 146.764145 
L 135.261418 147.356982 
L 135.307979 147.356982 
L 135.331318 146.764145 
L 135.400275 147.356982 
L 135.423608 147.356982 
L 135.541122 147.94982 
L 136.040744 147.94982 
L 136.065654 148.542657 
L 136.118427 147.356982 
L 136.144346 147.94982 
L 136.26549 147.356982 
L 136.458759 147.356982 
L 136.576611 146.764145 
L 136.929456 146.764145 
L 136.952361 147.356982 
L 137.022083 146.764145 
L 137.210858 146.764145 
L 137.282539 147.356982 
L 137.305428 146.764145 
L 137.466572 146.764145 
L 137.536029 147.356982 
L 137.55903 146.764145 
L 137.606641 146.764145 
L 137.723176 147.356982 
L 137.746155 147.356982 
L 137.861195 146.764145 
L 137.884034 146.764145 
L 137.952713 147.356982 
L 137.976376 146.764145 
L 138.282915 146.764145 
L 230.489179 130.164702 
L 230.542449 131.350376 
L 230.653839 131.350376 
L 230.67692 130.164702 
L 230.724686 131.350376 
L 230.799834 131.350376 
L 230.823637 130.164702 
L 230.898917 131.350376 
L 231.086238 131.350376 
L 231.133522 131.943214 
L 231.180267 131.350376 
L 231.301668 131.350376 
L 231.4277 131.943214 
L 231.450972 131.350376 
L 231.497806 131.943214 
L 231.545132 131.943214 
L 231.568735 131.350376 
L 231.6376 131.943214 
L 231.707483 131.943214 
L 231.834362 131.350376 
L 231.963035 131.943214 
L 232.383968 131.943214 
L 232.499179 132.536051 
L 232.569326 131.943214 
L 232.593312 132.536051 
L 232.61675 132.536051 
L 232.736122 131.943214 
L 232.785639 131.943214 
L 232.900699 132.536051 
L 233.324364 132.536051 
L 233.347485 133.128888 
L 233.417005 132.536051 
L 233.490068 132.536051 
L 233.515652 133.128888 
L 233.596144 132.536051 
L 233.787706 132.536051 
L 233.907258 133.128888 
L 234.879085 133.128888 
L 234.903119 133.721726 
L 234.950863 133.128888 
L 235.163669 133.128888 
L 235.260349 133.721726 
L 235.379143 133.128888 
L 235.496071 133.721726 
L 235.808547 133.721726 
L 235.918985 134.314563 
L 236.034725 133.721726 
L 236.694792 133.721726 
L 236.717628 133.128888 
L 236.788818 133.721726 
L 236.931726 133.721726 
L 237.049337 133.128888 
L 237.095956 133.128888 
L 237.213272 133.721726 
L 237.543393 133.721726 
L 237.566257 134.314563 
L 237.634759 133.721726 
L 238.053064 133.721726 
L 238.076614 133.128888 
L 238.147204 133.721726 
L 238.192873 133.721726 
L 238.223596 133.128888 
L 238.297834 133.721726 
L 238.483754 133.721726 
L 238.507341 133.128888 
L 238.57802 133.721726 
L 239.308193 133.721726 
L 239.425778 134.314563 
L 239.449093 134.314563 
L 239.546068 133.721726 
L 239.648889 134.314563 
L 239.767072 133.721726 
L 239.860353 134.314563 
L 239.977672 133.721726 
L 240.072009 133.721726 
L 240.186863 134.314563 
L 240.575926 134.314563 
L 240.599062 134.9074 
L 240.667929 134.314563 
L 240.931667 134.314563 
L 241.003168 134.9074 
L 241.027387 134.314563 
L 241.07437 134.314563 
L 241.144598 134.9074 
L 241.167497 134.314563 
L 241.217636 134.314563 
L 241.339024 134.9074 
L 241.363799 134.314563 
L 241.440375 134.9074 
L 242.146154 134.9074 
L 242.266482 136.093075 
L 242.385509 134.9074 
L 242.626035 134.9074 
L 242.672358 136.093075 
L 242.72084 134.9074 
L 242.914916 134.9074 
L 243.009314 136.093075 
L 243.124789 134.9074 
L 243.242795 136.093075 
L 243.364127 134.9074 
L 243.387088 134.9074 
L 243.503888 136.093075 
L 243.622202 134.9074 
L 243.740098 136.093075 
L 244.35262 136.093075 
L 244.425204 136.685912 
L 244.448465 136.093075 
L 244.570668 136.093075 
L 244.594688 136.685912 
L 244.61792 136.093075 
L 244.87317 136.093075 
L 244.968091 136.685912 
L 245.086383 136.093075 
L 245.204973 136.685912 
L 245.937171 136.685912 
L 246.006965 137.278749 
L 246.032288 136.685912 
L 246.055236 136.685912 
L 246.125602 137.278749 
L 246.148923 136.685912 
L 246.171811 136.685912 
L 246.288343 137.278749 
L 246.73221 137.278749 
L 246.827408 136.685912 
L 246.944212 137.278749 
L 247.886671 137.278749 
L 247.909646 137.871586 
L 247.986331 137.278749 
L 248.789779 137.278749 
L 248.888109 137.871586 
L 248.959461 137.278749 
L 248.991195 137.871586 
L 249.711425 137.871586 
L 249.734369 137.278749 
L 249.806378 137.871586 
L 249.90236 137.871586 
L 249.97247 137.278749 
L 249.995629 137.871586 
L 250.091975 137.871586 
L 250.211247 137.278749 
L 250.304662 137.278749 
L 250.327518 137.871586 
L 250.399016 137.278749 
L 250.445922 137.278749 
L 250.542807 137.871586 
L 250.660816 137.278749 
L 250.823438 137.278749 
L 250.92181 137.871586 
L 251.040977 137.278749 
L 251.764054 137.278749 
L 251.881881 136.685912 
L 252.071985 136.685912 
L 252.119663 136.093075 
L 252.167349 136.685912 
L 252.286832 136.685912 
L 252.339793 136.093075 
L 252.387833 136.685912 
L 252.410941 136.685912 
L 252.435347 136.093075 
L 252.505346 136.685912 
L 253.149184 136.685912 
L 253.267312 136.093075 
L 253.321072 136.093075 
L 253.344167 136.685912 
L 253.413246 136.093075 
L 253.485685 136.093075 
L 253.603692 134.9074 
L 253.817752 134.9074 
L 253.86401 134.314563 
L 253.911635 134.9074 
L 254.451445 134.9074 
L 254.521193 134.314563 
L 254.544187 134.9074 
L 254.662202 134.9074 
L 254.778527 134.314563 
L 254.825472 134.314563 
L 254.940864 133.721726 
L 254.965216 133.721726 
L 255.08155 134.314563 
L 255.127277 134.314563 
L 255.243892 133.721726 
L 255.31483 134.314563 
L 255.344175 133.721726 
L 255.490462 133.721726 
L 255.608223 134.314563 
L 255.632678 134.314563 
L 255.728805 133.721726 
L 255.849857 134.314563 
L 255.924961 134.314563 
L 255.947911 133.721726 
L 256.017956 134.314563 
L 256.328401 134.314563 
L 256.4228 133.721726 
L 256.470129 134.314563 
L 256.517376 133.721726 
L 256.567238 133.721726 
L 256.687816 134.314563 
L 256.785478 133.721726 
L 256.85722 134.314563 
L 256.883305 133.721726 
L 257.003848 133.721726 
L 257.122348 134.314563 
L 257.241925 133.721726 
L 257.38605 133.721726 
L 257.412 134.314563 
L 257.490536 133.721726 
L 257.56487 133.721726 
L 257.588385 134.314563 
L 257.660652 133.721726 
L 257.819145 133.721726 
L 257.842034 132.536051 
L 257.935211 133.128888 
L 257.958187 133.128888 
L 258.075205 133.721726 
L 258.145528 133.721726 
L 258.191761 134.314563 
L 258.238852 133.721726 
L 258.355072 133.128888 
L 258.40222 133.128888 
L 258.425156 133.721726 
L 258.496177 133.128888 
L 258.520423 133.128888 
L 258.639992 133.721726 
L 258.880313 133.721726 
L 258.903306 134.314563 
L 258.95102 133.721726 
L 259.022938 133.128888 
L 259.045804 133.721726 
L 259.426172 133.721726 
L 259.54251 134.314563 
L 259.566973 134.314563 
L 259.590941 133.721726 
L 259.660022 134.314563 
L 259.917537 134.314563 
L 260.011824 133.721726 
L 260.167276 134.314563 
L 260.402627 134.314563 
L 260.471338 134.9074 
L 260.494531 134.314563 
L 260.659817 134.314563 
L 260.684181 133.721726 
L 260.753542 134.314563 
L 261.014932 134.314563 
L 261.038611 134.9074 
L 261.107808 134.314563 
L 261.403824 134.314563 
L 261.498932 134.9074 
L 261.593642 134.314563 
L 261.712807 134.9074 
L 262.06978 134.9074 
L 262.116691 134.314563 
L 262.166243 134.9074 
L 262.235882 134.9074 
L 262.260278 134.314563 
L 262.330478 134.9074 
L 262.955057 134.9074 
L 262.978889 136.093075 
L 263.059158 134.9074 
L 263.082974 134.9074 
L 263.214025 136.093075 
L 263.237011 136.093075 
L 263.355778 134.9074 
L 263.472453 136.093075 
L 263.598583 136.093075 
L 263.694443 134.9074 
L 263.85552 136.093075 
L 264.402439 136.093075 
L 264.487558 136.685912 
L 264.510985 136.093075 
L 264.535066 136.093075 
L 264.654866 136.685912 
L 264.702594 136.685912 
L 264.772571 136.093075 
L 264.802431 136.685912 
L 265.467984 136.685912 
L 265.49085 137.278749 
L 265.560497 136.685912 
L 265.938634 136.685912 
L 266.055548 137.278749 
L 266.126683 136.685912 
L 266.15073 137.278749 
L 266.198068 137.278749 
L 266.294529 136.685912 
L 266.418904 137.278749 
L 267.706615 137.278749 
L 267.732257 137.871586 
L 267.807688 137.278749 
L 267.856399 137.278749 
L 267.904198 137.871586 
L 267.952772 137.278749 
L 267.979031 137.278749 
L 268.075733 137.871586 
L 268.099559 137.278749 
L 268.171313 137.871586 
L 268.405802 137.871586 
L 268.430248 137.278749 
L 268.500809 137.871586 
L 268.570222 137.871586 
L 268.59311 137.278749 
L 268.662901 137.871586 
L 268.82959 137.871586 
L 268.854377 138.464424 
L 268.924625 137.871586 
L 269.546765 137.871586 
L 269.57073 137.278749 
L 269.644307 137.871586 
L 270.695829 137.871586 
L 270.719425 138.464424 
L 270.792806 137.871586 
L 271.131924 137.871586 
L 271.211227 138.464424 
L 271.234965 137.871586 
L 271.352927 137.871586 
L 271.47262 138.464424 
L 271.738943 138.464424 
L 271.76223 137.871586 
L 271.834332 138.464424 
L 272.120587 138.464424 
L 272.146047 137.871586 
L 272.215694 138.464424 
L 273.297641 138.464424 
L 273.323355 139.057261 
L 273.392579 138.464424 
L 273.463595 138.464424 
L 273.487916 139.057261 
L 273.562265 138.464424 
L 273.701293 138.464424 
L 273.793517 139.057261 
L 273.893152 138.464424 
L 273.989016 139.057261 
L 274.011847 138.464424 
L 274.082034 139.057261 
L 274.105026 139.057261 
L 274.22203 138.464424 
L 274.341266 139.057261 
L 274.437127 139.057261 
L 274.531542 138.464424 
L 274.625968 139.057261 
L 274.64889 138.464424 
L 274.72113 139.057261 
L 274.886251 139.057261 
L 274.910907 138.464424 
L 274.980328 139.057261 
L 276.656047 139.057261 
L 276.679987 139.650098 
L 276.750101 139.057261 
L 276.868071 139.057261 
L 276.89108 139.650098 
L 276.962179 139.057261 
L 277.008074 139.057261 
L 277.123807 139.650098 
L 277.24423 139.057261 
L 277.26922 139.057261 
L 277.38972 139.650098 
L 277.414421 139.650098 
L 277.507624 139.057261 
L 277.625126 139.650098 
L 278.235649 139.650098 
L 278.258904 140.242935 
L 278.328836 139.650098 
L 278.587057 139.650098 
L 278.661105 140.242935 
L 278.687228 139.650098 
L 278.805918 139.650098 
L 278.930791 140.242935 
L 279.002684 139.650098 
L 279.026407 140.242935 
L 279.050231 140.242935 
L 279.152088 139.650098 
L 279.176067 140.242935 
L 279.252636 139.650098 
L 279.322701 139.650098 
L 279.347612 140.242935 
L 279.460488 139.650098 
L 280.736181 139.650098 
L 280.812981 139.057261 
L 280.838235 139.650098 
L 280.906896 139.650098 
L 281.010302 139.057261 
L 281.056149 139.650098 
L 281.101937 139.057261 
L 281.735171 139.057261 
L 281.839875 138.464424 
L 281.963527 139.057261 
L 282.111342 137.871586 
L 282.135905 138.464424 
L 282.208152 137.871586 
L 282.349941 137.871586 
L 282.492485 137.278749 
L 282.590095 137.278749 
L 282.620262 136.685912 
L 282.689183 137.278749 
L 282.762156 137.278749 
L 282.837292 137.871586 
L 282.860162 137.278749 
L 282.912341 137.278749 
L 283.00438 137.871586 
L 283.143573 136.685912 
L 283.189495 136.685912 
L 283.304792 137.278749 
L 283.396847 136.685912 
L 283.419927 137.278749 
L 283.488757 136.685912 
L 283.558096 136.685912 
L 283.581455 137.278749 
L 283.65795 136.685912 
L 283.680886 136.685912 
L 283.797158 137.278749 
L 283.820231 136.685912 
L 283.889229 137.278749 
L 284.197491 137.278749 
L 284.289162 136.685912 
L 284.411268 137.278749 
L 284.533273 137.278749 
L 284.556275 136.685912 
L 284.624948 137.278749 
L 284.765999 137.278749 
L 284.882272 136.685912 
L 285.002008 137.278749 
L 285.116883 136.685912 
L 285.467166 136.685912 
L 285.551962 137.278749 
L 285.675979 136.685912 
L 286.298511 136.685912 
L 286.383316 136.093075 
L 286.650503 136.093075 
L 286.673749 136.685912 
L 286.712272 136.093075 
L 287.327632 136.093075 
L 287.410109 136.685912 
L 287.436353 136.093075 
L 287.74607 136.093075 
L 287.782158 136.685912 
L 287.809023 134.9074 
L 287.892249 136.093075 
L 287.950187 136.093075 
L 288.085655 134.9074 
L 288.578272 134.9074 
L 288.790057 133.721726 
L 288.898705 134.314563 
L 289.58209 134.314563 
L 289.612248 133.721726 
L 289.669384 134.314563 
L 289.792689 134.314563 
L 289.920926 133.721726 
L 290.097079 133.721726 
L 290.120149 134.314563 
L 290.197148 133.721726 
L 290.246324 133.721726 
L 290.348014 133.128888 
L 290.423714 133.721726 
L 290.4507 133.128888 
L 290.615051 133.128888 
L 290.742081 133.721726 
L 290.844623 133.721726 
L 290.868501 134.314563 
L 290.945767 133.721726 
L 291.093078 133.721726 
L 291.220964 133.128888 
L 291.285348 133.721726 
L 291.322257 133.128888 
L 291.351342 133.128888 
L 291.448 132.536051 
L 291.471757 133.128888 
L 291.548716 132.536051 
L 291.623855 132.536051 
L 291.826468 131.943214 
L 291.940007 132.536051 
L 292.061639 131.943214 
L 292.085347 131.943214 
L 292.111903 132.536051 
L 292.367551 132.536051 
L 292.398896 133.128888 
L 292.465483 132.536051 
L 292.599442 132.536051 
L 292.722462 133.128888 
L 293.180133 133.128888 
L 293.31136 132.536051 
L 293.43921 132.536051 
L 293.546848 133.128888 
L 293.684368 132.536051 
L 293.735774 132.536051 
L 293.846218 133.128888 
L 294.023945 133.128888 
L 294.061343 133.721726 
L 294.115919 133.128888 
L 294.140409 133.128888 
L 294.21589 133.721726 
L 294.242475 133.128888 
L 294.311199 133.128888 
L 294.444936 133.721726 
L 294.580349 133.721726 
L 294.688081 134.314563 
L 294.757758 133.721726 
L 294.79786 134.9074 
L 294.856767 134.314563 
L 295.03492 134.314563 
L 295.163203 134.9074 
L 295.190584 134.314563 
L 295.269559 134.9074 
L 295.473294 134.9074 
L 295.600529 136.093075 
L 296.029317 136.093075 
L 296.1587 136.685912 
L 296.186043 136.093075 
L 296.266214 136.685912 
L 296.661125 136.685912 
L 296.760083 137.278749 
L 296.863505 136.685912 
L 296.91078 137.278749 
L 296.985961 136.685912 
L 297.009904 137.278749 
L 297.064529 137.278749 
L 297.114784 136.685912 
L 297.171799 137.278749 
L 297.672525 137.278749 
L 297.792547 137.871586 
L 298.383469 137.871586 
L 298.453133 138.464424 
L 298.483388 137.871586 
L 298.778622 137.871586 
L 298.894131 138.464424 
L 299.013949 137.871586 
L 299.061761 137.871586 
L 299.179905 138.464424 
L 299.249332 137.871586 
L 299.272419 138.464424 
L 299.991295 138.464424 
L 300.084111 139.057261 
L 300.198738 138.464424 
L 300.221611 138.464424 
L 300.314436 139.057261 
L 300.337314 138.464424 
L 300.408075 139.057261 
L 300.992855 139.057261 
L 301.110184 139.650098 
L 301.156649 139.650098 
L 301.180225 139.057261 
L 301.248872 139.650098 
L 301.409265 139.650098 
L 301.501481 140.242935 
L 301.57154 139.650098 
L 301.594433 140.242935 
L 301.802506 140.242935 
L 301.900119 140.835773 
L 302.018014 140.242935 
L 302.592708 140.242935 
L 302.616354 139.650098 
L 302.68432 140.242935 
L 302.938823 140.242935 
L 302.962593 140.835773 
L 303.040896 140.242935 
L 303.253724 140.242935 
L 303.277783 140.835773 
L 303.348652 140.242935 
L 304.004715 140.242935 
L 304.119922 140.835773 
L 304.167234 140.835773 
L 304.284727 140.242935 
L 304.332148 140.242935 
L 304.452304 140.835773 
L 305.66672 140.835773 
L 305.781677 142.021447 
L 305.899284 140.835773 
L 305.946402 140.835773 
L 306.061789 142.021447 
L 306.084649 142.021447 
L 306.153116 140.835773 
L 306.176722 142.021447 
L 307.212039 142.021447 
L 307.332405 142.614284 
L 307.451984 142.021447 
L 307.754397 142.021447 
L 307.800111 142.614284 
L 307.84611 142.021447 
L 308.010042 142.021447 
L 308.033005 142.614284 
L 308.103606 142.021447 
L 308.362581 142.021447 
L 308.385391 142.614284 
L 308.454379 142.021447 
L 308.547202 142.021447 
L 308.570153 142.614284 
L 308.638964 142.021447 
L 308.687594 142.021447 
L 308.803536 142.614284 
L 308.852346 142.614284 
L 308.968162 142.021447 
L 309.062194 142.614284 
L 309.085268 142.021447 
L 309.155928 142.614284 
L 309.343304 142.614284 
L 309.366897 142.021447 
L 309.436683 142.614284 
L 309.81071 142.614284 
L 309.927395 143.207122 
L 310.045746 142.614284 
L 310.616848 142.614284 
L 310.687502 143.207122 
L 310.711636 142.614284 
L 310.807461 142.614284 
L 310.922172 143.207122 
L 311.041731 142.614284 
L 311.06463 143.207122 
L 311.135936 142.614284 
L 312.443613 142.614284 
L 312.514608 142.021447 
L 312.537643 142.614284 
L 312.563641 142.614284 
L 312.588184 142.021447 
L 312.65678 142.614284 
L 312.819566 142.614284 
L 312.913689 142.021447 
L 312.985379 142.614284 
L 313.009282 142.021447 
L 313.103537 142.021447 
L 313.151109 142.614284 
L 313.197666 142.021447 
L 313.243931 142.021447 
L 313.266807 142.614284 
L 313.338962 142.021447 
L 313.672552 142.021447 
L 313.792121 140.835773 
L 314.11326 140.835773 
L 314.137084 140.242935 
L 314.209365 140.835773 
L 314.279677 140.835773 
L 314.396023 140.242935 
L 314.610274 140.242935 
L 314.734729 139.650098 
L 314.760693 139.650098 
L 314.784359 140.242935 
L 314.853665 139.650098 
L 315.016762 139.650098 
L 315.136733 139.057261 
L 315.33045 139.057261 
L 315.452101 138.464424 
L 315.546676 138.464424 
L 315.676258 137.871586 
L 315.983413 137.871586 
L 316.006411 137.278749 
L 316.077978 137.871586 
L 316.162435 137.871586 
L 316.269427 137.278749 
L 316.42175 137.278749 
L 316.47428 136.685912 
L 316.498026 137.278749 
L 316.589839 137.871586 
L 316.708356 137.278749 
L 316.754639 137.278749 
L 316.777489 136.685912 
L 316.827835 137.278749 
L 316.877856 136.685912 
L 316.957923 137.871586 
L 317.005261 137.871586 
L 317.028079 138.464424 
L 317.054608 137.871586 
L 317.156669 137.871586 
L 317.285061 137.278749 
L 317.308857 137.278749 
L 317.33173 136.685912 
L 317.354573 137.871586 
L 317.475452 138.464424 
L 317.528133 138.464424 
L 317.59989 137.871586 
L 317.622766 138.464424 
L 317.693589 138.464424 
L 317.814385 137.871586 
L 317.861848 137.871586 
L 317.987903 138.464424 
L 318.082394 138.464424 
L 318.1993 137.871586 
L 318.270724 137.871586 
L 318.319677 137.278749 
L 318.398307 138.464424 
L 318.521384 137.871586 
L 318.544781 137.871586 
L 318.644222 133.128888 
L 318.66833 130.164702 
L 318.717064 134.314563 
L 318.740225 133.721726 
L 319.000244 137.871586 
L 319.098153 137.871586 
L 319.21675 138.464424 
L 319.336248 137.871586 
L 319.696865 137.871586 
L 319.720581 138.464424 
L 319.790159 137.871586 
L 319.908389 137.871586 
L 319.933768 138.464424 
L 319.982628 137.871586 
L 320.053966 136.685912 
L 320.078167 137.278749 
L 320.171836 137.871586 
L 320.289854 137.278749 
L 320.335615 137.278749 
L 320.43017 136.685912 
L 320.527296 136.685912 
L 320.581339 136.093075 
L 320.605062 137.278749 
L 320.6747 137.278749 
L 320.698799 137.871586 
L 320.750331 136.685912 
L 320.850593 136.685912 
L 320.899003 134.314563 
L 320.9233 134.9074 
L 321.009111 136.093075 
L 321.300398 134.9074 
L 321.352591 136.093075 
L 321.436059 136.093075 
L 321.558321 129.571865 
L 321.636588 131.350376 
L 321.794769 134.314563 
L 321.924735 134.9074 
L 321.972363 134.9074 
L 322.041654 134.314563 
L 322.077247 134.9074 
L 322.109637 134.9074 
L 322.232112 136.093075 
L 322.289928 134.9074 
L 322.343026 136.093075 
L 322.462098 134.314563 
L 322.538618 136.093075 
L 322.608948 136.093075 
L 322.752938 137.278749 
L 322.815154 136.093075 
L 322.842643 137.278749 
L 322.932294 137.871586 
L 323.049317 136.685912 
L 323.105213 137.871586 
L 323.12889 136.685912 
L 323.310007 134.314563 
L 323.34318 134.9074 
L 323.403825 134.314563 
L 323.426769 133.721726 
L 323.45732 134.9074 
L 323.494257 134.9074 
L 323.572145 133.721726 
L 323.706196 136.093075 
L 323.798908 136.093075 
L 323.88967 134.9074 
L 324.012157 136.093075 
L 324.148852 134.9074 
L 324.273903 136.093075 
L 324.375729 136.093075 
L 324.424138 134.9074 
L 324.476374 136.093075 
L 324.581596 136.093075 
L 324.695054 136.685912 
L 325.186265 136.685912 
L 325.222083 136.093075 
L 325.296614 136.685912 
L 325.350557 136.685912 
L 325.472456 137.278749 
L 325.594467 136.685912 
L 325.642826 136.685912 
L 325.779319 137.278749 
L 325.904463 137.278749 
L 325.927757 137.871586 
L 326.015003 137.278749 
L 326.087063 136.685912 
L 326.111917 137.278749 
L 326.170663 137.278749 
L 326.344442 136.685912 
L 326.489845 136.685912 
L 326.597319 137.278749 
L 326.959729 137.278749 
L 327.0859 137.871586 
L 327.265069 137.871586 
L 327.295831 138.464424 
L 327.371882 137.871586 
L 327.402191 137.871586 
L 327.527465 138.464424 
L 327.552047 137.871586 
L 327.627536 138.464424 
L 327.817185 138.464424 
L 327.94002 137.871586 
L 327.963851 137.871586 
L 328.013167 138.464424 
L 328.060945 137.871586 
L 328.131958 137.871586 
L 328.268116 138.464424 
L 329.030498 138.464424 
L 329.1589 137.871586 
L 329.69039 137.871586 
L 329.713291 138.464424 
L 329.786982 137.871586 
L 330.149123 137.871586 
L 330.269034 138.464424 
L 330.353207 138.464424 
L 330.376046 137.871586 
L 330.458178 138.464424 
L 330.557878 138.464424 
L 330.584139 137.871586 
L 330.654073 138.464424 
L 330.958163 138.464424 
L 330.981781 139.057261 
L 331.052711 138.464424 
L 331.354945 138.464424 
L 331.476392 137.871586 
L 331.548445 137.871586 
L 331.667429 138.464424 
L 331.786656 137.871586 
L 331.809952 137.871586 
L 331.940229 138.464424 
L 332.063369 137.871586 
L 332.209184 137.871586 
L 332.331892 138.464424 
L 332.408824 137.871586 
L 332.432254 138.464424 
L 332.456889 138.464424 
L 332.552682 137.871586 
L 332.672501 138.464424 
L 332.751289 138.464424 
L 332.777319 137.871586 
L 332.847346 138.464424 
L 332.919083 138.464424 
L 332.943061 137.871586 
L 333.012879 138.464424 
L 333.368873 138.464424 
L 333.463342 139.057261 
L 333.557813 138.464424 
L 333.651459 139.057261 
L 333.74891 138.464424 
L 333.795435 139.057261 
L 333.841501 138.464424 
L 333.865239 138.464424 
L 333.993318 139.057261 
L 334.085835 138.464424 
L 334.204963 139.057261 
L 334.227885 139.057261 
L 334.250805 138.464424 
L 334.319526 139.057261 
L 335.052284 139.057261 
L 335.167507 139.650098 
L 335.214123 139.650098 
L 335.332191 139.057261 
L 335.450313 139.650098 
L 336.669282 139.650098 
L 336.692207 140.242935 
L 336.762181 139.650098 
L 337.115281 139.650098 
L 337.163381 140.242935 
L 337.209305 139.650098 
L 337.514978 139.650098 
L 337.606961 140.242935 
L 337.723983 139.650098 
L 337.842038 140.242935 
L 337.888979 140.242935 
L 337.985091 139.650098 
L 338.080551 140.242935 
L 338.198462 139.650098 
L 338.316462 140.242935 
L 338.346133 140.242935 
L 338.462425 139.650098 
L 338.577967 140.242935 
L 339.962763 140.242935 
L 340.033744 140.835773 
L 340.056575 140.242935 
L 340.08031 140.242935 
L 340.194834 140.835773 
L 340.332939 140.835773 
L 340.448165 140.242935 
L 340.563131 140.835773 
L 340.654524 140.835773 
L 340.747322 142.021447 
L 340.862764 140.835773 
L 341.440429 140.835773 
L 341.555972 142.021447 
L 342.298619 142.021447 
L 342.372476 140.835773 
L 342.397211 142.021447 
L 342.420223 142.021447 
L 342.521029 140.835773 
L 342.637481 142.021447 
L 342.771597 140.835773 
L 342.795806 140.835773 
L 342.819324 142.021447 
L 342.894884 140.835773 
L 343.018044 140.835773 
L 343.043612 142.021447 
L 343.116049 140.835773 
L 343.164291 140.835773 
L 343.279925 142.021447 
L 343.303079 142.021447 
L 343.422667 140.835773 
L 343.470089 140.835773 
L 343.585689 142.021447 
L 343.611334 142.021447 
L 343.726918 140.835773 
L 343.98151 140.835773 
L 344.097054 140.242935 
L 344.312928 140.242935 
L 344.427416 139.650098 
L 344.474283 139.650098 
L 344.497427 140.242935 
L 344.567026 139.650098 
L 344.71182 139.650098 
L 344.737612 140.242935 
L 344.810811 139.650098 
L 344.883154 139.650098 
L 344.906971 139.057261 
L 344.976852 139.650098 
L 345.167662 139.650098 
L 345.190879 139.057261 
L 345.261683 139.650098 
L 345.308544 139.650098 
L 345.431714 139.057261 
L 345.550872 139.057261 
L 345.67108 138.464424 
L 345.916212 138.464424 
L 346.033223 137.871586 
L 346.19707 137.871586 
L 346.33632 136.685912 
L 346.451934 136.685912 
L 346.573308 137.278749 
L 346.694386 136.685912 
L 346.768543 136.685912 
L 346.905837 134.314563 
L 347.071183 133.128888 
L 347.097971 133.128888 
L 347.144719 132.536051 
L 347.193996 133.128888 
L 347.360735 133.128888 
L 347.456978 132.536051 
L 347.597051 133.721726 
L 347.841008 128.979027 
L 347.890515 132.536051 
L 347.944085 131.350376 
L 347.990854 130.164702 
L 348.013835 133.128888 
L 348.06178 129.571865 
L 348.135102 131.350376 
L 348.256655 132.536051 
L 348.375195 131.350376 
L 348.398105 131.943214 
L 348.423221 131.350376 
L 348.51602 130.164702 
L 348.644955 132.536051 
L 348.667839 132.536051 
L 348.740529 131.943214 
L 348.84212 134.9074 
L 348.867814 134.314563 
L 348.939386 134.9074 
L 349.198978 134.9074 
L 349.321529 131.943214 
L 349.352607 133.721726 
L 349.37561 133.721726 
L 349.398599 134.314563 
L 349.42221 128.38619 
L 349.492673 134.314563 
L 349.515631 134.314563 
L 349.541265 133.128888 
L 349.597075 134.9074 
L 349.620965 134.314563 
L 349.643886 134.314563 
L 349.66689 133.721726 
L 349.690635 134.9074 
L 349.737989 134.314563 
L 349.930244 134.314563 
L 350.04647 134.9074 
L 350.234548 134.9074 
L 350.34933 134.314563 
L 350.373195 134.314563 
L 350.457797 134.9074 
L 350.481496 134.314563 
L 350.976559 134.314563 
L 351.327425 131.350376 
L 351.442393 133.128888 
L 351.595549 131.350376 
L 351.644301 131.943214 
L 351.718214 131.350376 
L 351.7896 133.128888 
L 351.956356 129.571865 
L 352.079096 133.721726 
L 352.103099 131.943214 
L 352.168224 133.721726 
L 352.222654 132.536051 
L 352.327001 123.643492 
L 352.570019 129.571865 
L 352.606814 128.38619 
L 352.670403 131.943214 
L 352.726547 131.350376 
L 352.755886 129.571865 
L 352.892573 129.571865 
L 353.074039 132.536051 
L 353.136389 128.38619 
L 353.206797 128.979027 
L 353.236331 128.38619 
L 353.370977 130.164702 
L 353.401908 129.571865 
L 353.509092 128.38619 
L 353.68781 131.350376 
L 353.79585 129.571865 
L 353.82182 131.350376 
L 353.848545 128.979027 
L 353.872288 129.571865 
L 353.990069 128.979027 
L 354.016073 127.200516 
L 354.04545 128.38619 
L 354.128411 128.38619 
L 354.323737 130.164702 
L 354.444822 131.350376 
L 354.508348 131.350376 
L 354.541717 129.571865 
L 354.572189 130.164702 
L 354.697184 130.164702 
L 354.74965 129.571865 
L 354.77342 130.164702 
L 354.889903 130.164702 
L 354.915838 129.571865 
L 354.995016 130.164702 
L 355.072844 130.164702 
L 355.201873 129.571865 
L 355.288868 129.571865 
L 355.343182 130.164702 
L 355.368184 129.571865 
L 355.452755 130.164702 
L 355.478129 128.979027 
L 355.508293 131.350376 
L 355.543345 130.164702 
L 355.663504 129.571865 
L 355.758435 130.164702 
L 355.875187 127.793353 
L 355.925387 128.38619 
L 356.124772 131.943214 
L 356.229518 131.943214 
L 356.336381 131.350376 
L 356.436528 132.536051 
L 356.462067 131.943214 
L 356.493967 131.943214 
L 356.624011 132.536051 
L 356.648583 132.536051 
L 356.718221 133.128888 
L 356.742049 131.943214 
L 356.819114 133.128888 
L 357.373877 133.128888 
L 357.446737 131.943214 
L 357.471731 133.128888 
L 357.509628 133.128888 
L 357.570363 132.536051 
L 357.620023 133.128888 
L 357.799302 133.128888 
L 357.900554 131.350376 
L 357.949237 132.536051 
L 357.972502 133.128888 
L 358.023472 131.943214 
L 358.14993 130.164702 
L 358.202602 130.164702 
L 358.278508 131.943214 
L 358.318814 131.350376 
L 358.577405 132.536051 
L 359.065242 132.536051 
L 359.299095 131.350376 
L 359.410747 131.350376 
L 359.554679 129.571865 
L 360.471863 129.571865 
L 360.566006 130.164702 
L 360.637336 129.571865 
L 360.660398 130.164702 
L 361.569546 130.164702 
L 361.593462 131.350376 
L 361.665651 130.164702 
L 361.688523 130.164702 
L 361.759979 131.350376 
L 361.782976 130.164702 
L 361.853003 130.164702 
L 361.946021 131.350376 
L 362.062504 130.164702 
L 362.186608 131.350376 
L 363.124688 131.350376 
L 363.243204 131.943214 
L 363.338015 131.350376 
L 363.458271 131.943214 
L 363.642487 131.943214 
L 363.73696 131.350376 
L 363.853673 131.943214 
L 363.992347 131.943214 
L 364.015423 131.350376 
L 364.084931 131.943214 
L 364.533277 131.943214 
L 364.610075 132.536051 
L 364.633727 131.943214 
L 364.703896 131.943214 
L 364.820969 132.536051 
L 365.331607 132.536051 
L 365.354573 133.128888 
L 365.423557 132.536051 
L 365.584887 132.536051 
L 365.69981 133.128888 
L 365.815463 132.536051 
L 365.84516 132.536051 
L 365.960712 133.128888 
L 365.983596 132.536051 
L 366.0561 133.128888 
L 366.593495 133.128888 
L 366.709897 133.721726 
L 366.778874 133.128888 
L 366.860973 133.128888 
L 366.979472 133.721726 
L 367.352869 133.721726 
L 367.37646 133.128888 
L 367.446798 133.721726 
L 368.448288 133.721726 
L 368.540744 134.314563 
L 368.563609 133.721726 
L 368.635279 134.314563 
L 369.390074 134.314563 
L 369.460354 134.9074 
L 369.48361 134.314563 
L 369.532167 134.314563 
L 369.625031 134.9074 
L 369.722242 134.314563 
L 369.840023 134.9074 
L 369.959545 134.314563 
L 370.078454 134.9074 
L 370.314386 134.9074 
L 370.337236 134.314563 
L 370.407654 134.9074 
L 370.75732 134.9074 
L 370.783648 136.093075 
L 370.853707 134.9074 
L 370.949042 134.9074 
L 371.070686 136.093075 
L 371.187226 134.9074 
L 371.304114 136.093075 
L 371.539459 136.093075 
L 371.65565 136.685912 
L 371.679277 136.685912 
L 371.799552 136.093075 
L 371.846365 136.093075 
L 371.919841 136.685912 
L 371.943889 136.093075 
L 372.040484 136.093075 
L 372.063815 136.685912 
L 372.134804 136.093075 
L 372.449988 136.093075 
L 372.525346 136.685912 
L 372.551118 136.093075 
L 372.672394 136.093075 
L 372.695471 136.685912 
L 372.768936 136.093075 
L 372.795325 136.093075 
L 372.844582 136.685912 
L 372.894828 136.093075 
L 373.010893 136.093075 
L 373.034005 136.685912 
L 373.103802 136.093075 
L 373.174781 136.093075 
L 373.197625 136.685912 
L 373.267146 136.093075 
L 373.312901 136.093075 
L 373.433445 136.685912 
L 373.997113 136.685912 
L 374.020861 136.093075 
L 374.092496 136.685912 
L 374.656047 136.685912 
L 374.774806 137.278749 
L 374.891945 136.685912 
L 376.170363 136.685912 
L 376.248417 136.093075 
L 376.271388 136.685912 
L 376.29707 136.685912 
L 376.395364 136.093075 
L 376.514452 136.685912 
L 376.560932 136.685912 
L 376.682279 136.093075 
L 376.774866 136.093075 
L 376.871955 134.9074 
L 376.91784 136.093075 
L 376.966819 134.9074 
L 377.160661 134.9074 
L 377.278652 134.314563 
L 377.301975 134.9074 
L 377.373799 134.314563 
L 377.683439 134.314563 
L 377.707511 133.721726 
L 377.779136 134.314563 
L 377.873499 134.314563 
L 377.992299 133.721726 
L 378.102001 133.721726 
L 378.217267 133.128888 
L 378.336258 133.128888 
L 378.454179 132.536051 
L 378.737708 132.536051 
L 378.761076 131.943214 
L 378.83205 132.536051 
L 379.010277 132.536051 
L 379.056339 131.943214 
L 379.103221 132.536051 
L 379.126153 132.536051 
L 379.342956 129.571865 
L 379.366927 129.571865 
L 379.485553 130.164702 
L 379.509168 130.164702 
L 379.650764 128.979027 
L 379.73254 129.571865 
L 379.756177 128.979027 
L 379.779034 128.979027 
L 379.895929 129.571865 
L 380.013324 128.979027 
L 380.155622 128.979027 
L 380.275147 128.38619 
L 380.420527 128.38619 
L 380.493 128.979027 
L 380.541683 127.793353 
L 380.658676 128.38619 
L 380.705521 128.38619 
L 380.729544 127.793353 
L 380.777835 128.979027 
L 380.804482 128.979027 
L 380.947443 126.607678 
L 380.970796 127.200516 
L 381.109803 128.38619 
L 381.133957 127.793353 
L 381.205241 128.38619 
L 381.27617 128.38619 
L 381.298976 128.979027 
L 381.369355 128.38619 
L 381.392348 127.200516 
L 381.41642 128.979027 
L 381.466658 128.979027 
L 381.61112 130.164702 
L 381.768235 128.38619 
L 381.862632 129.571865 
L 382.00272 126.014841 
L 382.145848 128.979027 
L 382.21725 127.200516 
L 382.287526 127.793353 
L 382.334667 127.793353 
L 382.454775 129.571865 
L 382.550918 128.38619 
L 382.575368 128.979027 
L 382.5994 129.571865 
L 382.646392 128.979027 
L 382.692588 128.38619 
L 382.716941 128.979027 
L 382.839525 130.164702 
L 382.959501 129.571865 
L 382.984239 130.164702 
L 383.031144 126.014841 
L 383.103805 127.793353 
L 383.150743 129.571865 
L 383.220908 128.979027 
L 383.269682 126.014841 
L 383.292887 130.164702 
L 383.387184 129.571865 
L 383.410744 129.571865 
L 383.509151 126.014841 
L 383.532978 129.571865 
L 383.628579 128.979027 
L 383.651815 128.979027 
L 383.674653 129.571865 
L 383.69772 124.236329 
L 383.79086 125.422004 
L 383.815044 126.014841 
L 383.839554 124.236329 
L 383.91053 123.643492 
L 383.933927 125.422004 
L 383.98203 122.457818 
L 384.00685 122.457818 
L 384.146295 120.679306 
L 384.411898 126.607678 
L 384.458869 126.014841 
L 384.48224 126.014841 
L 384.626754 127.200516 
L 384.649954 127.200516 
L 384.673782 127.793353 
L 384.698663 127.200516 
L 384.721597 126.014841 
L 384.745367 127.793353 
L 384.815833 126.607678 
L 384.885979 126.607678 
L 385.004638 126.014841 
L 385.123334 126.607678 
L 385.170028 126.607678 
L 385.2193 128.38619 
L 385.26757 127.200516 
L 385.362894 126.014841 
L 385.4325 128.38619 
L 385.478601 127.200516 
L 385.526363 126.607678 
L 385.574274 127.200516 
L 385.599164 127.200516 
L 385.739653 128.38619 
L 385.915343 124.236329 
L 385.938628 126.014841 
L 386.102999 128.38619 
L 386.218836 127.793353 
L 386.310652 128.38619 
L 386.426312 127.793353 
L 386.54143 128.38619 
L 386.58712 128.38619 
L 386.704329 128.979027 
L 386.728184 128.38619 
L 386.797657 128.979027 
L 386.84342 129.571865 
L 386.891238 128.979027 
L 386.938146 127.793353 
L 386.962503 124.236329 
L 387.034014 125.422004 
L 387.057262 127.793353 
L 387.150722 126.014841 
L 387.174043 126.014841 
L 387.269914 127.200516 
L 387.29392 126.607678 
L 387.316739 126.607678 
L 387.433499 127.200516 
L 387.4577 127.200516 
L 387.576058 127.793353 
L 387.599226 127.793353 
L 387.716722 126.014841 
L 387.740304 126.607678 
L 387.764416 126.607678 
L 387.814494 127.200516 
L 387.885584 125.422004 
L 388.009501 126.607678 
L 388.1263 127.200516 
L 388.290228 127.200516 
L 388.408591 127.793353 
L 388.57322 127.793353 
L 388.622765 128.38619 
L 388.671698 127.793353 
L 388.767254 127.793353 
L 388.887383 128.38619 
L 388.910551 128.38619 
L 388.933459 127.793353 
L 389.002646 128.38619 
L 389.072877 128.38619 
L 389.192737 128.979027 
L 389.384901 128.979027 
L 389.42186 128.38619 
L 389.453148 128.979027 
L 389.535687 128.979027 
L 389.722535 128.38619 
L 390.562847 128.38619 
L 390.624607 127.793353 
L 390.670495 128.38619 
L 390.895448 128.38619 
L 391.024032 128.979027 
L 391.071648 128.38619 
L 391.128471 128.979027 
L 391.15249 128.979027 
L 391.277423 128.38619 
L 391.303838 128.979027 
L 391.376951 128.38619 
L 391.402838 128.38619 
L 391.481276 128.979027 
L 391.504208 128.38619 
L 391.553631 128.38619 
L 391.5774 127.793353 
L 391.649401 128.38619 
L 391.843764 128.38619 
L 391.866997 127.793353 
L 391.938361 128.38619 
L 392.137677 128.38619 
L 392.161045 127.793353 
L 392.23396 128.38619 
L 393.305307 128.38619 
L 393.328992 128.979027 
L 393.404479 128.38619 
L 393.477629 128.38619 
L 393.56016 128.979027 
L 393.586533 128.38619 
L 393.61168 128.38619 
L 393.740969 128.979027 
L 394.081983 128.979027 
L 394.1812 129.571865 
L 394.306954 128.979027 
L 394.575422 128.979027 
L 394.695731 129.571865 
L 394.718579 129.571865 
L 394.813136 128.979027 
L 394.930131 129.571865 
L 394.977585 128.979027 
L 395.023555 129.571865 
L 395.592374 129.571865 
L 395.616206 130.164702 
L 395.68759 129.571865 
L 395.967495 129.571865 
L 396.083109 130.164702 
L 396.177443 129.571865 
L 396.271512 131.350376 
L 396.29451 130.164702 
L 396.484973 130.164702 
L 396.507898 129.571865 
L 396.580093 130.164702 
L 397.105378 130.164702 
L 397.133872 131.350376 
L 397.205821 130.164702 
L 397.659728 130.164702 
L 397.68435 131.350376 
L 397.757964 130.164702 
L 397.781635 130.164702 
L 397.90486 131.350376 
L 398.28972 131.350376 
L 398.313281 130.164702 
L 398.361129 131.350376 
L 398.433858 130.164702 
L 398.457635 131.350376 
L 398.556989 131.350376 
L 398.674347 130.164702 
L 398.794104 131.350376 
L 399.100065 131.350376 
L 399.122966 131.943214 
L 399.191866 131.350376 
L 399.519069 131.350376 
L 399.612911 131.943214 
L 399.6594 131.350376 
L 399.706252 131.943214 
L 399.729823 131.943214 
L 399.802532 131.350376 
L 399.825925 131.943214 
L 399.896736 131.943214 
L 399.921327 131.350376 
L 399.992827 131.943214 
L 400.300485 131.943214 
L 400.394026 132.536051 
L 400.510521 131.943214 
L 401.331188 131.943214 
L 401.401435 132.536051 
L 401.424323 131.943214 
L 401.493566 131.943214 
L 401.611457 132.536051 
L 401.634772 132.536051 
L 401.6584 131.943214 
L 401.729055 132.536051 
L 402.034942 132.536051 
L 402.058747 131.943214 
L 402.128527 132.536051 
L 402.623132 132.536051 
L 402.739279 133.128888 
L 403.088152 133.128888 
L 403.205986 132.536051 
L 403.320615 133.128888 
L 403.392707 132.536051 
L 403.417152 133.128888 
L 403.439992 133.128888 
L 403.558537 132.536051 
L 403.606453 132.536051 
L 403.725857 133.128888 
L 403.797329 132.536051 
L 403.820904 133.128888 
L 404.007342 133.128888 
L 404.076838 132.536051 
L 404.100478 133.128888 
L 404.596802 133.128888 
L 404.690183 133.721726 
L 404.808489 133.128888 
L 404.971743 133.128888 
L 405.089375 132.536051 
L 406.058081 132.536051 
L 406.081352 131.943214 
L 406.153102 132.536051 
L 406.321821 132.536051 
L 406.348018 131.943214 
L 406.423521 132.536051 
L 406.520257 132.536051 
L 406.642211 131.943214 
L 406.669827 131.943214 
L 406.745005 132.536051 
L 406.76978 131.943214 
L 406.817958 131.943214 
L 406.865098 132.536051 
L 406.912722 131.943214 
L 407.040654 131.943214 
L 407.140876 132.536051 
L 407.266789 131.943214 
L 407.910888 131.943214 
L 407.934885 131.350376 
L 408.005919 131.943214 
L 408.054025 131.943214 
L 408.077969 131.350376 
L 408.148124 131.943214 
L 408.171193 131.943214 
L 408.290756 131.350376 
L 408.407888 131.943214 
L 408.528317 131.943214 
L 408.55118 132.536051 
L 408.621337 131.943214 
L 408.715456 131.350376 
L 408.834451 131.943214 
L 409.001014 131.943214 
L 409.073839 131.350376 
L 409.099131 131.943214 
L 409.675031 131.943214 
L 409.744638 131.350376 
L 409.769346 131.943214 
L 409.792635 131.943214 
L 409.908178 131.350376 
L 410.027121 131.943214 
L 410.050714 131.943214 
L 410.167587 131.350376 
L 410.571526 131.350376 
L 410.668498 130.164702 
L 410.691361 131.350376 
L 410.762687 130.164702 
L 411.202459 130.164702 
L 411.321434 129.571865 
L 411.438478 129.571865 
L 411.537336 128.979027 
L 411.653312 129.571865 
L 411.676136 129.571865 
L 411.794669 128.979027 
L 411.832324 128.979027 
L 411.925788 128.38619 
L 411.948874 128.979027 
L 412.024726 128.38619 
L 412.166494 128.979027 
L 412.285089 127.793353 
L 412.30908 128.38619 
L 412.381558 127.793353 
L 412.404683 127.200516 
L 412.474456 127.793353 
L 412.521177 127.793353 
L 412.544809 127.200516 
L 412.614145 127.793353 
L 412.638243 127.793353 
L 412.709146 127.200516 
L 412.732056 127.793353 
L 412.778856 127.793353 
L 412.850557 127.200516 
L 412.873414 127.793353 
L 412.921024 127.793353 
L 413.0383 127.200516 
L 413.061522 127.200516 
L 413.110993 127.793353 
L 413.157967 127.200516 
L 413.180819 127.200516 
L 413.275994 127.793353 
L 413.32325 127.200516 
L 413.370297 127.793353 
L 413.440878 127.793353 
L 413.562411 127.200516 
L 413.587346 127.793353 
L 413.635707 127.200516 
L 413.731961 125.422004 
L 413.778059 126.014841 
L 413.801637 126.014841 
L 413.896958 128.38619 
L 413.94597 127.793353 
L 413.991881 123.643492 
L 414.040779 128.38619 
L 414.074175 128.38619 
L 414.099034 127.793353 
L 414.169762 128.38619 
L 414.193358 128.38619 
L 414.286603 128.979027 
L 414.336243 127.793353 
L 414.383508 128.38619 
L 414.502277 128.979027 
L 414.714717 128.979027 
L 414.784774 129.571865 
L 414.819356 128.979027 
L 414.890169 128.979027 
L 414.915442 129.571865 
L 414.938638 128.979027 
L 414.995953 125.422004 
L 415.041927 128.979027 
L 415.093838 128.979027 
L 415.189474 126.607678 
L 415.212424 128.38619 
L 415.242615 128.38619 
L 415.429922 124.236329 
L 415.54764 126.014841 
L 415.570944 125.422004 
L 415.617668 126.014841 
L 415.712545 126.607678 
L 415.782682 125.422004 
L 415.829606 126.014841 
L 415.87847 128.38619 
L 415.924211 126.607678 
L 416.066213 123.643492 
L 416.091681 126.014841 
L 416.192103 125.422004 
L 416.237957 125.422004 
L 416.402314 127.200516 
L 416.544403 126.014841 
L 416.663991 126.607678 
L 416.784713 126.607678 
L 416.908888 127.793353 
L 417.13218 125.422004 
L 417.180768 125.422004 
L 417.280543 127.200516 
L 417.304352 126.607678 
L 417.433928 127.793353 
L 417.483243 127.200516 
L 417.535402 127.200516 
L 417.559301 127.793353 
L 417.60586 127.200516 
L 417.724925 126.607678 
L 417.749738 126.607678 
L 417.776073 127.793353 
L 417.855007 127.200516 
L 417.924619 127.200516 
L 417.971502 126.014841 
L 418.018973 126.607678 
L 418.042921 127.793353 
L 418.122218 127.200516 
L 418.169902 127.200516 
L 418.245048 126.607678 
L 418.26926 127.200516 
L 418.296789 127.200516 
L 418.418133 126.607678 
L 418.563976 127.793353 
L 418.635069 127.793353 
L 418.753623 127.200516 
L 418.800948 127.200516 
L 418.94289 126.014841 
L 418.991473 126.014841 
L 419.15651 127.793353 
L 419.229114 127.793353 
L 419.348532 126.607678 
L 419.528012 128.38619 
L 419.575373 128.38619 
L 419.678616 127.793353 
L 419.714215 128.38619 
L 419.73909 127.200516 
L 419.786112 127.793353 
L 419.953735 127.793353 
L 420.076806 128.38619 
L 420.292928 128.38619 
L 420.315865 127.793353 
L 420.378471 128.38619 
L 420.429345 128.38619 
L 420.454092 127.793353 
L 420.525923 128.38619 
L 421.677685 128.38619 
L 421.795983 128.979027 
L 421.890792 128.38619 
L 422.007474 128.979027 
L 422.955132 128.979027 
L 423.075899 129.571865 
L 423.607414 129.571865 
L 423.700912 130.164702 
L 423.819027 129.571865 
L 423.937439 130.164702 
L 424.431314 130.164702 
L 424.454435 131.350376 
L 424.525185 130.164702 
L 424.595048 130.164702 
L 424.688097 131.350376 
L 424.805119 130.164702 
L 424.852484 131.350376 
L 424.900327 130.164702 
L 424.953315 130.164702 
L 425.088987 131.350376 
L 425.323521 131.350376 
L 425.34712 130.164702 
L 425.423745 131.350376 
L 425.48393 131.350376 
L 425.559372 130.164702 
L 425.594728 131.350376 
L 425.861962 131.350376 
L 425.886079 130.164702 
L 425.958945 131.350376 
L 427.150795 131.350376 
L 427.275237 131.943214 
L 427.323031 131.943214 
L 427.346179 131.350376 
L 427.426601 131.943214 
L 427.449846 131.943214 
L 427.473683 131.350376 
L 427.546627 131.943214 
L 427.644133 131.943214 
L 427.691182 131.350376 
L 427.740221 131.943214 
L 427.769778 131.943214 
L 427.893752 131.350376 
L 428.410544 131.350376 
L 428.533917 131.943214 
L 428.632588 131.350376 
L 428.754579 131.943214 
L 428.871564 131.350376 
L 428.99128 131.943214 
L 429.0195 131.943214 
L 429.093533 131.350376 
L 429.120674 131.943214 
L 429.167977 131.943214 
L 429.294818 131.350376 
L 429.341203 131.350376 
L 429.36594 131.943214 
L 429.437952 131.350376 
L 429.460862 131.350376 
L 429.484882 131.943214 
L 429.55676 131.350376 
L 429.580396 131.350376 
L 429.698112 131.943214 
L 429.839748 131.350376 
L 429.957755 131.350376 
L 430.079693 131.943214 
L 430.177223 131.350376 
L 430.200833 131.943214 
L 430.271456 131.350376 
L 430.395717 131.943214 
L 430.512652 131.350376 
L 430.537232 131.350376 
L 430.60816 131.943214 
L 430.685735 131.943214 
L 430.819562 131.350376 
L 430.890701 131.943214 
L 430.914896 131.350376 
L 430.985522 131.350376 
L 431.108129 131.943214 
L 431.260976 131.943214 
L 431.366124 131.350376 
L 431.492101 131.943214 
L 431.575455 131.943214 
L 431.575455 131.943214 
" style="fill:none;stroke:#1f77b4;stroke-linecap:square;stroke-width:1.5;"/>
   </g>
   <g id="line2d_30">
    <path clip-path="url(#p133720c9b3)" d="M 63.084545 184.112893 
L 65.234082 184.112893 
L 65.353265 160.992239 
L 67.68462 160.992239 
L 67.800938 167.513449 
L 69.332197 167.513449 
L 69.447874 178.777357 
L 70.228136 178.777357 
L 70.343235 190.634102 
L 70.857382 190.634102 
L 129.856944 107.636886 
L 132.930241 107.636886 
L 133.024398 119.493631 
L 134.345185 119.493631 
L 134.462743 130.757539 
L 135.636212 130.757539 
L 135.752794 160.992239 
L 137.513103 160.992239 
L 137.629858 178.777357 
L 138.282915 178.777357 
L 230.67692 114.158096 
L 231.450972 114.158096 
L 231.568735 137.278749 
L 232.736122 137.278749 
L 232.854777 160.992239 
L 235.425757 160.992239 
L 235.543329 172.848985 
L 238.076614 172.848985 
L 238.192873 178.777357 
L 239.744225 178.777357 
L 239.860353 184.112893 
L 240.787042 184.112893 
L 240.907459 195.969638 
L 241.982337 195.969638 
L 242.097332 202.490848 
L 242.791054 202.490848 
L 242.914916 191.819777 
L 243.387088 191.819777 
L 243.503888 195.969638 
L 244.570668 195.969638 
L 244.700945 190.634102 
L 247.909646 190.634102 
L 248.055212 191.819777 
L 248.735139 191.819777 
L 248.863435 190.634102 
L 249.949232 190.634102 
L 250.068059 184.112893 
L 252.621602 184.112893 
L 252.738853 178.777357 
L 254.098675 178.777357 
L 254.21689 172.848985 
L 254.91727 172.848985 
L 255.035104 170.477636 
L 255.267996 170.477636 
L 255.395567 167.513449 
L 257.981425 167.513449 
L 258.099242 160.992239 
L 262.235882 160.992239 
L 262.353731 170.477636 
L 263.520142 170.477636 
L 263.647832 172.848985 
L 264.463796 172.848985 
L 264.58348 170.477636 
L 264.702594 170.477636 
L 264.829985 172.848985 
L 268.171313 172.848985 
L 268.288841 170.477636 
L 268.639985 170.477636 
L 268.757736 172.848985 
L 269.940355 172.848985 
L 270.057675 178.777357 
L 270.648181 178.777357 
L 270.768249 191.819777 
L 271.329971 191.819777 
L 271.448945 195.969638 
L 271.668467 195.969638 
L 271.785895 202.490848 
L 277.100826 202.490848 
L 277.220983 191.819777 
L 278.282895 191.819777 
L 278.399388 202.490848 
L 279.347612 202.490848 
L 279.460488 190.634102 
L 280.621267 190.634102 
L 280.763679 184.112893 
L 281.218683 184.112893 
L 281.333264 181.148706 
L 281.911276 181.148706 
L 282.03393 178.777357 
L 283.703781 178.777357 
L 283.820231 172.848985 
L 284.624948 172.848985 
L 284.74315 167.513449 
L 285.903966 167.513449 
L 286.013047 172.848985 
L 287.18133 172.848985 
L 287.327632 160.992239 
L 290.068725 160.992239 
L 290.197148 155.656704 
L 293.896249 155.656704 
L 294.061343 160.992239 
L 295.082535 160.992239 
L 295.213526 184.112893 
L 296.733139 184.112893 
L 296.863505 195.969638 
L 298.041614 195.969638 
L 298.163154 214.347593 
L 299.596351 214.347593 
L 299.736055 223.832989 
L 301.363391 223.832989 
L 301.478531 234.50406 
L 303.583401 234.50406 
L 303.700428 223.832989 
L 304.873661 223.832989 
L 304.989567 226.204338 
L 306.491055 226.204338 
L 306.606153 223.832989 
L 307.071539 223.832989 
L 307.189136 226.204338 
L 309.296006 226.204338 
L 309.413329 232.132711 
L 313.197666 232.132711 
L 313.315913 223.832989 
L 314.540201 223.832989 
L 314.661702 213.161918 
L 316.029318 213.161918 
L 316.162435 181.148706 
L 316.635882 181.148706 
L 316.754639 172.848985 
L 317.909509 172.848985 
L 318.035474 137.278749 
L 319.169577 137.278749 
L 319.288675 114.158096 
L 320.698799 114.158096 
L 320.826871 102.301351 
L 321.947605 102.301351 
L 322.077247 89.258931 
L 323.22841 89.258931 
L 323.34318 95.780141 
L 324.398635 95.780141 
L 324.529848 107.636886 
L 326.959729 107.636886 
L 327.0859 125.422004 
L 327.295831 125.422004 
L 327.427304 155.656704 
L 328.949412 155.656704 
L 329.060494 167.513449 
L 329.786982 167.513449 
L 329.912328 172.848985 
L 331.076644 172.848985 
L 331.21144 184.112893 
L 332.480637 184.112893 
L 332.601155 190.634102 
L 333.993318 190.634102 
L 334.109574 202.490848 
L 334.696005 202.490848 
L 334.814595 223.832989 
L 335.52249 223.832989 
L 335.640375 214.347593 
L 335.875964 214.347593 
L 335.991122 223.832989 
L 337.723983 223.832989 
L 337.842038 226.204338 
L 338.415166 226.204338 
L 338.531291 223.832989 
L 339.115636 223.832989 
L 339.232254 237.468246 
L 341.094695 237.468246 
L 341.211042 245.17513 
L 341.325794 245.17513 
L 341.440429 234.50406 
L 341.678064 234.50406 
L 341.793646 237.468246 
L 343.279925 237.468246 
L 343.399825 214.347593 
L 344.567026 214.347593 
L 344.688112 190.634102 
L 345.962926 190.634102 
L 346.080272 149.135494 
L 347.217834 149.135494 
L 347.337797 114.158096 
L 348.492345 114.158096 
L 348.6201 83.923396 
L 349.860427 83.923396 
L 349.976975 66.138278 
L 351.237394 66.138278 
L 351.384549 54.281533 
L 352.486664 54.281533 
L 352.606814 35.903578 
L 353.897313 35.903578 
L 354.04545 42.424787 
L 356.365821 42.424787 
L 356.516829 72.06665 
L 357.747282 72.06665 
L 357.876748 95.780141 
L 359.08891 95.780141 
L 359.227848 125.422004 
L 361.546692 125.422004 
L 361.665651 137.278749 
L 361.782976 137.278749 
L 361.900084 155.656704 
L 363.051131 155.656704 
L 363.170461 172.848985 
L 365.354573 172.848985 
L 365.469265 184.112893 
L 366.032622 184.112893 
L 366.148703 190.634102 
L 367.423039 190.634102 
L 367.542953 195.969638 
L 369.179106 195.969638 
L 369.296043 213.161918 
L 369.769538 213.161918 
L 369.887969 202.490848 
L 370.476567 202.490848 
L 370.592567 213.161918 
L 371.990321 213.161918 
L 372.111847 223.832989 
L 372.351298 223.832989 
L 372.476241 209.012057 
L 372.795325 209.012057 
L 372.918483 213.161918 
L 373.456377 213.161918 
L 373.575777 234.50406 
L 373.808146 234.50406 
L 373.925593 226.204338 
L 374.163897 226.204338 
L 374.284103 223.832989 
L 375.107656 223.832989 
L 375.229649 202.490848 
L 376.467316 202.490848 
L 376.584888 184.112893 
L 377.779136 184.112893 
L 377.897291 155.656704 
L 380.106249 155.656704 
L 380.225681 119.493631 
L 380.347997 119.493631 
L 380.466255 95.780141 
L 381.862632 95.780141 
L 381.979013 77.402186 
L 383.054865 77.402186 
L 383.173672 66.138278 
L 385.315286 66.138278 
L 385.4325 54.281533 
L 387.909216 54.281533 
L 388.032438 60.802743 
L 388.266559 60.802743 
L 388.385379 83.923396 
L 389.67494 83.923396 
L 389.797366 102.301351 
L 390.999003 102.301351 
L 391.128471 125.422004 
L 392.281034 125.422004 
L 392.399855 137.278749 
L 393.861713 137.278749 
L 394.006196 149.135494 
L 395.094652 149.135494 
L 395.211285 155.656704 
L 397.205821 155.656704 
L 397.324032 167.513449 
L 397.566145 167.513449 
L 397.68435 184.112893 
L 399.308457 184.112893 
L 399.42543 195.969638 
L 400.37105 195.969638 
L 400.48764 202.490848 
L 401.6584 202.490848 
L 401.776141 209.012057 
L 403.417152 209.012057 
L 403.534436 220.868803 
L 405.064934 220.868803 
L 405.183049 213.161918 
L 407.886502 213.161918 
L 408.005919 202.490848 
L 409.194959 202.490848 
L 409.316156 184.112893 
L 409.651633 184.112893 
L 409.769346 167.513449 
L 413.180819 167.513449 
L 413.298895 125.422004 
L 414.479348 125.422004 
L 414.596759 107.636886 
L 416.237957 107.636886 
L 416.35581 102.301351 
L 417.60586 102.301351 
L 417.724925 107.636886 
L 419.109654 107.636886 
L 419.229114 114.158096 
L 420.354114 114.158096 
L 420.477382 125.422004 
L 422.365272 125.422004 
L 422.483437 130.757539 
L 423.075899 130.757539 
L 423.195165 155.656704 
L 424.243377 155.656704 
L 424.360913 167.513449 
L 427.077448 167.513449 
L 427.202699 178.777357 
L 430.372776 178.777357 
L 430.488468 172.848985 
L 430.86711 172.848985 
L 430.985522 178.777357 
L 431.575455 178.777357 
L 431.575455 178.777357 
" style="fill:none;stroke:#ff7f0e;stroke-linecap:square;stroke-width:1.5;"/>
   </g>
   <g id="patch_3">
    <path d="M 44.66 255.638708 
L 44.66 25.44 
" style="fill:none;stroke:#000000;stroke-linecap:square;stroke-linejoin:miter;stroke-width:0.8;"/>
   </g>
   <g id="patch_4">
    <path d="M 450 255.638708 
L 450 25.44 
" style="fill:none;stroke:#000000;stroke-linecap:square;stroke-linejoin:miter;stroke-width:0.8;"/>
   </g>
   <g id="patch_5">
    <path d="M 44.66 255.638708 
L 450 255.638708 
" style="fill:none;stroke:#000000;stroke-linecap:square;stroke-linejoin:miter;stroke-width:0.8;"/>
   </g>
   <g id="patch_6">
    <path d="M 44.66 25.44 
L 450 25.44 
" style="fill:none;stroke:#000000;stroke-linecap:square;stroke-linejoin:miter;stroke-width:0.8;"/>
   </g>
   <g id="text_17">
    <!-- Lake Shoecraft - Water and Air Temperature -->
    <g transform="translate(115.711562 19.44)scale(0.12 -0.12)">
     <defs>
      <path d="M 9.8125 72.90625 
L 19.671875 72.90625 
L 19.671875 8.296875 
L 55.171875 8.296875 
L 55.171875 0 
L 9.8125 0 
z
" id="DejaVuSans-76"/>
      <path d="M 9.078125 75.984375 
L 18.109375 75.984375 
L 18.109375 31.109375 
L 44.921875 54.6875 
L 56.390625 54.6875 
L 27.390625 29.109375 
L 57.625 0 
L 45.90625 0 
L 18.109375 26.703125 
L 18.109375 0 
L 9.078125 0 
z
" id="DejaVuSans-107"/>
      <path d="M 53.515625 70.515625 
L 53.515625 60.890625 
Q 47.90625 63.578125 42.921875 64.890625 
Q 37.9375 66.21875 33.296875 66.21875 
Q 25.25 66.21875 20.875 63.09375 
Q 16.5 59.96875 16.5 54.203125 
Q 16.5 49.359375 19.40625 46.890625 
Q 22.3125 44.4375 30.421875 42.921875 
L 36.375 41.703125 
Q 47.40625 39.59375 52.65625 34.296875 
Q 57.90625 29 57.90625 20.125 
Q 57.90625 9.515625 50.796875 4.046875 
Q 43.703125 -1.421875 29.984375 -1.421875 
Q 24.8125 -1.421875 18.96875 -0.25 
Q 13.140625 0.921875 6.890625 3.21875 
L 6.890625 13.375 
Q 12.890625 10.015625 18.65625 8.296875 
Q 24.421875 6.59375 29.984375 6.59375 
Q 38.421875 6.59375 43.015625 9.90625 
Q 47.609375 13.234375 47.609375 19.390625 
Q 47.609375 24.75 44.3125 27.78125 
Q 41.015625 30.8125 33.5 32.328125 
L 27.484375 33.5 
Q 16.453125 35.6875 11.515625 40.375 
Q 6.59375 45.0625 6.59375 53.421875 
Q 6.59375 63.09375 13.40625 68.65625 
Q 20.21875 74.21875 32.171875 74.21875 
Q 37.3125 74.21875 42.625 73.28125 
Q 47.953125 72.359375 53.515625 70.515625 
z
" id="DejaVuSans-83"/>
      <path d="M 54.890625 33.015625 
L 54.890625 0 
L 45.90625 0 
L 45.90625 32.71875 
Q 45.90625 40.484375 42.875 44.328125 
Q 39.84375 48.1875 33.796875 48.1875 
Q 26.515625 48.1875 22.3125 43.546875 
Q 18.109375 38.921875 18.109375 30.90625 
L 18.109375 0 
L 9.078125 0 
L 9.078125 75.984375 
L 18.109375 75.984375 
L 18.109375 46.1875 
Q 21.34375 51.125 25.703125 53.5625 
Q 30.078125 56 35.796875 56 
Q 45.21875 56 50.046875 50.171875 
Q 54.890625 44.34375 54.890625 33.015625 
z
" id="DejaVuSans-104"/>
      <path d="M 30.609375 48.390625 
Q 23.390625 48.390625 19.1875 42.75 
Q 14.984375 37.109375 14.984375 27.296875 
Q 14.984375 17.484375 19.15625 11.84375 
Q 23.34375 6.203125 30.609375 6.203125 
Q 37.796875 6.203125 41.984375 11.859375 
Q 46.1875 17.53125 46.1875 27.296875 
Q 46.1875 37.015625 41.984375 42.703125 
Q 37.796875 48.390625 30.609375 48.390625 
z
M 30.609375 56 
Q 42.328125 56 49.015625 48.375 
Q 55.71875 40.765625 55.71875 27.296875 
Q 55.71875 13.875 49.015625 6.21875 
Q 42.328125 -1.421875 30.609375 -1.421875 
Q 18.84375 -1.421875 12.171875 6.21875 
Q 5.515625 13.875 5.515625 27.296875 
Q 5.515625 40.765625 12.171875 48.375 
Q 18.84375 56 30.609375 56 
z
" id="DejaVuSans-111"/>
      <path d="M 48.78125 52.59375 
L 48.78125 44.1875 
Q 44.96875 46.296875 41.140625 47.34375 
Q 37.3125 48.390625 33.40625 48.390625 
Q 24.65625 48.390625 19.8125 42.84375 
Q 14.984375 37.3125 14.984375 27.296875 
Q 14.984375 17.28125 19.8125 11.734375 
Q 24.65625 6.203125 33.40625 6.203125 
Q 37.3125 6.203125 41.140625 7.25 
Q 44.96875 8.296875 48.78125 10.40625 
L 48.78125 2.09375 
Q 45.015625 0.34375 40.984375 -0.53125 
Q 36.96875 -1.421875 32.421875 -1.421875 
Q 20.0625 -1.421875 12.78125 6.34375 
Q 5.515625 14.109375 5.515625 27.296875 
Q 5.515625 40.671875 12.859375 48.328125 
Q 20.21875 56 33.015625 56 
Q 37.15625 56 41.109375 55.140625 
Q 45.0625 54.296875 48.78125 52.59375 
z
" id="DejaVuSans-99"/>
      <path d="M 37.109375 75.984375 
L 37.109375 68.5 
L 28.515625 68.5 
Q 23.6875 68.5 21.796875 66.546875 
Q 19.921875 64.59375 19.921875 59.515625 
L 19.921875 54.6875 
L 34.71875 54.6875 
L 34.71875 47.703125 
L 19.921875 47.703125 
L 19.921875 0 
L 10.890625 0 
L 10.890625 47.703125 
L 2.296875 47.703125 
L 2.296875 54.6875 
L 10.890625 54.6875 
L 10.890625 58.5 
Q 10.890625 67.625 15.140625 71.796875 
Q 19.390625 75.984375 28.609375 75.984375 
z
" id="DejaVuSans-102"/>
      <path d="M 3.328125 72.90625 
L 13.28125 72.90625 
L 28.609375 11.28125 
L 43.890625 72.90625 
L 54.984375 72.90625 
L 70.3125 11.28125 
L 85.59375 72.90625 
L 95.609375 72.90625 
L 77.296875 0 
L 64.890625 0 
L 49.515625 63.28125 
L 33.984375 0 
L 21.578125 0 
z
" id="DejaVuSans-87"/>
      <path d="M 54.890625 33.015625 
L 54.890625 0 
L 45.90625 0 
L 45.90625 32.71875 
Q 45.90625 40.484375 42.875 44.328125 
Q 39.84375 48.1875 33.796875 48.1875 
Q 26.515625 48.1875 22.3125 43.546875 
Q 18.109375 38.921875 18.109375 30.90625 
L 18.109375 0 
L 9.078125 0 
L 9.078125 54.6875 
L 18.109375 54.6875 
L 18.109375 46.1875 
Q 21.34375 51.125 25.703125 53.5625 
Q 30.078125 56 35.796875 56 
Q 45.21875 56 50.046875 50.171875 
Q 54.890625 44.34375 54.890625 33.015625 
z
" id="DejaVuSans-110"/>
      <path d="M 45.40625 46.390625 
L 45.40625 75.984375 
L 54.390625 75.984375 
L 54.390625 0 
L 45.40625 0 
L 45.40625 8.203125 
Q 42.578125 3.328125 38.25 0.953125 
Q 33.9375 -1.421875 27.875 -1.421875 
Q 17.96875 -1.421875 11.734375 6.484375 
Q 5.515625 14.40625 5.515625 27.296875 
Q 5.515625 40.1875 11.734375 48.09375 
Q 17.96875 56 27.875 56 
Q 33.9375 56 38.25 53.625 
Q 42.578125 51.265625 45.40625 46.390625 
z
M 14.796875 27.296875 
Q 14.796875 17.390625 18.875 11.75 
Q 22.953125 6.109375 30.078125 6.109375 
Q 37.203125 6.109375 41.296875 11.75 
Q 45.40625 17.390625 45.40625 27.296875 
Q 45.40625 37.203125 41.296875 42.84375 
Q 37.203125 48.484375 30.078125 48.484375 
Q 22.953125 48.484375 18.875 42.84375 
Q 14.796875 37.203125 14.796875 27.296875 
z
" id="DejaVuSans-100"/>
      <path d="M 34.1875 63.1875 
L 20.796875 26.90625 
L 47.609375 26.90625 
z
M 28.609375 72.90625 
L 39.796875 72.90625 
L 67.578125 0 
L 57.328125 0 
L 50.6875 18.703125 
L 17.828125 18.703125 
L 11.1875 0 
L 0.78125 0 
z
" id="DejaVuSans-65"/>
      <path d="M 9.421875 54.6875 
L 18.40625 54.6875 
L 18.40625 0 
L 9.421875 0 
z
M 9.421875 75.984375 
L 18.40625 75.984375 
L 18.40625 64.59375 
L 9.421875 64.59375 
z
" id="DejaVuSans-105"/>
     </defs>
     <use xlink:href="#DejaVuSans-76"/>
     <use x="55.712891" xlink:href="#DejaVuSans-97"/>
     <use x="116.992188" xlink:href="#DejaVuSans-107"/>
     <use x="171.277344" xlink:href="#DejaVuSans-101"/>
     <use x="232.800781" xlink:href="#DejaVuSans-32"/>
     <use x="264.587891" xlink:href="#DejaVuSans-83"/>
     <use x="328.064453" xlink:href="#DejaVuSans-104"/>
     <use x="391.443359" xlink:href="#DejaVuSans-111"/>
     <use x="452.625" xlink:href="#DejaVuSans-101"/>
     <use x="514.148438" xlink:href="#DejaVuSans-99"/>
     <use x="569.128906" xlink:href="#DejaVuSans-114"/>
     <use x="610.242188" xlink:href="#DejaVuSans-97"/>
     <use x="671.521484" xlink:href="#DejaVuSans-102"/>
     <use x="704.976562" xlink:href="#DejaVuSans-116"/>
     <use x="744.185547" xlink:href="#DejaVuSans-32"/>
     <use x="775.972656" xlink:href="#DejaVuSans-45"/>
     <use x="812.056641" xlink:href="#DejaVuSans-32"/>
     <use x="843.84375" xlink:href="#DejaVuSans-87"/>
     <use x="936.345703" xlink:href="#DejaVuSans-97"/>
     <use x="997.625" xlink:href="#DejaVuSans-116"/>
     <use x="1036.833984" xlink:href="#DejaVuSans-101"/>
     <use x="1098.357422" xlink:href="#DejaVuSans-114"/>
     <use x="1139.470703" xlink:href="#DejaVuSans-32"/>
     <use x="1171.257812" xlink:href="#DejaVuSans-97"/>
     <use x="1232.537109" xlink:href="#DejaVuSans-110"/>
     <use x="1295.916016" xlink:href="#DejaVuSans-100"/>
     <use x="1359.392578" xlink:href="#DejaVuSans-32"/>
     <use x="1391.179688" xlink:href="#DejaVuSans-65"/>
     <use x="1459.587891" xlink:href="#DejaVuSans-105"/>
     <use x="1487.371094" xlink:href="#DejaVuSans-114"/>
     <use x="1528.484375" xlink:href="#DejaVuSans-32"/>
     <use x="1560.271484" xlink:href="#DejaVuSans-84"/>
     <use x="1604.355469" xlink:href="#DejaVuSans-101"/>
     <use x="1665.878906" xlink:href="#DejaVuSans-109"/>
     <use x="1763.291016" xlink:href="#DejaVuSans-112"/>
     <use x="1826.767578" xlink:href="#DejaVuSans-101"/>
     <use x="1888.291016" xlink:href="#DejaVuSans-114"/>
     <use x="1929.404297" xlink:href="#DejaVuSans-97"/>
     <use x="1990.683594" xlink:href="#DejaVuSans-116"/>
     <use x="2029.892578" xlink:href="#DejaVuSans-117"/>
     <use x="2093.271484" xlink:href="#DejaVuSans-114"/>
     <use x="2132.134766" xlink:href="#DejaVuSans-101"/>
    </g>
   </g>
   <g id="legend_1">
    <g id="patch_7">
     <path d="M 51.66 62.79625 
L 136.769375 62.79625 
Q 138.769375 62.79625 138.769375 60.79625 
L 138.769375 32.44 
Q 138.769375 30.44 136.769375 30.44 
L 51.66 30.44 
Q 49.66 30.44 49.66 32.44 
L 49.66 60.79625 
Q 49.66 62.79625 51.66 62.79625 
z
" style="fill:#ffffff;opacity:0.8;stroke:#cccccc;stroke-linejoin:miter;"/>
    </g>
    <g id="line2d_31">
     <path d="M 53.66 38.538437 
L 73.66 38.538437 
" style="fill:none;stroke:#1f77b4;stroke-linecap:square;stroke-width:1.5;"/>
    </g>
    <g id="line2d_32"/>
    <g id="text_18">
     <!-- Lake Temp -->
     <g transform="translate(81.66 42.038437)scale(0.1 -0.1)">
      <use xlink:href="#DejaVuSans-76"/>
      <use x="55.712891" xlink:href="#DejaVuSans-97"/>
      <use x="116.992188" xlink:href="#DejaVuSans-107"/>
      <use x="171.277344" xlink:href="#DejaVuSans-101"/>
      <use x="232.800781" xlink:href="#DejaVuSans-32"/>
      <use x="264.587891" xlink:href="#DejaVuSans-84"/>
      <use x="308.671875" xlink:href="#DejaVuSans-101"/>
      <use x="370.195312" xlink:href="#DejaVuSans-109"/>
      <use x="467.607422" xlink:href="#DejaVuSans-112"/>
     </g>
    </g>
    <g id="line2d_33">
     <path d="M 53.66 53.216562 
L 73.66 53.216562 
" style="fill:none;stroke:#ff7f0e;stroke-linecap:square;stroke-width:1.5;"/>
    </g>
    <g id="line2d_34"/>
    <g id="text_19">
     <!-- Air Temp -->
     <g transform="translate(81.66 56.716562)scale(0.1 -0.1)">
      <use xlink:href="#DejaVuSans-65"/>
      <use x="68.408203" xlink:href="#DejaVuSans-105"/>
      <use x="96.191406" xlink:href="#DejaVuSans-114"/>
      <use x="137.304688" xlink:href="#DejaVuSans-32"/>
      <use x="169.091797" xlink:href="#DejaVuSans-84"/>
      <use x="213.175781" xlink:href="#DejaVuSans-101"/>
      <use x="274.699219" xlink:href="#DejaVuSans-109"/>
      <use x="372.111328" xlink:href="#DejaVuSans-112"/>
     </g>
    </g>
   </g>
  </g>
 </g>
 <defs>
  <clipPath id="p133720c9b3">
   <rect height="230.198708" width="405.34" x="44.66" y="25.44"/>
  </clipPath>
 </defs>
</svg>
