<?xml version="1.0" encoding="utf-8" standalone="no"?>
<!DOCTYPE svg PUBLIC "-//W3C//DTD SVG 1.1//EN"
  "http://www.w3.org/Graphics/SVG/1.1/DTD/svg11.dtd">
<!-- Created with matplotlib (https://matplotlib.org/) -->
<svg height="345.6pt" version="1.1" viewBox="0 0 460.8 345.6" width="460.8pt" xmlns="http://www.w3.org/2000/svg" xmlns:xlink="http://www.w3.org/1999/xlink">
 <metadata>
  <rdf:RDF xmlns:cc="http://creativecommons.org/ns#" xmlns:dc="http://purl.org/dc/elements/1.1/" xmlns:rdf="http://www.w3.org/1999/02/22-rdf-syntax-ns#">
   <cc:Work>
    <dc:type rdf:resource="http://purl.org/dc/dcmitype/StillImage"/>
    <dc:date>2024-09-05T17:57:22.563162</dc:date>
    <dc:format>image/svg+xml</dc:format>
    <dc:creator>
     <cc:Agent>
      <dc:title>Matplotlib v3.3.2, https://matplotlib.org/</dc:title>
     </cc:Agent>
    </dc:creator>
   </cc:Work>
  </rdf:RDF>
 </metadata>
 <defs>
  <style type="text/css">*{stroke-linecap:butt;stroke-linejoin:round;}</style>
 </defs>
 <g id="figure_1">
  <g id="patch_1">
   <path d="M 0 345.6 
L 460.8 345.6 
L 460.8 0 
L 0 0 
z
" style="fill:none;"/>
  </g>
  <g id="axes_1">
   <g id="patch_2">
    <path d="M 44.66 255.638708 
L 442.634527 255.638708 
L 442.634527 25.44 
L 44.66 25.44 
z
" style="fill:none;"/>
   </g>
   <g id="matplotlib.axis_1">
    <g id="xtick_1">
     <g id="line2d_1">
      <path clip-path="url(#p3e9bf2f558)" d="M 79.439671 255.638708 
L 79.439671 25.44 
" style="fill:none;stroke:#b0b0b0;stroke-linecap:square;stroke-width:0.8;"/>
     </g>
     <g id="line2d_2">
      <defs>
       <path d="M 0 0 
L 0 3.5 
" id="mea17d3945f" style="stroke:#000000;stroke-width:0.8;"/>
      </defs>
      <g>
       <use style="stroke:#000000;stroke-width:0.8;" x="79.439671" xlink:href="#mea17d3945f" y="255.638708"/>
      </g>
     </g>
     <g id="text_1">
      <!-- 2024-08-28 -->
      <g transform="translate(72.094278 319.848351)rotate(-70)scale(0.1 -0.1)">
       <defs>
        <path d="M 19.1875 8.296875 
L 53.609375 8.296875 
L 53.609375 0 
L 7.328125 0 
L 7.328125 8.296875 
Q 12.9375 14.109375 22.625 23.890625 
Q 32.328125 33.6875 34.8125 36.53125 
Q 39.546875 41.84375 41.421875 45.53125 
Q 43.3125 49.21875 43.3125 52.78125 
Q 43.3125 58.59375 39.234375 62.25 
Q 35.15625 65.921875 28.609375 65.921875 
Q 23.96875 65.921875 18.8125 64.3125 
Q 13.671875 62.703125 7.8125 59.421875 
L 7.8125 69.390625 
Q 13.765625 71.78125 18.9375 73 
Q 24.125 74.21875 28.421875 74.21875 
Q 39.75 74.21875 46.484375 68.546875 
Q 53.21875 62.890625 53.21875 53.421875 
Q 53.21875 48.921875 51.53125 44.890625 
Q 49.859375 40.875 45.40625 35.40625 
Q 44.1875 33.984375 37.640625 27.21875 
Q 31.109375 20.453125 19.1875 8.296875 
z
" id="DejaVuSans-50"/>
        <path d="M 31.78125 66.40625 
Q 24.171875 66.40625 20.328125 58.90625 
Q 16.5 51.421875 16.5 36.375 
Q 16.5 21.390625 20.328125 13.890625 
Q 24.171875 6.390625 31.78125 6.390625 
Q 39.453125 6.390625 43.28125 13.890625 
Q 47.125 21.390625 47.125 36.375 
Q 47.125 51.421875 43.28125 58.90625 
Q 39.453125 66.40625 31.78125 66.40625 
z
M 31.78125 74.21875 
Q 44.046875 74.21875 50.515625 64.515625 
Q 56.984375 54.828125 56.984375 36.375 
Q 56.984375 17.96875 50.515625 8.265625 
Q 44.046875 -1.421875 31.78125 -1.421875 
Q 19.53125 -1.421875 13.0625 8.265625 
Q 6.59375 17.96875 6.59375 36.375 
Q 6.59375 54.828125 13.0625 64.515625 
Q 19.53125 74.21875 31.78125 74.21875 
z
" id="DejaVuSans-48"/>
        <path d="M 37.796875 64.3125 
L 12.890625 25.390625 
L 37.796875 25.390625 
z
M 35.203125 72.90625 
L 47.609375 72.90625 
L 47.609375 25.390625 
L 58.015625 25.390625 
L 58.015625 17.1875 
L 47.609375 17.1875 
L 47.609375 0 
L 37.796875 0 
L 37.796875 17.1875 
L 4.890625 17.1875 
L 4.890625 26.703125 
z
" id="DejaVuSans-52"/>
        <path d="M 4.890625 31.390625 
L 31.203125 31.390625 
L 31.203125 23.390625 
L 4.890625 23.390625 
z
" id="DejaVuSans-45"/>
        <path d="M 31.78125 34.625 
Q 24.75 34.625 20.71875 30.859375 
Q 16.703125 27.09375 16.703125 20.515625 
Q 16.703125 13.921875 20.71875 10.15625 
Q 24.75 6.390625 31.78125 6.390625 
Q 38.8125 6.390625 42.859375 10.171875 
Q 46.921875 13.96875 46.921875 20.515625 
Q 46.921875 27.09375 42.890625 30.859375 
Q 38.875 34.625 31.78125 34.625 
z
M 21.921875 38.8125 
Q 15.578125 40.375 12.03125 44.71875 
Q 8.5 49.078125 8.5 55.328125 
Q 8.5 64.0625 14.71875 69.140625 
Q 20.953125 74.21875 31.78125 74.21875 
Q 42.671875 74.21875 48.875 69.140625 
Q 55.078125 64.0625 55.078125 55.328125 
Q 55.078125 49.078125 51.53125 44.71875 
Q 48 40.375 41.703125 38.8125 
Q 48.828125 37.15625 52.796875 32.3125 
Q 56.78125 27.484375 56.78125 20.515625 
Q 56.78125 9.90625 50.3125 4.234375 
Q 43.84375 -1.421875 31.78125 -1.421875 
Q 19.734375 -1.421875 13.25 4.234375 
Q 6.78125 9.90625 6.78125 20.515625 
Q 6.78125 27.484375 10.78125 32.3125 
Q 14.796875 37.15625 21.921875 38.8125 
z
M 18.3125 54.390625 
Q 18.3125 48.734375 21.84375 45.5625 
Q 25.390625 42.390625 31.78125 42.390625 
Q 38.140625 42.390625 41.71875 45.5625 
Q 45.3125 48.734375 45.3125 54.390625 
Q 45.3125 60.0625 41.71875 63.234375 
Q 38.140625 66.40625 31.78125 66.40625 
Q 25.390625 66.40625 21.84375 63.234375 
Q 18.3125 60.0625 18.3125 54.390625 
z
" id="DejaVuSans-56"/>
       </defs>
       <use xlink:href="#DejaVuSans-50"/>
       <use x="63.623047" xlink:href="#DejaVuSans-48"/>
       <use x="127.246094" xlink:href="#DejaVuSans-50"/>
       <use x="190.869141" xlink:href="#DejaVuSans-52"/>
       <use x="254.492188" xlink:href="#DejaVuSans-45"/>
       <use x="290.576172" xlink:href="#DejaVuSans-48"/>
       <use x="354.199219" xlink:href="#DejaVuSans-56"/>
       <use x="417.822266" xlink:href="#DejaVuSans-45"/>
       <use x="453.90625" xlink:href="#DejaVuSans-50"/>
       <use x="517.529297" xlink:href="#DejaVuSans-56"/>
      </g>
     </g>
    </g>
    <g id="xtick_2">
     <g id="line2d_3">
      <path clip-path="url(#p3e9bf2f558)" d="M 118.88913 255.638708 
L 118.88913 25.44 
" style="fill:none;stroke:#b0b0b0;stroke-linecap:square;stroke-width:0.8;"/>
     </g>
     <g id="line2d_4">
      <g>
       <use style="stroke:#000000;stroke-width:0.8;" x="118.88913" xlink:href="#mea17d3945f" y="255.638708"/>
      </g>
     </g>
     <g id="text_2">
      <!-- 2024-08-29 -->
      <g transform="translate(111.543737 319.848351)rotate(-70)scale(0.1 -0.1)">
       <defs>
        <path d="M 10.984375 1.515625 
L 10.984375 10.5 
Q 14.703125 8.734375 18.5 7.8125 
Q 22.3125 6.890625 25.984375 6.890625 
Q 35.75 6.890625 40.890625 13.453125 
Q 46.046875 20.015625 46.78125 33.40625 
Q 43.953125 29.203125 39.59375 26.953125 
Q 35.25 24.703125 29.984375 24.703125 
Q 19.046875 24.703125 12.671875 31.3125 
Q 6.296875 37.9375 6.296875 49.421875 
Q 6.296875 60.640625 12.9375 67.421875 
Q 19.578125 74.21875 30.609375 74.21875 
Q 43.265625 74.21875 49.921875 64.515625 
Q 56.59375 54.828125 56.59375 36.375 
Q 56.59375 19.140625 48.40625 8.859375 
Q 40.234375 -1.421875 26.421875 -1.421875 
Q 22.703125 -1.421875 18.890625 -0.6875 
Q 15.09375 0.046875 10.984375 1.515625 
z
M 30.609375 32.421875 
Q 37.25 32.421875 41.125 36.953125 
Q 45.015625 41.5 45.015625 49.421875 
Q 45.015625 57.28125 41.125 61.84375 
Q 37.25 66.40625 30.609375 66.40625 
Q 23.96875 66.40625 20.09375 61.84375 
Q 16.21875 57.28125 16.21875 49.421875 
Q 16.21875 41.5 20.09375 36.953125 
Q 23.96875 32.421875 30.609375 32.421875 
z
" id="DejaVuSans-57"/>
       </defs>
       <use xlink:href="#DejaVuSans-50"/>
       <use x="63.623047" xlink:href="#DejaVuSans-48"/>
       <use x="127.246094" xlink:href="#DejaVuSans-50"/>
       <use x="190.869141" xlink:href="#DejaVuSans-52"/>
       <use x="254.492188" xlink:href="#DejaVuSans-45"/>
       <use x="290.576172" xlink:href="#DejaVuSans-48"/>
       <use x="354.199219" xlink:href="#DejaVuSans-56"/>
       <use x="417.822266" xlink:href="#DejaVuSans-45"/>
       <use x="453.90625" xlink:href="#DejaVuSans-50"/>
       <use x="517.529297" xlink:href="#DejaVuSans-57"/>
      </g>
     </g>
    </g>
    <g id="xtick_3">
     <g id="line2d_5">
      <path clip-path="url(#p3e9bf2f558)" d="M 158.338589 255.638708 
L 158.338589 25.44 
" style="fill:none;stroke:#b0b0b0;stroke-linecap:square;stroke-width:0.8;"/>
     </g>
     <g id="line2d_6">
      <g>
       <use style="stroke:#000000;stroke-width:0.8;" x="158.338589" xlink:href="#mea17d3945f" y="255.638708"/>
      </g>
     </g>
     <g id="text_3">
      <!-- 2024-08-30 -->
      <g transform="translate(150.993197 319.848351)rotate(-70)scale(0.1 -0.1)">
       <defs>
        <path d="M 40.578125 39.3125 
Q 47.65625 37.796875 51.625 33 
Q 55.609375 28.21875 55.609375 21.1875 
Q 55.609375 10.40625 48.1875 4.484375 
Q 40.765625 -1.421875 27.09375 -1.421875 
Q 22.515625 -1.421875 17.65625 -0.515625 
Q 12.796875 0.390625 7.625 2.203125 
L 7.625 11.71875 
Q 11.71875 9.328125 16.59375 8.109375 
Q 21.484375 6.890625 26.8125 6.890625 
Q 36.078125 6.890625 40.9375 10.546875 
Q 45.796875 14.203125 45.796875 21.1875 
Q 45.796875 27.640625 41.28125 31.265625 
Q 36.765625 34.90625 28.71875 34.90625 
L 20.21875 34.90625 
L 20.21875 43.015625 
L 29.109375 43.015625 
Q 36.375 43.015625 40.234375 45.921875 
Q 44.09375 48.828125 44.09375 54.296875 
Q 44.09375 59.90625 40.109375 62.90625 
Q 36.140625 65.921875 28.71875 65.921875 
Q 24.65625 65.921875 20.015625 65.03125 
Q 15.375 64.15625 9.8125 62.3125 
L 9.8125 71.09375 
Q 15.4375 72.65625 20.34375 73.4375 
Q 25.25 74.21875 29.59375 74.21875 
Q 40.828125 74.21875 47.359375 69.109375 
Q 53.90625 64.015625 53.90625 55.328125 
Q 53.90625 49.265625 50.4375 45.09375 
Q 46.96875 40.921875 40.578125 39.3125 
z
" id="DejaVuSans-51"/>
       </defs>
       <use xlink:href="#DejaVuSans-50"/>
       <use x="63.623047" xlink:href="#DejaVuSans-48"/>
       <use x="127.246094" xlink:href="#DejaVuSans-50"/>
       <use x="190.869141" xlink:href="#DejaVuSans-52"/>
       <use x="254.492188" xlink:href="#DejaVuSans-45"/>
       <use x="290.576172" xlink:href="#DejaVuSans-48"/>
       <use x="354.199219" xlink:href="#DejaVuSans-56"/>
       <use x="417.822266" xlink:href="#DejaVuSans-45"/>
       <use x="453.90625" xlink:href="#DejaVuSans-51"/>
       <use x="517.529297" xlink:href="#DejaVuSans-48"/>
      </g>
     </g>
    </g>
    <g id="xtick_4">
     <g id="line2d_7">
      <path clip-path="url(#p3e9bf2f558)" d="M 197.788049 255.638708 
L 197.788049 25.44 
" style="fill:none;stroke:#b0b0b0;stroke-linecap:square;stroke-width:0.8;"/>
     </g>
     <g id="line2d_8">
      <g>
       <use style="stroke:#000000;stroke-width:0.8;" x="197.788049" xlink:href="#mea17d3945f" y="255.638708"/>
      </g>
     </g>
     <g id="text_4">
      <!-- 2024-08-31 -->
      <g transform="translate(190.442656 319.848351)rotate(-70)scale(0.1 -0.1)">
       <defs>
        <path d="M 12.40625 8.296875 
L 28.515625 8.296875 
L 28.515625 63.921875 
L 10.984375 60.40625 
L 10.984375 69.390625 
L 28.421875 72.90625 
L 38.28125 72.90625 
L 38.28125 8.296875 
L 54.390625 8.296875 
L 54.390625 0 
L 12.40625 0 
z
" id="DejaVuSans-49"/>
       </defs>
       <use xlink:href="#DejaVuSans-50"/>
       <use x="63.623047" xlink:href="#DejaVuSans-48"/>
       <use x="127.246094" xlink:href="#DejaVuSans-50"/>
       <use x="190.869141" xlink:href="#DejaVuSans-52"/>
       <use x="254.492188" xlink:href="#DejaVuSans-45"/>
       <use x="290.576172" xlink:href="#DejaVuSans-48"/>
       <use x="354.199219" xlink:href="#DejaVuSans-56"/>
       <use x="417.822266" xlink:href="#DejaVuSans-45"/>
       <use x="453.90625" xlink:href="#DejaVuSans-51"/>
       <use x="517.529297" xlink:href="#DejaVuSans-49"/>
      </g>
     </g>
    </g>
    <g id="xtick_5">
     <g id="line2d_9">
      <path clip-path="url(#p3e9bf2f558)" d="M 237.237508 255.638708 
L 237.237508 25.44 
" style="fill:none;stroke:#b0b0b0;stroke-linecap:square;stroke-width:0.8;"/>
     </g>
     <g id="line2d_10">
      <g>
       <use style="stroke:#000000;stroke-width:0.8;" x="237.237508" xlink:href="#mea17d3945f" y="255.638708"/>
      </g>
     </g>
     <g id="text_5">
      <!-- 2024-09-01 -->
      <g transform="translate(229.892115 319.848351)rotate(-70)scale(0.1 -0.1)">
       <use xlink:href="#DejaVuSans-50"/>
       <use x="63.623047" xlink:href="#DejaVuSans-48"/>
       <use x="127.246094" xlink:href="#DejaVuSans-50"/>
       <use x="190.869141" xlink:href="#DejaVuSans-52"/>
       <use x="254.492188" xlink:href="#DejaVuSans-45"/>
       <use x="290.576172" xlink:href="#DejaVuSans-48"/>
       <use x="354.199219" xlink:href="#DejaVuSans-57"/>
       <use x="417.822266" xlink:href="#DejaVuSans-45"/>
       <use x="453.90625" xlink:href="#DejaVuSans-48"/>
       <use x="517.529297" xlink:href="#DejaVuSans-49"/>
      </g>
     </g>
    </g>
    <g id="xtick_6">
     <g id="line2d_11">
      <path clip-path="url(#p3e9bf2f558)" d="M 276.686967 255.638708 
L 276.686967 25.44 
" style="fill:none;stroke:#b0b0b0;stroke-linecap:square;stroke-width:0.8;"/>
     </g>
     <g id="line2d_12">
      <g>
       <use style="stroke:#000000;stroke-width:0.8;" x="276.686967" xlink:href="#mea17d3945f" y="255.638708"/>
      </g>
     </g>
     <g id="text_6">
      <!-- 2024-09-02 -->
      <g transform="translate(269.341574 319.848351)rotate(-70)scale(0.1 -0.1)">
       <use xlink:href="#DejaVuSans-50"/>
       <use x="63.623047" xlink:href="#DejaVuSans-48"/>
       <use x="127.246094" xlink:href="#DejaVuSans-50"/>
       <use x="190.869141" xlink:href="#DejaVuSans-52"/>
       <use x="254.492188" xlink:href="#DejaVuSans-45"/>
       <use x="290.576172" xlink:href="#DejaVuSans-48"/>
       <use x="354.199219" xlink:href="#DejaVuSans-57"/>
       <use x="417.822266" xlink:href="#DejaVuSans-45"/>
       <use x="453.90625" xlink:href="#DejaVuSans-48"/>
       <use x="517.529297" xlink:href="#DejaVuSans-50"/>
      </g>
     </g>
    </g>
    <g id="xtick_7">
     <g id="line2d_13">
      <path clip-path="url(#p3e9bf2f558)" d="M 316.136427 255.638708 
L 316.136427 25.44 
" style="fill:none;stroke:#b0b0b0;stroke-linecap:square;stroke-width:0.8;"/>
     </g>
     <g id="line2d_14">
      <g>
       <use style="stroke:#000000;stroke-width:0.8;" x="316.136427" xlink:href="#mea17d3945f" y="255.638708"/>
      </g>
     </g>
     <g id="text_7">
      <!-- 2024-09-03 -->
      <g transform="translate(308.791034 319.848351)rotate(-70)scale(0.1 -0.1)">
       <use xlink:href="#DejaVuSans-50"/>
       <use x="63.623047" xlink:href="#DejaVuSans-48"/>
       <use x="127.246094" xlink:href="#DejaVuSans-50"/>
       <use x="190.869141" xlink:href="#DejaVuSans-52"/>
       <use x="254.492188" xlink:href="#DejaVuSans-45"/>
       <use x="290.576172" xlink:href="#DejaVuSans-48"/>
       <use x="354.199219" xlink:href="#DejaVuSans-57"/>
       <use x="417.822266" xlink:href="#DejaVuSans-45"/>
       <use x="453.90625" xlink:href="#DejaVuSans-48"/>
       <use x="517.529297" xlink:href="#DejaVuSans-51"/>
      </g>
     </g>
    </g>
    <g id="xtick_8">
     <g id="line2d_15">
      <path clip-path="url(#p3e9bf2f558)" d="M 355.585886 255.638708 
L 355.585886 25.44 
" style="fill:none;stroke:#b0b0b0;stroke-linecap:square;stroke-width:0.8;"/>
     </g>
     <g id="line2d_16">
      <g>
       <use style="stroke:#000000;stroke-width:0.8;" x="355.585886" xlink:href="#mea17d3945f" y="255.638708"/>
      </g>
     </g>
     <g id="text_8">
      <!-- 2024-09-04 -->
      <g transform="translate(348.240493 319.848351)rotate(-70)scale(0.1 -0.1)">
       <use xlink:href="#DejaVuSans-50"/>
       <use x="63.623047" xlink:href="#DejaVuSans-48"/>
       <use x="127.246094" xlink:href="#DejaVuSans-50"/>
       <use x="190.869141" xlink:href="#DejaVuSans-52"/>
       <use x="254.492188" xlink:href="#DejaVuSans-45"/>
       <use x="290.576172" xlink:href="#DejaVuSans-48"/>
       <use x="354.199219" xlink:href="#DejaVuSans-57"/>
       <use x="417.822266" xlink:href="#DejaVuSans-45"/>
       <use x="453.90625" xlink:href="#DejaVuSans-48"/>
       <use x="517.529297" xlink:href="#DejaVuSans-52"/>
      </g>
     </g>
    </g>
    <g id="xtick_9">
     <g id="line2d_17">
      <path clip-path="url(#p3e9bf2f558)" d="M 395.035345 255.638708 
L 395.035345 25.44 
" style="fill:none;stroke:#b0b0b0;stroke-linecap:square;stroke-width:0.8;"/>
     </g>
     <g id="line2d_18">
      <g>
       <use style="stroke:#000000;stroke-width:0.8;" x="395.035345" xlink:href="#mea17d3945f" y="255.638708"/>
      </g>
     </g>
     <g id="text_9">
      <!-- 2024-09-05 -->
      <g transform="translate(387.689952 319.848351)rotate(-70)scale(0.1 -0.1)">
       <defs>
        <path d="M 10.796875 72.90625 
L 49.515625 72.90625 
L 49.515625 64.59375 
L 19.828125 64.59375 
L 19.828125 46.734375 
Q 21.96875 47.46875 24.109375 47.828125 
Q 26.265625 48.1875 28.421875 48.1875 
Q 40.625 48.1875 47.75 41.5 
Q 54.890625 34.8125 54.890625 23.390625 
Q 54.890625 11.625 47.5625 5.09375 
Q 40.234375 -1.421875 26.90625 -1.421875 
Q 22.3125 -1.421875 17.546875 -0.640625 
Q 12.796875 0.140625 7.71875 1.703125 
L 7.71875 11.625 
Q 12.109375 9.234375 16.796875 8.0625 
Q 21.484375 6.890625 26.703125 6.890625 
Q 35.15625 6.890625 40.078125 11.328125 
Q 45.015625 15.765625 45.015625 23.390625 
Q 45.015625 31 40.078125 35.4375 
Q 35.15625 39.890625 26.703125 39.890625 
Q 22.75 39.890625 18.8125 39.015625 
Q 14.890625 38.140625 10.796875 36.28125 
z
" id="DejaVuSans-53"/>
       </defs>
       <use xlink:href="#DejaVuSans-50"/>
       <use x="63.623047" xlink:href="#DejaVuSans-48"/>
       <use x="127.246094" xlink:href="#DejaVuSans-50"/>
       <use x="190.869141" xlink:href="#DejaVuSans-52"/>
       <use x="254.492188" xlink:href="#DejaVuSans-45"/>
       <use x="290.576172" xlink:href="#DejaVuSans-48"/>
       <use x="354.199219" xlink:href="#DejaVuSans-57"/>
       <use x="417.822266" xlink:href="#DejaVuSans-45"/>
       <use x="453.90625" xlink:href="#DejaVuSans-48"/>
       <use x="517.529297" xlink:href="#DejaVuSans-53"/>
      </g>
     </g>
    </g>
    <g id="xtick_10">
     <g id="line2d_19">
      <path clip-path="url(#p3e9bf2f558)" d="M 434.484805 255.638708 
L 434.484805 25.44 
" style="fill:none;stroke:#b0b0b0;stroke-linecap:square;stroke-width:0.8;"/>
     </g>
     <g id="line2d_20">
      <g>
       <use style="stroke:#000000;stroke-width:0.8;" x="434.484805" xlink:href="#mea17d3945f" y="255.638708"/>
      </g>
     </g>
     <g id="text_10">
      <!-- 2024-09-06 -->
      <g transform="translate(427.139412 319.848351)rotate(-70)scale(0.1 -0.1)">
       <defs>
        <path d="M 33.015625 40.375 
Q 26.375 40.375 22.484375 35.828125 
Q 18.609375 31.296875 18.609375 23.390625 
Q 18.609375 15.53125 22.484375 10.953125 
Q 26.375 6.390625 33.015625 6.390625 
Q 39.65625 6.390625 43.53125 10.953125 
Q 47.40625 15.53125 47.40625 23.390625 
Q 47.40625 31.296875 43.53125 35.828125 
Q 39.65625 40.375 33.015625 40.375 
z
M 52.59375 71.296875 
L 52.59375 62.3125 
Q 48.875 64.0625 45.09375 64.984375 
Q 41.3125 65.921875 37.59375 65.921875 
Q 27.828125 65.921875 22.671875 59.328125 
Q 17.53125 52.734375 16.796875 39.40625 
Q 19.671875 43.65625 24.015625 45.921875 
Q 28.375 48.1875 33.59375 48.1875 
Q 44.578125 48.1875 50.953125 41.515625 
Q 57.328125 34.859375 57.328125 23.390625 
Q 57.328125 12.15625 50.6875 5.359375 
Q 44.046875 -1.421875 33.015625 -1.421875 
Q 20.359375 -1.421875 13.671875 8.265625 
Q 6.984375 17.96875 6.984375 36.375 
Q 6.984375 53.65625 15.1875 63.9375 
Q 23.390625 74.21875 37.203125 74.21875 
Q 40.921875 74.21875 44.703125 73.484375 
Q 48.484375 72.75 52.59375 71.296875 
z
" id="DejaVuSans-54"/>
       </defs>
       <use xlink:href="#DejaVuSans-50"/>
       <use x="63.623047" xlink:href="#DejaVuSans-48"/>
       <use x="127.246094" xlink:href="#DejaVuSans-50"/>
       <use x="190.869141" xlink:href="#DejaVuSans-52"/>
       <use x="254.492188" xlink:href="#DejaVuSans-45"/>
       <use x="290.576172" xlink:href="#DejaVuSans-48"/>
       <use x="354.199219" xlink:href="#DejaVuSans-57"/>
       <use x="417.822266" xlink:href="#DejaVuSans-45"/>
       <use x="453.90625" xlink:href="#DejaVuSans-48"/>
       <use x="517.529297" xlink:href="#DejaVuSans-54"/>
      </g>
     </g>
    </g>
    <g id="text_11">
     <!-- Date -->
     <g transform="translate(231.696482 332.158083)scale(0.1 -0.1)">
      <defs>
       <path d="M 19.671875 64.796875 
L 19.671875 8.109375 
L 31.59375 8.109375 
Q 46.6875 8.109375 53.6875 14.9375 
Q 60.6875 21.78125 60.6875 36.53125 
Q 60.6875 51.171875 53.6875 57.984375 
Q 46.6875 64.796875 31.59375 64.796875 
z
M 9.8125 72.90625 
L 30.078125 72.90625 
Q 51.265625 72.90625 61.171875 64.09375 
Q 71.09375 55.28125 71.09375 36.53125 
Q 71.09375 17.671875 61.125 8.828125 
Q 51.171875 0 30.078125 0 
L 9.8125 0 
z
" id="DejaVuSans-68"/>
       <path d="M 34.28125 27.484375 
Q 23.390625 27.484375 19.1875 25 
Q 14.984375 22.515625 14.984375 16.5 
Q 14.984375 11.71875 18.140625 8.90625 
Q 21.296875 6.109375 26.703125 6.109375 
Q 34.1875 6.109375 38.703125 11.40625 
Q 43.21875 16.703125 43.21875 25.484375 
L 43.21875 27.484375 
z
M 52.203125 31.203125 
L 52.203125 0 
L 43.21875 0 
L 43.21875 8.296875 
Q 40.140625 3.328125 35.546875 0.953125 
Q 30.953125 -1.421875 24.3125 -1.421875 
Q 15.921875 -1.421875 10.953125 3.296875 
Q 6 8.015625 6 15.921875 
Q 6 25.140625 12.171875 29.828125 
Q 18.359375 34.515625 30.609375 34.515625 
L 43.21875 34.515625 
L 43.21875 35.40625 
Q 43.21875 41.609375 39.140625 45 
Q 35.0625 48.390625 27.6875 48.390625 
Q 23 48.390625 18.546875 47.265625 
Q 14.109375 46.140625 10.015625 43.890625 
L 10.015625 52.203125 
Q 14.9375 54.109375 19.578125 55.046875 
Q 24.21875 56 28.609375 56 
Q 40.484375 56 46.34375 49.84375 
Q 52.203125 43.703125 52.203125 31.203125 
z
" id="DejaVuSans-97"/>
       <path d="M 18.3125 70.21875 
L 18.3125 54.6875 
L 36.8125 54.6875 
L 36.8125 47.703125 
L 18.3125 47.703125 
L 18.3125 18.015625 
Q 18.3125 11.328125 20.140625 9.421875 
Q 21.96875 7.515625 27.59375 7.515625 
L 36.8125 7.515625 
L 36.8125 0 
L 27.59375 0 
Q 17.1875 0 13.234375 3.875 
Q 9.28125 7.765625 9.28125 18.015625 
L 9.28125 47.703125 
L 2.6875 47.703125 
L 2.6875 54.6875 
L 9.28125 54.6875 
L 9.28125 70.21875 
z
" id="DejaVuSans-116"/>
       <path d="M 56.203125 29.59375 
L 56.203125 25.203125 
L 14.890625 25.203125 
Q 15.484375 15.921875 20.484375 11.0625 
Q 25.484375 6.203125 34.421875 6.203125 
Q 39.59375 6.203125 44.453125 7.46875 
Q 49.3125 8.734375 54.109375 11.28125 
L 54.109375 2.78125 
Q 49.265625 0.734375 44.1875 -0.34375 
Q 39.109375 -1.421875 33.890625 -1.421875 
Q 20.796875 -1.421875 13.15625 6.1875 
Q 5.515625 13.8125 5.515625 26.8125 
Q 5.515625 40.234375 12.765625 48.109375 
Q 20.015625 56 32.328125 56 
Q 43.359375 56 49.78125 48.890625 
Q 56.203125 41.796875 56.203125 29.59375 
z
M 47.21875 32.234375 
Q 47.125 39.59375 43.09375 43.984375 
Q 39.0625 48.390625 32.421875 48.390625 
Q 24.90625 48.390625 20.390625 44.140625 
Q 15.875 39.890625 15.1875 32.171875 
z
" id="DejaVuSans-101"/>
      </defs>
      <use xlink:href="#DejaVuSans-68"/>
      <use x="77.001953" xlink:href="#DejaVuSans-97"/>
      <use x="138.28125" xlink:href="#DejaVuSans-116"/>
      <use x="177.490234" xlink:href="#DejaVuSans-101"/>
     </g>
    </g>
   </g>
   <g id="matplotlib.axis_2">
    <g id="ytick_1">
     <g id="line2d_21">
      <path clip-path="url(#p3e9bf2f558)" d="M 44.66 226.204338 
L 442.634527 226.204338 
" style="fill:none;stroke:#b0b0b0;stroke-linecap:square;stroke-width:0.8;"/>
     </g>
     <g id="line2d_22">
      <defs>
       <path d="M 0 0 
L -3.5 0 
" id="m77a4c0d43d" style="stroke:#000000;stroke-width:0.8;"/>
      </defs>
      <g>
       <use style="stroke:#000000;stroke-width:0.8;" x="44.66" xlink:href="#m77a4c0d43d" y="226.204338"/>
      </g>
     </g>
     <g id="text_12">
      <!-- 55 -->
      <g transform="translate(24.935 230.003557)scale(0.1 -0.1)">
       <use xlink:href="#DejaVuSans-53"/>
       <use x="63.623047" xlink:href="#DejaVuSans-53"/>
      </g>
     </g>
    </g>
    <g id="ytick_2">
     <g id="line2d_23">
      <path clip-path="url(#p3e9bf2f558)" d="M 44.66 196.562475 
L 442.634527 196.562475 
" style="fill:none;stroke:#b0b0b0;stroke-linecap:square;stroke-width:0.8;"/>
     </g>
     <g id="line2d_24">
      <g>
       <use style="stroke:#000000;stroke-width:0.8;" x="44.66" xlink:href="#m77a4c0d43d" y="196.562475"/>
      </g>
     </g>
     <g id="text_13">
      <!-- 60 -->
      <g transform="translate(24.935 200.361694)scale(0.1 -0.1)">
       <use xlink:href="#DejaVuSans-54"/>
       <use x="63.623047" xlink:href="#DejaVuSans-48"/>
      </g>
     </g>
    </g>
    <g id="ytick_3">
     <g id="line2d_25">
      <path clip-path="url(#p3e9bf2f558)" d="M 44.66 166.920612 
L 442.634527 166.920612 
" style="fill:none;stroke:#b0b0b0;stroke-linecap:square;stroke-width:0.8;"/>
     </g>
     <g id="line2d_26">
      <g>
       <use style="stroke:#000000;stroke-width:0.8;" x="44.66" xlink:href="#m77a4c0d43d" y="166.920612"/>
      </g>
     </g>
     <g id="text_14">
      <!-- 65 -->
      <g transform="translate(24.935 170.719831)scale(0.1 -0.1)">
       <use xlink:href="#DejaVuSans-54"/>
       <use x="63.623047" xlink:href="#DejaVuSans-53"/>
      </g>
     </g>
    </g>
    <g id="ytick_4">
     <g id="line2d_27">
      <path clip-path="url(#p3e9bf2f558)" d="M 44.66 137.278749 
L 442.634527 137.278749 
" style="fill:none;stroke:#b0b0b0;stroke-linecap:square;stroke-width:0.8;"/>
     </g>
     <g id="line2d_28">
      <g>
       <use style="stroke:#000000;stroke-width:0.8;" x="44.66" xlink:href="#m77a4c0d43d" y="137.278749"/>
      </g>
     </g>
     <g id="text_15">
      <!-- 70 -->
      <g transform="translate(24.935 141.077968)scale(0.1 -0.1)">
       <defs>
        <path d="M 8.203125 72.90625 
L 55.078125 72.90625 
L 55.078125 68.703125 
L 28.609375 0 
L 18.3125 0 
L 43.21875 64.59375 
L 8.203125 64.59375 
z
" id="DejaVuSans-55"/>
       </defs>
       <use xlink:href="#DejaVuSans-55"/>
       <use x="63.623047" xlink:href="#DejaVuSans-48"/>
      </g>
     </g>
    </g>
    <g id="ytick_5">
     <g id="line2d_29">
      <path clip-path="url(#p3e9bf2f558)" d="M 44.66 107.636886 
L 442.634527 107.636886 
" style="fill:none;stroke:#b0b0b0;stroke-linecap:square;stroke-width:0.8;"/>
     </g>
     <g id="line2d_30">
      <g>
       <use style="stroke:#000000;stroke-width:0.8;" x="44.66" xlink:href="#m77a4c0d43d" y="107.636886"/>
      </g>
     </g>
     <g id="text_16">
      <!-- 75 -->
      <g transform="translate(24.935 111.436105)scale(0.1 -0.1)">
       <use xlink:href="#DejaVuSans-55"/>
       <use x="63.623047" xlink:href="#DejaVuSans-53"/>
      </g>
     </g>
    </g>
    <g id="ytick_6">
     <g id="line2d_31">
      <path clip-path="url(#p3e9bf2f558)" d="M 44.66 77.995023 
L 442.634527 77.995023 
" style="fill:none;stroke:#b0b0b0;stroke-linecap:square;stroke-width:0.8;"/>
     </g>
     <g id="line2d_32">
      <g>
       <use style="stroke:#000000;stroke-width:0.8;" x="44.66" xlink:href="#m77a4c0d43d" y="77.995023"/>
      </g>
     </g>
     <g id="text_17">
      <!-- 80 -->
      <g transform="translate(24.935 81.794242)scale(0.1 -0.1)">
       <use xlink:href="#DejaVuSans-56"/>
       <use x="63.623047" xlink:href="#DejaVuSans-48"/>
      </g>
     </g>
    </g>
    <g id="ytick_7">
     <g id="line2d_33">
      <path clip-path="url(#p3e9bf2f558)" d="M 44.66 48.35316 
L 442.634527 48.35316 
" style="fill:none;stroke:#b0b0b0;stroke-linecap:square;stroke-width:0.8;"/>
     </g>
     <g id="line2d_34">
      <g>
       <use style="stroke:#000000;stroke-width:0.8;" x="44.66" xlink:href="#m77a4c0d43d" y="48.35316"/>
      </g>
     </g>
     <g id="text_18">
      <!-- 85 -->
      <g transform="translate(24.935 52.152379)scale(0.1 -0.1)">
       <use xlink:href="#DejaVuSans-56"/>
       <use x="63.623047" xlink:href="#DejaVuSans-53"/>
      </g>
     </g>
    </g>
    <g id="text_19">
     <!-- Temperature [F] -->
     <g transform="translate(18.855313 180.575291)rotate(-90)scale(0.1 -0.1)">
      <defs>
       <path d="M -0.296875 72.90625 
L 61.375 72.90625 
L 61.375 64.59375 
L 35.5 64.59375 
L 35.5 0 
L 25.59375 0 
L 25.59375 64.59375 
L -0.296875 64.59375 
z
" id="DejaVuSans-84"/>
       <path d="M 52 44.1875 
Q 55.375 50.25 60.0625 53.125 
Q 64.75 56 71.09375 56 
Q 79.640625 56 84.28125 50.015625 
Q 88.921875 44.046875 88.921875 33.015625 
L 88.921875 0 
L 79.890625 0 
L 79.890625 32.71875 
Q 79.890625 40.578125 77.09375 44.375 
Q 74.3125 48.1875 68.609375 48.1875 
Q 61.625 48.1875 57.5625 43.546875 
Q 53.515625 38.921875 53.515625 30.90625 
L 53.515625 0 
L 44.484375 0 
L 44.484375 32.71875 
Q 44.484375 40.625 41.703125 44.40625 
Q 38.921875 48.1875 33.109375 48.1875 
Q 26.21875 48.1875 22.15625 43.53125 
Q 18.109375 38.875 18.109375 30.90625 
L 18.109375 0 
L 9.078125 0 
L 9.078125 54.6875 
L 18.109375 54.6875 
L 18.109375 46.1875 
Q 21.1875 51.21875 25.484375 53.609375 
Q 29.78125 56 35.6875 56 
Q 41.65625 56 45.828125 52.96875 
Q 50 49.953125 52 44.1875 
z
" id="DejaVuSans-109"/>
       <path d="M 18.109375 8.203125 
L 18.109375 -20.796875 
L 9.078125 -20.796875 
L 9.078125 54.6875 
L 18.109375 54.6875 
L 18.109375 46.390625 
Q 20.953125 51.265625 25.265625 53.625 
Q 29.59375 56 35.59375 56 
Q 45.5625 56 51.78125 48.09375 
Q 58.015625 40.1875 58.015625 27.296875 
Q 58.015625 14.40625 51.78125 6.484375 
Q 45.5625 -1.421875 35.59375 -1.421875 
Q 29.59375 -1.421875 25.265625 0.953125 
Q 20.953125 3.328125 18.109375 8.203125 
z
M 48.6875 27.296875 
Q 48.6875 37.203125 44.609375 42.84375 
Q 40.53125 48.484375 33.40625 48.484375 
Q 26.265625 48.484375 22.1875 42.84375 
Q 18.109375 37.203125 18.109375 27.296875 
Q 18.109375 17.390625 22.1875 11.75 
Q 26.265625 6.109375 33.40625 6.109375 
Q 40.53125 6.109375 44.609375 11.75 
Q 48.6875 17.390625 48.6875 27.296875 
z
" id="DejaVuSans-112"/>
       <path d="M 41.109375 46.296875 
Q 39.59375 47.171875 37.8125 47.578125 
Q 36.03125 48 33.890625 48 
Q 26.265625 48 22.1875 43.046875 
Q 18.109375 38.09375 18.109375 28.8125 
L 18.109375 0 
L 9.078125 0 
L 9.078125 54.6875 
L 18.109375 54.6875 
L 18.109375 46.1875 
Q 20.953125 51.171875 25.484375 53.578125 
Q 30.03125 56 36.53125 56 
Q 37.453125 56 38.578125 55.875 
Q 39.703125 55.765625 41.0625 55.515625 
z
" id="DejaVuSans-114"/>
       <path d="M 8.5 21.578125 
L 8.5 54.6875 
L 17.484375 54.6875 
L 17.484375 21.921875 
Q 17.484375 14.15625 20.5 10.265625 
Q 23.53125 6.390625 29.59375 6.390625 
Q 36.859375 6.390625 41.078125 11.03125 
Q 45.3125 15.671875 45.3125 23.6875 
L 45.3125 54.6875 
L 54.296875 54.6875 
L 54.296875 0 
L 45.3125 0 
L 45.3125 8.40625 
Q 42.046875 3.421875 37.71875 1 
Q 33.40625 -1.421875 27.6875 -1.421875 
Q 18.265625 -1.421875 13.375 4.4375 
Q 8.5 10.296875 8.5 21.578125 
z
M 31.109375 56 
z
" id="DejaVuSans-117"/>
       <path id="DejaVuSans-32"/>
       <path d="M 8.59375 75.984375 
L 29.296875 75.984375 
L 29.296875 69 
L 17.578125 69 
L 17.578125 -6.203125 
L 29.296875 -6.203125 
L 29.296875 -13.1875 
L 8.59375 -13.1875 
z
" id="DejaVuSans-91"/>
       <path d="M 9.8125 72.90625 
L 51.703125 72.90625 
L 51.703125 64.59375 
L 19.671875 64.59375 
L 19.671875 43.109375 
L 48.578125 43.109375 
L 48.578125 34.8125 
L 19.671875 34.8125 
L 19.671875 0 
L 9.8125 0 
z
" id="DejaVuSans-70"/>
       <path d="M 30.421875 75.984375 
L 30.421875 -13.1875 
L 9.71875 -13.1875 
L 9.71875 -6.203125 
L 21.390625 -6.203125 
L 21.390625 69 
L 9.71875 69 
L 9.71875 75.984375 
z
" id="DejaVuSans-93"/>
      </defs>
      <use xlink:href="#DejaVuSans-84"/>
      <use x="44.083984" xlink:href="#DejaVuSans-101"/>
      <use x="105.607422" xlink:href="#DejaVuSans-109"/>
      <use x="203.019531" xlink:href="#DejaVuSans-112"/>
      <use x="266.496094" xlink:href="#DejaVuSans-101"/>
      <use x="328.019531" xlink:href="#DejaVuSans-114"/>
      <use x="369.132812" xlink:href="#DejaVuSans-97"/>
      <use x="430.412109" xlink:href="#DejaVuSans-116"/>
      <use x="469.621094" xlink:href="#DejaVuSans-117"/>
      <use x="533" xlink:href="#DejaVuSans-114"/>
      <use x="571.863281" xlink:href="#DejaVuSans-101"/>
      <use x="633.386719" xlink:href="#DejaVuSans-32"/>
      <use x="665.173828" xlink:href="#DejaVuSans-91"/>
      <use x="704.1875" xlink:href="#DejaVuSans-70"/>
      <use x="761.707031" xlink:href="#DejaVuSans-93"/>
     </g>
    </g>
   </g>
   <g id="line2d_35">
    <path clip-path="url(#p3e9bf2f558)" d="M 62.749751 143.799959 
L 62.809961 143.799959 
L 62.866702 143.207122 
L 62.895633 143.799959 
L 62.924021 143.799959 
L 63.037732 143.207122 
L 63.094669 143.207122 
L 63.123129 143.799959 
L 63.152102 143.207122 
L 63.266554 142.614284 
L 63.438623 142.614284 
L 63.525491 142.021447 
L 63.670227 143.207122 
L 63.698717 143.207122 
L 63.786424 142.021447 
L 63.814835 143.207122 
L 63.871925 142.021447 
L 63.93058 142.021447 
L 64.046811 140.835773 
L 64.075096 142.021447 
L 64.104001 140.242935 
L 64.132353 140.242935 
L 64.161452 140.835773 
L 64.219142 140.242935 
L 64.333607 140.242935 
L 64.391811 139.650098 
L 64.421209 140.242935 
L 64.450449 140.242935 
L 64.479497 139.650098 
L 64.507904 140.835773 
L 64.59374 140.835773 
L 64.711394 139.650098 
L 64.740032 139.650098 
L 64.854495 140.242935 
L 64.883133 140.242935 
L 64.999607 140.835773 
L 65.086459 140.835773 
L 65.232807 139.057261 
L 65.377565 140.242935 
L 65.4945 139.057261 
L 65.524498 139.057261 
L 65.554277 138.464424 
L 65.611422 139.057261 
L 65.64026 139.650098 
L 65.71792 139.057261 
L 65.804697 139.057261 
L 65.863487 138.464424 
L 65.892137 139.057261 
L 65.922557 139.057261 
L 66.069542 140.835773 
L 66.128551 140.242935 
L 66.159701 140.835773 
L 66.252962 140.835773 
L 66.281449 142.021447 
L 66.339795 140.835773 
L 66.42525 140.835773 
L 66.541733 140.242935 
L 66.600168 140.835773 
L 66.629815 140.242935 
L 66.686352 140.242935 
L 66.745415 142.021447 
L 66.775182 140.242935 
L 66.831798 140.242935 
L 66.893816 142.021447 
L 66.950448 140.835773 
L 66.978906 142.021447 
L 67.007464 140.242935 
L 67.035781 140.835773 
L 67.064916 140.835773 
L 67.180527 143.207122 
L 67.239345 140.835773 
L 67.267693 143.207122 
L 67.29721 144.392796 
L 67.327021 142.614284 
L 67.475514 140.242935 
L 67.592067 144.392796 
L 67.65105 142.614284 
L 67.680233 143.799959 
L 67.740984 144.392796 
L 67.769265 143.799959 
L 67.79752 143.799959 
L 67.943473 144.985633 
L 68.233023 144.985633 
L 68.348676 145.578471 
L 68.43623 144.985633 
L 68.493955 145.578471 
L 68.522453 144.985633 
L 68.550836 144.392796 
L 68.580019 145.578471 
L 68.640178 145.578471 
L 68.726755 143.207122 
L 68.756572 144.985633 
L 68.786402 146.764145 
L 68.874073 145.578471 
L 68.931821 145.578471 
L 69.107058 143.799959 
L 69.222793 144.392796 
L 69.281313 144.392796 
L 69.310045 143.799959 
L 69.338321 144.392796 
L 69.367896 144.985633 
L 69.396546 143.207122 
L 69.454621 145.578471 
L 69.48425 145.578471 
L 69.543043 144.392796 
L 69.599639 144.985633 
L 69.627883 144.392796 
L 69.656345 145.578471 
L 69.686108 145.578471 
L 69.715038 144.392796 
L 69.800405 144.985633 
L 69.917267 144.985633 
L 70.007178 145.578471 
L 70.093534 144.985633 
L 70.183769 145.578471 
L 70.242314 144.392796 
L 70.299451 144.985633 
L 70.357107 144.985633 
L 70.472918 145.578471 
L 70.789614 145.578471 
L 70.876772 146.764145 
L 70.906495 145.578471 
L 70.963727 146.764145 
L 71.432736 146.764145 
L 71.550631 147.356982 
L 71.580452 146.764145 
L 71.637691 147.356982 
L 71.66612 147.356982 
L 71.694491 146.764145 
L 71.751632 147.356982 
L 72.301071 147.356982 
L 72.329833 147.94982 
L 72.358307 147.356982 
L 145.262417 147.94982 
L 145.291865 147.356982 
L 145.636876 145.578471 
L 145.665486 147.356982 
L 145.72548 146.764145 
L 145.786166 147.356982 
L 145.815369 145.578471 
L 145.885505 147.356982 
L 145.935065 146.764145 
L 145.964413 146.764145 
L 146.111671 143.207122 
L 146.236143 145.578471 
L 146.264397 144.985633 
L 146.396426 146.764145 
L 146.518069 146.764145 
L 146.546386 147.356982 
L 146.695941 144.985633 
L 146.788288 140.242935 
L 146.841692 143.207122 
L 146.87129 144.985633 
L 146.899693 143.799959 
L 146.992532 145.578471 
L 147.055001 144.985633 
L 147.08332 144.985633 
L 147.184315 146.764145 
L 147.213043 145.578471 
L 147.242228 145.578471 
L 147.277511 144.985633 
L 147.334644 145.578471 
L 147.398195 145.578471 
L 147.545515 139.650098 
L 147.660913 144.985633 
L 147.689205 145.578471 
L 147.804261 139.057261 
L 147.863283 140.835773 
L 147.891613 140.242935 
L 147.919913 140.835773 
L 148.077499 146.764145 
L 148.212064 144.392796 
L 148.299744 144.392796 
L 148.329729 143.799959 
L 148.358187 144.392796 
L 148.475006 146.764145 
L 148.625142 144.392796 
L 148.654174 144.392796 
L 148.751455 139.650098 
L 148.779742 142.614284 
L 148.945201 146.764145 
L 149.005073 144.985633 
L 149.034435 144.392796 
L 149.062727 144.985633 
L 149.149736 146.764145 
L 149.177982 144.985633 
L 149.207381 145.578471 
L 149.323788 145.578471 
L 149.353251 144.392796 
L 149.414478 145.578471 
L 149.444074 147.356982 
L 149.502032 144.985633 
L 149.558993 144.985633 
L 149.58882 145.578471 
L 149.619624 142.021447 
L 149.709278 142.614284 
L 149.768855 144.985633 
L 149.82787 143.207122 
L 150.000589 144.985633 
L 150.122388 144.392796 
L 150.150713 144.392796 
L 150.207933 144.985633 
L 150.237107 143.799959 
L 150.293675 144.985633 
L 150.322328 144.985633 
L 150.350579 144.392796 
L 150.408574 144.985633 
L 150.437727 144.985633 
L 150.551308 145.578471 
L 150.580679 145.578471 
L 150.695725 146.764145 
L 150.724445 146.764145 
L 150.8401 147.356982 
L 151.244551 147.356982 
L 151.331764 147.94982 
L 151.447927 147.356982 
L 151.651383 147.356982 
L 151.679931 144.985633 
L 151.766179 146.764145 
L 151.823632 146.764145 
L 151.943788 147.356982 
L 152.030277 147.356982 
L 152.059129 146.764145 
L 152.116047 147.356982 
L 152.173214 147.356982 
L 152.260699 147.94982 
L 152.29016 147.356982 
L 152.348951 147.94982 
L 152.9361 147.94982 
L 152.966894 148.542657 
L 152.995267 147.94982 
L 153.122154 147.356982 
L 153.452839 147.356982 
L 153.538052 146.764145 
L 153.566861 147.356982 
L 153.62808 146.764145 
L 154.034701 146.764145 
L 154.063016 147.356982 
L 154.120315 146.764145 
L 154.382561 146.764145 
L 154.471172 147.356982 
L 154.585295 146.764145 
L 154.698668 146.764145 
L 154.784529 147.356982 
L 154.871818 146.764145 
L 154.987564 147.356982 
L 155.04428 147.356982 
L 155.157762 146.764145 
L 155.214722 146.764145 
L 155.299622 147.356982 
L 155.420899 146.764145 
L 155.707807 146.764145 
L 269.690532 130.164702 
L 269.756384 131.350376 
L 269.894081 131.350376 
L 269.922612 130.164702 
L 269.981659 131.350376 
L 270.074556 131.350376 
L 270.10398 130.164702 
L 270.168708 131.350376 
L 270.4286 131.350376 
L 270.487051 131.943214 
L 270.515621 131.350376 
L 270.694908 131.350376 
L 270.724797 131.943214 
L 270.78707 131.350376 
L 270.821325 131.350376 
L 270.937368 131.943214 
L 270.995872 131.943214 
L 271.025049 131.350376 
L 271.081929 131.943214 
L 271.196565 131.943214 
L 271.282422 131.350376 
L 271.381847 131.943214 
L 272.032816 131.943214 
L 272.061452 132.536051 
L 272.118039 131.943214 
L 272.146263 131.943214 
L 272.175237 132.536051 
L 272.232701 131.943214 
L 272.26195 131.943214 
L 272.380982 132.536051 
L 272.501043 131.943214 
L 272.52935 131.943214 
L 272.64329 132.536051 
L 273.195307 132.536051 
L 273.223888 133.128888 
L 273.28065 132.536051 
L 273.400146 132.536051 
L 273.431771 133.128888 
L 273.502829 132.536051 
L 273.768077 132.536051 
L 273.887579 133.128888 
L 275.117208 133.128888 
L 275.146919 133.721726 
L 275.205938 133.128888 
L 275.469003 133.128888 
L 275.588515 133.721726 
L 275.706229 133.128888 
L 275.735365 133.128888 
L 275.851148 133.721726 
L 276.266182 133.721726 
L 276.402703 134.314563 
L 276.516711 133.721726 
L 277.361733 133.721726 
L 277.389962 133.128888 
L 277.448802 133.721726 
L 277.654623 133.721726 
L 277.683125 133.128888 
L 277.741856 133.721726 
L 277.771474 133.721726 
L 277.85764 133.128888 
L 277.973915 133.721726 
L 278.410749 133.721726 
L 278.439012 134.314563 
L 278.49551 133.721726 
L 279.040789 133.721726 
L 279.069901 133.128888 
L 279.127402 133.721726 
L 279.213617 133.721726 
L 279.251596 133.128888 
L 279.314044 133.721726 
L 279.573196 133.721726 
L 279.602354 133.128888 
L 279.661334 133.721726 
L 280.592344 133.721726 
L 280.708334 134.314563 
L 280.76652 134.314563 
L 280.886397 133.721726 
L 281.013502 134.314563 
L 281.131353 133.721726 
L 281.159597 133.721726 
L 281.274908 134.314563 
L 281.391595 133.721726 
L 281.536551 133.721726 
L 281.650099 134.314563 
L 282.159478 134.314563 
L 282.188079 134.9074 
L 282.24477 134.314563 
L 282.599236 134.314563 
L 282.687623 134.9074 
L 282.775641 134.314563 
L 282.862455 134.9074 
L 282.952742 134.314563 
L 283.074544 134.9074 
L 283.102799 134.9074 
L 283.133425 134.314563 
L 283.191646 134.9074 
L 284.100549 134.9074 
L 284.129826 136.093075 
L 284.187709 134.9074 
L 284.216006 134.9074 
L 284.249295 136.093075 
L 284.307733 134.9074 
L 284.693765 134.9074 
L 284.751028 136.093075 
L 284.780257 134.9074 
L 285.05087 134.9074 
L 285.167562 136.093075 
L 285.253184 134.9074 
L 285.339059 136.093075 
L 285.427471 134.9074 
L 285.514057 136.093075 
L 285.634556 134.9074 
L 285.750615 136.093075 
L 285.77894 136.093075 
L 285.807183 134.9074 
L 285.864941 136.093075 
L 285.895808 136.093075 
L 285.925197 134.9074 
L 285.984998 136.093075 
L 286.828119 136.093075 
L 286.917845 136.685912 
L 287.040168 136.093075 
L 287.097663 136.093075 
L 287.127356 136.685912 
L 287.156075 136.093075 
L 287.471607 136.093075 
L 287.588947 136.685912 
L 287.675542 136.093075 
L 287.792332 136.685912 
L 288.786895 136.685912 
L 288.873172 137.278749 
L 288.932844 136.685912 
L 288.961699 137.278749 
L 289.019828 137.278749 
L 289.07695 136.685912 
L 289.105383 137.278749 
L 289.769699 137.278749 
L 289.887381 136.685912 
L 290.002783 137.278749 
L 291.196811 137.278749 
L 291.225212 137.871586 
L 291.290768 137.278749 
L 292.313206 137.278749 
L 292.43476 137.871586 
L 292.522963 137.278749 
L 292.653386 137.871586 
L 293.452519 137.871586 
L 293.480881 137.278749 
L 293.540457 137.871586 
L 293.688548 137.871586 
L 293.775215 137.278749 
L 293.893379 137.871586 
L 293.922944 137.871586 
L 294.041588 137.278749 
L 294.185862 137.278749 
L 294.214115 137.871586 
L 294.272927 137.278749 
L 294.360483 137.278749 
L 294.48025 137.871586 
L 294.596816 137.278749 
L 294.827158 137.278749 
L 294.948762 137.871586 
L 295.067746 137.278749 
L 295.989919 137.278749 
L 296.106769 136.685912 
L 296.370575 136.685912 
L 296.429513 136.093075 
L 296.458492 136.685912 
L 296.636163 136.685912 
L 296.701631 136.093075 
L 296.730855 136.685912 
L 296.789583 136.685912 
L 296.819753 136.093075 
L 296.877501 136.685912 
L 297.702178 136.685912 
L 297.819805 136.093075 
L 297.914661 136.093075 
L 297.943209 136.685912 
L 298.000182 136.093075 
L 298.118151 136.093075 
L 298.235722 134.9074 
L 298.528643 134.9074 
L 298.585825 134.314563 
L 298.614503 134.9074 
L 299.311995 134.9074 
L 299.398216 134.314563 
L 299.515835 134.9074 
L 299.572527 134.9074 
L 299.659095 134.314563 
L 299.687842 134.9074 
L 299.746057 134.314563 
L 299.774357 134.314563 
L 299.887834 133.721726 
L 299.947103 133.721726 
L 300.061893 134.314563 
L 300.147439 134.314563 
L 300.263358 133.721726 
L 300.291595 133.721726 
L 300.379286 134.314563 
L 300.507497 133.721726 
L 300.596398 133.721726 
L 300.685344 134.314563 
L 300.801118 133.721726 
L 300.922201 134.314563 
L 300.953802 133.721726 
L 301.011875 134.314563 
L 301.133513 134.314563 
L 301.161883 133.721726 
L 301.220181 134.314563 
L 301.632234 134.314563 
L 301.748927 133.721726 
L 301.807435 134.314563 
L 301.835941 133.721726 
L 301.927478 133.721726 
L 302.046298 134.314563 
L 302.076533 134.314563 
L 302.19726 133.721726 
L 302.285945 134.314563 
L 302.405919 133.721726 
L 302.467203 133.721726 
L 302.584305 134.314563 
L 302.613688 134.314563 
L 302.73017 133.721726 
L 302.939669 133.721726 
L 302.971748 134.314563 
L 303.040132 133.721726 
L 303.160721 133.721726 
L 303.18979 134.314563 
L 303.248505 133.721726 
L 303.475049 133.721726 
L 303.503344 132.536051 
L 303.590089 133.128888 
L 303.646929 133.128888 
L 303.762343 133.721726 
L 303.878514 133.721726 
L 303.935666 134.314563 
L 303.964501 133.721726 
L 303.993879 133.721726 
L 304.022209 133.128888 
L 304.079936 133.721726 
L 304.108785 133.721726 
L 304.195829 133.128888 
L 304.224182 133.721726 
L 304.283189 133.128888 
L 304.341949 133.128888 
L 304.458946 133.721726 
L 304.786834 133.721726 
L 304.815257 134.314563 
L 304.87424 133.721726 
L 304.963144 133.128888 
L 305.080548 133.721726 
L 305.461609 133.721726 
L 305.576611 134.314563 
L 305.635664 134.314563 
L 305.665292 133.721726 
L 305.722428 134.314563 
L 306.069021 134.314563 
L 306.185575 133.721726 
L 306.348017 134.314563 
L 306.668675 134.314563 
L 306.753614 134.9074 
L 306.869035 134.314563 
L 306.986606 134.314563 
L 307.016724 133.721726 
L 307.07384 134.314563 
L 307.425588 134.314563 
L 307.454859 134.9074 
L 307.511942 134.314563 
L 307.906325 134.314563 
L 308.023895 134.9074 
L 308.140973 134.314563 
L 308.260047 134.9074 
L 308.729561 134.9074 
L 308.787552 134.314563 
L 308.81629 134.9074 
L 308.934892 134.9074 
L 308.96505 134.314563 
L 309.023527 134.9074 
L 309.823915 134.9074 
L 309.853376 136.093075 
L 309.923896 134.9074 
L 309.982042 134.9074 
L 310.079322 136.093075 
L 310.201269 134.9074 
L 310.290894 136.093075 
L 310.405557 134.9074 
L 310.522457 136.093075 
L 310.619423 136.093075 
L 310.737922 134.9074 
L 310.898544 136.093075 
L 311.613126 136.093075 
L 311.718349 136.685912 
L 311.777077 136.093075 
L 311.808599 136.685912 
L 311.836925 136.685912 
L 311.896296 136.093075 
L 311.92517 136.685912 
L 311.98417 136.685912 
L 312.070674 136.093075 
L 312.198893 136.685912 
L 312.930323 136.685912 
L 312.958589 137.278749 
L 313.016006 136.685912 
L 313.512127 136.685912 
L 313.540554 137.278749 
L 313.599125 136.685912 
L 313.628381 136.685912 
L 313.71574 137.278749 
L 313.744588 136.685912 
L 313.803125 137.278749 
L 313.832832 137.278749 
L 313.952074 136.685912 
L 314.07562 137.278749 
L 315.697654 137.278749 
L 315.729352 137.871586 
L 315.790529 137.278749 
L 315.882812 137.278749 
L 315.9419 137.871586 
L 315.971323 137.278749 
L 316.034407 137.278749 
L 316.153947 137.871586 
L 316.1834 137.278749 
L 316.241907 137.871586 
L 316.561969 137.871586 
L 316.592188 137.278749 
L 316.650707 137.871586 
L 316.765221 137.871586 
L 316.793513 137.278749 
L 316.85146 137.871586 
L 317.085844 137.871586 
L 317.116485 138.464424 
L 317.174852 137.871586 
L 317.972395 137.871586 
L 318.00202 137.278749 
L 318.06353 137.871586 
L 319.392835 137.871586 
L 319.422003 138.464424 
L 319.482357 137.871586 
L 319.931922 137.871586 
L 320.029955 138.464424 
L 320.147696 137.871586 
L 320.205119 137.871586 
L 320.323815 138.464424 
L 320.682302 138.464424 
L 320.711088 137.871586 
L 320.769933 138.464424 
L 321.154079 138.464424 
L 321.185552 137.871586 
L 321.243304 138.464424 
L 322.60912 138.464424 
L 322.640906 139.057261 
L 322.697689 138.464424 
L 322.814266 138.464424 
L 322.844332 139.057261 
L 322.905089 138.464424 
L 323.108102 138.464424 
L 323.222106 139.057261 
L 323.345273 138.464424 
L 323.463777 139.057261 
L 323.492001 138.464424 
L 323.549095 139.057261 
L 323.607185 139.057261 
L 323.72217 138.464424 
L 323.751823 138.464424 
L 323.840723 139.057261 
L 323.870691 138.464424 
L 323.928867 139.057261 
L 324.017719 139.057261 
L 324.134432 138.464424 
L 324.251159 139.057261 
L 324.279495 138.464424 
L 324.340076 139.057261 
L 324.572914 139.057261 
L 324.603393 138.464424 
L 324.660825 139.057261 
L 326.760684 139.057261 
L 326.790279 139.650098 
L 326.848222 139.057261 
L 327.022781 139.057261 
L 327.051225 139.650098 
L 327.110699 139.057261 
L 327.19585 139.057261 
L 327.310507 139.650098 
L 327.338916 139.650098 
L 327.369559 139.057261 
L 327.429762 139.650098 
L 327.459042 139.650098 
L 327.51867 139.057261 
L 327.54687 139.650098 
L 327.577166 139.650098 
L 327.606372 139.057261 
L 327.667629 139.650098 
L 327.698164 139.650098 
L 327.813379 139.057261 
L 327.93041 139.650098 
L 328.713343 139.650098 
L 328.74209 140.242935 
L 328.800024 139.650098 
L 329.147743 139.650098 
L 329.239278 140.242935 
L 329.358791 139.650098 
L 329.418292 139.650098 
L 329.447088 140.242935 
L 329.479144 139.650098 
L 329.572657 140.242935 
L 329.661528 139.650098 
L 329.779853 140.242935 
L 329.846218 139.650098 
L 329.87586 140.242935 
L 330.003837 139.650098 
L 330.057125 139.650098 
L 330.087919 140.242935 
L 330.227453 139.650098 
L 331.804428 139.650098 
L 331.899366 139.057261 
L 332.015462 139.650098 
L 332.143288 139.057261 
L 332.199963 139.650098 
L 332.228211 139.057261 
L 333.03935 139.057261 
L 333.168782 138.464424 
L 333.288564 139.057261 
L 333.321638 139.057261 
L 333.471618 137.871586 
L 333.504362 137.871586 
L 333.534727 138.464424 
L 333.59415 137.871586 
L 333.799312 137.871586 
L 333.887805 137.278749 
L 333.916626 137.871586 
L 333.975521 137.278749 
L 334.096183 137.278749 
L 334.133475 136.685912 
L 334.190046 137.278749 
L 334.30888 137.278749 
L 334.401761 137.871586 
L 334.494535 137.278749 
L 334.60831 137.871586 
L 334.723452 137.278749 
L 334.751696 137.278749 
L 334.837144 136.685912 
L 334.893795 137.278749 
L 334.923077 136.685912 
L 334.951376 136.685912 
L 335.03633 137.278749 
L 335.150297 136.685912 
L 335.292798 136.685912 
L 335.321673 137.278749 
L 335.379674 136.685912 
L 335.444587 136.685912 
L 335.47289 137.278749 
L 335.53166 136.685912 
L 335.560036 136.685912 
L 335.67363 137.278749 
L 336.0832 137.278749 
L 336.196521 136.685912 
L 336.315763 137.278749 
L 336.498284 137.278749 
L 336.526718 136.685912 
L 336.583257 137.278749 
L 336.785973 137.278749 
L 336.901359 136.685912 
L 336.929707 136.685912 
L 336.958258 137.278749 
L 337.019295 136.685912 
L 337.047624 136.685912 
L 337.07772 137.278749 
L 337.134873 136.685912 
L 337.652736 136.685912 
L 337.757557 137.278749 
L 337.822498 136.685912 
L 338.68042 136.685912 
L 338.785253 136.093075 
L 339.115542 136.093075 
L 339.144278 136.685912 
L 339.191899 136.093075 
L 339.95259 136.093075 
L 340.054545 136.685912 
L 340.170759 136.093075 
L 340.469851 136.093075 
L 340.514461 136.685912 
L 340.547671 134.9074 
L 340.617706 136.093075 
L 340.722175 136.093075 
L 340.851912 134.9074 
L 341.498595 134.9074 
L 341.760397 133.721726 
L 341.894705 134.314563 
L 342.739485 134.314563 
L 342.776767 133.721726 
L 342.847396 134.314563 
L 342.999822 134.314563 
L 343.064106 133.721726 
L 343.096458 134.314563 
L 343.125706 134.314563 
L 343.192968 133.721726 
L 343.376101 133.721726 
L 343.404619 134.314563 
L 343.465537 133.721726 
L 343.560593 133.721726 
L 343.686299 133.128888 
L 343.779877 133.721726 
L 343.907933 133.128888 
L 344.016402 133.128888 
L 344.136647 133.721726 
L 344.300192 133.721726 
L 344.32971 134.314563 
L 344.362572 133.721726 
L 344.607325 133.721726 
L 344.765415 133.128888 
L 344.845004 133.721726 
L 345.04607 132.536051 
L 345.075438 133.128888 
L 345.263457 132.536051 
L 345.513921 131.943214 
L 345.654275 132.536051 
L 345.774243 131.943214 
L 345.83394 131.943214 
L 345.866767 132.536051 
L 346.182792 132.536051 
L 346.221541 133.128888 
L 346.270425 132.536051 
L 346.469449 132.536051 
L 346.587191 133.128888 
L 347.187283 133.128888 
L 347.247076 132.536051 
L 347.278024 133.128888 
L 347.313253 133.128888 
L 347.414785 132.536051 
L 347.507546 132.536051 
L 347.640605 133.128888 
L 347.768381 132.536051 
L 347.87415 132.536051 
L 348.010678 133.128888 
L 348.230379 133.128888 
L 348.276609 133.721726 
L 348.311428 133.128888 
L 348.374349 133.128888 
L 348.467656 133.721726 
L 348.585474 133.128888 
L 348.636116 133.721726 
L 348.665517 133.128888 
L 348.851399 133.721726 
L 348.918189 133.721726 
L 349.051365 134.314563 
L 349.137497 133.721726 
L 349.18707 134.9074 
L 349.25989 134.314563 
L 349.480117 134.314563 
L 349.605279 134.9074 
L 349.638697 134.9074 
L 349.672544 134.314563 
L 349.741057 134.9074 
L 350.022022 134.9074 
L 350.054912 136.093075 
L 350.087671 134.9074 
L 350.268427 136.093075 
L 350.709362 136.093075 
L 350.775364 136.685912 
L 350.803746 136.093075 
L 350.834052 136.093075 
L 350.971943 136.685912 
L 351.490384 136.685912 
L 351.612713 137.278749 
L 351.740561 136.685912 
L 351.799001 137.278749 
L 351.891937 136.685912 
L 351.989061 137.278749 
L 352.051185 136.685912 
L 352.089062 137.278749 
L 352.740648 137.278749 
L 352.830422 137.871586 
L 352.86076 137.278749 
L 352.918642 137.871586 
L 353.619497 137.871586 
L 353.705613 138.464424 
L 353.840548 137.871586 
L 354.107974 137.871586 
L 354.137596 138.464424 
L 354.194208 137.871586 
L 354.222481 137.871586 
L 354.250763 138.464424 
L 354.307726 137.871586 
L 354.341097 137.871586 
L 354.370496 138.464424 
L 354.42867 137.871586 
L 354.457981 137.871586 
L 354.546452 138.464424 
L 354.632339 137.871586 
L 354.749005 138.464424 
L 355.607045 138.464424 
L 355.721781 139.057261 
L 355.750083 138.464424 
L 355.806842 139.057261 
L 355.835105 139.057261 
L 355.949068 138.464424 
L 355.978294 138.464424 
L 356.093965 139.057261 
L 356.845145 139.057261 
L 356.873376 139.650098 
L 356.930182 139.057261 
L 356.958511 139.057261 
L 357.047621 139.650098 
L 357.076766 139.057261 
L 357.133334 139.650098 
L 357.359898 139.650098 
L 357.473893 140.242935 
L 357.560498 139.650098 
L 357.675905 140.242935 
L 357.846012 140.242935 
L 357.966678 140.835773 
L 358.084097 140.242935 
L 358.822836 140.242935 
L 358.852067 139.650098 
L 359.021809 140.242935 
L 359.250694 140.242935 
L 359.280077 140.835773 
L 359.463978 140.242935 
L 359.639965 140.242935 
L 359.669706 140.835773 
L 359.728628 140.242935 
L 360.568319 140.242935 
L 360.682441 140.835773 
L 360.76922 140.835773 
L 360.886269 140.242935 
L 360.973083 140.242935 
L 361.092129 140.835773 
L 362.622841 140.835773 
L 362.736601 142.021447 
L 362.764949 142.021447 
L 362.881118 140.835773 
L 362.968577 140.835773 
L 363.054483 142.021447 
L 363.167657 140.835773 
L 363.22411 140.835773 
L 363.339287 142.021447 
L 364.53312 142.021447 
L 364.563523 142.614284 
L 364.623419 142.021447 
L 364.651714 142.021447 
L 364.681914 142.614284 
L 364.740208 142.021447 
L 365.203567 142.021447 
L 365.260078 142.614284 
L 365.288608 142.021447 
L 365.519589 142.021447 
L 365.547975 142.614284 
L 365.605381 142.021447 
L 365.955387 142.021447 
L 365.983584 142.614284 
L 366.040299 142.021447 
L 366.18361 142.021447 
L 366.211982 142.614284 
L 366.268475 142.021447 
L 366.357159 142.021447 
L 366.442537 142.614284 
L 366.470773 142.021447 
L 366.53107 142.614284 
L 366.560821 142.614284 
L 366.675241 142.021447 
L 366.703989 142.021447 
L 366.820228 142.614284 
L 366.848752 142.021447 
L 366.905182 142.614284 
L 367.167729 142.614284 
L 367.196893 142.021447 
L 367.254291 142.614284 
L 367.745522 142.614284 
L 367.859978 143.207122 
L 367.889765 143.207122 
L 368.006201 142.614284 
L 368.742047 142.614284 
L 368.829388 143.207122 
L 368.948049 142.614284 
L 368.977678 142.614284 
L 369.005924 143.207122 
L 369.062784 142.614284 
L 369.091215 142.614284 
L 369.11948 143.207122 
L 369.176953 142.614284 
L 369.267276 142.614284 
L 369.295582 143.207122 
L 369.354647 142.614284 
L 371.000242 142.614284 
L 371.088003 142.021447 
L 371.207269 142.614284 
L 371.464984 142.614284 
L 371.581336 142.021447 
L 371.669957 142.614284 
L 371.78712 142.021447 
L 371.81602 142.021447 
L 371.874827 142.614284 
L 371.904023 142.021447 
L 371.989571 142.021447 
L 372.01785 142.614284 
L 372.078553 142.021447 
L 372.51942 142.021447 
L 372.636534 140.835773 
L 373.06421 140.835773 
L 373.093661 140.242935 
L 373.152748 140.835773 
L 373.26993 140.835773 
L 373.384943 140.242935 
L 373.678605 140.242935 
L 373.80125 139.650098 
L 373.864549 139.650098 
L 373.893804 140.242935 
L 373.951235 139.650098 
L 374.181093 139.650098 
L 374.301134 139.057261 
L 374.568866 139.057261 
L 374.690979 138.464424 
L 374.836159 138.464424 
L 374.958708 137.871586 
L 375.37604 137.871586 
L 375.404469 137.278749 
L 375.463783 137.871586 
L 375.597341 137.871586 
L 375.729603 137.278749 
L 375.917899 137.278749 
L 375.982836 136.685912 
L 376.01219 137.278749 
L 376.125687 137.871586 
L 376.243863 137.278749 
L 376.329408 137.278749 
L 376.357654 136.685912 
L 376.41989 137.278749 
L 376.481725 136.685912 
L 376.543347 137.871586 
L 376.639219 137.871586 
L 376.667426 138.464424 
L 376.70022 137.871586 
L 376.826385 137.871586 
L 376.95273 137.278749 
L 377.014515 137.278749 
L 377.042791 136.685912 
L 377.071029 137.871586 
L 377.158316 138.464424 
L 377.188912 137.871586 
L 377.25726 138.464424 
L 377.285578 138.464424 
L 377.374283 137.871586 
L 377.490111 138.464424 
L 377.610281 137.871586 
L 377.698107 137.871586 
L 377.825205 138.464424 
L 377.97074 138.464424 
L 378.087022 137.871586 
L 378.203548 137.871586 
L 378.234321 138.464424 
L 378.264062 137.278749 
L 378.301826 137.871586 
L 378.331981 137.871586 
L 378.423023 138.464424 
L 378.599352 136.685912 
L 378.63696 136.685912 
L 378.695057 130.164702 
L 378.7553 134.314563 
L 378.783931 133.721726 
L 378.813327 134.314563 
L 378.960276 137.278749 
L 379.017724 137.278749 
L 379.135984 137.871586 
L 379.226391 137.871586 
L 379.343248 138.464424 
L 379.372997 138.464424 
L 379.491271 137.871586 
L 379.966502 137.871586 
L 379.995819 138.464424 
L 380.053073 137.871586 
L 380.227983 137.871586 
L 380.259355 138.464424 
L 380.319755 137.871586 
L 380.40794 136.685912 
L 380.437856 137.278749 
L 380.553648 137.871586 
L 380.670542 137.278749 
L 380.756106 137.278749 
L 380.872993 136.685912 
L 380.993058 136.685912 
L 381.059864 136.093075 
L 381.205064 137.871586 
L 381.363383 136.685912 
L 381.392707 136.685912 
L 381.452551 134.314563 
L 381.482585 134.9074 
L 381.588663 136.093075 
L 381.948744 134.9074 
L 382.013263 136.093075 
L 382.116444 136.093075 
L 382.267581 129.571865 
L 382.364331 131.350376 
L 382.520657 134.314563 
L 382.559871 134.314563 
L 382.69223 134.9074 
L 382.779408 134.9074 
L 382.865063 134.314563 
L 383.100501 136.093075 
L 383.171972 134.9074 
L 383.205522 136.093075 
L 383.23761 136.093075 
L 383.384803 134.314563 
L 383.479395 136.093075 
L 383.566335 136.093075 
L 383.710126 137.278749 
L 383.744331 137.278749 
L 383.821241 136.093075 
L 383.855222 137.278749 
L 383.966046 137.871586 
L 384.110706 136.685912 
L 384.179804 137.871586 
L 384.209073 136.685912 
L 384.432965 134.314563 
L 384.473972 134.9074 
L 384.51374 134.314563 
L 384.54894 134.314563 
L 384.577302 133.721726 
L 384.615068 134.9074 
L 384.660729 134.9074 
L 384.757012 133.721726 
L 384.86956 136.093075 
L 385.03733 136.093075 
L 385.149527 134.9074 
L 385.300942 136.093075 
L 385.436308 134.9074 
L 385.469921 134.9074 
L 385.504091 136.093075 
L 385.563274 134.9074 
L 385.59301 134.9074 
L 385.717988 136.093075 
L 385.750379 136.093075 
L 385.810221 134.9074 
L 385.844916 136.093075 
L 386.004865 136.093075 
L 386.14512 136.685912 
L 386.75234 136.685912 
L 386.796618 136.093075 
L 386.853682 136.685912 
L 386.955434 136.685912 
L 387.035977 137.278749 
L 387.136866 136.685912 
L 387.316728 136.685912 
L 387.446191 137.278749 
L 387.640156 137.278749 
L 387.668951 137.871586 
L 387.745553 137.278749 
L 387.776803 137.278749 
L 387.865881 136.685912 
L 387.969224 137.278749 
L 388.152423 136.685912 
L 388.363789 136.685912 
L 388.496644 137.278749 
L 388.944645 137.278749 
L 389.071172 137.871586 
L 389.322098 137.871586 
L 389.360125 138.464424 
L 389.424557 137.871586 
L 389.491604 137.871586 
L 389.614259 138.464424 
L 389.646465 138.464424 
L 389.676852 137.871586 
L 389.73625 138.464424 
L 390.004608 138.464424 
L 390.097556 137.871586 
L 390.215832 138.464424 
L 390.246875 138.464424 
L 390.364588 137.871586 
L 390.393721 137.871586 
L 390.532213 138.464424 
L 391.50447 138.464424 
L 391.632243 137.871586 
L 392.32021 137.871586 
L 392.34852 138.464424 
L 392.408796 137.871586 
L 392.887283 137.871586 
L 393.005933 138.464424 
L 393.139565 138.464424 
L 393.167798 137.871586 
L 393.231615 138.464424 
L 393.392574 138.464424 
L 393.425037 137.871586 
L 393.607905 138.464424 
L 393.887394 138.464424 
L 393.91659 139.057261 
L 393.976019 138.464424 
L 394.377884 138.464424 
L 394.414941 137.871586 
L 394.444265 138.464424 
L 394.617083 137.871586 
L 394.735889 138.464424 
L 394.764168 138.464424 
L 394.883128 137.871586 
L 394.940351 137.871586 
L 395.039987 138.464424 
L 395.159187 137.871586 
L 395.192423 137.871586 
L 395.22071 138.464424 
L 395.287252 137.871586 
L 395.43387 137.871586 
L 395.525803 138.464424 
L 395.621964 137.871586 
L 395.740076 138.464424 
L 395.858493 137.871586 
L 395.975695 138.464424 
L 396.104005 138.464424 
L 396.136182 137.871586 
L 396.193603 138.464424 
L 396.311427 138.464424 
L 396.341068 137.871586 
L 396.398973 138.464424 
L 396.867445 138.464424 
L 396.984224 139.057261 
L 397.101007 138.464424 
L 397.21677 139.057261 
L 397.337235 138.464424 
L 397.394748 139.057261 
L 397.423311 138.464424 
L 397.481038 138.464424 
L 397.608333 139.057261 
L 397.639366 139.057261 
L 397.753733 138.464424 
L 397.870687 139.057261 
L 397.929331 139.057261 
L 397.957663 138.464424 
L 398.014236 139.057261 
L 398.948429 139.057261 
L 399.062145 139.650098 
L 399.148489 139.650098 
L 399.178968 139.057261 
L 399.235909 139.650098 
L 399.265064 139.650098 
L 399.294441 139.057261 
L 399.353204 139.650098 
L 400.947315 139.650098 
L 400.975654 140.242935 
L 401.033906 139.650098 
L 401.498646 139.650098 
L 401.558105 140.242935 
L 401.586577 139.650098 
L 401.99274 139.650098 
L 402.106447 140.242935 
L 402.193089 139.650098 
L 402.309002 140.242935 
L 402.368753 139.650098 
L 402.397042 140.242935 
L 402.455069 140.242935 
L 402.57388 139.650098 
L 402.691885 140.242935 
L 402.720985 139.650098 
L 402.779796 140.242935 
L 402.809309 140.242935 
L 402.837643 139.650098 
L 402.896078 140.242935 
L 403.020189 140.242935 
L 403.077341 139.650098 
L 403.105526 140.242935 
L 403.13497 140.242935 
L 403.220831 139.650098 
L 403.335471 140.242935 
L 405.018621 140.242935 
L 405.106366 140.835773 
L 405.220636 140.242935 
L 405.277225 140.242935 
L 405.391135 140.835773 
L 405.476222 140.835773 
L 405.589177 140.242935 
L 405.618661 140.242935 
L 405.731749 140.835773 
L 405.873756 140.835773 
L 405.98847 142.021447 
L 406.10293 140.835773 
L 406.84527 140.835773 
L 406.931528 142.021447 
L 406.959867 140.835773 
L 407.016389 142.021447 
L 407.906139 142.021447 
L 407.997439 140.835773 
L 408.056462 142.021447 
L 408.085653 140.835773 
L 408.114631 140.835773 
L 408.209406 142.021447 
L 408.295987 140.835773 
L 408.393629 142.021447 
L 408.520747 140.835773 
L 408.549819 142.021447 
L 408.609963 140.835773 
L 408.795471 140.835773 
L 408.827078 142.021447 
L 408.88722 140.835773 
L 408.976258 140.835773 
L 409.090805 142.021447 
L 409.147824 142.021447 
L 409.267418 140.835773 
L 409.354276 140.835773 
L 409.467744 142.021447 
L 409.528879 142.021447 
L 409.643512 140.835773 
L 409.98648 140.835773 
L 410.100963 140.242935 
L 410.396169 140.242935 
L 410.509318 139.650098 
L 410.595632 139.650098 
L 410.624242 140.242935 
L 410.681922 139.650098 
L 410.889268 139.650098 
L 410.921151 140.242935 
L 410.981469 139.650098 
L 411.101067 139.650098 
L 411.130508 139.057261 
L 411.188589 139.650098 
L 411.452767 139.650098 
L 411.481467 139.057261 
L 411.538096 139.650098 
L 411.626922 139.650098 
L 411.747998 139.057261 
L 411.92648 139.057261 
L 411.986392 138.464424 
L 412.014712 139.057261 
L 412.046541 139.057261 
L 412.163267 138.464424 
L 412.378103 138.464424 
L 412.494476 137.871586 
L 412.725292 137.871586 
L 412.840847 137.278749 
L 412.869134 137.278749 
L 412.982613 136.685912 
L 413.040347 136.685912 
L 413.129227 137.278749 
L 413.222353 136.685912 
L 413.43173 136.685912 
L 413.521978 134.314563 
L 413.572008 134.9074 
L 413.766251 133.128888 
L 413.83896 133.128888 
L 413.896748 132.536051 
L 413.925057 133.128888 
L 414.16378 133.128888 
L 414.282753 132.536051 
L 414.368669 133.128888 
L 414.398235 132.536051 
L 414.426569 133.128888 
L 414.455908 133.721726 
L 414.515916 133.128888 
L 414.578166 133.128888 
L 414.757481 128.979027 
L 414.818679 132.536051 
L 414.884901 131.350376 
L 414.942716 130.164702 
L 414.971125 133.128888 
L 415.030392 129.571865 
L 415.271291 132.536051 
L 415.417826 131.350376 
L 415.446147 131.943214 
L 415.477195 131.350376 
L 415.591911 130.164702 
L 415.720571 132.536051 
L 415.779585 132.536051 
L 415.841164 133.128888 
L 415.869442 131.943214 
L 415.899517 134.9074 
L 416.026789 134.314563 
L 416.143534 134.9074 
L 416.436164 134.9074 
L 416.587658 131.943214 
L 416.682929 134.314563 
L 416.712117 128.38619 
L 416.770934 131.943214 
L 416.888791 134.314563 
L 416.92828 134.9074 
L 416.986147 134.314563 
L 417.014584 133.721726 
L 417.043936 134.9074 
L 417.073583 134.9074 
L 417.192087 134.314563 
L 417.340134 134.314563 
L 417.369471 134.9074 
L 417.427255 134.314563 
L 417.455532 134.314563 
L 417.571383 134.9074 
L 417.716306 134.9074 
L 417.829773 134.314563 
L 417.887697 134.314563 
L 417.992279 134.9074 
L 418.117972 134.314563 
L 418.633558 134.314563 
L 418.761332 133.128888 
L 418.825013 133.721726 
L 418.864957 133.721726 
L 419.037357 132.536051 
L 419.067288 131.350376 
L 419.10567 133.128888 
L 419.137904 132.536051 
L 419.169677 132.536051 
L 419.209409 133.128888 
L 419.275957 132.536051 
L 419.398736 131.350376 
L 419.459002 131.943214 
L 419.55037 131.350376 
L 419.638616 133.128888 
L 419.844755 129.571865 
L 419.996483 133.721726 
L 420.026155 131.943214 
L 420.10666 133.721726 
L 420.173945 132.536051 
L 420.302936 123.643492 
L 420.573446 129.571865 
L 420.603347 129.571865 
L 420.648832 128.38619 
L 420.72744 131.943214 
L 420.767302 129.571865 
L 420.796842 131.350376 
L 420.833111 129.571865 
L 421.00208 129.571865 
L 421.226402 132.536051 
L 421.303477 128.38619 
L 421.390514 128.979027 
L 421.427023 128.38619 
L 421.593469 130.164702 
L 421.631704 129.571865 
L 421.764203 128.38619 
L 421.985129 131.350376 
L 422.118684 129.571865 
L 422.150787 131.350376 
L 422.183825 128.979027 
L 422.213174 129.571865 
L 422.358772 128.979027 
L 422.390918 127.200516 
L 422.427233 128.38619 
L 422.529786 128.38619 
L 422.771243 130.164702 
L 422.87129 131.350376 
L 422.999454 131.350376 
L 423.040704 129.571865 
L 423.078373 130.164702 
L 423.232887 130.164702 
L 423.297745 129.571865 
L 423.327128 130.164702 
L 423.471122 130.164702 
L 423.503181 129.571865 
L 423.697267 130.164702 
L 423.856769 129.571865 
L 423.964311 129.571865 
L 424.031452 130.164702 
L 424.062359 129.571865 
L 424.166903 130.164702 
L 424.198269 128.979027 
L 424.235557 131.350376 
L 424.278888 130.164702 
L 424.427425 129.571865 
L 424.544776 130.164702 
L 424.544776 130.164702 
" style="fill:none;stroke:#1f77b4;stroke-linecap:square;stroke-width:1.5;"/>
   </g>
   <g id="line2d_36">
    <path clip-path="url(#p3e9bf2f558)" d="M 62.749751 184.112893 
L 65.406946 184.112893 
L 65.524498 160.992239 
L 68.43623 160.992239 
L 68.550836 167.513449 
L 70.472918 167.513449 
L 70.587196 178.777357 
L 71.580452 178.777357 
L 71.694491 190.634102 
L 72.358307 190.634102 
L 145.262417 107.636886 
L 149.090987 107.636886 
L 149.207381 119.493631 
L 150.8401 119.493631 
L 150.956666 130.757539 
L 152.436029 130.757539 
L 152.550736 160.992239 
L 154.756188 160.992239 
L 154.871818 178.777357 
L 155.707807 178.777357 
L 269.894081 114.158096 
L 270.879474 114.158096 
L 270.995872 137.278749 
L 272.468139 137.278749 
L 272.586464 160.992239 
L 275.792989 160.992239 
L 275.908219 172.848985 
L 279.069901 172.848985 
L 279.185436 178.777357 
L 281.131353 178.777357 
L 281.246263 184.112893 
L 282.420454 184.112893 
L 282.540045 195.969638 
L 283.898043 195.969638 
L 284.011849 202.490848 
L 284.897757 202.490848 
L 285.021532 191.819777 
L 285.634556 191.819777 
L 285.750615 195.969638 
L 287.097663 195.969638 
L 287.156075 190.634102 
L 291.225212 190.634102 
L 291.376779 191.819777 
L 292.245662 191.819777 
L 292.373333 190.634102 
L 293.746489 190.634102 
L 293.864673 184.112893 
L 297.049996 184.112893 
L 297.166663 178.777357 
L 298.875911 178.777357 
L 298.992367 172.848985 
L 299.887834 172.848985 
L 300.005244 170.477636 
L 300.321392 170.477636 
L 300.44384 167.513449 
L 303.675655 167.513449 
L 303.791582 160.992239 
L 308.934892 160.992239 
L 309.051829 170.477636 
L 310.522457 170.477636 
L 310.650176 172.848985 
L 311.688975 172.848985 
L 311.808599 170.477636 
L 311.98417 170.477636 
L 312.107586 172.848985 
L 316.2721 172.848985 
L 316.388233 170.477636 
L 316.85146 170.477636 
L 316.967774 172.848985 
L 318.458939 172.848985 
L 318.573879 178.777357 
L 319.333934 178.777357 
L 319.422003 191.819777 
L 320.176742 191.819777 
L 320.294457 195.969638 
L 320.595182 195.969638 
L 320.711088 202.490848 
L 327.310507 202.490848 
L 327.429762 191.819777 
L 328.771747 191.819777 
L 328.886737 202.490848 
L 330.087919 202.490848 
L 330.227453 190.634102 
L 331.662374 190.634102 
L 331.804428 184.112893 
L 332.400883 184.112893 
L 332.514169 181.148706 
L 333.257046 181.148706 
L 333.380386 178.777357 
L 335.47289 178.777357 
L 335.58832 172.848985 
L 336.61161 172.848985 
L 336.725442 167.513449 
L 338.192695 167.513449 
L 338.327538 172.848985 
L 339.771736 172.848985 
L 339.95259 160.992239 
L 343.341049 160.992239 
L 343.465537 155.656704 
L 348.072525 155.656704 
L 348.230379 160.992239 
L 349.538977 160.992239 
L 349.672544 184.112893 
L 351.579406 184.112893 
L 351.710215 195.969638 
L 353.196905 195.969638 
L 353.318384 214.347593 
L 355.118826 214.347593 
L 355.260551 223.832989 
L 357.30319 223.832989 
L 357.416383 234.50406 
L 360.047503 234.50406 
L 360.163907 223.832989 
L 361.642485 223.832989 
L 361.757205 226.204338 
L 363.641861 226.204338 
L 363.75581 223.832989 
L 364.359438 223.832989 
L 364.475516 226.204338 
L 367.10926 226.204338 
L 367.225178 232.132711 
L 371.93238 232.132711 
L 372.048395 223.832989 
L 373.591983 223.832989 
L 373.713787 213.161918 
L 375.432786 213.161918 
L 375.569056 181.148706 
L 376.182603 181.148706 
L 376.301017 172.848985 
L 377.757024 172.848985 
L 377.883038 137.278749 
L 379.314684 137.278749 
L 379.432688 114.158096 
L 381.205064 114.158096 
L 381.333058 102.301351 
L 382.748802 102.301351 
L 382.865063 89.258931 
L 384.332096 89.258931 
L 384.432965 95.780141 
L 385.778695 95.780141 
L 385.90914 107.636886 
L 388.944645 107.636886 
L 389.071172 125.422004 
L 389.360125 125.422004 
L 389.491604 155.656704 
L 391.404234 155.656704 
L 391.54155 167.513449 
L 392.439613 167.513449 
L 392.56268 172.848985 
L 394.033857 172.848985 
L 394.169458 184.112893 
L 395.769433 184.112893 
L 395.88892 190.634102 
L 397.639366 190.634102 
L 397.753733 202.490848 
L 398.508007 202.490848 
L 398.626349 223.832989 
L 399.529684 223.832989 
L 399.646186 214.347593 
L 399.966637 214.347593 
L 400.08067 223.832989 
L 402.251106 223.832989 
L 402.368753 226.204338 
L 403.105526 226.204338 
L 403.220831 223.832989 
L 403.971427 223.832989 
L 404.086879 237.468246 
L 406.417883 237.468246 
L 406.53261 245.17513 
L 406.703561 245.17513 
L 406.816969 234.50406 
L 407.139027 234.50406 
L 407.252628 237.468246 
L 409.119201 237.468246 
L 409.239104 214.347593 
L 410.710279 214.347593 
L 410.830594 190.634102 
L 412.435849 190.634102 
L 412.551905 149.135494 
L 413.987131 149.135494 
L 414.107132 114.158096 
L 415.562644 114.158096 
L 415.690192 83.923396 
L 417.253828 83.923396 
L 417.369471 66.138278 
L 418.955995 66.138278 
L 419.10567 54.281533 
L 420.500307 54.281533 
L 420.648832 35.903578 
L 422.24411 35.903578 
L 422.427233 42.424787 
L 424.544776 42.424787 
L 424.544776 42.424787 
" style="fill:none;stroke:#ff7f0e;stroke-linecap:square;stroke-width:1.5;"/>
   </g>
   <g id="patch_3">
    <path d="M 44.66 255.638708 
L 44.66 25.44 
" style="fill:none;stroke:#000000;stroke-linecap:square;stroke-linejoin:miter;stroke-width:0.8;"/>
   </g>
   <g id="patch_4">
    <path d="M 442.634527 255.638708 
L 442.634527 25.44 
" style="fill:none;stroke:#000000;stroke-linecap:square;stroke-linejoin:miter;stroke-width:0.8;"/>
   </g>
   <g id="patch_5">
    <path d="M 44.66 255.638708 
L 442.634527 255.638708 
" style="fill:none;stroke:#000000;stroke-linecap:square;stroke-linejoin:miter;stroke-width:0.8;"/>
   </g>
   <g id="patch_6">
    <path d="M 44.66 25.44 
L 442.634527 25.44 
" style="fill:none;stroke:#000000;stroke-linecap:square;stroke-linejoin:miter;stroke-width:0.8;"/>
   </g>
   <g id="text_20">
    <!-- Lake Shoecraft - Water and Air Temperature -->
    <g transform="translate(112.028826 19.44)scale(0.12 -0.12)">
     <defs>
      <path d="M 9.8125 72.90625 
L 19.671875 72.90625 
L 19.671875 8.296875 
L 55.171875 8.296875 
L 55.171875 0 
L 9.8125 0 
z
" id="DejaVuSans-76"/>
      <path d="M 9.078125 75.984375 
L 18.109375 75.984375 
L 18.109375 31.109375 
L 44.921875 54.6875 
L 56.390625 54.6875 
L 27.390625 29.109375 
L 57.625 0 
L 45.90625 0 
L 18.109375 26.703125 
L 18.109375 0 
L 9.078125 0 
z
" id="DejaVuSans-107"/>
      <path d="M 53.515625 70.515625 
L 53.515625 60.890625 
Q 47.90625 63.578125 42.921875 64.890625 
Q 37.9375 66.21875 33.296875 66.21875 
Q 25.25 66.21875 20.875 63.09375 
Q 16.5 59.96875 16.5 54.203125 
Q 16.5 49.359375 19.40625 46.890625 
Q 22.3125 44.4375 30.421875 42.921875 
L 36.375 41.703125 
Q 47.40625 39.59375 52.65625 34.296875 
Q 57.90625 29 57.90625 20.125 
Q 57.90625 9.515625 50.796875 4.046875 
Q 43.703125 -1.421875 29.984375 -1.421875 
Q 24.8125 -1.421875 18.96875 -0.25 
Q 13.140625 0.921875 6.890625 3.21875 
L 6.890625 13.375 
Q 12.890625 10.015625 18.65625 8.296875 
Q 24.421875 6.59375 29.984375 6.59375 
Q 38.421875 6.59375 43.015625 9.90625 
Q 47.609375 13.234375 47.609375 19.390625 
Q 47.609375 24.75 44.3125 27.78125 
Q 41.015625 30.8125 33.5 32.328125 
L 27.484375 33.5 
Q 16.453125 35.6875 11.515625 40.375 
Q 6.59375 45.0625 6.59375 53.421875 
Q 6.59375 63.09375 13.40625 68.65625 
Q 20.21875 74.21875 32.171875 74.21875 
Q 37.3125 74.21875 42.625 73.28125 
Q 47.953125 72.359375 53.515625 70.515625 
z
" id="DejaVuSans-83"/>
      <path d="M 54.890625 33.015625 
L 54.890625 0 
L 45.90625 0 
L 45.90625 32.71875 
Q 45.90625 40.484375 42.875 44.328125 
Q 39.84375 48.1875 33.796875 48.1875 
Q 26.515625 48.1875 22.3125 43.546875 
Q 18.109375 38.921875 18.109375 30.90625 
L 18.109375 0 
L 9.078125 0 
L 9.078125 75.984375 
L 18.109375 75.984375 
L 18.109375 46.1875 
Q 21.34375 51.125 25.703125 53.5625 
Q 30.078125 56 35.796875 56 
Q 45.21875 56 50.046875 50.171875 
Q 54.890625 44.34375 54.890625 33.015625 
z
" id="DejaVuSans-104"/>
      <path d="M 30.609375 48.390625 
Q 23.390625 48.390625 19.1875 42.75 
Q 14.984375 37.109375 14.984375 27.296875 
Q 14.984375 17.484375 19.15625 11.84375 
Q 23.34375 6.203125 30.609375 6.203125 
Q 37.796875 6.203125 41.984375 11.859375 
Q 46.1875 17.53125 46.1875 27.296875 
Q 46.1875 37.015625 41.984375 42.703125 
Q 37.796875 48.390625 30.609375 48.390625 
z
M 30.609375 56 
Q 42.328125 56 49.015625 48.375 
Q 55.71875 40.765625 55.71875 27.296875 
Q 55.71875 13.875 49.015625 6.21875 
Q 42.328125 -1.421875 30.609375 -1.421875 
Q 18.84375 -1.421875 12.171875 6.21875 
Q 5.515625 13.875 5.515625 27.296875 
Q 5.515625 40.765625 12.171875 48.375 
Q 18.84375 56 30.609375 56 
z
" id="DejaVuSans-111"/>
      <path d="M 48.78125 52.59375 
L 48.78125 44.1875 
Q 44.96875 46.296875 41.140625 47.34375 
Q 37.3125 48.390625 33.40625 48.390625 
Q 24.65625 48.390625 19.8125 42.84375 
Q 14.984375 37.3125 14.984375 27.296875 
Q 14.984375 17.28125 19.8125 11.734375 
Q 24.65625 6.203125 33.40625 6.203125 
Q 37.3125 6.203125 41.140625 7.25 
Q 44.96875 8.296875 48.78125 10.40625 
L 48.78125 2.09375 
Q 45.015625 0.34375 40.984375 -0.53125 
Q 36.96875 -1.421875 32.421875 -1.421875 
Q 20.0625 -1.421875 12.78125 6.34375 
Q 5.515625 14.109375 5.515625 27.296875 
Q 5.515625 40.671875 12.859375 48.328125 
Q 20.21875 56 33.015625 56 
Q 37.15625 56 41.109375 55.140625 
Q 45.0625 54.296875 48.78125 52.59375 
z
" id="DejaVuSans-99"/>
      <path d="M 37.109375 75.984375 
L 37.109375 68.5 
L 28.515625 68.5 
Q 23.6875 68.5 21.796875 66.546875 
Q 19.921875 64.59375 19.921875 59.515625 
L 19.921875 54.6875 
L 34.71875 54.6875 
L 34.71875 47.703125 
L 19.921875 47.703125 
L 19.921875 0 
L 10.890625 0 
L 10.890625 47.703125 
L 2.296875 47.703125 
L 2.296875 54.6875 
L 10.890625 54.6875 
L 10.890625 58.5 
Q 10.890625 67.625 15.140625 71.796875 
Q 19.390625 75.984375 28.609375 75.984375 
z
" id="DejaVuSans-102"/>
      <path d="M 3.328125 72.90625 
L 13.28125 72.90625 
L 28.609375 11.28125 
L 43.890625 72.90625 
L 54.984375 72.90625 
L 70.3125 11.28125 
L 85.59375 72.90625 
L 95.609375 72.90625 
L 77.296875 0 
L 64.890625 0 
L 49.515625 63.28125 
L 33.984375 0 
L 21.578125 0 
z
" id="DejaVuSans-87"/>
      <path d="M 54.890625 33.015625 
L 54.890625 0 
L 45.90625 0 
L 45.90625 32.71875 
Q 45.90625 40.484375 42.875 44.328125 
Q 39.84375 48.1875 33.796875 48.1875 
Q 26.515625 48.1875 22.3125 43.546875 
Q 18.109375 38.921875 18.109375 30.90625 
L 18.109375 0 
L 9.078125 0 
L 9.078125 54.6875 
L 18.109375 54.6875 
L 18.109375 46.1875 
Q 21.34375 51.125 25.703125 53.5625 
Q 30.078125 56 35.796875 56 
Q 45.21875 56 50.046875 50.171875 
Q 54.890625 44.34375 54.890625 33.015625 
z
" id="DejaVuSans-110"/>
      <path d="M 45.40625 46.390625 
L 45.40625 75.984375 
L 54.390625 75.984375 
L 54.390625 0 
L 45.40625 0 
L 45.40625 8.203125 
Q 42.578125 3.328125 38.25 0.953125 
Q 33.9375 -1.421875 27.875 -1.421875 
Q 17.96875 -1.421875 11.734375 6.484375 
Q 5.515625 14.40625 5.515625 27.296875 
Q 5.515625 40.1875 11.734375 48.09375 
Q 17.96875 56 27.875 56 
Q 33.9375 56 38.25 53.625 
Q 42.578125 51.265625 45.40625 46.390625 
z
M 14.796875 27.296875 
Q 14.796875 17.390625 18.875 11.75 
Q 22.953125 6.109375 30.078125 6.109375 
Q 37.203125 6.109375 41.296875 11.75 
Q 45.40625 17.390625 45.40625 27.296875 
Q 45.40625 37.203125 41.296875 42.84375 
Q 37.203125 48.484375 30.078125 48.484375 
Q 22.953125 48.484375 18.875 42.84375 
Q 14.796875 37.203125 14.796875 27.296875 
z
" id="DejaVuSans-100"/>
      <path d="M 34.1875 63.1875 
L 20.796875 26.90625 
L 47.609375 26.90625 
z
M 28.609375 72.90625 
L 39.796875 72.90625 
L 67.578125 0 
L 57.328125 0 
L 50.6875 18.703125 
L 17.828125 18.703125 
L 11.1875 0 
L 0.78125 0 
z
" id="DejaVuSans-65"/>
      <path d="M 9.421875 54.6875 
L 18.40625 54.6875 
L 18.40625 0 
L 9.421875 0 
z
M 9.421875 75.984375 
L 18.40625 75.984375 
L 18.40625 64.59375 
L 9.421875 64.59375 
z
" id="DejaVuSans-105"/>
     </defs>
     <use xlink:href="#DejaVuSans-76"/>
     <use x="55.712891" xlink:href="#DejaVuSans-97"/>
     <use x="116.992188" xlink:href="#DejaVuSans-107"/>
     <use x="171.277344" xlink:href="#DejaVuSans-101"/>
     <use x="232.800781" xlink:href="#DejaVuSans-32"/>
     <use x="264.587891" xlink:href="#DejaVuSans-83"/>
     <use x="328.064453" xlink:href="#DejaVuSans-104"/>
     <use x="391.443359" xlink:href="#DejaVuSans-111"/>
     <use x="452.625" xlink:href="#DejaVuSans-101"/>
     <use x="514.148438" xlink:href="#DejaVuSans-99"/>
     <use x="569.128906" xlink:href="#DejaVuSans-114"/>
     <use x="610.242188" xlink:href="#DejaVuSans-97"/>
     <use x="671.521484" xlink:href="#DejaVuSans-102"/>
     <use x="704.976562" xlink:href="#DejaVuSans-116"/>
     <use x="744.185547" xlink:href="#DejaVuSans-32"/>
     <use x="775.972656" xlink:href="#DejaVuSans-45"/>
     <use x="812.056641" xlink:href="#DejaVuSans-32"/>
     <use x="843.84375" xlink:href="#DejaVuSans-87"/>
     <use x="936.345703" xlink:href="#DejaVuSans-97"/>
     <use x="997.625" xlink:href="#DejaVuSans-116"/>
     <use x="1036.833984" xlink:href="#DejaVuSans-101"/>
     <use x="1098.357422" xlink:href="#DejaVuSans-114"/>
     <use x="1139.470703" xlink:href="#DejaVuSans-32"/>
     <use x="1171.257812" xlink:href="#DejaVuSans-97"/>
     <use x="1232.537109" xlink:href="#DejaVuSans-110"/>
     <use x="1295.916016" xlink:href="#DejaVuSans-100"/>
     <use x="1359.392578" xlink:href="#DejaVuSans-32"/>
     <use x="1391.179688" xlink:href="#DejaVuSans-65"/>
     <use x="1459.587891" xlink:href="#DejaVuSans-105"/>
     <use x="1487.371094" xlink:href="#DejaVuSans-114"/>
     <use x="1528.484375" xlink:href="#DejaVuSans-32"/>
     <use x="1560.271484" xlink:href="#DejaVuSans-84"/>
     <use x="1604.355469" xlink:href="#DejaVuSans-101"/>
     <use x="1665.878906" xlink:href="#DejaVuSans-109"/>
     <use x="1763.291016" xlink:href="#DejaVuSans-112"/>
     <use x="1826.767578" xlink:href="#DejaVuSans-101"/>
     <use x="1888.291016" xlink:href="#DejaVuSans-114"/>
     <use x="1929.404297" xlink:href="#DejaVuSans-97"/>
     <use x="1990.683594" xlink:href="#DejaVuSans-116"/>
     <use x="2029.892578" xlink:href="#DejaVuSans-117"/>
     <use x="2093.271484" xlink:href="#DejaVuSans-114"/>
     <use x="2132.134766" xlink:href="#DejaVuSans-101"/>
    </g>
   </g>
   <g id="legend_1">
    <g id="patch_7">
     <path d="M 51.66 62.79625 
L 136.769375 62.79625 
Q 138.769375 62.79625 138.769375 60.79625 
L 138.769375 32.44 
Q 138.769375 30.44 136.769375 30.44 
L 51.66 30.44 
Q 49.66 30.44 49.66 32.44 
L 49.66 60.79625 
Q 49.66 62.79625 51.66 62.79625 
z
" style="fill:#ffffff;opacity:0.8;stroke:#cccccc;stroke-linejoin:miter;"/>
    </g>
    <g id="line2d_37">
     <path d="M 53.66 38.538437 
L 73.66 38.538437 
" style="fill:none;stroke:#1f77b4;stroke-linecap:square;stroke-width:1.5;"/>
    </g>
    <g id="line2d_38"/>
    <g id="text_21">
     <!-- Lake Temp -->
     <g transform="translate(81.66 42.038437)scale(0.1 -0.1)">
      <use xlink:href="#DejaVuSans-76"/>
      <use x="55.712891" xlink:href="#DejaVuSans-97"/>
      <use x="116.992188" xlink:href="#DejaVuSans-107"/>
      <use x="171.277344" xlink:href="#DejaVuSans-101"/>
      <use x="232.800781" xlink:href="#DejaVuSans-32"/>
      <use x="264.587891" xlink:href="#DejaVuSans-84"/>
      <use x="308.671875" xlink:href="#DejaVuSans-101"/>
      <use x="370.195312" xlink:href="#DejaVuSans-109"/>
      <use x="467.607422" xlink:href="#DejaVuSans-112"/>
     </g>
    </g>
    <g id="line2d_39">
     <path d="M 53.66 53.216562 
L 73.66 53.216562 
" style="fill:none;stroke:#ff7f0e;stroke-linecap:square;stroke-width:1.5;"/>
    </g>
    <g id="line2d_40"/>
    <g id="text_22">
     <!-- Air Temp -->
     <g transform="translate(81.66 56.716562)scale(0.1 -0.1)">
      <use xlink:href="#DejaVuSans-65"/>
      <use x="68.408203" xlink:href="#DejaVuSans-105"/>
      <use x="96.191406" xlink:href="#DejaVuSans-114"/>
      <use x="137.304688" xlink:href="#DejaVuSans-32"/>
      <use x="169.091797" xlink:href="#DejaVuSans-84"/>
      <use x="213.175781" xlink:href="#DejaVuSans-101"/>
      <use x="274.699219" xlink:href="#DejaVuSans-109"/>
      <use x="372.111328" xlink:href="#DejaVuSans-112"/>
     </g>
    </g>
   </g>
  </g>
 </g>
 <defs>
  <clipPath id="p3e9bf2f558">
   <rect height="230.198708" width="397.974527" x="44.66" y="25.44"/>
  </clipPath>
 </defs>
</svg>
