<?xml version="1.0" encoding="utf-8" standalone="no"?>
<!DOCTYPE svg PUBLIC "-//W3C//DTD SVG 1.1//EN"
  "http://www.w3.org/Graphics/SVG/1.1/DTD/svg11.dtd">
<!-- Created with matplotlib (https://matplotlib.org/) -->
<svg height="345.6pt" version="1.1" viewBox="0 0 460.8 345.6" width="460.8pt" xmlns="http://www.w3.org/2000/svg" xmlns:xlink="http://www.w3.org/1999/xlink">
 <metadata>
  <rdf:RDF xmlns:cc="http://creativecommons.org/ns#" xmlns:dc="http://purl.org/dc/elements/1.1/" xmlns:rdf="http://www.w3.org/1999/02/22-rdf-syntax-ns#">
   <cc:Work>
    <dc:type rdf:resource="http://purl.org/dc/dcmitype/StillImage"/>
    <dc:date>2024-09-06T22:58:10.130127</dc:date>
    <dc:format>image/svg+xml</dc:format>
    <dc:creator>
     <cc:Agent>
      <dc:title>Matplotlib v3.3.2, https://matplotlib.org/</dc:title>
     </cc:Agent>
    </dc:creator>
   </cc:Work>
  </rdf:RDF>
 </metadata>
 <defs>
  <style type="text/css">*{stroke-linecap:butt;stroke-linejoin:round;}</style>
 </defs>
 <g id="figure_1">
  <g id="patch_1">
   <path d="M 0 345.6 
L 460.8 345.6 
L 460.8 0 
L 0 0 
z
" style="fill:none;"/>
  </g>
  <g id="axes_1">
   <g id="patch_2">
    <path d="M 44.66 255.638708 
L 450 255.638708 
L 450 25.44 
L 44.66 25.44 
z
" style="fill:none;"/>
   </g>
   <g id="matplotlib.axis_1">
    <g id="xtick_1">
     <g id="line2d_1">
      <path clip-path="url(#p42e5b41f0f)" d="M 113.604807 255.638708 
L 113.604807 25.44 
" style="fill:none;stroke:#b0b0b0;stroke-linecap:square;stroke-width:0.8;"/>
     </g>
     <g id="line2d_2">
      <defs>
       <path d="M 0 0 
L 0 3.5 
" id="m8b077f4577" style="stroke:#000000;stroke-width:0.8;"/>
      </defs>
      <g>
       <use style="stroke:#000000;stroke-width:0.8;" x="113.604807" xlink:href="#m8b077f4577" y="255.638708"/>
      </g>
     </g>
     <g id="text_1">
      <!-- 2024-08-29 -->
      <g transform="translate(106.259414 319.848351)rotate(-70)scale(0.1 -0.1)">
       <defs>
        <path d="M 19.1875 8.296875 
L 53.609375 8.296875 
L 53.609375 0 
L 7.328125 0 
L 7.328125 8.296875 
Q 12.9375 14.109375 22.625 23.890625 
Q 32.328125 33.6875 34.8125 36.53125 
Q 39.546875 41.84375 41.421875 45.53125 
Q 43.3125 49.21875 43.3125 52.78125 
Q 43.3125 58.59375 39.234375 62.25 
Q 35.15625 65.921875 28.609375 65.921875 
Q 23.96875 65.921875 18.8125 64.3125 
Q 13.671875 62.703125 7.8125 59.421875 
L 7.8125 69.390625 
Q 13.765625 71.78125 18.9375 73 
Q 24.125 74.21875 28.421875 74.21875 
Q 39.75 74.21875 46.484375 68.546875 
Q 53.21875 62.890625 53.21875 53.421875 
Q 53.21875 48.921875 51.53125 44.890625 
Q 49.859375 40.875 45.40625 35.40625 
Q 44.1875 33.984375 37.640625 27.21875 
Q 31.109375 20.453125 19.1875 8.296875 
z
" id="DejaVuSans-50"/>
        <path d="M 31.78125 66.40625 
Q 24.171875 66.40625 20.328125 58.90625 
Q 16.5 51.421875 16.5 36.375 
Q 16.5 21.390625 20.328125 13.890625 
Q 24.171875 6.390625 31.78125 6.390625 
Q 39.453125 6.390625 43.28125 13.890625 
Q 47.125 21.390625 47.125 36.375 
Q 47.125 51.421875 43.28125 58.90625 
Q 39.453125 66.40625 31.78125 66.40625 
z
M 31.78125 74.21875 
Q 44.046875 74.21875 50.515625 64.515625 
Q 56.984375 54.828125 56.984375 36.375 
Q 56.984375 17.96875 50.515625 8.265625 
Q 44.046875 -1.421875 31.78125 -1.421875 
Q 19.53125 -1.421875 13.0625 8.265625 
Q 6.59375 17.96875 6.59375 36.375 
Q 6.59375 54.828125 13.0625 64.515625 
Q 19.53125 74.21875 31.78125 74.21875 
z
" id="DejaVuSans-48"/>
        <path d="M 37.796875 64.3125 
L 12.890625 25.390625 
L 37.796875 25.390625 
z
M 35.203125 72.90625 
L 47.609375 72.90625 
L 47.609375 25.390625 
L 58.015625 25.390625 
L 58.015625 17.1875 
L 47.609375 17.1875 
L 47.609375 0 
L 37.796875 0 
L 37.796875 17.1875 
L 4.890625 17.1875 
L 4.890625 26.703125 
z
" id="DejaVuSans-52"/>
        <path d="M 4.890625 31.390625 
L 31.203125 31.390625 
L 31.203125 23.390625 
L 4.890625 23.390625 
z
" id="DejaVuSans-45"/>
        <path d="M 31.78125 34.625 
Q 24.75 34.625 20.71875 30.859375 
Q 16.703125 27.09375 16.703125 20.515625 
Q 16.703125 13.921875 20.71875 10.15625 
Q 24.75 6.390625 31.78125 6.390625 
Q 38.8125 6.390625 42.859375 10.171875 
Q 46.921875 13.96875 46.921875 20.515625 
Q 46.921875 27.09375 42.890625 30.859375 
Q 38.875 34.625 31.78125 34.625 
z
M 21.921875 38.8125 
Q 15.578125 40.375 12.03125 44.71875 
Q 8.5 49.078125 8.5 55.328125 
Q 8.5 64.0625 14.71875 69.140625 
Q 20.953125 74.21875 31.78125 74.21875 
Q 42.671875 74.21875 48.875 69.140625 
Q 55.078125 64.0625 55.078125 55.328125 
Q 55.078125 49.078125 51.53125 44.71875 
Q 48 40.375 41.703125 38.8125 
Q 48.828125 37.15625 52.796875 32.3125 
Q 56.78125 27.484375 56.78125 20.515625 
Q 56.78125 9.90625 50.3125 4.234375 
Q 43.84375 -1.421875 31.78125 -1.421875 
Q 19.734375 -1.421875 13.25 4.234375 
Q 6.78125 9.90625 6.78125 20.515625 
Q 6.78125 27.484375 10.78125 32.3125 
Q 14.796875 37.15625 21.921875 38.8125 
z
M 18.3125 54.390625 
Q 18.3125 48.734375 21.84375 45.5625 
Q 25.390625 42.390625 31.78125 42.390625 
Q 38.140625 42.390625 41.71875 45.5625 
Q 45.3125 48.734375 45.3125 54.390625 
Q 45.3125 60.0625 41.71875 63.234375 
Q 38.140625 66.40625 31.78125 66.40625 
Q 25.390625 66.40625 21.84375 63.234375 
Q 18.3125 60.0625 18.3125 54.390625 
z
" id="DejaVuSans-56"/>
        <path d="M 10.984375 1.515625 
L 10.984375 10.5 
Q 14.703125 8.734375 18.5 7.8125 
Q 22.3125 6.890625 25.984375 6.890625 
Q 35.75 6.890625 40.890625 13.453125 
Q 46.046875 20.015625 46.78125 33.40625 
Q 43.953125 29.203125 39.59375 26.953125 
Q 35.25 24.703125 29.984375 24.703125 
Q 19.046875 24.703125 12.671875 31.3125 
Q 6.296875 37.9375 6.296875 49.421875 
Q 6.296875 60.640625 12.9375 67.421875 
Q 19.578125 74.21875 30.609375 74.21875 
Q 43.265625 74.21875 49.921875 64.515625 
Q 56.59375 54.828125 56.59375 36.375 
Q 56.59375 19.140625 48.40625 8.859375 
Q 40.234375 -1.421875 26.421875 -1.421875 
Q 22.703125 -1.421875 18.890625 -0.6875 
Q 15.09375 0.046875 10.984375 1.515625 
z
M 30.609375 32.421875 
Q 37.25 32.421875 41.125 36.953125 
Q 45.015625 41.5 45.015625 49.421875 
Q 45.015625 57.28125 41.125 61.84375 
Q 37.25 66.40625 30.609375 66.40625 
Q 23.96875 66.40625 20.09375 61.84375 
Q 16.21875 57.28125 16.21875 49.421875 
Q 16.21875 41.5 20.09375 36.953125 
Q 23.96875 32.421875 30.609375 32.421875 
z
" id="DejaVuSans-57"/>
       </defs>
       <use xlink:href="#DejaVuSans-50"/>
       <use x="63.623047" xlink:href="#DejaVuSans-48"/>
       <use x="127.246094" xlink:href="#DejaVuSans-50"/>
       <use x="190.869141" xlink:href="#DejaVuSans-52"/>
       <use x="254.492188" xlink:href="#DejaVuSans-45"/>
       <use x="290.576172" xlink:href="#DejaVuSans-48"/>
       <use x="354.199219" xlink:href="#DejaVuSans-56"/>
       <use x="417.822266" xlink:href="#DejaVuSans-45"/>
       <use x="453.90625" xlink:href="#DejaVuSans-50"/>
       <use x="517.529297" xlink:href="#DejaVuSans-57"/>
      </g>
     </g>
    </g>
    <g id="xtick_2">
     <g id="line2d_3">
      <path clip-path="url(#p42e5b41f0f)" d="M 184.606555 255.638708 
L 184.606555 25.44 
" style="fill:none;stroke:#b0b0b0;stroke-linecap:square;stroke-width:0.8;"/>
     </g>
     <g id="line2d_4">
      <g>
       <use style="stroke:#000000;stroke-width:0.8;" x="184.606555" xlink:href="#m8b077f4577" y="255.638708"/>
      </g>
     </g>
     <g id="text_2">
      <!-- 2024-08-31 -->
      <g transform="translate(177.261162 319.848351)rotate(-70)scale(0.1 -0.1)">
       <defs>
        <path d="M 40.578125 39.3125 
Q 47.65625 37.796875 51.625 33 
Q 55.609375 28.21875 55.609375 21.1875 
Q 55.609375 10.40625 48.1875 4.484375 
Q 40.765625 -1.421875 27.09375 -1.421875 
Q 22.515625 -1.421875 17.65625 -0.515625 
Q 12.796875 0.390625 7.625 2.203125 
L 7.625 11.71875 
Q 11.71875 9.328125 16.59375 8.109375 
Q 21.484375 6.890625 26.8125 6.890625 
Q 36.078125 6.890625 40.9375 10.546875 
Q 45.796875 14.203125 45.796875 21.1875 
Q 45.796875 27.640625 41.28125 31.265625 
Q 36.765625 34.90625 28.71875 34.90625 
L 20.21875 34.90625 
L 20.21875 43.015625 
L 29.109375 43.015625 
Q 36.375 43.015625 40.234375 45.921875 
Q 44.09375 48.828125 44.09375 54.296875 
Q 44.09375 59.90625 40.109375 62.90625 
Q 36.140625 65.921875 28.71875 65.921875 
Q 24.65625 65.921875 20.015625 65.03125 
Q 15.375 64.15625 9.8125 62.3125 
L 9.8125 71.09375 
Q 15.4375 72.65625 20.34375 73.4375 
Q 25.25 74.21875 29.59375 74.21875 
Q 40.828125 74.21875 47.359375 69.109375 
Q 53.90625 64.015625 53.90625 55.328125 
Q 53.90625 49.265625 50.4375 45.09375 
Q 46.96875 40.921875 40.578125 39.3125 
z
" id="DejaVuSans-51"/>
        <path d="M 12.40625 8.296875 
L 28.515625 8.296875 
L 28.515625 63.921875 
L 10.984375 60.40625 
L 10.984375 69.390625 
L 28.421875 72.90625 
L 38.28125 72.90625 
L 38.28125 8.296875 
L 54.390625 8.296875 
L 54.390625 0 
L 12.40625 0 
z
" id="DejaVuSans-49"/>
       </defs>
       <use xlink:href="#DejaVuSans-50"/>
       <use x="63.623047" xlink:href="#DejaVuSans-48"/>
       <use x="127.246094" xlink:href="#DejaVuSans-50"/>
       <use x="190.869141" xlink:href="#DejaVuSans-52"/>
       <use x="254.492188" xlink:href="#DejaVuSans-45"/>
       <use x="290.576172" xlink:href="#DejaVuSans-48"/>
       <use x="354.199219" xlink:href="#DejaVuSans-56"/>
       <use x="417.822266" xlink:href="#DejaVuSans-45"/>
       <use x="453.90625" xlink:href="#DejaVuSans-51"/>
       <use x="517.529297" xlink:href="#DejaVuSans-49"/>
      </g>
     </g>
    </g>
    <g id="xtick_3">
     <g id="line2d_5">
      <path clip-path="url(#p42e5b41f0f)" d="M 220.107429 255.638708 
L 220.107429 25.44 
" style="fill:none;stroke:#b0b0b0;stroke-linecap:square;stroke-width:0.8;"/>
     </g>
     <g id="line2d_6">
      <g>
       <use style="stroke:#000000;stroke-width:0.8;" x="220.107429" xlink:href="#m8b077f4577" y="255.638708"/>
      </g>
     </g>
     <g id="text_3">
      <!-- 2024-09-01 -->
      <g transform="translate(212.762036 319.848351)rotate(-70)scale(0.1 -0.1)">
       <use xlink:href="#DejaVuSans-50"/>
       <use x="63.623047" xlink:href="#DejaVuSans-48"/>
       <use x="127.246094" xlink:href="#DejaVuSans-50"/>
       <use x="190.869141" xlink:href="#DejaVuSans-52"/>
       <use x="254.492188" xlink:href="#DejaVuSans-45"/>
       <use x="290.576172" xlink:href="#DejaVuSans-48"/>
       <use x="354.199219" xlink:href="#DejaVuSans-57"/>
       <use x="417.822266" xlink:href="#DejaVuSans-45"/>
       <use x="453.90625" xlink:href="#DejaVuSans-48"/>
       <use x="517.529297" xlink:href="#DejaVuSans-49"/>
      </g>
     </g>
    </g>
    <g id="xtick_4">
     <g id="line2d_7">
      <path clip-path="url(#p42e5b41f0f)" d="M 291.109177 255.638708 
L 291.109177 25.44 
" style="fill:none;stroke:#b0b0b0;stroke-linecap:square;stroke-width:0.8;"/>
     </g>
     <g id="line2d_8">
      <g>
       <use style="stroke:#000000;stroke-width:0.8;" x="291.109177" xlink:href="#m8b077f4577" y="255.638708"/>
      </g>
     </g>
     <g id="text_4">
      <!-- 2024-09-03 -->
      <g transform="translate(283.763784 319.848351)rotate(-70)scale(0.1 -0.1)">
       <use xlink:href="#DejaVuSans-50"/>
       <use x="63.623047" xlink:href="#DejaVuSans-48"/>
       <use x="127.246094" xlink:href="#DejaVuSans-50"/>
       <use x="190.869141" xlink:href="#DejaVuSans-52"/>
       <use x="254.492188" xlink:href="#DejaVuSans-45"/>
       <use x="290.576172" xlink:href="#DejaVuSans-48"/>
       <use x="354.199219" xlink:href="#DejaVuSans-57"/>
       <use x="417.822266" xlink:href="#DejaVuSans-45"/>
       <use x="453.90625" xlink:href="#DejaVuSans-48"/>
       <use x="517.529297" xlink:href="#DejaVuSans-51"/>
      </g>
     </g>
    </g>
    <g id="xtick_5">
     <g id="line2d_9">
      <path clip-path="url(#p42e5b41f0f)" d="M 362.110924 255.638708 
L 362.110924 25.44 
" style="fill:none;stroke:#b0b0b0;stroke-linecap:square;stroke-width:0.8;"/>
     </g>
     <g id="line2d_10">
      <g>
       <use style="stroke:#000000;stroke-width:0.8;" x="362.110924" xlink:href="#m8b077f4577" y="255.638708"/>
      </g>
     </g>
     <g id="text_5">
      <!-- 2024-09-05 -->
      <g transform="translate(354.765532 319.848351)rotate(-70)scale(0.1 -0.1)">
       <defs>
        <path d="M 10.796875 72.90625 
L 49.515625 72.90625 
L 49.515625 64.59375 
L 19.828125 64.59375 
L 19.828125 46.734375 
Q 21.96875 47.46875 24.109375 47.828125 
Q 26.265625 48.1875 28.421875 48.1875 
Q 40.625 48.1875 47.75 41.5 
Q 54.890625 34.8125 54.890625 23.390625 
Q 54.890625 11.625 47.5625 5.09375 
Q 40.234375 -1.421875 26.90625 -1.421875 
Q 22.3125 -1.421875 17.546875 -0.640625 
Q 12.796875 0.140625 7.71875 1.703125 
L 7.71875 11.625 
Q 12.109375 9.234375 16.796875 8.0625 
Q 21.484375 6.890625 26.703125 6.890625 
Q 35.15625 6.890625 40.078125 11.328125 
Q 45.015625 15.765625 45.015625 23.390625 
Q 45.015625 31 40.078125 35.4375 
Q 35.15625 39.890625 26.703125 39.890625 
Q 22.75 39.890625 18.8125 39.015625 
Q 14.890625 38.140625 10.796875 36.28125 
z
" id="DejaVuSans-53"/>
       </defs>
       <use xlink:href="#DejaVuSans-50"/>
       <use x="63.623047" xlink:href="#DejaVuSans-48"/>
       <use x="127.246094" xlink:href="#DejaVuSans-50"/>
       <use x="190.869141" xlink:href="#DejaVuSans-52"/>
       <use x="254.492188" xlink:href="#DejaVuSans-45"/>
       <use x="290.576172" xlink:href="#DejaVuSans-48"/>
       <use x="354.199219" xlink:href="#DejaVuSans-57"/>
       <use x="417.822266" xlink:href="#DejaVuSans-45"/>
       <use x="453.90625" xlink:href="#DejaVuSans-48"/>
       <use x="517.529297" xlink:href="#DejaVuSans-53"/>
      </g>
     </g>
    </g>
    <g id="xtick_6">
     <g id="line2d_11">
      <path clip-path="url(#p42e5b41f0f)" d="M 433.112672 255.638708 
L 433.112672 25.44 
" style="fill:none;stroke:#b0b0b0;stroke-linecap:square;stroke-width:0.8;"/>
     </g>
     <g id="line2d_12">
      <g>
       <use style="stroke:#000000;stroke-width:0.8;" x="433.112672" xlink:href="#m8b077f4577" y="255.638708"/>
      </g>
     </g>
     <g id="text_6">
      <!-- 2024-09-07 -->
      <g transform="translate(425.767279 319.848351)rotate(-70)scale(0.1 -0.1)">
       <defs>
        <path d="M 8.203125 72.90625 
L 55.078125 72.90625 
L 55.078125 68.703125 
L 28.609375 0 
L 18.3125 0 
L 43.21875 64.59375 
L 8.203125 64.59375 
z
" id="DejaVuSans-55"/>
       </defs>
       <use xlink:href="#DejaVuSans-50"/>
       <use x="63.623047" xlink:href="#DejaVuSans-48"/>
       <use x="127.246094" xlink:href="#DejaVuSans-50"/>
       <use x="190.869141" xlink:href="#DejaVuSans-52"/>
       <use x="254.492188" xlink:href="#DejaVuSans-45"/>
       <use x="290.576172" xlink:href="#DejaVuSans-48"/>
       <use x="354.199219" xlink:href="#DejaVuSans-57"/>
       <use x="417.822266" xlink:href="#DejaVuSans-45"/>
       <use x="453.90625" xlink:href="#DejaVuSans-48"/>
       <use x="517.529297" xlink:href="#DejaVuSans-55"/>
      </g>
     </g>
    </g>
    <g id="text_7">
     <!-- Date -->
     <g transform="translate(235.379219 332.158083)scale(0.1 -0.1)">
      <defs>
       <path d="M 19.671875 64.796875 
L 19.671875 8.109375 
L 31.59375 8.109375 
Q 46.6875 8.109375 53.6875 14.9375 
Q 60.6875 21.78125 60.6875 36.53125 
Q 60.6875 51.171875 53.6875 57.984375 
Q 46.6875 64.796875 31.59375 64.796875 
z
M 9.8125 72.90625 
L 30.078125 72.90625 
Q 51.265625 72.90625 61.171875 64.09375 
Q 71.09375 55.28125 71.09375 36.53125 
Q 71.09375 17.671875 61.125 8.828125 
Q 51.171875 0 30.078125 0 
L 9.8125 0 
z
" id="DejaVuSans-68"/>
       <path d="M 34.28125 27.484375 
Q 23.390625 27.484375 19.1875 25 
Q 14.984375 22.515625 14.984375 16.5 
Q 14.984375 11.71875 18.140625 8.90625 
Q 21.296875 6.109375 26.703125 6.109375 
Q 34.1875 6.109375 38.703125 11.40625 
Q 43.21875 16.703125 43.21875 25.484375 
L 43.21875 27.484375 
z
M 52.203125 31.203125 
L 52.203125 0 
L 43.21875 0 
L 43.21875 8.296875 
Q 40.140625 3.328125 35.546875 0.953125 
Q 30.953125 -1.421875 24.3125 -1.421875 
Q 15.921875 -1.421875 10.953125 3.296875 
Q 6 8.015625 6 15.921875 
Q 6 25.140625 12.171875 29.828125 
Q 18.359375 34.515625 30.609375 34.515625 
L 43.21875 34.515625 
L 43.21875 35.40625 
Q 43.21875 41.609375 39.140625 45 
Q 35.0625 48.390625 27.6875 48.390625 
Q 23 48.390625 18.546875 47.265625 
Q 14.109375 46.140625 10.015625 43.890625 
L 10.015625 52.203125 
Q 14.9375 54.109375 19.578125 55.046875 
Q 24.21875 56 28.609375 56 
Q 40.484375 56 46.34375 49.84375 
Q 52.203125 43.703125 52.203125 31.203125 
z
" id="DejaVuSans-97"/>
       <path d="M 18.3125 70.21875 
L 18.3125 54.6875 
L 36.8125 54.6875 
L 36.8125 47.703125 
L 18.3125 47.703125 
L 18.3125 18.015625 
Q 18.3125 11.328125 20.140625 9.421875 
Q 21.96875 7.515625 27.59375 7.515625 
L 36.8125 7.515625 
L 36.8125 0 
L 27.59375 0 
Q 17.1875 0 13.234375 3.875 
Q 9.28125 7.765625 9.28125 18.015625 
L 9.28125 47.703125 
L 2.6875 47.703125 
L 2.6875 54.6875 
L 9.28125 54.6875 
L 9.28125 70.21875 
z
" id="DejaVuSans-116"/>
       <path d="M 56.203125 29.59375 
L 56.203125 25.203125 
L 14.890625 25.203125 
Q 15.484375 15.921875 20.484375 11.0625 
Q 25.484375 6.203125 34.421875 6.203125 
Q 39.59375 6.203125 44.453125 7.46875 
Q 49.3125 8.734375 54.109375 11.28125 
L 54.109375 2.78125 
Q 49.265625 0.734375 44.1875 -0.34375 
Q 39.109375 -1.421875 33.890625 -1.421875 
Q 20.796875 -1.421875 13.15625 6.1875 
Q 5.515625 13.8125 5.515625 26.8125 
Q 5.515625 40.234375 12.765625 48.109375 
Q 20.015625 56 32.328125 56 
Q 43.359375 56 49.78125 48.890625 
Q 56.203125 41.796875 56.203125 29.59375 
z
M 47.21875 32.234375 
Q 47.125 39.59375 43.09375 43.984375 
Q 39.0625 48.390625 32.421875 48.390625 
Q 24.90625 48.390625 20.390625 44.140625 
Q 15.875 39.890625 15.1875 32.171875 
z
" id="DejaVuSans-101"/>
      </defs>
      <use xlink:href="#DejaVuSans-68"/>
      <use x="77.001953" xlink:href="#DejaVuSans-97"/>
      <use x="138.28125" xlink:href="#DejaVuSans-116"/>
      <use x="177.490234" xlink:href="#DejaVuSans-101"/>
     </g>
    </g>
   </g>
   <g id="matplotlib.axis_2">
    <g id="ytick_1">
     <g id="line2d_13">
      <path clip-path="url(#p42e5b41f0f)" d="M 44.66 226.204338 
L 450 226.204338 
" style="fill:none;stroke:#b0b0b0;stroke-linecap:square;stroke-width:0.8;"/>
     </g>
     <g id="line2d_14">
      <defs>
       <path d="M 0 0 
L -3.5 0 
" id="mfdea252495" style="stroke:#000000;stroke-width:0.8;"/>
      </defs>
      <g>
       <use style="stroke:#000000;stroke-width:0.8;" x="44.66" xlink:href="#mfdea252495" y="226.204338"/>
      </g>
     </g>
     <g id="text_8">
      <!-- 55 -->
      <g transform="translate(24.935 230.003557)scale(0.1 -0.1)">
       <use xlink:href="#DejaVuSans-53"/>
       <use x="63.623047" xlink:href="#DejaVuSans-53"/>
      </g>
     </g>
    </g>
    <g id="ytick_2">
     <g id="line2d_15">
      <path clip-path="url(#p42e5b41f0f)" d="M 44.66 196.562475 
L 450 196.562475 
" style="fill:none;stroke:#b0b0b0;stroke-linecap:square;stroke-width:0.8;"/>
     </g>
     <g id="line2d_16">
      <g>
       <use style="stroke:#000000;stroke-width:0.8;" x="44.66" xlink:href="#mfdea252495" y="196.562475"/>
      </g>
     </g>
     <g id="text_9">
      <!-- 60 -->
      <g transform="translate(24.935 200.361694)scale(0.1 -0.1)">
       <defs>
        <path d="M 33.015625 40.375 
Q 26.375 40.375 22.484375 35.828125 
Q 18.609375 31.296875 18.609375 23.390625 
Q 18.609375 15.53125 22.484375 10.953125 
Q 26.375 6.390625 33.015625 6.390625 
Q 39.65625 6.390625 43.53125 10.953125 
Q 47.40625 15.53125 47.40625 23.390625 
Q 47.40625 31.296875 43.53125 35.828125 
Q 39.65625 40.375 33.015625 40.375 
z
M 52.59375 71.296875 
L 52.59375 62.3125 
Q 48.875 64.0625 45.09375 64.984375 
Q 41.3125 65.921875 37.59375 65.921875 
Q 27.828125 65.921875 22.671875 59.328125 
Q 17.53125 52.734375 16.796875 39.40625 
Q 19.671875 43.65625 24.015625 45.921875 
Q 28.375 48.1875 33.59375 48.1875 
Q 44.578125 48.1875 50.953125 41.515625 
Q 57.328125 34.859375 57.328125 23.390625 
Q 57.328125 12.15625 50.6875 5.359375 
Q 44.046875 -1.421875 33.015625 -1.421875 
Q 20.359375 -1.421875 13.671875 8.265625 
Q 6.984375 17.96875 6.984375 36.375 
Q 6.984375 53.65625 15.1875 63.9375 
Q 23.390625 74.21875 37.203125 74.21875 
Q 40.921875 74.21875 44.703125 73.484375 
Q 48.484375 72.75 52.59375 71.296875 
z
" id="DejaVuSans-54"/>
       </defs>
       <use xlink:href="#DejaVuSans-54"/>
       <use x="63.623047" xlink:href="#DejaVuSans-48"/>
      </g>
     </g>
    </g>
    <g id="ytick_3">
     <g id="line2d_17">
      <path clip-path="url(#p42e5b41f0f)" d="M 44.66 166.920612 
L 450 166.920612 
" style="fill:none;stroke:#b0b0b0;stroke-linecap:square;stroke-width:0.8;"/>
     </g>
     <g id="line2d_18">
      <g>
       <use style="stroke:#000000;stroke-width:0.8;" x="44.66" xlink:href="#mfdea252495" y="166.920612"/>
      </g>
     </g>
     <g id="text_10">
      <!-- 65 -->
      <g transform="translate(24.935 170.719831)scale(0.1 -0.1)">
       <use xlink:href="#DejaVuSans-54"/>
       <use x="63.623047" xlink:href="#DejaVuSans-53"/>
      </g>
     </g>
    </g>
    <g id="ytick_4">
     <g id="line2d_19">
      <path clip-path="url(#p42e5b41f0f)" d="M 44.66 137.278749 
L 450 137.278749 
" style="fill:none;stroke:#b0b0b0;stroke-linecap:square;stroke-width:0.8;"/>
     </g>
     <g id="line2d_20">
      <g>
       <use style="stroke:#000000;stroke-width:0.8;" x="44.66" xlink:href="#mfdea252495" y="137.278749"/>
      </g>
     </g>
     <g id="text_11">
      <!-- 70 -->
      <g transform="translate(24.935 141.077968)scale(0.1 -0.1)">
       <use xlink:href="#DejaVuSans-55"/>
       <use x="63.623047" xlink:href="#DejaVuSans-48"/>
      </g>
     </g>
    </g>
    <g id="ytick_5">
     <g id="line2d_21">
      <path clip-path="url(#p42e5b41f0f)" d="M 44.66 107.636886 
L 450 107.636886 
" style="fill:none;stroke:#b0b0b0;stroke-linecap:square;stroke-width:0.8;"/>
     </g>
     <g id="line2d_22">
      <g>
       <use style="stroke:#000000;stroke-width:0.8;" x="44.66" xlink:href="#mfdea252495" y="107.636886"/>
      </g>
     </g>
     <g id="text_12">
      <!-- 75 -->
      <g transform="translate(24.935 111.436105)scale(0.1 -0.1)">
       <use xlink:href="#DejaVuSans-55"/>
       <use x="63.623047" xlink:href="#DejaVuSans-53"/>
      </g>
     </g>
    </g>
    <g id="ytick_6">
     <g id="line2d_23">
      <path clip-path="url(#p42e5b41f0f)" d="M 44.66 77.995023 
L 450 77.995023 
" style="fill:none;stroke:#b0b0b0;stroke-linecap:square;stroke-width:0.8;"/>
     </g>
     <g id="line2d_24">
      <g>
       <use style="stroke:#000000;stroke-width:0.8;" x="44.66" xlink:href="#mfdea252495" y="77.995023"/>
      </g>
     </g>
     <g id="text_13">
      <!-- 80 -->
      <g transform="translate(24.935 81.794242)scale(0.1 -0.1)">
       <use xlink:href="#DejaVuSans-56"/>
       <use x="63.623047" xlink:href="#DejaVuSans-48"/>
      </g>
     </g>
    </g>
    <g id="ytick_7">
     <g id="line2d_25">
      <path clip-path="url(#p42e5b41f0f)" d="M 44.66 48.35316 
L 450 48.35316 
" style="fill:none;stroke:#b0b0b0;stroke-linecap:square;stroke-width:0.8;"/>
     </g>
     <g id="line2d_26">
      <g>
       <use style="stroke:#000000;stroke-width:0.8;" x="44.66" xlink:href="#mfdea252495" y="48.35316"/>
      </g>
     </g>
     <g id="text_14">
      <!-- 85 -->
      <g transform="translate(24.935 52.152379)scale(0.1 -0.1)">
       <use xlink:href="#DejaVuSans-56"/>
       <use x="63.623047" xlink:href="#DejaVuSans-53"/>
      </g>
     </g>
    </g>
    <g id="text_15">
     <!-- Temperature [F] -->
     <g transform="translate(18.855313 180.575291)rotate(-90)scale(0.1 -0.1)">
      <defs>
       <path d="M -0.296875 72.90625 
L 61.375 72.90625 
L 61.375 64.59375 
L 35.5 64.59375 
L 35.5 0 
L 25.59375 0 
L 25.59375 64.59375 
L -0.296875 64.59375 
z
" id="DejaVuSans-84"/>
       <path d="M 52 44.1875 
Q 55.375 50.25 60.0625 53.125 
Q 64.75 56 71.09375 56 
Q 79.640625 56 84.28125 50.015625 
Q 88.921875 44.046875 88.921875 33.015625 
L 88.921875 0 
L 79.890625 0 
L 79.890625 32.71875 
Q 79.890625 40.578125 77.09375 44.375 
Q 74.3125 48.1875 68.609375 48.1875 
Q 61.625 48.1875 57.5625 43.546875 
Q 53.515625 38.921875 53.515625 30.90625 
L 53.515625 0 
L 44.484375 0 
L 44.484375 32.71875 
Q 44.484375 40.625 41.703125 44.40625 
Q 38.921875 48.1875 33.109375 48.1875 
Q 26.21875 48.1875 22.15625 43.53125 
Q 18.109375 38.875 18.109375 30.90625 
L 18.109375 0 
L 9.078125 0 
L 9.078125 54.6875 
L 18.109375 54.6875 
L 18.109375 46.1875 
Q 21.1875 51.21875 25.484375 53.609375 
Q 29.78125 56 35.6875 56 
Q 41.65625 56 45.828125 52.96875 
Q 50 49.953125 52 44.1875 
z
" id="DejaVuSans-109"/>
       <path d="M 18.109375 8.203125 
L 18.109375 -20.796875 
L 9.078125 -20.796875 
L 9.078125 54.6875 
L 18.109375 54.6875 
L 18.109375 46.390625 
Q 20.953125 51.265625 25.265625 53.625 
Q 29.59375 56 35.59375 56 
Q 45.5625 56 51.78125 48.09375 
Q 58.015625 40.1875 58.015625 27.296875 
Q 58.015625 14.40625 51.78125 6.484375 
Q 45.5625 -1.421875 35.59375 -1.421875 
Q 29.59375 -1.421875 25.265625 0.953125 
Q 20.953125 3.328125 18.109375 8.203125 
z
M 48.6875 27.296875 
Q 48.6875 37.203125 44.609375 42.84375 
Q 40.53125 48.484375 33.40625 48.484375 
Q 26.265625 48.484375 22.1875 42.84375 
Q 18.109375 37.203125 18.109375 27.296875 
Q 18.109375 17.390625 22.1875 11.75 
Q 26.265625 6.109375 33.40625 6.109375 
Q 40.53125 6.109375 44.609375 11.75 
Q 48.6875 17.390625 48.6875 27.296875 
z
" id="DejaVuSans-112"/>
       <path d="M 41.109375 46.296875 
Q 39.59375 47.171875 37.8125 47.578125 
Q 36.03125 48 33.890625 48 
Q 26.265625 48 22.1875 43.046875 
Q 18.109375 38.09375 18.109375 28.8125 
L 18.109375 0 
L 9.078125 0 
L 9.078125 54.6875 
L 18.109375 54.6875 
L 18.109375 46.1875 
Q 20.953125 51.171875 25.484375 53.578125 
Q 30.03125 56 36.53125 56 
Q 37.453125 56 38.578125 55.875 
Q 39.703125 55.765625 41.0625 55.515625 
z
" id="DejaVuSans-114"/>
       <path d="M 8.5 21.578125 
L 8.5 54.6875 
L 17.484375 54.6875 
L 17.484375 21.921875 
Q 17.484375 14.15625 20.5 10.265625 
Q 23.53125 6.390625 29.59375 6.390625 
Q 36.859375 6.390625 41.078125 11.03125 
Q 45.3125 15.671875 45.3125 23.6875 
L 45.3125 54.6875 
L 54.296875 54.6875 
L 54.296875 0 
L 45.3125 0 
L 45.3125 8.40625 
Q 42.046875 3.421875 37.71875 1 
Q 33.40625 -1.421875 27.6875 -1.421875 
Q 18.265625 -1.421875 13.375 4.4375 
Q 8.5 10.296875 8.5 21.578125 
z
M 31.109375 56 
z
" id="DejaVuSans-117"/>
       <path id="DejaVuSans-32"/>
       <path d="M 8.59375 75.984375 
L 29.296875 75.984375 
L 29.296875 69 
L 17.578125 69 
L 17.578125 -6.203125 
L 29.296875 -6.203125 
L 29.296875 -13.1875 
L 8.59375 -13.1875 
z
" id="DejaVuSans-91"/>
       <path d="M 9.8125 72.90625 
L 51.703125 72.90625 
L 51.703125 64.59375 
L 19.671875 64.59375 
L 19.671875 43.109375 
L 48.578125 43.109375 
L 48.578125 34.8125 
L 19.671875 34.8125 
L 19.671875 0 
L 9.8125 0 
z
" id="DejaVuSans-70"/>
       <path d="M 30.421875 75.984375 
L 30.421875 -13.1875 
L 9.71875 -13.1875 
L 9.71875 -6.203125 
L 21.390625 -6.203125 
L 21.390625 69 
L 9.71875 69 
L 9.71875 75.984375 
z
" id="DejaVuSans-93"/>
      </defs>
      <use xlink:href="#DejaVuSans-84"/>
      <use x="44.083984" xlink:href="#DejaVuSans-101"/>
      <use x="105.607422" xlink:href="#DejaVuSans-109"/>
      <use x="203.019531" xlink:href="#DejaVuSans-112"/>
      <use x="266.496094" xlink:href="#DejaVuSans-101"/>
      <use x="328.019531" xlink:href="#DejaVuSans-114"/>
      <use x="369.132812" xlink:href="#DejaVuSans-97"/>
      <use x="430.412109" xlink:href="#DejaVuSans-116"/>
      <use x="469.621094" xlink:href="#DejaVuSans-117"/>
      <use x="533" xlink:href="#DejaVuSans-114"/>
      <use x="571.863281" xlink:href="#DejaVuSans-101"/>
      <use x="633.386719" xlink:href="#DejaVuSans-32"/>
      <use x="665.173828" xlink:href="#DejaVuSans-91"/>
      <use x="704.1875" xlink:href="#DejaVuSans-70"/>
      <use x="761.707031" xlink:href="#DejaVuSans-93"/>
     </g>
    </g>
   </g>
   <g id="line2d_27">
    <path clip-path="url(#p42e5b41f0f)" d="M 63.084545 143.799959 
L 63.138728 143.799959 
L 63.266929 143.207122 
L 63.394939 143.207122 
L 63.420551 143.799959 
L 63.47221 142.614284 
L 63.497695 143.207122 
L 63.523211 143.207122 
L 63.652211 142.614284 
L 63.704467 142.614284 
L 63.78264 142.021447 
L 63.808187 142.614284 
L 63.887256 142.614284 
L 63.938527 143.207122 
L 63.964224 142.614284 
L 64.043022 143.207122 
L 64.094398 142.021447 
L 64.147182 142.021447 
L 64.251779 140.835773 
L 64.277234 142.021447 
L 64.303246 140.242935 
L 64.354946 140.835773 
L 64.484187 140.242935 
L 64.509869 140.242935 
L 64.641157 139.650098 
L 64.743965 140.835773 
L 64.875615 139.650098 
L 65.030845 140.835773 
L 65.056439 140.835773 
L 65.081954 140.242935 
L 65.160961 140.835773 
L 65.187367 140.835773 
L 65.370581 139.057261 
L 65.449335 140.242935 
L 65.475776 139.057261 
L 65.581561 139.057261 
L 65.60836 138.464424 
L 65.659785 139.057261 
L 65.685736 139.650098 
L 65.755623 139.057261 
L 65.833715 139.057261 
L 65.886621 138.464424 
L 65.939778 139.057261 
L 66.072051 140.835773 
L 66.097606 140.242935 
L 66.125153 140.242935 
L 66.262747 142.021447 
L 66.392155 140.835773 
L 66.496979 140.242935 
L 66.549565 140.835773 
L 66.601662 140.242935 
L 66.627123 140.242935 
L 66.680274 142.021447 
L 66.73256 140.242935 
L 66.758011 140.242935 
L 66.890394 142.021447 
L 66.916094 140.242935 
L 66.993701 142.021447 
L 67.071835 143.207122 
L 67.09929 142.021447 
L 67.124765 140.835773 
L 67.150277 143.207122 
L 67.176839 144.392796 
L 67.229538 142.021447 
L 67.254978 142.614284 
L 67.337296 140.242935 
L 67.442183 144.392796 
L 67.467792 142.614284 
L 67.495262 142.614284 
L 67.576194 144.392796 
L 67.627071 143.799959 
L 67.783896 144.985633 
L 68.018984 144.985633 
L 68.123061 145.578471 
L 68.201852 144.985633 
L 68.227425 145.578471 
L 68.253799 145.578471 
L 68.304986 144.392796 
L 68.357668 145.578471 
L 68.385386 145.578471 
L 68.463298 143.207122 
L 68.49013 144.985633 
L 68.516974 146.764145 
L 68.59587 145.578471 
L 68.647838 145.578471 
L 68.805535 143.799959 
L 68.936732 144.392796 
L 68.962348 144.392796 
L 69.040265 144.985633 
L 69.066048 143.207122 
L 69.144973 145.578471 
L 69.170507 144.392796 
L 69.197881 144.392796 
L 69.326626 145.578471 
L 69.352661 144.392796 
L 69.429483 144.985633 
L 69.534649 144.985633 
L 69.667791 145.578471 
L 69.827161 144.392796 
L 69.981768 145.578471 
L 70.31968 145.578471 
L 70.450319 146.764145 
L 70.898431 146.764145 
L 71.004526 147.356982 
L 71.133986 146.764145 
L 71.264147 147.356982 
L 71.679852 147.356982 
L 71.705735 147.94982 
L 71.731359 147.356982 
L 137.338332 147.94982 
L 137.364833 147.356982 
L 137.675311 145.578471 
L 137.809658 147.356982 
L 137.835938 145.578471 
L 137.899054 147.356982 
L 138.021897 144.985633 
L 138.102583 143.207122 
L 138.128101 144.985633 
L 138.188266 144.985633 
L 138.358836 146.764145 
L 138.468303 146.764145 
L 138.493786 147.356982 
L 138.52046 145.578471 
L 138.547178 145.578471 
L 138.573428 146.764145 
L 138.600111 144.985633 
L 138.628372 144.985633 
L 138.711475 140.242935 
L 138.759534 143.207122 
L 138.895276 145.578471 
L 138.924646 144.392796 
L 139.003353 145.578471 
L 139.02887 145.578471 
L 139.067863 146.764145 
L 139.11998 145.578471 
L 139.151731 144.985633 
L 139.203146 145.578471 
L 139.260336 145.578471 
L 139.39291 139.650098 
L 139.522218 145.578471 
L 139.625757 139.057261 
L 139.704366 140.242935 
L 139.807275 144.985633 
L 139.871646 146.764145 
L 139.897098 144.985633 
L 140.01966 144.392796 
L 140.071646 144.392796 
L 140.09863 143.799959 
L 140.12424 144.392796 
L 140.229366 146.764145 
L 140.255234 145.578471 
L 140.312775 145.578471 
L 140.478145 139.650098 
L 140.619885 145.578471 
L 140.652498 146.764145 
L 140.678057 144.392796 
L 140.706377 144.985633 
L 140.732801 144.392796 
L 140.783692 145.578471 
L 140.809594 145.578471 
L 140.836561 146.764145 
L 140.861979 144.985633 
L 140.888436 145.578471 
L 140.993192 145.578471 
L 141.019705 144.392796 
L 141.074804 145.578471 
L 141.101438 147.356982 
L 141.153594 144.985633 
L 141.204854 144.985633 
L 141.231696 145.578471 
L 141.259417 142.021447 
L 141.340096 142.614284 
L 141.393711 144.985633 
L 141.446819 143.207122 
L 141.60225 144.985633 
L 141.737347 144.392796 
L 141.815095 143.799959 
L 141.866 144.985633 
L 141.891785 144.985633 
L 141.917209 144.392796 
L 141.995633 144.985633 
L 142.151179 146.764145 
L 142.176637 145.578471 
L 142.253654 146.764145 
L 142.383195 147.356982 
L 142.721701 147.356982 
L 142.800185 147.94982 
L 142.826542 147.356982 
L 143.087812 147.356982 
L 143.113503 144.985633 
L 143.191118 146.764145 
L 143.242821 146.764145 
L 143.376986 147.356982 
L 143.428782 147.356982 
L 143.454746 146.764145 
L 143.531456 147.356982 
L 143.557412 147.356982 
L 143.68814 147.94982 
L 144.243939 147.94982 
L 144.271651 148.542657 
L 144.297184 147.94982 
L 144.43741 147.356982 
L 144.708956 147.356982 
L 144.84006 146.764145 
L 145.232578 146.764145 
L 145.258059 147.356982 
L 145.33562 146.764145 
L 145.545621 146.764145 
L 145.625362 147.356982 
L 145.650825 146.764145 
L 145.830087 146.764145 
L 145.907354 147.356982 
L 145.932942 146.764145 
L 145.985906 146.764145 
L 146.115544 147.356982 
L 146.141107 147.356982 
L 146.269083 146.764145 
L 146.294489 146.764145 
L 146.370891 147.356982 
L 146.397214 146.764145 
L 146.73822 146.764145 
L 249.312157 130.164702 
L 249.371417 131.350376 
L 249.495332 131.350376 
L 249.521007 130.164702 
L 249.574144 131.350376 
L 249.657742 131.350376 
L 249.684221 130.164702 
L 249.767966 131.350376 
L 249.97635 131.350376 
L 250.02895 131.943214 
L 250.080951 131.350376 
L 250.216003 131.350376 
L 250.242899 131.943214 
L 250.298939 131.350376 
L 250.329766 131.350376 
L 250.434194 131.943214 
L 250.486842 131.943214 
L 250.513098 131.350376 
L 250.589707 131.943214 
L 250.667447 131.943214 
L 250.74471 131.350376 
L 250.770154 131.943214 
L 250.808592 131.350376 
L 250.872687 131.943214 
L 251.419996 131.943214 
L 251.548162 132.536051 
L 251.626195 131.943214 
L 251.652879 132.536051 
L 251.678952 132.536051 
L 251.811747 131.943214 
L 251.866831 131.943214 
L 251.994828 132.536051 
L 252.466131 132.536051 
L 252.491851 133.128888 
L 252.569188 132.536051 
L 252.650466 132.536051 
L 252.678927 133.128888 
L 252.742872 132.536051 
L 252.981571 132.536051 
L 253.114565 133.128888 
L 254.195664 133.128888 
L 254.222401 133.721726 
L 254.275513 133.128888 
L 254.512247 133.128888 
L 254.619797 133.721726 
L 254.751948 133.128888 
L 254.882025 133.721726 
L 255.229635 133.721726 
L 255.352491 134.314563 
L 255.481245 133.721726 
L 256.215529 133.721726 
L 256.240933 133.128888 
L 256.320128 133.721726 
L 256.479104 133.721726 
L 256.60994 133.128888 
L 256.6618 133.128888 
L 256.792307 133.721726 
L 257.159547 133.721726 
L 257.184982 134.314563 
L 257.261186 133.721726 
L 257.726526 133.721726 
L 257.752723 133.128888 
L 257.831251 133.721726 
L 257.882055 133.721726 
L 257.916232 133.128888 
L 257.972429 133.721726 
L 258.205643 133.721726 
L 258.231882 133.128888 
L 258.310507 133.721726 
L 259.122782 133.721726 
L 259.253587 134.314563 
L 259.279523 134.314563 
L 259.387402 133.721726 
L 259.501785 134.314563 
L 259.633257 133.721726 
L 259.737026 134.314563 
L 259.867536 133.721726 
L 259.972481 133.721726 
L 260.100248 134.314563 
L 260.533057 134.314563 
L 260.558796 134.9074 
L 260.635405 134.314563 
L 260.928799 134.314563 
L 261.008339 134.9074 
L 261.035281 134.314563 
L 261.087547 134.314563 
L 261.165672 134.9074 
L 261.191145 134.314563 
L 261.246922 134.314563 
L 261.381959 134.9074 
L 261.40952 134.314563 
L 261.461913 134.9074 
L 262.279843 134.9074 
L 262.4137 136.093075 
L 262.546111 134.9074 
L 262.813682 134.9074 
L 262.865213 136.093075 
L 262.919146 134.9074 
L 263.135044 134.9074 
L 263.240056 136.093075 
L 263.368515 134.9074 
L 263.49979 136.093075 
L 263.634764 134.9074 
L 263.660307 134.9074 
L 263.79024 136.093075 
L 263.921857 134.9074 
L 264.05301 136.093075 
L 264.734403 136.093075 
L 264.815149 136.685912 
L 264.841025 136.093075 
L 264.976968 136.093075 
L 265.003689 136.685912 
L 265.029534 136.093075 
L 265.313484 136.093075 
L 265.419078 136.685912 
L 265.550671 136.093075 
L 265.682595 136.685912 
L 266.497122 136.685912 
L 266.574763 137.278749 
L 266.602933 136.685912 
L 266.628462 136.685912 
L 266.70674 137.278749 
L 266.732683 136.685912 
L 266.758144 136.685912 
L 266.887779 137.278749 
L 267.381554 137.278749 
L 267.487457 136.685912 
L 267.617394 137.278749 
L 268.665823 137.278749 
L 268.691381 137.871586 
L 268.776689 137.278749 
L 269.670476 137.278749 
L 269.779863 137.871586 
L 269.859238 137.278749 
L 270.002871 137.871586 
L 270.695752 137.871586 
L 270.721276 137.278749 
L 270.801382 137.871586 
L 270.908157 137.871586 
L 270.98615 137.278749 
L 271.011912 137.871586 
L 271.119091 137.871586 
L 271.251775 137.278749 
L 271.355693 137.278749 
L 271.381119 137.871586 
L 271.460656 137.278749 
L 271.512836 137.278749 
L 271.620615 137.871586 
L 271.751894 137.278749 
L 271.932801 137.278749 
L 272.042233 137.871586 
L 272.174799 137.278749 
L 272.979179 137.278749 
L 273.110255 136.685912 
L 273.321734 136.685912 
L 273.374773 136.093075 
L 273.42782 136.685912 
L 273.560739 136.685912 
L 273.619654 136.093075 
L 273.645952 136.685912 
L 273.698802 136.685912 
L 273.725953 136.093075 
L 273.803822 136.685912 
L 274.520054 136.685912 
L 274.651464 136.093075 
L 274.711268 136.093075 
L 274.73696 136.685912 
L 274.813807 136.093075 
L 274.89439 136.093075 
L 275.025666 134.9074 
L 275.263795 134.9074 
L 275.315254 134.314563 
L 275.368234 134.9074 
L 275.96874 134.9074 
L 276.046331 134.314563 
L 276.071911 134.9074 
L 276.203195 134.9074 
L 276.3326 134.314563 
L 276.384823 134.314563 
L 276.513189 133.721726 
L 276.540279 133.721726 
L 276.669694 134.314563 
L 276.720563 134.314563 
L 276.85029 133.721726 
L 276.929204 134.314563 
L 277.070514 133.721726 
L 277.124584 133.721726 
L 277.255586 134.314563 
L 277.282792 134.314563 
L 277.389726 133.721726 
L 277.52439 134.314563 
L 277.607938 134.314563 
L 277.633469 133.721726 
L 277.71139 134.314563 
L 278.056741 134.314563 
L 278.161754 133.721726 
L 278.214406 134.314563 
L 278.266965 133.721726 
L 278.322434 133.721726 
L 278.45657 134.314563 
L 278.565212 133.721726 
L 278.645021 134.314563 
L 278.674038 133.721726 
L 278.808136 133.721726 
L 278.93996 134.314563 
L 279.072982 133.721726 
L 279.233313 133.721726 
L 279.26218 134.314563 
L 279.32372 133.721726 
L 279.432239 133.721726 
L 279.458398 134.314563 
L 279.53879 133.721726 
L 279.715105 133.721726 
L 279.740568 132.536051 
L 279.81863 133.128888 
L 279.869781 133.128888 
L 279.999956 133.721726 
L 280.078186 133.721726 
L 280.129617 134.314563 
L 280.182004 133.721726 
L 280.311291 133.128888 
L 280.36374 133.128888 
L 280.389255 133.721726 
L 280.468262 133.128888 
L 280.495235 133.128888 
L 280.628248 133.721726 
L 280.895591 133.721726 
L 280.921169 134.314563 
L 280.974248 133.721726 
L 281.054253 133.128888 
L 281.07969 133.721726 
L 281.502826 133.721726 
L 281.632245 134.314563 
L 281.659459 134.314563 
L 281.686122 133.721726 
L 281.762969 134.314563 
L 282.04944 134.314563 
L 282.154328 133.721726 
L 282.300511 134.314563 
L 282.589074 134.314563 
L 282.665511 134.9074 
L 282.691311 134.314563 
L 282.875182 134.314563 
L 282.902285 133.721726 
L 282.979445 134.314563 
L 283.270226 134.314563 
L 283.296567 134.9074 
L 283.373545 134.314563 
L 283.702845 134.314563 
L 283.808647 134.9074 
L 283.914006 134.314563 
L 284.046571 134.9074 
L 284.443681 134.9074 
L 284.495867 134.314563 
L 284.550991 134.9074 
L 284.62846 134.9074 
L 284.655599 134.314563 
L 284.733692 134.9074 
L 285.428498 134.9074 
L 285.455011 136.093075 
L 285.518472 134.9074 
L 285.570799 134.9074 
L 285.658341 136.093075 
L 285.768082 134.9074 
L 285.90095 136.093075 
L 285.926395 136.093075 
L 285.951923 134.9074 
L 286.030393 136.093075 
L 286.144383 136.093075 
L 286.251021 134.9074 
L 286.395566 136.093075 
L 287.038624 136.093075 
L 287.133314 136.685912 
L 287.266835 136.093075 
L 287.29345 136.093075 
L 287.424937 136.685912 
L 287.450374 136.093075 
L 287.514244 136.685912 
L 288.223979 136.685912 
L 288.249416 137.278749 
L 288.326895 136.685912 
L 288.747549 136.685912 
L 288.877609 137.278749 
L 288.956743 136.685912 
L 288.983493 137.278749 
L 289.036154 137.278749 
L 289.143461 136.685912 
L 289.281821 137.278749 
L 290.714322 137.278749 
L 290.742847 137.871586 
L 290.7979 137.278749 
L 290.880947 137.278749 
L 290.934121 137.871586 
L 290.988157 137.278749 
L 291.017369 137.278749 
L 291.124944 137.871586 
L 291.151448 137.278749 
L 291.23127 137.871586 
L 291.492125 137.871586 
L 291.51932 137.278749 
L 291.597815 137.871586 
L 291.675033 137.871586 
L 291.700494 137.278749 
L 291.778132 137.871586 
L 291.963565 137.871586 
L 291.991138 138.464424 
L 292.069285 137.871586 
L 292.761379 137.871586 
L 292.788038 137.278749 
L 292.869888 137.871586 
L 294.039644 137.871586 
L 294.065892 138.464424 
L 294.147524 137.871586 
L 294.524772 137.871586 
L 294.612993 138.464424 
L 294.745088 137.871586 
L 294.770625 137.871586 
L 294.903776 138.464424 
L 295.200045 138.464424 
L 295.22595 137.871586 
L 295.30616 138.464424 
L 295.624601 138.464424 
L 295.652924 137.871586 
L 295.730402 138.464424 
L 296.934003 138.464424 
L 296.962608 139.057261 
L 297.039616 138.464424 
L 297.118616 138.464424 
L 297.145673 139.057261 
L 297.228381 138.464424 
L 297.383041 138.464424 
L 297.485635 139.057261 
L 297.596473 138.464424 
L 297.703116 139.057261 
L 297.728515 138.464424 
L 297.806593 139.057261 
L 297.83217 139.057261 
L 297.96233 138.464424 
L 298.094973 139.057261 
L 298.201613 139.057261 
L 298.306644 138.464424 
L 298.411687 139.057261 
L 298.437187 138.464424 
L 298.517549 139.057261 
L 298.701236 139.057261 
L 298.728665 138.464424 
L 298.805892 139.057261 
L 300.670028 139.057261 
L 300.69666 139.650098 
L 300.774658 139.057261 
L 300.905892 139.057261 
L 300.931488 139.650098 
L 301.010581 139.057261 
L 301.061638 139.057261 
L 301.190383 139.650098 
L 301.324346 139.057261 
L 301.352146 139.057261 
L 301.486195 139.650098 
L 301.513673 139.650098 
L 301.617357 139.057261 
L 301.748071 139.650098 
L 302.427241 139.650098 
L 302.45311 140.242935 
L 302.530905 139.650098 
L 302.818161 139.650098 
L 302.900534 140.242935 
L 303.033895 139.650098 
L 303.06163 139.650098 
L 303.087544 140.242935 
L 303.116391 139.650098 
L 303.253839 140.242935 
L 303.360154 139.650098 
L 303.473399 140.242935 
L 303.636521 139.650098 
L 303.664232 140.242935 
L 303.7898 139.650098 
L 305.208932 139.650098 
L 305.294368 139.057261 
L 305.398843 139.650098 
L 305.513875 139.057261 
L 305.564878 139.650098 
L 305.615814 139.057261 
L 306.320248 139.057261 
L 306.436725 138.464424 
L 306.544518 139.057261 
L 306.574282 139.057261 
L 306.70925 137.871586 
L 306.738716 137.871586 
L 306.766042 138.464424 
L 306.846412 137.871586 
L 307.004144 137.871586 
L 307.136344 137.278749 
L 307.2713 137.278749 
L 307.30486 136.685912 
L 307.38153 137.278749 
L 307.462708 137.278749 
L 307.546292 137.871586 
L 307.571734 137.278749 
L 307.62978 137.278749 
L 307.732167 137.871586 
L 307.887012 136.685912 
L 307.938097 136.685912 
L 308.066358 137.278749 
L 308.168764 136.685912 
L 308.194439 137.278749 
L 308.271008 136.685912 
L 308.348144 136.685912 
L 308.374129 137.278749 
L 308.459225 136.685912 
L 308.48474 136.685912 
L 308.614086 137.278749 
L 308.639753 136.685912 
L 308.716509 137.278749 
L 309.059433 137.278749 
L 309.161411 136.685912 
L 309.297246 137.278749 
L 309.43297 137.278749 
L 309.458557 136.685912 
L 309.534953 137.278749 
L 309.691863 137.278749 
L 309.82121 136.685912 
L 309.954409 137.278749 
L 310.082201 136.685912 
L 310.47187 136.685912 
L 310.566199 137.278749 
L 310.704162 136.685912 
L 311.396691 136.685912 
L 311.491031 136.093075 
L 311.788261 136.093075 
L 311.814121 136.685912 
L 311.856975 136.093075 
L 312.541526 136.093075 
L 312.633277 136.685912 
L 312.773224 136.093075 
L 313.007014 136.093075 
L 313.047159 136.685912 
L 313.077044 134.9074 
L 313.140069 136.093075 
L 313.234082 136.093075 
L 313.350833 134.9074 
L 313.932788 134.9074 
L 314.168386 133.721726 
L 314.289251 134.314563 
L 315.049475 134.314563 
L 315.083025 133.721726 
L 315.146585 134.314563 
L 315.283754 134.314563 
L 315.341604 133.721726 
L 315.370717 134.314563 
L 315.397038 134.314563 
L 315.537379 133.721726 
L 315.62237 133.721726 
L 315.648034 134.314563 
L 315.702855 133.721726 
L 315.788396 133.721726 
L 315.90152 133.128888 
L 315.985732 133.721726 
L 316.10097 133.128888 
L 316.198582 133.128888 
L 316.306792 133.721726 
L 316.453968 133.721726 
L 316.480531 134.314563 
L 316.510103 133.721726 
L 316.730359 133.721726 
L 316.872625 133.128888 
L 316.944248 133.721726 
L 317.125188 132.536051 
L 317.151617 133.128888 
L 317.320817 132.536051 
L 317.546211 131.943214 
L 317.672517 132.536051 
L 317.807825 131.943214 
L 317.834199 131.943214 
L 317.86374 132.536051 
L 318.148134 132.536051 
L 318.183004 133.128888 
L 318.257077 132.536051 
L 318.406099 132.536051 
L 318.542951 133.128888 
L 319.052083 133.128888 
L 319.105891 132.536051 
L 319.133741 133.128888 
L 319.165444 133.128888 
L 319.256813 132.536051 
L 319.34029 132.536051 
L 319.46003 133.128888 
L 319.575017 132.536051 
L 319.670199 132.536051 
L 319.793062 133.128888 
L 319.990773 133.128888 
L 320.032376 133.721726 
L 320.093089 133.128888 
L 320.120332 133.128888 
L 320.2043 133.721726 
L 320.310325 133.128888 
L 320.4591 133.721726 
L 320.609739 133.721726 
L 320.729585 134.314563 
L 320.807096 133.721726 
L 320.851706 134.9074 
L 320.917237 134.314563 
L 321.115421 134.314563 
L 321.228056 134.9074 
L 321.258129 134.9074 
L 321.288588 134.314563 
L 321.350244 134.9074 
L 321.603086 134.9074 
L 321.632684 136.093075 
L 321.662164 134.9074 
L 321.851924 136.093075 
L 322.221629 136.093075 
L 322.281025 136.685912 
L 322.306566 136.093075 
L 322.333838 136.093075 
L 322.457927 136.685912 
L 322.924477 136.685912 
L 323.034562 137.278749 
L 323.149613 136.685912 
L 323.202204 137.278749 
L 323.285837 136.685912 
L 323.312472 137.278749 
L 323.37324 137.278749 
L 323.429145 136.685912 
L 323.463232 137.278749 
L 324.049599 137.278749 
L 324.183117 137.871586 
L 324.840482 137.871586 
L 324.917979 138.464424 
L 324.951636 137.871586 
L 325.280066 137.871586 
L 325.408563 138.464424 
L 325.541853 137.871586 
L 325.59504 137.871586 
L 325.726469 138.464424 
L 325.803702 137.871586 
L 325.829385 138.464424 
L 326.629092 138.464424 
L 326.732343 139.057261 
L 326.859859 138.464424 
L 326.885305 138.464424 
L 326.988566 139.057261 
L 327.014017 138.464424 
L 327.092735 139.057261 
L 327.743267 139.057261 
L 327.873789 139.650098 
L 327.925478 139.650098 
L 327.951705 139.057261 
L 328.028071 139.650098 
L 328.206498 139.650098 
L 328.309083 140.242935 
L 328.387019 139.650098 
L 328.412487 140.242935 
L 328.643956 140.242935 
L 328.752544 140.835773 
L 328.883695 140.242935 
L 329.523007 140.242935 
L 329.549312 139.650098 
L 329.62492 140.242935 
L 329.90804 140.242935 
L 329.934482 140.835773 
L 330.125477 140.242935 
L 330.258348 140.242935 
L 330.285112 140.835773 
L 330.36395 140.242935 
L 331.093781 140.242935 
L 331.221941 140.835773 
L 331.274573 140.835773 
L 331.405277 140.242935 
L 331.45803 140.242935 
L 331.591696 140.835773 
L 332.942661 140.835773 
L 333.070545 142.021447 
L 333.201374 140.835773 
L 333.253791 140.835773 
L 333.382152 142.021447 
L 333.407583 142.021447 
L 333.483747 140.835773 
L 333.510008 142.021447 
L 334.661735 142.021447 
L 334.795636 142.614284 
L 334.92866 142.021447 
L 335.265077 142.021447 
L 335.31593 142.614284 
L 335.367102 142.021447 
L 335.549467 142.021447 
L 335.575011 142.614284 
L 335.653551 142.021447 
L 335.941645 142.021447 
L 335.96702 142.614284 
L 336.043765 142.021447 
L 336.147024 142.021447 
L 336.172557 142.614284 
L 336.249104 142.021447 
L 336.303203 142.021447 
L 336.43218 142.614284 
L 336.486479 142.614284 
L 336.615317 142.021447 
L 336.719922 142.614284 
L 336.745591 142.021447 
L 336.824196 142.614284 
L 337.03264 142.614284 
L 337.058886 142.021447 
L 337.136519 142.614284 
L 337.552601 142.614284 
L 337.682407 143.207122 
L 337.814065 142.614284 
L 338.449381 142.614284 
L 338.527981 143.207122 
L 338.554828 142.614284 
L 338.661428 142.614284 
L 338.789036 143.207122 
L 338.922039 142.614284 
L 338.947512 143.207122 
L 339.026836 142.614284 
L 340.481549 142.614284 
L 340.560526 142.021447 
L 340.586151 142.614284 
L 340.615072 142.614284 
L 340.642375 142.021447 
L 340.718684 142.614284 
L 340.899774 142.614284 
L 341.00448 142.021447 
L 341.084231 142.614284 
L 341.110822 142.021447 
L 341.215674 142.021447 
L 341.268595 142.614284 
L 341.320387 142.021447 
L 341.371854 142.021447 
L 341.397302 142.614284 
L 341.47757 142.021447 
L 341.848669 142.021447 
L 341.981683 140.835773 
L 342.33893 140.835773 
L 342.365433 140.242935 
L 342.445842 140.835773 
L 342.524059 140.835773 
L 342.653487 140.242935 
L 342.891829 140.242935 
L 343.030277 139.650098 
L 343.059161 139.650098 
L 343.085488 140.242935 
L 343.162587 139.650098 
L 343.344022 139.650098 
L 343.477482 139.057261 
L 343.692982 139.057261 
L 343.82831 138.464424 
L 343.93352 138.464424 
L 344.043803 137.871586 
L 344.419363 137.871586 
L 344.444947 137.278749 
L 344.524562 137.871586 
L 344.618514 137.871586 
L 344.737537 137.278749 
L 344.906987 137.278749 
L 344.965424 136.685912 
L 344.99184 137.278749 
L 345.093976 137.871586 
L 345.225819 137.278749 
L 345.277306 137.278749 
L 345.302725 136.685912 
L 345.358732 137.278749 
L 345.414378 136.685912 
L 345.469832 137.871586 
L 345.556108 137.871586 
L 345.581491 138.464424 
L 345.611003 137.871586 
L 345.72454 137.871586 
L 345.838239 137.278749 
L 345.89384 137.278749 
L 345.919285 136.685912 
L 345.944697 137.871586 
L 346.079167 138.464424 
L 346.137771 138.464424 
L 346.217597 137.871586 
L 346.243046 138.464424 
L 346.321832 138.464424 
L 346.456209 137.871586 
L 346.509009 137.871586 
L 346.623386 138.464424 
L 346.754354 138.464424 
L 346.884405 137.871586 
L 346.96386 137.871586 
L 346.991553 138.464424 
L 347.018317 137.278749 
L 347.052301 137.871586 
L 347.079438 137.871586 
L 347.161367 138.464424 
L 347.189081 137.871586 
L 347.268731 137.871586 
L 347.379354 133.128888 
L 347.406172 130.164702 
L 347.460386 134.314563 
L 347.486151 133.721726 
L 347.512604 134.314563 
L 347.644845 137.278749 
L 347.696543 137.278749 
L 347.828913 137.871586 
L 347.884324 137.871586 
L 348.016256 138.464424 
L 348.149192 137.871586 
L 348.550356 137.871586 
L 348.576738 138.464424 
L 348.65414 137.871586 
L 348.785664 137.871586 
L 348.813896 138.464424 
L 348.868251 137.871586 
L 348.947609 136.685912 
L 348.974531 137.278749 
L 349.078733 137.871586 
L 349.210021 137.278749 
L 349.260927 137.278749 
L 349.366114 136.685912 
L 349.474161 136.685912 
L 349.53428 136.093075 
L 349.664947 137.871586 
L 349.80742 136.685912 
L 349.833809 136.685912 
L 349.887662 134.314563 
L 349.914691 134.9074 
L 350.010151 136.093075 
L 350.334191 134.9074 
L 350.392252 136.093075 
L 350.485105 136.093075 
L 350.621114 129.571865 
L 350.708181 131.350376 
L 350.884149 134.314563 
L 351.028728 134.9074 
L 351.081711 134.9074 
L 351.158793 134.314563 
L 351.370666 136.093075 
L 351.434983 134.9074 
L 351.465175 136.093075 
L 351.494051 136.093075 
L 351.626512 134.314563 
L 351.711635 136.093075 
L 351.789873 136.093075 
L 351.950053 137.278749 
L 352.019266 136.093075 
L 352.049845 137.278749 
L 352.149576 137.871586 
L 352.279757 136.685912 
L 352.341938 137.871586 
L 352.368278 136.685912 
L 352.56976 134.314563 
L 352.606663 134.9074 
L 352.674127 134.314563 
L 352.699651 133.721726 
L 352.733637 134.9074 
L 352.774727 134.9074 
L 352.861373 133.721726 
L 352.962656 136.093075 
L 353.113633 136.093075 
L 353.2146 134.9074 
L 353.35086 136.093075 
L 353.472677 134.9074 
L 353.502925 134.9074 
L 353.642036 136.093075 
L 353.755311 136.093075 
L 353.809164 134.9074 
L 353.840386 136.093075 
L 353.984326 136.093075 
L 354.110542 136.685912 
L 354.656984 136.685912 
L 354.69683 136.093075 
L 354.748183 136.685912 
L 354.839749 136.685912 
L 354.975355 137.278749 
L 355.111085 136.685912 
L 355.164881 136.685912 
L 355.281386 137.278749 
L 355.455937 137.278749 
L 355.48185 137.871586 
L 355.550784 137.278749 
L 355.578906 137.278749 
L 355.659068 136.685912 
L 355.686716 137.278749 
L 355.752068 137.278749 
L 355.91693 136.685912 
L 356.107139 136.685912 
L 356.226697 137.278749 
L 356.629856 137.278749 
L 356.743719 137.871586 
L 356.969529 137.871586 
L 357.00375 138.464424 
L 357.061733 137.871586 
L 357.122068 137.871586 
L 357.232447 138.464424 
L 357.261429 138.464424 
L 357.288775 137.871586 
L 357.342228 138.464424 
L 357.583725 138.464424 
L 357.720371 137.871586 
L 357.746882 137.871586 
L 357.801743 138.464424 
L 357.854893 137.871586 
L 357.933891 137.871586 
L 358.058521 138.464424 
L 358.933462 138.464424 
L 359.076302 137.871586 
L 359.667553 137.871586 
L 359.693029 138.464424 
L 359.775005 137.871586 
L 360.177866 137.871586 
L 360.31126 138.464424 
L 360.404897 138.464424 
L 360.430304 137.871586 
L 360.487734 138.464424 
L 360.632582 138.464424 
L 360.661795 137.871586 
L 360.739593 138.464424 
L 361.077874 138.464424 
L 361.104148 139.057261 
L 361.183054 138.464424 
L 361.51927 138.464424 
L 361.654373 137.871586 
L 361.734527 137.871586 
L 361.86689 138.464424 
L 361.999523 137.871586 
L 362.025438 137.871586 
L 362.115102 138.464424 
L 362.25228 137.871586 
L 362.277736 138.464424 
L 362.337617 137.871586 
L 362.46956 137.871586 
L 362.606065 138.464424 
L 362.691648 137.871586 
L 362.825203 138.464424 
L 362.931498 137.871586 
L 363.046744 138.464424 
L 363.07262 138.464424 
L 363.101576 137.871586 
L 363.179478 138.464424 
L 363.25928 138.464424 
L 363.285954 137.871586 
L 363.363623 138.464424 
L 363.759645 138.464424 
L 363.864735 139.057261 
L 363.969829 138.464424 
L 364.074005 139.057261 
L 364.182413 138.464424 
L 364.234169 139.057261 
L 364.285415 138.464424 
L 364.311822 138.464424 
L 364.426376 139.057261 
L 364.454302 139.057261 
L 364.557222 138.464424 
L 364.689744 139.057261 
L 364.715244 139.057261 
L 364.740741 138.464424 
L 364.81719 139.057261 
L 365.632339 139.057261 
L 365.760517 139.650098 
L 365.812375 139.650098 
L 365.943718 139.057261 
L 366.075122 139.650098 
L 367.431152 139.650098 
L 367.456654 140.242935 
L 367.534497 139.650098 
L 367.927299 139.650098 
L 367.980807 140.242935 
L 368.031895 139.650098 
L 368.371938 139.650098 
L 368.474263 140.242935 
L 368.604443 139.650098 
L 368.735773 140.242935 
L 368.787991 140.242935 
L 368.89491 139.650098 
L 369.001104 140.242935 
L 369.132273 139.650098 
L 369.263541 140.242935 
L 369.296548 140.242935 
L 369.425915 139.650098 
L 369.55445 140.242935 
L 371.094952 140.242935 
L 371.173914 140.835773 
L 371.199312 140.242935 
L 371.225715 140.242935 
L 371.353117 140.835773 
L 371.50675 140.835773 
L 371.634932 140.242935 
L 371.762826 140.835773 
L 371.864494 140.835773 
L 371.967726 142.021447 
L 372.096149 140.835773 
L 372.738767 140.835773 
L 372.867301 142.021447 
L 373.693452 142.021447 
L 373.775613 140.835773 
L 373.803129 142.021447 
L 373.828728 142.021447 
L 373.940869 140.835773 
L 374.070415 142.021447 
L 374.192236 140.835773 
L 374.246542 140.835773 
L 374.272704 142.021447 
L 374.356761 140.835773 
L 374.493768 140.835773 
L 374.522212 142.021447 
L 374.602793 140.835773 
L 374.656459 140.835773 
L 374.785095 142.021447 
L 374.810853 142.021447 
L 374.943887 140.835773 
L 374.996641 140.835773 
L 375.125239 142.021447 
L 375.153768 142.021447 
L 375.282348 140.835773 
L 375.565566 140.835773 
L 375.694102 140.242935 
L 375.934249 140.242935 
L 376.061611 139.650098 
L 376.113747 139.650098 
L 376.139494 140.242935 
L 376.216918 139.650098 
L 376.377992 139.650098 
L 376.406684 140.242935 
L 376.488114 139.650098 
L 376.568591 139.650098 
L 376.595086 139.057261 
L 376.672825 139.650098 
L 376.88509 139.650098 
L 376.910917 139.057261 
L 376.989682 139.650098 
L 377.041813 139.650098 
L 377.15077 139.057261 
L 377.311387 139.057261 
L 377.445112 138.464424 
L 377.717806 138.464424 
L 377.847975 137.871586 
L 378.030244 137.871586 
L 378.185151 136.685912 
L 378.313765 136.685912 
L 378.448787 137.278749 
L 378.583478 136.685912 
L 378.665973 136.685912 
L 378.747189 134.314563 
L 378.79221 134.9074 
L 378.967012 133.128888 
L 379.032443 133.128888 
L 379.084447 132.536051 
L 379.139265 133.128888 
L 379.324751 133.128888 
L 379.431816 132.536051 
L 379.58764 133.721726 
L 379.727352 132.536051 
L 379.753872 132.536051 
L 379.859027 128.979027 
L 379.884499 131.943214 
L 379.9141 132.536051 
L 380.025721 130.164702 
L 380.051287 133.128888 
L 380.104622 129.571865 
L 380.133139 130.164702 
L 380.158666 130.164702 
L 380.321408 132.536051 
L 380.453277 131.350376 
L 380.478763 131.943214 
L 380.506703 131.350376 
L 380.609937 130.164702 
L 380.75337 132.536051 
L 380.778826 132.536051 
L 380.859689 131.943214 
L 380.972704 134.9074 
L 381.001287 134.314563 
L 381.080906 134.9074 
L 381.369686 134.9074 
L 381.506018 131.943214 
L 381.591753 134.314563 
L 381.618019 128.38619 
L 381.696405 134.314563 
L 381.721945 134.314563 
L 381.750461 133.128888 
L 381.812546 134.9074 
L 381.890211 133.721726 
L 381.916626 134.9074 
L 381.943305 134.9074 
L 382.076935 134.314563 
L 382.183177 134.314563 
L 382.312471 134.9074 
L 382.521697 134.9074 
L 382.649384 134.314563 
L 382.675932 134.314563 
L 382.770047 134.9074 
L 382.883159 134.314563 
L 383.347139 134.314563 
L 383.462124 133.128888 
L 383.51943 133.721726 
L 383.555377 133.721726 
L 383.71052 132.536051 
L 383.737456 131.350376 
L 383.771996 133.128888 
L 383.801003 132.536051 
L 383.829597 132.536051 
L 383.865351 133.128888 
L 383.925239 132.536051 
L 384.035729 131.350376 
L 384.063457 131.943214 
L 384.089962 131.943214 
L 384.172185 131.350376 
L 384.251598 133.128888 
L 384.437104 129.571865 
L 384.573646 133.721726 
L 384.600348 131.943214 
L 384.672795 133.721726 
L 384.700121 133.128888 
L 384.733345 132.536051 
L 384.849425 123.643492 
L 385.119767 129.571865 
L 385.1607 128.38619 
L 385.231439 131.943214 
L 385.293895 131.350376 
L 385.326534 129.571865 
L 385.47859 129.571865 
L 385.680459 132.536051 
L 385.74982 128.38619 
L 385.828145 128.979027 
L 385.861 128.38619 
L 386.010785 130.164702 
L 386.045194 129.571865 
L 386.16443 128.38619 
L 386.363243 131.350376 
L 386.483431 129.571865 
L 386.512321 131.350376 
L 386.542051 128.979027 
L 386.568463 129.571865 
L 386.699488 128.979027 
L 386.728416 127.200516 
L 386.761096 128.38619 
L 386.853385 128.38619 
L 387.070673 130.164702 
L 387.205374 131.350376 
L 387.276042 131.350376 
L 387.313163 129.571865 
L 387.347062 130.164702 
L 387.486111 130.164702 
L 387.544477 129.571865 
L 387.570919 130.164702 
L 387.7005 130.164702 
L 387.72935 129.571865 
L 387.90401 130.164702 
L 388.047547 129.571865 
L 388.144324 129.571865 
L 388.204745 130.164702 
L 388.232559 129.571865 
L 388.326639 130.164702 
L 388.354865 128.979027 
L 388.388421 131.350376 
L 388.427415 130.164702 
L 388.561084 129.571865 
L 388.66669 130.164702 
L 388.796568 127.793353 
L 388.852413 128.38619 
L 389.074217 131.943214 
L 389.190741 131.943214 
L 389.309619 131.350376 
L 389.421027 132.536051 
L 389.449438 131.943214 
L 389.484924 131.943214 
L 389.60097 132.536051 
L 389.656925 132.536051 
L 389.734393 133.128888 
L 389.760901 131.943214 
L 389.846631 133.128888 
L 390.463771 133.128888 
L 390.544824 131.943214 
L 390.572628 133.128888 
L 390.614787 133.128888 
L 390.68235 132.536051 
L 390.711106 133.128888 
L 390.937031 133.128888 
L 391.049668 131.350376 
L 391.075959 132.536051 
L 391.103825 132.536051 
L 391.129705 133.128888 
L 391.186407 131.943214 
L 391.327084 130.164702 
L 391.385678 130.164702 
L 391.470119 131.943214 
L 391.514957 131.350376 
L 391.725091 132.536051 
L 392.345313 132.536051 
L 392.605461 131.350376 
L 392.729667 131.350376 
L 392.864375 129.571865 
L 393.910095 129.571865 
L 394.014823 130.164702 
L 394.094174 129.571865 
L 394.119829 130.164702 
L 395.131202 130.164702 
L 395.157806 131.350376 
L 395.238113 130.164702 
L 395.263556 130.164702 
L 395.343047 131.350376 
L 395.368629 130.164702 
L 395.44653 130.164702 
L 395.550007 131.350376 
L 395.679587 130.164702 
L 395.732642 131.350376 
L 395.790665 130.164702 
L 395.927945 131.350376 
L 396.861204 131.350376 
L 396.993046 131.943214 
L 397.098517 131.350376 
L 397.232295 131.943214 
L 397.437224 131.943214 
L 397.542319 131.350376 
L 397.672156 131.943214 
L 397.826423 131.943214 
L 397.852093 131.350376 
L 397.929417 131.943214 
L 398.428174 131.943214 
L 398.513607 132.536051 
L 398.617978 131.943214 
L 398.748215 132.536051 
L 399.316269 132.536051 
L 399.341816 133.128888 
L 399.418558 132.536051 
L 399.598027 132.536051 
L 399.725873 133.128888 
L 399.854529 132.536051 
L 399.887566 132.536051 
L 400.01611 133.128888 
L 400.041567 132.536051 
L 400.122223 133.128888 
L 400.720043 133.128888 
L 400.849533 133.721726 
L 400.926266 133.128888 
L 401.017597 133.128888 
L 401.14942 133.721726 
L 401.564802 133.721726 
L 401.591045 133.128888 
L 401.669292 133.721726 
L 402.783389 133.721726 
L 402.886241 134.314563 
L 402.911677 133.721726 
L 402.991406 134.314563 
L 403.83107 134.314563 
L 403.909252 134.9074 
L 403.935123 134.314563 
L 403.98914 134.314563 
L 404.092445 134.9074 
L 404.200587 134.314563 
L 404.331611 134.9074 
L 404.464572 134.314563 
L 404.596851 134.9074 
L 404.859311 134.9074 
L 404.88473 134.314563 
L 404.963066 134.9074 
L 405.352049 134.9074 
L 405.381337 136.093075 
L 405.459273 134.9074 
L 405.565328 134.9074 
L 405.700649 136.093075 
L 405.830294 134.9074 
L 405.960325 136.093075 
L 406.222132 136.093075 
L 406.351387 136.685912 
L 406.377671 136.685912 
L 406.511469 136.093075 
L 406.563547 136.093075 
L 406.645283 136.685912 
L 406.672035 136.093075 
L 406.779492 136.093075 
L 406.805446 136.685912 
L 406.884417 136.093075 
L 407.235041 136.093075 
L 407.318872 136.685912 
L 407.457022 136.093075 
L 407.482453 136.093075 
L 407.508126 136.685912 
L 407.589851 136.093075 
L 407.619207 136.093075 
L 407.674002 136.685912 
L 407.729898 136.093075 
L 407.859014 136.093075 
L 407.884725 136.685912 
L 407.962369 136.093075 
L 408.041329 136.093075 
L 408.066741 136.685912 
L 408.14408 136.093075 
L 408.19498 136.093075 
L 408.329078 136.685912 
L 408.956125 136.685912 
L 408.982542 136.093075 
L 409.062232 136.685912 
L 409.689148 136.685912 
L 409.821261 137.278749 
L 409.951571 136.685912 
L 411.373735 136.685912 
L 411.460564 136.093075 
L 411.514689 136.685912 
L 411.568574 136.093075 
L 411.624035 136.093075 
L 411.756513 136.685912 
L 411.808218 136.685912 
L 411.943211 136.093075 
L 412.046208 136.093075 
L 412.154214 134.9074 
L 412.205258 136.093075 
L 412.259744 134.9074 
L 412.475381 134.9074 
L 412.60664 134.314563 
L 412.632585 134.9074 
L 412.712485 134.314563 
L 413.056941 134.314563 
L 413.083719 133.721726 
L 413.163397 134.314563 
L 413.268371 134.314563 
L 413.400529 133.721726 
L 413.522566 133.721726 
L 413.650792 133.128888 
L 413.783163 133.128888 
L 413.914343 132.536051 
L 414.229752 132.536051 
L 414.255748 131.943214 
L 414.334702 132.536051 
L 414.532969 132.536051 
L 414.584209 131.943214 
L 414.636363 132.536051 
L 414.661874 132.536051 
L 414.903054 129.571865 
L 414.929721 129.571865 
L 415.061685 130.164702 
L 415.087954 130.164702 
L 415.245472 128.979027 
L 415.336443 129.571865 
L 415.466787 128.979027 
L 415.492673 128.979027 
L 415.570379 129.571865 
L 415.596219 128.979027 
L 415.807096 128.979027 
L 415.940061 128.38619 
L 416.101787 128.38619 
L 416.182409 128.979027 
L 416.236566 127.793353 
L 416.366714 128.38619 
L 416.418826 128.38619 
L 416.44555 127.793353 
L 416.499271 128.979027 
L 416.528914 128.979027 
L 416.68795 126.607678 
L 416.713928 127.200516 
L 416.868565 128.38619 
L 416.895435 127.793353 
L 416.974734 128.38619 
L 417.053638 128.38619 
L 417.079009 128.979027 
L 417.157301 128.38619 
L 417.182879 127.200516 
L 417.209658 128.979027 
L 417.265545 128.979027 
L 417.42625 130.164702 
L 417.601031 128.38619 
L 417.706042 129.571865 
L 417.758219 126.014841 
L 417.810082 128.38619 
L 417.835509 128.979027 
L 417.966656 126.014841 
L 418.074192 128.979027 
L 418.100533 127.200516 
L 418.178711 127.793353 
L 418.231153 127.793353 
L 418.364766 129.571865 
L 418.47172 128.38619 
L 418.525652 129.571865 
L 418.577928 128.979027 
L 418.629319 128.38619 
L 418.65641 128.979027 
L 418.792777 130.164702 
L 418.926244 129.571865 
L 418.953763 130.164702 
L 419.005942 126.014841 
L 419.058992 128.38619 
L 419.086772 127.793353 
L 419.113077 128.38619 
L 419.138988 129.571865 
L 419.217042 128.979027 
L 419.271301 126.014841 
L 419.297116 130.164702 
L 419.402015 129.571865 
L 419.428224 129.571865 
L 419.537696 126.014841 
L 419.564202 129.571865 
L 419.670552 128.979027 
L 419.696401 128.979027 
L 419.721807 129.571865 
L 419.747467 124.236329 
L 419.85108 125.422004 
L 419.877984 126.014841 
L 419.905249 124.236329 
L 419.984206 123.643492 
L 420.010234 125.422004 
L 420.063745 122.457818 
L 420.091356 122.457818 
L 420.24648 120.679306 
L 420.541948 126.607678 
L 420.5942 126.014841 
L 420.620198 126.014841 
L 420.780963 127.200516 
L 420.806771 127.200516 
L 420.833278 127.793353 
L 420.860957 127.200516 
L 420.886469 126.014841 
L 420.912912 127.793353 
L 420.965808 127.200516 
L 421.095916 126.014841 
L 421.228512 126.607678 
L 421.254939 126.607678 
L 421.307958 126.014841 
L 421.359756 126.607678 
L 421.385322 126.607678 
L 421.440133 128.38619 
L 421.493832 127.200516 
L 421.599874 126.014841 
L 421.677307 128.38619 
L 421.728591 127.200516 
L 421.781723 126.607678 
L 421.835022 127.200516 
L 421.86271 127.200516 
L 422.018995 128.38619 
L 422.21444 124.236329 
L 422.369682 127.793353 
L 422.475388 128.38619 
L 422.602951 127.793353 
L 422.628789 127.793353 
L 422.654197 128.38619 
L 422.730635 127.793353 
L 422.782862 127.793353 
L 422.910925 128.38619 
L 422.961751 128.38619 
L 423.09214 128.979027 
L 423.118677 128.38619 
L 423.195962 128.979027 
L 423.24687 129.571865 
L 423.300065 128.979027 
L 423.352247 127.793353 
L 423.379343 124.236329 
L 423.458895 125.422004 
L 423.484756 127.793353 
L 423.563217 126.014841 
L 423.614668 126.014841 
L 423.721319 127.200516 
L 423.748024 126.607678 
L 423.773409 126.607678 
L 423.903297 127.200516 
L 423.93022 127.200516 
L 424.061886 127.793353 
L 424.087659 127.793353 
L 424.218366 126.014841 
L 424.2446 126.607678 
L 424.271422 126.607678 
L 424.327132 127.200516 
L 424.406215 125.422004 
L 424.516531 126.607678 
L 424.544065 126.607678 
L 424.673997 127.200516 
L 424.856357 127.200516 
L 424.988029 127.793353 
L 425.171168 127.793353 
L 425.226285 128.38619 
L 425.28072 127.793353 
L 425.38702 127.793353 
L 425.520656 128.38619 
L 425.546429 128.38619 
L 425.571913 127.793353 
L 425.648879 128.38619 
L 425.727007 128.38619 
L 425.860344 128.979027 
L 426.074115 128.979027 
L 426.11523 128.38619 
L 426.150035 128.979027 
L 426.241856 128.979027 
L 426.449713 128.38619 
L 427.38451 128.38619 
L 427.453214 127.793353 
L 427.478832 128.38619 
L 427.754508 128.38619 
L 427.869707 128.979027 
L 427.897551 128.979027 
L 427.95052 128.38619 
L 427.985367 128.979027 
L 428.040451 128.979027 
L 428.179432 128.38619 
L 428.208818 128.979027 
L 428.290151 128.38619 
L 428.318949 128.38619 
L 428.406207 128.979027 
L 428.513139 127.793353 
L 428.540847 128.38619 
L 428.809453 128.38619 
L 428.835298 127.793353 
L 428.914686 128.38619 
L 429.136413 128.38619 
L 429.162409 127.793353 
L 429.243522 128.38619 
L 430.435332 128.38619 
L 430.46168 128.979027 
L 430.545655 128.38619 
L 430.62703 128.38619 
L 430.71884 128.979027 
L 430.776153 128.38619 
L 430.803329 128.979027 
L 431.299337 128.979027 
L 431.40971 129.571865 
L 431.522976 128.979027 
L 431.575455 128.979027 
L 431.575455 128.979027 
" style="fill:none;stroke:#1f77b4;stroke-linecap:square;stroke-width:1.5;"/>
   </g>
   <g id="line2d_28">
    <path clip-path="url(#p42e5b41f0f)" d="M 63.084545 184.112893 
L 65.475776 184.112893 
L 65.60836 160.992239 
L 68.201852 160.992239 
L 68.331249 167.513449 
L 70.034683 167.513449 
L 70.163367 178.777357 
L 71.031362 178.777357 
L 71.159402 190.634102 
L 71.731359 190.634102 
L 137.364833 107.636886 
L 140.783692 107.636886 
L 140.888436 119.493631 
L 142.357732 119.493631 
L 142.488508 130.757539 
L 143.793922 130.757539 
L 143.923613 160.992239 
L 145.881851 160.992239 
L 146.011734 178.777357 
L 146.73822 178.777357 
L 249.495332 114.158096 
L 250.382094 114.158096 
L 250.513098 137.278749 
L 251.811747 137.278749 
L 251.943743 160.992239 
L 254.803804 160.992239 
L 254.934596 172.848985 
L 257.752723 172.848985 
L 257.882055 178.777357 
L 259.60784 178.777357 
L 259.737026 184.112893 
L 260.767912 184.112893 
L 260.901868 195.969638 
L 262.097606 195.969638 
L 262.225531 202.490848 
L 262.997256 202.490848 
L 263.135044 191.819777 
L 263.660307 191.819777 
L 263.79024 195.969638 
L 264.976968 195.969638 
L 265.029534 190.634102 
L 268.691381 190.634102 
L 268.853315 191.819777 
L 269.609693 191.819777 
L 269.752414 190.634102 
L 270.960299 190.634102 
L 271.092486 184.112893 
L 273.93315 184.112893 
L 274.063585 178.777357 
L 275.576305 178.777357 
L 275.707812 172.848985 
L 276.486942 172.848985 
L 276.618026 170.477636 
L 276.877105 170.477636 
L 276.987296 167.513449 
L 279.895631 167.513449 
L 280.026695 160.992239 
L 284.62846 160.992239 
L 284.75956 170.477636 
L 286.057122 170.477636 
L 286.172057 172.848985 
L 287.106881 172.848985 
L 287.240022 170.477636 
L 287.372529 170.477636 
L 287.483592 172.848985 
L 291.23127 172.848985 
L 291.362013 170.477636 
L 291.75264 170.477636 
L 291.883631 172.848985 
L 293.199224 172.848985 
L 293.329735 178.777357 
L 293.986638 178.777357 
L 294.120206 191.819777 
L 294.745088 191.819777 
L 294.877439 195.969638 
L 295.121645 195.969638 
L 295.252276 202.490848 
L 301.164818 202.490848 
L 301.298486 191.819777 
L 302.479799 191.819777 
L 302.60939 202.490848 
L 303.664232 202.490848 
L 303.7898 190.634102 
L 305.081097 190.634102 
L 305.208932 184.112893 
L 305.745687 184.112893 
L 305.873152 181.148706 
L 306.516155 181.148706 
L 306.652601 178.777357 
L 308.510209 178.777357 
L 308.639753 172.848985 
L 309.534953 172.848985 
L 309.666445 167.513449 
L 310.957784 167.513449 
L 311.07913 172.848985 
L 312.378774 172.848985 
L 312.541526 160.992239 
L 315.590827 160.992239 
L 315.702855 155.656704 
L 319.848718 155.656704 
L 320.032376 160.992239 
L 321.168391 160.992239 
L 321.288588 184.112893 
L 323.004588 184.112893 
L 323.122305 195.969638 
L 324.460188 195.969638 
L 324.595394 214.347593 
L 326.18974 214.347593 
L 326.317279 223.832989 
L 328.155466 223.832989 
L 328.283552 234.50406 
L 330.625094 234.50406 
L 330.75528 223.832989 
L 332.060431 223.832989 
L 332.189369 226.204338 
L 333.859685 226.204338 
L 333.987724 223.832989 
L 334.505438 223.832989 
L 334.636258 226.204338 
L 336.980024 226.204338 
L 337.110539 232.132711 
L 341.320387 232.132711 
L 341.45193 223.832989 
L 342.813877 223.832989 
L 342.94904 213.161918 
L 344.470429 213.161918 
L 344.59306 181.148706 
L 345.145195 181.148706 
L 345.277306 172.848985 
L 346.562029 172.848985 
L 346.67543 137.278749 
L 347.963779 137.278749 
L 348.096269 114.158096 
L 349.664947 114.158096 
L 349.78013 102.301351 
L 351.054169 102.301351 
L 351.158793 89.258931 
L 352.478988 89.258931 
L 352.606663 95.780141 
L 353.780793 95.780141 
L 353.898182 107.636886 
L 356.629856 107.636886 
L 356.743719 125.422004 
L 357.00375 125.422004 
L 357.122068 155.656704 
L 358.843259 155.656704 
L 358.966831 167.513449 
L 359.775005 167.513449 
L 359.885753 172.848985 
L 361.209678 172.848985 
L 361.331706 184.112893 
L 362.771536 184.112893 
L 362.905604 190.634102 
L 364.454302 190.634102 
L 364.58363 202.490848 
L 365.235999 202.490848 
L 365.367924 223.832989 
L 366.155414 223.832989 
L 366.286554 214.347593 
L 366.548632 214.347593 
L 366.67674 223.832989 
L 368.604443 223.832989 
L 368.735773 226.204338 
L 369.373343 226.204338 
L 369.502525 223.832989 
L 370.152574 223.832989 
L 370.282305 237.468246 
L 372.354158 237.468246 
L 372.483587 245.17513 
L 372.611242 245.17513 
L 372.738767 234.50406 
L 373.003122 234.50406 
L 373.131699 237.468246 
L 374.785095 237.468246 
L 374.918477 214.347593 
L 376.216918 214.347593 
L 376.351619 190.634102 
L 377.769773 190.634102 
L 377.900314 149.135494 
L 379.165783 149.135494 
L 379.299235 114.158096 
L 380.5836 114.158096 
L 380.698381 83.923396 
L 382.105509 83.923396 
L 382.235162 66.138278 
L 383.637303 66.138278 
L 383.771996 54.281533 
L 385.02704 54.281533 
L 385.1607 35.903578 
L 386.596302 35.903578 
L 386.761096 42.424787 
L 389.34237 42.424787 
L 389.510356 72.06665 
L 390.879162 72.06665 
L 390.937031 95.780141 
L 392.371642 95.780141 
L 392.526203 125.422004 
L 395.105777 125.422004 
L 395.238113 137.278749 
L 395.368629 137.278749 
L 395.498905 155.656704 
L 396.779375 155.656704 
L 396.912124 172.848985 
L 399.341816 172.848985 
L 399.469405 184.112893 
L 400.096105 184.112893 
L 400.225239 190.634102 
L 401.642861 190.634102 
L 401.776258 195.969638 
L 403.596381 195.969638 
L 403.726466 213.161918 
L 404.253201 213.161918 
L 404.384948 202.490848 
L 405.039728 202.490848 
L 405.168771 213.161918 
L 406.723689 213.161918 
L 406.858879 223.832989 
L 407.125254 223.832989 
L 407.235041 209.012057 
L 407.619207 209.012057 
L 407.756213 213.161918 
L 408.354588 213.161918 
L 408.487413 234.50406 
L 408.745909 234.50406 
L 408.876562 226.204338 
L 409.141661 226.204338 
L 409.275383 223.832989 
L 410.191537 223.832989 
L 410.327247 202.490848 
L 411.704076 202.490848 
L 411.834869 184.112893 
L 413.163397 184.112893 
L 413.294839 155.656704 
L 415.752171 155.656704 
L 415.885033 119.493631 
L 416.021102 119.493631 
L 416.152656 95.780141 
L 417.706042 95.780141 
L 417.835509 77.402186 
L 419.03233 77.402186 
L 419.164496 66.138278 
L 421.546912 66.138278 
L 421.677307 54.281533 
L 424.432504 54.281533 
L 424.569581 60.802743 
L 424.830026 60.802743 
L 424.962207 83.923396 
L 426.396766 83.923396 
L 426.532958 102.301351 
L 427.869707 102.301351 
L 427.985367 125.422004 
L 429.295889 125.422004 
L 429.428071 137.278749 
L 431.0543 137.278749 
L 431.1873 149.135494 
L 431.575455 149.135494 
L 431.575455 149.135494 
" style="fill:none;stroke:#ff7f0e;stroke-linecap:square;stroke-width:1.5;"/>
   </g>
   <g id="patch_3">
    <path d="M 44.66 255.638708 
L 44.66 25.44 
" style="fill:none;stroke:#000000;stroke-linecap:square;stroke-linejoin:miter;stroke-width:0.8;"/>
   </g>
   <g id="patch_4">
    <path d="M 450 255.638708 
L 450 25.44 
" style="fill:none;stroke:#000000;stroke-linecap:square;stroke-linejoin:miter;stroke-width:0.8;"/>
   </g>
   <g id="patch_5">
    <path d="M 44.66 255.638708 
L 450 255.638708 
" style="fill:none;stroke:#000000;stroke-linecap:square;stroke-linejoin:miter;stroke-width:0.8;"/>
   </g>
   <g id="patch_6">
    <path d="M 44.66 25.44 
L 450 25.44 
" style="fill:none;stroke:#000000;stroke-linecap:square;stroke-linejoin:miter;stroke-width:0.8;"/>
   </g>
   <g id="text_16">
    <!-- Lake Shoecraft - Water and Air Temperature -->
    <g transform="translate(115.711562 19.44)scale(0.12 -0.12)">
     <defs>
      <path d="M 9.8125 72.90625 
L 19.671875 72.90625 
L 19.671875 8.296875 
L 55.171875 8.296875 
L 55.171875 0 
L 9.8125 0 
z
" id="DejaVuSans-76"/>
      <path d="M 9.078125 75.984375 
L 18.109375 75.984375 
L 18.109375 31.109375 
L 44.921875 54.6875 
L 56.390625 54.6875 
L 27.390625 29.109375 
L 57.625 0 
L 45.90625 0 
L 18.109375 26.703125 
L 18.109375 0 
L 9.078125 0 
z
" id="DejaVuSans-107"/>
      <path d="M 53.515625 70.515625 
L 53.515625 60.890625 
Q 47.90625 63.578125 42.921875 64.890625 
Q 37.9375 66.21875 33.296875 66.21875 
Q 25.25 66.21875 20.875 63.09375 
Q 16.5 59.96875 16.5 54.203125 
Q 16.5 49.359375 19.40625 46.890625 
Q 22.3125 44.4375 30.421875 42.921875 
L 36.375 41.703125 
Q 47.40625 39.59375 52.65625 34.296875 
Q 57.90625 29 57.90625 20.125 
Q 57.90625 9.515625 50.796875 4.046875 
Q 43.703125 -1.421875 29.984375 -1.421875 
Q 24.8125 -1.421875 18.96875 -0.25 
Q 13.140625 0.921875 6.890625 3.21875 
L 6.890625 13.375 
Q 12.890625 10.015625 18.65625 8.296875 
Q 24.421875 6.59375 29.984375 6.59375 
Q 38.421875 6.59375 43.015625 9.90625 
Q 47.609375 13.234375 47.609375 19.390625 
Q 47.609375 24.75 44.3125 27.78125 
Q 41.015625 30.8125 33.5 32.328125 
L 27.484375 33.5 
Q 16.453125 35.6875 11.515625 40.375 
Q 6.59375 45.0625 6.59375 53.421875 
Q 6.59375 63.09375 13.40625 68.65625 
Q 20.21875 74.21875 32.171875 74.21875 
Q 37.3125 74.21875 42.625 73.28125 
Q 47.953125 72.359375 53.515625 70.515625 
z
" id="DejaVuSans-83"/>
      <path d="M 54.890625 33.015625 
L 54.890625 0 
L 45.90625 0 
L 45.90625 32.71875 
Q 45.90625 40.484375 42.875 44.328125 
Q 39.84375 48.1875 33.796875 48.1875 
Q 26.515625 48.1875 22.3125 43.546875 
Q 18.109375 38.921875 18.109375 30.90625 
L 18.109375 0 
L 9.078125 0 
L 9.078125 75.984375 
L 18.109375 75.984375 
L 18.109375 46.1875 
Q 21.34375 51.125 25.703125 53.5625 
Q 30.078125 56 35.796875 56 
Q 45.21875 56 50.046875 50.171875 
Q 54.890625 44.34375 54.890625 33.015625 
z
" id="DejaVuSans-104"/>
      <path d="M 30.609375 48.390625 
Q 23.390625 48.390625 19.1875 42.75 
Q 14.984375 37.109375 14.984375 27.296875 
Q 14.984375 17.484375 19.15625 11.84375 
Q 23.34375 6.203125 30.609375 6.203125 
Q 37.796875 6.203125 41.984375 11.859375 
Q 46.1875 17.53125 46.1875 27.296875 
Q 46.1875 37.015625 41.984375 42.703125 
Q 37.796875 48.390625 30.609375 48.390625 
z
M 30.609375 56 
Q 42.328125 56 49.015625 48.375 
Q 55.71875 40.765625 55.71875 27.296875 
Q 55.71875 13.875 49.015625 6.21875 
Q 42.328125 -1.421875 30.609375 -1.421875 
Q 18.84375 -1.421875 12.171875 6.21875 
Q 5.515625 13.875 5.515625 27.296875 
Q 5.515625 40.765625 12.171875 48.375 
Q 18.84375 56 30.609375 56 
z
" id="DejaVuSans-111"/>
      <path d="M 48.78125 52.59375 
L 48.78125 44.1875 
Q 44.96875 46.296875 41.140625 47.34375 
Q 37.3125 48.390625 33.40625 48.390625 
Q 24.65625 48.390625 19.8125 42.84375 
Q 14.984375 37.3125 14.984375 27.296875 
Q 14.984375 17.28125 19.8125 11.734375 
Q 24.65625 6.203125 33.40625 6.203125 
Q 37.3125 6.203125 41.140625 7.25 
Q 44.96875 8.296875 48.78125 10.40625 
L 48.78125 2.09375 
Q 45.015625 0.34375 40.984375 -0.53125 
Q 36.96875 -1.421875 32.421875 -1.421875 
Q 20.0625 -1.421875 12.78125 6.34375 
Q 5.515625 14.109375 5.515625 27.296875 
Q 5.515625 40.671875 12.859375 48.328125 
Q 20.21875 56 33.015625 56 
Q 37.15625 56 41.109375 55.140625 
Q 45.0625 54.296875 48.78125 52.59375 
z
" id="DejaVuSans-99"/>
      <path d="M 37.109375 75.984375 
L 37.109375 68.5 
L 28.515625 68.5 
Q 23.6875 68.5 21.796875 66.546875 
Q 19.921875 64.59375 19.921875 59.515625 
L 19.921875 54.6875 
L 34.71875 54.6875 
L 34.71875 47.703125 
L 19.921875 47.703125 
L 19.921875 0 
L 10.890625 0 
L 10.890625 47.703125 
L 2.296875 47.703125 
L 2.296875 54.6875 
L 10.890625 54.6875 
L 10.890625 58.5 
Q 10.890625 67.625 15.140625 71.796875 
Q 19.390625 75.984375 28.609375 75.984375 
z
" id="DejaVuSans-102"/>
      <path d="M 3.328125 72.90625 
L 13.28125 72.90625 
L 28.609375 11.28125 
L 43.890625 72.90625 
L 54.984375 72.90625 
L 70.3125 11.28125 
L 85.59375 72.90625 
L 95.609375 72.90625 
L 77.296875 0 
L 64.890625 0 
L 49.515625 63.28125 
L 33.984375 0 
L 21.578125 0 
z
" id="DejaVuSans-87"/>
      <path d="M 54.890625 33.015625 
L 54.890625 0 
L 45.90625 0 
L 45.90625 32.71875 
Q 45.90625 40.484375 42.875 44.328125 
Q 39.84375 48.1875 33.796875 48.1875 
Q 26.515625 48.1875 22.3125 43.546875 
Q 18.109375 38.921875 18.109375 30.90625 
L 18.109375 0 
L 9.078125 0 
L 9.078125 54.6875 
L 18.109375 54.6875 
L 18.109375 46.1875 
Q 21.34375 51.125 25.703125 53.5625 
Q 30.078125 56 35.796875 56 
Q 45.21875 56 50.046875 50.171875 
Q 54.890625 44.34375 54.890625 33.015625 
z
" id="DejaVuSans-110"/>
      <path d="M 45.40625 46.390625 
L 45.40625 75.984375 
L 54.390625 75.984375 
L 54.390625 0 
L 45.40625 0 
L 45.40625 8.203125 
Q 42.578125 3.328125 38.25 0.953125 
Q 33.9375 -1.421875 27.875 -1.421875 
Q 17.96875 -1.421875 11.734375 6.484375 
Q 5.515625 14.40625 5.515625 27.296875 
Q 5.515625 40.1875 11.734375 48.09375 
Q 17.96875 56 27.875 56 
Q 33.9375 56 38.25 53.625 
Q 42.578125 51.265625 45.40625 46.390625 
z
M 14.796875 27.296875 
Q 14.796875 17.390625 18.875 11.75 
Q 22.953125 6.109375 30.078125 6.109375 
Q 37.203125 6.109375 41.296875 11.75 
Q 45.40625 17.390625 45.40625 27.296875 
Q 45.40625 37.203125 41.296875 42.84375 
Q 37.203125 48.484375 30.078125 48.484375 
Q 22.953125 48.484375 18.875 42.84375 
Q 14.796875 37.203125 14.796875 27.296875 
z
" id="DejaVuSans-100"/>
      <path d="M 34.1875 63.1875 
L 20.796875 26.90625 
L 47.609375 26.90625 
z
M 28.609375 72.90625 
L 39.796875 72.90625 
L 67.578125 0 
L 57.328125 0 
L 50.6875 18.703125 
L 17.828125 18.703125 
L 11.1875 0 
L 0.78125 0 
z
" id="DejaVuSans-65"/>
      <path d="M 9.421875 54.6875 
L 18.40625 54.6875 
L 18.40625 0 
L 9.421875 0 
z
M 9.421875 75.984375 
L 18.40625 75.984375 
L 18.40625 64.59375 
L 9.421875 64.59375 
z
" id="DejaVuSans-105"/>
     </defs>
     <use xlink:href="#DejaVuSans-76"/>
     <use x="55.712891" xlink:href="#DejaVuSans-97"/>
     <use x="116.992188" xlink:href="#DejaVuSans-107"/>
     <use x="171.277344" xlink:href="#DejaVuSans-101"/>
     <use x="232.800781" xlink:href="#DejaVuSans-32"/>
     <use x="264.587891" xlink:href="#DejaVuSans-83"/>
     <use x="328.064453" xlink:href="#DejaVuSans-104"/>
     <use x="391.443359" xlink:href="#DejaVuSans-111"/>
     <use x="452.625" xlink:href="#DejaVuSans-101"/>
     <use x="514.148438" xlink:href="#DejaVuSans-99"/>
     <use x="569.128906" xlink:href="#DejaVuSans-114"/>
     <use x="610.242188" xlink:href="#DejaVuSans-97"/>
     <use x="671.521484" xlink:href="#DejaVuSans-102"/>
     <use x="704.976562" xlink:href="#DejaVuSans-116"/>
     <use x="744.185547" xlink:href="#DejaVuSans-32"/>
     <use x="775.972656" xlink:href="#DejaVuSans-45"/>
     <use x="812.056641" xlink:href="#DejaVuSans-32"/>
     <use x="843.84375" xlink:href="#DejaVuSans-87"/>
     <use x="936.345703" xlink:href="#DejaVuSans-97"/>
     <use x="997.625" xlink:href="#DejaVuSans-116"/>
     <use x="1036.833984" xlink:href="#DejaVuSans-101"/>
     <use x="1098.357422" xlink:href="#DejaVuSans-114"/>
     <use x="1139.470703" xlink:href="#DejaVuSans-32"/>
     <use x="1171.257812" xlink:href="#DejaVuSans-97"/>
     <use x="1232.537109" xlink:href="#DejaVuSans-110"/>
     <use x="1295.916016" xlink:href="#DejaVuSans-100"/>
     <use x="1359.392578" xlink:href="#DejaVuSans-32"/>
     <use x="1391.179688" xlink:href="#DejaVuSans-65"/>
     <use x="1459.587891" xlink:href="#DejaVuSans-105"/>
     <use x="1487.371094" xlink:href="#DejaVuSans-114"/>
     <use x="1528.484375" xlink:href="#DejaVuSans-32"/>
     <use x="1560.271484" xlink:href="#DejaVuSans-84"/>
     <use x="1604.355469" xlink:href="#DejaVuSans-101"/>
     <use x="1665.878906" xlink:href="#DejaVuSans-109"/>
     <use x="1763.291016" xlink:href="#DejaVuSans-112"/>
     <use x="1826.767578" xlink:href="#DejaVuSans-101"/>
     <use x="1888.291016" xlink:href="#DejaVuSans-114"/>
     <use x="1929.404297" xlink:href="#DejaVuSans-97"/>
     <use x="1990.683594" xlink:href="#DejaVuSans-116"/>
     <use x="2029.892578" xlink:href="#DejaVuSans-117"/>
     <use x="2093.271484" xlink:href="#DejaVuSans-114"/>
     <use x="2132.134766" xlink:href="#DejaVuSans-101"/>
    </g>
   </g>
   <g id="legend_1">
    <g id="patch_7">
     <path d="M 51.66 62.79625 
L 136.769375 62.79625 
Q 138.769375 62.79625 138.769375 60.79625 
L 138.769375 32.44 
Q 138.769375 30.44 136.769375 30.44 
L 51.66 30.44 
Q 49.66 30.44 49.66 32.44 
L 49.66 60.79625 
Q 49.66 62.79625 51.66 62.79625 
z
" style="fill:#ffffff;opacity:0.8;stroke:#cccccc;stroke-linejoin:miter;"/>
    </g>
    <g id="line2d_29">
     <path d="M 53.66 38.538437 
L 73.66 38.538437 
" style="fill:none;stroke:#1f77b4;stroke-linecap:square;stroke-width:1.5;"/>
    </g>
    <g id="line2d_30"/>
    <g id="text_17">
     <!-- Lake Temp -->
     <g transform="translate(81.66 42.038437)scale(0.1 -0.1)">
      <use xlink:href="#DejaVuSans-76"/>
      <use x="55.712891" xlink:href="#DejaVuSans-97"/>
      <use x="116.992188" xlink:href="#DejaVuSans-107"/>
      <use x="171.277344" xlink:href="#DejaVuSans-101"/>
      <use x="232.800781" xlink:href="#DejaVuSans-32"/>
      <use x="264.587891" xlink:href="#DejaVuSans-84"/>
      <use x="308.671875" xlink:href="#DejaVuSans-101"/>
      <use x="370.195312" xlink:href="#DejaVuSans-109"/>
      <use x="467.607422" xlink:href="#DejaVuSans-112"/>
     </g>
    </g>
    <g id="line2d_31">
     <path d="M 53.66 53.216562 
L 73.66 53.216562 
" style="fill:none;stroke:#ff7f0e;stroke-linecap:square;stroke-width:1.5;"/>
    </g>
    <g id="line2d_32"/>
    <g id="text_18">
     <!-- Air Temp -->
     <g transform="translate(81.66 56.716562)scale(0.1 -0.1)">
      <use xlink:href="#DejaVuSans-65"/>
      <use x="68.408203" xlink:href="#DejaVuSans-105"/>
      <use x="96.191406" xlink:href="#DejaVuSans-114"/>
      <use x="137.304688" xlink:href="#DejaVuSans-32"/>
      <use x="169.091797" xlink:href="#DejaVuSans-84"/>
      <use x="213.175781" xlink:href="#DejaVuSans-101"/>
      <use x="274.699219" xlink:href="#DejaVuSans-109"/>
      <use x="372.111328" xlink:href="#DejaVuSans-112"/>
     </g>
    </g>
   </g>
  </g>
 </g>
 <defs>
  <clipPath id="p42e5b41f0f">
   <rect height="230.198708" width="405.34" x="44.66" y="25.44"/>
  </clipPath>
 </defs>
</svg>
