<?xml version="1.0" encoding="utf-8" standalone="no"?>
<!DOCTYPE svg PUBLIC "-//W3C//DTD SVG 1.1//EN"
  "http://www.w3.org/Graphics/SVG/1.1/DTD/svg11.dtd">
<!-- Created with matplotlib (https://matplotlib.org/) -->
<svg height="345.6pt" version="1.1" viewBox="0 0 460.8 345.6" width="460.8pt" xmlns="http://www.w3.org/2000/svg" xmlns:xlink="http://www.w3.org/1999/xlink">
 <metadata>
  <rdf:RDF xmlns:cc="http://creativecommons.org/ns#" xmlns:dc="http://purl.org/dc/elements/1.1/" xmlns:rdf="http://www.w3.org/1999/02/22-rdf-syntax-ns#">
   <cc:Work>
    <dc:type rdf:resource="http://purl.org/dc/dcmitype/StillImage"/>
    <dc:date>2024-09-06T17:58:01.460284</dc:date>
    <dc:format>image/svg+xml</dc:format>
    <dc:creator>
     <cc:Agent>
      <dc:title>Matplotlib v3.3.2, https://matplotlib.org/</dc:title>
     </cc:Agent>
    </dc:creator>
   </cc:Work>
  </rdf:RDF>
 </metadata>
 <defs>
  <style type="text/css">*{stroke-linecap:butt;stroke-linejoin:round;}</style>
 </defs>
 <g id="figure_1">
  <g id="patch_1">
   <path d="M 0 345.6 
L 460.8 345.6 
L 460.8 0 
L 0 0 
z
" style="fill:none;"/>
  </g>
  <g id="axes_1">
   <g id="patch_2">
    <path d="M 44.66 255.638708 
L 443.508168 255.638708 
L 443.508168 25.44 
L 44.66 25.44 
z
" style="fill:none;"/>
   </g>
   <g id="matplotlib.axis_1">
    <g id="xtick_1">
     <g id="line2d_1">
      <path clip-path="url(#pcd450b8f92)" d="M 113.52097 255.638708 
L 113.52097 25.44 
" style="fill:none;stroke:#b0b0b0;stroke-linecap:square;stroke-width:0.8;"/>
     </g>
     <g id="line2d_2">
      <defs>
       <path d="M 0 0 
L 0 3.5 
" id="mf4d0597466" style="stroke:#000000;stroke-width:0.8;"/>
      </defs>
      <g>
       <use style="stroke:#000000;stroke-width:0.8;" x="113.52097" xlink:href="#mf4d0597466" y="255.638708"/>
      </g>
     </g>
     <g id="text_1">
      <!-- 2024-08-29 -->
      <g transform="translate(106.175578 319.848351)rotate(-70)scale(0.1 -0.1)">
       <defs>
        <path d="M 19.1875 8.296875 
L 53.609375 8.296875 
L 53.609375 0 
L 7.328125 0 
L 7.328125 8.296875 
Q 12.9375 14.109375 22.625 23.890625 
Q 32.328125 33.6875 34.8125 36.53125 
Q 39.546875 41.84375 41.421875 45.53125 
Q 43.3125 49.21875 43.3125 52.78125 
Q 43.3125 58.59375 39.234375 62.25 
Q 35.15625 65.921875 28.609375 65.921875 
Q 23.96875 65.921875 18.8125 64.3125 
Q 13.671875 62.703125 7.8125 59.421875 
L 7.8125 69.390625 
Q 13.765625 71.78125 18.9375 73 
Q 24.125 74.21875 28.421875 74.21875 
Q 39.75 74.21875 46.484375 68.546875 
Q 53.21875 62.890625 53.21875 53.421875 
Q 53.21875 48.921875 51.53125 44.890625 
Q 49.859375 40.875 45.40625 35.40625 
Q 44.1875 33.984375 37.640625 27.21875 
Q 31.109375 20.453125 19.1875 8.296875 
z
" id="DejaVuSans-50"/>
        <path d="M 31.78125 66.40625 
Q 24.171875 66.40625 20.328125 58.90625 
Q 16.5 51.421875 16.5 36.375 
Q 16.5 21.390625 20.328125 13.890625 
Q 24.171875 6.390625 31.78125 6.390625 
Q 39.453125 6.390625 43.28125 13.890625 
Q 47.125 21.390625 47.125 36.375 
Q 47.125 51.421875 43.28125 58.90625 
Q 39.453125 66.40625 31.78125 66.40625 
z
M 31.78125 74.21875 
Q 44.046875 74.21875 50.515625 64.515625 
Q 56.984375 54.828125 56.984375 36.375 
Q 56.984375 17.96875 50.515625 8.265625 
Q 44.046875 -1.421875 31.78125 -1.421875 
Q 19.53125 -1.421875 13.0625 8.265625 
Q 6.59375 17.96875 6.59375 36.375 
Q 6.59375 54.828125 13.0625 64.515625 
Q 19.53125 74.21875 31.78125 74.21875 
z
" id="DejaVuSans-48"/>
        <path d="M 37.796875 64.3125 
L 12.890625 25.390625 
L 37.796875 25.390625 
z
M 35.203125 72.90625 
L 47.609375 72.90625 
L 47.609375 25.390625 
L 58.015625 25.390625 
L 58.015625 17.1875 
L 47.609375 17.1875 
L 47.609375 0 
L 37.796875 0 
L 37.796875 17.1875 
L 4.890625 17.1875 
L 4.890625 26.703125 
z
" id="DejaVuSans-52"/>
        <path d="M 4.890625 31.390625 
L 31.203125 31.390625 
L 31.203125 23.390625 
L 4.890625 23.390625 
z
" id="DejaVuSans-45"/>
        <path d="M 31.78125 34.625 
Q 24.75 34.625 20.71875 30.859375 
Q 16.703125 27.09375 16.703125 20.515625 
Q 16.703125 13.921875 20.71875 10.15625 
Q 24.75 6.390625 31.78125 6.390625 
Q 38.8125 6.390625 42.859375 10.171875 
Q 46.921875 13.96875 46.921875 20.515625 
Q 46.921875 27.09375 42.890625 30.859375 
Q 38.875 34.625 31.78125 34.625 
z
M 21.921875 38.8125 
Q 15.578125 40.375 12.03125 44.71875 
Q 8.5 49.078125 8.5 55.328125 
Q 8.5 64.0625 14.71875 69.140625 
Q 20.953125 74.21875 31.78125 74.21875 
Q 42.671875 74.21875 48.875 69.140625 
Q 55.078125 64.0625 55.078125 55.328125 
Q 55.078125 49.078125 51.53125 44.71875 
Q 48 40.375 41.703125 38.8125 
Q 48.828125 37.15625 52.796875 32.3125 
Q 56.78125 27.484375 56.78125 20.515625 
Q 56.78125 9.90625 50.3125 4.234375 
Q 43.84375 -1.421875 31.78125 -1.421875 
Q 19.734375 -1.421875 13.25 4.234375 
Q 6.78125 9.90625 6.78125 20.515625 
Q 6.78125 27.484375 10.78125 32.3125 
Q 14.796875 37.15625 21.921875 38.8125 
z
M 18.3125 54.390625 
Q 18.3125 48.734375 21.84375 45.5625 
Q 25.390625 42.390625 31.78125 42.390625 
Q 38.140625 42.390625 41.71875 45.5625 
Q 45.3125 48.734375 45.3125 54.390625 
Q 45.3125 60.0625 41.71875 63.234375 
Q 38.140625 66.40625 31.78125 66.40625 
Q 25.390625 66.40625 21.84375 63.234375 
Q 18.3125 60.0625 18.3125 54.390625 
z
" id="DejaVuSans-56"/>
        <path d="M 10.984375 1.515625 
L 10.984375 10.5 
Q 14.703125 8.734375 18.5 7.8125 
Q 22.3125 6.890625 25.984375 6.890625 
Q 35.75 6.890625 40.890625 13.453125 
Q 46.046875 20.015625 46.78125 33.40625 
Q 43.953125 29.203125 39.59375 26.953125 
Q 35.25 24.703125 29.984375 24.703125 
Q 19.046875 24.703125 12.671875 31.3125 
Q 6.296875 37.9375 6.296875 49.421875 
Q 6.296875 60.640625 12.9375 67.421875 
Q 19.578125 74.21875 30.609375 74.21875 
Q 43.265625 74.21875 49.921875 64.515625 
Q 56.59375 54.828125 56.59375 36.375 
Q 56.59375 19.140625 48.40625 8.859375 
Q 40.234375 -1.421875 26.421875 -1.421875 
Q 22.703125 -1.421875 18.890625 -0.6875 
Q 15.09375 0.046875 10.984375 1.515625 
z
M 30.609375 32.421875 
Q 37.25 32.421875 41.125 36.953125 
Q 45.015625 41.5 45.015625 49.421875 
Q 45.015625 57.28125 41.125 61.84375 
Q 37.25 66.40625 30.609375 66.40625 
Q 23.96875 66.40625 20.09375 61.84375 
Q 16.21875 57.28125 16.21875 49.421875 
Q 16.21875 41.5 20.09375 36.953125 
Q 23.96875 32.421875 30.609375 32.421875 
z
" id="DejaVuSans-57"/>
       </defs>
       <use xlink:href="#DejaVuSans-50"/>
       <use x="63.623047" xlink:href="#DejaVuSans-48"/>
       <use x="127.246094" xlink:href="#DejaVuSans-50"/>
       <use x="190.869141" xlink:href="#DejaVuSans-52"/>
       <use x="254.492188" xlink:href="#DejaVuSans-45"/>
       <use x="290.576172" xlink:href="#DejaVuSans-48"/>
       <use x="354.199219" xlink:href="#DejaVuSans-56"/>
       <use x="417.822266" xlink:href="#DejaVuSans-45"/>
       <use x="453.90625" xlink:href="#DejaVuSans-50"/>
       <use x="517.529297" xlink:href="#DejaVuSans-57"/>
      </g>
     </g>
    </g>
    <g id="xtick_2">
     <g id="line2d_3">
      <path clip-path="url(#pcd450b8f92)" d="M 184.819606 255.638708 
L 184.819606 25.44 
" style="fill:none;stroke:#b0b0b0;stroke-linecap:square;stroke-width:0.8;"/>
     </g>
     <g id="line2d_4">
      <g>
       <use style="stroke:#000000;stroke-width:0.8;" x="184.819606" xlink:href="#mf4d0597466" y="255.638708"/>
      </g>
     </g>
     <g id="text_2">
      <!-- 2024-08-31 -->
      <g transform="translate(177.474214 319.848351)rotate(-70)scale(0.1 -0.1)">
       <defs>
        <path d="M 40.578125 39.3125 
Q 47.65625 37.796875 51.625 33 
Q 55.609375 28.21875 55.609375 21.1875 
Q 55.609375 10.40625 48.1875 4.484375 
Q 40.765625 -1.421875 27.09375 -1.421875 
Q 22.515625 -1.421875 17.65625 -0.515625 
Q 12.796875 0.390625 7.625 2.203125 
L 7.625 11.71875 
Q 11.71875 9.328125 16.59375 8.109375 
Q 21.484375 6.890625 26.8125 6.890625 
Q 36.078125 6.890625 40.9375 10.546875 
Q 45.796875 14.203125 45.796875 21.1875 
Q 45.796875 27.640625 41.28125 31.265625 
Q 36.765625 34.90625 28.71875 34.90625 
L 20.21875 34.90625 
L 20.21875 43.015625 
L 29.109375 43.015625 
Q 36.375 43.015625 40.234375 45.921875 
Q 44.09375 48.828125 44.09375 54.296875 
Q 44.09375 59.90625 40.109375 62.90625 
Q 36.140625 65.921875 28.71875 65.921875 
Q 24.65625 65.921875 20.015625 65.03125 
Q 15.375 64.15625 9.8125 62.3125 
L 9.8125 71.09375 
Q 15.4375 72.65625 20.34375 73.4375 
Q 25.25 74.21875 29.59375 74.21875 
Q 40.828125 74.21875 47.359375 69.109375 
Q 53.90625 64.015625 53.90625 55.328125 
Q 53.90625 49.265625 50.4375 45.09375 
Q 46.96875 40.921875 40.578125 39.3125 
z
" id="DejaVuSans-51"/>
        <path d="M 12.40625 8.296875 
L 28.515625 8.296875 
L 28.515625 63.921875 
L 10.984375 60.40625 
L 10.984375 69.390625 
L 28.421875 72.90625 
L 38.28125 72.90625 
L 38.28125 8.296875 
L 54.390625 8.296875 
L 54.390625 0 
L 12.40625 0 
z
" id="DejaVuSans-49"/>
       </defs>
       <use xlink:href="#DejaVuSans-50"/>
       <use x="63.623047" xlink:href="#DejaVuSans-48"/>
       <use x="127.246094" xlink:href="#DejaVuSans-50"/>
       <use x="190.869141" xlink:href="#DejaVuSans-52"/>
       <use x="254.492188" xlink:href="#DejaVuSans-45"/>
       <use x="290.576172" xlink:href="#DejaVuSans-48"/>
       <use x="354.199219" xlink:href="#DejaVuSans-56"/>
       <use x="417.822266" xlink:href="#DejaVuSans-45"/>
       <use x="453.90625" xlink:href="#DejaVuSans-51"/>
       <use x="517.529297" xlink:href="#DejaVuSans-49"/>
      </g>
     </g>
    </g>
    <g id="xtick_3">
     <g id="line2d_5">
      <path clip-path="url(#pcd450b8f92)" d="M 220.468924 255.638708 
L 220.468924 25.44 
" style="fill:none;stroke:#b0b0b0;stroke-linecap:square;stroke-width:0.8;"/>
     </g>
     <g id="line2d_6">
      <g>
       <use style="stroke:#000000;stroke-width:0.8;" x="220.468924" xlink:href="#mf4d0597466" y="255.638708"/>
      </g>
     </g>
     <g id="text_3">
      <!-- 2024-09-01 -->
      <g transform="translate(213.123532 319.848351)rotate(-70)scale(0.1 -0.1)">
       <use xlink:href="#DejaVuSans-50"/>
       <use x="63.623047" xlink:href="#DejaVuSans-48"/>
       <use x="127.246094" xlink:href="#DejaVuSans-50"/>
       <use x="190.869141" xlink:href="#DejaVuSans-52"/>
       <use x="254.492188" xlink:href="#DejaVuSans-45"/>
       <use x="290.576172" xlink:href="#DejaVuSans-48"/>
       <use x="354.199219" xlink:href="#DejaVuSans-57"/>
       <use x="417.822266" xlink:href="#DejaVuSans-45"/>
       <use x="453.90625" xlink:href="#DejaVuSans-48"/>
       <use x="517.529297" xlink:href="#DejaVuSans-49"/>
      </g>
     </g>
    </g>
    <g id="xtick_4">
     <g id="line2d_7">
      <path clip-path="url(#pcd450b8f92)" d="M 291.76756 255.638708 
L 291.76756 25.44 
" style="fill:none;stroke:#b0b0b0;stroke-linecap:square;stroke-width:0.8;"/>
     </g>
     <g id="line2d_8">
      <g>
       <use style="stroke:#000000;stroke-width:0.8;" x="291.76756" xlink:href="#mf4d0597466" y="255.638708"/>
      </g>
     </g>
     <g id="text_4">
      <!-- 2024-09-03 -->
      <g transform="translate(284.422168 319.848351)rotate(-70)scale(0.1 -0.1)">
       <use xlink:href="#DejaVuSans-50"/>
       <use x="63.623047" xlink:href="#DejaVuSans-48"/>
       <use x="127.246094" xlink:href="#DejaVuSans-50"/>
       <use x="190.869141" xlink:href="#DejaVuSans-52"/>
       <use x="254.492188" xlink:href="#DejaVuSans-45"/>
       <use x="290.576172" xlink:href="#DejaVuSans-48"/>
       <use x="354.199219" xlink:href="#DejaVuSans-57"/>
       <use x="417.822266" xlink:href="#DejaVuSans-45"/>
       <use x="453.90625" xlink:href="#DejaVuSans-48"/>
       <use x="517.529297" xlink:href="#DejaVuSans-51"/>
      </g>
     </g>
    </g>
    <g id="xtick_5">
     <g id="line2d_9">
      <path clip-path="url(#pcd450b8f92)" d="M 363.066196 255.638708 
L 363.066196 25.44 
" style="fill:none;stroke:#b0b0b0;stroke-linecap:square;stroke-width:0.8;"/>
     </g>
     <g id="line2d_10">
      <g>
       <use style="stroke:#000000;stroke-width:0.8;" x="363.066196" xlink:href="#mf4d0597466" y="255.638708"/>
      </g>
     </g>
     <g id="text_5">
      <!-- 2024-09-05 -->
      <g transform="translate(355.720804 319.848351)rotate(-70)scale(0.1 -0.1)">
       <defs>
        <path d="M 10.796875 72.90625 
L 49.515625 72.90625 
L 49.515625 64.59375 
L 19.828125 64.59375 
L 19.828125 46.734375 
Q 21.96875 47.46875 24.109375 47.828125 
Q 26.265625 48.1875 28.421875 48.1875 
Q 40.625 48.1875 47.75 41.5 
Q 54.890625 34.8125 54.890625 23.390625 
Q 54.890625 11.625 47.5625 5.09375 
Q 40.234375 -1.421875 26.90625 -1.421875 
Q 22.3125 -1.421875 17.546875 -0.640625 
Q 12.796875 0.140625 7.71875 1.703125 
L 7.71875 11.625 
Q 12.109375 9.234375 16.796875 8.0625 
Q 21.484375 6.890625 26.703125 6.890625 
Q 35.15625 6.890625 40.078125 11.328125 
Q 45.015625 15.765625 45.015625 23.390625 
Q 45.015625 31 40.078125 35.4375 
Q 35.15625 39.890625 26.703125 39.890625 
Q 22.75 39.890625 18.8125 39.015625 
Q 14.890625 38.140625 10.796875 36.28125 
z
" id="DejaVuSans-53"/>
       </defs>
       <use xlink:href="#DejaVuSans-50"/>
       <use x="63.623047" xlink:href="#DejaVuSans-48"/>
       <use x="127.246094" xlink:href="#DejaVuSans-50"/>
       <use x="190.869141" xlink:href="#DejaVuSans-52"/>
       <use x="254.492188" xlink:href="#DejaVuSans-45"/>
       <use x="290.576172" xlink:href="#DejaVuSans-48"/>
       <use x="354.199219" xlink:href="#DejaVuSans-57"/>
       <use x="417.822266" xlink:href="#DejaVuSans-45"/>
       <use x="453.90625" xlink:href="#DejaVuSans-48"/>
       <use x="517.529297" xlink:href="#DejaVuSans-53"/>
      </g>
     </g>
    </g>
    <g id="xtick_6">
     <g id="line2d_11">
      <path clip-path="url(#pcd450b8f92)" d="M 434.364832 255.638708 
L 434.364832 25.44 
" style="fill:none;stroke:#b0b0b0;stroke-linecap:square;stroke-width:0.8;"/>
     </g>
     <g id="line2d_12">
      <g>
       <use style="stroke:#000000;stroke-width:0.8;" x="434.364832" xlink:href="#mf4d0597466" y="255.638708"/>
      </g>
     </g>
     <g id="text_6">
      <!-- 2024-09-07 -->
      <g transform="translate(427.01944 319.848351)rotate(-70)scale(0.1 -0.1)">
       <defs>
        <path d="M 8.203125 72.90625 
L 55.078125 72.90625 
L 55.078125 68.703125 
L 28.609375 0 
L 18.3125 0 
L 43.21875 64.59375 
L 8.203125 64.59375 
z
" id="DejaVuSans-55"/>
       </defs>
       <use xlink:href="#DejaVuSans-50"/>
       <use x="63.623047" xlink:href="#DejaVuSans-48"/>
       <use x="127.246094" xlink:href="#DejaVuSans-50"/>
       <use x="190.869141" xlink:href="#DejaVuSans-52"/>
       <use x="254.492188" xlink:href="#DejaVuSans-45"/>
       <use x="290.576172" xlink:href="#DejaVuSans-48"/>
       <use x="354.199219" xlink:href="#DejaVuSans-57"/>
       <use x="417.822266" xlink:href="#DejaVuSans-45"/>
       <use x="453.90625" xlink:href="#DejaVuSans-48"/>
       <use x="517.529297" xlink:href="#DejaVuSans-55"/>
      </g>
     </g>
    </g>
    <g id="text_7">
     <!-- Date -->
     <g transform="translate(232.133303 332.158083)scale(0.1 -0.1)">
      <defs>
       <path d="M 19.671875 64.796875 
L 19.671875 8.109375 
L 31.59375 8.109375 
Q 46.6875 8.109375 53.6875 14.9375 
Q 60.6875 21.78125 60.6875 36.53125 
Q 60.6875 51.171875 53.6875 57.984375 
Q 46.6875 64.796875 31.59375 64.796875 
z
M 9.8125 72.90625 
L 30.078125 72.90625 
Q 51.265625 72.90625 61.171875 64.09375 
Q 71.09375 55.28125 71.09375 36.53125 
Q 71.09375 17.671875 61.125 8.828125 
Q 51.171875 0 30.078125 0 
L 9.8125 0 
z
" id="DejaVuSans-68"/>
       <path d="M 34.28125 27.484375 
Q 23.390625 27.484375 19.1875 25 
Q 14.984375 22.515625 14.984375 16.5 
Q 14.984375 11.71875 18.140625 8.90625 
Q 21.296875 6.109375 26.703125 6.109375 
Q 34.1875 6.109375 38.703125 11.40625 
Q 43.21875 16.703125 43.21875 25.484375 
L 43.21875 27.484375 
z
M 52.203125 31.203125 
L 52.203125 0 
L 43.21875 0 
L 43.21875 8.296875 
Q 40.140625 3.328125 35.546875 0.953125 
Q 30.953125 -1.421875 24.3125 -1.421875 
Q 15.921875 -1.421875 10.953125 3.296875 
Q 6 8.015625 6 15.921875 
Q 6 25.140625 12.171875 29.828125 
Q 18.359375 34.515625 30.609375 34.515625 
L 43.21875 34.515625 
L 43.21875 35.40625 
Q 43.21875 41.609375 39.140625 45 
Q 35.0625 48.390625 27.6875 48.390625 
Q 23 48.390625 18.546875 47.265625 
Q 14.109375 46.140625 10.015625 43.890625 
L 10.015625 52.203125 
Q 14.9375 54.109375 19.578125 55.046875 
Q 24.21875 56 28.609375 56 
Q 40.484375 56 46.34375 49.84375 
Q 52.203125 43.703125 52.203125 31.203125 
z
" id="DejaVuSans-97"/>
       <path d="M 18.3125 70.21875 
L 18.3125 54.6875 
L 36.8125 54.6875 
L 36.8125 47.703125 
L 18.3125 47.703125 
L 18.3125 18.015625 
Q 18.3125 11.328125 20.140625 9.421875 
Q 21.96875 7.515625 27.59375 7.515625 
L 36.8125 7.515625 
L 36.8125 0 
L 27.59375 0 
Q 17.1875 0 13.234375 3.875 
Q 9.28125 7.765625 9.28125 18.015625 
L 9.28125 47.703125 
L 2.6875 47.703125 
L 2.6875 54.6875 
L 9.28125 54.6875 
L 9.28125 70.21875 
z
" id="DejaVuSans-116"/>
       <path d="M 56.203125 29.59375 
L 56.203125 25.203125 
L 14.890625 25.203125 
Q 15.484375 15.921875 20.484375 11.0625 
Q 25.484375 6.203125 34.421875 6.203125 
Q 39.59375 6.203125 44.453125 7.46875 
Q 49.3125 8.734375 54.109375 11.28125 
L 54.109375 2.78125 
Q 49.265625 0.734375 44.1875 -0.34375 
Q 39.109375 -1.421875 33.890625 -1.421875 
Q 20.796875 -1.421875 13.15625 6.1875 
Q 5.515625 13.8125 5.515625 26.8125 
Q 5.515625 40.234375 12.765625 48.109375 
Q 20.015625 56 32.328125 56 
Q 43.359375 56 49.78125 48.890625 
Q 56.203125 41.796875 56.203125 29.59375 
z
M 47.21875 32.234375 
Q 47.125 39.59375 43.09375 43.984375 
Q 39.0625 48.390625 32.421875 48.390625 
Q 24.90625 48.390625 20.390625 44.140625 
Q 15.875 39.890625 15.1875 32.171875 
z
" id="DejaVuSans-101"/>
      </defs>
      <use xlink:href="#DejaVuSans-68"/>
      <use x="77.001953" xlink:href="#DejaVuSans-97"/>
      <use x="138.28125" xlink:href="#DejaVuSans-116"/>
      <use x="177.490234" xlink:href="#DejaVuSans-101"/>
     </g>
    </g>
   </g>
   <g id="matplotlib.axis_2">
    <g id="ytick_1">
     <g id="line2d_13">
      <path clip-path="url(#pcd450b8f92)" d="M 44.66 226.204338 
L 443.508168 226.204338 
" style="fill:none;stroke:#b0b0b0;stroke-linecap:square;stroke-width:0.8;"/>
     </g>
     <g id="line2d_14">
      <defs>
       <path d="M 0 0 
L -3.5 0 
" id="m459e285560" style="stroke:#000000;stroke-width:0.8;"/>
      </defs>
      <g>
       <use style="stroke:#000000;stroke-width:0.8;" x="44.66" xlink:href="#m459e285560" y="226.204338"/>
      </g>
     </g>
     <g id="text_8">
      <!-- 55 -->
      <g transform="translate(24.935 230.003557)scale(0.1 -0.1)">
       <use xlink:href="#DejaVuSans-53"/>
       <use x="63.623047" xlink:href="#DejaVuSans-53"/>
      </g>
     </g>
    </g>
    <g id="ytick_2">
     <g id="line2d_15">
      <path clip-path="url(#pcd450b8f92)" d="M 44.66 196.562475 
L 443.508168 196.562475 
" style="fill:none;stroke:#b0b0b0;stroke-linecap:square;stroke-width:0.8;"/>
     </g>
     <g id="line2d_16">
      <g>
       <use style="stroke:#000000;stroke-width:0.8;" x="44.66" xlink:href="#m459e285560" y="196.562475"/>
      </g>
     </g>
     <g id="text_9">
      <!-- 60 -->
      <g transform="translate(24.935 200.361694)scale(0.1 -0.1)">
       <defs>
        <path d="M 33.015625 40.375 
Q 26.375 40.375 22.484375 35.828125 
Q 18.609375 31.296875 18.609375 23.390625 
Q 18.609375 15.53125 22.484375 10.953125 
Q 26.375 6.390625 33.015625 6.390625 
Q 39.65625 6.390625 43.53125 10.953125 
Q 47.40625 15.53125 47.40625 23.390625 
Q 47.40625 31.296875 43.53125 35.828125 
Q 39.65625 40.375 33.015625 40.375 
z
M 52.59375 71.296875 
L 52.59375 62.3125 
Q 48.875 64.0625 45.09375 64.984375 
Q 41.3125 65.921875 37.59375 65.921875 
Q 27.828125 65.921875 22.671875 59.328125 
Q 17.53125 52.734375 16.796875 39.40625 
Q 19.671875 43.65625 24.015625 45.921875 
Q 28.375 48.1875 33.59375 48.1875 
Q 44.578125 48.1875 50.953125 41.515625 
Q 57.328125 34.859375 57.328125 23.390625 
Q 57.328125 12.15625 50.6875 5.359375 
Q 44.046875 -1.421875 33.015625 -1.421875 
Q 20.359375 -1.421875 13.671875 8.265625 
Q 6.984375 17.96875 6.984375 36.375 
Q 6.984375 53.65625 15.1875 63.9375 
Q 23.390625 74.21875 37.203125 74.21875 
Q 40.921875 74.21875 44.703125 73.484375 
Q 48.484375 72.75 52.59375 71.296875 
z
" id="DejaVuSans-54"/>
       </defs>
       <use xlink:href="#DejaVuSans-54"/>
       <use x="63.623047" xlink:href="#DejaVuSans-48"/>
      </g>
     </g>
    </g>
    <g id="ytick_3">
     <g id="line2d_17">
      <path clip-path="url(#pcd450b8f92)" d="M 44.66 166.920612 
L 443.508168 166.920612 
" style="fill:none;stroke:#b0b0b0;stroke-linecap:square;stroke-width:0.8;"/>
     </g>
     <g id="line2d_18">
      <g>
       <use style="stroke:#000000;stroke-width:0.8;" x="44.66" xlink:href="#m459e285560" y="166.920612"/>
      </g>
     </g>
     <g id="text_10">
      <!-- 65 -->
      <g transform="translate(24.935 170.719831)scale(0.1 -0.1)">
       <use xlink:href="#DejaVuSans-54"/>
       <use x="63.623047" xlink:href="#DejaVuSans-53"/>
      </g>
     </g>
    </g>
    <g id="ytick_4">
     <g id="line2d_19">
      <path clip-path="url(#pcd450b8f92)" d="M 44.66 137.278749 
L 443.508168 137.278749 
" style="fill:none;stroke:#b0b0b0;stroke-linecap:square;stroke-width:0.8;"/>
     </g>
     <g id="line2d_20">
      <g>
       <use style="stroke:#000000;stroke-width:0.8;" x="44.66" xlink:href="#m459e285560" y="137.278749"/>
      </g>
     </g>
     <g id="text_11">
      <!-- 70 -->
      <g transform="translate(24.935 141.077968)scale(0.1 -0.1)">
       <use xlink:href="#DejaVuSans-55"/>
       <use x="63.623047" xlink:href="#DejaVuSans-48"/>
      </g>
     </g>
    </g>
    <g id="ytick_5">
     <g id="line2d_21">
      <path clip-path="url(#pcd450b8f92)" d="M 44.66 107.636886 
L 443.508168 107.636886 
" style="fill:none;stroke:#b0b0b0;stroke-linecap:square;stroke-width:0.8;"/>
     </g>
     <g id="line2d_22">
      <g>
       <use style="stroke:#000000;stroke-width:0.8;" x="44.66" xlink:href="#m459e285560" y="107.636886"/>
      </g>
     </g>
     <g id="text_12">
      <!-- 75 -->
      <g transform="translate(24.935 111.436105)scale(0.1 -0.1)">
       <use xlink:href="#DejaVuSans-55"/>
       <use x="63.623047" xlink:href="#DejaVuSans-53"/>
      </g>
     </g>
    </g>
    <g id="ytick_6">
     <g id="line2d_23">
      <path clip-path="url(#pcd450b8f92)" d="M 44.66 77.995023 
L 443.508168 77.995023 
" style="fill:none;stroke:#b0b0b0;stroke-linecap:square;stroke-width:0.8;"/>
     </g>
     <g id="line2d_24">
      <g>
       <use style="stroke:#000000;stroke-width:0.8;" x="44.66" xlink:href="#m459e285560" y="77.995023"/>
      </g>
     </g>
     <g id="text_13">
      <!-- 80 -->
      <g transform="translate(24.935 81.794242)scale(0.1 -0.1)">
       <use xlink:href="#DejaVuSans-56"/>
       <use x="63.623047" xlink:href="#DejaVuSans-48"/>
      </g>
     </g>
    </g>
    <g id="ytick_7">
     <g id="line2d_25">
      <path clip-path="url(#pcd450b8f92)" d="M 44.66 48.35316 
L 443.508168 48.35316 
" style="fill:none;stroke:#b0b0b0;stroke-linecap:square;stroke-width:0.8;"/>
     </g>
     <g id="line2d_26">
      <g>
       <use style="stroke:#000000;stroke-width:0.8;" x="44.66" xlink:href="#m459e285560" y="48.35316"/>
      </g>
     </g>
     <g id="text_14">
      <!-- 85 -->
      <g transform="translate(24.935 52.152379)scale(0.1 -0.1)">
       <use xlink:href="#DejaVuSans-56"/>
       <use x="63.623047" xlink:href="#DejaVuSans-53"/>
      </g>
     </g>
    </g>
    <g id="text_15">
     <!-- Temperature [F] -->
     <g transform="translate(18.855313 180.575291)rotate(-90)scale(0.1 -0.1)">
      <defs>
       <path d="M -0.296875 72.90625 
L 61.375 72.90625 
L 61.375 64.59375 
L 35.5 64.59375 
L 35.5 0 
L 25.59375 0 
L 25.59375 64.59375 
L -0.296875 64.59375 
z
" id="DejaVuSans-84"/>
       <path d="M 52 44.1875 
Q 55.375 50.25 60.0625 53.125 
Q 64.75 56 71.09375 56 
Q 79.640625 56 84.28125 50.015625 
Q 88.921875 44.046875 88.921875 33.015625 
L 88.921875 0 
L 79.890625 0 
L 79.890625 32.71875 
Q 79.890625 40.578125 77.09375 44.375 
Q 74.3125 48.1875 68.609375 48.1875 
Q 61.625 48.1875 57.5625 43.546875 
Q 53.515625 38.921875 53.515625 30.90625 
L 53.515625 0 
L 44.484375 0 
L 44.484375 32.71875 
Q 44.484375 40.625 41.703125 44.40625 
Q 38.921875 48.1875 33.109375 48.1875 
Q 26.21875 48.1875 22.15625 43.53125 
Q 18.109375 38.875 18.109375 30.90625 
L 18.109375 0 
L 9.078125 0 
L 9.078125 54.6875 
L 18.109375 54.6875 
L 18.109375 46.1875 
Q 21.1875 51.21875 25.484375 53.609375 
Q 29.78125 56 35.6875 56 
Q 41.65625 56 45.828125 52.96875 
Q 50 49.953125 52 44.1875 
z
" id="DejaVuSans-109"/>
       <path d="M 18.109375 8.203125 
L 18.109375 -20.796875 
L 9.078125 -20.796875 
L 9.078125 54.6875 
L 18.109375 54.6875 
L 18.109375 46.390625 
Q 20.953125 51.265625 25.265625 53.625 
Q 29.59375 56 35.59375 56 
Q 45.5625 56 51.78125 48.09375 
Q 58.015625 40.1875 58.015625 27.296875 
Q 58.015625 14.40625 51.78125 6.484375 
Q 45.5625 -1.421875 35.59375 -1.421875 
Q 29.59375 -1.421875 25.265625 0.953125 
Q 20.953125 3.328125 18.109375 8.203125 
z
M 48.6875 27.296875 
Q 48.6875 37.203125 44.609375 42.84375 
Q 40.53125 48.484375 33.40625 48.484375 
Q 26.265625 48.484375 22.1875 42.84375 
Q 18.109375 37.203125 18.109375 27.296875 
Q 18.109375 17.390625 22.1875 11.75 
Q 26.265625 6.109375 33.40625 6.109375 
Q 40.53125 6.109375 44.609375 11.75 
Q 48.6875 17.390625 48.6875 27.296875 
z
" id="DejaVuSans-112"/>
       <path d="M 41.109375 46.296875 
Q 39.59375 47.171875 37.8125 47.578125 
Q 36.03125 48 33.890625 48 
Q 26.265625 48 22.1875 43.046875 
Q 18.109375 38.09375 18.109375 28.8125 
L 18.109375 0 
L 9.078125 0 
L 9.078125 54.6875 
L 18.109375 54.6875 
L 18.109375 46.1875 
Q 20.953125 51.171875 25.484375 53.578125 
Q 30.03125 56 36.53125 56 
Q 37.453125 56 38.578125 55.875 
Q 39.703125 55.765625 41.0625 55.515625 
z
" id="DejaVuSans-114"/>
       <path d="M 8.5 21.578125 
L 8.5 54.6875 
L 17.484375 54.6875 
L 17.484375 21.921875 
Q 17.484375 14.15625 20.5 10.265625 
Q 23.53125 6.390625 29.59375 6.390625 
Q 36.859375 6.390625 41.078125 11.03125 
Q 45.3125 15.671875 45.3125 23.6875 
L 45.3125 54.6875 
L 54.296875 54.6875 
L 54.296875 0 
L 45.3125 0 
L 45.3125 8.40625 
Q 42.046875 3.421875 37.71875 1 
Q 33.40625 -1.421875 27.6875 -1.421875 
Q 18.265625 -1.421875 13.375 4.4375 
Q 8.5 10.296875 8.5 21.578125 
z
M 31.109375 56 
z
" id="DejaVuSans-117"/>
       <path id="DejaVuSans-32"/>
       <path d="M 8.59375 75.984375 
L 29.296875 75.984375 
L 29.296875 69 
L 17.578125 69 
L 17.578125 -6.203125 
L 29.296875 -6.203125 
L 29.296875 -13.1875 
L 8.59375 -13.1875 
z
" id="DejaVuSans-91"/>
       <path d="M 9.8125 72.90625 
L 51.703125 72.90625 
L 51.703125 64.59375 
L 19.671875 64.59375 
L 19.671875 43.109375 
L 48.578125 43.109375 
L 48.578125 34.8125 
L 19.671875 34.8125 
L 19.671875 0 
L 9.8125 0 
z
" id="DejaVuSans-70"/>
       <path d="M 30.421875 75.984375 
L 30.421875 -13.1875 
L 9.71875 -13.1875 
L 9.71875 -6.203125 
L 21.390625 -6.203125 
L 21.390625 69 
L 9.71875 69 
L 9.71875 75.984375 
z
" id="DejaVuSans-93"/>
      </defs>
      <use xlink:href="#DejaVuSans-84"/>
      <use x="44.083984" xlink:href="#DejaVuSans-101"/>
      <use x="105.607422" xlink:href="#DejaVuSans-109"/>
      <use x="203.019531" xlink:href="#DejaVuSans-112"/>
      <use x="266.496094" xlink:href="#DejaVuSans-101"/>
      <use x="328.019531" xlink:href="#DejaVuSans-114"/>
      <use x="369.132812" xlink:href="#DejaVuSans-97"/>
      <use x="430.412109" xlink:href="#DejaVuSans-116"/>
      <use x="469.621094" xlink:href="#DejaVuSans-117"/>
      <use x="533" xlink:href="#DejaVuSans-114"/>
      <use x="571.863281" xlink:href="#DejaVuSans-101"/>
      <use x="633.386719" xlink:href="#DejaVuSans-32"/>
      <use x="665.173828" xlink:href="#DejaVuSans-91"/>
      <use x="704.1875" xlink:href="#DejaVuSans-70"/>
      <use x="761.707031" xlink:href="#DejaVuSans-93"/>
     </g>
    </g>
   </g>
   <g id="line2d_27">
    <path clip-path="url(#pcd450b8f92)" d="M 62.789462 143.799959 
L 62.843872 143.799959 
L 62.972608 143.207122 
L 63.101154 143.207122 
L 63.126872 143.799959 
L 63.178748 142.614284 
L 63.204339 143.207122 
L 63.229962 143.207122 
L 63.359502 142.614284 
L 63.411976 142.614284 
L 63.490476 142.021447 
L 63.51613 142.614284 
L 63.595529 142.614284 
L 63.647014 143.207122 
L 63.67282 142.614284 
L 63.751947 143.207122 
L 63.803538 142.021447 
L 63.856542 142.021447 
L 63.961577 140.835773 
L 63.987138 142.021447 
L 64.013258 140.242935 
L 64.065175 140.835773 
L 64.194957 140.242935 
L 64.220746 140.242935 
L 64.352582 139.650098 
L 64.455821 140.835773 
L 64.588021 139.650098 
L 64.7439 140.835773 
L 64.769601 140.835773 
L 64.795222 140.242935 
L 64.87456 140.835773 
L 64.901076 140.835773 
L 65.085057 139.057261 
L 65.16414 140.242935 
L 65.190692 139.057261 
L 65.296919 139.057261 
L 65.32383 138.464424 
L 65.37547 139.057261 
L 65.40153 139.650098 
L 65.471709 139.057261 
L 65.550127 139.057261 
L 65.603254 138.464424 
L 65.656634 139.057261 
L 65.78946 140.835773 
L 65.815122 140.242935 
L 65.842784 140.242935 
L 65.980953 142.021447 
L 66.110903 140.835773 
L 66.216165 140.242935 
L 66.26897 140.835773 
L 66.321286 140.242935 
L 66.346852 140.242935 
L 66.400226 142.021447 
L 66.452731 140.242935 
L 66.478288 140.242935 
L 66.611225 142.021447 
L 66.637032 140.242935 
L 66.714964 142.021447 
L 66.793424 143.207122 
L 66.820994 142.021447 
L 66.846576 140.835773 
L 66.872194 143.207122 
L 66.898867 144.392796 
L 66.951787 142.021447 
L 66.977333 142.614284 
L 67.059996 140.242935 
L 67.165321 144.392796 
L 67.191037 142.614284 
L 67.218622 142.614284 
L 67.299892 144.392796 
L 67.350982 143.799959 
L 67.508462 144.985633 
L 67.744534 144.985633 
L 67.849046 145.578471 
L 67.928167 144.985633 
L 67.953847 145.578471 
L 67.98033 145.578471 
L 68.031732 144.392796 
L 68.084634 145.578471 
L 68.112468 145.578471 
L 68.190705 143.207122 
L 68.217649 144.985633 
L 68.244606 146.764145 
L 68.323832 145.578471 
L 68.376018 145.578471 
L 68.534373 143.799959 
L 68.666119 144.392796 
L 68.691842 144.392796 
L 68.770085 144.985633 
L 68.795976 143.207122 
L 68.875231 145.578471 
L 68.900872 144.392796 
L 68.92836 144.392796 
L 69.057644 145.578471 
L 69.083788 144.392796 
L 69.160931 144.985633 
L 69.266536 144.985633 
L 69.400235 145.578471 
L 69.560271 144.392796 
L 69.715525 145.578471 
L 70.05485 145.578471 
L 70.186035 146.764145 
L 70.636021 146.764145 
L 70.742559 147.356982 
L 70.872561 146.764145 
L 71.003266 147.356982 
L 71.420709 147.356982 
L 71.446701 147.94982 
L 71.472432 147.356982 
L 137.353736 147.94982 
L 137.380347 147.356982 
L 137.692123 145.578471 
L 137.827032 147.356982 
L 137.853422 145.578471 
L 137.916802 147.356982 
L 138.040159 144.985633 
L 138.121181 143.207122 
L 138.146807 144.985633 
L 138.207223 144.985633 
L 138.378506 146.764145 
L 138.488431 146.764145 
L 138.51402 147.356982 
L 138.540806 145.578471 
L 138.567636 145.578471 
L 138.593995 146.764145 
L 138.62079 144.985633 
L 138.649169 144.985633 
L 138.73262 140.242935 
L 138.78088 143.207122 
L 138.917189 145.578471 
L 138.946682 144.392796 
L 139.025719 145.578471 
L 139.051342 145.578471 
L 139.090498 146.764145 
L 139.142833 145.578471 
L 139.174717 144.985633 
L 139.226346 145.578471 
L 139.283775 145.578471 
L 139.416904 139.650098 
L 139.546752 145.578471 
L 139.650725 139.057261 
L 139.729663 140.242935 
L 139.833002 144.985633 
L 139.897642 146.764145 
L 139.9232 144.985633 
L 140.046275 144.392796 
L 140.098478 144.392796 
L 140.125575 143.799959 
L 140.151292 144.392796 
L 140.256858 146.764145 
L 140.282834 145.578471 
L 140.340615 145.578471 
L 140.506677 139.650098 
L 140.649009 145.578471 
L 140.681759 146.764145 
L 140.707425 144.392796 
L 140.735863 144.985633 
L 140.762397 144.392796 
L 140.813501 145.578471 
L 140.839512 145.578471 
L 140.866592 146.764145 
L 140.892116 144.985633 
L 140.918683 145.578471 
L 141.023877 145.578471 
L 141.050502 144.392796 
L 141.105831 145.578471 
L 141.132576 147.356982 
L 141.184951 144.985633 
L 141.236425 144.985633 
L 141.263379 145.578471 
L 141.291216 142.021447 
L 141.372233 142.614284 
L 141.426071 144.985633 
L 141.479401 143.207122 
L 141.635482 144.985633 
L 141.771145 144.392796 
L 141.849217 143.799959 
L 141.900335 144.985633 
L 141.926228 144.985633 
L 141.951758 144.392796 
L 142.030511 144.985633 
L 142.186707 146.764145 
L 142.212271 145.578471 
L 142.28961 146.764145 
L 142.419693 147.356982 
L 142.759614 147.356982 
L 142.838426 147.94982 
L 142.864894 147.356982 
L 143.127256 147.356982 
L 143.153055 144.985633 
L 143.230994 146.764145 
L 143.282913 146.764145 
L 143.417639 147.356982 
L 143.469652 147.356982 
L 143.495724 146.764145 
L 143.572755 147.356982 
L 143.59882 147.356982 
L 143.730094 147.94982 
L 144.288218 147.94982 
L 144.316045 148.542657 
L 144.341685 147.94982 
L 144.482498 147.356982 
L 144.755179 147.356982 
L 144.886831 146.764145 
L 145.280991 146.764145 
L 145.306578 147.356982 
L 145.384463 146.764145 
L 145.595342 146.764145 
L 145.675417 147.356982 
L 145.700986 146.764145 
L 145.880998 146.764145 
L 145.958588 147.356982 
L 145.984282 146.764145 
L 146.037469 146.764145 
L 146.167648 147.356982 
L 146.193318 147.356982 
L 146.321829 146.764145 
L 146.347341 146.764145 
L 146.424063 147.356982 
L 146.450497 146.764145 
L 146.792928 146.764145 
L 249.795769 130.164702 
L 249.855278 131.350376 
L 249.97971 131.350376 
L 250.005493 130.164702 
L 250.058853 131.350376 
L 250.1428 131.350376 
L 250.16939 130.164702 
L 250.253485 131.350376 
L 250.46274 131.350376 
L 250.51556 131.943214 
L 250.567778 131.350376 
L 250.703395 131.350376 
L 250.730404 131.943214 
L 250.786678 131.350376 
L 250.817633 131.350376 
L 250.922499 131.943214 
L 250.975366 131.943214 
L 251.001733 131.350376 
L 251.078661 131.943214 
L 251.156727 131.943214 
L 251.234313 131.350376 
L 251.259863 131.943214 
L 251.298462 131.350376 
L 251.362825 131.943214 
L 251.912423 131.943214 
L 252.041124 132.536051 
L 252.119484 131.943214 
L 252.146279 132.536051 
L 252.172462 132.536051 
L 252.305811 131.943214 
L 252.361126 131.943214 
L 252.489658 132.536051 
L 252.962932 132.536051 
L 252.988759 133.128888 
L 253.06642 132.536051 
L 253.148038 132.536051 
L 253.176617 133.128888 
L 253.24083 132.536051 
L 253.480527 132.536051 
L 253.614077 133.128888 
L 254.699697 133.128888 
L 254.726546 133.721726 
L 254.77988 133.128888 
L 255.017604 133.128888 
L 255.125603 133.721726 
L 255.258307 133.128888 
L 255.388927 133.721726 
L 255.737991 133.721726 
L 255.861361 134.314563 
L 255.990653 133.721726 
L 256.728008 133.721726 
L 256.753518 133.128888 
L 256.833044 133.721726 
L 256.992685 133.721726 
L 257.124068 133.128888 
L 257.176145 133.128888 
L 257.307197 133.721726 
L 257.675973 133.721726 
L 257.701514 134.314563 
L 257.778037 133.721726 
L 258.245322 133.721726 
L 258.27163 133.128888 
L 258.350485 133.721726 
L 258.401502 133.721726 
L 258.435822 133.128888 
L 258.492254 133.721726 
L 258.726443 133.721726 
L 258.752792 133.128888 
L 258.831746 133.721726 
L 259.647417 133.721726 
L 259.778769 134.314563 
L 259.804814 134.314563 
L 259.913144 133.721726 
L 260.028005 134.314563 
L 260.160026 133.721726 
L 260.26423 134.314563 
L 260.395286 133.721726 
L 260.500669 133.721726 
L 260.628971 134.314563 
L 261.06359 134.314563 
L 261.089435 134.9074 
L 261.166366 134.314563 
L 261.460986 134.314563 
L 261.540859 134.9074 
L 261.567913 134.314563 
L 261.620398 134.314563 
L 261.698849 134.9074 
L 261.724429 134.314563 
L 261.780439 134.314563 
L 261.916041 134.9074 
L 261.943717 134.314563 
L 261.996329 134.9074 
L 262.817679 134.9074 
L 262.952096 136.093075 
L 263.085061 134.9074 
L 263.35375 134.9074 
L 263.405497 136.093075 
L 263.459656 134.9074 
L 263.676456 134.9074 
L 263.781907 136.093075 
L 263.910903 134.9074 
L 264.042727 136.093075 
L 264.178266 134.9074 
L 264.203916 134.9074 
L 264.334392 136.093075 
L 264.46656 134.9074 
L 264.598261 136.093075 
L 265.282503 136.093075 
L 265.363586 136.685912 
L 265.38957 136.093075 
L 265.526082 136.093075 
L 265.552915 136.685912 
L 265.578867 136.093075 
L 265.864005 136.093075 
L 265.970041 136.685912 
L 266.102184 136.093075 
L 266.23466 136.685912 
L 267.052592 136.685912 
L 267.130558 137.278749 
L 267.158846 136.685912 
L 267.184481 136.685912 
L 267.263087 137.278749 
L 267.289138 136.685912 
L 267.314706 136.685912 
L 267.444883 137.278749 
L 267.940723 137.278749 
L 268.047068 136.685912 
L 268.177549 137.278749 
L 269.230362 137.278749 
L 269.256027 137.871586 
L 269.315268 137.278749 
L 270.239216 137.278749 
L 270.34906 137.871586 
L 270.428767 137.278749 
L 270.573001 137.871586 
L 271.268779 137.871586 
L 271.294409 137.278749 
L 271.37485 137.871586 
L 271.482071 137.871586 
L 271.56039 137.278749 
L 271.586261 137.871586 
L 271.693888 137.871586 
L 271.827127 137.278749 
L 271.931479 137.278749 
L 271.957011 137.871586 
L 272.036881 137.278749 
L 272.08928 137.278749 
L 272.197509 137.871586 
L 272.329336 137.278749 
L 272.511 137.278749 
L 272.62089 137.871586 
L 272.75401 137.278749 
L 273.561753 137.278749 
L 273.693378 136.685912 
L 273.905741 136.685912 
L 273.959001 136.093075 
L 274.012271 136.685912 
L 274.145745 136.685912 
L 274.204907 136.093075 
L 274.231315 136.685912 
L 274.284386 136.685912 
L 274.31165 136.093075 
L 274.389845 136.685912 
L 275.109071 136.685912 
L 275.241031 136.093075 
L 275.301086 136.093075 
L 275.326884 136.685912 
L 275.404053 136.093075 
L 275.484973 136.093075 
L 275.616798 134.9074 
L 275.855923 134.9074 
L 275.907597 134.314563 
L 275.960799 134.9074 
L 276.563816 134.9074 
L 276.641731 134.314563 
L 276.667417 134.9074 
L 276.79925 134.9074 
L 276.929196 134.314563 
L 276.981638 134.314563 
L 277.110541 133.721726 
L 277.137744 133.721726 
L 277.2677 134.314563 
L 277.318782 134.314563 
L 277.449051 133.721726 
L 277.528295 134.314563 
L 277.670197 133.721726 
L 277.724493 133.721726 
L 277.856042 134.314563 
L 277.883362 134.314563 
L 277.990743 133.721726 
L 278.12597 134.314563 
L 278.209868 134.314563 
L 278.235505 133.721726 
L 278.313752 134.314563 
L 278.660547 134.314563 
L 278.765999 133.721726 
L 278.818871 134.314563 
L 278.87165 133.721726 
L 278.927351 133.721726 
L 279.062047 134.314563 
L 279.171144 133.721726 
L 279.251287 134.314563 
L 279.280426 133.721726 
L 279.415084 133.721726 
L 279.547459 134.314563 
L 279.681038 133.721726 
L 279.842038 133.721726 
L 279.871027 134.314563 
L 279.932824 133.721726 
L 280.041796 133.721726 
L 280.068065 134.314563 
L 280.148794 133.721726 
L 280.325845 133.721726 
L 280.351414 132.536051 
L 280.429803 133.128888 
L 280.481168 133.128888 
L 280.611887 133.721726 
L 280.690445 133.721726 
L 280.742091 134.314563 
L 280.794697 133.721726 
L 280.924524 133.128888 
L 280.977193 133.128888 
L 281.002815 133.721726 
L 281.082152 133.128888 
L 281.109237 133.128888 
L 281.242807 133.721726 
L 281.511267 133.721726 
L 281.536952 134.314563 
L 281.590253 133.721726 
L 281.670593 133.128888 
L 281.696136 133.721726 
L 282.121041 133.721726 
L 282.251002 134.314563 
L 282.278329 134.314563 
L 282.305104 133.721726 
L 282.382273 134.314563 
L 282.669941 134.314563 
L 282.775268 133.721726 
L 282.922062 134.314563 
L 283.211831 134.314563 
L 283.288588 134.9074 
L 283.314496 134.314563 
L 283.499136 134.314563 
L 283.526353 133.721726 
L 283.603835 134.314563 
L 283.895831 134.314563 
L 283.922283 134.9074 
L 283.999583 134.314563 
L 284.330259 134.314563 
L 284.436504 134.9074 
L 284.542303 134.314563 
L 284.675423 134.9074 
L 285.074194 134.9074 
L 285.126598 134.314563 
L 285.181952 134.9074 
L 285.259745 134.9074 
L 285.286997 134.314563 
L 285.365418 134.9074 
L 286.063129 134.9074 
L 286.089752 136.093075 
L 286.153479 134.9074 
L 286.206024 134.9074 
L 286.293933 136.093075 
L 286.404133 134.9074 
L 286.537556 136.093075 
L 286.563107 136.093075 
L 286.588742 134.9074 
L 286.66754 136.093075 
L 286.782006 136.093075 
L 286.88909 134.9074 
L 287.03424 136.093075 
L 287.679987 136.093075 
L 287.775073 136.685912 
L 287.909153 136.093075 
L 287.935879 136.093075 
L 288.067916 136.685912 
L 288.093459 136.093075 
L 288.157596 136.685912 
L 288.870298 136.685912 
L 288.895842 137.278749 
L 288.973645 136.685912 
L 289.396058 136.685912 
L 289.526661 137.278749 
L 289.606126 136.685912 
L 289.632989 137.278749 
L 289.685869 137.278749 
L 289.793625 136.685912 
L 289.932564 137.278749 
L 291.371055 137.278749 
L 291.399699 137.871586 
L 291.454983 137.278749 
L 291.538377 137.278749 
L 291.591772 137.871586 
L 291.646035 137.278749 
L 291.675368 137.278749 
L 291.783393 137.871586 
L 291.810009 137.278749 
L 291.890164 137.871586 
L 292.15211 137.871586 
L 292.179419 137.278749 
L 292.258242 137.871586 
L 292.335783 137.871586 
L 292.36135 137.278749 
L 292.439313 137.871586 
L 292.625521 137.871586 
L 292.65321 138.464424 
L 292.731684 137.871586 
L 293.426671 137.871586 
L 293.453442 137.278749 
L 293.535634 137.871586 
L 294.710281 137.871586 
L 294.736639 138.464424 
L 294.818613 137.871586 
L 295.197438 137.871586 
L 295.286028 138.464424 
L 295.418675 137.871586 
L 295.444319 137.871586 
L 295.578027 138.464424 
L 295.875534 138.464424 
L 295.901548 137.871586 
L 295.982093 138.464424 
L 296.301865 138.464424 
L 296.330307 137.871586 
L 296.408109 138.464424 
L 297.616743 138.464424 
L 297.645467 139.057261 
L 297.722797 138.464424 
L 297.802128 138.464424 
L 297.829297 139.057261 
L 297.912351 138.464424 
L 298.067659 138.464424 
L 298.170681 139.057261 
L 298.281983 138.464424 
L 298.389072 139.057261 
L 298.414577 138.464424 
L 298.492981 139.057261 
L 298.518665 139.057261 
L 298.64937 138.464424 
L 298.782567 139.057261 
L 298.889653 139.057261 
L 298.995123 138.464424 
L 299.100605 139.057261 
L 299.126212 138.464424 
L 299.20691 139.057261 
L 299.391366 139.057261 
L 299.418909 138.464424 
L 299.496458 139.057261 
L 301.368389 139.057261 
L 301.395133 139.650098 
L 301.473457 139.057261 
L 301.60524 139.057261 
L 301.630943 139.650098 
L 301.710367 139.057261 
L 301.761637 139.057261 
L 301.890921 139.650098 
L 302.025443 139.057261 
L 302.05336 139.057261 
L 302.187969 139.650098 
L 302.215563 139.650098 
L 302.31968 139.057261 
L 302.45094 139.650098 
L 303.13295 139.650098 
L 303.158928 140.242935 
L 303.237048 139.650098 
L 303.525505 139.650098 
L 303.608223 140.242935 
L 303.742141 139.650098 
L 303.769992 139.650098 
L 303.796014 140.242935 
L 303.824982 139.650098 
L 303.909487 140.242935 
L 303.989798 139.650098 
L 304.016299 140.242935 
L 304.042913 140.242935 
L 304.156696 139.650098 
L 304.183483 140.242935 
L 304.242635 139.650098 
L 304.347286 139.650098 
L 304.375114 140.242935 
L 304.501207 139.650098 
L 305.926273 139.650098 
L 306.012066 139.057261 
L 306.116978 139.650098 
L 306.232491 139.057261 
L 306.283707 139.650098 
L 306.334856 139.057261 
L 307.042236 139.057261 
L 307.1592 138.464424 
L 307.267444 139.057261 
L 307.297332 139.057261 
L 307.432864 137.871586 
L 307.462453 137.871586 
L 307.489893 138.464424 
L 307.5706 137.871586 
L 307.728991 137.871586 
L 307.861744 137.278749 
L 307.997264 137.278749 
L 308.030964 136.685912 
L 308.107956 137.278749 
L 308.189473 137.278749 
L 308.273407 137.871586 
L 308.298954 137.278749 
L 308.357243 137.278749 
L 308.460059 137.871586 
L 308.615551 136.685912 
L 308.666849 136.685912 
L 308.795647 137.278749 
L 308.898481 136.685912 
L 308.924263 137.278749 
L 309.001152 136.685912 
L 309.078611 136.685912 
L 309.104704 137.278749 
L 309.157118 136.685912 
L 309.215778 136.685912 
L 309.345665 137.278749 
L 309.37144 136.685912 
L 309.448516 137.278749 
L 309.792874 137.278749 
L 309.895278 136.685912 
L 310.031682 137.278749 
L 310.167973 137.278749 
L 310.193668 136.685912 
L 310.270383 137.278749 
L 310.427949 137.278749 
L 310.557837 136.685912 
L 310.691593 137.278749 
L 310.819919 136.685912 
L 311.211217 136.685912 
L 311.305941 137.278749 
L 311.44448 136.685912 
L 312.139905 136.685912 
L 312.23464 136.093075 
L 312.533112 136.093075 
L 312.55908 136.685912 
L 312.602114 136.093075 
L 313.289528 136.093075 
L 313.381662 136.685912 
L 313.522195 136.093075 
L 313.756961 136.093075 
L 313.797274 136.685912 
L 313.827285 134.9074 
L 313.890573 136.093075 
L 313.984979 136.093075 
L 314.102219 134.9074 
L 314.686607 134.9074 
L 314.92319 133.721726 
L 315.04456 134.314563 
L 315.807963 134.314563 
L 315.841653 133.721726 
L 315.905479 134.314563 
L 316.043222 134.314563 
L 316.101314 133.721726 
L 316.130549 134.314563 
L 316.156979 134.314563 
L 316.217763 133.721726 
L 316.383254 133.721726 
L 316.409025 134.314563 
L 316.464075 133.721726 
L 316.549974 133.721726 
L 316.663571 133.128888 
L 316.748135 133.721726 
L 316.863855 133.128888 
L 316.961875 133.128888 
L 317.070538 133.721726 
L 317.218329 133.721726 
L 317.245003 134.314563 
L 317.274699 133.721726 
L 317.495876 133.721726 
L 317.638736 133.128888 
L 317.710659 133.721726 
L 317.892356 132.536051 
L 317.918895 133.128888 
L 318.088802 132.536051 
L 318.315139 131.943214 
L 318.441973 132.536051 
L 318.577847 131.943214 
L 318.604331 131.943214 
L 318.633996 132.536051 
L 318.919579 132.536051 
L 318.954594 133.128888 
L 319.028977 132.536051 
L 319.178622 132.536051 
L 319.316047 133.128888 
L 319.827308 133.128888 
L 319.881341 132.536051 
L 319.909308 133.128888 
L 319.941143 133.128888 
L 320.032894 132.536051 
L 320.11672 132.536051 
L 320.236961 133.128888 
L 320.352428 132.536051 
L 320.448009 132.536051 
L 320.571385 133.128888 
L 320.769923 133.128888 
L 320.8117 133.721726 
L 320.872666 133.128888 
L 320.900024 133.128888 
L 320.984343 133.721726 
L 321.090811 133.128888 
L 321.240208 133.721726 
L 321.391477 133.721726 
L 321.511824 134.314563 
L 321.589659 133.721726 
L 321.634456 134.9074 
L 321.700261 134.314563 
L 321.899274 134.314563 
L 322.01238 134.9074 
L 322.042578 134.9074 
L 322.073165 134.314563 
L 322.135078 134.9074 
L 322.388978 134.9074 
L 322.4187 136.093075 
L 322.448303 134.9074 
L 322.638856 136.093075 
L 323.010107 136.093075 
L 323.069751 136.685912 
L 323.095399 136.093075 
L 323.122786 136.093075 
L 323.247393 136.685912 
L 323.715894 136.685912 
L 323.826439 137.278749 
L 323.941971 136.685912 
L 323.994782 137.278749 
L 324.078765 136.685912 
L 324.105512 137.278749 
L 324.166533 137.278749 
L 324.222672 136.685912 
L 324.256901 137.278749 
L 324.845721 137.278749 
L 324.979797 137.871586 
L 325.63991 137.871586 
L 325.717731 138.464424 
L 325.751529 137.871586 
L 326.081332 137.871586 
L 326.210367 138.464424 
L 326.344214 137.871586 
L 326.397624 137.871586 
L 326.529602 138.464424 
L 326.607158 137.871586 
L 326.632949 138.464424 
L 327.435999 138.464424 
L 327.539683 139.057261 
L 327.667732 138.464424 
L 327.693283 138.464424 
L 327.796977 139.057261 
L 327.822534 138.464424 
L 327.901581 139.057261 
L 328.554834 139.057261 
L 328.685901 139.650098 
L 328.737806 139.650098 
L 328.764143 139.057261 
L 328.840828 139.650098 
L 329.020001 139.650098 
L 329.123015 140.242935 
L 329.201277 139.650098 
L 329.226851 140.242935 
L 329.459288 140.242935 
L 329.568331 140.835773 
L 329.70003 140.242935 
L 330.342015 140.242935 
L 330.36843 139.650098 
L 330.444354 140.242935 
L 330.728658 140.242935 
L 330.755211 140.835773 
L 330.947004 140.242935 
L 331.080431 140.242935 
L 331.107307 140.835773 
L 331.186475 140.242935 
L 331.919357 140.242935 
L 332.048053 140.835773 
L 332.100905 140.835773 
L 332.232156 140.242935 
L 332.28513 140.242935 
L 332.419355 140.835773 
L 333.775968 140.835773 
L 333.904386 142.021447 
L 334.035763 140.835773 
L 334.088399 140.835773 
L 334.217297 142.021447 
L 334.242834 142.021447 
L 334.319317 140.835773 
L 334.345687 142.021447 
L 335.502231 142.021447 
L 335.636692 142.614284 
L 335.770272 142.021447 
L 336.108095 142.021447 
L 336.159161 142.614284 
L 336.210546 142.021447 
L 336.393674 142.021447 
L 336.419325 142.614284 
L 336.498193 142.021447 
L 336.787492 142.021447 
L 336.812973 142.614284 
L 336.890039 142.021447 
L 336.99373 142.021447 
L 337.019369 142.614284 
L 337.096237 142.021447 
L 337.150562 142.021447 
L 337.280079 142.614284 
L 337.334605 142.614284 
L 337.463981 142.021447 
L 337.569024 142.614284 
L 337.5948 142.021447 
L 337.673733 142.614284 
L 337.88305 142.614284 
L 337.909405 142.021447 
L 337.987362 142.614284 
L 338.405185 142.614284 
L 338.535533 143.207122 
L 338.667741 142.614284 
L 339.305714 142.614284 
L 339.384642 143.207122 
L 339.411602 142.614284 
L 339.518647 142.614284 
L 339.64679 143.207122 
L 339.780348 142.614284 
L 339.805928 143.207122 
L 339.885584 142.614284 
L 341.346379 142.614284 
L 341.425687 142.021447 
L 341.451418 142.614284 
L 341.480461 142.614284 
L 341.507878 142.021447 
L 341.584506 142.614284 
L 341.766353 142.614284 
L 341.871497 142.021447 
L 341.951581 142.614284 
L 341.978283 142.021447 
L 342.083574 142.021447 
L 342.136716 142.614284 
L 342.188725 142.021447 
L 342.240407 142.021447 
L 342.265962 142.614284 
L 342.346566 142.021447 
L 342.719216 142.021447 
L 342.852786 140.835773 
L 343.211527 140.835773 
L 343.238141 140.242935 
L 343.318886 140.835773 
L 343.39743 140.835773 
L 343.527399 140.242935 
L 343.766738 140.242935 
L 343.905765 139.650098 
L 343.934769 139.650098 
L 343.961207 140.242935 
L 344.038628 139.650098 
L 344.220821 139.650098 
L 344.35484 139.057261 
L 344.57124 139.057261 
L 344.707135 138.464424 
L 344.812784 138.464424 
L 344.923528 137.871586 
L 345.300659 137.871586 
L 345.32635 137.278749 
L 345.406298 137.871586 
L 345.500643 137.871586 
L 345.620164 137.278749 
L 345.790322 137.278749 
L 345.849003 136.685912 
L 345.87553 137.278749 
L 345.978093 137.871586 
L 346.110487 137.278749 
L 346.16219 137.278749 
L 346.187715 136.685912 
L 346.243956 137.278749 
L 346.299834 136.685912 
L 346.355521 137.871586 
L 346.442158 137.871586 
L 346.467647 138.464424 
L 346.497282 137.871586 
L 346.611294 137.871586 
L 346.725468 137.278749 
L 346.781301 137.278749 
L 346.806853 136.685912 
L 346.832371 137.871586 
L 346.967403 138.464424 
L 347.026253 138.464424 
L 347.106413 137.871586 
L 347.131967 138.464424 
L 347.211083 138.464424 
L 347.346022 137.871586 
L 347.399043 137.871586 
L 347.513898 138.464424 
L 347.645414 138.464424 
L 347.776008 137.871586 
L 347.855795 137.871586 
L 347.883604 138.464424 
L 347.910481 137.278749 
L 347.944606 137.871586 
L 347.971857 137.871586 
L 348.054129 138.464424 
L 348.081959 137.871586 
L 348.161942 137.871586 
L 348.273027 133.128888 
L 348.299957 130.164702 
L 348.354397 134.314563 
L 348.38027 133.721726 
L 348.406834 134.314563 
L 348.539628 137.278749 
L 348.591542 137.278749 
L 348.724466 137.871586 
L 348.780109 137.871586 
L 348.912593 138.464424 
L 349.046084 137.871586 
L 349.448925 137.871586 
L 349.475418 138.464424 
L 349.553143 137.871586 
L 349.685217 137.871586 
L 349.713567 138.464424 
L 349.768149 137.871586 
L 349.84784 136.685912 
L 349.874874 137.278749 
L 349.979511 137.871586 
L 350.111349 137.278749 
L 350.162467 137.278749 
L 350.268094 136.685912 
L 350.376593 136.685912 
L 350.436964 136.093075 
L 350.568177 137.871586 
L 350.711245 136.685912 
L 350.737745 136.685912 
L 350.791824 134.314563 
L 350.818965 134.9074 
L 350.914824 136.093075 
L 351.240219 134.9074 
L 351.298523 136.093075 
L 351.391764 136.093075 
L 351.528342 129.571865 
L 351.615773 131.350376 
L 351.792477 134.314563 
L 351.912086 134.9074 
L 351.990866 134.9074 
L 352.068269 134.314563 
L 352.281028 136.093075 
L 352.345615 134.9074 
L 352.375932 136.093075 
L 352.404929 136.093075 
L 352.537944 134.314563 
L 352.623423 136.093075 
L 352.701989 136.093075 
L 352.862838 137.278749 
L 352.93234 136.093075 
L 352.963048 137.278749 
L 353.063195 137.871586 
L 353.193921 136.685912 
L 353.256362 137.871586 
L 353.282812 136.685912 
L 353.485136 134.314563 
L 353.522194 134.9074 
L 353.58994 134.314563 
L 353.61557 133.721726 
L 353.649698 134.9074 
L 353.69096 134.9074 
L 353.777969 133.721726 
L 353.879675 136.093075 
L 354.031284 136.093075 
L 354.132673 134.9074 
L 354.269502 136.093075 
L 354.391829 134.9074 
L 354.422203 134.9074 
L 354.453081 136.093075 
L 354.506564 134.9074 
L 354.533436 134.9074 
L 354.646374 136.093075 
L 354.675645 136.093075 
L 354.729722 134.9074 
L 354.761075 136.093075 
L 354.905617 136.093075 
L 355.032361 136.685912 
L 355.581087 136.685912 
L 355.6211 136.093075 
L 355.672668 136.685912 
L 355.764617 136.685912 
L 355.90079 137.278749 
L 356.037087 136.685912 
L 356.091109 136.685912 
L 356.2081 137.278749 
L 356.383381 137.278749 
L 356.409403 137.871586 
L 356.478625 137.278749 
L 356.506865 137.278749 
L 356.587362 136.685912 
L 356.615126 137.278749 
L 356.68075 137.278749 
L 356.846302 136.685912 
L 357.037307 136.685912 
L 357.157364 137.278749 
L 357.56221 137.278749 
L 357.676548 137.871586 
L 357.903302 137.871586 
L 357.937667 138.464424 
L 357.995892 137.871586 
L 358.05648 137.871586 
L 358.16732 138.464424 
L 358.196423 138.464424 
L 358.223883 137.871586 
L 358.27756 138.464424 
L 358.520066 138.464424 
L 358.657284 137.871586 
L 358.683906 137.871586 
L 358.738996 138.464424 
L 358.792369 137.871586 
L 358.871697 137.871586 
L 358.996848 138.464424 
L 359.875448 138.464424 
L 360.018885 137.871586 
L 360.612609 137.871586 
L 360.638191 138.464424 
L 360.72051 137.871586 
L 361.125055 137.871586 
L 361.259006 138.464424 
L 361.353035 138.464424 
L 361.378548 137.871586 
L 361.436218 138.464424 
L 361.581672 138.464424 
L 361.611008 137.871586 
L 361.689131 138.464424 
L 362.028826 138.464424 
L 362.05521 139.057261 
L 362.134446 138.464424 
L 362.472068 138.464424 
L 362.607736 137.871586 
L 362.688225 137.871586 
L 362.821141 138.464424 
L 362.954329 137.871586 
L 362.980353 137.871586 
L 363.070391 138.464424 
L 363.208143 137.871586 
L 363.233705 138.464424 
L 363.293837 137.871586 
L 363.426332 137.871586 
L 363.563408 138.464424 
L 363.649348 137.871586 
L 363.783462 138.464424 
L 363.890201 137.871586 
L 364.005929 138.464424 
L 364.031913 138.464424 
L 364.06099 137.871586 
L 364.139218 138.464424 
L 364.219354 138.464424 
L 364.246139 137.871586 
L 364.324133 138.464424 
L 364.721811 138.464424 
L 364.827341 139.057261 
L 364.932874 138.464424 
L 365.037485 139.057261 
L 365.146347 138.464424 
L 365.198319 139.057261 
L 365.249779 138.464424 
L 365.276297 138.464424 
L 365.39133 139.057261 
L 365.419373 139.057261 
L 365.522723 138.464424 
L 365.655799 139.057261 
L 365.681406 139.057261 
L 365.70701 138.464424 
L 365.783778 139.057261 
L 366.602335 139.057261 
L 366.73105 139.650098 
L 366.783124 139.650098 
L 366.915016 139.057261 
L 367.04697 139.650098 
L 368.40867 139.650098 
L 368.434279 140.242935 
L 368.512447 139.650098 
L 368.906892 139.650098 
L 368.960623 140.242935 
L 369.011925 139.650098 
L 369.35339 139.650098 
L 369.456143 140.242935 
L 369.586867 139.650098 
L 369.718746 140.242935 
L 369.771183 140.242935 
L 369.878549 139.650098 
L 369.985186 140.242935 
L 370.116904 139.650098 
L 370.248721 140.242935 
L 370.281866 140.242935 
L 370.411774 139.650098 
L 370.540846 140.242935 
L 372.08779 140.242935 
L 372.167082 140.835773 
L 372.192587 140.242935 
L 372.2191 140.242935 
L 372.347034 140.835773 
L 372.50131 140.835773 
L 372.630028 140.242935 
L 372.758456 140.835773 
L 372.86055 140.835773 
L 372.964213 142.021447 
L 373.093173 140.835773 
L 373.738478 140.835773 
L 373.86755 142.021447 
L 374.697155 142.021447 
L 374.77966 140.835773 
L 374.807291 142.021447 
L 374.832997 142.021447 
L 374.945607 140.835773 
L 375.075694 142.021447 
L 375.198025 140.835773 
L 375.252558 140.835773 
L 375.27883 142.021447 
L 375.363238 140.835773 
L 375.500818 140.835773 
L 375.529381 142.021447 
L 375.610299 140.835773 
L 375.66419 140.835773 
L 375.793363 142.021447 
L 375.819229 142.021447 
L 375.952819 140.835773 
L 376.005794 140.835773 
L 376.134929 142.021447 
L 376.163578 142.021447 
L 376.292695 140.835773 
L 376.577098 140.835773 
L 376.706171 140.242935 
L 376.947322 140.242935 
L 377.075216 139.650098 
L 377.127571 139.650098 
L 377.153425 140.242935 
L 377.231174 139.650098 
L 377.392921 139.650098 
L 377.421733 140.242935 
L 377.503503 139.650098 
L 377.584317 139.650098 
L 377.610923 139.057261 
L 377.688986 139.650098 
L 377.902139 139.650098 
L 377.928074 139.057261 
L 378.007168 139.650098 
L 378.059517 139.650098 
L 378.16893 139.057261 
L 378.330219 139.057261 
L 378.464503 138.464424 
L 378.738337 138.464424 
L 378.86905 137.871586 
L 379.052081 137.871586 
L 379.207637 136.685912 
L 379.336788 136.685912 
L 379.472374 137.278749 
L 379.607629 136.685912 
L 379.690469 136.685912 
L 379.772024 134.314563 
L 379.817234 134.9074 
L 379.992766 133.128888 
L 380.058471 133.128888 
L 380.110692 132.536051 
L 380.165739 133.128888 
L 380.352001 133.128888 
L 380.459514 132.536051 
L 380.615989 133.721726 
L 380.756286 132.536051 
L 380.782916 132.536051 
L 380.888511 128.979027 
L 380.91409 131.943214 
L 380.943814 132.536051 
L 381.055903 130.164702 
L 381.081575 133.128888 
L 381.135133 129.571865 
L 381.16377 130.164702 
L 381.189403 130.164702 
L 381.352826 132.536051 
L 381.485246 131.350376 
L 381.510839 131.943214 
L 381.538896 131.350376 
L 381.642561 130.164702 
L 381.786594 132.536051 
L 381.812157 132.536051 
L 381.893358 131.943214 
L 382.006845 134.9074 
L 382.035547 134.314563 
L 382.1155 134.9074 
L 382.405487 134.9074 
L 382.542389 131.943214 
L 382.628482 134.314563 
L 382.654858 128.38619 
L 382.733572 134.314563 
L 382.759219 134.314563 
L 382.787854 133.128888 
L 382.850198 134.9074 
L 382.928189 133.721726 
L 382.954714 134.9074 
L 382.981504 134.9074 
L 383.115693 134.314563 
L 383.222379 134.314563 
L 383.352214 134.9074 
L 383.562315 134.9074 
L 383.690536 134.314563 
L 383.717195 134.314563 
L 383.811703 134.9074 
L 383.925289 134.314563 
L 384.391208 134.314563 
L 384.506674 133.128888 
L 384.56422 133.721726 
L 384.600317 133.721726 
L 384.756109 132.536051 
L 384.783158 131.350376 
L 384.817842 133.128888 
L 384.846971 132.536051 
L 384.875684 132.536051 
L 384.911587 133.128888 
L 384.971726 132.536051 
L 385.082677 131.350376 
L 385.137137 131.943214 
L 385.219705 131.350376 
L 385.29945 133.128888 
L 385.485731 129.571865 
L 385.622844 133.721726 
L 385.649657 131.943214 
L 385.722408 133.721726 
L 385.783211 132.536051 
L 385.899776 123.643492 
L 386.171249 129.571865 
L 386.212352 128.38619 
L 386.283388 131.943214 
L 386.346105 131.350376 
L 386.37888 129.571865 
L 386.531572 129.571865 
L 386.734285 132.536051 
L 386.803936 128.38619 
L 387.006679 129.571865 
L 387.065993 130.164702 
L 387.12621 128.979027 
L 387.19006 128.979027 
L 387.278426 128.38619 
L 387.419924 131.350376 
L 387.540614 129.571865 
L 387.569625 131.350376 
L 387.59948 128.979027 
L 387.626002 129.571865 
L 387.757575 128.979027 
L 387.786624 127.200516 
L 387.819441 128.38619 
L 387.912115 128.38619 
L 388.130312 130.164702 
L 388.265576 131.350376 
L 388.33654 131.350376 
L 388.373817 129.571865 
L 388.407857 130.164702 
L 388.547487 130.164702 
L 388.606097 129.571865 
L 388.632649 130.164702 
L 388.762772 130.164702 
L 388.791743 129.571865 
L 388.967133 130.164702 
L 389.111271 129.571865 
L 389.208453 129.571865 
L 389.269127 130.164702 
L 389.297056 129.571865 
L 389.39153 130.164702 
L 389.419874 128.979027 
L 389.45357 131.350376 
L 389.492727 130.164702 
L 389.626956 129.571865 
L 389.733002 130.164702 
L 389.863424 127.793353 
L 389.919502 128.38619 
L 390.142234 131.943214 
L 390.259245 131.943214 
L 390.37862 131.350376 
L 390.490494 132.536051 
L 390.519024 131.943214 
L 390.554658 131.943214 
L 390.67119 132.536051 
L 390.727379 132.536051 
L 390.80517 133.128888 
L 390.831789 131.943214 
L 390.917877 133.128888 
L 391.537599 133.128888 
L 391.61899 131.943214 
L 391.64691 133.128888 
L 391.689245 133.128888 
L 391.757091 132.536051 
L 391.785968 133.128888 
L 392.012837 133.128888 
L 392.125945 131.350376 
L 392.152346 132.536051 
L 392.180328 132.536051 
L 392.206317 133.128888 
L 392.263256 131.943214 
L 392.404521 130.164702 
L 392.46336 130.164702 
L 392.548154 131.943214 
L 392.593179 131.350376 
L 392.804193 132.536051 
L 393.427008 132.536051 
L 393.688244 131.350376 
L 393.812969 131.350376 
L 393.94824 129.571865 
L 394.998333 129.571865 
L 395.103499 130.164702 
L 395.183181 129.571865 
L 395.208944 130.164702 
L 396.224545 130.164702 
L 396.251261 131.350376 
L 396.331903 130.164702 
L 396.357453 130.164702 
L 396.437276 131.350376 
L 396.462966 130.164702 
L 396.541192 130.164702 
L 396.645102 131.350376 
L 396.775224 130.164702 
L 396.8285 131.350376 
L 396.861193 130.164702 
L 396.886766 130.164702 
L 397.024621 131.350376 
L 397.961781 131.350376 
L 398.094174 131.943214 
L 398.200086 131.350376 
L 398.334424 131.943214 
L 398.54021 131.943214 
L 398.645745 131.350376 
L 398.776124 131.943214 
L 398.931036 131.943214 
L 398.956814 131.350376 
L 399.034461 131.943214 
L 399.535304 131.943214 
L 399.621094 132.536051 
L 399.725902 131.943214 
L 399.856683 132.536051 
L 400.427112 132.536051 
L 400.452766 133.128888 
L 400.529828 132.536051 
L 400.710049 132.536051 
L 400.838429 133.128888 
L 400.967623 132.536051 
L 401.000798 132.536051 
L 401.12988 133.128888 
L 401.155443 132.536051 
L 401.236436 133.128888 
L 401.836756 133.128888 
L 401.966788 133.721726 
L 402.043841 133.128888 
L 402.135554 133.128888 
L 402.267928 133.721726 
L 402.685047 133.721726 
L 402.7114 133.128888 
L 402.789974 133.721726 
L 403.908729 133.721726 
L 404.012012 134.314563 
L 404.037554 133.721726 
L 404.117616 134.314563 
L 404.960791 134.314563 
L 405.0393 134.9074 
L 405.065279 134.314563 
L 405.119522 134.314563 
L 405.22326 134.9074 
L 405.331854 134.314563 
L 405.463426 134.9074 
L 405.596942 134.314563 
L 405.729775 134.9074 
L 405.993332 134.9074 
L 406.018858 134.314563 
L 406.097521 134.9074 
L 406.48813 134.9074 
L 406.517541 136.093075 
L 406.595803 134.9074 
L 406.702301 134.9074 
L 406.838188 136.093075 
L 406.968375 134.9074 
L 407.098949 136.093075 
L 407.361852 136.093075 
L 407.491647 136.685912 
L 407.518041 136.685912 
L 407.652398 136.093075 
L 407.704694 136.093075 
L 407.786772 136.685912 
L 407.813636 136.093075 
L 407.921542 136.093075 
L 407.947604 136.685912 
L 408.026906 136.093075 
L 408.378996 136.093075 
L 408.463177 136.685912 
L 408.601905 136.093075 
L 408.627443 136.093075 
L 408.653223 136.685912 
L 408.735289 136.093075 
L 408.764768 136.093075 
L 408.819793 136.685912 
L 408.875922 136.093075 
L 409.005578 136.093075 
L 409.031396 136.685912 
L 409.109365 136.093075 
L 409.188655 136.093075 
L 409.214174 136.685912 
L 409.291836 136.093075 
L 409.342949 136.093075 
L 409.477607 136.685912 
L 410.107276 136.685912 
L 410.133804 136.093075 
L 410.213827 136.685912 
L 410.843365 136.685912 
L 410.97603 137.278749 
L 411.106885 136.685912 
L 412.534995 136.685912 
L 412.622188 136.093075 
L 412.676538 136.685912 
L 412.730649 136.093075 
L 412.786342 136.093075 
L 412.919374 136.685912 
L 412.971296 136.685912 
L 413.106853 136.093075 
L 413.21028 136.093075 
L 413.318738 134.9074 
L 413.369995 136.093075 
L 413.424709 134.9074 
L 413.641248 134.9074 
L 413.773056 134.314563 
L 413.799109 134.9074 
L 413.879343 134.314563 
L 414.225239 134.314563 
L 414.25213 133.721726 
L 414.332141 134.314563 
L 414.437554 134.314563 
L 414.570264 133.721726 
L 414.692811 133.721726 
L 414.821574 133.128888 
L 414.954498 133.128888 
L 415.086227 132.536051 
L 415.402955 132.536051 
L 415.429059 131.943214 
L 415.508344 132.536051 
L 415.707439 132.536051 
L 415.758894 131.943214 
L 415.811266 132.536051 
L 415.836883 132.536051 
L 416.079072 129.571865 
L 416.10585 129.571865 
L 416.238366 130.164702 
L 416.264746 130.164702 
L 416.422921 128.979027 
L 416.514273 129.571865 
L 416.645163 128.979027 
L 416.671157 128.979027 
L 416.749187 129.571865 
L 416.775135 128.979027 
L 416.986894 128.979027 
L 417.120415 128.38619 
L 417.282817 128.38619 
L 417.363777 128.979027 
L 417.41816 127.793353 
L 417.548852 128.38619 
L 417.601182 128.38619 
L 417.628018 127.793353 
L 417.681963 128.979027 
L 417.711731 128.979027 
L 417.871431 126.607678 
L 417.897518 127.200516 
L 418.052802 128.38619 
L 418.079784 127.793353 
L 418.159415 128.38619 
L 418.238649 128.38619 
L 418.264126 128.979027 
L 418.342745 128.38619 
L 418.36843 127.200516 
L 418.395321 128.979027 
L 418.451442 128.979027 
L 418.612819 130.164702 
L 418.78833 128.38619 
L 418.893781 129.571865 
L 418.946175 126.014841 
L 418.998256 128.38619 
L 419.023789 128.979027 
L 419.155484 126.014841 
L 419.26347 128.979027 
L 419.289921 127.200516 
L 419.368426 127.793353 
L 419.421088 127.793353 
L 419.555259 129.571865 
L 419.66266 128.38619 
L 419.716818 129.571865 
L 419.769312 128.979027 
L 419.820918 128.38619 
L 419.848122 128.979027 
L 419.98506 130.164702 
L 420.119084 129.571865 
L 420.146718 130.164702 
L 420.199116 126.014841 
L 420.252388 128.38619 
L 420.280284 127.793353 
L 420.306699 128.38619 
L 420.332718 129.571865 
L 420.411099 128.979027 
L 420.465584 126.014841 
L 420.491507 130.164702 
L 420.596845 129.571865 
L 420.623164 129.571865 
L 420.733094 126.014841 
L 420.75971 129.571865 
L 420.839696 128.38619 
L 420.917974 129.571865 
L 420.943742 124.236329 
L 421.047788 125.422004 
L 421.074804 126.014841 
L 421.102184 124.236329 
L 421.181471 123.643492 
L 421.207608 125.422004 
L 421.261342 122.457818 
L 421.289068 122.457818 
L 421.444841 120.679306 
L 421.741545 126.607678 
L 421.794016 126.014841 
L 421.820122 126.014841 
L 421.981559 127.200516 
L 422.007475 127.200516 
L 422.034093 127.793353 
L 422.061887 127.200516 
L 422.087506 126.014841 
L 422.11406 127.793353 
L 422.167177 127.200516 
L 422.297829 126.014841 
L 422.430979 126.607678 
L 422.457517 126.607678 
L 422.510758 126.014841 
L 422.562773 126.607678 
L 422.588445 126.607678 
L 422.643486 128.38619 
L 422.697408 127.200516 
L 422.803894 126.014841 
L 422.881651 128.38619 
L 422.933149 127.200516 
L 422.986504 126.607678 
L 423.040025 127.200516 
L 423.06783 127.200516 
L 423.224768 128.38619 
L 423.42103 124.236329 
L 423.576921 127.793353 
L 423.683069 128.38619 
L 423.811166 127.793353 
L 423.837112 127.793353 
L 423.862626 128.38619 
L 423.939384 127.793353 
L 423.991829 127.793353 
L 424.120427 128.38619 
L 424.171466 128.38619 
L 424.3024 128.979027 
L 424.329048 128.38619 
L 424.406656 128.979027 
L 424.457777 129.571865 
L 424.511194 128.979027 
L 424.563595 127.793353 
L 424.590804 124.236329 
L 424.670689 125.422004 
L 424.696658 127.793353 
L 424.775447 126.014841 
L 424.827113 126.014841 
L 424.93421 127.200516 
L 424.961027 126.607678 
L 424.986517 126.607678 
L 425.116949 127.200516 
L 425.143984 127.200516 
L 425.276201 127.793353 
L 425.302082 127.793353 
L 425.378706 127.200516 
L 425.378706 127.200516 
" style="fill:none;stroke:#1f77b4;stroke-linecap:square;stroke-width:1.5;"/>
   </g>
   <g id="line2d_28">
    <path clip-path="url(#pcd450b8f92)" d="M 62.789462 184.112893 
L 65.190692 184.112893 
L 65.32383 160.992239 
L 67.928167 160.992239 
L 68.058104 167.513449 
L 69.768661 167.513449 
L 69.897883 178.777357 
L 70.769508 178.777357 
L 70.898083 190.634102 
L 71.472432 190.634102 
L 137.380347 107.636886 
L 140.813501 107.636886 
L 140.918683 119.493631 
L 142.394123 119.493631 
L 142.525446 130.757539 
L 143.836318 130.757539 
L 143.966552 160.992239 
L 145.932978 160.992239 
L 146.063404 178.777357 
L 146.792928 178.777357 
L 249.97971 114.158096 
L 250.870181 114.158096 
L 251.001733 137.278749 
L 252.305811 137.278749 
L 252.438359 160.992239 
L 255.31038 160.992239 
L 255.441719 172.848985 
L 258.27163 172.848985 
L 258.401502 178.777357 
L 260.134504 178.777357 
L 260.26423 184.112893 
L 261.299426 184.112893 
L 261.433943 195.969638 
L 262.63468 195.969638 
L 262.76314 202.490848 
L 263.538092 202.490848 
L 263.676456 191.819777 
L 264.203916 191.819777 
L 264.334392 195.969638 
L 265.526082 195.969638 
L 265.578867 190.634102 
L 269.256027 190.634102 
L 269.418638 191.819777 
L 270.178178 191.819777 
L 270.321496 190.634102 
L 271.534432 190.634102 
L 271.667172 184.112893 
L 274.519713 184.112893 
L 274.650694 178.777357 
L 276.16974 178.777357 
L 276.301796 172.848985 
L 277.084185 172.848985 
L 277.215816 170.477636 
L 277.475978 170.477636 
L 277.586631 167.513449 
L 280.507127 167.513449 
L 280.638739 160.992239 
L 285.259745 160.992239 
L 285.391393 170.477636 
L 286.694381 170.477636 
L 286.809797 172.848985 
L 287.748529 172.848985 
L 287.882227 170.477636 
L 288.015288 170.477636 
L 288.126815 172.848985 
L 291.890164 172.848985 
L 292.021454 170.477636 
L 292.413715 170.477636 
L 292.545253 172.848985 
L 293.866347 172.848985 
L 293.997404 178.777357 
L 294.657054 178.777357 
L 294.79118 191.819777 
L 295.418675 191.819777 
L 295.55158 195.969638 
L 295.796806 195.969638 
L 295.927984 202.490848 
L 301.865249 202.490848 
L 301.999475 191.819777 
L 303.185728 191.819777 
L 303.315861 202.490848 
L 304.375114 202.490848 
L 304.501207 190.634102 
L 305.797903 190.634102 
L 305.926273 184.112893 
L 306.465272 184.112893 
L 306.59327 181.148706 
L 307.238962 181.148706 
L 307.375978 178.777357 
L 309.241354 178.777357 
L 309.37144 172.848985 
L 310.270383 172.848985 
L 310.402424 167.513449 
L 311.699163 167.513449 
L 311.821016 172.848985 
L 313.126095 172.848985 
L 313.289528 160.992239 
L 316.351579 160.992239 
L 316.464075 155.656704 
L 320.627274 155.656704 
L 320.8117 160.992239 
L 321.952465 160.992239 
L 322.073165 184.112893 
L 323.79634 184.112893 
L 323.914549 195.969638 
L 325.258026 195.969638 
L 325.393798 214.347593 
L 326.99481 214.347593 
L 327.122883 223.832989 
L 328.968756 223.832989 
L 329.097377 234.50406 
L 331.448711 234.50406 
L 331.579441 223.832989 
L 332.890049 223.832989 
L 333.019527 226.204338 
L 334.696827 226.204338 
L 334.825401 223.832989 
L 335.34528 223.832989 
L 335.476646 226.204338 
L 337.830213 226.204338 
L 337.961274 232.132711 
L 342.188725 232.132711 
L 342.320818 223.832989 
L 343.68846 223.832989 
L 343.824188 213.161918 
L 345.351939 213.161918 
L 345.475082 181.148706 
L 346.029527 181.148706 
L 346.16219 172.848985 
L 347.452285 172.848985 
L 347.56616 137.278749 
L 348.859896 137.278749 
L 348.992939 114.158096 
L 350.568177 114.158096 
L 350.683842 102.301351 
L 351.963208 102.301351 
L 352.068269 89.258931 
L 353.393985 89.258931 
L 353.522194 95.780141 
L 354.701233 95.780141 
L 354.819113 107.636886 
L 357.56221 107.636886 
L 357.676548 125.422004 
L 357.937667 125.422004 
L 358.05648 155.656704 
L 359.784867 155.656704 
L 359.908956 167.513449 
L 360.72051 167.513449 
L 360.831721 172.848985 
L 362.161181 172.848985 
L 362.28372 184.112893 
L 363.72957 184.112893 
L 363.864199 190.634102 
L 365.419373 190.634102 
L 365.549241 202.490848 
L 366.204339 202.490848 
L 366.336814 223.832989 
L 367.127598 223.832989 
L 367.259286 214.347593 
L 367.52246 214.347593 
L 367.651103 223.832989 
L 369.586867 223.832989 
L 369.718746 226.204338 
L 370.358982 226.204338 
L 370.488705 223.832989 
L 371.141471 223.832989 
L 371.271744 237.468246 
L 373.352261 237.468246 
L 373.482231 245.17513 
L 373.61042 245.17513 
L 373.738478 234.50406 
L 374.003938 234.50406 
L 374.133053 237.468246 
L 375.793363 237.468246 
L 375.927303 214.347593 
L 377.231174 214.347593 
L 377.366437 190.634102 
L 378.790521 190.634102 
L 378.921608 149.135494 
L 380.192368 149.135494 
L 380.326379 114.158096 
L 381.616114 114.158096 
L 381.731375 83.923396 
L 383.144387 83.923396 
L 383.274582 66.138278 
L 384.682586 66.138278 
L 384.817842 54.281533 
L 386.078134 54.281533 
L 386.212352 35.903578 
L 387.653958 35.903578 
L 387.819441 42.424787 
L 390.411508 42.424787 
L 390.580197 72.06665 
L 391.954726 72.06665 
L 392.012837 95.780141 
L 393.453447 95.780141 
L 393.608654 125.422004 
L 396.199015 125.422004 
L 396.331903 137.278749 
L 396.462966 137.278749 
L 396.593786 155.656704 
L 397.879611 155.656704 
L 398.012914 172.848985 
L 400.452766 172.848985 
L 400.580889 184.112893 
L 401.210209 184.112893 
L 401.339883 190.634102 
L 402.763432 190.634102 
L 402.897388 195.969638 
L 404.725121 195.969638 
L 404.85575 213.161918 
L 405.384687 213.161918 
L 405.516986 202.490848 
L 406.174503 202.490848 
L 406.304086 213.161918 
L 407.865505 213.161918 
L 408.001261 223.832989 
L 408.26875 223.832989 
L 408.378996 209.012057 
L 408.764768 209.012057 
L 408.875922 213.161918 
L 409.503224 213.161918 
L 409.636605 234.50406 
L 409.896182 234.50406 
L 410.027381 226.204338 
L 410.293588 226.204338 
L 410.42787 223.832989 
L 411.347854 223.832989 
L 411.484131 202.490848 
L 412.866718 202.490848 
L 412.998058 184.112893 
L 414.332141 184.112893 
L 414.464132 155.656704 
L 416.93174 155.656704 
L 417.065157 119.493631 
L 417.201795 119.493631 
L 417.3339 95.780141 
L 418.893781 95.780141 
L 419.023789 77.402186 
L 420.225614 77.402186 
L 420.358333 66.138278 
L 422.750711 66.138278 
L 422.881651 54.281533 
L 425.378706 54.281533 
L 425.378706 54.281533 
" style="fill:none;stroke:#ff7f0e;stroke-linecap:square;stroke-width:1.5;"/>
   </g>
   <g id="patch_3">
    <path d="M 44.66 255.638708 
L 44.66 25.44 
" style="fill:none;stroke:#000000;stroke-linecap:square;stroke-linejoin:miter;stroke-width:0.8;"/>
   </g>
   <g id="patch_4">
    <path d="M 443.508168 255.638708 
L 443.508168 25.44 
" style="fill:none;stroke:#000000;stroke-linecap:square;stroke-linejoin:miter;stroke-width:0.8;"/>
   </g>
   <g id="patch_5">
    <path d="M 44.66 255.638708 
L 443.508168 255.638708 
" style="fill:none;stroke:#000000;stroke-linecap:square;stroke-linejoin:miter;stroke-width:0.8;"/>
   </g>
   <g id="patch_6">
    <path d="M 44.66 25.44 
L 443.508168 25.44 
" style="fill:none;stroke:#000000;stroke-linecap:square;stroke-linejoin:miter;stroke-width:0.8;"/>
   </g>
   <g id="text_16">
    <!-- Lake Shoecraft - Water and Air Temperature -->
    <g transform="translate(112.465647 19.44)scale(0.12 -0.12)">
     <defs>
      <path d="M 9.8125 72.90625 
L 19.671875 72.90625 
L 19.671875 8.296875 
L 55.171875 8.296875 
L 55.171875 0 
L 9.8125 0 
z
" id="DejaVuSans-76"/>
      <path d="M 9.078125 75.984375 
L 18.109375 75.984375 
L 18.109375 31.109375 
L 44.921875 54.6875 
L 56.390625 54.6875 
L 27.390625 29.109375 
L 57.625 0 
L 45.90625 0 
L 18.109375 26.703125 
L 18.109375 0 
L 9.078125 0 
z
" id="DejaVuSans-107"/>
      <path d="M 53.515625 70.515625 
L 53.515625 60.890625 
Q 47.90625 63.578125 42.921875 64.890625 
Q 37.9375 66.21875 33.296875 66.21875 
Q 25.25 66.21875 20.875 63.09375 
Q 16.5 59.96875 16.5 54.203125 
Q 16.5 49.359375 19.40625 46.890625 
Q 22.3125 44.4375 30.421875 42.921875 
L 36.375 41.703125 
Q 47.40625 39.59375 52.65625 34.296875 
Q 57.90625 29 57.90625 20.125 
Q 57.90625 9.515625 50.796875 4.046875 
Q 43.703125 -1.421875 29.984375 -1.421875 
Q 24.8125 -1.421875 18.96875 -0.25 
Q 13.140625 0.921875 6.890625 3.21875 
L 6.890625 13.375 
Q 12.890625 10.015625 18.65625 8.296875 
Q 24.421875 6.59375 29.984375 6.59375 
Q 38.421875 6.59375 43.015625 9.90625 
Q 47.609375 13.234375 47.609375 19.390625 
Q 47.609375 24.75 44.3125 27.78125 
Q 41.015625 30.8125 33.5 32.328125 
L 27.484375 33.5 
Q 16.453125 35.6875 11.515625 40.375 
Q 6.59375 45.0625 6.59375 53.421875 
Q 6.59375 63.09375 13.40625 68.65625 
Q 20.21875 74.21875 32.171875 74.21875 
Q 37.3125 74.21875 42.625 73.28125 
Q 47.953125 72.359375 53.515625 70.515625 
z
" id="DejaVuSans-83"/>
      <path d="M 54.890625 33.015625 
L 54.890625 0 
L 45.90625 0 
L 45.90625 32.71875 
Q 45.90625 40.484375 42.875 44.328125 
Q 39.84375 48.1875 33.796875 48.1875 
Q 26.515625 48.1875 22.3125 43.546875 
Q 18.109375 38.921875 18.109375 30.90625 
L 18.109375 0 
L 9.078125 0 
L 9.078125 75.984375 
L 18.109375 75.984375 
L 18.109375 46.1875 
Q 21.34375 51.125 25.703125 53.5625 
Q 30.078125 56 35.796875 56 
Q 45.21875 56 50.046875 50.171875 
Q 54.890625 44.34375 54.890625 33.015625 
z
" id="DejaVuSans-104"/>
      <path d="M 30.609375 48.390625 
Q 23.390625 48.390625 19.1875 42.75 
Q 14.984375 37.109375 14.984375 27.296875 
Q 14.984375 17.484375 19.15625 11.84375 
Q 23.34375 6.203125 30.609375 6.203125 
Q 37.796875 6.203125 41.984375 11.859375 
Q 46.1875 17.53125 46.1875 27.296875 
Q 46.1875 37.015625 41.984375 42.703125 
Q 37.796875 48.390625 30.609375 48.390625 
z
M 30.609375 56 
Q 42.328125 56 49.015625 48.375 
Q 55.71875 40.765625 55.71875 27.296875 
Q 55.71875 13.875 49.015625 6.21875 
Q 42.328125 -1.421875 30.609375 -1.421875 
Q 18.84375 -1.421875 12.171875 6.21875 
Q 5.515625 13.875 5.515625 27.296875 
Q 5.515625 40.765625 12.171875 48.375 
Q 18.84375 56 30.609375 56 
z
" id="DejaVuSans-111"/>
      <path d="M 48.78125 52.59375 
L 48.78125 44.1875 
Q 44.96875 46.296875 41.140625 47.34375 
Q 37.3125 48.390625 33.40625 48.390625 
Q 24.65625 48.390625 19.8125 42.84375 
Q 14.984375 37.3125 14.984375 27.296875 
Q 14.984375 17.28125 19.8125 11.734375 
Q 24.65625 6.203125 33.40625 6.203125 
Q 37.3125 6.203125 41.140625 7.25 
Q 44.96875 8.296875 48.78125 10.40625 
L 48.78125 2.09375 
Q 45.015625 0.34375 40.984375 -0.53125 
Q 36.96875 -1.421875 32.421875 -1.421875 
Q 20.0625 -1.421875 12.78125 6.34375 
Q 5.515625 14.109375 5.515625 27.296875 
Q 5.515625 40.671875 12.859375 48.328125 
Q 20.21875 56 33.015625 56 
Q 37.15625 56 41.109375 55.140625 
Q 45.0625 54.296875 48.78125 52.59375 
z
" id="DejaVuSans-99"/>
      <path d="M 37.109375 75.984375 
L 37.109375 68.5 
L 28.515625 68.5 
Q 23.6875 68.5 21.796875 66.546875 
Q 19.921875 64.59375 19.921875 59.515625 
L 19.921875 54.6875 
L 34.71875 54.6875 
L 34.71875 47.703125 
L 19.921875 47.703125 
L 19.921875 0 
L 10.890625 0 
L 10.890625 47.703125 
L 2.296875 47.703125 
L 2.296875 54.6875 
L 10.890625 54.6875 
L 10.890625 58.5 
Q 10.890625 67.625 15.140625 71.796875 
Q 19.390625 75.984375 28.609375 75.984375 
z
" id="DejaVuSans-102"/>
      <path d="M 3.328125 72.90625 
L 13.28125 72.90625 
L 28.609375 11.28125 
L 43.890625 72.90625 
L 54.984375 72.90625 
L 70.3125 11.28125 
L 85.59375 72.90625 
L 95.609375 72.90625 
L 77.296875 0 
L 64.890625 0 
L 49.515625 63.28125 
L 33.984375 0 
L 21.578125 0 
z
" id="DejaVuSans-87"/>
      <path d="M 54.890625 33.015625 
L 54.890625 0 
L 45.90625 0 
L 45.90625 32.71875 
Q 45.90625 40.484375 42.875 44.328125 
Q 39.84375 48.1875 33.796875 48.1875 
Q 26.515625 48.1875 22.3125 43.546875 
Q 18.109375 38.921875 18.109375 30.90625 
L 18.109375 0 
L 9.078125 0 
L 9.078125 54.6875 
L 18.109375 54.6875 
L 18.109375 46.1875 
Q 21.34375 51.125 25.703125 53.5625 
Q 30.078125 56 35.796875 56 
Q 45.21875 56 50.046875 50.171875 
Q 54.890625 44.34375 54.890625 33.015625 
z
" id="DejaVuSans-110"/>
      <path d="M 45.40625 46.390625 
L 45.40625 75.984375 
L 54.390625 75.984375 
L 54.390625 0 
L 45.40625 0 
L 45.40625 8.203125 
Q 42.578125 3.328125 38.25 0.953125 
Q 33.9375 -1.421875 27.875 -1.421875 
Q 17.96875 -1.421875 11.734375 6.484375 
Q 5.515625 14.40625 5.515625 27.296875 
Q 5.515625 40.1875 11.734375 48.09375 
Q 17.96875 56 27.875 56 
Q 33.9375 56 38.25 53.625 
Q 42.578125 51.265625 45.40625 46.390625 
z
M 14.796875 27.296875 
Q 14.796875 17.390625 18.875 11.75 
Q 22.953125 6.109375 30.078125 6.109375 
Q 37.203125 6.109375 41.296875 11.75 
Q 45.40625 17.390625 45.40625 27.296875 
Q 45.40625 37.203125 41.296875 42.84375 
Q 37.203125 48.484375 30.078125 48.484375 
Q 22.953125 48.484375 18.875 42.84375 
Q 14.796875 37.203125 14.796875 27.296875 
z
" id="DejaVuSans-100"/>
      <path d="M 34.1875 63.1875 
L 20.796875 26.90625 
L 47.609375 26.90625 
z
M 28.609375 72.90625 
L 39.796875 72.90625 
L 67.578125 0 
L 57.328125 0 
L 50.6875 18.703125 
L 17.828125 18.703125 
L 11.1875 0 
L 0.78125 0 
z
" id="DejaVuSans-65"/>
      <path d="M 9.421875 54.6875 
L 18.40625 54.6875 
L 18.40625 0 
L 9.421875 0 
z
M 9.421875 75.984375 
L 18.40625 75.984375 
L 18.40625 64.59375 
L 9.421875 64.59375 
z
" id="DejaVuSans-105"/>
     </defs>
     <use xlink:href="#DejaVuSans-76"/>
     <use x="55.712891" xlink:href="#DejaVuSans-97"/>
     <use x="116.992188" xlink:href="#DejaVuSans-107"/>
     <use x="171.277344" xlink:href="#DejaVuSans-101"/>
     <use x="232.800781" xlink:href="#DejaVuSans-32"/>
     <use x="264.587891" xlink:href="#DejaVuSans-83"/>
     <use x="328.064453" xlink:href="#DejaVuSans-104"/>
     <use x="391.443359" xlink:href="#DejaVuSans-111"/>
     <use x="452.625" xlink:href="#DejaVuSans-101"/>
     <use x="514.148438" xlink:href="#DejaVuSans-99"/>
     <use x="569.128906" xlink:href="#DejaVuSans-114"/>
     <use x="610.242188" xlink:href="#DejaVuSans-97"/>
     <use x="671.521484" xlink:href="#DejaVuSans-102"/>
     <use x="704.976562" xlink:href="#DejaVuSans-116"/>
     <use x="744.185547" xlink:href="#DejaVuSans-32"/>
     <use x="775.972656" xlink:href="#DejaVuSans-45"/>
     <use x="812.056641" xlink:href="#DejaVuSans-32"/>
     <use x="843.84375" xlink:href="#DejaVuSans-87"/>
     <use x="936.345703" xlink:href="#DejaVuSans-97"/>
     <use x="997.625" xlink:href="#DejaVuSans-116"/>
     <use x="1036.833984" xlink:href="#DejaVuSans-101"/>
     <use x="1098.357422" xlink:href="#DejaVuSans-114"/>
     <use x="1139.470703" xlink:href="#DejaVuSans-32"/>
     <use x="1171.257812" xlink:href="#DejaVuSans-97"/>
     <use x="1232.537109" xlink:href="#DejaVuSans-110"/>
     <use x="1295.916016" xlink:href="#DejaVuSans-100"/>
     <use x="1359.392578" xlink:href="#DejaVuSans-32"/>
     <use x="1391.179688" xlink:href="#DejaVuSans-65"/>
     <use x="1459.587891" xlink:href="#DejaVuSans-105"/>
     <use x="1487.371094" xlink:href="#DejaVuSans-114"/>
     <use x="1528.484375" xlink:href="#DejaVuSans-32"/>
     <use x="1560.271484" xlink:href="#DejaVuSans-84"/>
     <use x="1604.355469" xlink:href="#DejaVuSans-101"/>
     <use x="1665.878906" xlink:href="#DejaVuSans-109"/>
     <use x="1763.291016" xlink:href="#DejaVuSans-112"/>
     <use x="1826.767578" xlink:href="#DejaVuSans-101"/>
     <use x="1888.291016" xlink:href="#DejaVuSans-114"/>
     <use x="1929.404297" xlink:href="#DejaVuSans-97"/>
     <use x="1990.683594" xlink:href="#DejaVuSans-116"/>
     <use x="2029.892578" xlink:href="#DejaVuSans-117"/>
     <use x="2093.271484" xlink:href="#DejaVuSans-114"/>
     <use x="2132.134766" xlink:href="#DejaVuSans-101"/>
    </g>
   </g>
   <g id="legend_1">
    <g id="patch_7">
     <path d="M 51.66 62.79625 
L 136.769375 62.79625 
Q 138.769375 62.79625 138.769375 60.79625 
L 138.769375 32.44 
Q 138.769375 30.44 136.769375 30.44 
L 51.66 30.44 
Q 49.66 30.44 49.66 32.44 
L 49.66 60.79625 
Q 49.66 62.79625 51.66 62.79625 
z
" style="fill:#ffffff;opacity:0.8;stroke:#cccccc;stroke-linejoin:miter;"/>
    </g>
    <g id="line2d_29">
     <path d="M 53.66 38.538437 
L 73.66 38.538437 
" style="fill:none;stroke:#1f77b4;stroke-linecap:square;stroke-width:1.5;"/>
    </g>
    <g id="line2d_30"/>
    <g id="text_17">
     <!-- Lake Temp -->
     <g transform="translate(81.66 42.038437)scale(0.1 -0.1)">
      <use xlink:href="#DejaVuSans-76"/>
      <use x="55.712891" xlink:href="#DejaVuSans-97"/>
      <use x="116.992188" xlink:href="#DejaVuSans-107"/>
      <use x="171.277344" xlink:href="#DejaVuSans-101"/>
      <use x="232.800781" xlink:href="#DejaVuSans-32"/>
      <use x="264.587891" xlink:href="#DejaVuSans-84"/>
      <use x="308.671875" xlink:href="#DejaVuSans-101"/>
      <use x="370.195312" xlink:href="#DejaVuSans-109"/>
      <use x="467.607422" xlink:href="#DejaVuSans-112"/>
     </g>
    </g>
    <g id="line2d_31">
     <path d="M 53.66 53.216562 
L 73.66 53.216562 
" style="fill:none;stroke:#ff7f0e;stroke-linecap:square;stroke-width:1.5;"/>
    </g>
    <g id="line2d_32"/>
    <g id="text_18">
     <!-- Air Temp -->
     <g transform="translate(81.66 56.716562)scale(0.1 -0.1)">
      <use xlink:href="#DejaVuSans-65"/>
      <use x="68.408203" xlink:href="#DejaVuSans-105"/>
      <use x="96.191406" xlink:href="#DejaVuSans-114"/>
      <use x="137.304688" xlink:href="#DejaVuSans-32"/>
      <use x="169.091797" xlink:href="#DejaVuSans-84"/>
      <use x="213.175781" xlink:href="#DejaVuSans-101"/>
      <use x="274.699219" xlink:href="#DejaVuSans-109"/>
      <use x="372.111328" xlink:href="#DejaVuSans-112"/>
     </g>
    </g>
   </g>
  </g>
 </g>
 <defs>
  <clipPath id="pcd450b8f92">
   <rect height="230.198708" width="398.848168" x="44.66" y="25.44"/>
  </clipPath>
 </defs>
</svg>
